ISO-10303-21;
HEADER;
/* Generated by software using Delcam plc STEP library */

FILE_DESCRIPTION(
/* description */ ('AP-214 File'),
/* implementation_level */ '2;1');

FILE_NAME(
/* name */ 'D106',
/* time_stamp */ 'Tue Oct 18 08:46:26 2016',
/* author */ (''),
/* organization */ (''),
/* preprocessor_version */ 'DELCAM STEP V1',
/* originating_system */ 'Exchange7.1.0006',
/* authorisation */ '');

FILE_SCHEMA (('AUTOMOTIVE_DESIGN'));
ENDSEC;
DATA;
#10=DRAUGHTING_PRE_DEFINED_CURVE_FONT('continuous');
#11=CURVE_STYLE('',#10,POSITIVE_LENGTH_MEASURE(0.3),#46);
#12=PRESENTATION_STYLE_ASSIGNMENT((#23));
#13=PRESENTATION_STYLE_ASSIGNMENT((#24));
#14=PRESENTATION_STYLE_ASSIGNMENT((#11));
#15=SURFACE_SIDE_STYLE('',(#17));
#16=SURFACE_SIDE_STYLE('',(#18));
#17=SURFACE_STYLE_FILL_AREA(#19);
#18=SURFACE_STYLE_FILL_AREA(#20);
#19=FILL_AREA_STYLE('',(#21));
#20=FILL_AREA_STYLE('',(#22));
#21=FILL_AREA_STYLE_COLOUR('',#44);
#22=FILL_AREA_STYLE_COLOUR('',#45);
#23=SURFACE_STYLE_USAGE(.BOTH.,#15);
#24=SURFACE_STYLE_USAGE(.BOTH.,#16);
#25=STYLED_ITEM('',(#12),#70);
#26=STYLED_ITEM('',(#12),#71);
#27=STYLED_ITEM('',(#12),#72);
#28=STYLED_ITEM('',(#12),#73);
#29=STYLED_ITEM('',(#12),#74);
#30=STYLED_ITEM('',(#12),#75);
#31=STYLED_ITEM('',(#12),#76);
#32=STYLED_ITEM('',(#12),#77);
#33=STYLED_ITEM('',(#12),#78);
#34=STYLED_ITEM('',(#12),#79);
#35=STYLED_ITEM('',(#12),#80);
#36=STYLED_ITEM('',(#12),#81);
#37=STYLED_ITEM('',(#12),#82);
#38=STYLED_ITEM('',(#12),#83);
#39=STYLED_ITEM('',(#12),#84);
#40=STYLED_ITEM('',(#12),#85);
#41=STYLED_ITEM('',(#12),#86);
#42=STYLED_ITEM('',(#13),#69);
#43=STYLED_ITEM('',(#14),#54);
#44=COLOUR_RGB('',0.,0.,0.);
#45=COLOUR_RGB('rgb_colour_2',0.4,0.4,0.4);
#46=COLOUR_RGB('rgb_colour_1',0.,0.4,0.1);
#47=MECHANICAL_DESIGN_GEOMETRIC_PRESENTATION_REPRESENTATION('',(#25,#26,#27,
#28,#29,#30,#31,#32,#33,#34,#35,#36,#37,#38,#39,#40,#41,#42,#43),#669);
#48=PRESENTATION_LAYER_ASSIGNMENT('30','D 106',(#70,#71,#72,#73,#74,#75,#76,
#77,#78,#79,#80,#81,#82,#83,#84,#85,#86,#69,#54));
#49=GEOMETRICALLY_BOUNDED_WIREFRAME_SHAPE_REPRESENTATION('',(#50),#669);
#50=GEOMETRIC_CURVE_SET('',(#54));
#51=SHAPE_REPRESENTATION_RELATIONSHIP('','',#380,#53);
#52=SHAPE_REPRESENTATION_RELATIONSHIP('','',#380,#49);
#53=ADVANCED_BREP_SHAPE_REPRESENTATION('',(#68),#669);
#54=COMPOSITE_CURVE('336',(#61,#62,#63,#64,#65,#66,#67),.T.);
#55=CURVE_REPLICA('',#322,#58);
#56=CURVE_REPLICA('',#323,#59);
#57=CURVE_REPLICA('',#324,#60);
#58=CARTESIAN_TRANSFORMATION_OPERATOR_3D($,$,$,#457,#458,#662,1.,#459);
#59=CARTESIAN_TRANSFORMATION_OPERATOR_3D($,$,$,#461,#462,#664,1.,#463);
#60=CARTESIAN_TRANSFORMATION_OPERATOR_3D($,$,$,#465,#466,#666,1.,#467);
#61=COMPOSITE_CURVE_SEGMENT(.CONTINUOUS.,.T.,#252);
#62=COMPOSITE_CURVE_SEGMENT(.CONTINUOUS.,.T.,#253);
#63=COMPOSITE_CURVE_SEGMENT(.CONTINUOUS.,.T.,#254);
#64=COMPOSITE_CURVE_SEGMENT(.CONTINUOUS.,.T.,#255);
#65=COMPOSITE_CURVE_SEGMENT(.CONTINUOUS.,.T.,#55);
#66=COMPOSITE_CURVE_SEGMENT(.CONTINUOUS.,.T.,#56);
#67=COMPOSITE_CURVE_SEGMENT(.CONTINUOUS.,.T.,#57);
#68=MANIFOLD_SOLID_BREP('947',#69);
#69=CLOSED_SHELL('',(#70,#71,#72,#73,#74,#75,#76,#77,#78,#79,#80,#81,#82,#83,
#84,#85,#86));
#70=ADVANCED_FACE('',(#87),#211,.F.);
#71=ADVANCED_FACE('',(#88),#212,.F.);
#72=ADVANCED_FACE('',(#89),#213,.F.);
#73=ADVANCED_FACE('',(#90),#214,.F.);
#74=ADVANCED_FACE('',(#91),#215,.F.);
#75=ADVANCED_FACE('',(#92),#216,.F.);
#76=ADVANCED_FACE('',(#93),#217,.F.);
#77=ADVANCED_FACE('',(#94),#218,.F.);
#78=ADVANCED_FACE('',(#95),#219,.F.);
#79=ADVANCED_FACE('',(#96),#220,.F.);
#80=ADVANCED_FACE('',(#97),#221,.F.);
#81=ADVANCED_FACE('',(#98),#222,.F.);
#82=ADVANCED_FACE('',(#99),#223,.F.);
#83=ADVANCED_FACE('',(#100),#224,.F.);
#84=ADVANCED_FACE('',(#101),#225,.F.);
#85=ADVANCED_FACE('',(#102),#226,.T.);
#86=ADVANCED_FACE('',(#103),#227,.F.);
#87=FACE_OUTER_BOUND('',#104,.T.);
#88=FACE_OUTER_BOUND('',#105,.T.);
#89=FACE_OUTER_BOUND('',#106,.T.);
#90=FACE_OUTER_BOUND('',#107,.T.);
#91=FACE_OUTER_BOUND('',#108,.T.);
#92=FACE_OUTER_BOUND('',#109,.T.);
#93=FACE_OUTER_BOUND('',#110,.T.);
#94=FACE_OUTER_BOUND('',#111,.T.);
#95=FACE_OUTER_BOUND('',#112,.T.);
#96=FACE_OUTER_BOUND('',#113,.T.);
#97=FACE_OUTER_BOUND('',#114,.T.);
#98=FACE_OUTER_BOUND('',#115,.T.);
#99=FACE_OUTER_BOUND('',#116,.T.);
#100=FACE_OUTER_BOUND('',#117,.T.);
#101=FACE_OUTER_BOUND('',#118,.T.);
#102=FACE_OUTER_BOUND('',#119,.T.);
#103=FACE_OUTER_BOUND('',#120,.T.);
#104=EDGE_LOOP('',(#121,#122,#123,#124));
#105=EDGE_LOOP('',(#125,#126,#127,#128));
#106=EDGE_LOOP('',(#129,#130,#131,#132));
#107=EDGE_LOOP('',(#133,#134,#135,#136));
#108=EDGE_LOOP('',(#137,#138,#139,#140));
#109=EDGE_LOOP('',(#141,#142,#143,#144));
#110=EDGE_LOOP('',(#145,#146,#147,#148));
#111=EDGE_LOOP('',(#149,#150,#151,#152));
#112=EDGE_LOOP('',(#153,#154,#155,#156));
#113=EDGE_LOOP('',(#157,#158,#159,#160));
#114=EDGE_LOOP('',(#161,#162,#163,#164));
#115=EDGE_LOOP('',(#165,#166,#167,#168));
#116=EDGE_LOOP('',(#169,#170,#171,#172));
#117=EDGE_LOOP('',(#173,#174,#175,#176));
#118=EDGE_LOOP('',(#177,#178,#179,#180));
#119=EDGE_LOOP('',(#181,#182,#183,#184,#185,#186,#187,#188,#189,#190,#191,#192
,#193,#194,#195));
#120=EDGE_LOOP('',(#196,#197,#198,#199,#200,#201,#202,#203,#204,#205,#206,#207
,#208,#209,#210));
#121=ORIENTED_EDGE('',*,*,#300,.T.);
#122=ORIENTED_EDGE('',*,*,#256,.F.);
#123=ORIENTED_EDGE('',*,*,#285,.F.);
#124=ORIENTED_EDGE('',*,*,#270,.T.);
#125=ORIENTED_EDGE('',*,*,#299,.T.);
#126=ORIENTED_EDGE('',*,*,#257,.F.);
#127=ORIENTED_EDGE('',*,*,#284,.F.);
#128=ORIENTED_EDGE('',*,*,#256,.T.);
#129=ORIENTED_EDGE('',*,*,#298,.T.);
#130=ORIENTED_EDGE('',*,*,#258,.F.);
#131=ORIENTED_EDGE('',*,*,#283,.F.);
#132=ORIENTED_EDGE('',*,*,#257,.T.);
#133=ORIENTED_EDGE('',*,*,#297,.T.);
#134=ORIENTED_EDGE('',*,*,#259,.F.);
#135=ORIENTED_EDGE('',*,*,#282,.F.);
#136=ORIENTED_EDGE('',*,*,#258,.T.);
#137=ORIENTED_EDGE('',*,*,#296,.T.);
#138=ORIENTED_EDGE('',*,*,#260,.F.);
#139=ORIENTED_EDGE('',*,*,#281,.F.);
#140=ORIENTED_EDGE('',*,*,#259,.T.);
#141=ORIENTED_EDGE('',*,*,#295,.T.);
#142=ORIENTED_EDGE('',*,*,#261,.F.);
#143=ORIENTED_EDGE('',*,*,#280,.F.);
#144=ORIENTED_EDGE('',*,*,#260,.T.);
#145=ORIENTED_EDGE('',*,*,#294,.T.);
#146=ORIENTED_EDGE('',*,*,#262,.F.);
#147=ORIENTED_EDGE('',*,*,#279,.F.);
#148=ORIENTED_EDGE('',*,*,#261,.T.);
#149=ORIENTED_EDGE('',*,*,#293,.T.);
#150=ORIENTED_EDGE('',*,*,#263,.F.);
#151=ORIENTED_EDGE('',*,*,#278,.F.);
#152=ORIENTED_EDGE('',*,*,#262,.T.);
#153=ORIENTED_EDGE('',*,*,#292,.T.);
#154=ORIENTED_EDGE('',*,*,#264,.F.);
#155=ORIENTED_EDGE('',*,*,#277,.F.);
#156=ORIENTED_EDGE('',*,*,#263,.T.);
#157=ORIENTED_EDGE('',*,*,#291,.T.);
#158=ORIENTED_EDGE('',*,*,#265,.F.);
#159=ORIENTED_EDGE('',*,*,#276,.F.);
#160=ORIENTED_EDGE('',*,*,#264,.T.);
#161=ORIENTED_EDGE('',*,*,#290,.T.);
#162=ORIENTED_EDGE('',*,*,#266,.F.);
#163=ORIENTED_EDGE('',*,*,#275,.F.);
#164=ORIENTED_EDGE('',*,*,#265,.T.);
#165=ORIENTED_EDGE('',*,*,#289,.T.);
#166=ORIENTED_EDGE('',*,*,#267,.F.);
#167=ORIENTED_EDGE('',*,*,#274,.F.);
#168=ORIENTED_EDGE('',*,*,#266,.T.);
#169=ORIENTED_EDGE('',*,*,#288,.T.);
#170=ORIENTED_EDGE('',*,*,#268,.F.);
#171=ORIENTED_EDGE('',*,*,#273,.F.);
#172=ORIENTED_EDGE('',*,*,#267,.T.);
#173=ORIENTED_EDGE('',*,*,#287,.T.);
#174=ORIENTED_EDGE('',*,*,#269,.F.);
#175=ORIENTED_EDGE('',*,*,#272,.F.);
#176=ORIENTED_EDGE('',*,*,#268,.T.);
#177=ORIENTED_EDGE('',*,*,#286,.T.);
#178=ORIENTED_EDGE('',*,*,#270,.F.);
#179=ORIENTED_EDGE('',*,*,#271,.F.);
#180=ORIENTED_EDGE('',*,*,#269,.T.);
#181=ORIENTED_EDGE('',*,*,#285,.T.);
#182=ORIENTED_EDGE('',*,*,#284,.T.);
#183=ORIENTED_EDGE('',*,*,#283,.T.);
#184=ORIENTED_EDGE('',*,*,#282,.T.);
#185=ORIENTED_EDGE('',*,*,#281,.T.);
#186=ORIENTED_EDGE('',*,*,#280,.T.);
#187=ORIENTED_EDGE('',*,*,#279,.T.);
#188=ORIENTED_EDGE('',*,*,#278,.T.);
#189=ORIENTED_EDGE('',*,*,#277,.T.);
#190=ORIENTED_EDGE('',*,*,#276,.T.);
#191=ORIENTED_EDGE('',*,*,#275,.T.);
#192=ORIENTED_EDGE('',*,*,#274,.T.);
#193=ORIENTED_EDGE('',*,*,#273,.T.);
#194=ORIENTED_EDGE('',*,*,#272,.T.);
#195=ORIENTED_EDGE('',*,*,#271,.T.);
#196=ORIENTED_EDGE('',*,*,#300,.F.);
#197=ORIENTED_EDGE('',*,*,#286,.F.);
#198=ORIENTED_EDGE('',*,*,#287,.F.);
#199=ORIENTED_EDGE('',*,*,#288,.F.);
#200=ORIENTED_EDGE('',*,*,#289,.F.);
#201=ORIENTED_EDGE('',*,*,#290,.F.);
#202=ORIENTED_EDGE('',*,*,#291,.F.);
#203=ORIENTED_EDGE('',*,*,#292,.F.);
#204=ORIENTED_EDGE('',*,*,#293,.F.);
#205=ORIENTED_EDGE('',*,*,#294,.F.);
#206=ORIENTED_EDGE('',*,*,#295,.F.);
#207=ORIENTED_EDGE('',*,*,#296,.F.);
#208=ORIENTED_EDGE('',*,*,#297,.F.);
#209=ORIENTED_EDGE('',*,*,#298,.F.);
#210=ORIENTED_EDGE('',*,*,#299,.F.);
#211=PLANE('',#382);
#212=PLANE('',#383);
#213=PLANE('',#384);
#214=PLANE('',#385);
#215=PLANE('',#386);
#216=PLANE('',#387);
#217=PLANE('',#388);
#218=PLANE('',#389);
#219=PLANE('',#390);
#220=PLANE('',#391);
#221=PLANE('',#392);
#222=PLANE('',#393);
#223=PLANE('',#394);
#224=PLANE('',#395);
#225=PLANE('',#396);
#226=PLANE('',#397);
#227=PLANE('',#398);
#228=B_SPLINE_CURVE_WITH_KNOTS('',3,(#515,#516,#517,#518),.UNSPECIFIED.,.F.,
.F.,(4,4),(4.,5.),.UNSPECIFIED.);
#229=B_SPLINE_CURVE_WITH_KNOTS('',3,(#519,#520,#521,#522),.UNSPECIFIED.,.F.,
.F.,(4,4),(3.,4.),.UNSPECIFIED.);
#230=B_SPLINE_CURVE_WITH_KNOTS('',3,(#523,#524,#525,#526),.UNSPECIFIED.,.F.,
.F.,(4,4),(2.,3.),.UNSPECIFIED.);
#231=B_SPLINE_CURVE_WITH_KNOTS('',3,(#527,#528,#529,#530),.UNSPECIFIED.,.F.,
.F.,(4,4),(1.,2.),.UNSPECIFIED.);
#232=B_SPLINE_CURVE_WITH_KNOTS('',3,(#531,#532,#533,#534),.UNSPECIFIED.,.F.,
.F.,(4,4),(0.,1.),.UNSPECIFIED.);
#233=B_SPLINE_CURVE_WITH_KNOTS('',3,(#535,#536,#537,#538),.UNSPECIFIED.,.F.,
.F.,(4,4),(0.,1.),.UNSPECIFIED.);
#234=B_SPLINE_CURVE_WITH_KNOTS('',3,(#539,#540,#541,#542),.UNSPECIFIED.,.F.,
.F.,(4,4),(0.,1.),.UNSPECIFIED.);
#235=B_SPLINE_CURVE_WITH_KNOTS('',3,(#543,#544,#545,#546),.UNSPECIFIED.,.F.,
.F.,(4,4),(0.,1.),.UNSPECIFIED.);
#236=B_SPLINE_CURVE_WITH_KNOTS('',3,(#547,#548,#549,#550),.UNSPECIFIED.,.F.,
.F.,(4,4),(0.,1.),.UNSPECIFIED.);
#237=B_SPLINE_CURVE_WITH_KNOTS('',3,(#551,#552,#553,#554),.UNSPECIFIED.,.F.,
.F.,(4,4),(0.,1.),.UNSPECIFIED.);
#238=B_SPLINE_CURVE_WITH_KNOTS('',3,(#556,#557,#558,#559),.UNSPECIFIED.,.F.,
.F.,(4,4),(1.,2.),.UNSPECIFIED.);
#239=B_SPLINE_CURVE_WITH_KNOTS('',3,(#560,#561,#562,#563),.UNSPECIFIED.,.F.,
.F.,(4,4),(0.,1.),.UNSPECIFIED.);
#240=B_SPLINE_CURVE_WITH_KNOTS('',3,(#566,#567,#568,#569),.UNSPECIFIED.,.F.,
.F.,(4,4),(4.,5.),.UNSPECIFIED.);
#241=B_SPLINE_CURVE_WITH_KNOTS('',3,(#570,#571,#572,#573),.UNSPECIFIED.,.F.,
.F.,(4,4),(3.,4.),.UNSPECIFIED.);
#242=B_SPLINE_CURVE_WITH_KNOTS('',3,(#574,#575,#576,#577),.UNSPECIFIED.,.F.,
.F.,(4,4),(2.,3.),.UNSPECIFIED.);
#243=B_SPLINE_CURVE_WITH_KNOTS('',3,(#578,#579,#580,#581),.UNSPECIFIED.,.F.,
.F.,(4,4),(1.,2.),.UNSPECIFIED.);
#244=B_SPLINE_CURVE_WITH_KNOTS('',3,(#582,#583,#584,#585),.UNSPECIFIED.,.F.,
.F.,(4,4),(0.,1.),.UNSPECIFIED.);
#245=B_SPLINE_CURVE_WITH_KNOTS('',3,(#586,#587,#588,#589),.UNSPECIFIED.,.F.,
.F.,(4,4),(0.,1.),.UNSPECIFIED.);
#246=B_SPLINE_CURVE_WITH_KNOTS('',3,(#590,#591,#592,#593),.UNSPECIFIED.,.F.,
.F.,(4,4),(0.,1.),.UNSPECIFIED.);
#247=B_SPLINE_CURVE_WITH_KNOTS('',3,(#594,#595,#596,#597),.UNSPECIFIED.,.F.,
.F.,(4,4),(0.,1.),.UNSPECIFIED.);
#248=B_SPLINE_CURVE_WITH_KNOTS('',3,(#598,#599,#600,#601),.UNSPECIFIED.,.F.,
.F.,(4,4),(0.,1.),.UNSPECIFIED.);
#249=B_SPLINE_CURVE_WITH_KNOTS('',3,(#602,#603,#604,#605),.UNSPECIFIED.,.F.,
.F.,(4,4),(0.,1.),.UNSPECIFIED.);
#250=B_SPLINE_CURVE_WITH_KNOTS('',3,(#607,#608,#609,#610),.UNSPECIFIED.,.F.,
.F.,(4,4),(1.,2.),.UNSPECIFIED.);
#251=B_SPLINE_CURVE_WITH_KNOTS('',3,(#611,#612,#613,#614),.UNSPECIFIED.,.F.,
.F.,(4,4),(0.,1.),.UNSPECIFIED.);
#252=B_SPLINE_CURVE_WITH_KNOTS('',3,(#633,#634,#635,#636,#637,#638,#639,#640,
#641,#642,#643,#644,#645,#646,#647,#648),.UNSPECIFIED.,.F.,.F.,(4,3,3,3,3,4),(
0.,1.,2.,3.,4.,5.),.UNSPECIFIED.);
#253=B_SPLINE_CURVE_WITH_KNOTS('',3,(#649,#650,#651,#652),.UNSPECIFIED.,.F.,
.F.,(4,4),(0.,1.),.UNSPECIFIED.);
#254=B_SPLINE_CURVE_WITH_KNOTS('',3,(#653,#654,#655,#656),.UNSPECIFIED.,.F.,
.F.,(4,4),(0.,1.),.UNSPECIFIED.);
#255=B_SPLINE_CURVE_WITH_KNOTS('',3,(#657,#658,#659,#660),.UNSPECIFIED.,.F.,
.F.,(4,4),(0.,1.),.UNSPECIFIED.);
#256=EDGE_CURVE('',#363,#378,#301,.T.);
#257=EDGE_CURVE('',#362,#377,#302,.T.);
#258=EDGE_CURVE('',#361,#376,#303,.T.);
#259=EDGE_CURVE('',#360,#375,#304,.T.);
#260=EDGE_CURVE('',#359,#374,#305,.T.);
#261=EDGE_CURVE('',#358,#373,#306,.T.);
#262=EDGE_CURVE('',#357,#372,#307,.T.);
#263=EDGE_CURVE('',#356,#371,#308,.T.);
#264=EDGE_CURVE('',#355,#370,#309,.T.);
#265=EDGE_CURVE('',#354,#369,#310,.T.);
#266=EDGE_CURVE('',#353,#368,#311,.T.);
#267=EDGE_CURVE('',#352,#367,#312,.T.);
#268=EDGE_CURVE('',#351,#366,#313,.T.);
#269=EDGE_CURVE('',#350,#365,#314,.T.);
#270=EDGE_CURVE('',#349,#364,#315,.T.);
#271=EDGE_CURVE('',#350,#349,#316,.T.);
#272=EDGE_CURVE('',#351,#350,#228,.T.);
#273=EDGE_CURVE('',#352,#351,#229,.T.);
#274=EDGE_CURVE('',#353,#352,#230,.T.);
#275=EDGE_CURVE('',#354,#353,#231,.T.);
#276=EDGE_CURVE('',#355,#354,#232,.T.);
#277=EDGE_CURVE('',#356,#355,#233,.T.);
#278=EDGE_CURVE('',#357,#356,#234,.T.);
#279=EDGE_CURVE('',#358,#357,#235,.T.);
#280=EDGE_CURVE('',#359,#358,#236,.T.);
#281=EDGE_CURVE('',#360,#359,#237,.T.);
#282=EDGE_CURVE('',#361,#360,#317,.T.);
#283=EDGE_CURVE('',#362,#361,#238,.T.);
#284=EDGE_CURVE('',#363,#362,#239,.T.);
#285=EDGE_CURVE('',#349,#363,#318,.T.);
#286=EDGE_CURVE('',#365,#364,#319,.T.);
#287=EDGE_CURVE('',#366,#365,#240,.T.);
#288=EDGE_CURVE('',#367,#366,#241,.T.);
#289=EDGE_CURVE('',#368,#367,#242,.T.);
#290=EDGE_CURVE('',#369,#368,#243,.T.);
#291=EDGE_CURVE('',#370,#369,#244,.T.);
#292=EDGE_CURVE('',#371,#370,#245,.T.);
#293=EDGE_CURVE('',#372,#371,#246,.T.);
#294=EDGE_CURVE('',#373,#372,#247,.T.);
#295=EDGE_CURVE('',#374,#373,#248,.T.);
#296=EDGE_CURVE('',#375,#374,#249,.T.);
#297=EDGE_CURVE('',#376,#375,#320,.T.);
#298=EDGE_CURVE('',#377,#376,#250,.T.);
#299=EDGE_CURVE('',#378,#377,#251,.T.);
#300=EDGE_CURVE('',#364,#378,#321,.T.);
#301=LINE('',#499,#325);
#302=LINE('',#500,#326);
#303=LINE('',#501,#327);
#304=LINE('',#502,#328);
#305=LINE('',#503,#329);
#306=LINE('',#504,#330);
#307=LINE('',#505,#331);
#308=LINE('',#506,#332);
#309=LINE('',#507,#333);
#310=LINE('',#508,#334);
#311=LINE('',#509,#335);
#312=LINE('',#510,#336);
#313=LINE('',#511,#337);
#314=LINE('',#512,#338);
#315=LINE('',#513,#339);
#316=LINE('',#514,#340);
#317=LINE('',#555,#341);
#318=LINE('',#564,#342);
#319=LINE('',#565,#343);
#320=LINE('',#606,#344);
#321=LINE('',#615,#345);
#322=LINE('',#661,#346);
#323=LINE('',#663,#347);
#324=LINE('',#665,#348);
#325=VECTOR('',#401,1.);
#326=VECTOR('',#402,1.);
#327=VECTOR('',#403,1.);
#328=VECTOR('',#404,1.);
#329=VECTOR('',#405,1.);
#330=VECTOR('',#406,1.);
#331=VECTOR('',#407,1.);
#332=VECTOR('',#408,1.);
#333=VECTOR('',#409,1.);
#334=VECTOR('',#410,1.);
#335=VECTOR('',#411,1.);
#336=VECTOR('',#412,1.);
#337=VECTOR('',#413,1.);
#338=VECTOR('',#414,1.);
#339=VECTOR('',#415,1.);
#340=VECTOR('',#416,1.);
#341=VECTOR('',#417,1.);
#342=VECTOR('',#418,1.);
#343=VECTOR('',#419,1.);
#344=VECTOR('',#420,1.);
#345=VECTOR('',#421,1.);
#346=VECTOR('',#456,1.);
#347=VECTOR('',#460,1.);
#348=VECTOR('',#464,1.);
#349=VERTEX_POINT('',#469);
#350=VERTEX_POINT('',#470);
#351=VERTEX_POINT('',#471);
#352=VERTEX_POINT('',#472);
#353=VERTEX_POINT('',#473);
#354=VERTEX_POINT('',#474);
#355=VERTEX_POINT('',#475);
#356=VERTEX_POINT('',#476);
#357=VERTEX_POINT('',#477);
#358=VERTEX_POINT('',#478);
#359=VERTEX_POINT('',#479);
#360=VERTEX_POINT('',#480);
#361=VERTEX_POINT('',#481);
#362=VERTEX_POINT('',#482);
#363=VERTEX_POINT('',#483);
#364=VERTEX_POINT('',#484);
#365=VERTEX_POINT('',#485);
#366=VERTEX_POINT('',#486);
#367=VERTEX_POINT('',#487);
#368=VERTEX_POINT('',#488);
#369=VERTEX_POINT('',#489);
#370=VERTEX_POINT('',#490);
#371=VERTEX_POINT('',#491);
#372=VERTEX_POINT('',#492);
#373=VERTEX_POINT('',#493);
#374=VERTEX_POINT('',#494);
#375=VERTEX_POINT('',#495);
#376=VERTEX_POINT('',#496);
#377=VERTEX_POINT('',#497);
#378=VERTEX_POINT('',#498);
#379=SHAPE_DEFINITION_REPRESENTATION(#667,#380);
#380=SHAPE_REPRESENTATION('master',(#381),#669);
#381=AXIS2_PLACEMENT_3D('',#468,#400,#399);
#382=AXIS2_PLACEMENT_3D('',#616,#423,#422);
#383=AXIS2_PLACEMENT_3D('',#617,#425,#424);
#384=AXIS2_PLACEMENT_3D('',#618,#427,#426);
#385=AXIS2_PLACEMENT_3D('',#619,#429,#428);
#386=AXIS2_PLACEMENT_3D('',#620,#431,#430);
#387=AXIS2_PLACEMENT_3D('',#621,#433,#432);
#388=AXIS2_PLACEMENT_3D('',#622,#435,#434);
#389=AXIS2_PLACEMENT_3D('',#623,#437,#436);
#390=AXIS2_PLACEMENT_3D('',#624,#439,#438);
#391=AXIS2_PLACEMENT_3D('',#625,#441,#440);
#392=AXIS2_PLACEMENT_3D('',#626,#443,#442);
#393=AXIS2_PLACEMENT_3D('',#627,#445,#444);
#394=AXIS2_PLACEMENT_3D('',#628,#447,#446);
#395=AXIS2_PLACEMENT_3D('',#629,#449,#448);
#396=AXIS2_PLACEMENT_3D('',#630,#451,#450);
#397=AXIS2_PLACEMENT_3D('',#631,#453,#452);
#398=AXIS2_PLACEMENT_3D('',#632,#455,#454);
#399=DIRECTION('',(1.,0.,0.));
#400=DIRECTION('',(0.,0.,1.));
#401=DIRECTION('',(-3.30565925958605E-016,-1.,3.28065496752524E-015));
#402=DIRECTION('',(-3.30565925958605E-016,-1.,3.28065496752524E-015));
#403=DIRECTION('',(-3.30565925958605E-016,-1.,3.28065496752524E-015));
#404=DIRECTION('',(-3.30565925958605E-016,-1.,3.28065496752524E-015));
#405=DIRECTION('',(-3.30565925958605E-016,-1.,3.28065496752524E-015));
#406=DIRECTION('',(-3.30565925958605E-016,-1.,3.28065496752524E-015));
#407=DIRECTION('',(-3.30565925958605E-016,-1.,3.28065496752524E-015));
#408=DIRECTION('',(-3.30565925958605E-016,-1.,3.28065496752524E-015));
#409=DIRECTION('',(-3.30565925958605E-016,-1.,3.28065496752524E-015));
#410=DIRECTION('',(-3.30565925958605E-016,-1.,3.28065496752524E-015));
#411=DIRECTION('',(-3.30565925958605E-016,-1.,3.28065496752524E-015));
#412=DIRECTION('',(-3.30565925958605E-016,-1.,3.28065496752524E-015));
#413=DIRECTION('',(-3.30565925958605E-016,-1.,3.28065496752524E-015));
#414=DIRECTION('',(-3.30565925958605E-016,-1.,3.28065496752524E-015));
#415=DIRECTION('',(-3.30565925958605E-016,-1.,3.28065496752524E-015));
#416=DIRECTION('',(1.,-0.,-0.));
#417=DIRECTION('',(1.,-0.,1.63155458200046E-013));
#418=DIRECTION('',(0.275637355816997,0.,-0.961261695938319));
#419=DIRECTION('',(1.,-0.,-0.));
#420=DIRECTION('',(1.,-0.,1.63155458200046E-013));
#421=DIRECTION('',(0.275637355816997,0.,-0.961261695938319));
#422=DIRECTION('',(-0.275637355816997,2.46519032881566E-032,0.96126169593832)
);
#423=DIRECTION('',(-0.961261695938319,-5.86510697990165E-016,
-0.275637355816997));
#424=DIRECTION('',(-0.999996969041012,0.,0.0024620943908757));
#425=DIRECTION('',(-0.0024620943908757,-3.27983113948247E-015,
-0.999996969041012));
#426=DIRECTION('',(-0.27472112789738,2.46519032881566E-032,0.961523947640823)
);
#427=DIRECTION('',(-0.961523947640823,-5.83418178837415E-016,-0.27472112789738
));
#428=DIRECTION('',(-1.,0.,-1.63155458200046E-013));
#429=DIRECTION('',(1.63155458200046E-013,-3.2806549675253E-015,-1.));
#430=DIRECTION('',(0.,1.,-3.28065496752524E-015));
#431=DIRECTION('',(0.,-3.28065496752524E-015,-1.));
#432=DIRECTION('',(-0.999981601503014,0.,0.0060660246840838));
#433=DIRECTION('',(-0.0060660246840838,-3.27858938733813E-015,
-0.999981601503014));
#434=DIRECTION('',(-0.274730928146321,9.86076131526265E-032,-0.961521147515675
));
#435=DIRECTION('',(0.961521147515675,-1.21914351261335E-015,-0.274730928146321
));
#436=DIRECTION('',(-0.274730928149972,0.,-0.961521147514632));
#437=DIRECTION('',(0.961521147514632,-1.21914351262498E-015,-0.274730928149972
));
#438=DIRECTION('',(0.,1.,-3.28065496752524E-015));
#439=DIRECTION('',(0.,-3.28065496752524E-015,-1.));
#440=DIRECTION('',(-3.30565925958605E-016,-1.,0.));
#441=DIRECTION('',(-1.,3.30565925958605E-016,0.));
#442=DIRECTION('',(0.,-1.,3.28065496752524E-015));
#443=DIRECTION('',(0.,3.28065496752524E-015,1.));
#444=DIRECTION('',(0.0285597738988769,0.,-0.999592086460695));
#445=DIRECTION('',(0.999592086460695,-2.36736319529025E-016,0.0285597738988769
));
#446=DIRECTION('',(0.,-1.,3.28065496752524E-015));
#447=DIRECTION('',(0.,3.28065496752524E-015,1.));
#448=DIRECTION('',(0.0665190105237754,0.,-0.997785157856609));
#449=DIRECTION('',(0.997785157856609,-1.11607852304935E-016,0.0665190105237754
));
#450=DIRECTION('',(0.,1.,-3.28065496752524E-015));
#451=DIRECTION('',(-0.,-3.28065496752524E-015,-1.));
#452=DIRECTION('',(0.,-0.,1.));
#453=DIRECTION('',(0.,1.,0.));
#454=DIRECTION('',(0.,-0.,1.));
#455=DIRECTION('',(0.,1.,0.));
#456=DIRECTION('',(-0.274721127897385,-0.,0.961523947640821));
#457=DIRECTION('',(1.,0.,0.));
#458=DIRECTION('',(0.,1.,0.));
#459=DIRECTION('',(0.,0.,1.));
#460=DIRECTION('',(-1.,-0.,-0.));
#461=DIRECTION('',(1.,0.,0.));
#462=DIRECTION('',(0.,1.,0.));
#463=DIRECTION('',(0.,0.,1.));
#464=DIRECTION('',(-1.,-0.,-0.));
#465=DIRECTION('',(1.,0.,0.));
#466=DIRECTION('',(0.,1.,0.));
#467=DIRECTION('',(0.,0.,1.));
#468=CARTESIAN_POINT('',(0.,0.,0.));
#469=CARTESIAN_POINT('',(64.6648008957006,2000.,249.499999999993));
#470=CARTESIAN_POINT('',(6.80011602582908E-013,2000.,249.499999999993));
#471=CARTESIAN_POINT('',(1.00000000000068,2000.,234.499999999993));
#472=CARTESIAN_POINT('',(49.0000000000007,2000.,234.499999999993));
#473=CARTESIAN_POINT('',(50.0000000000007,2000.,199.499999999993));
#474=CARTESIAN_POINT('',(350.000000000001,2000.,199.499999999993));
#475=CARTESIAN_POINT('',(350.000000000001,2000.,249.499999999993));
#476=CARTESIAN_POINT('',(334.97442833618,2000.,249.499999999993));
#477=CARTESIAN_POINT('',(324.974042478726,2000.,214.499999999994));
#478=CARTESIAN_POINT('',(324.956784894512,2000.,214.439600785794));
#479=CARTESIAN_POINT('',(315.000000000001,2000.,214.499999999993));
#480=CARTESIAN_POINT('',(77.488154480751,2000.,214.499999999993));
#481=CARTESIAN_POINT('',(74.7009516748915,2000.,214.499999999993));
#482=CARTESIAN_POINT('',(64.7464980958327,2000.,249.340587526699));
#483=CARTESIAN_POINT('',(64.7104862626277,2000.,249.3406761915));
#484=CARTESIAN_POINT('',(64.6648008957,0.,249.5));
#485=CARTESIAN_POINT('',(1.38777878078145E-014,0.,249.5));
#486=CARTESIAN_POINT('',(1.00000000000001,0.,234.5));
#487=CARTESIAN_POINT('',(49.,0.,234.5));
#488=CARTESIAN_POINT('',(50.,0.,199.5));
#489=CARTESIAN_POINT('',(350.,0.,199.5));
#490=CARTESIAN_POINT('',(350.,1.11022302462516E-013,249.5));
#491=CARTESIAN_POINT('',(334.97442833618,0.,249.5));
#492=CARTESIAN_POINT('',(324.974042478725,0.,214.500000000001));
#493=CARTESIAN_POINT('',(324.956784894512,0.,214.439600785801));
#494=CARTESIAN_POINT('',(315.,0.,214.5));
#495=CARTESIAN_POINT('',(77.4881544807504,0.,214.5));
#496=CARTESIAN_POINT('',(74.7009516748909,0.,214.5));
#497=CARTESIAN_POINT('',(64.7464980958321,0.,249.340587526705));
#498=CARTESIAN_POINT('',(64.710486262627,0.,249.340676191506));
#499=CARTESIAN_POINT('',(64.7104862626277,2000.,249.3406761915));
#500=CARTESIAN_POINT('',(64.7464980958327,2000.,249.340587526699));
#501=CARTESIAN_POINT('',(74.7009516748915,2000.,214.499999999993));
#502=CARTESIAN_POINT('',(77.488154480751,2000.,214.499999999993));
#503=CARTESIAN_POINT('',(315.000000000001,2000.,214.499999999993));
#504=CARTESIAN_POINT('',(324.956784894512,2000.,214.439600785794));
#505=CARTESIAN_POINT('',(324.974042478726,2000.,214.499999999994));
#506=CARTESIAN_POINT('',(334.97442833618,2000.,249.499999999993));
#507=CARTESIAN_POINT('',(350.000000000001,2000.,249.499999999993));
#508=CARTESIAN_POINT('',(350.000000000001,2000.,199.499999999993));
#509=CARTESIAN_POINT('',(50.0000000000007,2000.,199.499999999993));
#510=CARTESIAN_POINT('',(49.0000000000007,2000.,234.499999999993));
#511=CARTESIAN_POINT('',(1.00000000000068,2000.,234.499999999993));
#512=CARTESIAN_POINT('',(6.80011602582908E-013,2000.,249.499999999993));
#513=CARTESIAN_POINT('',(64.6648008957006,2000.,249.499999999993));
#514=CARTESIAN_POINT('',(6.80011602582908E-013,2000.,249.499999999993));
#515=CARTESIAN_POINT('',(1.00000000000068,2000.,234.499999999993));
#516=CARTESIAN_POINT('',(0.666666666667357,2000.,239.499999999993));
#517=CARTESIAN_POINT('',(0.333333333334004,2000.,244.499999999993));
#518=CARTESIAN_POINT('',(6.80011602582908E-013,2000.,249.499999999993));
#519=CARTESIAN_POINT('',(49.0000000000007,2000.,234.499999999993));
#520=CARTESIAN_POINT('',(33.0000000000007,2000.,234.499999999993));
#521=CARTESIAN_POINT('',(17.0000000000007,2000.,234.499999999993));
#522=CARTESIAN_POINT('',(1.00000000000068,2000.,234.499999999993));
#523=CARTESIAN_POINT('',(50.0000000000007,2000.,199.499999999993));
#524=CARTESIAN_POINT('',(49.6666666666673,2000.,211.16666666666));
#525=CARTESIAN_POINT('',(49.333333333334,2000.,222.833333333327));
#526=CARTESIAN_POINT('',(49.0000000000007,2000.,234.499999999993));
#527=CARTESIAN_POINT('',(350.000000000001,2000.,199.499999999993));
#528=CARTESIAN_POINT('',(250.000000000001,2000.,199.499999999993));
#529=CARTESIAN_POINT('',(150.000000000001,2000.,199.499999999993));
#530=CARTESIAN_POINT('',(50.0000000000007,2000.,199.499999999993));
#531=CARTESIAN_POINT('',(350.000000000001,2000.,249.499999999993));
#532=CARTESIAN_POINT('',(350.000000000001,2000.,232.833333333327));
#533=CARTESIAN_POINT('',(350.000000000001,2000.,216.16666666666));
#534=CARTESIAN_POINT('',(350.000000000001,2000.,199.499999999993));
#535=CARTESIAN_POINT('',(334.97442833618,2000.,249.499999999993));
#536=CARTESIAN_POINT('',(339.98295222412,2000.,249.499999999993));
#537=CARTESIAN_POINT('',(344.991476112061,2000.,249.499999999993));
#538=CARTESIAN_POINT('',(350.000000000001,2000.,249.499999999993));
#539=CARTESIAN_POINT('',(324.974042478726,2000.,214.499999999994));
#540=CARTESIAN_POINT('',(328.30750443121,2000.,226.16666666666));
#541=CARTESIAN_POINT('',(331.640966383695,2000.,237.833333333326));
#542=CARTESIAN_POINT('',(334.97442833618,2000.,249.499999999993));
#543=CARTESIAN_POINT('',(324.956784894512,2000.,214.439600785794));
#544=CARTESIAN_POINT('',(324.962537422584,2000.,214.459733857194));
#545=CARTESIAN_POINT('',(324.968289950655,2000.,214.479866928594));
#546=CARTESIAN_POINT('',(324.974042478726,2000.,214.499999999994));
#547=CARTESIAN_POINT('',(315.000000000001,2000.,214.499999999993));
#548=CARTESIAN_POINT('',(318.318928298171,2000.,214.479866928594));
#549=CARTESIAN_POINT('',(321.637856596342,2000.,214.459733857194));
#550=CARTESIAN_POINT('',(324.956784894512,2000.,214.439600785794));
#551=CARTESIAN_POINT('',(77.488154480751,2000.,214.499999999993));
#552=CARTESIAN_POINT('',(156.658769653834,2000.,214.499999999993));
#553=CARTESIAN_POINT('',(235.829384826917,2000.,214.499999999993));
#554=CARTESIAN_POINT('',(315.000000000001,2000.,214.499999999993));
#555=CARTESIAN_POINT('',(74.7009516748915,2000.,214.499999999993));
#556=CARTESIAN_POINT('',(64.7464980958327,2000.,249.340587526699));
#557=CARTESIAN_POINT('',(68.0646492888523,2000.,237.72705835113));
#558=CARTESIAN_POINT('',(71.3828004818719,2000.,226.113529175561));
#559=CARTESIAN_POINT('',(74.7009516748915,2000.,214.499999999993));
#560=CARTESIAN_POINT('',(64.7104862626277,2000.,249.3406761915));
#561=CARTESIAN_POINT('',(64.7224902070294,2000.,249.340646636567));
#562=CARTESIAN_POINT('',(64.734494151431,2000.,249.340617081633));
#563=CARTESIAN_POINT('',(64.7464980958327,2000.,249.340587526699));
#564=CARTESIAN_POINT('',(64.6648008957007,2000.,249.499999999993));
#565=CARTESIAN_POINT('',(1.38777878078145E-014,0.,249.5));
#566=CARTESIAN_POINT('',(1.00000000000001,0.,234.5));
#567=CARTESIAN_POINT('',(0.66666666666669,0.,239.5));
#568=CARTESIAN_POINT('',(0.333333333333338,0.,244.5));
#569=CARTESIAN_POINT('',(1.38777878078145E-014,0.,249.5));
#570=CARTESIAN_POINT('',(49.,0.,234.5));
#571=CARTESIAN_POINT('',(33.,0.,234.5));
#572=CARTESIAN_POINT('',(17.,0.,234.5));
#573=CARTESIAN_POINT('',(1.00000000000001,0.,234.5));
#574=CARTESIAN_POINT('',(50.,0.,199.5));
#575=CARTESIAN_POINT('',(49.6666666666667,0.,211.166666666667));
#576=CARTESIAN_POINT('',(49.3333333333334,0.,222.833333333333));
#577=CARTESIAN_POINT('',(49.,0.,234.5));
#578=CARTESIAN_POINT('',(350.,0.,199.5));
#579=CARTESIAN_POINT('',(250.,0.,199.5));
#580=CARTESIAN_POINT('',(150.,0.,199.5));
#581=CARTESIAN_POINT('',(50.,0.,199.5));
#582=CARTESIAN_POINT('',(350.,1.11022302462516E-013,249.5));
#583=CARTESIAN_POINT('',(350.,1.11022302462516E-013,232.833333333334));
#584=CARTESIAN_POINT('',(350.,0.,216.166666666667));
#585=CARTESIAN_POINT('',(350.,0.,199.5));
#586=CARTESIAN_POINT('',(334.97442833618,0.,249.5));
#587=CARTESIAN_POINT('',(339.98295222412,0.,249.5));
#588=CARTESIAN_POINT('',(344.99147611206,1.11022302462516E-013,249.5));
#589=CARTESIAN_POINT('',(350.,1.11022302462516E-013,249.5));
#590=CARTESIAN_POINT('',(324.974042478725,0.,214.500000000001));
#591=CARTESIAN_POINT('',(328.30750443121,0.,226.166666666667));
#592=CARTESIAN_POINT('',(331.640966383695,0.,237.833333333333));
#593=CARTESIAN_POINT('',(334.97442833618,0.,249.5));
#594=CARTESIAN_POINT('',(324.956784894512,0.,214.439600785801));
#595=CARTESIAN_POINT('',(324.962537422583,0.,214.459733857201));
#596=CARTESIAN_POINT('',(324.968289950654,0.,214.479866928601));
#597=CARTESIAN_POINT('',(324.974042478725,0.,214.500000000001));
#598=CARTESIAN_POINT('',(315.,0.,214.5));
#599=CARTESIAN_POINT('',(318.318928298171,0.,214.479866928601));
#600=CARTESIAN_POINT('',(321.637856596341,0.,214.459733857201));
#601=CARTESIAN_POINT('',(324.956784894512,0.,214.439600785801));
#602=CARTESIAN_POINT('',(77.4881544807504,0.,214.5));
#603=CARTESIAN_POINT('',(156.658769653834,0.,214.5));
#604=CARTESIAN_POINT('',(235.829384826917,0.,214.5));
#605=CARTESIAN_POINT('',(315.,0.,214.5));
#606=CARTESIAN_POINT('',(74.7009516748909,0.,214.5));
#607=CARTESIAN_POINT('',(64.7464980958321,0.,249.340587526705));
#608=CARTESIAN_POINT('',(68.0646492888517,0.,237.727058351137));
#609=CARTESIAN_POINT('',(71.3828004818712,0.,226.113529175568));
#610=CARTESIAN_POINT('',(74.7009516748909,0.,214.5));
#611=CARTESIAN_POINT('',(64.710486262627,0.,249.340676191506));
#612=CARTESIAN_POINT('',(64.7224902070287,0.,249.340646636573));
#613=CARTESIAN_POINT('',(64.7344941514304,0.,249.340617081639));
#614=CARTESIAN_POINT('',(64.7464980958321,0.,249.340587526705));
#615=CARTESIAN_POINT('',(64.6648008957,0.,249.5));
#616=CARTESIAN_POINT('',(64.6648008957007,2000.,249.499999999993));
#617=CARTESIAN_POINT('',(64.7104862626277,2000.,249.3406761915));
#618=CARTESIAN_POINT('',(64.7464980958327,2000.,249.340587526699));
#619=CARTESIAN_POINT('',(74.7009516748915,2000.,214.499999999993));
#620=CARTESIAN_POINT('',(77.488154480751,2000.,214.499999999993));
#621=CARTESIAN_POINT('',(315.000000000001,2000.,214.499999999993));
#622=CARTESIAN_POINT('',(324.956784894512,2000.,214.439600785794));
#623=CARTESIAN_POINT('',(324.974042478726,2000.,214.499999999994));
#624=CARTESIAN_POINT('',(334.97442833618,2000.,249.499999999993));
#625=CARTESIAN_POINT('',(350.000000000001,2000.,249.499999999993));
#626=CARTESIAN_POINT('',(350.000000000001,2000.,199.499999999993));
#627=CARTESIAN_POINT('',(50.0000000000007,2000.,199.499999999993));
#628=CARTESIAN_POINT('',(49.0000000000007,2000.,234.499999999993));
#629=CARTESIAN_POINT('',(1.00000000000068,2000.,234.499999999993));
#630=CARTESIAN_POINT('',(6.80011602582908E-013,2000.,249.499999999993));
#631=CARTESIAN_POINT('',(64.6648008957007,2000.,249.499999999993));
#632=CARTESIAN_POINT('',(64.6648008957,0.,249.5));
#633=CARTESIAN_POINT('',(1.4210854715202E-014,0.,249.5));
#634=CARTESIAN_POINT('',(0.333333333333343,0.,244.5));
#635=CARTESIAN_POINT('',(0.666666666666686,0.,239.5));
#636=CARTESIAN_POINT('',(1.00000000000001,0.,234.5));
#637=CARTESIAN_POINT('',(17.,0.,234.5));
#638=CARTESIAN_POINT('',(33.,0.,234.5));
#639=CARTESIAN_POINT('',(49.,0.,234.5));
#640=CARTESIAN_POINT('',(49.3333333333334,0.,222.833333333333));
#641=CARTESIAN_POINT('',(49.6666666666667,0.,211.166666666667));
#642=CARTESIAN_POINT('',(50.,0.,199.5));
#643=CARTESIAN_POINT('',(150.,0.,199.5));
#644=CARTESIAN_POINT('',(250.,0.,199.5));
#645=CARTESIAN_POINT('',(350.,0.,199.5));
#646=CARTESIAN_POINT('',(350.,0.,216.166666666667));
#647=CARTESIAN_POINT('',(350.,0.,232.833333333333));
#648=CARTESIAN_POINT('',(350.,0.,249.5));
#649=CARTESIAN_POINT('',(350.,0.,249.5));
#650=CARTESIAN_POINT('',(344.99147611206,0.,249.5));
#651=CARTESIAN_POINT('',(339.98295222412,5.6843418860808E-014,249.5));
#652=CARTESIAN_POINT('',(334.97442833618,5.6843418860808E-014,249.5));
#653=CARTESIAN_POINT('',(334.97442833618,5.6843418860808E-014,249.5));
#654=CARTESIAN_POINT('',(331.640966383695,5.6843418860808E-014,
237.833333333333));
#655=CARTESIAN_POINT('',(328.30750443121,-5.6843418860808E-014,
226.166666666667));
#656=CARTESIAN_POINT('',(324.974042478725,0.,214.5));
#657=CARTESIAN_POINT('',(324.974042478725,0.,214.5));
#658=CARTESIAN_POINT('',(241.549678877447,0.,214.5));
#659=CARTESIAN_POINT('',(158.125315276169,0.,214.5));
#660=CARTESIAN_POINT('',(74.7009516748909,0.,214.5));
#661=CARTESIAN_POINT('',(177.781405674891,-377.746106,2214.5));
#662=CARTESIAN_POINT('',(-103.080454,377.746106,-2000.));
#663=CARTESIAN_POINT('',(167.781405674891,-377.746106,2249.5));
#664=CARTESIAN_POINT('',(-103.080454,377.746106,-2000.));
#665=CARTESIAN_POINT('',(167.7452548957,-377.746106,2249.5));
#666=CARTESIAN_POINT('',(-103.080454,377.746106,-2000.));
#667=PRODUCT_DEFINITION_SHAPE('','',#668);
#668=PRODUCT_DEFINITION('','',#680,#685);
#669=(
GEOMETRIC_REPRESENTATION_CONTEXT(3)
GLOBAL_UNCERTAINTY_ASSIGNED_CONTEXT((#670))
GLOBAL_UNIT_ASSIGNED_CONTEXT((#672,#671,#675))
REPRESENTATION_CONTEXT('','')
);
#670=UNCERTAINTY_MEASURE_WITH_UNIT(LENGTH_MEASURE(0.001),#672,'','tolerance');
#671=(
CONVERSION_BASED_UNIT('',#673)
NAMED_UNIT(#679)
PLANE_ANGLE_UNIT()
);
#672=(
CONVERSION_BASED_UNIT('',#674)
LENGTH_UNIT()
NAMED_UNIT(#678)
);
#673=PLANE_ANGLE_MEASURE_WITH_UNIT(PLANE_ANGLE_MEASURE(0.0174532925199433),
#676);
#674=LENGTH_MEASURE_WITH_UNIT(LENGTH_MEASURE(1.),#677);
#675=(
NAMED_UNIT(*)
SI_UNIT($,.STERADIAN.)
SOLID_ANGLE_UNIT()
);
#676=(
NAMED_UNIT(*)
PLANE_ANGLE_UNIT()
SI_UNIT($,.RADIAN.)
);
#677=(
LENGTH_UNIT()
NAMED_UNIT(*)
SI_UNIT(.MILLI.,.METRE.)
);
#678=DIMENSIONAL_EXPONENTS(1.,0.,0.,0.,0.,0.,0.);
#679=DIMENSIONAL_EXPONENTS(0.,0.,0.,0.,0.,0.,0.);
#680=PRODUCT_DEFINITION_FORMATION_WITH_SPECIFIED_SOURCE('','',#683,.NOT_KNOWN.
);
#681=PRODUCT_CATEGORY_RELATIONSHIP('','',#686,#682);
#682=PRODUCT_RELATED_PRODUCT_CATEGORY('assembly','',(#683));
#683=PRODUCT('','master','',(#684));
#684=PRODUCT_CONTEXT('',#688,'');
#685=PRODUCT_DEFINITION_CONTEXT('',#688,'part_definition');
#686=PRODUCT_CATEGORY('part','');
#687=APPLICATION_PROTOCOL_DEFINITION('international standard',
'automotive_design_cc2',1994,#688);
#688=APPLICATION_CONTEXT(
'configuration controlled 3D designs of mechanical parts and assemblies');
ENDSEC;
END-ISO-10303-21;
35295