ISO-10303-21;
HEADER;
/* Generated by software using Delcam plc STEP library */

FILE_DESCRIPTION(
/* description */ ('AP-214 File'),
/* implementation_level */ '2;1');

FILE_NAME(
/* name */ 'D114M',
/* time_stamp */ 'Tue Feb 07 08:13:14 2017',
/* author */ (''),
/* organization */ (''),
/* preprocessor_version */ 'DELCAM STEP V1',
/* originating_system */ 'Exchange7.1.0006',
/* authorisation */ '');

FILE_SCHEMA (('AUTOMOTIVE_DESIGN'));
ENDSEC;
DATA;
#10=PRESENTATION_STYLE_ASSIGNMENT((#20));
#11=PRESENTATION_STYLE_ASSIGNMENT((#21));
#12=SURFACE_SIDE_STYLE('',(#14));
#13=SURFACE_SIDE_STYLE('',(#15));
#14=SURFACE_STYLE_FILL_AREA(#16);
#15=SURFACE_STYLE_FILL_AREA(#17);
#16=FILL_AREA_STYLE('',(#18));
#17=FILL_AREA_STYLE('',(#19));
#18=FILL_AREA_STYLE_COLOUR('',#41);
#19=FILL_AREA_STYLE_COLOUR('',#42);
#20=SURFACE_STYLE_USAGE(.BOTH.,#12);
#21=SURFACE_STYLE_USAGE(.BOTH.,#13);
#22=STYLED_ITEM('',(#10),#51);
#23=STYLED_ITEM('',(#10),#52);
#24=STYLED_ITEM('',(#10),#53);
#25=STYLED_ITEM('',(#10),#54);
#26=STYLED_ITEM('',(#10),#55);
#27=STYLED_ITEM('',(#10),#56);
#28=STYLED_ITEM('',(#10),#57);
#29=STYLED_ITEM('',(#10),#58);
#30=STYLED_ITEM('',(#10),#59);
#31=STYLED_ITEM('',(#10),#60);
#32=STYLED_ITEM('',(#10),#61);
#33=STYLED_ITEM('',(#10),#62);
#34=STYLED_ITEM('',(#10),#63);
#35=STYLED_ITEM('',(#10),#64);
#36=STYLED_ITEM('',(#10),#65);
#37=STYLED_ITEM('',(#10),#66);
#38=STYLED_ITEM('',(#10),#67);
#39=STYLED_ITEM('',(#10),#68);
#40=STYLED_ITEM('',(#11),#48);
#41=COLOUR_RGB('',0.,0.,0.);
#42=COLOUR_RGB('rgb_colour_1',0.4,0.4,0.4);
#43=MECHANICAL_DESIGN_GEOMETRIC_PRESENTATION_REPRESENTATION('',(#22,#23,#24,
#25,#26,#27,#28,#29,#30,#31,#32,#33,#34,#35,#36,#37,#38,#39,#40),#605);
#44=PRESENTATION_LAYER_ASSIGNMENT('60','D114M',(#51,#52,#53,#54,#55,#56,#57,
#58,#59,#60,#61,#62,#63,#64,#65,#66,#67,#68,#48));
#45=SHAPE_REPRESENTATION_RELATIONSHIP('','',#390,#46);
#46=ADVANCED_BREP_SHAPE_REPRESENTATION('',(#47),#605);
#47=MANIFOLD_SOLID_BREP('8054',#48);
#48=CLOSED_SHELL('',(#51,#52,#53,#54,#55,#56,#57,#58,#59,#60,#61,#62,#63,#64,
#65,#66,#67,#68));
#49=CYLINDRICAL_SURFACE('',#398,5.00000000000091);
#50=CYLINDRICAL_SURFACE('',#400,5.07095675344547);
#51=ADVANCED_FACE('',(#69),#201,.T.);
#52=ADVANCED_FACE('',(#70),#202,.T.);
#53=ADVANCED_FACE('',(#71),#49,.F.);
#54=ADVANCED_FACE('',(#72),#203,.T.);
#55=ADVANCED_FACE('',(#73),#50,.F.);
#56=ADVANCED_FACE('',(#74),#204,.T.);
#57=ADVANCED_FACE('',(#75),#205,.T.);
#58=ADVANCED_FACE('',(#76),#206,.T.);
#59=ADVANCED_FACE('',(#77),#207,.T.);
#60=ADVANCED_FACE('',(#78),#208,.T.);
#61=ADVANCED_FACE('',(#79),#209,.T.);
#62=ADVANCED_FACE('',(#80),#210,.T.);
#63=ADVANCED_FACE('',(#81),#211,.T.);
#64=ADVANCED_FACE('',(#82),#212,.T.);
#65=ADVANCED_FACE('',(#83),#213,.T.);
#66=ADVANCED_FACE('',(#84),#214,.T.);
#67=ADVANCED_FACE('',(#85),#215,.T.);
#68=ADVANCED_FACE('',(#86),#216,.F.);
#69=FACE_OUTER_BOUND('',#87,.T.);
#70=FACE_OUTER_BOUND('',#88,.T.);
#71=FACE_OUTER_BOUND('',#89,.T.);
#72=FACE_OUTER_BOUND('',#90,.T.);
#73=FACE_OUTER_BOUND('',#91,.T.);
#74=FACE_OUTER_BOUND('',#92,.T.);
#75=FACE_OUTER_BOUND('',#93,.T.);
#76=FACE_OUTER_BOUND('',#94,.T.);
#77=FACE_OUTER_BOUND('',#95,.T.);
#78=FACE_OUTER_BOUND('',#96,.T.);
#79=FACE_OUTER_BOUND('',#97,.T.);
#80=FACE_OUTER_BOUND('',#98,.T.);
#81=FACE_OUTER_BOUND('',#99,.T.);
#82=FACE_OUTER_BOUND('',#100,.T.);
#83=FACE_OUTER_BOUND('',#101,.T.);
#84=FACE_OUTER_BOUND('',#102,.T.);
#85=FACE_OUTER_BOUND('',#103,.T.);
#86=FACE_OUTER_BOUND('',#104,.T.);
#87=EDGE_LOOP('',(#105,#106,#107,#108));
#88=EDGE_LOOP('',(#109,#110,#111,#112));
#89=EDGE_LOOP('',(#113,#114,#115,#116));
#90=EDGE_LOOP('',(#117,#118,#119,#120));
#91=EDGE_LOOP('',(#121,#122,#123,#124));
#92=EDGE_LOOP('',(#125,#126,#127,#128));
#93=EDGE_LOOP('',(#129,#130,#131,#132));
#94=EDGE_LOOP('',(#133,#134,#135,#136));
#95=EDGE_LOOP('',(#137,#138,#139,#140));
#96=EDGE_LOOP('',(#141,#142,#143,#144));
#97=EDGE_LOOP('',(#145,#146,#147,#148));
#98=EDGE_LOOP('',(#149,#150,#151,#152));
#99=EDGE_LOOP('',(#153,#154,#155,#156));
#100=EDGE_LOOP('',(#157,#158,#159,#160));
#101=EDGE_LOOP('',(#161,#162,#163,#164));
#102=EDGE_LOOP('',(#165,#166,#167,#168));
#103=EDGE_LOOP('',(#169,#170,#171,#172,#173,#174,#175,#176,#177,#178,#179,#180
,#181,#182,#183,#184));
#104=EDGE_LOOP('',(#185,#186,#187,#188,#189,#190,#191,#192,#193,#194,#195,#196
,#197,#198,#199,#200));
#105=ORIENTED_EDGE('',*,*,#268,.F.);
#106=ORIENTED_EDGE('',*,*,#236,.F.);
#107=ORIENTED_EDGE('',*,*,#252,.T.);
#108=ORIENTED_EDGE('',*,*,#221,.T.);
#109=ORIENTED_EDGE('',*,*,#267,.F.);
#110=ORIENTED_EDGE('',*,*,#221,.F.);
#111=ORIENTED_EDGE('',*,*,#251,.T.);
#112=ORIENTED_EDGE('',*,*,#222,.T.);
#113=ORIENTED_EDGE('',*,*,#266,.F.);
#114=ORIENTED_EDGE('',*,*,#222,.F.);
#115=ORIENTED_EDGE('',*,*,#250,.T.);
#116=ORIENTED_EDGE('',*,*,#223,.T.);
#117=ORIENTED_EDGE('',*,*,#265,.F.);
#118=ORIENTED_EDGE('',*,*,#223,.F.);
#119=ORIENTED_EDGE('',*,*,#249,.T.);
#120=ORIENTED_EDGE('',*,*,#224,.T.);
#121=ORIENTED_EDGE('',*,*,#264,.F.);
#122=ORIENTED_EDGE('',*,*,#224,.F.);
#123=ORIENTED_EDGE('',*,*,#248,.T.);
#124=ORIENTED_EDGE('',*,*,#225,.T.);
#125=ORIENTED_EDGE('',*,*,#263,.F.);
#126=ORIENTED_EDGE('',*,*,#225,.F.);
#127=ORIENTED_EDGE('',*,*,#247,.T.);
#128=ORIENTED_EDGE('',*,*,#226,.T.);
#129=ORIENTED_EDGE('',*,*,#262,.F.);
#130=ORIENTED_EDGE('',*,*,#226,.F.);
#131=ORIENTED_EDGE('',*,*,#246,.T.);
#132=ORIENTED_EDGE('',*,*,#227,.T.);
#133=ORIENTED_EDGE('',*,*,#261,.F.);
#134=ORIENTED_EDGE('',*,*,#227,.F.);
#135=ORIENTED_EDGE('',*,*,#245,.T.);
#136=ORIENTED_EDGE('',*,*,#228,.T.);
#137=ORIENTED_EDGE('',*,*,#260,.F.);
#138=ORIENTED_EDGE('',*,*,#228,.F.);
#139=ORIENTED_EDGE('',*,*,#244,.T.);
#140=ORIENTED_EDGE('',*,*,#229,.T.);
#141=ORIENTED_EDGE('',*,*,#259,.F.);
#142=ORIENTED_EDGE('',*,*,#229,.F.);
#143=ORIENTED_EDGE('',*,*,#243,.T.);
#144=ORIENTED_EDGE('',*,*,#230,.T.);
#145=ORIENTED_EDGE('',*,*,#258,.F.);
#146=ORIENTED_EDGE('',*,*,#230,.F.);
#147=ORIENTED_EDGE('',*,*,#242,.T.);
#148=ORIENTED_EDGE('',*,*,#231,.T.);
#149=ORIENTED_EDGE('',*,*,#257,.F.);
#150=ORIENTED_EDGE('',*,*,#231,.F.);
#151=ORIENTED_EDGE('',*,*,#241,.T.);
#152=ORIENTED_EDGE('',*,*,#232,.T.);
#153=ORIENTED_EDGE('',*,*,#256,.F.);
#154=ORIENTED_EDGE('',*,*,#232,.F.);
#155=ORIENTED_EDGE('',*,*,#240,.T.);
#156=ORIENTED_EDGE('',*,*,#233,.T.);
#157=ORIENTED_EDGE('',*,*,#255,.F.);
#158=ORIENTED_EDGE('',*,*,#233,.F.);
#159=ORIENTED_EDGE('',*,*,#239,.T.);
#160=ORIENTED_EDGE('',*,*,#234,.T.);
#161=ORIENTED_EDGE('',*,*,#254,.F.);
#162=ORIENTED_EDGE('',*,*,#234,.F.);
#163=ORIENTED_EDGE('',*,*,#238,.T.);
#164=ORIENTED_EDGE('',*,*,#235,.T.);
#165=ORIENTED_EDGE('',*,*,#253,.F.);
#166=ORIENTED_EDGE('',*,*,#235,.F.);
#167=ORIENTED_EDGE('',*,*,#237,.T.);
#168=ORIENTED_EDGE('',*,*,#236,.T.);
#169=ORIENTED_EDGE('',*,*,#252,.F.);
#170=ORIENTED_EDGE('',*,*,#237,.F.);
#171=ORIENTED_EDGE('',*,*,#238,.F.);
#172=ORIENTED_EDGE('',*,*,#239,.F.);
#173=ORIENTED_EDGE('',*,*,#240,.F.);
#174=ORIENTED_EDGE('',*,*,#241,.F.);
#175=ORIENTED_EDGE('',*,*,#242,.F.);
#176=ORIENTED_EDGE('',*,*,#243,.F.);
#177=ORIENTED_EDGE('',*,*,#244,.F.);
#178=ORIENTED_EDGE('',*,*,#245,.F.);
#179=ORIENTED_EDGE('',*,*,#246,.F.);
#180=ORIENTED_EDGE('',*,*,#247,.F.);
#181=ORIENTED_EDGE('',*,*,#248,.F.);
#182=ORIENTED_EDGE('',*,*,#249,.F.);
#183=ORIENTED_EDGE('',*,*,#250,.F.);
#184=ORIENTED_EDGE('',*,*,#251,.F.);
#185=ORIENTED_EDGE('',*,*,#268,.T.);
#186=ORIENTED_EDGE('',*,*,#267,.T.);
#187=ORIENTED_EDGE('',*,*,#266,.T.);
#188=ORIENTED_EDGE('',*,*,#265,.T.);
#189=ORIENTED_EDGE('',*,*,#264,.T.);
#190=ORIENTED_EDGE('',*,*,#263,.T.);
#191=ORIENTED_EDGE('',*,*,#262,.T.);
#192=ORIENTED_EDGE('',*,*,#261,.T.);
#193=ORIENTED_EDGE('',*,*,#260,.T.);
#194=ORIENTED_EDGE('',*,*,#259,.T.);
#195=ORIENTED_EDGE('',*,*,#258,.T.);
#196=ORIENTED_EDGE('',*,*,#257,.T.);
#197=ORIENTED_EDGE('',*,*,#256,.T.);
#198=ORIENTED_EDGE('',*,*,#255,.T.);
#199=ORIENTED_EDGE('',*,*,#254,.T.);
#200=ORIENTED_EDGE('',*,*,#253,.T.);
#201=PLANE('',#396);
#202=PLANE('',#397);
#203=PLANE('',#399);
#204=PLANE('',#401);
#205=PLANE('',#402);
#206=PLANE('',#403);
#207=PLANE('',#404);
#208=PLANE('',#405);
#209=PLANE('',#406);
#210=PLANE('',#407);
#211=PLANE('',#408);
#212=PLANE('',#409);
#213=PLANE('',#410);
#214=PLANE('',#411);
#215=PLANE('',#412);
#216=PLANE('',#413);
#217=CIRCLE('',#392,5.07095675344547);
#218=CIRCLE('',#393,5.00000000000091);
#219=CIRCLE('',#394,5.07095675344547);
#220=CIRCLE('',#395,5.00000000000091);
#221=EDGE_CURVE('',#372,#388,#269,.T.);
#222=EDGE_CURVE('',#371,#387,#270,.T.);
#223=EDGE_CURVE('',#370,#386,#271,.T.);
#224=EDGE_CURVE('',#369,#385,#272,.T.);
#225=EDGE_CURVE('',#368,#384,#273,.T.);
#226=EDGE_CURVE('',#367,#383,#274,.T.);
#227=EDGE_CURVE('',#366,#382,#275,.T.);
#228=EDGE_CURVE('',#365,#381,#276,.T.);
#229=EDGE_CURVE('',#364,#380,#277,.T.);
#230=EDGE_CURVE('',#363,#379,#278,.T.);
#231=EDGE_CURVE('',#362,#378,#279,.T.);
#232=EDGE_CURVE('',#361,#377,#280,.T.);
#233=EDGE_CURVE('',#360,#376,#281,.T.);
#234=EDGE_CURVE('',#359,#375,#282,.T.);
#235=EDGE_CURVE('',#358,#374,#283,.T.);
#236=EDGE_CURVE('',#357,#373,#284,.T.);
#237=EDGE_CURVE('',#358,#357,#285,.T.);
#238=EDGE_CURVE('',#359,#358,#286,.T.);
#239=EDGE_CURVE('',#360,#359,#287,.T.);
#240=EDGE_CURVE('',#361,#360,#288,.T.);
#241=EDGE_CURVE('',#362,#361,#289,.T.);
#242=EDGE_CURVE('',#363,#362,#290,.T.);
#243=EDGE_CURVE('',#364,#363,#291,.T.);
#244=EDGE_CURVE('',#365,#364,#292,.T.);
#245=EDGE_CURVE('',#366,#365,#293,.T.);
#246=EDGE_CURVE('',#367,#366,#294,.T.);
#247=EDGE_CURVE('',#368,#367,#295,.T.);
#248=EDGE_CURVE('',#369,#368,#217,.T.);
#249=EDGE_CURVE('',#370,#369,#296,.T.);
#250=EDGE_CURVE('',#371,#370,#218,.T.);
#251=EDGE_CURVE('',#372,#371,#297,.T.);
#252=EDGE_CURVE('',#357,#372,#298,.T.);
#253=EDGE_CURVE('',#374,#373,#299,.T.);
#254=EDGE_CURVE('',#375,#374,#300,.T.);
#255=EDGE_CURVE('',#376,#375,#301,.T.);
#256=EDGE_CURVE('',#377,#376,#302,.T.);
#257=EDGE_CURVE('',#378,#377,#303,.T.);
#258=EDGE_CURVE('',#379,#378,#304,.T.);
#259=EDGE_CURVE('',#380,#379,#305,.T.);
#260=EDGE_CURVE('',#381,#380,#306,.T.);
#261=EDGE_CURVE('',#382,#381,#307,.T.);
#262=EDGE_CURVE('',#383,#382,#308,.T.);
#263=EDGE_CURVE('',#384,#383,#309,.T.);
#264=EDGE_CURVE('',#385,#384,#219,.T.);
#265=EDGE_CURVE('',#386,#385,#310,.T.);
#266=EDGE_CURVE('',#387,#386,#220,.T.);
#267=EDGE_CURVE('',#388,#387,#311,.T.);
#268=EDGE_CURVE('',#373,#388,#312,.T.);
#269=LINE('',#537,#313);
#270=LINE('',#538,#314);
#271=LINE('',#539,#315);
#272=LINE('',#540,#316);
#273=LINE('',#541,#317);
#274=LINE('',#542,#318);
#275=LINE('',#543,#319);
#276=LINE('',#544,#320);
#277=LINE('',#545,#321);
#278=LINE('',#546,#322);
#279=LINE('',#547,#323);
#280=LINE('',#548,#324);
#281=LINE('',#549,#325);
#282=LINE('',#550,#326);
#283=LINE('',#551,#327);
#284=LINE('',#552,#328);
#285=LINE('',#553,#329);
#286=LINE('',#554,#330);
#287=LINE('',#555,#331);
#288=LINE('',#556,#332);
#289=LINE('',#557,#333);
#290=LINE('',#558,#334);
#291=LINE('',#559,#335);
#292=LINE('',#560,#336);
#293=LINE('',#561,#337);
#294=LINE('',#562,#338);
#295=LINE('',#563,#339);
#296=LINE('',#565,#340);
#297=LINE('',#567,#341);
#298=LINE('',#568,#342);
#299=LINE('',#569,#343);
#300=LINE('',#570,#344);
#301=LINE('',#571,#345);
#302=LINE('',#572,#346);
#303=LINE('',#573,#347);
#304=LINE('',#574,#348);
#305=LINE('',#575,#349);
#306=LINE('',#576,#350);
#307=LINE('',#577,#351);
#308=LINE('',#578,#352);
#309=LINE('',#579,#353);
#310=LINE('',#581,#354);
#311=LINE('',#583,#355);
#312=LINE('',#584,#356);
#313=VECTOR('',#416,1.);
#314=VECTOR('',#417,1.);
#315=VECTOR('',#418,1.);
#316=VECTOR('',#419,1.);
#317=VECTOR('',#420,1.);
#318=VECTOR('',#421,1.);
#319=VECTOR('',#422,1.);
#320=VECTOR('',#423,1.);
#321=VECTOR('',#424,1.);
#322=VECTOR('',#425,1.);
#323=VECTOR('',#426,1.);
#324=VECTOR('',#427,1.);
#325=VECTOR('',#428,1.);
#326=VECTOR('',#429,1.);
#327=VECTOR('',#430,1.);
#328=VECTOR('',#431,1.);
#329=VECTOR('',#432,1.);
#330=VECTOR('',#433,1.);
#331=VECTOR('',#434,1.);
#332=VECTOR('',#435,1.);
#333=VECTOR('',#436,1.);
#334=VECTOR('',#437,1.);
#335=VECTOR('',#438,1.);
#336=VECTOR('',#439,1.);
#337=VECTOR('',#440,1.);
#338=VECTOR('',#441,1.);
#339=VECTOR('',#442,1.);
#340=VECTOR('',#445,1.);
#341=VECTOR('',#448,1.);
#342=VECTOR('',#449,1.);
#343=VECTOR('',#450,1.);
#344=VECTOR('',#451,1.);
#345=VECTOR('',#452,1.);
#346=VECTOR('',#453,1.);
#347=VECTOR('',#454,1.);
#348=VECTOR('',#455,1.);
#349=VECTOR('',#456,1.);
#350=VECTOR('',#457,1.);
#351=VECTOR('',#458,1.);
#352=VECTOR('',#459,1.);
#353=VECTOR('',#460,1.);
#354=VECTOR('',#463,1.);
#355=VECTOR('',#466,1.);
#356=VECTOR('',#467,1.);
#357=VERTEX_POINT('',#505);
#358=VERTEX_POINT('',#506);
#359=VERTEX_POINT('',#507);
#360=VERTEX_POINT('',#508);
#361=VERTEX_POINT('',#509);
#362=VERTEX_POINT('',#510);
#363=VERTEX_POINT('',#511);
#364=VERTEX_POINT('',#512);
#365=VERTEX_POINT('',#513);
#366=VERTEX_POINT('',#514);
#367=VERTEX_POINT('',#515);
#368=VERTEX_POINT('',#516);
#369=VERTEX_POINT('',#517);
#370=VERTEX_POINT('',#518);
#371=VERTEX_POINT('',#519);
#372=VERTEX_POINT('',#520);
#373=VERTEX_POINT('',#521);
#374=VERTEX_POINT('',#522);
#375=VERTEX_POINT('',#523);
#376=VERTEX_POINT('',#524);
#377=VERTEX_POINT('',#525);
#378=VERTEX_POINT('',#526);
#379=VERTEX_POINT('',#527);
#380=VERTEX_POINT('',#528);
#381=VERTEX_POINT('',#529);
#382=VERTEX_POINT('',#530);
#383=VERTEX_POINT('',#531);
#384=VERTEX_POINT('',#532);
#385=VERTEX_POINT('',#533);
#386=VERTEX_POINT('',#534);
#387=VERTEX_POINT('',#535);
#388=VERTEX_POINT('',#536);
#389=SHAPE_DEFINITION_REPRESENTATION(#603,#390);
#390=SHAPE_REPRESENTATION('master',(#391),#605);
#391=AXIS2_PLACEMENT_3D('',#504,#415,#414);
#392=AXIS2_PLACEMENT_3D('',#564,#444,#443);
#393=AXIS2_PLACEMENT_3D('',#566,#447,#446);
#394=AXIS2_PLACEMENT_3D('',#580,#462,#461);
#395=AXIS2_PLACEMENT_3D('',#582,#465,#464);
#396=AXIS2_PLACEMENT_3D('',#585,#469,#468);
#397=AXIS2_PLACEMENT_3D('',#586,#471,#470);
#398=AXIS2_PLACEMENT_3D('',#587,#473,#472);
#399=AXIS2_PLACEMENT_3D('',#588,#475,#474);
#400=AXIS2_PLACEMENT_3D('',#589,#477,#476);
#401=AXIS2_PLACEMENT_3D('',#590,#479,#478);
#402=AXIS2_PLACEMENT_3D('',#591,#481,#480);
#403=AXIS2_PLACEMENT_3D('',#592,#483,#482);
#404=AXIS2_PLACEMENT_3D('',#593,#485,#484);
#405=AXIS2_PLACEMENT_3D('',#594,#487,#486);
#406=AXIS2_PLACEMENT_3D('',#595,#489,#488);
#407=AXIS2_PLACEMENT_3D('',#596,#491,#490);
#408=AXIS2_PLACEMENT_3D('',#597,#493,#492);
#409=AXIS2_PLACEMENT_3D('',#598,#495,#494);
#410=AXIS2_PLACEMENT_3D('',#599,#497,#496);
#411=AXIS2_PLACEMENT_3D('',#600,#499,#498);
#412=AXIS2_PLACEMENT_3D('',#601,#501,#500);
#413=AXIS2_PLACEMENT_3D('',#602,#503,#502);
#414=DIRECTION('',(1.,0.,0.));
#415=DIRECTION('',(0.,0.,1.));
#416=DIRECTION('',(-0.,-1.,0.));
#417=DIRECTION('',(-0.,-1.,0.));
#418=DIRECTION('',(-0.,-1.,0.));
#419=DIRECTION('',(-0.,-1.,0.));
#420=DIRECTION('',(-0.,-1.,0.));
#421=DIRECTION('',(-0.,-1.,0.));
#422=DIRECTION('',(-0.,-1.,0.));
#423=DIRECTION('',(-0.,-1.,0.));
#424=DIRECTION('',(-0.,-1.,0.));
#425=DIRECTION('',(-0.,-1.,0.));
#426=DIRECTION('',(-0.,-1.,0.));
#427=DIRECTION('',(-0.,-1.,0.));
#428=DIRECTION('',(-0.,-1.,0.));
#429=DIRECTION('',(-0.,-1.,0.));
#430=DIRECTION('',(-0.,-1.,0.));
#431=DIRECTION('',(-0.,-1.,0.));
#432=DIRECTION('',(-0.,-0.,1.));
#433=DIRECTION('',(1.,-0.,-0.));
#434=DIRECTION('',(0.928702823034913,-0.,-0.370824846102554));
#435=DIRECTION('',(1.,-0.,-0.));
#436=DIRECTION('',(0.00131953761669267,-0.,-0.99999912940986));
#437=DIRECTION('',(0.508965891523327,-0.,-0.860786687435316));
#438=DIRECTION('',(3.36318397535131E-013,-0.,-1.));
#439=DIRECTION('',(-1.,-0.,-0.));
#440=DIRECTION('',(-0.019733942822924,-0.,0.999805266789819));
#441=DIRECTION('',(-1.,-0.,3.41061175193183E-012));
#442=DIRECTION('',(-0.131731894346152,-0.,0.991285381720105));
#443=DIRECTION('',(-0.00530707769446999,0.,-0.999985917364012));
#444=DIRECTION('',(0.,1.,0.));
#445=DIRECTION('',(-1.,-0.,4.44560828536503E-015));
#446=DIRECTION('',(0.994338207009277,0.,-0.106261611514109));
#447=DIRECTION('',(0.,1.,0.));
#448=DIRECTION('',(-0.106261611513997,-0.,-0.994338207009289));
#449=DIRECTION('',(-0.997054485501581,-0.,0.076696498884737));
#450=DIRECTION('',(-0.,-0.,1.));
#451=DIRECTION('',(1.,-0.,-0.));
#452=DIRECTION('',(0.928702823034913,-0.,-0.370824846102554));
#453=DIRECTION('',(1.,-0.,-0.));
#454=DIRECTION('',(0.00131953761669267,-0.,-0.99999912940986));
#455=DIRECTION('',(0.508965891523327,-0.,-0.860786687435316));
#456=DIRECTION('',(3.36318397535131E-013,-0.,-1.));
#457=DIRECTION('',(-1.,-0.,-0.));
#458=DIRECTION('',(-0.019733942822924,-0.,0.999805266789819));
#459=DIRECTION('',(-1.,-0.,3.41061175193183E-012));
#460=DIRECTION('',(-0.131731894346152,-0.,0.991285381720105));
#461=DIRECTION('',(-0.00530707769446999,0.,-0.999985917364012));
#462=DIRECTION('',(0.,1.,0.));
#463=DIRECTION('',(-1.,-0.,4.44560828536503E-015));
#464=DIRECTION('',(0.994338207009277,0.,-0.106261611514109));
#465=DIRECTION('',(0.,1.,0.));
#466=DIRECTION('',(-0.106261611513997,-0.,-0.994338207009289));
#467=DIRECTION('',(-0.997054485501581,-0.,0.076696498884737));
#468=DIRECTION('',(0.997054485501582,0.,-0.076696498884737));
#469=DIRECTION('',(0.076696498884737,0.,0.997054485501582));
#470=DIRECTION('',(0.106261611513997,0.,0.994338207009289));
#471=DIRECTION('',(-0.994338207009289,0.,0.106261611513997));
#472=DIRECTION('',(0.,-0.,-1.));
#473=DIRECTION('',(-0.,-1.,0.));
#474=DIRECTION('',(1.,0.,-4.44560828536503E-015));
#475=DIRECTION('',(4.44560828536503E-015,0.,1.));
#476=DIRECTION('',(0.,-0.,-1.));
#477=DIRECTION('',(-0.,-1.,0.));
#478=DIRECTION('',(0.131731894346152,0.,-0.991285381720105));
#479=DIRECTION('',(0.991285381720105,0.,0.131731894346152));
#480=DIRECTION('',(1.,0.,-3.41061175193183E-012));
#481=DIRECTION('',(3.41061175193183E-012,0.,1.));
#482=DIRECTION('',(0.019733942822924,0.,-0.999805266789819));
#483=DIRECTION('',(0.999805266789819,0.,0.019733942822924));
#484=DIRECTION('',(1.,0.,0.));
#485=DIRECTION('',(-0.,0.,1.));
#486=DIRECTION('',(-3.36318397535131E-013,0.,1.));
#487=DIRECTION('',(-1.,0.,-3.36318397535131E-013));
#488=DIRECTION('',(-0.508965891523327,0.,0.860786687435316));
#489=DIRECTION('',(-0.860786687435316,0.,-0.508965891523327));
#490=DIRECTION('',(-0.00131953761669267,0.,0.99999912940986));
#491=DIRECTION('',(-0.99999912940986,0.,-0.00131953761669267));
#492=DIRECTION('',(-1.,0.,0.));
#493=DIRECTION('',(-0.,0.,-1.));
#494=DIRECTION('',(-0.928702823034913,0.,0.370824846102554));
#495=DIRECTION('',(-0.370824846102554,0.,-0.928702823034913));
#496=DIRECTION('',(-1.,0.,0.));
#497=DIRECTION('',(-0.,0.,-1.));
#498=DIRECTION('',(0.,0.,-1.));
#499=DIRECTION('',(1.,0.,0.));
#500=DIRECTION('',(0.,-0.,1.));
#501=DIRECTION('',(0.,1.,0.));
#502=DIRECTION('',(0.,-0.,1.));
#503=DIRECTION('',(0.,1.,0.));
#504=CARTESIAN_POINT('',(0.,0.,0.));
#505=CARTESIAN_POINT('',(253.080454000087,2168.281361,2099.50431227212));
#506=CARTESIAN_POINT('',(253.080454000087,2168.281361,2059.50431227212));
#507=CARTESIAN_POINT('',(146.11011039569,2168.281361,2059.50431227212));
#508=CARTESIAN_POINT('',(141.101261432112,2168.281361,2061.50431227212));
#509=CARTESIAN_POINT('',(106.097087322106,2168.281361,2061.50431227212));
#510=CARTESIAN_POINT('',(106.030454000057,2168.281361,2112.00174652148));
#511=CARTESIAN_POINT('',(103.080454000044,2168.281361,2116.99092314458));
#512=CARTESIAN_POINT('',(103.080454,2168.281361,2249.5));
#513=CARTESIAN_POINT('',(118.080457882211,2168.281361,2249.5));
#514=CARTESIAN_POINT('',(121.080457882211,2168.281361,2097.50727217649));
#515=CARTESIAN_POINT('',(123.080454000043,2168.281361,2097.50727217648));
#516=CARTESIAN_POINT('',(125.472866977951,2168.281361,2079.50431227213));
#517=CARTESIAN_POINT('',(130.516416303552,2168.281361,2074.50431227213));
#518=CARTESIAN_POINT('',(232.807783805159,2168.281361,2074.50431227213));
#519=CARTESIAN_POINT('',(237.779474840207,2168.281361,2078.97300421456));
#520=CARTESIAN_POINT('',(240.080454000087,2168.281361,2100.50431227212));
#521=CARTESIAN_POINT('',(253.080454000087,168.281361,2099.50431227212));
#522=CARTESIAN_POINT('',(253.080454000087,168.281361,2059.50431227212));
#523=CARTESIAN_POINT('',(146.11011039569,168.281361,2059.50431227212));
#524=CARTESIAN_POINT('',(141.101261432112,168.281361,2061.50431227212));
#525=CARTESIAN_POINT('',(106.097087322106,168.281361,2061.50431227212));
#526=CARTESIAN_POINT('',(106.030454000057,168.281361,2112.00174652148));
#527=CARTESIAN_POINT('',(103.080454000044,168.281361,2116.99092314458));
#528=CARTESIAN_POINT('',(103.080454,168.281361,2249.5));
#529=CARTESIAN_POINT('',(118.080457882211,168.281361,2249.5));
#530=CARTESIAN_POINT('',(121.080457882211,168.281361,2097.50727217649));
#531=CARTESIAN_POINT('',(123.080454000043,168.281361,2097.50727217648));
#532=CARTESIAN_POINT('',(125.472866977951,168.281361,2079.50431227213));
#533=CARTESIAN_POINT('',(130.516416303552,168.281361,2074.50431227213));
#534=CARTESIAN_POINT('',(232.807783805159,168.281361,2074.50431227213));
#535=CARTESIAN_POINT('',(237.779474840207,168.281361,2078.97300421456));
#536=CARTESIAN_POINT('',(240.080454000087,168.281361,2100.50431227212));
#537=CARTESIAN_POINT('',(240.080454000087,2168.281361,2100.50431227212));
#538=CARTESIAN_POINT('',(237.779474840207,2168.281361,2078.97300421456));
#539=CARTESIAN_POINT('',(232.807783805159,2168.281361,2074.50431227213));
#540=CARTESIAN_POINT('',(130.516416303552,2168.281361,2074.50431227213));
#541=CARTESIAN_POINT('',(125.472866977951,2168.281361,2079.50431227213));
#542=CARTESIAN_POINT('',(123.080454000043,2168.281361,2097.50727217648));
#543=CARTESIAN_POINT('',(121.080457882211,2168.281361,2097.50727217649));
#544=CARTESIAN_POINT('',(118.080457882211,2168.281361,2249.5));
#545=CARTESIAN_POINT('',(103.080454,2168.281361,2249.5));
#546=CARTESIAN_POINT('',(103.080454000044,2168.281361,2116.99092314458));
#547=CARTESIAN_POINT('',(106.030454000057,2168.281361,2112.00174652148));
#548=CARTESIAN_POINT('',(106.097087322106,2168.281361,2061.50431227212));
#549=CARTESIAN_POINT('',(141.101261432112,2168.281361,2061.50431227212));
#550=CARTESIAN_POINT('',(146.11011039569,2168.281361,2059.50431227212));
#551=CARTESIAN_POINT('',(253.080454000087,2168.281361,2059.50431227212));
#552=CARTESIAN_POINT('',(253.080454000087,2168.281361,2099.50431227212));
#553=CARTESIAN_POINT('',(253.080454000087,2168.281361,2059.50431227212));
#554=CARTESIAN_POINT('',(146.11011039569,2168.281361,2059.50431227212));
#555=CARTESIAN_POINT('',(141.101261432112,2168.281361,2061.50431227212));
#556=CARTESIAN_POINT('',(106.097087322106,2168.281361,2061.50431227212));
#557=CARTESIAN_POINT('',(106.030454000057,2168.281361,2112.00174652148));
#558=CARTESIAN_POINT('',(103.080454000044,2168.281361,2116.99092314458));
#559=CARTESIAN_POINT('',(103.080454,2168.281361,2249.5));
#560=CARTESIAN_POINT('',(118.080457882211,2168.281361,2249.5));
#561=CARTESIAN_POINT('',(121.080457882211,2168.281361,2097.50727217649));
#562=CARTESIAN_POINT('',(123.080454000043,2168.281361,2097.50727217648));
#563=CARTESIAN_POINT('',(125.472866977951,2168.281361,2079.50431227213));
#564=CARTESIAN_POINT('',(130.543328265028,2168.281361,2079.57519761314));
#565=CARTESIAN_POINT('',(232.807783805159,2168.281361,2074.50431227213));
#566=CARTESIAN_POINT('',(232.807783805159,2168.281361,2079.50431227213));
#567=CARTESIAN_POINT('',(240.080454000087,2168.281361,2100.50431227212));
#568=CARTESIAN_POINT('',(253.080454000087,2168.281361,2099.50431227212));
#569=CARTESIAN_POINT('',(253.080454000087,168.281361,2059.50431227212));
#570=CARTESIAN_POINT('',(146.11011039569,168.281361,2059.50431227212));
#571=CARTESIAN_POINT('',(141.101261432112,168.281361,2061.50431227212));
#572=CARTESIAN_POINT('',(106.097087322106,168.281361,2061.50431227212));
#573=CARTESIAN_POINT('',(106.030454000057,168.281361,2112.00174652148));
#574=CARTESIAN_POINT('',(103.080454000044,168.281361,2116.99092314458));
#575=CARTESIAN_POINT('',(103.080454,168.281361,2249.5));
#576=CARTESIAN_POINT('',(118.080457882211,168.281361,2249.5));
#577=CARTESIAN_POINT('',(121.080457882211,168.281361,2097.50727217649));
#578=CARTESIAN_POINT('',(123.080454000043,168.281361,2097.50727217648));
#579=CARTESIAN_POINT('',(125.472866977951,168.281361,2079.50431227213));
#580=CARTESIAN_POINT('',(130.543328265028,168.281361,2079.57519761314));
#581=CARTESIAN_POINT('',(232.807783805159,168.281361,2074.50431227213));
#582=CARTESIAN_POINT('',(232.807783805159,168.281361,2079.50431227213));
#583=CARTESIAN_POINT('',(240.080454000087,168.281361,2100.50431227212));
#584=CARTESIAN_POINT('',(253.080454000087,168.281361,2099.50431227212));
#585=CARTESIAN_POINT('',(253.080454000087,2168.281361,2099.50431227212));
#586=CARTESIAN_POINT('',(240.080454000087,2168.281361,2100.50431227212));
#587=CARTESIAN_POINT('',(232.807783805159,2168.281361,2079.50431227213));
#588=CARTESIAN_POINT('',(232.807783805159,2168.281361,2074.50431227213));
#589=CARTESIAN_POINT('',(130.543328265028,2168.281361,2079.57519761314));
#590=CARTESIAN_POINT('',(125.472866977951,2168.281361,2079.50431227213));
#591=CARTESIAN_POINT('',(123.080454000043,2168.281361,2097.50727217648));
#592=CARTESIAN_POINT('',(121.080457882211,2168.281361,2097.50727217649));
#593=CARTESIAN_POINT('',(118.080457882211,2168.281361,2249.5));
#594=CARTESIAN_POINT('',(103.080454,2168.281361,2249.5));
#595=CARTESIAN_POINT('',(103.080454000044,2168.281361,2116.99092314458));
#596=CARTESIAN_POINT('',(106.030454000057,2168.281361,2112.00174652148));
#597=CARTESIAN_POINT('',(106.097087322106,2168.281361,2061.50431227212));
#598=CARTESIAN_POINT('',(141.101261432112,2168.281361,2061.50431227212));
#599=CARTESIAN_POINT('',(146.11011039569,2168.281361,2059.50431227212));
#600=CARTESIAN_POINT('',(253.080454000087,2168.281361,2059.50431227212));
#601=CARTESIAN_POINT('',(232.807783805159,2168.281361,2079.50431227213));
#602=CARTESIAN_POINT('',(232.807783805159,168.281361,2079.50431227213));
#603=PRODUCT_DEFINITION_SHAPE('','',#604);
#604=PRODUCT_DEFINITION('','',#616,#621);
#605=(
GEOMETRIC_REPRESENTATION_CONTEXT(3)
GLOBAL_UNCERTAINTY_ASSIGNED_CONTEXT((#606))
GLOBAL_UNIT_ASSIGNED_CONTEXT((#608,#607,#611))
REPRESENTATION_CONTEXT('','')
);
#606=UNCERTAINTY_MEASURE_WITH_UNIT(LENGTH_MEASURE(0.001),#608,'','tolerance');
#607=(
CONVERSION_BASED_UNIT('',#609)
NAMED_UNIT(#615)
PLANE_ANGLE_UNIT()
);
#608=(
CONVERSION_BASED_UNIT('',#610)
LENGTH_UNIT()
NAMED_UNIT(#614)
);
#609=PLANE_ANGLE_MEASURE_WITH_UNIT(PLANE_ANGLE_MEASURE(0.0174532925199433),
#612);
#610=LENGTH_MEASURE_WITH_UNIT(LENGTH_MEASURE(1.),#613);
#611=(
NAMED_UNIT(*)
SI_UNIT($,.STERADIAN.)
SOLID_ANGLE_UNIT()
);
#612=(
NAMED_UNIT(*)
PLANE_ANGLE_UNIT()
SI_UNIT($,.RADIAN.)
);
#613=(
LENGTH_UNIT()
NAMED_UNIT(*)
SI_UNIT(.MILLI.,.METRE.)
);
#614=DIMENSIONAL_EXPONENTS(1.,0.,0.,0.,0.,0.,0.);
#615=DIMENSIONAL_EXPONENTS(0.,0.,0.,0.,0.,0.,0.);
#616=PRODUCT_DEFINITION_FORMATION_WITH_SPECIFIED_SOURCE('','',#619,.NOT_KNOWN.
);
#617=PRODUCT_CATEGORY_RELATIONSHIP('','',#622,#618);
#618=PRODUCT_RELATED_PRODUCT_CATEGORY('assembly','',(#619));
#619=PRODUCT('','master','',(#620));
#620=PRODUCT_CONTEXT('',#624,'');
#621=PRODUCT_DEFINITION_CONTEXT('',#624,'part_definition');
#622=PRODUCT_CATEGORY('part','');
#623=APPLICATION_PROTOCOL_DEFINITION('international standard',
'automotive_design_cc2',1994,#624);
#624=APPLICATION_CONTEXT(
'configuration controlled 3D designs of mechanical parts and assemblies');
ENDSEC;
END-ISO-10303-21;
27887