ISO-10303-21;
HEADER;
/* Generated by software using Delcam plc STEP library */

FILE_DESCRIPTION(
/* description */ ('AP-214 File'),
/* implementation_level */ '2;1');

FILE_NAME(
/* name */ 'D114',
/* time_stamp */ 'Tue Feb 07 08:09:43 2017',
/* author */ (''),
/* organization */ (''),
/* preprocessor_version */ 'DELCAM STEP V1',
/* originating_system */ 'Exchange7.1.0006',
/* authorisation */ '');

FILE_SCHEMA (('AUTOMOTIVE_DESIGN'));
ENDSEC;
DATA;
#10=PRESENTATION_STYLE_ASSIGNMENT((#20));
#11=PRESENTATION_STYLE_ASSIGNMENT((#21));
#12=SURFACE_SIDE_STYLE('',(#14));
#13=SURFACE_SIDE_STYLE('',(#15));
#14=SURFACE_STYLE_FILL_AREA(#16);
#15=SURFACE_STYLE_FILL_AREA(#17);
#16=FILL_AREA_STYLE('',(#18));
#17=FILL_AREA_STYLE('',(#19));
#18=FILL_AREA_STYLE_COLOUR('',#44);
#19=FILL_AREA_STYLE_COLOUR('',#45);
#20=SURFACE_STYLE_USAGE(.BOTH.,#12);
#21=SURFACE_STYLE_USAGE(.BOTH.,#13);
#22=STYLED_ITEM('',(#10),#54);
#23=STYLED_ITEM('',(#10),#55);
#24=STYLED_ITEM('',(#10),#56);
#25=STYLED_ITEM('',(#10),#57);
#26=STYLED_ITEM('',(#10),#58);
#27=STYLED_ITEM('',(#10),#59);
#28=STYLED_ITEM('',(#10),#60);
#29=STYLED_ITEM('',(#10),#61);
#30=STYLED_ITEM('',(#10),#62);
#31=STYLED_ITEM('',(#10),#63);
#32=STYLED_ITEM('',(#10),#64);
#33=STYLED_ITEM('',(#10),#65);
#34=STYLED_ITEM('',(#10),#66);
#35=STYLED_ITEM('',(#10),#67);
#36=STYLED_ITEM('',(#10),#68);
#37=STYLED_ITEM('',(#10),#69);
#38=STYLED_ITEM('',(#10),#70);
#39=STYLED_ITEM('',(#10),#71);
#40=STYLED_ITEM('',(#10),#72);
#41=STYLED_ITEM('',(#10),#73);
#42=STYLED_ITEM('',(#10),#74);
#43=STYLED_ITEM('',(#11),#51);
#44=COLOUR_RGB('',0.,0.,0.);
#45=COLOUR_RGB('rgb_colour_1',0.4,0.4,0.4);
#46=MECHANICAL_DESIGN_GEOMETRIC_PRESENTATION_REPRESENTATION('',(#22,#23,#24,
#25,#26,#27,#28,#29,#30,#31,#32,#33,#34,#35,#36,#37,#38,#39,#40,#41,#42,#43),
#717);
#47=PRESENTATION_LAYER_ASSIGNMENT('59','D114',(#54,#55,#56,#57,#58,#59,#60,#61
,#62,#63,#64,#65,#66,#67,#68,#69,#70,#71,#72,#73,#74,#51));
#48=SHAPE_REPRESENTATION_RELATIONSHIP('','',#446,#49);
#49=ADVANCED_BREP_SHAPE_REPRESENTATION('',(#50),#717);
#50=MANIFOLD_SOLID_BREP('8053',#51);
#51=CLOSED_SHELL('',(#54,#55,#56,#57,#58,#59,#60,#61,#62,#63,#64,#65,#66,#67,
#68,#69,#70,#71,#72,#73,#74));
#52=CYLINDRICAL_SURFACE('',#460,5.00000000000036);
#53=CYLINDRICAL_SURFACE('',#462,5.00000000000091);
#54=ADVANCED_FACE('',(#75),#231,.F.);
#55=ADVANCED_FACE('',(#76),#232,.F.);
#56=ADVANCED_FACE('',(#77),#233,.F.);
#57=ADVANCED_FACE('',(#78),#234,.F.);
#58=ADVANCED_FACE('',(#79),#235,.F.);
#59=ADVANCED_FACE('',(#80),#236,.F.);
#60=ADVANCED_FACE('',(#81),#237,.F.);
#61=ADVANCED_FACE('',(#82),#238,.F.);
#62=ADVANCED_FACE('',(#83),#52,.F.);
#63=ADVANCED_FACE('',(#84),#239,.F.);
#64=ADVANCED_FACE('',(#85),#53,.F.);
#65=ADVANCED_FACE('',(#86),#240,.F.);
#66=ADVANCED_FACE('',(#87),#241,.F.);
#67=ADVANCED_FACE('',(#88),#242,.F.);
#68=ADVANCED_FACE('',(#89),#243,.F.);
#69=ADVANCED_FACE('',(#90),#244,.F.);
#70=ADVANCED_FACE('',(#91),#245,.F.);
#71=ADVANCED_FACE('',(#92),#246,.F.);
#72=ADVANCED_FACE('',(#93),#247,.F.);
#73=ADVANCED_FACE('',(#94),#248,.F.);
#74=ADVANCED_FACE('',(#95),#249,.T.);
#75=FACE_OUTER_BOUND('',#96,.T.);
#76=FACE_OUTER_BOUND('',#97,.T.);
#77=FACE_OUTER_BOUND('',#98,.T.);
#78=FACE_OUTER_BOUND('',#99,.T.);
#79=FACE_OUTER_BOUND('',#100,.T.);
#80=FACE_OUTER_BOUND('',#101,.T.);
#81=FACE_OUTER_BOUND('',#102,.T.);
#82=FACE_OUTER_BOUND('',#103,.T.);
#83=FACE_OUTER_BOUND('',#104,.T.);
#84=FACE_OUTER_BOUND('',#105,.T.);
#85=FACE_OUTER_BOUND('',#106,.T.);
#86=FACE_OUTER_BOUND('',#107,.T.);
#87=FACE_OUTER_BOUND('',#108,.T.);
#88=FACE_OUTER_BOUND('',#109,.T.);
#89=FACE_OUTER_BOUND('',#110,.T.);
#90=FACE_OUTER_BOUND('',#111,.T.);
#91=FACE_OUTER_BOUND('',#112,.T.);
#92=FACE_OUTER_BOUND('',#113,.T.);
#93=FACE_OUTER_BOUND('',#114,.T.);
#94=FACE_OUTER_BOUND('',#115,.T.);
#95=FACE_OUTER_BOUND('',#116,.T.);
#96=EDGE_LOOP('',(#117,#118,#119,#120));
#97=EDGE_LOOP('',(#121,#122,#123,#124));
#98=EDGE_LOOP('',(#125,#126,#127,#128));
#99=EDGE_LOOP('',(#129,#130,#131,#132));
#100=EDGE_LOOP('',(#133,#134,#135,#136));
#101=EDGE_LOOP('',(#137,#138,#139,#140));
#102=EDGE_LOOP('',(#141,#142,#143,#144));
#103=EDGE_LOOP('',(#145,#146,#147,#148));
#104=EDGE_LOOP('',(#149,#150,#151,#152));
#105=EDGE_LOOP('',(#153,#154,#155,#156));
#106=EDGE_LOOP('',(#157,#158,#159,#160));
#107=EDGE_LOOP('',(#161,#162,#163,#164));
#108=EDGE_LOOP('',(#165,#166,#167,#168));
#109=EDGE_LOOP('',(#169,#170,#171,#172));
#110=EDGE_LOOP('',(#173,#174,#175,#176));
#111=EDGE_LOOP('',(#177,#178,#179,#180));
#112=EDGE_LOOP('',(#181,#182,#183,#184));
#113=EDGE_LOOP('',(#185,#186,#187,#188));
#114=EDGE_LOOP('',(#189,#190,#191,#192));
#115=EDGE_LOOP('',(#193,#194,#195,#196,#197,#198,#199,#200,#201,#202,#203,#204
,#205,#206,#207,#208,#209,#210,#211));
#116=EDGE_LOOP('',(#212,#213,#214,#215,#216,#217,#218,#219,#220,#221,#222,#223
,#224,#225,#226,#227,#228,#229,#230));
#117=ORIENTED_EDGE('',*,*,#320,.T.);
#118=ORIENTED_EDGE('',*,*,#264,.F.);
#119=ORIENTED_EDGE('',*,*,#301,.F.);
#120=ORIENTED_EDGE('',*,*,#282,.T.);
#121=ORIENTED_EDGE('',*,*,#319,.T.);
#122=ORIENTED_EDGE('',*,*,#265,.F.);
#123=ORIENTED_EDGE('',*,*,#300,.F.);
#124=ORIENTED_EDGE('',*,*,#264,.T.);
#125=ORIENTED_EDGE('',*,*,#318,.T.);
#126=ORIENTED_EDGE('',*,*,#266,.F.);
#127=ORIENTED_EDGE('',*,*,#299,.F.);
#128=ORIENTED_EDGE('',*,*,#265,.T.);
#129=ORIENTED_EDGE('',*,*,#317,.T.);
#130=ORIENTED_EDGE('',*,*,#267,.F.);
#131=ORIENTED_EDGE('',*,*,#298,.F.);
#132=ORIENTED_EDGE('',*,*,#266,.T.);
#133=ORIENTED_EDGE('',*,*,#316,.T.);
#134=ORIENTED_EDGE('',*,*,#268,.F.);
#135=ORIENTED_EDGE('',*,*,#297,.F.);
#136=ORIENTED_EDGE('',*,*,#267,.T.);
#137=ORIENTED_EDGE('',*,*,#315,.T.);
#138=ORIENTED_EDGE('',*,*,#269,.F.);
#139=ORIENTED_EDGE('',*,*,#296,.F.);
#140=ORIENTED_EDGE('',*,*,#268,.T.);
#141=ORIENTED_EDGE('',*,*,#314,.T.);
#142=ORIENTED_EDGE('',*,*,#270,.F.);
#143=ORIENTED_EDGE('',*,*,#295,.F.);
#144=ORIENTED_EDGE('',*,*,#269,.T.);
#145=ORIENTED_EDGE('',*,*,#313,.T.);
#146=ORIENTED_EDGE('',*,*,#271,.F.);
#147=ORIENTED_EDGE('',*,*,#294,.F.);
#148=ORIENTED_EDGE('',*,*,#270,.T.);
#149=ORIENTED_EDGE('',*,*,#312,.T.);
#150=ORIENTED_EDGE('',*,*,#272,.F.);
#151=ORIENTED_EDGE('',*,*,#293,.F.);
#152=ORIENTED_EDGE('',*,*,#271,.T.);
#153=ORIENTED_EDGE('',*,*,#311,.T.);
#154=ORIENTED_EDGE('',*,*,#273,.F.);
#155=ORIENTED_EDGE('',*,*,#292,.F.);
#156=ORIENTED_EDGE('',*,*,#272,.T.);
#157=ORIENTED_EDGE('',*,*,#310,.T.);
#158=ORIENTED_EDGE('',*,*,#274,.F.);
#159=ORIENTED_EDGE('',*,*,#291,.F.);
#160=ORIENTED_EDGE('',*,*,#273,.T.);
#161=ORIENTED_EDGE('',*,*,#309,.T.);
#162=ORIENTED_EDGE('',*,*,#275,.F.);
#163=ORIENTED_EDGE('',*,*,#290,.F.);
#164=ORIENTED_EDGE('',*,*,#274,.T.);
#165=ORIENTED_EDGE('',*,*,#308,.T.);
#166=ORIENTED_EDGE('',*,*,#276,.F.);
#167=ORIENTED_EDGE('',*,*,#289,.F.);
#168=ORIENTED_EDGE('',*,*,#275,.T.);
#169=ORIENTED_EDGE('',*,*,#307,.T.);
#170=ORIENTED_EDGE('',*,*,#277,.F.);
#171=ORIENTED_EDGE('',*,*,#288,.F.);
#172=ORIENTED_EDGE('',*,*,#276,.T.);
#173=ORIENTED_EDGE('',*,*,#306,.T.);
#174=ORIENTED_EDGE('',*,*,#278,.F.);
#175=ORIENTED_EDGE('',*,*,#287,.F.);
#176=ORIENTED_EDGE('',*,*,#277,.T.);
#177=ORIENTED_EDGE('',*,*,#305,.T.);
#178=ORIENTED_EDGE('',*,*,#279,.F.);
#179=ORIENTED_EDGE('',*,*,#286,.F.);
#180=ORIENTED_EDGE('',*,*,#278,.T.);
#181=ORIENTED_EDGE('',*,*,#304,.T.);
#182=ORIENTED_EDGE('',*,*,#280,.F.);
#183=ORIENTED_EDGE('',*,*,#285,.F.);
#184=ORIENTED_EDGE('',*,*,#279,.T.);
#185=ORIENTED_EDGE('',*,*,#303,.T.);
#186=ORIENTED_EDGE('',*,*,#281,.F.);
#187=ORIENTED_EDGE('',*,*,#284,.F.);
#188=ORIENTED_EDGE('',*,*,#280,.T.);
#189=ORIENTED_EDGE('',*,*,#302,.T.);
#190=ORIENTED_EDGE('',*,*,#282,.F.);
#191=ORIENTED_EDGE('',*,*,#283,.F.);
#192=ORIENTED_EDGE('',*,*,#281,.T.);
#193=ORIENTED_EDGE('',*,*,#301,.T.);
#194=ORIENTED_EDGE('',*,*,#300,.T.);
#195=ORIENTED_EDGE('',*,*,#299,.T.);
#196=ORIENTED_EDGE('',*,*,#298,.T.);
#197=ORIENTED_EDGE('',*,*,#297,.T.);
#198=ORIENTED_EDGE('',*,*,#296,.T.);
#199=ORIENTED_EDGE('',*,*,#295,.T.);
#200=ORIENTED_EDGE('',*,*,#294,.T.);
#201=ORIENTED_EDGE('',*,*,#293,.T.);
#202=ORIENTED_EDGE('',*,*,#292,.T.);
#203=ORIENTED_EDGE('',*,*,#291,.T.);
#204=ORIENTED_EDGE('',*,*,#290,.T.);
#205=ORIENTED_EDGE('',*,*,#289,.T.);
#206=ORIENTED_EDGE('',*,*,#288,.T.);
#207=ORIENTED_EDGE('',*,*,#287,.T.);
#208=ORIENTED_EDGE('',*,*,#286,.T.);
#209=ORIENTED_EDGE('',*,*,#285,.T.);
#210=ORIENTED_EDGE('',*,*,#284,.T.);
#211=ORIENTED_EDGE('',*,*,#283,.T.);
#212=ORIENTED_EDGE('',*,*,#320,.F.);
#213=ORIENTED_EDGE('',*,*,#302,.F.);
#214=ORIENTED_EDGE('',*,*,#303,.F.);
#215=ORIENTED_EDGE('',*,*,#304,.F.);
#216=ORIENTED_EDGE('',*,*,#305,.F.);
#217=ORIENTED_EDGE('',*,*,#306,.F.);
#218=ORIENTED_EDGE('',*,*,#307,.F.);
#219=ORIENTED_EDGE('',*,*,#308,.F.);
#220=ORIENTED_EDGE('',*,*,#309,.F.);
#221=ORIENTED_EDGE('',*,*,#310,.F.);
#222=ORIENTED_EDGE('',*,*,#311,.F.);
#223=ORIENTED_EDGE('',*,*,#312,.F.);
#224=ORIENTED_EDGE('',*,*,#313,.F.);
#225=ORIENTED_EDGE('',*,*,#314,.F.);
#226=ORIENTED_EDGE('',*,*,#315,.F.);
#227=ORIENTED_EDGE('',*,*,#316,.F.);
#228=ORIENTED_EDGE('',*,*,#317,.F.);
#229=ORIENTED_EDGE('',*,*,#318,.F.);
#230=ORIENTED_EDGE('',*,*,#319,.F.);
#231=PLANE('',#452);
#232=PLANE('',#453);
#233=PLANE('',#454);
#234=PLANE('',#455);
#235=PLANE('',#456);
#236=PLANE('',#457);
#237=PLANE('',#458);
#238=PLANE('',#459);
#239=PLANE('',#461);
#240=PLANE('',#463);
#241=PLANE('',#464);
#242=PLANE('',#465);
#243=PLANE('',#466);
#244=PLANE('',#467);
#245=PLANE('',#468);
#246=PLANE('',#469);
#247=PLANE('',#470);
#248=PLANE('',#471);
#249=PLANE('',#472);
#250=B_SPLINE_CURVE_WITH_KNOTS('',3,(#639,#640,#641,#642),.UNSPECIFIED.,.F.,
.F.,(4,4),(4.,5.),.UNSPECIFIED.);
#251=B_SPLINE_CURVE_WITH_KNOTS('',3,(#643,#644,#645,#646),.UNSPECIFIED.,.F.,
.F.,(4,4),(3.,4.),.UNSPECIFIED.);
#252=B_SPLINE_CURVE_WITH_KNOTS('',3,(#647,#648,#649,#650),.UNSPECIFIED.,.F.,
.F.,(4,4),(2.,3.),.UNSPECIFIED.);
#253=B_SPLINE_CURVE_WITH_KNOTS('',3,(#651,#652,#653,#654),.UNSPECIFIED.,.F.,
.F.,(4,4),(1.,2.),.UNSPECIFIED.);
#254=B_SPLINE_CURVE_WITH_KNOTS('',3,(#655,#656,#657,#658),.UNSPECIFIED.,.F.,
.F.,(4,4),(0.,1.),.UNSPECIFIED.);
#255=B_SPLINE_CURVE_WITH_KNOTS('',3,(#673,#674,#675,#676),.UNSPECIFIED.,.F.,
.F.,(4,4),(4.,5.),.UNSPECIFIED.);
#256=B_SPLINE_CURVE_WITH_KNOTS('',3,(#677,#678,#679,#680),.UNSPECIFIED.,.F.,
.F.,(4,4),(3.,4.),.UNSPECIFIED.);
#257=B_SPLINE_CURVE_WITH_KNOTS('',3,(#681,#682,#683,#684),.UNSPECIFIED.,.F.,
.F.,(4,4),(2.,3.),.UNSPECIFIED.);
#258=B_SPLINE_CURVE_WITH_KNOTS('',3,(#685,#686,#687,#688),.UNSPECIFIED.,.F.,
.F.,(4,4),(1.,2.),.UNSPECIFIED.);
#259=B_SPLINE_CURVE_WITH_KNOTS('',3,(#689,#690,#691,#692),.UNSPECIFIED.,.F.,
.F.,(4,4),(0.,1.),.UNSPECIFIED.);
#260=CIRCLE('',#448,5.00000000000091);
#261=CIRCLE('',#449,5.00000000000036);
#262=CIRCLE('',#450,5.00000000000091);
#263=CIRCLE('',#451,5.00000000000036);
#264=EDGE_CURVE('',#425,#444,#321,.T.);
#265=EDGE_CURVE('',#424,#443,#322,.T.);
#266=EDGE_CURVE('',#423,#442,#323,.T.);
#267=EDGE_CURVE('',#422,#441,#324,.T.);
#268=EDGE_CURVE('',#421,#440,#325,.T.);
#269=EDGE_CURVE('',#420,#439,#326,.T.);
#270=EDGE_CURVE('',#419,#438,#327,.T.);
#271=EDGE_CURVE('',#418,#437,#328,.T.);
#272=EDGE_CURVE('',#417,#436,#329,.T.);
#273=EDGE_CURVE('',#416,#435,#330,.T.);
#274=EDGE_CURVE('',#415,#434,#331,.T.);
#275=EDGE_CURVE('',#414,#433,#332,.T.);
#276=EDGE_CURVE('',#413,#432,#333,.T.);
#277=EDGE_CURVE('',#412,#431,#334,.T.);
#278=EDGE_CURVE('',#411,#430,#335,.T.);
#279=EDGE_CURVE('',#410,#429,#336,.T.);
#280=EDGE_CURVE('',#409,#428,#337,.T.);
#281=EDGE_CURVE('',#408,#427,#338,.T.);
#282=EDGE_CURVE('',#407,#426,#339,.T.);
#283=EDGE_CURVE('',#408,#407,#340,.T.);
#284=EDGE_CURVE('',#409,#408,#341,.T.);
#285=EDGE_CURVE('',#410,#409,#342,.T.);
#286=EDGE_CURVE('',#411,#410,#343,.T.);
#287=EDGE_CURVE('',#412,#411,#344,.T.);
#288=EDGE_CURVE('',#413,#412,#345,.T.);
#289=EDGE_CURVE('',#414,#413,#346,.T.);
#290=EDGE_CURVE('',#415,#414,#347,.T.);
#291=EDGE_CURVE('',#416,#415,#260,.T.);
#292=EDGE_CURVE('',#417,#416,#348,.T.);
#293=EDGE_CURVE('',#418,#417,#261,.T.);
#294=EDGE_CURVE('',#419,#418,#349,.T.);
#295=EDGE_CURVE('',#420,#419,#350,.T.);
#296=EDGE_CURVE('',#421,#420,#250,.T.);
#297=EDGE_CURVE('',#422,#421,#251,.T.);
#298=EDGE_CURVE('',#423,#422,#252,.T.);
#299=EDGE_CURVE('',#424,#423,#253,.T.);
#300=EDGE_CURVE('',#425,#424,#254,.T.);
#301=EDGE_CURVE('',#407,#425,#351,.T.);
#302=EDGE_CURVE('',#427,#426,#352,.T.);
#303=EDGE_CURVE('',#428,#427,#353,.T.);
#304=EDGE_CURVE('',#429,#428,#354,.T.);
#305=EDGE_CURVE('',#430,#429,#355,.T.);
#306=EDGE_CURVE('',#431,#430,#356,.T.);
#307=EDGE_CURVE('',#432,#431,#357,.T.);
#308=EDGE_CURVE('',#433,#432,#358,.T.);
#309=EDGE_CURVE('',#434,#433,#359,.T.);
#310=EDGE_CURVE('',#435,#434,#262,.T.);
#311=EDGE_CURVE('',#436,#435,#360,.T.);
#312=EDGE_CURVE('',#437,#436,#263,.T.);
#313=EDGE_CURVE('',#438,#437,#361,.T.);
#314=EDGE_CURVE('',#439,#438,#362,.T.);
#315=EDGE_CURVE('',#440,#439,#255,.T.);
#316=EDGE_CURVE('',#441,#440,#256,.T.);
#317=EDGE_CURVE('',#442,#441,#257,.T.);
#318=EDGE_CURVE('',#443,#442,#258,.T.);
#319=EDGE_CURVE('',#444,#443,#259,.T.);
#320=EDGE_CURVE('',#426,#444,#363,.T.);
#321=LINE('',#607,#364);
#322=LINE('',#608,#365);
#323=LINE('',#609,#366);
#324=LINE('',#610,#367);
#325=LINE('',#611,#368);
#326=LINE('',#612,#369);
#327=LINE('',#613,#370);
#328=LINE('',#614,#371);
#329=LINE('',#615,#372);
#330=LINE('',#616,#373);
#331=LINE('',#617,#374);
#332=LINE('',#618,#375);
#333=LINE('',#619,#376);
#334=LINE('',#620,#377);
#335=LINE('',#621,#378);
#336=LINE('',#622,#379);
#337=LINE('',#623,#380);
#338=LINE('',#624,#381);
#339=LINE('',#625,#382);
#340=LINE('',#626,#383);
#341=LINE('',#627,#384);
#342=LINE('',#628,#385);
#343=LINE('',#629,#386);
#344=LINE('',#630,#387);
#345=LINE('',#631,#388);
#346=LINE('',#632,#389);
#347=LINE('',#633,#390);
#348=LINE('',#635,#391);
#349=LINE('',#637,#392);
#350=LINE('',#638,#393);
#351=LINE('',#659,#394);
#352=LINE('',#660,#395);
#353=LINE('',#661,#396);
#354=LINE('',#662,#397);
#355=LINE('',#663,#398);
#356=LINE('',#664,#399);
#357=LINE('',#665,#400);
#358=LINE('',#666,#401);
#359=LINE('',#667,#402);
#360=LINE('',#669,#403);
#361=LINE('',#671,#404);
#362=LINE('',#672,#405);
#363=LINE('',#693,#406);
#364=VECTOR('',#475,1.);
#365=VECTOR('',#476,1.);
#366=VECTOR('',#477,1.);
#367=VECTOR('',#478,1.);
#368=VECTOR('',#479,1.);
#369=VECTOR('',#480,1.);
#370=VECTOR('',#481,1.);
#371=VECTOR('',#482,1.);
#372=VECTOR('',#483,1.);
#373=VECTOR('',#484,1.);
#374=VECTOR('',#485,1.);
#375=VECTOR('',#486,1.);
#376=VECTOR('',#487,1.);
#377=VECTOR('',#488,1.);
#378=VECTOR('',#489,1.);
#379=VECTOR('',#490,1.);
#380=VECTOR('',#491,1.);
#381=VECTOR('',#492,1.);
#382=VECTOR('',#493,1.);
#383=VECTOR('',#494,1.);
#384=VECTOR('',#495,1.);
#385=VECTOR('',#496,1.);
#386=VECTOR('',#497,1.);
#387=VECTOR('',#498,1.);
#388=VECTOR('',#499,1.);
#389=VECTOR('',#500,1.);
#390=VECTOR('',#501,1.);
#391=VECTOR('',#504,1.);
#392=VECTOR('',#507,1.);
#393=VECTOR('',#508,1.);
#394=VECTOR('',#509,1.);
#395=VECTOR('',#510,1.);
#396=VECTOR('',#511,1.);
#397=VECTOR('',#512,1.);
#398=VECTOR('',#513,1.);
#399=VECTOR('',#514,1.);
#400=VECTOR('',#515,1.);
#401=VECTOR('',#516,1.);
#402=VECTOR('',#517,1.);
#403=VECTOR('',#520,1.);
#404=VECTOR('',#523,1.);
#405=VECTOR('',#524,1.);
#406=VECTOR('',#525,1.);
#407=VERTEX_POINT('',#569);
#408=VERTEX_POINT('',#570);
#409=VERTEX_POINT('',#571);
#410=VERTEX_POINT('',#572);
#411=VERTEX_POINT('',#573);
#412=VERTEX_POINT('',#574);
#413=VERTEX_POINT('',#575);
#414=VERTEX_POINT('',#576);
#415=VERTEX_POINT('',#577);
#416=VERTEX_POINT('',#578);
#417=VERTEX_POINT('',#579);
#418=VERTEX_POINT('',#580);
#419=VERTEX_POINT('',#581);
#420=VERTEX_POINT('',#582);
#421=VERTEX_POINT('',#583);
#422=VERTEX_POINT('',#584);
#423=VERTEX_POINT('',#585);
#424=VERTEX_POINT('',#586);
#425=VERTEX_POINT('',#587);
#426=VERTEX_POINT('',#588);
#427=VERTEX_POINT('',#589);
#428=VERTEX_POINT('',#590);
#429=VERTEX_POINT('',#591);
#430=VERTEX_POINT('',#592);
#431=VERTEX_POINT('',#593);
#432=VERTEX_POINT('',#594);
#433=VERTEX_POINT('',#595);
#434=VERTEX_POINT('',#596);
#435=VERTEX_POINT('',#597);
#436=VERTEX_POINT('',#598);
#437=VERTEX_POINT('',#599);
#438=VERTEX_POINT('',#600);
#439=VERTEX_POINT('',#601);
#440=VERTEX_POINT('',#602);
#441=VERTEX_POINT('',#603);
#442=VERTEX_POINT('',#604);
#443=VERTEX_POINT('',#605);
#444=VERTEX_POINT('',#606);
#445=SHAPE_DEFINITION_REPRESENTATION(#715,#446);
#446=SHAPE_REPRESENTATION('master',(#447),#717);
#447=AXIS2_PLACEMENT_3D('',#568,#474,#473);
#448=AXIS2_PLACEMENT_3D('',#634,#503,#502);
#449=AXIS2_PLACEMENT_3D('',#636,#506,#505);
#450=AXIS2_PLACEMENT_3D('',#668,#519,#518);
#451=AXIS2_PLACEMENT_3D('',#670,#522,#521);
#452=AXIS2_PLACEMENT_3D('',#694,#527,#526);
#453=AXIS2_PLACEMENT_3D('',#695,#529,#528);
#454=AXIS2_PLACEMENT_3D('',#696,#531,#530);
#455=AXIS2_PLACEMENT_3D('',#697,#533,#532);
#456=AXIS2_PLACEMENT_3D('',#698,#535,#534);
#457=AXIS2_PLACEMENT_3D('',#699,#537,#536);
#458=AXIS2_PLACEMENT_3D('',#700,#539,#538);
#459=AXIS2_PLACEMENT_3D('',#701,#541,#540);
#460=AXIS2_PLACEMENT_3D('',#702,#543,#542);
#461=AXIS2_PLACEMENT_3D('',#703,#545,#544);
#462=AXIS2_PLACEMENT_3D('',#704,#547,#546);
#463=AXIS2_PLACEMENT_3D('',#705,#549,#548);
#464=AXIS2_PLACEMENT_3D('',#706,#551,#550);
#465=AXIS2_PLACEMENT_3D('',#707,#553,#552);
#466=AXIS2_PLACEMENT_3D('',#708,#555,#554);
#467=AXIS2_PLACEMENT_3D('',#709,#557,#556);
#468=AXIS2_PLACEMENT_3D('',#710,#559,#558);
#469=AXIS2_PLACEMENT_3D('',#711,#561,#560);
#470=AXIS2_PLACEMENT_3D('',#712,#563,#562);
#471=AXIS2_PLACEMENT_3D('',#713,#565,#564);
#472=AXIS2_PLACEMENT_3D('',#714,#567,#566);
#473=DIRECTION('',(1.,0.,0.));
#474=DIRECTION('',(0.,0.,1.));
#475=DIRECTION('',(1.31168022835771E-015,-1.,1.44683422923202E-015));
#476=DIRECTION('',(1.31168022835771E-015,-1.,1.44683422923202E-015));
#477=DIRECTION('',(1.31168022835771E-015,-1.,1.44683422923202E-015));
#478=DIRECTION('',(1.31168022835771E-015,-1.,1.44683422923202E-015));
#479=DIRECTION('',(1.31168022835771E-015,-1.,1.44683422923202E-015));
#480=DIRECTION('',(1.31168022835771E-015,-1.,1.44683422923202E-015));
#481=DIRECTION('',(1.31168022835771E-015,-1.,1.44683422923202E-015));
#482=DIRECTION('',(1.31168022835771E-015,-1.,1.44683422923202E-015));
#483=DIRECTION('',(1.31168022835771E-015,-1.,1.44683422923202E-015));
#484=DIRECTION('',(1.31168022835771E-015,-1.,1.44683422923202E-015));
#485=DIRECTION('',(1.31168022835771E-015,-1.,1.44683422923202E-015));
#486=DIRECTION('',(1.31168022835771E-015,-1.,1.44683422923202E-015));
#487=DIRECTION('',(1.31168022835771E-015,-1.,1.44683422923202E-015));
#488=DIRECTION('',(1.31168022835771E-015,-1.,1.44683422923202E-015));
#489=DIRECTION('',(1.31168022835771E-015,-1.,1.44683422923202E-015));
#490=DIRECTION('',(1.31168022835771E-015,-1.,1.44683422923202E-015));
#491=DIRECTION('',(1.31168022835771E-015,-1.,1.44683422923202E-015));
#492=DIRECTION('',(1.31168022835771E-015,-1.,1.44683422923202E-015));
#493=DIRECTION('',(1.31168022835771E-015,-1.,1.44683422923202E-015));
#494=DIRECTION('',(0.,0.,1.));
#495=DIRECTION('',(1.,0.,0.));
#496=DIRECTION('',(0.,0.,1.));
#497=DIRECTION('',(-1.,0.,0.));
#498=DIRECTION('',(-1.,0.,0.));
#499=DIRECTION('',(0.,0.,-1.));
#500=DIRECTION('',(0.997054485501581,0.,-0.076696498884737));
#501=DIRECTION('',(0.106261611513945,0.,0.994338207009295));
#502=DIRECTION('',(0.,0.,-1.));
#503=DIRECTION('',(0.,-1.,0.));
#504=DIRECTION('',(1.,0.,0.));
#505=DIRECTION('',(-0.992878506925669,-0.,-0.119131316139183));
#506=DIRECTION('',(0.,-1.,0.));
#507=DIRECTION('',(0.13173189434615,0.,-0.991285381720105));
#508=DIRECTION('',(1.,0.,-3.41061175193183E-012));
#509=DIRECTION('',(0.515315734240597,0.,0.857000404926435));
#510=DIRECTION('',(0.,0.,1.));
#511=DIRECTION('',(1.,0.,0.));
#512=DIRECTION('',(0.,0.,1.));
#513=DIRECTION('',(-1.,0.,0.));
#514=DIRECTION('',(-1.,0.,0.));
#515=DIRECTION('',(0.,0.,-1.));
#516=DIRECTION('',(0.997054485501581,0.,-0.076696498884737));
#517=DIRECTION('',(0.106261611513945,0.,0.994338207009295));
#518=DIRECTION('',(0.,0.,-1.));
#519=DIRECTION('',(0.,-1.,0.));
#520=DIRECTION('',(1.,0.,0.));
#521=DIRECTION('',(-0.992878506925669,-0.,-0.119131316139183));
#522=DIRECTION('',(0.,-1.,0.));
#523=DIRECTION('',(0.13173189434615,0.,-0.991285381720105));
#524=DIRECTION('',(1.,0.,-3.41061175193183E-012));
#525=DIRECTION('',(0.515315734240597,0.,0.857000404926435));
#526=DIRECTION('',(-0.515315734240597,-2.46519032881566E-032,
-0.857000404926435));
#527=DIRECTION('',(0.857000404926435,3.7853404367543E-016,-0.515315734240597)
);
#528=DIRECTION('',(-1.31168022835771E-015,1.,0.));
#529=DIRECTION('',(1.,1.31168022835771E-015,-0.));
#530=DIRECTION('',(0.51531573424055,9.86076131526265E-032,-0.857000404926464)
);
#531=DIRECTION('',(0.857000404926464,1.86968692999765E-015,0.51531573424055));
#532=DIRECTION('',(-6.70402085388757E-014,0.,-1.));
#533=DIRECTION('',(1.,1.31168022835761E-015,-6.70402085388757E-014));
#534=DIRECTION('',(0.,1.,-1.44683422923202E-015));
#535=DIRECTION('',(0.,-1.44683422923202E-015,-1.));
#536=DIRECTION('',(-0.019733942822924,0.,0.999805266789819));
#537=DIRECTION('',(-0.999805266789819,-1.33997654461002E-015,
-0.019733942822924));
#538=DIRECTION('',(-1.,0.,3.41061175193183E-012));
#539=DIRECTION('',(-3.41061175193183E-012,-1.44683422923649E-015,-1.));
#540=DIRECTION('',(-0.13173189434615,0.,0.991285381720105));
#541=DIRECTION('',(-0.991285381720105,-1.49084364968387E-015,-0.13173189434615
));
#542=DIRECTION('',(0.,-1.44683422923202E-015,-1.));
#543=DIRECTION('',(1.31168022835771E-015,-1.,1.44683422923202E-015));
#544=DIRECTION('',(0.,1.,-1.44683422923202E-015));
#545=DIRECTION('',(0.,-1.44683422923202E-015,-1.));
#546=DIRECTION('',(0.,-1.44683422923202E-015,-1.));
#547=DIRECTION('',(1.31168022835771E-015,-1.,1.44683422923202E-015));
#548=DIRECTION('',(-0.106261611513945,-2.46519032881566E-032,
-0.994338207009295));
#549=DIRECTION('',(0.994338207009295,1.15051082964301E-015,-0.106261611513945)
);
#550=DIRECTION('',(-0.997054485501582,0.,0.076696498884737));
#551=DIRECTION('',(-0.076696498884737,-1.54317383920437E-015,
-0.997054485501582));
#552=DIRECTION('',(1.31168022835771E-015,-1.,0.));
#553=DIRECTION('',(-1.,-1.31168022835771E-015,-0.));
#554=DIRECTION('',(0.,-1.,1.44683422923202E-015));
#555=DIRECTION('',(0.,1.44683422923202E-015,1.));
#556=DIRECTION('',(0.,-1.,1.44683422923202E-015));
#557=DIRECTION('',(0.,1.44683422923202E-015,1.));
#558=DIRECTION('',(-1.31168022835771E-015,1.,0.));
#559=DIRECTION('',(1.,1.31168022835771E-015,-0.));
#560=DIRECTION('',(0.,1.,-1.44683422923202E-015));
#561=DIRECTION('',(0.,-1.44683422923202E-015,-1.));
#562=DIRECTION('',(-1.31168022835771E-015,1.,0.));
#563=DIRECTION('',(1.,1.31168022835771E-015,-0.));
#564=DIRECTION('',(0.,0.,-1.));
#565=DIRECTION('',(0.,-1.,0.));
#566=DIRECTION('',(0.,0.,-1.));
#567=DIRECTION('',(0.,-1.,0.));
#568=CARTESIAN_POINT('',(0.,0.,0.));
#569=CARTESIAN_POINT('',(153.08414476148,2168.281361,2080.07865282835));
#570=CARTESIAN_POINT('',(153.08414476148,2168.281361,2072.50431227212));
#571=CARTESIAN_POINT('',(103.080453999997,2168.281361,2072.50431227212));
#572=CARTESIAN_POINT('',(103.080453999997,2168.281361,2059.50431227212));
#573=CARTESIAN_POINT('',(196.113801157136,2168.281361,2059.50431227212));
#574=CARTESIAN_POINT('',(303.084144761533,2168.281361,2059.50431227212));
#575=CARTESIAN_POINT('',(303.084144761533,2168.281361,2099.50431227212));
#576=CARTESIAN_POINT('',(290.084144761533,2168.281361,2100.50431227212));
#577=CARTESIAN_POINT('',(287.783165601654,2168.281361,2078.97300421456));
#578=CARTESIAN_POINT('',(282.811474566607,2168.281361,2074.50431227213));
#579=CARTESIAN_POINT('',(180.520107064998,2168.281361,2074.50431227213));
#580=CARTESIAN_POINT('',(175.555714530369,2168.281361,2078.90865569143));
#581=CARTESIAN_POINT('',(173.084144761489,2168.281361,2097.50727217648));
#582=CARTESIAN_POINT('',(171.084148643657,2168.281361,2097.50727217648));
#583=CARTESIAN_POINT('',(168.084148643657,2168.281361,2249.5));
#584=CARTESIAN_POINT('',(153.08414476149,2168.281361,2249.5));
#585=CARTESIAN_POINT('',(153.084144761482,2168.281361,2127.36591084569));
#586=CARTESIAN_POINT('',(156.084144761495,2168.281361,2122.37673422258));
#587=CARTESIAN_POINT('',(156.084144761495,2168.281361,2085.06782945146));
#588=CARTESIAN_POINT('',(153.084144761483,168.281361,2080.07865282836));
#589=CARTESIAN_POINT('',(153.084144761483,168.281361,2072.50431227212));
#590=CARTESIAN_POINT('',(103.080454,168.281361,2072.50431227212));
#591=CARTESIAN_POINT('',(103.080454,168.281361,2059.50431227212));
#592=CARTESIAN_POINT('',(196.113801157139,168.281361,2059.50431227212));
#593=CARTESIAN_POINT('',(303.084144761536,168.281361,2059.50431227212));
#594=CARTESIAN_POINT('',(303.084144761536,168.281361,2099.50431227212));
#595=CARTESIAN_POINT('',(290.084144761536,168.281361,2100.50431227212));
#596=CARTESIAN_POINT('',(287.783165601657,168.281361,2078.97300421456));
#597=CARTESIAN_POINT('',(282.811474566609,168.281361,2074.50431227213));
#598=CARTESIAN_POINT('',(180.520107065,168.281361,2074.50431227213));
#599=CARTESIAN_POINT('',(175.555714530372,168.281361,2078.90865569144));
#600=CARTESIAN_POINT('',(173.084144761492,168.281361,2097.50727217648));
#601=CARTESIAN_POINT('',(171.084148643659,168.281361,2097.50727217649));
#602=CARTESIAN_POINT('',(168.084148643659,168.281361,2249.5));
#603=CARTESIAN_POINT('',(153.084144761493,168.281361,2249.5));
#604=CARTESIAN_POINT('',(153.084144761485,168.281361,2127.36591084569));
#605=CARTESIAN_POINT('',(156.084144761498,168.281361,2122.37673422259));
#606=CARTESIAN_POINT('',(156.084144761498,168.281361,2085.06782945146));
#607=CARTESIAN_POINT('',(156.084144761495,2168.281361,2085.06782945146));
#608=CARTESIAN_POINT('',(156.084144761495,2168.281361,2122.37673422258));
#609=CARTESIAN_POINT('',(153.084144761482,2168.281361,2127.36591084569));
#610=CARTESIAN_POINT('',(153.08414476149,2168.281361,2249.5));
#611=CARTESIAN_POINT('',(168.084148643657,2168.281361,2249.5));
#612=CARTESIAN_POINT('',(171.084148643657,2168.281361,2097.50727217648));
#613=CARTESIAN_POINT('',(173.084144761489,2168.281361,2097.50727217648));
#614=CARTESIAN_POINT('',(175.555714530369,2168.281361,2078.90865569143));
#615=CARTESIAN_POINT('',(180.520107064998,2168.281361,2074.50431227213));
#616=CARTESIAN_POINT('',(282.811474566607,2168.281361,2074.50431227213));
#617=CARTESIAN_POINT('',(287.783165601654,2168.281361,2078.97300421456));
#618=CARTESIAN_POINT('',(290.084144761533,2168.281361,2100.50431227212));
#619=CARTESIAN_POINT('',(303.084144761533,2168.281361,2099.50431227212));
#620=CARTESIAN_POINT('',(303.084144761533,2168.281361,2059.50431227212));
#621=CARTESIAN_POINT('',(196.113801157136,2168.281361,2059.50431227212));
#622=CARTESIAN_POINT('',(103.080453999997,2168.281361,2059.50431227212));
#623=CARTESIAN_POINT('',(103.080453999997,2168.281361,2072.50431227212));
#624=CARTESIAN_POINT('',(153.08414476148,2168.281361,2072.50431227212));
#625=CARTESIAN_POINT('',(153.08414476148,2168.281361,2080.07865282835));
#626=CARTESIAN_POINT('',(153.08414476148,2168.281361,2072.50431227212));
#627=CARTESIAN_POINT('',(103.080453999997,2168.281361,2072.50431227212));
#628=CARTESIAN_POINT('',(103.080453999997,2168.281361,2059.50431227212));
#629=CARTESIAN_POINT('',(196.113801157136,2168.281361,2059.50431227212));
#630=CARTESIAN_POINT('',(303.084144761533,2168.281361,2059.50431227212));
#631=CARTESIAN_POINT('',(303.084144761533,2168.281361,2099.50431227212));
#632=CARTESIAN_POINT('',(290.084144761533,2168.281361,2100.50431227212));
#633=CARTESIAN_POINT('',(287.783165601654,2168.281361,2078.97300421456));
#634=CARTESIAN_POINT('',(282.811474566607,2168.281361,2079.50431227213));
#635=CARTESIAN_POINT('',(180.520107064998,2168.281361,2074.50431227213));
#636=CARTESIAN_POINT('',(180.520107064998,2168.281361,2079.50431227213));
#637=CARTESIAN_POINT('',(173.084144761489,2168.281361,2097.50727217648));
#638=CARTESIAN_POINT('',(171.084148643657,2168.281361,2097.50727217648));
#639=CARTESIAN_POINT('',(168.084148643657,2168.281361,2249.5));
#640=CARTESIAN_POINT('',(169.084148643657,2168.281361,2198.83575739216));
#641=CARTESIAN_POINT('',(170.084148643657,2168.281361,2148.17151478432));
#642=CARTESIAN_POINT('',(171.084148643657,2168.281361,2097.50727217648));
#643=CARTESIAN_POINT('',(153.08414476149,2168.281361,2249.5));
#644=CARTESIAN_POINT('',(158.084146055546,2168.281361,2249.5));
#645=CARTESIAN_POINT('',(163.084147349601,2168.281361,2249.5));
#646=CARTESIAN_POINT('',(168.084148643657,2168.281361,2249.5));
#647=CARTESIAN_POINT('',(153.084144761482,2168.281361,2127.36591084569));
#648=CARTESIAN_POINT('',(153.084144761485,2168.281361,2168.07727389712));
#649=CARTESIAN_POINT('',(153.084144761488,2168.281361,2208.78863694856));
#650=CARTESIAN_POINT('',(153.08414476149,2168.281361,2249.5));
#651=CARTESIAN_POINT('',(156.084144761495,2168.281361,2122.37673422258));
#652=CARTESIAN_POINT('',(155.084144761491,2168.281361,2124.03979309695));
#653=CARTESIAN_POINT('',(154.084144761486,2168.281361,2125.70285197132));
#654=CARTESIAN_POINT('',(153.084144761482,2168.281361,2127.36591084569));
#655=CARTESIAN_POINT('',(156.084144761495,2168.281361,2085.06782945146));
#656=CARTESIAN_POINT('',(156.084144761495,2168.281361,2097.50413104183));
#657=CARTESIAN_POINT('',(156.084144761495,2168.281361,2109.94043263221));
#658=CARTESIAN_POINT('',(156.084144761495,2168.281361,2122.37673422258));
#659=CARTESIAN_POINT('',(153.08414476148,2168.281361,2080.07865282835));
#660=CARTESIAN_POINT('',(153.084144761483,168.281361,2072.50431227212));
#661=CARTESIAN_POINT('',(103.080454,168.281361,2072.50431227212));
#662=CARTESIAN_POINT('',(103.080454,168.281361,2059.50431227212));
#663=CARTESIAN_POINT('',(196.113801157139,168.281361,2059.50431227212));
#664=CARTESIAN_POINT('',(303.084144761536,168.281361,2059.50431227212));
#665=CARTESIAN_POINT('',(303.084144761536,168.281361,2099.50431227212));
#666=CARTESIAN_POINT('',(290.084144761536,168.281361,2100.50431227212));
#667=CARTESIAN_POINT('',(287.783165601657,168.281361,2078.97300421456));
#668=CARTESIAN_POINT('',(282.811474566609,168.281361,2079.50431227213));
#669=CARTESIAN_POINT('',(180.520107065,168.281361,2074.50431227213));
#670=CARTESIAN_POINT('',(180.520107065001,168.281361,2079.50431227213));
#671=CARTESIAN_POINT('',(173.084144761492,168.281361,2097.50727217648));
#672=CARTESIAN_POINT('',(171.084148643659,168.281361,2097.50727217649));
#673=CARTESIAN_POINT('',(168.084148643659,168.281361,2249.5));
#674=CARTESIAN_POINT('',(169.084148643659,168.281361,2198.83575739216));
#675=CARTESIAN_POINT('',(170.084148643659,168.281361,2148.17151478432));
#676=CARTESIAN_POINT('',(171.084148643659,168.281361,2097.50727217649));
#677=CARTESIAN_POINT('',(153.084144761493,168.281361,2249.5));
#678=CARTESIAN_POINT('',(158.084146055548,168.281361,2249.5));
#679=CARTESIAN_POINT('',(163.084147349604,168.281361,2249.5));
#680=CARTESIAN_POINT('',(168.084148643659,168.281361,2249.5));
#681=CARTESIAN_POINT('',(153.084144761485,168.281361,2127.36591084569));
#682=CARTESIAN_POINT('',(153.084144761487,168.281361,2168.07727389713));
#683=CARTESIAN_POINT('',(153.08414476149,168.281361,2208.78863694856));
#684=CARTESIAN_POINT('',(153.084144761493,168.281361,2249.5));
#685=CARTESIAN_POINT('',(156.084144761498,168.281361,2122.37673422259));
#686=CARTESIAN_POINT('',(155.084144761493,168.281361,2124.03979309696));
#687=CARTESIAN_POINT('',(154.084144761489,168.281361,2125.70285197132));
#688=CARTESIAN_POINT('',(153.084144761485,168.281361,2127.36591084569));
#689=CARTESIAN_POINT('',(156.084144761498,168.281361,2085.06782945146));
#690=CARTESIAN_POINT('',(156.084144761498,168.281361,2097.50413104184));
#691=CARTESIAN_POINT('',(156.084144761498,168.281361,2109.94043263221));
#692=CARTESIAN_POINT('',(156.084144761498,168.281361,2122.37673422259));
#693=CARTESIAN_POINT('',(153.084144761483,168.281361,2080.07865282836));
#694=CARTESIAN_POINT('',(153.08414476148,2168.281361,2080.07865282835));
#695=CARTESIAN_POINT('',(156.084144761495,2168.281361,2085.06782945146));
#696=CARTESIAN_POINT('',(156.084144761495,2168.281361,2122.37673422258));
#697=CARTESIAN_POINT('',(153.084144761482,2168.281361,2127.36591084569));
#698=CARTESIAN_POINT('',(153.08414476149,2168.281361,2249.5));
#699=CARTESIAN_POINT('',(168.084148643657,2168.281361,2249.5));
#700=CARTESIAN_POINT('',(171.084148643657,2168.281361,2097.50727217648));
#701=CARTESIAN_POINT('',(173.084144761489,2168.281361,2097.50727217648));
#702=CARTESIAN_POINT('',(180.520107064998,2168.281361,2079.50431227213));
#703=CARTESIAN_POINT('',(180.520107064998,2168.281361,2074.50431227213));
#704=CARTESIAN_POINT('',(282.811474566607,2168.281361,2079.50431227213));
#705=CARTESIAN_POINT('',(287.783165601654,2168.281361,2078.97300421456));
#706=CARTESIAN_POINT('',(290.084144761533,2168.281361,2100.50431227212));
#707=CARTESIAN_POINT('',(303.084144761533,2168.281361,2099.50431227212));
#708=CARTESIAN_POINT('',(303.084144761533,2168.281361,2059.50431227212));
#709=CARTESIAN_POINT('',(196.113801157136,2168.281361,2059.50431227212));
#710=CARTESIAN_POINT('',(103.080453999997,2168.281361,2059.50431227212));
#711=CARTESIAN_POINT('',(103.080453999997,2168.281361,2072.50431227212));
#712=CARTESIAN_POINT('',(153.08414476148,2168.281361,2072.50431227212));
#713=CARTESIAN_POINT('',(180.520107064998,2168.281361,2079.50431227213));
#714=CARTESIAN_POINT('',(180.520107065001,168.281361,2079.50431227213));
#715=PRODUCT_DEFINITION_SHAPE('','',#716);
#716=PRODUCT_DEFINITION('','',#728,#733);
#717=(
GEOMETRIC_REPRESENTATION_CONTEXT(3)
GLOBAL_UNCERTAINTY_ASSIGNED_CONTEXT((#718))
GLOBAL_UNIT_ASSIGNED_CONTEXT((#720,#719,#723))
REPRESENTATION_CONTEXT('','')
);
#718=UNCERTAINTY_MEASURE_WITH_UNIT(LENGTH_MEASURE(0.001),#720,'','tolerance');
#719=(
CONVERSION_BASED_UNIT('',#721)
NAMED_UNIT(#727)
PLANE_ANGLE_UNIT()
);
#720=(
CONVERSION_BASED_UNIT('',#722)
LENGTH_UNIT()
NAMED_UNIT(#726)
);
#721=PLANE_ANGLE_MEASURE_WITH_UNIT(PLANE_ANGLE_MEASURE(0.0174532925199433),
#724);
#722=LENGTH_MEASURE_WITH_UNIT(LENGTH_MEASURE(1.),#725);
#723=(
NAMED_UNIT(*)
SI_UNIT($,.STERADIAN.)
SOLID_ANGLE_UNIT()
);
#724=(
NAMED_UNIT(*)
PLANE_ANGLE_UNIT()
SI_UNIT($,.RADIAN.)
);
#725=(
LENGTH_UNIT()
NAMED_UNIT(*)
SI_UNIT(.MILLI.,.METRE.)
);
#726=DIMENSIONAL_EXPONENTS(1.,0.,0.,0.,0.,0.,0.);
#727=DIMENSIONAL_EXPONENTS(0.,0.,0.,0.,0.,0.,0.);
#728=PRODUCT_DEFINITION_FORMATION_WITH_SPECIFIED_SOURCE('','',#731,.NOT_KNOWN.
);
#729=PRODUCT_CATEGORY_RELATIONSHIP('','',#734,#730);
#730=PRODUCT_RELATED_PRODUCT_CATEGORY('assembly','',(#731));
#731=PRODUCT('','master','',(#732));
#732=PRODUCT_CONTEXT('',#736,'');
#733=PRODUCT_DEFINITION_CONTEXT('',#736,'part_definition');
#734=PRODUCT_CATEGORY('part','');
#735=APPLICATION_PROTOCOL_DEFINITION('international standard',
'automotive_design_cc2',1994,#736);
#736=APPLICATION_CONTEXT(
'configuration controlled 3D designs of mechanical parts and assemblies');
ENDSEC;
END-ISO-10303-21;
35526