ISO-10303-21;
HEADER;
/* Generated by software using Delcam plc STEP library */

FILE_DESCRIPTION(
/* description */ ('AP-214 File'),
/* implementation_level */ '2;1');

FILE_NAME(
/* name */ 'D117',
/* time_stamp */ 'Tue Feb 07 08:21:02 2017',
/* author */ (''),
/* organization */ (''),
/* preprocessor_version */ 'DELCAM STEP V1',
/* originating_system */ 'Exchange7.1.0006',
/* authorisation */ '');

FILE_SCHEMA (('AUTOMOTIVE_DESIGN'));
ENDSEC;
DATA;
#10=PRESENTATION_STYLE_ASSIGNMENT((#20));
#11=PRESENTATION_STYLE_ASSIGNMENT((#21));
#12=SURFACE_SIDE_STYLE('',(#14));
#13=SURFACE_SIDE_STYLE('',(#15));
#14=SURFACE_STYLE_FILL_AREA(#16);
#15=SURFACE_STYLE_FILL_AREA(#17);
#16=FILL_AREA_STYLE('',(#18));
#17=FILL_AREA_STYLE('',(#19));
#18=FILL_AREA_STYLE_COLOUR('',#44);
#19=FILL_AREA_STYLE_COLOUR('',#45);
#20=SURFACE_STYLE_USAGE(.BOTH.,#12);
#21=SURFACE_STYLE_USAGE(.BOTH.,#13);
#22=STYLED_ITEM('',(#10),#58);
#23=STYLED_ITEM('',(#10),#59);
#24=STYLED_ITEM('',(#10),#60);
#25=STYLED_ITEM('',(#10),#61);
#26=STYLED_ITEM('',(#10),#62);
#27=STYLED_ITEM('',(#10),#63);
#28=STYLED_ITEM('',(#10),#64);
#29=STYLED_ITEM('',(#10),#65);
#30=STYLED_ITEM('',(#10),#66);
#31=STYLED_ITEM('',(#10),#67);
#32=STYLED_ITEM('',(#10),#68);
#33=STYLED_ITEM('',(#10),#69);
#34=STYLED_ITEM('',(#10),#70);
#35=STYLED_ITEM('',(#10),#71);
#36=STYLED_ITEM('',(#10),#72);
#37=STYLED_ITEM('',(#10),#73);
#38=STYLED_ITEM('',(#10),#74);
#39=STYLED_ITEM('',(#10),#75);
#40=STYLED_ITEM('',(#10),#76);
#41=STYLED_ITEM('',(#10),#77);
#42=STYLED_ITEM('',(#10),#78);
#43=STYLED_ITEM('',(#11),#51);
#44=COLOUR_RGB('',0.,0.,0.);
#45=COLOUR_RGB('rgb_colour_1',0.4,0.4,0.4);
#46=MECHANICAL_DESIGN_GEOMETRIC_PRESENTATION_REPRESENTATION('',(#22,#23,#24,
#25,#26,#27,#28,#29,#30,#31,#32,#33,#34,#35,#36,#37,#38,#39,#40,#41,#42,#43),
#715);
#47=PRESENTATION_LAYER_ASSIGNMENT('57','D117',(#58,#59,#60,#61,#62,#63,#64,#65
,#66,#67,#68,#69,#70,#71,#72,#73,#74,#75,#76,#77,#78,#51));
#48=SHAPE_REPRESENTATION_RELATIONSHIP('','',#448,#49);
#49=ADVANCED_BREP_SHAPE_REPRESENTATION('',(#50),#715);
#50=MANIFOLD_SOLID_BREP('8056',#51);
#51=CLOSED_SHELL('',(#58,#59,#60,#61,#62,#63,#64,#65,#66,#67,#68,#69,#70,#71,
#72,#73,#74,#75,#76,#77,#78));
#52=CYLINDRICAL_SURFACE('',#464,64.8179951354579);
#53=CYLINDRICAL_SURFACE('',#465,144.755883161133);
#54=CYLINDRICAL_SURFACE('',#470,156.019135534087);
#55=CYLINDRICAL_SURFACE('',#471,73.9999999007604);
#56=CYLINDRICAL_SURFACE('',#472,41.7400380614827);
#57=CYLINDRICAL_SURFACE('',#473,37.0000000000052);
#58=ADVANCED_FACE('',(#79),#235,.T.);
#59=ADVANCED_FACE('',(#80),#236,.T.);
#60=ADVANCED_FACE('',(#81),#52,.T.);
#61=ADVANCED_FACE('',(#82),#53,.T.);
#62=ADVANCED_FACE('',(#83),#237,.T.);
#63=ADVANCED_FACE('',(#84),#238,.T.);
#64=ADVANCED_FACE('',(#85),#239,.T.);
#65=ADVANCED_FACE('',(#86),#240,.T.);
#66=ADVANCED_FACE('',(#87),#54,.F.);
#67=ADVANCED_FACE('',(#88),#55,.F.);
#68=ADVANCED_FACE('',(#89),#56,.F.);
#69=ADVANCED_FACE('',(#90),#57,.F.);
#70=ADVANCED_FACE('',(#91),#241,.T.);
#71=ADVANCED_FACE('',(#92),#242,.T.);
#72=ADVANCED_FACE('',(#93),#243,.T.);
#73=ADVANCED_FACE('',(#94),#244,.T.);
#74=ADVANCED_FACE('',(#95),#245,.T.);
#75=ADVANCED_FACE('',(#96),#246,.T.);
#76=ADVANCED_FACE('',(#97),#247,.T.);
#77=ADVANCED_FACE('',(#98),#248,.F.);
#78=ADVANCED_FACE('',(#99),#249,.T.);
#79=FACE_OUTER_BOUND('',#100,.T.);
#80=FACE_OUTER_BOUND('',#101,.T.);
#81=FACE_OUTER_BOUND('',#102,.T.);
#82=FACE_OUTER_BOUND('',#103,.T.);
#83=FACE_OUTER_BOUND('',#104,.T.);
#84=FACE_OUTER_BOUND('',#105,.T.);
#85=FACE_OUTER_BOUND('',#106,.T.);
#86=FACE_OUTER_BOUND('',#107,.T.);
#87=FACE_OUTER_BOUND('',#108,.T.);
#88=FACE_OUTER_BOUND('',#109,.T.);
#89=FACE_OUTER_BOUND('',#110,.T.);
#90=FACE_OUTER_BOUND('',#111,.T.);
#91=FACE_OUTER_BOUND('',#112,.T.);
#92=FACE_OUTER_BOUND('',#113,.T.);
#93=FACE_OUTER_BOUND('',#114,.T.);
#94=FACE_OUTER_BOUND('',#115,.T.);
#95=FACE_OUTER_BOUND('',#116,.T.);
#96=FACE_OUTER_BOUND('',#117,.T.);
#97=FACE_OUTER_BOUND('',#118,.T.);
#98=FACE_OUTER_BOUND('',#119,.T.);
#99=FACE_OUTER_BOUND('',#120,.T.);
#100=EDGE_LOOP('',(#121,#122,#123,#124));
#101=EDGE_LOOP('',(#125,#126,#127,#128));
#102=EDGE_LOOP('',(#129,#130,#131,#132));
#103=EDGE_LOOP('',(#133,#134,#135,#136));
#104=EDGE_LOOP('',(#137,#138,#139,#140));
#105=EDGE_LOOP('',(#141,#142,#143,#144));
#106=EDGE_LOOP('',(#145,#146,#147,#148));
#107=EDGE_LOOP('',(#149,#150,#151,#152));
#108=EDGE_LOOP('',(#153,#154,#155,#156));
#109=EDGE_LOOP('',(#157,#158,#159,#160));
#110=EDGE_LOOP('',(#161,#162,#163,#164));
#111=EDGE_LOOP('',(#165,#166,#167,#168));
#112=EDGE_LOOP('',(#169,#170,#171,#172));
#113=EDGE_LOOP('',(#173,#174,#175,#176));
#114=EDGE_LOOP('',(#177,#178,#179,#180));
#115=EDGE_LOOP('',(#181,#182,#183,#184));
#116=EDGE_LOOP('',(#185,#186,#187,#188));
#117=EDGE_LOOP('',(#189,#190,#191,#192));
#118=EDGE_LOOP('',(#193,#194,#195,#196));
#119=EDGE_LOOP('',(#197,#198,#199,#200,#201,#202,#203,#204,#205,#206,#207,#208
,#209,#210,#211,#212,#213,#214,#215));
#120=EDGE_LOOP('',(#216,#217,#218,#219,#220,#221,#222,#223,#224,#225,#226,#227
,#228,#229,#230,#231,#232,#233,#234));
#121=ORIENTED_EDGE('',*,*,#318,.F.);
#122=ORIENTED_EDGE('',*,*,#280,.F.);
#123=ORIENTED_EDGE('',*,*,#299,.T.);
#124=ORIENTED_EDGE('',*,*,#262,.T.);
#125=ORIENTED_EDGE('',*,*,#317,.F.);
#126=ORIENTED_EDGE('',*,*,#262,.F.);
#127=ORIENTED_EDGE('',*,*,#298,.T.);
#128=ORIENTED_EDGE('',*,*,#263,.T.);
#129=ORIENTED_EDGE('',*,*,#316,.F.);
#130=ORIENTED_EDGE('',*,*,#263,.F.);
#131=ORIENTED_EDGE('',*,*,#297,.T.);
#132=ORIENTED_EDGE('',*,*,#264,.T.);
#133=ORIENTED_EDGE('',*,*,#315,.F.);
#134=ORIENTED_EDGE('',*,*,#264,.F.);
#135=ORIENTED_EDGE('',*,*,#296,.T.);
#136=ORIENTED_EDGE('',*,*,#265,.T.);
#137=ORIENTED_EDGE('',*,*,#314,.F.);
#138=ORIENTED_EDGE('',*,*,#265,.F.);
#139=ORIENTED_EDGE('',*,*,#295,.T.);
#140=ORIENTED_EDGE('',*,*,#266,.T.);
#141=ORIENTED_EDGE('',*,*,#313,.F.);
#142=ORIENTED_EDGE('',*,*,#266,.F.);
#143=ORIENTED_EDGE('',*,*,#294,.T.);
#144=ORIENTED_EDGE('',*,*,#267,.T.);
#145=ORIENTED_EDGE('',*,*,#312,.F.);
#146=ORIENTED_EDGE('',*,*,#267,.F.);
#147=ORIENTED_EDGE('',*,*,#293,.T.);
#148=ORIENTED_EDGE('',*,*,#268,.T.);
#149=ORIENTED_EDGE('',*,*,#311,.F.);
#150=ORIENTED_EDGE('',*,*,#268,.F.);
#151=ORIENTED_EDGE('',*,*,#292,.T.);
#152=ORIENTED_EDGE('',*,*,#269,.T.);
#153=ORIENTED_EDGE('',*,*,#310,.F.);
#154=ORIENTED_EDGE('',*,*,#269,.F.);
#155=ORIENTED_EDGE('',*,*,#291,.T.);
#156=ORIENTED_EDGE('',*,*,#270,.T.);
#157=ORIENTED_EDGE('',*,*,#309,.F.);
#158=ORIENTED_EDGE('',*,*,#270,.F.);
#159=ORIENTED_EDGE('',*,*,#290,.T.);
#160=ORIENTED_EDGE('',*,*,#271,.T.);
#161=ORIENTED_EDGE('',*,*,#308,.F.);
#162=ORIENTED_EDGE('',*,*,#271,.F.);
#163=ORIENTED_EDGE('',*,*,#289,.T.);
#164=ORIENTED_EDGE('',*,*,#272,.T.);
#165=ORIENTED_EDGE('',*,*,#307,.F.);
#166=ORIENTED_EDGE('',*,*,#272,.F.);
#167=ORIENTED_EDGE('',*,*,#288,.T.);
#168=ORIENTED_EDGE('',*,*,#273,.T.);
#169=ORIENTED_EDGE('',*,*,#306,.F.);
#170=ORIENTED_EDGE('',*,*,#273,.F.);
#171=ORIENTED_EDGE('',*,*,#287,.T.);
#172=ORIENTED_EDGE('',*,*,#274,.T.);
#173=ORIENTED_EDGE('',*,*,#305,.F.);
#174=ORIENTED_EDGE('',*,*,#274,.F.);
#175=ORIENTED_EDGE('',*,*,#286,.T.);
#176=ORIENTED_EDGE('',*,*,#275,.T.);
#177=ORIENTED_EDGE('',*,*,#304,.F.);
#178=ORIENTED_EDGE('',*,*,#275,.F.);
#179=ORIENTED_EDGE('',*,*,#285,.T.);
#180=ORIENTED_EDGE('',*,*,#276,.T.);
#181=ORIENTED_EDGE('',*,*,#303,.F.);
#182=ORIENTED_EDGE('',*,*,#276,.F.);
#183=ORIENTED_EDGE('',*,*,#284,.T.);
#184=ORIENTED_EDGE('',*,*,#277,.T.);
#185=ORIENTED_EDGE('',*,*,#302,.F.);
#186=ORIENTED_EDGE('',*,*,#277,.F.);
#187=ORIENTED_EDGE('',*,*,#283,.T.);
#188=ORIENTED_EDGE('',*,*,#278,.T.);
#189=ORIENTED_EDGE('',*,*,#301,.F.);
#190=ORIENTED_EDGE('',*,*,#278,.F.);
#191=ORIENTED_EDGE('',*,*,#282,.T.);
#192=ORIENTED_EDGE('',*,*,#279,.T.);
#193=ORIENTED_EDGE('',*,*,#300,.F.);
#194=ORIENTED_EDGE('',*,*,#279,.F.);
#195=ORIENTED_EDGE('',*,*,#281,.T.);
#196=ORIENTED_EDGE('',*,*,#280,.T.);
#197=ORIENTED_EDGE('',*,*,#299,.F.);
#198=ORIENTED_EDGE('',*,*,#281,.F.);
#199=ORIENTED_EDGE('',*,*,#282,.F.);
#200=ORIENTED_EDGE('',*,*,#283,.F.);
#201=ORIENTED_EDGE('',*,*,#284,.F.);
#202=ORIENTED_EDGE('',*,*,#285,.F.);
#203=ORIENTED_EDGE('',*,*,#286,.F.);
#204=ORIENTED_EDGE('',*,*,#287,.F.);
#205=ORIENTED_EDGE('',*,*,#288,.F.);
#206=ORIENTED_EDGE('',*,*,#289,.F.);
#207=ORIENTED_EDGE('',*,*,#290,.F.);
#208=ORIENTED_EDGE('',*,*,#291,.F.);
#209=ORIENTED_EDGE('',*,*,#292,.F.);
#210=ORIENTED_EDGE('',*,*,#293,.F.);
#211=ORIENTED_EDGE('',*,*,#294,.F.);
#212=ORIENTED_EDGE('',*,*,#295,.F.);
#213=ORIENTED_EDGE('',*,*,#296,.F.);
#214=ORIENTED_EDGE('',*,*,#297,.F.);
#215=ORIENTED_EDGE('',*,*,#298,.F.);
#216=ORIENTED_EDGE('',*,*,#318,.T.);
#217=ORIENTED_EDGE('',*,*,#317,.T.);
#218=ORIENTED_EDGE('',*,*,#316,.T.);
#219=ORIENTED_EDGE('',*,*,#315,.T.);
#220=ORIENTED_EDGE('',*,*,#314,.T.);
#221=ORIENTED_EDGE('',*,*,#313,.T.);
#222=ORIENTED_EDGE('',*,*,#312,.T.);
#223=ORIENTED_EDGE('',*,*,#311,.T.);
#224=ORIENTED_EDGE('',*,*,#310,.T.);
#225=ORIENTED_EDGE('',*,*,#309,.T.);
#226=ORIENTED_EDGE('',*,*,#308,.T.);
#227=ORIENTED_EDGE('',*,*,#307,.T.);
#228=ORIENTED_EDGE('',*,*,#306,.T.);
#229=ORIENTED_EDGE('',*,*,#305,.T.);
#230=ORIENTED_EDGE('',*,*,#304,.T.);
#231=ORIENTED_EDGE('',*,*,#303,.T.);
#232=ORIENTED_EDGE('',*,*,#302,.T.);
#233=ORIENTED_EDGE('',*,*,#301,.T.);
#234=ORIENTED_EDGE('',*,*,#300,.T.);
#235=PLANE('',#462);
#236=PLANE('',#463);
#237=PLANE('',#466);
#238=PLANE('',#467);
#239=PLANE('',#468);
#240=PLANE('',#469);
#241=PLANE('',#474);
#242=PLANE('',#475);
#243=PLANE('',#476);
#244=PLANE('',#477);
#245=PLANE('',#478);
#246=PLANE('',#479);
#247=PLANE('',#480);
#248=PLANE('',#481);
#249=PLANE('',#482);
#250=CIRCLE('',#450,37.0000000000052);
#251=CIRCLE('',#451,41.7400380614827);
#252=CIRCLE('',#452,73.9999999007604);
#253=CIRCLE('',#453,156.019135534087);
#254=CIRCLE('',#454,144.755883161133);
#255=CIRCLE('',#455,64.8179951354579);
#256=CIRCLE('',#456,37.0000000000052);
#257=CIRCLE('',#457,41.7400380614827);
#258=CIRCLE('',#458,73.9999999007604);
#259=CIRCLE('',#459,156.019135534087);
#260=CIRCLE('',#460,144.755883161133);
#261=CIRCLE('',#461,64.8179951354579);
#262=EDGE_CURVE('',#427,#446,#319,.T.);
#263=EDGE_CURVE('',#426,#445,#320,.T.);
#264=EDGE_CURVE('',#425,#444,#321,.T.);
#265=EDGE_CURVE('',#424,#443,#322,.T.);
#266=EDGE_CURVE('',#423,#442,#323,.T.);
#267=EDGE_CURVE('',#422,#441,#324,.T.);
#268=EDGE_CURVE('',#421,#440,#325,.T.);
#269=EDGE_CURVE('',#420,#439,#326,.T.);
#270=EDGE_CURVE('',#419,#438,#327,.T.);
#271=EDGE_CURVE('',#418,#437,#328,.T.);
#272=EDGE_CURVE('',#417,#436,#329,.T.);
#273=EDGE_CURVE('',#416,#435,#330,.T.);
#274=EDGE_CURVE('',#415,#434,#331,.T.);
#275=EDGE_CURVE('',#414,#433,#332,.T.);
#276=EDGE_CURVE('',#413,#432,#333,.T.);
#277=EDGE_CURVE('',#412,#431,#334,.T.);
#278=EDGE_CURVE('',#411,#430,#335,.T.);
#279=EDGE_CURVE('',#410,#429,#336,.T.);
#280=EDGE_CURVE('',#409,#428,#337,.T.);
#281=EDGE_CURVE('',#410,#409,#338,.T.);
#282=EDGE_CURVE('',#411,#410,#339,.T.);
#283=EDGE_CURVE('',#412,#411,#340,.T.);
#284=EDGE_CURVE('',#413,#412,#341,.T.);
#285=EDGE_CURVE('',#414,#413,#342,.T.);
#286=EDGE_CURVE('',#415,#414,#343,.T.);
#287=EDGE_CURVE('',#416,#415,#344,.T.);
#288=EDGE_CURVE('',#417,#416,#250,.T.);
#289=EDGE_CURVE('',#418,#417,#251,.T.);
#290=EDGE_CURVE('',#419,#418,#252,.T.);
#291=EDGE_CURVE('',#420,#419,#253,.T.);
#292=EDGE_CURVE('',#421,#420,#345,.T.);
#293=EDGE_CURVE('',#422,#421,#346,.T.);
#294=EDGE_CURVE('',#423,#422,#347,.T.);
#295=EDGE_CURVE('',#424,#423,#348,.T.);
#296=EDGE_CURVE('',#425,#424,#254,.T.);
#297=EDGE_CURVE('',#426,#425,#255,.T.);
#298=EDGE_CURVE('',#427,#426,#349,.T.);
#299=EDGE_CURVE('',#409,#427,#350,.T.);
#300=EDGE_CURVE('',#429,#428,#351,.T.);
#301=EDGE_CURVE('',#430,#429,#352,.T.);
#302=EDGE_CURVE('',#431,#430,#353,.T.);
#303=EDGE_CURVE('',#432,#431,#354,.T.);
#304=EDGE_CURVE('',#433,#432,#355,.T.);
#305=EDGE_CURVE('',#434,#433,#356,.T.);
#306=EDGE_CURVE('',#435,#434,#357,.T.);
#307=EDGE_CURVE('',#436,#435,#256,.T.);
#308=EDGE_CURVE('',#437,#436,#257,.T.);
#309=EDGE_CURVE('',#438,#437,#258,.T.);
#310=EDGE_CURVE('',#439,#438,#259,.T.);
#311=EDGE_CURVE('',#440,#439,#358,.T.);
#312=EDGE_CURVE('',#441,#440,#359,.T.);
#313=EDGE_CURVE('',#442,#441,#360,.T.);
#314=EDGE_CURVE('',#443,#442,#361,.T.);
#315=EDGE_CURVE('',#444,#443,#260,.T.);
#316=EDGE_CURVE('',#445,#444,#261,.T.);
#317=EDGE_CURVE('',#446,#445,#362,.T.);
#318=EDGE_CURVE('',#428,#446,#363,.T.);
#319=LINE('',#635,#364);
#320=LINE('',#636,#365);
#321=LINE('',#637,#366);
#322=LINE('',#638,#367);
#323=LINE('',#639,#368);
#324=LINE('',#640,#369);
#325=LINE('',#641,#370);
#326=LINE('',#642,#371);
#327=LINE('',#643,#372);
#328=LINE('',#644,#373);
#329=LINE('',#645,#374);
#330=LINE('',#646,#375);
#331=LINE('',#647,#376);
#332=LINE('',#648,#377);
#333=LINE('',#649,#378);
#334=LINE('',#650,#379);
#335=LINE('',#651,#380);
#336=LINE('',#652,#381);
#337=LINE('',#653,#382);
#338=LINE('',#654,#383);
#339=LINE('',#655,#384);
#340=LINE('',#656,#385);
#341=LINE('',#657,#386);
#342=LINE('',#658,#387);
#343=LINE('',#659,#388);
#344=LINE('',#660,#389);
#345=LINE('',#665,#390);
#346=LINE('',#666,#391);
#347=LINE('',#667,#392);
#348=LINE('',#668,#393);
#349=LINE('',#671,#394);
#350=LINE('',#672,#395);
#351=LINE('',#673,#396);
#352=LINE('',#674,#397);
#353=LINE('',#675,#398);
#354=LINE('',#676,#399);
#355=LINE('',#677,#400);
#356=LINE('',#678,#401);
#357=LINE('',#679,#402);
#358=LINE('',#684,#403);
#359=LINE('',#685,#404);
#360=LINE('',#686,#405);
#361=LINE('',#687,#406);
#362=LINE('',#690,#407);
#363=LINE('',#691,#408);
#364=VECTOR('',#485,1.);
#365=VECTOR('',#486,1.);
#366=VECTOR('',#487,1.);
#367=VECTOR('',#488,1.);
#368=VECTOR('',#489,1.);
#369=VECTOR('',#490,1.);
#370=VECTOR('',#491,1.);
#371=VECTOR('',#492,1.);
#372=VECTOR('',#493,1.);
#373=VECTOR('',#494,1.);
#374=VECTOR('',#495,1.);
#375=VECTOR('',#496,1.);
#376=VECTOR('',#497,1.);
#377=VECTOR('',#498,1.);
#378=VECTOR('',#499,1.);
#379=VECTOR('',#500,1.);
#380=VECTOR('',#501,1.);
#381=VECTOR('',#502,1.);
#382=VECTOR('',#503,1.);
#383=VECTOR('',#504,1.);
#384=VECTOR('',#505,1.);
#385=VECTOR('',#506,1.);
#386=VECTOR('',#507,1.);
#387=VECTOR('',#508,1.);
#388=VECTOR('',#509,1.);
#389=VECTOR('',#510,1.);
#390=VECTOR('',#519,1.);
#391=VECTOR('',#520,1.);
#392=VECTOR('',#521,1.);
#393=VECTOR('',#522,1.);
#394=VECTOR('',#527,1.);
#395=VECTOR('',#528,1.);
#396=VECTOR('',#529,1.);
#397=VECTOR('',#530,1.);
#398=VECTOR('',#531,1.);
#399=VECTOR('',#532,1.);
#400=VECTOR('',#533,1.);
#401=VECTOR('',#534,1.);
#402=VECTOR('',#535,1.);
#403=VECTOR('',#544,1.);
#404=VECTOR('',#545,1.);
#405=VECTOR('',#546,1.);
#406=VECTOR('',#547,1.);
#407=VECTOR('',#552,1.);
#408=VECTOR('',#553,1.);
#409=VERTEX_POINT('',#597);
#410=VERTEX_POINT('',#598);
#411=VERTEX_POINT('',#599);
#412=VERTEX_POINT('',#600);
#413=VERTEX_POINT('',#601);
#414=VERTEX_POINT('',#602);
#415=VERTEX_POINT('',#603);
#416=VERTEX_POINT('',#604);
#417=VERTEX_POINT('',#605);
#418=VERTEX_POINT('',#606);
#419=VERTEX_POINT('',#607);
#420=VERTEX_POINT('',#608);
#421=VERTEX_POINT('',#609);
#422=VERTEX_POINT('',#610);
#423=VERTEX_POINT('',#611);
#424=VERTEX_POINT('',#612);
#425=VERTEX_POINT('',#613);
#426=VERTEX_POINT('',#614);
#427=VERTEX_POINT('',#615);
#428=VERTEX_POINT('',#616);
#429=VERTEX_POINT('',#617);
#430=VERTEX_POINT('',#618);
#431=VERTEX_POINT('',#619);
#432=VERTEX_POINT('',#620);
#433=VERTEX_POINT('',#621);
#434=VERTEX_POINT('',#622);
#435=VERTEX_POINT('',#623);
#436=VERTEX_POINT('',#624);
#437=VERTEX_POINT('',#625);
#438=VERTEX_POINT('',#626);
#439=VERTEX_POINT('',#627);
#440=VERTEX_POINT('',#628);
#441=VERTEX_POINT('',#629);
#442=VERTEX_POINT('',#630);
#443=VERTEX_POINT('',#631);
#444=VERTEX_POINT('',#632);
#445=VERTEX_POINT('',#633);
#446=VERTEX_POINT('',#634);
#447=SHAPE_DEFINITION_REPRESENTATION(#713,#448);
#448=SHAPE_REPRESENTATION('master',(#449),#715);
#449=AXIS2_PLACEMENT_3D('',#596,#484,#483);
#450=AXIS2_PLACEMENT_3D('',#661,#512,#511);
#451=AXIS2_PLACEMENT_3D('',#662,#514,#513);
#452=AXIS2_PLACEMENT_3D('',#663,#516,#515);
#453=AXIS2_PLACEMENT_3D('',#664,#518,#517);
#454=AXIS2_PLACEMENT_3D('',#669,#524,#523);
#455=AXIS2_PLACEMENT_3D('',#670,#526,#525);
#456=AXIS2_PLACEMENT_3D('',#680,#537,#536);
#457=AXIS2_PLACEMENT_3D('',#681,#539,#538);
#458=AXIS2_PLACEMENT_3D('',#682,#541,#540);
#459=AXIS2_PLACEMENT_3D('',#683,#543,#542);
#460=AXIS2_PLACEMENT_3D('',#688,#549,#548);
#461=AXIS2_PLACEMENT_3D('',#689,#551,#550);
#462=AXIS2_PLACEMENT_3D('',#692,#555,#554);
#463=AXIS2_PLACEMENT_3D('',#693,#557,#556);
#464=AXIS2_PLACEMENT_3D('',#694,#559,#558);
#465=AXIS2_PLACEMENT_3D('',#695,#561,#560);
#466=AXIS2_PLACEMENT_3D('',#696,#563,#562);
#467=AXIS2_PLACEMENT_3D('',#697,#565,#564);
#468=AXIS2_PLACEMENT_3D('',#698,#567,#566);
#469=AXIS2_PLACEMENT_3D('',#699,#569,#568);
#470=AXIS2_PLACEMENT_3D('',#700,#571,#570);
#471=AXIS2_PLACEMENT_3D('',#701,#573,#572);
#472=AXIS2_PLACEMENT_3D('',#702,#575,#574);
#473=AXIS2_PLACEMENT_3D('',#703,#577,#576);
#474=AXIS2_PLACEMENT_3D('',#704,#579,#578);
#475=AXIS2_PLACEMENT_3D('',#705,#581,#580);
#476=AXIS2_PLACEMENT_3D('',#706,#583,#582);
#477=AXIS2_PLACEMENT_3D('',#707,#585,#584);
#478=AXIS2_PLACEMENT_3D('',#708,#587,#586);
#479=AXIS2_PLACEMENT_3D('',#709,#589,#588);
#480=AXIS2_PLACEMENT_3D('',#710,#591,#590);
#481=AXIS2_PLACEMENT_3D('',#711,#593,#592);
#482=AXIS2_PLACEMENT_3D('',#712,#595,#594);
#483=DIRECTION('',(1.,0.,0.));
#484=DIRECTION('',(0.,0.,1.));
#485=DIRECTION('',(-9.89350433393898E-019,-1.,-2.75811150135984E-017));
#486=DIRECTION('',(-9.89350433393898E-019,-1.,-2.75811150135984E-017));
#487=DIRECTION('',(-9.89350433393898E-019,-1.,-2.75811150135984E-017));
#488=DIRECTION('',(-9.89350433393898E-019,-1.,-2.75811150135984E-017));
#489=DIRECTION('',(-9.89350433393898E-019,-1.,-2.75811150135984E-017));
#490=DIRECTION('',(-9.89350433393898E-019,-1.,-2.75811150135984E-017));
#491=DIRECTION('',(-9.89350433393898E-019,-1.,-2.75811150135984E-017));
#492=DIRECTION('',(-9.89350433393898E-019,-1.,-2.75811150135984E-017));
#493=DIRECTION('',(-9.89350433393898E-019,-1.,-2.75811150135984E-017));
#494=DIRECTION('',(-9.89350433393898E-019,-1.,-2.75811150135984E-017));
#495=DIRECTION('',(-9.89350433393898E-019,-1.,-2.75811150135984E-017));
#496=DIRECTION('',(-9.89350433393898E-019,-1.,-2.75811150135984E-017));
#497=DIRECTION('',(-9.89350433393898E-019,-1.,-2.75811150135984E-017));
#498=DIRECTION('',(-9.89350433393898E-019,-1.,-2.75811150135984E-017));
#499=DIRECTION('',(-9.89350433393898E-019,-1.,-2.75811150135984E-017));
#500=DIRECTION('',(-9.89350433393898E-019,-1.,-2.75811150135984E-017));
#501=DIRECTION('',(-9.89350433393898E-019,-1.,-2.75811150135984E-017));
#502=DIRECTION('',(-9.89350433393898E-019,-1.,-2.75811150135984E-017));
#503=DIRECTION('',(-9.89350433393898E-019,-1.,-2.75811150135984E-017));
#504=DIRECTION('',(0.,0.,1.));
#505=DIRECTION('',(1.,0.,0.));
#506=DIRECTION('',(0.941721948161871,0.,0.336392289373895));
#507=DIRECTION('',(1.,0.,0.));
#508=DIRECTION('',(0.,0.,-1.));
#509=DIRECTION('',(-0.99649848386709,0.,-0.0836108345287339));
#510=DIRECTION('',(0.00436205504505575,-3.4580264053203E-016,
-0.999990486192636));
#511=DIRECTION('',(0.905096480815689,2.67559703405071E-016,0.425206256321629)
);
#512=DIRECTION('',(-2.66848158715988E-016,1.,-6.1232339957364E-017));
#513=DIRECTION('',(0.670621922005474,2.24376333495426E-016,0.741799324430593)
);
#514=DIRECTION('',(-2.66848158716001E-016,1.,-6.12323399573672E-017));
#515=DIRECTION('',(0.462301468116292,1.77660408461409E-016,0.886722816091658)
);
#516=DIRECTION('',(-2.66848158715996E-016,1.,-6.12323399573631E-017));
#517=DIRECTION('',(0.0247926885388304,7.59821172459841E-017,0.999692614054449)
);
#518=DIRECTION('',(-1.89550360834201E-017,1.,-7.55353894572365E-017));
#519=DIRECTION('',(0.999692614054448,2.31309651991997E-019,-0.0247926885388308
));
#520=DIRECTION('',(0.,0.,-1.));
#521=DIRECTION('',(-0.999999999992083,0.,3.97919166816673E-006));
#522=DIRECTION('',(-1.13253534855968E-014,9.43025115129622E-031,1.));
#523=DIRECTION('',(0.511558514530953,1.81399549239754E-017,0.859248442658399)
);
#524=DIRECTION('',(6.5071128805231E-018,-1.,1.72373730222961E-017));
#525=DIRECTION('',(0.981584862346616,-6.05028948026851E-018,0.191026589803554)
);
#526=DIRECTION('',(-5.38325405671951E-018,-1.,-4.01079655358204E-018));
#527=DIRECTION('',(-0.199081851570169,0.,0.979982865347856));
#528=DIRECTION('',(-1.,0.,0.));
#529=DIRECTION('',(0.,0.,1.));
#530=DIRECTION('',(1.,0.,0.));
#531=DIRECTION('',(0.941721948161871,0.,0.336392289373895));
#532=DIRECTION('',(1.,0.,0.));
#533=DIRECTION('',(0.,0.,-1.));
#534=DIRECTION('',(-0.99649848386709,0.,-0.0836108345287339));
#535=DIRECTION('',(0.00436205504505575,-3.4580264053203E-016,
-0.999990486192636));
#536=DIRECTION('',(0.905096480815689,2.67559703405071E-016,0.425206256321629)
);
#537=DIRECTION('',(-2.66848158715988E-016,1.,-6.1232339957364E-017));
#538=DIRECTION('',(0.670621922005474,2.24376333495426E-016,0.741799324430593)
);
#539=DIRECTION('',(-2.66848158716001E-016,1.,-6.12323399573672E-017));
#540=DIRECTION('',(0.462301468116292,1.77660408461409E-016,0.886722816091658)
);
#541=DIRECTION('',(-2.66848158715996E-016,1.,-6.12323399573631E-017));
#542=DIRECTION('',(0.0247926885388304,7.59821172459841E-017,0.999692614054449)
);
#543=DIRECTION('',(-1.89550360834201E-017,1.,-7.55353894572365E-017));
#544=DIRECTION('',(0.999692614054448,2.31309651991997E-019,-0.0247926885388308
));
#545=DIRECTION('',(0.,0.,-1.));
#546=DIRECTION('',(-0.999999999992083,0.,3.97919166816673E-006));
#547=DIRECTION('',(-1.13253534855968E-014,9.43025115129622E-031,1.));
#548=DIRECTION('',(0.511558514530953,1.81399549239754E-017,0.859248442658399)
);
#549=DIRECTION('',(6.5071128805231E-018,-1.,1.72373730222961E-017));
#550=DIRECTION('',(0.981584862346616,-6.05028948026851E-018,0.191026589803554)
);
#551=DIRECTION('',(-5.38325405671951E-018,-1.,-4.01079655358204E-018));
#552=DIRECTION('',(-0.199081851570169,0.,0.979982865347856));
#553=DIRECTION('',(-1.,0.,0.));
#554=DIRECTION('',(0.,-1.,-2.75811150135984E-017));
#555=DIRECTION('',(0.,-2.75811150135984E-017,1.));
#556=DIRECTION('',(0.199081851570169,1.92592994438724E-034,-0.979982865347856)
);
#557=DIRECTION('',(0.979982865347856,-6.46044591782744E-018,0.199081851570169)
);
#558=DIRECTION('',(0.,2.75811150135984E-017,-1.));
#559=DIRECTION('',(-9.89350433393898E-019,-1.,-2.75811150135984E-017));
#560=DIRECTION('',(0.,2.75811150135984E-017,-1.));
#561=DIRECTION('',(-9.89350433393898E-019,-1.,-2.75811150135984E-017));
#562=DIRECTION('',(1.13253534855968E-014,0.,-1.));
#563=DIRECTION('',(1.,-9.8935043339421E-019,1.13253534855968E-014));
#564=DIRECTION('',(0.999999999992083,0.,-3.97919166816673E-006));
#565=DIRECTION('',(3.97919166816673E-006,-2.7581118950195E-017,
0.999999999992083));
#566=DIRECTION('',(-9.89350433393898E-019,-1.,0.));
#567=DIRECTION('',(-1.,9.89350433393898E-019,0.));
#568=DIRECTION('',(-0.999692614054449,0.,0.0247926885388308));
#569=DIRECTION('',(-0.0247926885388308,2.75971656236314E-017,
-0.999692614054449));
#570=DIRECTION('',(0.,2.75811150135984E-017,-1.));
#571=DIRECTION('',(-9.89350433393898E-019,-1.,-2.75811150135984E-017));
#572=DIRECTION('',(0.,2.75811150135984E-017,-1.));
#573=DIRECTION('',(-9.89350433393898E-019,-1.,-2.75811150135984E-017));
#574=DIRECTION('',(0.,2.75811150135984E-017,-1.));
#575=DIRECTION('',(-9.89350433393898E-019,-1.,-2.75811150135984E-017));
#576=DIRECTION('',(0.,2.75811150135984E-017,-1.));
#577=DIRECTION('',(-9.89350433393898E-019,-1.,-2.75811150135984E-017));
#578=DIRECTION('',(-0.00436205504505575,7.52316384526264E-037,
0.999990486192636));
#579=DIRECTION('',(-0.999990486192636,1.10965136279779E-018,
-0.00436205504505575));
#580=DIRECTION('',(0.99649848386709,0.,0.0836108345287339));
#581=DIRECTION('',(-0.0836108345287339,-2.74018188790372E-017,0.99649848386709
));
#582=DIRECTION('',(-9.89350433393898E-019,-1.,0.));
#583=DIRECTION('',(-1.,9.89350433393898E-019,0.));
#584=DIRECTION('',(0.,1.,2.75811150135984E-017));
#585=DIRECTION('',(0.,2.75811150135984E-017,-1.));
#586=DIRECTION('',(-0.941721948161871,0.,-0.336392289373895));
#587=DIRECTION('',(0.336392289373895,2.56409315058E-017,-0.941721948161871));
#588=DIRECTION('',(0.,1.,2.75811150135984E-017));
#589=DIRECTION('',(0.,2.75811150135984E-017,-1.));
#590=DIRECTION('',(9.89350433393898E-019,1.,0.));
#591=DIRECTION('',(1.,-9.89350433393898E-019,0.));
#592=DIRECTION('',(1.,-5.38325405671951E-018,0.));
#593=DIRECTION('',(-5.38325405671951E-018,-1.,-4.01079655358204E-018));
#594=DIRECTION('',(1.,-5.38325405671951E-018,0.));
#595=DIRECTION('',(-5.38325405671951E-018,-1.,-4.01079655358204E-018));
#596=CARTESIAN_POINT('',(0.,0.,0.));
#597=CARTESIAN_POINT('',(353.07876132915,2000.,2103.38480873215));
#598=CARTESIAN_POINT('',(353.07876132915,2000.,2093.38480873215));
#599=CARTESIAN_POINT('',(316.07876132963,2000.,2093.38480873215));
#600=CARTESIAN_POINT('',(309.08007275946,2000.,2090.8848087318));
#601=CARTESIAN_POINT('',(253.080454,2000.,2090.8848087318));
#602=CARTESIAN_POINT('',(253.080454,2000.,2110.8848087318));
#603=CARTESIAN_POINT('',(290.580454,2000.,2114.03123227944));
#604=CARTESIAN_POINT('',(290.50544621047,2000.,2131.22658519111));
#605=CARTESIAN_POINT('',(287.116308195384,2000.,2143.95344438999));
#606=CARTESIAN_POINT('',(276.97340410968,2000.,2157.94631195719));
#607=CARTESIAN_POINT('',(259.095176962341,2000.,2171.00160443865));
#608=CARTESIAN_POINT('',(191.678749086561,2000.,2188.19064357021));
#609=CARTESIAN_POINT('',(103.080454,2000.,2190.38790891385));
#610=CARTESIAN_POINT('',(103.080454,2000.,2203.38660479715));
#611=CARTESIAN_POINT('',(223.080454,2000.,2203.38612729415));
#612=CARTESIAN_POINT('',(223.080454,2000.,2198.3669975219));
#613=CARTESIAN_POINT('',(270.515010306545,2000.,2180.4604399551));
#614=CARTESIAN_POINT('',(304.072613093638,2000.,2135.41973571492));
#615=CARTESIAN_POINT('',(310.580454,2000.,2103.38480873215));
#616=CARTESIAN_POINT('',(353.07876132915,0.,2103.38480873215));
#617=CARTESIAN_POINT('',(353.07876132915,0.,2093.38480873215));
#618=CARTESIAN_POINT('',(316.07876132963,0.,2093.38480873215));
#619=CARTESIAN_POINT('',(309.08007275946,0.,2090.8848087318));
#620=CARTESIAN_POINT('',(253.080454,0.,2090.8848087318));
#621=CARTESIAN_POINT('',(253.080454,0.,2110.8848087318));
#622=CARTESIAN_POINT('',(290.580454,-7.70371977754894E-031,2114.03123227944));
#623=CARTESIAN_POINT('',(290.50544621047,5.9462550132613E-015,2131.22658519111
));
#624=CARTESIAN_POINT('',(287.116308195384,5.82116514335642E-015,
2143.95344438999));
#625=CARTESIAN_POINT('',(276.97340410968,3.97136588790661E-015,
2157.94631195719));
#626=CARTESIAN_POINT('',(259.095176962341,-5.0844550531823E-029,
2171.00160443865));
#627=CARTESIAN_POINT('',(191.678749086561,2.04999421976729E-017,
2188.19064357021));
#628=CARTESIAN_POINT('',(103.080454,0.,2190.38790891385));
#629=CARTESIAN_POINT('',(103.080454,0.,2203.38660479715));
#630=CARTESIAN_POINT('',(223.080454,0.,2203.38612729415));
#631=CARTESIAN_POINT('',(223.080454,-1.57926255439753E-029,2198.3669975219));
#632=CARTESIAN_POINT('',(270.515010306545,-1.80074449800207E-029,
2180.4604399551));
#633=CARTESIAN_POINT('',(304.072613093638,0.,2135.41973571492));
#634=CARTESIAN_POINT('',(310.580454,0.,2103.38480873215));
#635=CARTESIAN_POINT('',(310.580454,2000.,2103.38480873215));
#636=CARTESIAN_POINT('',(304.072613093638,2000.,2135.41973571492));
#637=CARTESIAN_POINT('',(270.515010306545,2000.,2180.4604399551));
#638=CARTESIAN_POINT('',(223.080454,2000.,2198.3669975219));
#639=CARTESIAN_POINT('',(223.080454,2000.,2203.38612729415));
#640=CARTESIAN_POINT('',(103.080454,2000.,2203.38660479715));
#641=CARTESIAN_POINT('',(103.080454,2000.,2190.38790891385));
#642=CARTESIAN_POINT('',(191.678749086561,2000.,2188.19064357021));
#643=CARTESIAN_POINT('',(259.095176962341,2000.,2171.00160443865));
#644=CARTESIAN_POINT('',(276.97340410968,2000.,2157.94631195719));
#645=CARTESIAN_POINT('',(287.116308195384,2000.,2143.95344438999));
#646=CARTESIAN_POINT('',(290.50544621047,2000.,2131.22658519111));
#647=CARTESIAN_POINT('',(290.580454,2000.,2114.03123227944));
#648=CARTESIAN_POINT('',(253.080454,2000.,2110.8848087318));
#649=CARTESIAN_POINT('',(253.080454,2000.,2090.8848087318));
#650=CARTESIAN_POINT('',(309.08007275946,2000.,2090.8848087318));
#651=CARTESIAN_POINT('',(316.07876132963,2000.,2093.38480873215));
#652=CARTESIAN_POINT('',(353.07876132915,2000.,2093.38480873215));
#653=CARTESIAN_POINT('',(353.07876132915,2000.,2103.38480873215));
#654=CARTESIAN_POINT('',(353.07876132915,2000.,2093.38480873215));
#655=CARTESIAN_POINT('',(316.07876132963,2000.,2093.38480873215));
#656=CARTESIAN_POINT('',(309.08007275946,2000.,2090.8848087318));
#657=CARTESIAN_POINT('',(253.080454,2000.,2090.8848087318));
#658=CARTESIAN_POINT('',(253.080454,2000.,2110.8848087318));
#659=CARTESIAN_POINT('',(290.580454,2000.,2114.03123227944));
#660=CARTESIAN_POINT('',(290.505446210471,2000.,2131.22658519111));
#661=CARTESIAN_POINT('',(253.627738405199,2000.,2128.22081290609));
#662=CARTESIAN_POINT('',(248.981619560307,2000.,2126.98357992148));
#663=CARTESIAN_POINT('',(224.884868367614,2000.,2105.38411613586));
#664=CARTESIAN_POINT('',(187.810615253167,2000.,2032.21946612563));
#665=CARTESIAN_POINT('',(103.080454,2000.,2190.38790891385));
#666=CARTESIAN_POINT('',(103.080454,2000.,2203.38660479715));
#667=CARTESIAN_POINT('',(223.080454,2000.,2203.38612729415));
#668=CARTESIAN_POINT('',(223.080454,2000.,2198.3669975219));
#669=CARTESIAN_POINT('',(196.463905747019,2000.,2056.07917278325));
#670=CARTESIAN_POINT('',(240.448250261016,2000.,2123.03777514629));
#671=CARTESIAN_POINT('',(310.580454,2000.,2103.38480873215));
#672=CARTESIAN_POINT('',(353.07876132915,2000.,2103.38480873215));
#673=CARTESIAN_POINT('',(353.07876132915,0.,2093.38480873215));
#674=CARTESIAN_POINT('',(316.07876132963,0.,2093.38480873215));
#675=CARTESIAN_POINT('',(309.08007275946,0.,2090.8848087318));
#676=CARTESIAN_POINT('',(253.080454,0.,2090.8848087318));
#677=CARTESIAN_POINT('',(253.080454,0.,2110.8848087318));
#678=CARTESIAN_POINT('',(290.580454,0.,2114.03123227944));
#679=CARTESIAN_POINT('',(290.505446210471,5.94625501326127E-015,
2131.22658519111));
#680=CARTESIAN_POINT('',(253.627738405199,-4.07854388263247E-015,
2128.22081290609));
#681=CARTESIAN_POINT('',(248.981619560307,-5.3941108122884E-015,
2126.98357992148));
#682=CARTESIAN_POINT('',(224.884868367614,-1.31468702085134E-014,
2105.38411613586));
#683=CARTESIAN_POINT('',(187.810615253167,-1.18341643065704E-014,
2032.21946612563));
#684=CARTESIAN_POINT('',(103.080454,0.,2190.38790891385));
#685=CARTESIAN_POINT('',(103.080454,0.,2203.38660479715));
#686=CARTESIAN_POINT('',(223.080454,0.,2203.38612729415));
#687=CARTESIAN_POINT('',(223.080454,-4.73316543132607E-030,2198.3669975219));
#688=CARTESIAN_POINT('',(196.463905747019,-2.62586519552323E-015,
2056.07917278325));
#689=CARTESIAN_POINT('',(240.448250261016,3.92167634100153E-016,
2123.03777514629));
#690=CARTESIAN_POINT('',(310.580454,0.,2103.38480873215));
#691=CARTESIAN_POINT('',(353.07876132915,0.,2103.38480873215));
#692=CARTESIAN_POINT('',(353.07876132915,2000.,2103.38480873215));
#693=CARTESIAN_POINT('',(310.580454,2000.,2103.38480873215));
#694=CARTESIAN_POINT('',(240.448250261016,2000.,2123.03777514629));
#695=CARTESIAN_POINT('',(196.463905747019,2000.,2056.07917278325));
#696=CARTESIAN_POINT('',(223.080454,2000.,2198.3669975219));
#697=CARTESIAN_POINT('',(223.080454,2000.,2203.38612729415));
#698=CARTESIAN_POINT('',(103.080454,2000.,2203.38660479715));
#699=CARTESIAN_POINT('',(103.080454,2000.,2190.38790891385));
#700=CARTESIAN_POINT('',(187.810615253167,2000.,2032.21946612563));
#701=CARTESIAN_POINT('',(224.884868367614,2000.,2105.38411613586));
#702=CARTESIAN_POINT('',(248.981619560307,2000.,2126.98357992148));
#703=CARTESIAN_POINT('',(253.627738405199,2000.,2128.22081290609));
#704=CARTESIAN_POINT('',(290.505446210471,2000.,2131.22658519111));
#705=CARTESIAN_POINT('',(290.580454,2000.,2114.03123227944));
#706=CARTESIAN_POINT('',(253.080454,2000.,2110.8848087318));
#707=CARTESIAN_POINT('',(253.080454,2000.,2090.8848087318));
#708=CARTESIAN_POINT('',(309.08007275946,2000.,2090.8848087318));
#709=CARTESIAN_POINT('',(316.07876132963,2000.,2093.38480873215));
#710=CARTESIAN_POINT('',(353.07876132915,2000.,2093.38480873215));
#711=CARTESIAN_POINT('',(240.448250261016,2000.,2123.03777514629));
#712=CARTESIAN_POINT('',(240.448250261016,3.92167634100153E-016,
2123.03777514629));
#713=PRODUCT_DEFINITION_SHAPE('','',#714);
#714=PRODUCT_DEFINITION('','',#726,#731);
#715=(
GEOMETRIC_REPRESENTATION_CONTEXT(3)
GLOBAL_UNCERTAINTY_ASSIGNED_CONTEXT((#716))
GLOBAL_UNIT_ASSIGNED_CONTEXT((#718,#717,#721))
REPRESENTATION_CONTEXT('','')
);
#716=UNCERTAINTY_MEASURE_WITH_UNIT(LENGTH_MEASURE(0.001),#718,'','tolerance');
#717=(
CONVERSION_BASED_UNIT('',#719)
NAMED_UNIT(#725)
PLANE_ANGLE_UNIT()
);
#718=(
CONVERSION_BASED_UNIT('',#720)
LENGTH_UNIT()
NAMED_UNIT(#724)
);
#719=PLANE_ANGLE_MEASURE_WITH_UNIT(PLANE_ANGLE_MEASURE(0.0174532925199433),
#722);
#720=LENGTH_MEASURE_WITH_UNIT(LENGTH_MEASURE(1.),#723);
#721=(
NAMED_UNIT(*)
SI_UNIT($,.STERADIAN.)
SOLID_ANGLE_UNIT()
);
#722=(
NAMED_UNIT(*)
PLANE_ANGLE_UNIT()
SI_UNIT($,.RADIAN.)
);
#723=(
LENGTH_UNIT()
NAMED_UNIT(*)
SI_UNIT(.MILLI.,.METRE.)
);
#724=DIMENSIONAL_EXPONENTS(1.,0.,0.,0.,0.,0.,0.);
#725=DIMENSIONAL_EXPONENTS(0.,0.,0.,0.,0.,0.,0.);
#726=PRODUCT_DEFINITION_FORMATION_WITH_SPECIFIED_SOURCE('','',#729,.NOT_KNOWN.
);
#727=PRODUCT_CATEGORY_RELATIONSHIP('','',#732,#728);
#728=PRODUCT_RELATED_PRODUCT_CATEGORY('assembly','',(#729));
#729=PRODUCT('','master','',(#730));
#730=PRODUCT_CONTEXT('',#734,'');
#731=PRODUCT_DEFINITION_CONTEXT('',#734,'part_definition');
#732=PRODUCT_CATEGORY('part','');
#733=APPLICATION_PROTOCOL_DEFINITION('international standard',
'automotive_design_cc2',1994,#734);
#734=APPLICATION_CONTEXT(
'configuration controlled 3D designs of mechanical parts and assemblies');
ENDSEC;
END-ISO-10303-21;
34618