ISO-10303-21;
HEADER;
/* Generated by software using Delcam plc STEP library */

FILE_DESCRIPTION(
/* description */ ('AP-214 File'),
/* implementation_level */ '2;1');

FILE_NAME(
/* name */ 'D505 sans motif',
/* time_stamp */ 'Wed Dec 21 14:56:13 2016',
/* author */ (''),
/* organization */ (''),
/* preprocessor_version */ 'DELCAM STEP V1',
/* originating_system */ 'Exchange7.1.0006',
/* authorisation */ '');

FILE_SCHEMA (('AUTOMOTIVE_DESIGN'));
ENDSEC;
DATA;
#10=DRAUGHTING_PRE_DEFINED_CURVE_FONT('continuous');
#11=CURVE_STYLE('',#10,POSITIVE_LENGTH_MEASURE(0.3),#59);
#12=PRESENTATION_STYLE_ASSIGNMENT((#23));
#13=PRESENTATION_STYLE_ASSIGNMENT((#24));
#14=PRESENTATION_STYLE_ASSIGNMENT((#11));
#15=SURFACE_SIDE_STYLE('',(#17));
#16=SURFACE_SIDE_STYLE('',(#18));
#17=SURFACE_STYLE_FILL_AREA(#19);
#18=SURFACE_STYLE_FILL_AREA(#20);
#19=FILL_AREA_STYLE('',(#21));
#20=FILL_AREA_STYLE('',(#22));
#21=FILL_AREA_STYLE_COLOUR('',#57);
#22=FILL_AREA_STYLE_COLOUR('',#58);
#23=SURFACE_STYLE_USAGE(.BOTH.,#15);
#24=SURFACE_STYLE_USAGE(.BOTH.,#16);
#25=STYLED_ITEM('',(#12),#75);
#26=STYLED_ITEM('',(#12),#76);
#27=STYLED_ITEM('',(#12),#77);
#28=STYLED_ITEM('',(#12),#78);
#29=STYLED_ITEM('',(#12),#79);
#30=STYLED_ITEM('',(#12),#80);
#31=STYLED_ITEM('',(#12),#81);
#32=STYLED_ITEM('',(#12),#82);
#33=STYLED_ITEM('',(#12),#83);
#34=STYLED_ITEM('',(#12),#84);
#35=STYLED_ITEM('',(#12),#85);
#36=STYLED_ITEM('',(#12),#86);
#37=STYLED_ITEM('',(#12),#87);
#38=STYLED_ITEM('',(#12),#88);
#39=STYLED_ITEM('',(#12),#89);
#40=STYLED_ITEM('',(#12),#90);
#41=STYLED_ITEM('',(#12),#91);
#42=STYLED_ITEM('',(#12),#92);
#43=STYLED_ITEM('',(#12),#93);
#44=STYLED_ITEM('',(#12),#94);
#45=STYLED_ITEM('',(#12),#95);
#46=STYLED_ITEM('',(#12),#96);
#47=STYLED_ITEM('',(#12),#97);
#48=STYLED_ITEM('',(#12),#98);
#49=STYLED_ITEM('',(#12),#99);
#50=STYLED_ITEM('',(#12),#100);
#51=STYLED_ITEM('',(#12),#101);
#52=STYLED_ITEM('',(#12),#102);
#53=STYLED_ITEM('',(#12),#103);
#54=STYLED_ITEM('',(#13),#68);
#55=STYLED_ITEM('',(#14),#620);
#56=STYLED_ITEM('',(#14),#621);
#57=COLOUR_RGB('',0.,0.,0.);
#58=COLOUR_RGB('rgb_colour_2',0.4,0.4,0.4);
#59=COLOUR_RGB('rgb_colour_1',0.,0.4,0.1);
#60=MECHANICAL_DESIGN_GEOMETRIC_PRESENTATION_REPRESENTATION('',(#25,#26,#27,
#28,#29,#30,#31,#32,#33,#34,#35,#36,#37,#38,#39,#40,#41,#42,#43,#44,#45,#46,
#47,#48,#49,#50,#51,#52,#53,#54,#55,#56),#1026);
#61=PRESENTATION_LAYER_ASSIGNMENT('70','D505',(#620,#621,#75,#76,#77,#78,#79,
#80,#81,#82,#83,#84,#85,#86,#87,#88,#89,#90,#91,#92,#93,#94,#95,#96,#97,#98,
#99,#100,#101,#102,#103,#68));
#62=GEOMETRICALLY_BOUNDED_WIREFRAME_SHAPE_REPRESENTATION('',(#63),#1026);
#63=GEOMETRIC_CURVE_SET('',(#620,#621));
#64=SHAPE_REPRESENTATION_RELATIONSHIP('','',#647,#66);
#65=SHAPE_REPRESENTATION_RELATIONSHIP('','',#647,#62);
#66=ADVANCED_BREP_SHAPE_REPRESENTATION('',(#67),#1026);
#67=MANIFOLD_SOLID_BREP('960',#68);
#68=CLOSED_SHELL('',(#75,#76,#77,#78,#79,#80,#81,#82,#83,#84,#85,#86,#87,#88,
#89,#90,#91,#92,#93,#94,#95,#96,#97,#98,#99,#100,#101,#102,#103));
#69=CYLINDRICAL_SURFACE('',#675,11.2602856756796);
#70=CYLINDRICAL_SURFACE('',#676,44.8716337314482);
#71=CYLINDRICAL_SURFACE('',#677,31.7194122899964);
#72=CYLINDRICAL_SURFACE('',#678,8.26812598619353);
#73=CYLINDRICAL_SURFACE('',#683,76.9081593595557);
#74=CYLINDRICAL_SURFACE('',#684,41.7983571049732);
#75=ADVANCED_FACE('',(#104),#324,.F.);
#76=ADVANCED_FACE('',(#105),#325,.F.);
#77=ADVANCED_FACE('',(#106),#326,.F.);
#78=ADVANCED_FACE('',(#107),#327,.F.);
#79=ADVANCED_FACE('',(#108),#328,.F.);
#80=ADVANCED_FACE('',(#109),#329,.F.);
#81=ADVANCED_FACE('',(#110),#330,.F.);
#82=ADVANCED_FACE('',(#111),#331,.F.);
#83=ADVANCED_FACE('',(#112),#332,.F.);
#84=ADVANCED_FACE('',(#113),#333,.F.);
#85=ADVANCED_FACE('',(#114),#69,.F.);
#86=ADVANCED_FACE('',(#115),#70,.F.);
#87=ADVANCED_FACE('',(#116),#71,.T.);
#88=ADVANCED_FACE('',(#117),#72,.T.);
#89=ADVANCED_FACE('',(#118),#334,.F.);
#90=ADVANCED_FACE('',(#119),#335,.F.);
#91=ADVANCED_FACE('',(#120),#336,.F.);
#92=ADVANCED_FACE('',(#121),#337,.F.);
#93=ADVANCED_FACE('',(#122),#73,.F.);
#94=ADVANCED_FACE('',(#123),#74,.F.);
#95=ADVANCED_FACE('',(#124),#338,.F.);
#96=ADVANCED_FACE('',(#125),#339,.F.);
#97=ADVANCED_FACE('',(#126),#340,.F.);
#98=ADVANCED_FACE('',(#127),#341,.F.);
#99=ADVANCED_FACE('',(#128),#342,.F.);
#100=ADVANCED_FACE('',(#129),#343,.F.);
#101=ADVANCED_FACE('',(#130),#344,.F.);
#102=ADVANCED_FACE('',(#131),#345,.F.);
#103=ADVANCED_FACE('',(#132),#346,.T.);
#104=FACE_OUTER_BOUND('',#133,.T.);
#105=FACE_OUTER_BOUND('',#134,.T.);
#106=FACE_OUTER_BOUND('',#135,.T.);
#107=FACE_OUTER_BOUND('',#136,.T.);
#108=FACE_OUTER_BOUND('',#137,.T.);
#109=FACE_OUTER_BOUND('',#138,.T.);
#110=FACE_OUTER_BOUND('',#139,.T.);
#111=FACE_OUTER_BOUND('',#140,.T.);
#112=FACE_OUTER_BOUND('',#141,.T.);
#113=FACE_OUTER_BOUND('',#142,.T.);
#114=FACE_OUTER_BOUND('',#143,.T.);
#115=FACE_OUTER_BOUND('',#144,.T.);
#116=FACE_OUTER_BOUND('',#145,.T.);
#117=FACE_OUTER_BOUND('',#146,.T.);
#118=FACE_OUTER_BOUND('',#147,.T.);
#119=FACE_OUTER_BOUND('',#148,.T.);
#120=FACE_OUTER_BOUND('',#149,.T.);
#121=FACE_OUTER_BOUND('',#150,.T.);
#122=FACE_OUTER_BOUND('',#151,.T.);
#123=FACE_OUTER_BOUND('',#152,.T.);
#124=FACE_OUTER_BOUND('',#153,.T.);
#125=FACE_OUTER_BOUND('',#154,.T.);
#126=FACE_OUTER_BOUND('',#155,.T.);
#127=FACE_OUTER_BOUND('',#156,.T.);
#128=FACE_OUTER_BOUND('',#157,.T.);
#129=FACE_OUTER_BOUND('',#158,.T.);
#130=FACE_OUTER_BOUND('',#159,.T.);
#131=FACE_OUTER_BOUND('',#160,.T.);
#132=FACE_OUTER_BOUND('',#161,.T.);
#133=EDGE_LOOP('',(#162,#163,#164,#165));
#134=EDGE_LOOP('',(#166,#167,#168,#169));
#135=EDGE_LOOP('',(#170,#171,#172,#173));
#136=EDGE_LOOP('',(#174,#175,#176,#177));
#137=EDGE_LOOP('',(#178,#179,#180,#181));
#138=EDGE_LOOP('',(#182,#183,#184,#185));
#139=EDGE_LOOP('',(#186,#187,#188,#189));
#140=EDGE_LOOP('',(#190,#191,#192,#193));
#141=EDGE_LOOP('',(#194,#195,#196,#197));
#142=EDGE_LOOP('',(#198,#199,#200,#201));
#143=EDGE_LOOP('',(#202,#203,#204,#205));
#144=EDGE_LOOP('',(#206,#207,#208,#209));
#145=EDGE_LOOP('',(#210,#211,#212,#213));
#146=EDGE_LOOP('',(#214,#215,#216,#217));
#147=EDGE_LOOP('',(#218,#219,#220,#221));
#148=EDGE_LOOP('',(#222,#223,#224,#225));
#149=EDGE_LOOP('',(#226,#227,#228,#229));
#150=EDGE_LOOP('',(#230,#231,#232,#233));
#151=EDGE_LOOP('',(#234,#235,#236,#237));
#152=EDGE_LOOP('',(#238,#239,#240,#241));
#153=EDGE_LOOP('',(#242,#243,#244,#245));
#154=EDGE_LOOP('',(#246,#247,#248,#249));
#155=EDGE_LOOP('',(#250,#251,#252,#253));
#156=EDGE_LOOP('',(#254,#255,#256,#257));
#157=EDGE_LOOP('',(#258,#259,#260,#261));
#158=EDGE_LOOP('',(#262,#263,#264,#265));
#159=EDGE_LOOP('',(#266,#267,#268,#269));
#160=EDGE_LOOP('',(#270,#271,#272,#273,#274,#275,#276,#277,#278,#279,#280,#281
,#282,#283,#284,#285,#286,#287,#288,#289,#290,#291,#292,#293,#294,#295,#296));
#161=EDGE_LOOP('',(#297,#298,#299,#300,#301,#302,#303,#304,#305,#306,#307,#308
,#309,#310,#311,#312,#313,#314,#315,#316,#317,#318,#319,#320,#321,#322,#323));
#162=ORIENTED_EDGE('',*,*,#427,.T.);
#163=ORIENTED_EDGE('',*,*,#347,.F.);
#164=ORIENTED_EDGE('',*,*,#400,.F.);
#165=ORIENTED_EDGE('',*,*,#373,.T.);
#166=ORIENTED_EDGE('',*,*,#426,.T.);
#167=ORIENTED_EDGE('',*,*,#348,.F.);
#168=ORIENTED_EDGE('',*,*,#399,.F.);
#169=ORIENTED_EDGE('',*,*,#347,.T.);
#170=ORIENTED_EDGE('',*,*,#425,.T.);
#171=ORIENTED_EDGE('',*,*,#349,.F.);
#172=ORIENTED_EDGE('',*,*,#398,.F.);
#173=ORIENTED_EDGE('',*,*,#348,.T.);
#174=ORIENTED_EDGE('',*,*,#424,.T.);
#175=ORIENTED_EDGE('',*,*,#350,.F.);
#176=ORIENTED_EDGE('',*,*,#397,.F.);
#177=ORIENTED_EDGE('',*,*,#349,.T.);
#178=ORIENTED_EDGE('',*,*,#423,.T.);
#179=ORIENTED_EDGE('',*,*,#351,.F.);
#180=ORIENTED_EDGE('',*,*,#396,.F.);
#181=ORIENTED_EDGE('',*,*,#350,.T.);
#182=ORIENTED_EDGE('',*,*,#422,.T.);
#183=ORIENTED_EDGE('',*,*,#352,.F.);
#184=ORIENTED_EDGE('',*,*,#395,.F.);
#185=ORIENTED_EDGE('',*,*,#351,.T.);
#186=ORIENTED_EDGE('',*,*,#421,.T.);
#187=ORIENTED_EDGE('',*,*,#353,.F.);
#188=ORIENTED_EDGE('',*,*,#394,.F.);
#189=ORIENTED_EDGE('',*,*,#352,.T.);
#190=ORIENTED_EDGE('',*,*,#420,.T.);
#191=ORIENTED_EDGE('',*,*,#354,.F.);
#192=ORIENTED_EDGE('',*,*,#393,.F.);
#193=ORIENTED_EDGE('',*,*,#353,.T.);
#194=ORIENTED_EDGE('',*,*,#419,.T.);
#195=ORIENTED_EDGE('',*,*,#355,.F.);
#196=ORIENTED_EDGE('',*,*,#392,.F.);
#197=ORIENTED_EDGE('',*,*,#354,.T.);
#198=ORIENTED_EDGE('',*,*,#418,.T.);
#199=ORIENTED_EDGE('',*,*,#356,.F.);
#200=ORIENTED_EDGE('',*,*,#391,.F.);
#201=ORIENTED_EDGE('',*,*,#355,.T.);
#202=ORIENTED_EDGE('',*,*,#417,.T.);
#203=ORIENTED_EDGE('',*,*,#357,.F.);
#204=ORIENTED_EDGE('',*,*,#390,.F.);
#205=ORIENTED_EDGE('',*,*,#356,.T.);
#206=ORIENTED_EDGE('',*,*,#416,.T.);
#207=ORIENTED_EDGE('',*,*,#358,.F.);
#208=ORIENTED_EDGE('',*,*,#389,.F.);
#209=ORIENTED_EDGE('',*,*,#357,.T.);
#210=ORIENTED_EDGE('',*,*,#415,.T.);
#211=ORIENTED_EDGE('',*,*,#359,.F.);
#212=ORIENTED_EDGE('',*,*,#388,.F.);
#213=ORIENTED_EDGE('',*,*,#358,.T.);
#214=ORIENTED_EDGE('',*,*,#414,.T.);
#215=ORIENTED_EDGE('',*,*,#360,.F.);
#216=ORIENTED_EDGE('',*,*,#387,.F.);
#217=ORIENTED_EDGE('',*,*,#359,.T.);
#218=ORIENTED_EDGE('',*,*,#413,.T.);
#219=ORIENTED_EDGE('',*,*,#361,.F.);
#220=ORIENTED_EDGE('',*,*,#386,.F.);
#221=ORIENTED_EDGE('',*,*,#360,.T.);
#222=ORIENTED_EDGE('',*,*,#412,.T.);
#223=ORIENTED_EDGE('',*,*,#362,.F.);
#224=ORIENTED_EDGE('',*,*,#385,.F.);
#225=ORIENTED_EDGE('',*,*,#361,.T.);
#226=ORIENTED_EDGE('',*,*,#411,.T.);
#227=ORIENTED_EDGE('',*,*,#363,.F.);
#228=ORIENTED_EDGE('',*,*,#384,.F.);
#229=ORIENTED_EDGE('',*,*,#362,.T.);
#230=ORIENTED_EDGE('',*,*,#410,.T.);
#231=ORIENTED_EDGE('',*,*,#364,.F.);
#232=ORIENTED_EDGE('',*,*,#383,.F.);
#233=ORIENTED_EDGE('',*,*,#363,.T.);
#234=ORIENTED_EDGE('',*,*,#409,.T.);
#235=ORIENTED_EDGE('',*,*,#365,.F.);
#236=ORIENTED_EDGE('',*,*,#382,.F.);
#237=ORIENTED_EDGE('',*,*,#364,.T.);
#238=ORIENTED_EDGE('',*,*,#408,.T.);
#239=ORIENTED_EDGE('',*,*,#366,.F.);
#240=ORIENTED_EDGE('',*,*,#381,.F.);
#241=ORIENTED_EDGE('',*,*,#365,.T.);
#242=ORIENTED_EDGE('',*,*,#407,.T.);
#243=ORIENTED_EDGE('',*,*,#367,.F.);
#244=ORIENTED_EDGE('',*,*,#380,.F.);
#245=ORIENTED_EDGE('',*,*,#366,.T.);
#246=ORIENTED_EDGE('',*,*,#406,.T.);
#247=ORIENTED_EDGE('',*,*,#368,.F.);
#248=ORIENTED_EDGE('',*,*,#379,.F.);
#249=ORIENTED_EDGE('',*,*,#367,.T.);
#250=ORIENTED_EDGE('',*,*,#405,.T.);
#251=ORIENTED_EDGE('',*,*,#369,.F.);
#252=ORIENTED_EDGE('',*,*,#378,.F.);
#253=ORIENTED_EDGE('',*,*,#368,.T.);
#254=ORIENTED_EDGE('',*,*,#404,.T.);
#255=ORIENTED_EDGE('',*,*,#370,.F.);
#256=ORIENTED_EDGE('',*,*,#377,.F.);
#257=ORIENTED_EDGE('',*,*,#369,.T.);
#258=ORIENTED_EDGE('',*,*,#403,.T.);
#259=ORIENTED_EDGE('',*,*,#371,.F.);
#260=ORIENTED_EDGE('',*,*,#376,.F.);
#261=ORIENTED_EDGE('',*,*,#370,.T.);
#262=ORIENTED_EDGE('',*,*,#402,.T.);
#263=ORIENTED_EDGE('',*,*,#372,.F.);
#264=ORIENTED_EDGE('',*,*,#375,.F.);
#265=ORIENTED_EDGE('',*,*,#371,.T.);
#266=ORIENTED_EDGE('',*,*,#401,.T.);
#267=ORIENTED_EDGE('',*,*,#373,.F.);
#268=ORIENTED_EDGE('',*,*,#374,.F.);
#269=ORIENTED_EDGE('',*,*,#372,.T.);
#270=ORIENTED_EDGE('',*,*,#400,.T.);
#271=ORIENTED_EDGE('',*,*,#399,.T.);
#272=ORIENTED_EDGE('',*,*,#398,.T.);
#273=ORIENTED_EDGE('',*,*,#397,.T.);
#274=ORIENTED_EDGE('',*,*,#396,.T.);
#275=ORIENTED_EDGE('',*,*,#395,.T.);
#276=ORIENTED_EDGE('',*,*,#394,.T.);
#277=ORIENTED_EDGE('',*,*,#393,.T.);
#278=ORIENTED_EDGE('',*,*,#392,.T.);
#279=ORIENTED_EDGE('',*,*,#391,.T.);
#280=ORIENTED_EDGE('',*,*,#390,.T.);
#281=ORIENTED_EDGE('',*,*,#389,.T.);
#282=ORIENTED_EDGE('',*,*,#388,.T.);
#283=ORIENTED_EDGE('',*,*,#387,.T.);
#284=ORIENTED_EDGE('',*,*,#386,.T.);
#285=ORIENTED_EDGE('',*,*,#385,.T.);
#286=ORIENTED_EDGE('',*,*,#384,.T.);
#287=ORIENTED_EDGE('',*,*,#383,.T.);
#288=ORIENTED_EDGE('',*,*,#382,.T.);
#289=ORIENTED_EDGE('',*,*,#381,.T.);
#290=ORIENTED_EDGE('',*,*,#380,.T.);
#291=ORIENTED_EDGE('',*,*,#379,.T.);
#292=ORIENTED_EDGE('',*,*,#378,.T.);
#293=ORIENTED_EDGE('',*,*,#377,.T.);
#294=ORIENTED_EDGE('',*,*,#376,.T.);
#295=ORIENTED_EDGE('',*,*,#375,.T.);
#296=ORIENTED_EDGE('',*,*,#374,.T.);
#297=ORIENTED_EDGE('',*,*,#427,.F.);
#298=ORIENTED_EDGE('',*,*,#401,.F.);
#299=ORIENTED_EDGE('',*,*,#402,.F.);
#300=ORIENTED_EDGE('',*,*,#403,.F.);
#301=ORIENTED_EDGE('',*,*,#404,.F.);
#302=ORIENTED_EDGE('',*,*,#405,.F.);
#303=ORIENTED_EDGE('',*,*,#406,.F.);
#304=ORIENTED_EDGE('',*,*,#407,.F.);
#305=ORIENTED_EDGE('',*,*,#408,.F.);
#306=ORIENTED_EDGE('',*,*,#409,.F.);
#307=ORIENTED_EDGE('',*,*,#410,.F.);
#308=ORIENTED_EDGE('',*,*,#411,.F.);
#309=ORIENTED_EDGE('',*,*,#412,.F.);
#310=ORIENTED_EDGE('',*,*,#413,.F.);
#311=ORIENTED_EDGE('',*,*,#414,.F.);
#312=ORIENTED_EDGE('',*,*,#415,.F.);
#313=ORIENTED_EDGE('',*,*,#416,.F.);
#314=ORIENTED_EDGE('',*,*,#417,.F.);
#315=ORIENTED_EDGE('',*,*,#418,.F.);
#316=ORIENTED_EDGE('',*,*,#419,.F.);
#317=ORIENTED_EDGE('',*,*,#420,.F.);
#318=ORIENTED_EDGE('',*,*,#421,.F.);
#319=ORIENTED_EDGE('',*,*,#422,.F.);
#320=ORIENTED_EDGE('',*,*,#423,.F.);
#321=ORIENTED_EDGE('',*,*,#424,.F.);
#322=ORIENTED_EDGE('',*,*,#425,.F.);
#323=ORIENTED_EDGE('',*,*,#426,.F.);
#324=PLANE('',#665);
#325=PLANE('',#666);
#326=PLANE('',#667);
#327=PLANE('',#668);
#328=PLANE('',#669);
#329=PLANE('',#670);
#330=PLANE('',#671);
#331=PLANE('',#672);
#332=PLANE('',#673);
#333=PLANE('',#674);
#334=PLANE('',#679);
#335=PLANE('',#680);
#336=PLANE('',#681);
#337=PLANE('',#682);
#338=PLANE('',#685);
#339=PLANE('',#686);
#340=PLANE('',#687);
#341=PLANE('',#688);
#342=PLANE('',#689);
#343=PLANE('',#690);
#344=PLANE('',#691);
#345=PLANE('',#692);
#346=PLANE('',#693);
#347=EDGE_CURVE('',#592,#619,#428,.T.);
#348=EDGE_CURVE('',#591,#618,#429,.T.);
#349=EDGE_CURVE('',#590,#617,#430,.T.);
#350=EDGE_CURVE('',#589,#616,#431,.T.);
#351=EDGE_CURVE('',#588,#615,#432,.T.);
#352=EDGE_CURVE('',#587,#614,#433,.T.);
#353=EDGE_CURVE('',#586,#613,#434,.T.);
#354=EDGE_CURVE('',#585,#612,#435,.T.);
#355=EDGE_CURVE('',#584,#611,#436,.T.);
#356=EDGE_CURVE('',#583,#610,#437,.T.);
#357=EDGE_CURVE('',#582,#609,#438,.T.);
#358=EDGE_CURVE('',#581,#608,#439,.T.);
#359=EDGE_CURVE('',#580,#607,#440,.T.);
#360=EDGE_CURVE('',#579,#606,#441,.T.);
#361=EDGE_CURVE('',#578,#605,#442,.T.);
#362=EDGE_CURVE('',#577,#604,#443,.T.);
#363=EDGE_CURVE('',#576,#603,#444,.T.);
#364=EDGE_CURVE('',#575,#602,#445,.T.);
#365=EDGE_CURVE('',#574,#601,#446,.T.);
#366=EDGE_CURVE('',#573,#600,#447,.T.);
#367=EDGE_CURVE('',#572,#599,#448,.T.);
#368=EDGE_CURVE('',#571,#598,#449,.T.);
#369=EDGE_CURVE('',#570,#597,#450,.T.);
#370=EDGE_CURVE('',#569,#596,#451,.T.);
#371=EDGE_CURVE('',#568,#595,#452,.T.);
#372=EDGE_CURVE('',#567,#594,#453,.T.);
#373=EDGE_CURVE('',#566,#593,#454,.T.);
#374=EDGE_CURVE('',#567,#566,#455,.T.);
#375=EDGE_CURVE('',#568,#567,#456,.T.);
#376=EDGE_CURVE('',#569,#568,#457,.T.);
#377=EDGE_CURVE('',#570,#569,#458,.T.);
#378=EDGE_CURVE('',#571,#570,#459,.T.);
#379=EDGE_CURVE('',#572,#571,#460,.T.);
#380=EDGE_CURVE('',#573,#572,#461,.T.);
#381=EDGE_CURVE('',#574,#573,#634,.T.);
#382=EDGE_CURVE('',#575,#574,#635,.T.);
#383=EDGE_CURVE('',#576,#575,#462,.T.);
#384=EDGE_CURVE('',#577,#576,#463,.T.);
#385=EDGE_CURVE('',#578,#577,#464,.T.);
#386=EDGE_CURVE('',#579,#578,#465,.T.);
#387=EDGE_CURVE('',#580,#579,#636,.T.);
#388=EDGE_CURVE('',#581,#580,#637,.T.);
#389=EDGE_CURVE('',#582,#581,#638,.T.);
#390=EDGE_CURVE('',#583,#582,#639,.T.);
#391=EDGE_CURVE('',#584,#583,#466,.T.);
#392=EDGE_CURVE('',#585,#584,#467,.T.);
#393=EDGE_CURVE('',#586,#585,#468,.T.);
#394=EDGE_CURVE('',#587,#586,#469,.T.);
#395=EDGE_CURVE('',#588,#587,#470,.T.);
#396=EDGE_CURVE('',#589,#588,#471,.T.);
#397=EDGE_CURVE('',#590,#589,#472,.T.);
#398=EDGE_CURVE('',#591,#590,#473,.T.);
#399=EDGE_CURVE('',#592,#591,#474,.T.);
#400=EDGE_CURVE('',#566,#592,#475,.T.);
#401=EDGE_CURVE('',#594,#593,#476,.T.);
#402=EDGE_CURVE('',#595,#594,#477,.T.);
#403=EDGE_CURVE('',#596,#595,#478,.T.);
#404=EDGE_CURVE('',#597,#596,#479,.T.);
#405=EDGE_CURVE('',#598,#597,#480,.T.);
#406=EDGE_CURVE('',#599,#598,#481,.T.);
#407=EDGE_CURVE('',#600,#599,#482,.T.);
#408=EDGE_CURVE('',#601,#600,#640,.T.);
#409=EDGE_CURVE('',#602,#601,#641,.T.);
#410=EDGE_CURVE('',#603,#602,#483,.T.);
#411=EDGE_CURVE('',#604,#603,#484,.T.);
#412=EDGE_CURVE('',#605,#604,#485,.T.);
#413=EDGE_CURVE('',#606,#605,#486,.T.);
#414=EDGE_CURVE('',#607,#606,#642,.T.);
#415=EDGE_CURVE('',#608,#607,#643,.T.);
#416=EDGE_CURVE('',#609,#608,#644,.T.);
#417=EDGE_CURVE('',#610,#609,#645,.T.);
#418=EDGE_CURVE('',#611,#610,#487,.T.);
#419=EDGE_CURVE('',#612,#611,#488,.T.);
#420=EDGE_CURVE('',#613,#612,#489,.T.);
#421=EDGE_CURVE('',#614,#613,#490,.T.);
#422=EDGE_CURVE('',#615,#614,#491,.T.);
#423=EDGE_CURVE('',#616,#615,#492,.T.);
#424=EDGE_CURVE('',#617,#616,#493,.T.);
#425=EDGE_CURVE('',#618,#617,#494,.T.);
#426=EDGE_CURVE('',#619,#618,#495,.T.);
#427=EDGE_CURVE('',#593,#619,#496,.T.);
#428=LINE('',#914,#497);
#429=LINE('',#915,#498);
#430=LINE('',#916,#499);
#431=LINE('',#917,#500);
#432=LINE('',#918,#501);
#433=LINE('',#919,#502);
#434=LINE('',#920,#503);
#435=LINE('',#921,#504);
#436=LINE('',#922,#505);
#437=LINE('',#923,#506);
#438=LINE('',#924,#507);
#439=LINE('',#925,#508);
#440=LINE('',#926,#509);
#441=LINE('',#927,#510);
#442=LINE('',#928,#511);
#443=LINE('',#929,#512);
#444=LINE('',#930,#513);
#445=LINE('',#931,#514);
#446=LINE('',#932,#515);
#447=LINE('',#933,#516);
#448=LINE('',#934,#517);
#449=LINE('',#935,#518);
#450=LINE('',#936,#519);
#451=LINE('',#937,#520);
#452=LINE('',#938,#521);
#453=LINE('',#939,#522);
#454=LINE('',#940,#523);
#455=LINE('',#941,#524);
#456=LINE('',#942,#525);
#457=LINE('',#943,#526);
#458=LINE('',#944,#527);
#459=LINE('',#945,#528);
#460=LINE('',#946,#529);
#461=LINE('',#947,#530);
#462=LINE('',#950,#531);
#463=LINE('',#951,#532);
#464=LINE('',#952,#533);
#465=LINE('',#953,#534);
#466=LINE('',#958,#535);
#467=LINE('',#959,#536);
#468=LINE('',#960,#537);
#469=LINE('',#961,#538);
#470=LINE('',#962,#539);
#471=LINE('',#963,#540);
#472=LINE('',#964,#541);
#473=LINE('',#965,#542);
#474=LINE('',#966,#543);
#475=LINE('',#967,#544);
#476=LINE('',#968,#545);
#477=LINE('',#969,#546);
#478=LINE('',#970,#547);
#479=LINE('',#971,#548);
#480=LINE('',#972,#549);
#481=LINE('',#973,#550);
#482=LINE('',#974,#551);
#483=LINE('',#977,#552);
#484=LINE('',#978,#553);
#485=LINE('',#979,#554);
#486=LINE('',#980,#555);
#487=LINE('',#985,#556);
#488=LINE('',#986,#557);
#489=LINE('',#987,#558);
#490=LINE('',#988,#559);
#491=LINE('',#989,#560);
#492=LINE('',#990,#561);
#493=LINE('',#991,#562);
#494=LINE('',#992,#563);
#495=LINE('',#993,#564);
#496=LINE('',#994,#565);
#497=VECTOR('',#704,1.);
#498=VECTOR('',#705,1.);
#499=VECTOR('',#706,1.);
#500=VECTOR('',#707,1.);
#501=VECTOR('',#708,1.);
#502=VECTOR('',#709,1.);
#503=VECTOR('',#710,1.);
#504=VECTOR('',#711,1.);
#505=VECTOR('',#712,1.);
#506=VECTOR('',#713,1.);
#507=VECTOR('',#714,1.);
#508=VECTOR('',#715,1.);
#509=VECTOR('',#716,1.);
#510=VECTOR('',#717,1.);
#511=VECTOR('',#718,1.);
#512=VECTOR('',#719,1.);
#513=VECTOR('',#720,1.);
#514=VECTOR('',#721,1.);
#515=VECTOR('',#722,1.);
#516=VECTOR('',#723,1.);
#517=VECTOR('',#724,1.);
#518=VECTOR('',#725,1.);
#519=VECTOR('',#726,1.);
#520=VECTOR('',#727,1.);
#521=VECTOR('',#728,1.);
#522=VECTOR('',#729,1.);
#523=VECTOR('',#730,1.);
#524=VECTOR('',#731,1.);
#525=VECTOR('',#732,1.);
#526=VECTOR('',#733,1.);
#527=VECTOR('',#734,1.);
#528=VECTOR('',#735,1.);
#529=VECTOR('',#736,1.);
#530=VECTOR('',#737,1.);
#531=VECTOR('',#742,1.);
#532=VECTOR('',#743,1.);
#533=VECTOR('',#744,1.);
#534=VECTOR('',#745,1.);
#535=VECTOR('',#754,1.);
#536=VECTOR('',#755,1.);
#537=VECTOR('',#756,1.);
#538=VECTOR('',#757,1.);
#539=VECTOR('',#758,1.);
#540=VECTOR('',#759,1.);
#541=VECTOR('',#760,1.);
#542=VECTOR('',#761,1.);
#543=VECTOR('',#762,1.);
#544=VECTOR('',#763,1.);
#545=VECTOR('',#764,1.);
#546=VECTOR('',#765,1.);
#547=VECTOR('',#766,1.);
#548=VECTOR('',#767,1.);
#549=VECTOR('',#768,1.);
#550=VECTOR('',#769,1.);
#551=VECTOR('',#770,1.);
#552=VECTOR('',#775,1.);
#553=VECTOR('',#776,1.);
#554=VECTOR('',#777,1.);
#555=VECTOR('',#778,1.);
#556=VECTOR('',#787,1.);
#557=VECTOR('',#788,1.);
#558=VECTOR('',#789,1.);
#559=VECTOR('',#790,1.);
#560=VECTOR('',#791,1.);
#561=VECTOR('',#792,1.);
#562=VECTOR('',#793,1.);
#563=VECTOR('',#794,1.);
#564=VECTOR('',#795,1.);
#565=VECTOR('',#796,1.);
#566=VERTEX_POINT('',#860);
#567=VERTEX_POINT('',#861);
#568=VERTEX_POINT('',#862);
#569=VERTEX_POINT('',#863);
#570=VERTEX_POINT('',#864);
#571=VERTEX_POINT('',#865);
#572=VERTEX_POINT('',#866);
#573=VERTEX_POINT('',#867);
#574=VERTEX_POINT('',#868);
#575=VERTEX_POINT('',#869);
#576=VERTEX_POINT('',#870);
#577=VERTEX_POINT('',#871);
#578=VERTEX_POINT('',#872);
#579=VERTEX_POINT('',#873);
#580=VERTEX_POINT('',#874);
#581=VERTEX_POINT('',#875);
#582=VERTEX_POINT('',#876);
#583=VERTEX_POINT('',#877);
#584=VERTEX_POINT('',#878);
#585=VERTEX_POINT('',#879);
#586=VERTEX_POINT('',#880);
#587=VERTEX_POINT('',#881);
#588=VERTEX_POINT('',#882);
#589=VERTEX_POINT('',#883);
#590=VERTEX_POINT('',#884);
#591=VERTEX_POINT('',#885);
#592=VERTEX_POINT('',#886);
#593=VERTEX_POINT('',#887);
#594=VERTEX_POINT('',#888);
#595=VERTEX_POINT('',#889);
#596=VERTEX_POINT('',#890);
#597=VERTEX_POINT('',#891);
#598=VERTEX_POINT('',#892);
#599=VERTEX_POINT('',#893);
#600=VERTEX_POINT('',#894);
#601=VERTEX_POINT('',#895);
#602=VERTEX_POINT('',#896);
#603=VERTEX_POINT('',#897);
#604=VERTEX_POINT('',#898);
#605=VERTEX_POINT('',#899);
#606=VERTEX_POINT('',#900);
#607=VERTEX_POINT('',#901);
#608=VERTEX_POINT('',#902);
#609=VERTEX_POINT('',#903);
#610=VERTEX_POINT('',#904);
#611=VERTEX_POINT('',#905);
#612=VERTEX_POINT('',#906);
#613=VERTEX_POINT('',#907);
#614=VERTEX_POINT('',#908);
#615=VERTEX_POINT('',#909);
#616=VERTEX_POINT('',#910);
#617=VERTEX_POINT('',#911);
#618=VERTEX_POINT('',#912);
#619=VERTEX_POINT('',#913);
#620=COMPOSITE_CURVE('449',(#622),.F.);
#621=COMPOSITE_CURVE('448',(#623,#624,#625),.T.);
#622=COMPOSITE_CURVE_SEGMENT(.CONTINUOUS.,.T.,#626);
#623=COMPOSITE_CURVE_SEGMENT(.CONTINUOUS.,.T.,#627);
#624=COMPOSITE_CURVE_SEGMENT(.CONTINUOUS.,.T.,#628);
#625=COMPOSITE_CURVE_SEGMENT(.CONTINUOUS.,.T.,#629);
#626=TRIMMED_CURVE('',#630,(PARAMETER_VALUE(60.8491686455238)),(
PARAMETER_VALUE(119.150831354479)),.T.,.PARAMETER.);
#627=TRIMMED_CURVE('',#631,(PARAMETER_VALUE(81.335818496817)),(PARAMETER_VALUE
(98.6641815031842)),.T.,.PARAMETER.);
#628=TRIMMED_CURVE('',#632,(PARAMETER_VALUE(72.6800725488729)),(
PARAMETER_VALUE(107.319927451129)),.T.,.PARAMETER.);
#629=TRIMMED_CURVE('',#633,(PARAMETER_VALUE(80.0948490631322)),(
PARAMETER_VALUE(99.9051509368691)),.T.,.PARAMETER.);
#630=CIRCLE('',#649,8.7921419331386);
#631=CIRCLE('',#650,19.3531514382449);
#632=CIRCLE('',#651,19.353151438243);
#633=CIRCLE('',#652,19.3531514382106);
#634=CIRCLE('',#653,41.7983571049732);
#635=CIRCLE('',#654,76.9081593595557);
#636=CIRCLE('',#655,8.26812598619353);
#637=CIRCLE('',#656,31.7194122899964);
#638=CIRCLE('',#657,44.8716337314482);
#639=CIRCLE('',#658,11.2602856756796);
#640=CIRCLE('',#659,41.7983571049732);
#641=CIRCLE('',#660,76.9081593595557);
#642=CIRCLE('',#661,8.26812598619353);
#643=CIRCLE('',#662,31.7194122899964);
#644=CIRCLE('',#663,44.8716337314482);
#645=CIRCLE('',#664,11.2602856756796);
#646=SHAPE_DEFINITION_REPRESENTATION(#1024,#647);
#647=SHAPE_REPRESENTATION('master',(#648),#1026);
#648=AXIS2_PLACEMENT_3D('',#855,#695,#694);
#649=AXIS2_PLACEMENT_3D('',#856,#697,#696);
#650=AXIS2_PLACEMENT_3D('',#857,#699,#698);
#651=AXIS2_PLACEMENT_3D('',#858,#701,#700);
#652=AXIS2_PLACEMENT_3D('',#859,#703,#702);
#653=AXIS2_PLACEMENT_3D('',#948,#739,#738);
#654=AXIS2_PLACEMENT_3D('',#949,#741,#740);
#655=AXIS2_PLACEMENT_3D('',#954,#747,#746);
#656=AXIS2_PLACEMENT_3D('',#955,#749,#748);
#657=AXIS2_PLACEMENT_3D('',#956,#751,#750);
#658=AXIS2_PLACEMENT_3D('',#957,#753,#752);
#659=AXIS2_PLACEMENT_3D('',#975,#772,#771);
#660=AXIS2_PLACEMENT_3D('',#976,#774,#773);
#661=AXIS2_PLACEMENT_3D('',#981,#780,#779);
#662=AXIS2_PLACEMENT_3D('',#982,#782,#781);
#663=AXIS2_PLACEMENT_3D('',#983,#784,#783);
#664=AXIS2_PLACEMENT_3D('',#984,#786,#785);
#665=AXIS2_PLACEMENT_3D('',#995,#798,#797);
#666=AXIS2_PLACEMENT_3D('',#996,#800,#799);
#667=AXIS2_PLACEMENT_3D('',#997,#802,#801);
#668=AXIS2_PLACEMENT_3D('',#998,#804,#803);
#669=AXIS2_PLACEMENT_3D('',#999,#806,#805);
#670=AXIS2_PLACEMENT_3D('',#1000,#808,#807);
#671=AXIS2_PLACEMENT_3D('',#1001,#810,#809);
#672=AXIS2_PLACEMENT_3D('',#1002,#812,#811);
#673=AXIS2_PLACEMENT_3D('',#1003,#814,#813);
#674=AXIS2_PLACEMENT_3D('',#1004,#816,#815);
#675=AXIS2_PLACEMENT_3D('',#1005,#818,#817);
#676=AXIS2_PLACEMENT_3D('',#1006,#820,#819);
#677=AXIS2_PLACEMENT_3D('',#1007,#822,#821);
#678=AXIS2_PLACEMENT_3D('',#1008,#824,#823);
#679=AXIS2_PLACEMENT_3D('',#1009,#826,#825);
#680=AXIS2_PLACEMENT_3D('',#1010,#828,#827);
#681=AXIS2_PLACEMENT_3D('',#1011,#830,#829);
#682=AXIS2_PLACEMENT_3D('',#1012,#832,#831);
#683=AXIS2_PLACEMENT_3D('',#1013,#834,#833);
#684=AXIS2_PLACEMENT_3D('',#1014,#836,#835);
#685=AXIS2_PLACEMENT_3D('',#1015,#838,#837);
#686=AXIS2_PLACEMENT_3D('',#1016,#840,#839);
#687=AXIS2_PLACEMENT_3D('',#1017,#842,#841);
#688=AXIS2_PLACEMENT_3D('',#1018,#844,#843);
#689=AXIS2_PLACEMENT_3D('',#1019,#846,#845);
#690=AXIS2_PLACEMENT_3D('',#1020,#848,#847);
#691=AXIS2_PLACEMENT_3D('',#1021,#850,#849);
#692=AXIS2_PLACEMENT_3D('',#1022,#852,#851);
#693=AXIS2_PLACEMENT_3D('',#1023,#854,#853);
#694=DIRECTION('',(1.,0.,0.));
#695=DIRECTION('',(0.,0.,1.));
#696=DIRECTION('',(-0.68706550034702,-0.,-0.726595484594351));
#697=DIRECTION('',(0.,-1.,0.));
#698=DIRECTION('',(-0.97553318778857,-0.,-0.219852222010767));
#699=DIRECTION('',(0.,-1.,0.));
#700=DIRECTION('',(-0.780599933500057,-0.,-0.625030994287249));
#701=DIRECTION('',(0.,-1.,0.));
#702=DIRECTION('',(-0.408178451443571,-0.,-0.912902158928945));
#703=DIRECTION('',(0.,-1.,0.));
#704=DIRECTION('',(-1.48685739458725E-015,-1.,2.65925990867873E-015));
#705=DIRECTION('',(-1.48685739458725E-015,-1.,2.65925990867873E-015));
#706=DIRECTION('',(-1.48685739458725E-015,-1.,2.65925990867873E-015));
#707=DIRECTION('',(-1.48685739458725E-015,-1.,2.65925990867873E-015));
#708=DIRECTION('',(-1.48685739458725E-015,-1.,2.65925990867873E-015));
#709=DIRECTION('',(-1.48685739458725E-015,-1.,2.65925990867873E-015));
#710=DIRECTION('',(-1.48685739458725E-015,-1.,2.65925990867873E-015));
#711=DIRECTION('',(-1.48685739458725E-015,-1.,2.65925990867873E-015));
#712=DIRECTION('',(-1.48685739458725E-015,-1.,2.65925990867873E-015));
#713=DIRECTION('',(-1.48685739458725E-015,-1.,2.65925990867873E-015));
#714=DIRECTION('',(-1.48685739458725E-015,-1.,2.65925990867873E-015));
#715=DIRECTION('',(-1.48685739458725E-015,-1.,2.65925990867873E-015));
#716=DIRECTION('',(-1.48685739458725E-015,-1.,2.65925990867873E-015));
#717=DIRECTION('',(-1.48685739458725E-015,-1.,2.65925990867873E-015));
#718=DIRECTION('',(-1.48685739458725E-015,-1.,2.65925990867873E-015));
#719=DIRECTION('',(-1.48685739458725E-015,-1.,2.65925990867873E-015));
#720=DIRECTION('',(-1.48685739458725E-015,-1.,2.65925990867873E-015));
#721=DIRECTION('',(-1.48685739458725E-015,-1.,2.65925990867873E-015));
#722=DIRECTION('',(-1.48685739458725E-015,-1.,2.65925990867873E-015));
#723=DIRECTION('',(-1.48685739458725E-015,-1.,2.65925990867873E-015));
#724=DIRECTION('',(-1.48685739458725E-015,-1.,2.65925990867873E-015));
#725=DIRECTION('',(-1.48685739458725E-015,-1.,2.65925990867873E-015));
#726=DIRECTION('',(-1.48685739458725E-015,-1.,2.65925990867873E-015));
#727=DIRECTION('',(-1.48685739458725E-015,-1.,2.65925990867873E-015));
#728=DIRECTION('',(-1.48685739458725E-015,-1.,2.65925990867873E-015));
#729=DIRECTION('',(-1.48685739458725E-015,-1.,2.65925990867873E-015));
#730=DIRECTION('',(-1.48685739458725E-015,-1.,2.65925990867873E-015));
#731=DIRECTION('',(-0.0842345399346311,-0.,-0.996445955524935));
#732=DIRECTION('',(-0.084234539934702,-0.,-0.996445955524929));
#733=DIRECTION('',(-0.763850899844752,-0.,-0.645392750816402));
#734=DIRECTION('',(-0.998912117770514,-0.,-0.0466324025890454));
#735=DIRECTION('',(-0.998912117770511,-0.,-0.0466324025891078));
#736=DIRECTION('',(-0.998912117770514,-0.,-0.046632402589043));
#737=DIRECTION('',(-0.133856207135931,0.,-0.991000764788394));
#738=DIRECTION('',(-0.144073958441856,0.,0.989566922698457));
#739=DIRECTION('',(0.,-1.,0.));
#740=DIRECTION('',(0.453106110474273,0.,0.891456590446712));
#741=DIRECTION('',(0.,-1.,0.));
#742=DIRECTION('',(-0.946621697336275,-0.,-0.322346649016537));
#743=DIRECTION('',(-0.327543153452603,-0.,-0.944836220001289));
#744=DIRECTION('',(-0.944836220001304,-0.,0.32754315345256));
#745=DIRECTION('',(-0.420054929212019,0.,0.907498681235783));
#746=DIRECTION('',(0.488900272453606,0.,-0.872339683606558));
#747=DIRECTION('',(0.,1.,0.));
#748=DIRECTION('',(0.696399866553172,0.,-0.717653973628464));
#749=DIRECTION('',(0.,1.,0.));
#750=DIRECTION('',(0.014112189407148,0.,0.999900418096791));
#751=DIRECTION('',(0.,-1.,0.));
#752=DIRECTION('',(-0.225739927532113,0.,0.974187602629902));
#753=DIRECTION('',(0.,-1.,0.));
#754=DIRECTION('',(-0.,-0.,-1.));
#755=DIRECTION('',(1.,0.,0.));
#756=DIRECTION('',(0.904218485553761,-0.,0.427070170326683));
#757=DIRECTION('',(0.999300114750648,0.,0.0374069600387679));
#758=DIRECTION('',(0.721102161911248,-0.,0.692828746579502));
#759=DIRECTION('',(-0.,-0.,1.));
#760=DIRECTION('',(-1.,0.,0.));
#761=DIRECTION('',(-0.101387409399454,-0.,-0.994847020006226));
#762=DIRECTION('',(-0.999970662262369,-0.,0.00765993567595051));
#763=DIRECTION('',(-0.0842345399346807,0.,-0.996445955524931));
#764=DIRECTION('',(-0.0842345399346311,-0.,-0.996445955524935));
#765=DIRECTION('',(-0.084234539934702,-0.,-0.996445955524929));
#766=DIRECTION('',(-0.763850899844752,-0.,-0.645392750816402));
#767=DIRECTION('',(-0.998912117770514,-0.,-0.0466324025890454));
#768=DIRECTION('',(-0.998912117770511,-0.,-0.0466324025891078));
#769=DIRECTION('',(-0.998912117770514,-0.,-0.046632402589043));
#770=DIRECTION('',(-0.133856207135931,0.,-0.991000764788394));
#771=DIRECTION('',(-0.144073958441856,0.,0.989566922698457));
#772=DIRECTION('',(0.,-1.,0.));
#773=DIRECTION('',(0.453106110474273,0.,0.891456590446712));
#774=DIRECTION('',(0.,-1.,0.));
#775=DIRECTION('',(-0.946621697336275,-0.,-0.322346649016537));
#776=DIRECTION('',(-0.327543153452603,-0.,-0.944836220001289));
#777=DIRECTION('',(-0.944836220001304,-0.,0.32754315345256));
#778=DIRECTION('',(-0.420054929212019,0.,0.907498681235783));
#779=DIRECTION('',(0.488900272453606,0.,-0.872339683606558));
#780=DIRECTION('',(0.,1.,0.));
#781=DIRECTION('',(0.696399866553172,0.,-0.717653973628464));
#782=DIRECTION('',(0.,1.,0.));
#783=DIRECTION('',(0.014112189407148,0.,0.999900418096791));
#784=DIRECTION('',(0.,-1.,0.));
#785=DIRECTION('',(-0.225739927532113,0.,0.974187602629902));
#786=DIRECTION('',(0.,-1.,0.));
#787=DIRECTION('',(-0.,-0.,-1.));
#788=DIRECTION('',(1.,0.,0.));
#789=DIRECTION('',(0.904218485553761,-0.,0.427070170326683));
#790=DIRECTION('',(0.999300114750648,0.,0.0374069600387679));
#791=DIRECTION('',(0.721102161911248,-0.,0.692828746579502));
#792=DIRECTION('',(-0.,-0.,1.));
#793=DIRECTION('',(-1.,0.,0.));
#794=DIRECTION('',(-0.101387409399454,-0.,-0.994847020006226));
#795=DIRECTION('',(-0.999970662262369,-0.,0.00765993567595051));
#796=DIRECTION('',(-0.0842345399346807,0.,-0.996445955524931));
#797=DIRECTION('',(0.0842345399346807,2.46519032881566E-032,0.996445955524931)
);
#798=DIRECTION('',(-0.996445955524931,1.70557457225309E-015,0.0842345399346807
));
#799=DIRECTION('',(0.999970662262369,0.,-0.00765993567595051));
#800=DIRECTION('',(0.00765993567595051,2.64779266000739E-015,0.999970662262369
));
#801=DIRECTION('',(0.101387409399454,0.,0.994847020006226));
#802=DIRECTION('',(-0.994847020006226,1.74881112124011E-015,0.101387409399454)
);
#803=DIRECTION('',(0.,-1.,2.65925990867873E-015));
#804=DIRECTION('',(0.,2.65925990867873E-015,1.));
#805=DIRECTION('',(1.48685739458725E-015,1.,0.));
#806=DIRECTION('',(1.,-1.48685739458725E-015,0.));
#807=DIRECTION('',(-0.721102161911248,0.,-0.692828746579502));
#808=DIRECTION('',(0.692828746579502,-2.94773561426649E-015,-0.721102161911248
));
#809=DIRECTION('',(-0.999300114750648,0.,-0.0374069600387679));
#810=DIRECTION('',(0.0374069600387679,-2.71301754703713E-015,
-0.999300114750648));
#811=DIRECTION('',(-0.904218485553761,0.,-0.427070170326684));
#812=DIRECTION('',(0.427070170326684,-3.03954440807718E-015,-0.904218485553761
));
#813=DIRECTION('',(0.,1.,-2.65925990867873E-015));
#814=DIRECTION('',(0.,-2.65925990867873E-015,-1.));
#815=DIRECTION('',(-1.48685739458725E-015,-1.,0.));
#816=DIRECTION('',(-1.,1.48685739458725E-015,0.));
#817=DIRECTION('',(0.,-2.65925990867873E-015,-1.));
#818=DIRECTION('',(-1.48685739458725E-015,-1.,2.65925990867873E-015));
#819=DIRECTION('',(0.,-2.65925990867873E-015,-1.));
#820=DIRECTION('',(-1.48685739458725E-015,-1.,2.65925990867873E-015));
#821=DIRECTION('',(0.,-2.65925990867873E-015,-1.));
#822=DIRECTION('',(-1.48685739458725E-015,-1.,2.65925990867873E-015));
#823=DIRECTION('',(0.,-2.65925990867873E-015,-1.));
#824=DIRECTION('',(-1.48685739458725E-015,-1.,2.65925990867873E-015));
#825=DIRECTION('',(0.420054929212019,0.,-0.907498681235783));
#826=DIRECTION('',(0.907498681235783,-2.32285892077194E-016,0.420054929212019)
);
#827=DIRECTION('',(0.944836220001304,0.,-0.32754315345256));
#828=DIRECTION('',(0.32754315345256,2.02555512035966E-015,0.944836220001304));
#829=DIRECTION('',(0.327543153452603,0.,0.944836220001289));
#830=DIRECTION('',(-0.944836220001289,2.27585909672149E-015,0.327543153452603)
);
#831=DIRECTION('',(0.946621697336275,0.,0.322346649016537));
#832=DIRECTION('',(-0.322346649016537,2.99659662712243E-015,0.946621697336275)
);
#833=DIRECTION('',(0.,-2.65925990867873E-015,-1.));
#834=DIRECTION('',(-1.48685739458725E-015,-1.,2.65925990867873E-015));
#835=DIRECTION('',(0.,-2.65925990867873E-015,-1.));
#836=DIRECTION('',(-1.48685739458725E-015,-1.,2.65925990867873E-015));
#837=DIRECTION('',(0.133856207135931,0.,0.991000764788394));
#838=DIRECTION('',(-0.991000764788394,1.82943526033162E-015,0.133856207135931)
);
#839=DIRECTION('',(0.998912117770514,0.,0.046632402589043));
#840=DIRECTION('',(-0.046632402589043,2.72570267969739E-015,0.998912117770514)
);
#841=DIRECTION('',(0.998912117770511,0.,0.0466324025891078));
#842=DIRECTION('',(-0.0466324025891078,2.72570267969747E-015,0.998912117770511
));
#843=DIRECTION('',(0.998912117770514,-2.46519032881566E-032,0.0466324025890454
));
#844=DIRECTION('',(-0.0466324025890454,2.72570267969739E-015,0.998912117770514
));
#845=DIRECTION('',(0.763850899844752,0.,0.645392750816402));
#846=DIRECTION('',(-0.645392750816402,2.9908850581297E-015,0.763850899844752)
);
#847=DIRECTION('',(0.084234539934702,0.,0.996445955524929));
#848=DIRECTION('',(-0.996445955524929,1.70557457225315E-015,0.084234539934702)
);
#849=DIRECTION('',(0.0842345399346311,0.,0.996445955524935));
#850=DIRECTION('',(-0.996445955524935,1.70557457225297E-015,0.0842345399346311
));
#851=DIRECTION('',(0.,0.,-1.));
#852=DIRECTION('',(0.,-1.,0.));
#853=DIRECTION('',(0.,0.,-1.));
#854=DIRECTION('',(0.,-1.,0.));
#855=CARTESIAN_POINT('',(0.,0.,0.));
#856=CARTESIAN_POINT('',(132.899426335468,-377.746106,2182.3530079713));
#857=CARTESIAN_POINT('',(119.486785686636,-377.746106,2184.78475529358));
#858=CARTESIAN_POINT('',(119.486785686638,-377.746106,2184.78475529358));
#859=CARTESIAN_POINT('',(119.486785686668,-377.746106,2184.78475529357));
#860=CARTESIAN_POINT('',(120.623286875297,1622.253894,2162.81473295217));
#861=CARTESIAN_POINT('',(120.84878196034,1622.253894,2165.48220956753));
#862=CARTESIAN_POINT('',(121.112606025941,1622.253894,2168.60309588498));
#863=CARTESIAN_POINT('',(134.440995883701,1622.253894,2179.86451640043));
#864=CARTESIAN_POINT('',(138.249814394738,1622.253894,2180.04232419256));
#865=CARTESIAN_POINT('',(141.421083271687,1622.253894,2180.19036913501));
#866=CARTESIAN_POINT('',(150.237916653619,1622.253894,2180.60196702887));
#867=CARTESIAN_POINT('',(151.107982000003,1622.253894,2187.04347199999));
#868=CARTESIAN_POINT('',(186.50813109345,1622.253894,2222.81077406763));
#869=CARTESIAN_POINT('',(232.436151000003,1622.253894,2215.26528899999));
#870=CARTESIAN_POINT('',(237.675377000003,1622.253894,2217.04936699999));
#871=CARTESIAN_POINT('',(238.869624000003,1622.253894,2220.49431099999));
#872=CARTESIAN_POINT('',(241.704132660007,1622.253894,2219.51168153964));
#873=CARTESIAN_POINT('',(242.380550015112,1622.253894,2218.05033014239));
#874=CARTESIAN_POINT('',(253.926152491204,1622.253894,2214.31078281143));
#875=CARTESIAN_POINT('',(260.507917666507,1622.253894,2219.21732262162));
#876=CARTESIAN_POINT('',(292.389754403335,1622.253894,2231.88218169981));
#877=CARTESIAN_POINT('',(300.326004000003,1622.253894,2238.72840400687));
#878=CARTESIAN_POINT('',(300.326004000003,1622.253894,2249.49999999999));
#879=CARTESIAN_POINT('',(267.032493041655,1622.253894,2249.5));
#880=CARTESIAN_POINT('',(240.934332000003,1622.253894,2237.17361399999));
#881=CARTESIAN_POINT('',(171.473387456148,1622.253894,2234.57347142175));
#882=CARTESIAN_POINT('',(103.080454000003,1622.253894,2168.86212999999));
#883=CARTESIAN_POINT('',(103.080454000003,1622.253894,2140.86212999999));
#884=CARTESIAN_POINT('',(113.580454000003,1622.253894,2140.86212999999));
#885=CARTESIAN_POINT('',(114.666695971196,1622.253894,2151.52069790747));
#886=CARTESIAN_POINT('',(119.665308977766,1622.253894,2151.48240773003));
#887=CARTESIAN_POINT('',(120.623286875294,-377.746106,2162.81473295217));
#888=CARTESIAN_POINT('',(120.848781960337,-377.746106,2165.48220956754));
#889=CARTESIAN_POINT('',(121.112606025938,-377.746106,2168.60309588499));
#890=CARTESIAN_POINT('',(134.440995883698,-377.746106,2179.86451640043));
#891=CARTESIAN_POINT('',(138.249814394735,-377.746106,2180.04232419256));
#892=CARTESIAN_POINT('',(141.421083271684,-377.746106,2180.19036913501));
#893=CARTESIAN_POINT('',(150.237916653616,-377.746106,2180.60196702888));
#894=CARTESIAN_POINT('',(151.107982,-377.746106,2187.043472));
#895=CARTESIAN_POINT('',(186.508131093447,-377.746106,2222.81077406764));
#896=CARTESIAN_POINT('',(232.436151,-377.746106,2215.265289));
#897=CARTESIAN_POINT('',(237.675377,-377.746106,2217.049367));
#898=CARTESIAN_POINT('',(238.869624,-377.746106,2220.494311));
#899=CARTESIAN_POINT('',(241.704132660004,-377.746106,2219.51168153964));
#900=CARTESIAN_POINT('',(242.380550015109,-377.746106,2218.0503301424));
#901=CARTESIAN_POINT('',(253.926152491201,-377.746106,2214.31078281143));
#902=CARTESIAN_POINT('',(260.507917666504,-377.746106,2219.21732262163));
#903=CARTESIAN_POINT('',(292.389754403332,-377.746106,2231.88218169981));
#904=CARTESIAN_POINT('',(300.326004,-377.746106,2238.72840400687));
#905=CARTESIAN_POINT('',(300.326004,-377.746106,2249.5));
#906=CARTESIAN_POINT('',(267.032493041651,-377.746106,2249.5));
#907=CARTESIAN_POINT('',(240.934332,-377.746106,2237.173614));
#908=CARTESIAN_POINT('',(171.473387456145,-377.746106,2234.57347142176));
#909=CARTESIAN_POINT('',(103.080454,-377.746106,2168.86213));
#910=CARTESIAN_POINT('',(103.080454,-377.746106,2140.86213));
#911=CARTESIAN_POINT('',(113.580454,-377.746106,2140.86213));
#912=CARTESIAN_POINT('',(114.666695971193,-377.746106,2151.52069790748));
#913=CARTESIAN_POINT('',(119.665308977763,-377.746106,2151.48240773003));
#914=CARTESIAN_POINT('',(119.665308977766,1622.253894,2151.48240773003));
#915=CARTESIAN_POINT('',(114.666695971196,1622.253894,2151.52069790747));
#916=CARTESIAN_POINT('',(113.580454000003,1622.253894,2140.86212999999));
#917=CARTESIAN_POINT('',(103.080454000003,1622.253894,2140.86212999999));
#918=CARTESIAN_POINT('',(103.080454000003,1622.253894,2168.86212999999));
#919=CARTESIAN_POINT('',(171.473387456148,1622.253894,2234.57347142175));
#920=CARTESIAN_POINT('',(240.934332000003,1622.253894,2237.17361399999));
#921=CARTESIAN_POINT('',(267.032493041655,1622.253894,2249.5));
#922=CARTESIAN_POINT('',(300.326004000003,1622.253894,2249.49999999999));
#923=CARTESIAN_POINT('',(300.326004000003,1622.253894,2238.72840400687));
#924=CARTESIAN_POINT('',(292.389754403335,1622.253894,2231.88218169981));
#925=CARTESIAN_POINT('',(260.507917666507,1622.253894,2219.21732262162));
#926=CARTESIAN_POINT('',(253.926152491204,1622.253894,2214.31078281143));
#927=CARTESIAN_POINT('',(242.380550015112,1622.253894,2218.05033014239));
#928=CARTESIAN_POINT('',(241.704132660007,1622.253894,2219.51168153964));
#929=CARTESIAN_POINT('',(238.869624000003,1622.253894,2220.49431099999));
#930=CARTESIAN_POINT('',(237.675377000003,1622.253894,2217.04936699999));
#931=CARTESIAN_POINT('',(232.436151000003,1622.253894,2215.26528899999));
#932=CARTESIAN_POINT('',(186.50813109345,1622.253894,2222.81077406763));
#933=CARTESIAN_POINT('',(151.107982000003,1622.253894,2187.04347199999));
#934=CARTESIAN_POINT('',(150.237916653619,1622.253894,2180.60196702887));
#935=CARTESIAN_POINT('',(141.421083271687,1622.253894,2180.19036913501));
#936=CARTESIAN_POINT('',(138.249814394738,1622.253894,2180.04232419256));
#937=CARTESIAN_POINT('',(134.440995883701,1622.253894,2179.86451640043));
#938=CARTESIAN_POINT('',(121.112606025941,1622.253894,2168.60309588498));
#939=CARTESIAN_POINT('',(120.84878196034,1622.253894,2165.48220956753));
#940=CARTESIAN_POINT('',(120.623286875297,1622.253894,2162.81473295217));
#941=CARTESIAN_POINT('',(120.84878196034,1622.253894,2165.48220956753));
#942=CARTESIAN_POINT('',(121.112606025941,1622.253894,2168.60309588498));
#943=CARTESIAN_POINT('',(134.440995883701,1622.253894,2179.86451640043));
#944=CARTESIAN_POINT('',(138.249814394738,1622.253894,2180.04232419256));
#945=CARTESIAN_POINT('',(141.421083271687,1622.253894,2180.19036913501));
#946=CARTESIAN_POINT('',(150.237916653619,1622.253894,2180.60196702887));
#947=CARTESIAN_POINT('',(151.107982000003,1622.253894,2187.04347199999));
#948=CARTESIAN_POINT('',(192.53018585793,1622.253894,2181.44850245341));
#949=CARTESIAN_POINT('',(197.588594048859,1622.253894,2146.70500347979));
#950=CARTESIAN_POINT('',(237.675377000003,1622.253894,2217.04936699999));
#951=CARTESIAN_POINT('',(238.869624000003,1622.253894,2220.49431099999));
#952=CARTESIAN_POINT('',(241.704132660007,1622.253894,2219.51168153964));
#953=CARTESIAN_POINT('',(242.380550015112,1622.253894,2218.05033014239));
#954=CARTESIAN_POINT('',(249.883863443874,1622.253894,2221.52339721824));
#955=CARTESIAN_POINT('',(238.418523180608,1622.253894,2241.9808848927));
#956=CARTESIAN_POINT('',(291.756517409109,1622.253894,2187.01501637104));
#957=CARTESIAN_POINT('',(302.867900072422,1622.253894,2227.75877329955));
#958=CARTESIAN_POINT('',(300.326004000003,1622.253894,2249.49999999999));
#959=CARTESIAN_POINT('',(267.032493041655,1622.253894,2249.49999999999));
#960=CARTESIAN_POINT('',(240.934332000003,1622.253894,2237.17361399999));
#961=CARTESIAN_POINT('',(171.473387456148,1622.253894,2234.57347142175));
#962=CARTESIAN_POINT('',(103.080454000003,1622.253894,2168.86212999999));
#963=CARTESIAN_POINT('',(103.080454000003,1622.253894,2140.86212999999));
#964=CARTESIAN_POINT('',(113.580454000003,1622.253894,2140.86212999999));
#965=CARTESIAN_POINT('',(114.666695971196,1622.253894,2151.52069790747));
#966=CARTESIAN_POINT('',(119.665308977766,1622.253894,2151.48240773003));
#967=CARTESIAN_POINT('',(120.623286875297,1622.253894,2162.81473295217));
#968=CARTESIAN_POINT('',(120.848781960337,-377.746106,2165.48220956754));
#969=CARTESIAN_POINT('',(121.112606025938,-377.746106,2168.60309588499));
#970=CARTESIAN_POINT('',(134.440995883698,-377.746106,2179.86451640043));
#971=CARTESIAN_POINT('',(138.249814394735,-377.746106,2180.04232419256));
#972=CARTESIAN_POINT('',(141.421083271684,-377.746106,2180.19036913501));
#973=CARTESIAN_POINT('',(150.237916653616,-377.746106,2180.60196702888));
#974=CARTESIAN_POINT('',(151.107982,-377.746106,2187.043472));
#975=CARTESIAN_POINT('',(192.530185857927,-377.746106,2181.44850245342));
#976=CARTESIAN_POINT('',(197.588594048856,-377.746106,2146.7050034798));
#977=CARTESIAN_POINT('',(237.675377,-377.746106,2217.049367));
#978=CARTESIAN_POINT('',(238.869624,-377.746106,2220.494311));
#979=CARTESIAN_POINT('',(241.704132660004,-377.746106,2219.51168153964));
#980=CARTESIAN_POINT('',(242.380550015109,-377.746106,2218.0503301424));
#981=CARTESIAN_POINT('',(249.883863443871,-377.746106,2221.52339721825));
#982=CARTESIAN_POINT('',(238.418523180605,-377.746106,2241.9808848927));
#983=CARTESIAN_POINT('',(291.756517409106,-377.746106,2187.01501637105));
#984=CARTESIAN_POINT('',(302.867900072419,-377.746106,2227.75877329955));
#985=CARTESIAN_POINT('',(300.326004,-377.746106,2249.5));
#986=CARTESIAN_POINT('',(267.032493041651,-377.746106,2249.5));
#987=CARTESIAN_POINT('',(240.934332,-377.746106,2237.173614));
#988=CARTESIAN_POINT('',(171.473387456145,-377.746106,2234.57347142176));
#989=CARTESIAN_POINT('',(103.080454,-377.746106,2168.86213));
#990=CARTESIAN_POINT('',(103.080454,-377.746106,2140.86213));
#991=CARTESIAN_POINT('',(113.580454,-377.746106,2140.86213));
#992=CARTESIAN_POINT('',(114.666695971193,-377.746106,2151.52069790748));
#993=CARTESIAN_POINT('',(119.665308977763,-377.746106,2151.48240773003));
#994=CARTESIAN_POINT('',(120.623286875294,-377.746106,2162.81473295217));
#995=CARTESIAN_POINT('',(120.623286875297,1622.253894,2162.81473295217));
#996=CARTESIAN_POINT('',(119.665308977766,1622.253894,2151.48240773003));
#997=CARTESIAN_POINT('',(114.666695971196,1622.253894,2151.52069790747));
#998=CARTESIAN_POINT('',(113.580454000003,1622.253894,2140.86212999999));
#999=CARTESIAN_POINT('',(103.080454000003,1622.253894,2140.86212999999));
#1000=CARTESIAN_POINT('',(103.080454000003,1622.253894,2168.86212999999));
#1001=CARTESIAN_POINT('',(171.473387456148,1622.253894,2234.57347142175));
#1002=CARTESIAN_POINT('',(240.934332000003,1622.253894,2237.17361399999));
#1003=CARTESIAN_POINT('',(267.032493041655,1622.253894,2249.49999999999));
#1004=CARTESIAN_POINT('',(300.326004000003,1622.253894,2249.49999999999));
#1005=CARTESIAN_POINT('',(302.867900072422,1622.253894,2227.75877329955));
#1006=CARTESIAN_POINT('',(291.756517409109,1622.253894,2187.01501637104));
#1007=CARTESIAN_POINT('',(238.418523180608,1622.253894,2241.9808848927));
#1008=CARTESIAN_POINT('',(249.883863443874,1622.253894,2221.52339721824));
#1009=CARTESIAN_POINT('',(242.380550015112,1622.253894,2218.05033014239));
#1010=CARTESIAN_POINT('',(241.704132660007,1622.253894,2219.51168153964));
#1011=CARTESIAN_POINT('',(238.869624000003,1622.253894,2220.49431099999));
#1012=CARTESIAN_POINT('',(237.675377000003,1622.253894,2217.04936699999));
#1013=CARTESIAN_POINT('',(197.588594048859,1622.253894,2146.70500347979));
#1014=CARTESIAN_POINT('',(192.53018585793,1622.253894,2181.44850245341));
#1015=CARTESIAN_POINT('',(151.107982000003,1622.253894,2187.04347199999));
#1016=CARTESIAN_POINT('',(150.237916653619,1622.253894,2180.60196702887));
#1017=CARTESIAN_POINT('',(141.421083271687,1622.253894,2180.19036913501));
#1018=CARTESIAN_POINT('',(138.249814394738,1622.253894,2180.04232419256));
#1019=CARTESIAN_POINT('',(134.440995883701,1622.253894,2179.86451640043));
#1020=CARTESIAN_POINT('',(121.112606025941,1622.253894,2168.60309588498));
#1021=CARTESIAN_POINT('',(120.84878196034,1622.253894,2165.48220956753));
#1022=CARTESIAN_POINT('',(302.867900072422,1622.253894,2227.75877329955));
#1023=CARTESIAN_POINT('',(302.867900072419,-377.746106,2227.75877329955));
#1024=PRODUCT_DEFINITION_SHAPE('','',#1025);
#1025=PRODUCT_DEFINITION('','',#1037,#1042);
#1026=(
GEOMETRIC_REPRESENTATION_CONTEXT(3)
GLOBAL_UNCERTAINTY_ASSIGNED_CONTEXT((#1027))
GLOBAL_UNIT_ASSIGNED_CONTEXT((#1029,#1028,#1032))
REPRESENTATION_CONTEXT('','')
);
#1027=UNCERTAINTY_MEASURE_WITH_UNIT(LENGTH_MEASURE(0.001),#1029,'','tolerance'
);
#1028=(
CONVERSION_BASED_UNIT('',#1030)
NAMED_UNIT(#1036)
PLANE_ANGLE_UNIT()
);
#1029=(
CONVERSION_BASED_UNIT('',#1031)
LENGTH_UNIT()
NAMED_UNIT(#1035)
);
#1030=PLANE_ANGLE_MEASURE_WITH_UNIT(PLANE_ANGLE_MEASURE(0.0174532925199433),
#1033);
#1031=LENGTH_MEASURE_WITH_UNIT(LENGTH_MEASURE(1.),#1034);
#1032=(
NAMED_UNIT(*)
SI_UNIT($,.STERADIAN.)
SOLID_ANGLE_UNIT()
);
#1033=(
NAMED_UNIT(*)
PLANE_ANGLE_UNIT()
SI_UNIT($,.RADIAN.)
);
#1034=(
LENGTH_UNIT()
NAMED_UNIT(*)
SI_UNIT(.MILLI.,.METRE.)
);
#1035=DIMENSIONAL_EXPONENTS(1.,0.,0.,0.,0.,0.,0.);
#1036=DIMENSIONAL_EXPONENTS(0.,0.,0.,0.,0.,0.,0.);
#1037=PRODUCT_DEFINITION_FORMATION_WITH_SPECIFIED_SOURCE('','',#1040,
.NOT_KNOWN.);
#1038=PRODUCT_CATEGORY_RELATIONSHIP('','',#1043,#1039);
#1039=PRODUCT_RELATED_PRODUCT_CATEGORY('assembly','',(#1040));
#1040=PRODUCT('','master','',(#1041));
#1041=PRODUCT_CONTEXT('',#1045,'');
#1042=PRODUCT_DEFINITION_CONTEXT('',#1045,'part_definition');
#1043=PRODUCT_CATEGORY('part','');
#1044=APPLICATION_PROTOCOL_DEFINITION('international standard',
'automotive_design_cc2',1994,#1045);
#1045=APPLICATION_CONTEXT(
'configuration controlled 3D designs of mechanical parts and assemblies');
ENDSEC;
END-ISO-10303-21;
49722