ISO-10303-21;
HEADER;
/* Generated by software using Delcam plc STEP library */

FILE_DESCRIPTION(
/* description */ ('AP-214 File'),
/* implementation_level */ '2;1');

FILE_NAME(
/* name */ 'D520',
/* time_stamp */ 'Wed Dec 21 14:59:08 2016',
/* author */ (''),
/* organization */ (''),
/* preprocessor_version */ 'DELCAM STEP V1',
/* originating_system */ 'Exchange7.1.0006',
/* authorisation */ '');

FILE_SCHEMA (('AUTOMOTIVE_DESIGN'));
ENDSEC;
DATA;
#10=PRESENTATION_STYLE_ASSIGNMENT((#20));
#11=PRESENTATION_STYLE_ASSIGNMENT((#21));
#12=SURFACE_SIDE_STYLE('',(#14));
#13=SURFACE_SIDE_STYLE('',(#15));
#14=SURFACE_STYLE_FILL_AREA(#16);
#15=SURFACE_STYLE_FILL_AREA(#17);
#16=FILL_AREA_STYLE('',(#18));
#17=FILL_AREA_STYLE('',(#19));
#18=FILL_AREA_STYLE_COLOUR('',#45);
#19=FILL_AREA_STYLE_COLOUR('',#46);
#20=SURFACE_STYLE_USAGE(.BOTH.,#12);
#21=SURFACE_STYLE_USAGE(.BOTH.,#13);
#22=STYLED_ITEM('',(#10),#61);
#23=STYLED_ITEM('',(#10),#62);
#24=STYLED_ITEM('',(#10),#63);
#25=STYLED_ITEM('',(#10),#64);
#26=STYLED_ITEM('',(#10),#65);
#27=STYLED_ITEM('',(#10),#66);
#28=STYLED_ITEM('',(#10),#67);
#29=STYLED_ITEM('',(#10),#68);
#30=STYLED_ITEM('',(#10),#69);
#31=STYLED_ITEM('',(#10),#70);
#32=STYLED_ITEM('',(#10),#71);
#33=STYLED_ITEM('',(#10),#72);
#34=STYLED_ITEM('',(#10),#73);
#35=STYLED_ITEM('',(#10),#74);
#36=STYLED_ITEM('',(#10),#75);
#37=STYLED_ITEM('',(#10),#76);
#38=STYLED_ITEM('',(#10),#77);
#39=STYLED_ITEM('',(#10),#78);
#40=STYLED_ITEM('',(#10),#79);
#41=STYLED_ITEM('',(#10),#80);
#42=STYLED_ITEM('',(#10),#81);
#43=STYLED_ITEM('',(#10),#82);
#44=STYLED_ITEM('',(#11),#52);
#45=COLOUR_RGB('',0.,0.,0.);
#46=COLOUR_RGB('rgb_colour_1',0.4,0.4,0.4);
#47=MECHANICAL_DESIGN_GEOMETRIC_PRESENTATION_REPRESENTATION('',(#22,#23,#24,
#25,#26,#27,#28,#29,#30,#31,#32,#33,#34,#35,#36,#37,#38,#39,#40,#41,#42,#43,
#44),#753);
#48=PRESENTATION_LAYER_ASSIGNMENT('73','D520',(#61,#62,#63,#64,#65,#66,#67,#68
,#69,#70,#71,#72,#73,#74,#75,#76,#77,#78,#79,#80,#81,#82,#52));
#49=SHAPE_REPRESENTATION_RELATIONSHIP('','',#466,#50);
#50=ADVANCED_BREP_SHAPE_REPRESENTATION('',(#51),#753);
#51=MANIFOLD_SOLID_BREP('962',#52);
#52=CLOSED_SHELL('',(#61,#62,#63,#64,#65,#66,#67,#68,#69,#70,#71,#72,#73,#74,
#75,#76,#77,#78,#79,#80,#81,#82));
#53=CYLINDRICAL_SURFACE('',#485,51.1664796966718);
#54=CYLINDRICAL_SURFACE('',#486,10.3239514726984);
#55=CYLINDRICAL_SURFACE('',#488,30.6699111870818);
#56=CYLINDRICAL_SURFACE('',#489,15.1330781717743);
#57=CYLINDRICAL_SURFACE('',#490,771.124008170269);
#58=CYLINDRICAL_SURFACE('',#491,8.20143924771198);
#59=CYLINDRICAL_SURFACE('',#492,38.3340847646455);
#60=CYLINDRICAL_SURFACE('',#495,11.6639483290995);
#61=ADVANCED_FACE('',(#83),#247,.F.);
#62=ADVANCED_FACE('',(#84),#53,.F.);
#63=ADVANCED_FACE('',(#85),#54,.F.);
#64=ADVANCED_FACE('',(#86),#248,.F.);
#65=ADVANCED_FACE('',(#87),#55,.T.);
#66=ADVANCED_FACE('',(#88),#56,.T.);
#67=ADVANCED_FACE('',(#89),#57,.T.);
#68=ADVANCED_FACE('',(#90),#58,.F.);
#69=ADVANCED_FACE('',(#91),#59,.F.);
#70=ADVANCED_FACE('',(#92),#249,.F.);
#71=ADVANCED_FACE('',(#93),#250,.F.);
#72=ADVANCED_FACE('',(#94),#60,.T.);
#73=ADVANCED_FACE('',(#95),#251,.F.);
#74=ADVANCED_FACE('',(#96),#252,.F.);
#75=ADVANCED_FACE('',(#97),#253,.F.);
#76=ADVANCED_FACE('',(#98),#254,.F.);
#77=ADVANCED_FACE('',(#99),#255,.F.);
#78=ADVANCED_FACE('',(#100),#256,.F.);
#79=ADVANCED_FACE('',(#101),#257,.F.);
#80=ADVANCED_FACE('',(#102),#258,.F.);
#81=ADVANCED_FACE('',(#103),#259,.F.);
#82=ADVANCED_FACE('',(#104),#260,.T.);
#83=FACE_OUTER_BOUND('',#105,.T.);
#84=FACE_OUTER_BOUND('',#106,.T.);
#85=FACE_OUTER_BOUND('',#107,.T.);
#86=FACE_OUTER_BOUND('',#108,.T.);
#87=FACE_OUTER_BOUND('',#109,.T.);
#88=FACE_OUTER_BOUND('',#110,.T.);
#89=FACE_OUTER_BOUND('',#111,.T.);
#90=FACE_OUTER_BOUND('',#112,.T.);
#91=FACE_OUTER_BOUND('',#113,.T.);
#92=FACE_OUTER_BOUND('',#114,.T.);
#93=FACE_OUTER_BOUND('',#115,.T.);
#94=FACE_OUTER_BOUND('',#116,.T.);
#95=FACE_OUTER_BOUND('',#117,.T.);
#96=FACE_OUTER_BOUND('',#118,.T.);
#97=FACE_OUTER_BOUND('',#119,.T.);
#98=FACE_OUTER_BOUND('',#120,.T.);
#99=FACE_OUTER_BOUND('',#121,.T.);
#100=FACE_OUTER_BOUND('',#122,.T.);
#101=FACE_OUTER_BOUND('',#123,.T.);
#102=FACE_OUTER_BOUND('',#124,.T.);
#103=FACE_OUTER_BOUND('',#125,.T.);
#104=FACE_OUTER_BOUND('',#126,.T.);
#105=EDGE_LOOP('',(#127,#128,#129,#130));
#106=EDGE_LOOP('',(#131,#132,#133,#134));
#107=EDGE_LOOP('',(#135,#136,#137,#138));
#108=EDGE_LOOP('',(#139,#140,#141,#142));
#109=EDGE_LOOP('',(#143,#144,#145,#146));
#110=EDGE_LOOP('',(#147,#148,#149,#150));
#111=EDGE_LOOP('',(#151,#152,#153,#154));
#112=EDGE_LOOP('',(#155,#156,#157,#158));
#113=EDGE_LOOP('',(#159,#160,#161,#162));
#114=EDGE_LOOP('',(#163,#164,#165,#166));
#115=EDGE_LOOP('',(#167,#168,#169,#170));
#116=EDGE_LOOP('',(#171,#172,#173,#174));
#117=EDGE_LOOP('',(#175,#176,#177,#178));
#118=EDGE_LOOP('',(#179,#180,#181,#182));
#119=EDGE_LOOP('',(#183,#184,#185,#186));
#120=EDGE_LOOP('',(#187,#188,#189,#190));
#121=EDGE_LOOP('',(#191,#192,#193,#194));
#122=EDGE_LOOP('',(#195,#196,#197,#198));
#123=EDGE_LOOP('',(#199,#200,#201,#202));
#124=EDGE_LOOP('',(#203,#204,#205,#206));
#125=EDGE_LOOP('',(#207,#208,#209,#210,#211,#212,#213,#214,#215,#216,#217,#218
,#219,#220,#221,#222,#223,#224,#225,#226));
#126=EDGE_LOOP('',(#227,#228,#229,#230,#231,#232,#233,#234,#235,#236,#237,#238
,#239,#240,#241,#242,#243,#244,#245,#246));
#127=ORIENTED_EDGE('',*,*,#336,.T.);
#128=ORIENTED_EDGE('',*,*,#277,.F.);
#129=ORIENTED_EDGE('',*,*,#316,.F.);
#130=ORIENTED_EDGE('',*,*,#296,.T.);
#131=ORIENTED_EDGE('',*,*,#335,.T.);
#132=ORIENTED_EDGE('',*,*,#278,.F.);
#133=ORIENTED_EDGE('',*,*,#315,.F.);
#134=ORIENTED_EDGE('',*,*,#277,.T.);
#135=ORIENTED_EDGE('',*,*,#334,.T.);
#136=ORIENTED_EDGE('',*,*,#279,.F.);
#137=ORIENTED_EDGE('',*,*,#314,.F.);
#138=ORIENTED_EDGE('',*,*,#278,.T.);
#139=ORIENTED_EDGE('',*,*,#333,.T.);
#140=ORIENTED_EDGE('',*,*,#280,.F.);
#141=ORIENTED_EDGE('',*,*,#313,.F.);
#142=ORIENTED_EDGE('',*,*,#279,.T.);
#143=ORIENTED_EDGE('',*,*,#332,.T.);
#144=ORIENTED_EDGE('',*,*,#281,.F.);
#145=ORIENTED_EDGE('',*,*,#312,.F.);
#146=ORIENTED_EDGE('',*,*,#280,.T.);
#147=ORIENTED_EDGE('',*,*,#331,.T.);
#148=ORIENTED_EDGE('',*,*,#282,.F.);
#149=ORIENTED_EDGE('',*,*,#311,.F.);
#150=ORIENTED_EDGE('',*,*,#281,.T.);
#151=ORIENTED_EDGE('',*,*,#330,.T.);
#152=ORIENTED_EDGE('',*,*,#283,.F.);
#153=ORIENTED_EDGE('',*,*,#310,.F.);
#154=ORIENTED_EDGE('',*,*,#282,.T.);
#155=ORIENTED_EDGE('',*,*,#329,.T.);
#156=ORIENTED_EDGE('',*,*,#284,.F.);
#157=ORIENTED_EDGE('',*,*,#309,.F.);
#158=ORIENTED_EDGE('',*,*,#283,.T.);
#159=ORIENTED_EDGE('',*,*,#328,.T.);
#160=ORIENTED_EDGE('',*,*,#285,.F.);
#161=ORIENTED_EDGE('',*,*,#308,.F.);
#162=ORIENTED_EDGE('',*,*,#284,.T.);
#163=ORIENTED_EDGE('',*,*,#327,.T.);
#164=ORIENTED_EDGE('',*,*,#286,.F.);
#165=ORIENTED_EDGE('',*,*,#307,.F.);
#166=ORIENTED_EDGE('',*,*,#285,.T.);
#167=ORIENTED_EDGE('',*,*,#326,.T.);
#168=ORIENTED_EDGE('',*,*,#287,.F.);
#169=ORIENTED_EDGE('',*,*,#306,.F.);
#170=ORIENTED_EDGE('',*,*,#286,.T.);
#171=ORIENTED_EDGE('',*,*,#325,.T.);
#172=ORIENTED_EDGE('',*,*,#288,.F.);
#173=ORIENTED_EDGE('',*,*,#305,.F.);
#174=ORIENTED_EDGE('',*,*,#287,.T.);
#175=ORIENTED_EDGE('',*,*,#324,.T.);
#176=ORIENTED_EDGE('',*,*,#289,.F.);
#177=ORIENTED_EDGE('',*,*,#304,.F.);
#178=ORIENTED_EDGE('',*,*,#288,.T.);
#179=ORIENTED_EDGE('',*,*,#323,.T.);
#180=ORIENTED_EDGE('',*,*,#290,.F.);
#181=ORIENTED_EDGE('',*,*,#303,.F.);
#182=ORIENTED_EDGE('',*,*,#289,.T.);
#183=ORIENTED_EDGE('',*,*,#322,.T.);
#184=ORIENTED_EDGE('',*,*,#291,.F.);
#185=ORIENTED_EDGE('',*,*,#302,.F.);
#186=ORIENTED_EDGE('',*,*,#290,.T.);
#187=ORIENTED_EDGE('',*,*,#321,.T.);
#188=ORIENTED_EDGE('',*,*,#292,.F.);
#189=ORIENTED_EDGE('',*,*,#301,.F.);
#190=ORIENTED_EDGE('',*,*,#291,.T.);
#191=ORIENTED_EDGE('',*,*,#320,.T.);
#192=ORIENTED_EDGE('',*,*,#293,.F.);
#193=ORIENTED_EDGE('',*,*,#300,.F.);
#194=ORIENTED_EDGE('',*,*,#292,.T.);
#195=ORIENTED_EDGE('',*,*,#319,.T.);
#196=ORIENTED_EDGE('',*,*,#294,.F.);
#197=ORIENTED_EDGE('',*,*,#299,.F.);
#198=ORIENTED_EDGE('',*,*,#293,.T.);
#199=ORIENTED_EDGE('',*,*,#318,.T.);
#200=ORIENTED_EDGE('',*,*,#295,.F.);
#201=ORIENTED_EDGE('',*,*,#298,.F.);
#202=ORIENTED_EDGE('',*,*,#294,.T.);
#203=ORIENTED_EDGE('',*,*,#317,.T.);
#204=ORIENTED_EDGE('',*,*,#296,.F.);
#205=ORIENTED_EDGE('',*,*,#297,.F.);
#206=ORIENTED_EDGE('',*,*,#295,.T.);
#207=ORIENTED_EDGE('',*,*,#316,.T.);
#208=ORIENTED_EDGE('',*,*,#315,.T.);
#209=ORIENTED_EDGE('',*,*,#314,.T.);
#210=ORIENTED_EDGE('',*,*,#313,.T.);
#211=ORIENTED_EDGE('',*,*,#312,.T.);
#212=ORIENTED_EDGE('',*,*,#311,.T.);
#213=ORIENTED_EDGE('',*,*,#310,.T.);
#214=ORIENTED_EDGE('',*,*,#309,.T.);
#215=ORIENTED_EDGE('',*,*,#308,.T.);
#216=ORIENTED_EDGE('',*,*,#307,.T.);
#217=ORIENTED_EDGE('',*,*,#306,.T.);
#218=ORIENTED_EDGE('',*,*,#305,.T.);
#219=ORIENTED_EDGE('',*,*,#304,.T.);
#220=ORIENTED_EDGE('',*,*,#303,.T.);
#221=ORIENTED_EDGE('',*,*,#302,.T.);
#222=ORIENTED_EDGE('',*,*,#301,.T.);
#223=ORIENTED_EDGE('',*,*,#300,.T.);
#224=ORIENTED_EDGE('',*,*,#299,.T.);
#225=ORIENTED_EDGE('',*,*,#298,.T.);
#226=ORIENTED_EDGE('',*,*,#297,.T.);
#227=ORIENTED_EDGE('',*,*,#336,.F.);
#228=ORIENTED_EDGE('',*,*,#317,.F.);
#229=ORIENTED_EDGE('',*,*,#318,.F.);
#230=ORIENTED_EDGE('',*,*,#319,.F.);
#231=ORIENTED_EDGE('',*,*,#320,.F.);
#232=ORIENTED_EDGE('',*,*,#321,.F.);
#233=ORIENTED_EDGE('',*,*,#322,.F.);
#234=ORIENTED_EDGE('',*,*,#323,.F.);
#235=ORIENTED_EDGE('',*,*,#324,.F.);
#236=ORIENTED_EDGE('',*,*,#325,.F.);
#237=ORIENTED_EDGE('',*,*,#326,.F.);
#238=ORIENTED_EDGE('',*,*,#327,.F.);
#239=ORIENTED_EDGE('',*,*,#328,.F.);
#240=ORIENTED_EDGE('',*,*,#329,.F.);
#241=ORIENTED_EDGE('',*,*,#330,.F.);
#242=ORIENTED_EDGE('',*,*,#331,.F.);
#243=ORIENTED_EDGE('',*,*,#332,.F.);
#244=ORIENTED_EDGE('',*,*,#333,.F.);
#245=ORIENTED_EDGE('',*,*,#334,.F.);
#246=ORIENTED_EDGE('',*,*,#335,.F.);
#247=PLANE('',#484);
#248=PLANE('',#487);
#249=PLANE('',#493);
#250=PLANE('',#494);
#251=PLANE('',#496);
#252=PLANE('',#497);
#253=PLANE('',#498);
#254=PLANE('',#499);
#255=PLANE('',#500);
#256=PLANE('',#501);
#257=PLANE('',#502);
#258=PLANE('',#503);
#259=PLANE('',#504);
#260=PLANE('',#505);
#261=CIRCLE('',#468,11.6639483290995);
#262=CIRCLE('',#469,38.3340847646455);
#263=CIRCLE('',#470,8.20143924771198);
#264=CIRCLE('',#471,771.124008170269);
#265=CIRCLE('',#472,15.1330781717743);
#266=CIRCLE('',#473,30.6699111870818);
#267=CIRCLE('',#474,10.3239514726984);
#268=CIRCLE('',#475,51.1664796966718);
#269=CIRCLE('',#476,11.6639483290995);
#270=CIRCLE('',#477,38.3340847646455);
#271=CIRCLE('',#478,8.20143924771198);
#272=CIRCLE('',#479,771.124008170269);
#273=CIRCLE('',#480,15.1330781717743);
#274=CIRCLE('',#481,30.6699111870818);
#275=CIRCLE('',#482,10.3239514726984);
#276=CIRCLE('',#483,51.1664796966718);
#277=EDGE_CURVE('',#444,#464,#337,.T.);
#278=EDGE_CURVE('',#443,#463,#338,.T.);
#279=EDGE_CURVE('',#442,#462,#339,.T.);
#280=EDGE_CURVE('',#441,#461,#340,.T.);
#281=EDGE_CURVE('',#440,#460,#341,.T.);
#282=EDGE_CURVE('',#439,#459,#342,.T.);
#283=EDGE_CURVE('',#438,#458,#343,.T.);
#284=EDGE_CURVE('',#437,#457,#344,.T.);
#285=EDGE_CURVE('',#436,#456,#345,.T.);
#286=EDGE_CURVE('',#435,#455,#346,.T.);
#287=EDGE_CURVE('',#434,#454,#347,.T.);
#288=EDGE_CURVE('',#433,#453,#348,.T.);
#289=EDGE_CURVE('',#432,#452,#349,.T.);
#290=EDGE_CURVE('',#431,#451,#350,.T.);
#291=EDGE_CURVE('',#430,#450,#351,.T.);
#292=EDGE_CURVE('',#429,#449,#352,.T.);
#293=EDGE_CURVE('',#428,#448,#353,.T.);
#294=EDGE_CURVE('',#427,#447,#354,.T.);
#295=EDGE_CURVE('',#426,#446,#355,.T.);
#296=EDGE_CURVE('',#425,#445,#356,.T.);
#297=EDGE_CURVE('',#426,#425,#357,.T.);
#298=EDGE_CURVE('',#427,#426,#358,.T.);
#299=EDGE_CURVE('',#428,#427,#359,.T.);
#300=EDGE_CURVE('',#429,#428,#360,.T.);
#301=EDGE_CURVE('',#430,#429,#361,.T.);
#302=EDGE_CURVE('',#431,#430,#362,.T.);
#303=EDGE_CURVE('',#432,#431,#363,.T.);
#304=EDGE_CURVE('',#433,#432,#364,.T.);
#305=EDGE_CURVE('',#434,#433,#261,.T.);
#306=EDGE_CURVE('',#435,#434,#365,.T.);
#307=EDGE_CURVE('',#436,#435,#366,.T.);
#308=EDGE_CURVE('',#437,#436,#262,.T.);
#309=EDGE_CURVE('',#438,#437,#263,.T.);
#310=EDGE_CURVE('',#439,#438,#264,.T.);
#311=EDGE_CURVE('',#440,#439,#265,.T.);
#312=EDGE_CURVE('',#441,#440,#266,.T.);
#313=EDGE_CURVE('',#442,#441,#367,.T.);
#314=EDGE_CURVE('',#443,#442,#267,.T.);
#315=EDGE_CURVE('',#444,#443,#268,.T.);
#316=EDGE_CURVE('',#425,#444,#368,.T.);
#317=EDGE_CURVE('',#446,#445,#369,.T.);
#318=EDGE_CURVE('',#447,#446,#370,.T.);
#319=EDGE_CURVE('',#448,#447,#371,.T.);
#320=EDGE_CURVE('',#449,#448,#372,.T.);
#321=EDGE_CURVE('',#450,#449,#373,.T.);
#322=EDGE_CURVE('',#451,#450,#374,.T.);
#323=EDGE_CURVE('',#452,#451,#375,.T.);
#324=EDGE_CURVE('',#453,#452,#376,.T.);
#325=EDGE_CURVE('',#454,#453,#269,.T.);
#326=EDGE_CURVE('',#455,#454,#377,.T.);
#327=EDGE_CURVE('',#456,#455,#378,.T.);
#328=EDGE_CURVE('',#457,#456,#270,.T.);
#329=EDGE_CURVE('',#458,#457,#271,.T.);
#330=EDGE_CURVE('',#459,#458,#272,.T.);
#331=EDGE_CURVE('',#460,#459,#273,.T.);
#332=EDGE_CURVE('',#461,#460,#274,.T.);
#333=EDGE_CURVE('',#462,#461,#379,.T.);
#334=EDGE_CURVE('',#463,#462,#275,.T.);
#335=EDGE_CURVE('',#464,#463,#276,.T.);
#336=EDGE_CURVE('',#445,#464,#380,.T.);
#337=LINE('',#669,#381);
#338=LINE('',#670,#382);
#339=LINE('',#671,#383);
#340=LINE('',#672,#384);
#341=LINE('',#673,#385);
#342=LINE('',#674,#386);
#343=LINE('',#675,#387);
#344=LINE('',#676,#388);
#345=LINE('',#677,#389);
#346=LINE('',#678,#390);
#347=LINE('',#679,#391);
#348=LINE('',#680,#392);
#349=LINE('',#681,#393);
#350=LINE('',#682,#394);
#351=LINE('',#683,#395);
#352=LINE('',#684,#396);
#353=LINE('',#685,#397);
#354=LINE('',#686,#398);
#355=LINE('',#687,#399);
#356=LINE('',#688,#400);
#357=LINE('',#689,#401);
#358=LINE('',#690,#402);
#359=LINE('',#691,#403);
#360=LINE('',#692,#404);
#361=LINE('',#693,#405);
#362=LINE('',#694,#406);
#363=LINE('',#695,#407);
#364=LINE('',#696,#408);
#365=LINE('',#698,#409);
#366=LINE('',#699,#410);
#367=LINE('',#705,#411);
#368=LINE('',#708,#412);
#369=LINE('',#709,#413);
#370=LINE('',#710,#414);
#371=LINE('',#711,#415);
#372=LINE('',#712,#416);
#373=LINE('',#713,#417);
#374=LINE('',#714,#418);
#375=LINE('',#715,#419);
#376=LINE('',#716,#420);
#377=LINE('',#718,#421);
#378=LINE('',#719,#422);
#379=LINE('',#725,#423);
#380=LINE('',#728,#424);
#381=VECTOR('',#508,1.);
#382=VECTOR('',#509,1.);
#383=VECTOR('',#510,1.);
#384=VECTOR('',#511,1.);
#385=VECTOR('',#512,1.);
#386=VECTOR('',#513,1.);
#387=VECTOR('',#514,1.);
#388=VECTOR('',#515,1.);
#389=VECTOR('',#516,1.);
#390=VECTOR('',#517,1.);
#391=VECTOR('',#518,1.);
#392=VECTOR('',#519,1.);
#393=VECTOR('',#520,1.);
#394=VECTOR('',#521,1.);
#395=VECTOR('',#522,1.);
#396=VECTOR('',#523,1.);
#397=VECTOR('',#524,1.);
#398=VECTOR('',#525,1.);
#399=VECTOR('',#526,1.);
#400=VECTOR('',#527,1.);
#401=VECTOR('',#528,1.);
#402=VECTOR('',#529,1.);
#403=VECTOR('',#530,1.);
#404=VECTOR('',#531,1.);
#405=VECTOR('',#532,1.);
#406=VECTOR('',#533,1.);
#407=VECTOR('',#534,1.);
#408=VECTOR('',#535,1.);
#409=VECTOR('',#538,1.);
#410=VECTOR('',#539,1.);
#411=VECTOR('',#550,1.);
#412=VECTOR('',#555,1.);
#413=VECTOR('',#556,1.);
#414=VECTOR('',#557,1.);
#415=VECTOR('',#558,1.);
#416=VECTOR('',#559,1.);
#417=VECTOR('',#560,1.);
#418=VECTOR('',#561,1.);
#419=VECTOR('',#562,1.);
#420=VECTOR('',#563,1.);
#421=VECTOR('',#566,1.);
#422=VECTOR('',#567,1.);
#423=VECTOR('',#578,1.);
#424=VECTOR('',#583,1.);
#425=VERTEX_POINT('',#629);
#426=VERTEX_POINT('',#630);
#427=VERTEX_POINT('',#631);
#428=VERTEX_POINT('',#632);
#429=VERTEX_POINT('',#633);
#430=VERTEX_POINT('',#634);
#431=VERTEX_POINT('',#635);
#432=VERTEX_POINT('',#636);
#433=VERTEX_POINT('',#637);
#434=VERTEX_POINT('',#638);
#435=VERTEX_POINT('',#639);
#436=VERTEX_POINT('',#640);
#437=VERTEX_POINT('',#641);
#438=VERTEX_POINT('',#642);
#439=VERTEX_POINT('',#643);
#440=VERTEX_POINT('',#644);
#441=VERTEX_POINT('',#645);
#442=VERTEX_POINT('',#646);
#443=VERTEX_POINT('',#647);
#444=VERTEX_POINT('',#648);
#445=VERTEX_POINT('',#649);
#446=VERTEX_POINT('',#650);
#447=VERTEX_POINT('',#651);
#448=VERTEX_POINT('',#652);
#449=VERTEX_POINT('',#653);
#450=VERTEX_POINT('',#654);
#451=VERTEX_POINT('',#655);
#452=VERTEX_POINT('',#656);
#453=VERTEX_POINT('',#657);
#454=VERTEX_POINT('',#658);
#455=VERTEX_POINT('',#659);
#456=VERTEX_POINT('',#660);
#457=VERTEX_POINT('',#661);
#458=VERTEX_POINT('',#662);
#459=VERTEX_POINT('',#663);
#460=VERTEX_POINT('',#664);
#461=VERTEX_POINT('',#665);
#462=VERTEX_POINT('',#666);
#463=VERTEX_POINT('',#667);
#464=VERTEX_POINT('',#668);
#465=SHAPE_DEFINITION_REPRESENTATION(#751,#466);
#466=SHAPE_REPRESENTATION('master',(#467),#753);
#467=AXIS2_PLACEMENT_3D('',#628,#507,#506);
#468=AXIS2_PLACEMENT_3D('',#697,#537,#536);
#469=AXIS2_PLACEMENT_3D('',#700,#541,#540);
#470=AXIS2_PLACEMENT_3D('',#701,#543,#542);
#471=AXIS2_PLACEMENT_3D('',#702,#545,#544);
#472=AXIS2_PLACEMENT_3D('',#703,#547,#546);
#473=AXIS2_PLACEMENT_3D('',#704,#549,#548);
#474=AXIS2_PLACEMENT_3D('',#706,#552,#551);
#475=AXIS2_PLACEMENT_3D('',#707,#554,#553);
#476=AXIS2_PLACEMENT_3D('',#717,#565,#564);
#477=AXIS2_PLACEMENT_3D('',#720,#569,#568);
#478=AXIS2_PLACEMENT_3D('',#721,#571,#570);
#479=AXIS2_PLACEMENT_3D('',#722,#573,#572);
#480=AXIS2_PLACEMENT_3D('',#723,#575,#574);
#481=AXIS2_PLACEMENT_3D('',#724,#577,#576);
#482=AXIS2_PLACEMENT_3D('',#726,#580,#579);
#483=AXIS2_PLACEMENT_3D('',#727,#582,#581);
#484=AXIS2_PLACEMENT_3D('',#729,#585,#584);
#485=AXIS2_PLACEMENT_3D('',#730,#587,#586);
#486=AXIS2_PLACEMENT_3D('',#731,#589,#588);
#487=AXIS2_PLACEMENT_3D('',#732,#591,#590);
#488=AXIS2_PLACEMENT_3D('',#733,#593,#592);
#489=AXIS2_PLACEMENT_3D('',#734,#595,#594);
#490=AXIS2_PLACEMENT_3D('',#735,#597,#596);
#491=AXIS2_PLACEMENT_3D('',#736,#599,#598);
#492=AXIS2_PLACEMENT_3D('',#737,#601,#600);
#493=AXIS2_PLACEMENT_3D('',#738,#603,#602);
#494=AXIS2_PLACEMENT_3D('',#739,#605,#604);
#495=AXIS2_PLACEMENT_3D('',#740,#607,#606);
#496=AXIS2_PLACEMENT_3D('',#741,#609,#608);
#497=AXIS2_PLACEMENT_3D('',#742,#611,#610);
#498=AXIS2_PLACEMENT_3D('',#743,#613,#612);
#499=AXIS2_PLACEMENT_3D('',#744,#615,#614);
#500=AXIS2_PLACEMENT_3D('',#745,#617,#616);
#501=AXIS2_PLACEMENT_3D('',#746,#619,#618);
#502=AXIS2_PLACEMENT_3D('',#747,#621,#620);
#503=AXIS2_PLACEMENT_3D('',#748,#623,#622);
#504=AXIS2_PLACEMENT_3D('',#749,#625,#624);
#505=AXIS2_PLACEMENT_3D('',#750,#627,#626);
#506=DIRECTION('',(1.,0.,0.));
#507=DIRECTION('',(0.,0.,1.));
#508=DIRECTION('',(-1.96940161350619E-014,-1.,1.01140777688087E-014));
#509=DIRECTION('',(-1.96940161350619E-014,-1.,1.01140777688087E-014));
#510=DIRECTION('',(-1.96940161350619E-014,-1.,1.01140777688087E-014));
#511=DIRECTION('',(-1.96940161350619E-014,-1.,1.01140777688087E-014));
#512=DIRECTION('',(-1.96940161350619E-014,-1.,1.01140777688087E-014));
#513=DIRECTION('',(-1.96940161350619E-014,-1.,1.01140777688087E-014));
#514=DIRECTION('',(-1.96940161350619E-014,-1.,1.01140777688087E-014));
#515=DIRECTION('',(-1.96940161350619E-014,-1.,1.01140777688087E-014));
#516=DIRECTION('',(-1.96940161350619E-014,-1.,1.01140777688087E-014));
#517=DIRECTION('',(-1.96940161350619E-014,-1.,1.01140777688087E-014));
#518=DIRECTION('',(-1.96940161350619E-014,-1.,1.01140777688087E-014));
#519=DIRECTION('',(-1.96940161350619E-014,-1.,1.01140777688087E-014));
#520=DIRECTION('',(-1.96940161350619E-014,-1.,1.01140777688087E-014));
#521=DIRECTION('',(-1.96940161350619E-014,-1.,1.01140777688087E-014));
#522=DIRECTION('',(-1.96940161350619E-014,-1.,1.01140777688087E-014));
#523=DIRECTION('',(-1.96940161350619E-014,-1.,1.01140777688087E-014));
#524=DIRECTION('',(-1.96940161350619E-014,-1.,1.01140777688087E-014));
#525=DIRECTION('',(-1.96940161350619E-014,-1.,1.01140777688087E-014));
#526=DIRECTION('',(-1.96940161350619E-014,-1.,1.01140777688087E-014));
#527=DIRECTION('',(-1.96940161350619E-014,-1.,1.01140777688087E-014));
#528=DIRECTION('',(1.,-0.,-0.));
#529=DIRECTION('',(0.590256544061554,-0.,0.807215716021753));
#530=DIRECTION('',(0.92248250713907,-0.,0.386038889261711));
#531=DIRECTION('',(0.58275440654715,-0.,0.812648325938028));
#532=DIRECTION('',(0.868950530594541,0.,0.494898954716481));
#533=DIRECTION('',(-0.,-0.,1.));
#534=DIRECTION('',(-0.988858807458296,-0.,-0.14885650443349));
#535=DIRECTION('',(-0.24869040648884,-0.,-0.968583027788746));
#536=DIRECTION('',(0.98962775615398,0.,-0.143655505462337));
#537=DIRECTION('',(0.,1.,0.));
#538=DIRECTION('',(-0.1436555054624,0.,-0.98962775615397));
#539=DIRECTION('',(-0.962842023276018,0.,-0.270065248067471));
#540=DIRECTION('',(-0.985395548169238,0.,0.17028098440004));
#541=DIRECTION('',(0.,-1.,0.));
#542=DIRECTION('',(-0.0605963690256082,0.,0.998162351554552));
#543=DIRECTION('',(0.,-1.,0.));
#544=DIRECTION('',(0.0688390776621682,-1.47430032675773E-016,
-0.997627776972264));
#545=DIRECTION('',(9.84522443804542E-018,1.,-1.47101253487012E-016));
#546=DIRECTION('',(0.991225017343613,0.,-0.132185343333344));
#547=DIRECTION('',(0.,1.,0.));
#548=DIRECTION('',(0.99913628935884,0.,-0.041553282496684));
#549=DIRECTION('',(0.,1.,0.));
#550=DIRECTION('',(-0.973749704651059,-0.,-0.227621424061916));
#551=DIRECTION('',(-0.110077368467739,0.,0.993923021642631));
#552=DIRECTION('',(0.,-1.,0.));
#553=DIRECTION('',(-0.0419699857901396,0.,0.99911887195307));
#554=DIRECTION('',(0.,-1.,0.));
#555=DIRECTION('',(-0.11024120526921,0.,-0.993904862982766));
#556=DIRECTION('',(1.,-0.,-0.));
#557=DIRECTION('',(0.590256544061554,-0.,0.807215716021753));
#558=DIRECTION('',(0.92248250713907,-0.,0.386038889261711));
#559=DIRECTION('',(0.58275440654715,-0.,0.812648325938028));
#560=DIRECTION('',(0.868950530594541,0.,0.494898954716481));
#561=DIRECTION('',(-0.,-0.,1.));
#562=DIRECTION('',(-0.988858807458296,-0.,-0.14885650443349));
#563=DIRECTION('',(-0.24869040648884,-0.,-0.968583027788746));
#564=DIRECTION('',(0.98962775615398,0.,-0.143655505462337));
#565=DIRECTION('',(0.,1.,0.));
#566=DIRECTION('',(-0.1436555054624,0.,-0.98962775615397));
#567=DIRECTION('',(-0.962842023276018,0.,-0.270065248067471));
#568=DIRECTION('',(-0.985395548169238,0.,0.17028098440004));
#569=DIRECTION('',(0.,-1.,0.));
#570=DIRECTION('',(-0.0605963690256082,0.,0.998162351554552));
#571=DIRECTION('',(0.,-1.,0.));
#572=DIRECTION('',(0.0688390776621682,-1.47430032675773E-016,
-0.997627776972264));
#573=DIRECTION('',(9.84522443804542E-018,1.,-1.47101253487012E-016));
#574=DIRECTION('',(0.991225017343613,0.,-0.132185343333344));
#575=DIRECTION('',(0.,1.,0.));
#576=DIRECTION('',(0.99913628935884,0.,-0.041553282496684));
#577=DIRECTION('',(0.,1.,0.));
#578=DIRECTION('',(-0.973749704651059,-0.,-0.227621424061916));
#579=DIRECTION('',(-0.110077368467739,0.,0.993923021642631));
#580=DIRECTION('',(0.,-1.,0.));
#581=DIRECTION('',(-0.0419699857901396,0.,0.99911887195307));
#582=DIRECTION('',(0.,-1.,0.));
#583=DIRECTION('',(-0.11024120526921,0.,-0.993904862982766));
#584=DIRECTION('',(0.11024120526921,0.,0.993904862982766));
#585=DIRECTION('',(-0.993904862982766,2.06889665317191E-014,0.11024120526921)
);
#586=DIRECTION('',(1.,-1.96940161350619E-014,0.));
#587=DIRECTION('',(-1.96940161350619E-014,-1.,1.01140777688087E-014));
#588=DIRECTION('',(1.,-1.96940161350619E-014,0.));
#589=DIRECTION('',(-1.96940161350619E-014,-1.,1.01140777688087E-014));
#590=DIRECTION('',(0.973749704651059,0.,0.227621424061916));
#591=DIRECTION('',(-0.227621424061916,1.43313602383565E-014,0.973749704651059)
);
#592=DIRECTION('',(1.,-1.96940161350619E-014,0.));
#593=DIRECTION('',(-1.96940161350619E-014,-1.,1.01140777688087E-014));
#594=DIRECTION('',(1.,-1.96940161350619E-014,0.));
#595=DIRECTION('',(-1.96940161350619E-014,-1.,1.01140777688087E-014));
#596=DIRECTION('',(1.,-1.96940161350619E-014,0.));
#597=DIRECTION('',(-1.96940161350619E-014,-1.,1.01140777688087E-014));
#598=DIRECTION('',(1.,-1.96940161350619E-014,0.));
#599=DIRECTION('',(-1.96940161350619E-014,-1.,1.01140777688087E-014));
#600=DIRECTION('',(1.,-1.96940161350619E-014,0.));
#601=DIRECTION('',(-1.96940161350619E-014,-1.,1.01140777688087E-014));
#602=DIRECTION('',(0.962842023276018,-7.88860905221012E-031,0.270065248067471)
);
#603=DIRECTION('',(-0.270065248067471,1.50569284554511E-014,0.962842023276018)
);
#604=DIRECTION('',(0.1436555054624,0.,0.98962775615397));
#605=DIRECTION('',(-0.98962775615397,2.09426879515657E-014,0.1436555054624));
#606=DIRECTION('',(1.,-1.96940161350619E-014,0.));
#607=DIRECTION('',(-1.96940161350619E-014,-1.,1.01140777688087E-014));
#608=DIRECTION('',(0.24869040648884,0.,0.968583027788747));
#609=DIRECTION('',(-0.968583027788746,2.15905638890035E-014,0.24869040648884)
);
#610=DIRECTION('',(0.988858807458296,-3.94430452610506E-031,0.14885650443349)
);
#611=DIRECTION('',(-0.14885650443349,1.29329772811267E-014,0.988858807458296)
);
#612=DIRECTION('',(1.96940161350619E-014,1.,0.));
#613=DIRECTION('',(1.,-1.96940161350619E-014,0.));
#614=DIRECTION('',(-0.868950530594541,0.,-0.494898954716481));
#615=DIRECTION('',(0.494898954716481,-1.85351812430925E-014,-0.868950530594541
));
#616=DIRECTION('',(-0.58275440654715,0.,-0.812648325938028));
#617=DIRECTION('',(0.812648325938028,-2.18983326310884E-014,-0.58275440654715)
);
#618=DIRECTION('',(-0.92248250713907,-7.88860905221012E-031,-0.386038889261711
));
#619=DIRECTION('',(0.386038889261711,-1.69327159314517E-014,-0.92248250713907)
);
#620=DIRECTION('',(-0.590256544061554,0.,-0.807215716021753));
#621=DIRECTION('',(0.807215716021753,-2.18672199259948E-014,-0.590256544061554
));
#622=DIRECTION('',(0.,1.,-1.01140777688087E-014));
#623=DIRECTION('',(-0.,-1.01140777688087E-014,-1.));
#624=DIRECTION('',(0.,0.,-1.));
#625=DIRECTION('',(0.,-1.,0.));
#626=DIRECTION('',(0.,0.,-1.));
#627=DIRECTION('',(0.,-1.,0.));
#628=CARTESIAN_POINT('',(0.,0.,0.));
#629=CARTESIAN_POINT('',(167.508408000039,1622.253894,2249.49999999998));
#630=CARTESIAN_POINT('',(155.402949397515,1622.253894,2249.49999999998));
#631=CARTESIAN_POINT('',(139.337894000039,1622.253894,2227.52995099998));
#632=CARTESIAN_POINT('',(122.855036000039,1622.253894,2220.63223299998));
#633=CARTESIAN_POINT('',(113.090734000039,1622.253894,2207.01595899998));
#634=CARTESIAN_POINT('',(103.080454000039,1622.253894,2201.31474019178));
#635=CARTESIAN_POINT('',(103.080454000039,1622.253894,2183.69004599998));
#636=CARTESIAN_POINT('',(109.522669000039,1622.253894,2184.65981599998));
#637=CARTESIAN_POINT('',(110.75104500004,1622.253894,2189.44401399998));
#638=CARTESIAN_POINT('',(116.508994905024,1622.253894,2197.89666470244));
#639=CARTESIAN_POINT('',(117.08226000004,1622.253894,2201.84582799998));
#640=CARTESIAN_POINT('',(120.94698700004,1622.253894,2202.92983599998));
#641=CARTESIAN_POINT('',(121.501627654124,1622.253894,2208.8255527104));
#642=CARTESIAN_POINT('',(129.086311938204,1622.253894,2215.61537144743));
#643=CARTESIAN_POINT('',(135.442462460211,1622.253894,2216.02759474199));
#644=CARTESIAN_POINT('',(149.401000989956,1622.253894,2229.12440274342));
#645=CARTESIAN_POINT('',(149.643639000039,1622.253894,2231.90407999998));
#646=CARTESIAN_POINT('',(154.113615000039,1622.253894,2232.94897099998));
#647=CARTESIAN_POINT('',(163.276705987072,1622.253894,2242.50041563056));
#648=CARTESIAN_POINT('',(166.761521000039,1622.253894,2242.76626899998));
#649=CARTESIAN_POINT('',(167.508408,-377.746106,2249.5));
#650=CARTESIAN_POINT('',(155.402949397476,-377.746106,2249.5));
#651=CARTESIAN_POINT('',(139.337894,-377.746106,2227.529951));
#652=CARTESIAN_POINT('',(122.855036,-377.746106,2220.632233));
#653=CARTESIAN_POINT('',(113.090734,-377.746106,2207.015959));
#654=CARTESIAN_POINT('',(103.080454,-377.746106,2201.3147401918));
#655=CARTESIAN_POINT('',(103.080454,-377.746106,2183.690046));
#656=CARTESIAN_POINT('',(109.522669,-377.746106,2184.659816));
#657=CARTESIAN_POINT('',(110.751045,-377.746106,2189.444014));
#658=CARTESIAN_POINT('',(116.508994904985,-377.746106,2197.89666470246));
#659=CARTESIAN_POINT('',(117.08226,-377.746106,2201.845828));
#660=CARTESIAN_POINT('',(120.946987,-377.746106,2202.929836));
#661=CARTESIAN_POINT('',(121.501627654084,-377.746106,2208.82555271042));
#662=CARTESIAN_POINT('',(129.086311938164,-377.746106,2215.61537144745));
#663=CARTESIAN_POINT('',(135.442462460171,-377.746106,2216.02759474201));
#664=CARTESIAN_POINT('',(149.401000989916,-377.746106,2229.12440274344));
#665=CARTESIAN_POINT('',(149.643639,-377.746106,2231.90408));
#666=CARTESIAN_POINT('',(154.113615,-377.746106,2232.948971));
#667=CARTESIAN_POINT('',(163.276705987032,-377.746106,2242.50041563058));
#668=CARTESIAN_POINT('',(166.761521,-377.746106,2242.766269));
#669=CARTESIAN_POINT('',(166.761521000039,1622.253894,2242.76626899998));
#670=CARTESIAN_POINT('',(163.276705987072,1622.253894,2242.50041563056));
#671=CARTESIAN_POINT('',(154.113615000039,1622.253894,2232.94897099998));
#672=CARTESIAN_POINT('',(149.643639000039,1622.253894,2231.90407999998));
#673=CARTESIAN_POINT('',(149.401000989956,1622.253894,2229.12440274342));
#674=CARTESIAN_POINT('',(135.442462460211,1622.253894,2216.02759474199));
#675=CARTESIAN_POINT('',(129.086311938204,1622.253894,2215.61537144743));
#676=CARTESIAN_POINT('',(121.501627654124,1622.253894,2208.8255527104));
#677=CARTESIAN_POINT('',(120.94698700004,1622.253894,2202.92983599998));
#678=CARTESIAN_POINT('',(117.08226000004,1622.253894,2201.84582799998));
#679=CARTESIAN_POINT('',(116.508994905024,1622.253894,2197.89666470244));
#680=CARTESIAN_POINT('',(110.75104500004,1622.253894,2189.44401399998));
#681=CARTESIAN_POINT('',(109.522669000039,1622.253894,2184.65981599998));
#682=CARTESIAN_POINT('',(103.080454000039,1622.253894,2183.69004599998));
#683=CARTESIAN_POINT('',(103.080454000039,1622.253894,2201.31474019178));
#684=CARTESIAN_POINT('',(113.090734000039,1622.253894,2207.01595899998));
#685=CARTESIAN_POINT('',(122.855036000039,1622.253894,2220.63223299998));
#686=CARTESIAN_POINT('',(139.337894000039,1622.253894,2227.52995099998));
#687=CARTESIAN_POINT('',(155.402949397515,1622.253894,2249.49999999998));
#688=CARTESIAN_POINT('',(167.508408000039,1622.253894,2249.49999999998));
#689=CARTESIAN_POINT('',(155.402949397515,1622.253894,2249.49999999998));
#690=CARTESIAN_POINT('',(139.337894000039,1622.253894,2227.52995099998));
#691=CARTESIAN_POINT('',(122.855036000039,1622.253894,2220.63223299998));
#692=CARTESIAN_POINT('',(113.090734000039,1622.253894,2207.01595899998));
#693=CARTESIAN_POINT('',(103.080454000039,1622.253894,2201.31474019178));
#694=CARTESIAN_POINT('',(103.080454000039,1622.253894,2183.69004599998));
#695=CARTESIAN_POINT('',(109.522669000039,1622.253894,2184.65981599998));
#696=CARTESIAN_POINT('',(110.751045000039,1622.253894,2189.44401399998));
#697=CARTESIAN_POINT('',(104.966027892199,1622.253894,2199.57225509535));
#698=CARTESIAN_POINT('',(117.08226000004,1622.253894,2201.84582799998));
#699=CARTESIAN_POINT('',(120.94698700004,1622.253894,2202.92983599998));
#700=CARTESIAN_POINT('',(159.275864124347,1622.253894,2202.2979870206));
#701=CARTESIAN_POINT('',(129.583289377399,1622.253894,2207.4290035618));
#702=CARTESIAN_POINT('',(82.3589969746152,1622.253894,2985.32232478284));
#703=CARTESIAN_POINT('',(134.400715316676,1622.253894,2231.12477387724));
#704=CARTESIAN_POINT('',(119.000217741613,1622.253894,2233.17851548369));
#705=CARTESIAN_POINT('',(154.113615000039,1622.253894,2232.94897099998));
#706=CARTESIAN_POINT('',(164.413139397375,1622.253894,2232.23920258753));
#707=CARTESIAN_POINT('',(168.90897742584,1622.253894,2191.64487352363));
#708=CARTESIAN_POINT('',(167.508408000039,1622.253894,2249.49999999998));
#709=CARTESIAN_POINT('',(155.402949397476,-377.746106,2249.5));
#710=CARTESIAN_POINT('',(139.337894,-377.746106,2227.529951));
#711=CARTESIAN_POINT('',(122.855036,-377.746106,2220.632233));
#712=CARTESIAN_POINT('',(113.090734,-377.746106,2207.015959));
#713=CARTESIAN_POINT('',(103.080454,-377.746106,2201.3147401918));
#714=CARTESIAN_POINT('',(103.080454,-377.746106,2183.690046));
#715=CARTESIAN_POINT('',(109.522669,-377.746106,2184.659816));
#716=CARTESIAN_POINT('',(110.751045,-377.746106,2189.444014));
#717=CARTESIAN_POINT('',(104.966027892159,-377.746106,2199.57225509537));
#718=CARTESIAN_POINT('',(117.08226,-377.746106,2201.845828));
#719=CARTESIAN_POINT('',(120.946987,-377.746106,2202.929836));
#720=CARTESIAN_POINT('',(159.275864124308,-377.746106,2202.29798702062));
#721=CARTESIAN_POINT('',(129.58328937736,-377.746106,2207.42900356182));
#722=CARTESIAN_POINT('',(82.3589969745758,-377.746106,2985.32232478286));
#723=CARTESIAN_POINT('',(134.400715316637,-377.746106,2231.12477387726));
#724=CARTESIAN_POINT('',(119.000217741574,-377.746106,2233.17851548371));
#725=CARTESIAN_POINT('',(154.113615,-377.746106,2232.948971));
#726=CARTESIAN_POINT('',(164.413139397336,-377.746106,2232.23920258755));
#727=CARTESIAN_POINT('',(168.908977425801,-377.746106,2191.64487352365));
#728=CARTESIAN_POINT('',(167.508408,-377.746106,2249.5));
#729=CARTESIAN_POINT('',(167.508408000039,1622.253894,2249.49999999998));
#730=CARTESIAN_POINT('',(168.90897742584,1622.253894,2191.64487352363));
#731=CARTESIAN_POINT('',(164.413139397375,1622.253894,2232.23920258753));
#732=CARTESIAN_POINT('',(154.113615000039,1622.253894,2232.94897099998));
#733=CARTESIAN_POINT('',(119.000217741613,1622.253894,2233.17851548369));
#734=CARTESIAN_POINT('',(134.400715316676,1622.253894,2231.12477387724));
#735=CARTESIAN_POINT('',(82.3589969746152,1622.253894,2985.32232478284));
#736=CARTESIAN_POINT('',(129.583289377399,1622.253894,2207.4290035618));
#737=CARTESIAN_POINT('',(159.275864124347,1622.253894,2202.2979870206));
#738=CARTESIAN_POINT('',(120.94698700004,1622.253894,2202.92983599998));
#739=CARTESIAN_POINT('',(117.08226000004,1622.253894,2201.84582799998));
#740=CARTESIAN_POINT('',(104.966027892199,1622.253894,2199.57225509535));
#741=CARTESIAN_POINT('',(110.751045000039,1622.253894,2189.44401399998));
#742=CARTESIAN_POINT('',(109.522669000039,1622.253894,2184.65981599998));
#743=CARTESIAN_POINT('',(103.080454000039,1622.253894,2183.69004599998));
#744=CARTESIAN_POINT('',(103.080454000039,1622.253894,2201.31474019178));
#745=CARTESIAN_POINT('',(113.090734000039,1622.253894,2207.01595899998));
#746=CARTESIAN_POINT('',(122.855036000039,1622.253894,2220.63223299998));
#747=CARTESIAN_POINT('',(139.337894000039,1622.253894,2227.52995099998));
#748=CARTESIAN_POINT('',(155.402949397515,1622.253894,2249.49999999998));
#749=CARTESIAN_POINT('',(168.90897742584,1622.253894,2191.64487352363));
#750=CARTESIAN_POINT('',(168.908977425801,-377.746106,2191.64487352365));
#751=PRODUCT_DEFINITION_SHAPE('','',#752);
#752=PRODUCT_DEFINITION('','',#764,#769);
#753=(
GEOMETRIC_REPRESENTATION_CONTEXT(3)
GLOBAL_UNCERTAINTY_ASSIGNED_CONTEXT((#754))
GLOBAL_UNIT_ASSIGNED_CONTEXT((#756,#755,#759))
REPRESENTATION_CONTEXT('','')
);
#754=UNCERTAINTY_MEASURE_WITH_UNIT(LENGTH_MEASURE(0.001),#756,'','tolerance');
#755=(
CONVERSION_BASED_UNIT('',#757)
NAMED_UNIT(#763)
PLANE_ANGLE_UNIT()
);
#756=(
CONVERSION_BASED_UNIT('',#758)
LENGTH_UNIT()
NAMED_UNIT(#762)
);
#757=PLANE_ANGLE_MEASURE_WITH_UNIT(PLANE_ANGLE_MEASURE(0.0174532925199433),
#760);
#758=LENGTH_MEASURE_WITH_UNIT(LENGTH_MEASURE(1.),#761);
#759=(
NAMED_UNIT(*)
SI_UNIT($,.STERADIAN.)
SOLID_ANGLE_UNIT()
);
#760=(
NAMED_UNIT(*)
PLANE_ANGLE_UNIT()
SI_UNIT($,.RADIAN.)
);
#761=(
LENGTH_UNIT()
NAMED_UNIT(*)
SI_UNIT(.MILLI.,.METRE.)
);
#762=DIMENSIONAL_EXPONENTS(1.,0.,0.,0.,0.,0.,0.);
#763=DIMENSIONAL_EXPONENTS(0.,0.,0.,0.,0.,0.,0.);
#764=PRODUCT_DEFINITION_FORMATION_WITH_SPECIFIED_SOURCE('','',#767,.NOT_KNOWN.
);
#765=PRODUCT_CATEGORY_RELATIONSHIP('','',#770,#766);
#766=PRODUCT_RELATED_PRODUCT_CATEGORY('assembly','',(#767));
#767=PRODUCT('','master','',(#768));
#768=PRODUCT_CONTEXT('',#772,'');
#769=PRODUCT_DEFINITION_CONTEXT('',#772,'part_definition');
#770=PRODUCT_CATEGORY('part','');
#771=APPLICATION_PROTOCOL_DEFINITION('international standard',
'automotive_design_cc2',1994,#772);
#772=APPLICATION_CONTEXT(
'configuration controlled 3D designs of mechanical parts and assemblies');
ENDSEC;
END-ISO-10303-21;
36585