ISO-10303-21;
HEADER;
/* Generated by software using Delcam plc STEP library */

FILE_DESCRIPTION(
/* description */ ('AP-214 File'),
/* implementation_level */ '2;1');

FILE_NAME(
/* name */ 'D545',
/* time_stamp */ 'Fri Nov 03 10:52:01 2017',
/* author */ (''),
/* organization */ (''),
/* preprocessor_version */ 'DELCAM STEP V1',
/* originating_system */ 'Exchange7.1.0006',
/* authorisation */ '');

FILE_SCHEMA (('AUTOMOTIVE_DESIGN'));
ENDSEC;
DATA;
#10=PRESENTATION_STYLE_ASSIGNMENT((#20));
#11=PRESENTATION_STYLE_ASSIGNMENT((#21));
#12=SURFACE_SIDE_STYLE('',(#14));
#13=SURFACE_SIDE_STYLE('',(#15));
#14=SURFACE_STYLE_FILL_AREA(#16);
#15=SURFACE_STYLE_FILL_AREA(#17);
#16=FILL_AREA_STYLE('',(#18));
#17=FILL_AREA_STYLE('',(#19));
#18=FILL_AREA_STYLE_COLOUR('',#36);
#19=FILL_AREA_STYLE_COLOUR('',#37);
#20=SURFACE_STYLE_USAGE(.BOTH.,#12);
#21=SURFACE_STYLE_USAGE(.BOTH.,#13);
#22=STYLED_ITEM('',(#10),#47);
#23=STYLED_ITEM('',(#10),#48);
#24=STYLED_ITEM('',(#10),#49);
#25=STYLED_ITEM('',(#10),#50);
#26=STYLED_ITEM('',(#10),#51);
#27=STYLED_ITEM('',(#10),#52);
#28=STYLED_ITEM('',(#10),#53);
#29=STYLED_ITEM('',(#10),#54);
#30=STYLED_ITEM('',(#10),#55);
#31=STYLED_ITEM('',(#10),#56);
#32=STYLED_ITEM('',(#10),#57);
#33=STYLED_ITEM('',(#10),#58);
#34=STYLED_ITEM('',(#10),#59);
#35=STYLED_ITEM('',(#11),#43);
#36=COLOUR_RGB('',0.,0.,0.);
#37=COLOUR_RGB('rgb_colour_1',0.4,0.4,0.4);
#38=MECHANICAL_DESIGN_GEOMETRIC_PRESENTATION_REPRESENTATION('',(#22,#23,#24,
#25,#26,#27,#28,#29,#30,#31,#32,#33,#34,#35),#665);
#39=PRESENTATION_LAYER_ASSIGNMENT('100','D545',(#47,#48,#49,#50,#51,#52,#53,
#54,#55,#56,#57,#58,#59,#43));
#40=SHAPE_REPRESENTATION_RELATIONSHIP('','',#272,#41);
#41=ADVANCED_BREP_SHAPE_REPRESENTATION('',(#42),#665);
#42=MANIFOLD_SOLID_BREP('8113',#43);
#43=CLOSED_SHELL('',(#47,#48,#49,#50,#51,#52,#53,#54,#55,#56,#57,#58,#59));
#44=SURFACE_OF_LINEAR_EXTRUSION('',#180,#246);
#45=SURFACE_OF_LINEAR_EXTRUSION('',#181,#247);
#46=SURFACE_OF_LINEAR_EXTRUSION('',#182,#248);
#47=ADVANCED_FACE('',(#60),#152,.F.);
#48=ADVANCED_FACE('',(#61),#153,.F.);
#49=ADVANCED_FACE('',(#62),#154,.F.);
#50=ADVANCED_FACE('',(#63),#44,.F.);
#51=ADVANCED_FACE('',(#64),#155,.F.);
#52=ADVANCED_FACE('',(#65),#45,.F.);
#53=ADVANCED_FACE('',(#66),#156,.F.);
#54=ADVANCED_FACE('',(#67),#46,.F.);
#55=ADVANCED_FACE('',(#68),#157,.F.);
#56=ADVANCED_FACE('',(#69),#158,.F.);
#57=ADVANCED_FACE('',(#70),#159,.F.);
#58=ADVANCED_FACE('',(#71),#160,.F.);
#59=ADVANCED_FACE('',(#72),#161,.T.);
#60=FACE_OUTER_BOUND('',#73,.T.);
#61=FACE_OUTER_BOUND('',#74,.T.);
#62=FACE_OUTER_BOUND('',#75,.T.);
#63=FACE_OUTER_BOUND('',#76,.T.);
#64=FACE_OUTER_BOUND('',#77,.T.);
#65=FACE_OUTER_BOUND('',#78,.T.);
#66=FACE_OUTER_BOUND('',#79,.T.);
#67=FACE_OUTER_BOUND('',#80,.T.);
#68=FACE_OUTER_BOUND('',#81,.T.);
#69=FACE_OUTER_BOUND('',#82,.T.);
#70=FACE_OUTER_BOUND('',#83,.T.);
#71=FACE_OUTER_BOUND('',#84,.T.);
#72=FACE_OUTER_BOUND('',#85,.T.);
#73=EDGE_LOOP('',(#86,#87,#88,#89));
#74=EDGE_LOOP('',(#90,#91,#92,#93));
#75=EDGE_LOOP('',(#94,#95,#96,#97));
#76=EDGE_LOOP('',(#98,#99,#100,#101));
#77=EDGE_LOOP('',(#102,#103,#104,#105));
#78=EDGE_LOOP('',(#106,#107,#108,#109));
#79=EDGE_LOOP('',(#110,#111,#112,#113));
#80=EDGE_LOOP('',(#114,#115,#116,#117));
#81=EDGE_LOOP('',(#118,#119,#120,#121));
#82=EDGE_LOOP('',(#122,#123,#124,#125));
#83=EDGE_LOOP('',(#126,#127,#128,#129));
#84=EDGE_LOOP('',(#130,#131,#132,#133,#134,#135,#136,#137,#138,#139,#140));
#85=EDGE_LOOP('',(#141,#142,#143,#144,#145,#146,#147,#148,#149,#150,#151));
#86=ORIENTED_EDGE('',*,*,#215,.T.);
#87=ORIENTED_EDGE('',*,*,#183,.F.);
#88=ORIENTED_EDGE('',*,*,#204,.F.);
#89=ORIENTED_EDGE('',*,*,#193,.T.);
#90=ORIENTED_EDGE('',*,*,#214,.T.);
#91=ORIENTED_EDGE('',*,*,#184,.F.);
#92=ORIENTED_EDGE('',*,*,#203,.F.);
#93=ORIENTED_EDGE('',*,*,#183,.T.);
#94=ORIENTED_EDGE('',*,*,#213,.T.);
#95=ORIENTED_EDGE('',*,*,#185,.F.);
#96=ORIENTED_EDGE('',*,*,#202,.F.);
#97=ORIENTED_EDGE('',*,*,#184,.T.);
#98=ORIENTED_EDGE('',*,*,#212,.T.);
#99=ORIENTED_EDGE('',*,*,#186,.F.);
#100=ORIENTED_EDGE('',*,*,#201,.F.);
#101=ORIENTED_EDGE('',*,*,#185,.T.);
#102=ORIENTED_EDGE('',*,*,#211,.T.);
#103=ORIENTED_EDGE('',*,*,#187,.F.);
#104=ORIENTED_EDGE('',*,*,#200,.F.);
#105=ORIENTED_EDGE('',*,*,#186,.T.);
#106=ORIENTED_EDGE('',*,*,#210,.T.);
#107=ORIENTED_EDGE('',*,*,#188,.F.);
#108=ORIENTED_EDGE('',*,*,#199,.F.);
#109=ORIENTED_EDGE('',*,*,#187,.T.);
#110=ORIENTED_EDGE('',*,*,#209,.T.);
#111=ORIENTED_EDGE('',*,*,#189,.F.);
#112=ORIENTED_EDGE('',*,*,#198,.F.);
#113=ORIENTED_EDGE('',*,*,#188,.T.);
#114=ORIENTED_EDGE('',*,*,#208,.T.);
#115=ORIENTED_EDGE('',*,*,#190,.F.);
#116=ORIENTED_EDGE('',*,*,#197,.F.);
#117=ORIENTED_EDGE('',*,*,#189,.T.);
#118=ORIENTED_EDGE('',*,*,#207,.T.);
#119=ORIENTED_EDGE('',*,*,#191,.F.);
#120=ORIENTED_EDGE('',*,*,#196,.F.);
#121=ORIENTED_EDGE('',*,*,#190,.T.);
#122=ORIENTED_EDGE('',*,*,#206,.T.);
#123=ORIENTED_EDGE('',*,*,#192,.F.);
#124=ORIENTED_EDGE('',*,*,#195,.F.);
#125=ORIENTED_EDGE('',*,*,#191,.T.);
#126=ORIENTED_EDGE('',*,*,#205,.T.);
#127=ORIENTED_EDGE('',*,*,#193,.F.);
#128=ORIENTED_EDGE('',*,*,#194,.F.);
#129=ORIENTED_EDGE('',*,*,#192,.T.);
#130=ORIENTED_EDGE('',*,*,#204,.T.);
#131=ORIENTED_EDGE('',*,*,#203,.T.);
#132=ORIENTED_EDGE('',*,*,#202,.T.);
#133=ORIENTED_EDGE('',*,*,#201,.T.);
#134=ORIENTED_EDGE('',*,*,#200,.T.);
#135=ORIENTED_EDGE('',*,*,#199,.T.);
#136=ORIENTED_EDGE('',*,*,#198,.T.);
#137=ORIENTED_EDGE('',*,*,#197,.T.);
#138=ORIENTED_EDGE('',*,*,#196,.T.);
#139=ORIENTED_EDGE('',*,*,#195,.T.);
#140=ORIENTED_EDGE('',*,*,#194,.T.);
#141=ORIENTED_EDGE('',*,*,#215,.F.);
#142=ORIENTED_EDGE('',*,*,#205,.F.);
#143=ORIENTED_EDGE('',*,*,#206,.F.);
#144=ORIENTED_EDGE('',*,*,#207,.F.);
#145=ORIENTED_EDGE('',*,*,#208,.F.);
#146=ORIENTED_EDGE('',*,*,#209,.F.);
#147=ORIENTED_EDGE('',*,*,#210,.F.);
#148=ORIENTED_EDGE('',*,*,#211,.F.);
#149=ORIENTED_EDGE('',*,*,#212,.F.);
#150=ORIENTED_EDGE('',*,*,#213,.F.);
#151=ORIENTED_EDGE('',*,*,#214,.F.);
#152=PLANE('',#274);
#153=PLANE('',#275);
#154=PLANE('',#276);
#155=PLANE('',#277);
#156=PLANE('',#278);
#157=PLANE('',#279);
#158=PLANE('',#280);
#159=PLANE('',#281);
#160=PLANE('',#282);
#161=PLANE('',#283);
#162=B_SPLINE_CURVE_WITH_KNOTS('',3,(#358,#359,#360,#361),.UNSPECIFIED.,.F.,
.F.,(4,4),(30.,31.),.UNSPECIFIED.);
#163=B_SPLINE_CURVE_WITH_KNOTS('',3,(#362,#363,#364,#365),.UNSPECIFIED.,.F.,
.F.,(4,4),(29.,30.),.UNSPECIFIED.);
#164=B_SPLINE_CURVE_WITH_KNOTS('',3,(#366,#367,#368,#369),.UNSPECIFIED.,.F.,
.F.,(4,4),(28.,29.),.UNSPECIFIED.);
#165=B_SPLINE_CURVE_WITH_KNOTS('',3,(#370,#371,#372,#373,#374,#375,#376,#377,
#378,#379,#380,#381,#382,#383,#384,#385,#386,#387,#388),.UNSPECIFIED.,.F.,.F.,
(4,3,3,3,3,3,4),(22.,23.,24.,25.,26.,27.,28.),.UNSPECIFIED.);
#166=B_SPLINE_CURVE_WITH_KNOTS('',3,(#389,#390,#391,#392),.UNSPECIFIED.,.F.,
.F.,(4,4),(21.,22.),.UNSPECIFIED.);
#167=B_SPLINE_CURVE_WITH_KNOTS('',3,(#393,#394,#395,#396,#397,#398,#399,#400,
#401,#402,#403,#404,#405,#406,#407,#408,#409,#410,#411,#412,#413,#414,#415,
#416,#417,#418,#419,#420,#421,#422,#423,#424,#425,#426),.UNSPECIFIED.,.F.,.F.,
(4,3,3,3,3,3,3,3,3,3,3,4),(10.,11.,12.,13.,14.,15.,16.,17.,18.,19.,20.,21.),
.UNSPECIFIED.);
#168=B_SPLINE_CURVE_WITH_KNOTS('',3,(#427,#428,#429,#430),.UNSPECIFIED.,.F.,
.F.,(4,4),(9.,10.),.UNSPECIFIED.);
#169=B_SPLINE_CURVE_WITH_KNOTS('',3,(#431,#432,#433,#434,#435,#436,#437,#438,
#439,#440,#441,#442,#443,#444,#445,#446,#447,#448,#449,#450,#451,#452,#453,
#454,#455,#456,#457,#458),.UNSPECIFIED.,.F.,.F.,(4,3,3,3,3,3,3,3,3,4),(0.,1.,
2.,3.,4.,5.,6.,7.,8.,9.),.UNSPECIFIED.);
#170=B_SPLINE_CURVE_WITH_KNOTS('',3,(#461,#462,#463,#464),.UNSPECIFIED.,.F.,
.F.,(4,4),(31.,32.),.UNSPECIFIED.);
#171=B_SPLINE_CURVE_WITH_KNOTS('',3,(#465,#466,#467,#468),.UNSPECIFIED.,.F.,
.F.,(4,4),(30.,31.),.UNSPECIFIED.);
#172=B_SPLINE_CURVE_WITH_KNOTS('',3,(#469,#470,#471,#472),.UNSPECIFIED.,.F.,
.F.,(4,4),(29.,30.),.UNSPECIFIED.);
#173=B_SPLINE_CURVE_WITH_KNOTS('',3,(#473,#474,#475,#476),.UNSPECIFIED.,.F.,
.F.,(4,4),(28.,29.),.UNSPECIFIED.);
#174=B_SPLINE_CURVE_WITH_KNOTS('',3,(#477,#478,#479,#480,#481,#482,#483,#484,
#485,#486,#487,#488,#489,#490,#491,#492,#493,#494,#495),.UNSPECIFIED.,.F.,.F.,
(4,3,3,3,3,3,4),(22.,23.,24.,25.,26.,27.,28.),.UNSPECIFIED.);
#175=B_SPLINE_CURVE_WITH_KNOTS('',3,(#496,#497,#498,#499),.UNSPECIFIED.,.F.,
.F.,(4,4),(21.,22.),.UNSPECIFIED.);
#176=B_SPLINE_CURVE_WITH_KNOTS('',3,(#500,#501,#502,#503,#504,#505,#506,#507,
#508,#509,#510,#511,#512,#513,#514,#515,#516,#517,#518,#519,#520,#521,#522,
#523,#524,#525,#526,#527,#528,#529,#530,#531,#532,#533),.UNSPECIFIED.,.F.,.F.,
(4,3,3,3,3,3,3,3,3,3,3,4),(10.,11.,12.,13.,14.,15.,16.,17.,18.,19.,20.,21.),
.UNSPECIFIED.);
#177=B_SPLINE_CURVE_WITH_KNOTS('',3,(#534,#535,#536,#537),.UNSPECIFIED.,.F.,
.F.,(4,4),(9.,10.),.UNSPECIFIED.);
#178=B_SPLINE_CURVE_WITH_KNOTS('',3,(#538,#539,#540,#541,#542,#543,#544,#545,
#546,#547,#548,#549,#550,#551,#552,#553,#554,#555,#556,#557,#558,#559,#560,
#561,#562,#563,#564,#565),.UNSPECIFIED.,.F.,.F.,(4,3,3,3,3,3,3,3,3,4),(0.,1.,
2.,3.,4.,5.,6.,7.,8.,9.),.UNSPECIFIED.);
#179=B_SPLINE_CURVE_WITH_KNOTS('',3,(#568,#569,#570,#571),.UNSPECIFIED.,.F.,
.F.,(4,4),(31.,32.),.UNSPECIFIED.);
#180=B_SPLINE_CURVE_WITH_KNOTS('',3,(#575,#576,#577,#578,#579,#580,#581,#582,
#583,#584,#585,#586,#587,#588,#589,#590,#591,#592,#593,#594,#595,#596,#597,
#598,#599,#600,#601,#602),.UNSPECIFIED.,.F.,.F.,(4,3,3,3,3,3,3,3,3,4),(0.,1.,
2.,3.,4.,5.,6.,7.,8.,9.),.UNSPECIFIED.);
#181=B_SPLINE_CURVE_WITH_KNOTS('',3,(#604,#605,#606,#607,#608,#609,#610,#611,
#612,#613,#614,#615,#616,#617,#618,#619,#620,#621,#622,#623,#624,#625,#626,
#627,#628,#629,#630,#631,#632,#633,#634,#635,#636,#637),.UNSPECIFIED.,.F.,.F.,
(4,3,3,3,3,3,3,3,3,3,3,4),(10.,11.,12.,13.,14.,15.,16.,17.,18.,19.,20.,21.),
.UNSPECIFIED.);
#182=B_SPLINE_CURVE_WITH_KNOTS('',3,(#639,#640,#641,#642,#643,#644,#645,#646,
#647,#648,#649,#650,#651,#652,#653,#654,#655,#656,#657),.UNSPECIFIED.,.F.,.F.,
(4,3,3,3,3,3,4),(22.,23.,24.,25.,26.,27.,28.),.UNSPECIFIED.);
#183=EDGE_CURVE('',#259,#270,#216,.T.);
#184=EDGE_CURVE('',#258,#269,#217,.T.);
#185=EDGE_CURVE('',#257,#268,#218,.T.);
#186=EDGE_CURVE('',#256,#267,#219,.T.);
#187=EDGE_CURVE('',#255,#266,#220,.T.);
#188=EDGE_CURVE('',#254,#265,#221,.T.);
#189=EDGE_CURVE('',#253,#264,#222,.T.);
#190=EDGE_CURVE('',#252,#263,#223,.T.);
#191=EDGE_CURVE('',#251,#262,#224,.T.);
#192=EDGE_CURVE('',#250,#261,#225,.T.);
#193=EDGE_CURVE('',#249,#260,#226,.T.);
#194=EDGE_CURVE('',#250,#249,#162,.T.);
#195=EDGE_CURVE('',#251,#250,#163,.T.);
#196=EDGE_CURVE('',#252,#251,#164,.T.);
#197=EDGE_CURVE('',#253,#252,#165,.T.);
#198=EDGE_CURVE('',#254,#253,#166,.T.);
#199=EDGE_CURVE('',#255,#254,#167,.T.);
#200=EDGE_CURVE('',#256,#255,#168,.T.);
#201=EDGE_CURVE('',#257,#256,#169,.T.);
#202=EDGE_CURVE('',#258,#257,#227,.T.);
#203=EDGE_CURVE('',#259,#258,#228,.T.);
#204=EDGE_CURVE('',#249,#259,#170,.T.);
#205=EDGE_CURVE('',#261,#260,#171,.T.);
#206=EDGE_CURVE('',#262,#261,#172,.T.);
#207=EDGE_CURVE('',#263,#262,#173,.T.);
#208=EDGE_CURVE('',#264,#263,#174,.T.);
#209=EDGE_CURVE('',#265,#264,#175,.T.);
#210=EDGE_CURVE('',#266,#265,#176,.T.);
#211=EDGE_CURVE('',#267,#266,#177,.T.);
#212=EDGE_CURVE('',#268,#267,#178,.T.);
#213=EDGE_CURVE('',#269,#268,#229,.T.);
#214=EDGE_CURVE('',#270,#269,#230,.T.);
#215=EDGE_CURVE('',#260,#270,#179,.T.);
#216=LINE('',#347,#231);
#217=LINE('',#348,#232);
#218=LINE('',#349,#233);
#219=LINE('',#350,#234);
#220=LINE('',#351,#235);
#221=LINE('',#352,#236);
#222=LINE('',#353,#237);
#223=LINE('',#354,#238);
#224=LINE('',#355,#239);
#225=LINE('',#356,#240);
#226=LINE('',#357,#241);
#227=LINE('',#459,#242);
#228=LINE('',#460,#243);
#229=LINE('',#566,#244);
#230=LINE('',#567,#245);
#231=VECTOR('',#286,1.);
#232=VECTOR('',#287,1.);
#233=VECTOR('',#288,1.);
#234=VECTOR('',#289,1.);
#235=VECTOR('',#290,1.);
#236=VECTOR('',#291,1.);
#237=VECTOR('',#292,1.);
#238=VECTOR('',#293,1.);
#239=VECTOR('',#294,1.);
#240=VECTOR('',#295,1.);
#241=VECTOR('',#296,1.);
#242=VECTOR('',#297,1.);
#243=VECTOR('',#298,1.);
#244=VECTOR('',#299,1.);
#245=VECTOR('',#300,1.);
#246=VECTOR('',#307,1.);
#247=VECTOR('',#310,1.);
#248=VECTOR('',#313,1.);
#249=VERTEX_POINT('',#325);
#250=VERTEX_POINT('',#326);
#251=VERTEX_POINT('',#327);
#252=VERTEX_POINT('',#328);
#253=VERTEX_POINT('',#329);
#254=VERTEX_POINT('',#330);
#255=VERTEX_POINT('',#331);
#256=VERTEX_POINT('',#332);
#257=VERTEX_POINT('',#333);
#258=VERTEX_POINT('',#334);
#259=VERTEX_POINT('',#335);
#260=VERTEX_POINT('',#336);
#261=VERTEX_POINT('',#337);
#262=VERTEX_POINT('',#338);
#263=VERTEX_POINT('',#339);
#264=VERTEX_POINT('',#340);
#265=VERTEX_POINT('',#341);
#266=VERTEX_POINT('',#342);
#267=VERTEX_POINT('',#343);
#268=VERTEX_POINT('',#344);
#269=VERTEX_POINT('',#345);
#270=VERTEX_POINT('',#346);
#271=SHAPE_DEFINITION_REPRESENTATION(#663,#272);
#272=SHAPE_REPRESENTATION('master',(#273),#665);
#273=AXIS2_PLACEMENT_3D('',#324,#285,#284);
#274=AXIS2_PLACEMENT_3D('',#572,#302,#301);
#275=AXIS2_PLACEMENT_3D('',#573,#304,#303);
#276=AXIS2_PLACEMENT_3D('',#574,#306,#305);
#277=AXIS2_PLACEMENT_3D('',#603,#309,#308);
#278=AXIS2_PLACEMENT_3D('',#638,#312,#311);
#279=AXIS2_PLACEMENT_3D('',#658,#315,#314);
#280=AXIS2_PLACEMENT_3D('',#659,#317,#316);
#281=AXIS2_PLACEMENT_3D('',#660,#319,#318);
#282=AXIS2_PLACEMENT_3D('',#661,#321,#320);
#283=AXIS2_PLACEMENT_3D('',#662,#323,#322);
#284=DIRECTION('',(1.,0.,0.));
#285=DIRECTION('',(0.,0.,1.));
#286=DIRECTION('',(-0.,1.,-0.));
#287=DIRECTION('',(-0.,1.,-0.));
#288=DIRECTION('',(-0.,1.,-0.));
#289=DIRECTION('',(-0.,1.,-0.));
#290=DIRECTION('',(-0.,1.,-0.));
#291=DIRECTION('',(-0.,1.,-0.));
#292=DIRECTION('',(-0.,1.,-0.));
#293=DIRECTION('',(-0.,1.,-0.));
#294=DIRECTION('',(-0.,1.,-0.));
#295=DIRECTION('',(-0.,1.,-0.));
#296=DIRECTION('',(-0.,1.,-0.));
#297=DIRECTION('',(0.145571559863995,-0.,0.989347724998023));
#298=DIRECTION('',(0.828177021410262,0.,0.560466610252588));
#299=DIRECTION('',(0.145571559863995,-0.,0.989347724998023));
#300=DIRECTION('',(0.828177021410262,0.,0.560466610252588));
#301=DIRECTION('',(1.,0.,0.));
#302=DIRECTION('',(-0.,0.,1.));
#303=DIRECTION('',(0.828177021410262,0.,0.560466610252588));
#304=DIRECTION('',(-0.560466610252588,0.,0.828177021410262));
#305=DIRECTION('',(0.145571559863995,0.,0.989347724998023));
#306=DIRECTION('',(-0.989347724998023,0.,0.145571559863995));
#307=DIRECTION('',(-0.,1.,-0.));
#308=DIRECTION('',(1.,0.,0.));
#309=DIRECTION('',(-0.,0.,1.));
#310=DIRECTION('',(-0.,1.,-0.));
#311=DIRECTION('',(1.,0.,0.));
#312=DIRECTION('',(-0.,0.,1.));
#313=DIRECTION('',(-0.,1.,-0.));
#314=DIRECTION('',(0.,0.,1.));
#315=DIRECTION('',(-1.,0.,0.));
#316=DIRECTION('',(-1.,0.,0.));
#317=DIRECTION('',(-0.,-0.,-1.));
#318=DIRECTION('',(0.,0.,-1.));
#319=DIRECTION('',(1.,0.,0.));
#320=DIRECTION('',(0.,-0.,1.));
#321=DIRECTION('',(0.,1.,0.));
#322=DIRECTION('',(0.,-0.,1.));
#323=DIRECTION('',(0.,1.,0.));
#324=CARTESIAN_POINT('',(0.,0.,0.));
#325=CARTESIAN_POINT('',(103.080454,0.,2204.5));
#326=CARTESIAN_POINT('',(103.080454,0.,2249.5));
#327=CARTESIAN_POINT('',(223.080454,0.,2249.5));
#328=CARTESIAN_POINT('',(223.080454,0.,2242.78816010688));
#329=CARTESIAN_POINT('',(214.44423435972,0.,2235.56858096352));
#330=CARTESIAN_POINT('',(165.175669558234,0.,2235.56858096352));
#331=CARTESIAN_POINT('',(156.612172235358,0.,2226.47090593609));
#332=CARTESIAN_POINT('',(146.3408403346,0.,2226.47090593609));
#333=CARTESIAN_POINT('',(117.953557200239,0.,2208.36553040038));
#334=CARTESIAN_POINT('',(117.671389589067,0.,2206.4478351827));
#335=CARTESIAN_POINT('',(114.793158646675,0.,2204.5));
#336=CARTESIAN_POINT('',(103.080454,1750.,2204.5));
#337=CARTESIAN_POINT('',(103.080454,1750.,2249.5));
#338=CARTESIAN_POINT('',(223.080454,1750.,2249.5));
#339=CARTESIAN_POINT('',(223.080454,1750.,2242.78816010688));
#340=CARTESIAN_POINT('',(214.44423435972,1750.,2235.56858096352));
#341=CARTESIAN_POINT('',(165.175669558234,1750.,2235.56858096352));
#342=CARTESIAN_POINT('',(156.612172235358,1750.,2226.47090593609));
#343=CARTESIAN_POINT('',(146.3408403346,1750.,2226.47090593609));
#344=CARTESIAN_POINT('',(117.953557200239,1750.,2208.36553040038));
#345=CARTESIAN_POINT('',(117.671389589067,1750.,2206.4478351827));
#346=CARTESIAN_POINT('',(114.793158646675,1750.,2204.5));
#347=CARTESIAN_POINT('',(114.793158646675,0.,2204.5));
#348=CARTESIAN_POINT('',(117.671389589067,0.,2206.4478351827));
#349=CARTESIAN_POINT('',(117.953557200239,0.,2208.36553040038));
#350=CARTESIAN_POINT('',(146.3408403346,0.,2226.47090593609));
#351=CARTESIAN_POINT('',(156.612172235358,0.,2226.47090593609));
#352=CARTESIAN_POINT('',(165.175669558234,0.,2235.56858096352));
#353=CARTESIAN_POINT('',(214.44423435972,0.,2235.56858096352));
#354=CARTESIAN_POINT('',(223.080454,0.,2242.78816010688));
#355=CARTESIAN_POINT('',(223.080454,0.,2249.5));
#356=CARTESIAN_POINT('',(103.080454,0.,2249.5));
#357=CARTESIAN_POINT('',(103.080454,0.,2204.5));
#358=CARTESIAN_POINT('',(103.080454,0.,2249.5));
#359=CARTESIAN_POINT('',(103.080454,0.,2234.5));
#360=CARTESIAN_POINT('',(103.080454,0.,2219.5));
#361=CARTESIAN_POINT('',(103.080454,0.,2204.5));
#362=CARTESIAN_POINT('',(223.080454,0.,2249.5));
#363=CARTESIAN_POINT('',(183.080454,0.,2249.5));
#364=CARTESIAN_POINT('',(143.080454,0.,2249.5));
#365=CARTESIAN_POINT('',(103.080454,0.,2249.5));
#366=CARTESIAN_POINT('',(223.080454,0.,2242.78816010688));
#367=CARTESIAN_POINT('',(223.080454,0.,2245.02544007125));
#368=CARTESIAN_POINT('',(223.080454,0.,2247.26272003563));
#369=CARTESIAN_POINT('',(223.080454,0.,2249.5));
#370=CARTESIAN_POINT('',(214.44423435972,0.,2235.56858096352));
#371=CARTESIAN_POINT('',(214.724356742763,0.,2235.73104698403));
#372=CARTESIAN_POINT('',(215.004475279949,0.,2235.89351835439));
#373=CARTESIAN_POINT('',(215.248041786679,0.,2236.09540027606));
#374=CARTESIAN_POINT('',(215.776741818834,0.,2236.53361725386));
#375=CARTESIAN_POINT('',(216.133217306151,0.,2237.15752745235));
#376=CARTESIAN_POINT('',(216.526976116239,0.,2237.74352775274));
#377=CARTESIAN_POINT('',(216.960374109484,0.,2238.38851993506));
#378=CARTESIAN_POINT('',(217.43893978803,0.,2238.98758535389));
#379=CARTESIAN_POINT('',(217.974181177112,0.,2239.52619944409));
#380=CARTESIAN_POINT('',(218.512835477266,0.,2240.06824795105));
#381=CARTESIAN_POINT('',(219.108890565853,0.,2240.5490717483));
#382=CARTESIAN_POINT('',(219.690533090862,0.,2241.07342539117));
#383=CARTESIAN_POINT('',(220.23430453214,0.,2241.56363806281));
#384=CARTESIAN_POINT('',(220.765479130217,0.,2242.09189661276));
#385=CARTESIAN_POINT('',(221.406980899202,0.,2242.38524282276));
#386=CARTESIAN_POINT('',(221.918110959624,0.,2242.61897260074));
#387=CARTESIAN_POINT('',(222.499281580374,0.,2242.7035696512));
#388=CARTESIAN_POINT('',(223.080454,0.,2242.78816010688));
#389=CARTESIAN_POINT('',(165.175669558234,0.,2235.56858096352));
#390=CARTESIAN_POINT('',(181.598524492063,0.,2235.56858096352));
#391=CARTESIAN_POINT('',(198.021379425892,0.,2235.56858096352));
#392=CARTESIAN_POINT('',(214.44423435972,0.,2235.56858096352));
#393=CARTESIAN_POINT('',(156.612172235358,0.,2226.47090593609));
#394=CARTESIAN_POINT('',(156.764090768032,0.,2226.81905104135));
#395=CARTESIAN_POINT('',(156.916016474647,0.,2227.16719180457));
#396=CARTESIAN_POINT('',(157.121968466958,0.,2227.47770372901));
#397=CARTESIAN_POINT('',(157.368910438676,0.,2227.85001586837));
#398=CARTESIAN_POINT('',(157.693524133296,0.,2228.16823032729));
#399=CARTESIAN_POINT('',(158.00849459968,0.,2228.49994988534));
#400=CARTESIAN_POINT('',(158.418393221097,0.,2228.93164556495));
#401=CARTESIAN_POINT('',(158.811959980795,0.,2229.38621360701));
#402=CARTESIAN_POINT('',(159.304045732022,0.,2229.69259543286));
#403=CARTESIAN_POINT('',(159.632542341332,0.,2229.89712358816));
#404=CARTESIAN_POINT('',(160.004942553415,0.,2230.03561464064));
#405=CARTESIAN_POINT('',(160.32692446214,0.,2230.27188122063));
#406=CARTESIAN_POINT('',(160.640595091815,0.,2230.50204908071));
#407=CARTESIAN_POINT('',(160.906416707,0.,2230.82500988147));
#408=CARTESIAN_POINT('',(161.008809429108,0.,2231.19191782386));
#409=CARTESIAN_POINT('',(161.09247310242,0.,2231.49171321553));
#410=CARTESIAN_POINT('',(161.06702678502,0.,2231.82084902629));
#411=CARTESIAN_POINT('',(161.179321825245,0.,2232.1119603123));
#412=CARTESIAN_POINT('',(161.232654833402,0.,2232.25021967407));
#413=CARTESIAN_POINT('',(161.317057420603,0.,2232.37990204779));
#414=CARTESIAN_POINT('',(161.418036976269,0.,2232.48680533664));
#415=CARTESIAN_POINT('',(161.886050338807,0.,2232.98227362575));
#416=CARTESIAN_POINT('',(162.71014954354,0.,2232.98842991315));
#417=CARTESIAN_POINT('',(163.29329844717,0.,2233.33869092664));
#418=CARTESIAN_POINT('',(163.655017551503,0.,2233.55595293175));
#419=CARTESIAN_POINT('',(163.924029887976,0.,2233.90561085757));
#420=CARTESIAN_POINT('',(164.213797763911,0.,2234.22465459945));
#421=CARTESIAN_POINT('',(164.389070958445,0.,2234.4176360183));
#422=CARTESIAN_POINT('',(164.571938047412,0.,2234.59941652949));
#423=CARTESIAN_POINT('',(164.725279632998,0.,2234.80394982708));
#424=CARTESIAN_POINT('',(164.901367654905,0.,2235.0388232546));
#425=CARTESIAN_POINT('',(165.03852095814,0.,2235.30370034796));
#426=CARTESIAN_POINT('',(165.175669558234,0.,2235.56858096352));
#427=CARTESIAN_POINT('',(146.3408403346,0.,2226.47090593609));
#428=CARTESIAN_POINT('',(149.764617634853,0.,2226.47090593609));
#429=CARTESIAN_POINT('',(153.188394935106,0.,2226.47090593609));
#430=CARTESIAN_POINT('',(156.612172235358,0.,2226.47090593609));
#431=CARTESIAN_POINT('',(117.953557200239,0.,2208.36553040038));
#432=CARTESIAN_POINT('',(119.088209274589,0.,2208.49113543362));
#433=CARTESIAN_POINT('',(120.222860515553,0.,2208.61674749879));
#434=CARTESIAN_POINT('',(121.353386367651,0.,2208.76918264973));
#435=CARTESIAN_POINT('',(122.58362716795,0.,2208.93506292724));
#436=CARTESIAN_POINT('',(123.808982748001,0.,2209.13270667868));
#437=CARTESIAN_POINT('',(125.042537130231,0.,2209.2896684256));
#438=CARTESIAN_POINT('',(126.568781680072,0.,2209.48387308673));
#439=CARTESIAN_POINT('',(128.107577337695,0.,2209.61579984282));
#440=CARTESIAN_POINT('',(129.599687793829,0.,2209.98368463887));
#441=CARTESIAN_POINT('',(131.023959962066,0.,2210.3348436794));
#442=CARTESIAN_POINT('',(132.405695482081,0.,2210.90099299139));
#443=CARTESIAN_POINT('',(133.679408636768,0.,2211.63198651393));
#444=CARTESIAN_POINT('',(134.923534455878,0.,2212.3459996429));
#445=CARTESIAN_POINT('',(136.064598167172,0.,2213.21728753391));
#446=CARTESIAN_POINT('',(137.194940241266,0.,2214.10443952292));
#447=CARTESIAN_POINT('',(138.545431171932,0.,2215.16437592866));
#448=CARTESIAN_POINT('',(139.880617408111,0.,2216.2469576794));
#449=CARTESIAN_POINT('',(141.057710348305,0.,2217.48778181065));
#450=CARTESIAN_POINT('',(142.107942818454,0.,2218.59487688181));
#451=CARTESIAN_POINT('',(143.032322504755,0.,2219.82794341803));
#452=CARTESIAN_POINT('',(143.835328893399,0.,2221.13133999201));
#453=CARTESIAN_POINT('',(144.461079545553,0.,2222.14702463378));
#454=CARTESIAN_POINT('',(145.013126755316,0.,2223.20541690554));
#455=CARTESIAN_POINT('',(145.484567563646,0.,2224.29780768554));
#456=CARTESIAN_POINT('',(145.792993739415,0.,2225.01247197587));
#457=CARTESIAN_POINT('',(146.066920030326,0.,2225.74168777327));
#458=CARTESIAN_POINT('',(146.3408403346,0.,2226.47090593609));
#459=CARTESIAN_POINT('',(117.671389589067,0.,2206.4478351827));
#460=CARTESIAN_POINT('',(114.793158646675,0.,2204.5));
#461=CARTESIAN_POINT('',(103.080454,0.,2204.5));
#462=CARTESIAN_POINT('',(106.984688882225,0.,2204.5));
#463=CARTESIAN_POINT('',(110.88892376445,0.,2204.5));
#464=CARTESIAN_POINT('',(114.793158646675,0.,2204.5));
#465=CARTESIAN_POINT('',(103.080454,1750.,2249.5));
#466=CARTESIAN_POINT('',(103.080454,1750.,2234.5));
#467=CARTESIAN_POINT('',(103.080454,1750.,2219.5));
#468=CARTESIAN_POINT('',(103.080454,1750.,2204.5));
#469=CARTESIAN_POINT('',(223.080454,1750.,2249.5));
#470=CARTESIAN_POINT('',(183.080454,1750.,2249.5));
#471=CARTESIAN_POINT('',(143.080454,1750.,2249.5));
#472=CARTESIAN_POINT('',(103.080454,1750.,2249.5));
#473=CARTESIAN_POINT('',(223.080454,1750.,2242.78816010688));
#474=CARTESIAN_POINT('',(223.080454,1750.,2245.02544007125));
#475=CARTESIAN_POINT('',(223.080454,1750.,2247.26272003563));
#476=CARTESIAN_POINT('',(223.080454,1750.,2249.5));
#477=CARTESIAN_POINT('',(214.44423435972,1750.,2235.56858096352));
#478=CARTESIAN_POINT('',(214.724356742763,1750.,2235.73104698403));
#479=CARTESIAN_POINT('',(215.004475279949,1750.,2235.89351835439));
#480=CARTESIAN_POINT('',(215.248041786679,1750.,2236.09540027606));
#481=CARTESIAN_POINT('',(215.776741818834,1750.,2236.53361725386));
#482=CARTESIAN_POINT('',(216.133217306151,1750.,2237.15752745235));
#483=CARTESIAN_POINT('',(216.526976116239,1750.,2237.74352775274));
#484=CARTESIAN_POINT('',(216.960374109484,1750.,2238.38851993506));
#485=CARTESIAN_POINT('',(217.43893978803,1750.,2238.98758535389));
#486=CARTESIAN_POINT('',(217.974181177112,1750.,2239.52619944409));
#487=CARTESIAN_POINT('',(218.512835477266,1750.,2240.06824795105));
#488=CARTESIAN_POINT('',(219.108890565853,1750.,2240.5490717483));
#489=CARTESIAN_POINT('',(219.690533090862,1750.,2241.07342539117));
#490=CARTESIAN_POINT('',(220.23430453214,1750.,2241.56363806281));
#491=CARTESIAN_POINT('',(220.765479130217,1750.,2242.09189661276));
#492=CARTESIAN_POINT('',(221.406980899202,1750.,2242.38524282276));
#493=CARTESIAN_POINT('',(221.918110959624,1750.,2242.61897260074));
#494=CARTESIAN_POINT('',(222.499281580374,1750.,2242.7035696512));
#495=CARTESIAN_POINT('',(223.080454,1750.,2242.78816010688));
#496=CARTESIAN_POINT('',(165.175669558234,1750.,2235.56858096352));
#497=CARTESIAN_POINT('',(181.598524492063,1750.,2235.56858096352));
#498=CARTESIAN_POINT('',(198.021379425892,1750.,2235.56858096352));
#499=CARTESIAN_POINT('',(214.44423435972,1750.,2235.56858096352));
#500=CARTESIAN_POINT('',(156.612172235358,1750.,2226.47090593609));
#501=CARTESIAN_POINT('',(156.764090768032,1750.,2226.81905104135));
#502=CARTESIAN_POINT('',(156.916016474647,1750.,2227.16719180457));
#503=CARTESIAN_POINT('',(157.121968466958,1750.,2227.47770372901));
#504=CARTESIAN_POINT('',(157.368910438676,1750.,2227.85001586837));
#505=CARTESIAN_POINT('',(157.693524133296,1750.,2228.16823032729));
#506=CARTESIAN_POINT('',(158.00849459968,1750.,2228.49994988534));
#507=CARTESIAN_POINT('',(158.418393221097,1750.,2228.93164556495));
#508=CARTESIAN_POINT('',(158.811959980795,1750.,2229.38621360701));
#509=CARTESIAN_POINT('',(159.304045732022,1750.,2229.69259543286));
#510=CARTESIAN_POINT('',(159.632542341332,1750.,2229.89712358816));
#511=CARTESIAN_POINT('',(160.004942553415,1750.,2230.03561464064));
#512=CARTESIAN_POINT('',(160.32692446214,1750.,2230.27188122063));
#513=CARTESIAN_POINT('',(160.640595091815,1750.,2230.50204908071));
#514=CARTESIAN_POINT('',(160.906416707,1750.,2230.82500988147));
#515=CARTESIAN_POINT('',(161.008809429108,1750.,2231.19191782386));
#516=CARTESIAN_POINT('',(161.09247310242,1750.,2231.49171321553));
#517=CARTESIAN_POINT('',(161.06702678502,1750.,2231.82084902629));
#518=CARTESIAN_POINT('',(161.179321825245,1750.,2232.1119603123));
#519=CARTESIAN_POINT('',(161.232654833402,1750.,2232.25021967407));
#520=CARTESIAN_POINT('',(161.317057420603,1750.,2232.37990204779));
#521=CARTESIAN_POINT('',(161.418036976269,1750.,2232.48680533664));
#522=CARTESIAN_POINT('',(161.886050338807,1750.,2232.98227362575));
#523=CARTESIAN_POINT('',(162.71014954354,1750.,2232.98842991315));
#524=CARTESIAN_POINT('',(163.29329844717,1750.,2233.33869092664));
#525=CARTESIAN_POINT('',(163.655017551503,1750.,2233.55595293175));
#526=CARTESIAN_POINT('',(163.924029887976,1750.,2233.90561085757));
#527=CARTESIAN_POINT('',(164.213797763911,1750.,2234.22465459945));
#528=CARTESIAN_POINT('',(164.389070958445,1750.,2234.4176360183));
#529=CARTESIAN_POINT('',(164.571938047412,1750.,2234.59941652949));
#530=CARTESIAN_POINT('',(164.725279632998,1750.,2234.80394982708));
#531=CARTESIAN_POINT('',(164.901367654905,1750.,2235.0388232546));
#532=CARTESIAN_POINT('',(165.03852095814,1750.,2235.30370034796));
#533=CARTESIAN_POINT('',(165.175669558234,1750.,2235.56858096352));
#534=CARTESIAN_POINT('',(146.3408403346,1750.,2226.47090593609));
#535=CARTESIAN_POINT('',(149.764617634853,1750.,2226.47090593609));
#536=CARTESIAN_POINT('',(153.188394935106,1750.,2226.47090593609));
#537=CARTESIAN_POINT('',(156.612172235358,1750.,2226.47090593609));
#538=CARTESIAN_POINT('',(117.953557200239,1750.,2208.36553040038));
#539=CARTESIAN_POINT('',(119.088209274589,1750.,2208.49113543362));
#540=CARTESIAN_POINT('',(120.222860515553,1750.,2208.61674749879));
#541=CARTESIAN_POINT('',(121.353386367651,1750.,2208.76918264973));
#542=CARTESIAN_POINT('',(122.58362716795,1750.,2208.93506292724));
#543=CARTESIAN_POINT('',(123.808982748001,1750.,2209.13270667868));
#544=CARTESIAN_POINT('',(125.042537130231,1750.,2209.2896684256));
#545=CARTESIAN_POINT('',(126.568781680072,1750.,2209.48387308673));
#546=CARTESIAN_POINT('',(128.107577337695,1750.,2209.61579984282));
#547=CARTESIAN_POINT('',(129.599687793829,1750.,2209.98368463887));
#548=CARTESIAN_POINT('',(131.023959962066,1750.,2210.3348436794));
#549=CARTESIAN_POINT('',(132.405695482081,1750.,2210.90099299139));
#550=CARTESIAN_POINT('',(133.679408636768,1750.,2211.63198651393));
#551=CARTESIAN_POINT('',(134.923534455878,1750.,2212.3459996429));
#552=CARTESIAN_POINT('',(136.064598167172,1750.,2213.21728753391));
#553=CARTESIAN_POINT('',(137.194940241266,1750.,2214.10443952292));
#554=CARTESIAN_POINT('',(138.545431171932,1750.,2215.16437592866));
#555=CARTESIAN_POINT('',(139.880617408111,1750.,2216.2469576794));
#556=CARTESIAN_POINT('',(141.057710348305,1750.,2217.48778181065));
#557=CARTESIAN_POINT('',(142.107942818454,1750.,2218.59487688181));
#558=CARTESIAN_POINT('',(143.032322504755,1750.,2219.82794341803));
#559=CARTESIAN_POINT('',(143.835328893399,1750.,2221.13133999201));
#560=CARTESIAN_POINT('',(144.461079545553,1750.,2222.14702463378));
#561=CARTESIAN_POINT('',(145.013126755316,1750.,2223.20541690554));
#562=CARTESIAN_POINT('',(145.484567563646,1750.,2224.29780768554));
#563=CARTESIAN_POINT('',(145.792993739415,1750.,2225.01247197587));
#564=CARTESIAN_POINT('',(146.066920030326,1750.,2225.74168777327));
#565=CARTESIAN_POINT('',(146.3408403346,1750.,2226.47090593609));
#566=CARTESIAN_POINT('',(117.671389589067,1750.,2206.4478351827));
#567=CARTESIAN_POINT('',(114.793158646675,1750.,2204.5));
#568=CARTESIAN_POINT('',(103.080454,1750.,2204.5));
#569=CARTESIAN_POINT('',(106.984688882225,1750.,2204.5));
#570=CARTESIAN_POINT('',(110.88892376445,1750.,2204.5));
#571=CARTESIAN_POINT('',(114.793158646675,1750.,2204.5));
#572=CARTESIAN_POINT('',(103.080454,0.,2204.5));
#573=CARTESIAN_POINT('',(114.793158646675,0.,2204.5));
#574=CARTESIAN_POINT('',(117.671389589067,0.,2206.4478351827));
#575=CARTESIAN_POINT('',(117.953557200239,0.,2208.36553040038));
#576=CARTESIAN_POINT('',(119.088209274589,0.,2208.49113543362));
#577=CARTESIAN_POINT('',(120.222860515553,0.,2208.61674749879));
#578=CARTESIAN_POINT('',(121.353386367651,0.,2208.76918264973));
#579=CARTESIAN_POINT('',(122.58362716795,0.,2208.93506292724));
#580=CARTESIAN_POINT('',(123.808982748001,0.,2209.13270667868));
#581=CARTESIAN_POINT('',(125.042537130231,0.,2209.2896684256));
#582=CARTESIAN_POINT('',(126.568781680072,0.,2209.48387308673));
#583=CARTESIAN_POINT('',(128.107577337695,0.,2209.61579984282));
#584=CARTESIAN_POINT('',(129.599687793829,0.,2209.98368463887));
#585=CARTESIAN_POINT('',(131.023959962066,0.,2210.3348436794));
#586=CARTESIAN_POINT('',(132.405695482081,0.,2210.90099299139));
#587=CARTESIAN_POINT('',(133.679408636768,0.,2211.63198651393));
#588=CARTESIAN_POINT('',(134.923534455878,0.,2212.3459996429));
#589=CARTESIAN_POINT('',(136.064598167172,0.,2213.21728753391));
#590=CARTESIAN_POINT('',(137.194940241266,0.,2214.10443952292));
#591=CARTESIAN_POINT('',(138.545431171932,0.,2215.16437592866));
#592=CARTESIAN_POINT('',(139.880617408111,0.,2216.2469576794));
#593=CARTESIAN_POINT('',(141.057710348305,0.,2217.48778181065));
#594=CARTESIAN_POINT('',(142.107942818454,0.,2218.59487688181));
#595=CARTESIAN_POINT('',(143.032322504755,0.,2219.82794341803));
#596=CARTESIAN_POINT('',(143.835328893399,0.,2221.13133999201));
#597=CARTESIAN_POINT('',(144.461079545553,0.,2222.14702463378));
#598=CARTESIAN_POINT('',(145.013126755316,0.,2223.20541690554));
#599=CARTESIAN_POINT('',(145.484567563646,0.,2224.29780768554));
#600=CARTESIAN_POINT('',(145.792993739415,0.,2225.01247197587));
#601=CARTESIAN_POINT('',(146.066920030326,0.,2225.74168777327));
#602=CARTESIAN_POINT('',(146.3408403346,0.,2226.47090593609));
#603=CARTESIAN_POINT('',(146.3408403346,0.,2226.47090593609));
#604=CARTESIAN_POINT('',(156.612172235358,0.,2226.47090593609));
#605=CARTESIAN_POINT('',(156.764090768032,0.,2226.81905104135));
#606=CARTESIAN_POINT('',(156.916016474647,0.,2227.16719180457));
#607=CARTESIAN_POINT('',(157.121968466958,0.,2227.47770372901));
#608=CARTESIAN_POINT('',(157.368910438676,0.,2227.85001586837));
#609=CARTESIAN_POINT('',(157.693524133296,0.,2228.16823032729));
#610=CARTESIAN_POINT('',(158.00849459968,0.,2228.49994988534));
#611=CARTESIAN_POINT('',(158.418393221097,0.,2228.93164556495));
#612=CARTESIAN_POINT('',(158.811959980795,0.,2229.38621360701));
#613=CARTESIAN_POINT('',(159.304045732022,0.,2229.69259543286));
#614=CARTESIAN_POINT('',(159.632542341332,0.,2229.89712358816));
#615=CARTESIAN_POINT('',(160.004942553415,0.,2230.03561464064));
#616=CARTESIAN_POINT('',(160.32692446214,0.,2230.27188122063));
#617=CARTESIAN_POINT('',(160.640595091815,0.,2230.50204908071));
#618=CARTESIAN_POINT('',(160.906416707,0.,2230.82500988147));
#619=CARTESIAN_POINT('',(161.008809429108,0.,2231.19191782386));
#620=CARTESIAN_POINT('',(161.09247310242,0.,2231.49171321553));
#621=CARTESIAN_POINT('',(161.06702678502,0.,2231.82084902629));
#622=CARTESIAN_POINT('',(161.179321825245,0.,2232.1119603123));
#623=CARTESIAN_POINT('',(161.232654833402,0.,2232.25021967407));
#624=CARTESIAN_POINT('',(161.317057420603,0.,2232.37990204779));
#625=CARTESIAN_POINT('',(161.418036976269,0.,2232.48680533664));
#626=CARTESIAN_POINT('',(161.886050338807,0.,2232.98227362575));
#627=CARTESIAN_POINT('',(162.71014954354,0.,2232.98842991315));
#628=CARTESIAN_POINT('',(163.29329844717,0.,2233.33869092664));
#629=CARTESIAN_POINT('',(163.655017551503,0.,2233.55595293175));
#630=CARTESIAN_POINT('',(163.924029887976,0.,2233.90561085757));
#631=CARTESIAN_POINT('',(164.213797763911,0.,2234.22465459945));
#632=CARTESIAN_POINT('',(164.389070958445,0.,2234.4176360183));
#633=CARTESIAN_POINT('',(164.571938047412,0.,2234.59941652949));
#634=CARTESIAN_POINT('',(164.725279632998,0.,2234.80394982708));
#635=CARTESIAN_POINT('',(164.901367654905,0.,2235.0388232546));
#636=CARTESIAN_POINT('',(165.03852095814,0.,2235.30370034796));
#637=CARTESIAN_POINT('',(165.175669558234,0.,2235.56858096352));
#638=CARTESIAN_POINT('',(165.175669558234,0.,2235.56858096352));
#639=CARTESIAN_POINT('',(214.44423435972,0.,2235.56858096352));
#640=CARTESIAN_POINT('',(214.724356742763,0.,2235.73104698403));
#641=CARTESIAN_POINT('',(215.004475279949,0.,2235.89351835439));
#642=CARTESIAN_POINT('',(215.248041786679,0.,2236.09540027606));
#643=CARTESIAN_POINT('',(215.776741818834,0.,2236.53361725386));
#644=CARTESIAN_POINT('',(216.133217306151,0.,2237.15752745235));
#645=CARTESIAN_POINT('',(216.526976116239,0.,2237.74352775274));
#646=CARTESIAN_POINT('',(216.960374109484,0.,2238.38851993506));
#647=CARTESIAN_POINT('',(217.43893978803,0.,2238.98758535389));
#648=CARTESIAN_POINT('',(217.974181177112,0.,2239.52619944409));
#649=CARTESIAN_POINT('',(218.512835477266,0.,2240.06824795105));
#650=CARTESIAN_POINT('',(219.108890565853,0.,2240.5490717483));
#651=CARTESIAN_POINT('',(219.690533090862,0.,2241.07342539117));
#652=CARTESIAN_POINT('',(220.23430453214,0.,2241.56363806281));
#653=CARTESIAN_POINT('',(220.765479130217,0.,2242.09189661276));
#654=CARTESIAN_POINT('',(221.406980899202,0.,2242.38524282276));
#655=CARTESIAN_POINT('',(221.918110959624,0.,2242.61897260074));
#656=CARTESIAN_POINT('',(222.499281580374,0.,2242.7035696512));
#657=CARTESIAN_POINT('',(223.080454,0.,2242.78816010688));
#658=CARTESIAN_POINT('',(223.080454,0.,2242.78816010688));
#659=CARTESIAN_POINT('',(223.080454,0.,2249.5));
#660=CARTESIAN_POINT('',(103.080454,0.,2249.5));
#661=CARTESIAN_POINT('',(135.479843343398,0.,2212.80328594591));
#662=CARTESIAN_POINT('',(135.479843343398,1750.,2212.80328594591));
#663=PRODUCT_DEFINITION_SHAPE('','',#664);
#664=PRODUCT_DEFINITION('','',#676,#681);
#665=(
GEOMETRIC_REPRESENTATION_CONTEXT(3)
GLOBAL_UNCERTAINTY_ASSIGNED_CONTEXT((#666))
GLOBAL_UNIT_ASSIGNED_CONTEXT((#668,#667,#671))
REPRESENTATION_CONTEXT('','')
);
#666=UNCERTAINTY_MEASURE_WITH_UNIT(LENGTH_MEASURE(0.001),#668,'','tolerance');
#667=(
CONVERSION_BASED_UNIT('',#669)
NAMED_UNIT(#675)
PLANE_ANGLE_UNIT()
);
#668=(
CONVERSION_BASED_UNIT('',#670)
LENGTH_UNIT()
NAMED_UNIT(#674)
);
#669=PLANE_ANGLE_MEASURE_WITH_UNIT(PLANE_ANGLE_MEASURE(0.0174532925199433),
#672);
#670=LENGTH_MEASURE_WITH_UNIT(LENGTH_MEASURE(1.),#673);
#671=(
NAMED_UNIT(*)
SI_UNIT($,.STERADIAN.)
SOLID_ANGLE_UNIT()
);
#672=(
NAMED_UNIT(*)
PLANE_ANGLE_UNIT()
SI_UNIT($,.RADIAN.)
);
#673=(
LENGTH_UNIT()
NAMED_UNIT(*)
SI_UNIT(.MILLI.,.METRE.)
);
#674=DIMENSIONAL_EXPONENTS(1.,0.,0.,0.,0.,0.,0.);
#675=DIMENSIONAL_EXPONENTS(0.,0.,0.,0.,0.,0.,0.);
#676=PRODUCT_DEFINITION_FORMATION_WITH_SPECIFIED_SOURCE('','',#679,.NOT_KNOWN.
);
#677=PRODUCT_CATEGORY_RELATIONSHIP('','',#682,#678);
#678=PRODUCT_RELATED_PRODUCT_CATEGORY('assembly','',(#679));
#679=PRODUCT('','master','',(#680));
#680=PRODUCT_CONTEXT('',#684,'');
#681=PRODUCT_DEFINITION_CONTEXT('',#684,'part_definition');
#682=PRODUCT_CATEGORY('part','');
#683=APPLICATION_PROTOCOL_DEFINITION('international standard',
'automotive_design_cc2',1994,#684);
#684=APPLICATION_CONTEXT(
'configuration controlled 3D designs of mechanical parts and assemblies');
ENDSEC;
END-ISO-10303-21;
38645