ISO-10303-21;
HEADER;
/* Generated by software using Delcam plc STEP library */

FILE_DESCRIPTION(
/* description */ ('AP-214 File'),
/* implementation_level */ '2;1');

FILE_NAME(
/* name */ 'D550 sans motif',
/* time_stamp */ 'Wed Dec 21 15:12:53 2016',
/* author */ (''),
/* organization */ (''),
/* preprocessor_version */ 'DELCAM STEP V1',
/* originating_system */ 'Exchange7.1.0006',
/* authorisation */ '');

FILE_SCHEMA (('AUTOMOTIVE_DESIGN'));
ENDSEC;
DATA;
#10=PRESENTATION_STYLE_ASSIGNMENT((#20));
#11=PRESENTATION_STYLE_ASSIGNMENT((#21));
#12=SURFACE_SIDE_STYLE('',(#14));
#13=SURFACE_SIDE_STYLE('',(#15));
#14=SURFACE_STYLE_FILL_AREA(#16);
#15=SURFACE_STYLE_FILL_AREA(#17);
#16=FILL_AREA_STYLE('',(#18));
#17=FILL_AREA_STYLE('',(#19));
#18=FILL_AREA_STYLE_COLOUR('',#40);
#19=FILL_AREA_STYLE_COLOUR('',#41);
#20=SURFACE_STYLE_USAGE(.BOTH.,#12);
#21=SURFACE_STYLE_USAGE(.BOTH.,#13);
#22=STYLED_ITEM('',(#10),#55);
#23=STYLED_ITEM('',(#10),#56);
#24=STYLED_ITEM('',(#10),#57);
#25=STYLED_ITEM('',(#10),#58);
#26=STYLED_ITEM('',(#10),#59);
#27=STYLED_ITEM('',(#10),#60);
#28=STYLED_ITEM('',(#10),#61);
#29=STYLED_ITEM('',(#10),#62);
#30=STYLED_ITEM('',(#10),#63);
#31=STYLED_ITEM('',(#10),#64);
#32=STYLED_ITEM('',(#10),#65);
#33=STYLED_ITEM('',(#10),#66);
#34=STYLED_ITEM('',(#10),#67);
#35=STYLED_ITEM('',(#10),#68);
#36=STYLED_ITEM('',(#10),#69);
#37=STYLED_ITEM('',(#10),#70);
#38=STYLED_ITEM('',(#10),#71);
#39=STYLED_ITEM('',(#11),#47);
#40=COLOUR_RGB('',0.,0.,0.);
#41=COLOUR_RGB('rgb_colour_1',0.4,0.4,0.4);
#42=MECHANICAL_DESIGN_GEOMETRIC_PRESENTATION_REPRESENTATION('',(#22,#23,#24,
#25,#26,#27,#28,#29,#30,#31,#32,#33,#34,#35,#36,#37,#38,#39),#581);
#43=PRESENTATION_LAYER_ASSIGNMENT('75','D550',(#55,#56,#57,#58,#59,#60,#61,#62
,#63,#64,#65,#66,#67,#68,#69,#70,#71,#47));
#44=SHAPE_REPRESENTATION_RELATIONSHIP('','',#358,#45);
#45=ADVANCED_BREP_SHAPE_REPRESENTATION('',(#46),#581);
#46=MANIFOLD_SOLID_BREP('1285',#47);
#47=CLOSED_SHELL('',(#55,#56,#57,#58,#59,#60,#61,#62,#63,#64,#65,#66,#67,#68,
#69,#70,#71));
#48=CYLINDRICAL_SURFACE('',#378,5.21375356430148);
#49=CYLINDRICAL_SURFACE('',#379,3.94217636668295);
#50=CYLINDRICAL_SURFACE('',#380,94.5006194630342);
#51=CYLINDRICAL_SURFACE('',#381,22.4872800541324);
#52=CYLINDRICAL_SURFACE('',#383,5.2185048904401);
#53=CYLINDRICAL_SURFACE('',#384,3.58917712005881);
#54=CYLINDRICAL_SURFACE('',#387,3.06431445995327);
#55=ADVANCED_FACE('',(#72),#196,.F.);
#56=ADVANCED_FACE('',(#73),#197,.F.);
#57=ADVANCED_FACE('',(#74),#198,.F.);
#58=ADVANCED_FACE('',(#75),#199,.F.);
#59=ADVANCED_FACE('',(#76),#48,.T.);
#60=ADVANCED_FACE('',(#77),#49,.T.);
#61=ADVANCED_FACE('',(#78),#50,.F.);
#62=ADVANCED_FACE('',(#79),#51,.F.);
#63=ADVANCED_FACE('',(#80),#200,.F.);
#64=ADVANCED_FACE('',(#81),#52,.T.);
#65=ADVANCED_FACE('',(#82),#53,.T.);
#66=ADVANCED_FACE('',(#83),#201,.F.);
#67=ADVANCED_FACE('',(#84),#202,.F.);
#68=ADVANCED_FACE('',(#85),#54,.F.);
#69=ADVANCED_FACE('',(#86),#203,.F.);
#70=ADVANCED_FACE('',(#87),#204,.T.);
#71=ADVANCED_FACE('',(#88),#205,.F.);
#72=FACE_OUTER_BOUND('',#89,.T.);
#73=FACE_OUTER_BOUND('',#90,.T.);
#74=FACE_OUTER_BOUND('',#91,.T.);
#75=FACE_OUTER_BOUND('',#92,.T.);
#76=FACE_OUTER_BOUND('',#93,.T.);
#77=FACE_OUTER_BOUND('',#94,.T.);
#78=FACE_OUTER_BOUND('',#95,.T.);
#79=FACE_OUTER_BOUND('',#96,.T.);
#80=FACE_OUTER_BOUND('',#97,.T.);
#81=FACE_OUTER_BOUND('',#98,.T.);
#82=FACE_OUTER_BOUND('',#99,.T.);
#83=FACE_OUTER_BOUND('',#100,.T.);
#84=FACE_OUTER_BOUND('',#101,.T.);
#85=FACE_OUTER_BOUND('',#102,.T.);
#86=FACE_OUTER_BOUND('',#103,.T.);
#87=FACE_OUTER_BOUND('',#104,.T.);
#88=FACE_OUTER_BOUND('',#105,.T.);
#89=EDGE_LOOP('',(#106,#107,#108,#109));
#90=EDGE_LOOP('',(#110,#111,#112,#113));
#91=EDGE_LOOP('',(#114,#115,#116,#117));
#92=EDGE_LOOP('',(#118,#119,#120,#121));
#93=EDGE_LOOP('',(#122,#123,#124,#125));
#94=EDGE_LOOP('',(#126,#127,#128,#129));
#95=EDGE_LOOP('',(#130,#131,#132,#133));
#96=EDGE_LOOP('',(#134,#135,#136,#137));
#97=EDGE_LOOP('',(#138,#139,#140,#141));
#98=EDGE_LOOP('',(#142,#143,#144,#145));
#99=EDGE_LOOP('',(#146,#147,#148,#149));
#100=EDGE_LOOP('',(#150,#151,#152,#153));
#101=EDGE_LOOP('',(#154,#155,#156,#157));
#102=EDGE_LOOP('',(#158,#159,#160,#161));
#103=EDGE_LOOP('',(#162,#163,#164,#165));
#104=EDGE_LOOP('',(#166,#167,#168,#169,#170,#171,#172,#173,#174,#175,#176,#177
,#178,#179,#180));
#105=EDGE_LOOP('',(#181,#182,#183,#184,#185,#186,#187,#188,#189,#190,#191,#192
,#193,#194,#195));
#106=ORIENTED_EDGE('',*,*,#264,.T.);
#107=ORIENTED_EDGE('',*,*,#220,.F.);
#108=ORIENTED_EDGE('',*,*,#249,.F.);
#109=ORIENTED_EDGE('',*,*,#234,.T.);
#110=ORIENTED_EDGE('',*,*,#263,.T.);
#111=ORIENTED_EDGE('',*,*,#221,.F.);
#112=ORIENTED_EDGE('',*,*,#248,.F.);
#113=ORIENTED_EDGE('',*,*,#220,.T.);
#114=ORIENTED_EDGE('',*,*,#262,.T.);
#115=ORIENTED_EDGE('',*,*,#222,.F.);
#116=ORIENTED_EDGE('',*,*,#247,.F.);
#117=ORIENTED_EDGE('',*,*,#221,.T.);
#118=ORIENTED_EDGE('',*,*,#261,.T.);
#119=ORIENTED_EDGE('',*,*,#223,.F.);
#120=ORIENTED_EDGE('',*,*,#246,.F.);
#121=ORIENTED_EDGE('',*,*,#222,.T.);
#122=ORIENTED_EDGE('',*,*,#260,.T.);
#123=ORIENTED_EDGE('',*,*,#224,.F.);
#124=ORIENTED_EDGE('',*,*,#245,.F.);
#125=ORIENTED_EDGE('',*,*,#223,.T.);
#126=ORIENTED_EDGE('',*,*,#259,.T.);
#127=ORIENTED_EDGE('',*,*,#225,.F.);
#128=ORIENTED_EDGE('',*,*,#244,.F.);
#129=ORIENTED_EDGE('',*,*,#224,.T.);
#130=ORIENTED_EDGE('',*,*,#258,.T.);
#131=ORIENTED_EDGE('',*,*,#226,.F.);
#132=ORIENTED_EDGE('',*,*,#243,.F.);
#133=ORIENTED_EDGE('',*,*,#225,.T.);
#134=ORIENTED_EDGE('',*,*,#257,.T.);
#135=ORIENTED_EDGE('',*,*,#227,.F.);
#136=ORIENTED_EDGE('',*,*,#242,.F.);
#137=ORIENTED_EDGE('',*,*,#226,.T.);
#138=ORIENTED_EDGE('',*,*,#256,.T.);
#139=ORIENTED_EDGE('',*,*,#228,.F.);
#140=ORIENTED_EDGE('',*,*,#241,.F.);
#141=ORIENTED_EDGE('',*,*,#227,.T.);
#142=ORIENTED_EDGE('',*,*,#255,.T.);
#143=ORIENTED_EDGE('',*,*,#229,.F.);
#144=ORIENTED_EDGE('',*,*,#240,.F.);
#145=ORIENTED_EDGE('',*,*,#228,.T.);
#146=ORIENTED_EDGE('',*,*,#254,.T.);
#147=ORIENTED_EDGE('',*,*,#230,.F.);
#148=ORIENTED_EDGE('',*,*,#239,.F.);
#149=ORIENTED_EDGE('',*,*,#229,.T.);
#150=ORIENTED_EDGE('',*,*,#253,.T.);
#151=ORIENTED_EDGE('',*,*,#231,.F.);
#152=ORIENTED_EDGE('',*,*,#238,.F.);
#153=ORIENTED_EDGE('',*,*,#230,.T.);
#154=ORIENTED_EDGE('',*,*,#252,.T.);
#155=ORIENTED_EDGE('',*,*,#232,.F.);
#156=ORIENTED_EDGE('',*,*,#237,.F.);
#157=ORIENTED_EDGE('',*,*,#231,.T.);
#158=ORIENTED_EDGE('',*,*,#251,.T.);
#159=ORIENTED_EDGE('',*,*,#233,.F.);
#160=ORIENTED_EDGE('',*,*,#236,.F.);
#161=ORIENTED_EDGE('',*,*,#232,.T.);
#162=ORIENTED_EDGE('',*,*,#250,.T.);
#163=ORIENTED_EDGE('',*,*,#234,.F.);
#164=ORIENTED_EDGE('',*,*,#235,.F.);
#165=ORIENTED_EDGE('',*,*,#233,.T.);
#166=ORIENTED_EDGE('',*,*,#249,.T.);
#167=ORIENTED_EDGE('',*,*,#248,.T.);
#168=ORIENTED_EDGE('',*,*,#247,.T.);
#169=ORIENTED_EDGE('',*,*,#246,.T.);
#170=ORIENTED_EDGE('',*,*,#245,.T.);
#171=ORIENTED_EDGE('',*,*,#244,.T.);
#172=ORIENTED_EDGE('',*,*,#243,.T.);
#173=ORIENTED_EDGE('',*,*,#242,.T.);
#174=ORIENTED_EDGE('',*,*,#241,.T.);
#175=ORIENTED_EDGE('',*,*,#240,.T.);
#176=ORIENTED_EDGE('',*,*,#239,.T.);
#177=ORIENTED_EDGE('',*,*,#238,.T.);
#178=ORIENTED_EDGE('',*,*,#237,.T.);
#179=ORIENTED_EDGE('',*,*,#236,.T.);
#180=ORIENTED_EDGE('',*,*,#235,.T.);
#181=ORIENTED_EDGE('',*,*,#264,.F.);
#182=ORIENTED_EDGE('',*,*,#250,.F.);
#183=ORIENTED_EDGE('',*,*,#251,.F.);
#184=ORIENTED_EDGE('',*,*,#252,.F.);
#185=ORIENTED_EDGE('',*,*,#253,.F.);
#186=ORIENTED_EDGE('',*,*,#254,.F.);
#187=ORIENTED_EDGE('',*,*,#255,.F.);
#188=ORIENTED_EDGE('',*,*,#256,.F.);
#189=ORIENTED_EDGE('',*,*,#257,.F.);
#190=ORIENTED_EDGE('',*,*,#258,.F.);
#191=ORIENTED_EDGE('',*,*,#259,.F.);
#192=ORIENTED_EDGE('',*,*,#260,.F.);
#193=ORIENTED_EDGE('',*,*,#261,.F.);
#194=ORIENTED_EDGE('',*,*,#262,.F.);
#195=ORIENTED_EDGE('',*,*,#263,.F.);
#196=PLANE('',#374);
#197=PLANE('',#375);
#198=PLANE('',#376);
#199=PLANE('',#377);
#200=PLANE('',#382);
#201=PLANE('',#385);
#202=PLANE('',#386);
#203=PLANE('',#388);
#204=PLANE('',#389);
#205=PLANE('',#390);
#206=CIRCLE('',#360,3.06431445995327);
#207=CIRCLE('',#361,3.58917712005881);
#208=CIRCLE('',#362,5.2185048904401);
#209=CIRCLE('',#363,22.4872800541324);
#210=CIRCLE('',#364,94.5006194630342);
#211=CIRCLE('',#365,3.94217636668295);
#212=CIRCLE('',#366,5.21375356430148);
#213=CIRCLE('',#367,3.06431445995327);
#214=CIRCLE('',#368,3.58917712005881);
#215=CIRCLE('',#369,5.2185048904401);
#216=CIRCLE('',#370,22.4872800541324);
#217=CIRCLE('',#371,94.5006194630342);
#218=CIRCLE('',#372,3.94217636668295);
#219=CIRCLE('',#373,5.21375356430148);
#220=EDGE_CURVE('',#341,#356,#265,.T.);
#221=EDGE_CURVE('',#340,#355,#266,.T.);
#222=EDGE_CURVE('',#339,#354,#267,.T.);
#223=EDGE_CURVE('',#338,#353,#268,.T.);
#224=EDGE_CURVE('',#337,#352,#269,.T.);
#225=EDGE_CURVE('',#336,#351,#270,.T.);
#226=EDGE_CURVE('',#335,#350,#271,.T.);
#227=EDGE_CURVE('',#334,#349,#272,.T.);
#228=EDGE_CURVE('',#333,#348,#273,.T.);
#229=EDGE_CURVE('',#332,#347,#274,.T.);
#230=EDGE_CURVE('',#331,#346,#275,.T.);
#231=EDGE_CURVE('',#330,#345,#276,.T.);
#232=EDGE_CURVE('',#329,#344,#277,.T.);
#233=EDGE_CURVE('',#328,#343,#278,.T.);
#234=EDGE_CURVE('',#327,#342,#279,.T.);
#235=EDGE_CURVE('',#328,#327,#280,.T.);
#236=EDGE_CURVE('',#329,#328,#206,.T.);
#237=EDGE_CURVE('',#330,#329,#281,.T.);
#238=EDGE_CURVE('',#331,#330,#282,.T.);
#239=EDGE_CURVE('',#332,#331,#207,.T.);
#240=EDGE_CURVE('',#333,#332,#208,.T.);
#241=EDGE_CURVE('',#334,#333,#283,.T.);
#242=EDGE_CURVE('',#335,#334,#209,.T.);
#243=EDGE_CURVE('',#336,#335,#210,.T.);
#244=EDGE_CURVE('',#337,#336,#211,.T.);
#245=EDGE_CURVE('',#338,#337,#212,.T.);
#246=EDGE_CURVE('',#339,#338,#284,.T.);
#247=EDGE_CURVE('',#340,#339,#285,.T.);
#248=EDGE_CURVE('',#341,#340,#286,.T.);
#249=EDGE_CURVE('',#327,#341,#287,.T.);
#250=EDGE_CURVE('',#343,#342,#288,.T.);
#251=EDGE_CURVE('',#344,#343,#213,.T.);
#252=EDGE_CURVE('',#345,#344,#289,.T.);
#253=EDGE_CURVE('',#346,#345,#290,.T.);
#254=EDGE_CURVE('',#347,#346,#214,.T.);
#255=EDGE_CURVE('',#348,#347,#215,.T.);
#256=EDGE_CURVE('',#349,#348,#291,.T.);
#257=EDGE_CURVE('',#350,#349,#216,.T.);
#258=EDGE_CURVE('',#351,#350,#217,.T.);
#259=EDGE_CURVE('',#352,#351,#218,.T.);
#260=EDGE_CURVE('',#353,#352,#219,.T.);
#261=EDGE_CURVE('',#354,#353,#292,.T.);
#262=EDGE_CURVE('',#355,#354,#293,.T.);
#263=EDGE_CURVE('',#356,#355,#294,.T.);
#264=EDGE_CURVE('',#342,#356,#295,.T.);
#265=LINE('',#517,#296);
#266=LINE('',#518,#297);
#267=LINE('',#519,#298);
#268=LINE('',#520,#299);
#269=LINE('',#521,#300);
#270=LINE('',#522,#301);
#271=LINE('',#523,#302);
#272=LINE('',#524,#303);
#273=LINE('',#525,#304);
#274=LINE('',#526,#305);
#275=LINE('',#527,#306);
#276=LINE('',#528,#307);
#277=LINE('',#529,#308);
#278=LINE('',#530,#309);
#279=LINE('',#531,#310);
#280=LINE('',#532,#311);
#281=LINE('',#534,#312);
#282=LINE('',#535,#313);
#283=LINE('',#538,#314);
#284=LINE('',#543,#315);
#285=LINE('',#544,#316);
#286=LINE('',#545,#317);
#287=LINE('',#546,#318);
#288=LINE('',#547,#319);
#289=LINE('',#549,#320);
#290=LINE('',#550,#321);
#291=LINE('',#553,#322);
#292=LINE('',#558,#323);
#293=LINE('',#559,#324);
#294=LINE('',#560,#325);
#295=LINE('',#561,#326);
#296=VECTOR('',#393,1.);
#297=VECTOR('',#394,1.);
#298=VECTOR('',#395,1.);
#299=VECTOR('',#396,1.);
#300=VECTOR('',#397,1.);
#301=VECTOR('',#398,1.);
#302=VECTOR('',#399,1.);
#303=VECTOR('',#400,1.);
#304=VECTOR('',#401,1.);
#305=VECTOR('',#402,1.);
#306=VECTOR('',#403,1.);
#307=VECTOR('',#404,1.);
#308=VECTOR('',#405,1.);
#309=VECTOR('',#406,1.);
#310=VECTOR('',#407,1.);
#311=VECTOR('',#408,1.);
#312=VECTOR('',#411,1.);
#313=VECTOR('',#412,1.);
#314=VECTOR('',#417,1.);
#315=VECTOR('',#426,1.);
#316=VECTOR('',#427,1.);
#317=VECTOR('',#428,1.);
#318=VECTOR('',#429,1.);
#319=VECTOR('',#430,1.);
#320=VECTOR('',#433,1.);
#321=VECTOR('',#434,1.);
#322=VECTOR('',#439,1.);
#323=VECTOR('',#448,1.);
#324=VECTOR('',#449,1.);
#325=VECTOR('',#450,1.);
#326=VECTOR('',#451,1.);
#327=VERTEX_POINT('',#487);
#328=VERTEX_POINT('',#488);
#329=VERTEX_POINT('',#489);
#330=VERTEX_POINT('',#490);
#331=VERTEX_POINT('',#491);
#332=VERTEX_POINT('',#492);
#333=VERTEX_POINT('',#493);
#334=VERTEX_POINT('',#494);
#335=VERTEX_POINT('',#495);
#336=VERTEX_POINT('',#496);
#337=VERTEX_POINT('',#497);
#338=VERTEX_POINT('',#498);
#339=VERTEX_POINT('',#499);
#340=VERTEX_POINT('',#500);
#341=VERTEX_POINT('',#501);
#342=VERTEX_POINT('',#502);
#343=VERTEX_POINT('',#503);
#344=VERTEX_POINT('',#504);
#345=VERTEX_POINT('',#505);
#346=VERTEX_POINT('',#506);
#347=VERTEX_POINT('',#507);
#348=VERTEX_POINT('',#508);
#349=VERTEX_POINT('',#509);
#350=VERTEX_POINT('',#510);
#351=VERTEX_POINT('',#511);
#352=VERTEX_POINT('',#512);
#353=VERTEX_POINT('',#513);
#354=VERTEX_POINT('',#514);
#355=VERTEX_POINT('',#515);
#356=VERTEX_POINT('',#516);
#357=SHAPE_DEFINITION_REPRESENTATION(#579,#358);
#358=SHAPE_REPRESENTATION('master',(#359),#581);
#359=AXIS2_PLACEMENT_3D('',#486,#392,#391);
#360=AXIS2_PLACEMENT_3D('',#533,#410,#409);
#361=AXIS2_PLACEMENT_3D('',#536,#414,#413);
#362=AXIS2_PLACEMENT_3D('',#537,#416,#415);
#363=AXIS2_PLACEMENT_3D('',#539,#419,#418);
#364=AXIS2_PLACEMENT_3D('',#540,#421,#420);
#365=AXIS2_PLACEMENT_3D('',#541,#423,#422);
#366=AXIS2_PLACEMENT_3D('',#542,#425,#424);
#367=AXIS2_PLACEMENT_3D('',#548,#432,#431);
#368=AXIS2_PLACEMENT_3D('',#551,#436,#435);
#369=AXIS2_PLACEMENT_3D('',#552,#438,#437);
#370=AXIS2_PLACEMENT_3D('',#554,#441,#440);
#371=AXIS2_PLACEMENT_3D('',#555,#443,#442);
#372=AXIS2_PLACEMENT_3D('',#556,#445,#444);
#373=AXIS2_PLACEMENT_3D('',#557,#447,#446);
#374=AXIS2_PLACEMENT_3D('',#562,#453,#452);
#375=AXIS2_PLACEMENT_3D('',#563,#455,#454);
#376=AXIS2_PLACEMENT_3D('',#564,#457,#456);
#377=AXIS2_PLACEMENT_3D('',#565,#459,#458);
#378=AXIS2_PLACEMENT_3D('',#566,#461,#460);
#379=AXIS2_PLACEMENT_3D('',#567,#463,#462);
#380=AXIS2_PLACEMENT_3D('',#568,#465,#464);
#381=AXIS2_PLACEMENT_3D('',#569,#467,#466);
#382=AXIS2_PLACEMENT_3D('',#570,#469,#468);
#383=AXIS2_PLACEMENT_3D('',#571,#471,#470);
#384=AXIS2_PLACEMENT_3D('',#572,#473,#472);
#385=AXIS2_PLACEMENT_3D('',#573,#475,#474);
#386=AXIS2_PLACEMENT_3D('',#574,#477,#476);
#387=AXIS2_PLACEMENT_3D('',#575,#479,#478);
#388=AXIS2_PLACEMENT_3D('',#576,#481,#480);
#389=AXIS2_PLACEMENT_3D('',#577,#483,#482);
#390=AXIS2_PLACEMENT_3D('',#578,#485,#484);
#391=DIRECTION('',(1.,0.,0.));
#392=DIRECTION('',(0.,0.,1.));
#393=DIRECTION('',(-4.37312370547785E-013,-1.,7.05304633265963E-013));
#394=DIRECTION('',(-4.37312370547785E-013,-1.,7.05304633265963E-013));
#395=DIRECTION('',(-4.37312370547785E-013,-1.,7.05304633265963E-013));
#396=DIRECTION('',(-4.37312370547785E-013,-1.,7.05304633265963E-013));
#397=DIRECTION('',(-4.37312370547785E-013,-1.,7.05304633265963E-013));
#398=DIRECTION('',(-4.37312370547785E-013,-1.,7.05304633265963E-013));
#399=DIRECTION('',(-4.37312370547785E-013,-1.,7.05304633265963E-013));
#400=DIRECTION('',(-4.37312370547785E-013,-1.,7.05304633265963E-013));
#401=DIRECTION('',(-4.37312370547785E-013,-1.,7.05304633265963E-013));
#402=DIRECTION('',(-4.37312370547785E-013,-1.,7.05304633265963E-013));
#403=DIRECTION('',(-4.37312370547785E-013,-1.,7.05304633265963E-013));
#404=DIRECTION('',(-4.37312370547785E-013,-1.,7.05304633265963E-013));
#405=DIRECTION('',(-4.37312370547785E-013,-1.,7.05304633265963E-013));
#406=DIRECTION('',(-4.37312370547785E-013,-1.,7.05304633265963E-013));
#407=DIRECTION('',(-4.37312370547785E-013,-1.,7.05304633265963E-013));
#408=DIRECTION('',(-1.,-0.,-0.));
#409=DIRECTION('',(-0.042639104051296,0.,0.999090539843964));
#410=DIRECTION('',(0.,-1.,0.));
#411=DIRECTION('',(-0.135186408249863,0.,-0.990820182992102));
#412=DIRECTION('',(-1.,0.,-2.39340710992882E-013));
#413=DIRECTION('',(0.283998178740993,0.,-0.958824819490922));
#414=DIRECTION('',(0.,1.,0.));
#415=DIRECTION('',(0.996900043740717,0.,-0.0786784772968822));
#416=DIRECTION('',(0.,1.,0.));
#417=DIRECTION('',(-0.997781093794708,0.,-0.0665799434201891));
#418=DIRECTION('',(-0.4841078121645,0.,0.875008357789399));
#419=DIRECTION('',(0.,-1.,0.));
#420=DIRECTION('',(-0.153788158734542,0.,0.98810384182688));
#421=DIRECTION('',(0.,-1.,0.));
#422=DIRECTION('',(-0.0587708665178043,0.,-0.998271498766116));
#423=DIRECTION('',(0.,1.,0.));
#424=DIRECTION('',(0.942214691102168,0.,-0.335009665340042));
#425=DIRECTION('',(0.,1.,0.));
#426=DIRECTION('',(-1.,-0.,-0.));
#427=DIRECTION('',(-0.277252603003491,0.,-0.960797061885489));
#428=DIRECTION('',(1.,-0.,-0.));
#429=DIRECTION('',(0.,0.,1.));
#430=DIRECTION('',(-1.,-0.,-0.));
#431=DIRECTION('',(-0.042639104051296,0.,0.999090539843964));
#432=DIRECTION('',(0.,-1.,0.));
#433=DIRECTION('',(-0.135186408249863,0.,-0.990820182992102));
#434=DIRECTION('',(-1.,0.,-2.39340710992882E-013));
#435=DIRECTION('',(0.283998178740993,0.,-0.958824819490922));
#436=DIRECTION('',(0.,1.,0.));
#437=DIRECTION('',(0.996900043740717,0.,-0.0786784772968822));
#438=DIRECTION('',(0.,1.,0.));
#439=DIRECTION('',(-0.997781093794708,0.,-0.0665799434201891));
#440=DIRECTION('',(-0.4841078121645,0.,0.875008357789399));
#441=DIRECTION('',(0.,-1.,0.));
#442=DIRECTION('',(-0.153788158734542,0.,0.98810384182688));
#443=DIRECTION('',(0.,-1.,0.));
#444=DIRECTION('',(-0.0587708665178043,0.,-0.998271498766116));
#445=DIRECTION('',(0.,1.,0.));
#446=DIRECTION('',(0.942214691102168,0.,-0.335009665340042));
#447=DIRECTION('',(0.,1.,0.));
#448=DIRECTION('',(-1.,-0.,-0.));
#449=DIRECTION('',(-0.277252603003491,0.,-0.960797061885489));
#450=DIRECTION('',(1.,-0.,-0.));
#451=DIRECTION('',(0.,0.,1.));
#452=DIRECTION('',(4.37312370547785E-013,1.,0.));
#453=DIRECTION('',(1.,-4.37312370547785E-013,0.));
#454=DIRECTION('',(0.,1.,-7.05304633265963E-013));
#455=DIRECTION('',(-0.,-7.05304633265963E-013,-1.));
#456=DIRECTION('',(0.277252603003491,-2.52435489670724E-029,0.960797061885489)
);
#457=DIRECTION('',(-0.960797061885489,6.15715986231901E-013,0.277252603003491)
);
#458=DIRECTION('',(0.,-1.,7.05304633265963E-013));
#459=DIRECTION('',(-0.,7.05304633265963E-013,1.));
#460=DIRECTION('',(0.,-7.05304633265963E-013,-1.));
#461=DIRECTION('',(-4.37312370547785E-013,-1.,7.05304633265963E-013));
#462=DIRECTION('',(0.,-7.05304633265963E-013,-1.));
#463=DIRECTION('',(-4.37312370547785E-013,-1.,7.05304633265963E-013));
#464=DIRECTION('',(0.,-7.05304633265963E-013,-1.));
#465=DIRECTION('',(-4.37312370547785E-013,-1.,7.05304633265963E-013));
#466=DIRECTION('',(0.,-7.05304633265963E-013,-1.));
#467=DIRECTION('',(-4.37312370547785E-013,-1.,7.05304633265963E-013));
#468=DIRECTION('',(0.997781093794708,0.,0.0665799434201891));
#469=DIRECTION('',(-0.0665799434201891,7.32855861326608E-013,0.997781093794708
));
#470=DIRECTION('',(0.,-7.05304633265963E-013,-1.));
#471=DIRECTION('',(-4.37312370547785E-013,-1.,7.05304633265963E-013));
#472=DIRECTION('',(0.,-7.05304633265963E-013,-1.));
#473=DIRECTION('',(-4.37312370547785E-013,-1.,7.05304633265963E-013));
#474=DIRECTION('',(0.,-1.,7.05304633266067E-013));
#475=DIRECTION('',(-2.39340710992882E-013,7.05304633266067E-013,1.));
#476=DIRECTION('',(0.135186408249863,-1.26217744835362E-029,0.990820182992102)
);
#477=DIRECTION('',(-0.990820182992102,5.28645523104078E-013,0.135186408249863)
);
#478=DIRECTION('',(0.,-7.05304633265963E-013,-1.));
#479=DIRECTION('',(-4.37312370547785E-013,-1.,7.05304633265963E-013));
#480=DIRECTION('',(0.,-1.,7.05304633265963E-013));
#481=DIRECTION('',(-0.,7.05304633265963E-013,1.));
#482=DIRECTION('',(0.,-0.,1.));
#483=DIRECTION('',(0.,1.,0.));
#484=DIRECTION('',(0.,-0.,1.));
#485=DIRECTION('',(0.,1.,0.));
#486=CARTESIAN_POINT('',(0.,0.,0.));
#487=CARTESIAN_POINT('',(103.080454000875,1622.253894,2210.52595499859));
#488=CARTESIAN_POINT('',(109.485757000875,1622.253894,2210.52595499859));
#489=CARTESIAN_POINT('',(112.029254000875,1622.253894,2212.09118399859));
#490=CARTESIAN_POINT('',(112.411879000875,1622.253894,2214.89555299859));
#491=CARTESIAN_POINT('',(114.311879000874,1622.253894,2214.89555299859));
#492=CARTESIAN_POINT('',(118.66767913197,1622.253894,2212.77707100755));
#493=CARTESIAN_POINT('',(122.387961000874,1622.253894,2217.37011899859));
#494=CARTESIAN_POINT('',(126.374488000875,1622.253894,2217.63613199859));
#495=CARTESIAN_POINT('',(136.492403130929,1622.253894,2229.28137269858));
#496=CARTESIAN_POINT('',(167.707815000875,1622.253894,2239.96896599859));
#497=CARTESIAN_POINT('',(170.984174982019,1622.253894,2237.8320402505));
#498=CARTESIAN_POINT('',(176.203067000875,1622.253894,2241.29012399859));
#499=CARTESIAN_POINT('',(179.703067000875,1622.253894,2241.29012399859));
#500=CARTESIAN_POINT('',(182.072151567879,1622.253894,2249.49999999859));
#501=CARTESIAN_POINT('',(103.080454000875,1622.253894,2249.49999999859));
#502=CARTESIAN_POINT('',(103.080454,-377.746106,2210.525955));
#503=CARTESIAN_POINT('',(109.485757,-377.746106,2210.525955));
#504=CARTESIAN_POINT('',(112.029254,-377.746106,2212.091184));
#505=CARTESIAN_POINT('',(112.411879,-377.746106,2214.895553));
#506=CARTESIAN_POINT('',(114.311879,-377.746106,2214.895553));
#507=CARTESIAN_POINT('',(118.667679131095,-377.746106,2212.77707100896));
#508=CARTESIAN_POINT('',(122.387961,-377.746106,2217.370119));
#509=CARTESIAN_POINT('',(126.374488,-377.746106,2217.636132));
#510=CARTESIAN_POINT('',(136.492403130055,-377.746106,2229.28137269999));
#511=CARTESIAN_POINT('',(167.707815,-377.746106,2239.968966));
#512=CARTESIAN_POINT('',(170.984174981144,-377.746106,2237.83204025191));
#513=CARTESIAN_POINT('',(176.203067,-377.746106,2241.290124));
#514=CARTESIAN_POINT('',(179.703067,-377.746106,2241.290124));
#515=CARTESIAN_POINT('',(182.072151567004,-377.746106,2249.5));
#516=CARTESIAN_POINT('',(103.080454,-377.746106,2249.5));
#517=CARTESIAN_POINT('',(103.080454000875,1622.253894,2249.49999999859));
#518=CARTESIAN_POINT('',(182.072151567879,1622.253894,2249.49999999859));
#519=CARTESIAN_POINT('',(179.703067000875,1622.253894,2241.29012399859));
#520=CARTESIAN_POINT('',(176.203067000875,1622.253894,2241.29012399859));
#521=CARTESIAN_POINT('',(170.984174982019,1622.253894,2237.8320402505));
#522=CARTESIAN_POINT('',(167.707815000875,1622.253894,2239.96896599859));
#523=CARTESIAN_POINT('',(136.492403130929,1622.253894,2229.28137269858));
#524=CARTESIAN_POINT('',(126.374488000875,1622.253894,2217.63613199859));
#525=CARTESIAN_POINT('',(122.387961000874,1622.253894,2217.37011899859));
#526=CARTESIAN_POINT('',(118.66767913197,1622.253894,2212.77707100755));
#527=CARTESIAN_POINT('',(114.311879000874,1622.253894,2214.89555299859));
#528=CARTESIAN_POINT('',(112.411879000875,1622.253894,2214.89555299859));
#529=CARTESIAN_POINT('',(112.029254000875,1622.253894,2212.09118399859));
#530=CARTESIAN_POINT('',(109.485757000875,1622.253894,2210.52595499859));
#531=CARTESIAN_POINT('',(103.080454000875,1622.253894,2210.52595499859));
#532=CARTESIAN_POINT('',(109.485757000875,1622.253894,2210.52595499859));
#533=CARTESIAN_POINT('',(112.159913623978,1622.253894,2209.02965641054));
#534=CARTESIAN_POINT('',(112.411879000875,1622.253894,2214.89555299859));
#535=CARTESIAN_POINT('',(114.311879000874,1622.253894,2214.89555299859));
#536=CARTESIAN_POINT('',(117.648359366694,1622.253894,2216.21846311181));
#537=CARTESIAN_POINT('',(117.185633247334,1622.253894,2217.78070301714));
#538=CARTESIAN_POINT('',(126.374488000875,1622.253894,2217.63613199859));
#539=CARTESIAN_POINT('',(147.378671079466,1622.253894,2209.60481470726));
#540=CARTESIAN_POINT('',(182.240891267368,1622.253894,2146.59254085215));
#541=CARTESIAN_POINT('',(171.215860103055,1622.253894,2241.76740256047));
#542=CARTESIAN_POINT('',(171.290591796804,1622.253894,2243.03678183533));
#543=CARTESIAN_POINT('',(179.703067000875,1622.253894,2241.29012399859));
#544=CARTESIAN_POINT('',(182.072151567879,1622.253894,2249.49999999859));
#545=CARTESIAN_POINT('',(103.080454000875,1622.253894,2249.49999999859));
#546=CARTESIAN_POINT('',(103.080454000875,1622.253894,2210.52595499859));
#547=CARTESIAN_POINT('',(109.485757,-377.746106,2210.525955));
#548=CARTESIAN_POINT('',(112.159913623104,-377.746106,2209.02965641195));
#549=CARTESIAN_POINT('',(112.411879,-377.746106,2214.895553));
#550=CARTESIAN_POINT('',(114.311879,-377.746106,2214.895553));
#551=CARTESIAN_POINT('',(117.648359365819,-377.746106,2216.21846311322));
#552=CARTESIAN_POINT('',(117.185633246459,-377.746106,2217.78070301855));
#553=CARTESIAN_POINT('',(126.374488,-377.746106,2217.636132));
#554=CARTESIAN_POINT('',(147.378671078591,-377.746106,2209.60481470867));
#555=CARTESIAN_POINT('',(182.240891266494,-377.746106,2146.59254085356));
#556=CARTESIAN_POINT('',(171.215860102181,-377.746106,2241.76740256188));
#557=CARTESIAN_POINT('',(171.290591795929,-377.746106,2243.03678183674));
#558=CARTESIAN_POINT('',(179.703067,-377.746106,2241.290124));
#559=CARTESIAN_POINT('',(182.072151567004,-377.746106,2249.5));
#560=CARTESIAN_POINT('',(103.080454,-377.746106,2249.5));
#561=CARTESIAN_POINT('',(103.080454,-377.746106,2210.525955));
#562=CARTESIAN_POINT('',(103.080454000875,1622.253894,2210.52595499859));
#563=CARTESIAN_POINT('',(103.080454000875,1622.253894,2249.49999999859));
#564=CARTESIAN_POINT('',(182.072151567879,1622.253894,2249.49999999859));
#565=CARTESIAN_POINT('',(179.703067000875,1622.253894,2241.29012399859));
#566=CARTESIAN_POINT('',(171.290591796804,1622.253894,2243.03678183533));
#567=CARTESIAN_POINT('',(171.215860103055,1622.253894,2241.76740256047));
#568=CARTESIAN_POINT('',(182.240891267368,1622.253894,2146.59254085215));
#569=CARTESIAN_POINT('',(147.378671079466,1622.253894,2209.60481470726));
#570=CARTESIAN_POINT('',(126.374488000875,1622.253894,2217.63613199859));
#571=CARTESIAN_POINT('',(117.185633247334,1622.253894,2217.78070301714));
#572=CARTESIAN_POINT('',(117.648359366694,1622.253894,2216.21846311181));
#573=CARTESIAN_POINT('',(114.311879000874,1622.253894,2214.89555299859));
#574=CARTESIAN_POINT('',(112.411879000875,1622.253894,2214.89555299859));
#575=CARTESIAN_POINT('',(112.159913623978,1622.253894,2209.02965641054));
#576=CARTESIAN_POINT('',(109.485757000875,1622.253894,2210.52595499859));
#577=CARTESIAN_POINT('',(171.290591796804,1622.253894,2243.03678183533));
#578=CARTESIAN_POINT('',(171.290591795929,-377.746106,2243.03678183674));
#579=PRODUCT_DEFINITION_SHAPE('','',#580);
#580=PRODUCT_DEFINITION('','',#592,#597);
#581=(
GEOMETRIC_REPRESENTATION_CONTEXT(3)
GLOBAL_UNCERTAINTY_ASSIGNED_CONTEXT((#582))
GLOBAL_UNIT_ASSIGNED_CONTEXT((#584,#583,#587))
REPRESENTATION_CONTEXT('','')
);
#582=UNCERTAINTY_MEASURE_WITH_UNIT(LENGTH_MEASURE(0.001),#584,'','tolerance');
#583=(
CONVERSION_BASED_UNIT('',#585)
NAMED_UNIT(#591)
PLANE_ANGLE_UNIT()
);
#584=(
CONVERSION_BASED_UNIT('',#586)
LENGTH_UNIT()
NAMED_UNIT(#590)
);
#585=PLANE_ANGLE_MEASURE_WITH_UNIT(PLANE_ANGLE_MEASURE(0.0174532925199433),
#588);
#586=LENGTH_MEASURE_WITH_UNIT(LENGTH_MEASURE(1.),#589);
#587=(
NAMED_UNIT(*)
SI_UNIT($,.STERADIAN.)
SOLID_ANGLE_UNIT()
);
#588=(
NAMED_UNIT(*)
PLANE_ANGLE_UNIT()
SI_UNIT($,.RADIAN.)
);
#589=(
LENGTH_UNIT()
NAMED_UNIT(*)
SI_UNIT(.MILLI.,.METRE.)
);
#590=DIMENSIONAL_EXPONENTS(1.,0.,0.,0.,0.,0.,0.);
#591=DIMENSIONAL_EXPONENTS(0.,0.,0.,0.,0.,0.,0.);
#592=PRODUCT_DEFINITION_FORMATION_WITH_SPECIFIED_SOURCE('','',#595,.NOT_KNOWN.
);
#593=PRODUCT_CATEGORY_RELATIONSHIP('','',#598,#594);
#594=PRODUCT_RELATED_PRODUCT_CATEGORY('assembly','',(#595));
#595=PRODUCT('','master','',(#596));
#596=PRODUCT_CONTEXT('',#600,'');
#597=PRODUCT_DEFINITION_CONTEXT('',#600,'part_definition');
#598=PRODUCT_CATEGORY('part','');
#599=APPLICATION_PROTOCOL_DEFINITION('international standard',
'automotive_design_cc2',1994,#600);
#600=APPLICATION_CONTEXT(
'configuration controlled 3D designs of mechanical parts and assemblies');
ENDSEC;
END-ISO-10303-21;
28144