ISO-10303-21;
HEADER;
/* Generated by software using Delcam plc STEP library */

FILE_DESCRIPTION(
/* description */ ('AP-214 File'),
/* implementation_level */ '2;1');

FILE_NAME(
/* name */ 'D555',
/* time_stamp */ 'Mon Dec 26 15:38:46 2016',
/* author */ (''),
/* organization */ (''),
/* preprocessor_version */ 'DELCAM STEP V1',
/* originating_system */ 'Exchange7.1.0006',
/* authorisation */ '');

FILE_SCHEMA (('AUTOMOTIVE_DESIGN'));
ENDSEC;
DATA;
#10=PRESENTATION_STYLE_ASSIGNMENT((#20));
#11=PRESENTATION_STYLE_ASSIGNMENT((#21));
#12=SURFACE_SIDE_STYLE('',(#14));
#13=SURFACE_SIDE_STYLE('',(#15));
#14=SURFACE_STYLE_FILL_AREA(#16);
#15=SURFACE_STYLE_FILL_AREA(#17);
#16=FILL_AREA_STYLE('',(#18));
#17=FILL_AREA_STYLE('',(#19));
#18=FILL_AREA_STYLE_COLOUR('',#38);
#19=FILL_AREA_STYLE_COLOUR('',#39);
#20=SURFACE_STYLE_USAGE(.BOTH.,#12);
#21=SURFACE_STYLE_USAGE(.BOTH.,#13);
#22=STYLED_ITEM('',(#10),#47);
#23=STYLED_ITEM('',(#10),#48);
#24=STYLED_ITEM('',(#10),#49);
#25=STYLED_ITEM('',(#10),#50);
#26=STYLED_ITEM('',(#10),#51);
#27=STYLED_ITEM('',(#10),#52);
#28=STYLED_ITEM('',(#10),#53);
#29=STYLED_ITEM('',(#10),#54);
#30=STYLED_ITEM('',(#10),#55);
#31=STYLED_ITEM('',(#10),#56);
#32=STYLED_ITEM('',(#10),#57);
#33=STYLED_ITEM('',(#10),#58);
#34=STYLED_ITEM('',(#10),#59);
#35=STYLED_ITEM('',(#10),#60);
#36=STYLED_ITEM('',(#10),#61);
#37=STYLED_ITEM('',(#11),#45);
#38=COLOUR_RGB('',0.,0.,0.);
#39=COLOUR_RGB('rgb_colour_1',0.4,0.4,0.4);
#40=MECHANICAL_DESIGN_GEOMETRIC_PRESENTATION_REPRESENTATION('',(#22,#23,#24,
#25,#26,#27,#28,#29,#30,#31,#32,#33,#34,#35,#36,#37),#501);
#41=PRESENTATION_LAYER_ASSIGNMENT('113','D555',(#47,#48,#49,#50,#51,#52,#53,
#54,#55,#56,#57,#58,#59,#60,#61,#45));
#42=SHAPE_REPRESENTATION_RELATIONSHIP('','',#326,#43);
#43=ADVANCED_BREP_SHAPE_REPRESENTATION('',(#44),#501);
#44=MANIFOLD_SOLID_BREP('7545',#45);
#45=CLOSED_SHELL('',(#47,#48,#49,#50,#51,#52,#53,#54,#55,#56,#57,#58,#59,#60,
#61));
#46=CYLINDRICAL_SURFACE('',#337,17.0593929818066);
#47=ADVANCED_FACE('',(#62),#170,.F.);
#48=ADVANCED_FACE('',(#63),#171,.F.);
#49=ADVANCED_FACE('',(#64),#172,.F.);
#50=ADVANCED_FACE('',(#65),#173,.F.);
#51=ADVANCED_FACE('',(#66),#174,.F.);
#52=ADVANCED_FACE('',(#67),#175,.F.);
#53=ADVANCED_FACE('',(#68),#176,.F.);
#54=ADVANCED_FACE('',(#69),#46,.F.);
#55=ADVANCED_FACE('',(#70),#177,.F.);
#56=ADVANCED_FACE('',(#71),#178,.F.);
#57=ADVANCED_FACE('',(#72),#179,.F.);
#58=ADVANCED_FACE('',(#73),#180,.F.);
#59=ADVANCED_FACE('',(#74),#181,.F.);
#60=ADVANCED_FACE('',(#75),#182,.F.);
#61=ADVANCED_FACE('',(#76),#183,.T.);
#62=FACE_OUTER_BOUND('',#77,.T.);
#63=FACE_OUTER_BOUND('',#78,.T.);
#64=FACE_OUTER_BOUND('',#79,.T.);
#65=FACE_OUTER_BOUND('',#80,.T.);
#66=FACE_OUTER_BOUND('',#81,.T.);
#67=FACE_OUTER_BOUND('',#82,.T.);
#68=FACE_OUTER_BOUND('',#83,.T.);
#69=FACE_OUTER_BOUND('',#84,.T.);
#70=FACE_OUTER_BOUND('',#85,.T.);
#71=FACE_OUTER_BOUND('',#86,.T.);
#72=FACE_OUTER_BOUND('',#87,.T.);
#73=FACE_OUTER_BOUND('',#88,.T.);
#74=FACE_OUTER_BOUND('',#89,.T.);
#75=FACE_OUTER_BOUND('',#90,.T.);
#76=FACE_OUTER_BOUND('',#91,.T.);
#77=EDGE_LOOP('',(#92,#93,#94,#95));
#78=EDGE_LOOP('',(#96,#97,#98,#99));
#79=EDGE_LOOP('',(#100,#101,#102,#103));
#80=EDGE_LOOP('',(#104,#105,#106,#107));
#81=EDGE_LOOP('',(#108,#109,#110,#111));
#82=EDGE_LOOP('',(#112,#113,#114,#115));
#83=EDGE_LOOP('',(#116,#117,#118,#119));
#84=EDGE_LOOP('',(#120,#121,#122,#123));
#85=EDGE_LOOP('',(#124,#125,#126,#127));
#86=EDGE_LOOP('',(#128,#129,#130,#131));
#87=EDGE_LOOP('',(#132,#133,#134,#135));
#88=EDGE_LOOP('',(#136,#137,#138,#139));
#89=EDGE_LOOP('',(#140,#141,#142,#143));
#90=EDGE_LOOP('',(#144,#145,#146,#147,#148,#149,#150,#151,#152,#153,#154,#155,
#156));
#91=EDGE_LOOP('',(#157,#158,#159,#160,#161,#162,#163,#164,#165,#166,#167,#168,
#169));
#92=ORIENTED_EDGE('',*,*,#224,.T.);
#93=ORIENTED_EDGE('',*,*,#186,.F.);
#94=ORIENTED_EDGE('',*,*,#211,.F.);
#95=ORIENTED_EDGE('',*,*,#198,.T.);
#96=ORIENTED_EDGE('',*,*,#223,.T.);
#97=ORIENTED_EDGE('',*,*,#187,.F.);
#98=ORIENTED_EDGE('',*,*,#210,.F.);
#99=ORIENTED_EDGE('',*,*,#186,.T.);
#100=ORIENTED_EDGE('',*,*,#222,.T.);
#101=ORIENTED_EDGE('',*,*,#188,.F.);
#102=ORIENTED_EDGE('',*,*,#209,.F.);
#103=ORIENTED_EDGE('',*,*,#187,.T.);
#104=ORIENTED_EDGE('',*,*,#221,.T.);
#105=ORIENTED_EDGE('',*,*,#189,.F.);
#106=ORIENTED_EDGE('',*,*,#208,.F.);
#107=ORIENTED_EDGE('',*,*,#188,.T.);
#108=ORIENTED_EDGE('',*,*,#220,.T.);
#109=ORIENTED_EDGE('',*,*,#190,.F.);
#110=ORIENTED_EDGE('',*,*,#207,.F.);
#111=ORIENTED_EDGE('',*,*,#189,.T.);
#112=ORIENTED_EDGE('',*,*,#219,.T.);
#113=ORIENTED_EDGE('',*,*,#191,.F.);
#114=ORIENTED_EDGE('',*,*,#206,.F.);
#115=ORIENTED_EDGE('',*,*,#190,.T.);
#116=ORIENTED_EDGE('',*,*,#218,.T.);
#117=ORIENTED_EDGE('',*,*,#192,.F.);
#118=ORIENTED_EDGE('',*,*,#205,.F.);
#119=ORIENTED_EDGE('',*,*,#191,.T.);
#120=ORIENTED_EDGE('',*,*,#217,.T.);
#121=ORIENTED_EDGE('',*,*,#193,.F.);
#122=ORIENTED_EDGE('',*,*,#204,.F.);
#123=ORIENTED_EDGE('',*,*,#192,.T.);
#124=ORIENTED_EDGE('',*,*,#216,.T.);
#125=ORIENTED_EDGE('',*,*,#194,.F.);
#126=ORIENTED_EDGE('',*,*,#203,.F.);
#127=ORIENTED_EDGE('',*,*,#193,.T.);
#128=ORIENTED_EDGE('',*,*,#215,.T.);
#129=ORIENTED_EDGE('',*,*,#195,.F.);
#130=ORIENTED_EDGE('',*,*,#202,.F.);
#131=ORIENTED_EDGE('',*,*,#194,.T.);
#132=ORIENTED_EDGE('',*,*,#214,.T.);
#133=ORIENTED_EDGE('',*,*,#196,.F.);
#134=ORIENTED_EDGE('',*,*,#201,.F.);
#135=ORIENTED_EDGE('',*,*,#195,.T.);
#136=ORIENTED_EDGE('',*,*,#213,.T.);
#137=ORIENTED_EDGE('',*,*,#197,.F.);
#138=ORIENTED_EDGE('',*,*,#200,.F.);
#139=ORIENTED_EDGE('',*,*,#196,.T.);
#140=ORIENTED_EDGE('',*,*,#212,.T.);
#141=ORIENTED_EDGE('',*,*,#198,.F.);
#142=ORIENTED_EDGE('',*,*,#199,.F.);
#143=ORIENTED_EDGE('',*,*,#197,.T.);
#144=ORIENTED_EDGE('',*,*,#211,.T.);
#145=ORIENTED_EDGE('',*,*,#210,.T.);
#146=ORIENTED_EDGE('',*,*,#209,.T.);
#147=ORIENTED_EDGE('',*,*,#208,.T.);
#148=ORIENTED_EDGE('',*,*,#207,.T.);
#149=ORIENTED_EDGE('',*,*,#206,.T.);
#150=ORIENTED_EDGE('',*,*,#205,.T.);
#151=ORIENTED_EDGE('',*,*,#204,.T.);
#152=ORIENTED_EDGE('',*,*,#203,.T.);
#153=ORIENTED_EDGE('',*,*,#202,.T.);
#154=ORIENTED_EDGE('',*,*,#201,.T.);
#155=ORIENTED_EDGE('',*,*,#200,.T.);
#156=ORIENTED_EDGE('',*,*,#199,.T.);
#157=ORIENTED_EDGE('',*,*,#224,.F.);
#158=ORIENTED_EDGE('',*,*,#212,.F.);
#159=ORIENTED_EDGE('',*,*,#213,.F.);
#160=ORIENTED_EDGE('',*,*,#214,.F.);
#161=ORIENTED_EDGE('',*,*,#215,.F.);
#162=ORIENTED_EDGE('',*,*,#216,.F.);
#163=ORIENTED_EDGE('',*,*,#217,.F.);
#164=ORIENTED_EDGE('',*,*,#218,.F.);
#165=ORIENTED_EDGE('',*,*,#219,.F.);
#166=ORIENTED_EDGE('',*,*,#220,.F.);
#167=ORIENTED_EDGE('',*,*,#221,.F.);
#168=ORIENTED_EDGE('',*,*,#222,.F.);
#169=ORIENTED_EDGE('',*,*,#223,.F.);
#170=PLANE('',#330);
#171=PLANE('',#331);
#172=PLANE('',#332);
#173=PLANE('',#333);
#174=PLANE('',#334);
#175=PLANE('',#335);
#176=PLANE('',#336);
#177=PLANE('',#338);
#178=PLANE('',#339);
#179=PLANE('',#340);
#180=PLANE('',#341);
#181=PLANE('',#342);
#182=PLANE('',#343);
#183=PLANE('',#344);
#184=CIRCLE('',#328,17.0593929818066);
#185=CIRCLE('',#329,17.0593929818066);
#186=EDGE_CURVE('',#311,#324,#225,.T.);
#187=EDGE_CURVE('',#310,#323,#226,.T.);
#188=EDGE_CURVE('',#309,#322,#227,.T.);
#189=EDGE_CURVE('',#308,#321,#228,.T.);
#190=EDGE_CURVE('',#307,#320,#229,.T.);
#191=EDGE_CURVE('',#306,#319,#230,.T.);
#192=EDGE_CURVE('',#305,#318,#231,.T.);
#193=EDGE_CURVE('',#304,#317,#232,.T.);
#194=EDGE_CURVE('',#303,#316,#233,.T.);
#195=EDGE_CURVE('',#302,#315,#234,.T.);
#196=EDGE_CURVE('',#301,#314,#235,.T.);
#197=EDGE_CURVE('',#300,#313,#236,.T.);
#198=EDGE_CURVE('',#299,#312,#237,.T.);
#199=EDGE_CURVE('',#300,#299,#238,.T.);
#200=EDGE_CURVE('',#301,#300,#239,.T.);
#201=EDGE_CURVE('',#302,#301,#240,.T.);
#202=EDGE_CURVE('',#303,#302,#241,.T.);
#203=EDGE_CURVE('',#304,#303,#242,.T.);
#204=EDGE_CURVE('',#305,#304,#184,.T.);
#205=EDGE_CURVE('',#306,#305,#243,.T.);
#206=EDGE_CURVE('',#307,#306,#244,.T.);
#207=EDGE_CURVE('',#308,#307,#245,.T.);
#208=EDGE_CURVE('',#309,#308,#246,.T.);
#209=EDGE_CURVE('',#310,#309,#247,.T.);
#210=EDGE_CURVE('',#311,#310,#248,.T.);
#211=EDGE_CURVE('',#299,#311,#249,.T.);
#212=EDGE_CURVE('',#313,#312,#250,.T.);
#213=EDGE_CURVE('',#314,#313,#251,.T.);
#214=EDGE_CURVE('',#315,#314,#252,.T.);
#215=EDGE_CURVE('',#316,#315,#253,.T.);
#216=EDGE_CURVE('',#317,#316,#254,.T.);
#217=EDGE_CURVE('',#318,#317,#185,.T.);
#218=EDGE_CURVE('',#319,#318,#255,.T.);
#219=EDGE_CURVE('',#320,#319,#256,.T.);
#220=EDGE_CURVE('',#321,#320,#257,.T.);
#221=EDGE_CURVE('',#322,#321,#258,.T.);
#222=EDGE_CURVE('',#323,#322,#259,.T.);
#223=EDGE_CURVE('',#324,#323,#260,.T.);
#224=EDGE_CURVE('',#312,#324,#261,.T.);
#225=LINE('',#445,#262);
#226=LINE('',#446,#263);
#227=LINE('',#447,#264);
#228=LINE('',#448,#265);
#229=LINE('',#449,#266);
#230=LINE('',#450,#267);
#231=LINE('',#451,#268);
#232=LINE('',#452,#269);
#233=LINE('',#453,#270);
#234=LINE('',#454,#271);
#235=LINE('',#455,#272);
#236=LINE('',#456,#273);
#237=LINE('',#457,#274);
#238=LINE('',#458,#275);
#239=LINE('',#459,#276);
#240=LINE('',#460,#277);
#241=LINE('',#461,#278);
#242=LINE('',#462,#279);
#243=LINE('',#464,#280);
#244=LINE('',#465,#281);
#245=LINE('',#466,#282);
#246=LINE('',#467,#283);
#247=LINE('',#468,#284);
#248=LINE('',#469,#285);
#249=LINE('',#470,#286);
#250=LINE('',#471,#287);
#251=LINE('',#472,#288);
#252=LINE('',#473,#289);
#253=LINE('',#474,#290);
#254=LINE('',#475,#291);
#255=LINE('',#477,#292);
#256=LINE('',#478,#293);
#257=LINE('',#479,#294);
#258=LINE('',#480,#295);
#259=LINE('',#481,#296);
#260=LINE('',#482,#297);
#261=LINE('',#483,#298);
#262=VECTOR('',#347,1.);
#263=VECTOR('',#348,1.);
#264=VECTOR('',#349,1.);
#265=VECTOR('',#350,1.);
#266=VECTOR('',#351,1.);
#267=VECTOR('',#352,1.);
#268=VECTOR('',#353,1.);
#269=VECTOR('',#354,1.);
#270=VECTOR('',#355,1.);
#271=VECTOR('',#356,1.);
#272=VECTOR('',#357,1.);
#273=VECTOR('',#358,1.);
#274=VECTOR('',#359,1.);
#275=VECTOR('',#360,1.);
#276=VECTOR('',#361,1.);
#277=VECTOR('',#362,1.);
#278=VECTOR('',#363,1.);
#279=VECTOR('',#364,1.);
#280=VECTOR('',#367,1.);
#281=VECTOR('',#368,1.);
#282=VECTOR('',#369,1.);
#283=VECTOR('',#370,1.);
#284=VECTOR('',#371,1.);
#285=VECTOR('',#372,1.);
#286=VECTOR('',#373,1.);
#287=VECTOR('',#374,1.);
#288=VECTOR('',#375,1.);
#289=VECTOR('',#376,1.);
#290=VECTOR('',#377,1.);
#291=VECTOR('',#378,1.);
#292=VECTOR('',#381,1.);
#293=VECTOR('',#382,1.);
#294=VECTOR('',#383,1.);
#295=VECTOR('',#384,1.);
#296=VECTOR('',#385,1.);
#297=VECTOR('',#386,1.);
#298=VECTOR('',#387,1.);
#299=VERTEX_POINT('',#419);
#300=VERTEX_POINT('',#420);
#301=VERTEX_POINT('',#421);
#302=VERTEX_POINT('',#422);
#303=VERTEX_POINT('',#423);
#304=VERTEX_POINT('',#424);
#305=VERTEX_POINT('',#425);
#306=VERTEX_POINT('',#426);
#307=VERTEX_POINT('',#427);
#308=VERTEX_POINT('',#428);
#309=VERTEX_POINT('',#429);
#310=VERTEX_POINT('',#430);
#311=VERTEX_POINT('',#431);
#312=VERTEX_POINT('',#432);
#313=VERTEX_POINT('',#433);
#314=VERTEX_POINT('',#434);
#315=VERTEX_POINT('',#435);
#316=VERTEX_POINT('',#436);
#317=VERTEX_POINT('',#437);
#318=VERTEX_POINT('',#438);
#319=VERTEX_POINT('',#439);
#320=VERTEX_POINT('',#440);
#321=VERTEX_POINT('',#441);
#322=VERTEX_POINT('',#442);
#323=VERTEX_POINT('',#443);
#324=VERTEX_POINT('',#444);
#325=SHAPE_DEFINITION_REPRESENTATION(#499,#326);
#326=SHAPE_REPRESENTATION('master',(#327),#501);
#327=AXIS2_PLACEMENT_3D('',#418,#346,#345);
#328=AXIS2_PLACEMENT_3D('',#463,#366,#365);
#329=AXIS2_PLACEMENT_3D('',#476,#380,#379);
#330=AXIS2_PLACEMENT_3D('',#484,#389,#388);
#331=AXIS2_PLACEMENT_3D('',#485,#391,#390);
#332=AXIS2_PLACEMENT_3D('',#486,#393,#392);
#333=AXIS2_PLACEMENT_3D('',#487,#395,#394);
#334=AXIS2_PLACEMENT_3D('',#488,#397,#396);
#335=AXIS2_PLACEMENT_3D('',#489,#399,#398);
#336=AXIS2_PLACEMENT_3D('',#490,#401,#400);
#337=AXIS2_PLACEMENT_3D('',#491,#403,#402);
#338=AXIS2_PLACEMENT_3D('',#492,#405,#404);
#339=AXIS2_PLACEMENT_3D('',#493,#407,#406);
#340=AXIS2_PLACEMENT_3D('',#494,#409,#408);
#341=AXIS2_PLACEMENT_3D('',#495,#411,#410);
#342=AXIS2_PLACEMENT_3D('',#496,#413,#412);
#343=AXIS2_PLACEMENT_3D('',#497,#415,#414);
#344=AXIS2_PLACEMENT_3D('',#498,#417,#416);
#345=DIRECTION('',(1.,0.,0.));
#346=DIRECTION('',(0.,0.,1.));
#347=DIRECTION('',(0.,-1.,0.));
#348=DIRECTION('',(0.,-1.,0.));
#349=DIRECTION('',(0.,-1.,0.));
#350=DIRECTION('',(0.,-1.,0.));
#351=DIRECTION('',(0.,-1.,0.));
#352=DIRECTION('',(0.,-1.,0.));
#353=DIRECTION('',(0.,-1.,0.));
#354=DIRECTION('',(0.,-1.,0.));
#355=DIRECTION('',(0.,-1.,0.));
#356=DIRECTION('',(0.,-1.,0.));
#357=DIRECTION('',(0.,-1.,0.));
#358=DIRECTION('',(0.,-1.,0.));
#359=DIRECTION('',(0.,-1.,0.));
#360=DIRECTION('',(-0.,-0.,1.));
#361=DIRECTION('',(-0.970402129057328,-0.,-0.241494736839139));
#362=DIRECTION('',(-0.,-0.,-1.));
#363=DIRECTION('',(-0.965259327829217,-0.,-0.261293761959004));
#364=DIRECTION('',(-0.285476623868875,-0.,-0.958385672484949));
#365=DIRECTION('',(-0.32780713992388,0.,0.944744663395844));
#366=DIRECTION('',(0.,-1.,0.));
#367=DIRECTION('',(-0.944744663395843,0.,-0.327807139923881));
#368=DIRECTION('',(0.,0.,-1.));
#369=DIRECTION('',(-1.,0.,0.));
#370=DIRECTION('',(-0.0759702960152061,0.,-0.99711008124648));
#371=DIRECTION('',(1.,-0.,-0.));
#372=DIRECTION('',(0.811066474794798,-0.,0.584953992604496));
#373=DIRECTION('',(0.988685430010082,-0.,0.150003734906096));
#374=DIRECTION('',(-0.,-0.,1.));
#375=DIRECTION('',(-0.970402129057328,-0.,-0.241494736839139));
#376=DIRECTION('',(-0.,-0.,-1.));
#377=DIRECTION('',(-0.965259327829217,-0.,-0.261293761959004));
#378=DIRECTION('',(-0.285476623868875,-0.,-0.958385672484949));
#379=DIRECTION('',(-0.32780713992388,0.,0.944744663395844));
#380=DIRECTION('',(0.,-1.,0.));
#381=DIRECTION('',(-0.944744663395843,0.,-0.327807139923881));
#382=DIRECTION('',(0.,0.,-1.));
#383=DIRECTION('',(-1.,0.,0.));
#384=DIRECTION('',(-0.0759702960152061,0.,-0.99711008124648));
#385=DIRECTION('',(1.,-0.,-0.));
#386=DIRECTION('',(0.811066474794798,-0.,0.584953992604496));
#387=DIRECTION('',(0.988685430010082,-0.,0.150003734906096));
#388=DIRECTION('',(-0.988685430010083,0.,-0.150003734906096));
#389=DIRECTION('',(0.150003734906096,0.,-0.988685430010083));
#390=DIRECTION('',(-0.811066474794798,0.,-0.584953992604496));
#391=DIRECTION('',(0.584953992604496,0.,-0.811066474794798));
#392=DIRECTION('',(-1.,0.,0.));
#393=DIRECTION('',(-0.,-0.,-1.));
#394=DIRECTION('',(0.0759702960152061,0.,0.99711008124648));
#395=DIRECTION('',(-0.99711008124648,0.,0.0759702960152061));
#396=DIRECTION('',(1.,0.,-0.));
#397=DIRECTION('',(0.,0.,1.));
#398=DIRECTION('',(-0.,0.,1.));
#399=DIRECTION('',(-1.,-0.,-0.));
#400=DIRECTION('',(0.944744663395843,0.,0.327807139923881));
#401=DIRECTION('',(-0.327807139923881,0.,0.944744663395843));
#402=DIRECTION('',(0.,0.,-1.));
#403=DIRECTION('',(0.,-1.,0.));
#404=DIRECTION('',(0.285476623868875,0.,0.95838567248495));
#405=DIRECTION('',(-0.95838567248495,0.,0.285476623868875));
#406=DIRECTION('',(0.965259327829217,0.,0.261293761959004));
#407=DIRECTION('',(-0.261293761959004,0.,0.965259327829217));
#408=DIRECTION('',(0.,0.,1.));
#409=DIRECTION('',(-1.,0.,0.));
#410=DIRECTION('',(0.970402129057328,0.,0.241494736839139));
#411=DIRECTION('',(-0.241494736839139,0.,0.970402129057328));
#412=DIRECTION('',(0.,0.,-1.));
#413=DIRECTION('',(1.,0.,0.));
#414=DIRECTION('',(0.,0.,-1.));
#415=DIRECTION('',(0.,-1.,0.));
#416=DIRECTION('',(0.,0.,-1.));
#417=DIRECTION('',(0.,-1.,0.));
#418=CARTESIAN_POINT('',(0.,0.,0.));
#419=CARTESIAN_POINT('',(102.8164405,1668.281361,2235.639291));
#420=CARTESIAN_POINT('',(102.8164405,1668.281361,2216.389291));
#421=CARTESIAN_POINT('',(108.5589755,1668.281361,2217.818381));
#422=CARTESIAN_POINT('',(108.5589755,1668.281361,2221.568381));
#423=CARTESIAN_POINT('',(112.7337645,1668.281361,2222.698488));
#424=CARTESIAN_POINT('',(113.873372489776,1668.281361,2226.52431427904));
#425=CARTESIAN_POINT('',(124.630659482626,1668.281361,2237.77102684568));
#426=CARTESIAN_POINT('',(129.8143045,1668.281361,2239.569646));
#427=CARTESIAN_POINT('',(129.8143045,1668.281361,2242.569646));
#428=CARTESIAN_POINT('',(134.5643045,1668.281361,2242.569646));
#429=CARTESIAN_POINT('',(135.0923315,1668.281361,2249.5));
#430=CARTESIAN_POINT('',(129.5923315,1668.281361,2249.5));
#431=CARTESIAN_POINT('',(112.3871715,1668.281361,2237.091366));
#432=CARTESIAN_POINT('',(102.8164405,168.281361,2235.639291));
#433=CARTESIAN_POINT('',(102.8164405,168.281361,2216.389291));
#434=CARTESIAN_POINT('',(108.5589755,168.281361,2217.818381));
#435=CARTESIAN_POINT('',(108.5589755,168.281361,2221.568381));
#436=CARTESIAN_POINT('',(112.7337645,168.281361,2222.698488));
#437=CARTESIAN_POINT('',(113.873372489776,168.281361,2226.52431427904));
#438=CARTESIAN_POINT('',(124.630659482626,168.281361,2237.77102684568));
#439=CARTESIAN_POINT('',(129.8143045,168.281361,2239.569646));
#440=CARTESIAN_POINT('',(129.8143045,168.281361,2242.569646));
#441=CARTESIAN_POINT('',(134.5643045,168.281361,2242.569646));
#442=CARTESIAN_POINT('',(135.0923315,168.281361,2249.5));
#443=CARTESIAN_POINT('',(129.5923315,168.281361,2249.5));
#444=CARTESIAN_POINT('',(112.3871715,168.281361,2237.091366));
#445=CARTESIAN_POINT('',(112.3871715,1668.281361,2237.091366));
#446=CARTESIAN_POINT('',(129.5923315,1668.281361,2249.5));
#447=CARTESIAN_POINT('',(135.0923315,1668.281361,2249.5));
#448=CARTESIAN_POINT('',(134.5643045,1668.281361,2242.569646));
#449=CARTESIAN_POINT('',(129.8143045,1668.281361,2242.569646));
#450=CARTESIAN_POINT('',(129.8143045,1668.281361,2239.569646));
#451=CARTESIAN_POINT('',(124.630659482626,1668.281361,2237.77102684568));
#452=CARTESIAN_POINT('',(113.873372489776,1668.281361,2226.52431427904));
#453=CARTESIAN_POINT('',(112.7337645,1668.281361,2222.698488));
#454=CARTESIAN_POINT('',(108.5589755,1668.281361,2221.568381));
#455=CARTESIAN_POINT('',(108.5589755,1668.281361,2217.818381));
#456=CARTESIAN_POINT('',(102.8164405,1668.281361,2216.389291));
#457=CARTESIAN_POINT('',(102.8164405,1668.281361,2235.639291));
#458=CARTESIAN_POINT('',(102.8164405,1668.281361,2216.389291));
#459=CARTESIAN_POINT('',(108.5589755,1668.281361,2217.818381));
#460=CARTESIAN_POINT('',(108.5589755,1668.281361,2221.568381));
#461=CARTESIAN_POINT('',(112.7337645,1668.281361,2222.698488));
#462=CARTESIAN_POINT('',(113.873372489776,1668.281361,2226.52431427904));
#463=CARTESIAN_POINT('',(130.222850304829,1668.281361,2221.65425636534));
#464=CARTESIAN_POINT('',(129.8143045,1668.281361,2239.569646));
#465=CARTESIAN_POINT('',(129.8143045,1668.281361,2242.569646));
#466=CARTESIAN_POINT('',(134.5643045,1668.281361,2242.569646));
#467=CARTESIAN_POINT('',(135.0923315,1668.281361,2249.5));
#468=CARTESIAN_POINT('',(129.5923315,1668.281361,2249.5));
#469=CARTESIAN_POINT('',(112.3871715,1668.281361,2237.091366));
#470=CARTESIAN_POINT('',(102.8164405,1668.281361,2235.639291));
#471=CARTESIAN_POINT('',(102.8164405,168.281361,2216.389291));
#472=CARTESIAN_POINT('',(108.5589755,168.281361,2217.818381));
#473=CARTESIAN_POINT('',(108.5589755,168.281361,2221.568381));
#474=CARTESIAN_POINT('',(112.7337645,168.281361,2222.698488));
#475=CARTESIAN_POINT('',(113.873372489776,168.281361,2226.52431427904));
#476=CARTESIAN_POINT('',(130.222850304829,168.281361,2221.65425636534));
#477=CARTESIAN_POINT('',(129.8143045,168.281361,2239.569646));
#478=CARTESIAN_POINT('',(129.8143045,168.281361,2242.569646));
#479=CARTESIAN_POINT('',(134.5643045,168.281361,2242.569646));
#480=CARTESIAN_POINT('',(135.0923315,168.281361,2249.5));
#481=CARTESIAN_POINT('',(129.5923315,168.281361,2249.5));
#482=CARTESIAN_POINT('',(112.3871715,168.281361,2237.091366));
#483=CARTESIAN_POINT('',(102.8164405,168.281361,2235.639291));
#484=CARTESIAN_POINT('',(102.8164405,1668.281361,2235.639291));
#485=CARTESIAN_POINT('',(112.3871715,1668.281361,2237.091366));
#486=CARTESIAN_POINT('',(129.5923315,1668.281361,2249.5));
#487=CARTESIAN_POINT('',(135.0923315,1668.281361,2249.5));
#488=CARTESIAN_POINT('',(134.5643045,1668.281361,2242.569646));
#489=CARTESIAN_POINT('',(129.8143045,1668.281361,2242.569646));
#490=CARTESIAN_POINT('',(129.8143045,1668.281361,2239.569646));
#491=CARTESIAN_POINT('',(130.222850304829,1668.281361,2221.65425636534));
#492=CARTESIAN_POINT('',(113.873372489776,1668.281361,2226.52431427904));
#493=CARTESIAN_POINT('',(112.7337645,1668.281361,2222.698488));
#494=CARTESIAN_POINT('',(108.5589755,1668.281361,2221.568381));
#495=CARTESIAN_POINT('',(108.5589755,1668.281361,2217.818381));
#496=CARTESIAN_POINT('',(102.8164405,1668.281361,2216.389291));
#497=CARTESIAN_POINT('',(130.222850304829,1668.281361,2221.65425636534));
#498=CARTESIAN_POINT('',(130.222850304829,168.281361,2221.65425636534));
#499=PRODUCT_DEFINITION_SHAPE('','',#500);
#500=PRODUCT_DEFINITION('','',#512,#517);
#501=(
GEOMETRIC_REPRESENTATION_CONTEXT(3)
GLOBAL_UNCERTAINTY_ASSIGNED_CONTEXT((#502))
GLOBAL_UNIT_ASSIGNED_CONTEXT((#504,#503,#507))
REPRESENTATION_CONTEXT('','')
);
#502=UNCERTAINTY_MEASURE_WITH_UNIT(LENGTH_MEASURE(0.001),#504,'','tolerance');
#503=(
CONVERSION_BASED_UNIT('',#505)
NAMED_UNIT(#511)
PLANE_ANGLE_UNIT()
);
#504=(
CONVERSION_BASED_UNIT('',#506)
LENGTH_UNIT()
NAMED_UNIT(#510)
);
#505=PLANE_ANGLE_MEASURE_WITH_UNIT(PLANE_ANGLE_MEASURE(0.0174532925199433),
#508);
#506=LENGTH_MEASURE_WITH_UNIT(LENGTH_MEASURE(1.),#509);
#507=(
NAMED_UNIT(*)
SI_UNIT($,.STERADIAN.)
SOLID_ANGLE_UNIT()
);
#508=(
NAMED_UNIT(*)
PLANE_ANGLE_UNIT()
SI_UNIT($,.RADIAN.)
);
#509=(
LENGTH_UNIT()
NAMED_UNIT(*)
SI_UNIT(.MILLI.,.METRE.)
);
#510=DIMENSIONAL_EXPONENTS(1.,0.,0.,0.,0.,0.,0.);
#511=DIMENSIONAL_EXPONENTS(0.,0.,0.,0.,0.,0.,0.);
#512=PRODUCT_DEFINITION_FORMATION_WITH_SPECIFIED_SOURCE('','',#515,.NOT_KNOWN.
);
#513=PRODUCT_CATEGORY_RELATIONSHIP('','',#518,#514);
#514=PRODUCT_RELATED_PRODUCT_CATEGORY('assembly','',(#515));
#515=PRODUCT('','master','',(#516));
#516=PRODUCT_CONTEXT('',#520,'');
#517=PRODUCT_DEFINITION_CONTEXT('',#520,'part_definition');
#518=PRODUCT_CATEGORY('part','');
#519=APPLICATION_PROTOCOL_DEFINITION('international standard',
'automotive_design_cc2',1994,#520);
#520=APPLICATION_CONTEXT(
'configuration controlled 3D designs of mechanical parts and assemblies');
ENDSEC;
END-ISO-10303-21;
22572