ISO-10303-21;
HEADER;
/* Generated by software using Delcam plc STEP library */

FILE_DESCRIPTION(
/* description */ ('AP-214 File'),
/* implementation_level */ '2;1');

FILE_NAME(
/* name */ 'D560',
/* time_stamp */ 'Mon Nov 06 14:46:20 2017',
/* author */ (''),
/* organization */ (''),
/* preprocessor_version */ 'DELCAM STEP V1',
/* originating_system */ 'Exchange7.1.0006',
/* authorisation */ '');

FILE_SCHEMA (('AUTOMOTIVE_DESIGN'));
ENDSEC;
DATA;
#10=PRESENTATION_STYLE_ASSIGNMENT((#20));
#11=PRESENTATION_STYLE_ASSIGNMENT((#21));
#12=SURFACE_SIDE_STYLE('',(#14));
#13=SURFACE_SIDE_STYLE('',(#15));
#14=SURFACE_STYLE_FILL_AREA(#16);
#15=SURFACE_STYLE_FILL_AREA(#17);
#16=FILL_AREA_STYLE('',(#18));
#17=FILL_AREA_STYLE('',(#19));
#18=FILL_AREA_STYLE_COLOUR('',#48);
#19=FILL_AREA_STYLE_COLOUR('',#49);
#20=SURFACE_STYLE_USAGE(.BOTH.,#12);
#21=SURFACE_STYLE_USAGE(.BOTH.,#13);
#22=STYLED_ITEM('',(#10),#62);
#23=STYLED_ITEM('',(#10),#63);
#24=STYLED_ITEM('',(#10),#64);
#25=STYLED_ITEM('',(#10),#65);
#26=STYLED_ITEM('',(#10),#66);
#27=STYLED_ITEM('',(#10),#67);
#28=STYLED_ITEM('',(#10),#68);
#29=STYLED_ITEM('',(#10),#69);
#30=STYLED_ITEM('',(#10),#70);
#31=STYLED_ITEM('',(#10),#71);
#32=STYLED_ITEM('',(#10),#72);
#33=STYLED_ITEM('',(#10),#73);
#34=STYLED_ITEM('',(#10),#74);
#35=STYLED_ITEM('',(#10),#75);
#36=STYLED_ITEM('',(#10),#76);
#37=STYLED_ITEM('',(#10),#77);
#38=STYLED_ITEM('',(#10),#78);
#39=STYLED_ITEM('',(#10),#79);
#40=STYLED_ITEM('',(#10),#80);
#41=STYLED_ITEM('',(#10),#81);
#42=STYLED_ITEM('',(#10),#82);
#43=STYLED_ITEM('',(#10),#83);
#44=STYLED_ITEM('',(#10),#84);
#45=STYLED_ITEM('',(#10),#85);
#46=STYLED_ITEM('',(#10),#86);
#47=STYLED_ITEM('',(#11),#55);
#48=COLOUR_RGB('',0.,0.,0.);
#49=COLOUR_RGB('rgb_colour_1',0.4,0.4,0.4);
#50=MECHANICAL_DESIGN_GEOMETRIC_PRESENTATION_REPRESENTATION('',(#22,#23,#24,
#25,#26,#27,#28,#29,#30,#31,#32,#33,#34,#35,#36,#37,#38,#39,#40,#41,#42,#43,
#44,#45,#46,#47),#851);
#51=PRESENTATION_LAYER_ASSIGNMENT('50','BL140',(#62,#63,#64,#65,#66,#67,#68,
#69,#70,#71,#72,#73,#74,#75,#76,#77,#78,#79,#80,#81,#82,#83,#84,#85,#86,#55));
#52=SHAPE_REPRESENTATION_RELATIONSHIP('','',#536,#53);
#53=ADVANCED_BREP_SHAPE_REPRESENTATION('',(#54),#851);
#54=MANIFOLD_SOLID_BREP('8114',#55);
#55=CLOSED_SHELL('',(#62,#63,#64,#65,#66,#67,#68,#69,#70,#71,#72,#73,#74,#75,
#76,#77,#78,#79,#80,#81,#82,#83,#84,#85,#86));
#56=CYLINDRICAL_SURFACE('',#557,51.1170552386459);
#57=CYLINDRICAL_SURFACE('',#558,16.1521840717669);
#58=CYLINDRICAL_SURFACE('',#560,12.5901293375669);
#59=CYLINDRICAL_SURFACE('',#562,21.5357463841009);
#60=CYLINDRICAL_SURFACE('',#566,26.0617994447937);
#61=CYLINDRICAL_SURFACE('',#568,30.0074221607342);
#62=ADVANCED_FACE('',(#87),#275,.T.);
#63=ADVANCED_FACE('',(#88),#276,.T.);
#64=ADVANCED_FACE('',(#89),#277,.T.);
#65=ADVANCED_FACE('',(#90),#278,.T.);
#66=ADVANCED_FACE('',(#91),#279,.T.);
#67=ADVANCED_FACE('',(#92),#280,.T.);
#68=ADVANCED_FACE('',(#93),#281,.T.);
#69=ADVANCED_FACE('',(#94),#56,.F.);
#70=ADVANCED_FACE('',(#95),#57,.T.);
#71=ADVANCED_FACE('',(#96),#282,.T.);
#72=ADVANCED_FACE('',(#97),#58,.F.);
#73=ADVANCED_FACE('',(#98),#283,.T.);
#74=ADVANCED_FACE('',(#99),#59,.T.);
#75=ADVANCED_FACE('',(#100),#284,.T.);
#76=ADVANCED_FACE('',(#101),#285,.T.);
#77=ADVANCED_FACE('',(#102),#286,.T.);
#78=ADVANCED_FACE('',(#103),#60,.T.);
#79=ADVANCED_FACE('',(#104),#287,.T.);
#80=ADVANCED_FACE('',(#105),#61,.F.);
#81=ADVANCED_FACE('',(#106),#288,.T.);
#82=ADVANCED_FACE('',(#107),#289,.T.);
#83=ADVANCED_FACE('',(#108),#290,.T.);
#84=ADVANCED_FACE('',(#109),#291,.T.);
#85=ADVANCED_FACE('',(#110),#292,.T.);
#86=ADVANCED_FACE('',(#111),#293,.F.);
#87=FACE_OUTER_BOUND('',#112,.T.);
#88=FACE_OUTER_BOUND('',#113,.T.);
#89=FACE_OUTER_BOUND('',#114,.T.);
#90=FACE_OUTER_BOUND('',#115,.T.);
#91=FACE_OUTER_BOUND('',#116,.T.);
#92=FACE_OUTER_BOUND('',#117,.T.);
#93=FACE_OUTER_BOUND('',#118,.T.);
#94=FACE_OUTER_BOUND('',#119,.T.);
#95=FACE_OUTER_BOUND('',#120,.T.);
#96=FACE_OUTER_BOUND('',#121,.T.);
#97=FACE_OUTER_BOUND('',#122,.T.);
#98=FACE_OUTER_BOUND('',#123,.T.);
#99=FACE_OUTER_BOUND('',#124,.T.);
#100=FACE_OUTER_BOUND('',#125,.T.);
#101=FACE_OUTER_BOUND('',#126,.T.);
#102=FACE_OUTER_BOUND('',#127,.T.);
#103=FACE_OUTER_BOUND('',#128,.T.);
#104=FACE_OUTER_BOUND('',#129,.T.);
#105=FACE_OUTER_BOUND('',#130,.T.);
#106=FACE_OUTER_BOUND('',#131,.T.);
#107=FACE_OUTER_BOUND('',#132,.T.);
#108=FACE_OUTER_BOUND('',#133,.T.);
#109=FACE_OUTER_BOUND('',#134,.T.);
#110=FACE_OUTER_BOUND('',#135,.T.);
#111=FACE_OUTER_BOUND('',#136,.T.);
#112=EDGE_LOOP('',(#137,#138,#139,#140));
#113=EDGE_LOOP('',(#141,#142,#143,#144));
#114=EDGE_LOOP('',(#145,#146,#147,#148));
#115=EDGE_LOOP('',(#149,#150,#151,#152));
#116=EDGE_LOOP('',(#153,#154,#155,#156));
#117=EDGE_LOOP('',(#157,#158,#159,#160));
#118=EDGE_LOOP('',(#161,#162,#163,#164));
#119=EDGE_LOOP('',(#165,#166,#167,#168));
#120=EDGE_LOOP('',(#169,#170,#171,#172));
#121=EDGE_LOOP('',(#173,#174,#175,#176));
#122=EDGE_LOOP('',(#177,#178,#179,#180));
#123=EDGE_LOOP('',(#181,#182,#183,#184));
#124=EDGE_LOOP('',(#185,#186,#187,#188));
#125=EDGE_LOOP('',(#189,#190,#191,#192));
#126=EDGE_LOOP('',(#193,#194,#195,#196));
#127=EDGE_LOOP('',(#197,#198,#199,#200));
#128=EDGE_LOOP('',(#201,#202,#203,#204));
#129=EDGE_LOOP('',(#205,#206,#207,#208));
#130=EDGE_LOOP('',(#209,#210,#211,#212));
#131=EDGE_LOOP('',(#213,#214,#215,#216));
#132=EDGE_LOOP('',(#217,#218,#219,#220));
#133=EDGE_LOOP('',(#221,#222,#223,#224));
#134=EDGE_LOOP('',(#225,#226,#227,#228));
#135=EDGE_LOOP('',(#229,#230,#231,#232,#233,#234,#235,#236,#237,#238,#239,#240
,#241,#242,#243,#244,#245,#246,#247,#248,#249,#250,#251));
#136=EDGE_LOOP('',(#252,#253,#254,#255,#256,#257,#258,#259,#260,#261,#262,#263
,#264,#265,#266,#267,#268,#269,#270,#271,#272,#273,#274));
#137=ORIENTED_EDGE('',*,*,#374,.F.);
#138=ORIENTED_EDGE('',*,*,#328,.F.);
#139=ORIENTED_EDGE('',*,*,#351,.T.);
#140=ORIENTED_EDGE('',*,*,#306,.T.);
#141=ORIENTED_EDGE('',*,*,#373,.F.);
#142=ORIENTED_EDGE('',*,*,#306,.F.);
#143=ORIENTED_EDGE('',*,*,#350,.T.);
#144=ORIENTED_EDGE('',*,*,#307,.T.);
#145=ORIENTED_EDGE('',*,*,#372,.F.);
#146=ORIENTED_EDGE('',*,*,#307,.F.);
#147=ORIENTED_EDGE('',*,*,#349,.T.);
#148=ORIENTED_EDGE('',*,*,#308,.T.);
#149=ORIENTED_EDGE('',*,*,#371,.F.);
#150=ORIENTED_EDGE('',*,*,#308,.F.);
#151=ORIENTED_EDGE('',*,*,#348,.T.);
#152=ORIENTED_EDGE('',*,*,#309,.T.);
#153=ORIENTED_EDGE('',*,*,#370,.F.);
#154=ORIENTED_EDGE('',*,*,#309,.F.);
#155=ORIENTED_EDGE('',*,*,#347,.T.);
#156=ORIENTED_EDGE('',*,*,#310,.T.);
#157=ORIENTED_EDGE('',*,*,#369,.F.);
#158=ORIENTED_EDGE('',*,*,#310,.F.);
#159=ORIENTED_EDGE('',*,*,#346,.T.);
#160=ORIENTED_EDGE('',*,*,#311,.T.);
#161=ORIENTED_EDGE('',*,*,#368,.F.);
#162=ORIENTED_EDGE('',*,*,#311,.F.);
#163=ORIENTED_EDGE('',*,*,#345,.T.);
#164=ORIENTED_EDGE('',*,*,#312,.T.);
#165=ORIENTED_EDGE('',*,*,#367,.F.);
#166=ORIENTED_EDGE('',*,*,#312,.F.);
#167=ORIENTED_EDGE('',*,*,#344,.T.);
#168=ORIENTED_EDGE('',*,*,#313,.T.);
#169=ORIENTED_EDGE('',*,*,#366,.F.);
#170=ORIENTED_EDGE('',*,*,#313,.F.);
#171=ORIENTED_EDGE('',*,*,#343,.T.);
#172=ORIENTED_EDGE('',*,*,#314,.T.);
#173=ORIENTED_EDGE('',*,*,#365,.F.);
#174=ORIENTED_EDGE('',*,*,#314,.F.);
#175=ORIENTED_EDGE('',*,*,#342,.T.);
#176=ORIENTED_EDGE('',*,*,#315,.T.);
#177=ORIENTED_EDGE('',*,*,#364,.F.);
#178=ORIENTED_EDGE('',*,*,#315,.F.);
#179=ORIENTED_EDGE('',*,*,#341,.T.);
#180=ORIENTED_EDGE('',*,*,#316,.T.);
#181=ORIENTED_EDGE('',*,*,#363,.F.);
#182=ORIENTED_EDGE('',*,*,#316,.F.);
#183=ORIENTED_EDGE('',*,*,#340,.T.);
#184=ORIENTED_EDGE('',*,*,#317,.T.);
#185=ORIENTED_EDGE('',*,*,#362,.F.);
#186=ORIENTED_EDGE('',*,*,#317,.F.);
#187=ORIENTED_EDGE('',*,*,#339,.T.);
#188=ORIENTED_EDGE('',*,*,#318,.T.);
#189=ORIENTED_EDGE('',*,*,#361,.F.);
#190=ORIENTED_EDGE('',*,*,#318,.F.);
#191=ORIENTED_EDGE('',*,*,#338,.T.);
#192=ORIENTED_EDGE('',*,*,#319,.T.);
#193=ORIENTED_EDGE('',*,*,#360,.F.);
#194=ORIENTED_EDGE('',*,*,#319,.F.);
#195=ORIENTED_EDGE('',*,*,#337,.T.);
#196=ORIENTED_EDGE('',*,*,#320,.T.);
#197=ORIENTED_EDGE('',*,*,#359,.F.);
#198=ORIENTED_EDGE('',*,*,#320,.F.);
#199=ORIENTED_EDGE('',*,*,#336,.T.);
#200=ORIENTED_EDGE('',*,*,#321,.T.);
#201=ORIENTED_EDGE('',*,*,#358,.F.);
#202=ORIENTED_EDGE('',*,*,#321,.F.);
#203=ORIENTED_EDGE('',*,*,#335,.T.);
#204=ORIENTED_EDGE('',*,*,#322,.T.);
#205=ORIENTED_EDGE('',*,*,#357,.F.);
#206=ORIENTED_EDGE('',*,*,#322,.F.);
#207=ORIENTED_EDGE('',*,*,#334,.T.);
#208=ORIENTED_EDGE('',*,*,#323,.T.);
#209=ORIENTED_EDGE('',*,*,#356,.F.);
#210=ORIENTED_EDGE('',*,*,#323,.F.);
#211=ORIENTED_EDGE('',*,*,#333,.T.);
#212=ORIENTED_EDGE('',*,*,#324,.T.);
#213=ORIENTED_EDGE('',*,*,#355,.F.);
#214=ORIENTED_EDGE('',*,*,#324,.F.);
#215=ORIENTED_EDGE('',*,*,#332,.T.);
#216=ORIENTED_EDGE('',*,*,#325,.T.);
#217=ORIENTED_EDGE('',*,*,#354,.F.);
#218=ORIENTED_EDGE('',*,*,#325,.F.);
#219=ORIENTED_EDGE('',*,*,#331,.T.);
#220=ORIENTED_EDGE('',*,*,#326,.T.);
#221=ORIENTED_EDGE('',*,*,#353,.F.);
#222=ORIENTED_EDGE('',*,*,#326,.F.);
#223=ORIENTED_EDGE('',*,*,#330,.T.);
#224=ORIENTED_EDGE('',*,*,#327,.T.);
#225=ORIENTED_EDGE('',*,*,#352,.F.);
#226=ORIENTED_EDGE('',*,*,#327,.F.);
#227=ORIENTED_EDGE('',*,*,#329,.T.);
#228=ORIENTED_EDGE('',*,*,#328,.T.);
#229=ORIENTED_EDGE('',*,*,#351,.F.);
#230=ORIENTED_EDGE('',*,*,#329,.F.);
#231=ORIENTED_EDGE('',*,*,#330,.F.);
#232=ORIENTED_EDGE('',*,*,#331,.F.);
#233=ORIENTED_EDGE('',*,*,#332,.F.);
#234=ORIENTED_EDGE('',*,*,#333,.F.);
#235=ORIENTED_EDGE('',*,*,#334,.F.);
#236=ORIENTED_EDGE('',*,*,#335,.F.);
#237=ORIENTED_EDGE('',*,*,#336,.F.);
#238=ORIENTED_EDGE('',*,*,#337,.F.);
#239=ORIENTED_EDGE('',*,*,#338,.F.);
#240=ORIENTED_EDGE('',*,*,#339,.F.);
#241=ORIENTED_EDGE('',*,*,#340,.F.);
#242=ORIENTED_EDGE('',*,*,#341,.F.);
#243=ORIENTED_EDGE('',*,*,#342,.F.);
#244=ORIENTED_EDGE('',*,*,#343,.F.);
#245=ORIENTED_EDGE('',*,*,#344,.F.);
#246=ORIENTED_EDGE('',*,*,#345,.F.);
#247=ORIENTED_EDGE('',*,*,#346,.F.);
#248=ORIENTED_EDGE('',*,*,#347,.F.);
#249=ORIENTED_EDGE('',*,*,#348,.F.);
#250=ORIENTED_EDGE('',*,*,#349,.F.);
#251=ORIENTED_EDGE('',*,*,#350,.F.);
#252=ORIENTED_EDGE('',*,*,#374,.T.);
#253=ORIENTED_EDGE('',*,*,#373,.T.);
#254=ORIENTED_EDGE('',*,*,#372,.T.);
#255=ORIENTED_EDGE('',*,*,#371,.T.);
#256=ORIENTED_EDGE('',*,*,#370,.T.);
#257=ORIENTED_EDGE('',*,*,#369,.T.);
#258=ORIENTED_EDGE('',*,*,#368,.T.);
#259=ORIENTED_EDGE('',*,*,#367,.T.);
#260=ORIENTED_EDGE('',*,*,#366,.T.);
#261=ORIENTED_EDGE('',*,*,#365,.T.);
#262=ORIENTED_EDGE('',*,*,#364,.T.);
#263=ORIENTED_EDGE('',*,*,#363,.T.);
#264=ORIENTED_EDGE('',*,*,#362,.T.);
#265=ORIENTED_EDGE('',*,*,#361,.T.);
#266=ORIENTED_EDGE('',*,*,#360,.T.);
#267=ORIENTED_EDGE('',*,*,#359,.T.);
#268=ORIENTED_EDGE('',*,*,#358,.T.);
#269=ORIENTED_EDGE('',*,*,#357,.T.);
#270=ORIENTED_EDGE('',*,*,#356,.T.);
#271=ORIENTED_EDGE('',*,*,#355,.T.);
#272=ORIENTED_EDGE('',*,*,#354,.T.);
#273=ORIENTED_EDGE('',*,*,#353,.T.);
#274=ORIENTED_EDGE('',*,*,#352,.T.);
#275=PLANE('',#550);
#276=PLANE('',#551);
#277=PLANE('',#552);
#278=PLANE('',#553);
#279=PLANE('',#554);
#280=PLANE('',#555);
#281=PLANE('',#556);
#282=PLANE('',#559);
#283=PLANE('',#561);
#284=PLANE('',#563);
#285=PLANE('',#564);
#286=PLANE('',#565);
#287=PLANE('',#567);
#288=PLANE('',#569);
#289=PLANE('',#570);
#290=PLANE('',#571);
#291=PLANE('',#572);
#292=PLANE('',#573);
#293=PLANE('',#574);
#294=CIRCLE('',#538,30.0074221607342);
#295=CIRCLE('',#539,26.0617994447937);
#296=CIRCLE('',#540,21.5357463841009);
#297=CIRCLE('',#541,12.5901293375669);
#298=CIRCLE('',#542,16.1521840717669);
#299=CIRCLE('',#543,51.1170552386459);
#300=CIRCLE('',#544,30.0074221607342);
#301=CIRCLE('',#545,26.0617994447937);
#302=CIRCLE('',#546,21.5357463841009);
#303=CIRCLE('',#547,12.5901293375669);
#304=CIRCLE('',#548,16.1521840717669);
#305=CIRCLE('',#549,51.1170552386459);
#306=EDGE_CURVE('',#511,#534,#375,.T.);
#307=EDGE_CURVE('',#510,#533,#376,.T.);
#308=EDGE_CURVE('',#509,#532,#377,.T.);
#309=EDGE_CURVE('',#508,#531,#378,.T.);
#310=EDGE_CURVE('',#507,#530,#379,.T.);
#311=EDGE_CURVE('',#506,#529,#380,.T.);
#312=EDGE_CURVE('',#505,#528,#381,.T.);
#313=EDGE_CURVE('',#504,#527,#382,.T.);
#314=EDGE_CURVE('',#503,#526,#383,.T.);
#315=EDGE_CURVE('',#502,#525,#384,.T.);
#316=EDGE_CURVE('',#501,#524,#385,.T.);
#317=EDGE_CURVE('',#500,#523,#386,.T.);
#318=EDGE_CURVE('',#499,#522,#387,.T.);
#319=EDGE_CURVE('',#498,#521,#388,.T.);
#320=EDGE_CURVE('',#497,#520,#389,.T.);
#321=EDGE_CURVE('',#496,#519,#390,.T.);
#322=EDGE_CURVE('',#495,#518,#391,.T.);
#323=EDGE_CURVE('',#494,#517,#392,.T.);
#324=EDGE_CURVE('',#493,#516,#393,.T.);
#325=EDGE_CURVE('',#492,#515,#394,.T.);
#326=EDGE_CURVE('',#491,#514,#395,.T.);
#327=EDGE_CURVE('',#490,#513,#396,.T.);
#328=EDGE_CURVE('',#489,#512,#397,.T.);
#329=EDGE_CURVE('',#490,#489,#398,.T.);
#330=EDGE_CURVE('',#491,#490,#399,.T.);
#331=EDGE_CURVE('',#492,#491,#400,.T.);
#332=EDGE_CURVE('',#493,#492,#401,.T.);
#333=EDGE_CURVE('',#494,#493,#294,.T.);
#334=EDGE_CURVE('',#495,#494,#402,.T.);
#335=EDGE_CURVE('',#496,#495,#295,.T.);
#336=EDGE_CURVE('',#497,#496,#403,.T.);
#337=EDGE_CURVE('',#498,#497,#404,.T.);
#338=EDGE_CURVE('',#499,#498,#405,.T.);
#339=EDGE_CURVE('',#500,#499,#296,.T.);
#340=EDGE_CURVE('',#501,#500,#406,.T.);
#341=EDGE_CURVE('',#502,#501,#297,.T.);
#342=EDGE_CURVE('',#503,#502,#407,.T.);
#343=EDGE_CURVE('',#504,#503,#298,.T.);
#344=EDGE_CURVE('',#505,#504,#299,.T.);
#345=EDGE_CURVE('',#506,#505,#408,.T.);
#346=EDGE_CURVE('',#507,#506,#409,.T.);
#347=EDGE_CURVE('',#508,#507,#410,.T.);
#348=EDGE_CURVE('',#509,#508,#411,.T.);
#349=EDGE_CURVE('',#510,#509,#412,.T.);
#350=EDGE_CURVE('',#511,#510,#413,.T.);
#351=EDGE_CURVE('',#489,#511,#414,.T.);
#352=EDGE_CURVE('',#513,#512,#415,.T.);
#353=EDGE_CURVE('',#514,#513,#416,.T.);
#354=EDGE_CURVE('',#515,#514,#417,.T.);
#355=EDGE_CURVE('',#516,#515,#418,.T.);
#356=EDGE_CURVE('',#517,#516,#300,.T.);
#357=EDGE_CURVE('',#518,#517,#419,.T.);
#358=EDGE_CURVE('',#519,#518,#301,.T.);
#359=EDGE_CURVE('',#520,#519,#420,.T.);
#360=EDGE_CURVE('',#521,#520,#421,.T.);
#361=EDGE_CURVE('',#522,#521,#422,.T.);
#362=EDGE_CURVE('',#523,#522,#302,.T.);
#363=EDGE_CURVE('',#524,#523,#423,.T.);
#364=EDGE_CURVE('',#525,#524,#303,.T.);
#365=EDGE_CURVE('',#526,#525,#424,.T.);
#366=EDGE_CURVE('',#527,#526,#304,.T.);
#367=EDGE_CURVE('',#528,#527,#305,.T.);
#368=EDGE_CURVE('',#529,#528,#425,.T.);
#369=EDGE_CURVE('',#530,#529,#426,.T.);
#370=EDGE_CURVE('',#531,#530,#427,.T.);
#371=EDGE_CURVE('',#532,#531,#428,.T.);
#372=EDGE_CURVE('',#533,#532,#429,.T.);
#373=EDGE_CURVE('',#534,#533,#430,.T.);
#374=EDGE_CURVE('',#512,#534,#431,.T.);
#375=LINE('',#755,#432);
#376=LINE('',#756,#433);
#377=LINE('',#757,#434);
#378=LINE('',#758,#435);
#379=LINE('',#759,#436);
#380=LINE('',#760,#437);
#381=LINE('',#761,#438);
#382=LINE('',#762,#439);
#383=LINE('',#763,#440);
#384=LINE('',#764,#441);
#385=LINE('',#765,#442);
#386=LINE('',#766,#443);
#387=LINE('',#767,#444);
#388=LINE('',#768,#445);
#389=LINE('',#769,#446);
#390=LINE('',#770,#447);
#391=LINE('',#771,#448);
#392=LINE('',#772,#449);
#393=LINE('',#773,#450);
#394=LINE('',#774,#451);
#395=LINE('',#775,#452);
#396=LINE('',#776,#453);
#397=LINE('',#777,#454);
#398=LINE('',#778,#455);
#399=LINE('',#779,#456);
#400=LINE('',#780,#457);
#401=LINE('',#781,#458);
#402=LINE('',#783,#459);
#403=LINE('',#785,#460);
#404=LINE('',#786,#461);
#405=LINE('',#787,#462);
#406=LINE('',#789,#463);
#407=LINE('',#791,#464);
#408=LINE('',#794,#465);
#409=LINE('',#795,#466);
#410=LINE('',#796,#467);
#411=LINE('',#797,#468);
#412=LINE('',#798,#469);
#413=LINE('',#799,#470);
#414=LINE('',#800,#471);
#415=LINE('',#801,#472);
#416=LINE('',#802,#473);
#417=LINE('',#803,#474);
#418=LINE('',#804,#475);
#419=LINE('',#806,#476);
#420=LINE('',#808,#477);
#421=LINE('',#809,#478);
#422=LINE('',#810,#479);
#423=LINE('',#812,#480);
#424=LINE('',#814,#481);
#425=LINE('',#817,#482);
#426=LINE('',#818,#483);
#427=LINE('',#819,#484);
#428=LINE('',#820,#485);
#429=LINE('',#821,#486);
#430=LINE('',#822,#487);
#431=LINE('',#823,#488);
#432=VECTOR('',#577,1.);
#433=VECTOR('',#578,1.);
#434=VECTOR('',#579,1.);
#435=VECTOR('',#580,1.);
#436=VECTOR('',#581,1.);
#437=VECTOR('',#582,1.);
#438=VECTOR('',#583,1.);
#439=VECTOR('',#584,1.);
#440=VECTOR('',#585,1.);
#441=VECTOR('',#586,1.);
#442=VECTOR('',#587,1.);
#443=VECTOR('',#588,1.);
#444=VECTOR('',#589,1.);
#445=VECTOR('',#590,1.);
#446=VECTOR('',#591,1.);
#447=VECTOR('',#592,1.);
#448=VECTOR('',#593,1.);
#449=VECTOR('',#594,1.);
#450=VECTOR('',#595,1.);
#451=VECTOR('',#596,1.);
#452=VECTOR('',#597,1.);
#453=VECTOR('',#598,1.);
#454=VECTOR('',#599,1.);
#455=VECTOR('',#600,1.);
#456=VECTOR('',#601,1.);
#457=VECTOR('',#602,1.);
#458=VECTOR('',#603,1.);
#459=VECTOR('',#606,1.);
#460=VECTOR('',#609,1.);
#461=VECTOR('',#610,1.);
#462=VECTOR('',#611,1.);
#463=VECTOR('',#614,1.);
#464=VECTOR('',#617,1.);
#465=VECTOR('',#622,1.);
#466=VECTOR('',#623,1.);
#467=VECTOR('',#624,1.);
#468=VECTOR('',#625,1.);
#469=VECTOR('',#626,1.);
#470=VECTOR('',#627,1.);
#471=VECTOR('',#628,1.);
#472=VECTOR('',#629,1.);
#473=VECTOR('',#630,1.);
#474=VECTOR('',#631,1.);
#475=VECTOR('',#632,1.);
#476=VECTOR('',#635,1.);
#477=VECTOR('',#638,1.);
#478=VECTOR('',#639,1.);
#479=VECTOR('',#640,1.);
#480=VECTOR('',#643,1.);
#481=VECTOR('',#646,1.);
#482=VECTOR('',#651,1.);
#483=VECTOR('',#652,1.);
#484=VECTOR('',#653,1.);
#485=VECTOR('',#654,1.);
#486=VECTOR('',#655,1.);
#487=VECTOR('',#656,1.);
#488=VECTOR('',#657,1.);
#489=VERTEX_POINT('',#709);
#490=VERTEX_POINT('',#710);
#491=VERTEX_POINT('',#711);
#492=VERTEX_POINT('',#712);
#493=VERTEX_POINT('',#713);
#494=VERTEX_POINT('',#714);
#495=VERTEX_POINT('',#715);
#496=VERTEX_POINT('',#716);
#497=VERTEX_POINT('',#717);
#498=VERTEX_POINT('',#718);
#499=VERTEX_POINT('',#719);
#500=VERTEX_POINT('',#720);
#501=VERTEX_POINT('',#721);
#502=VERTEX_POINT('',#722);
#503=VERTEX_POINT('',#723);
#504=VERTEX_POINT('',#724);
#505=VERTEX_POINT('',#725);
#506=VERTEX_POINT('',#726);
#507=VERTEX_POINT('',#727);
#508=VERTEX_POINT('',#728);
#509=VERTEX_POINT('',#729);
#510=VERTEX_POINT('',#730);
#511=VERTEX_POINT('',#731);
#512=VERTEX_POINT('',#732);
#513=VERTEX_POINT('',#733);
#514=VERTEX_POINT('',#734);
#515=VERTEX_POINT('',#735);
#516=VERTEX_POINT('',#736);
#517=VERTEX_POINT('',#737);
#518=VERTEX_POINT('',#738);
#519=VERTEX_POINT('',#739);
#520=VERTEX_POINT('',#740);
#521=VERTEX_POINT('',#741);
#522=VERTEX_POINT('',#742);
#523=VERTEX_POINT('',#743);
#524=VERTEX_POINT('',#744);
#525=VERTEX_POINT('',#745);
#526=VERTEX_POINT('',#746);
#527=VERTEX_POINT('',#747);
#528=VERTEX_POINT('',#748);
#529=VERTEX_POINT('',#749);
#530=VERTEX_POINT('',#750);
#531=VERTEX_POINT('',#751);
#532=VERTEX_POINT('',#752);
#533=VERTEX_POINT('',#753);
#534=VERTEX_POINT('',#754);
#535=SHAPE_DEFINITION_REPRESENTATION(#849,#536);
#536=SHAPE_REPRESENTATION('master',(#537),#851);
#537=AXIS2_PLACEMENT_3D('',#708,#576,#575);
#538=AXIS2_PLACEMENT_3D('',#782,#605,#604);
#539=AXIS2_PLACEMENT_3D('',#784,#608,#607);
#540=AXIS2_PLACEMENT_3D('',#788,#613,#612);
#541=AXIS2_PLACEMENT_3D('',#790,#616,#615);
#542=AXIS2_PLACEMENT_3D('',#792,#619,#618);
#543=AXIS2_PLACEMENT_3D('',#793,#621,#620);
#544=AXIS2_PLACEMENT_3D('',#805,#634,#633);
#545=AXIS2_PLACEMENT_3D('',#807,#637,#636);
#546=AXIS2_PLACEMENT_3D('',#811,#642,#641);
#547=AXIS2_PLACEMENT_3D('',#813,#645,#644);
#548=AXIS2_PLACEMENT_3D('',#815,#648,#647);
#549=AXIS2_PLACEMENT_3D('',#816,#650,#649);
#550=AXIS2_PLACEMENT_3D('',#824,#659,#658);
#551=AXIS2_PLACEMENT_3D('',#825,#661,#660);
#552=AXIS2_PLACEMENT_3D('',#826,#663,#662);
#553=AXIS2_PLACEMENT_3D('',#827,#665,#664);
#554=AXIS2_PLACEMENT_3D('',#828,#667,#666);
#555=AXIS2_PLACEMENT_3D('',#829,#669,#668);
#556=AXIS2_PLACEMENT_3D('',#830,#671,#670);
#557=AXIS2_PLACEMENT_3D('',#831,#673,#672);
#558=AXIS2_PLACEMENT_3D('',#832,#675,#674);
#559=AXIS2_PLACEMENT_3D('',#833,#677,#676);
#560=AXIS2_PLACEMENT_3D('',#834,#679,#678);
#561=AXIS2_PLACEMENT_3D('',#835,#681,#680);
#562=AXIS2_PLACEMENT_3D('',#836,#683,#682);
#563=AXIS2_PLACEMENT_3D('',#837,#685,#684);
#564=AXIS2_PLACEMENT_3D('',#838,#687,#686);
#565=AXIS2_PLACEMENT_3D('',#839,#689,#688);
#566=AXIS2_PLACEMENT_3D('',#840,#691,#690);
#567=AXIS2_PLACEMENT_3D('',#841,#693,#692);
#568=AXIS2_PLACEMENT_3D('',#842,#695,#694);
#569=AXIS2_PLACEMENT_3D('',#843,#697,#696);
#570=AXIS2_PLACEMENT_3D('',#844,#699,#698);
#571=AXIS2_PLACEMENT_3D('',#845,#701,#700);
#572=AXIS2_PLACEMENT_3D('',#846,#703,#702);
#573=AXIS2_PLACEMENT_3D('',#847,#705,#704);
#574=AXIS2_PLACEMENT_3D('',#848,#707,#706);
#575=DIRECTION('',(1.,0.,0.));
#576=DIRECTION('',(0.,0.,1.));
#577=DIRECTION('',(-7.67468559258739E-016,1.,2.02920337789764E-015));
#578=DIRECTION('',(-7.67468559258739E-016,1.,2.02920337789764E-015));
#579=DIRECTION('',(-7.67468559258739E-016,1.,2.02920337789764E-015));
#580=DIRECTION('',(-7.67468559258739E-016,1.,2.02920337789764E-015));
#581=DIRECTION('',(-7.67468559258739E-016,1.,2.02920337789764E-015));
#582=DIRECTION('',(-7.67468559258739E-016,1.,2.02920337789764E-015));
#583=DIRECTION('',(-7.67468559258739E-016,1.,2.02920337789764E-015));
#584=DIRECTION('',(-7.67468559258739E-016,1.,2.02920337789764E-015));
#585=DIRECTION('',(-7.67468559258739E-016,1.,2.02920337789764E-015));
#586=DIRECTION('',(-7.67468559258739E-016,1.,2.02920337789764E-015));
#587=DIRECTION('',(-7.67468559258739E-016,1.,2.02920337789764E-015));
#588=DIRECTION('',(-7.67468559258739E-016,1.,2.02920337789764E-015));
#589=DIRECTION('',(-7.67468559258739E-016,1.,2.02920337789764E-015));
#590=DIRECTION('',(-7.67468559258739E-016,1.,2.02920337789764E-015));
#591=DIRECTION('',(-7.67468559258739E-016,1.,2.02920337789764E-015));
#592=DIRECTION('',(-7.67468559258739E-016,1.,2.02920337789764E-015));
#593=DIRECTION('',(-7.67468559258739E-016,1.,2.02920337789764E-015));
#594=DIRECTION('',(-7.67468559258739E-016,1.,2.02920337789764E-015));
#595=DIRECTION('',(-7.67468559258739E-016,1.,2.02920337789764E-015));
#596=DIRECTION('',(-7.67468559258739E-016,1.,2.02920337789764E-015));
#597=DIRECTION('',(-7.67468559258739E-016,1.,2.02920337789764E-015));
#598=DIRECTION('',(-7.67468559258739E-016,1.,2.02920337789764E-015));
#599=DIRECTION('',(-7.67468559258739E-016,1.,2.02920337789764E-015));
#600=DIRECTION('',(0.561925764293609,-0.,0.827187666387165));
#601=DIRECTION('',(0.707106781186548,-0.,0.707106781186548));
#602=DIRECTION('',(0.,0.,1.));
#603=DIRECTION('',(-0.997458760327206,-0.,-0.0712462030322518));
#604=DIRECTION('',(-0.291199100443905,0.,0.956662471251308));
#605=DIRECTION('',(0.,-1.,0.));
#606=DIRECTION('',(-0.156067116081406,-0.,-0.987746452931132));
#607=DIRECTION('',(1.,0.,0.));
#608=DIRECTION('',(-0.,1.,0.));
#609=DIRECTION('',(0.,0.,-1.));
#610=DIRECTION('',(-0.973275167025216,-0.,-0.229642002368986));
#611=DIRECTION('',(9.09022718540141E-014,-0.,-1.));
#612=DIRECTION('',(0.957609245078384,0.,-0.288070362481821));
#613=DIRECTION('',(0.,1.,0.));
#614=DIRECTION('',(-1.,-0.,-0.));
#615=DIRECTION('',(0.904327892224027,0.,0.426838451109607));
#616=DIRECTION('',(0.,-1.,0.));
#617=DIRECTION('',(-1.,-0.,6.16988763264745E-013));
#618=DIRECTION('',(0.734247063598451,0.,-0.678882353281518));
#619=DIRECTION('',(0.,1.,0.));
#620=DIRECTION('',(-0.0886538292265936,0.,0.996062497318046));
#621=DIRECTION('',(0.,-1.,0.));
#622=DIRECTION('',(-0.306201909717517,-0.,-0.951966591055246));
#623=DIRECTION('',(-0.996443511846605,-0.,-0.0842634422439844));
#624=DIRECTION('',(-0.190149791681056,-0.,-0.981755089991211));
#625=DIRECTION('',(1.,-0.,-0.));
#626=DIRECTION('',(0.820463669235339,-0.,0.571698668412726));
#627=DIRECTION('',(1.,-0.,-0.));
#628=DIRECTION('',(0.681699119073187,-0.,0.731632633946054));
#629=DIRECTION('',(0.561925764293609,-0.,0.827187666387165));
#630=DIRECTION('',(0.707106781186548,-0.,0.707106781186548));
#631=DIRECTION('',(0.,0.,1.));
#632=DIRECTION('',(-0.997458760327206,-0.,-0.0712462030322518));
#633=DIRECTION('',(-0.291199100443905,0.,0.956662471251308));
#634=DIRECTION('',(0.,-1.,0.));
#635=DIRECTION('',(-0.156067116081406,-0.,-0.987746452931132));
#636=DIRECTION('',(1.,0.,0.));
#637=DIRECTION('',(-0.,1.,0.));
#638=DIRECTION('',(0.,0.,-1.));
#639=DIRECTION('',(-0.973275167025216,-0.,-0.229642002368986));
#640=DIRECTION('',(9.09022718540141E-014,-0.,-1.));
#641=DIRECTION('',(0.957609245078384,0.,-0.288070362481821));
#642=DIRECTION('',(0.,1.,0.));
#643=DIRECTION('',(-1.,-0.,-0.));
#644=DIRECTION('',(0.904327892224027,0.,0.426838451109607));
#645=DIRECTION('',(0.,-1.,0.));
#646=DIRECTION('',(-1.,-0.,6.16988763264745E-013));
#647=DIRECTION('',(0.734247063598451,0.,-0.678882353281518));
#648=DIRECTION('',(0.,1.,0.));
#649=DIRECTION('',(-0.0886538292265936,0.,0.996062497318046));
#650=DIRECTION('',(0.,-1.,0.));
#651=DIRECTION('',(-0.306201909717517,-0.,-0.951966591055246));
#652=DIRECTION('',(-0.996443511846605,-0.,-0.0842634422439844));
#653=DIRECTION('',(-0.190149791681056,-0.,-0.981755089991211));
#654=DIRECTION('',(1.,-0.,-0.));
#655=DIRECTION('',(0.820463669235339,-0.,0.571698668412726));
#656=DIRECTION('',(1.,-0.,-0.));
#657=DIRECTION('',(0.681699119073187,-0.,0.731632633946054));
#658=DIRECTION('',(0.681699119073187,-1.97215226305253E-031,0.731632633946054)
);
#659=DIRECTION('',(-0.731632633946054,-1.94481119861441E-015,0.681699119073187
));
#660=DIRECTION('',(0.,-1.,-2.02920337789764E-015));
#661=DIRECTION('',(0.,-2.02920337789764E-015,1.));
#662=DIRECTION('',(0.820463669235339,1.97215226305253E-031,0.571698668412726)
);
#663=DIRECTION('',(-0.571698668412726,-2.1036484024315E-015,0.820463669235339)
);
#664=DIRECTION('',(0.,-1.,-2.02920337789764E-015));
#665=DIRECTION('',(0.,-2.02920337789764E-015,1.));
#666=DIRECTION('',(-0.190149791681056,-2.46519032881566E-032,
-0.981755089991211));
#667=DIRECTION('',(0.981755089991211,1.13931876404622E-015,-0.190149791681056)
);
#668=DIRECTION('',(-0.996443511846605,2.46519032881566E-032,
-0.0842634422439845));
#669=DIRECTION('',(0.0842634422439845,2.08665608274049E-015,-0.996443511846605
));
#670=DIRECTION('',(-0.306201909717517,0.,-0.951966591055246));
#671=DIRECTION('',(0.951966591055246,1.35195037761712E-015,-0.306201909717517)
);
#672=DIRECTION('',(0.,-2.02920337789764E-015,1.));
#673=DIRECTION('',(-7.67468559258739E-016,1.,2.02920337789764E-015));
#674=DIRECTION('',(0.,-2.02920337789764E-015,1.));
#675=DIRECTION('',(-7.67468559258739E-016,1.,2.02920337789764E-015));
#676=DIRECTION('',(-1.,0.,6.16988763264745E-013));
#677=DIRECTION('',(-6.16988763264745E-013,2.02920337789717E-015,-1.));
#678=DIRECTION('',(0.,-2.02920337789764E-015,1.));
#679=DIRECTION('',(-7.67468559258739E-016,1.,2.02920337789764E-015));
#680=DIRECTION('',(0.,1.,2.02920337789764E-015));
#681=DIRECTION('',(0.,2.02920337789764E-015,-1.));
#682=DIRECTION('',(0.,-2.02920337789764E-015,1.));
#683=DIRECTION('',(-7.67468559258739E-016,1.,2.02920337789764E-015));
#684=DIRECTION('',(9.09022718540141E-014,0.,-1.));
#685=DIRECTION('',(1.,7.67468559258554E-016,9.09022718540141E-014));
#686=DIRECTION('',(-0.973275167025216,-9.86076131526265E-032,
-0.229642002368986));
#687=DIRECTION('',(0.229642002368986,2.15121627325488E-015,-0.973275167025216)
);
#688=DIRECTION('',(-7.67468559258739E-016,1.,0.));
#689=DIRECTION('',(1.,7.67468559258739E-016,0.));
#690=DIRECTION('',(0.,-2.02920337789764E-015,1.));
#691=DIRECTION('',(-7.67468559258739E-016,1.,2.02920337789764E-015));
#692=DIRECTION('',(-0.156067116081406,-2.46519032881566E-032,
-0.987746452931132));
#693=DIRECTION('',(0.987746452931132,1.07475626627512E-015,-0.156067116081406)
);
#694=DIRECTION('',(0.,-2.02920337789764E-015,1.));
#695=DIRECTION('',(-7.67468559258739E-016,1.,2.02920337789764E-015));
#696=DIRECTION('',(-0.997458760327206,0.,-0.0712462030322518));
#697=DIRECTION('',(0.0712462030322518,2.07872590656338E-015,-0.997458760327206
));
#698=DIRECTION('',(7.67468559258739E-016,-1.,0.));
#699=DIRECTION('',(-1.,-7.67468559258739E-016,0.));
#700=DIRECTION('',(0.707106781186548,0.,0.707106781186548));
#701=DIRECTION('',(-0.707106781186548,-1.97754569151739E-015,0.707106781186548
));
#702=DIRECTION('',(0.561925764293609,0.,0.827187666387165));
#703=DIRECTION('',(-0.827187666387165,-1.77510218559106E-015,0.561925764293609
));
#704=DIRECTION('',(0.,0.,-1.));
#705=DIRECTION('',(0.,-1.,0.));
#706=DIRECTION('',(0.,0.,-1.));
#707=DIRECTION('',(0.,-1.,0.));
#708=CARTESIAN_POINT('',(0.,0.,0.));
#709=CARTESIAN_POINT('',(147.083312259867,310.527674527773,2208.45757759677));
#710=CARTESIAN_POINT('',(127.736693940799,310.527674527773,2179.978221289));
#711=CARTESIAN_POINT('',(103.080454000003,310.527674527773,2155.3219813482));
#712=CARTESIAN_POINT('',(103.080454000003,310.527674527773,2132.49749008751));
#713=CARTESIAN_POINT('',(112.953965729929,310.527674527773,2133.20273249886));
#714=CARTESIAN_POINT('',(134.044829134571,310.527674527773,2158.64224967308));
#715=CARTESIAN_POINT('',(134.855116180983,310.527674527773,2163.77054431993));
#716=CARTESIAN_POINT('',(158.772862270577,310.527674527773,2189.74400049177));
#717=CARTESIAN_POINT('',(158.772862270577,310.527674527773,2200.40236724397));
#718=CARTESIAN_POINT('',(168.496385669107,310.527674527773,2202.6966098785));
#719=CARTESIAN_POINT('',(168.496385669106,310.527674527773,2214.26511336556));
#720=CARTESIAN_POINT('',(183.007851341605,310.527674527773,2228.71171714673));
#721=CARTESIAN_POINT('',(285.709801665602,310.527674527773,2228.71171714673));
#722=CARTESIAN_POINT('',(296.20641462591,310.527674527773,2221.52696431289));
#723=CARTESIAN_POINT('',(301.365716781368,310.527674527773,2221.52696431289));
#724=CARTESIAN_POINT('',(327.038004674416,310.527674527773,2218.93442191975));
#725=CARTESIAN_POINT('',(357.710807664756,310.527674527773,2232.78816497571));
#726=CARTESIAN_POINT('',(360.154693442513,310.527674527773,2240.38608497212));
#727=CARTESIAN_POINT('',(368.455282965398,310.527674527773,2241.08801763316));
#728=CARTESIAN_POINT('',(370.084545406676,310.527674527773,2249.49999999988));
#729=CARTESIAN_POINT('',(336.162284322097,310.527674527773,2249.49999999988));
#730=CARTESIAN_POINT('',(319.826202398642,310.527674527773,2238.11702640469));
#731=CARTESIAN_POINT('',(174.718520404571,310.527674527773,2238.11702640469));
#732=CARTESIAN_POINT('',(147.083312259866,2310.52767452777,2208.45757759677));
#733=CARTESIAN_POINT('',(127.736693940797,2310.52767452777,2179.978221289));
#734=CARTESIAN_POINT('',(103.080454000001,2310.52767452777,2155.32198134821));
#735=CARTESIAN_POINT('',(103.080454000001,2310.52767452777,2132.49749008752));
#736=CARTESIAN_POINT('',(112.953965729927,2310.52767452777,2133.20273249886));
#737=CARTESIAN_POINT('',(134.04482913457,2310.52767452777,2158.64224967308));
#738=CARTESIAN_POINT('',(134.855116180982,2310.52767452777,2163.77054431993));
#739=CARTESIAN_POINT('',(158.772862270575,2310.52767452777,2189.74400049178));
#740=CARTESIAN_POINT('',(158.772862270575,2310.52767452777,2200.40236724397));
#741=CARTESIAN_POINT('',(168.496385669105,2310.52767452777,2202.69660987851));
#742=CARTESIAN_POINT('',(168.496385669104,2310.52767452777,2214.26511336557));
#743=CARTESIAN_POINT('',(183.007851341603,2310.52767452777,2228.71171714673));
#744=CARTESIAN_POINT('',(285.7098016656,2310.52767452777,2228.71171714673));
#745=CARTESIAN_POINT('',(296.206414625909,2310.52767452777,2221.5269643129));
#746=CARTESIAN_POINT('',(301.365716781367,2310.52767452777,2221.52696431289));
#747=CARTESIAN_POINT('',(327.038004674414,2310.52767452777,2218.93442191975));
#748=CARTESIAN_POINT('',(357.710807664754,2310.52767452777,2232.78816497572));
#749=CARTESIAN_POINT('',(360.154693442511,2310.52767452777,2240.38608497212));
#750=CARTESIAN_POINT('',(368.455282965396,2310.52767452777,2241.08801763317));
#751=CARTESIAN_POINT('',(370.084545406674,2310.52767452777,2249.49999999989));
#752=CARTESIAN_POINT('',(336.162284322095,2310.52767452777,2249.49999999989));
#753=CARTESIAN_POINT('',(319.82620239864,2310.52767452777,2238.11702640469));
#754=CARTESIAN_POINT('',(174.71852040457,2310.52767452777,2238.11702640469));
#755=CARTESIAN_POINT('',(174.718520404571,310.527674527773,2238.11702640469));
#756=CARTESIAN_POINT('',(319.826202398642,310.527674527773,2238.11702640469));
#757=CARTESIAN_POINT('',(336.162284322097,310.527674527773,2249.49999999988));
#758=CARTESIAN_POINT('',(370.084545406676,310.527674527773,2249.49999999988));
#759=CARTESIAN_POINT('',(368.455282965398,310.527674527773,2241.08801763316));
#760=CARTESIAN_POINT('',(360.154693442513,310.527674527773,2240.38608497212));
#761=CARTESIAN_POINT('',(357.710807664756,310.527674527773,2232.78816497571));
#762=CARTESIAN_POINT('',(327.038004674416,310.527674527773,2218.93442191975));
#763=CARTESIAN_POINT('',(301.365716781368,310.527674527773,2221.52696431289));
#764=CARTESIAN_POINT('',(296.20641462591,310.527674527773,2221.52696431289));
#765=CARTESIAN_POINT('',(285.709801665602,310.527674527773,2228.71171714673));
#766=CARTESIAN_POINT('',(183.007851341605,310.527674527773,2228.71171714673));
#767=CARTESIAN_POINT('',(168.496385669106,310.527674527773,2214.26511336556));
#768=CARTESIAN_POINT('',(168.496385669107,310.527674527773,2202.6966098785));
#769=CARTESIAN_POINT('',(158.772862270577,310.527674527773,2200.40236724397));
#770=CARTESIAN_POINT('',(158.772862270577,310.527674527773,2189.74400049177));
#771=CARTESIAN_POINT('',(134.855116180983,310.527674527773,2163.77054431993));
#772=CARTESIAN_POINT('',(134.044829134571,310.527674527773,2158.64224967308));
#773=CARTESIAN_POINT('',(112.953965729929,310.527674527773,2133.20273249886));
#774=CARTESIAN_POINT('',(103.080454000003,310.527674527773,2132.49749008751));
#775=CARTESIAN_POINT('',(103.080454000003,310.527674527773,2155.3219813482));
#776=CARTESIAN_POINT('',(127.736693940799,310.527674527773,2179.978221289));
#777=CARTESIAN_POINT('',(147.083312259867,310.527674527773,2208.45757759677));
#778=CARTESIAN_POINT('',(127.736693940799,310.527674527773,2179.978221289));
#779=CARTESIAN_POINT('',(103.080454000003,310.527674527773,2155.3219813482));
#780=CARTESIAN_POINT('',(103.080454000003,310.527674527773,2132.49749008751));
#781=CARTESIAN_POINT('',(112.953965729929,310.527674527773,2133.20273249886));
#782=CARTESIAN_POINT('',(142.782963474418,310.527674527773,2129.93527503291));
#783=CARTESIAN_POINT('',(134.855116180983,310.527674527773,2163.77054431993));
#784=CARTESIAN_POINT('',(132.711062825783,310.527674527773,2189.74400049177));
#785=CARTESIAN_POINT('',(158.772862270577,310.527674527773,2200.40236724397));
#786=CARTESIAN_POINT('',(168.496385669107,310.527674527773,2202.6966098785));
#787=CARTESIAN_POINT('',(168.496385669106,310.527674527773,2214.26511336556));
#788=CARTESIAN_POINT('',(162.385021504527,310.527674527773,2234.91552741391));
#789=CARTESIAN_POINT('',(285.709801665602,310.527674527773,2228.71171714673));
#790=CARTESIAN_POINT('',(284.820809499241,310.527674527773,2216.15301300717));
#791=CARTESIAN_POINT('',(301.365716781368,310.527674527773,2221.52696431289));
#792=CARTESIAN_POINT('',(315.178310949019,310.527674527773,2229.89985465303));
#793=CARTESIAN_POINT('',(362.242530350449,310.527674527773,2181.87238327916));
#794=CARTESIAN_POINT('',(360.154693442513,310.527674527773,2240.38608497212));
#795=CARTESIAN_POINT('',(368.455282965398,310.527674527773,2241.08801763316));
#796=CARTESIAN_POINT('',(370.084545406676,310.527674527773,2249.49999999988));
#797=CARTESIAN_POINT('',(336.162284322097,310.527674527773,2249.49999999988));
#798=CARTESIAN_POINT('',(319.826202398642,310.527674527773,2238.11702640469));
#799=CARTESIAN_POINT('',(174.718520404571,310.527674527773,2238.11702640469));
#800=CARTESIAN_POINT('',(147.083312259867,310.527674527773,2208.45757759677));
#801=CARTESIAN_POINT('',(127.736693940797,2310.52767452777,2179.978221289));
#802=CARTESIAN_POINT('',(103.080454000001,2310.52767452777,2155.32198134821));
#803=CARTESIAN_POINT('',(103.080454000001,2310.52767452777,2132.49749008752));
#804=CARTESIAN_POINT('',(112.953965729927,2310.52767452777,2133.20273249886));
#805=CARTESIAN_POINT('',(142.782963474417,2310.52767452777,2129.93527503291));
#806=CARTESIAN_POINT('',(134.855116180982,2310.52767452777,2163.77054431993));
#807=CARTESIAN_POINT('',(132.711062825781,2310.52767452777,2189.74400049178));
#808=CARTESIAN_POINT('',(158.772862270575,2310.52767452777,2200.40236724397));
#809=CARTESIAN_POINT('',(168.496385669105,2310.52767452777,2202.69660987851));
#810=CARTESIAN_POINT('',(168.496385669104,2310.52767452777,2214.26511336557));
#811=CARTESIAN_POINT('',(162.385021504525,2310.52767452777,2234.91552741392));
#812=CARTESIAN_POINT('',(285.7098016656,2310.52767452777,2228.71171714673));
#813=CARTESIAN_POINT('',(284.820809499239,2310.52767452777,2216.15301300718));
#814=CARTESIAN_POINT('',(301.365716781367,2310.52767452777,2221.52696431289));
#815=CARTESIAN_POINT('',(315.178310949018,2310.52767452777,2229.89985465303));
#816=CARTESIAN_POINT('',(362.242530350447,2310.52767452777,2181.87238327917));
#817=CARTESIAN_POINT('',(360.154693442511,2310.52767452777,2240.38608497212));
#818=CARTESIAN_POINT('',(368.455282965396,2310.52767452777,2241.08801763317));
#819=CARTESIAN_POINT('',(370.084545406674,2310.52767452777,2249.49999999989));
#820=CARTESIAN_POINT('',(336.162284322095,2310.52767452777,2249.49999999989));
#821=CARTESIAN_POINT('',(319.82620239864,2310.52767452777,2238.11702640469));
#822=CARTESIAN_POINT('',(174.71852040457,2310.52767452777,2238.11702640469));
#823=CARTESIAN_POINT('',(147.083312259866,2310.52767452777,2208.45757759677));
#824=CARTESIAN_POINT('',(147.083312259867,310.527674527773,2208.45757759677));
#825=CARTESIAN_POINT('',(174.718520404571,310.527674527773,2238.11702640469));
#826=CARTESIAN_POINT('',(319.826202398642,310.527674527773,2238.11702640469));
#827=CARTESIAN_POINT('',(336.162284322097,310.527674527773,2249.49999999988));
#828=CARTESIAN_POINT('',(370.084545406676,310.527674527773,2249.49999999988));
#829=CARTESIAN_POINT('',(368.455282965398,310.527674527773,2241.08801763316));
#830=CARTESIAN_POINT('',(360.154693442513,310.527674527773,2240.38608497212));
#831=CARTESIAN_POINT('',(362.242530350449,310.527674527773,2181.87238327916));
#832=CARTESIAN_POINT('',(315.178310949019,310.527674527773,2229.89985465303));
#833=CARTESIAN_POINT('',(301.365716781368,310.527674527773,2221.52696431289));
#834=CARTESIAN_POINT('',(284.820809499241,310.527674527773,2216.15301300717));
#835=CARTESIAN_POINT('',(285.709801665602,310.527674527773,2228.71171714673));
#836=CARTESIAN_POINT('',(162.385021504527,310.527674527773,2234.91552741391));
#837=CARTESIAN_POINT('',(168.496385669106,310.527674527773,2214.26511336556));
#838=CARTESIAN_POINT('',(168.496385669107,310.527674527773,2202.6966098785));
#839=CARTESIAN_POINT('',(158.772862270577,310.527674527773,2200.40236724397));
#840=CARTESIAN_POINT('',(132.711062825783,310.527674527773,2189.74400049177));
#841=CARTESIAN_POINT('',(134.855116180983,310.527674527773,2163.77054431993));
#842=CARTESIAN_POINT('',(142.782963474418,310.527674527773,2129.93527503291));
#843=CARTESIAN_POINT('',(112.953965729929,310.527674527773,2133.20273249886));
#844=CARTESIAN_POINT('',(103.080454000003,310.527674527773,2132.49749008751));
#845=CARTESIAN_POINT('',(103.080454000003,310.527674527773,2155.3219813482));
#846=CARTESIAN_POINT('',(127.736693940799,310.527674527773,2179.978221289));
#847=CARTESIAN_POINT('',(362.242530350449,310.527674527773,2181.87238327916));
#848=CARTESIAN_POINT('',(362.242530350447,2310.52767452777,2181.87238327917));
#849=PRODUCT_DEFINITION_SHAPE('','',#850);
#850=PRODUCT_DEFINITION('','',#862,#867);
#851=(
GEOMETRIC_REPRESENTATION_CONTEXT(3)
GLOBAL_UNCERTAINTY_ASSIGNED_CONTEXT((#852))
GLOBAL_UNIT_ASSIGNED_CONTEXT((#854,#853,#857))
REPRESENTATION_CONTEXT('','')
);
#852=UNCERTAINTY_MEASURE_WITH_UNIT(LENGTH_MEASURE(0.001),#854,'','tolerance');
#853=(
CONVERSION_BASED_UNIT('',#855)
NAMED_UNIT(#861)
PLANE_ANGLE_UNIT()
);
#854=(
CONVERSION_BASED_UNIT('',#856)
LENGTH_UNIT()
NAMED_UNIT(#860)
);
#855=PLANE_ANGLE_MEASURE_WITH_UNIT(PLANE_ANGLE_MEASURE(0.0174532925199433),
#858);
#856=LENGTH_MEASURE_WITH_UNIT(LENGTH_MEASURE(1.),#859);
#857=(
NAMED_UNIT(*)
SI_UNIT($,.STERADIAN.)
SOLID_ANGLE_UNIT()
);
#858=(
NAMED_UNIT(*)
PLANE_ANGLE_UNIT()
SI_UNIT($,.RADIAN.)
);
#859=(
LENGTH_UNIT()
NAMED_UNIT(*)
SI_UNIT(.MILLI.,.METRE.)
);
#860=DIMENSIONAL_EXPONENTS(1.,0.,0.,0.,0.,0.,0.);
#861=DIMENSIONAL_EXPONENTS(0.,0.,0.,0.,0.,0.,0.);
#862=PRODUCT_DEFINITION_FORMATION_WITH_SPECIFIED_SOURCE('','',#865,.NOT_KNOWN.
);
#863=PRODUCT_CATEGORY_RELATIONSHIP('','',#868,#864);
#864=PRODUCT_RELATED_PRODUCT_CATEGORY('assembly','',(#865));
#865=PRODUCT('','master','',(#866));
#866=PRODUCT_CONTEXT('',#870,'');
#867=PRODUCT_DEFINITION_CONTEXT('',#870,'part_definition');
#868=PRODUCT_CATEGORY('part','');
#869=APPLICATION_PROTOCOL_DEFINITION('international standard',
'automotive_design_cc2',1994,#870);
#870=APPLICATION_CONTEXT(
'configuration controlled 3D designs of mechanical parts and assemblies');
ENDSEC;
END-ISO-10303-21;
41614