ISO-10303-21;
HEADER;
/* Generated by software using Delcam plc STEP library */

FILE_DESCRIPTION(
/* description */ ('AP-214 File'),
/* implementation_level */ '2;1');

FILE_NAME(
/* name */ 'D561',
/* time_stamp */ 'Thu Dec 22 09:53:25 2016',
/* author */ (''),
/* organization */ (''),
/* preprocessor_version */ 'DELCAM STEP V1',
/* originating_system */ 'Exchange7.1.0006',
/* authorisation */ '');

FILE_SCHEMA (('AUTOMOTIVE_DESIGN'));
ENDSEC;
DATA;
#10=PRESENTATION_STYLE_ASSIGNMENT((#20));
#11=PRESENTATION_STYLE_ASSIGNMENT((#21));
#12=SURFACE_SIDE_STYLE('',(#14));
#13=SURFACE_SIDE_STYLE('',(#15));
#14=SURFACE_STYLE_FILL_AREA(#16);
#15=SURFACE_STYLE_FILL_AREA(#17);
#16=FILL_AREA_STYLE('',(#18));
#17=FILL_AREA_STYLE('',(#19));
#18=FILL_AREA_STYLE_COLOUR('',#36);
#19=FILL_AREA_STYLE_COLOUR('',#37);
#20=SURFACE_STYLE_USAGE(.BOTH.,#12);
#21=SURFACE_STYLE_USAGE(.BOTH.,#13);
#22=STYLED_ITEM('',(#10),#55);
#23=STYLED_ITEM('',(#10),#56);
#24=STYLED_ITEM('',(#10),#57);
#25=STYLED_ITEM('',(#10),#58);
#26=STYLED_ITEM('',(#10),#59);
#27=STYLED_ITEM('',(#10),#60);
#28=STYLED_ITEM('',(#10),#61);
#29=STYLED_ITEM('',(#10),#62);
#30=STYLED_ITEM('',(#10),#63);
#31=STYLED_ITEM('',(#10),#64);
#32=STYLED_ITEM('',(#10),#65);
#33=STYLED_ITEM('',(#10),#66);
#34=STYLED_ITEM('',(#10),#67);
#35=STYLED_ITEM('',(#11),#43);
#36=COLOUR_RGB('',0.,0.,0.);
#37=COLOUR_RGB('rgb_colour_1',0.4,0.4,0.4);
#38=MECHANICAL_DESIGN_GEOMETRIC_PRESENTATION_REPRESENTATION('',(#22,#23,#24,
#25,#26,#27,#28,#29,#30,#31,#32,#33,#34,#35),#459);
#39=PRESENTATION_LAYER_ASSIGNMENT('77','D712',(#55,#56,#57,#58,#59,#60,#61,#62
,#63,#64,#65,#66,#67,#43));
#40=SHAPE_REPRESENTATION_RELATIONSHIP('','',#266,#41);
#41=ADVANCED_BREP_SHAPE_REPRESENTATION('',(#42),#459);
#42=MANIFOLD_SOLID_BREP('1288',#43);
#43=CLOSED_SHELL('',(#55,#56,#57,#58,#59,#60,#61,#62,#63,#64,#65,#66,#67));
#44=PLANE('',#268);
#45=PLANE('',#269);
#46=PLANE('',#270);
#47=PLANE('',#271);
#48=PLANE('',#272);
#49=PLANE('',#273);
#50=PLANE('',#274);
#51=PLANE('',#275);
#52=PLANE('',#276);
#53=PLANE('',#277);
#54=PLANE('',#278);
#55=ADVANCED_FACE('',(#68),#160,.T.);
#56=ADVANCED_FACE('',(#69),#44,.T.);
#57=ADVANCED_FACE('',(#70),#45,.T.);
#58=ADVANCED_FACE('',(#71),#46,.T.);
#59=ADVANCED_FACE('',(#72),#47,.T.);
#60=ADVANCED_FACE('',(#73),#48,.T.);
#61=ADVANCED_FACE('',(#74),#49,.T.);
#62=ADVANCED_FACE('',(#75),#50,.T.);
#63=ADVANCED_FACE('',(#76),#51,.T.);
#64=ADVANCED_FACE('',(#77),#52,.T.);
#65=ADVANCED_FACE('',(#78),#161,.T.);
#66=ADVANCED_FACE('',(#79),#53,.T.);
#67=ADVANCED_FACE('',(#80),#54,.F.);
#68=FACE_OUTER_BOUND('',#81,.T.);
#69=FACE_OUTER_BOUND('',#82,.T.);
#70=FACE_OUTER_BOUND('',#83,.T.);
#71=FACE_OUTER_BOUND('',#84,.T.);
#72=FACE_OUTER_BOUND('',#85,.T.);
#73=FACE_OUTER_BOUND('',#86,.T.);
#74=FACE_OUTER_BOUND('',#87,.T.);
#75=FACE_OUTER_BOUND('',#88,.T.);
#76=FACE_OUTER_BOUND('',#89,.T.);
#77=FACE_OUTER_BOUND('',#90,.T.);
#78=FACE_OUTER_BOUND('',#91,.T.);
#79=FACE_OUTER_BOUND('',#92,.T.);
#80=FACE_OUTER_BOUND('',#93,.T.);
#81=EDGE_LOOP('',(#94,#95,#96,#97));
#82=EDGE_LOOP('',(#98,#99,#100,#101));
#83=EDGE_LOOP('',(#102,#103,#104,#105));
#84=EDGE_LOOP('',(#106,#107,#108,#109));
#85=EDGE_LOOP('',(#110,#111,#112,#113));
#86=EDGE_LOOP('',(#114,#115,#116,#117));
#87=EDGE_LOOP('',(#118,#119,#120,#121));
#88=EDGE_LOOP('',(#122,#123,#124,#125));
#89=EDGE_LOOP('',(#126,#127,#128,#129));
#90=EDGE_LOOP('',(#130,#131,#132,#133));
#91=EDGE_LOOP('',(#134,#135,#136,#137));
#92=EDGE_LOOP('',(#138,#139,#140,#141,#142,#143,#144,#145,#146,#147,#148));
#93=EDGE_LOOP('',(#149,#150,#151,#152,#153,#154,#155,#156,#157,#158,#159));
#94=ORIENTED_EDGE('',*,*,#218,.F.);
#95=ORIENTED_EDGE('',*,*,#196,.F.);
#96=ORIENTED_EDGE('',*,*,#207,.T.);
#97=ORIENTED_EDGE('',*,*,#186,.T.);
#98=ORIENTED_EDGE('',*,*,#217,.F.);
#99=ORIENTED_EDGE('',*,*,#186,.F.);
#100=ORIENTED_EDGE('',*,*,#206,.T.);
#101=ORIENTED_EDGE('',*,*,#187,.T.);
#102=ORIENTED_EDGE('',*,*,#216,.F.);
#103=ORIENTED_EDGE('',*,*,#187,.F.);
#104=ORIENTED_EDGE('',*,*,#205,.T.);
#105=ORIENTED_EDGE('',*,*,#188,.T.);
#106=ORIENTED_EDGE('',*,*,#215,.F.);
#107=ORIENTED_EDGE('',*,*,#188,.F.);
#108=ORIENTED_EDGE('',*,*,#204,.T.);
#109=ORIENTED_EDGE('',*,*,#189,.T.);
#110=ORIENTED_EDGE('',*,*,#214,.F.);
#111=ORIENTED_EDGE('',*,*,#189,.F.);
#112=ORIENTED_EDGE('',*,*,#203,.T.);
#113=ORIENTED_EDGE('',*,*,#190,.T.);
#114=ORIENTED_EDGE('',*,*,#213,.F.);
#115=ORIENTED_EDGE('',*,*,#190,.F.);
#116=ORIENTED_EDGE('',*,*,#202,.T.);
#117=ORIENTED_EDGE('',*,*,#191,.T.);
#118=ORIENTED_EDGE('',*,*,#212,.F.);
#119=ORIENTED_EDGE('',*,*,#191,.F.);
#120=ORIENTED_EDGE('',*,*,#201,.T.);
#121=ORIENTED_EDGE('',*,*,#192,.T.);
#122=ORIENTED_EDGE('',*,*,#211,.F.);
#123=ORIENTED_EDGE('',*,*,#192,.F.);
#124=ORIENTED_EDGE('',*,*,#200,.T.);
#125=ORIENTED_EDGE('',*,*,#193,.T.);
#126=ORIENTED_EDGE('',*,*,#210,.F.);
#127=ORIENTED_EDGE('',*,*,#193,.F.);
#128=ORIENTED_EDGE('',*,*,#199,.T.);
#129=ORIENTED_EDGE('',*,*,#194,.T.);
#130=ORIENTED_EDGE('',*,*,#209,.F.);
#131=ORIENTED_EDGE('',*,*,#194,.F.);
#132=ORIENTED_EDGE('',*,*,#198,.T.);
#133=ORIENTED_EDGE('',*,*,#195,.T.);
#134=ORIENTED_EDGE('',*,*,#208,.F.);
#135=ORIENTED_EDGE('',*,*,#195,.F.);
#136=ORIENTED_EDGE('',*,*,#197,.T.);
#137=ORIENTED_EDGE('',*,*,#196,.T.);
#138=ORIENTED_EDGE('',*,*,#207,.F.);
#139=ORIENTED_EDGE('',*,*,#197,.F.);
#140=ORIENTED_EDGE('',*,*,#198,.F.);
#141=ORIENTED_EDGE('',*,*,#199,.F.);
#142=ORIENTED_EDGE('',*,*,#200,.F.);
#143=ORIENTED_EDGE('',*,*,#201,.F.);
#144=ORIENTED_EDGE('',*,*,#202,.F.);
#145=ORIENTED_EDGE('',*,*,#203,.F.);
#146=ORIENTED_EDGE('',*,*,#204,.F.);
#147=ORIENTED_EDGE('',*,*,#205,.F.);
#148=ORIENTED_EDGE('',*,*,#206,.F.);
#149=ORIENTED_EDGE('',*,*,#218,.T.);
#150=ORIENTED_EDGE('',*,*,#217,.T.);
#151=ORIENTED_EDGE('',*,*,#216,.T.);
#152=ORIENTED_EDGE('',*,*,#215,.T.);
#153=ORIENTED_EDGE('',*,*,#214,.T.);
#154=ORIENTED_EDGE('',*,*,#213,.T.);
#155=ORIENTED_EDGE('',*,*,#212,.T.);
#156=ORIENTED_EDGE('',*,*,#211,.T.);
#157=ORIENTED_EDGE('',*,*,#210,.T.);
#158=ORIENTED_EDGE('',*,*,#209,.T.);
#159=ORIENTED_EDGE('',*,*,#208,.T.);
#160=SURFACE_OF_LINEAR_EXTRUSION('',#184,#241);
#161=SURFACE_OF_LINEAR_EXTRUSION('',#185,#242);
#162=B_SPLINE_CURVE_WITH_KNOTS('',3,(#350,#351,#352,#353),.UNSPECIFIED.,.F.,
.F.,(4,4),(9.,10.),.UNSPECIFIED.);
#163=B_SPLINE_CURVE_WITH_KNOTS('',3,(#354,#355,#356,#357),.UNSPECIFIED.,.F.,
.F.,(4,4),(8.,9.),.UNSPECIFIED.);
#164=B_SPLINE_CURVE_WITH_KNOTS('',3,(#358,#359,#360,#361),.UNSPECIFIED.,.F.,
.F.,(4,4),(7.,8.),.UNSPECIFIED.);
#165=B_SPLINE_CURVE_WITH_KNOTS('',3,(#362,#363,#364,#365),.UNSPECIFIED.,.F.,
.F.,(4,4),(6.,7.),.UNSPECIFIED.);
#166=B_SPLINE_CURVE_WITH_KNOTS('',3,(#366,#367,#368,#369),.UNSPECIFIED.,.F.,
.F.,(4,4),(5.,6.),.UNSPECIFIED.);
#167=B_SPLINE_CURVE_WITH_KNOTS('',3,(#370,#371,#372,#373),.UNSPECIFIED.,.F.,
.F.,(4,4),(4.,5.),.UNSPECIFIED.);
#168=B_SPLINE_CURVE_WITH_KNOTS('',3,(#374,#375,#376,#377),.UNSPECIFIED.,.F.,
.F.,(4,4),(3.,4.),.UNSPECIFIED.);
#169=B_SPLINE_CURVE_WITH_KNOTS('',3,(#378,#379,#380,#381),.UNSPECIFIED.,.F.,
.F.,(4,4),(2.,3.),.UNSPECIFIED.);
#170=B_SPLINE_CURVE_WITH_KNOTS('',3,(#382,#383,#384,#385),.UNSPECIFIED.,.F.,
.F.,(4,4),(1.,2.),.UNSPECIFIED.);
#171=B_SPLINE_CURVE_WITH_KNOTS('',3,(#386,#387,#388,#389),.UNSPECIFIED.,.F.,
.F.,(4,4),(0.,1.),.UNSPECIFIED.);
#172=B_SPLINE_CURVE_WITH_KNOTS('',3,(#390,#391,#392,#393),.UNSPECIFIED.,.F.,
.F.,(4,4),(10.,11.),.UNSPECIFIED.);
#173=B_SPLINE_CURVE_WITH_KNOTS('',3,(#394,#395,#396,#397),.UNSPECIFIED.,.F.,
.F.,(4,4),(9.,10.),.UNSPECIFIED.);
#174=B_SPLINE_CURVE_WITH_KNOTS('',3,(#398,#399,#400,#401),.UNSPECIFIED.,.F.,
.F.,(4,4),(8.,9.),.UNSPECIFIED.);
#175=B_SPLINE_CURVE_WITH_KNOTS('',3,(#402,#403,#404,#405),.UNSPECIFIED.,.F.,
.F.,(4,4),(7.,8.),.UNSPECIFIED.);
#176=B_SPLINE_CURVE_WITH_KNOTS('',3,(#406,#407,#408,#409),.UNSPECIFIED.,.F.,
.F.,(4,4),(6.,7.),.UNSPECIFIED.);
#177=B_SPLINE_CURVE_WITH_KNOTS('',3,(#410,#411,#412,#413),.UNSPECIFIED.,.F.,
.F.,(4,4),(5.,6.),.UNSPECIFIED.);
#178=B_SPLINE_CURVE_WITH_KNOTS('',3,(#414,#415,#416,#417),.UNSPECIFIED.,.F.,
.F.,(4,4),(4.,5.),.UNSPECIFIED.);
#179=B_SPLINE_CURVE_WITH_KNOTS('',3,(#418,#419,#420,#421),.UNSPECIFIED.,.F.,
.F.,(4,4),(3.,4.),.UNSPECIFIED.);
#180=B_SPLINE_CURVE_WITH_KNOTS('',3,(#422,#423,#424,#425),.UNSPECIFIED.,.F.,
.F.,(4,4),(2.,3.),.UNSPECIFIED.);
#181=B_SPLINE_CURVE_WITH_KNOTS('',3,(#426,#427,#428,#429),.UNSPECIFIED.,.F.,
.F.,(4,4),(1.,2.),.UNSPECIFIED.);
#182=B_SPLINE_CURVE_WITH_KNOTS('',3,(#430,#431,#432,#433),.UNSPECIFIED.,.F.,
.F.,(4,4),(0.,1.),.UNSPECIFIED.);
#183=B_SPLINE_CURVE_WITH_KNOTS('',3,(#434,#435,#436,#437),.UNSPECIFIED.,.F.,
.F.,(4,4),(10.,11.),.UNSPECIFIED.);
#184=B_SPLINE_CURVE_WITH_KNOTS('',3,(#438,#439,#440,#441),.UNSPECIFIED.,.F.,
.F.,(4,4),(10.,11.),.UNSPECIFIED.);
#185=B_SPLINE_CURVE_WITH_KNOTS('',3,(#451,#452,#453,#454),.UNSPECIFIED.,.F.,
.F.,(4,4),(9.,10.),.UNSPECIFIED.);
#186=EDGE_CURVE('',#253,#264,#219,.T.);
#187=EDGE_CURVE('',#252,#263,#220,.T.);
#188=EDGE_CURVE('',#251,#262,#221,.T.);
#189=EDGE_CURVE('',#250,#261,#222,.T.);
#190=EDGE_CURVE('',#249,#260,#223,.T.);
#191=EDGE_CURVE('',#248,#259,#224,.T.);
#192=EDGE_CURVE('',#247,#258,#225,.T.);
#193=EDGE_CURVE('',#246,#257,#226,.T.);
#194=EDGE_CURVE('',#245,#256,#227,.T.);
#195=EDGE_CURVE('',#244,#255,#228,.T.);
#196=EDGE_CURVE('',#243,#254,#229,.T.);
#197=EDGE_CURVE('',#244,#243,#162,.T.);
#198=EDGE_CURVE('',#245,#244,#163,.T.);
#199=EDGE_CURVE('',#246,#245,#164,.T.);
#200=EDGE_CURVE('',#247,#246,#165,.T.);
#201=EDGE_CURVE('',#248,#247,#166,.T.);
#202=EDGE_CURVE('',#249,#248,#167,.T.);
#203=EDGE_CURVE('',#250,#249,#168,.T.);
#204=EDGE_CURVE('',#251,#250,#169,.T.);
#205=EDGE_CURVE('',#252,#251,#170,.T.);
#206=EDGE_CURVE('',#253,#252,#171,.T.);
#207=EDGE_CURVE('',#243,#253,#172,.T.);
#208=EDGE_CURVE('',#255,#254,#173,.T.);
#209=EDGE_CURVE('',#256,#255,#174,.T.);
#210=EDGE_CURVE('',#257,#256,#175,.T.);
#211=EDGE_CURVE('',#258,#257,#176,.T.);
#212=EDGE_CURVE('',#259,#258,#177,.T.);
#213=EDGE_CURVE('',#260,#259,#178,.T.);
#214=EDGE_CURVE('',#261,#260,#179,.T.);
#215=EDGE_CURVE('',#262,#261,#180,.T.);
#216=EDGE_CURVE('',#263,#262,#181,.T.);
#217=EDGE_CURVE('',#264,#263,#182,.T.);
#218=EDGE_CURVE('',#254,#264,#183,.T.);
#219=LINE('',#339,#230);
#220=LINE('',#340,#231);
#221=LINE('',#341,#232);
#222=LINE('',#342,#233);
#223=LINE('',#343,#234);
#224=LINE('',#344,#235);
#225=LINE('',#345,#236);
#226=LINE('',#346,#237);
#227=LINE('',#347,#238);
#228=LINE('',#348,#239);
#229=LINE('',#349,#240);
#230=VECTOR('',#281,1.);
#231=VECTOR('',#282,1.);
#232=VECTOR('',#283,1.);
#233=VECTOR('',#284,1.);
#234=VECTOR('',#285,1.);
#235=VECTOR('',#286,1.);
#236=VECTOR('',#287,1.);
#237=VECTOR('',#288,1.);
#238=VECTOR('',#289,1.);
#239=VECTOR('',#290,1.);
#240=VECTOR('',#291,1.);
#241=VECTOR('',#292,1.);
#242=VECTOR('',#311,1.);
#243=VERTEX_POINT('',#317);
#244=VERTEX_POINT('',#318);
#245=VERTEX_POINT('',#319);
#246=VERTEX_POINT('',#320);
#247=VERTEX_POINT('',#321);
#248=VERTEX_POINT('',#322);
#249=VERTEX_POINT('',#323);
#250=VERTEX_POINT('',#324);
#251=VERTEX_POINT('',#325);
#252=VERTEX_POINT('',#326);
#253=VERTEX_POINT('',#327);
#254=VERTEX_POINT('',#328);
#255=VERTEX_POINT('',#329);
#256=VERTEX_POINT('',#330);
#257=VERTEX_POINT('',#331);
#258=VERTEX_POINT('',#332);
#259=VERTEX_POINT('',#333);
#260=VERTEX_POINT('',#334);
#261=VERTEX_POINT('',#335);
#262=VERTEX_POINT('',#336);
#263=VERTEX_POINT('',#337);
#264=VERTEX_POINT('',#338);
#265=SHAPE_DEFINITION_REPRESENTATION(#457,#266);
#266=SHAPE_REPRESENTATION('master',(#267),#459);
#267=AXIS2_PLACEMENT_3D('',#316,#280,#279);
#268=AXIS2_PLACEMENT_3D('',#442,#294,#293);
#269=AXIS2_PLACEMENT_3D('',#443,#296,#295);
#270=AXIS2_PLACEMENT_3D('',#444,#298,#297);
#271=AXIS2_PLACEMENT_3D('',#445,#300,#299);
#272=AXIS2_PLACEMENT_3D('',#446,#302,#301);
#273=AXIS2_PLACEMENT_3D('',#447,#304,#303);
#274=AXIS2_PLACEMENT_3D('',#448,#306,#305);
#275=AXIS2_PLACEMENT_3D('',#449,#308,#307);
#276=AXIS2_PLACEMENT_3D('',#450,#310,#309);
#277=AXIS2_PLACEMENT_3D('',#455,#313,#312);
#278=AXIS2_PLACEMENT_3D('',#456,#315,#314);
#279=DIRECTION('',(1.,0.,0.));
#280=DIRECTION('',(0.,0.,1.));
#281=DIRECTION('',(3.0303813532988E-015,-1.,-4.33467203931445E-015));
#282=DIRECTION('',(3.0303813532988E-015,-1.,-4.33467203931445E-015));
#283=DIRECTION('',(3.0303813532988E-015,-1.,-4.33467203931445E-015));
#284=DIRECTION('',(3.0303813532988E-015,-1.,-4.33467203931445E-015));
#285=DIRECTION('',(3.0303813532988E-015,-1.,-4.33467203931445E-015));
#286=DIRECTION('',(3.0303813532988E-015,-1.,-4.33467203931445E-015));
#287=DIRECTION('',(3.0303813532988E-015,-1.,-4.33467203931445E-015));
#288=DIRECTION('',(3.0303813532988E-015,-1.,-4.33467203931445E-015));
#289=DIRECTION('',(3.0303813532988E-015,-1.,-4.33467203931445E-015));
#290=DIRECTION('',(3.0303813532988E-015,-1.,-4.33467203931445E-015));
#291=DIRECTION('',(3.0303813532988E-015,-1.,-4.33467203931445E-015));
#292=DIRECTION('',(3.0303813532988E-015,-1.,-4.33467203931445E-015));
#293=DIRECTION('',(-0.00141408352454714,0.,-0.999999000183393));
#294=DIRECTION('',(0.999999000183393,3.0365079117883E-015,-0.00141408352454714
));
#295=DIRECTION('',(-0.999999000183393,-7.70371977754894E-034,
0.00141408352459668));
#296=DIRECTION('',(-0.00141408352459668,4.33038249309242E-015,
-0.999999000183393));
#297=DIRECTION('',(-0.0014140835245829,0.,-0.999999000183393));
#298=DIRECTION('',(0.999999000183393,3.03650791178846E-015,-0.0014140835245829
));
#299=DIRECTION('',(-0.999999000183393,-7.70371977754894E-034,
0.00141408352459668));
#300=DIRECTION('',(-0.00141408352459668,4.33038249309242E-015,
-0.999999000183393));
#301=DIRECTION('',(-0.00141408352455674,0.,-0.999999000183393));
#302=DIRECTION('',(0.999999000183393,3.03650791178834E-015,
-0.00141408352455674));
#303=DIRECTION('',(-0.999999000183393,0.,0.00141408352461219));
#304=DIRECTION('',(-0.00141408352461219,4.33038249309237E-015,
-0.999999000183393));
#305=DIRECTION('',(-0.00141408352455979,0.,-0.999999000183393));
#306=DIRECTION('',(0.999999000183393,3.03650791178836E-015,
-0.00141408352455979));
#307=DIRECTION('',(0.999999000183393,7.70371977754894E-034,
-0.00141408352450493));
#308=DIRECTION('',(0.00141408352450493,-4.33038249309269E-015,
0.999999000183393));
#309=DIRECTION('',(0.766044443118978,0.,0.64278760968654));
#310=DIRECTION('',(-0.64278760968654,-5.26844301498564E-015,0.766044443118978)
);
#311=DIRECTION('',(3.0303813532988E-015,-1.,-4.33467203931445E-015));
#312=DIRECTION('',(0.,-0.,1.));
#313=DIRECTION('',(0.,1.,0.));
#314=DIRECTION('',(0.,-0.,1.));
#315=DIRECTION('',(0.,1.,0.));
#316=CARTESIAN_POINT('',(0.,0.,0.));
#317=CARTESIAN_POINT('',(103.080453999994,1622.253894,2180.5038013747));
#318=CARTESIAN_POINT('',(103.37864213647,1622.253894,2199.16166396409));
#319=CARTESIAN_POINT('',(163.369534952485,1622.253894,2249.50000000001));
#320=CARTESIAN_POINT('',(175.204709448679,1622.253894,2249.48326405801));
#321=CARTESIAN_POINT('',(175.179962986999,1622.253894,2231.9832815548));
#322=CARTESIAN_POINT('',(157.679980483789,1622.253894,2232.00802801648));
#323=CARTESIAN_POINT('',(157.655941063872,1622.253894,2215.00804501336));
#324=CARTESIAN_POINT('',(139.655959060571,1622.253894,2215.03349851681));
#325=CARTESIAN_POINT('',(139.631919640653,1622.253894,2198.03351551369));
#326=CARTESIAN_POINT('',(121.631937637351,1622.253894,2198.05896901713));
#327=CARTESIAN_POINT('',(121.607191175672,1622.253894,2180.55898651392));
#328=CARTESIAN_POINT('',(103.080454,-377.746106,2180.50380137469));
#329=CARTESIAN_POINT('',(103.378642136476,-377.746106,2199.16166396409));
#330=CARTESIAN_POINT('',(163.369534952491,-377.746106,2249.5));
#331=CARTESIAN_POINT('',(175.204709448685,-377.746106,2249.483264058));
#332=CARTESIAN_POINT('',(175.179962987005,-377.746106,2231.98328155479));
#333=CARTESIAN_POINT('',(157.679980483795,-377.746106,2232.00802801647));
#334=CARTESIAN_POINT('',(157.655941063878,-377.746106,2215.00804501335));
#335=CARTESIAN_POINT('',(139.655959060577,-377.746106,2215.0334985168));
#336=CARTESIAN_POINT('',(139.631919640659,-377.746106,2198.03351551368));
#337=CARTESIAN_POINT('',(121.631937637357,-377.746106,2198.05896901712));
#338=CARTESIAN_POINT('',(121.607191175678,-377.746106,2180.55898651391));
#339=CARTESIAN_POINT('',(121.607191175672,1622.253894,2180.55898651392));
#340=CARTESIAN_POINT('',(121.631937637351,1622.253894,2198.05896901713));
#341=CARTESIAN_POINT('',(139.631919640653,1622.253894,2198.03351551369));
#342=CARTESIAN_POINT('',(139.655959060571,1622.253894,2215.03349851681));
#343=CARTESIAN_POINT('',(157.655941063872,1622.253894,2215.00804501336));
#344=CARTESIAN_POINT('',(157.679980483789,1622.253894,2232.00802801648));
#345=CARTESIAN_POINT('',(175.179962986999,1622.253894,2231.9832815548));
#346=CARTESIAN_POINT('',(175.204709448679,1622.253894,2249.48326405801));
#347=CARTESIAN_POINT('',(163.369534952485,1622.253894,2249.50000000001));
#348=CARTESIAN_POINT('',(103.37864213647,1622.253894,2199.16166396409));
#349=CARTESIAN_POINT('',(103.080453999994,1622.253894,2180.5038013747));
#350=CARTESIAN_POINT('',(103.37864213647,1622.253894,2199.16166396409));
#351=CARTESIAN_POINT('',(103.28587086296,1622.253894,2192.94227408703));
#352=CARTESIAN_POINT('',(103.186474704691,1622.253894,2186.72297950065));
#353=CARTESIAN_POINT('',(103.080453999994,1622.253894,2180.5038013747));
#354=CARTESIAN_POINT('',(163.369534952485,1622.253894,2249.50000000001));
#355=CARTESIAN_POINT('',(143.37257068048,1622.253894,2232.7205546547));
#356=CARTESIAN_POINT('',(123.375606408475,1622.253894,2215.9411093094));
#357=CARTESIAN_POINT('',(103.37864213647,1622.253894,2199.16166396409));
#358=CARTESIAN_POINT('',(175.204709448679,1622.253894,2249.48326405801));
#359=CARTESIAN_POINT('',(171.259651283281,1622.253894,2249.48884270534));
#360=CARTESIAN_POINT('',(167.314593117883,1622.253894,2249.49442135268));
#361=CARTESIAN_POINT('',(163.369534952485,1622.253894,2249.50000000001));
#362=CARTESIAN_POINT('',(175.179962986999,1622.253894,2231.9832815548));
#363=CARTESIAN_POINT('',(175.188211807559,1622.253894,2237.81660905587));
#364=CARTESIAN_POINT('',(175.196460628119,1622.253894,2243.64993655694));
#365=CARTESIAN_POINT('',(175.204709448679,1622.253894,2249.48326405801));
#366=CARTESIAN_POINT('',(157.679980483789,1622.253894,2232.00802801648));
#367=CARTESIAN_POINT('',(163.513307984859,1622.253894,2231.99977919592));
#368=CARTESIAN_POINT('',(169.346635485929,1622.253894,2231.99153037536));
#369=CARTESIAN_POINT('',(175.179962986999,1622.253894,2231.9832815548));
#370=CARTESIAN_POINT('',(157.655941063872,1622.253894,2215.00804501336));
#371=CARTESIAN_POINT('',(157.663954203844,1622.253894,2220.6747060144));
#372=CARTESIAN_POINT('',(157.671967343817,1622.253894,2226.34136701544));
#373=CARTESIAN_POINT('',(157.679980483789,1622.253894,2232.00802801648));
#374=CARTESIAN_POINT('',(139.655959060571,1622.253894,2215.03349851681));
#375=CARTESIAN_POINT('',(145.655953061671,1622.253894,2215.02501401566));
#376=CARTESIAN_POINT('',(151.655947062771,1622.253894,2215.01652951451));
#377=CARTESIAN_POINT('',(157.655941063872,1622.253894,2215.00804501336));
#378=CARTESIAN_POINT('',(139.631919640653,1622.253894,2198.03351551369));
#379=CARTESIAN_POINT('',(139.639932780625,1622.253894,2203.70017651473));
#380=CARTESIAN_POINT('',(139.647945920598,1622.253894,2209.36683751577));
#381=CARTESIAN_POINT('',(139.655959060571,1622.253894,2215.03349851681));
#382=CARTESIAN_POINT('',(121.631937637351,1622.253894,2198.05896901713));
#383=CARTESIAN_POINT('',(127.631931638452,1622.253894,2198.05048451598));
#384=CARTESIAN_POINT('',(133.631925639552,1622.253894,2198.04200001484));
#385=CARTESIAN_POINT('',(139.631919640653,1622.253894,2198.03351551369));
#386=CARTESIAN_POINT('',(121.607191175672,1622.253894,2180.55898651392));
#387=CARTESIAN_POINT('',(121.615439996232,1622.253894,2186.39231401499));
#388=CARTESIAN_POINT('',(121.623688816791,1622.253894,2192.22564151606));
#389=CARTESIAN_POINT('',(121.631937637351,1622.253894,2198.05896901713));
#390=CARTESIAN_POINT('',(103.080453999994,1622.253894,2180.5038013747));
#391=CARTESIAN_POINT('',(109.256060218909,1622.253894,2180.50550875482));
#392=CARTESIAN_POINT('',(115.431684370644,1622.253894,2180.52390393554));
#393=CARTESIAN_POINT('',(121.607191175672,1622.253894,2180.55898651392));
#394=CARTESIAN_POINT('',(103.378642136476,-377.746106,2199.16166396409));
#395=CARTESIAN_POINT('',(103.285870862966,-377.746106,2192.94227408702));
#396=CARTESIAN_POINT('',(103.186474704697,-377.746106,2186.72297950064));
#397=CARTESIAN_POINT('',(103.080454,-377.746106,2180.50380137469));
#398=CARTESIAN_POINT('',(163.369534952491,-377.746106,2249.5));
#399=CARTESIAN_POINT('',(143.372570680486,-377.746106,2232.72055465469));
#400=CARTESIAN_POINT('',(123.375606408481,-377.746106,2215.94110930939));
#401=CARTESIAN_POINT('',(103.378642136476,-377.746106,2199.16166396409));
#402=CARTESIAN_POINT('',(175.204709448685,-377.746106,2249.483264058));
#403=CARTESIAN_POINT('',(171.259651283287,-377.746106,2249.48884270533));
#404=CARTESIAN_POINT('',(167.314593117889,-377.746106,2249.49442135267));
#405=CARTESIAN_POINT('',(163.369534952491,-377.746106,2249.5));
#406=CARTESIAN_POINT('',(175.179962987005,-377.746106,2231.98328155479));
#407=CARTESIAN_POINT('',(175.188211807565,-377.746106,2237.81660905586));
#408=CARTESIAN_POINT('',(175.196460628125,-377.746106,2243.64993655693));
#409=CARTESIAN_POINT('',(175.204709448685,-377.746106,2249.483264058));
#410=CARTESIAN_POINT('',(157.679980483795,-377.746106,2232.00802801647));
#411=CARTESIAN_POINT('',(163.513307984865,-377.746106,2231.99977919591));
#412=CARTESIAN_POINT('',(169.346635485935,-377.746106,2231.99153037535));
#413=CARTESIAN_POINT('',(175.179962987005,-377.746106,2231.98328155479));
#414=CARTESIAN_POINT('',(157.655941063878,-377.746106,2215.00804501335));
#415=CARTESIAN_POINT('',(157.66395420385,-377.746106,2220.67470601439));
#416=CARTESIAN_POINT('',(157.671967343823,-377.746106,2226.34136701543));
#417=CARTESIAN_POINT('',(157.679980483795,-377.746106,2232.00802801647));
#418=CARTESIAN_POINT('',(139.655959060577,-377.746106,2215.0334985168));
#419=CARTESIAN_POINT('',(145.655953061677,-377.746106,2215.02501401565));
#420=CARTESIAN_POINT('',(151.655947062777,-377.746106,2215.0165295145));
#421=CARTESIAN_POINT('',(157.655941063878,-377.746106,2215.00804501335));
#422=CARTESIAN_POINT('',(139.631919640659,-377.746106,2198.03351551368));
#423=CARTESIAN_POINT('',(139.639932780631,-377.746106,2203.70017651472));
#424=CARTESIAN_POINT('',(139.647945920604,-377.746106,2209.36683751576));
#425=CARTESIAN_POINT('',(139.655959060577,-377.746106,2215.0334985168));
#426=CARTESIAN_POINT('',(121.631937637357,-377.746106,2198.05896901712));
#427=CARTESIAN_POINT('',(127.631931638458,-377.746106,2198.05048451597));
#428=CARTESIAN_POINT('',(133.631925639558,-377.746106,2198.04200001483));
#429=CARTESIAN_POINT('',(139.631919640659,-377.746106,2198.03351551368));
#430=CARTESIAN_POINT('',(121.607191175678,-377.746106,2180.55898651391));
#431=CARTESIAN_POINT('',(121.615439996238,-377.746106,2186.39231401498));
#432=CARTESIAN_POINT('',(121.623688816798,-377.746106,2192.22564151605));
#433=CARTESIAN_POINT('',(121.631937637357,-377.746106,2198.05896901712));
#434=CARTESIAN_POINT('',(103.080454,-377.746106,2180.50380137469));
#435=CARTESIAN_POINT('',(109.256060218915,-377.746106,2180.50550875481));
#436=CARTESIAN_POINT('',(115.43168437065,-377.746106,2180.52390393553));
#437=CARTESIAN_POINT('',(121.607191175678,-377.746106,2180.55898651391));
#438=CARTESIAN_POINT('',(103.080453999994,1622.253894,2180.5038013747));
#439=CARTESIAN_POINT('',(109.256060218909,1622.253894,2180.50550875482));
#440=CARTESIAN_POINT('',(115.431684370644,1622.253894,2180.52390393554));
#441=CARTESIAN_POINT('',(121.607191175672,1622.253894,2180.55898651392));
#442=CARTESIAN_POINT('',(121.607191175672,1622.253894,2180.55898651392));
#443=CARTESIAN_POINT('',(121.631937637351,1622.253894,2198.05896901713));
#444=CARTESIAN_POINT('',(139.631919640653,1622.253894,2198.03351551369));
#445=CARTESIAN_POINT('',(139.655959060571,1622.253894,2215.03349851681));
#446=CARTESIAN_POINT('',(157.655941063872,1622.253894,2215.00804501336));
#447=CARTESIAN_POINT('',(157.679980483789,1622.253894,2232.00802801648));
#448=CARTESIAN_POINT('',(175.179962986999,1622.253894,2231.9832815548));
#449=CARTESIAN_POINT('',(175.204709448679,1622.253894,2249.48326405801));
#450=CARTESIAN_POINT('',(163.369534952485,1622.253894,2249.50000000001));
#451=CARTESIAN_POINT('',(103.37864213647,1622.253894,2199.16166396409));
#452=CARTESIAN_POINT('',(103.28587086296,1622.253894,2192.94227408703));
#453=CARTESIAN_POINT('',(103.186474704691,1622.253894,2186.72297950065));
#454=CARTESIAN_POINT('',(103.080453999994,1622.253894,2180.5038013747));
#455=CARTESIAN_POINT('',(112.343859868041,1622.253894,2180.51887824496));
#456=CARTESIAN_POINT('',(112.343859868047,-377.746106,2180.51887824495));
#457=PRODUCT_DEFINITION_SHAPE('','',#458);
#458=PRODUCT_DEFINITION('','',#470,#475);
#459=(
GEOMETRIC_REPRESENTATION_CONTEXT(3)
GLOBAL_UNCERTAINTY_ASSIGNED_CONTEXT((#460))
GLOBAL_UNIT_ASSIGNED_CONTEXT((#462,#461,#465))
REPRESENTATION_CONTEXT('','')
);
#460=UNCERTAINTY_MEASURE_WITH_UNIT(LENGTH_MEASURE(0.001),#462,'','tolerance');
#461=(
CONVERSION_BASED_UNIT('',#463)
NAMED_UNIT(#469)
PLANE_ANGLE_UNIT()
);
#462=(
CONVERSION_BASED_UNIT('',#464)
LENGTH_UNIT()
NAMED_UNIT(#468)
);
#463=PLANE_ANGLE_MEASURE_WITH_UNIT(PLANE_ANGLE_MEASURE(0.0174532925199433),
#466);
#464=LENGTH_MEASURE_WITH_UNIT(LENGTH_MEASURE(1.),#467);
#465=(
NAMED_UNIT(*)
SI_UNIT($,.STERADIAN.)
SOLID_ANGLE_UNIT()
);
#466=(
NAMED_UNIT(*)
PLANE_ANGLE_UNIT()
SI_UNIT($,.RADIAN.)
);
#467=(
LENGTH_UNIT()
NAMED_UNIT(*)
SI_UNIT(.MILLI.,.METRE.)
);
#468=DIMENSIONAL_EXPONENTS(1.,0.,0.,0.,0.,0.,0.);
#469=DIMENSIONAL_EXPONENTS(0.,0.,0.,0.,0.,0.,0.);
#470=PRODUCT_DEFINITION_FORMATION_WITH_SPECIFIED_SOURCE('','',#473,.NOT_KNOWN.
);
#471=PRODUCT_CATEGORY_RELATIONSHIP('','',#476,#472);
#472=PRODUCT_RELATED_PRODUCT_CATEGORY('assembly','',(#473));
#473=PRODUCT('','master','',(#474));
#474=PRODUCT_CONTEXT('',#478,'');
#475=PRODUCT_DEFINITION_CONTEXT('',#478,'part_definition');
#476=PRODUCT_CATEGORY('part','');
#477=APPLICATION_PROTOCOL_DEFINITION('international standard',
'automotive_design_cc2',1994,#478);
#478=APPLICATION_CONTEXT(
'configuration controlled 3D designs of mechanical parts and assemblies');
ENDSEC;
END-ISO-10303-21;
26820