ISO-10303-21;
HEADER;
/* Generated by software using Delcam plc STEP library */

FILE_DESCRIPTION(
/* description */ ('AP-214 File'),
/* implementation_level */ '2;1');

FILE_NAME(
/* name */ 'D562',
/* time_stamp */ 'Thu Dec 22 10:39:13 2016',
/* author */ (''),
/* organization */ (''),
/* preprocessor_version */ 'DELCAM STEP V1',
/* originating_system */ 'Exchange7.1.0006',
/* authorisation */ '');

FILE_SCHEMA (('AUTOMOTIVE_DESIGN'));
ENDSEC;
DATA;
#10=PRESENTATION_STYLE_ASSIGNMENT((#20));
#11=PRESENTATION_STYLE_ASSIGNMENT((#21));
#12=SURFACE_SIDE_STYLE('',(#14));
#13=SURFACE_SIDE_STYLE('',(#15));
#14=SURFACE_STYLE_FILL_AREA(#16);
#15=SURFACE_STYLE_FILL_AREA(#17);
#16=FILL_AREA_STYLE('',(#18));
#17=FILL_AREA_STYLE('',(#19));
#18=FILL_AREA_STYLE_COLOUR('',#37);
#19=FILL_AREA_STYLE_COLOUR('',#38);
#20=SURFACE_STYLE_USAGE(.BOTH.,#12);
#21=SURFACE_STYLE_USAGE(.BOTH.,#13);
#22=STYLED_ITEM('',(#10),#45);
#23=STYLED_ITEM('',(#10),#46);
#24=STYLED_ITEM('',(#10),#47);
#25=STYLED_ITEM('',(#10),#48);
#26=STYLED_ITEM('',(#10),#49);
#27=STYLED_ITEM('',(#10),#50);
#28=STYLED_ITEM('',(#10),#51);
#29=STYLED_ITEM('',(#10),#52);
#30=STYLED_ITEM('',(#10),#53);
#31=STYLED_ITEM('',(#10),#54);
#32=STYLED_ITEM('',(#10),#55);
#33=STYLED_ITEM('',(#10),#56);
#34=STYLED_ITEM('',(#10),#57);
#35=STYLED_ITEM('',(#10),#58);
#36=STYLED_ITEM('',(#11),#44);
#37=COLOUR_RGB('',0.,0.,0.);
#38=COLOUR_RGB('rgb_colour_1',0.4,0.4,0.4);
#39=MECHANICAL_DESIGN_GEOMETRIC_PRESENTATION_REPRESENTATION('',(#22,#23,#24,
#25,#26,#27,#28,#29,#30,#31,#32,#33,#34,#35,#36),#465);
#40=PRESENTATION_LAYER_ASSIGNMENT('79','D562',(#45,#46,#47,#48,#49,#50,#51,#52
,#53,#54,#55,#56,#57,#58,#44));
#41=SHAPE_REPRESENTATION_RELATIONSHIP('','',#306,#42);
#42=ADVANCED_BREP_SHAPE_REPRESENTATION('',(#43),#465);
#43=MANIFOLD_SOLID_BREP('1293',#44);
#44=CLOSED_SHELL('',(#45,#46,#47,#48,#49,#50,#51,#52,#53,#54,#55,#56,#57,#58)
);
#45=ADVANCED_FACE('',(#59),#159,.T.);
#46=ADVANCED_FACE('',(#60),#160,.T.);
#47=ADVANCED_FACE('',(#61),#161,.T.);
#48=ADVANCED_FACE('',(#62),#162,.T.);
#49=ADVANCED_FACE('',(#63),#163,.T.);
#50=ADVANCED_FACE('',(#64),#164,.T.);
#51=ADVANCED_FACE('',(#65),#165,.T.);
#52=ADVANCED_FACE('',(#66),#166,.T.);
#53=ADVANCED_FACE('',(#67),#167,.T.);
#54=ADVANCED_FACE('',(#68),#168,.T.);
#55=ADVANCED_FACE('',(#69),#169,.T.);
#56=ADVANCED_FACE('',(#70),#170,.T.);
#57=ADVANCED_FACE('',(#71),#171,.F.);
#58=ADVANCED_FACE('',(#72),#172,.T.);
#59=FACE_OUTER_BOUND('',#73,.T.);
#60=FACE_OUTER_BOUND('',#74,.T.);
#61=FACE_OUTER_BOUND('',#75,.T.);
#62=FACE_OUTER_BOUND('',#76,.T.);
#63=FACE_OUTER_BOUND('',#77,.T.);
#64=FACE_OUTER_BOUND('',#78,.T.);
#65=FACE_OUTER_BOUND('',#79,.T.);
#66=FACE_OUTER_BOUND('',#80,.T.);
#67=FACE_OUTER_BOUND('',#81,.T.);
#68=FACE_OUTER_BOUND('',#82,.T.);
#69=FACE_OUTER_BOUND('',#83,.T.);
#70=FACE_OUTER_BOUND('',#84,.T.);
#71=FACE_OUTER_BOUND('',#85,.T.);
#72=FACE_OUTER_BOUND('',#86,.T.);
#73=EDGE_LOOP('',(#87,#88,#89,#90));
#74=EDGE_LOOP('',(#91,#92,#93,#94));
#75=EDGE_LOOP('',(#95,#96,#97,#98));
#76=EDGE_LOOP('',(#99,#100,#101,#102));
#77=EDGE_LOOP('',(#103,#104,#105,#106));
#78=EDGE_LOOP('',(#107,#108,#109,#110));
#79=EDGE_LOOP('',(#111,#112,#113,#114));
#80=EDGE_LOOP('',(#115,#116,#117,#118));
#81=EDGE_LOOP('',(#119,#120,#121,#122));
#82=EDGE_LOOP('',(#123,#124,#125,#126));
#83=EDGE_LOOP('',(#127,#128,#129,#130));
#84=EDGE_LOOP('',(#131,#132,#133,#134));
#85=EDGE_LOOP('',(#135,#136,#137,#138,#139,#140,#141,#142,#143,#144,#145,#146)
);
#86=EDGE_LOOP('',(#147,#148,#149,#150,#151,#152,#153,#154,#155,#156,#157,#158)
);
#87=ORIENTED_EDGE('',*,*,#208,.F.);
#88=ORIENTED_EDGE('',*,*,#184,.F.);
#89=ORIENTED_EDGE('',*,*,#196,.T.);
#90=ORIENTED_EDGE('',*,*,#173,.T.);
#91=ORIENTED_EDGE('',*,*,#207,.F.);
#92=ORIENTED_EDGE('',*,*,#173,.F.);
#93=ORIENTED_EDGE('',*,*,#195,.T.);
#94=ORIENTED_EDGE('',*,*,#174,.T.);
#95=ORIENTED_EDGE('',*,*,#206,.F.);
#96=ORIENTED_EDGE('',*,*,#174,.F.);
#97=ORIENTED_EDGE('',*,*,#194,.T.);
#98=ORIENTED_EDGE('',*,*,#175,.T.);
#99=ORIENTED_EDGE('',*,*,#205,.F.);
#100=ORIENTED_EDGE('',*,*,#175,.F.);
#101=ORIENTED_EDGE('',*,*,#193,.T.);
#102=ORIENTED_EDGE('',*,*,#176,.T.);
#103=ORIENTED_EDGE('',*,*,#204,.F.);
#104=ORIENTED_EDGE('',*,*,#176,.F.);
#105=ORIENTED_EDGE('',*,*,#192,.T.);
#106=ORIENTED_EDGE('',*,*,#177,.T.);
#107=ORIENTED_EDGE('',*,*,#203,.F.);
#108=ORIENTED_EDGE('',*,*,#177,.F.);
#109=ORIENTED_EDGE('',*,*,#191,.T.);
#110=ORIENTED_EDGE('',*,*,#178,.T.);
#111=ORIENTED_EDGE('',*,*,#202,.F.);
#112=ORIENTED_EDGE('',*,*,#178,.F.);
#113=ORIENTED_EDGE('',*,*,#190,.T.);
#114=ORIENTED_EDGE('',*,*,#179,.T.);
#115=ORIENTED_EDGE('',*,*,#201,.F.);
#116=ORIENTED_EDGE('',*,*,#179,.F.);
#117=ORIENTED_EDGE('',*,*,#189,.T.);
#118=ORIENTED_EDGE('',*,*,#180,.T.);
#119=ORIENTED_EDGE('',*,*,#200,.F.);
#120=ORIENTED_EDGE('',*,*,#180,.F.);
#121=ORIENTED_EDGE('',*,*,#188,.T.);
#122=ORIENTED_EDGE('',*,*,#181,.T.);
#123=ORIENTED_EDGE('',*,*,#199,.F.);
#124=ORIENTED_EDGE('',*,*,#181,.F.);
#125=ORIENTED_EDGE('',*,*,#187,.T.);
#126=ORIENTED_EDGE('',*,*,#182,.T.);
#127=ORIENTED_EDGE('',*,*,#198,.F.);
#128=ORIENTED_EDGE('',*,*,#182,.F.);
#129=ORIENTED_EDGE('',*,*,#186,.T.);
#130=ORIENTED_EDGE('',*,*,#183,.T.);
#131=ORIENTED_EDGE('',*,*,#197,.F.);
#132=ORIENTED_EDGE('',*,*,#183,.F.);
#133=ORIENTED_EDGE('',*,*,#185,.T.);
#134=ORIENTED_EDGE('',*,*,#184,.T.);
#135=ORIENTED_EDGE('',*,*,#196,.F.);
#136=ORIENTED_EDGE('',*,*,#185,.F.);
#137=ORIENTED_EDGE('',*,*,#186,.F.);
#138=ORIENTED_EDGE('',*,*,#187,.F.);
#139=ORIENTED_EDGE('',*,*,#188,.F.);
#140=ORIENTED_EDGE('',*,*,#189,.F.);
#141=ORIENTED_EDGE('',*,*,#190,.F.);
#142=ORIENTED_EDGE('',*,*,#191,.F.);
#143=ORIENTED_EDGE('',*,*,#192,.F.);
#144=ORIENTED_EDGE('',*,*,#193,.F.);
#145=ORIENTED_EDGE('',*,*,#194,.F.);
#146=ORIENTED_EDGE('',*,*,#195,.F.);
#147=ORIENTED_EDGE('',*,*,#208,.T.);
#148=ORIENTED_EDGE('',*,*,#207,.T.);
#149=ORIENTED_EDGE('',*,*,#206,.T.);
#150=ORIENTED_EDGE('',*,*,#205,.T.);
#151=ORIENTED_EDGE('',*,*,#204,.T.);
#152=ORIENTED_EDGE('',*,*,#203,.T.);
#153=ORIENTED_EDGE('',*,*,#202,.T.);
#154=ORIENTED_EDGE('',*,*,#201,.T.);
#155=ORIENTED_EDGE('',*,*,#200,.T.);
#156=ORIENTED_EDGE('',*,*,#199,.T.);
#157=ORIENTED_EDGE('',*,*,#198,.T.);
#158=ORIENTED_EDGE('',*,*,#197,.T.);
#159=PLANE('',#308);
#160=PLANE('',#309);
#161=PLANE('',#310);
#162=PLANE('',#311);
#163=PLANE('',#312);
#164=PLANE('',#313);
#165=PLANE('',#314);
#166=PLANE('',#315);
#167=PLANE('',#316);
#168=PLANE('',#317);
#169=PLANE('',#318);
#170=PLANE('',#319);
#171=PLANE('',#320);
#172=PLANE('',#321);
#173=EDGE_CURVE('',#292,#304,#209,.T.);
#174=EDGE_CURVE('',#291,#303,#210,.T.);
#175=EDGE_CURVE('',#290,#302,#211,.T.);
#176=EDGE_CURVE('',#289,#301,#212,.T.);
#177=EDGE_CURVE('',#288,#300,#213,.T.);
#178=EDGE_CURVE('',#287,#299,#214,.T.);
#179=EDGE_CURVE('',#286,#298,#215,.T.);
#180=EDGE_CURVE('',#285,#297,#216,.T.);
#181=EDGE_CURVE('',#284,#296,#217,.T.);
#182=EDGE_CURVE('',#283,#295,#218,.T.);
#183=EDGE_CURVE('',#282,#294,#219,.T.);
#184=EDGE_CURVE('',#281,#293,#220,.T.);
#185=EDGE_CURVE('',#282,#281,#221,.T.);
#186=EDGE_CURVE('',#283,#282,#222,.T.);
#187=EDGE_CURVE('',#284,#283,#223,.T.);
#188=EDGE_CURVE('',#285,#284,#224,.T.);
#189=EDGE_CURVE('',#286,#285,#225,.T.);
#190=EDGE_CURVE('',#287,#286,#226,.T.);
#191=EDGE_CURVE('',#288,#287,#227,.T.);
#192=EDGE_CURVE('',#289,#288,#228,.T.);
#193=EDGE_CURVE('',#290,#289,#229,.T.);
#194=EDGE_CURVE('',#291,#290,#230,.T.);
#195=EDGE_CURVE('',#292,#291,#231,.T.);
#196=EDGE_CURVE('',#281,#292,#232,.T.);
#197=EDGE_CURVE('',#294,#293,#233,.T.);
#198=EDGE_CURVE('',#295,#294,#234,.T.);
#199=EDGE_CURVE('',#296,#295,#235,.T.);
#200=EDGE_CURVE('',#297,#296,#236,.T.);
#201=EDGE_CURVE('',#298,#297,#237,.T.);
#202=EDGE_CURVE('',#299,#298,#238,.T.);
#203=EDGE_CURVE('',#300,#299,#239,.T.);
#204=EDGE_CURVE('',#301,#300,#240,.T.);
#205=EDGE_CURVE('',#302,#301,#241,.T.);
#206=EDGE_CURVE('',#303,#302,#242,.T.);
#207=EDGE_CURVE('',#304,#303,#243,.T.);
#208=EDGE_CURVE('',#293,#304,#244,.T.);
#209=LINE('',#413,#245);
#210=LINE('',#414,#246);
#211=LINE('',#415,#247);
#212=LINE('',#416,#248);
#213=LINE('',#417,#249);
#214=LINE('',#418,#250);
#215=LINE('',#419,#251);
#216=LINE('',#420,#252);
#217=LINE('',#421,#253);
#218=LINE('',#422,#254);
#219=LINE('',#423,#255);
#220=LINE('',#424,#256);
#221=LINE('',#425,#257);
#222=LINE('',#426,#258);
#223=LINE('',#427,#259);
#224=LINE('',#428,#260);
#225=LINE('',#429,#261);
#226=LINE('',#430,#262);
#227=LINE('',#431,#263);
#228=LINE('',#432,#264);
#229=LINE('',#433,#265);
#230=LINE('',#434,#266);
#231=LINE('',#435,#267);
#232=LINE('',#436,#268);
#233=LINE('',#437,#269);
#234=LINE('',#438,#270);
#235=LINE('',#439,#271);
#236=LINE('',#440,#272);
#237=LINE('',#441,#273);
#238=LINE('',#442,#274);
#239=LINE('',#443,#275);
#240=LINE('',#444,#276);
#241=LINE('',#445,#277);
#242=LINE('',#446,#278);
#243=LINE('',#447,#279);
#244=LINE('',#448,#280);
#245=VECTOR('',#324,1.);
#246=VECTOR('',#325,1.);
#247=VECTOR('',#326,1.);
#248=VECTOR('',#327,1.);
#249=VECTOR('',#328,1.);
#250=VECTOR('',#329,1.);
#251=VECTOR('',#330,1.);
#252=VECTOR('',#331,1.);
#253=VECTOR('',#332,1.);
#254=VECTOR('',#333,1.);
#255=VECTOR('',#334,1.);
#256=VECTOR('',#335,1.);
#257=VECTOR('',#336,1.);
#258=VECTOR('',#337,1.);
#259=VECTOR('',#338,1.);
#260=VECTOR('',#339,1.);
#261=VECTOR('',#340,1.);
#262=VECTOR('',#341,1.);
#263=VECTOR('',#342,1.);
#264=VECTOR('',#343,1.);
#265=VECTOR('',#344,1.);
#266=VECTOR('',#345,1.);
#267=VECTOR('',#346,1.);
#268=VECTOR('',#347,1.);
#269=VECTOR('',#348,1.);
#270=VECTOR('',#349,1.);
#271=VECTOR('',#350,1.);
#272=VECTOR('',#351,1.);
#273=VECTOR('',#352,1.);
#274=VECTOR('',#353,1.);
#275=VECTOR('',#354,1.);
#276=VECTOR('',#355,1.);
#277=VECTOR('',#356,1.);
#278=VECTOR('',#357,1.);
#279=VECTOR('',#358,1.);
#280=VECTOR('',#359,1.);
#281=VERTEX_POINT('',#389);
#282=VERTEX_POINT('',#390);
#283=VERTEX_POINT('',#391);
#284=VERTEX_POINT('',#392);
#285=VERTEX_POINT('',#393);
#286=VERTEX_POINT('',#394);
#287=VERTEX_POINT('',#395);
#288=VERTEX_POINT('',#396);
#289=VERTEX_POINT('',#397);
#290=VERTEX_POINT('',#398);
#291=VERTEX_POINT('',#399);
#292=VERTEX_POINT('',#400);
#293=VERTEX_POINT('',#401);
#294=VERTEX_POINT('',#402);
#295=VERTEX_POINT('',#403);
#296=VERTEX_POINT('',#404);
#297=VERTEX_POINT('',#405);
#298=VERTEX_POINT('',#406);
#299=VERTEX_POINT('',#407);
#300=VERTEX_POINT('',#408);
#301=VERTEX_POINT('',#409);
#302=VERTEX_POINT('',#410);
#303=VERTEX_POINT('',#411);
#304=VERTEX_POINT('',#412);
#305=SHAPE_DEFINITION_REPRESENTATION(#463,#306);
#306=SHAPE_REPRESENTATION('master',(#307),#465);
#307=AXIS2_PLACEMENT_3D('',#388,#323,#322);
#308=AXIS2_PLACEMENT_3D('',#449,#361,#360);
#309=AXIS2_PLACEMENT_3D('',#450,#363,#362);
#310=AXIS2_PLACEMENT_3D('',#451,#365,#364);
#311=AXIS2_PLACEMENT_3D('',#452,#367,#366);
#312=AXIS2_PLACEMENT_3D('',#453,#369,#368);
#313=AXIS2_PLACEMENT_3D('',#454,#371,#370);
#314=AXIS2_PLACEMENT_3D('',#455,#373,#372);
#315=AXIS2_PLACEMENT_3D('',#456,#375,#374);
#316=AXIS2_PLACEMENT_3D('',#457,#377,#376);
#317=AXIS2_PLACEMENT_3D('',#458,#379,#378);
#318=AXIS2_PLACEMENT_3D('',#459,#381,#380);
#319=AXIS2_PLACEMENT_3D('',#460,#383,#382);
#320=AXIS2_PLACEMENT_3D('',#461,#385,#384);
#321=AXIS2_PLACEMENT_3D('',#462,#387,#386);
#322=DIRECTION('',(1.,0.,0.));
#323=DIRECTION('',(0.,0.,1.));
#324=DIRECTION('',(-0.,-1.,-0.));
#325=DIRECTION('',(-0.,-1.,-0.));
#326=DIRECTION('',(-0.,-1.,-0.));
#327=DIRECTION('',(-0.,-1.,-0.));
#328=DIRECTION('',(-0.,-1.,-0.));
#329=DIRECTION('',(-0.,-1.,-0.));
#330=DIRECTION('',(-0.,-1.,-0.));
#331=DIRECTION('',(-0.,-1.,-0.));
#332=DIRECTION('',(-0.,-1.,-0.));
#333=DIRECTION('',(-0.,-1.,-0.));
#334=DIRECTION('',(-0.,-1.,-0.));
#335=DIRECTION('',(-0.,-1.,-0.));
#336=DIRECTION('',(1.,0.,0.));
#337=DIRECTION('',(0.,0.,1.));
#338=DIRECTION('',(1.,0.,0.));
#339=DIRECTION('',(0.0312347523777204,0.,0.999512076087079));
#340=DIRECTION('',(1.,-0.,-0.));
#341=DIRECTION('',(1.14921322568646E-014,0.,-1.));
#342=DIRECTION('',(-1.,-0.,-0.));
#343=DIRECTION('',(-0.783960427496825,-0.,-0.620810798970988));
#344=DIRECTION('',(0.,0.,-1.));
#345=DIRECTION('',(-0.934805815054033,-0.,-0.355159243355942));
#346=DIRECTION('',(-1.,-0.,-0.));
#347=DIRECTION('',(0.,0.,1.));
#348=DIRECTION('',(1.,0.,0.));
#349=DIRECTION('',(0.,0.,1.));
#350=DIRECTION('',(1.,0.,0.));
#351=DIRECTION('',(0.0312347523777204,0.,0.999512076087079));
#352=DIRECTION('',(1.,-0.,-0.));
#353=DIRECTION('',(1.14921322568646E-014,0.,-1.));
#354=DIRECTION('',(-1.,-0.,-0.));
#355=DIRECTION('',(-0.783960427496825,-0.,-0.620810798970988));
#356=DIRECTION('',(0.,0.,-1.));
#357=DIRECTION('',(-0.934805815054033,-0.,-0.355159243355942));
#358=DIRECTION('',(-1.,-0.,-0.));
#359=DIRECTION('',(0.,0.,1.));
#360=DIRECTION('',(0.,0.,-1.));
#361=DIRECTION('',(1.,0.,0.));
#362=DIRECTION('',(1.,0.,-0.));
#363=DIRECTION('',(0.,0.,1.));
#364=DIRECTION('',(0.934805815054033,0.,0.355159243355942));
#365=DIRECTION('',(-0.355159243355942,0.,0.934805815054033));
#366=DIRECTION('',(0.,0.,1.));
#367=DIRECTION('',(-1.,0.,0.));
#368=DIRECTION('',(0.783960427496825,0.,0.620810798970988));
#369=DIRECTION('',(-0.620810798970988,0.,0.783960427496825));
#370=DIRECTION('',(1.,0.,-0.));
#371=DIRECTION('',(0.,0.,1.));
#372=DIRECTION('',(-1.14921322568646E-014,0.,1.));
#373=DIRECTION('',(-1.,0.,-1.14921322568646E-014));
#374=DIRECTION('',(-1.,0.,0.));
#375=DIRECTION('',(0.,0.,-1.));
#376=DIRECTION('',(-0.0312347523777204,0.,-0.999512076087079));
#377=DIRECTION('',(0.999512076087079,0.,-0.0312347523777204));
#378=DIRECTION('',(-1.,0.,0.));
#379=DIRECTION('',(0.,0.,-1.));
#380=DIRECTION('',(0.,0.,-1.));
#381=DIRECTION('',(1.,0.,0.));
#382=DIRECTION('',(-1.,0.,0.));
#383=DIRECTION('',(0.,0.,-1.));
#384=DIRECTION('',(0.,0.,-1.));
#385=DIRECTION('',(0.,-1.,0.));
#386=DIRECTION('',(0.,0.,-1.));
#387=DIRECTION('',(0.,-1.,0.));
#388=CARTESIAN_POINT('',(0.,0.,0.));
#389=CARTESIAN_POINT('',(301.848482,1622.253894,2233.));
#390=CARTESIAN_POINT('',(284.848482,1622.253894,2233.));
#391=CARTESIAN_POINT('',(284.848482,1622.253894,2215.75));
#392=CARTESIAN_POINT('',(268.348482,1622.253894,2215.75));
#393=CARTESIAN_POINT('',(267.834653,1622.253894,2199.307472));
#394=CARTESIAN_POINT('',(103.080454,1622.253894,2199.307472));
#395=CARTESIAN_POINT('',(103.080454,1622.253894,2209.200052));
#396=CARTESIAN_POINT('',(242.951027,1622.253894,2209.200052));
#397=CARTESIAN_POINT('',(273.234865,1622.253894,2233.181535));
#398=CARTESIAN_POINT('',(273.234865,1622.253894,2246.8034243107));
#399=CARTESIAN_POINT('',(280.332454834001,1622.253894,2249.5));
#400=CARTESIAN_POINT('',(301.848482,1622.253894,2249.5));
#401=CARTESIAN_POINT('',(301.848482,-377.746106,2233.));
#402=CARTESIAN_POINT('',(284.848482,-377.746106,2233.));
#403=CARTESIAN_POINT('',(284.848482,-377.746106,2215.75));
#404=CARTESIAN_POINT('',(268.348482,-377.746106,2215.75));
#405=CARTESIAN_POINT('',(267.834653,-377.746106,2199.307472));
#406=CARTESIAN_POINT('',(103.080454,-377.746106,2199.307472));
#407=CARTESIAN_POINT('',(103.080454,-377.746106,2209.200052));
#408=CARTESIAN_POINT('',(242.951027,-377.746106,2209.200052));
#409=CARTESIAN_POINT('',(273.234865,-377.746106,2233.181535));
#410=CARTESIAN_POINT('',(273.234865,-377.746106,2246.8034243107));
#411=CARTESIAN_POINT('',(280.332454834001,-377.746106,2249.5));
#412=CARTESIAN_POINT('',(301.848482,-377.746106,2249.5));
#413=CARTESIAN_POINT('',(301.848482,1622.253894,2249.5));
#414=CARTESIAN_POINT('',(280.332454834001,1622.253894,2249.5));
#415=CARTESIAN_POINT('',(273.234865,1622.253894,2246.8034243107));
#416=CARTESIAN_POINT('',(273.234865,1622.253894,2233.181535));
#417=CARTESIAN_POINT('',(242.951027,1622.253894,2209.200052));
#418=CARTESIAN_POINT('',(103.080454,1622.253894,2209.200052));
#419=CARTESIAN_POINT('',(103.080454,1622.253894,2199.307472));
#420=CARTESIAN_POINT('',(267.834653,1622.253894,2199.307472));
#421=CARTESIAN_POINT('',(268.348482,1622.253894,2215.75));
#422=CARTESIAN_POINT('',(284.848482,1622.253894,2215.75));
#423=CARTESIAN_POINT('',(284.848482,1622.253894,2233.));
#424=CARTESIAN_POINT('',(301.848482,1622.253894,2233.));
#425=CARTESIAN_POINT('',(284.848482,1622.253894,2233.));
#426=CARTESIAN_POINT('',(284.848482,1622.253894,2215.75));
#427=CARTESIAN_POINT('',(268.348482,1622.253894,2215.75));
#428=CARTESIAN_POINT('',(267.834653,1622.253894,2199.307472));
#429=CARTESIAN_POINT('',(103.080454,1622.253894,2199.307472));
#430=CARTESIAN_POINT('',(103.080454,1622.253894,2209.200052));
#431=CARTESIAN_POINT('',(242.951027,1622.253894,2209.200052));
#432=CARTESIAN_POINT('',(273.234865,1622.253894,2233.181535));
#433=CARTESIAN_POINT('',(273.234865,1622.253894,2246.8034243107));
#434=CARTESIAN_POINT('',(280.332454834001,1622.253894,2249.5));
#435=CARTESIAN_POINT('',(301.848482,1622.253894,2249.5));
#436=CARTESIAN_POINT('',(301.848482,1622.253894,2233.));
#437=CARTESIAN_POINT('',(284.848482,-377.746106,2233.));
#438=CARTESIAN_POINT('',(284.848482,-377.746106,2215.75));
#439=CARTESIAN_POINT('',(268.348482,-377.746106,2215.75));
#440=CARTESIAN_POINT('',(267.834653,-377.746106,2199.307472));
#441=CARTESIAN_POINT('',(103.080454,-377.746106,2199.307472));
#442=CARTESIAN_POINT('',(103.080454,-377.746106,2209.200052));
#443=CARTESIAN_POINT('',(242.951027,-377.746106,2209.200052));
#444=CARTESIAN_POINT('',(273.234865,-377.746106,2233.181535));
#445=CARTESIAN_POINT('',(273.234865,-377.746106,2246.8034243107));
#446=CARTESIAN_POINT('',(280.332454834001,-377.746106,2249.5));
#447=CARTESIAN_POINT('',(301.848482,-377.746106,2249.5));
#448=CARTESIAN_POINT('',(301.848482,-377.746106,2233.));
#449=CARTESIAN_POINT('',(301.848482,1622.253894,2233.));
#450=CARTESIAN_POINT('',(301.848482,1622.253894,2249.5));
#451=CARTESIAN_POINT('',(280.332454834001,1622.253894,2249.5));
#452=CARTESIAN_POINT('',(273.234865,1622.253894,2246.8034243107));
#453=CARTESIAN_POINT('',(273.234865,1622.253894,2233.181535));
#454=CARTESIAN_POINT('',(242.951027,1622.253894,2209.200052));
#455=CARTESIAN_POINT('',(103.080454,1622.253894,2209.200052));
#456=CARTESIAN_POINT('',(103.080454,1622.253894,2199.307472));
#457=CARTESIAN_POINT('',(267.834653,1622.253894,2199.307472));
#458=CARTESIAN_POINT('',(268.348482,1622.253894,2215.75));
#459=CARTESIAN_POINT('',(284.848482,1622.253894,2215.75));
#460=CARTESIAN_POINT('',(284.848482,1622.253894,2233.));
#461=CARTESIAN_POINT('',(0.,1622.253894,0.));
#462=CARTESIAN_POINT('',(0.,-377.746106,0.));
#463=PRODUCT_DEFINITION_SHAPE('','',#464);
#464=PRODUCT_DEFINITION('','',#476,#481);
#465=(
GEOMETRIC_REPRESENTATION_CONTEXT(3)
GLOBAL_UNCERTAINTY_ASSIGNED_CONTEXT((#466))
GLOBAL_UNIT_ASSIGNED_CONTEXT((#468,#467,#471))
REPRESENTATION_CONTEXT('','')
);
#466=UNCERTAINTY_MEASURE_WITH_UNIT(LENGTH_MEASURE(0.001),#468,'','tolerance');
#467=(
CONVERSION_BASED_UNIT('',#469)
NAMED_UNIT(#475)
PLANE_ANGLE_UNIT()
);
#468=(
CONVERSION_BASED_UNIT('',#470)
LENGTH_UNIT()
NAMED_UNIT(#474)
);
#469=PLANE_ANGLE_MEASURE_WITH_UNIT(PLANE_ANGLE_MEASURE(0.0174532925199433),
#472);
#470=LENGTH_MEASURE_WITH_UNIT(LENGTH_MEASURE(1.),#473);
#471=(
NAMED_UNIT(*)
SI_UNIT($,.STERADIAN.)
SOLID_ANGLE_UNIT()
);
#472=(
NAMED_UNIT(*)
PLANE_ANGLE_UNIT()
SI_UNIT($,.RADIAN.)
);
#473=(
LENGTH_UNIT()
NAMED_UNIT(*)
SI_UNIT(.MILLI.,.METRE.)
);
#474=DIMENSIONAL_EXPONENTS(1.,0.,0.,0.,0.,0.,0.);
#475=DIMENSIONAL_EXPONENTS(0.,0.,0.,0.,0.,0.,0.);
#476=PRODUCT_DEFINITION_FORMATION_WITH_SPECIFIED_SOURCE('','',#479,.NOT_KNOWN.
);
#477=PRODUCT_CATEGORY_RELATIONSHIP('','',#482,#478);
#478=PRODUCT_RELATED_PRODUCT_CATEGORY('assembly','',(#479));
#479=PRODUCT('','master','',(#480));
#480=PRODUCT_CONTEXT('',#484,'');
#481=PRODUCT_DEFINITION_CONTEXT('',#484,'part_definition');
#482=PRODUCT_CATEGORY('part','');
#483=APPLICATION_PROTOCOL_DEFINITION('international standard',
'automotive_design_cc2',1994,#484);
#484=APPLICATION_CONTEXT(
'configuration controlled 3D designs of mechanical parts and assemblies');
ENDSEC;
END-ISO-10303-21;
20311