ISO-10303-21;
HEADER;
/* Generated by software using Delcam plc STEP library */

FILE_DESCRIPTION(
/* description */ ('AP-214 File'),
/* implementation_level */ '2;1');

FILE_NAME(
/* name */ 'D564',
/* time_stamp */ 'Mon Dec 26 07:52:34 2016',
/* author */ (''),
/* organization */ (''),
/* preprocessor_version */ 'DELCAM STEP V1',
/* originating_system */ 'Exchange7.1.0006',
/* authorisation */ '');

FILE_SCHEMA (('AUTOMOTIVE_DESIGN'));
ENDSEC;
DATA;
#10=PRESENTATION_STYLE_ASSIGNMENT((#20));
#11=PRESENTATION_STYLE_ASSIGNMENT((#21));
#12=SURFACE_SIDE_STYLE('',(#14));
#13=SURFACE_SIDE_STYLE('',(#15));
#14=SURFACE_STYLE_FILL_AREA(#16);
#15=SURFACE_STYLE_FILL_AREA(#17);
#16=FILL_AREA_STYLE('',(#18));
#17=FILL_AREA_STYLE('',(#19));
#18=FILL_AREA_STYLE_COLOUR('',#40);
#19=FILL_AREA_STYLE_COLOUR('',#41);
#20=SURFACE_STYLE_USAGE(.BOTH.,#12);
#21=SURFACE_STYLE_USAGE(.BOTH.,#13);
#22=STYLED_ITEM('',(#10),#48);
#23=STYLED_ITEM('',(#10),#49);
#24=STYLED_ITEM('',(#10),#50);
#25=STYLED_ITEM('',(#10),#51);
#26=STYLED_ITEM('',(#10),#52);
#27=STYLED_ITEM('',(#10),#53);
#28=STYLED_ITEM('',(#10),#54);
#29=STYLED_ITEM('',(#10),#55);
#30=STYLED_ITEM('',(#10),#56);
#31=STYLED_ITEM('',(#10),#57);
#32=STYLED_ITEM('',(#10),#58);
#33=STYLED_ITEM('',(#10),#59);
#34=STYLED_ITEM('',(#10),#60);
#35=STYLED_ITEM('',(#10),#61);
#36=STYLED_ITEM('',(#10),#62);
#37=STYLED_ITEM('',(#10),#63);
#38=STYLED_ITEM('',(#10),#64);
#39=STYLED_ITEM('',(#11),#47);
#40=COLOUR_RGB('',0.,0.,0.);
#41=COLOUR_RGB('rgb_colour_1',0.4,0.4,0.4);
#42=MECHANICAL_DESIGN_GEOMETRIC_PRESENTATION_REPRESENTATION('',(#22,#23,#24,
#25,#26,#27,#28,#29,#30,#31,#32,#33,#34,#35,#36,#37,#38,#39),#567);
#43=PRESENTATION_LAYER_ASSIGNMENT('80','D564',(#48,#49,#50,#51,#52,#53,#54,#55
,#56,#57,#58,#59,#60,#61,#62,#63,#64,#47));
#44=SHAPE_REPRESENTATION_RELATIONSHIP('','',#372,#45);
#45=ADVANCED_BREP_SHAPE_REPRESENTATION('',(#46),#567);
#46=MANIFOLD_SOLID_BREP('7536',#47);
#47=CLOSED_SHELL('',(#48,#49,#50,#51,#52,#53,#54,#55,#56,#57,#58,#59,#60,#61,
#62,#63,#64));
#48=ADVANCED_FACE('',(#65),#189,.T.);
#49=ADVANCED_FACE('',(#66),#190,.T.);
#50=ADVANCED_FACE('',(#67),#191,.T.);
#51=ADVANCED_FACE('',(#68),#192,.T.);
#52=ADVANCED_FACE('',(#69),#193,.T.);
#53=ADVANCED_FACE('',(#70),#194,.T.);
#54=ADVANCED_FACE('',(#71),#195,.T.);
#55=ADVANCED_FACE('',(#72),#196,.T.);
#56=ADVANCED_FACE('',(#73),#197,.T.);
#57=ADVANCED_FACE('',(#74),#198,.T.);
#58=ADVANCED_FACE('',(#75),#199,.T.);
#59=ADVANCED_FACE('',(#76),#200,.T.);
#60=ADVANCED_FACE('',(#77),#201,.T.);
#61=ADVANCED_FACE('',(#78),#202,.T.);
#62=ADVANCED_FACE('',(#79),#203,.T.);
#63=ADVANCED_FACE('',(#80),#204,.F.);
#64=ADVANCED_FACE('',(#81),#205,.T.);
#65=FACE_OUTER_BOUND('',#82,.T.);
#66=FACE_OUTER_BOUND('',#83,.T.);
#67=FACE_OUTER_BOUND('',#84,.T.);
#68=FACE_OUTER_BOUND('',#85,.T.);
#69=FACE_OUTER_BOUND('',#86,.T.);
#70=FACE_OUTER_BOUND('',#87,.T.);
#71=FACE_OUTER_BOUND('',#88,.T.);
#72=FACE_OUTER_BOUND('',#89,.T.);
#73=FACE_OUTER_BOUND('',#90,.T.);
#74=FACE_OUTER_BOUND('',#91,.T.);
#75=FACE_OUTER_BOUND('',#92,.T.);
#76=FACE_OUTER_BOUND('',#93,.T.);
#77=FACE_OUTER_BOUND('',#94,.T.);
#78=FACE_OUTER_BOUND('',#95,.T.);
#79=FACE_OUTER_BOUND('',#96,.T.);
#80=FACE_OUTER_BOUND('',#97,.T.);
#81=FACE_OUTER_BOUND('',#98,.T.);
#82=EDGE_LOOP('',(#99,#100,#101,#102));
#83=EDGE_LOOP('',(#103,#104,#105,#106));
#84=EDGE_LOOP('',(#107,#108,#109,#110));
#85=EDGE_LOOP('',(#111,#112,#113,#114));
#86=EDGE_LOOP('',(#115,#116,#117,#118));
#87=EDGE_LOOP('',(#119,#120,#121,#122));
#88=EDGE_LOOP('',(#123,#124,#125,#126));
#89=EDGE_LOOP('',(#127,#128,#129,#130));
#90=EDGE_LOOP('',(#131,#132,#133,#134));
#91=EDGE_LOOP('',(#135,#136,#137,#138));
#92=EDGE_LOOP('',(#139,#140,#141,#142));
#93=EDGE_LOOP('',(#143,#144,#145,#146));
#94=EDGE_LOOP('',(#147,#148,#149,#150));
#95=EDGE_LOOP('',(#151,#152,#153,#154));
#96=EDGE_LOOP('',(#155,#156,#157,#158));
#97=EDGE_LOOP('',(#159,#160,#161,#162,#163,#164,#165,#166,#167,#168,#169,#170,
#171,#172,#173));
#98=EDGE_LOOP('',(#174,#175,#176,#177,#178,#179,#180,#181,#182,#183,#184,#185,
#186,#187,#188));
#99=ORIENTED_EDGE('',*,*,#250,.F.);
#100=ORIENTED_EDGE('',*,*,#220,.F.);
#101=ORIENTED_EDGE('',*,*,#235,.T.);
#102=ORIENTED_EDGE('',*,*,#206,.T.);
#103=ORIENTED_EDGE('',*,*,#249,.F.);
#104=ORIENTED_EDGE('',*,*,#206,.F.);
#105=ORIENTED_EDGE('',*,*,#234,.T.);
#106=ORIENTED_EDGE('',*,*,#207,.T.);
#107=ORIENTED_EDGE('',*,*,#248,.F.);
#108=ORIENTED_EDGE('',*,*,#207,.F.);
#109=ORIENTED_EDGE('',*,*,#233,.T.);
#110=ORIENTED_EDGE('',*,*,#208,.T.);
#111=ORIENTED_EDGE('',*,*,#247,.F.);
#112=ORIENTED_EDGE('',*,*,#208,.F.);
#113=ORIENTED_EDGE('',*,*,#232,.T.);
#114=ORIENTED_EDGE('',*,*,#209,.T.);
#115=ORIENTED_EDGE('',*,*,#246,.F.);
#116=ORIENTED_EDGE('',*,*,#209,.F.);
#117=ORIENTED_EDGE('',*,*,#231,.T.);
#118=ORIENTED_EDGE('',*,*,#210,.T.);
#119=ORIENTED_EDGE('',*,*,#245,.F.);
#120=ORIENTED_EDGE('',*,*,#210,.F.);
#121=ORIENTED_EDGE('',*,*,#230,.T.);
#122=ORIENTED_EDGE('',*,*,#211,.T.);
#123=ORIENTED_EDGE('',*,*,#244,.F.);
#124=ORIENTED_EDGE('',*,*,#211,.F.);
#125=ORIENTED_EDGE('',*,*,#229,.T.);
#126=ORIENTED_EDGE('',*,*,#212,.T.);
#127=ORIENTED_EDGE('',*,*,#243,.F.);
#128=ORIENTED_EDGE('',*,*,#212,.F.);
#129=ORIENTED_EDGE('',*,*,#228,.T.);
#130=ORIENTED_EDGE('',*,*,#213,.T.);
#131=ORIENTED_EDGE('',*,*,#242,.F.);
#132=ORIENTED_EDGE('',*,*,#213,.F.);
#133=ORIENTED_EDGE('',*,*,#227,.T.);
#134=ORIENTED_EDGE('',*,*,#214,.T.);
#135=ORIENTED_EDGE('',*,*,#241,.F.);
#136=ORIENTED_EDGE('',*,*,#214,.F.);
#137=ORIENTED_EDGE('',*,*,#226,.T.);
#138=ORIENTED_EDGE('',*,*,#215,.T.);
#139=ORIENTED_EDGE('',*,*,#240,.F.);
#140=ORIENTED_EDGE('',*,*,#215,.F.);
#141=ORIENTED_EDGE('',*,*,#225,.T.);
#142=ORIENTED_EDGE('',*,*,#216,.T.);
#143=ORIENTED_EDGE('',*,*,#239,.F.);
#144=ORIENTED_EDGE('',*,*,#216,.F.);
#145=ORIENTED_EDGE('',*,*,#224,.T.);
#146=ORIENTED_EDGE('',*,*,#217,.T.);
#147=ORIENTED_EDGE('',*,*,#238,.F.);
#148=ORIENTED_EDGE('',*,*,#217,.F.);
#149=ORIENTED_EDGE('',*,*,#223,.T.);
#150=ORIENTED_EDGE('',*,*,#218,.T.);
#151=ORIENTED_EDGE('',*,*,#237,.F.);
#152=ORIENTED_EDGE('',*,*,#218,.F.);
#153=ORIENTED_EDGE('',*,*,#222,.T.);
#154=ORIENTED_EDGE('',*,*,#219,.T.);
#155=ORIENTED_EDGE('',*,*,#236,.F.);
#156=ORIENTED_EDGE('',*,*,#219,.F.);
#157=ORIENTED_EDGE('',*,*,#221,.T.);
#158=ORIENTED_EDGE('',*,*,#220,.T.);
#159=ORIENTED_EDGE('',*,*,#235,.F.);
#160=ORIENTED_EDGE('',*,*,#221,.F.);
#161=ORIENTED_EDGE('',*,*,#222,.F.);
#162=ORIENTED_EDGE('',*,*,#223,.F.);
#163=ORIENTED_EDGE('',*,*,#224,.F.);
#164=ORIENTED_EDGE('',*,*,#225,.F.);
#165=ORIENTED_EDGE('',*,*,#226,.F.);
#166=ORIENTED_EDGE('',*,*,#227,.F.);
#167=ORIENTED_EDGE('',*,*,#228,.F.);
#168=ORIENTED_EDGE('',*,*,#229,.F.);
#169=ORIENTED_EDGE('',*,*,#230,.F.);
#170=ORIENTED_EDGE('',*,*,#231,.F.);
#171=ORIENTED_EDGE('',*,*,#232,.F.);
#172=ORIENTED_EDGE('',*,*,#233,.F.);
#173=ORIENTED_EDGE('',*,*,#234,.F.);
#174=ORIENTED_EDGE('',*,*,#250,.T.);
#175=ORIENTED_EDGE('',*,*,#249,.T.);
#176=ORIENTED_EDGE('',*,*,#248,.T.);
#177=ORIENTED_EDGE('',*,*,#247,.T.);
#178=ORIENTED_EDGE('',*,*,#246,.T.);
#179=ORIENTED_EDGE('',*,*,#245,.T.);
#180=ORIENTED_EDGE('',*,*,#244,.T.);
#181=ORIENTED_EDGE('',*,*,#243,.T.);
#182=ORIENTED_EDGE('',*,*,#242,.T.);
#183=ORIENTED_EDGE('',*,*,#241,.T.);
#184=ORIENTED_EDGE('',*,*,#240,.T.);
#185=ORIENTED_EDGE('',*,*,#239,.T.);
#186=ORIENTED_EDGE('',*,*,#238,.T.);
#187=ORIENTED_EDGE('',*,*,#237,.T.);
#188=ORIENTED_EDGE('',*,*,#236,.T.);
#189=PLANE('',#374);
#190=PLANE('',#375);
#191=PLANE('',#376);
#192=PLANE('',#377);
#193=PLANE('',#378);
#194=PLANE('',#379);
#195=PLANE('',#380);
#196=PLANE('',#381);
#197=PLANE('',#382);
#198=PLANE('',#383);
#199=PLANE('',#384);
#200=PLANE('',#385);
#201=PLANE('',#386);
#202=PLANE('',#387);
#203=PLANE('',#388);
#204=PLANE('',#389);
#205=PLANE('',#390);
#206=EDGE_CURVE('',#355,#370,#251,.T.);
#207=EDGE_CURVE('',#354,#369,#252,.T.);
#208=EDGE_CURVE('',#353,#368,#253,.T.);
#209=EDGE_CURVE('',#352,#367,#254,.T.);
#210=EDGE_CURVE('',#351,#366,#255,.T.);
#211=EDGE_CURVE('',#350,#365,#256,.T.);
#212=EDGE_CURVE('',#349,#364,#257,.T.);
#213=EDGE_CURVE('',#348,#363,#258,.T.);
#214=EDGE_CURVE('',#347,#362,#259,.T.);
#215=EDGE_CURVE('',#346,#361,#260,.T.);
#216=EDGE_CURVE('',#345,#360,#261,.T.);
#217=EDGE_CURVE('',#344,#359,#262,.T.);
#218=EDGE_CURVE('',#343,#358,#263,.T.);
#219=EDGE_CURVE('',#342,#357,#264,.T.);
#220=EDGE_CURVE('',#341,#356,#265,.T.);
#221=EDGE_CURVE('',#342,#341,#266,.T.);
#222=EDGE_CURVE('',#343,#342,#267,.T.);
#223=EDGE_CURVE('',#344,#343,#268,.T.);
#224=EDGE_CURVE('',#345,#344,#269,.T.);
#225=EDGE_CURVE('',#346,#345,#270,.T.);
#226=EDGE_CURVE('',#347,#346,#271,.T.);
#227=EDGE_CURVE('',#348,#347,#272,.T.);
#228=EDGE_CURVE('',#349,#348,#273,.T.);
#229=EDGE_CURVE('',#350,#349,#274,.T.);
#230=EDGE_CURVE('',#351,#350,#275,.T.);
#231=EDGE_CURVE('',#352,#351,#276,.T.);
#232=EDGE_CURVE('',#353,#352,#277,.T.);
#233=EDGE_CURVE('',#354,#353,#278,.T.);
#234=EDGE_CURVE('',#355,#354,#279,.T.);
#235=EDGE_CURVE('',#341,#355,#280,.T.);
#236=EDGE_CURVE('',#357,#356,#281,.T.);
#237=EDGE_CURVE('',#358,#357,#282,.T.);
#238=EDGE_CURVE('',#359,#358,#283,.T.);
#239=EDGE_CURVE('',#360,#359,#284,.T.);
#240=EDGE_CURVE('',#361,#360,#285,.T.);
#241=EDGE_CURVE('',#362,#361,#286,.T.);
#242=EDGE_CURVE('',#363,#362,#287,.T.);
#243=EDGE_CURVE('',#364,#363,#288,.T.);
#244=EDGE_CURVE('',#365,#364,#289,.T.);
#245=EDGE_CURVE('',#366,#365,#290,.T.);
#246=EDGE_CURVE('',#367,#366,#291,.T.);
#247=EDGE_CURVE('',#368,#367,#292,.T.);
#248=EDGE_CURVE('',#369,#368,#293,.T.);
#249=EDGE_CURVE('',#370,#369,#294,.T.);
#250=EDGE_CURVE('',#356,#370,#295,.T.);
#251=LINE('',#503,#296);
#252=LINE('',#504,#297);
#253=LINE('',#505,#298);
#254=LINE('',#506,#299);
#255=LINE('',#507,#300);
#256=LINE('',#508,#301);
#257=LINE('',#509,#302);
#258=LINE('',#510,#303);
#259=LINE('',#511,#304);
#260=LINE('',#512,#305);
#261=LINE('',#513,#306);
#262=LINE('',#514,#307);
#263=LINE('',#515,#308);
#264=LINE('',#516,#309);
#265=LINE('',#517,#310);
#266=LINE('',#518,#311);
#267=LINE('',#519,#312);
#268=LINE('',#520,#313);
#269=LINE('',#521,#314);
#270=LINE('',#522,#315);
#271=LINE('',#523,#316);
#272=LINE('',#524,#317);
#273=LINE('',#525,#318);
#274=LINE('',#526,#319);
#275=LINE('',#527,#320);
#276=LINE('',#528,#321);
#277=LINE('',#529,#322);
#278=LINE('',#530,#323);
#279=LINE('',#531,#324);
#280=LINE('',#532,#325);
#281=LINE('',#533,#326);
#282=LINE('',#534,#327);
#283=LINE('',#535,#328);
#284=LINE('',#536,#329);
#285=LINE('',#537,#330);
#286=LINE('',#538,#331);
#287=LINE('',#539,#332);
#288=LINE('',#540,#333);
#289=LINE('',#541,#334);
#290=LINE('',#542,#335);
#291=LINE('',#543,#336);
#292=LINE('',#544,#337);
#293=LINE('',#545,#338);
#294=LINE('',#546,#339);
#295=LINE('',#547,#340);
#296=VECTOR('',#393,1.);
#297=VECTOR('',#394,1.);
#298=VECTOR('',#395,1.);
#299=VECTOR('',#396,1.);
#300=VECTOR('',#397,1.);
#301=VECTOR('',#398,1.);
#302=VECTOR('',#399,1.);
#303=VECTOR('',#400,1.);
#304=VECTOR('',#401,1.);
#305=VECTOR('',#402,1.);
#306=VECTOR('',#403,1.);
#307=VECTOR('',#404,1.);
#308=VECTOR('',#405,1.);
#309=VECTOR('',#406,1.);
#310=VECTOR('',#407,1.);
#311=VECTOR('',#408,1.);
#312=VECTOR('',#409,1.);
#313=VECTOR('',#410,1.);
#314=VECTOR('',#411,1.);
#315=VECTOR('',#412,1.);
#316=VECTOR('',#413,1.);
#317=VECTOR('',#414,1.);
#318=VECTOR('',#415,1.);
#319=VECTOR('',#416,1.);
#320=VECTOR('',#417,1.);
#321=VECTOR('',#418,1.);
#322=VECTOR('',#419,1.);
#323=VECTOR('',#420,1.);
#324=VECTOR('',#421,1.);
#325=VECTOR('',#422,1.);
#326=VECTOR('',#423,1.);
#327=VECTOR('',#424,1.);
#328=VECTOR('',#425,1.);
#329=VECTOR('',#426,1.);
#330=VECTOR('',#427,1.);
#331=VECTOR('',#428,1.);
#332=VECTOR('',#429,1.);
#333=VECTOR('',#430,1.);
#334=VECTOR('',#431,1.);
#335=VECTOR('',#432,1.);
#336=VECTOR('',#433,1.);
#337=VECTOR('',#434,1.);
#338=VECTOR('',#435,1.);
#339=VECTOR('',#436,1.);
#340=VECTOR('',#437,1.);
#341=VERTEX_POINT('',#473);
#342=VERTEX_POINT('',#474);
#343=VERTEX_POINT('',#475);
#344=VERTEX_POINT('',#476);
#345=VERTEX_POINT('',#477);
#346=VERTEX_POINT('',#478);
#347=VERTEX_POINT('',#479);
#348=VERTEX_POINT('',#480);
#349=VERTEX_POINT('',#481);
#350=VERTEX_POINT('',#482);
#351=VERTEX_POINT('',#483);
#352=VERTEX_POINT('',#484);
#353=VERTEX_POINT('',#485);
#354=VERTEX_POINT('',#486);
#355=VERTEX_POINT('',#487);
#356=VERTEX_POINT('',#488);
#357=VERTEX_POINT('',#489);
#358=VERTEX_POINT('',#490);
#359=VERTEX_POINT('',#491);
#360=VERTEX_POINT('',#492);
#361=VERTEX_POINT('',#493);
#362=VERTEX_POINT('',#494);
#363=VERTEX_POINT('',#495);
#364=VERTEX_POINT('',#496);
#365=VERTEX_POINT('',#497);
#366=VERTEX_POINT('',#498);
#367=VERTEX_POINT('',#499);
#368=VERTEX_POINT('',#500);
#369=VERTEX_POINT('',#501);
#370=VERTEX_POINT('',#502);
#371=SHAPE_DEFINITION_REPRESENTATION(#565,#372);
#372=SHAPE_REPRESENTATION('master',(#373),#567);
#373=AXIS2_PLACEMENT_3D('',#472,#392,#391);
#374=AXIS2_PLACEMENT_3D('',#548,#439,#438);
#375=AXIS2_PLACEMENT_3D('',#549,#441,#440);
#376=AXIS2_PLACEMENT_3D('',#550,#443,#442);
#377=AXIS2_PLACEMENT_3D('',#551,#445,#444);
#378=AXIS2_PLACEMENT_3D('',#552,#447,#446);
#379=AXIS2_PLACEMENT_3D('',#553,#449,#448);
#380=AXIS2_PLACEMENT_3D('',#554,#451,#450);
#381=AXIS2_PLACEMENT_3D('',#555,#453,#452);
#382=AXIS2_PLACEMENT_3D('',#556,#455,#454);
#383=AXIS2_PLACEMENT_3D('',#557,#457,#456);
#384=AXIS2_PLACEMENT_3D('',#558,#459,#458);
#385=AXIS2_PLACEMENT_3D('',#559,#461,#460);
#386=AXIS2_PLACEMENT_3D('',#560,#463,#462);
#387=AXIS2_PLACEMENT_3D('',#561,#465,#464);
#388=AXIS2_PLACEMENT_3D('',#562,#467,#466);
#389=AXIS2_PLACEMENT_3D('',#563,#469,#468);
#390=AXIS2_PLACEMENT_3D('',#564,#471,#470);
#391=DIRECTION('',(1.,0.,0.));
#392=DIRECTION('',(0.,0.,1.));
#393=DIRECTION('',(2.38548307865109E-015,-1.,5.35886915162767E-014));
#394=DIRECTION('',(2.38548307865109E-015,-1.,5.35886915162767E-014));
#395=DIRECTION('',(2.38548307865109E-015,-1.,5.35886915162767E-014));
#396=DIRECTION('',(2.38548307865109E-015,-1.,5.35886915162767E-014));
#397=DIRECTION('',(2.38548307865109E-015,-1.,5.35886915162767E-014));
#398=DIRECTION('',(2.38548307865109E-015,-1.,5.35886915162767E-014));
#399=DIRECTION('',(2.38548307865109E-015,-1.,5.35886915162767E-014));
#400=DIRECTION('',(2.38548307865109E-015,-1.,5.35886915162767E-014));
#401=DIRECTION('',(2.38548307865109E-015,-1.,5.35886915162767E-014));
#402=DIRECTION('',(2.38548307865109E-015,-1.,5.35886915162767E-014));
#403=DIRECTION('',(2.38548307865109E-015,-1.,5.35886915162767E-014));
#404=DIRECTION('',(2.38548307865109E-015,-1.,5.35886915162767E-014));
#405=DIRECTION('',(2.38548307865109E-015,-1.,5.35886915162767E-014));
#406=DIRECTION('',(2.38548307865109E-015,-1.,5.35886915162767E-014));
#407=DIRECTION('',(2.38548307865109E-015,-1.,5.35886915162767E-014));
#408=DIRECTION('',(0.0617522003983139,-0.,0.998091511709205));
#409=DIRECTION('',(0.998519291264371,-0.,0.0543987589279175));
#410=DIRECTION('',(0.196116145138556,-0.,0.980580673690846));
#411=DIRECTION('',(0.999154271429009,-0.,0.0411186318493883));
#412=DIRECTION('',(0.18514837905837,-0.,0.982710576788537));
#413=DIRECTION('',(0.998741439067813,-0.,0.0501551382089076));
#414=DIRECTION('',(0.177010508460445,-0.,0.984208961498814));
#415=DIRECTION('',(0.999179244356647,-0.,0.0405072542500794));
#416=DIRECTION('',(-0.055778953068585,-0.,-0.998443142294328));
#417=DIRECTION('',(-0.875153158155695,-0.,-0.483845997989146));
#418=DIRECTION('',(-1.,-0.,-0.));
#419=DIRECTION('',(-0.939944835654367,-0.,-0.341326392074632));
#420=DIRECTION('',(-0.987105480923838,-0.,-0.160071138966769));
#421=DIRECTION('',(-0.919778167914529,0.,-0.392438685437345));
#422=DIRECTION('',(-1.,-0.,-0.));
#423=DIRECTION('',(0.0617522003983139,-0.,0.998091511709205));
#424=DIRECTION('',(0.998519291264371,-0.,0.0543987589279175));
#425=DIRECTION('',(0.196116145138556,-0.,0.980580673690846));
#426=DIRECTION('',(0.999154271429009,-0.,0.0411186318493883));
#427=DIRECTION('',(0.18514837905837,-0.,0.982710576788537));
#428=DIRECTION('',(0.998741439067813,-0.,0.0501551382089076));
#429=DIRECTION('',(0.177010508460445,-0.,0.984208961498814));
#430=DIRECTION('',(0.999179244356647,-0.,0.0405072542500794));
#431=DIRECTION('',(-0.055778953068585,-0.,-0.998443142294328));
#432=DIRECTION('',(-0.875153158155695,-0.,-0.483845997989146));
#433=DIRECTION('',(-1.,-0.,-0.));
#434=DIRECTION('',(-0.939944835654367,-0.,-0.341326392074632));
#435=DIRECTION('',(-0.987105480923838,-0.,-0.160071138966769));
#436=DIRECTION('',(-0.919778167914529,0.,-0.392438685437345));
#437=DIRECTION('',(-1.,-0.,-0.));
#438=DIRECTION('',(0.,-1.,5.35886915162767E-014));
#439=DIRECTION('',(-0.,5.35886915162767E-014,1.));
#440=DIRECTION('',(0.919778167914529,3.15544362088405E-030,0.392438685437345)
);
#441=DIRECTION('',(-0.392438685437345,4.8353552660259E-014,0.919778167914529)
);
#442=DIRECTION('',(0.987105480923838,-1.57772181044202E-030,0.160071138966769)
);
#443=DIRECTION('',(-0.160071138966769,5.25158441178679E-014,0.987105480923838)
);
#444=DIRECTION('',(0.939944835654367,-3.15544362088405E-030,0.341326392074632)
);
#445=DIRECTION('',(-0.341326392074632,4.95561855076082E-014,0.939944835654367)
);
#446=DIRECTION('',(0.,-1.,5.35886915162767E-014));
#447=DIRECTION('',(-0.,5.35886915162767E-014,1.));
#448=DIRECTION('',(0.875153158155695,-3.15544362088405E-030,0.483845997989146)
);
#449=DIRECTION('',(-0.483845997989146,4.57441061810247E-014,0.875153158155695)
);
#450=DIRECTION('',(0.055778953068585,0.,0.998443142294328));
#451=DIRECTION('',(-0.998443142294328,6.07351888154934E-016,0.055778953068585)
);
#452=DIRECTION('',(-0.999179244356647,3.94430452610506E-031,
-0.0405072542500794));
#453=DIRECTION('',(0.0405072542500794,-5.34480789257186E-014,
-0.999179244356647));
#454=DIRECTION('',(-0.177010508460445,0.,-0.984208961498814));
#455=DIRECTION('',(0.984208961498814,-7.1379477095139E-015,-0.177010508460445)
);
#456=DIRECTION('',(-0.998741439067813,-3.94430452610506E-031,
-0.0501551382089076));
#457=DIRECTION('',(0.0501551382089076,-5.34016026492225E-014,
-0.998741439067813));
#458=DIRECTION('',(-0.18514837905837,0.,-0.982710576788537));
#459=DIRECTION('',(0.982710576788537,-7.57761991795713E-015,-0.18514837905837)
);
#460=DIRECTION('',(-0.999154271429009,0.,-0.0411186318493883));
#461=DIRECTION('',(0.0411186318493883,-5.34452822282854E-014,
-0.999154271429009));
#462=DIRECTION('',(-0.196116145138556,0.,-0.980580673690846));
#463=DIRECTION('',(0.980580673690846,-8.17044899884961E-015,-0.196116145138556
));
#464=DIRECTION('',(-0.998519291264371,3.94430452610506E-031,
-0.0543987589279175));
#465=DIRECTION('',(0.0543987589279175,-5.33795749536955E-014,
-0.998519291264371));
#466=DIRECTION('',(-0.0617522003983139,0.,-0.998091511709205));
#467=DIRECTION('',(0.998091511709205,-9.28289205468947E-016,
-0.0617522003983139));
#468=DIRECTION('',(0.,0.,-1.));
#469=DIRECTION('',(0.,-1.,0.));
#470=DIRECTION('',(0.,0.,-1.));
#471=DIRECTION('',(0.,-1.,0.));
#472=CARTESIAN_POINT('',(0.,0.,0.));
#473=CARTESIAN_POINT('',(365.832126999995,2377.746106,2249.49999999989));
#474=CARTESIAN_POINT('',(365.071558999995,2377.746106,2237.20705399989));
#475=CARTESIAN_POINT('',(292.627037999996,2377.746106,2233.26031799989));
#476=CARTESIAN_POINT('',(288.855712999995,2377.746106,2214.40369399989));
#477=CARTESIAN_POINT('',(213.718779999995,2377.746106,2211.31155099989));
#478=CARTESIAN_POINT('',(209.208308999996,2377.746106,2187.37135999989));
#479=CARTESIAN_POINT('',(129.754628999995,2377.746106,2183.38132799989));
#480=CARTESIAN_POINT('',(124.835695999996,2377.746106,2156.03121199989));
#481=CARTESIAN_POINT('',(103.080453999995,2377.746106,2155.14924299989));
#482=CARTESIAN_POINT('',(104.550402999996,2377.746106,2181.46132699989));
#483=CARTESIAN_POINT('',(153.205708999996,2377.746106,2208.36138999989));
#484=CARTESIAN_POINT('',(171.705708999996,2377.746106,2208.36138999989));
#485=CARTESIAN_POINT('',(210.760563999995,2377.746106,2222.54355499989));
#486=CARTESIAN_POINT('',(254.556858999995,2377.746106,2229.64565599989));
#487=CARTESIAN_POINT('',(301.090477695395,2377.746106,2249.49999999989));
#488=CARTESIAN_POINT('',(365.832127,377.746106,2249.5));
#489=CARTESIAN_POINT('',(365.071559,377.746106,2237.207054));
#490=CARTESIAN_POINT('',(292.627038,377.746106,2233.260318));
#491=CARTESIAN_POINT('',(288.855713,377.746106,2214.403694));
#492=CARTESIAN_POINT('',(213.71878,377.746106,2211.311551));
#493=CARTESIAN_POINT('',(209.208309,377.746106,2187.37136));
#494=CARTESIAN_POINT('',(129.754629,377.746106,2183.381328));
#495=CARTESIAN_POINT('',(124.835696,377.746106,2156.031212));
#496=CARTESIAN_POINT('',(103.080454,377.746106,2155.149243));
#497=CARTESIAN_POINT('',(104.550403,377.746106,2181.461327));
#498=CARTESIAN_POINT('',(153.205709,377.746106,2208.36139));
#499=CARTESIAN_POINT('',(171.705709,377.746106,2208.36139));
#500=CARTESIAN_POINT('',(210.760564,377.746106,2222.543555));
#501=CARTESIAN_POINT('',(254.556859,377.746106,2229.645656));
#502=CARTESIAN_POINT('',(301.090477695399,377.746106,2249.5));
#503=CARTESIAN_POINT('',(301.090477695395,2377.746106,2249.49999999989));
#504=CARTESIAN_POINT('',(254.556858999995,2377.746106,2229.64565599989));
#505=CARTESIAN_POINT('',(210.760563999995,2377.746106,2222.54355499989));
#506=CARTESIAN_POINT('',(171.705708999996,2377.746106,2208.36138999989));
#507=CARTESIAN_POINT('',(153.205708999996,2377.746106,2208.36138999989));
#508=CARTESIAN_POINT('',(104.550402999996,2377.746106,2181.46132699989));
#509=CARTESIAN_POINT('',(103.080453999995,2377.746106,2155.14924299989));
#510=CARTESIAN_POINT('',(124.835695999996,2377.746106,2156.03121199989));
#511=CARTESIAN_POINT('',(129.754628999995,2377.746106,2183.38132799989));
#512=CARTESIAN_POINT('',(209.208308999996,2377.746106,2187.37135999989));
#513=CARTESIAN_POINT('',(213.718779999995,2377.746106,2211.31155099989));
#514=CARTESIAN_POINT('',(288.855712999995,2377.746106,2214.40369399989));
#515=CARTESIAN_POINT('',(292.627037999996,2377.746106,2233.26031799989));
#516=CARTESIAN_POINT('',(365.071558999995,2377.746106,2237.20705399989));
#517=CARTESIAN_POINT('',(365.832126999995,2377.746106,2249.49999999989));
#518=CARTESIAN_POINT('',(365.071558999995,2377.746106,2237.20705399989));
#519=CARTESIAN_POINT('',(292.627037999996,2377.746106,2233.26031799989));
#520=CARTESIAN_POINT('',(288.855712999995,2377.746106,2214.40369399989));
#521=CARTESIAN_POINT('',(213.718779999995,2377.746106,2211.31155099989));
#522=CARTESIAN_POINT('',(209.208308999996,2377.746106,2187.37135999989));
#523=CARTESIAN_POINT('',(129.754628999995,2377.746106,2183.38132799989));
#524=CARTESIAN_POINT('',(124.835695999996,2377.746106,2156.03121199989));
#525=CARTESIAN_POINT('',(103.080453999995,2377.746106,2155.14924299989));
#526=CARTESIAN_POINT('',(104.550402999996,2377.746106,2181.46132699989));
#527=CARTESIAN_POINT('',(153.205708999996,2377.746106,2208.36138999989));
#528=CARTESIAN_POINT('',(171.705708999996,2377.746106,2208.36138999989));
#529=CARTESIAN_POINT('',(210.760563999995,2377.746106,2222.54355499989));
#530=CARTESIAN_POINT('',(254.556858999995,2377.746106,2229.64565599989));
#531=CARTESIAN_POINT('',(301.090477695395,2377.746106,2249.49999999989));
#532=CARTESIAN_POINT('',(365.832126999995,2377.746106,2249.49999999989));
#533=CARTESIAN_POINT('',(365.071559,377.746106,2237.207054));
#534=CARTESIAN_POINT('',(292.627038,377.746106,2233.260318));
#535=CARTESIAN_POINT('',(288.855713,377.746106,2214.403694));
#536=CARTESIAN_POINT('',(213.71878,377.746106,2211.311551));
#537=CARTESIAN_POINT('',(209.208309,377.746106,2187.37136));
#538=CARTESIAN_POINT('',(129.754629,377.746106,2183.381328));
#539=CARTESIAN_POINT('',(124.835696,377.746106,2156.031212));
#540=CARTESIAN_POINT('',(103.080454,377.746106,2155.149243));
#541=CARTESIAN_POINT('',(104.550403,377.746106,2181.461327));
#542=CARTESIAN_POINT('',(153.205709,377.746106,2208.36139));
#543=CARTESIAN_POINT('',(171.705709,377.746106,2208.36139));
#544=CARTESIAN_POINT('',(210.760564,377.746106,2222.543555));
#545=CARTESIAN_POINT('',(254.556859,377.746106,2229.645656));
#546=CARTESIAN_POINT('',(301.090477695399,377.746106,2249.5));
#547=CARTESIAN_POINT('',(365.832127,377.746106,2249.5));
#548=CARTESIAN_POINT('',(365.832126999995,2377.746106,2249.49999999989));
#549=CARTESIAN_POINT('',(301.090477695395,2377.746106,2249.49999999989));
#550=CARTESIAN_POINT('',(254.556858999995,2377.746106,2229.64565599989));
#551=CARTESIAN_POINT('',(210.760563999995,2377.746106,2222.54355499989));
#552=CARTESIAN_POINT('',(171.705708999996,2377.746106,2208.36138999989));
#553=CARTESIAN_POINT('',(153.205708999996,2377.746106,2208.36138999989));
#554=CARTESIAN_POINT('',(104.550402999996,2377.746106,2181.46132699989));
#555=CARTESIAN_POINT('',(103.080453999995,2377.746106,2155.14924299989));
#556=CARTESIAN_POINT('',(124.835695999996,2377.746106,2156.03121199989));
#557=CARTESIAN_POINT('',(129.754628999995,2377.746106,2183.38132799989));
#558=CARTESIAN_POINT('',(209.208308999996,2377.746106,2187.37135999989));
#559=CARTESIAN_POINT('',(213.718779999995,2377.746106,2211.31155099989));
#560=CARTESIAN_POINT('',(288.855712999995,2377.746106,2214.40369399989));
#561=CARTESIAN_POINT('',(292.627037999996,2377.746106,2233.26031799989));
#562=CARTESIAN_POINT('',(365.071558999995,2377.746106,2237.20705399989));
#563=CARTESIAN_POINT('',(-4.77096615730218E-012,2377.746106,
-1.07177383032553E-010));
#564=CARTESIAN_POINT('',(-0.,377.746106,-0.));
#565=PRODUCT_DEFINITION_SHAPE('','',#566);
#566=PRODUCT_DEFINITION('','',#578,#583);
#567=(
GEOMETRIC_REPRESENTATION_CONTEXT(3)
GLOBAL_UNCERTAINTY_ASSIGNED_CONTEXT((#568))
GLOBAL_UNIT_ASSIGNED_CONTEXT((#570,#569,#573))
REPRESENTATION_CONTEXT('','')
);
#568=UNCERTAINTY_MEASURE_WITH_UNIT(LENGTH_MEASURE(0.001),#570,'','tolerance');
#569=(
CONVERSION_BASED_UNIT('',#571)
NAMED_UNIT(#577)
PLANE_ANGLE_UNIT()
);
#570=(
CONVERSION_BASED_UNIT('',#572)
LENGTH_UNIT()
NAMED_UNIT(#576)
);
#571=PLANE_ANGLE_MEASURE_WITH_UNIT(PLANE_ANGLE_MEASURE(0.0174532925199433),
#574);
#572=LENGTH_MEASURE_WITH_UNIT(LENGTH_MEASURE(1.),#575);
#573=(
NAMED_UNIT(*)
SI_UNIT($,.STERADIAN.)
SOLID_ANGLE_UNIT()
);
#574=(
NAMED_UNIT(*)
PLANE_ANGLE_UNIT()
SI_UNIT($,.RADIAN.)
);
#575=(
LENGTH_UNIT()
NAMED_UNIT(*)
SI_UNIT(.MILLI.,.METRE.)
);
#576=DIMENSIONAL_EXPONENTS(1.,0.,0.,0.,0.,0.,0.);
#577=DIMENSIONAL_EXPONENTS(0.,0.,0.,0.,0.,0.,0.);
#578=PRODUCT_DEFINITION_FORMATION_WITH_SPECIFIED_SOURCE('','',#581,.NOT_KNOWN.
);
#579=PRODUCT_CATEGORY_RELATIONSHIP('','',#584,#580);
#580=PRODUCT_RELATED_PRODUCT_CATEGORY('assembly','',(#581));
#581=PRODUCT('','master','',(#582));
#582=PRODUCT_CONTEXT('',#586,'');
#583=PRODUCT_DEFINITION_CONTEXT('',#586,'part_definition');
#584=PRODUCT_CATEGORY('part','');
#585=APPLICATION_PROTOCOL_DEFINITION('international standard',
'automotive_design_cc2',1994,#586);
#586=APPLICATION_CONTEXT(
'configuration controlled 3D designs of mechanical parts and assemblies');
ENDSEC;
END-ISO-10303-21;
27379