ISO-10303-21;
HEADER;
/* Generated by software using Delcam plc STEP library */

FILE_DESCRIPTION(
/* description */ ('AP-214 File'),
/* implementation_level */ '2;1');

FILE_NAME(
/* name */ 'D565',
/* time_stamp */ 'Wed Feb 01 09:36:08 2017',
/* author */ (''),
/* organization */ (''),
/* preprocessor_version */ 'DELCAM STEP V1',
/* originating_system */ 'Exchange7.1.0006',
/* authorisation */ '');

FILE_SCHEMA (('AUTOMOTIVE_DESIGN'));
ENDSEC;
DATA;
#10=PRESENTATION_STYLE_ASSIGNMENT((#20));
#11=PRESENTATION_STYLE_ASSIGNMENT((#21));
#12=SURFACE_SIDE_STYLE('',(#14));
#13=SURFACE_SIDE_STYLE('',(#15));
#14=SURFACE_STYLE_FILL_AREA(#16);
#15=SURFACE_STYLE_FILL_AREA(#17);
#16=FILL_AREA_STYLE('',(#18));
#17=FILL_AREA_STYLE('',(#19));
#18=FILL_AREA_STYLE_COLOUR('',#36);
#19=FILL_AREA_STYLE_COLOUR('',#37);
#20=SURFACE_STYLE_USAGE(.BOTH.,#12);
#21=SURFACE_STYLE_USAGE(.BOTH.,#13);
#22=STYLED_ITEM('',(#10),#44);
#23=STYLED_ITEM('',(#10),#45);
#24=STYLED_ITEM('',(#10),#46);
#25=STYLED_ITEM('',(#10),#47);
#26=STYLED_ITEM('',(#10),#48);
#27=STYLED_ITEM('',(#10),#49);
#28=STYLED_ITEM('',(#10),#50);
#29=STYLED_ITEM('',(#10),#51);
#30=STYLED_ITEM('',(#10),#52);
#31=STYLED_ITEM('',(#10),#53);
#32=STYLED_ITEM('',(#10),#54);
#33=STYLED_ITEM('',(#10),#55);
#34=STYLED_ITEM('',(#10),#56);
#35=STYLED_ITEM('',(#11),#43);
#36=COLOUR_RGB('',0.,0.,0.);
#37=COLOUR_RGB('rgb_colour_1',0.4,0.4,0.4);
#38=MECHANICAL_DESIGN_GEOMETRIC_PRESENTATION_REPRESENTATION('',(#22,#23,#24,
#25,#26,#27,#28,#29,#30,#31,#32,#33,#34,#35),#453);
#39=PRESENTATION_LAYER_ASSIGNMENT('128','D565',(#44,#45,#46,#47,#48,#49,#50,
#51,#52,#53,#54,#55,#56,#43));
#40=SHAPE_REPRESENTATION_RELATIONSHIP('','',#262,#41);
#41=ADVANCED_BREP_SHAPE_REPRESENTATION('',(#42),#453);
#42=MANIFOLD_SOLID_BREP('8044',#43);
#43=CLOSED_SHELL('',(#44,#45,#46,#47,#48,#49,#50,#51,#52,#53,#54,#55,#56));
#44=ADVANCED_FACE('',(#57),#149,.T.);
#45=ADVANCED_FACE('',(#58),#150,.T.);
#46=ADVANCED_FACE('',(#59),#151,.T.);
#47=ADVANCED_FACE('',(#60),#152,.T.);
#48=ADVANCED_FACE('',(#61),#153,.T.);
#49=ADVANCED_FACE('',(#62),#154,.T.);
#50=ADVANCED_FACE('',(#63),#155,.T.);
#51=ADVANCED_FACE('',(#64),#156,.T.);
#52=ADVANCED_FACE('',(#65),#157,.T.);
#53=ADVANCED_FACE('',(#66),#158,.T.);
#54=ADVANCED_FACE('',(#67),#159,.T.);
#55=ADVANCED_FACE('',(#68),#160,.T.);
#56=ADVANCED_FACE('',(#69),#161,.F.);
#57=FACE_OUTER_BOUND('',#70,.T.);
#58=FACE_OUTER_BOUND('',#71,.T.);
#59=FACE_OUTER_BOUND('',#72,.T.);
#60=FACE_OUTER_BOUND('',#73,.T.);
#61=FACE_OUTER_BOUND('',#74,.T.);
#62=FACE_OUTER_BOUND('',#75,.T.);
#63=FACE_OUTER_BOUND('',#76,.T.);
#64=FACE_OUTER_BOUND('',#77,.T.);
#65=FACE_OUTER_BOUND('',#78,.T.);
#66=FACE_OUTER_BOUND('',#79,.T.);
#67=FACE_OUTER_BOUND('',#80,.T.);
#68=FACE_OUTER_BOUND('',#81,.T.);
#69=FACE_OUTER_BOUND('',#82,.T.);
#70=EDGE_LOOP('',(#83,#84,#85,#86));
#71=EDGE_LOOP('',(#87,#88,#89,#90));
#72=EDGE_LOOP('',(#91,#92,#93,#94));
#73=EDGE_LOOP('',(#95,#96,#97,#98));
#74=EDGE_LOOP('',(#99,#100,#101,#102));
#75=EDGE_LOOP('',(#103,#104,#105,#106));
#76=EDGE_LOOP('',(#107,#108,#109,#110));
#77=EDGE_LOOP('',(#111,#112,#113,#114));
#78=EDGE_LOOP('',(#115,#116,#117,#118));
#79=EDGE_LOOP('',(#119,#120,#121,#122));
#80=EDGE_LOOP('',(#123,#124,#125,#126));
#81=EDGE_LOOP('',(#127,#128,#129,#130,#131,#132,#133,#134,#135,#136,#137));
#82=EDGE_LOOP('',(#138,#139,#140,#141,#142,#143,#144,#145,#146,#147,#148));
#83=ORIENTED_EDGE('',*,*,#216,.F.);
#84=ORIENTED_EDGE('',*,*,#194,.F.);
#85=ORIENTED_EDGE('',*,*,#205,.T.);
#86=ORIENTED_EDGE('',*,*,#184,.T.);
#87=ORIENTED_EDGE('',*,*,#215,.F.);
#88=ORIENTED_EDGE('',*,*,#184,.F.);
#89=ORIENTED_EDGE('',*,*,#204,.T.);
#90=ORIENTED_EDGE('',*,*,#185,.T.);
#91=ORIENTED_EDGE('',*,*,#214,.F.);
#92=ORIENTED_EDGE('',*,*,#185,.F.);
#93=ORIENTED_EDGE('',*,*,#203,.T.);
#94=ORIENTED_EDGE('',*,*,#186,.T.);
#95=ORIENTED_EDGE('',*,*,#213,.F.);
#96=ORIENTED_EDGE('',*,*,#186,.F.);
#97=ORIENTED_EDGE('',*,*,#202,.T.);
#98=ORIENTED_EDGE('',*,*,#187,.T.);
#99=ORIENTED_EDGE('',*,*,#212,.F.);
#100=ORIENTED_EDGE('',*,*,#187,.F.);
#101=ORIENTED_EDGE('',*,*,#201,.T.);
#102=ORIENTED_EDGE('',*,*,#188,.T.);
#103=ORIENTED_EDGE('',*,*,#211,.F.);
#104=ORIENTED_EDGE('',*,*,#188,.F.);
#105=ORIENTED_EDGE('',*,*,#200,.T.);
#106=ORIENTED_EDGE('',*,*,#189,.T.);
#107=ORIENTED_EDGE('',*,*,#210,.F.);
#108=ORIENTED_EDGE('',*,*,#189,.F.);
#109=ORIENTED_EDGE('',*,*,#199,.T.);
#110=ORIENTED_EDGE('',*,*,#190,.T.);
#111=ORIENTED_EDGE('',*,*,#209,.F.);
#112=ORIENTED_EDGE('',*,*,#190,.F.);
#113=ORIENTED_EDGE('',*,*,#198,.T.);
#114=ORIENTED_EDGE('',*,*,#191,.T.);
#115=ORIENTED_EDGE('',*,*,#208,.F.);
#116=ORIENTED_EDGE('',*,*,#191,.F.);
#117=ORIENTED_EDGE('',*,*,#197,.T.);
#118=ORIENTED_EDGE('',*,*,#192,.T.);
#119=ORIENTED_EDGE('',*,*,#207,.F.);
#120=ORIENTED_EDGE('',*,*,#192,.F.);
#121=ORIENTED_EDGE('',*,*,#196,.T.);
#122=ORIENTED_EDGE('',*,*,#193,.T.);
#123=ORIENTED_EDGE('',*,*,#206,.F.);
#124=ORIENTED_EDGE('',*,*,#193,.F.);
#125=ORIENTED_EDGE('',*,*,#195,.T.);
#126=ORIENTED_EDGE('',*,*,#194,.T.);
#127=ORIENTED_EDGE('',*,*,#205,.F.);
#128=ORIENTED_EDGE('',*,*,#195,.F.);
#129=ORIENTED_EDGE('',*,*,#196,.F.);
#130=ORIENTED_EDGE('',*,*,#197,.F.);
#131=ORIENTED_EDGE('',*,*,#198,.F.);
#132=ORIENTED_EDGE('',*,*,#199,.F.);
#133=ORIENTED_EDGE('',*,*,#200,.F.);
#134=ORIENTED_EDGE('',*,*,#201,.F.);
#135=ORIENTED_EDGE('',*,*,#202,.F.);
#136=ORIENTED_EDGE('',*,*,#203,.F.);
#137=ORIENTED_EDGE('',*,*,#204,.F.);
#138=ORIENTED_EDGE('',*,*,#216,.T.);
#139=ORIENTED_EDGE('',*,*,#215,.T.);
#140=ORIENTED_EDGE('',*,*,#214,.T.);
#141=ORIENTED_EDGE('',*,*,#213,.T.);
#142=ORIENTED_EDGE('',*,*,#212,.T.);
#143=ORIENTED_EDGE('',*,*,#211,.T.);
#144=ORIENTED_EDGE('',*,*,#210,.T.);
#145=ORIENTED_EDGE('',*,*,#209,.T.);
#146=ORIENTED_EDGE('',*,*,#208,.T.);
#147=ORIENTED_EDGE('',*,*,#207,.T.);
#148=ORIENTED_EDGE('',*,*,#206,.T.);
#149=PLANE('',#264);
#150=PLANE('',#265);
#151=PLANE('',#266);
#152=PLANE('',#267);
#153=PLANE('',#268);
#154=PLANE('',#269);
#155=PLANE('',#270);
#156=PLANE('',#271);
#157=PLANE('',#272);
#158=PLANE('',#273);
#159=PLANE('',#274);
#160=PLANE('',#275);
#161=PLANE('',#276);
#162=B_SPLINE_CURVE_WITH_KNOTS('',3,(#350,#351,#352,#353),.UNSPECIFIED.,.F.,
.F.,(4,4),(9.,10.),.UNSPECIFIED.);
#163=B_SPLINE_CURVE_WITH_KNOTS('',3,(#354,#355,#356,#357),.UNSPECIFIED.,.F.,
.F.,(4,4),(8.,9.),.UNSPECIFIED.);
#164=B_SPLINE_CURVE_WITH_KNOTS('',3,(#358,#359,#360,#361),.UNSPECIFIED.,.F.,
.F.,(4,4),(7.,8.),.UNSPECIFIED.);
#165=B_SPLINE_CURVE_WITH_KNOTS('',3,(#362,#363,#364,#365),.UNSPECIFIED.,.F.,
.F.,(4,4),(6.,7.),.UNSPECIFIED.);
#166=B_SPLINE_CURVE_WITH_KNOTS('',3,(#366,#367,#368,#369),.UNSPECIFIED.,.F.,
.F.,(4,4),(5.,6.),.UNSPECIFIED.);
#167=B_SPLINE_CURVE_WITH_KNOTS('',3,(#370,#371,#372,#373),.UNSPECIFIED.,.F.,
.F.,(4,4),(4.,5.),.UNSPECIFIED.);
#168=B_SPLINE_CURVE_WITH_KNOTS('',3,(#374,#375,#376,#377),.UNSPECIFIED.,.F.,
.F.,(4,4),(3.,4.),.UNSPECIFIED.);
#169=B_SPLINE_CURVE_WITH_KNOTS('',3,(#378,#379,#380,#381),.UNSPECIFIED.,.F.,
.F.,(4,4),(2.,3.),.UNSPECIFIED.);
#170=B_SPLINE_CURVE_WITH_KNOTS('',3,(#382,#383,#384,#385),.UNSPECIFIED.,.F.,
.F.,(4,4),(1.,2.),.UNSPECIFIED.);
#171=B_SPLINE_CURVE_WITH_KNOTS('',3,(#386,#387,#388,#389),.UNSPECIFIED.,.F.,
.F.,(4,4),(0.,1.),.UNSPECIFIED.);
#172=B_SPLINE_CURVE_WITH_KNOTS('',3,(#390,#391,#392,#393),.UNSPECIFIED.,.F.,
.F.,(4,4),(10.,11.),.UNSPECIFIED.);
#173=B_SPLINE_CURVE_WITH_KNOTS('',3,(#394,#395,#396,#397),.UNSPECIFIED.,.F.,
.F.,(4,4),(9.,10.),.UNSPECIFIED.);
#174=B_SPLINE_CURVE_WITH_KNOTS('',3,(#398,#399,#400,#401),.UNSPECIFIED.,.F.,
.F.,(4,4),(8.,9.),.UNSPECIFIED.);
#175=B_SPLINE_CURVE_WITH_KNOTS('',3,(#402,#403,#404,#405),.UNSPECIFIED.,.F.,
.F.,(4,4),(7.,8.),.UNSPECIFIED.);
#176=B_SPLINE_CURVE_WITH_KNOTS('',3,(#406,#407,#408,#409),.UNSPECIFIED.,.F.,
.F.,(4,4),(6.,7.),.UNSPECIFIED.);
#177=B_SPLINE_CURVE_WITH_KNOTS('',3,(#410,#411,#412,#413),.UNSPECIFIED.,.F.,
.F.,(4,4),(5.,6.),.UNSPECIFIED.);
#178=B_SPLINE_CURVE_WITH_KNOTS('',3,(#414,#415,#416,#417),.UNSPECIFIED.,.F.,
.F.,(4,4),(4.,5.),.UNSPECIFIED.);
#179=B_SPLINE_CURVE_WITH_KNOTS('',3,(#418,#419,#420,#421),.UNSPECIFIED.,.F.,
.F.,(4,4),(3.,4.),.UNSPECIFIED.);
#180=B_SPLINE_CURVE_WITH_KNOTS('',3,(#422,#423,#424,#425),.UNSPECIFIED.,.F.,
.F.,(4,4),(2.,3.),.UNSPECIFIED.);
#181=B_SPLINE_CURVE_WITH_KNOTS('',3,(#426,#427,#428,#429),.UNSPECIFIED.,.F.,
.F.,(4,4),(1.,2.),.UNSPECIFIED.);
#182=B_SPLINE_CURVE_WITH_KNOTS('',3,(#430,#431,#432,#433),.UNSPECIFIED.,.F.,
.F.,(4,4),(0.,1.),.UNSPECIFIED.);
#183=B_SPLINE_CURVE_WITH_KNOTS('',3,(#434,#435,#436,#437),.UNSPECIFIED.,.F.,
.F.,(4,4),(10.,11.),.UNSPECIFIED.);
#184=EDGE_CURVE('',#249,#260,#217,.T.);
#185=EDGE_CURVE('',#248,#259,#218,.T.);
#186=EDGE_CURVE('',#247,#258,#219,.T.);
#187=EDGE_CURVE('',#246,#257,#220,.T.);
#188=EDGE_CURVE('',#245,#256,#221,.T.);
#189=EDGE_CURVE('',#244,#255,#222,.T.);
#190=EDGE_CURVE('',#243,#254,#223,.T.);
#191=EDGE_CURVE('',#242,#253,#224,.T.);
#192=EDGE_CURVE('',#241,#252,#225,.T.);
#193=EDGE_CURVE('',#240,#251,#226,.T.);
#194=EDGE_CURVE('',#239,#250,#227,.T.);
#195=EDGE_CURVE('',#240,#239,#162,.T.);
#196=EDGE_CURVE('',#241,#240,#163,.T.);
#197=EDGE_CURVE('',#242,#241,#164,.T.);
#198=EDGE_CURVE('',#243,#242,#165,.T.);
#199=EDGE_CURVE('',#244,#243,#166,.T.);
#200=EDGE_CURVE('',#245,#244,#167,.T.);
#201=EDGE_CURVE('',#246,#245,#168,.T.);
#202=EDGE_CURVE('',#247,#246,#169,.T.);
#203=EDGE_CURVE('',#248,#247,#170,.T.);
#204=EDGE_CURVE('',#249,#248,#171,.T.);
#205=EDGE_CURVE('',#239,#249,#172,.T.);
#206=EDGE_CURVE('',#251,#250,#173,.T.);
#207=EDGE_CURVE('',#252,#251,#174,.T.);
#208=EDGE_CURVE('',#253,#252,#175,.T.);
#209=EDGE_CURVE('',#254,#253,#176,.T.);
#210=EDGE_CURVE('',#255,#254,#177,.T.);
#211=EDGE_CURVE('',#256,#255,#178,.T.);
#212=EDGE_CURVE('',#257,#256,#179,.T.);
#213=EDGE_CURVE('',#258,#257,#180,.T.);
#214=EDGE_CURVE('',#259,#258,#181,.T.);
#215=EDGE_CURVE('',#260,#259,#182,.T.);
#216=EDGE_CURVE('',#250,#260,#183,.T.);
#217=LINE('',#339,#228);
#218=LINE('',#340,#229);
#219=LINE('',#341,#230);
#220=LINE('',#342,#231);
#221=LINE('',#343,#232);
#222=LINE('',#344,#233);
#223=LINE('',#345,#234);
#224=LINE('',#346,#235);
#225=LINE('',#347,#236);
#226=LINE('',#348,#237);
#227=LINE('',#349,#238);
#228=VECTOR('',#279,1.);
#229=VECTOR('',#280,1.);
#230=VECTOR('',#281,1.);
#231=VECTOR('',#282,1.);
#232=VECTOR('',#283,1.);
#233=VECTOR('',#284,1.);
#234=VECTOR('',#285,1.);
#235=VECTOR('',#286,1.);
#236=VECTOR('',#287,1.);
#237=VECTOR('',#288,1.);
#238=VECTOR('',#289,1.);
#239=VERTEX_POINT('',#317);
#240=VERTEX_POINT('',#318);
#241=VERTEX_POINT('',#319);
#242=VERTEX_POINT('',#320);
#243=VERTEX_POINT('',#321);
#244=VERTEX_POINT('',#322);
#245=VERTEX_POINT('',#323);
#246=VERTEX_POINT('',#324);
#247=VERTEX_POINT('',#325);
#248=VERTEX_POINT('',#326);
#249=VERTEX_POINT('',#327);
#250=VERTEX_POINT('',#328);
#251=VERTEX_POINT('',#329);
#252=VERTEX_POINT('',#330);
#253=VERTEX_POINT('',#331);
#254=VERTEX_POINT('',#332);
#255=VERTEX_POINT('',#333);
#256=VERTEX_POINT('',#334);
#257=VERTEX_POINT('',#335);
#258=VERTEX_POINT('',#336);
#259=VERTEX_POINT('',#337);
#260=VERTEX_POINT('',#338);
#261=SHAPE_DEFINITION_REPRESENTATION(#451,#262);
#262=SHAPE_REPRESENTATION('master',(#263),#453);
#263=AXIS2_PLACEMENT_3D('',#316,#278,#277);
#264=AXIS2_PLACEMENT_3D('',#438,#291,#290);
#265=AXIS2_PLACEMENT_3D('',#439,#293,#292);
#266=AXIS2_PLACEMENT_3D('',#440,#295,#294);
#267=AXIS2_PLACEMENT_3D('',#441,#297,#296);
#268=AXIS2_PLACEMENT_3D('',#442,#299,#298);
#269=AXIS2_PLACEMENT_3D('',#443,#301,#300);
#270=AXIS2_PLACEMENT_3D('',#444,#303,#302);
#271=AXIS2_PLACEMENT_3D('',#445,#305,#304);
#272=AXIS2_PLACEMENT_3D('',#446,#307,#306);
#273=AXIS2_PLACEMENT_3D('',#447,#309,#308);
#274=AXIS2_PLACEMENT_3D('',#448,#311,#310);
#275=AXIS2_PLACEMENT_3D('',#449,#313,#312);
#276=AXIS2_PLACEMENT_3D('',#450,#315,#314);
#277=DIRECTION('',(1.,0.,0.));
#278=DIRECTION('',(0.,0.,1.));
#279=DIRECTION('',(-0.,-1.,-0.));
#280=DIRECTION('',(-0.,-1.,-0.));
#281=DIRECTION('',(-0.,-1.,-0.));
#282=DIRECTION('',(-0.,-1.,-0.));
#283=DIRECTION('',(-0.,-1.,-0.));
#284=DIRECTION('',(-0.,-1.,-0.));
#285=DIRECTION('',(-0.,-1.,-0.));
#286=DIRECTION('',(-0.,-1.,-0.));
#287=DIRECTION('',(-0.,-1.,-0.));
#288=DIRECTION('',(-0.,-1.,-0.));
#289=DIRECTION('',(-0.,-1.,-0.));
#290=DIRECTION('',(1.,0.,-0.));
#291=DIRECTION('',(0.,-0.,1.));
#292=DIRECTION('',(0.956520169667239,0.,0.291666187652522));
#293=DIRECTION('',(-0.291666187652522,0.,0.956520169667239));
#294=DIRECTION('',(0.0309130464006216,0.,0.999522077576195));
#295=DIRECTION('',(-0.999522077576195,0.,0.0309130464006216));
#296=DIRECTION('',(-0.999174793865317,0.,-0.0406168844718798));
#297=DIRECTION('',(0.0406168844718798,0.,-0.999174793865317));
#298=DIRECTION('',(-0.242535655742479,0.,-0.970142492468795));
#299=DIRECTION('',(0.970142492468795,0.,-0.242535655742479));
#300=DIRECTION('',(-0.999887111719791,0.,0.015025438983778));
#301=DIRECTION('',(-0.015025438983778,0.,-0.999887111719791));
#302=DIRECTION('',(-0.281052723593238,0.,-0.959692329114296));
#303=DIRECTION('',(0.959692329114296,0.,-0.281052723593238));
#304=DIRECTION('',(-0.99987650946848,0.,0.0157151459785876));
#305=DIRECTION('',(-0.0157151459785876,0.,-0.99987650946848));
#306=DIRECTION('',(-0.263754998259679,0.,-0.964589705985419));
#307=DIRECTION('',(0.964589705985419,0.,-0.263754998259679));
#308=DIRECTION('',(-0.999888218411663,0.,0.0149516113362498));
#309=DIRECTION('',(-0.0149516113362498,0.,-0.999888218411663));
#310=DIRECTION('',(-0.282850263216128,0.,-0.959164078038042));
#311=DIRECTION('',(0.959164078038042,0.,-0.282850263216128));
#312=DIRECTION('',(0.,-0.,1.));
#313=DIRECTION('',(0.,1.,0.));
#314=DIRECTION('',(0.,-0.,1.));
#315=DIRECTION('',(0.,1.,0.));
#316=CARTESIAN_POINT('',(0.,0.,0.));
#317=CARTESIAN_POINT('',(309.235382,2168.281361,2249.5));
#318=CARTESIAN_POINT('',(305.181722,2168.281361,2235.753769));
#319=CARTESIAN_POINT('',(245.672114,2168.281361,2236.643633));
#320=CARTESIAN_POINT('',(241.778962,2168.281361,2222.40582));
#321=CARTESIAN_POINT('',(185.161409,2168.281361,2223.295683));
#322=CARTESIAN_POINT('',(180.60086,2168.281361,2207.723075));
#323=CARTESIAN_POINT('',(124.241948,2168.281361,2208.569988));
#324=CARTESIAN_POINT('',(118.666464,2168.281361,2186.268055));
#325=CARTESIAN_POINT('',(103.080454,2168.281361,2185.634477));
#326=CARTESIAN_POINT('',(103.840747,2168.281361,2210.21729));
#327=CARTESIAN_POINT('',(232.668516638329,2168.281361,2249.5));
#328=CARTESIAN_POINT('',(309.235382,168.281361,2249.5));
#329=CARTESIAN_POINT('',(305.181722,168.281361,2235.753769));
#330=CARTESIAN_POINT('',(245.672114,168.281361,2236.643633));
#331=CARTESIAN_POINT('',(241.778962,168.281361,2222.40582));
#332=CARTESIAN_POINT('',(185.161409,168.281361,2223.295683));
#333=CARTESIAN_POINT('',(180.60086,168.281361,2207.723075));
#334=CARTESIAN_POINT('',(124.241948,168.281361,2208.569988));
#335=CARTESIAN_POINT('',(118.666464,168.281361,2186.268055));
#336=CARTESIAN_POINT('',(103.080454,168.281361,2185.634477));
#337=CARTESIAN_POINT('',(103.840747,168.281361,2210.21729));
#338=CARTESIAN_POINT('',(232.668516638329,168.281361,2249.5));
#339=CARTESIAN_POINT('',(232.668516638329,2168.281361,2249.5));
#340=CARTESIAN_POINT('',(103.840747,2168.281361,2210.21729));
#341=CARTESIAN_POINT('',(103.080454,2168.281361,2185.634477));
#342=CARTESIAN_POINT('',(118.666464,2168.281361,2186.268055));
#343=CARTESIAN_POINT('',(124.241948,2168.281361,2208.569988));
#344=CARTESIAN_POINT('',(180.60086,2168.281361,2207.723075));
#345=CARTESIAN_POINT('',(185.161409,2168.281361,2223.295683));
#346=CARTESIAN_POINT('',(241.778962,2168.281361,2222.40582));
#347=CARTESIAN_POINT('',(245.672114,2168.281361,2236.643633));
#348=CARTESIAN_POINT('',(305.181722,2168.281361,2235.753769));
#349=CARTESIAN_POINT('',(309.235382,2168.281361,2249.5));
#350=CARTESIAN_POINT('',(305.181722,2168.281361,2235.753769));
#351=CARTESIAN_POINT('',(306.532942,2168.281361,2240.335846));
#352=CARTESIAN_POINT('',(307.884162,2168.281361,2244.917923));
#353=CARTESIAN_POINT('',(309.235382,2168.281361,2249.5));
#354=CARTESIAN_POINT('',(245.672114,2168.281361,2236.643633));
#355=CARTESIAN_POINT('',(265.50865,2168.281361,2236.34701166667));
#356=CARTESIAN_POINT('',(285.345186,2168.281361,2236.05039033333));
#357=CARTESIAN_POINT('',(305.181722,2168.281361,2235.753769));
#358=CARTESIAN_POINT('',(241.778962,2168.281361,2222.40582));
#359=CARTESIAN_POINT('',(243.076679333333,2168.281361,2227.15175766667));
#360=CARTESIAN_POINT('',(244.374396666667,2168.281361,2231.89769533333));
#361=CARTESIAN_POINT('',(245.672114,2168.281361,2236.643633));
#362=CARTESIAN_POINT('',(185.161409,2168.281361,2223.295683));
#363=CARTESIAN_POINT('',(204.033926666667,2168.281361,2222.999062));
#364=CARTESIAN_POINT('',(222.906444333333,2168.281361,2222.702441));
#365=CARTESIAN_POINT('',(241.778962,2168.281361,2222.40582));
#366=CARTESIAN_POINT('',(180.60086,2168.281361,2207.723075));
#367=CARTESIAN_POINT('',(182.121043,2168.281361,2212.91394433333));
#368=CARTESIAN_POINT('',(183.641226,2168.281361,2218.10481366667));
#369=CARTESIAN_POINT('',(185.161409,2168.281361,2223.295683));
#370=CARTESIAN_POINT('',(124.241948,2168.281361,2208.569988));
#371=CARTESIAN_POINT('',(143.028252,2168.281361,2208.28768366667));
#372=CARTESIAN_POINT('',(161.814556,2168.281361,2208.00537933333));
#373=CARTESIAN_POINT('',(180.60086,2168.281361,2207.723075));
#374=CARTESIAN_POINT('',(118.666464,2168.281361,2186.268055));
#375=CARTESIAN_POINT('',(120.524958666667,2168.281361,2193.70203266667));
#376=CARTESIAN_POINT('',(122.383453333333,2168.281361,2201.13601033333));
#377=CARTESIAN_POINT('',(124.241948,2168.281361,2208.569988));
#378=CARTESIAN_POINT('',(103.080454,2168.281361,2185.634477));
#379=CARTESIAN_POINT('',(108.275790666667,2168.281361,2185.84566966667));
#380=CARTESIAN_POINT('',(113.471127333333,2168.281361,2186.05686233333));
#381=CARTESIAN_POINT('',(118.666464,2168.281361,2186.268055));
#382=CARTESIAN_POINT('',(103.840747,2168.281361,2210.21729));
#383=CARTESIAN_POINT('',(103.587316,2168.281361,2202.023019));
#384=CARTESIAN_POINT('',(103.333885,2168.281361,2193.828748));
#385=CARTESIAN_POINT('',(103.080454,2168.281361,2185.634477));
#386=CARTESIAN_POINT('',(232.668516638329,2168.281361,2249.5));
#387=CARTESIAN_POINT('',(189.725926758886,2168.281361,2236.40576333333));
#388=CARTESIAN_POINT('',(146.783336879443,2168.281361,2223.31152666667));
#389=CARTESIAN_POINT('',(103.840747,2168.281361,2210.21729));
#390=CARTESIAN_POINT('',(309.235382,2168.281361,2249.5));
#391=CARTESIAN_POINT('',(283.71309354611,2168.281361,2249.5));
#392=CARTESIAN_POINT('',(258.190805092219,2168.281361,2249.5));
#393=CARTESIAN_POINT('',(232.668516638329,2168.281361,2249.5));
#394=CARTESIAN_POINT('',(305.181722,168.281361,2235.753769));
#395=CARTESIAN_POINT('',(306.532942,168.281361,2240.335846));
#396=CARTESIAN_POINT('',(307.884162,168.281361,2244.917923));
#397=CARTESIAN_POINT('',(309.235382,168.281361,2249.5));
#398=CARTESIAN_POINT('',(245.672114,168.281361,2236.643633));
#399=CARTESIAN_POINT('',(265.50865,168.281361,2236.34701166667));
#400=CARTESIAN_POINT('',(285.345186,168.281361,2236.05039033333));
#401=CARTESIAN_POINT('',(305.181722,168.281361,2235.753769));
#402=CARTESIAN_POINT('',(241.778962,168.281361,2222.40582));
#403=CARTESIAN_POINT('',(243.076679333333,168.281361,2227.15175766667));
#404=CARTESIAN_POINT('',(244.374396666667,168.281361,2231.89769533333));
#405=CARTESIAN_POINT('',(245.672114,168.281361,2236.643633));
#406=CARTESIAN_POINT('',(185.161409,168.281361,2223.295683));
#407=CARTESIAN_POINT('',(204.033926666667,168.281361,2222.999062));
#408=CARTESIAN_POINT('',(222.906444333333,168.281361,2222.702441));
#409=CARTESIAN_POINT('',(241.778962,168.281361,2222.40582));
#410=CARTESIAN_POINT('',(180.60086,168.281361,2207.723075));
#411=CARTESIAN_POINT('',(182.121043,168.281361,2212.91394433333));
#412=CARTESIAN_POINT('',(183.641226,168.281361,2218.10481366667));
#413=CARTESIAN_POINT('',(185.161409,168.281361,2223.295683));
#414=CARTESIAN_POINT('',(124.241948,168.281361,2208.569988));
#415=CARTESIAN_POINT('',(143.028252,168.281361,2208.28768366667));
#416=CARTESIAN_POINT('',(161.814556,168.281361,2208.00537933333));
#417=CARTESIAN_POINT('',(180.60086,168.281361,2207.723075));
#418=CARTESIAN_POINT('',(118.666464,168.281361,2186.268055));
#419=CARTESIAN_POINT('',(120.524958666667,168.281361,2193.70203266667));
#420=CARTESIAN_POINT('',(122.383453333333,168.281361,2201.13601033333));
#421=CARTESIAN_POINT('',(124.241948,168.281361,2208.569988));
#422=CARTESIAN_POINT('',(103.080454,168.281361,2185.634477));
#423=CARTESIAN_POINT('',(108.275790666667,168.281361,2185.84566966667));
#424=CARTESIAN_POINT('',(113.471127333333,168.281361,2186.05686233333));
#425=CARTESIAN_POINT('',(118.666464,168.281361,2186.268055));
#426=CARTESIAN_POINT('',(103.840747,168.281361,2210.21729));
#427=CARTESIAN_POINT('',(103.587316,168.281361,2202.023019));
#428=CARTESIAN_POINT('',(103.333885,168.281361,2193.828748));
#429=CARTESIAN_POINT('',(103.080454,168.281361,2185.634477));
#430=CARTESIAN_POINT('',(232.668516638329,168.281361,2249.5));
#431=CARTESIAN_POINT('',(189.725926758886,168.281361,2236.40576333333));
#432=CARTESIAN_POINT('',(146.783336879443,168.281361,2223.31152666667));
#433=CARTESIAN_POINT('',(103.840747,168.281361,2210.21729));
#434=CARTESIAN_POINT('',(309.235382,168.281361,2249.5));
#435=CARTESIAN_POINT('',(283.71309354611,168.281361,2249.5));
#436=CARTESIAN_POINT('',(258.190805092219,168.281361,2249.5));
#437=CARTESIAN_POINT('',(232.668516638329,168.281361,2249.5));
#438=CARTESIAN_POINT('',(309.235382,2168.281361,2249.5));
#439=CARTESIAN_POINT('',(232.668516638329,2168.281361,2249.5));
#440=CARTESIAN_POINT('',(103.840747,2168.281361,2210.21729));
#441=CARTESIAN_POINT('',(103.080454,2168.281361,2185.634477));
#442=CARTESIAN_POINT('',(118.666464,2168.281361,2186.268055));
#443=CARTESIAN_POINT('',(124.241948,2168.281361,2208.569988));
#444=CARTESIAN_POINT('',(180.60086,2168.281361,2207.723075));
#445=CARTESIAN_POINT('',(185.161409,2168.281361,2223.295683));
#446=CARTESIAN_POINT('',(241.778962,2168.281361,2222.40582));
#447=CARTESIAN_POINT('',(245.672114,2168.281361,2236.643633));
#448=CARTESIAN_POINT('',(305.181722,2168.281361,2235.753769));
#449=CARTESIAN_POINT('',(270.951949319164,2168.281361,2249.5));
#450=CARTESIAN_POINT('',(270.951949319164,168.281361,2249.5));
#451=PRODUCT_DEFINITION_SHAPE('','',#452);
#452=PRODUCT_DEFINITION('','',#464,#469);
#453=(
GEOMETRIC_REPRESENTATION_CONTEXT(3)
GLOBAL_UNCERTAINTY_ASSIGNED_CONTEXT((#454))
GLOBAL_UNIT_ASSIGNED_CONTEXT((#456,#455,#459))
REPRESENTATION_CONTEXT('','')
);
#454=UNCERTAINTY_MEASURE_WITH_UNIT(LENGTH_MEASURE(0.001),#456,'','tolerance');
#455=(
CONVERSION_BASED_UNIT('',#457)
NAMED_UNIT(#463)
PLANE_ANGLE_UNIT()
);
#456=(
CONVERSION_BASED_UNIT('',#458)
LENGTH_UNIT()
NAMED_UNIT(#462)
);
#457=PLANE_ANGLE_MEASURE_WITH_UNIT(PLANE_ANGLE_MEASURE(0.0174532925199433),
#460);
#458=LENGTH_MEASURE_WITH_UNIT(LENGTH_MEASURE(1.),#461);
#459=(
NAMED_UNIT(*)
SI_UNIT($,.STERADIAN.)
SOLID_ANGLE_UNIT()
);
#460=(
NAMED_UNIT(*)
PLANE_ANGLE_UNIT()
SI_UNIT($,.RADIAN.)
);
#461=(
LENGTH_UNIT()
NAMED_UNIT(*)
SI_UNIT(.MILLI.,.METRE.)
);
#462=DIMENSIONAL_EXPONENTS(1.,0.,0.,0.,0.,0.,0.);
#463=DIMENSIONAL_EXPONENTS(0.,0.,0.,0.,0.,0.,0.);
#464=PRODUCT_DEFINITION_FORMATION_WITH_SPECIFIED_SOURCE('','',#467,.NOT_KNOWN.
);
#465=PRODUCT_CATEGORY_RELATIONSHIP('','',#470,#466);
#466=PRODUCT_RELATED_PRODUCT_CATEGORY('assembly','',(#467));
#467=PRODUCT('','master','',(#468));
#468=PRODUCT_CONTEXT('',#472,'');
#469=PRODUCT_DEFINITION_CONTEXT('',#472,'part_definition');
#470=PRODUCT_CATEGORY('part','');
#471=APPLICATION_PROTOCOL_DEFINITION('international standard',
'automotive_design_cc2',1994,#472);
#472=APPLICATION_CONTEXT(
'configuration controlled 3D designs of mechanical parts and assemblies');
ENDSEC;
END-ISO-10303-21;
24262