ISO-10303-21;
HEADER;
/* Generated by software using Delcam plc STEP library */

FILE_DESCRIPTION(
/* description */ ('AP-214 File'),
/* implementation_level */ '2;1');

FILE_NAME(
/* name */ 'D567',
/* time_stamp */ 'Tue Jul 12 09:15:39 2016',
/* author */ (''),
/* organization */ (''),
/* preprocessor_version */ 'DELCAM STEP V1',
/* originating_system */ 'Exchange7.1.0006',
/* authorisation */ '');

FILE_SCHEMA (('AUTOMOTIVE_DESIGN'));
ENDSEC;
DATA;
#10=PRESENTATION_STYLE_ASSIGNMENT((#20));
#11=PRESENTATION_STYLE_ASSIGNMENT((#21));
#12=SURFACE_SIDE_STYLE('',(#14));
#13=SURFACE_SIDE_STYLE('',(#15));
#14=SURFACE_STYLE_FILL_AREA(#16);
#15=SURFACE_STYLE_FILL_AREA(#17);
#16=FILL_AREA_STYLE('',(#18));
#17=FILL_AREA_STYLE('',(#19));
#18=FILL_AREA_STYLE_COLOUR('',#40);
#19=FILL_AREA_STYLE_COLOUR('',#41);
#20=SURFACE_STYLE_USAGE(.BOTH.,#12);
#21=SURFACE_STYLE_USAGE(.BOTH.,#13);
#22=STYLED_ITEM('',(#10),#48);
#23=STYLED_ITEM('',(#10),#49);
#24=STYLED_ITEM('',(#10),#50);
#25=STYLED_ITEM('',(#10),#51);
#26=STYLED_ITEM('',(#10),#52);
#27=STYLED_ITEM('',(#10),#53);
#28=STYLED_ITEM('',(#10),#54);
#29=STYLED_ITEM('',(#10),#55);
#30=STYLED_ITEM('',(#10),#56);
#31=STYLED_ITEM('',(#10),#57);
#32=STYLED_ITEM('',(#10),#58);
#33=STYLED_ITEM('',(#10),#59);
#34=STYLED_ITEM('',(#10),#60);
#35=STYLED_ITEM('',(#10),#61);
#36=STYLED_ITEM('',(#10),#62);
#37=STYLED_ITEM('',(#10),#63);
#38=STYLED_ITEM('',(#10),#64);
#39=STYLED_ITEM('',(#11),#47);
#40=COLOUR_RGB('solid_blue',0.,0.,0.);
#41=COLOUR_RGB('rgb_colour_1',0.6,0.6,0.6);
#42=MECHANICAL_DESIGN_GEOMETRIC_PRESENTATION_REPRESENTATION('',(#22,#23,#24,
#25,#26,#27,#28,#29,#30,#31,#32,#33,#34,#35,#36,#37,#38,#39),#822);
#43=PRESENTATION_LAYER_ASSIGNMENT('14','D567',(#48,#49,#50,#51,#52,#53,#54,#55
,#56,#57,#58,#59,#60,#61,#62,#63,#64,#47));
#44=SHAPE_REPRESENTATION_RELATIONSHIP('','',#477,#45);
#45=MANIFOLD_SURFACE_SHAPE_REPRESENTATION('',(#46),#822);
#46=SHELL_BASED_SURFACE_MODEL('',(#47));
#47=OPEN_SHELL('917',(#48,#49,#50,#51,#52,#53,#54,#55,#56,#57,#58,#59,#60,#61,
#62,#63,#64));
#48=ADVANCED_FACE('',(#65),#189,.T.);
#49=ADVANCED_FACE('',(#66),#190,.T.);
#50=ADVANCED_FACE('',(#67),#191,.T.);
#51=ADVANCED_FACE('',(#68),#192,.T.);
#52=ADVANCED_FACE('',(#69),#193,.T.);
#53=ADVANCED_FACE('',(#70),#194,.T.);
#54=ADVANCED_FACE('',(#71),#195,.T.);
#55=ADVANCED_FACE('',(#72),#196,.T.);
#56=ADVANCED_FACE('',(#73),#197,.T.);
#57=ADVANCED_FACE('',(#74),#198,.T.);
#58=ADVANCED_FACE('',(#75),#199,.T.);
#59=ADVANCED_FACE('',(#76),#200,.T.);
#60=ADVANCED_FACE('',(#77),#201,.T.);
#61=ADVANCED_FACE('',(#78),#202,.T.);
#62=ADVANCED_FACE('',(#79),#203,.T.);
#63=ADVANCED_FACE('',(#80),#204,.T.);
#64=ADVANCED_FACE('',(#81),#205,.T.);
#65=FACE_OUTER_BOUND('',#82,.T.);
#66=FACE_OUTER_BOUND('',#83,.T.);
#67=FACE_OUTER_BOUND('',#84,.T.);
#68=FACE_OUTER_BOUND('',#85,.T.);
#69=FACE_OUTER_BOUND('',#86,.T.);
#70=FACE_OUTER_BOUND('',#87,.T.);
#71=FACE_OUTER_BOUND('',#88,.T.);
#72=FACE_OUTER_BOUND('',#89,.T.);
#73=FACE_OUTER_BOUND('',#90,.T.);
#74=FACE_OUTER_BOUND('',#91,.T.);
#75=FACE_OUTER_BOUND('',#92,.T.);
#76=FACE_OUTER_BOUND('',#93,.T.);
#77=FACE_OUTER_BOUND('',#94,.T.);
#78=FACE_OUTER_BOUND('',#95,.T.);
#79=FACE_OUTER_BOUND('',#96,.T.);
#80=FACE_OUTER_BOUND('',#97,.T.);
#81=FACE_OUTER_BOUND('',#98,.T.);
#82=EDGE_LOOP('',(#99,#100,#101,#102));
#83=EDGE_LOOP('',(#103,#104,#105,#106));
#84=EDGE_LOOP('',(#107,#108,#109,#110));
#85=EDGE_LOOP('',(#111,#112,#113,#114));
#86=EDGE_LOOP('',(#115,#116,#117,#118));
#87=EDGE_LOOP('',(#119,#120,#121,#122));
#88=EDGE_LOOP('',(#123,#124,#125,#126));
#89=EDGE_LOOP('',(#127,#128,#129,#130));
#90=EDGE_LOOP('',(#131,#132,#133,#134));
#91=EDGE_LOOP('',(#135,#136,#137,#138));
#92=EDGE_LOOP('',(#139,#140,#141,#142));
#93=EDGE_LOOP('',(#143,#144,#145,#146));
#94=EDGE_LOOP('',(#147,#148,#149,#150));
#95=EDGE_LOOP('',(#151,#152,#153,#154));
#96=EDGE_LOOP('',(#155,#156,#157,#158));
#97=EDGE_LOOP('',(#159,#160,#161,#162,#163,#164,#165,#166,#167,#168,#169,#170,
#171,#172,#173));
#98=EDGE_LOOP('',(#174,#175,#176,#177,#178,#179,#180,#181,#182,#183,#184,#185,
#186,#187,#188));
#99=ORIENTED_EDGE('',*,*,#206,.T.);
#100=ORIENTED_EDGE('',*,*,#207,.T.);
#101=ORIENTED_EDGE('',*,*,#208,.T.);
#102=ORIENTED_EDGE('',*,*,#209,.T.);
#103=ORIENTED_EDGE('',*,*,#210,.T.);
#104=ORIENTED_EDGE('',*,*,#211,.T.);
#105=ORIENTED_EDGE('',*,*,#212,.T.);
#106=ORIENTED_EDGE('',*,*,#213,.T.);
#107=ORIENTED_EDGE('',*,*,#214,.T.);
#108=ORIENTED_EDGE('',*,*,#215,.T.);
#109=ORIENTED_EDGE('',*,*,#216,.T.);
#110=ORIENTED_EDGE('',*,*,#217,.T.);
#111=ORIENTED_EDGE('',*,*,#218,.T.);
#112=ORIENTED_EDGE('',*,*,#219,.T.);
#113=ORIENTED_EDGE('',*,*,#220,.T.);
#114=ORIENTED_EDGE('',*,*,#221,.T.);
#115=ORIENTED_EDGE('',*,*,#222,.T.);
#116=ORIENTED_EDGE('',*,*,#223,.T.);
#117=ORIENTED_EDGE('',*,*,#224,.T.);
#118=ORIENTED_EDGE('',*,*,#225,.T.);
#119=ORIENTED_EDGE('',*,*,#226,.T.);
#120=ORIENTED_EDGE('',*,*,#227,.T.);
#121=ORIENTED_EDGE('',*,*,#228,.T.);
#122=ORIENTED_EDGE('',*,*,#229,.T.);
#123=ORIENTED_EDGE('',*,*,#230,.T.);
#124=ORIENTED_EDGE('',*,*,#231,.T.);
#125=ORIENTED_EDGE('',*,*,#232,.T.);
#126=ORIENTED_EDGE('',*,*,#233,.T.);
#127=ORIENTED_EDGE('',*,*,#234,.T.);
#128=ORIENTED_EDGE('',*,*,#235,.T.);
#129=ORIENTED_EDGE('',*,*,#236,.T.);
#130=ORIENTED_EDGE('',*,*,#237,.T.);
#131=ORIENTED_EDGE('',*,*,#238,.T.);
#132=ORIENTED_EDGE('',*,*,#239,.T.);
#133=ORIENTED_EDGE('',*,*,#240,.T.);
#134=ORIENTED_EDGE('',*,*,#241,.T.);
#135=ORIENTED_EDGE('',*,*,#242,.T.);
#136=ORIENTED_EDGE('',*,*,#243,.T.);
#137=ORIENTED_EDGE('',*,*,#244,.T.);
#138=ORIENTED_EDGE('',*,*,#245,.T.);
#139=ORIENTED_EDGE('',*,*,#246,.T.);
#140=ORIENTED_EDGE('',*,*,#247,.T.);
#141=ORIENTED_EDGE('',*,*,#248,.T.);
#142=ORIENTED_EDGE('',*,*,#249,.T.);
#143=ORIENTED_EDGE('',*,*,#250,.T.);
#144=ORIENTED_EDGE('',*,*,#251,.T.);
#145=ORIENTED_EDGE('',*,*,#252,.T.);
#146=ORIENTED_EDGE('',*,*,#253,.T.);
#147=ORIENTED_EDGE('',*,*,#254,.T.);
#148=ORIENTED_EDGE('',*,*,#255,.T.);
#149=ORIENTED_EDGE('',*,*,#256,.T.);
#150=ORIENTED_EDGE('',*,*,#257,.T.);
#151=ORIENTED_EDGE('',*,*,#258,.T.);
#152=ORIENTED_EDGE('',*,*,#259,.T.);
#153=ORIENTED_EDGE('',*,*,#260,.T.);
#154=ORIENTED_EDGE('',*,*,#261,.T.);
#155=ORIENTED_EDGE('',*,*,#262,.T.);
#156=ORIENTED_EDGE('',*,*,#263,.T.);
#157=ORIENTED_EDGE('',*,*,#264,.T.);
#158=ORIENTED_EDGE('',*,*,#265,.T.);
#159=ORIENTED_EDGE('',*,*,#266,.T.);
#160=ORIENTED_EDGE('',*,*,#267,.T.);
#161=ORIENTED_EDGE('',*,*,#268,.T.);
#162=ORIENTED_EDGE('',*,*,#269,.T.);
#163=ORIENTED_EDGE('',*,*,#270,.T.);
#164=ORIENTED_EDGE('',*,*,#271,.T.);
#165=ORIENTED_EDGE('',*,*,#272,.T.);
#166=ORIENTED_EDGE('',*,*,#273,.T.);
#167=ORIENTED_EDGE('',*,*,#274,.T.);
#168=ORIENTED_EDGE('',*,*,#275,.T.);
#169=ORIENTED_EDGE('',*,*,#276,.T.);
#170=ORIENTED_EDGE('',*,*,#277,.T.);
#171=ORIENTED_EDGE('',*,*,#278,.T.);
#172=ORIENTED_EDGE('',*,*,#279,.T.);
#173=ORIENTED_EDGE('',*,*,#280,.T.);
#174=ORIENTED_EDGE('',*,*,#281,.T.);
#175=ORIENTED_EDGE('',*,*,#282,.T.);
#176=ORIENTED_EDGE('',*,*,#283,.T.);
#177=ORIENTED_EDGE('',*,*,#284,.T.);
#178=ORIENTED_EDGE('',*,*,#285,.T.);
#179=ORIENTED_EDGE('',*,*,#286,.T.);
#180=ORIENTED_EDGE('',*,*,#287,.T.);
#181=ORIENTED_EDGE('',*,*,#288,.T.);
#182=ORIENTED_EDGE('',*,*,#289,.T.);
#183=ORIENTED_EDGE('',*,*,#290,.T.);
#184=ORIENTED_EDGE('',*,*,#291,.T.);
#185=ORIENTED_EDGE('',*,*,#292,.T.);
#186=ORIENTED_EDGE('',*,*,#293,.T.);
#187=ORIENTED_EDGE('',*,*,#294,.T.);
#188=ORIENTED_EDGE('',*,*,#295,.T.);
#189=PLANE('',#479);
#190=PLANE('',#480);
#191=PLANE('',#481);
#192=PLANE('',#482);
#193=PLANE('',#483);
#194=PLANE('',#484);
#195=PLANE('',#485);
#196=PLANE('',#486);
#197=PLANE('',#487);
#198=PLANE('',#488);
#199=PLANE('',#489);
#200=PLANE('',#490);
#201=PLANE('',#491);
#202=PLANE('',#492);
#203=PLANE('',#493);
#204=PLANE('',#494);
#205=PLANE('',#495);
#206=EDGE_CURVE('',#389,#386,#296,.T.);
#207=EDGE_CURVE('',#386,#387,#297,.T.);
#208=EDGE_CURVE('',#387,#388,#298,.T.);
#209=EDGE_CURVE('',#388,#389,#299,.T.);
#210=EDGE_CURVE('',#393,#390,#300,.T.);
#211=EDGE_CURVE('',#390,#391,#301,.T.);
#212=EDGE_CURVE('',#391,#392,#302,.T.);
#213=EDGE_CURVE('',#392,#393,#303,.T.);
#214=EDGE_CURVE('',#397,#394,#304,.T.);
#215=EDGE_CURVE('',#394,#395,#305,.T.);
#216=EDGE_CURVE('',#395,#396,#306,.T.);
#217=EDGE_CURVE('',#396,#397,#307,.T.);
#218=EDGE_CURVE('',#401,#398,#308,.T.);
#219=EDGE_CURVE('',#398,#399,#309,.T.);
#220=EDGE_CURVE('',#399,#400,#310,.T.);
#221=EDGE_CURVE('',#400,#401,#311,.T.);
#222=EDGE_CURVE('',#405,#402,#312,.T.);
#223=EDGE_CURVE('',#402,#403,#313,.T.);
#224=EDGE_CURVE('',#403,#404,#314,.T.);
#225=EDGE_CURVE('',#404,#405,#315,.T.);
#226=EDGE_CURVE('',#409,#406,#316,.T.);
#227=EDGE_CURVE('',#406,#407,#317,.T.);
#228=EDGE_CURVE('',#407,#408,#318,.T.);
#229=EDGE_CURVE('',#408,#409,#319,.T.);
#230=EDGE_CURVE('',#413,#410,#320,.T.);
#231=EDGE_CURVE('',#410,#411,#321,.T.);
#232=EDGE_CURVE('',#411,#412,#322,.T.);
#233=EDGE_CURVE('',#412,#413,#323,.T.);
#234=EDGE_CURVE('',#417,#414,#324,.T.);
#235=EDGE_CURVE('',#414,#415,#325,.T.);
#236=EDGE_CURVE('',#415,#416,#326,.T.);
#237=EDGE_CURVE('',#416,#417,#327,.T.);
#238=EDGE_CURVE('',#421,#418,#328,.T.);
#239=EDGE_CURVE('',#418,#419,#329,.T.);
#240=EDGE_CURVE('',#419,#420,#330,.T.);
#241=EDGE_CURVE('',#420,#421,#331,.T.);
#242=EDGE_CURVE('',#425,#422,#332,.T.);
#243=EDGE_CURVE('',#422,#423,#333,.T.);
#244=EDGE_CURVE('',#423,#424,#334,.T.);
#245=EDGE_CURVE('',#424,#425,#335,.T.);
#246=EDGE_CURVE('',#429,#426,#336,.T.);
#247=EDGE_CURVE('',#426,#427,#337,.T.);
#248=EDGE_CURVE('',#427,#428,#338,.T.);
#249=EDGE_CURVE('',#428,#429,#339,.T.);
#250=EDGE_CURVE('',#433,#430,#340,.T.);
#251=EDGE_CURVE('',#430,#431,#341,.T.);
#252=EDGE_CURVE('',#431,#432,#342,.T.);
#253=EDGE_CURVE('',#432,#433,#343,.T.);
#254=EDGE_CURVE('',#437,#434,#344,.T.);
#255=EDGE_CURVE('',#434,#435,#345,.T.);
#256=EDGE_CURVE('',#435,#436,#346,.T.);
#257=EDGE_CURVE('',#436,#437,#347,.T.);
#258=EDGE_CURVE('',#441,#438,#348,.T.);
#259=EDGE_CURVE('',#438,#439,#349,.T.);
#260=EDGE_CURVE('',#439,#440,#350,.T.);
#261=EDGE_CURVE('',#440,#441,#351,.T.);
#262=EDGE_CURVE('',#445,#442,#352,.T.);
#263=EDGE_CURVE('',#442,#443,#353,.T.);
#264=EDGE_CURVE('',#443,#444,#354,.T.);
#265=EDGE_CURVE('',#444,#445,#355,.T.);
#266=EDGE_CURVE('',#460,#446,#356,.T.);
#267=EDGE_CURVE('',#446,#447,#357,.T.);
#268=EDGE_CURVE('',#447,#448,#358,.T.);
#269=EDGE_CURVE('',#448,#449,#359,.T.);
#270=EDGE_CURVE('',#449,#450,#360,.T.);
#271=EDGE_CURVE('',#450,#451,#361,.T.);
#272=EDGE_CURVE('',#451,#452,#362,.T.);
#273=EDGE_CURVE('',#452,#453,#363,.T.);
#274=EDGE_CURVE('',#453,#454,#364,.T.);
#275=EDGE_CURVE('',#454,#455,#365,.T.);
#276=EDGE_CURVE('',#455,#456,#366,.T.);
#277=EDGE_CURVE('',#456,#457,#367,.T.);
#278=EDGE_CURVE('',#457,#458,#368,.T.);
#279=EDGE_CURVE('',#458,#459,#369,.T.);
#280=EDGE_CURVE('',#459,#460,#370,.T.);
#281=EDGE_CURVE('',#475,#461,#371,.T.);
#282=EDGE_CURVE('',#461,#462,#372,.T.);
#283=EDGE_CURVE('',#462,#463,#373,.T.);
#284=EDGE_CURVE('',#463,#464,#374,.T.);
#285=EDGE_CURVE('',#464,#465,#375,.T.);
#286=EDGE_CURVE('',#465,#466,#376,.T.);
#287=EDGE_CURVE('',#466,#467,#377,.T.);
#288=EDGE_CURVE('',#467,#468,#378,.T.);
#289=EDGE_CURVE('',#468,#469,#379,.T.);
#290=EDGE_CURVE('',#469,#470,#380,.T.);
#291=EDGE_CURVE('',#470,#471,#381,.T.);
#292=EDGE_CURVE('',#471,#472,#382,.T.);
#293=EDGE_CURVE('',#472,#473,#383,.T.);
#294=EDGE_CURVE('',#473,#474,#384,.T.);
#295=EDGE_CURVE('',#474,#475,#385,.T.);
#296=B_SPLINE_CURVE_WITH_KNOTS('',1,(#623,#624),.UNSPECIFIED.,.F.,.F.,(2,2),(
0.,1.),.UNSPECIFIED.);
#297=B_SPLINE_CURVE_WITH_KNOTS('',1,(#625,#626),.UNSPECIFIED.,.F.,.F.,(2,2),(
0.,1.),.UNSPECIFIED.);
#298=B_SPLINE_CURVE_WITH_KNOTS('',1,(#627,#628),.UNSPECIFIED.,.F.,.F.,(2,2),(
0.,1.),.UNSPECIFIED.);
#299=B_SPLINE_CURVE_WITH_KNOTS('',1,(#629,#630),.UNSPECIFIED.,.F.,.F.,(2,2),(
0.,1.),.UNSPECIFIED.);
#300=B_SPLINE_CURVE_WITH_KNOTS('',1,(#631,#632),.UNSPECIFIED.,.F.,.F.,(2,2),(
0.,1.),.UNSPECIFIED.);
#301=B_SPLINE_CURVE_WITH_KNOTS('',1,(#633,#634),.UNSPECIFIED.,.F.,.F.,(2,2),(
0.,1.),.UNSPECIFIED.);
#302=B_SPLINE_CURVE_WITH_KNOTS('',1,(#635,#636),.UNSPECIFIED.,.F.,.F.,(2,2),(
0.,1.),.UNSPECIFIED.);
#303=B_SPLINE_CURVE_WITH_KNOTS('',1,(#637,#638),.UNSPECIFIED.,.F.,.F.,(2,2),(
0.,1.),.UNSPECIFIED.);
#304=B_SPLINE_CURVE_WITH_KNOTS('',1,(#639,#640),.UNSPECIFIED.,.F.,.F.,(2,2),(
0.,1.),.UNSPECIFIED.);
#305=B_SPLINE_CURVE_WITH_KNOTS('',1,(#641,#642),.UNSPECIFIED.,.F.,.F.,(2,2),(
0.,1.),.UNSPECIFIED.);
#306=B_SPLINE_CURVE_WITH_KNOTS('',1,(#643,#644),.UNSPECIFIED.,.F.,.F.,(2,2),(
0.,1.),.UNSPECIFIED.);
#307=B_SPLINE_CURVE_WITH_KNOTS('',1,(#645,#646),.UNSPECIFIED.,.F.,.F.,(2,2),(
0.,1.),.UNSPECIFIED.);
#308=B_SPLINE_CURVE_WITH_KNOTS('',1,(#647,#648),.UNSPECIFIED.,.F.,.F.,(2,2),(
0.,1.),.UNSPECIFIED.);
#309=B_SPLINE_CURVE_WITH_KNOTS('',1,(#649,#650),.UNSPECIFIED.,.F.,.F.,(2,2),(
0.,1.),.UNSPECIFIED.);
#310=B_SPLINE_CURVE_WITH_KNOTS('',1,(#651,#652),.UNSPECIFIED.,.F.,.F.,(2,2),(
0.,1.),.UNSPECIFIED.);
#311=B_SPLINE_CURVE_WITH_KNOTS('',1,(#653,#654),.UNSPECIFIED.,.F.,.F.,(2,2),(
0.,1.),.UNSPECIFIED.);
#312=B_SPLINE_CURVE_WITH_KNOTS('',1,(#655,#656),.UNSPECIFIED.,.F.,.F.,(2,2),(
0.,1.),.UNSPECIFIED.);
#313=B_SPLINE_CURVE_WITH_KNOTS('',1,(#657,#658),.UNSPECIFIED.,.F.,.F.,(2,2),(
0.,1.),.UNSPECIFIED.);
#314=B_SPLINE_CURVE_WITH_KNOTS('',1,(#659,#660),.UNSPECIFIED.,.F.,.F.,(2,2),(
0.,1.),.UNSPECIFIED.);
#315=B_SPLINE_CURVE_WITH_KNOTS('',1,(#661,#662),.UNSPECIFIED.,.F.,.F.,(2,2),(
0.,1.),.UNSPECIFIED.);
#316=B_SPLINE_CURVE_WITH_KNOTS('',1,(#663,#664),.UNSPECIFIED.,.F.,.F.,(2,2),(
0.,1.),.UNSPECIFIED.);
#317=B_SPLINE_CURVE_WITH_KNOTS('',1,(#665,#666),.UNSPECIFIED.,.F.,.F.,(2,2),(
0.,1.),.UNSPECIFIED.);
#318=B_SPLINE_CURVE_WITH_KNOTS('',1,(#667,#668),.UNSPECIFIED.,.F.,.F.,(2,2),(
0.,1.),.UNSPECIFIED.);
#319=B_SPLINE_CURVE_WITH_KNOTS('',1,(#669,#670),.UNSPECIFIED.,.F.,.F.,(2,2),(
0.,1.),.UNSPECIFIED.);
#320=B_SPLINE_CURVE_WITH_KNOTS('',1,(#671,#672),.UNSPECIFIED.,.F.,.F.,(2,2),(
0.,1.),.UNSPECIFIED.);
#321=B_SPLINE_CURVE_WITH_KNOTS('',1,(#673,#674),.UNSPECIFIED.,.F.,.F.,(2,2),(
0.,1.),.UNSPECIFIED.);
#322=B_SPLINE_CURVE_WITH_KNOTS('',1,(#675,#676),.UNSPECIFIED.,.F.,.F.,(2,2),(
0.,1.),.UNSPECIFIED.);
#323=B_SPLINE_CURVE_WITH_KNOTS('',1,(#677,#678),.UNSPECIFIED.,.F.,.F.,(2,2),(
0.,1.),.UNSPECIFIED.);
#324=B_SPLINE_CURVE_WITH_KNOTS('',1,(#679,#680),.UNSPECIFIED.,.F.,.F.,(2,2),(
0.,1.),.UNSPECIFIED.);
#325=B_SPLINE_CURVE_WITH_KNOTS('',1,(#681,#682),.UNSPECIFIED.,.F.,.F.,(2,2),(
0.,1.),.UNSPECIFIED.);
#326=B_SPLINE_CURVE_WITH_KNOTS('',1,(#683,#684),.UNSPECIFIED.,.F.,.F.,(2,2),(
0.,1.),.UNSPECIFIED.);
#327=B_SPLINE_CURVE_WITH_KNOTS('',1,(#685,#686),.UNSPECIFIED.,.F.,.F.,(2,2),(
0.,1.),.UNSPECIFIED.);
#328=B_SPLINE_CURVE_WITH_KNOTS('',1,(#687,#688),.UNSPECIFIED.,.F.,.F.,(2,2),(
0.,1.),.UNSPECIFIED.);
#329=B_SPLINE_CURVE_WITH_KNOTS('',1,(#689,#690),.UNSPECIFIED.,.F.,.F.,(2,2),(
0.,1.),.UNSPECIFIED.);
#330=B_SPLINE_CURVE_WITH_KNOTS('',1,(#691,#692),.UNSPECIFIED.,.F.,.F.,(2,2),(
0.,1.),.UNSPECIFIED.);
#331=B_SPLINE_CURVE_WITH_KNOTS('',1,(#693,#694),.UNSPECIFIED.,.F.,.F.,(2,2),(
0.,1.),.UNSPECIFIED.);
#332=B_SPLINE_CURVE_WITH_KNOTS('',1,(#695,#696),.UNSPECIFIED.,.F.,.F.,(2,2),(
0.,1.),.UNSPECIFIED.);
#333=B_SPLINE_CURVE_WITH_KNOTS('',1,(#697,#698),.UNSPECIFIED.,.F.,.F.,(2,2),(
0.,1.),.UNSPECIFIED.);
#334=B_SPLINE_CURVE_WITH_KNOTS('',1,(#699,#700),.UNSPECIFIED.,.F.,.F.,(2,2),(
0.,1.),.UNSPECIFIED.);
#335=B_SPLINE_CURVE_WITH_KNOTS('',1,(#701,#702),.UNSPECIFIED.,.F.,.F.,(2,2),(
0.,1.),.UNSPECIFIED.);
#336=B_SPLINE_CURVE_WITH_KNOTS('',1,(#703,#704),.UNSPECIFIED.,.F.,.F.,(2,2),(
0.,1.),.UNSPECIFIED.);
#337=B_SPLINE_CURVE_WITH_KNOTS('',1,(#705,#706),.UNSPECIFIED.,.F.,.F.,(2,2),(
0.,1.),.UNSPECIFIED.);
#338=B_SPLINE_CURVE_WITH_KNOTS('',1,(#707,#708),.UNSPECIFIED.,.F.,.F.,(2,2),(
0.,1.),.UNSPECIFIED.);
#339=B_SPLINE_CURVE_WITH_KNOTS('',1,(#709,#710),.UNSPECIFIED.,.F.,.F.,(2,2),(
0.,1.),.UNSPECIFIED.);
#340=B_SPLINE_CURVE_WITH_KNOTS('',1,(#711,#712),.UNSPECIFIED.,.F.,.F.,(2,2),(
0.,1.),.UNSPECIFIED.);
#341=B_SPLINE_CURVE_WITH_KNOTS('',1,(#713,#714),.UNSPECIFIED.,.F.,.F.,(2,2),(
0.,1.),.UNSPECIFIED.);
#342=B_SPLINE_CURVE_WITH_KNOTS('',1,(#715,#716),.UNSPECIFIED.,.F.,.F.,(2,2),(
0.,1.),.UNSPECIFIED.);
#343=B_SPLINE_CURVE_WITH_KNOTS('',1,(#717,#718),.UNSPECIFIED.,.F.,.F.,(2,2),(
0.,1.),.UNSPECIFIED.);
#344=B_SPLINE_CURVE_WITH_KNOTS('',1,(#719,#720),.UNSPECIFIED.,.F.,.F.,(2,2),(
0.,1.),.UNSPECIFIED.);
#345=B_SPLINE_CURVE_WITH_KNOTS('',1,(#721,#722),.UNSPECIFIED.,.F.,.F.,(2,2),(
0.,1.),.UNSPECIFIED.);
#346=B_SPLINE_CURVE_WITH_KNOTS('',1,(#723,#724),.UNSPECIFIED.,.F.,.F.,(2,2),(
0.,1.),.UNSPECIFIED.);
#347=B_SPLINE_CURVE_WITH_KNOTS('',1,(#725,#726),.UNSPECIFIED.,.F.,.F.,(2,2),(
0.,1.),.UNSPECIFIED.);
#348=B_SPLINE_CURVE_WITH_KNOTS('',1,(#727,#728),.UNSPECIFIED.,.F.,.F.,(2,2),(
0.,1.),.UNSPECIFIED.);
#349=B_SPLINE_CURVE_WITH_KNOTS('',1,(#729,#730),.UNSPECIFIED.,.F.,.F.,(2,2),(
0.,1.),.UNSPECIFIED.);
#350=B_SPLINE_CURVE_WITH_KNOTS('',1,(#731,#732),.UNSPECIFIED.,.F.,.F.,(2,2),(
0.,1.),.UNSPECIFIED.);
#351=B_SPLINE_CURVE_WITH_KNOTS('',1,(#733,#734),.UNSPECIFIED.,.F.,.F.,(2,2),(
0.,1.),.UNSPECIFIED.);
#352=B_SPLINE_CURVE_WITH_KNOTS('',1,(#735,#736),.UNSPECIFIED.,.F.,.F.,(2,2),(
0.,1.),.UNSPECIFIED.);
#353=B_SPLINE_CURVE_WITH_KNOTS('',1,(#737,#738),.UNSPECIFIED.,.F.,.F.,(2,2),(
0.,1.),.UNSPECIFIED.);
#354=B_SPLINE_CURVE_WITH_KNOTS('',1,(#739,#740),.UNSPECIFIED.,.F.,.F.,(2,2),(
0.,1.),.UNSPECIFIED.);
#355=B_SPLINE_CURVE_WITH_KNOTS('',1,(#741,#742),.UNSPECIFIED.,.F.,.F.,(2,2),(
0.,1.),.UNSPECIFIED.);
#356=B_SPLINE_CURVE_WITH_KNOTS('',1,(#743,#744),.UNSPECIFIED.,.F.,.F.,(2,2),(
0.,1.),.UNSPECIFIED.);
#357=B_SPLINE_CURVE_WITH_KNOTS('',1,(#745,#746),.UNSPECIFIED.,.F.,.F.,(2,2),(
0.,1.),.UNSPECIFIED.);
#358=B_SPLINE_CURVE_WITH_KNOTS('',1,(#747,#748),.UNSPECIFIED.,.F.,.F.,(2,2),(
0.,1.),.UNSPECIFIED.);
#359=B_SPLINE_CURVE_WITH_KNOTS('',1,(#749,#750),.UNSPECIFIED.,.F.,.F.,(2,2),(
0.,1.),.UNSPECIFIED.);
#360=B_SPLINE_CURVE_WITH_KNOTS('',1,(#751,#752),.UNSPECIFIED.,.F.,.F.,(2,2),(
0.,1.),.UNSPECIFIED.);
#361=B_SPLINE_CURVE_WITH_KNOTS('',1,(#753,#754),.UNSPECIFIED.,.F.,.F.,(2,2),(
0.,1.),.UNSPECIFIED.);
#362=B_SPLINE_CURVE_WITH_KNOTS('',1,(#755,#756),.UNSPECIFIED.,.F.,.F.,(2,2),(
0.,1.),.UNSPECIFIED.);
#363=B_SPLINE_CURVE_WITH_KNOTS('',1,(#757,#758),.UNSPECIFIED.,.F.,.F.,(2,2),(
0.,1.),.UNSPECIFIED.);
#364=B_SPLINE_CURVE_WITH_KNOTS('',1,(#759,#760),.UNSPECIFIED.,.F.,.F.,(2,2),(
0.,1.),.UNSPECIFIED.);
#365=B_SPLINE_CURVE_WITH_KNOTS('',1,(#761,#762),.UNSPECIFIED.,.F.,.F.,(2,2),(
0.,1.),.UNSPECIFIED.);
#366=B_SPLINE_CURVE_WITH_KNOTS('',1,(#763,#764),.UNSPECIFIED.,.F.,.F.,(2,2),(
0.,1.),.UNSPECIFIED.);
#367=B_SPLINE_CURVE_WITH_KNOTS('',1,(#765,#766),.UNSPECIFIED.,.F.,.F.,(2,2),(
0.,1.),.UNSPECIFIED.);
#368=B_SPLINE_CURVE_WITH_KNOTS('',1,(#767,#768),.UNSPECIFIED.,.F.,.F.,(2,2),(
0.,1.),.UNSPECIFIED.);
#369=B_SPLINE_CURVE_WITH_KNOTS('',1,(#769,#770),.UNSPECIFIED.,.F.,.F.,(2,2),(
0.,1.),.UNSPECIFIED.);
#370=B_SPLINE_CURVE_WITH_KNOTS('',1,(#771,#772),.UNSPECIFIED.,.F.,.F.,(2,2),(
0.,1.),.UNSPECIFIED.);
#371=B_SPLINE_CURVE_WITH_KNOTS('',1,(#773,#774),.UNSPECIFIED.,.F.,.F.,(2,2),(
0.,1.),.UNSPECIFIED.);
#372=B_SPLINE_CURVE_WITH_KNOTS('',1,(#775,#776),.UNSPECIFIED.,.F.,.F.,(2,2),(
0.,1.),.UNSPECIFIED.);
#373=B_SPLINE_CURVE_WITH_KNOTS('',1,(#777,#778),.UNSPECIFIED.,.F.,.F.,(2,2),(
0.,1.),.UNSPECIFIED.);
#374=B_SPLINE_CURVE_WITH_KNOTS('',1,(#779,#780),.UNSPECIFIED.,.F.,.F.,(2,2),(
0.,1.),.UNSPECIFIED.);
#375=B_SPLINE_CURVE_WITH_KNOTS('',1,(#781,#782),.UNSPECIFIED.,.F.,.F.,(2,2),(
0.,1.),.UNSPECIFIED.);
#376=B_SPLINE_CURVE_WITH_KNOTS('',1,(#783,#784),.UNSPECIFIED.,.F.,.F.,(2,2),(
0.,1.),.UNSPECIFIED.);
#377=B_SPLINE_CURVE_WITH_KNOTS('',1,(#785,#786),.UNSPECIFIED.,.F.,.F.,(2,2),(
0.,1.),.UNSPECIFIED.);
#378=B_SPLINE_CURVE_WITH_KNOTS('',1,(#787,#788),.UNSPECIFIED.,.F.,.F.,(2,2),(
0.,1.),.UNSPECIFIED.);
#379=B_SPLINE_CURVE_WITH_KNOTS('',1,(#789,#790),.UNSPECIFIED.,.F.,.F.,(2,2),(
0.,1.),.UNSPECIFIED.);
#380=B_SPLINE_CURVE_WITH_KNOTS('',1,(#791,#792),.UNSPECIFIED.,.F.,.F.,(2,2),(
0.,1.),.UNSPECIFIED.);
#381=B_SPLINE_CURVE_WITH_KNOTS('',1,(#793,#794),.UNSPECIFIED.,.F.,.F.,(2,2),(
0.,1.),.UNSPECIFIED.);
#382=B_SPLINE_CURVE_WITH_KNOTS('',1,(#795,#796),.UNSPECIFIED.,.F.,.F.,(2,2),(
0.,1.),.UNSPECIFIED.);
#383=B_SPLINE_CURVE_WITH_KNOTS('',1,(#797,#798),.UNSPECIFIED.,.F.,.F.,(2,2),(
0.,1.),.UNSPECIFIED.);
#384=B_SPLINE_CURVE_WITH_KNOTS('',1,(#799,#800),.UNSPECIFIED.,.F.,.F.,(2,2),(
0.,1.),.UNSPECIFIED.);
#385=B_SPLINE_CURVE_WITH_KNOTS('',1,(#801,#802),.UNSPECIFIED.,.F.,.F.,(2,2),(
0.,1.),.UNSPECIFIED.);
#386=VERTEX_POINT('',#533);
#387=VERTEX_POINT('',#534);
#388=VERTEX_POINT('',#535);
#389=VERTEX_POINT('',#536);
#390=VERTEX_POINT('',#537);
#391=VERTEX_POINT('',#538);
#392=VERTEX_POINT('',#539);
#393=VERTEX_POINT('',#540);
#394=VERTEX_POINT('',#541);
#395=VERTEX_POINT('',#542);
#396=VERTEX_POINT('',#543);
#397=VERTEX_POINT('',#544);
#398=VERTEX_POINT('',#545);
#399=VERTEX_POINT('',#546);
#400=VERTEX_POINT('',#547);
#401=VERTEX_POINT('',#548);
#402=VERTEX_POINT('',#549);
#403=VERTEX_POINT('',#550);
#404=VERTEX_POINT('',#551);
#405=VERTEX_POINT('',#552);
#406=VERTEX_POINT('',#553);
#407=VERTEX_POINT('',#554);
#408=VERTEX_POINT('',#555);
#409=VERTEX_POINT('',#556);
#410=VERTEX_POINT('',#557);
#411=VERTEX_POINT('',#558);
#412=VERTEX_POINT('',#559);
#413=VERTEX_POINT('',#560);
#414=VERTEX_POINT('',#561);
#415=VERTEX_POINT('',#562);
#416=VERTEX_POINT('',#563);
#417=VERTEX_POINT('',#564);
#418=VERTEX_POINT('',#565);
#419=VERTEX_POINT('',#566);
#420=VERTEX_POINT('',#567);
#421=VERTEX_POINT('',#568);
#422=VERTEX_POINT('',#569);
#423=VERTEX_POINT('',#570);
#424=VERTEX_POINT('',#571);
#425=VERTEX_POINT('',#572);
#426=VERTEX_POINT('',#573);
#427=VERTEX_POINT('',#574);
#428=VERTEX_POINT('',#575);
#429=VERTEX_POINT('',#576);
#430=VERTEX_POINT('',#577);
#431=VERTEX_POINT('',#578);
#432=VERTEX_POINT('',#579);
#433=VERTEX_POINT('',#580);
#434=VERTEX_POINT('',#581);
#435=VERTEX_POINT('',#582);
#436=VERTEX_POINT('',#583);
#437=VERTEX_POINT('',#584);
#438=VERTEX_POINT('',#585);
#439=VERTEX_POINT('',#586);
#440=VERTEX_POINT('',#587);
#441=VERTEX_POINT('',#588);
#442=VERTEX_POINT('',#589);
#443=VERTEX_POINT('',#590);
#444=VERTEX_POINT('',#591);
#445=VERTEX_POINT('',#592);
#446=VERTEX_POINT('',#593);
#447=VERTEX_POINT('',#594);
#448=VERTEX_POINT('',#595);
#449=VERTEX_POINT('',#596);
#450=VERTEX_POINT('',#597);
#451=VERTEX_POINT('',#598);
#452=VERTEX_POINT('',#599);
#453=VERTEX_POINT('',#600);
#454=VERTEX_POINT('',#601);
#455=VERTEX_POINT('',#602);
#456=VERTEX_POINT('',#603);
#457=VERTEX_POINT('',#604);
#458=VERTEX_POINT('',#605);
#459=VERTEX_POINT('',#606);
#460=VERTEX_POINT('',#607);
#461=VERTEX_POINT('',#608);
#462=VERTEX_POINT('',#609);
#463=VERTEX_POINT('',#610);
#464=VERTEX_POINT('',#611);
#465=VERTEX_POINT('',#612);
#466=VERTEX_POINT('',#613);
#467=VERTEX_POINT('',#614);
#468=VERTEX_POINT('',#615);
#469=VERTEX_POINT('',#616);
#470=VERTEX_POINT('',#617);
#471=VERTEX_POINT('',#618);
#472=VERTEX_POINT('',#619);
#473=VERTEX_POINT('',#620);
#474=VERTEX_POINT('',#621);
#475=VERTEX_POINT('',#622);
#476=SHAPE_DEFINITION_REPRESENTATION(#820,#477);
#477=SHAPE_REPRESENTATION('master',(#478),#822);
#478=AXIS2_PLACEMENT_3D('',#532,#497,#496);
#479=AXIS2_PLACEMENT_3D('',#803,#499,#498);
#480=AXIS2_PLACEMENT_3D('',#804,#501,#500);
#481=AXIS2_PLACEMENT_3D('',#805,#503,#502);
#482=AXIS2_PLACEMENT_3D('',#806,#505,#504);
#483=AXIS2_PLACEMENT_3D('',#807,#507,#506);
#484=AXIS2_PLACEMENT_3D('',#808,#509,#508);
#485=AXIS2_PLACEMENT_3D('',#809,#511,#510);
#486=AXIS2_PLACEMENT_3D('',#810,#513,#512);
#487=AXIS2_PLACEMENT_3D('',#811,#515,#514);
#488=AXIS2_PLACEMENT_3D('',#812,#517,#516);
#489=AXIS2_PLACEMENT_3D('',#813,#519,#518);
#490=AXIS2_PLACEMENT_3D('',#814,#521,#520);
#491=AXIS2_PLACEMENT_3D('',#815,#523,#522);
#492=AXIS2_PLACEMENT_3D('',#816,#525,#524);
#493=AXIS2_PLACEMENT_3D('',#817,#527,#526);
#494=AXIS2_PLACEMENT_3D('',#818,#529,#528);
#495=AXIS2_PLACEMENT_3D('',#819,#531,#530);
#496=DIRECTION('',(1.,0.,0.));
#497=DIRECTION('',(0.,0.,1.));
#498=DIRECTION('',(0.,1.,0.));
#499=DIRECTION('',(1.,0.,0.));
#500=DIRECTION('',(0.,-1.,0.));
#501=DIRECTION('',(0.,0.,1.));
#502=DIRECTION('',(-0.676461306363304,-0.,-0.736478174145882));
#503=DIRECTION('',(-0.736478174145882,0.,0.676461306363304));
#504=DIRECTION('',(-0.999806360857383,-0.,-0.0196784346205845));
#505=DIRECTION('',(-0.0196784346205845,0.,0.999806360857383));
#506=DIRECTION('',(-0.828283413127958,-0.,-0.560309367704218));
#507=DIRECTION('',(-0.560309367704218,0.,0.828283413127958));
#508=DIRECTION('',(0.,-1.,0.));
#509=DIRECTION('',(-1.,0.,0.));
#510=DIRECTION('',(-0.,1.,0.));
#511=DIRECTION('',(0.,0.,-1.));
#512=DIRECTION('',(0.,1.,0.));
#513=DIRECTION('',(1.,0.,0.));
#514=DIRECTION('',(-0.,1.,0.));
#515=DIRECTION('',(0.,0.,-1.));
#516=DIRECTION('',(0.,1.,0.));
#517=DIRECTION('',(1.,0.,0.));
#518=DIRECTION('',(-0.,1.,0.));
#519=DIRECTION('',(0.,0.,-1.));
#520=DIRECTION('',(0.,1.,0.));
#521=DIRECTION('',(1.,0.,0.));
#522=DIRECTION('',(-0.,1.,0.));
#523=DIRECTION('',(0.,0.,-1.));
#524=DIRECTION('',(0.,1.,0.));
#525=DIRECTION('',(1.,0.,0.));
#526=DIRECTION('',(-0.,1.,0.));
#527=DIRECTION('',(0.,0.,-1.));
#528=DIRECTION('',(1.,0.,-0.));
#529=DIRECTION('',(0.,-1.,0.));
#530=DIRECTION('',(-1.,0.,0.));
#531=DIRECTION('',(0.,1.,0.));
#532=CARTESIAN_POINT('',(0.,0.,0.));
#533=CARTESIAN_POINT('',(239.000000000002,2000.,227.500000000002));
#534=CARTESIAN_POINT('',(239.000000000002,2000.,249.5));
#535=CARTESIAN_POINT('',(239.000000000002,0.,249.5));
#536=CARTESIAN_POINT('',(239.000000000002,0.,227.500000000002));
#537=CARTESIAN_POINT('',(221.,0.,249.5));
#538=CARTESIAN_POINT('',(239.000000000002,0.,249.5));
#539=CARTESIAN_POINT('',(239.000000000002,2000.,249.5));
#540=CARTESIAN_POINT('',(221.,2000.,249.5));
#541=CARTESIAN_POINT('',(193.88349514563,2000.,219.977669902912));
#542=CARTESIAN_POINT('',(193.88349514563,0.,219.977669902912));
#543=CARTESIAN_POINT('',(221.,0.,249.5));
#544=CARTESIAN_POINT('',(221.,2000.,249.5));
#545=CARTESIAN_POINT('',(68.000000000004,2000.,217.500000000002));
#546=CARTESIAN_POINT('',(68.000000000004,0.,217.500000000002));
#547=CARTESIAN_POINT('',(193.88349514563,0.,219.977669902912));
#548=CARTESIAN_POINT('',(193.88349514563,2000.,219.977669902912));
#549=CARTESIAN_POINT('',(-4.9737991503207E-014,2000.,171.499999999998));
#550=CARTESIAN_POINT('',(-4.9737991503207E-014,0.,171.499999999998));
#551=CARTESIAN_POINT('',(68.000000000004,0.,217.500000000002));
#552=CARTESIAN_POINT('',(68.000000000004,2000.,217.500000000002));
#553=CARTESIAN_POINT('',(-8.5265128291212E-014,0.,147.500000000002));
#554=CARTESIAN_POINT('',(-8.5265128291212E-014,0.,171.499999999998));
#555=CARTESIAN_POINT('',(-8.5265128291212E-014,2000.,171.499999999998));
#556=CARTESIAN_POINT('',(-8.5265128291212E-014,2000.,147.500000000002));
#557=CARTESIAN_POINT('',(-7.105427357601E-014,2000.,147.500000000001));
#558=CARTESIAN_POINT('',(26.5000000000022,2000.,147.500000000001));
#559=CARTESIAN_POINT('',(26.5000000000022,0.,147.500000000001));
#560=CARTESIAN_POINT('',(-7.105427357601E-014,0.,147.500000000001));
#561=CARTESIAN_POINT('',(26.5000000000022,2000.,147.500000000002));
#562=CARTESIAN_POINT('',(26.5000000000022,2000.,167.500000000002));
#563=CARTESIAN_POINT('',(26.5000000000022,0.,167.500000000002));
#564=CARTESIAN_POINT('',(26.5000000000022,0.,147.500000000002));
#565=CARTESIAN_POINT('',(26.5000000000022,2000.,167.500000000001));
#566=CARTESIAN_POINT('',(47.000000000004,2000.,167.500000000001));
#567=CARTESIAN_POINT('',(47.000000000004,0.,167.500000000001));
#568=CARTESIAN_POINT('',(26.5000000000022,0.,167.500000000001));
#569=CARTESIAN_POINT('',(47.000000000004,2000.,167.500000000002));
#570=CARTESIAN_POINT('',(47.000000000004,2000.,187.500000000002));
#571=CARTESIAN_POINT('',(47.000000000004,0.,187.500000000002));
#572=CARTESIAN_POINT('',(47.000000000004,0.,167.500000000002));
#573=CARTESIAN_POINT('',(47.000000000004,2000.,187.500000000001));
#574=CARTESIAN_POINT('',(68.000000000004,2000.,187.500000000001));
#575=CARTESIAN_POINT('',(68.000000000004,0.,187.500000000001));
#576=CARTESIAN_POINT('',(47.000000000004,0.,187.500000000001));
#577=CARTESIAN_POINT('',(68.000000000004,2000.,187.500000000002));
#578=CARTESIAN_POINT('',(68.000000000004,2000.,207.500000000002));
#579=CARTESIAN_POINT('',(68.000000000004,0.,207.500000000002));
#580=CARTESIAN_POINT('',(68.000000000004,0.,187.500000000002));
#581=CARTESIAN_POINT('',(68.000000000004,2000.,207.500000000001));
#582=CARTESIAN_POINT('',(219.000000000002,2000.,207.500000000001));
#583=CARTESIAN_POINT('',(219.000000000002,0.,207.500000000001));
#584=CARTESIAN_POINT('',(68.000000000004,0.,207.500000000001));
#585=CARTESIAN_POINT('',(219.000000000002,2000.,207.500000000002));
#586=CARTESIAN_POINT('',(219.000000000002,2000.,227.500000000002));
#587=CARTESIAN_POINT('',(219.000000000002,0.,227.500000000002));
#588=CARTESIAN_POINT('',(219.000000000002,0.,207.500000000002));
#589=CARTESIAN_POINT('',(219.000000000002,2000.,227.500000000001));
#590=CARTESIAN_POINT('',(239.000000000002,2000.,227.500000000001));
#591=CARTESIAN_POINT('',(239.000000000002,0.,227.500000000001));
#592=CARTESIAN_POINT('',(219.000000000002,0.,227.500000000001));
#593=CARTESIAN_POINT('',(26.5000000000021,0.,147.500000000002));
#594=CARTESIAN_POINT('',(26.5000000000021,0.,167.500000000002));
#595=CARTESIAN_POINT('',(47.0000000000041,0.,167.500000000002));
#596=CARTESIAN_POINT('',(47.0000000000041,0.,187.500000000002));
#597=CARTESIAN_POINT('',(68.0000000000042,0.,187.500000000002));
#598=CARTESIAN_POINT('',(68.0000000000042,0.,207.500000000002));
#599=CARTESIAN_POINT('',(219.000000000003,0.,207.500000000002));
#600=CARTESIAN_POINT('',(219.000000000003,0.,227.500000000002));
#601=CARTESIAN_POINT('',(239.000000000002,0.,227.500000000002));
#602=CARTESIAN_POINT('',(239.000000000002,0.,249.5));
#603=CARTESIAN_POINT('',(221.,0.,249.5));
#604=CARTESIAN_POINT('',(193.88349514563,0.,219.977669902912));
#605=CARTESIAN_POINT('',(68.0000000000042,0.,217.500000000002));
#606=CARTESIAN_POINT('',(-7.105427357601E-014,0.,171.499999999998));
#607=CARTESIAN_POINT('',(-7.105427357601E-014,0.,147.500000000002));
#608=CARTESIAN_POINT('',(239.000000000002,2000.,227.500000000002));
#609=CARTESIAN_POINT('',(219.000000000003,2000.,227.500000000002));
#610=CARTESIAN_POINT('',(219.000000000003,2000.,207.500000000002));
#611=CARTESIAN_POINT('',(68.0000000000042,2000.,207.500000000002));
#612=CARTESIAN_POINT('',(68.0000000000042,2000.,187.500000000002));
#613=CARTESIAN_POINT('',(47.0000000000041,2000.,187.500000000002));
#614=CARTESIAN_POINT('',(47.0000000000041,2000.,167.500000000002));
#615=CARTESIAN_POINT('',(26.5000000000021,2000.,167.500000000002));
#616=CARTESIAN_POINT('',(26.5000000000021,2000.,147.500000000002));
#617=CARTESIAN_POINT('',(-7.105427357601E-014,2000.,147.500000000002));
#618=CARTESIAN_POINT('',(-7.105427357601E-014,2000.,171.499999999998));
#619=CARTESIAN_POINT('',(68.0000000000042,2000.,217.500000000002));
#620=CARTESIAN_POINT('',(193.88349514563,2000.,219.977669902912));
#621=CARTESIAN_POINT('',(221.,2000.,249.5));
#622=CARTESIAN_POINT('',(239.000000000002,2000.,249.5));
#623=CARTESIAN_POINT('',(239.000000000002,0.,227.500000000002));
#624=CARTESIAN_POINT('',(239.000000000002,2000.,227.500000000002));
#625=CARTESIAN_POINT('',(239.000000000002,2000.,227.500000000002));
#626=CARTESIAN_POINT('',(239.000000000002,2000.,249.5));
#627=CARTESIAN_POINT('',(239.000000000002,2000.,249.5));
#628=CARTESIAN_POINT('',(239.000000000002,0.,249.5));
#629=CARTESIAN_POINT('',(239.000000000002,0.,249.5));
#630=CARTESIAN_POINT('',(239.000000000002,0.,227.500000000002));
#631=CARTESIAN_POINT('',(221.,2000.,249.5));
#632=CARTESIAN_POINT('',(221.,0.,249.5));
#633=CARTESIAN_POINT('',(221.,0.,249.5));
#634=CARTESIAN_POINT('',(239.000000000002,0.,249.5));
#635=CARTESIAN_POINT('',(239.000000000002,0.,249.5));
#636=CARTESIAN_POINT('',(239.000000000002,2000.,249.5));
#637=CARTESIAN_POINT('',(239.000000000002,2000.,249.5));
#638=CARTESIAN_POINT('',(221.,2000.,249.5));
#639=CARTESIAN_POINT('',(221.,2000.,249.5));
#640=CARTESIAN_POINT('',(193.88349514563,2000.,219.977669902912));
#641=CARTESIAN_POINT('',(193.88349514563,2000.,219.977669902912));
#642=CARTESIAN_POINT('',(193.88349514563,0.,219.977669902912));
#643=CARTESIAN_POINT('',(193.88349514563,0.,219.977669902912));
#644=CARTESIAN_POINT('',(221.,0.,249.5));
#645=CARTESIAN_POINT('',(221.,0.,249.5));
#646=CARTESIAN_POINT('',(221.,2000.,249.5));
#647=CARTESIAN_POINT('',(193.88349514563,2000.,219.977669902912));
#648=CARTESIAN_POINT('',(68.000000000004,2000.,217.500000000002));
#649=CARTESIAN_POINT('',(68.000000000004,2000.,217.500000000002));
#650=CARTESIAN_POINT('',(68.000000000004,0.,217.500000000002));
#651=CARTESIAN_POINT('',(68.000000000004,0.,217.500000000002));
#652=CARTESIAN_POINT('',(193.88349514563,0.,219.977669902912));
#653=CARTESIAN_POINT('',(193.88349514563,0.,219.977669902912));
#654=CARTESIAN_POINT('',(193.88349514563,2000.,219.977669902912));
#655=CARTESIAN_POINT('',(68.000000000004,2000.,217.500000000002));
#656=CARTESIAN_POINT('',(-4.9737991503207E-014,2000.,171.499999999998));
#657=CARTESIAN_POINT('',(-4.9737991503207E-014,2000.,171.499999999998));
#658=CARTESIAN_POINT('',(-4.9737991503207E-014,0.,171.499999999998));
#659=CARTESIAN_POINT('',(-4.9737991503207E-014,0.,171.499999999998));
#660=CARTESIAN_POINT('',(68.000000000004,0.,217.500000000002));
#661=CARTESIAN_POINT('',(68.000000000004,0.,217.500000000002));
#662=CARTESIAN_POINT('',(68.000000000004,2000.,217.500000000002));
#663=CARTESIAN_POINT('',(-8.5265128291212E-014,2000.,147.500000000002));
#664=CARTESIAN_POINT('',(-8.5265128291212E-014,0.,147.500000000002));
#665=CARTESIAN_POINT('',(-8.5265128291212E-014,0.,147.500000000002));
#666=CARTESIAN_POINT('',(-8.5265128291212E-014,0.,171.499999999998));
#667=CARTESIAN_POINT('',(-8.5265128291212E-014,0.,171.499999999998));
#668=CARTESIAN_POINT('',(-8.5265128291212E-014,2000.,171.499999999998));
#669=CARTESIAN_POINT('',(-8.5265128291212E-014,2000.,171.499999999998));
#670=CARTESIAN_POINT('',(-8.5265128291212E-014,2000.,147.500000000002));
#671=CARTESIAN_POINT('',(-7.105427357601E-014,0.,147.500000000001));
#672=CARTESIAN_POINT('',(-7.105427357601E-014,2000.,147.500000000001));
#673=CARTESIAN_POINT('',(-7.105427357601E-014,2000.,147.500000000001));
#674=CARTESIAN_POINT('',(26.5000000000022,2000.,147.500000000001));
#675=CARTESIAN_POINT('',(26.5000000000022,2000.,147.500000000001));
#676=CARTESIAN_POINT('',(26.5000000000022,0.,147.500000000001));
#677=CARTESIAN_POINT('',(26.5000000000022,0.,147.500000000001));
#678=CARTESIAN_POINT('',(-7.105427357601E-014,0.,147.500000000001));
#679=CARTESIAN_POINT('',(26.5000000000022,0.,147.500000000002));
#680=CARTESIAN_POINT('',(26.5000000000022,2000.,147.500000000002));
#681=CARTESIAN_POINT('',(26.5000000000022,2000.,147.500000000002));
#682=CARTESIAN_POINT('',(26.5000000000022,2000.,167.500000000002));
#683=CARTESIAN_POINT('',(26.5000000000022,2000.,167.500000000002));
#684=CARTESIAN_POINT('',(26.5000000000022,0.,167.500000000002));
#685=CARTESIAN_POINT('',(26.5000000000022,0.,167.500000000002));
#686=CARTESIAN_POINT('',(26.5000000000022,0.,147.500000000002));
#687=CARTESIAN_POINT('',(26.5000000000022,0.,167.500000000001));
#688=CARTESIAN_POINT('',(26.5000000000022,2000.,167.500000000001));
#689=CARTESIAN_POINT('',(26.5000000000022,2000.,167.500000000001));
#690=CARTESIAN_POINT('',(47.000000000004,2000.,167.500000000001));
#691=CARTESIAN_POINT('',(47.000000000004,2000.,167.500000000001));
#692=CARTESIAN_POINT('',(47.000000000004,0.,167.500000000001));
#693=CARTESIAN_POINT('',(47.000000000004,0.,167.500000000001));
#694=CARTESIAN_POINT('',(26.5000000000022,0.,167.500000000001));
#695=CARTESIAN_POINT('',(47.000000000004,0.,167.500000000002));
#696=CARTESIAN_POINT('',(47.000000000004,2000.,167.500000000002));
#697=CARTESIAN_POINT('',(47.000000000004,2000.,167.500000000002));
#698=CARTESIAN_POINT('',(47.000000000004,2000.,187.500000000002));
#699=CARTESIAN_POINT('',(47.000000000004,2000.,187.500000000002));
#700=CARTESIAN_POINT('',(47.000000000004,0.,187.500000000002));
#701=CARTESIAN_POINT('',(47.000000000004,0.,187.500000000002));
#702=CARTESIAN_POINT('',(47.000000000004,0.,167.500000000002));
#703=CARTESIAN_POINT('',(47.000000000004,0.,187.500000000001));
#704=CARTESIAN_POINT('',(47.000000000004,2000.,187.500000000001));
#705=CARTESIAN_POINT('',(47.000000000004,2000.,187.500000000001));
#706=CARTESIAN_POINT('',(68.000000000004,2000.,187.500000000001));
#707=CARTESIAN_POINT('',(68.000000000004,2000.,187.500000000001));
#708=CARTESIAN_POINT('',(68.000000000004,0.,187.500000000001));
#709=CARTESIAN_POINT('',(68.000000000004,0.,187.500000000001));
#710=CARTESIAN_POINT('',(47.000000000004,0.,187.500000000001));
#711=CARTESIAN_POINT('',(68.000000000004,0.,187.500000000002));
#712=CARTESIAN_POINT('',(68.000000000004,2000.,187.500000000002));
#713=CARTESIAN_POINT('',(68.000000000004,2000.,187.500000000002));
#714=CARTESIAN_POINT('',(68.000000000004,2000.,207.500000000002));
#715=CARTESIAN_POINT('',(68.000000000004,2000.,207.500000000002));
#716=CARTESIAN_POINT('',(68.000000000004,0.,207.500000000002));
#717=CARTESIAN_POINT('',(68.000000000004,0.,207.500000000002));
#718=CARTESIAN_POINT('',(68.000000000004,0.,187.500000000002));
#719=CARTESIAN_POINT('',(68.000000000004,0.,207.500000000001));
#720=CARTESIAN_POINT('',(68.000000000004,2000.,207.500000000001));
#721=CARTESIAN_POINT('',(68.000000000004,2000.,207.500000000001));
#722=CARTESIAN_POINT('',(219.000000000002,2000.,207.500000000001));
#723=CARTESIAN_POINT('',(219.000000000002,2000.,207.500000000001));
#724=CARTESIAN_POINT('',(219.000000000002,0.,207.500000000001));
#725=CARTESIAN_POINT('',(219.000000000002,0.,207.500000000001));
#726=CARTESIAN_POINT('',(68.000000000004,0.,207.500000000001));
#727=CARTESIAN_POINT('',(219.000000000002,0.,207.500000000002));
#728=CARTESIAN_POINT('',(219.000000000002,2000.,207.500000000002));
#729=CARTESIAN_POINT('',(219.000000000002,2000.,207.500000000002));
#730=CARTESIAN_POINT('',(219.000000000002,2000.,227.500000000002));
#731=CARTESIAN_POINT('',(219.000000000002,2000.,227.500000000002));
#732=CARTESIAN_POINT('',(219.000000000002,0.,227.500000000002));
#733=CARTESIAN_POINT('',(219.000000000002,0.,227.500000000002));
#734=CARTESIAN_POINT('',(219.000000000002,0.,207.500000000002));
#735=CARTESIAN_POINT('',(219.000000000002,0.,227.500000000001));
#736=CARTESIAN_POINT('',(219.000000000002,2000.,227.500000000001));
#737=CARTESIAN_POINT('',(219.000000000002,2000.,227.500000000001));
#738=CARTESIAN_POINT('',(239.000000000002,2000.,227.500000000001));
#739=CARTESIAN_POINT('',(239.000000000002,2000.,227.500000000001));
#740=CARTESIAN_POINT('',(239.000000000002,0.,227.500000000001));
#741=CARTESIAN_POINT('',(239.000000000002,0.,227.500000000001));
#742=CARTESIAN_POINT('',(219.000000000002,0.,227.500000000001));
#743=CARTESIAN_POINT('',(-7.105427357601E-014,0.,147.500000000002));
#744=CARTESIAN_POINT('',(26.5000000000021,0.,147.500000000002));
#745=CARTESIAN_POINT('',(26.5000000000021,0.,147.500000000002));
#746=CARTESIAN_POINT('',(26.5000000000021,0.,167.500000000002));
#747=CARTESIAN_POINT('',(26.5000000000021,0.,167.500000000002));
#748=CARTESIAN_POINT('',(47.0000000000041,0.,167.500000000002));
#749=CARTESIAN_POINT('',(47.0000000000041,0.,167.500000000002));
#750=CARTESIAN_POINT('',(47.0000000000041,0.,187.500000000002));
#751=CARTESIAN_POINT('',(47.0000000000041,0.,187.500000000002));
#752=CARTESIAN_POINT('',(68.0000000000042,0.,187.500000000002));
#753=CARTESIAN_POINT('',(68.0000000000042,0.,187.500000000002));
#754=CARTESIAN_POINT('',(68.0000000000042,0.,207.500000000002));
#755=CARTESIAN_POINT('',(68.0000000000042,0.,207.500000000002));
#756=CARTESIAN_POINT('',(219.000000000003,0.,207.500000000002));
#757=CARTESIAN_POINT('',(219.000000000003,0.,207.500000000002));
#758=CARTESIAN_POINT('',(219.000000000003,0.,227.500000000002));
#759=CARTESIAN_POINT('',(219.000000000003,0.,227.500000000002));
#760=CARTESIAN_POINT('',(239.000000000002,0.,227.500000000002));
#761=CARTESIAN_POINT('',(239.000000000002,0.,227.500000000002));
#762=CARTESIAN_POINT('',(239.000000000002,0.,249.5));
#763=CARTESIAN_POINT('',(239.000000000002,0.,249.5));
#764=CARTESIAN_POINT('',(221.,0.,249.5));
#765=CARTESIAN_POINT('',(221.,0.,249.5));
#766=CARTESIAN_POINT('',(193.88349514563,0.,219.977669902912));
#767=CARTESIAN_POINT('',(193.88349514563,0.,219.977669902912));
#768=CARTESIAN_POINT('',(68.0000000000042,0.,217.500000000002));
#769=CARTESIAN_POINT('',(68.0000000000042,0.,217.500000000002));
#770=CARTESIAN_POINT('',(-7.105427357601E-014,0.,171.499999999998));
#771=CARTESIAN_POINT('',(-7.105427357601E-014,0.,171.499999999998));
#772=CARTESIAN_POINT('',(-7.105427357601E-014,0.,147.500000000002));
#773=CARTESIAN_POINT('',(239.000000000002,2000.,249.5));
#774=CARTESIAN_POINT('',(239.000000000002,2000.,227.500000000002));
#775=CARTESIAN_POINT('',(239.000000000002,2000.,227.500000000002));
#776=CARTESIAN_POINT('',(219.000000000003,2000.,227.500000000002));
#777=CARTESIAN_POINT('',(219.000000000003,2000.,227.500000000002));
#778=CARTESIAN_POINT('',(219.000000000003,2000.,207.500000000002));
#779=CARTESIAN_POINT('',(219.000000000003,2000.,207.500000000002));
#780=CARTESIAN_POINT('',(68.0000000000042,2000.,207.500000000002));
#781=CARTESIAN_POINT('',(68.0000000000042,2000.,207.500000000002));
#782=CARTESIAN_POINT('',(68.0000000000042,2000.,187.500000000002));
#783=CARTESIAN_POINT('',(68.0000000000042,2000.,187.500000000002));
#784=CARTESIAN_POINT('',(47.0000000000041,2000.,187.500000000002));
#785=CARTESIAN_POINT('',(47.0000000000041,2000.,187.500000000002));
#786=CARTESIAN_POINT('',(47.0000000000041,2000.,167.500000000002));
#787=CARTESIAN_POINT('',(47.0000000000041,2000.,167.500000000002));
#788=CARTESIAN_POINT('',(26.5000000000021,2000.,167.500000000002));
#789=CARTESIAN_POINT('',(26.5000000000021,2000.,167.500000000002));
#790=CARTESIAN_POINT('',(26.5000000000021,2000.,147.500000000002));
#791=CARTESIAN_POINT('',(26.5000000000021,2000.,147.500000000002));
#792=CARTESIAN_POINT('',(-7.105427357601E-014,2000.,147.500000000002));
#793=CARTESIAN_POINT('',(-7.105427357601E-014,2000.,147.500000000002));
#794=CARTESIAN_POINT('',(-7.105427357601E-014,2000.,171.499999999998));
#795=CARTESIAN_POINT('',(-7.105427357601E-014,2000.,171.499999999998));
#796=CARTESIAN_POINT('',(68.0000000000042,2000.,217.500000000002));
#797=CARTESIAN_POINT('',(68.0000000000042,2000.,217.500000000002));
#798=CARTESIAN_POINT('',(193.88349514563,2000.,219.977669902912));
#799=CARTESIAN_POINT('',(193.88349514563,2000.,219.977669902912));
#800=CARTESIAN_POINT('',(221.,2000.,249.5));
#801=CARTESIAN_POINT('',(221.,2000.,249.5));
#802=CARTESIAN_POINT('',(239.000000000002,2000.,249.5));
#803=CARTESIAN_POINT('',(239.000000000002,1000.,238.5));
#804=CARTESIAN_POINT('',(230.000000000001,1000.,249.5));
#805=CARTESIAN_POINT('',(207.441747572815,1000.,234.738834951455));
#806=CARTESIAN_POINT('',(130.941747572817,1000.,218.738834951457));
#807=CARTESIAN_POINT('',(34.000000000002,1000.,194.5));
#808=CARTESIAN_POINT('',(-8.5265128291212E-014,1000.,159.5));
#809=CARTESIAN_POINT('',(13.2500000000011,1000.,147.500000000001));
#810=CARTESIAN_POINT('',(26.5000000000022,1000.,157.500000000001));
#811=CARTESIAN_POINT('',(36.7500000000031,1000.,167.500000000001));
#812=CARTESIAN_POINT('',(47.000000000004,1000.,177.500000000001));
#813=CARTESIAN_POINT('',(57.500000000004,1000.,187.500000000001));
#814=CARTESIAN_POINT('',(68.000000000004,1000.,197.500000000001));
#815=CARTESIAN_POINT('',(143.500000000003,1000.,207.500000000001));
#816=CARTESIAN_POINT('',(219.000000000002,1000.,217.500000000001));
#817=CARTESIAN_POINT('',(229.000000000002,1000.,227.500000000001));
#818=CARTESIAN_POINT('',(119.500000000001,0.,198.5));
#819=CARTESIAN_POINT('',(119.500000000001,2000.,198.5));
#820=PRODUCT_DEFINITION_SHAPE('','',#821);
#821=PRODUCT_DEFINITION('','',#833,#838);
#822=(
GEOMETRIC_REPRESENTATION_CONTEXT(3)
GLOBAL_UNCERTAINTY_ASSIGNED_CONTEXT((#823))
GLOBAL_UNIT_ASSIGNED_CONTEXT((#825,#824,#828))
REPRESENTATION_CONTEXT('','')
);
#823=UNCERTAINTY_MEASURE_WITH_UNIT(LENGTH_MEASURE(0.001),#825,'','tolerance');
#824=(
CONVERSION_BASED_UNIT('',#826)
NAMED_UNIT(#832)
PLANE_ANGLE_UNIT()
);
#825=(
CONVERSION_BASED_UNIT('',#827)
LENGTH_UNIT()
NAMED_UNIT(#831)
);
#826=PLANE_ANGLE_MEASURE_WITH_UNIT(PLANE_ANGLE_MEASURE(0.0174532925199433),
#829);
#827=LENGTH_MEASURE_WITH_UNIT(LENGTH_MEASURE(1.),#830);
#828=(
NAMED_UNIT(*)
SI_UNIT($,.STERADIAN.)
SOLID_ANGLE_UNIT()
);
#829=(
NAMED_UNIT(*)
PLANE_ANGLE_UNIT()
SI_UNIT($,.RADIAN.)
);
#830=(
LENGTH_UNIT()
NAMED_UNIT(*)
SI_UNIT(.MILLI.,.METRE.)
);
#831=DIMENSIONAL_EXPONENTS(1.,0.,0.,0.,0.,0.,0.);
#832=DIMENSIONAL_EXPONENTS(0.,0.,0.,0.,0.,0.,0.);
#833=PRODUCT_DEFINITION_FORMATION_WITH_SPECIFIED_SOURCE('','',#836,.NOT_KNOWN.
);
#834=PRODUCT_CATEGORY_RELATIONSHIP('','',#839,#835);
#835=PRODUCT_RELATED_PRODUCT_CATEGORY('assembly','',(#836));
#836=PRODUCT('','master','',(#837));
#837=PRODUCT_CONTEXT('',#841,'');
#838=PRODUCT_DEFINITION_CONTEXT('',#841,'part_definition');
#839=PRODUCT_CATEGORY('part','');
#840=APPLICATION_PROTOCOL_DEFINITION('international standard',
'automotive_design_cc2',1994,#841);
#841=APPLICATION_CONTEXT(
'configuration controlled 3D designs of mechanical parts and assemblies');
ENDSEC;
END-ISO-10303-21;
46213