ISO-10303-21;
HEADER;
/* Generated by software using Delcam plc STEP library */

FILE_DESCRIPTION(
/* description */ ('AP-214 File'),
/* implementation_level */ '2;1');

FILE_NAME(
/* name */ 'D568',
/* time_stamp */ 'Tue Jul 12 09:16:00 2016',
/* author */ (''),
/* organization */ (''),
/* preprocessor_version */ 'DELCAM STEP V1',
/* originating_system */ 'Exchange7.1.0006',
/* authorisation */ '');

FILE_SCHEMA (('AUTOMOTIVE_DESIGN'));
ENDSEC;
DATA;
#10=PRESENTATION_STYLE_ASSIGNMENT((#20));
#11=PRESENTATION_STYLE_ASSIGNMENT((#21));
#12=SURFACE_SIDE_STYLE('',(#14));
#13=SURFACE_SIDE_STYLE('',(#15));
#14=SURFACE_STYLE_FILL_AREA(#16);
#15=SURFACE_STYLE_FILL_AREA(#17);
#16=FILL_AREA_STYLE('',(#18));
#17=FILL_AREA_STYLE('',(#19));
#18=FILL_AREA_STYLE_COLOUR('',#44);
#19=FILL_AREA_STYLE_COLOUR('',#45);
#20=SURFACE_STYLE_USAGE(.BOTH.,#12);
#21=SURFACE_STYLE_USAGE(.BOTH.,#13);
#22=STYLED_ITEM('',(#10),#52);
#23=STYLED_ITEM('',(#10),#53);
#24=STYLED_ITEM('',(#10),#54);
#25=STYLED_ITEM('',(#10),#55);
#26=STYLED_ITEM('',(#10),#56);
#27=STYLED_ITEM('',(#10),#57);
#28=STYLED_ITEM('',(#10),#58);
#29=STYLED_ITEM('',(#10),#59);
#30=STYLED_ITEM('',(#10),#60);
#31=STYLED_ITEM('',(#10),#61);
#32=STYLED_ITEM('',(#10),#62);
#33=STYLED_ITEM('',(#10),#63);
#34=STYLED_ITEM('',(#10),#64);
#35=STYLED_ITEM('',(#10),#65);
#36=STYLED_ITEM('',(#10),#66);
#37=STYLED_ITEM('',(#10),#67);
#38=STYLED_ITEM('',(#10),#68);
#39=STYLED_ITEM('',(#10),#69);
#40=STYLED_ITEM('',(#10),#70);
#41=STYLED_ITEM('',(#10),#71);
#42=STYLED_ITEM('',(#10),#72);
#43=STYLED_ITEM('',(#11),#51);
#44=COLOUR_RGB('Standard01',0.,0.,0.);
#45=COLOUR_RGB('rgb_colour_1',0.6,0.6,0.6);
#46=MECHANICAL_DESIGN_GEOMETRIC_PRESENTATION_REPRESENTATION('',(#22,#23,#24,
#25,#26,#27,#28,#29,#30,#31,#32,#33,#34,#35,#36,#37,#38,#39,#40,#41,#42,#43),
#1026);
#47=PRESENTATION_LAYER_ASSIGNMENT('15','D568',(#52,#53,#54,#55,#56,#57,#58,#59
,#60,#61,#62,#63,#64,#65,#66,#67,#68,#69,#70,#71,#72,#51));
#48=SHAPE_REPRESENTATION_RELATIONSHIP('','',#593,#49);
#49=MANIFOLD_SURFACE_SHAPE_REPRESENTATION('',(#50),#1026);
#50=SHELL_BASED_SURFACE_MODEL('',(#51));
#51=OPEN_SHELL('2',(#52,#53,#54,#55,#56,#57,#58,#59,#60,#61,#62,#63,#64,#65,
#66,#67,#68,#69,#70,#71,#72));
#52=ADVANCED_FACE('',(#73),#229,.T.);
#53=ADVANCED_FACE('',(#74),#230,.T.);
#54=ADVANCED_FACE('',(#75),#231,.T.);
#55=ADVANCED_FACE('',(#76),#232,.T.);
#56=ADVANCED_FACE('',(#77),#233,.T.);
#57=ADVANCED_FACE('',(#78),#234,.T.);
#58=ADVANCED_FACE('',(#79),#235,.T.);
#59=ADVANCED_FACE('',(#80),#236,.T.);
#60=ADVANCED_FACE('',(#81),#237,.T.);
#61=ADVANCED_FACE('',(#82),#238,.T.);
#62=ADVANCED_FACE('',(#83),#239,.T.);
#63=ADVANCED_FACE('',(#84),#240,.T.);
#64=ADVANCED_FACE('',(#85),#241,.T.);
#65=ADVANCED_FACE('',(#86),#242,.T.);
#66=ADVANCED_FACE('',(#87),#243,.T.);
#67=ADVANCED_FACE('',(#88),#244,.T.);
#68=ADVANCED_FACE('',(#89),#245,.T.);
#69=ADVANCED_FACE('',(#90),#246,.T.);
#70=ADVANCED_FACE('',(#91),#247,.T.);
#71=ADVANCED_FACE('',(#92),#248,.T.);
#72=ADVANCED_FACE('',(#93),#249,.T.);
#73=FACE_OUTER_BOUND('',#94,.T.);
#74=FACE_OUTER_BOUND('',#95,.T.);
#75=FACE_OUTER_BOUND('',#96,.T.);
#76=FACE_OUTER_BOUND('',#97,.T.);
#77=FACE_OUTER_BOUND('',#98,.T.);
#78=FACE_OUTER_BOUND('',#99,.T.);
#79=FACE_OUTER_BOUND('',#100,.T.);
#80=FACE_OUTER_BOUND('',#101,.T.);
#81=FACE_OUTER_BOUND('',#102,.T.);
#82=FACE_OUTER_BOUND('',#103,.T.);
#83=FACE_OUTER_BOUND('',#104,.T.);
#84=FACE_OUTER_BOUND('',#105,.T.);
#85=FACE_OUTER_BOUND('',#106,.T.);
#86=FACE_OUTER_BOUND('',#107,.T.);
#87=FACE_OUTER_BOUND('',#108,.T.);
#88=FACE_OUTER_BOUND('',#109,.T.);
#89=FACE_OUTER_BOUND('',#110,.T.);
#90=FACE_OUTER_BOUND('',#111,.T.);
#91=FACE_OUTER_BOUND('',#112,.T.);
#92=FACE_OUTER_BOUND('',#113,.T.);
#93=FACE_OUTER_BOUND('',#114,.T.);
#94=EDGE_LOOP('',(#115,#116,#117,#118));
#95=EDGE_LOOP('',(#119,#120,#121,#122));
#96=EDGE_LOOP('',(#123,#124,#125,#126));
#97=EDGE_LOOP('',(#127,#128,#129,#130));
#98=EDGE_LOOP('',(#131,#132,#133,#134));
#99=EDGE_LOOP('',(#135,#136,#137,#138));
#100=EDGE_LOOP('',(#139,#140,#141,#142));
#101=EDGE_LOOP('',(#143,#144,#145,#146));
#102=EDGE_LOOP('',(#147,#148,#149,#150));
#103=EDGE_LOOP('',(#151,#152,#153,#154));
#104=EDGE_LOOP('',(#155,#156,#157,#158));
#105=EDGE_LOOP('',(#159,#160,#161,#162));
#106=EDGE_LOOP('',(#163,#164,#165,#166));
#107=EDGE_LOOP('',(#167,#168,#169,#170));
#108=EDGE_LOOP('',(#171,#172,#173,#174));
#109=EDGE_LOOP('',(#175,#176,#177,#178));
#110=EDGE_LOOP('',(#179,#180,#181,#182));
#111=EDGE_LOOP('',(#183,#184,#185,#186));
#112=EDGE_LOOP('',(#187,#188,#189,#190));
#113=EDGE_LOOP('',(#191,#192,#193,#194,#195,#196,#197,#198,#199,#200,#201,#202
,#203,#204,#205,#206,#207,#208,#209));
#114=EDGE_LOOP('',(#210,#211,#212,#213,#214,#215,#216,#217,#218,#219,#220,#221
,#222,#223,#224,#225,#226,#227,#228));
#115=ORIENTED_EDGE('',*,*,#250,.T.);
#116=ORIENTED_EDGE('',*,*,#251,.T.);
#117=ORIENTED_EDGE('',*,*,#252,.T.);
#118=ORIENTED_EDGE('',*,*,#253,.T.);
#119=ORIENTED_EDGE('',*,*,#254,.T.);
#120=ORIENTED_EDGE('',*,*,#255,.T.);
#121=ORIENTED_EDGE('',*,*,#256,.T.);
#122=ORIENTED_EDGE('',*,*,#257,.T.);
#123=ORIENTED_EDGE('',*,*,#258,.T.);
#124=ORIENTED_EDGE('',*,*,#259,.T.);
#125=ORIENTED_EDGE('',*,*,#260,.T.);
#126=ORIENTED_EDGE('',*,*,#261,.T.);
#127=ORIENTED_EDGE('',*,*,#262,.T.);
#128=ORIENTED_EDGE('',*,*,#263,.T.);
#129=ORIENTED_EDGE('',*,*,#264,.T.);
#130=ORIENTED_EDGE('',*,*,#265,.T.);
#131=ORIENTED_EDGE('',*,*,#266,.T.);
#132=ORIENTED_EDGE('',*,*,#267,.T.);
#133=ORIENTED_EDGE('',*,*,#268,.T.);
#134=ORIENTED_EDGE('',*,*,#269,.T.);
#135=ORIENTED_EDGE('',*,*,#270,.T.);
#136=ORIENTED_EDGE('',*,*,#271,.T.);
#137=ORIENTED_EDGE('',*,*,#272,.T.);
#138=ORIENTED_EDGE('',*,*,#273,.T.);
#139=ORIENTED_EDGE('',*,*,#274,.T.);
#140=ORIENTED_EDGE('',*,*,#275,.T.);
#141=ORIENTED_EDGE('',*,*,#276,.T.);
#142=ORIENTED_EDGE('',*,*,#277,.T.);
#143=ORIENTED_EDGE('',*,*,#278,.T.);
#144=ORIENTED_EDGE('',*,*,#279,.T.);
#145=ORIENTED_EDGE('',*,*,#280,.T.);
#146=ORIENTED_EDGE('',*,*,#281,.T.);
#147=ORIENTED_EDGE('',*,*,#282,.T.);
#148=ORIENTED_EDGE('',*,*,#283,.T.);
#149=ORIENTED_EDGE('',*,*,#284,.T.);
#150=ORIENTED_EDGE('',*,*,#285,.T.);
#151=ORIENTED_EDGE('',*,*,#286,.T.);
#152=ORIENTED_EDGE('',*,*,#287,.T.);
#153=ORIENTED_EDGE('',*,*,#288,.T.);
#154=ORIENTED_EDGE('',*,*,#289,.T.);
#155=ORIENTED_EDGE('',*,*,#290,.T.);
#156=ORIENTED_EDGE('',*,*,#291,.T.);
#157=ORIENTED_EDGE('',*,*,#292,.T.);
#158=ORIENTED_EDGE('',*,*,#293,.T.);
#159=ORIENTED_EDGE('',*,*,#294,.T.);
#160=ORIENTED_EDGE('',*,*,#295,.T.);
#161=ORIENTED_EDGE('',*,*,#296,.T.);
#162=ORIENTED_EDGE('',*,*,#297,.T.);
#163=ORIENTED_EDGE('',*,*,#298,.T.);
#164=ORIENTED_EDGE('',*,*,#299,.T.);
#165=ORIENTED_EDGE('',*,*,#300,.T.);
#166=ORIENTED_EDGE('',*,*,#301,.T.);
#167=ORIENTED_EDGE('',*,*,#302,.T.);
#168=ORIENTED_EDGE('',*,*,#303,.T.);
#169=ORIENTED_EDGE('',*,*,#304,.T.);
#170=ORIENTED_EDGE('',*,*,#305,.T.);
#171=ORIENTED_EDGE('',*,*,#306,.T.);
#172=ORIENTED_EDGE('',*,*,#307,.T.);
#173=ORIENTED_EDGE('',*,*,#308,.T.);
#174=ORIENTED_EDGE('',*,*,#309,.T.);
#175=ORIENTED_EDGE('',*,*,#310,.T.);
#176=ORIENTED_EDGE('',*,*,#311,.T.);
#177=ORIENTED_EDGE('',*,*,#312,.T.);
#178=ORIENTED_EDGE('',*,*,#313,.T.);
#179=ORIENTED_EDGE('',*,*,#314,.T.);
#180=ORIENTED_EDGE('',*,*,#315,.T.);
#181=ORIENTED_EDGE('',*,*,#316,.T.);
#182=ORIENTED_EDGE('',*,*,#317,.T.);
#183=ORIENTED_EDGE('',*,*,#318,.T.);
#184=ORIENTED_EDGE('',*,*,#319,.T.);
#185=ORIENTED_EDGE('',*,*,#320,.T.);
#186=ORIENTED_EDGE('',*,*,#321,.T.);
#187=ORIENTED_EDGE('',*,*,#322,.T.);
#188=ORIENTED_EDGE('',*,*,#323,.T.);
#189=ORIENTED_EDGE('',*,*,#324,.T.);
#190=ORIENTED_EDGE('',*,*,#325,.T.);
#191=ORIENTED_EDGE('',*,*,#326,.T.);
#192=ORIENTED_EDGE('',*,*,#327,.T.);
#193=ORIENTED_EDGE('',*,*,#328,.T.);
#194=ORIENTED_EDGE('',*,*,#329,.T.);
#195=ORIENTED_EDGE('',*,*,#330,.T.);
#196=ORIENTED_EDGE('',*,*,#331,.T.);
#197=ORIENTED_EDGE('',*,*,#332,.T.);
#198=ORIENTED_EDGE('',*,*,#333,.T.);
#199=ORIENTED_EDGE('',*,*,#334,.T.);
#200=ORIENTED_EDGE('',*,*,#335,.T.);
#201=ORIENTED_EDGE('',*,*,#336,.T.);
#202=ORIENTED_EDGE('',*,*,#337,.T.);
#203=ORIENTED_EDGE('',*,*,#338,.T.);
#204=ORIENTED_EDGE('',*,*,#339,.T.);
#205=ORIENTED_EDGE('',*,*,#340,.T.);
#206=ORIENTED_EDGE('',*,*,#341,.T.);
#207=ORIENTED_EDGE('',*,*,#342,.T.);
#208=ORIENTED_EDGE('',*,*,#343,.T.);
#209=ORIENTED_EDGE('',*,*,#344,.T.);
#210=ORIENTED_EDGE('',*,*,#345,.T.);
#211=ORIENTED_EDGE('',*,*,#346,.T.);
#212=ORIENTED_EDGE('',*,*,#347,.T.);
#213=ORIENTED_EDGE('',*,*,#348,.T.);
#214=ORIENTED_EDGE('',*,*,#349,.T.);
#215=ORIENTED_EDGE('',*,*,#350,.T.);
#216=ORIENTED_EDGE('',*,*,#351,.T.);
#217=ORIENTED_EDGE('',*,*,#352,.T.);
#218=ORIENTED_EDGE('',*,*,#353,.T.);
#219=ORIENTED_EDGE('',*,*,#354,.T.);
#220=ORIENTED_EDGE('',*,*,#355,.T.);
#221=ORIENTED_EDGE('',*,*,#356,.T.);
#222=ORIENTED_EDGE('',*,*,#357,.T.);
#223=ORIENTED_EDGE('',*,*,#358,.T.);
#224=ORIENTED_EDGE('',*,*,#359,.T.);
#225=ORIENTED_EDGE('',*,*,#360,.T.);
#226=ORIENTED_EDGE('',*,*,#361,.T.);
#227=ORIENTED_EDGE('',*,*,#362,.T.);
#228=ORIENTED_EDGE('',*,*,#363,.T.);
#229=PLANE('',#595);
#230=PLANE('',#596);
#231=PLANE('',#597);
#232=PLANE('',#598);
#233=PLANE('',#599);
#234=PLANE('',#600);
#235=PLANE('',#601);
#236=PLANE('',#602);
#237=PLANE('',#603);
#238=PLANE('',#604);
#239=PLANE('',#605);
#240=PLANE('',#606);
#241=PLANE('',#607);
#242=PLANE('',#608);
#243=PLANE('',#609);
#244=PLANE('',#610);
#245=PLANE('',#611);
#246=PLANE('',#612);
#247=PLANE('',#613);
#248=PLANE('',#614);
#249=PLANE('',#615);
#250=EDGE_CURVE('',#481,#478,#364,.T.);
#251=EDGE_CURVE('',#478,#479,#365,.T.);
#252=EDGE_CURVE('',#479,#480,#366,.T.);
#253=EDGE_CURVE('',#480,#481,#367,.T.);
#254=EDGE_CURVE('',#485,#482,#368,.T.);
#255=EDGE_CURVE('',#482,#483,#369,.T.);
#256=EDGE_CURVE('',#483,#484,#370,.T.);
#257=EDGE_CURVE('',#484,#485,#371,.T.);
#258=EDGE_CURVE('',#489,#486,#372,.T.);
#259=EDGE_CURVE('',#486,#487,#373,.T.);
#260=EDGE_CURVE('',#487,#488,#374,.T.);
#261=EDGE_CURVE('',#488,#489,#375,.T.);
#262=EDGE_CURVE('',#493,#490,#376,.T.);
#263=EDGE_CURVE('',#490,#491,#377,.T.);
#264=EDGE_CURVE('',#491,#492,#378,.T.);
#265=EDGE_CURVE('',#492,#493,#379,.T.);
#266=EDGE_CURVE('',#497,#494,#380,.T.);
#267=EDGE_CURVE('',#494,#495,#381,.T.);
#268=EDGE_CURVE('',#495,#496,#382,.T.);
#269=EDGE_CURVE('',#496,#497,#383,.T.);
#270=EDGE_CURVE('',#501,#498,#384,.T.);
#271=EDGE_CURVE('',#498,#499,#385,.T.);
#272=EDGE_CURVE('',#499,#500,#386,.T.);
#273=EDGE_CURVE('',#500,#501,#387,.T.);
#274=EDGE_CURVE('',#505,#502,#388,.T.);
#275=EDGE_CURVE('',#502,#503,#389,.T.);
#276=EDGE_CURVE('',#503,#504,#390,.T.);
#277=EDGE_CURVE('',#504,#505,#391,.T.);
#278=EDGE_CURVE('',#509,#506,#392,.T.);
#279=EDGE_CURVE('',#506,#507,#393,.T.);
#280=EDGE_CURVE('',#507,#508,#394,.T.);
#281=EDGE_CURVE('',#508,#509,#395,.T.);
#282=EDGE_CURVE('',#513,#510,#396,.T.);
#283=EDGE_CURVE('',#510,#511,#397,.T.);
#284=EDGE_CURVE('',#511,#512,#398,.T.);
#285=EDGE_CURVE('',#512,#513,#399,.T.);
#286=EDGE_CURVE('',#517,#514,#400,.T.);
#287=EDGE_CURVE('',#514,#515,#401,.T.);
#288=EDGE_CURVE('',#515,#516,#402,.T.);
#289=EDGE_CURVE('',#516,#517,#403,.T.);
#290=EDGE_CURVE('',#521,#518,#404,.T.);
#291=EDGE_CURVE('',#518,#519,#405,.T.);
#292=EDGE_CURVE('',#519,#520,#406,.T.);
#293=EDGE_CURVE('',#520,#521,#407,.T.);
#294=EDGE_CURVE('',#525,#522,#408,.T.);
#295=EDGE_CURVE('',#522,#523,#409,.T.);
#296=EDGE_CURVE('',#523,#524,#410,.T.);
#297=EDGE_CURVE('',#524,#525,#411,.T.);
#298=EDGE_CURVE('',#529,#526,#412,.T.);
#299=EDGE_CURVE('',#526,#527,#413,.T.);
#300=EDGE_CURVE('',#527,#528,#414,.T.);
#301=EDGE_CURVE('',#528,#529,#415,.T.);
#302=EDGE_CURVE('',#533,#530,#416,.T.);
#303=EDGE_CURVE('',#530,#531,#417,.T.);
#304=EDGE_CURVE('',#531,#532,#418,.T.);
#305=EDGE_CURVE('',#532,#533,#419,.T.);
#306=EDGE_CURVE('',#537,#534,#420,.T.);
#307=EDGE_CURVE('',#534,#535,#421,.T.);
#308=EDGE_CURVE('',#535,#536,#422,.T.);
#309=EDGE_CURVE('',#536,#537,#423,.T.);
#310=EDGE_CURVE('',#541,#538,#424,.T.);
#311=EDGE_CURVE('',#538,#539,#425,.T.);
#312=EDGE_CURVE('',#539,#540,#426,.T.);
#313=EDGE_CURVE('',#540,#541,#427,.T.);
#314=EDGE_CURVE('',#545,#542,#428,.T.);
#315=EDGE_CURVE('',#542,#543,#429,.T.);
#316=EDGE_CURVE('',#543,#544,#430,.T.);
#317=EDGE_CURVE('',#544,#545,#431,.T.);
#318=EDGE_CURVE('',#549,#546,#432,.T.);
#319=EDGE_CURVE('',#546,#547,#433,.T.);
#320=EDGE_CURVE('',#547,#548,#434,.T.);
#321=EDGE_CURVE('',#548,#549,#435,.T.);
#322=EDGE_CURVE('',#553,#550,#436,.T.);
#323=EDGE_CURVE('',#550,#551,#437,.T.);
#324=EDGE_CURVE('',#551,#552,#438,.T.);
#325=EDGE_CURVE('',#552,#553,#439,.T.);
#326=EDGE_CURVE('',#572,#554,#440,.T.);
#327=EDGE_CURVE('',#554,#555,#441,.T.);
#328=EDGE_CURVE('',#555,#556,#442,.T.);
#329=EDGE_CURVE('',#556,#557,#443,.T.);
#330=EDGE_CURVE('',#557,#558,#444,.T.);
#331=EDGE_CURVE('',#558,#559,#445,.T.);
#332=EDGE_CURVE('',#559,#560,#446,.T.);
#333=EDGE_CURVE('',#560,#561,#447,.T.);
#334=EDGE_CURVE('',#561,#562,#448,.T.);
#335=EDGE_CURVE('',#562,#563,#449,.T.);
#336=EDGE_CURVE('',#563,#564,#450,.T.);
#337=EDGE_CURVE('',#564,#565,#451,.T.);
#338=EDGE_CURVE('',#565,#566,#452,.T.);
#339=EDGE_CURVE('',#566,#567,#453,.T.);
#340=EDGE_CURVE('',#567,#568,#454,.T.);
#341=EDGE_CURVE('',#568,#569,#455,.T.);
#342=EDGE_CURVE('',#569,#570,#456,.T.);
#343=EDGE_CURVE('',#570,#571,#457,.T.);
#344=EDGE_CURVE('',#571,#572,#458,.T.);
#345=EDGE_CURVE('',#591,#573,#459,.T.);
#346=EDGE_CURVE('',#573,#574,#460,.T.);
#347=EDGE_CURVE('',#574,#575,#461,.T.);
#348=EDGE_CURVE('',#575,#576,#462,.T.);
#349=EDGE_CURVE('',#576,#577,#463,.T.);
#350=EDGE_CURVE('',#577,#578,#464,.T.);
#351=EDGE_CURVE('',#578,#579,#465,.T.);
#352=EDGE_CURVE('',#579,#580,#466,.T.);
#353=EDGE_CURVE('',#580,#581,#467,.T.);
#354=EDGE_CURVE('',#581,#582,#468,.T.);
#355=EDGE_CURVE('',#582,#583,#469,.T.);
#356=EDGE_CURVE('',#583,#584,#470,.T.);
#357=EDGE_CURVE('',#584,#585,#471,.T.);
#358=EDGE_CURVE('',#585,#586,#472,.T.);
#359=EDGE_CURVE('',#586,#587,#473,.T.);
#360=EDGE_CURVE('',#587,#588,#474,.T.);
#361=EDGE_CURVE('',#588,#589,#475,.T.);
#362=EDGE_CURVE('',#589,#590,#476,.T.);
#363=EDGE_CURVE('',#590,#591,#477,.T.);
#364=B_SPLINE_CURVE_WITH_KNOTS('',1,(#775,#776),.UNSPECIFIED.,.F.,.F.,(2,2),(
0.,1.),.UNSPECIFIED.);
#365=B_SPLINE_CURVE_WITH_KNOTS('',1,(#777,#778),.UNSPECIFIED.,.F.,.F.,(2,2),(
0.,1.),.UNSPECIFIED.);
#366=B_SPLINE_CURVE_WITH_KNOTS('',1,(#779,#780),.UNSPECIFIED.,.F.,.F.,(2,2),(
0.,1.),.UNSPECIFIED.);
#367=B_SPLINE_CURVE_WITH_KNOTS('',1,(#781,#782),.UNSPECIFIED.,.F.,.F.,(2,2),(
0.,1.),.UNSPECIFIED.);
#368=B_SPLINE_CURVE_WITH_KNOTS('',1,(#783,#784),.UNSPECIFIED.,.F.,.F.,(2,2),(
0.,1.),.UNSPECIFIED.);
#369=B_SPLINE_CURVE_WITH_KNOTS('',1,(#785,#786),.UNSPECIFIED.,.F.,.F.,(2,2),(
0.,1.),.UNSPECIFIED.);
#370=B_SPLINE_CURVE_WITH_KNOTS('',1,(#787,#788),.UNSPECIFIED.,.F.,.F.,(2,2),(
0.,1.),.UNSPECIFIED.);
#371=B_SPLINE_CURVE_WITH_KNOTS('',1,(#789,#790),.UNSPECIFIED.,.F.,.F.,(2,2),(
0.,1.),.UNSPECIFIED.);
#372=B_SPLINE_CURVE_WITH_KNOTS('',1,(#791,#792),.UNSPECIFIED.,.F.,.F.,(2,2),(
0.,1.),.UNSPECIFIED.);
#373=B_SPLINE_CURVE_WITH_KNOTS('',1,(#793,#794),.UNSPECIFIED.,.F.,.F.,(2,2),(
0.,1.),.UNSPECIFIED.);
#374=B_SPLINE_CURVE_WITH_KNOTS('',1,(#795,#796),.UNSPECIFIED.,.F.,.F.,(2,2),(
0.,1.),.UNSPECIFIED.);
#375=B_SPLINE_CURVE_WITH_KNOTS('',1,(#797,#798),.UNSPECIFIED.,.F.,.F.,(2,2),(
0.,1.),.UNSPECIFIED.);
#376=B_SPLINE_CURVE_WITH_KNOTS('',1,(#799,#800),.UNSPECIFIED.,.F.,.F.,(2,2),(
0.,1.),.UNSPECIFIED.);
#377=B_SPLINE_CURVE_WITH_KNOTS('',1,(#801,#802),.UNSPECIFIED.,.F.,.F.,(2,2),(
0.,1.),.UNSPECIFIED.);
#378=B_SPLINE_CURVE_WITH_KNOTS('',1,(#803,#804),.UNSPECIFIED.,.F.,.F.,(2,2),(
0.,1.),.UNSPECIFIED.);
#379=B_SPLINE_CURVE_WITH_KNOTS('',1,(#805,#806),.UNSPECIFIED.,.F.,.F.,(2,2),(
0.,1.),.UNSPECIFIED.);
#380=B_SPLINE_CURVE_WITH_KNOTS('',1,(#807,#808),.UNSPECIFIED.,.F.,.F.,(2,2),(
0.,1.),.UNSPECIFIED.);
#381=B_SPLINE_CURVE_WITH_KNOTS('',1,(#809,#810),.UNSPECIFIED.,.F.,.F.,(2,2),(
0.,1.),.UNSPECIFIED.);
#382=B_SPLINE_CURVE_WITH_KNOTS('',1,(#811,#812),.UNSPECIFIED.,.F.,.F.,(2,2),(
0.,1.),.UNSPECIFIED.);
#383=B_SPLINE_CURVE_WITH_KNOTS('',1,(#813,#814),.UNSPECIFIED.,.F.,.F.,(2,2),(
0.,1.),.UNSPECIFIED.);
#384=B_SPLINE_CURVE_WITH_KNOTS('',1,(#815,#816),.UNSPECIFIED.,.F.,.F.,(2,2),(
0.,1.),.UNSPECIFIED.);
#385=B_SPLINE_CURVE_WITH_KNOTS('',1,(#817,#818),.UNSPECIFIED.,.F.,.F.,(2,2),(
0.,1.),.UNSPECIFIED.);
#386=B_SPLINE_CURVE_WITH_KNOTS('',1,(#819,#820),.UNSPECIFIED.,.F.,.F.,(2,2),(
0.,1.),.UNSPECIFIED.);
#387=B_SPLINE_CURVE_WITH_KNOTS('',1,(#821,#822),.UNSPECIFIED.,.F.,.F.,(2,2),(
0.,1.),.UNSPECIFIED.);
#388=B_SPLINE_CURVE_WITH_KNOTS('',1,(#823,#824),.UNSPECIFIED.,.F.,.F.,(2,2),(
0.,1.),.UNSPECIFIED.);
#389=B_SPLINE_CURVE_WITH_KNOTS('',1,(#825,#826),.UNSPECIFIED.,.F.,.F.,(2,2),(
0.,1.),.UNSPECIFIED.);
#390=B_SPLINE_CURVE_WITH_KNOTS('',1,(#827,#828),.UNSPECIFIED.,.F.,.F.,(2,2),(
0.,1.),.UNSPECIFIED.);
#391=B_SPLINE_CURVE_WITH_KNOTS('',1,(#829,#830),.UNSPECIFIED.,.F.,.F.,(2,2),(
0.,1.),.UNSPECIFIED.);
#392=B_SPLINE_CURVE_WITH_KNOTS('',1,(#831,#832),.UNSPECIFIED.,.F.,.F.,(2,2),(
0.,1.),.UNSPECIFIED.);
#393=B_SPLINE_CURVE_WITH_KNOTS('',1,(#833,#834),.UNSPECIFIED.,.F.,.F.,(2,2),(
0.,1.),.UNSPECIFIED.);
#394=B_SPLINE_CURVE_WITH_KNOTS('',1,(#835,#836),.UNSPECIFIED.,.F.,.F.,(2,2),(
0.,1.),.UNSPECIFIED.);
#395=B_SPLINE_CURVE_WITH_KNOTS('',1,(#837,#838),.UNSPECIFIED.,.F.,.F.,(2,2),(
0.,1.),.UNSPECIFIED.);
#396=B_SPLINE_CURVE_WITH_KNOTS('',1,(#839,#840),.UNSPECIFIED.,.F.,.F.,(2,2),(
0.,1.),.UNSPECIFIED.);
#397=B_SPLINE_CURVE_WITH_KNOTS('',1,(#841,#842),.UNSPECIFIED.,.F.,.F.,(2,2),(
0.,1.),.UNSPECIFIED.);
#398=B_SPLINE_CURVE_WITH_KNOTS('',1,(#843,#844),.UNSPECIFIED.,.F.,.F.,(2,2),(
0.,1.),.UNSPECIFIED.);
#399=B_SPLINE_CURVE_WITH_KNOTS('',1,(#845,#846),.UNSPECIFIED.,.F.,.F.,(2,2),(
0.,1.),.UNSPECIFIED.);
#400=B_SPLINE_CURVE_WITH_KNOTS('',1,(#847,#848),.UNSPECIFIED.,.F.,.F.,(2,2),(
0.,1.),.UNSPECIFIED.);
#401=B_SPLINE_CURVE_WITH_KNOTS('',1,(#849,#850),.UNSPECIFIED.,.F.,.F.,(2,2),(
0.,1.),.UNSPECIFIED.);
#402=B_SPLINE_CURVE_WITH_KNOTS('',1,(#851,#852),.UNSPECIFIED.,.F.,.F.,(2,2),(
0.,1.),.UNSPECIFIED.);
#403=B_SPLINE_CURVE_WITH_KNOTS('',1,(#853,#854),.UNSPECIFIED.,.F.,.F.,(2,2),(
0.,1.),.UNSPECIFIED.);
#404=B_SPLINE_CURVE_WITH_KNOTS('',1,(#855,#856),.UNSPECIFIED.,.F.,.F.,(2,2),(
0.,1.),.UNSPECIFIED.);
#405=B_SPLINE_CURVE_WITH_KNOTS('',1,(#857,#858),.UNSPECIFIED.,.F.,.F.,(2,2),(
0.,1.),.UNSPECIFIED.);
#406=B_SPLINE_CURVE_WITH_KNOTS('',1,(#859,#860),.UNSPECIFIED.,.F.,.F.,(2,2),(
0.,1.),.UNSPECIFIED.);
#407=B_SPLINE_CURVE_WITH_KNOTS('',1,(#861,#862),.UNSPECIFIED.,.F.,.F.,(2,2),(
0.,1.),.UNSPECIFIED.);
#408=B_SPLINE_CURVE_WITH_KNOTS('',1,(#863,#864),.UNSPECIFIED.,.F.,.F.,(2,2),(
0.,1.),.UNSPECIFIED.);
#409=B_SPLINE_CURVE_WITH_KNOTS('',1,(#865,#866),.UNSPECIFIED.,.F.,.F.,(2,2),(
0.,1.),.UNSPECIFIED.);
#410=B_SPLINE_CURVE_WITH_KNOTS('',1,(#867,#868),.UNSPECIFIED.,.F.,.F.,(2,2),(
0.,1.),.UNSPECIFIED.);
#411=B_SPLINE_CURVE_WITH_KNOTS('',1,(#869,#870),.UNSPECIFIED.,.F.,.F.,(2,2),(
0.,1.),.UNSPECIFIED.);
#412=B_SPLINE_CURVE_WITH_KNOTS('',1,(#871,#872),.UNSPECIFIED.,.F.,.F.,(2,2),(
0.,1.),.UNSPECIFIED.);
#413=B_SPLINE_CURVE_WITH_KNOTS('',1,(#873,#874),.UNSPECIFIED.,.F.,.F.,(2,2),(
0.,1.),.UNSPECIFIED.);
#414=B_SPLINE_CURVE_WITH_KNOTS('',1,(#875,#876),.UNSPECIFIED.,.F.,.F.,(2,2),(
0.,1.),.UNSPECIFIED.);
#415=B_SPLINE_CURVE_WITH_KNOTS('',1,(#877,#878),.UNSPECIFIED.,.F.,.F.,(2,2),(
0.,1.),.UNSPECIFIED.);
#416=B_SPLINE_CURVE_WITH_KNOTS('',1,(#879,#880),.UNSPECIFIED.,.F.,.F.,(2,2),(
0.,1.),.UNSPECIFIED.);
#417=B_SPLINE_CURVE_WITH_KNOTS('',1,(#881,#882),.UNSPECIFIED.,.F.,.F.,(2,2),(
0.,1.),.UNSPECIFIED.);
#418=B_SPLINE_CURVE_WITH_KNOTS('',1,(#883,#884),.UNSPECIFIED.,.F.,.F.,(2,2),(
0.,1.),.UNSPECIFIED.);
#419=B_SPLINE_CURVE_WITH_KNOTS('',1,(#885,#886),.UNSPECIFIED.,.F.,.F.,(2,2),(
0.,1.),.UNSPECIFIED.);
#420=B_SPLINE_CURVE_WITH_KNOTS('',1,(#887,#888),.UNSPECIFIED.,.F.,.F.,(2,2),(
0.,1.),.UNSPECIFIED.);
#421=B_SPLINE_CURVE_WITH_KNOTS('',1,(#889,#890),.UNSPECIFIED.,.F.,.F.,(2,2),(
0.,1.),.UNSPECIFIED.);
#422=B_SPLINE_CURVE_WITH_KNOTS('',1,(#891,#892),.UNSPECIFIED.,.F.,.F.,(2,2),(
0.,1.),.UNSPECIFIED.);
#423=B_SPLINE_CURVE_WITH_KNOTS('',1,(#893,#894),.UNSPECIFIED.,.F.,.F.,(2,2),(
0.,1.),.UNSPECIFIED.);
#424=B_SPLINE_CURVE_WITH_KNOTS('',1,(#895,#896),.UNSPECIFIED.,.F.,.F.,(2,2),(
0.,1.),.UNSPECIFIED.);
#425=B_SPLINE_CURVE_WITH_KNOTS('',1,(#897,#898),.UNSPECIFIED.,.F.,.F.,(2,2),(
0.,1.),.UNSPECIFIED.);
#426=B_SPLINE_CURVE_WITH_KNOTS('',1,(#899,#900),.UNSPECIFIED.,.F.,.F.,(2,2),(
0.,1.),.UNSPECIFIED.);
#427=B_SPLINE_CURVE_WITH_KNOTS('',1,(#901,#902),.UNSPECIFIED.,.F.,.F.,(2,2),(
0.,1.),.UNSPECIFIED.);
#428=B_SPLINE_CURVE_WITH_KNOTS('',1,(#903,#904),.UNSPECIFIED.,.F.,.F.,(2,2),(
0.,1.),.UNSPECIFIED.);
#429=B_SPLINE_CURVE_WITH_KNOTS('',1,(#905,#906),.UNSPECIFIED.,.F.,.F.,(2,2),(
0.,1.),.UNSPECIFIED.);
#430=B_SPLINE_CURVE_WITH_KNOTS('',1,(#907,#908),.UNSPECIFIED.,.F.,.F.,(2,2),(
0.,1.),.UNSPECIFIED.);
#431=B_SPLINE_CURVE_WITH_KNOTS('',1,(#909,#910),.UNSPECIFIED.,.F.,.F.,(2,2),(
0.,1.),.UNSPECIFIED.);
#432=B_SPLINE_CURVE_WITH_KNOTS('',1,(#911,#912),.UNSPECIFIED.,.F.,.F.,(2,2),(
0.,1.),.UNSPECIFIED.);
#433=B_SPLINE_CURVE_WITH_KNOTS('',1,(#913,#914),.UNSPECIFIED.,.F.,.F.,(2,2),(
0.,1.),.UNSPECIFIED.);
#434=B_SPLINE_CURVE_WITH_KNOTS('',1,(#915,#916),.UNSPECIFIED.,.F.,.F.,(2,2),(
0.,1.),.UNSPECIFIED.);
#435=B_SPLINE_CURVE_WITH_KNOTS('',1,(#917,#918),.UNSPECIFIED.,.F.,.F.,(2,2),(
0.,1.),.UNSPECIFIED.);
#436=B_SPLINE_CURVE_WITH_KNOTS('',1,(#919,#920),.UNSPECIFIED.,.F.,.F.,(2,2),(
0.,1.),.UNSPECIFIED.);
#437=B_SPLINE_CURVE_WITH_KNOTS('',1,(#921,#922),.UNSPECIFIED.,.F.,.F.,(2,2),(
0.,1.),.UNSPECIFIED.);
#438=B_SPLINE_CURVE_WITH_KNOTS('',1,(#923,#924),.UNSPECIFIED.,.F.,.F.,(2,2),(
0.,1.),.UNSPECIFIED.);
#439=B_SPLINE_CURVE_WITH_KNOTS('',1,(#925,#926),.UNSPECIFIED.,.F.,.F.,(2,2),(
0.,1.),.UNSPECIFIED.);
#440=B_SPLINE_CURVE_WITH_KNOTS('',1,(#927,#928),.UNSPECIFIED.,.F.,.F.,(2,2),(
0.,1.),.UNSPECIFIED.);
#441=B_SPLINE_CURVE_WITH_KNOTS('',1,(#929,#930),.UNSPECIFIED.,.F.,.F.,(2,2),(
0.,1.),.UNSPECIFIED.);
#442=B_SPLINE_CURVE_WITH_KNOTS('',1,(#931,#932),.UNSPECIFIED.,.F.,.F.,(2,2),(
0.,1.),.UNSPECIFIED.);
#443=B_SPLINE_CURVE_WITH_KNOTS('',1,(#933,#934),.UNSPECIFIED.,.F.,.F.,(2,2),(
0.,1.),.UNSPECIFIED.);
#444=B_SPLINE_CURVE_WITH_KNOTS('',1,(#935,#936),.UNSPECIFIED.,.F.,.F.,(2,2),(
0.,1.),.UNSPECIFIED.);
#445=B_SPLINE_CURVE_WITH_KNOTS('',1,(#937,#938),.UNSPECIFIED.,.F.,.F.,(2,2),(
0.,1.),.UNSPECIFIED.);
#446=B_SPLINE_CURVE_WITH_KNOTS('',1,(#939,#940),.UNSPECIFIED.,.F.,.F.,(2,2),(
0.,1.),.UNSPECIFIED.);
#447=B_SPLINE_CURVE_WITH_KNOTS('',1,(#941,#942),.UNSPECIFIED.,.F.,.F.,(2,2),(
0.,1.),.UNSPECIFIED.);
#448=B_SPLINE_CURVE_WITH_KNOTS('',1,(#943,#944),.UNSPECIFIED.,.F.,.F.,(2,2),(
0.,1.),.UNSPECIFIED.);
#449=B_SPLINE_CURVE_WITH_KNOTS('',1,(#945,#946),.UNSPECIFIED.,.F.,.F.,(2,2),(
0.,1.),.UNSPECIFIED.);
#450=B_SPLINE_CURVE_WITH_KNOTS('',1,(#947,#948),.UNSPECIFIED.,.F.,.F.,(2,2),(
0.,1.),.UNSPECIFIED.);
#451=B_SPLINE_CURVE_WITH_KNOTS('',1,(#949,#950),.UNSPECIFIED.,.F.,.F.,(2,2),(
0.,1.),.UNSPECIFIED.);
#452=B_SPLINE_CURVE_WITH_KNOTS('',1,(#951,#952),.UNSPECIFIED.,.F.,.F.,(2,2),(
0.,1.),.UNSPECIFIED.);
#453=B_SPLINE_CURVE_WITH_KNOTS('',1,(#953,#954),.UNSPECIFIED.,.F.,.F.,(2,2),(
0.,1.),.UNSPECIFIED.);
#454=B_SPLINE_CURVE_WITH_KNOTS('',1,(#955,#956),.UNSPECIFIED.,.F.,.F.,(2,2),(
0.,1.),.UNSPECIFIED.);
#455=B_SPLINE_CURVE_WITH_KNOTS('',1,(#957,#958),.UNSPECIFIED.,.F.,.F.,(2,2),(
0.,1.),.UNSPECIFIED.);
#456=B_SPLINE_CURVE_WITH_KNOTS('',1,(#959,#960),.UNSPECIFIED.,.F.,.F.,(2,2),(
0.,1.),.UNSPECIFIED.);
#457=B_SPLINE_CURVE_WITH_KNOTS('',1,(#961,#962),.UNSPECIFIED.,.F.,.F.,(2,2),(
0.,1.),.UNSPECIFIED.);
#458=B_SPLINE_CURVE_WITH_KNOTS('',1,(#963,#964),.UNSPECIFIED.,.F.,.F.,(2,2),(
0.,1.),.UNSPECIFIED.);
#459=B_SPLINE_CURVE_WITH_KNOTS('',1,(#965,#966),.UNSPECIFIED.,.F.,.F.,(2,2),(
0.,1.),.UNSPECIFIED.);
#460=B_SPLINE_CURVE_WITH_KNOTS('',1,(#967,#968),.UNSPECIFIED.,.F.,.F.,(2,2),(
0.,1.),.UNSPECIFIED.);
#461=B_SPLINE_CURVE_WITH_KNOTS('',1,(#969,#970),.UNSPECIFIED.,.F.,.F.,(2,2),(
0.,1.),.UNSPECIFIED.);
#462=B_SPLINE_CURVE_WITH_KNOTS('',1,(#971,#972),.UNSPECIFIED.,.F.,.F.,(2,2),(
0.,1.),.UNSPECIFIED.);
#463=B_SPLINE_CURVE_WITH_KNOTS('',1,(#973,#974),.UNSPECIFIED.,.F.,.F.,(2,2),(
0.,1.),.UNSPECIFIED.);
#464=B_SPLINE_CURVE_WITH_KNOTS('',1,(#975,#976),.UNSPECIFIED.,.F.,.F.,(2,2),(
0.,1.),.UNSPECIFIED.);
#465=B_SPLINE_CURVE_WITH_KNOTS('',1,(#977,#978),.UNSPECIFIED.,.F.,.F.,(2,2),(
0.,1.),.UNSPECIFIED.);
#466=B_SPLINE_CURVE_WITH_KNOTS('',1,(#979,#980),.UNSPECIFIED.,.F.,.F.,(2,2),(
0.,1.),.UNSPECIFIED.);
#467=B_SPLINE_CURVE_WITH_KNOTS('',1,(#981,#982),.UNSPECIFIED.,.F.,.F.,(2,2),(
0.,1.),.UNSPECIFIED.);
#468=B_SPLINE_CURVE_WITH_KNOTS('',1,(#983,#984),.UNSPECIFIED.,.F.,.F.,(2,2),(
0.,1.),.UNSPECIFIED.);
#469=B_SPLINE_CURVE_WITH_KNOTS('',1,(#985,#986),.UNSPECIFIED.,.F.,.F.,(2,2),(
0.,1.),.UNSPECIFIED.);
#470=B_SPLINE_CURVE_WITH_KNOTS('',1,(#987,#988),.UNSPECIFIED.,.F.,.F.,(2,2),(
0.,1.),.UNSPECIFIED.);
#471=B_SPLINE_CURVE_WITH_KNOTS('',1,(#989,#990),.UNSPECIFIED.,.F.,.F.,(2,2),(
0.,1.),.UNSPECIFIED.);
#472=B_SPLINE_CURVE_WITH_KNOTS('',1,(#991,#992),.UNSPECIFIED.,.F.,.F.,(2,2),(
0.,1.),.UNSPECIFIED.);
#473=B_SPLINE_CURVE_WITH_KNOTS('',1,(#993,#994),.UNSPECIFIED.,.F.,.F.,(2,2),(
0.,1.),.UNSPECIFIED.);
#474=B_SPLINE_CURVE_WITH_KNOTS('',1,(#995,#996),.UNSPECIFIED.,.F.,.F.,(2,2),(
0.,1.),.UNSPECIFIED.);
#475=B_SPLINE_CURVE_WITH_KNOTS('',1,(#997,#998),.UNSPECIFIED.,.F.,.F.,(2,2),(
0.,1.),.UNSPECIFIED.);
#476=B_SPLINE_CURVE_WITH_KNOTS('',1,(#999,#1000),.UNSPECIFIED.,.F.,.F.,(2,2),(
0.,1.),.UNSPECIFIED.);
#477=B_SPLINE_CURVE_WITH_KNOTS('',1,(#1001,#1002),.UNSPECIFIED.,.F.,.F.,(2,2),
(0.,1.),.UNSPECIFIED.);
#478=VERTEX_POINT('',#661);
#479=VERTEX_POINT('',#662);
#480=VERTEX_POINT('',#663);
#481=VERTEX_POINT('',#664);
#482=VERTEX_POINT('',#665);
#483=VERTEX_POINT('',#666);
#484=VERTEX_POINT('',#667);
#485=VERTEX_POINT('',#668);
#486=VERTEX_POINT('',#669);
#487=VERTEX_POINT('',#670);
#488=VERTEX_POINT('',#671);
#489=VERTEX_POINT('',#672);
#490=VERTEX_POINT('',#673);
#491=VERTEX_POINT('',#674);
#492=VERTEX_POINT('',#675);
#493=VERTEX_POINT('',#676);
#494=VERTEX_POINT('',#677);
#495=VERTEX_POINT('',#678);
#496=VERTEX_POINT('',#679);
#497=VERTEX_POINT('',#680);
#498=VERTEX_POINT('',#681);
#499=VERTEX_POINT('',#682);
#500=VERTEX_POINT('',#683);
#501=VERTEX_POINT('',#684);
#502=VERTEX_POINT('',#685);
#503=VERTEX_POINT('',#686);
#504=VERTEX_POINT('',#687);
#505=VERTEX_POINT('',#688);
#506=VERTEX_POINT('',#689);
#507=VERTEX_POINT('',#690);
#508=VERTEX_POINT('',#691);
#509=VERTEX_POINT('',#692);
#510=VERTEX_POINT('',#693);
#511=VERTEX_POINT('',#694);
#512=VERTEX_POINT('',#695);
#513=VERTEX_POINT('',#696);
#514=VERTEX_POINT('',#697);
#515=VERTEX_POINT('',#698);
#516=VERTEX_POINT('',#699);
#517=VERTEX_POINT('',#700);
#518=VERTEX_POINT('',#701);
#519=VERTEX_POINT('',#702);
#520=VERTEX_POINT('',#703);
#521=VERTEX_POINT('',#704);
#522=VERTEX_POINT('',#705);
#523=VERTEX_POINT('',#706);
#524=VERTEX_POINT('',#707);
#525=VERTEX_POINT('',#708);
#526=VERTEX_POINT('',#709);
#527=VERTEX_POINT('',#710);
#528=VERTEX_POINT('',#711);
#529=VERTEX_POINT('',#712);
#530=VERTEX_POINT('',#713);
#531=VERTEX_POINT('',#714);
#532=VERTEX_POINT('',#715);
#533=VERTEX_POINT('',#716);
#534=VERTEX_POINT('',#717);
#535=VERTEX_POINT('',#718);
#536=VERTEX_POINT('',#719);
#537=VERTEX_POINT('',#720);
#538=VERTEX_POINT('',#721);
#539=VERTEX_POINT('',#722);
#540=VERTEX_POINT('',#723);
#541=VERTEX_POINT('',#724);
#542=VERTEX_POINT('',#725);
#543=VERTEX_POINT('',#726);
#544=VERTEX_POINT('',#727);
#545=VERTEX_POINT('',#728);
#546=VERTEX_POINT('',#729);
#547=VERTEX_POINT('',#730);
#548=VERTEX_POINT('',#731);
#549=VERTEX_POINT('',#732);
#550=VERTEX_POINT('',#733);
#551=VERTEX_POINT('',#734);
#552=VERTEX_POINT('',#735);
#553=VERTEX_POINT('',#736);
#554=VERTEX_POINT('',#737);
#555=VERTEX_POINT('',#738);
#556=VERTEX_POINT('',#739);
#557=VERTEX_POINT('',#740);
#558=VERTEX_POINT('',#741);
#559=VERTEX_POINT('',#742);
#560=VERTEX_POINT('',#743);
#561=VERTEX_POINT('',#744);
#562=VERTEX_POINT('',#745);
#563=VERTEX_POINT('',#746);
#564=VERTEX_POINT('',#747);
#565=VERTEX_POINT('',#748);
#566=VERTEX_POINT('',#749);
#567=VERTEX_POINT('',#750);
#568=VERTEX_POINT('',#751);
#569=VERTEX_POINT('',#752);
#570=VERTEX_POINT('',#753);
#571=VERTEX_POINT('',#754);
#572=VERTEX_POINT('',#755);
#573=VERTEX_POINT('',#756);
#574=VERTEX_POINT('',#757);
#575=VERTEX_POINT('',#758);
#576=VERTEX_POINT('',#759);
#577=VERTEX_POINT('',#760);
#578=VERTEX_POINT('',#761);
#579=VERTEX_POINT('',#762);
#580=VERTEX_POINT('',#763);
#581=VERTEX_POINT('',#764);
#582=VERTEX_POINT('',#765);
#583=VERTEX_POINT('',#766);
#584=VERTEX_POINT('',#767);
#585=VERTEX_POINT('',#768);
#586=VERTEX_POINT('',#769);
#587=VERTEX_POINT('',#770);
#588=VERTEX_POINT('',#771);
#589=VERTEX_POINT('',#772);
#590=VERTEX_POINT('',#773);
#591=VERTEX_POINT('',#774);
#592=SHAPE_DEFINITION_REPRESENTATION(#1024,#593);
#593=SHAPE_REPRESENTATION('master',(#594),#1026);
#594=AXIS2_PLACEMENT_3D('',#660,#617,#616);
#595=AXIS2_PLACEMENT_3D('',#1003,#619,#618);
#596=AXIS2_PLACEMENT_3D('',#1004,#621,#620);
#597=AXIS2_PLACEMENT_3D('',#1005,#623,#622);
#598=AXIS2_PLACEMENT_3D('',#1006,#625,#624);
#599=AXIS2_PLACEMENT_3D('',#1007,#627,#626);
#600=AXIS2_PLACEMENT_3D('',#1008,#629,#628);
#601=AXIS2_PLACEMENT_3D('',#1009,#631,#630);
#602=AXIS2_PLACEMENT_3D('',#1010,#633,#632);
#603=AXIS2_PLACEMENT_3D('',#1011,#635,#634);
#604=AXIS2_PLACEMENT_3D('',#1012,#637,#636);
#605=AXIS2_PLACEMENT_3D('',#1013,#639,#638);
#606=AXIS2_PLACEMENT_3D('',#1014,#641,#640);
#607=AXIS2_PLACEMENT_3D('',#1015,#643,#642);
#608=AXIS2_PLACEMENT_3D('',#1016,#645,#644);
#609=AXIS2_PLACEMENT_3D('',#1017,#647,#646);
#610=AXIS2_PLACEMENT_3D('',#1018,#649,#648);
#611=AXIS2_PLACEMENT_3D('',#1019,#651,#650);
#612=AXIS2_PLACEMENT_3D('',#1020,#653,#652);
#613=AXIS2_PLACEMENT_3D('',#1021,#655,#654);
#614=AXIS2_PLACEMENT_3D('',#1022,#657,#656);
#615=AXIS2_PLACEMENT_3D('',#1023,#659,#658);
#616=DIRECTION('',(1.,0.,0.));
#617=DIRECTION('',(0.,0.,1.));
#618=DIRECTION('',(-1.,1.13630022710261E-016,0.));
#619=DIRECTION('',(0.,0.,-1.));
#620=DIRECTION('',(-0.0378780378215319,-2.22792874411869E-016,
-0.99928236962872));
#621=DIRECTION('',(0.99928236962872,0.,-0.0378780378215319));
#622=DIRECTION('',(-1.,0.,0.));
#623=DIRECTION('',(0.,0.,-1.));
#624=DIRECTION('',(-0.0164181386767337,1.86559347069746E-018,
-0.999865213277466));
#625=DIRECTION('',(0.999865213277466,0.,-0.0164181386767337));
#626=DIRECTION('',(-0.999815306459944,0.,-0.0192185579170042));
#627=DIRECTION('',(0.0192185579170042,0.,-0.999815306459944));
#628=DIRECTION('',(-0.0196175453113731,-2.24987168796551E-016,
-0.999807557440909));
#629=DIRECTION('',(0.999807557440909,0.,-0.0196175453113731));
#630=DIRECTION('',(-1.,0.,0.));
#631=DIRECTION('',(0.,0.,-1.));
#632=DIRECTION('',(0.,-1.,0.));
#633=DIRECTION('',(-1.,0.,0.));
#634=DIRECTION('',(0.879706560782767,-0.,0.475516947033181));
#635=DIRECTION('',(-0.475516947033181,0.,0.879706560782767));
#636=DIRECTION('',(0.708879443038495,-8.05499872113013E-017,0.705329664226193)
);
#637=DIRECTION('',(-0.705329664226193,0.,0.708879443038495));
#638=DIRECTION('',(0.964781962678867,-0.,0.263050878138648));
#639=DIRECTION('',(-0.263050878138648,0.,0.964781962678867));
#640=DIRECTION('',(1.,0.,0.));
#641=DIRECTION('',(0.,0.,1.));
#642=DIRECTION('',(0.679746943255876,-7.72396605993956E-017,0.733446721401285)
);
#643=DIRECTION('',(-0.733446721401285,0.,0.679746943255876));
#644=DIRECTION('',(1.,0.,0.));
#645=DIRECTION('',(0.,0.,1.));
#646=DIRECTION('',(0.,1.,0.));
#647=DIRECTION('',(1.,0.,0.));
#648=DIRECTION('',(-1.,0.,0.));
#649=DIRECTION('',(0.,0.,-1.));
#650=DIRECTION('',(-0.0208288136818357,2.36677857169478E-018,
-0.999783056728112));
#651=DIRECTION('',(0.999783056728112,0.,-0.0208288136818357));
#652=DIRECTION('',(-0.999770127796232,0.,-0.0214404189862633));
#653=DIRECTION('',(0.0214404189862633,0.,-0.999770127796232));
#654=DIRECTION('',(-0.0256078995132551,2.90982620325326E-018,-0.99967206397024
));
#655=DIRECTION('',(0.99967206397024,0.,-0.0256078995132551));
#656=DIRECTION('',(1.,0.,-0.));
#657=DIRECTION('',(0.,-1.,0.));
#658=DIRECTION('',(-1.,0.,0.));
#659=DIRECTION('',(0.,1.,0.));
#660=CARTESIAN_POINT('',(0.,0.,0.));
#661=CARTESIAN_POINT('',(75.9303889999998,0.,174.207472));
#662=CARTESIAN_POINT('',(75.930389,2001.,174.207472));
#663=CARTESIAN_POINT('',(250.631790500105,2001.,174.207472));
#664=CARTESIAN_POINT('',(250.631790500105,0.,174.207472));
#665=CARTESIAN_POINT('',(75.,0.,149.662343));
#666=CARTESIAN_POINT('',(75.,2001.,149.662343));
#667=CARTESIAN_POINT('',(75.9303889999999,2001.,174.207472));
#668=CARTESIAN_POINT('',(75.9303889999999,0.,174.207472));
#669=CARTESIAN_POINT('',(50.4105087980537,0.,149.662343));
#670=CARTESIAN_POINT('',(50.4105087980537,2001.,149.662343));
#671=CARTESIAN_POINT('',(74.9999999999999,2001.,149.662343));
#672=CARTESIAN_POINT('',(74.9999999999999,0.,149.662343));
#673=CARTESIAN_POINT('',(50.0082090693384,0.,125.162275606639));
#674=CARTESIAN_POINT('',(50.0082090693384,2001.,125.162275606639));
#675=CARTESIAN_POINT('',(50.4105087980538,2001.,149.662343));
#676=CARTESIAN_POINT('',(50.4105087980538,0.,149.662343));
#677=CARTESIAN_POINT('',(25.2213723675881,0.,124.685820351699));
#678=CARTESIAN_POINT('',(25.2213723675883,2001.,124.685820351699));
#679=CARTESIAN_POINT('',(50.0082090693383,2001.,125.162275606639));
#680=CARTESIAN_POINT('',(50.0082090693383,0.,125.162275606639));
#681=CARTESIAN_POINT('',(24.75,0.,100.662343));
#682=CARTESIAN_POINT('',(24.75,2001.,100.662343));
#683=CARTESIAN_POINT('',(25.2213723675884,2001.,124.685820351699));
#684=CARTESIAN_POINT('',(25.2213723675884,0.,124.6858203517));
#685=CARTESIAN_POINT('',(-9.9475983006414E-014,0.,100.662343));
#686=CARTESIAN_POINT('',(-9.9475983006414E-014,2001.,100.662343));
#687=CARTESIAN_POINT('',(24.7499999999999,2001.,100.662343));
#688=CARTESIAN_POINT('',(24.7499999999999,0.,100.662343));
#689=CARTESIAN_POINT('',(1.4210854715202E-014,0.,100.662343));
#690=CARTESIAN_POINT('',(1.4210854715202E-014,0.,121.662343));
#691=CARTESIAN_POINT('',(1.4210854715202E-014,2001.,121.662343));
#692=CARTESIAN_POINT('',(1.4210854715202E-014,2001.,100.662343));
#693=CARTESIAN_POINT('',(7.37403700000009,0.,125.648308));
#694=CARTESIAN_POINT('',(7.37403700000009,2001.,125.648308));
#695=CARTESIAN_POINT('',(-2.45581333047085E-013,2001.,121.662343));
#696=CARTESIAN_POINT('',(-2.45581333047085E-013,0.,121.662343));
#697=CARTESIAN_POINT('',(67.5608529999998,0.,185.533733));
#698=CARTESIAN_POINT('',(67.5608529999999,2001.,185.533733));
#699=CARTESIAN_POINT('',(7.37403700000002,2001.,125.648308));
#700=CARTESIAN_POINT('',(7.37403699999991,0.,125.648308));
#701=CARTESIAN_POINT('',(82.2909759999999,0.,189.549948));
#702=CARTESIAN_POINT('',(82.2909759999999,2001.,189.549948));
#703=CARTESIAN_POINT('',(67.5608529999998,2001.,185.533733));
#704=CARTESIAN_POINT('',(67.5608529999998,0.,185.533733));
#705=CARTESIAN_POINT('',(223.046719,0.,189.549948));
#706=CARTESIAN_POINT('',(223.046719,2001.,189.549948));
#707=CARTESIAN_POINT('',(82.2909759999999,2001.,189.549948));
#708=CARTESIAN_POINT('',(82.2909759999999,0.,189.549948));
#709=CARTESIAN_POINT('',(278.607489,0.,249.5));
#710=CARTESIAN_POINT('',(278.607489,2001.,249.5));
#711=CARTESIAN_POINT('',(223.046719,2001.,189.549948));
#712=CARTESIAN_POINT('',(223.046719,0.,189.549948));
#713=CARTESIAN_POINT('',(302.107489,0.,249.5));
#714=CARTESIAN_POINT('',(302.107489,2001.,249.5));
#715=CARTESIAN_POINT('',(278.607489,2001.,249.5));
#716=CARTESIAN_POINT('',(278.607489,0.,249.5));
#717=CARTESIAN_POINT('',(302.107489,2001.,223.5));
#718=CARTESIAN_POINT('',(302.107489,2001.,249.5));
#719=CARTESIAN_POINT('',(302.107489,0.,249.5));
#720=CARTESIAN_POINT('',(302.107489,0.,223.5));
#721=CARTESIAN_POINT('',(277.107489,0.,223.5));
#722=CARTESIAN_POINT('',(277.107489,2001.,223.5));
#723=CARTESIAN_POINT('',(302.107489,2001.,223.5));
#724=CARTESIAN_POINT('',(302.107489,0.,223.5));
#725=CARTESIAN_POINT('',(276.607489,0.,199.5));
#726=CARTESIAN_POINT('',(276.607489,2001.,199.5));
#727=CARTESIAN_POINT('',(277.107489,2001.,223.5));
#728=CARTESIAN_POINT('',(277.107489,0.,223.5));
#729=CARTESIAN_POINT('',(251.26577,0.,198.956538));
#730=CARTESIAN_POINT('',(251.26577,2001.,198.956538));
#731=CARTESIAN_POINT('',(276.607489,2001.,199.5));
#732=CARTESIAN_POINT('',(276.607489,0.,199.5));
#733=CARTESIAN_POINT('',(250.631790500105,0.,174.207472));
#734=CARTESIAN_POINT('',(250.631790500105,2001.,174.207472));
#735=CARTESIAN_POINT('',(251.26577,2001.,198.956538));
#736=CARTESIAN_POINT('',(251.26577,0.,198.956538));
#737=CARTESIAN_POINT('',(24.7499999999999,0.,100.662343));
#738=CARTESIAN_POINT('',(25.2213723675883,0.,124.6858203517));
#739=CARTESIAN_POINT('',(50.0082090693383,0.,125.162275606639));
#740=CARTESIAN_POINT('',(50.4105087980537,0.,149.662343));
#741=CARTESIAN_POINT('',(74.9999999999999,0.,149.662343));
#742=CARTESIAN_POINT('',(75.9303889999998,0.,174.207472));
#743=CARTESIAN_POINT('',(250.631790500105,0.,174.207472));
#744=CARTESIAN_POINT('',(251.26577,0.,198.956538));
#745=CARTESIAN_POINT('',(276.607489,0.,199.5));
#746=CARTESIAN_POINT('',(277.107489,0.,223.5));
#747=CARTESIAN_POINT('',(302.107489,0.,223.5));
#748=CARTESIAN_POINT('',(302.107489,0.,249.5));
#749=CARTESIAN_POINT('',(278.607489,0.,249.5));
#750=CARTESIAN_POINT('',(223.046719,0.,189.549948));
#751=CARTESIAN_POINT('',(82.2909759999998,0.,189.549948));
#752=CARTESIAN_POINT('',(67.5608529999998,0.,185.533733));
#753=CARTESIAN_POINT('',(7.3740369999999,0.,125.648308));
#754=CARTESIAN_POINT('',(-1.13686837721616E-013,0.,121.662343));
#755=CARTESIAN_POINT('',(-1.13686837721616E-013,0.,100.662343));
#756=CARTESIAN_POINT('',(302.107489,2001.,223.5));
#757=CARTESIAN_POINT('',(277.107489,2001.,223.5));
#758=CARTESIAN_POINT('',(276.607489,2001.,199.5));
#759=CARTESIAN_POINT('',(251.26577,2001.,198.956538));
#760=CARTESIAN_POINT('',(250.631790500105,2001.,174.207472));
#761=CARTESIAN_POINT('',(75.9303890000001,2001.,174.207472));
#762=CARTESIAN_POINT('',(75.0000000000001,2001.,149.662343));
#763=CARTESIAN_POINT('',(50.4105087980539,2001.,149.662343));
#764=CARTESIAN_POINT('',(50.0082090693385,2001.,125.162275606639));
#765=CARTESIAN_POINT('',(25.2213723675885,2001.,124.6858203517));
#766=CARTESIAN_POINT('',(24.7500000000001,2001.,100.662343));
#767=CARTESIAN_POINT('',(1.13686837721616E-013,2001.,100.662343));
#768=CARTESIAN_POINT('',(1.13686837721616E-013,2001.,121.662343));
#769=CARTESIAN_POINT('',(7.37403700000013,2001.,125.648308));
#770=CARTESIAN_POINT('',(67.5608530000001,2001.,185.533733));
#771=CARTESIAN_POINT('',(82.2909760000001,2001.,189.549948));
#772=CARTESIAN_POINT('',(223.046719,2001.,189.549948));
#773=CARTESIAN_POINT('',(278.607489,2001.,249.5));
#774=CARTESIAN_POINT('',(302.107489,2001.,249.5));
#775=CARTESIAN_POINT('',(250.631790500105,0.,174.207472));
#776=CARTESIAN_POINT('',(75.9303889999998,0.,174.207472));
#777=CARTESIAN_POINT('',(75.9303889999998,0.,174.207472));
#778=CARTESIAN_POINT('',(75.930389,2001.,174.207472));
#779=CARTESIAN_POINT('',(75.930389,2001.,174.207472));
#780=CARTESIAN_POINT('',(250.631790500105,2001.,174.207472));
#781=CARTESIAN_POINT('',(250.631790500105,2001.,174.207472));
#782=CARTESIAN_POINT('',(250.631790500105,0.,174.207472));
#783=CARTESIAN_POINT('',(75.9303889999999,0.,174.207472));
#784=CARTESIAN_POINT('',(75.,0.,149.662343));
#785=CARTESIAN_POINT('',(75.,0.,149.662343));
#786=CARTESIAN_POINT('',(75.,2001.,149.662343));
#787=CARTESIAN_POINT('',(75.,2001.,149.662343));
#788=CARTESIAN_POINT('',(75.9303889999999,2001.,174.207472));
#789=CARTESIAN_POINT('',(75.9303889999999,2001.,174.207472));
#790=CARTESIAN_POINT('',(75.9303889999999,0.,174.207472));
#791=CARTESIAN_POINT('',(74.9999999999999,0.,149.662343));
#792=CARTESIAN_POINT('',(50.4105087980537,0.,149.662343));
#793=CARTESIAN_POINT('',(50.4105087980537,0.,149.662343));
#794=CARTESIAN_POINT('',(50.4105087980537,2001.,149.662343));
#795=CARTESIAN_POINT('',(50.4105087980537,2001.,149.662343));
#796=CARTESIAN_POINT('',(74.9999999999999,2001.,149.662343));
#797=CARTESIAN_POINT('',(74.9999999999999,2001.,149.662343));
#798=CARTESIAN_POINT('',(74.9999999999999,0.,149.662343));
#799=CARTESIAN_POINT('',(50.4105087980538,0.,149.662343));
#800=CARTESIAN_POINT('',(50.0082090693384,0.,125.162275606639));
#801=CARTESIAN_POINT('',(50.0082090693384,0.,125.162275606639));
#802=CARTESIAN_POINT('',(50.0082090693384,2001.,125.162275606639));
#803=CARTESIAN_POINT('',(50.0082090693384,2001.,125.162275606639));
#804=CARTESIAN_POINT('',(50.4105087980538,2001.,149.662343));
#805=CARTESIAN_POINT('',(50.4105087980538,2001.,149.662343));
#806=CARTESIAN_POINT('',(50.4105087980538,0.,149.662343));
#807=CARTESIAN_POINT('',(50.0082090693383,0.,125.162275606639));
#808=CARTESIAN_POINT('',(25.2213723675881,0.,124.685820351699));
#809=CARTESIAN_POINT('',(25.2213723675881,0.,124.685820351699));
#810=CARTESIAN_POINT('',(25.2213723675883,2001.,124.685820351699));
#811=CARTESIAN_POINT('',(25.2213723675883,2001.,124.685820351699));
#812=CARTESIAN_POINT('',(50.0082090693383,2001.,125.162275606639));
#813=CARTESIAN_POINT('',(50.0082090693383,2001.,125.162275606639));
#814=CARTESIAN_POINT('',(50.0082090693383,0.,125.162275606639));
#815=CARTESIAN_POINT('',(25.2213723675884,0.,124.6858203517));
#816=CARTESIAN_POINT('',(24.75,0.,100.662343));
#817=CARTESIAN_POINT('',(24.75,0.,100.662343));
#818=CARTESIAN_POINT('',(24.75,2001.,100.662343));
#819=CARTESIAN_POINT('',(24.75,2001.,100.662343));
#820=CARTESIAN_POINT('',(25.2213723675884,2001.,124.685820351699));
#821=CARTESIAN_POINT('',(25.2213723675884,2001.,124.685820351699));
#822=CARTESIAN_POINT('',(25.2213723675884,0.,124.6858203517));
#823=CARTESIAN_POINT('',(24.7499999999999,0.,100.662343));
#824=CARTESIAN_POINT('',(-9.9475983006414E-014,0.,100.662343));
#825=CARTESIAN_POINT('',(-9.9475983006414E-014,0.,100.662343));
#826=CARTESIAN_POINT('',(-9.9475983006414E-014,2001.,100.662343));
#827=CARTESIAN_POINT('',(-9.9475983006414E-014,2001.,100.662343));
#828=CARTESIAN_POINT('',(24.7499999999999,2001.,100.662343));
#829=CARTESIAN_POINT('',(24.7499999999999,2001.,100.662343));
#830=CARTESIAN_POINT('',(24.7499999999999,0.,100.662343));
#831=CARTESIAN_POINT('',(1.4210854715202E-014,2001.,100.662343));
#832=CARTESIAN_POINT('',(1.4210854715202E-014,0.,100.662343));
#833=CARTESIAN_POINT('',(1.4210854715202E-014,0.,100.662343));
#834=CARTESIAN_POINT('',(1.4210854715202E-014,0.,121.662343));
#835=CARTESIAN_POINT('',(1.4210854715202E-014,0.,121.662343));
#836=CARTESIAN_POINT('',(1.4210854715202E-014,2001.,121.662343));
#837=CARTESIAN_POINT('',(1.4210854715202E-014,2001.,121.662343));
#838=CARTESIAN_POINT('',(1.4210854715202E-014,2001.,100.662343));
#839=CARTESIAN_POINT('',(-2.45581333047085E-013,0.,121.662343));
#840=CARTESIAN_POINT('',(7.37403700000009,0.,125.648308));
#841=CARTESIAN_POINT('',(7.37403700000009,0.,125.648308));
#842=CARTESIAN_POINT('',(7.37403700000009,2001.,125.648308));
#843=CARTESIAN_POINT('',(7.37403700000009,2001.,125.648308));
#844=CARTESIAN_POINT('',(-2.45581333047085E-013,2001.,121.662343));
#845=CARTESIAN_POINT('',(-2.45581333047085E-013,2001.,121.662343));
#846=CARTESIAN_POINT('',(-2.45581333047085E-013,0.,121.662343));
#847=CARTESIAN_POINT('',(7.37403699999991,0.,125.648308));
#848=CARTESIAN_POINT('',(67.5608529999998,0.,185.533733));
#849=CARTESIAN_POINT('',(67.5608529999998,0.,185.533733));
#850=CARTESIAN_POINT('',(67.5608529999999,2001.,185.533733));
#851=CARTESIAN_POINT('',(67.5608529999999,2001.,185.533733));
#852=CARTESIAN_POINT('',(7.37403700000002,2001.,125.648308));
#853=CARTESIAN_POINT('',(7.37403700000002,2001.,125.648308));
#854=CARTESIAN_POINT('',(7.37403699999991,0.,125.648308));
#855=CARTESIAN_POINT('',(67.5608529999998,0.,185.533733));
#856=CARTESIAN_POINT('',(82.2909759999999,0.,189.549948));
#857=CARTESIAN_POINT('',(82.2909759999999,0.,189.549948));
#858=CARTESIAN_POINT('',(82.2909759999999,2001.,189.549948));
#859=CARTESIAN_POINT('',(82.2909759999999,2001.,189.549948));
#860=CARTESIAN_POINT('',(67.5608529999998,2001.,185.533733));
#861=CARTESIAN_POINT('',(67.5608529999998,2001.,185.533733));
#862=CARTESIAN_POINT('',(67.5608529999998,0.,185.533733));
#863=CARTESIAN_POINT('',(82.2909759999999,0.,189.549948));
#864=CARTESIAN_POINT('',(223.046719,0.,189.549948));
#865=CARTESIAN_POINT('',(223.046719,0.,189.549948));
#866=CARTESIAN_POINT('',(223.046719,2001.,189.549948));
#867=CARTESIAN_POINT('',(223.046719,2001.,189.549948));
#868=CARTESIAN_POINT('',(82.2909759999999,2001.,189.549948));
#869=CARTESIAN_POINT('',(82.2909759999999,2001.,189.549948));
#870=CARTESIAN_POINT('',(82.2909759999999,0.,189.549948));
#871=CARTESIAN_POINT('',(223.046719,0.,189.549948));
#872=CARTESIAN_POINT('',(278.607489,0.,249.5));
#873=CARTESIAN_POINT('',(278.607489,0.,249.5));
#874=CARTESIAN_POINT('',(278.607489,2001.,249.5));
#875=CARTESIAN_POINT('',(278.607489,2001.,249.5));
#876=CARTESIAN_POINT('',(223.046719,2001.,189.549948));
#877=CARTESIAN_POINT('',(223.046719,2001.,189.549948));
#878=CARTESIAN_POINT('',(223.046719,0.,189.549948));
#879=CARTESIAN_POINT('',(278.607489,0.,249.5));
#880=CARTESIAN_POINT('',(302.107489,0.,249.5));
#881=CARTESIAN_POINT('',(302.107489,0.,249.5));
#882=CARTESIAN_POINT('',(302.107489,2001.,249.5));
#883=CARTESIAN_POINT('',(302.107489,2001.,249.5));
#884=CARTESIAN_POINT('',(278.607489,2001.,249.5));
#885=CARTESIAN_POINT('',(278.607489,2001.,249.5));
#886=CARTESIAN_POINT('',(278.607489,0.,249.5));
#887=CARTESIAN_POINT('',(302.107489,0.,223.5));
#888=CARTESIAN_POINT('',(302.107489,2001.,223.5));
#889=CARTESIAN_POINT('',(302.107489,2001.,223.5));
#890=CARTESIAN_POINT('',(302.107489,2001.,249.5));
#891=CARTESIAN_POINT('',(302.107489,2001.,249.5));
#892=CARTESIAN_POINT('',(302.107489,0.,249.5));
#893=CARTESIAN_POINT('',(302.107489,0.,249.5));
#894=CARTESIAN_POINT('',(302.107489,0.,223.5));
#895=CARTESIAN_POINT('',(302.107489,0.,223.5));
#896=CARTESIAN_POINT('',(277.107489,0.,223.5));
#897=CARTESIAN_POINT('',(277.107489,0.,223.5));
#898=CARTESIAN_POINT('',(277.107489,2001.,223.5));
#899=CARTESIAN_POINT('',(277.107489,2001.,223.5));
#900=CARTESIAN_POINT('',(302.107489,2001.,223.5));
#901=CARTESIAN_POINT('',(302.107489,2001.,223.5));
#902=CARTESIAN_POINT('',(302.107489,0.,223.5));
#903=CARTESIAN_POINT('',(277.107489,0.,223.5));
#904=CARTESIAN_POINT('',(276.607489,0.,199.5));
#905=CARTESIAN_POINT('',(276.607489,0.,199.5));
#906=CARTESIAN_POINT('',(276.607489,2001.,199.5));
#907=CARTESIAN_POINT('',(276.607489,2001.,199.5));
#908=CARTESIAN_POINT('',(277.107489,2001.,223.5));
#909=CARTESIAN_POINT('',(277.107489,2001.,223.5));
#910=CARTESIAN_POINT('',(277.107489,0.,223.5));
#911=CARTESIAN_POINT('',(276.607489,0.,199.5));
#912=CARTESIAN_POINT('',(251.26577,0.,198.956538));
#913=CARTESIAN_POINT('',(251.26577,0.,198.956538));
#914=CARTESIAN_POINT('',(251.26577,2001.,198.956538));
#915=CARTESIAN_POINT('',(251.26577,2001.,198.956538));
#916=CARTESIAN_POINT('',(276.607489,2001.,199.5));
#917=CARTESIAN_POINT('',(276.607489,2001.,199.5));
#918=CARTESIAN_POINT('',(276.607489,0.,199.5));
#919=CARTESIAN_POINT('',(251.26577,0.,198.956538));
#920=CARTESIAN_POINT('',(250.631790500105,0.,174.207472));
#921=CARTESIAN_POINT('',(250.631790500105,0.,174.207472));
#922=CARTESIAN_POINT('',(250.631790500105,2001.,174.207472));
#923=CARTESIAN_POINT('',(250.631790500105,2001.,174.207472));
#924=CARTESIAN_POINT('',(251.26577,2001.,198.956538));
#925=CARTESIAN_POINT('',(251.26577,2001.,198.956538));
#926=CARTESIAN_POINT('',(251.26577,0.,198.956538));
#927=CARTESIAN_POINT('',(-1.13686837721616E-013,0.,100.662343));
#928=CARTESIAN_POINT('',(24.7499999999999,0.,100.662343));
#929=CARTESIAN_POINT('',(24.7499999999999,0.,100.662343));
#930=CARTESIAN_POINT('',(25.2213723675883,0.,124.6858203517));
#931=CARTESIAN_POINT('',(25.2213723675883,0.,124.6858203517));
#932=CARTESIAN_POINT('',(50.0082090693383,0.,125.162275606639));
#933=CARTESIAN_POINT('',(50.0082090693383,0.,125.162275606639));
#934=CARTESIAN_POINT('',(50.4105087980537,0.,149.662343));
#935=CARTESIAN_POINT('',(50.4105087980537,0.,149.662343));
#936=CARTESIAN_POINT('',(74.9999999999999,0.,149.662343));
#937=CARTESIAN_POINT('',(74.9999999999999,0.,149.662343));
#938=CARTESIAN_POINT('',(75.9303889999998,0.,174.207472));
#939=CARTESIAN_POINT('',(75.9303889999998,0.,174.207472));
#940=CARTESIAN_POINT('',(250.631790500105,0.,174.207472));
#941=CARTESIAN_POINT('',(250.631790500105,0.,174.207472));
#942=CARTESIAN_POINT('',(251.26577,0.,198.956538));
#943=CARTESIAN_POINT('',(251.26577,0.,198.956538));
#944=CARTESIAN_POINT('',(276.607489,0.,199.5));
#945=CARTESIAN_POINT('',(276.607489,0.,199.5));
#946=CARTESIAN_POINT('',(277.107489,0.,223.5));
#947=CARTESIAN_POINT('',(277.107489,0.,223.5));
#948=CARTESIAN_POINT('',(302.107489,0.,223.5));
#949=CARTESIAN_POINT('',(302.107489,0.,223.5));
#950=CARTESIAN_POINT('',(302.107489,0.,249.5));
#951=CARTESIAN_POINT('',(302.107489,0.,249.5));
#952=CARTESIAN_POINT('',(278.607489,0.,249.5));
#953=CARTESIAN_POINT('',(278.607489,0.,249.5));
#954=CARTESIAN_POINT('',(223.046719,0.,189.549948));
#955=CARTESIAN_POINT('',(223.046719,0.,189.549948));
#956=CARTESIAN_POINT('',(82.2909759999998,0.,189.549948));
#957=CARTESIAN_POINT('',(82.2909759999998,0.,189.549948));
#958=CARTESIAN_POINT('',(67.5608529999998,0.,185.533733));
#959=CARTESIAN_POINT('',(67.5608529999998,0.,185.533733));
#960=CARTESIAN_POINT('',(7.3740369999999,0.,125.648308));
#961=CARTESIAN_POINT('',(7.3740369999999,0.,125.648308));
#962=CARTESIAN_POINT('',(-1.13686837721616E-013,0.,121.662343));
#963=CARTESIAN_POINT('',(-1.13686837721616E-013,0.,121.662343));
#964=CARTESIAN_POINT('',(-1.13686837721616E-013,0.,100.662343));
#965=CARTESIAN_POINT('',(302.107489,2001.,249.5));
#966=CARTESIAN_POINT('',(302.107489,2001.,223.5));
#967=CARTESIAN_POINT('',(302.107489,2001.,223.5));
#968=CARTESIAN_POINT('',(277.107489,2001.,223.5));
#969=CARTESIAN_POINT('',(277.107489,2001.,223.5));
#970=CARTESIAN_POINT('',(276.607489,2001.,199.5));
#971=CARTESIAN_POINT('',(276.607489,2001.,199.5));
#972=CARTESIAN_POINT('',(251.26577,2001.,198.956538));
#973=CARTESIAN_POINT('',(251.26577,2001.,198.956538));
#974=CARTESIAN_POINT('',(250.631790500105,2001.,174.207472));
#975=CARTESIAN_POINT('',(250.631790500105,2001.,174.207472));
#976=CARTESIAN_POINT('',(75.9303890000001,2001.,174.207472));
#977=CARTESIAN_POINT('',(75.9303890000001,2001.,174.207472));
#978=CARTESIAN_POINT('',(75.0000000000001,2001.,149.662343));
#979=CARTESIAN_POINT('',(75.0000000000001,2001.,149.662343));
#980=CARTESIAN_POINT('',(50.4105087980539,2001.,149.662343));
#981=CARTESIAN_POINT('',(50.4105087980539,2001.,149.662343));
#982=CARTESIAN_POINT('',(50.0082090693385,2001.,125.162275606639));
#983=CARTESIAN_POINT('',(50.0082090693385,2001.,125.162275606639));
#984=CARTESIAN_POINT('',(25.2213723675885,2001.,124.6858203517));
#985=CARTESIAN_POINT('',(25.2213723675885,2001.,124.6858203517));
#986=CARTESIAN_POINT('',(24.7500000000001,2001.,100.662343));
#987=CARTESIAN_POINT('',(24.7500000000001,2001.,100.662343));
#988=CARTESIAN_POINT('',(1.13686837721616E-013,2001.,100.662343));
#989=CARTESIAN_POINT('',(1.13686837721616E-013,2001.,100.662343));
#990=CARTESIAN_POINT('',(1.13686837721616E-013,2001.,121.662343));
#991=CARTESIAN_POINT('',(1.13686837721616E-013,2001.,121.662343));
#992=CARTESIAN_POINT('',(7.37403700000013,2001.,125.648308));
#993=CARTESIAN_POINT('',(7.37403700000013,2001.,125.648308));
#994=CARTESIAN_POINT('',(67.5608530000001,2001.,185.533733));
#995=CARTESIAN_POINT('',(67.5608530000001,2001.,185.533733));
#996=CARTESIAN_POINT('',(82.2909760000001,2001.,189.549948));
#997=CARTESIAN_POINT('',(82.2909760000001,2001.,189.549948));
#998=CARTESIAN_POINT('',(223.046719,2001.,189.549948));
#999=CARTESIAN_POINT('',(223.046719,2001.,189.549948));
#1000=CARTESIAN_POINT('',(278.607489,2001.,249.5));
#1001=CARTESIAN_POINT('',(278.607489,2001.,249.5));
#1002=CARTESIAN_POINT('',(302.107489,2001.,249.5));
#1003=CARTESIAN_POINT('',(163.281089750052,1000.5,174.207472));
#1004=CARTESIAN_POINT('',(75.4651945,1000.5,161.9349075));
#1005=CARTESIAN_POINT('',(62.7052543990268,1000.5,149.662343));
#1006=CARTESIAN_POINT('',(50.2093589336961,1000.5,137.412309303319));
#1007=CARTESIAN_POINT('',(37.6147907184632,1000.5,124.924047979169));
#1008=CARTESIAN_POINT('',(24.9856861837942,1000.5,112.67408167585));
#1009=CARTESIAN_POINT('',(12.3749999999999,1000.5,100.662343));
#1010=CARTESIAN_POINT('',(1.4210854715202E-014,1000.5,111.162343));
#1011=CARTESIAN_POINT('',(3.68701849999992,1000.5,123.6553255));
#1012=CARTESIAN_POINT('',(37.467445,1000.5,155.5910205));
#1013=CARTESIAN_POINT('',(74.9259144999999,1000.5,187.5418405));
#1014=CARTESIAN_POINT('',(152.6688475,1000.5,189.549948));
#1015=CARTESIAN_POINT('',(250.827104,1000.5,219.524974));
#1016=CARTESIAN_POINT('',(290.357489,1000.5,249.5));
#1017=CARTESIAN_POINT('',(302.107489,1000.5,236.5));
#1018=CARTESIAN_POINT('',(289.607489,1000.5,223.5));
#1019=CARTESIAN_POINT('',(276.857489,1000.5,211.5));
#1020=CARTESIAN_POINT('',(263.9366295,1000.5,199.228269));
#1021=CARTESIAN_POINT('',(250.948780250052,1000.5,186.582005));
#1022=CARTESIAN_POINT('',(151.0537445,0.,175.0811715));
#1023=CARTESIAN_POINT('',(151.0537445,2001.,175.0811715));
#1024=PRODUCT_DEFINITION_SHAPE('','',#1025);
#1025=PRODUCT_DEFINITION('','',#1037,#1042);
#1026=(
GEOMETRIC_REPRESENTATION_CONTEXT(3)
GLOBAL_UNCERTAINTY_ASSIGNED_CONTEXT((#1027))
GLOBAL_UNIT_ASSIGNED_CONTEXT((#1029,#1028,#1032))
REPRESENTATION_CONTEXT('','')
);
#1027=UNCERTAINTY_MEASURE_WITH_UNIT(LENGTH_MEASURE(0.001),#1029,'','tolerance'
);
#1028=(
CONVERSION_BASED_UNIT('',#1030)
NAMED_UNIT(#1036)
PLANE_ANGLE_UNIT()
);
#1029=(
CONVERSION_BASED_UNIT('',#1031)
LENGTH_UNIT()
NAMED_UNIT(#1035)
);
#1030=PLANE_ANGLE_MEASURE_WITH_UNIT(PLANE_ANGLE_MEASURE(0.0174532925199433),
#1033);
#1031=LENGTH_MEASURE_WITH_UNIT(LENGTH_MEASURE(1.),#1034);
#1032=(
NAMED_UNIT(*)
SI_UNIT($,.STERADIAN.)
SOLID_ANGLE_UNIT()
);
#1033=(
NAMED_UNIT(*)
PLANE_ANGLE_UNIT()
SI_UNIT($,.RADIAN.)
);
#1034=(
LENGTH_UNIT()
NAMED_UNIT(*)
SI_UNIT(.MILLI.,.METRE.)
);
#1035=DIMENSIONAL_EXPONENTS(1.,0.,0.,0.,0.,0.,0.);
#1036=DIMENSIONAL_EXPONENTS(0.,0.,0.,0.,0.,0.,0.);
#1037=PRODUCT_DEFINITION_FORMATION_WITH_SPECIFIED_SOURCE('','',#1040,
.NOT_KNOWN.);
#1038=PRODUCT_CATEGORY_RELATIONSHIP('','',#1043,#1039);
#1039=PRODUCT_RELATED_PRODUCT_CATEGORY('assembly','',(#1040));
#1040=PRODUCT('','master','',(#1041));
#1041=PRODUCT_CONTEXT('',#1045,'');
#1042=PRODUCT_DEFINITION_CONTEXT('',#1045,'part_definition');
#1043=PRODUCT_CATEGORY('part','');
#1044=APPLICATION_PROTOCOL_DEFINITION('international standard',
'automotive_design_cc2',1994,#1045);
#1045=APPLICATION_CONTEXT(
'configuration controlled 3D designs of mechanical parts and assemblies');
ENDSEC;
END-ISO-10303-21;
55781