ISO-10303-21;
HEADER;
/* Generated by software using Delcam plc STEP library */

FILE_DESCRIPTION(
/* description */ ('AP-214 File'),
/* implementation_level */ '2;1');

FILE_NAME(
/* name */ 'D576',
/* time_stamp */ 'Tue Oct 03 12:21:25 2017',
/* author */ (''),
/* organization */ (''),
/* preprocessor_version */ 'DELCAM STEP V1',
/* originating_system */ 'Exchange7.1.0006',
/* authorisation */ '');

FILE_SCHEMA (('AUTOMOTIVE_DESIGN'));
ENDSEC;
DATA;
#10=PRESENTATION_STYLE_ASSIGNMENT((#20));
#11=PRESENTATION_STYLE_ASSIGNMENT((#21));
#12=SURFACE_SIDE_STYLE('',(#14));
#13=SURFACE_SIDE_STYLE('',(#15));
#14=SURFACE_STYLE_FILL_AREA(#16);
#15=SURFACE_STYLE_FILL_AREA(#17);
#16=FILL_AREA_STYLE('',(#18));
#17=FILL_AREA_STYLE('',(#19));
#18=FILL_AREA_STYLE_COLOUR('',#36);
#19=FILL_AREA_STYLE_COLOUR('',#37);
#20=SURFACE_STYLE_USAGE(.BOTH.,#12);
#21=SURFACE_STYLE_USAGE(.BOTH.,#13);
#22=STYLED_ITEM('',(#10),#44);
#23=STYLED_ITEM('',(#10),#45);
#24=STYLED_ITEM('',(#10),#46);
#25=STYLED_ITEM('',(#10),#47);
#26=STYLED_ITEM('',(#10),#48);
#27=STYLED_ITEM('',(#10),#49);
#28=STYLED_ITEM('',(#10),#50);
#29=STYLED_ITEM('',(#10),#51);
#30=STYLED_ITEM('',(#10),#52);
#31=STYLED_ITEM('',(#10),#53);
#32=STYLED_ITEM('',(#10),#54);
#33=STYLED_ITEM('',(#10),#55);
#34=STYLED_ITEM('',(#10),#56);
#35=STYLED_ITEM('',(#11),#43);
#36=COLOUR_RGB('',0.,0.,0.);
#37=COLOUR_RGB('rgb_colour_1',0.4,0.4,0.4);
#38=MECHANICAL_DESIGN_GEOMETRIC_PRESENTATION_REPRESENTATION('',(#22,#23,#24,
#25,#26,#27,#28,#29,#30,#31,#32,#33,#34,#35),#431);
#39=PRESENTATION_LAYER_ASSIGNMENT('78','D576',(#44,#45,#46,#47,#48,#49,#50,#51
,#52,#53,#54,#55,#56,#43));
#40=SHAPE_REPRESENTATION_RELATIONSHIP('','',#284,#41);
#41=ADVANCED_BREP_SHAPE_REPRESENTATION('',(#42),#431);
#42=MANIFOLD_SOLID_BREP('1289',#43);
#43=CLOSED_SHELL('',(#44,#45,#46,#47,#48,#49,#50,#51,#52,#53,#54,#55,#56));
#44=ADVANCED_FACE('',(#57),#149,.T.);
#45=ADVANCED_FACE('',(#58),#150,.T.);
#46=ADVANCED_FACE('',(#59),#151,.T.);
#47=ADVANCED_FACE('',(#60),#152,.T.);
#48=ADVANCED_FACE('',(#61),#153,.T.);
#49=ADVANCED_FACE('',(#62),#154,.T.);
#50=ADVANCED_FACE('',(#63),#155,.T.);
#51=ADVANCED_FACE('',(#64),#156,.T.);
#52=ADVANCED_FACE('',(#65),#157,.T.);
#53=ADVANCED_FACE('',(#66),#158,.T.);
#54=ADVANCED_FACE('',(#67),#159,.T.);
#55=ADVANCED_FACE('',(#68),#160,.T.);
#56=ADVANCED_FACE('',(#69),#161,.F.);
#57=FACE_OUTER_BOUND('',#70,.T.);
#58=FACE_OUTER_BOUND('',#71,.T.);
#59=FACE_OUTER_BOUND('',#72,.T.);
#60=FACE_OUTER_BOUND('',#73,.T.);
#61=FACE_OUTER_BOUND('',#74,.T.);
#62=FACE_OUTER_BOUND('',#75,.T.);
#63=FACE_OUTER_BOUND('',#76,.T.);
#64=FACE_OUTER_BOUND('',#77,.T.);
#65=FACE_OUTER_BOUND('',#78,.T.);
#66=FACE_OUTER_BOUND('',#79,.T.);
#67=FACE_OUTER_BOUND('',#80,.T.);
#68=FACE_OUTER_BOUND('',#81,.T.);
#69=FACE_OUTER_BOUND('',#82,.T.);
#70=EDGE_LOOP('',(#83,#84,#85,#86));
#71=EDGE_LOOP('',(#87,#88,#89,#90));
#72=EDGE_LOOP('',(#91,#92,#93,#94));
#73=EDGE_LOOP('',(#95,#96,#97,#98));
#74=EDGE_LOOP('',(#99,#100,#101,#102));
#75=EDGE_LOOP('',(#103,#104,#105,#106));
#76=EDGE_LOOP('',(#107,#108,#109,#110));
#77=EDGE_LOOP('',(#111,#112,#113,#114));
#78=EDGE_LOOP('',(#115,#116,#117,#118));
#79=EDGE_LOOP('',(#119,#120,#121,#122));
#80=EDGE_LOOP('',(#123,#124,#125,#126));
#81=EDGE_LOOP('',(#127,#128,#129,#130,#131,#132,#133,#134,#135,#136,#137));
#82=EDGE_LOOP('',(#138,#139,#140,#141,#142,#143,#144,#145,#146,#147,#148));
#83=ORIENTED_EDGE('',*,*,#194,.F.);
#84=ORIENTED_EDGE('',*,*,#172,.F.);
#85=ORIENTED_EDGE('',*,*,#183,.T.);
#86=ORIENTED_EDGE('',*,*,#162,.T.);
#87=ORIENTED_EDGE('',*,*,#193,.F.);
#88=ORIENTED_EDGE('',*,*,#162,.F.);
#89=ORIENTED_EDGE('',*,*,#182,.T.);
#90=ORIENTED_EDGE('',*,*,#163,.T.);
#91=ORIENTED_EDGE('',*,*,#192,.F.);
#92=ORIENTED_EDGE('',*,*,#163,.F.);
#93=ORIENTED_EDGE('',*,*,#181,.T.);
#94=ORIENTED_EDGE('',*,*,#164,.T.);
#95=ORIENTED_EDGE('',*,*,#191,.F.);
#96=ORIENTED_EDGE('',*,*,#164,.F.);
#97=ORIENTED_EDGE('',*,*,#180,.T.);
#98=ORIENTED_EDGE('',*,*,#165,.T.);
#99=ORIENTED_EDGE('',*,*,#190,.F.);
#100=ORIENTED_EDGE('',*,*,#165,.F.);
#101=ORIENTED_EDGE('',*,*,#179,.T.);
#102=ORIENTED_EDGE('',*,*,#166,.T.);
#103=ORIENTED_EDGE('',*,*,#189,.F.);
#104=ORIENTED_EDGE('',*,*,#166,.F.);
#105=ORIENTED_EDGE('',*,*,#178,.T.);
#106=ORIENTED_EDGE('',*,*,#167,.T.);
#107=ORIENTED_EDGE('',*,*,#188,.F.);
#108=ORIENTED_EDGE('',*,*,#167,.F.);
#109=ORIENTED_EDGE('',*,*,#177,.T.);
#110=ORIENTED_EDGE('',*,*,#168,.T.);
#111=ORIENTED_EDGE('',*,*,#187,.F.);
#112=ORIENTED_EDGE('',*,*,#168,.F.);
#113=ORIENTED_EDGE('',*,*,#176,.T.);
#114=ORIENTED_EDGE('',*,*,#169,.T.);
#115=ORIENTED_EDGE('',*,*,#186,.F.);
#116=ORIENTED_EDGE('',*,*,#169,.F.);
#117=ORIENTED_EDGE('',*,*,#175,.T.);
#118=ORIENTED_EDGE('',*,*,#170,.T.);
#119=ORIENTED_EDGE('',*,*,#185,.F.);
#120=ORIENTED_EDGE('',*,*,#170,.F.);
#121=ORIENTED_EDGE('',*,*,#174,.T.);
#122=ORIENTED_EDGE('',*,*,#171,.T.);
#123=ORIENTED_EDGE('',*,*,#184,.F.);
#124=ORIENTED_EDGE('',*,*,#171,.F.);
#125=ORIENTED_EDGE('',*,*,#173,.T.);
#126=ORIENTED_EDGE('',*,*,#172,.T.);
#127=ORIENTED_EDGE('',*,*,#183,.F.);
#128=ORIENTED_EDGE('',*,*,#173,.F.);
#129=ORIENTED_EDGE('',*,*,#174,.F.);
#130=ORIENTED_EDGE('',*,*,#175,.F.);
#131=ORIENTED_EDGE('',*,*,#176,.F.);
#132=ORIENTED_EDGE('',*,*,#177,.F.);
#133=ORIENTED_EDGE('',*,*,#178,.F.);
#134=ORIENTED_EDGE('',*,*,#179,.F.);
#135=ORIENTED_EDGE('',*,*,#180,.F.);
#136=ORIENTED_EDGE('',*,*,#181,.F.);
#137=ORIENTED_EDGE('',*,*,#182,.F.);
#138=ORIENTED_EDGE('',*,*,#194,.T.);
#139=ORIENTED_EDGE('',*,*,#193,.T.);
#140=ORIENTED_EDGE('',*,*,#192,.T.);
#141=ORIENTED_EDGE('',*,*,#191,.T.);
#142=ORIENTED_EDGE('',*,*,#190,.T.);
#143=ORIENTED_EDGE('',*,*,#189,.T.);
#144=ORIENTED_EDGE('',*,*,#188,.T.);
#145=ORIENTED_EDGE('',*,*,#187,.T.);
#146=ORIENTED_EDGE('',*,*,#186,.T.);
#147=ORIENTED_EDGE('',*,*,#185,.T.);
#148=ORIENTED_EDGE('',*,*,#184,.T.);
#149=PLANE('',#286);
#150=PLANE('',#287);
#151=PLANE('',#288);
#152=PLANE('',#289);
#153=PLANE('',#290);
#154=PLANE('',#291);
#155=PLANE('',#292);
#156=PLANE('',#293);
#157=PLANE('',#294);
#158=PLANE('',#295);
#159=PLANE('',#296);
#160=PLANE('',#297);
#161=PLANE('',#298);
#162=EDGE_CURVE('',#271,#282,#195,.T.);
#163=EDGE_CURVE('',#270,#281,#196,.T.);
#164=EDGE_CURVE('',#269,#280,#197,.T.);
#165=EDGE_CURVE('',#268,#279,#198,.T.);
#166=EDGE_CURVE('',#267,#278,#199,.T.);
#167=EDGE_CURVE('',#266,#277,#200,.T.);
#168=EDGE_CURVE('',#265,#276,#201,.T.);
#169=EDGE_CURVE('',#264,#275,#202,.T.);
#170=EDGE_CURVE('',#263,#274,#203,.T.);
#171=EDGE_CURVE('',#262,#273,#204,.T.);
#172=EDGE_CURVE('',#261,#272,#205,.T.);
#173=EDGE_CURVE('',#262,#261,#206,.T.);
#174=EDGE_CURVE('',#263,#262,#207,.T.);
#175=EDGE_CURVE('',#264,#263,#208,.T.);
#176=EDGE_CURVE('',#265,#264,#209,.T.);
#177=EDGE_CURVE('',#266,#265,#210,.T.);
#178=EDGE_CURVE('',#267,#266,#211,.T.);
#179=EDGE_CURVE('',#268,#267,#212,.T.);
#180=EDGE_CURVE('',#269,#268,#213,.T.);
#181=EDGE_CURVE('',#270,#269,#214,.T.);
#182=EDGE_CURVE('',#271,#270,#215,.T.);
#183=EDGE_CURVE('',#261,#271,#216,.T.);
#184=EDGE_CURVE('',#273,#272,#217,.T.);
#185=EDGE_CURVE('',#274,#273,#218,.T.);
#186=EDGE_CURVE('',#275,#274,#219,.T.);
#187=EDGE_CURVE('',#276,#275,#220,.T.);
#188=EDGE_CURVE('',#277,#276,#221,.T.);
#189=EDGE_CURVE('',#278,#277,#222,.T.);
#190=EDGE_CURVE('',#279,#278,#223,.T.);
#191=EDGE_CURVE('',#280,#279,#224,.T.);
#192=EDGE_CURVE('',#281,#280,#225,.T.);
#193=EDGE_CURVE('',#282,#281,#226,.T.);
#194=EDGE_CURVE('',#272,#282,#227,.T.);
#195=LINE('',#383,#228);
#196=LINE('',#384,#229);
#197=LINE('',#385,#230);
#198=LINE('',#386,#231);
#199=LINE('',#387,#232);
#200=LINE('',#388,#233);
#201=LINE('',#389,#234);
#202=LINE('',#390,#235);
#203=LINE('',#391,#236);
#204=LINE('',#392,#237);
#205=LINE('',#393,#238);
#206=LINE('',#394,#239);
#207=LINE('',#395,#240);
#208=LINE('',#396,#241);
#209=LINE('',#397,#242);
#210=LINE('',#398,#243);
#211=LINE('',#399,#244);
#212=LINE('',#400,#245);
#213=LINE('',#401,#246);
#214=LINE('',#402,#247);
#215=LINE('',#403,#248);
#216=LINE('',#404,#249);
#217=LINE('',#405,#250);
#218=LINE('',#406,#251);
#219=LINE('',#407,#252);
#220=LINE('',#408,#253);
#221=LINE('',#409,#254);
#222=LINE('',#410,#255);
#223=LINE('',#411,#256);
#224=LINE('',#412,#257);
#225=LINE('',#413,#258);
#226=LINE('',#414,#259);
#227=LINE('',#415,#260);
#228=VECTOR('',#301,1.);
#229=VECTOR('',#302,1.);
#230=VECTOR('',#303,1.);
#231=VECTOR('',#304,1.);
#232=VECTOR('',#305,1.);
#233=VECTOR('',#306,1.);
#234=VECTOR('',#307,1.);
#235=VECTOR('',#308,1.);
#236=VECTOR('',#309,1.);
#237=VECTOR('',#310,1.);
#238=VECTOR('',#311,1.);
#239=VECTOR('',#312,1.);
#240=VECTOR('',#313,1.);
#241=VECTOR('',#314,1.);
#242=VECTOR('',#315,1.);
#243=VECTOR('',#316,1.);
#244=VECTOR('',#317,1.);
#245=VECTOR('',#318,1.);
#246=VECTOR('',#319,1.);
#247=VECTOR('',#320,1.);
#248=VECTOR('',#321,1.);
#249=VECTOR('',#322,1.);
#250=VECTOR('',#323,1.);
#251=VECTOR('',#324,1.);
#252=VECTOR('',#325,1.);
#253=VECTOR('',#326,1.);
#254=VECTOR('',#327,1.);
#255=VECTOR('',#328,1.);
#256=VECTOR('',#329,1.);
#257=VECTOR('',#330,1.);
#258=VECTOR('',#331,1.);
#259=VECTOR('',#332,1.);
#260=VECTOR('',#333,1.);
#261=VERTEX_POINT('',#361);
#262=VERTEX_POINT('',#362);
#263=VERTEX_POINT('',#363);
#264=VERTEX_POINT('',#364);
#265=VERTEX_POINT('',#365);
#266=VERTEX_POINT('',#366);
#267=VERTEX_POINT('',#367);
#268=VERTEX_POINT('',#368);
#269=VERTEX_POINT('',#369);
#270=VERTEX_POINT('',#370);
#271=VERTEX_POINT('',#371);
#272=VERTEX_POINT('',#372);
#273=VERTEX_POINT('',#373);
#274=VERTEX_POINT('',#374);
#275=VERTEX_POINT('',#375);
#276=VERTEX_POINT('',#376);
#277=VERTEX_POINT('',#377);
#278=VERTEX_POINT('',#378);
#279=VERTEX_POINT('',#379);
#280=VERTEX_POINT('',#380);
#281=VERTEX_POINT('',#381);
#282=VERTEX_POINT('',#382);
#283=SHAPE_DEFINITION_REPRESENTATION(#429,#284);
#284=SHAPE_REPRESENTATION('master',(#285),#431);
#285=AXIS2_PLACEMENT_3D('',#360,#300,#299);
#286=AXIS2_PLACEMENT_3D('',#416,#335,#334);
#287=AXIS2_PLACEMENT_3D('',#417,#337,#336);
#288=AXIS2_PLACEMENT_3D('',#418,#339,#338);
#289=AXIS2_PLACEMENT_3D('',#419,#341,#340);
#290=AXIS2_PLACEMENT_3D('',#420,#343,#342);
#291=AXIS2_PLACEMENT_3D('',#421,#345,#344);
#292=AXIS2_PLACEMENT_3D('',#422,#347,#346);
#293=AXIS2_PLACEMENT_3D('',#423,#349,#348);
#294=AXIS2_PLACEMENT_3D('',#424,#351,#350);
#295=AXIS2_PLACEMENT_3D('',#425,#353,#352);
#296=AXIS2_PLACEMENT_3D('',#426,#355,#354);
#297=AXIS2_PLACEMENT_3D('',#427,#357,#356);
#298=AXIS2_PLACEMENT_3D('',#428,#359,#358);
#299=DIRECTION('',(1.,0.,0.));
#300=DIRECTION('',(0.,0.,1.));
#301=DIRECTION('',(5.8980598183212E-017,-1.,-3.14376564515028E-015));
#302=DIRECTION('',(5.8980598183212E-017,-1.,-3.14376564515028E-015));
#303=DIRECTION('',(5.8980598183212E-017,-1.,-3.14376564515028E-015));
#304=DIRECTION('',(5.8980598183212E-017,-1.,-3.14376564515028E-015));
#305=DIRECTION('',(5.8980598183212E-017,-1.,-3.14376564515028E-015));
#306=DIRECTION('',(5.8980598183212E-017,-1.,-3.14376564515028E-015));
#307=DIRECTION('',(5.8980598183212E-017,-1.,-3.14376564515028E-015));
#308=DIRECTION('',(5.8980598183212E-017,-1.,-3.14376564515028E-015));
#309=DIRECTION('',(5.8980598183212E-017,-1.,-3.14376564515028E-015));
#310=DIRECTION('',(5.8980598183212E-017,-1.,-3.14376564515028E-015));
#311=DIRECTION('',(5.8980598183212E-017,-1.,-3.14376564515028E-015));
#312=DIRECTION('',(-1.,-6.687461042448E-015,0.));
#313=DIRECTION('',(0.,0.,1.));
#314=DIRECTION('',(1.,3.81318349699025E-016,-0.));
#315=DIRECTION('',(-0.,-0.,1.));
#316=DIRECTION('',(0.999882675588165,-1.43933357239253E-015,0.0153178020176792
));
#317=DIRECTION('',(0.00113129338676917,-1.09366188292722E-014,
0.999999360087432));
#318=DIRECTION('',(0.9994801143397,1.83270538007935E-015,-0.0322412940109581)
);
#319=DIRECTION('',(-0.0643819697356654,4.42778394763131E-015,
-0.997925328856301));
#320=DIRECTION('',(-0.935840335462554,7.23111596620375E-016,-0.352424270619));
#321=DIRECTION('',(-1.,5.42337849607425E-016,0.));
#322=DIRECTION('',(-0.920914477029945,-0.,-0.389764705940216));
#323=DIRECTION('',(-1.,-6.687461042448E-015,0.));
#324=DIRECTION('',(0.,0.,1.));
#325=DIRECTION('',(1.,3.81318349699025E-016,-0.));
#326=DIRECTION('',(-0.,-0.,1.));
#327=DIRECTION('',(0.999882675588165,-1.43933357239253E-015,0.0153178020176792
));
#328=DIRECTION('',(0.00113129338676917,-1.09366188292722E-014,
0.999999360087432));
#329=DIRECTION('',(0.9994801143397,1.83270538007935E-015,-0.0322412940109581)
);
#330=DIRECTION('',(-0.0643819697356654,4.42778394763131E-015,
-0.997925328856301));
#331=DIRECTION('',(-0.935840335462554,7.23111596620375E-016,-0.352424270619));
#332=DIRECTION('',(-1.,5.42337849607425E-016,0.));
#333=DIRECTION('',(-0.920914477029945,-0.,-0.389764705940216));
#334=DIRECTION('',(0.920914477029945,0.,0.389764705940216));
#335=DIRECTION('',(-0.389764705940216,-2.91812785051534E-015,0.920914477029945
));
#336=DIRECTION('',(0.,-1.,-3.14376564515028E-015));
#337=DIRECTION('',(-1.7049830996605E-030,-3.14376564515028E-015,1.));
#338=DIRECTION('',(0.935840335462554,0.,0.352424270619));
#339=DIRECTION('',(-0.352424270619,-2.96284889026848E-015,0.935840335462554));
#340=DIRECTION('',(0.0643819697356654,-3.08148791101958E-033,0.997925328856301
));
#341=DIRECTION('',(-0.997925328856301,-2.61260057460213E-016,
0.0643819697356654));
#342=DIRECTION('',(-0.9994801143397,0.,0.0322412940109581));
#343=DIRECTION('',(-0.0322412940109581,3.14022963566506E-015,-0.9994801143397)
);
#344=DIRECTION('',(-0.00113129338676917,0.,-0.999999360087432));
#345=DIRECTION('',(0.999999360087432,6.25370817246966E-017,
-0.00113129338676917));
#346=DIRECTION('',(-0.999882675588165,0.,-0.0153178020176792));
#347=DIRECTION('',(0.0153178020176792,3.14430025782087E-015,-0.999882675588165
));
#348=DIRECTION('',(-5.8980598183212E-017,1.,0.));
#349=DIRECTION('',(1.,5.8980598183212E-017,0.));
#350=DIRECTION('',(0.,1.,3.14376564515028E-015));
#351=DIRECTION('',(-1.1987755276492E-030,3.14376564515028E-015,-1.));
#352=DIRECTION('',(-5.8980598183212E-017,1.,0.));
#353=DIRECTION('',(1.,5.8980598183212E-017,-0.));
#354=DIRECTION('',(0.,-1.,-3.14376564515028E-015));
#355=DIRECTION('',(2.10238102785289E-029,-3.14376564515028E-015,1.));
#356=DIRECTION('',(0.,-0.,1.));
#357=DIRECTION('',(-0.,1.,0.));
#358=DIRECTION('',(0.,-0.,1.));
#359=DIRECTION('',(-0.,1.,0.));
#360=CARTESIAN_POINT('',(0.,0.,0.));
#361=CARTESIAN_POINT('',(316.706645127753,2310.52767452777,2249.49999999989));
#362=CARTESIAN_POINT('',(333.706645127753,2310.52767452777,2249.49999999989));
#363=CARTESIAN_POINT('',(333.706645127753,2310.52767452777,2225.09529699989));
#364=CARTESIAN_POINT('',(184.635878127753,2310.52767452777,2225.09529699989));
#365=CARTESIAN_POINT('',(184.635878127753,2310.52767452777,2209.09529699989));
#366=CARTESIAN_POINT('',(145.147637993364,2310.52767452777,2208.49035298079));
#367=CARTESIAN_POINT('',(145.135878127753,2310.52767452777,2198.09529699989));
#368=CARTESIAN_POINT('',(114.135878127753,2310.52767452777,2199.09529699989));
#369=CARTESIAN_POINT('',(114.962406999995,2310.52767452777,2211.90655611527));
#370=CARTESIAN_POINT('',(188.528319127753,2310.52767452777,2239.61044099989));
#371=CARTESIAN_POINT('',(293.340142425637,2310.52767452777,2239.61044099989));
#372=CARTESIAN_POINT('',(316.706645127753,310.527674527773,2249.49999999989));
#373=CARTESIAN_POINT('',(333.706645127753,310.527674527773,2249.49999999989));
#374=CARTESIAN_POINT('',(333.706645127753,310.527674527773,2225.09529699989));
#375=CARTESIAN_POINT('',(184.635878127753,310.527674527773,2225.09529699989));
#376=CARTESIAN_POINT('',(184.635878127753,310.527674527773,2209.09529699989));
#377=CARTESIAN_POINT('',(145.147637993364,310.527674527773,2208.49035298078));
#378=CARTESIAN_POINT('',(145.135878127753,310.527674527774,2198.09529699989));
#379=CARTESIAN_POINT('',(114.135878127753,310.527674527774,2199.09529699989));
#380=CARTESIAN_POINT('',(114.962406999995,310.527674527773,2211.90655611526));
#381=CARTESIAN_POINT('',(188.528319127753,310.527674527773,2239.61044099989));
#382=CARTESIAN_POINT('',(293.340142425637,310.527674527773,2239.61044099989));
#383=CARTESIAN_POINT('',(293.340142425637,2310.52767452777,2239.61044099989));
#384=CARTESIAN_POINT('',(188.528319127753,2310.52767452777,2239.61044099989));
#385=CARTESIAN_POINT('',(114.962406999995,2310.52767452777,2211.90655611527));
#386=CARTESIAN_POINT('',(114.135878127753,2310.52767452777,2199.09529699989));
#387=CARTESIAN_POINT('',(145.135878127753,2310.52767452777,2198.09529699989));
#388=CARTESIAN_POINT('',(145.147637993364,2310.52767452777,2208.49035298079));
#389=CARTESIAN_POINT('',(184.635878127753,2310.52767452777,2209.09529699989));
#390=CARTESIAN_POINT('',(184.635878127753,2310.52767452777,2225.09529699989));
#391=CARTESIAN_POINT('',(333.706645127753,2310.52767452777,2225.09529699989));
#392=CARTESIAN_POINT('',(333.706645127753,2310.52767452777,2249.49999999989));
#393=CARTESIAN_POINT('',(316.706645127753,2310.52767452777,2249.49999999989));
#394=CARTESIAN_POINT('',(333.706645127753,2310.52767452777,2249.49999999989));
#395=CARTESIAN_POINT('',(333.706645127753,2310.52767452777,2225.09529699989));
#396=CARTESIAN_POINT('',(184.635878127753,2310.52767452777,2225.09529699989));
#397=CARTESIAN_POINT('',(184.635878127753,2310.52767452777,2209.09529699989));
#398=CARTESIAN_POINT('',(145.147637993364,2310.52767452777,2208.49035298079));
#399=CARTESIAN_POINT('',(145.135878127753,2310.52767452777,2198.09529699989));
#400=CARTESIAN_POINT('',(114.135878127753,2310.52767452777,2199.09529699989));
#401=CARTESIAN_POINT('',(114.962406999995,2310.52767452777,2211.90655611527));
#402=CARTESIAN_POINT('',(188.528319127753,2310.52767452777,2239.61044099989));
#403=CARTESIAN_POINT('',(293.340142425637,2310.52767452777,2239.61044099989));
#404=CARTESIAN_POINT('',(316.706645127753,2310.52767452777,2249.49999999989));
#405=CARTESIAN_POINT('',(333.706645127753,310.527674527773,2249.49999999989));
#406=CARTESIAN_POINT('',(333.706645127753,310.527674527773,2225.09529699989));
#407=CARTESIAN_POINT('',(184.635878127753,310.527674527773,2225.09529699989));
#408=CARTESIAN_POINT('',(184.635878127753,310.527674527773,2209.09529699989));
#409=CARTESIAN_POINT('',(145.147637993364,310.527674527773,2208.49035298078));
#410=CARTESIAN_POINT('',(145.135878127753,310.527674527774,2198.09529699989));
#411=CARTESIAN_POINT('',(114.135878127753,310.527674527774,2199.09529699989));
#412=CARTESIAN_POINT('',(114.962406999995,310.527674527773,2211.90655611526));
#413=CARTESIAN_POINT('',(188.528319127753,310.527674527773,2239.61044099989));
#414=CARTESIAN_POINT('',(293.340142425637,310.527674527773,2239.61044099989));
#415=CARTESIAN_POINT('',(316.706645127753,310.527674527773,2249.49999999989));
#416=CARTESIAN_POINT('',(316.706645127753,2310.52767452777,2249.49999999989));
#417=CARTESIAN_POINT('',(293.340142425637,2310.52767452777,2239.61044099989));
#418=CARTESIAN_POINT('',(188.528319127753,2310.52767452777,2239.61044099989));
#419=CARTESIAN_POINT('',(114.962406999995,2310.52767452777,2211.90655611527));
#420=CARTESIAN_POINT('',(114.135878127753,2310.52767452777,2199.09529699989));
#421=CARTESIAN_POINT('',(145.135878127753,2310.52767452777,2198.09529699989));
#422=CARTESIAN_POINT('',(145.147637993364,2310.52767452777,2208.49035298079));
#423=CARTESIAN_POINT('',(184.635878127753,2310.52767452777,2209.09529699989));
#424=CARTESIAN_POINT('',(184.635878127753,2310.52767452777,2225.09529699989));
#425=CARTESIAN_POINT('',(333.706645127753,2310.52767452777,2225.09529699989));
#426=CARTESIAN_POINT('',(333.706645127753,2310.52767452777,2249.49999999989));
#427=CARTESIAN_POINT('',(-1.17961196366424E-013,2310.52767452777,
6.28753129030056E-012));
#428=CARTESIAN_POINT('',(-0.,310.527674527773,0.));
#429=PRODUCT_DEFINITION_SHAPE('','',#430);
#430=PRODUCT_DEFINITION('','',#442,#447);
#431=(
GEOMETRIC_REPRESENTATION_CONTEXT(3)
GLOBAL_UNCERTAINTY_ASSIGNED_CONTEXT((#432))
GLOBAL_UNIT_ASSIGNED_CONTEXT((#434,#433,#437))
REPRESENTATION_CONTEXT('','')
);
#432=UNCERTAINTY_MEASURE_WITH_UNIT(LENGTH_MEASURE(0.001),#434,'','tolerance');
#433=(
CONVERSION_BASED_UNIT('',#435)
NAMED_UNIT(#441)
PLANE_ANGLE_UNIT()
);
#434=(
CONVERSION_BASED_UNIT('',#436)
LENGTH_UNIT()
NAMED_UNIT(#440)
);
#435=PLANE_ANGLE_MEASURE_WITH_UNIT(PLANE_ANGLE_MEASURE(0.0174532925199433),
#438);
#436=LENGTH_MEASURE_WITH_UNIT(LENGTH_MEASURE(1.),#439);
#437=(
NAMED_UNIT(*)
SI_UNIT($,.STERADIAN.)
SOLID_ANGLE_UNIT()
);
#438=(
NAMED_UNIT(*)
PLANE_ANGLE_UNIT()
SI_UNIT($,.RADIAN.)
);
#439=(
LENGTH_UNIT()
NAMED_UNIT(*)
SI_UNIT(.MILLI.,.METRE.)
);
#440=DIMENSIONAL_EXPONENTS(1.,0.,0.,0.,0.,0.,0.);
#441=DIMENSIONAL_EXPONENTS(0.,0.,0.,0.,0.,0.,0.);
#442=PRODUCT_DEFINITION_FORMATION_WITH_SPECIFIED_SOURCE('','',#445,.NOT_KNOWN.
);
#443=PRODUCT_CATEGORY_RELATIONSHIP('','',#448,#444);
#444=PRODUCT_RELATED_PRODUCT_CATEGORY('assembly','',(#445));
#445=PRODUCT('','master','',(#446));
#446=PRODUCT_CONTEXT('',#450,'');
#447=PRODUCT_DEFINITION_CONTEXT('',#450,'part_definition');
#448=PRODUCT_CATEGORY('part','');
#449=APPLICATION_PROTOCOL_DEFINITION('international standard',
'automotive_design_cc2',1994,#450);
#450=APPLICATION_CONTEXT(
'configuration controlled 3D designs of mechanical parts and assemblies');
ENDSEC;
END-ISO-10303-21;
21563