ISO-10303-21;
HEADER;
/* Generated by software using Delcam plc STEP library */

FILE_DESCRIPTION(
/* description */ ('AP-214 File'),
/* implementation_level */ '2;1');

FILE_NAME(
/* name */ 'D577',
/* time_stamp */ 'Wed Jan 25 08:11:30 2017',
/* author */ (''),
/* organization */ (''),
/* preprocessor_version */ 'DELCAM STEP V1',
/* originating_system */ 'Exchange7.1.0006',
/* authorisation */ '');

FILE_SCHEMA (('AUTOMOTIVE_DESIGN'));
ENDSEC;
DATA;
#10=PRESENTATION_STYLE_ASSIGNMENT((#20));
#11=PRESENTATION_STYLE_ASSIGNMENT((#21));
#12=SURFACE_SIDE_STYLE('',(#14));
#13=SURFACE_SIDE_STYLE('',(#15));
#14=SURFACE_STYLE_FILL_AREA(#16);
#15=SURFACE_STYLE_FILL_AREA(#17);
#16=FILL_AREA_STYLE('',(#18));
#17=FILL_AREA_STYLE('',(#19));
#18=FILL_AREA_STYLE_COLOUR('',#41);
#19=FILL_AREA_STYLE_COLOUR('',#42);
#20=SURFACE_STYLE_USAGE(.BOTH.,#12);
#21=SURFACE_STYLE_USAGE(.BOTH.,#13);
#22=STYLED_ITEM('',(#10),#50);
#23=STYLED_ITEM('',(#10),#51);
#24=STYLED_ITEM('',(#10),#52);
#25=STYLED_ITEM('',(#10),#53);
#26=STYLED_ITEM('',(#10),#54);
#27=STYLED_ITEM('',(#10),#55);
#28=STYLED_ITEM('',(#10),#56);
#29=STYLED_ITEM('',(#10),#57);
#30=STYLED_ITEM('',(#10),#58);
#31=STYLED_ITEM('',(#10),#59);
#32=STYLED_ITEM('',(#10),#60);
#33=STYLED_ITEM('',(#10),#61);
#34=STYLED_ITEM('',(#10),#62);
#35=STYLED_ITEM('',(#10),#63);
#36=STYLED_ITEM('',(#10),#64);
#37=STYLED_ITEM('',(#10),#65);
#38=STYLED_ITEM('',(#10),#66);
#39=STYLED_ITEM('',(#10),#67);
#40=STYLED_ITEM('',(#11),#48);
#41=COLOUR_RGB('',0.,0.,0.);
#42=COLOUR_RGB('rgb_colour_1',0.4,0.4,0.4);
#43=MECHANICAL_DESIGN_GEOMETRIC_PRESENTATION_REPRESENTATION('',(#22,#23,#24,
#25,#26,#27,#28,#29,#30,#31,#32,#33,#34,#35,#36,#37,#38,#39,#40),#603);
#44=PRESENTATION_LAYER_ASSIGNMENT('83','D577',(#50,#51,#52,#53,#54,#55,#56,#57
,#58,#59,#60,#61,#62,#63,#64,#65,#66,#67,#48));
#45=SHAPE_REPRESENTATION_RELATIONSHIP('','',#392,#46);
#46=ADVANCED_BREP_SHAPE_REPRESENTATION('',(#47),#603);
#47=MANIFOLD_SOLID_BREP('1291',#48);
#48=CLOSED_SHELL('',(#50,#51,#52,#53,#54,#55,#56,#57,#58,#59,#60,#61,#62,#63,
#64,#65,#66,#67));
#49=CYLINDRICAL_SURFACE('',#397,40.8616188504922);
#50=ADVANCED_FACE('',(#68),#200,.F.);
#51=ADVANCED_FACE('',(#69),#49,.T.);
#52=ADVANCED_FACE('',(#70),#201,.F.);
#53=ADVANCED_FACE('',(#71),#202,.F.);
#54=ADVANCED_FACE('',(#72),#203,.F.);
#55=ADVANCED_FACE('',(#73),#204,.F.);
#56=ADVANCED_FACE('',(#74),#205,.F.);
#57=ADVANCED_FACE('',(#75),#206,.F.);
#58=ADVANCED_FACE('',(#76),#207,.F.);
#59=ADVANCED_FACE('',(#77),#208,.F.);
#60=ADVANCED_FACE('',(#78),#209,.F.);
#61=ADVANCED_FACE('',(#79),#210,.F.);
#62=ADVANCED_FACE('',(#80),#211,.F.);
#63=ADVANCED_FACE('',(#81),#212,.F.);
#64=ADVANCED_FACE('',(#82),#213,.F.);
#65=ADVANCED_FACE('',(#83),#214,.F.);
#66=ADVANCED_FACE('',(#84),#215,.T.);
#67=ADVANCED_FACE('',(#85),#216,.F.);
#68=FACE_OUTER_BOUND('',#86,.T.);
#69=FACE_OUTER_BOUND('',#87,.T.);
#70=FACE_OUTER_BOUND('',#88,.T.);
#71=FACE_OUTER_BOUND('',#89,.T.);
#72=FACE_OUTER_BOUND('',#90,.T.);
#73=FACE_OUTER_BOUND('',#91,.T.);
#74=FACE_OUTER_BOUND('',#92,.T.);
#75=FACE_OUTER_BOUND('',#93,.T.);
#76=FACE_OUTER_BOUND('',#94,.T.);
#77=FACE_OUTER_BOUND('',#95,.T.);
#78=FACE_OUTER_BOUND('',#96,.T.);
#79=FACE_OUTER_BOUND('',#97,.T.);
#80=FACE_OUTER_BOUND('',#98,.T.);
#81=FACE_OUTER_BOUND('',#99,.T.);
#82=FACE_OUTER_BOUND('',#100,.T.);
#83=FACE_OUTER_BOUND('',#101,.T.);
#84=FACE_OUTER_BOUND('',#102,.T.);
#85=FACE_OUTER_BOUND('',#103,.T.);
#86=EDGE_LOOP('',(#104,#105,#106,#107));
#87=EDGE_LOOP('',(#108,#109,#110,#111));
#88=EDGE_LOOP('',(#112,#113,#114,#115));
#89=EDGE_LOOP('',(#116,#117,#118,#119));
#90=EDGE_LOOP('',(#120,#121,#122,#123));
#91=EDGE_LOOP('',(#124,#125,#126,#127));
#92=EDGE_LOOP('',(#128,#129,#130,#131));
#93=EDGE_LOOP('',(#132,#133,#134,#135));
#94=EDGE_LOOP('',(#136,#137,#138,#139));
#95=EDGE_LOOP('',(#140,#141,#142,#143));
#96=EDGE_LOOP('',(#144,#145,#146,#147));
#97=EDGE_LOOP('',(#148,#149,#150,#151));
#98=EDGE_LOOP('',(#152,#153,#154,#155));
#99=EDGE_LOOP('',(#156,#157,#158,#159));
#100=EDGE_LOOP('',(#160,#161,#162,#163));
#101=EDGE_LOOP('',(#164,#165,#166,#167));
#102=EDGE_LOOP('',(#168,#169,#170,#171,#172,#173,#174,#175,#176,#177,#178,#179
,#180,#181,#182,#183));
#103=EDGE_LOOP('',(#184,#185,#186,#187,#188,#189,#190,#191,#192,#193,#194,#195
,#196,#197,#198,#199));
#104=ORIENTED_EDGE('',*,*,#266,.T.);
#105=ORIENTED_EDGE('',*,*,#219,.F.);
#106=ORIENTED_EDGE('',*,*,#250,.F.);
#107=ORIENTED_EDGE('',*,*,#234,.T.);
#108=ORIENTED_EDGE('',*,*,#265,.T.);
#109=ORIENTED_EDGE('',*,*,#220,.F.);
#110=ORIENTED_EDGE('',*,*,#249,.F.);
#111=ORIENTED_EDGE('',*,*,#219,.T.);
#112=ORIENTED_EDGE('',*,*,#264,.T.);
#113=ORIENTED_EDGE('',*,*,#221,.F.);
#114=ORIENTED_EDGE('',*,*,#248,.F.);
#115=ORIENTED_EDGE('',*,*,#220,.T.);
#116=ORIENTED_EDGE('',*,*,#263,.T.);
#117=ORIENTED_EDGE('',*,*,#222,.F.);
#118=ORIENTED_EDGE('',*,*,#247,.F.);
#119=ORIENTED_EDGE('',*,*,#221,.T.);
#120=ORIENTED_EDGE('',*,*,#262,.T.);
#121=ORIENTED_EDGE('',*,*,#223,.F.);
#122=ORIENTED_EDGE('',*,*,#246,.F.);
#123=ORIENTED_EDGE('',*,*,#222,.T.);
#124=ORIENTED_EDGE('',*,*,#261,.T.);
#125=ORIENTED_EDGE('',*,*,#224,.F.);
#126=ORIENTED_EDGE('',*,*,#245,.F.);
#127=ORIENTED_EDGE('',*,*,#223,.T.);
#128=ORIENTED_EDGE('',*,*,#260,.T.);
#129=ORIENTED_EDGE('',*,*,#225,.F.);
#130=ORIENTED_EDGE('',*,*,#244,.F.);
#131=ORIENTED_EDGE('',*,*,#224,.T.);
#132=ORIENTED_EDGE('',*,*,#259,.T.);
#133=ORIENTED_EDGE('',*,*,#226,.F.);
#134=ORIENTED_EDGE('',*,*,#243,.F.);
#135=ORIENTED_EDGE('',*,*,#225,.T.);
#136=ORIENTED_EDGE('',*,*,#258,.T.);
#137=ORIENTED_EDGE('',*,*,#227,.F.);
#138=ORIENTED_EDGE('',*,*,#242,.F.);
#139=ORIENTED_EDGE('',*,*,#226,.T.);
#140=ORIENTED_EDGE('',*,*,#257,.T.);
#141=ORIENTED_EDGE('',*,*,#228,.F.);
#142=ORIENTED_EDGE('',*,*,#241,.F.);
#143=ORIENTED_EDGE('',*,*,#227,.T.);
#144=ORIENTED_EDGE('',*,*,#256,.T.);
#145=ORIENTED_EDGE('',*,*,#229,.F.);
#146=ORIENTED_EDGE('',*,*,#240,.F.);
#147=ORIENTED_EDGE('',*,*,#228,.T.);
#148=ORIENTED_EDGE('',*,*,#255,.T.);
#149=ORIENTED_EDGE('',*,*,#230,.F.);
#150=ORIENTED_EDGE('',*,*,#239,.F.);
#151=ORIENTED_EDGE('',*,*,#229,.T.);
#152=ORIENTED_EDGE('',*,*,#254,.T.);
#153=ORIENTED_EDGE('',*,*,#231,.F.);
#154=ORIENTED_EDGE('',*,*,#238,.F.);
#155=ORIENTED_EDGE('',*,*,#230,.T.);
#156=ORIENTED_EDGE('',*,*,#253,.T.);
#157=ORIENTED_EDGE('',*,*,#232,.F.);
#158=ORIENTED_EDGE('',*,*,#237,.F.);
#159=ORIENTED_EDGE('',*,*,#231,.T.);
#160=ORIENTED_EDGE('',*,*,#252,.T.);
#161=ORIENTED_EDGE('',*,*,#233,.F.);
#162=ORIENTED_EDGE('',*,*,#236,.F.);
#163=ORIENTED_EDGE('',*,*,#232,.T.);
#164=ORIENTED_EDGE('',*,*,#251,.T.);
#165=ORIENTED_EDGE('',*,*,#234,.F.);
#166=ORIENTED_EDGE('',*,*,#235,.F.);
#167=ORIENTED_EDGE('',*,*,#233,.T.);
#168=ORIENTED_EDGE('',*,*,#250,.T.);
#169=ORIENTED_EDGE('',*,*,#249,.T.);
#170=ORIENTED_EDGE('',*,*,#248,.T.);
#171=ORIENTED_EDGE('',*,*,#247,.T.);
#172=ORIENTED_EDGE('',*,*,#246,.T.);
#173=ORIENTED_EDGE('',*,*,#245,.T.);
#174=ORIENTED_EDGE('',*,*,#244,.T.);
#175=ORIENTED_EDGE('',*,*,#243,.T.);
#176=ORIENTED_EDGE('',*,*,#242,.T.);
#177=ORIENTED_EDGE('',*,*,#241,.T.);
#178=ORIENTED_EDGE('',*,*,#240,.T.);
#179=ORIENTED_EDGE('',*,*,#239,.T.);
#180=ORIENTED_EDGE('',*,*,#238,.T.);
#181=ORIENTED_EDGE('',*,*,#237,.T.);
#182=ORIENTED_EDGE('',*,*,#236,.T.);
#183=ORIENTED_EDGE('',*,*,#235,.T.);
#184=ORIENTED_EDGE('',*,*,#266,.F.);
#185=ORIENTED_EDGE('',*,*,#251,.F.);
#186=ORIENTED_EDGE('',*,*,#252,.F.);
#187=ORIENTED_EDGE('',*,*,#253,.F.);
#188=ORIENTED_EDGE('',*,*,#254,.F.);
#189=ORIENTED_EDGE('',*,*,#255,.F.);
#190=ORIENTED_EDGE('',*,*,#256,.F.);
#191=ORIENTED_EDGE('',*,*,#257,.F.);
#192=ORIENTED_EDGE('',*,*,#258,.F.);
#193=ORIENTED_EDGE('',*,*,#259,.F.);
#194=ORIENTED_EDGE('',*,*,#260,.F.);
#195=ORIENTED_EDGE('',*,*,#261,.F.);
#196=ORIENTED_EDGE('',*,*,#262,.F.);
#197=ORIENTED_EDGE('',*,*,#263,.F.);
#198=ORIENTED_EDGE('',*,*,#264,.F.);
#199=ORIENTED_EDGE('',*,*,#265,.F.);
#200=PLANE('',#396);
#201=PLANE('',#398);
#202=PLANE('',#399);
#203=PLANE('',#400);
#204=PLANE('',#401);
#205=PLANE('',#402);
#206=PLANE('',#403);
#207=PLANE('',#404);
#208=PLANE('',#405);
#209=PLANE('',#406);
#210=PLANE('',#407);
#211=PLANE('',#408);
#212=PLANE('',#409);
#213=PLANE('',#410);
#214=PLANE('',#411);
#215=PLANE('',#412);
#216=PLANE('',#413);
#217=CIRCLE('',#394,40.8616188504922);
#218=CIRCLE('',#395,40.8616188504922);
#219=EDGE_CURVE('',#374,#390,#267,.T.);
#220=EDGE_CURVE('',#373,#389,#268,.T.);
#221=EDGE_CURVE('',#372,#388,#269,.T.);
#222=EDGE_CURVE('',#371,#387,#270,.T.);
#223=EDGE_CURVE('',#370,#386,#271,.T.);
#224=EDGE_CURVE('',#369,#385,#272,.T.);
#225=EDGE_CURVE('',#368,#384,#273,.T.);
#226=EDGE_CURVE('',#367,#383,#274,.T.);
#227=EDGE_CURVE('',#366,#382,#275,.T.);
#228=EDGE_CURVE('',#365,#381,#276,.T.);
#229=EDGE_CURVE('',#364,#380,#277,.T.);
#230=EDGE_CURVE('',#363,#379,#278,.T.);
#231=EDGE_CURVE('',#362,#378,#279,.T.);
#232=EDGE_CURVE('',#361,#377,#280,.T.);
#233=EDGE_CURVE('',#360,#376,#281,.T.);
#234=EDGE_CURVE('',#359,#375,#282,.T.);
#235=EDGE_CURVE('',#360,#359,#283,.T.);
#236=EDGE_CURVE('',#361,#360,#284,.T.);
#237=EDGE_CURVE('',#362,#361,#285,.T.);
#238=EDGE_CURVE('',#363,#362,#286,.T.);
#239=EDGE_CURVE('',#364,#363,#287,.T.);
#240=EDGE_CURVE('',#365,#364,#288,.T.);
#241=EDGE_CURVE('',#366,#365,#289,.T.);
#242=EDGE_CURVE('',#367,#366,#290,.T.);
#243=EDGE_CURVE('',#368,#367,#291,.T.);
#244=EDGE_CURVE('',#369,#368,#292,.T.);
#245=EDGE_CURVE('',#370,#369,#293,.T.);
#246=EDGE_CURVE('',#371,#370,#294,.T.);
#247=EDGE_CURVE('',#372,#371,#295,.T.);
#248=EDGE_CURVE('',#373,#372,#296,.T.);
#249=EDGE_CURVE('',#374,#373,#217,.T.);
#250=EDGE_CURVE('',#359,#374,#297,.T.);
#251=EDGE_CURVE('',#376,#375,#298,.T.);
#252=EDGE_CURVE('',#377,#376,#299,.T.);
#253=EDGE_CURVE('',#378,#377,#300,.T.);
#254=EDGE_CURVE('',#379,#378,#301,.T.);
#255=EDGE_CURVE('',#380,#379,#302,.T.);
#256=EDGE_CURVE('',#381,#380,#303,.T.);
#257=EDGE_CURVE('',#382,#381,#304,.T.);
#258=EDGE_CURVE('',#383,#382,#305,.T.);
#259=EDGE_CURVE('',#384,#383,#306,.T.);
#260=EDGE_CURVE('',#385,#384,#307,.T.);
#261=EDGE_CURVE('',#386,#385,#308,.T.);
#262=EDGE_CURVE('',#387,#386,#309,.T.);
#263=EDGE_CURVE('',#388,#387,#310,.T.);
#264=EDGE_CURVE('',#389,#388,#311,.T.);
#265=EDGE_CURVE('',#390,#389,#218,.T.);
#266=EDGE_CURVE('',#375,#390,#312,.T.);
#267=LINE('',#535,#313);
#268=LINE('',#536,#314);
#269=LINE('',#537,#315);
#270=LINE('',#538,#316);
#271=LINE('',#539,#317);
#272=LINE('',#540,#318);
#273=LINE('',#541,#319);
#274=LINE('',#542,#320);
#275=LINE('',#543,#321);
#276=LINE('',#544,#322);
#277=LINE('',#545,#323);
#278=LINE('',#546,#324);
#279=LINE('',#547,#325);
#280=LINE('',#548,#326);
#281=LINE('',#549,#327);
#282=LINE('',#550,#328);
#283=LINE('',#551,#329);
#284=LINE('',#552,#330);
#285=LINE('',#553,#331);
#286=LINE('',#554,#332);
#287=LINE('',#555,#333);
#288=LINE('',#556,#334);
#289=LINE('',#557,#335);
#290=LINE('',#558,#336);
#291=LINE('',#559,#337);
#292=LINE('',#560,#338);
#293=LINE('',#561,#339);
#294=LINE('',#562,#340);
#295=LINE('',#563,#341);
#296=LINE('',#564,#342);
#297=LINE('',#566,#343);
#298=LINE('',#567,#344);
#299=LINE('',#568,#345);
#300=LINE('',#569,#346);
#301=LINE('',#570,#347);
#302=LINE('',#571,#348);
#303=LINE('',#572,#349);
#304=LINE('',#573,#350);
#305=LINE('',#574,#351);
#306=LINE('',#575,#352);
#307=LINE('',#576,#353);
#308=LINE('',#577,#354);
#309=LINE('',#578,#355);
#310=LINE('',#579,#356);
#311=LINE('',#580,#357);
#312=LINE('',#582,#358);
#313=VECTOR('',#416,1.);
#314=VECTOR('',#417,1.);
#315=VECTOR('',#418,1.);
#316=VECTOR('',#419,1.);
#317=VECTOR('',#420,1.);
#318=VECTOR('',#421,1.);
#319=VECTOR('',#422,1.);
#320=VECTOR('',#423,1.);
#321=VECTOR('',#424,1.);
#322=VECTOR('',#425,1.);
#323=VECTOR('',#426,1.);
#324=VECTOR('',#427,1.);
#325=VECTOR('',#428,1.);
#326=VECTOR('',#429,1.);
#327=VECTOR('',#430,1.);
#328=VECTOR('',#431,1.);
#329=VECTOR('',#432,1.);
#330=VECTOR('',#433,1.);
#331=VECTOR('',#434,1.);
#332=VECTOR('',#435,1.);
#333=VECTOR('',#436,1.);
#334=VECTOR('',#437,1.);
#335=VECTOR('',#438,1.);
#336=VECTOR('',#439,1.);
#337=VECTOR('',#440,1.);
#338=VECTOR('',#441,1.);
#339=VECTOR('',#442,1.);
#340=VECTOR('',#443,1.);
#341=VECTOR('',#444,1.);
#342=VECTOR('',#445,1.);
#343=VECTOR('',#448,1.);
#344=VECTOR('',#449,1.);
#345=VECTOR('',#450,1.);
#346=VECTOR('',#451,1.);
#347=VECTOR('',#452,1.);
#348=VECTOR('',#453,1.);
#349=VECTOR('',#454,1.);
#350=VECTOR('',#455,1.);
#351=VECTOR('',#456,1.);
#352=VECTOR('',#457,1.);
#353=VECTOR('',#458,1.);
#354=VECTOR('',#459,1.);
#355=VECTOR('',#460,1.);
#356=VECTOR('',#461,1.);
#357=VECTOR('',#462,1.);
#358=VECTOR('',#465,1.);
#359=VERTEX_POINT('',#503);
#360=VERTEX_POINT('',#504);
#361=VERTEX_POINT('',#505);
#362=VERTEX_POINT('',#506);
#363=VERTEX_POINT('',#507);
#364=VERTEX_POINT('',#508);
#365=VERTEX_POINT('',#509);
#366=VERTEX_POINT('',#510);
#367=VERTEX_POINT('',#511);
#368=VERTEX_POINT('',#512);
#369=VERTEX_POINT('',#513);
#370=VERTEX_POINT('',#514);
#371=VERTEX_POINT('',#515);
#372=VERTEX_POINT('',#516);
#373=VERTEX_POINT('',#517);
#374=VERTEX_POINT('',#518);
#375=VERTEX_POINT('',#519);
#376=VERTEX_POINT('',#520);
#377=VERTEX_POINT('',#521);
#378=VERTEX_POINT('',#522);
#379=VERTEX_POINT('',#523);
#380=VERTEX_POINT('',#524);
#381=VERTEX_POINT('',#525);
#382=VERTEX_POINT('',#526);
#383=VERTEX_POINT('',#527);
#384=VERTEX_POINT('',#528);
#385=VERTEX_POINT('',#529);
#386=VERTEX_POINT('',#530);
#387=VERTEX_POINT('',#531);
#388=VERTEX_POINT('',#532);
#389=VERTEX_POINT('',#533);
#390=VERTEX_POINT('',#534);
#391=SHAPE_DEFINITION_REPRESENTATION(#601,#392);
#392=SHAPE_REPRESENTATION('master',(#393),#603);
#393=AXIS2_PLACEMENT_3D('',#502,#415,#414);
#394=AXIS2_PLACEMENT_3D('',#565,#447,#446);
#395=AXIS2_PLACEMENT_3D('',#581,#464,#463);
#396=AXIS2_PLACEMENT_3D('',#583,#467,#466);
#397=AXIS2_PLACEMENT_3D('',#584,#469,#468);
#398=AXIS2_PLACEMENT_3D('',#585,#471,#470);
#399=AXIS2_PLACEMENT_3D('',#586,#473,#472);
#400=AXIS2_PLACEMENT_3D('',#587,#475,#474);
#401=AXIS2_PLACEMENT_3D('',#588,#477,#476);
#402=AXIS2_PLACEMENT_3D('',#589,#479,#478);
#403=AXIS2_PLACEMENT_3D('',#590,#481,#480);
#404=AXIS2_PLACEMENT_3D('',#591,#483,#482);
#405=AXIS2_PLACEMENT_3D('',#592,#485,#484);
#406=AXIS2_PLACEMENT_3D('',#593,#487,#486);
#407=AXIS2_PLACEMENT_3D('',#594,#489,#488);
#408=AXIS2_PLACEMENT_3D('',#595,#491,#490);
#409=AXIS2_PLACEMENT_3D('',#596,#493,#492);
#410=AXIS2_PLACEMENT_3D('',#597,#495,#494);
#411=AXIS2_PLACEMENT_3D('',#598,#497,#496);
#412=AXIS2_PLACEMENT_3D('',#599,#499,#498);
#413=AXIS2_PLACEMENT_3D('',#600,#501,#500);
#414=DIRECTION('',(1.,0.,0.));
#415=DIRECTION('',(0.,0.,1.));
#416=DIRECTION('',(2.23393571884528E-016,-1.,3.97301324281536E-016));
#417=DIRECTION('',(2.23393571884528E-016,-1.,3.97301324281536E-016));
#418=DIRECTION('',(2.23393571884528E-016,-1.,3.97301324281536E-016));
#419=DIRECTION('',(2.23393571884528E-016,-1.,3.97301324281536E-016));
#420=DIRECTION('',(2.23393571884528E-016,-1.,3.97301324281536E-016));
#421=DIRECTION('',(2.23393571884528E-016,-1.,3.97301324281536E-016));
#422=DIRECTION('',(2.23393571884528E-016,-1.,3.97301324281536E-016));
#423=DIRECTION('',(2.23393571884528E-016,-1.,3.97301324281536E-016));
#424=DIRECTION('',(2.23393571884528E-016,-1.,3.97301324281536E-016));
#425=DIRECTION('',(2.23393571884528E-016,-1.,3.97301324281536E-016));
#426=DIRECTION('',(2.23393571884528E-016,-1.,3.97301324281536E-016));
#427=DIRECTION('',(2.23393571884528E-016,-1.,3.97301324281536E-016));
#428=DIRECTION('',(2.23393571884528E-016,-1.,3.97301324281536E-016));
#429=DIRECTION('',(2.23393571884528E-016,-1.,3.97301324281536E-016));
#430=DIRECTION('',(2.23393571884528E-016,-1.,3.97301324281536E-016));
#431=DIRECTION('',(2.23393571884528E-016,-1.,3.97301324281536E-016));
#432=DIRECTION('',(-0.,-0.,1.));
#433=DIRECTION('',(-1.,-0.,-0.));
#434=DIRECTION('',(-0.275837674760964,0.,-0.961204232815516));
#435=DIRECTION('',(-1.,0.,0.));
#436=DIRECTION('',(-0.26502540579124,0.,-0.964241429459027));
#437=DIRECTION('',(-1.,-0.,-0.));
#438=DIRECTION('',(-0.239273006747234,-0.,-0.970952330571454));
#439=DIRECTION('',(-1.,-0.,-0.));
#440=DIRECTION('',(-0.241794757208494,-0.,-0.970327416590135));
#441=DIRECTION('',(-1.,-0.,-0.));
#442=DIRECTION('',(-0.140395946778558,-0.,-0.990095438898772));
#443=DIRECTION('',(0.998700994943578,-0.,-0.0509541234710927));
#444=DIRECTION('',(0.83305019756623,-0.,0.553197404490354));
#445=DIRECTION('',(0.999877227456774,-0.,0.0156693973513453));
#446=DIRECTION('',(-0.607089373270859,0.,0.794633558856909));
#447=DIRECTION('',(0.,1.,0.));
#448=DIRECTION('',(0.794633558856906,0.,0.607089373270862));
#449=DIRECTION('',(-0.,-0.,1.));
#450=DIRECTION('',(-1.,-0.,-0.));
#451=DIRECTION('',(-0.275837674760964,0.,-0.961204232815516));
#452=DIRECTION('',(-1.,0.,0.));
#453=DIRECTION('',(-0.26502540579124,0.,-0.964241429459027));
#454=DIRECTION('',(-1.,-0.,-0.));
#455=DIRECTION('',(-0.239273006747234,-0.,-0.970952330571454));
#456=DIRECTION('',(-1.,-0.,-0.));
#457=DIRECTION('',(-0.241794757208494,-0.,-0.970327416590135));
#458=DIRECTION('',(-1.,-0.,-0.));
#459=DIRECTION('',(-0.140395946778558,-0.,-0.990095438898772));
#460=DIRECTION('',(0.998700994943578,-0.,-0.0509541234710927));
#461=DIRECTION('',(0.83305019756623,-0.,0.553197404490354));
#462=DIRECTION('',(0.999877227456774,-0.,0.0156693973513453));
#463=DIRECTION('',(-0.607089373270859,0.,0.794633558856909));
#464=DIRECTION('',(0.,1.,0.));
#465=DIRECTION('',(0.794633558856906,0.,0.607089373270862));
#466=DIRECTION('',(-0.794633558856906,1.23259516440783E-032,-0.607089373270862
));
#467=DIRECTION('',(0.607089373270862,-1.80089101704282E-016,-0.794633558856906
));
#468=DIRECTION('',(0.,-3.97301324281536E-016,-1.));
#469=DIRECTION('',(2.23393571884528E-016,-1.,3.97301324281536E-016));
#470=DIRECTION('',(-0.999877227456774,0.,-0.0156693973513453));
#471=DIRECTION('',(0.0156693973513453,-3.93752103943932E-016,
-0.999877227456774));
#472=DIRECTION('',(-0.83305019756623,-1.23259516440783E-032,-0.553197404490354
));
#473=DIRECTION('',(0.553197404490354,-2.07391202539709E-016,-0.83305019756623)
);
#474=DIRECTION('',(-0.998700994943578,3.08148791101958E-033,0.0509541234710927
));
#475=DIRECTION('',(-0.0509541234710927,-4.08168051496824E-016,
-0.998700994943578));
#476=DIRECTION('',(0.140395946778558,3.08148791101958E-033,0.990095438898772)
);
#477=DIRECTION('',(-0.990095438898772,-1.65401461023295E-016,0.140395946778558
));
#478=DIRECTION('',(0.,-1.,3.97301324281536E-016));
#479=DIRECTION('',(-0.,3.97301324281536E-016,1.));
#480=DIRECTION('',(0.241794757208494,6.16297582203915E-033,0.970327416590135)
);
#481=DIRECTION('',(-0.970327416590135,-1.20699530246289E-016,0.241794757208494
));
#482=DIRECTION('',(0.,-1.,3.97301324281536E-016));
#483=DIRECTION('',(-0.,3.97301324281536E-016,1.));
#484=DIRECTION('',(0.239273006747234,0.,0.970952330571454));
#485=DIRECTION('',(-0.970952330571454,-1.21841026810463E-016,0.239273006747234
));
#486=DIRECTION('',(0.,-1.,3.97301324281536E-016));
#487=DIRECTION('',(-0.,3.97301324281536E-016,1.));
#488=DIRECTION('',(0.26502540579124,0.,0.964241429459027));
#489=DIRECTION('',(-0.964241429459027,-1.10110392396784E-016,0.26502540579124)
);
#490=DIRECTION('',(0.,-1.,3.97301324281536E-016));
#491=DIRECTION('',(0.,3.97301324281536E-016,1.));
#492=DIRECTION('',(0.275837674760964,0.,0.961204232815516));
#493=DIRECTION('',(-0.961204232815516,-1.05136173409915E-016,0.275837674760964
));
#494=DIRECTION('',(0.,-1.,3.97301324281536E-016));
#495=DIRECTION('',(-0.,3.97301324281536E-016,1.));
#496=DIRECTION('',(-2.23393571884528E-016,1.,0.));
#497=DIRECTION('',(1.,2.23393571884528E-016,0.));
#498=DIRECTION('',(0.,-0.,1.));
#499=DIRECTION('',(0.,1.,0.));
#500=DIRECTION('',(0.,-0.,1.));
#501=DIRECTION('',(0.,1.,0.));
#502=CARTESIAN_POINT('',(0.,0.,0.));
#503=CARTESIAN_POINT('',(103.080454,1622.253894,2180.64543160351));
#504=CARTESIAN_POINT('',(103.080454,1622.253894,2168.28661));
#505=CARTESIAN_POINT('',(124.580454,1622.253894,2168.28661));
#506=CARTESIAN_POINT('',(129.569522,1622.253894,2185.671883));
#507=CARTESIAN_POINT('',(151.069522,1622.253894,2185.671883));
#508=CARTESIAN_POINT('',(155.310737697562,1622.253894,2201.10269));
#509=CARTESIAN_POINT('',(265.592746,1622.253894,2201.10269));
#510=CARTESIAN_POINT('',(270.154474,1622.253894,2219.613848));
#511=CARTESIAN_POINT('',(292.654474,1622.253894,2219.613848));
#512=CARTESIAN_POINT('',(296.734066,1622.253894,2235.985336));
#513=CARTESIAN_POINT('',(318.734066,1622.253894,2235.985336));
#514=CARTESIAN_POINT('',(320.650451,1622.253894,2249.5));
#515=CARTESIAN_POINT('',(295.527343,1622.253894,2250.781791));
#516=CARTESIAN_POINT('',(246.306561,1622.253894,2218.096115));
#517=CARTESIAN_POINT('',(163.592838647933,1622.253894,2216.79988167619));
#518=CARTESIAN_POINT('',(139.426461011343,1622.253894,2208.41329311839));
#519=CARTESIAN_POINT('',(103.080454,-377.746106,2180.64543160351));
#520=CARTESIAN_POINT('',(103.080454,-377.746106,2168.28661));
#521=CARTESIAN_POINT('',(124.580454,-377.746106,2168.28661));
#522=CARTESIAN_POINT('',(129.569522,-377.746106,2185.671883));
#523=CARTESIAN_POINT('',(151.069522,-377.746106,2185.671883));
#524=CARTESIAN_POINT('',(155.310737697562,-377.746106,2201.10269));
#525=CARTESIAN_POINT('',(265.592746,-377.746106,2201.10269));
#526=CARTESIAN_POINT('',(270.154474,-377.746106,2219.613848));
#527=CARTESIAN_POINT('',(292.654474,-377.746106,2219.613848));
#528=CARTESIAN_POINT('',(296.734066,-377.746106,2235.985336));
#529=CARTESIAN_POINT('',(318.734066,-377.746106,2235.985336));
#530=CARTESIAN_POINT('',(320.650451,-377.746106,2249.5));
#531=CARTESIAN_POINT('',(295.527343,-377.746106,2250.781791));
#532=CARTESIAN_POINT('',(246.306561,-377.746106,2218.096115));
#533=CARTESIAN_POINT('',(163.592838647934,-377.746106,2216.7998816762));
#534=CARTESIAN_POINT('',(139.426461011343,-377.746106,2208.41329311839));
#535=CARTESIAN_POINT('',(139.426461011343,1622.253894,2208.41329311839));
#536=CARTESIAN_POINT('',(163.592838647933,1622.253894,2216.79988167619));
#537=CARTESIAN_POINT('',(246.306561,1622.253894,2218.096115));
#538=CARTESIAN_POINT('',(295.527343,1622.253894,2250.781791));
#539=CARTESIAN_POINT('',(320.650451,1622.253894,2249.5));
#540=CARTESIAN_POINT('',(318.734066,1622.253894,2235.985336));
#541=CARTESIAN_POINT('',(296.734066,1622.253894,2235.985336));
#542=CARTESIAN_POINT('',(292.654474,1622.253894,2219.613848));
#543=CARTESIAN_POINT('',(270.154474,1622.253894,2219.613848));
#544=CARTESIAN_POINT('',(265.592746,1622.253894,2201.10269));
#545=CARTESIAN_POINT('',(155.310737697562,1622.253894,2201.10269));
#546=CARTESIAN_POINT('',(151.069522,1622.253894,2185.671883));
#547=CARTESIAN_POINT('',(129.569522,1622.253894,2185.671883));
#548=CARTESIAN_POINT('',(124.580454,1622.253894,2168.28661));
#549=CARTESIAN_POINT('',(103.080454,1622.253894,2168.28661));
#550=CARTESIAN_POINT('',(103.080454,1622.253894,2180.64543160351));
#551=CARTESIAN_POINT('',(103.080454,1622.253894,2168.28661));
#552=CARTESIAN_POINT('',(124.580454,1622.253894,2168.28661));
#553=CARTESIAN_POINT('',(129.569522,1622.253894,2185.671883));
#554=CARTESIAN_POINT('',(151.069522,1622.253894,2185.671883));
#555=CARTESIAN_POINT('',(155.310737697562,1622.253894,2201.10269));
#556=CARTESIAN_POINT('',(265.592746,1622.253894,2201.10269));
#557=CARTESIAN_POINT('',(270.154474,1622.253894,2219.613848));
#558=CARTESIAN_POINT('',(292.654474,1622.253894,2219.613848));
#559=CARTESIAN_POINT('',(296.734066,1622.253894,2235.985336));
#560=CARTESIAN_POINT('',(318.734066,1622.253894,2235.985336));
#561=CARTESIAN_POINT('',(320.650451,1622.253894,2249.5));
#562=CARTESIAN_POINT('',(295.527343,1622.253894,2250.781791));
#563=CARTESIAN_POINT('',(246.306561,1622.253894,2218.096115));
#564=CARTESIAN_POINT('',(163.592838647933,1622.253894,2216.79988167619));
#565=CARTESIAN_POINT('',(164.233115590121,1622.253894,2175.94327951057));
#566=CARTESIAN_POINT('',(103.080454,1622.253894,2180.64543160351));
#567=CARTESIAN_POINT('',(103.080454,-377.746106,2168.28661));
#568=CARTESIAN_POINT('',(124.580454,-377.746106,2168.28661));
#569=CARTESIAN_POINT('',(129.569522,-377.746106,2185.671883));
#570=CARTESIAN_POINT('',(151.069522,-377.746106,2185.671883));
#571=CARTESIAN_POINT('',(155.310737697562,-377.746106,2201.10269));
#572=CARTESIAN_POINT('',(265.592746,-377.746106,2201.10269));
#573=CARTESIAN_POINT('',(270.154474,-377.746106,2219.613848));
#574=CARTESIAN_POINT('',(292.654474,-377.746106,2219.613848));
#575=CARTESIAN_POINT('',(296.734066,-377.746106,2235.985336));
#576=CARTESIAN_POINT('',(318.734066,-377.746106,2235.985336));
#577=CARTESIAN_POINT('',(320.650451,-377.746106,2249.5));
#578=CARTESIAN_POINT('',(295.527343,-377.746106,2250.781791));
#579=CARTESIAN_POINT('',(246.306561,-377.746106,2218.096115));
#580=CARTESIAN_POINT('',(163.592838647934,-377.746106,2216.7998816762));
#581=CARTESIAN_POINT('',(164.233115590121,-377.746106,2175.94327951057));
#582=CARTESIAN_POINT('',(103.080454,-377.746106,2180.64543160351));
#583=CARTESIAN_POINT('',(103.080454,1622.253894,2180.64543160351));
#584=CARTESIAN_POINT('',(164.233115590121,1622.253894,2175.94327951057));
#585=CARTESIAN_POINT('',(163.592838647933,1622.253894,2216.79988167619));
#586=CARTESIAN_POINT('',(246.306561,1622.253894,2218.096115));
#587=CARTESIAN_POINT('',(295.527343,1622.253894,2250.781791));
#588=CARTESIAN_POINT('',(320.650451,1622.253894,2249.5));
#589=CARTESIAN_POINT('',(318.734066,1622.253894,2235.985336));
#590=CARTESIAN_POINT('',(296.734066,1622.253894,2235.985336));
#591=CARTESIAN_POINT('',(292.654474,1622.253894,2219.613848));
#592=CARTESIAN_POINT('',(270.154474,1622.253894,2219.613848));
#593=CARTESIAN_POINT('',(265.592746,1622.253894,2201.10269));
#594=CARTESIAN_POINT('',(155.310737697562,1622.253894,2201.10269));
#595=CARTESIAN_POINT('',(151.069522,1622.253894,2185.671883));
#596=CARTESIAN_POINT('',(129.569522,1622.253894,2185.671883));
#597=CARTESIAN_POINT('',(124.580454,1622.253894,2168.28661));
#598=CARTESIAN_POINT('',(103.080454,1622.253894,2168.28661));
#599=CARTESIAN_POINT('',(164.233115590121,1622.253894,2175.94327951057));
#600=CARTESIAN_POINT('',(164.233115590121,-377.746106,2175.94327951057));
#601=PRODUCT_DEFINITION_SHAPE('','',#602);
#602=PRODUCT_DEFINITION('','',#614,#619);
#603=(
GEOMETRIC_REPRESENTATION_CONTEXT(3)
GLOBAL_UNCERTAINTY_ASSIGNED_CONTEXT((#604))
GLOBAL_UNIT_ASSIGNED_CONTEXT((#606,#605,#609))
REPRESENTATION_CONTEXT('','')
);
#604=UNCERTAINTY_MEASURE_WITH_UNIT(LENGTH_MEASURE(0.001),#606,'','tolerance');
#605=(
CONVERSION_BASED_UNIT('',#607)
NAMED_UNIT(#613)
PLANE_ANGLE_UNIT()
);
#606=(
CONVERSION_BASED_UNIT('',#608)
LENGTH_UNIT()
NAMED_UNIT(#612)
);
#607=PLANE_ANGLE_MEASURE_WITH_UNIT(PLANE_ANGLE_MEASURE(0.0174532925199433),
#610);
#608=LENGTH_MEASURE_WITH_UNIT(LENGTH_MEASURE(1.),#611);
#609=(
NAMED_UNIT(*)
SI_UNIT($,.STERADIAN.)
SOLID_ANGLE_UNIT()
);
#610=(
NAMED_UNIT(*)
PLANE_ANGLE_UNIT()
SI_UNIT($,.RADIAN.)
);
#611=(
LENGTH_UNIT()
NAMED_UNIT(*)
SI_UNIT(.MILLI.,.METRE.)
);
#612=DIMENSIONAL_EXPONENTS(1.,0.,0.,0.,0.,0.,0.);
#613=DIMENSIONAL_EXPONENTS(0.,0.,0.,0.,0.,0.,0.);
#614=PRODUCT_DEFINITION_FORMATION_WITH_SPECIFIED_SOURCE('','',#617,.NOT_KNOWN.
);
#615=PRODUCT_CATEGORY_RELATIONSHIP('','',#620,#616);
#616=PRODUCT_RELATED_PRODUCT_CATEGORY('assembly','',(#617));
#617=PRODUCT('','master','',(#618));
#618=PRODUCT_CONTEXT('',#622,'');
#619=PRODUCT_DEFINITION_CONTEXT('',#622,'part_definition');
#620=PRODUCT_CATEGORY('part','');
#621=APPLICATION_PROTOCOL_DEFINITION('international standard',
'automotive_design_cc2',1994,#622);
#622=APPLICATION_CONTEXT(
'configuration controlled 3D designs of mechanical parts and assemblies');
ENDSEC;
END-ISO-10303-21;
28126