ISO-10303-21;
HEADER;
/* Generated by software using Delcam plc STEP library */

FILE_DESCRIPTION(
/* description */ ('AP-214 File'),
/* implementation_level */ '2;1');

FILE_NAME(
/* name */ 'D578',
/* time_stamp */ 'Thu Dec 22 14:27:33 2016',
/* author */ (''),
/* organization */ (''),
/* preprocessor_version */ 'DELCAM STEP V1',
/* originating_system */ 'Exchange7.1.0006',
/* authorisation */ '');

FILE_SCHEMA (('AUTOMOTIVE_DESIGN'));
ENDSEC;
DATA;
#10=PRESENTATION_STYLE_ASSIGNMENT((#20));
#11=PRESENTATION_STYLE_ASSIGNMENT((#21));
#12=SURFACE_SIDE_STYLE('',(#14));
#13=SURFACE_SIDE_STYLE('',(#15));
#14=SURFACE_STYLE_FILL_AREA(#16);
#15=SURFACE_STYLE_FILL_AREA(#17);
#16=FILL_AREA_STYLE('',(#18));
#17=FILL_AREA_STYLE('',(#19));
#18=FILL_AREA_STYLE_COLOUR('',#40);
#19=FILL_AREA_STYLE_COLOUR('',#41);
#20=SURFACE_STYLE_USAGE(.BOTH.,#12);
#21=SURFACE_STYLE_USAGE(.BOTH.,#13);
#22=STYLED_ITEM('',(#10),#55);
#23=STYLED_ITEM('',(#10),#56);
#24=STYLED_ITEM('',(#10),#57);
#25=STYLED_ITEM('',(#10),#58);
#26=STYLED_ITEM('',(#10),#59);
#27=STYLED_ITEM('',(#10),#60);
#28=STYLED_ITEM('',(#10),#61);
#29=STYLED_ITEM('',(#10),#62);
#30=STYLED_ITEM('',(#10),#63);
#31=STYLED_ITEM('',(#10),#64);
#32=STYLED_ITEM('',(#10),#65);
#33=STYLED_ITEM('',(#10),#66);
#34=STYLED_ITEM('',(#10),#67);
#35=STYLED_ITEM('',(#10),#68);
#36=STYLED_ITEM('',(#10),#69);
#37=STYLED_ITEM('',(#10),#70);
#38=STYLED_ITEM('',(#10),#71);
#39=STYLED_ITEM('',(#11),#47);
#40=COLOUR_RGB('',0.,0.,0.);
#41=COLOUR_RGB('rgb_colour_1',0.4,0.4,0.4);
#42=MECHANICAL_DESIGN_GEOMETRIC_PRESENTATION_REPRESENTATION('',(#22,#23,#24,
#25,#26,#27,#28,#29,#30,#31,#32,#33,#34,#35,#36,#37,#38,#39),#627);
#43=PRESENTATION_LAYER_ASSIGNMENT('16','D578',(#55,#56,#57,#58,#59,#60,#61,#62
,#63,#64,#65,#66,#67,#68,#69,#70,#71,#47));
#44=SHAPE_REPRESENTATION_RELATIONSHIP('','',#356,#45);
#45=ADVANCED_BREP_SHAPE_REPRESENTATION('',(#46),#627);
#46=MANIFOLD_SOLID_BREP('2783',#47);
#47=CLOSED_SHELL('',(#55,#56,#57,#58,#59,#60,#61,#62,#63,#64,#65,#66,#67,#68,
#69,#70,#71));
#48=SURFACE_OF_LINEAR_EXTRUSION('',#236,#318);
#49=SURFACE_OF_LINEAR_EXTRUSION('',#237,#319);
#50=SURFACE_OF_LINEAR_EXTRUSION('',#238,#320);
#51=SURFACE_OF_LINEAR_EXTRUSION('',#239,#321);
#52=SURFACE_OF_LINEAR_EXTRUSION('',#240,#322);
#53=SURFACE_OF_LINEAR_EXTRUSION('',#241,#323);
#54=SURFACE_OF_LINEAR_EXTRUSION('',#242,#324);
#55=ADVANCED_FACE('',(#72),#196,.T.);
#56=ADVANCED_FACE('',(#73),#197,.T.);
#57=ADVANCED_FACE('',(#74),#48,.T.);
#58=ADVANCED_FACE('',(#75),#49,.T.);
#59=ADVANCED_FACE('',(#76),#50,.T.);
#60=ADVANCED_FACE('',(#77),#198,.T.);
#61=ADVANCED_FACE('',(#78),#199,.T.);
#62=ADVANCED_FACE('',(#79),#200,.T.);
#63=ADVANCED_FACE('',(#80),#201,.T.);
#64=ADVANCED_FACE('',(#81),#51,.T.);
#65=ADVANCED_FACE('',(#82),#52,.T.);
#66=ADVANCED_FACE('',(#83),#53,.T.);
#67=ADVANCED_FACE('',(#84),#54,.T.);
#68=ADVANCED_FACE('',(#85),#202,.T.);
#69=ADVANCED_FACE('',(#86),#203,.T.);
#70=ADVANCED_FACE('',(#87),#204,.T.);
#71=ADVANCED_FACE('',(#88),#205,.F.);
#72=FACE_OUTER_BOUND('',#89,.T.);
#73=FACE_OUTER_BOUND('',#90,.T.);
#74=FACE_OUTER_BOUND('',#91,.T.);
#75=FACE_OUTER_BOUND('',#92,.T.);
#76=FACE_OUTER_BOUND('',#93,.T.);
#77=FACE_OUTER_BOUND('',#94,.T.);
#78=FACE_OUTER_BOUND('',#95,.T.);
#79=FACE_OUTER_BOUND('',#96,.T.);
#80=FACE_OUTER_BOUND('',#97,.T.);
#81=FACE_OUTER_BOUND('',#98,.T.);
#82=FACE_OUTER_BOUND('',#99,.T.);
#83=FACE_OUTER_BOUND('',#100,.T.);
#84=FACE_OUTER_BOUND('',#101,.T.);
#85=FACE_OUTER_BOUND('',#102,.T.);
#86=FACE_OUTER_BOUND('',#103,.T.);
#87=FACE_OUTER_BOUND('',#104,.T.);
#88=FACE_OUTER_BOUND('',#105,.T.);
#89=EDGE_LOOP('',(#106,#107,#108,#109));
#90=EDGE_LOOP('',(#110,#111,#112,#113));
#91=EDGE_LOOP('',(#114,#115,#116,#117));
#92=EDGE_LOOP('',(#118,#119,#120,#121));
#93=EDGE_LOOP('',(#122,#123,#124,#125));
#94=EDGE_LOOP('',(#126,#127,#128,#129));
#95=EDGE_LOOP('',(#130,#131,#132,#133));
#96=EDGE_LOOP('',(#134,#135,#136,#137));
#97=EDGE_LOOP('',(#138,#139,#140,#141));
#98=EDGE_LOOP('',(#142,#143,#144,#145));
#99=EDGE_LOOP('',(#146,#147,#148,#149));
#100=EDGE_LOOP('',(#150,#151,#152,#153));
#101=EDGE_LOOP('',(#154,#155,#156,#157));
#102=EDGE_LOOP('',(#158,#159,#160,#161));
#103=EDGE_LOOP('',(#162,#163,#164,#165));
#104=EDGE_LOOP('',(#166,#167,#168,#169,#170,#171,#172,#173,#174,#175,#176,#177
,#178,#179,#180));
#105=EDGE_LOOP('',(#181,#182,#183,#184,#185,#186,#187,#188,#189,#190,#191,#192
,#193,#194,#195));
#106=ORIENTED_EDGE('',*,*,#287,.F.);
#107=ORIENTED_EDGE('',*,*,#257,.F.);
#108=ORIENTED_EDGE('',*,*,#272,.T.);
#109=ORIENTED_EDGE('',*,*,#243,.T.);
#110=ORIENTED_EDGE('',*,*,#286,.F.);
#111=ORIENTED_EDGE('',*,*,#243,.F.);
#112=ORIENTED_EDGE('',*,*,#271,.T.);
#113=ORIENTED_EDGE('',*,*,#244,.T.);
#114=ORIENTED_EDGE('',*,*,#285,.F.);
#115=ORIENTED_EDGE('',*,*,#244,.F.);
#116=ORIENTED_EDGE('',*,*,#270,.T.);
#117=ORIENTED_EDGE('',*,*,#245,.T.);
#118=ORIENTED_EDGE('',*,*,#284,.F.);
#119=ORIENTED_EDGE('',*,*,#245,.F.);
#120=ORIENTED_EDGE('',*,*,#269,.T.);
#121=ORIENTED_EDGE('',*,*,#246,.T.);
#122=ORIENTED_EDGE('',*,*,#283,.F.);
#123=ORIENTED_EDGE('',*,*,#246,.F.);
#124=ORIENTED_EDGE('',*,*,#268,.T.);
#125=ORIENTED_EDGE('',*,*,#247,.T.);
#126=ORIENTED_EDGE('',*,*,#282,.F.);
#127=ORIENTED_EDGE('',*,*,#247,.F.);
#128=ORIENTED_EDGE('',*,*,#267,.T.);
#129=ORIENTED_EDGE('',*,*,#248,.T.);
#130=ORIENTED_EDGE('',*,*,#281,.F.);
#131=ORIENTED_EDGE('',*,*,#248,.F.);
#132=ORIENTED_EDGE('',*,*,#266,.T.);
#133=ORIENTED_EDGE('',*,*,#249,.T.);
#134=ORIENTED_EDGE('',*,*,#280,.F.);
#135=ORIENTED_EDGE('',*,*,#249,.F.);
#136=ORIENTED_EDGE('',*,*,#265,.T.);
#137=ORIENTED_EDGE('',*,*,#250,.T.);
#138=ORIENTED_EDGE('',*,*,#279,.F.);
#139=ORIENTED_EDGE('',*,*,#250,.F.);
#140=ORIENTED_EDGE('',*,*,#264,.T.);
#141=ORIENTED_EDGE('',*,*,#251,.T.);
#142=ORIENTED_EDGE('',*,*,#278,.F.);
#143=ORIENTED_EDGE('',*,*,#251,.F.);
#144=ORIENTED_EDGE('',*,*,#263,.T.);
#145=ORIENTED_EDGE('',*,*,#252,.T.);
#146=ORIENTED_EDGE('',*,*,#277,.F.);
#147=ORIENTED_EDGE('',*,*,#252,.F.);
#148=ORIENTED_EDGE('',*,*,#262,.T.);
#149=ORIENTED_EDGE('',*,*,#253,.T.);
#150=ORIENTED_EDGE('',*,*,#276,.F.);
#151=ORIENTED_EDGE('',*,*,#253,.F.);
#152=ORIENTED_EDGE('',*,*,#261,.T.);
#153=ORIENTED_EDGE('',*,*,#254,.T.);
#154=ORIENTED_EDGE('',*,*,#275,.F.);
#155=ORIENTED_EDGE('',*,*,#254,.F.);
#156=ORIENTED_EDGE('',*,*,#260,.T.);
#157=ORIENTED_EDGE('',*,*,#255,.T.);
#158=ORIENTED_EDGE('',*,*,#274,.F.);
#159=ORIENTED_EDGE('',*,*,#255,.F.);
#160=ORIENTED_EDGE('',*,*,#259,.T.);
#161=ORIENTED_EDGE('',*,*,#256,.T.);
#162=ORIENTED_EDGE('',*,*,#273,.F.);
#163=ORIENTED_EDGE('',*,*,#256,.F.);
#164=ORIENTED_EDGE('',*,*,#258,.T.);
#165=ORIENTED_EDGE('',*,*,#257,.T.);
#166=ORIENTED_EDGE('',*,*,#272,.F.);
#167=ORIENTED_EDGE('',*,*,#258,.F.);
#168=ORIENTED_EDGE('',*,*,#259,.F.);
#169=ORIENTED_EDGE('',*,*,#260,.F.);
#170=ORIENTED_EDGE('',*,*,#261,.F.);
#171=ORIENTED_EDGE('',*,*,#262,.F.);
#172=ORIENTED_EDGE('',*,*,#263,.F.);
#173=ORIENTED_EDGE('',*,*,#264,.F.);
#174=ORIENTED_EDGE('',*,*,#265,.F.);
#175=ORIENTED_EDGE('',*,*,#266,.F.);
#176=ORIENTED_EDGE('',*,*,#267,.F.);
#177=ORIENTED_EDGE('',*,*,#268,.F.);
#178=ORIENTED_EDGE('',*,*,#269,.F.);
#179=ORIENTED_EDGE('',*,*,#270,.F.);
#180=ORIENTED_EDGE('',*,*,#271,.F.);
#181=ORIENTED_EDGE('',*,*,#287,.T.);
#182=ORIENTED_EDGE('',*,*,#286,.T.);
#183=ORIENTED_EDGE('',*,*,#285,.T.);
#184=ORIENTED_EDGE('',*,*,#284,.T.);
#185=ORIENTED_EDGE('',*,*,#283,.T.);
#186=ORIENTED_EDGE('',*,*,#282,.T.);
#187=ORIENTED_EDGE('',*,*,#281,.T.);
#188=ORIENTED_EDGE('',*,*,#280,.T.);
#189=ORIENTED_EDGE('',*,*,#279,.T.);
#190=ORIENTED_EDGE('',*,*,#278,.T.);
#191=ORIENTED_EDGE('',*,*,#277,.T.);
#192=ORIENTED_EDGE('',*,*,#276,.T.);
#193=ORIENTED_EDGE('',*,*,#275,.T.);
#194=ORIENTED_EDGE('',*,*,#274,.T.);
#195=ORIENTED_EDGE('',*,*,#273,.T.);
#196=PLANE('',#358);
#197=PLANE('',#359);
#198=PLANE('',#360);
#199=PLANE('',#361);
#200=PLANE('',#362);
#201=PLANE('',#363);
#202=PLANE('',#364);
#203=PLANE('',#365);
#204=PLANE('',#366);
#205=PLANE('',#367);
#206=B_SPLINE_CURVE_WITH_KNOTS('',3,(#458,#459,#460,#461),.UNSPECIFIED.,.F.,
.F.,(4,4),(0.,1.),.UNSPECIFIED.);
#207=B_SPLINE_CURVE_WITH_KNOTS('',3,(#462,#463,#464,#465),.UNSPECIFIED.,.F.,
.F.,(4,4),(0.,1.),.UNSPECIFIED.);
#208=B_SPLINE_CURVE_WITH_KNOTS('',3,(#466,#467,#468,#469),.UNSPECIFIED.,.F.,
.F.,(4,4),(0.,1.),.UNSPECIFIED.);
#209=B_SPLINE_CURVE_WITH_KNOTS('',3,(#470,#471,#472,#473),.UNSPECIFIED.,.F.,
.F.,(4,4),(0.,1.),.UNSPECIFIED.);
#210=B_SPLINE_CURVE_WITH_KNOTS('',3,(#474,#475,#476,#477,#478,#479,#480),
.UNSPECIFIED.,.F.,.F.,(4,3,4),(0.,1.,2.),.UNSPECIFIED.);
#211=B_SPLINE_CURVE_WITH_KNOTS('',3,(#481,#482,#483,#484),.UNSPECIFIED.,.F.,
.F.,(4,4),(0.,1.),.UNSPECIFIED.);
#212=B_SPLINE_CURVE_WITH_KNOTS('',3,(#485,#486,#487,#488),.UNSPECIFIED.,.F.,
.F.,(4,4),(0.,1.),.UNSPECIFIED.);
#213=B_SPLINE_CURVE_WITH_KNOTS('',3,(#489,#490,#491,#492),.UNSPECIFIED.,.F.,
.F.,(4,4),(0.,1.),.UNSPECIFIED.);
#214=B_SPLINE_CURVE_WITH_KNOTS('',3,(#493,#494,#495,#496),.UNSPECIFIED.,.F.,
.F.,(4,4),(0.,1.),.UNSPECIFIED.);
#215=B_SPLINE_CURVE_WITH_KNOTS('',3,(#497,#498,#499,#500),.UNSPECIFIED.,.F.,
.F.,(4,4),(0.,1.),.UNSPECIFIED.);
#216=B_SPLINE_CURVE_WITH_KNOTS('',3,(#501,#502,#503,#504),.UNSPECIFIED.,.F.,
.F.,(4,4),(0.,1.),.UNSPECIFIED.);
#217=B_SPLINE_CURVE_WITH_KNOTS('',3,(#505,#506,#507,#508),.UNSPECIFIED.,.F.,
.F.,(4,4),(0.,1.),.UNSPECIFIED.);
#218=B_SPLINE_CURVE_WITH_KNOTS('',3,(#509,#510,#511,#512),.UNSPECIFIED.,.F.,
.F.,(4,4),(0.,1.),.UNSPECIFIED.);
#219=B_SPLINE_CURVE_WITH_KNOTS('',3,(#513,#514,#515,#516),.UNSPECIFIED.,.F.,
.F.,(4,4),(0.,1.),.UNSPECIFIED.);
#220=B_SPLINE_CURVE_WITH_KNOTS('',3,(#517,#518,#519,#520),.UNSPECIFIED.,.F.,
.F.,(4,4),(0.,1.),.UNSPECIFIED.);
#221=B_SPLINE_CURVE_WITH_KNOTS('',3,(#521,#522,#523,#524),.UNSPECIFIED.,.F.,
.F.,(4,4),(0.,1.),.UNSPECIFIED.);
#222=B_SPLINE_CURVE_WITH_KNOTS('',3,(#525,#526,#527,#528),.UNSPECIFIED.,.F.,
.F.,(4,4),(0.,1.),.UNSPECIFIED.);
#223=B_SPLINE_CURVE_WITH_KNOTS('',3,(#529,#530,#531,#532),.UNSPECIFIED.,.F.,
.F.,(4,4),(0.,1.),.UNSPECIFIED.);
#224=B_SPLINE_CURVE_WITH_KNOTS('',3,(#533,#534,#535,#536),.UNSPECIFIED.,.F.,
.F.,(4,4),(0.,1.),.UNSPECIFIED.);
#225=B_SPLINE_CURVE_WITH_KNOTS('',3,(#537,#538,#539,#540,#541,#542,#543),
.UNSPECIFIED.,.F.,.F.,(4,3,4),(0.,1.,2.),.UNSPECIFIED.);
#226=B_SPLINE_CURVE_WITH_KNOTS('',3,(#544,#545,#546,#547),.UNSPECIFIED.,.F.,
.F.,(4,4),(0.,1.),.UNSPECIFIED.);
#227=B_SPLINE_CURVE_WITH_KNOTS('',3,(#548,#549,#550,#551),.UNSPECIFIED.,.F.,
.F.,(4,4),(0.,1.),.UNSPECIFIED.);
#228=B_SPLINE_CURVE_WITH_KNOTS('',3,(#552,#553,#554,#555),.UNSPECIFIED.,.F.,
.F.,(4,4),(0.,1.),.UNSPECIFIED.);
#229=B_SPLINE_CURVE_WITH_KNOTS('',3,(#556,#557,#558,#559),.UNSPECIFIED.,.F.,
.F.,(4,4),(0.,1.),.UNSPECIFIED.);
#230=B_SPLINE_CURVE_WITH_KNOTS('',3,(#560,#561,#562,#563),.UNSPECIFIED.,.F.,
.F.,(4,4),(0.,1.),.UNSPECIFIED.);
#231=B_SPLINE_CURVE_WITH_KNOTS('',3,(#564,#565,#566,#567),.UNSPECIFIED.,.F.,
.F.,(4,4),(0.,1.),.UNSPECIFIED.);
#232=B_SPLINE_CURVE_WITH_KNOTS('',3,(#568,#569,#570,#571),.UNSPECIFIED.,.F.,
.F.,(4,4),(0.,1.),.UNSPECIFIED.);
#233=B_SPLINE_CURVE_WITH_KNOTS('',3,(#572,#573,#574,#575),.UNSPECIFIED.,.F.,
.F.,(4,4),(0.,1.),.UNSPECIFIED.);
#234=B_SPLINE_CURVE_WITH_KNOTS('',3,(#576,#577,#578,#579),.UNSPECIFIED.,.F.,
.F.,(4,4),(0.,1.),.UNSPECIFIED.);
#235=B_SPLINE_CURVE_WITH_KNOTS('',3,(#580,#581,#582,#583),.UNSPECIFIED.,.F.,
.F.,(4,4),(0.,1.),.UNSPECIFIED.);
#236=B_SPLINE_CURVE_WITH_KNOTS('',3,(#586,#587,#588,#589),.UNSPECIFIED.,.F.,
.F.,(4,4),(0.,1.),.UNSPECIFIED.);
#237=B_SPLINE_CURVE_WITH_KNOTS('',3,(#590,#591,#592,#593),.UNSPECIFIED.,.F.,
.F.,(4,4),(0.,1.),.UNSPECIFIED.);
#238=B_SPLINE_CURVE_WITH_KNOTS('',3,(#594,#595,#596,#597),.UNSPECIFIED.,.F.,
.F.,(4,4),(0.,1.),.UNSPECIFIED.);
#239=B_SPLINE_CURVE_WITH_KNOTS('',3,(#602,#603,#604,#605),.UNSPECIFIED.,.F.,
.F.,(4,4),(0.,1.),.UNSPECIFIED.);
#240=B_SPLINE_CURVE_WITH_KNOTS('',3,(#606,#607,#608,#609,#610,#611,#612),
.UNSPECIFIED.,.F.,.F.,(4,3,4),(0.,1.,2.),.UNSPECIFIED.);
#241=B_SPLINE_CURVE_WITH_KNOTS('',3,(#613,#614,#615,#616),.UNSPECIFIED.,.F.,
.F.,(4,4),(0.,1.),.UNSPECIFIED.);
#242=B_SPLINE_CURVE_WITH_KNOTS('',3,(#617,#618,#619,#620),.UNSPECIFIED.,.F.,
.F.,(4,4),(0.,1.),.UNSPECIFIED.);
#243=EDGE_CURVE('',#339,#354,#288,.T.);
#244=EDGE_CURVE('',#338,#353,#289,.T.);
#245=EDGE_CURVE('',#337,#352,#290,.T.);
#246=EDGE_CURVE('',#336,#351,#291,.T.);
#247=EDGE_CURVE('',#335,#350,#292,.T.);
#248=EDGE_CURVE('',#334,#349,#293,.T.);
#249=EDGE_CURVE('',#333,#348,#294,.T.);
#250=EDGE_CURVE('',#332,#347,#295,.T.);
#251=EDGE_CURVE('',#331,#346,#296,.T.);
#252=EDGE_CURVE('',#330,#345,#297,.T.);
#253=EDGE_CURVE('',#329,#344,#298,.T.);
#254=EDGE_CURVE('',#328,#343,#299,.T.);
#255=EDGE_CURVE('',#327,#342,#300,.T.);
#256=EDGE_CURVE('',#326,#341,#301,.T.);
#257=EDGE_CURVE('',#325,#340,#302,.T.);
#258=EDGE_CURVE('',#326,#325,#206,.T.);
#259=EDGE_CURVE('',#327,#326,#207,.T.);
#260=EDGE_CURVE('',#328,#327,#208,.T.);
#261=EDGE_CURVE('',#329,#328,#209,.T.);
#262=EDGE_CURVE('',#330,#329,#210,.T.);
#263=EDGE_CURVE('',#331,#330,#211,.T.);
#264=EDGE_CURVE('',#332,#331,#212,.T.);
#265=EDGE_CURVE('',#333,#332,#213,.T.);
#266=EDGE_CURVE('',#334,#333,#214,.T.);
#267=EDGE_CURVE('',#335,#334,#215,.T.);
#268=EDGE_CURVE('',#336,#335,#216,.T.);
#269=EDGE_CURVE('',#337,#336,#217,.T.);
#270=EDGE_CURVE('',#338,#337,#218,.T.);
#271=EDGE_CURVE('',#339,#338,#219,.T.);
#272=EDGE_CURVE('',#325,#339,#220,.T.);
#273=EDGE_CURVE('',#341,#340,#221,.T.);
#274=EDGE_CURVE('',#342,#341,#222,.T.);
#275=EDGE_CURVE('',#343,#342,#223,.T.);
#276=EDGE_CURVE('',#344,#343,#224,.T.);
#277=EDGE_CURVE('',#345,#344,#225,.T.);
#278=EDGE_CURVE('',#346,#345,#226,.T.);
#279=EDGE_CURVE('',#347,#346,#227,.T.);
#280=EDGE_CURVE('',#348,#347,#228,.T.);
#281=EDGE_CURVE('',#349,#348,#229,.T.);
#282=EDGE_CURVE('',#350,#349,#230,.T.);
#283=EDGE_CURVE('',#351,#350,#231,.T.);
#284=EDGE_CURVE('',#352,#351,#232,.T.);
#285=EDGE_CURVE('',#353,#352,#233,.T.);
#286=EDGE_CURVE('',#354,#353,#234,.T.);
#287=EDGE_CURVE('',#340,#354,#235,.T.);
#288=LINE('',#443,#303);
#289=LINE('',#444,#304);
#290=LINE('',#445,#305);
#291=LINE('',#446,#306);
#292=LINE('',#447,#307);
#293=LINE('',#448,#308);
#294=LINE('',#449,#309);
#295=LINE('',#450,#310);
#296=LINE('',#451,#311);
#297=LINE('',#452,#312);
#298=LINE('',#453,#313);
#299=LINE('',#454,#314);
#300=LINE('',#455,#315);
#301=LINE('',#456,#316);
#302=LINE('',#457,#317);
#303=VECTOR('',#370,1.);
#304=VECTOR('',#371,1.);
#305=VECTOR('',#372,1.);
#306=VECTOR('',#373,1.);
#307=VECTOR('',#374,1.);
#308=VECTOR('',#375,1.);
#309=VECTOR('',#376,1.);
#310=VECTOR('',#377,1.);
#311=VECTOR('',#378,1.);
#312=VECTOR('',#379,1.);
#313=VECTOR('',#380,1.);
#314=VECTOR('',#381,1.);
#315=VECTOR('',#382,1.);
#316=VECTOR('',#383,1.);
#317=VECTOR('',#384,1.);
#318=VECTOR('',#389,1.);
#319=VECTOR('',#390,1.);
#320=VECTOR('',#391,1.);
#321=VECTOR('',#400,1.);
#322=VECTOR('',#401,1.);
#323=VECTOR('',#402,1.);
#324=VECTOR('',#403,1.);
#325=VERTEX_POINT('',#413);
#326=VERTEX_POINT('',#414);
#327=VERTEX_POINT('',#415);
#328=VERTEX_POINT('',#416);
#329=VERTEX_POINT('',#417);
#330=VERTEX_POINT('',#418);
#331=VERTEX_POINT('',#419);
#332=VERTEX_POINT('',#420);
#333=VERTEX_POINT('',#421);
#334=VERTEX_POINT('',#422);
#335=VERTEX_POINT('',#423);
#336=VERTEX_POINT('',#424);
#337=VERTEX_POINT('',#425);
#338=VERTEX_POINT('',#426);
#339=VERTEX_POINT('',#427);
#340=VERTEX_POINT('',#428);
#341=VERTEX_POINT('',#429);
#342=VERTEX_POINT('',#430);
#343=VERTEX_POINT('',#431);
#344=VERTEX_POINT('',#432);
#345=VERTEX_POINT('',#433);
#346=VERTEX_POINT('',#434);
#347=VERTEX_POINT('',#435);
#348=VERTEX_POINT('',#436);
#349=VERTEX_POINT('',#437);
#350=VERTEX_POINT('',#438);
#351=VERTEX_POINT('',#439);
#352=VERTEX_POINT('',#440);
#353=VERTEX_POINT('',#441);
#354=VERTEX_POINT('',#442);
#355=SHAPE_DEFINITION_REPRESENTATION(#625,#356);
#356=SHAPE_REPRESENTATION('master',(#357),#627);
#357=AXIS2_PLACEMENT_3D('',#412,#369,#368);
#358=AXIS2_PLACEMENT_3D('',#584,#386,#385);
#359=AXIS2_PLACEMENT_3D('',#585,#388,#387);
#360=AXIS2_PLACEMENT_3D('',#598,#393,#392);
#361=AXIS2_PLACEMENT_3D('',#599,#395,#394);
#362=AXIS2_PLACEMENT_3D('',#600,#397,#396);
#363=AXIS2_PLACEMENT_3D('',#601,#399,#398);
#364=AXIS2_PLACEMENT_3D('',#621,#405,#404);
#365=AXIS2_PLACEMENT_3D('',#622,#407,#406);
#366=AXIS2_PLACEMENT_3D('',#623,#409,#408);
#367=AXIS2_PLACEMENT_3D('',#624,#411,#410);
#368=DIRECTION('',(1.,0.,0.));
#369=DIRECTION('',(0.,0.,1.));
#370=DIRECTION('',(-0.,-1.,-0.));
#371=DIRECTION('',(-0.,-1.,-0.));
#372=DIRECTION('',(-0.,-1.,-0.));
#373=DIRECTION('',(-0.,-1.,-0.));
#374=DIRECTION('',(-0.,-1.,-0.));
#375=DIRECTION('',(-0.,-1.,-0.));
#376=DIRECTION('',(-0.,-1.,-0.));
#377=DIRECTION('',(-0.,-1.,-0.));
#378=DIRECTION('',(-0.,-1.,-0.));
#379=DIRECTION('',(-0.,-1.,-0.));
#380=DIRECTION('',(-0.,-1.,-0.));
#381=DIRECTION('',(-0.,-1.,-0.));
#382=DIRECTION('',(-0.,-1.,-0.));
#383=DIRECTION('',(-0.,-1.,-0.));
#384=DIRECTION('',(-0.,-1.,-0.));
#385=DIRECTION('',(-0.0699823659645772,0.,-0.997548228635588));
#386=DIRECTION('',(0.997548228635588,0.,-0.0699823659645772));
#387=DIRECTION('',(0.999710094731918,0.,0.0240775100685317));
#388=DIRECTION('',(-0.0240775100685317,0.,0.999710094731918));
#389=DIRECTION('',(-0.,-1.,-0.));
#390=DIRECTION('',(-0.,-1.,-0.));
#391=DIRECTION('',(-0.,-1.,-0.));
#392=DIRECTION('',(-0.00277035652975894,0.,0.999996162554986));
#393=DIRECTION('',(-0.999996162554986,0.,-0.00277035652975894));
#394=DIRECTION('',(-0.999601594453101,0.,-0.0282250308559241));
#395=DIRECTION('',(0.0282250308559241,0.,-0.999601594453101));
#396=DIRECTION('',(-0.0473854403191175,0.,-0.998876679097957));
#397=DIRECTION('',(0.998876679097957,0.,-0.0473854403191175));
#398=DIRECTION('',(-1.,0.,0.));
#399=DIRECTION('',(0.,0.,-1.));
#400=DIRECTION('',(-0.,-1.,-0.));
#401=DIRECTION('',(-0.,-1.,-0.));
#402=DIRECTION('',(-0.,-1.,-0.));
#403=DIRECTION('',(-0.,-1.,-0.));
#404=DIRECTION('',(-0.0873813821510283,0.,-0.99617493145199));
#405=DIRECTION('',(0.99617493145199,0.,-0.0873813821510283));
#406=DIRECTION('',(-1.,0.,0.));
#407=DIRECTION('',(0.,0.,-1.));
#408=DIRECTION('',(0.,1.04763717441362E-013,1.));
#409=DIRECTION('',(2.19476796358478E-014,1.,-1.04763717441362E-013));
#410=DIRECTION('',(0.,1.04763717441362E-013,1.));
#411=DIRECTION('',(2.19476796358478E-014,1.,-1.04763717441362E-013));
#412=CARTESIAN_POINT('',(0.,0.,0.));
#413=CARTESIAN_POINT('',(240.151024703552,2000.,2240.17824849981));
#414=CARTESIAN_POINT('',(209.651024703552,2000.,2240.17824849981));
#415=CARTESIAN_POINT('',(209.264921599255,2000.,2235.77655303576));
#416=CARTESIAN_POINT('',(204.56732007613,2000.,2235.77650932245));
#417=CARTESIAN_POINT('',(180.41227970858,2000.,2234.52764897305));
#418=CARTESIAN_POINT('',(132.373879451185,2000.,2202.87500580546));
#419=CARTESIAN_POINT('',(121.529590703552,2000.,2176.5569814998));
#420=CARTESIAN_POINT('',(114.029590703553,2000.,2176.5569814998));
#421=CARTESIAN_POINT('',(112.807340811199,2000.,2150.79217050976));
#422=CARTESIAN_POINT('',(103.080454,2000.,2150.51751940686));
#423=CARTESIAN_POINT('',(102.996872967164,2000.,2180.68717851064));
#424=CARTESIAN_POINT('',(112.38270651862,2000.,2194.65843754628));
#425=CARTESIAN_POINT('',(144.412972209069,2000.,2230.55769160798));
#426=CARTESIAN_POINT('',(185.194013703553,2000.,2248.1777484998));
#427=CARTESIAN_POINT('',(240.806188703552,2000.,2249.51713949981));
#428=CARTESIAN_POINT('',(240.151024703552,0.,2240.17824849981));
#429=CARTESIAN_POINT('',(209.651024703552,0.,2240.17824849981));
#430=CARTESIAN_POINT('',(209.264921599255,0.,2235.77655303576));
#431=CARTESIAN_POINT('',(204.56732007613,0.,2235.77650932245));
#432=CARTESIAN_POINT('',(180.41227970858,0.,2234.52764897305));
#433=CARTESIAN_POINT('',(132.373879451185,0.,2202.87500580546));
#434=CARTESIAN_POINT('',(121.529590703552,0.,2176.5569814998));
#435=CARTESIAN_POINT('',(114.029590703553,0.,2176.5569814998));
#436=CARTESIAN_POINT('',(112.807340811199,0.,2150.79217050976));
#437=CARTESIAN_POINT('',(103.080454,0.,2150.51751940686));
#438=CARTESIAN_POINT('',(102.996872967164,0.,2180.68717851064));
#439=CARTESIAN_POINT('',(112.38270651862,0.,2194.65843754628));
#440=CARTESIAN_POINT('',(144.412972209069,0.,2230.55769160798));
#441=CARTESIAN_POINT('',(185.194013703553,0.,2248.1777484998));
#442=CARTESIAN_POINT('',(240.806188703552,0.,2249.51713949981));
#443=CARTESIAN_POINT('',(240.806188703552,2000.,2249.51713949981));
#444=CARTESIAN_POINT('',(185.194013703553,2000.,2248.1777484998));
#445=CARTESIAN_POINT('',(144.412972209069,2000.,2230.55769160798));
#446=CARTESIAN_POINT('',(112.38270651862,2000.,2194.65843754628));
#447=CARTESIAN_POINT('',(102.996872967164,2000.,2180.68717851064));
#448=CARTESIAN_POINT('',(103.080454,2000.,2150.51751940686));
#449=CARTESIAN_POINT('',(112.807340811199,2000.,2150.79217050976));
#450=CARTESIAN_POINT('',(114.029590703553,2000.,2176.5569814998));
#451=CARTESIAN_POINT('',(121.529590703552,2000.,2176.5569814998));
#452=CARTESIAN_POINT('',(132.373879451185,2000.,2202.87500580546));
#453=CARTESIAN_POINT('',(180.41227970858,2000.,2234.52764897305));
#454=CARTESIAN_POINT('',(204.56732007613,2000.,2235.77650932245));
#455=CARTESIAN_POINT('',(209.264921599255,2000.,2235.77655303576));
#456=CARTESIAN_POINT('',(209.651024703552,2000.,2240.17824849981));
#457=CARTESIAN_POINT('',(240.151024703552,2000.,2240.17824849981));
#458=CARTESIAN_POINT('',(209.651024703552,2000.,2240.17824849981));
#459=CARTESIAN_POINT('',(219.817691370219,2000.,2240.17824849981));
#460=CARTESIAN_POINT('',(229.984358036885,2000.,2240.17824849981));
#461=CARTESIAN_POINT('',(240.151024703552,2000.,2240.17824849981));
#462=CARTESIAN_POINT('',(209.264921599255,2000.,2235.77655303576));
#463=CARTESIAN_POINT('',(209.393622634021,2000.,2237.24378485711));
#464=CARTESIAN_POINT('',(209.522323668786,2000.,2238.71101667846));
#465=CARTESIAN_POINT('',(209.651024703552,2000.,2240.17824849981));
#466=CARTESIAN_POINT('',(204.56732007613,2000.,2235.77650932245));
#467=CARTESIAN_POINT('',(206.133186708431,2000.,2235.77650932245));
#468=CARTESIAN_POINT('',(207.699054966955,2000.,2235.77655303576));
#469=CARTESIAN_POINT('',(209.264921599255,2000.,2235.77655303576));
#470=CARTESIAN_POINT('',(180.41227970858,2000.,2234.52764897305));
#471=CARTESIAN_POINT('',(188.407050250909,2000.,2235.64955626182));
#472=CARTESIAN_POINT('',(196.499790821412,2000.,2236.07663733041));
#473=CARTESIAN_POINT('',(204.56732007613,2000.,2235.77650932245));
#474=CARTESIAN_POINT('',(132.373879451185,2000.,2202.87500580546));
#475=CARTESIAN_POINT('',(137.513633792288,2000.,2211.35021076391));
#476=CARTESIAN_POINT('',(144.558018508535,2000.,2218.65274047146));
#477=CARTESIAN_POINT('',(152.832659083064,2000.,2224.10530132456));
#478=CARTESIAN_POINT('',(161.107299657592,2000.,2229.55786217765));
#479=CARTESIAN_POINT('',(170.596536235494,2000.,2233.15020429357));
#480=CARTESIAN_POINT('',(180.41227970858,2000.,2234.52764897305));
#481=CARTESIAN_POINT('',(121.529590703552,2000.,2176.5569814998));
#482=CARTESIAN_POINT('',(123.752976991493,2000.,2185.82049334137));
#483=CARTESIAN_POINT('',(127.433933050497,2000.,2194.72927442395));
#484=CARTESIAN_POINT('',(132.373879451185,2000.,2202.87500580546));
#485=CARTESIAN_POINT('',(114.029590703553,2000.,2176.5569814998));
#486=CARTESIAN_POINT('',(116.529590703553,2000.,2176.5569814998));
#487=CARTESIAN_POINT('',(119.029590703552,2000.,2176.5569814998));
#488=CARTESIAN_POINT('',(121.529590703552,2000.,2176.5569814998));
#489=CARTESIAN_POINT('',(112.807340811199,2000.,2150.79217050976));
#490=CARTESIAN_POINT('',(113.214757441984,2000.,2159.38044083978));
#491=CARTESIAN_POINT('',(113.622174072768,2000.,2167.96871116979));
#492=CARTESIAN_POINT('',(114.029590703553,2000.,2176.5569814998));
#493=CARTESIAN_POINT('',(103.080454,2000.,2150.51751940686));
#494=CARTESIAN_POINT('',(106.322749603733,2000.,2150.60906977449));
#495=CARTESIAN_POINT('',(109.565045207466,2000.,2150.70062014213));
#496=CARTESIAN_POINT('',(112.807340811199,2000.,2150.79217050976));
#497=CARTESIAN_POINT('',(102.996872967164,2000.,2180.68717851064));
#498=CARTESIAN_POINT('',(103.024733311442,2000.,2170.63062547605));
#499=CARTESIAN_POINT('',(103.052593655721,2000.,2160.57407244145));
#500=CARTESIAN_POINT('',(103.080454,2000.,2150.51751940686));
#501=CARTESIAN_POINT('',(112.38270651862,2000.,2194.65843754628));
#502=CARTESIAN_POINT('',(109.254791273157,2000.,2190.00097688323));
#503=CARTESIAN_POINT('',(106.124788212627,2000.,2185.3446391737));
#504=CARTESIAN_POINT('',(102.996872967164,2000.,2180.68717851064));
#505=CARTESIAN_POINT('',(144.412972209069,2000.,2230.55769160798));
#506=CARTESIAN_POINT('',(131.127384083587,2000.,2221.30912933926));
#507=CARTESIAN_POINT('',(120.050666592844,2000.,2208.91484467356));
#508=CARTESIAN_POINT('',(112.38270651862,2000.,2194.65843754628));
#509=CARTESIAN_POINT('',(185.194013703553,2000.,2248.1777484998));
#510=CARTESIAN_POINT('',(170.601125615326,2000.,2245.12058290331));
#511=CARTESIAN_POINT('',(156.649638385686,2000.,2239.07606264485));
#512=CARTESIAN_POINT('',(144.412972209069,2000.,2230.55769160798));
#513=CARTESIAN_POINT('',(240.806188703552,2000.,2249.51713949981));
#514=CARTESIAN_POINT('',(222.268797036886,2000.,2249.07067583314));
#515=CARTESIAN_POINT('',(203.731405370219,2000.,2248.62421216647));
#516=CARTESIAN_POINT('',(185.194013703553,2000.,2248.1777484998));
#517=CARTESIAN_POINT('',(240.151024703552,2000.,2240.17824849981));
#518=CARTESIAN_POINT('',(240.369412703552,2000.,2243.29121216647));
#519=CARTESIAN_POINT('',(240.587800703552,2000.,2246.40417583314));
#520=CARTESIAN_POINT('',(240.806188703552,2000.,2249.5171394998));
#521=CARTESIAN_POINT('',(209.651024703552,0.,2240.17824849981));
#522=CARTESIAN_POINT('',(219.817691370219,0.,2240.17824849981));
#523=CARTESIAN_POINT('',(229.984358036885,0.,2240.17824849981));
#524=CARTESIAN_POINT('',(240.151024703552,0.,2240.17824849981));
#525=CARTESIAN_POINT('',(209.264921599255,0.,2235.77655303576));
#526=CARTESIAN_POINT('',(209.393622634021,0.,2237.24378485711));
#527=CARTESIAN_POINT('',(209.522323668786,0.,2238.71101667846));
#528=CARTESIAN_POINT('',(209.651024703552,0.,2240.17824849981));
#529=CARTESIAN_POINT('',(204.56732007613,0.,2235.77650932245));
#530=CARTESIAN_POINT('',(206.133186708431,0.,2235.77650932245));
#531=CARTESIAN_POINT('',(207.699054966955,0.,2235.77655303576));
#532=CARTESIAN_POINT('',(209.264921599255,0.,2235.77655303576));
#533=CARTESIAN_POINT('',(180.41227970858,0.,2234.52764897305));
#534=CARTESIAN_POINT('',(188.407050250909,-1.04614946526202E-012,
2235.64955626182));
#535=CARTESIAN_POINT('',(196.499790821412,0.,2236.07663733041));
#536=CARTESIAN_POINT('',(204.56732007613,0.,2235.77650932245));
#537=CARTESIAN_POINT('',(132.373879451185,0.,2202.87500580546));
#538=CARTESIAN_POINT('',(137.513633792288,-1.27534530567648E-012,
2211.35021076391));
#539=CARTESIAN_POINT('',(144.558018508535,2.1600499167107E-012,
2218.65274047146));
#540=CARTESIAN_POINT('',(152.832659083064,0.,2224.10530132456));
#541=CARTESIAN_POINT('',(161.107299657592,-2.1032064978499E-012,
2229.55786217765));
#542=CARTESIAN_POINT('',(170.596536235494,1.28443145818262E-012,
2233.15020429357));
#543=CARTESIAN_POINT('',(180.41227970858,0.,2234.52764897305));
#544=CARTESIAN_POINT('',(121.529590703552,0.,2176.5569814998));
#545=CARTESIAN_POINT('',(123.752976991493,0.,2185.82049334137));
#546=CARTESIAN_POINT('',(127.433933050497,1.22576625929927E-012,
2194.72927442395));
#547=CARTESIAN_POINT('',(132.373879451185,0.,2202.87500580546));
#548=CARTESIAN_POINT('',(114.029590703553,0.,2176.5569814998));
#549=CARTESIAN_POINT('',(116.529590703553,0.,2176.5569814998));
#550=CARTESIAN_POINT('',(119.029590703552,0.,2176.5569814998));
#551=CARTESIAN_POINT('',(121.529590703552,0.,2176.5569814998));
#552=CARTESIAN_POINT('',(112.807340811199,0.,2150.79217050976));
#553=CARTESIAN_POINT('',(113.214757441984,0.,2159.38044083978));
#554=CARTESIAN_POINT('',(113.622174072768,0.,2167.96871116979));
#555=CARTESIAN_POINT('',(114.029590703553,0.,2176.5569814998));
#556=CARTESIAN_POINT('',(103.080454,0.,2150.51751940686));
#557=CARTESIAN_POINT('',(106.322749603733,0.,2150.60906977449));
#558=CARTESIAN_POINT('',(109.565045207466,0.,2150.70062014213));
#559=CARTESIAN_POINT('',(112.807340811199,0.,2150.79217050976));
#560=CARTESIAN_POINT('',(102.996872967164,0.,2180.68717851064));
#561=CARTESIAN_POINT('',(103.024733311442,0.,2170.63062547605));
#562=CARTESIAN_POINT('',(103.052593655721,0.,2160.57407244145));
#563=CARTESIAN_POINT('',(103.080454,0.,2150.51751940686));
#564=CARTESIAN_POINT('',(112.38270651862,0.,2194.65843754628));
#565=CARTESIAN_POINT('',(109.254791273157,0.,2190.00097688323));
#566=CARTESIAN_POINT('',(106.124788212627,0.,2185.3446391737));
#567=CARTESIAN_POINT('',(102.996872967164,0.,2180.68717851064));
#568=CARTESIAN_POINT('',(144.412972209069,0.,2230.55769160798));
#569=CARTESIAN_POINT('',(131.127384083587,3.55077685451197E-013,
2221.30912933926));
#570=CARTESIAN_POINT('',(120.050666592844,-4.54747350886464E-013,
2208.91484467356));
#571=CARTESIAN_POINT('',(112.38270651862,0.,2194.65843754628));
#572=CARTESIAN_POINT('',(185.194013703553,0.,2248.1777484998));
#573=CARTESIAN_POINT('',(170.601125615326,0.,2245.12058290331));
#574=CARTESIAN_POINT('',(156.649638385686,-3.27043640265996E-013,
2239.07606264485));
#575=CARTESIAN_POINT('',(144.412972209069,0.,2230.55769160798));
#576=CARTESIAN_POINT('',(240.806188703552,0.,2249.51713949981));
#577=CARTESIAN_POINT('',(222.268797036886,0.,2249.07067583314));
#578=CARTESIAN_POINT('',(203.731405370219,0.,2248.62421216647));
#579=CARTESIAN_POINT('',(185.194013703553,0.,2248.1777484998));
#580=CARTESIAN_POINT('',(240.151024703552,0.,2240.17824849981));
#581=CARTESIAN_POINT('',(240.369412703552,0.,2243.29121216647));
#582=CARTESIAN_POINT('',(240.587800703552,0.,2246.40417583314));
#583=CARTESIAN_POINT('',(240.806188703552,0.,2249.5171394998));
#584=CARTESIAN_POINT('',(240.151024703552,2000.,2240.17824849981));
#585=CARTESIAN_POINT('',(240.806188703552,2000.,2249.51713949981));
#586=CARTESIAN_POINT('',(185.194013703553,2000.,2248.1777484998));
#587=CARTESIAN_POINT('',(170.601125615326,2000.,2245.12058290331));
#588=CARTESIAN_POINT('',(156.649638385686,2000.,2239.07606264485));
#589=CARTESIAN_POINT('',(144.412972209069,2000.,2230.55769160798));
#590=CARTESIAN_POINT('',(144.412972209069,2000.,2230.55769160798));
#591=CARTESIAN_POINT('',(131.127384083587,2000.,2221.30912933926));
#592=CARTESIAN_POINT('',(120.050666592844,2000.,2208.91484467356));
#593=CARTESIAN_POINT('',(112.38270651862,2000.,2194.65843754628));
#594=CARTESIAN_POINT('',(112.38270651862,2000.,2194.65843754628));
#595=CARTESIAN_POINT('',(109.254791273157,2000.,2190.00097688323));
#596=CARTESIAN_POINT('',(106.124788212627,2000.,2185.3446391737));
#597=CARTESIAN_POINT('',(102.996872967164,2000.,2180.68717851064));
#598=CARTESIAN_POINT('',(102.996872967164,2000.,2180.68717851064));
#599=CARTESIAN_POINT('',(103.080454,2000.,2150.51751940686));
#600=CARTESIAN_POINT('',(112.807340811199,2000.,2150.79217050976));
#601=CARTESIAN_POINT('',(114.029590703553,2000.,2176.5569814998));
#602=CARTESIAN_POINT('',(121.529590703552,2000.,2176.5569814998));
#603=CARTESIAN_POINT('',(123.752976991493,2000.,2185.82049334137));
#604=CARTESIAN_POINT('',(127.433933050497,2000.,2194.72927442395));
#605=CARTESIAN_POINT('',(132.373879451185,2000.,2202.87500580546));
#606=CARTESIAN_POINT('',(132.373879451185,2000.,2202.87500580546));
#607=CARTESIAN_POINT('',(137.513633792288,2000.,2211.35021076391));
#608=CARTESIAN_POINT('',(144.558018508535,2000.,2218.65274047146));
#609=CARTESIAN_POINT('',(152.832659083064,2000.,2224.10530132456));
#610=CARTESIAN_POINT('',(161.107299657592,2000.,2229.55786217765));
#611=CARTESIAN_POINT('',(170.596536235494,2000.,2233.15020429357));
#612=CARTESIAN_POINT('',(180.41227970858,2000.,2234.52764897305));
#613=CARTESIAN_POINT('',(180.41227970858,2000.,2234.52764897305));
#614=CARTESIAN_POINT('',(188.407050250909,2000.,2235.64955626182));
#615=CARTESIAN_POINT('',(196.499790821412,2000.,2236.07663733041));
#616=CARTESIAN_POINT('',(204.56732007613,2000.,2235.77650932245));
#617=CARTESIAN_POINT('',(204.56732007613,2000.,2235.77650932245));
#618=CARTESIAN_POINT('',(206.133186708431,2000.,2235.77650932245));
#619=CARTESIAN_POINT('',(207.699054966955,2000.,2235.77655303576));
#620=CARTESIAN_POINT('',(209.264921599255,2000.,2235.77655303576));
#621=CARTESIAN_POINT('',(209.264921599255,2000.,2235.77655303576));
#622=CARTESIAN_POINT('',(209.651024703552,2000.,2240.17824849981));
#623=CARTESIAN_POINT('',(163.919909739457,2000.,2241.41567209403));
#624=CARTESIAN_POINT('',(163.919909739457,-1.22641365099748E-013,
2241.41567209403));
#625=PRODUCT_DEFINITION_SHAPE('','',#626);
#626=PRODUCT_DEFINITION('','',#638,#643);
#627=(
GEOMETRIC_REPRESENTATION_CONTEXT(3)
GLOBAL_UNCERTAINTY_ASSIGNED_CONTEXT((#628))
GLOBAL_UNIT_ASSIGNED_CONTEXT((#630,#629,#633))
REPRESENTATION_CONTEXT('','')
);
#628=UNCERTAINTY_MEASURE_WITH_UNIT(LENGTH_MEASURE(0.001),#630,'','tolerance');
#629=(
CONVERSION_BASED_UNIT('',#631)
NAMED_UNIT(#637)
PLANE_ANGLE_UNIT()
);
#630=(
CONVERSION_BASED_UNIT('',#632)
LENGTH_UNIT()
NAMED_UNIT(#636)
);
#631=PLANE_ANGLE_MEASURE_WITH_UNIT(PLANE_ANGLE_MEASURE(0.0174532925199433),
#634);
#632=LENGTH_MEASURE_WITH_UNIT(LENGTH_MEASURE(1.),#635);
#633=(
NAMED_UNIT(*)
SI_UNIT($,.STERADIAN.)
SOLID_ANGLE_UNIT()
);
#634=(
NAMED_UNIT(*)
PLANE_ANGLE_UNIT()
SI_UNIT($,.RADIAN.)
);
#635=(
LENGTH_UNIT()
NAMED_UNIT(*)
SI_UNIT(.MILLI.,.METRE.)
);
#636=DIMENSIONAL_EXPONENTS(1.,0.,0.,0.,0.,0.,0.);
#637=DIMENSIONAL_EXPONENTS(0.,0.,0.,0.,0.,0.,0.);
#638=PRODUCT_DEFINITION_FORMATION_WITH_SPECIFIED_SOURCE('','',#641,.NOT_KNOWN.
);
#639=PRODUCT_CATEGORY_RELATIONSHIP('','',#644,#640);
#640=PRODUCT_RELATED_PRODUCT_CATEGORY('assembly','',(#641));
#641=PRODUCT('','master','',(#642));
#642=PRODUCT_CONTEXT('',#646,'');
#643=PRODUCT_DEFINITION_CONTEXT('',#646,'part_definition');
#644=PRODUCT_CATEGORY('part','');
#645=APPLICATION_PROTOCOL_DEFINITION('international standard',
'automotive_design_cc2',1994,#646);
#646=APPLICATION_CONTEXT(
'configuration controlled 3D designs of mechanical parts and assemblies');
ENDSEC;
END-ISO-10303-21;
34732