ISO-10303-21;
HEADER;
/* Generated by software using Delcam plc STEP library */

FILE_DESCRIPTION(
/* description */ ('AP-214 File'),
/* implementation_level */ '2;1');

FILE_NAME(
/* name */ 'Corniches Standards',
/* time_stamp */ 'Tue Jul 12 09:17:02 2016',
/* author */ (''),
/* organization */ (''),
/* preprocessor_version */ 'DELCAM STEP V1',
/* originating_system */ 'Exchange7.1.0006',
/* authorisation */ '');

FILE_SCHEMA (('AUTOMOTIVE_DESIGN'));
ENDSEC;
DATA;
#10=PRESENTATION_STYLE_ASSIGNMENT((#20));
#11=PRESENTATION_STYLE_ASSIGNMENT((#21));
#12=SURFACE_SIDE_STYLE('',(#14));
#13=SURFACE_SIDE_STYLE('',(#15));
#14=SURFACE_STYLE_FILL_AREA(#16);
#15=SURFACE_STYLE_FILL_AREA(#17);
#16=FILL_AREA_STYLE('',(#18));
#17=FILL_AREA_STYLE('',(#19));
#18=FILL_AREA_STYLE_COLOUR('',#37);
#19=FILL_AREA_STYLE_COLOUR('',#38);
#20=SURFACE_STYLE_USAGE(.BOTH.,#12);
#21=SURFACE_STYLE_USAGE(.BOTH.,#13);
#22=STYLED_ITEM('',(#10),#45);
#23=STYLED_ITEM('',(#10),#46);
#24=STYLED_ITEM('',(#10),#47);
#25=STYLED_ITEM('',(#10),#48);
#26=STYLED_ITEM('',(#10),#49);
#27=STYLED_ITEM('',(#10),#50);
#28=STYLED_ITEM('',(#10),#51);
#29=STYLED_ITEM('',(#10),#52);
#30=STYLED_ITEM('',(#10),#53);
#31=STYLED_ITEM('',(#10),#54);
#32=STYLED_ITEM('',(#10),#55);
#33=STYLED_ITEM('',(#10),#56);
#34=STYLED_ITEM('',(#10),#57);
#35=STYLED_ITEM('',(#10),#58);
#36=STYLED_ITEM('',(#11),#44);
#37=COLOUR_RGB('solid_blue',0.,0.,0.);
#38=COLOUR_RGB('rgb_colour_1',0.6,0.6,0.6);
#39=MECHANICAL_DESIGN_GEOMETRIC_PRESENTATION_REPRESENTATION('',(#22,#23,#24,
#25,#26,#27,#28,#29,#30,#31,#32,#33,#34,#35,#36),#669);
#40=PRESENTATION_LAYER_ASSIGNMENT('17','D579',(#45,#46,#47,#48,#49,#50,#51,#52
,#53,#54,#55,#56,#57,#58,#44));
#41=SHAPE_REPRESENTATION_RELATIONSHIP('','',#390,#42);
#42=MANIFOLD_SURFACE_SHAPE_REPRESENTATION('',(#43),#669);
#43=SHELL_BASED_SURFACE_MODEL('',(#44));
#44=OPEN_SHELL('918',(#45,#46,#47,#48,#49,#50,#51,#52,#53,#54,#55,#56,#57,#58)
);
#45=ADVANCED_FACE('',(#59),#159,.T.);
#46=ADVANCED_FACE('',(#60),#160,.T.);
#47=ADVANCED_FACE('',(#61),#161,.T.);
#48=ADVANCED_FACE('',(#62),#162,.T.);
#49=ADVANCED_FACE('',(#63),#163,.T.);
#50=ADVANCED_FACE('',(#64),#164,.T.);
#51=ADVANCED_FACE('',(#65),#165,.T.);
#52=ADVANCED_FACE('',(#66),#166,.T.);
#53=ADVANCED_FACE('',(#67),#167,.T.);
#54=ADVANCED_FACE('',(#68),#168,.T.);
#55=ADVANCED_FACE('',(#69),#169,.T.);
#56=ADVANCED_FACE('',(#70),#170,.T.);
#57=ADVANCED_FACE('',(#71),#171,.T.);
#58=ADVANCED_FACE('',(#72),#172,.T.);
#59=FACE_OUTER_BOUND('',#73,.T.);
#60=FACE_OUTER_BOUND('',#74,.T.);
#61=FACE_OUTER_BOUND('',#75,.T.);
#62=FACE_OUTER_BOUND('',#76,.T.);
#63=FACE_OUTER_BOUND('',#77,.T.);
#64=FACE_OUTER_BOUND('',#78,.T.);
#65=FACE_OUTER_BOUND('',#79,.T.);
#66=FACE_OUTER_BOUND('',#80,.T.);
#67=FACE_OUTER_BOUND('',#81,.T.);
#68=FACE_OUTER_BOUND('',#82,.T.);
#69=FACE_OUTER_BOUND('',#83,.T.);
#70=FACE_OUTER_BOUND('',#84,.T.);
#71=FACE_OUTER_BOUND('',#85,.T.);
#72=FACE_OUTER_BOUND('',#86,.T.);
#73=EDGE_LOOP('',(#87,#88,#89,#90));
#74=EDGE_LOOP('',(#91,#92,#93,#94));
#75=EDGE_LOOP('',(#95,#96,#97,#98));
#76=EDGE_LOOP('',(#99,#100,#101,#102));
#77=EDGE_LOOP('',(#103,#104,#105,#106));
#78=EDGE_LOOP('',(#107,#108,#109,#110));
#79=EDGE_LOOP('',(#111,#112,#113,#114));
#80=EDGE_LOOP('',(#115,#116,#117,#118));
#81=EDGE_LOOP('',(#119,#120,#121,#122));
#82=EDGE_LOOP('',(#123,#124,#125,#126));
#83=EDGE_LOOP('',(#127,#128,#129,#130));
#84=EDGE_LOOP('',(#131,#132,#133,#134));
#85=EDGE_LOOP('',(#135,#136,#137,#138,#139,#140,#141,#142,#143,#144,#145,#146)
);
#86=EDGE_LOOP('',(#147,#148,#149,#150,#151,#152,#153,#154,#155,#156,#157,#158)
);
#87=ORIENTED_EDGE('',*,*,#173,.T.);
#88=ORIENTED_EDGE('',*,*,#174,.T.);
#89=ORIENTED_EDGE('',*,*,#175,.T.);
#90=ORIENTED_EDGE('',*,*,#176,.T.);
#91=ORIENTED_EDGE('',*,*,#177,.T.);
#92=ORIENTED_EDGE('',*,*,#178,.T.);
#93=ORIENTED_EDGE('',*,*,#179,.T.);
#94=ORIENTED_EDGE('',*,*,#180,.T.);
#95=ORIENTED_EDGE('',*,*,#181,.T.);
#96=ORIENTED_EDGE('',*,*,#182,.T.);
#97=ORIENTED_EDGE('',*,*,#183,.T.);
#98=ORIENTED_EDGE('',*,*,#184,.T.);
#99=ORIENTED_EDGE('',*,*,#185,.T.);
#100=ORIENTED_EDGE('',*,*,#186,.T.);
#101=ORIENTED_EDGE('',*,*,#187,.T.);
#102=ORIENTED_EDGE('',*,*,#188,.T.);
#103=ORIENTED_EDGE('',*,*,#189,.T.);
#104=ORIENTED_EDGE('',*,*,#190,.T.);
#105=ORIENTED_EDGE('',*,*,#191,.T.);
#106=ORIENTED_EDGE('',*,*,#192,.T.);
#107=ORIENTED_EDGE('',*,*,#193,.T.);
#108=ORIENTED_EDGE('',*,*,#194,.T.);
#109=ORIENTED_EDGE('',*,*,#195,.T.);
#110=ORIENTED_EDGE('',*,*,#196,.T.);
#111=ORIENTED_EDGE('',*,*,#197,.T.);
#112=ORIENTED_EDGE('',*,*,#198,.T.);
#113=ORIENTED_EDGE('',*,*,#199,.T.);
#114=ORIENTED_EDGE('',*,*,#200,.T.);
#115=ORIENTED_EDGE('',*,*,#201,.T.);
#116=ORIENTED_EDGE('',*,*,#202,.T.);
#117=ORIENTED_EDGE('',*,*,#203,.T.);
#118=ORIENTED_EDGE('',*,*,#204,.T.);
#119=ORIENTED_EDGE('',*,*,#205,.T.);
#120=ORIENTED_EDGE('',*,*,#206,.T.);
#121=ORIENTED_EDGE('',*,*,#207,.T.);
#122=ORIENTED_EDGE('',*,*,#208,.T.);
#123=ORIENTED_EDGE('',*,*,#209,.T.);
#124=ORIENTED_EDGE('',*,*,#210,.T.);
#125=ORIENTED_EDGE('',*,*,#211,.T.);
#126=ORIENTED_EDGE('',*,*,#212,.T.);
#127=ORIENTED_EDGE('',*,*,#213,.T.);
#128=ORIENTED_EDGE('',*,*,#214,.T.);
#129=ORIENTED_EDGE('',*,*,#215,.T.);
#130=ORIENTED_EDGE('',*,*,#216,.T.);
#131=ORIENTED_EDGE('',*,*,#217,.T.);
#132=ORIENTED_EDGE('',*,*,#218,.T.);
#133=ORIENTED_EDGE('',*,*,#219,.T.);
#134=ORIENTED_EDGE('',*,*,#220,.T.);
#135=ORIENTED_EDGE('',*,*,#221,.T.);
#136=ORIENTED_EDGE('',*,*,#222,.T.);
#137=ORIENTED_EDGE('',*,*,#223,.T.);
#138=ORIENTED_EDGE('',*,*,#224,.T.);
#139=ORIENTED_EDGE('',*,*,#225,.T.);
#140=ORIENTED_EDGE('',*,*,#226,.T.);
#141=ORIENTED_EDGE('',*,*,#227,.T.);
#142=ORIENTED_EDGE('',*,*,#228,.T.);
#143=ORIENTED_EDGE('',*,*,#229,.T.);
#144=ORIENTED_EDGE('',*,*,#230,.T.);
#145=ORIENTED_EDGE('',*,*,#231,.T.);
#146=ORIENTED_EDGE('',*,*,#232,.T.);
#147=ORIENTED_EDGE('',*,*,#233,.T.);
#148=ORIENTED_EDGE('',*,*,#234,.T.);
#149=ORIENTED_EDGE('',*,*,#235,.T.);
#150=ORIENTED_EDGE('',*,*,#236,.T.);
#151=ORIENTED_EDGE('',*,*,#237,.T.);
#152=ORIENTED_EDGE('',*,*,#238,.T.);
#153=ORIENTED_EDGE('',*,*,#239,.T.);
#154=ORIENTED_EDGE('',*,*,#240,.T.);
#155=ORIENTED_EDGE('',*,*,#241,.T.);
#156=ORIENTED_EDGE('',*,*,#242,.T.);
#157=ORIENTED_EDGE('',*,*,#243,.T.);
#158=ORIENTED_EDGE('',*,*,#244,.T.);
#159=PLANE('',#392);
#160=PLANE('',#393);
#161=PLANE('',#394);
#162=PLANE('',#395);
#163=PLANE('',#396);
#164=PLANE('',#397);
#165=PLANE('',#398);
#166=PLANE('',#399);
#167=PLANE('',#400);
#168=PLANE('',#401);
#169=PLANE('',#402);
#170=PLANE('',#403);
#171=PLANE('',#404);
#172=PLANE('',#405);
#173=EDGE_CURVE('',#320,#317,#245,.T.);
#174=EDGE_CURVE('',#317,#318,#246,.T.);
#175=EDGE_CURVE('',#318,#319,#247,.T.);
#176=EDGE_CURVE('',#319,#320,#248,.T.);
#177=EDGE_CURVE('',#324,#321,#249,.T.);
#178=EDGE_CURVE('',#321,#322,#250,.T.);
#179=EDGE_CURVE('',#322,#323,#251,.T.);
#180=EDGE_CURVE('',#323,#324,#252,.T.);
#181=EDGE_CURVE('',#328,#325,#253,.T.);
#182=EDGE_CURVE('',#325,#326,#254,.T.);
#183=EDGE_CURVE('',#326,#327,#255,.T.);
#184=EDGE_CURVE('',#327,#328,#256,.T.);
#185=EDGE_CURVE('',#332,#329,#257,.T.);
#186=EDGE_CURVE('',#329,#330,#258,.T.);
#187=EDGE_CURVE('',#330,#331,#259,.T.);
#188=EDGE_CURVE('',#331,#332,#260,.T.);
#189=EDGE_CURVE('',#336,#333,#261,.T.);
#190=EDGE_CURVE('',#333,#334,#262,.T.);
#191=EDGE_CURVE('',#334,#335,#263,.T.);
#192=EDGE_CURVE('',#335,#336,#264,.T.);
#193=EDGE_CURVE('',#340,#337,#265,.T.);
#194=EDGE_CURVE('',#337,#338,#266,.T.);
#195=EDGE_CURVE('',#338,#339,#267,.T.);
#196=EDGE_CURVE('',#339,#340,#268,.T.);
#197=EDGE_CURVE('',#344,#341,#269,.T.);
#198=EDGE_CURVE('',#341,#342,#270,.T.);
#199=EDGE_CURVE('',#342,#343,#271,.T.);
#200=EDGE_CURVE('',#343,#344,#272,.T.);
#201=EDGE_CURVE('',#348,#345,#273,.T.);
#202=EDGE_CURVE('',#345,#346,#274,.T.);
#203=EDGE_CURVE('',#346,#347,#275,.T.);
#204=EDGE_CURVE('',#347,#348,#276,.T.);
#205=EDGE_CURVE('',#352,#349,#277,.T.);
#206=EDGE_CURVE('',#349,#350,#278,.T.);
#207=EDGE_CURVE('',#350,#351,#279,.T.);
#208=EDGE_CURVE('',#351,#352,#280,.T.);
#209=EDGE_CURVE('',#356,#353,#281,.T.);
#210=EDGE_CURVE('',#353,#354,#282,.T.);
#211=EDGE_CURVE('',#354,#355,#283,.T.);
#212=EDGE_CURVE('',#355,#356,#284,.T.);
#213=EDGE_CURVE('',#360,#357,#285,.T.);
#214=EDGE_CURVE('',#357,#358,#286,.T.);
#215=EDGE_CURVE('',#358,#359,#287,.T.);
#216=EDGE_CURVE('',#359,#360,#288,.T.);
#217=EDGE_CURVE('',#364,#361,#289,.T.);
#218=EDGE_CURVE('',#361,#362,#290,.T.);
#219=EDGE_CURVE('',#362,#363,#291,.T.);
#220=EDGE_CURVE('',#363,#364,#292,.T.);
#221=EDGE_CURVE('',#376,#365,#293,.T.);
#222=EDGE_CURVE('',#365,#366,#294,.T.);
#223=EDGE_CURVE('',#366,#367,#295,.T.);
#224=EDGE_CURVE('',#367,#368,#296,.T.);
#225=EDGE_CURVE('',#368,#369,#297,.T.);
#226=EDGE_CURVE('',#369,#370,#298,.T.);
#227=EDGE_CURVE('',#370,#371,#299,.T.);
#228=EDGE_CURVE('',#371,#372,#300,.T.);
#229=EDGE_CURVE('',#372,#373,#301,.T.);
#230=EDGE_CURVE('',#373,#374,#302,.T.);
#231=EDGE_CURVE('',#374,#375,#303,.T.);
#232=EDGE_CURVE('',#375,#376,#304,.T.);
#233=EDGE_CURVE('',#388,#377,#305,.T.);
#234=EDGE_CURVE('',#377,#378,#306,.T.);
#235=EDGE_CURVE('',#378,#379,#307,.T.);
#236=EDGE_CURVE('',#379,#380,#308,.T.);
#237=EDGE_CURVE('',#380,#381,#309,.T.);
#238=EDGE_CURVE('',#381,#382,#310,.T.);
#239=EDGE_CURVE('',#382,#383,#311,.T.);
#240=EDGE_CURVE('',#383,#384,#312,.T.);
#241=EDGE_CURVE('',#384,#385,#313,.T.);
#242=EDGE_CURVE('',#385,#386,#314,.T.);
#243=EDGE_CURVE('',#386,#387,#315,.T.);
#244=EDGE_CURVE('',#387,#388,#316,.T.);
#245=B_SPLINE_CURVE_WITH_KNOTS('',1,(#509,#510),.UNSPECIFIED.,.F.,.F.,(2,2),(
0.,1.),.UNSPECIFIED.);
#246=B_SPLINE_CURVE_WITH_KNOTS('',1,(#511,#512),.UNSPECIFIED.,.F.,.F.,(2,2),(
0.,1.),.UNSPECIFIED.);
#247=B_SPLINE_CURVE_WITH_KNOTS('',1,(#513,#514),.UNSPECIFIED.,.F.,.F.,(2,2),(
0.,1.),.UNSPECIFIED.);
#248=B_SPLINE_CURVE_WITH_KNOTS('',1,(#515,#516),.UNSPECIFIED.,.F.,.F.,(2,2),(
0.,1.),.UNSPECIFIED.);
#249=B_SPLINE_CURVE_WITH_KNOTS('',1,(#517,#518),.UNSPECIFIED.,.F.,.F.,(2,2),(
0.,1.),.UNSPECIFIED.);
#250=B_SPLINE_CURVE_WITH_KNOTS('',1,(#519,#520),.UNSPECIFIED.,.F.,.F.,(2,2),(
0.,1.),.UNSPECIFIED.);
#251=B_SPLINE_CURVE_WITH_KNOTS('',1,(#521,#522),.UNSPECIFIED.,.F.,.F.,(2,2),(
0.,1.),.UNSPECIFIED.);
#252=B_SPLINE_CURVE_WITH_KNOTS('',1,(#523,#524),.UNSPECIFIED.,.F.,.F.,(2,2),(
0.,1.),.UNSPECIFIED.);
#253=B_SPLINE_CURVE_WITH_KNOTS('',1,(#525,#526),.UNSPECIFIED.,.F.,.F.,(2,2),(
0.,1.),.UNSPECIFIED.);
#254=B_SPLINE_CURVE_WITH_KNOTS('',1,(#527,#528),.UNSPECIFIED.,.F.,.F.,(2,2),(
0.,1.),.UNSPECIFIED.);
#255=B_SPLINE_CURVE_WITH_KNOTS('',1,(#529,#530),.UNSPECIFIED.,.F.,.F.,(2,2),(
0.,1.),.UNSPECIFIED.);
#256=B_SPLINE_CURVE_WITH_KNOTS('',1,(#531,#532),.UNSPECIFIED.,.F.,.F.,(2,2),(
0.,1.),.UNSPECIFIED.);
#257=B_SPLINE_CURVE_WITH_KNOTS('',1,(#533,#534),.UNSPECIFIED.,.F.,.F.,(2,2),(
0.,1.),.UNSPECIFIED.);
#258=B_SPLINE_CURVE_WITH_KNOTS('',1,(#535,#536),.UNSPECIFIED.,.F.,.F.,(2,2),(
0.,1.),.UNSPECIFIED.);
#259=B_SPLINE_CURVE_WITH_KNOTS('',1,(#537,#538),.UNSPECIFIED.,.F.,.F.,(2,2),(
0.,1.),.UNSPECIFIED.);
#260=B_SPLINE_CURVE_WITH_KNOTS('',1,(#539,#540),.UNSPECIFIED.,.F.,.F.,(2,2),(
0.,1.),.UNSPECIFIED.);
#261=B_SPLINE_CURVE_WITH_KNOTS('',1,(#541,#542),.UNSPECIFIED.,.F.,.F.,(2,2),(
0.,1.),.UNSPECIFIED.);
#262=B_SPLINE_CURVE_WITH_KNOTS('',1,(#543,#544),.UNSPECIFIED.,.F.,.F.,(2,2),(
0.,1.),.UNSPECIFIED.);
#263=B_SPLINE_CURVE_WITH_KNOTS('',1,(#545,#546),.UNSPECIFIED.,.F.,.F.,(2,2),(
0.,1.),.UNSPECIFIED.);
#264=B_SPLINE_CURVE_WITH_KNOTS('',1,(#547,#548),.UNSPECIFIED.,.F.,.F.,(2,2),(
0.,1.),.UNSPECIFIED.);
#265=B_SPLINE_CURVE_WITH_KNOTS('',1,(#549,#550),.UNSPECIFIED.,.F.,.F.,(2,2),(
0.,1.),.UNSPECIFIED.);
#266=B_SPLINE_CURVE_WITH_KNOTS('',1,(#551,#552),.UNSPECIFIED.,.F.,.F.,(2,2),(
0.,1.),.UNSPECIFIED.);
#267=B_SPLINE_CURVE_WITH_KNOTS('',1,(#553,#554),.UNSPECIFIED.,.F.,.F.,(2,2),(
0.,1.),.UNSPECIFIED.);
#268=B_SPLINE_CURVE_WITH_KNOTS('',1,(#555,#556),.UNSPECIFIED.,.F.,.F.,(2,2),(
0.,1.),.UNSPECIFIED.);
#269=B_SPLINE_CURVE_WITH_KNOTS('',1,(#557,#558),.UNSPECIFIED.,.F.,.F.,(2,2),(
0.,1.),.UNSPECIFIED.);
#270=B_SPLINE_CURVE_WITH_KNOTS('',1,(#559,#560),.UNSPECIFIED.,.F.,.F.,(2,2),(
0.,1.),.UNSPECIFIED.);
#271=B_SPLINE_CURVE_WITH_KNOTS('',1,(#561,#562),.UNSPECIFIED.,.F.,.F.,(2,2),(
0.,1.),.UNSPECIFIED.);
#272=B_SPLINE_CURVE_WITH_KNOTS('',1,(#563,#564),.UNSPECIFIED.,.F.,.F.,(2,2),(
0.,1.),.UNSPECIFIED.);
#273=B_SPLINE_CURVE_WITH_KNOTS('',1,(#565,#566),.UNSPECIFIED.,.F.,.F.,(2,2),(
0.,1.),.UNSPECIFIED.);
#274=B_SPLINE_CURVE_WITH_KNOTS('',1,(#567,#568),.UNSPECIFIED.,.F.,.F.,(2,2),(
0.,1.),.UNSPECIFIED.);
#275=B_SPLINE_CURVE_WITH_KNOTS('',1,(#569,#570),.UNSPECIFIED.,.F.,.F.,(2,2),(
0.,1.),.UNSPECIFIED.);
#276=B_SPLINE_CURVE_WITH_KNOTS('',1,(#571,#572),.UNSPECIFIED.,.F.,.F.,(2,2),(
0.,1.),.UNSPECIFIED.);
#277=B_SPLINE_CURVE_WITH_KNOTS('',1,(#573,#574),.UNSPECIFIED.,.F.,.F.,(2,2),(
0.,1.),.UNSPECIFIED.);
#278=B_SPLINE_CURVE_WITH_KNOTS('',1,(#575,#576),.UNSPECIFIED.,.F.,.F.,(2,2),(
0.,1.),.UNSPECIFIED.);
#279=B_SPLINE_CURVE_WITH_KNOTS('',1,(#577,#578),.UNSPECIFIED.,.F.,.F.,(2,2),(
0.,1.),.UNSPECIFIED.);
#280=B_SPLINE_CURVE_WITH_KNOTS('',1,(#579,#580),.UNSPECIFIED.,.F.,.F.,(2,2),(
0.,1.),.UNSPECIFIED.);
#281=B_SPLINE_CURVE_WITH_KNOTS('',1,(#581,#582),.UNSPECIFIED.,.F.,.F.,(2,2),(
0.,1.),.UNSPECIFIED.);
#282=B_SPLINE_CURVE_WITH_KNOTS('',1,(#583,#584),.UNSPECIFIED.,.F.,.F.,(2,2),(
0.,1.),.UNSPECIFIED.);
#283=B_SPLINE_CURVE_WITH_KNOTS('',1,(#585,#586),.UNSPECIFIED.,.F.,.F.,(2,2),(
0.,1.),.UNSPECIFIED.);
#284=B_SPLINE_CURVE_WITH_KNOTS('',1,(#587,#588),.UNSPECIFIED.,.F.,.F.,(2,2),(
0.,1.),.UNSPECIFIED.);
#285=B_SPLINE_CURVE_WITH_KNOTS('',1,(#589,#590),.UNSPECIFIED.,.F.,.F.,(2,2),(
0.,1.),.UNSPECIFIED.);
#286=B_SPLINE_CURVE_WITH_KNOTS('',1,(#591,#592),.UNSPECIFIED.,.F.,.F.,(2,2),(
0.,1.),.UNSPECIFIED.);
#287=B_SPLINE_CURVE_WITH_KNOTS('',1,(#593,#594),.UNSPECIFIED.,.F.,.F.,(2,2),(
0.,1.),.UNSPECIFIED.);
#288=B_SPLINE_CURVE_WITH_KNOTS('',1,(#595,#596),.UNSPECIFIED.,.F.,.F.,(2,2),(
0.,1.),.UNSPECIFIED.);
#289=B_SPLINE_CURVE_WITH_KNOTS('',1,(#597,#598),.UNSPECIFIED.,.F.,.F.,(2,2),(
0.,1.),.UNSPECIFIED.);
#290=B_SPLINE_CURVE_WITH_KNOTS('',1,(#599,#600),.UNSPECIFIED.,.F.,.F.,(2,2),(
0.,1.),.UNSPECIFIED.);
#291=B_SPLINE_CURVE_WITH_KNOTS('',1,(#601,#602),.UNSPECIFIED.,.F.,.F.,(2,2),(
0.,1.),.UNSPECIFIED.);
#292=B_SPLINE_CURVE_WITH_KNOTS('',1,(#603,#604),.UNSPECIFIED.,.F.,.F.,(2,2),(
0.,1.),.UNSPECIFIED.);
#293=B_SPLINE_CURVE_WITH_KNOTS('',1,(#605,#606),.UNSPECIFIED.,.F.,.F.,(2,2),(
0.,1.),.UNSPECIFIED.);
#294=B_SPLINE_CURVE_WITH_KNOTS('',1,(#607,#608),.UNSPECIFIED.,.F.,.F.,(2,2),(
0.,1.),.UNSPECIFIED.);
#295=B_SPLINE_CURVE_WITH_KNOTS('',1,(#609,#610),.UNSPECIFIED.,.F.,.F.,(2,2),(
0.,1.),.UNSPECIFIED.);
#296=B_SPLINE_CURVE_WITH_KNOTS('',1,(#611,#612),.UNSPECIFIED.,.F.,.F.,(2,2),(
0.,1.),.UNSPECIFIED.);
#297=B_SPLINE_CURVE_WITH_KNOTS('',1,(#613,#614),.UNSPECIFIED.,.F.,.F.,(2,2),(
0.,1.),.UNSPECIFIED.);
#298=B_SPLINE_CURVE_WITH_KNOTS('',1,(#615,#616),.UNSPECIFIED.,.F.,.F.,(2,2),(
0.,1.),.UNSPECIFIED.);
#299=B_SPLINE_CURVE_WITH_KNOTS('',1,(#617,#618),.UNSPECIFIED.,.F.,.F.,(2,2),(
0.,1.),.UNSPECIFIED.);
#300=B_SPLINE_CURVE_WITH_KNOTS('',1,(#619,#620),.UNSPECIFIED.,.F.,.F.,(2,2),(
0.,1.),.UNSPECIFIED.);
#301=B_SPLINE_CURVE_WITH_KNOTS('',1,(#621,#622),.UNSPECIFIED.,.F.,.F.,(2,2),(
0.,1.),.UNSPECIFIED.);
#302=B_SPLINE_CURVE_WITH_KNOTS('',1,(#623,#624),.UNSPECIFIED.,.F.,.F.,(2,2),(
0.,1.),.UNSPECIFIED.);
#303=B_SPLINE_CURVE_WITH_KNOTS('',1,(#625,#626),.UNSPECIFIED.,.F.,.F.,(2,2),(
0.,1.),.UNSPECIFIED.);
#304=B_SPLINE_CURVE_WITH_KNOTS('',1,(#627,#628),.UNSPECIFIED.,.F.,.F.,(2,2),(
0.,1.),.UNSPECIFIED.);
#305=B_SPLINE_CURVE_WITH_KNOTS('',1,(#629,#630),.UNSPECIFIED.,.F.,.F.,(2,2),(
0.,1.),.UNSPECIFIED.);
#306=B_SPLINE_CURVE_WITH_KNOTS('',1,(#631,#632),.UNSPECIFIED.,.F.,.F.,(2,2),(
0.,1.),.UNSPECIFIED.);
#307=B_SPLINE_CURVE_WITH_KNOTS('',1,(#633,#634),.UNSPECIFIED.,.F.,.F.,(2,2),(
0.,1.),.UNSPECIFIED.);
#308=B_SPLINE_CURVE_WITH_KNOTS('',1,(#635,#636),.UNSPECIFIED.,.F.,.F.,(2,2),(
0.,1.),.UNSPECIFIED.);
#309=B_SPLINE_CURVE_WITH_KNOTS('',1,(#637,#638),.UNSPECIFIED.,.F.,.F.,(2,2),(
0.,1.),.UNSPECIFIED.);
#310=B_SPLINE_CURVE_WITH_KNOTS('',1,(#639,#640),.UNSPECIFIED.,.F.,.F.,(2,2),(
0.,1.),.UNSPECIFIED.);
#311=B_SPLINE_CURVE_WITH_KNOTS('',1,(#641,#642),.UNSPECIFIED.,.F.,.F.,(2,2),(
0.,1.),.UNSPECIFIED.);
#312=B_SPLINE_CURVE_WITH_KNOTS('',1,(#643,#644),.UNSPECIFIED.,.F.,.F.,(2,2),(
0.,1.),.UNSPECIFIED.);
#313=B_SPLINE_CURVE_WITH_KNOTS('',1,(#645,#646),.UNSPECIFIED.,.F.,.F.,(2,2),(
0.,1.),.UNSPECIFIED.);
#314=B_SPLINE_CURVE_WITH_KNOTS('',1,(#647,#648),.UNSPECIFIED.,.F.,.F.,(2,2),(
0.,1.),.UNSPECIFIED.);
#315=B_SPLINE_CURVE_WITH_KNOTS('',1,(#649,#650),.UNSPECIFIED.,.F.,.F.,(2,2),(
0.,1.),.UNSPECIFIED.);
#316=B_SPLINE_CURVE_WITH_KNOTS('',1,(#651,#652),.UNSPECIFIED.,.F.,.F.,(2,2),(
0.,1.),.UNSPECIFIED.);
#317=VERTEX_POINT('',#437);
#318=VERTEX_POINT('',#438);
#319=VERTEX_POINT('',#439);
#320=VERTEX_POINT('',#440);
#321=VERTEX_POINT('',#441);
#322=VERTEX_POINT('',#442);
#323=VERTEX_POINT('',#443);
#324=VERTEX_POINT('',#444);
#325=VERTEX_POINT('',#445);
#326=VERTEX_POINT('',#446);
#327=VERTEX_POINT('',#447);
#328=VERTEX_POINT('',#448);
#329=VERTEX_POINT('',#449);
#330=VERTEX_POINT('',#450);
#331=VERTEX_POINT('',#451);
#332=VERTEX_POINT('',#452);
#333=VERTEX_POINT('',#453);
#334=VERTEX_POINT('',#454);
#335=VERTEX_POINT('',#455);
#336=VERTEX_POINT('',#456);
#337=VERTEX_POINT('',#457);
#338=VERTEX_POINT('',#458);
#339=VERTEX_POINT('',#459);
#340=VERTEX_POINT('',#460);
#341=VERTEX_POINT('',#461);
#342=VERTEX_POINT('',#462);
#343=VERTEX_POINT('',#463);
#344=VERTEX_POINT('',#464);
#345=VERTEX_POINT('',#465);
#346=VERTEX_POINT('',#466);
#347=VERTEX_POINT('',#467);
#348=VERTEX_POINT('',#468);
#349=VERTEX_POINT('',#469);
#350=VERTEX_POINT('',#470);
#351=VERTEX_POINT('',#471);
#352=VERTEX_POINT('',#472);
#353=VERTEX_POINT('',#473);
#354=VERTEX_POINT('',#474);
#355=VERTEX_POINT('',#475);
#356=VERTEX_POINT('',#476);
#357=VERTEX_POINT('',#477);
#358=VERTEX_POINT('',#478);
#359=VERTEX_POINT('',#479);
#360=VERTEX_POINT('',#480);
#361=VERTEX_POINT('',#481);
#362=VERTEX_POINT('',#482);
#363=VERTEX_POINT('',#483);
#364=VERTEX_POINT('',#484);
#365=VERTEX_POINT('',#485);
#366=VERTEX_POINT('',#486);
#367=VERTEX_POINT('',#487);
#368=VERTEX_POINT('',#488);
#369=VERTEX_POINT('',#489);
#370=VERTEX_POINT('',#490);
#371=VERTEX_POINT('',#491);
#372=VERTEX_POINT('',#492);
#373=VERTEX_POINT('',#493);
#374=VERTEX_POINT('',#494);
#375=VERTEX_POINT('',#495);
#376=VERTEX_POINT('',#496);
#377=VERTEX_POINT('',#497);
#378=VERTEX_POINT('',#498);
#379=VERTEX_POINT('',#499);
#380=VERTEX_POINT('',#500);
#381=VERTEX_POINT('',#501);
#382=VERTEX_POINT('',#502);
#383=VERTEX_POINT('',#503);
#384=VERTEX_POINT('',#504);
#385=VERTEX_POINT('',#505);
#386=VERTEX_POINT('',#506);
#387=VERTEX_POINT('',#507);
#388=VERTEX_POINT('',#508);
#389=SHAPE_DEFINITION_REPRESENTATION(#667,#390);
#390=SHAPE_REPRESENTATION('master',(#391),#669);
#391=AXIS2_PLACEMENT_3D('',#436,#407,#406);
#392=AXIS2_PLACEMENT_3D('',#653,#409,#408);
#393=AXIS2_PLACEMENT_3D('',#654,#411,#410);
#394=AXIS2_PLACEMENT_3D('',#655,#413,#412);
#395=AXIS2_PLACEMENT_3D('',#656,#415,#414);
#396=AXIS2_PLACEMENT_3D('',#657,#417,#416);
#397=AXIS2_PLACEMENT_3D('',#658,#419,#418);
#398=AXIS2_PLACEMENT_3D('',#659,#421,#420);
#399=AXIS2_PLACEMENT_3D('',#660,#423,#422);
#400=AXIS2_PLACEMENT_3D('',#661,#425,#424);
#401=AXIS2_PLACEMENT_3D('',#662,#427,#426);
#402=AXIS2_PLACEMENT_3D('',#663,#429,#428);
#403=AXIS2_PLACEMENT_3D('',#664,#431,#430);
#404=AXIS2_PLACEMENT_3D('',#665,#433,#432);
#405=AXIS2_PLACEMENT_3D('',#666,#435,#434);
#406=DIRECTION('',(1.,0.,0.));
#407=DIRECTION('',(0.,0.,1.));
#408=DIRECTION('',(-0.,1.,0.));
#409=DIRECTION('',(0.,0.,-1.));
#410=DIRECTION('',(0.,-1.,0.));
#411=DIRECTION('',(-1.,0.,0.));
#412=DIRECTION('',(-0.999998836560786,3.46838183030529E-019,
0.00152541046079507));
#413=DIRECTION('',(0.00152541046079507,0.,0.999998836560786));
#414=DIRECTION('',(-0.119145220618469,-2.25754056029227E-016,
-0.992876838486917));
#415=DIRECTION('',(-0.992876838486917,0.,0.119145220618469));
#416=DIRECTION('',(0.,-1.,0.));
#417=DIRECTION('',(0.,0.,1.));
#418=DIRECTION('',(-0.242535625035865,-2.20584865961757E-016,
-0.970142500145449));
#419=DIRECTION('',(-0.970142500145449,0.,0.242535625035865));
#420=DIRECTION('',(0.,-1.,0.));
#421=DIRECTION('',(0.,0.,1.));
#422=DIRECTION('',(0.,1.,0.));
#423=DIRECTION('',(1.,0.,0.));
#424=DIRECTION('',(-0.,1.,0.));
#425=DIRECTION('',(0.,0.,-1.));
#426=DIRECTION('',(0.119145220618359,2.2575405602923E-016,0.992876838486931));
#427=DIRECTION('',(0.992876838486931,0.,-0.119145220618359));
#428=DIRECTION('',(-0.,1.,0.));
#429=DIRECTION('',(0.,0.,-1.));
#430=DIRECTION('',(0.135113204733324,2.25288697048267E-016,0.990830168044298)
);
#431=DIRECTION('',(0.990830168044298,0.,-0.135113204733324));
#432=DIRECTION('',(1.,0.,-0.));
#433=DIRECTION('',(0.,-1.,0.));
#434=DIRECTION('',(-1.,0.,0.));
#435=DIRECTION('',(0.,1.,0.));
#436=CARTESIAN_POINT('',(0.,0.,0.));
#437=CARTESIAN_POINT('',(0.,2000.,167.986001093652));
#438=CARTESIAN_POINT('',(14.0198654854466,2000.,167.986001093652));
#439=CARTESIAN_POINT('',(14.0198654854466,0.,167.986001093652));
#440=CARTESIAN_POINT('',(0.,0.,167.986001093652));
#441=CARTESIAN_POINT('',(-2.8421709430404E-014,0.,167.986001093652));
#442=CARTESIAN_POINT('',(-2.8421709430404E-014,0.,234.184334987323));
#443=CARTESIAN_POINT('',(-2.8421709430404E-014,2000.,234.184334987323));
#444=CARTESIAN_POINT('',(-2.8421709430404E-014,2000.,167.986001093651));
#445=CARTESIAN_POINT('',(-1.38640169356966E-014,2000.,234.184334987323));
#446=CARTESIAN_POINT('',(-1.45576924947074E-014,0.,234.184334987323));
#447=CARTESIAN_POINT('',(130.019865485447,0.,233.986001093651));
#448=CARTESIAN_POINT('',(130.019865485447,2000.,233.986001093651));
#449=CARTESIAN_POINT('',(130.019865485446,2000.,233.98600109365));
#450=CARTESIAN_POINT('',(130.019865485447,0.,233.986001093651));
#451=CARTESIAN_POINT('',(131.401545354209,0.,245.499999999999));
#452=CARTESIAN_POINT('',(131.401545354209,2000.,245.499999999999));
#453=CARTESIAN_POINT('',(131.401545354209,0.,245.5));
#454=CARTESIAN_POINT('',(194.401545354212,0.,245.5));
#455=CARTESIAN_POINT('',(194.401545354212,2000.,245.5));
#456=CARTESIAN_POINT('',(131.401545354209,2000.,245.5));
#457=CARTESIAN_POINT('',(194.401545354212,2000.,245.499999999999));
#458=CARTESIAN_POINT('',(194.401545354212,0.,245.499999999999));
#459=CARTESIAN_POINT('',(195.401545354211,0.,249.5));
#460=CARTESIAN_POINT('',(195.40154535421,2000.,249.5));
#461=CARTESIAN_POINT('',(195.401545354211,0.,249.5));
#462=CARTESIAN_POINT('',(220.401545354211,0.,249.5));
#463=CARTESIAN_POINT('',(220.401545354211,2000.,249.5));
#464=CARTESIAN_POINT('',(195.401545354211,2000.,249.5));
#465=CARTESIAN_POINT('',(220.401545354211,2000.,236.499999999998));
#466=CARTESIAN_POINT('',(220.401545354211,2000.,249.5));
#467=CARTESIAN_POINT('',(220.401545354211,0.,249.5));
#468=CARTESIAN_POINT('',(220.401545354211,0.,236.499999999998));
#469=CARTESIAN_POINT('',(144.600865336314,2000.,236.499999999999));
#470=CARTESIAN_POINT('',(220.401545354211,2000.,236.499999999999));
#471=CARTESIAN_POINT('',(220.401545354211,0.,236.499999999999));
#472=CARTESIAN_POINT('',(144.600865336314,0.,236.499999999999));
#473=CARTESIAN_POINT('',(144.600865336314,2000.,236.499999999998));
#474=CARTESIAN_POINT('',(144.600865336314,0.,236.499999999998));
#475=CARTESIAN_POINT('',(142.680865336315,0.,220.499999999999));
#476=CARTESIAN_POINT('',(142.680865336315,2000.,220.499999999999));
#477=CARTESIAN_POINT('',(21.1808653363128,2000.,220.499999999999));
#478=CARTESIAN_POINT('',(142.680865336315,2000.,220.499999999999));
#479=CARTESIAN_POINT('',(142.680865336315,0.,220.499999999999));
#480=CARTESIAN_POINT('',(21.1808653363128,0.,220.499999999999));
#481=CARTESIAN_POINT('',(21.1808653363127,2000.,220.499999999999));
#482=CARTESIAN_POINT('',(21.1808653363127,0.,220.499999999999));
#483=CARTESIAN_POINT('',(14.0198654854466,0.,167.986001093652));
#484=CARTESIAN_POINT('',(14.0198654854466,2000.,167.986001093651));
#485=CARTESIAN_POINT('',(14.0198654854466,0.,167.986001093652));
#486=CARTESIAN_POINT('',(21.180865336313,0.,220.499999999999));
#487=CARTESIAN_POINT('',(142.680865336315,0.,220.499999999999));
#488=CARTESIAN_POINT('',(144.600865336314,0.,236.499999999998));
#489=CARTESIAN_POINT('',(220.401545354211,0.,236.499999999998));
#490=CARTESIAN_POINT('',(220.401545354211,0.,249.5));
#491=CARTESIAN_POINT('',(195.40154535421,0.,249.5));
#492=CARTESIAN_POINT('',(194.401545354212,0.,245.499999999999));
#493=CARTESIAN_POINT('',(131.401545354208,0.,245.499999999999));
#494=CARTESIAN_POINT('',(130.019865485446,0.,233.986001093651));
#495=CARTESIAN_POINT('',(0.,0.,234.184334987323));
#496=CARTESIAN_POINT('',(0.,0.,167.986001093652));
#497=CARTESIAN_POINT('',(220.401545354211,2000.,236.499999999998));
#498=CARTESIAN_POINT('',(144.600865336314,2000.,236.499999999998));
#499=CARTESIAN_POINT('',(142.680865336315,2000.,220.499999999999));
#500=CARTESIAN_POINT('',(21.180865336313,2000.,220.499999999999));
#501=CARTESIAN_POINT('',(14.0198654854466,2000.,167.986001093651));
#502=CARTESIAN_POINT('',(0.,2000.,167.986001093651));
#503=CARTESIAN_POINT('',(0.,2000.,234.184334987323));
#504=CARTESIAN_POINT('',(130.019865485446,2000.,233.98600109365));
#505=CARTESIAN_POINT('',(131.401545354208,2000.,245.499999999999));
#506=CARTESIAN_POINT('',(194.401545354212,2000.,245.499999999999));
#507=CARTESIAN_POINT('',(195.40154535421,2000.,249.5));
#508=CARTESIAN_POINT('',(220.401545354211,2000.,249.5));
#509=CARTESIAN_POINT('',(0.,0.,167.986001093652));
#510=CARTESIAN_POINT('',(0.,2000.,167.986001093652));
#511=CARTESIAN_POINT('',(0.,2000.,167.986001093652));
#512=CARTESIAN_POINT('',(14.0198654854466,2000.,167.986001093652));
#513=CARTESIAN_POINT('',(14.0198654854466,2000.,167.986001093652));
#514=CARTESIAN_POINT('',(14.0198654854466,0.,167.986001093652));
#515=CARTESIAN_POINT('',(14.0198654854466,0.,167.986001093652));
#516=CARTESIAN_POINT('',(0.,0.,167.986001093652));
#517=CARTESIAN_POINT('',(-2.8421709430404E-014,2000.,167.986001093651));
#518=CARTESIAN_POINT('',(-2.8421709430404E-014,0.,167.986001093652));
#519=CARTESIAN_POINT('',(-2.8421709430404E-014,0.,167.986001093652));
#520=CARTESIAN_POINT('',(-2.8421709430404E-014,0.,234.184334987323));
#521=CARTESIAN_POINT('',(-2.8421709430404E-014,0.,234.184334987323));
#522=CARTESIAN_POINT('',(-2.8421709430404E-014,2000.,234.184334987323));
#523=CARTESIAN_POINT('',(-2.8421709430404E-014,2000.,234.184334987323));
#524=CARTESIAN_POINT('',(-2.8421709430404E-014,2000.,167.986001093651));
#525=CARTESIAN_POINT('',(130.019865485447,2000.,233.986001093651));
#526=CARTESIAN_POINT('',(-1.38640169356966E-014,2000.,234.184334987323));
#527=CARTESIAN_POINT('',(-1.38640169356966E-014,2000.,234.184334987323));
#528=CARTESIAN_POINT('',(-1.45576924947074E-014,0.,234.184334987323));
#529=CARTESIAN_POINT('',(-1.45576924947074E-014,0.,234.184334987323));
#530=CARTESIAN_POINT('',(130.019865485447,0.,233.986001093651));
#531=CARTESIAN_POINT('',(130.019865485447,0.,233.986001093651));
#532=CARTESIAN_POINT('',(130.019865485447,2000.,233.986001093651));
#533=CARTESIAN_POINT('',(131.401545354209,2000.,245.499999999999));
#534=CARTESIAN_POINT('',(130.019865485446,2000.,233.98600109365));
#535=CARTESIAN_POINT('',(130.019865485446,2000.,233.98600109365));
#536=CARTESIAN_POINT('',(130.019865485447,0.,233.986001093651));
#537=CARTESIAN_POINT('',(130.019865485447,0.,233.986001093651));
#538=CARTESIAN_POINT('',(131.401545354209,0.,245.499999999999));
#539=CARTESIAN_POINT('',(131.401545354209,0.,245.499999999999));
#540=CARTESIAN_POINT('',(131.401545354209,2000.,245.499999999999));
#541=CARTESIAN_POINT('',(131.401545354209,2000.,245.5));
#542=CARTESIAN_POINT('',(131.401545354209,0.,245.5));
#543=CARTESIAN_POINT('',(131.401545354209,0.,245.5));
#544=CARTESIAN_POINT('',(194.401545354212,0.,245.5));
#545=CARTESIAN_POINT('',(194.401545354212,0.,245.5));
#546=CARTESIAN_POINT('',(194.401545354212,2000.,245.5));
#547=CARTESIAN_POINT('',(194.401545354212,2000.,245.5));
#548=CARTESIAN_POINT('',(131.401545354209,2000.,245.5));
#549=CARTESIAN_POINT('',(195.40154535421,2000.,249.5));
#550=CARTESIAN_POINT('',(194.401545354212,2000.,245.499999999999));
#551=CARTESIAN_POINT('',(194.401545354212,2000.,245.499999999999));
#552=CARTESIAN_POINT('',(194.401545354212,0.,245.499999999999));
#553=CARTESIAN_POINT('',(194.401545354212,0.,245.499999999999));
#554=CARTESIAN_POINT('',(195.401545354211,0.,249.5));
#555=CARTESIAN_POINT('',(195.401545354211,0.,249.5));
#556=CARTESIAN_POINT('',(195.40154535421,2000.,249.5));
#557=CARTESIAN_POINT('',(195.401545354211,2000.,249.5));
#558=CARTESIAN_POINT('',(195.401545354211,0.,249.5));
#559=CARTESIAN_POINT('',(195.401545354211,0.,249.5));
#560=CARTESIAN_POINT('',(220.401545354211,0.,249.5));
#561=CARTESIAN_POINT('',(220.401545354211,0.,249.5));
#562=CARTESIAN_POINT('',(220.401545354211,2000.,249.5));
#563=CARTESIAN_POINT('',(220.401545354211,2000.,249.5));
#564=CARTESIAN_POINT('',(195.401545354211,2000.,249.5));
#565=CARTESIAN_POINT('',(220.401545354211,0.,236.499999999998));
#566=CARTESIAN_POINT('',(220.401545354211,2000.,236.499999999998));
#567=CARTESIAN_POINT('',(220.401545354211,2000.,236.499999999998));
#568=CARTESIAN_POINT('',(220.401545354211,2000.,249.5));
#569=CARTESIAN_POINT('',(220.401545354211,2000.,249.5));
#570=CARTESIAN_POINT('',(220.401545354211,0.,249.5));
#571=CARTESIAN_POINT('',(220.401545354211,0.,249.5));
#572=CARTESIAN_POINT('',(220.401545354211,0.,236.499999999998));
#573=CARTESIAN_POINT('',(144.600865336314,0.,236.499999999999));
#574=CARTESIAN_POINT('',(144.600865336314,2000.,236.499999999999));
#575=CARTESIAN_POINT('',(144.600865336314,2000.,236.499999999999));
#576=CARTESIAN_POINT('',(220.401545354211,2000.,236.499999999999));
#577=CARTESIAN_POINT('',(220.401545354211,2000.,236.499999999999));
#578=CARTESIAN_POINT('',(220.401545354211,0.,236.499999999999));
#579=CARTESIAN_POINT('',(220.401545354211,0.,236.499999999999));
#580=CARTESIAN_POINT('',(144.600865336314,0.,236.499999999999));
#581=CARTESIAN_POINT('',(142.680865336315,2000.,220.499999999999));
#582=CARTESIAN_POINT('',(144.600865336314,2000.,236.499999999998));
#583=CARTESIAN_POINT('',(144.600865336314,2000.,236.499999999998));
#584=CARTESIAN_POINT('',(144.600865336314,0.,236.499999999998));
#585=CARTESIAN_POINT('',(144.600865336314,0.,236.499999999998));
#586=CARTESIAN_POINT('',(142.680865336315,0.,220.499999999999));
#587=CARTESIAN_POINT('',(142.680865336315,0.,220.499999999999));
#588=CARTESIAN_POINT('',(142.680865336315,2000.,220.499999999999));
#589=CARTESIAN_POINT('',(21.1808653363128,0.,220.499999999999));
#590=CARTESIAN_POINT('',(21.1808653363128,2000.,220.499999999999));
#591=CARTESIAN_POINT('',(21.1808653363128,2000.,220.499999999999));
#592=CARTESIAN_POINT('',(142.680865336315,2000.,220.499999999999));
#593=CARTESIAN_POINT('',(142.680865336315,2000.,220.499999999999));
#594=CARTESIAN_POINT('',(142.680865336315,0.,220.499999999999));
#595=CARTESIAN_POINT('',(142.680865336315,0.,220.499999999999));
#596=CARTESIAN_POINT('',(21.1808653363128,0.,220.499999999999));
#597=CARTESIAN_POINT('',(14.0198654854466,2000.,167.986001093651));
#598=CARTESIAN_POINT('',(21.1808653363127,2000.,220.499999999999));
#599=CARTESIAN_POINT('',(21.1808653363127,2000.,220.499999999999));
#600=CARTESIAN_POINT('',(21.1808653363127,0.,220.499999999999));
#601=CARTESIAN_POINT('',(21.1808653363127,0.,220.499999999999));
#602=CARTESIAN_POINT('',(14.0198654854466,0.,167.986001093652));
#603=CARTESIAN_POINT('',(14.0198654854466,0.,167.986001093652));
#604=CARTESIAN_POINT('',(14.0198654854466,2000.,167.986001093651));
#605=CARTESIAN_POINT('',(0.,0.,167.986001093652));
#606=CARTESIAN_POINT('',(14.0198654854466,0.,167.986001093652));
#607=CARTESIAN_POINT('',(14.0198654854466,0.,167.986001093652));
#608=CARTESIAN_POINT('',(21.180865336313,0.,220.499999999999));
#609=CARTESIAN_POINT('',(21.180865336313,0.,220.499999999999));
#610=CARTESIAN_POINT('',(142.680865336315,0.,220.499999999999));
#611=CARTESIAN_POINT('',(142.680865336315,0.,220.499999999999));
#612=CARTESIAN_POINT('',(144.600865336314,0.,236.499999999998));
#613=CARTESIAN_POINT('',(144.600865336314,0.,236.499999999998));
#614=CARTESIAN_POINT('',(220.401545354211,0.,236.499999999998));
#615=CARTESIAN_POINT('',(220.401545354211,0.,236.499999999998));
#616=CARTESIAN_POINT('',(220.401545354211,0.,249.5));
#617=CARTESIAN_POINT('',(220.401545354211,0.,249.5));
#618=CARTESIAN_POINT('',(195.40154535421,0.,249.5));
#619=CARTESIAN_POINT('',(195.40154535421,0.,249.5));
#620=CARTESIAN_POINT('',(194.401545354212,0.,245.499999999999));
#621=CARTESIAN_POINT('',(194.401545354212,0.,245.499999999999));
#622=CARTESIAN_POINT('',(131.401545354208,0.,245.499999999999));
#623=CARTESIAN_POINT('',(131.401545354208,0.,245.499999999999));
#624=CARTESIAN_POINT('',(130.019865485446,0.,233.986001093651));
#625=CARTESIAN_POINT('',(130.019865485446,0.,233.986001093651));
#626=CARTESIAN_POINT('',(0.,0.,234.184334987323));
#627=CARTESIAN_POINT('',(0.,0.,234.184334987323));
#628=CARTESIAN_POINT('',(0.,0.,167.986001093652));
#629=CARTESIAN_POINT('',(220.401545354211,2000.,249.5));
#630=CARTESIAN_POINT('',(220.401545354211,2000.,236.499999999998));
#631=CARTESIAN_POINT('',(220.401545354211,2000.,236.499999999998));
#632=CARTESIAN_POINT('',(144.600865336314,2000.,236.499999999998));
#633=CARTESIAN_POINT('',(144.600865336314,2000.,236.499999999998));
#634=CARTESIAN_POINT('',(142.680865336315,2000.,220.499999999999));
#635=CARTESIAN_POINT('',(142.680865336315,2000.,220.499999999999));
#636=CARTESIAN_POINT('',(21.180865336313,2000.,220.499999999999));
#637=CARTESIAN_POINT('',(21.180865336313,2000.,220.499999999999));
#638=CARTESIAN_POINT('',(14.0198654854466,2000.,167.986001093651));
#639=CARTESIAN_POINT('',(14.0198654854466,2000.,167.986001093651));
#640=CARTESIAN_POINT('',(0.,2000.,167.986001093651));
#641=CARTESIAN_POINT('',(0.,2000.,167.986001093651));
#642=CARTESIAN_POINT('',(0.,2000.,234.184334987323));
#643=CARTESIAN_POINT('',(0.,2000.,234.184334987323));
#644=CARTESIAN_POINT('',(130.019865485446,2000.,233.98600109365));
#645=CARTESIAN_POINT('',(130.019865485446,2000.,233.98600109365));
#646=CARTESIAN_POINT('',(131.401545354208,2000.,245.499999999999));
#647=CARTESIAN_POINT('',(131.401545354208,2000.,245.499999999999));
#648=CARTESIAN_POINT('',(194.401545354212,2000.,245.499999999999));
#649=CARTESIAN_POINT('',(194.401545354212,2000.,245.499999999999));
#650=CARTESIAN_POINT('',(195.40154535421,2000.,249.5));
#651=CARTESIAN_POINT('',(195.40154535421,2000.,249.5));
#652=CARTESIAN_POINT('',(220.401545354211,2000.,249.5));
#653=CARTESIAN_POINT('',(7.00993274272329,1000.,167.986001093652));
#654=CARTESIAN_POINT('',(-2.8421709430404E-014,1000.,201.085168040488));
#655=CARTESIAN_POINT('',(65.0099327427233,1000.,234.085168040487));
#656=CARTESIAN_POINT('',(130.710705419828,1000.,239.743000546825));
#657=CARTESIAN_POINT('',(162.901545354211,1000.,245.5));
#658=CARTESIAN_POINT('',(194.901545354211,1000.,247.5));
#659=CARTESIAN_POINT('',(207.901545354211,1000.,249.5));
#660=CARTESIAN_POINT('',(220.401545354211,1000.,243.));
#661=CARTESIAN_POINT('',(182.501205345262,1000.,236.499999999999));
#662=CARTESIAN_POINT('',(143.640865336314,1000.,228.499999999999));
#663=CARTESIAN_POINT('',(81.9308653363139,1000.,220.499999999999));
#664=CARTESIAN_POINT('',(17.6003654108797,1000.,194.243000546825));
#665=CARTESIAN_POINT('',(110.200772677105,0.,208.743000546826));
#666=CARTESIAN_POINT('',(110.200772677105,2000.,208.743000546825));
#667=PRODUCT_DEFINITION_SHAPE('','',#668);
#668=PRODUCT_DEFINITION('','',#680,#685);
#669=(
GEOMETRIC_REPRESENTATION_CONTEXT(3)
GLOBAL_UNCERTAINTY_ASSIGNED_CONTEXT((#670))
GLOBAL_UNIT_ASSIGNED_CONTEXT((#672,#671,#675))
REPRESENTATION_CONTEXT('','')
);
#670=UNCERTAINTY_MEASURE_WITH_UNIT(LENGTH_MEASURE(0.001),#672,'','tolerance');
#671=(
CONVERSION_BASED_UNIT('',#673)
NAMED_UNIT(#679)
PLANE_ANGLE_UNIT()
);
#672=(
CONVERSION_BASED_UNIT('',#674)
LENGTH_UNIT()
NAMED_UNIT(#678)
);
#673=PLANE_ANGLE_MEASURE_WITH_UNIT(PLANE_ANGLE_MEASURE(0.0174532925199433),
#676);
#674=LENGTH_MEASURE_WITH_UNIT(LENGTH_MEASURE(1.),#677);
#675=(
NAMED_UNIT(*)
SI_UNIT($,.STERADIAN.)
SOLID_ANGLE_UNIT()
);
#676=(
NAMED_UNIT(*)
PLANE_ANGLE_UNIT()
SI_UNIT($,.RADIAN.)
);
#677=(
LENGTH_UNIT()
NAMED_UNIT(*)
SI_UNIT(.MILLI.,.METRE.)
);
#678=DIMENSIONAL_EXPONENTS(1.,0.,0.,0.,0.,0.,0.);
#679=DIMENSIONAL_EXPONENTS(0.,0.,0.,0.,0.,0.,0.);
#680=PRODUCT_DEFINITION_FORMATION_WITH_SPECIFIED_SOURCE('','',#683,.NOT_KNOWN.
);
#681=PRODUCT_CATEGORY_RELATIONSHIP('','',#686,#682);
#682=PRODUCT_RELATED_PRODUCT_CATEGORY('assembly','',(#683));
#683=PRODUCT('','master','',(#684));
#684=PRODUCT_CONTEXT('',#688,'');
#685=PRODUCT_DEFINITION_CONTEXT('',#688,'part_definition');
#686=PRODUCT_CATEGORY('part','');
#687=APPLICATION_PROTOCOL_DEFINITION('international standard',
'automotive_design_cc2',1994,#688);
#688=APPLICATION_CONTEXT(
'configuration controlled 3D designs of mechanical parts and assemblies');
ENDSEC;
END-ISO-10303-21;
37719