ISO-10303-21;
HEADER;
/* Generated by software using Delcam plc STEP library */

FILE_DESCRIPTION(
/* description */ ('AP-214 File'),
/* implementation_level */ '2;1');

FILE_NAME(
/* name */ 'D604',
/* time_stamp */ 'Tue Dec 27 14:37:23 2016',
/* author */ (''),
/* organization */ (''),
/* preprocessor_version */ 'DELCAM STEP V1',
/* originating_system */ 'Exchange7.1.0006',
/* authorisation */ '');

FILE_SCHEMA (('AUTOMOTIVE_DESIGN'));
ENDSEC;
DATA;
#10=PRESENTATION_STYLE_ASSIGNMENT((#20));
#11=PRESENTATION_STYLE_ASSIGNMENT((#21));
#12=SURFACE_SIDE_STYLE('',(#14));
#13=SURFACE_SIDE_STYLE('',(#15));
#14=SURFACE_STYLE_FILL_AREA(#16);
#15=SURFACE_STYLE_FILL_AREA(#17);
#16=FILL_AREA_STYLE('',(#18));
#17=FILL_AREA_STYLE('',(#19));
#18=FILL_AREA_STYLE_COLOUR('',#49);
#19=FILL_AREA_STYLE_COLOUR('',#50);
#20=SURFACE_STYLE_USAGE(.BOTH.,#12);
#21=SURFACE_STYLE_USAGE(.BOTH.,#13);
#22=STYLED_ITEM('',(#10),#65);
#23=STYLED_ITEM('',(#10),#66);
#24=STYLED_ITEM('',(#10),#67);
#25=STYLED_ITEM('',(#10),#68);
#26=STYLED_ITEM('',(#10),#69);
#27=STYLED_ITEM('',(#10),#70);
#28=STYLED_ITEM('',(#10),#71);
#29=STYLED_ITEM('',(#10),#72);
#30=STYLED_ITEM('',(#10),#73);
#31=STYLED_ITEM('',(#10),#74);
#32=STYLED_ITEM('',(#10),#75);
#33=STYLED_ITEM('',(#10),#76);
#34=STYLED_ITEM('',(#10),#77);
#35=STYLED_ITEM('',(#10),#78);
#36=STYLED_ITEM('',(#10),#79);
#37=STYLED_ITEM('',(#10),#80);
#38=STYLED_ITEM('',(#10),#81);
#39=STYLED_ITEM('',(#10),#82);
#40=STYLED_ITEM('',(#10),#83);
#41=STYLED_ITEM('',(#10),#84);
#42=STYLED_ITEM('',(#10),#85);
#43=STYLED_ITEM('',(#10),#86);
#44=STYLED_ITEM('',(#10),#87);
#45=STYLED_ITEM('',(#10),#88);
#46=STYLED_ITEM('',(#10),#89);
#47=STYLED_ITEM('',(#10),#90);
#48=STYLED_ITEM('',(#11),#56);
#49=COLOUR_RGB('',0.,0.,0.);
#50=COLOUR_RGB('rgb_colour_1',0.4,0.4,0.4);
#51=MECHANICAL_DESIGN_GEOMETRIC_PRESENTATION_REPRESENTATION('',(#22,#23,#24,
#25,#26,#27,#28,#29,#30,#31,#32,#33,#34,#35,#36,#37,#38,#39,#40,#41,#42,#43,
#44,#45,#46,#47,#48),#889);
#52=PRESENTATION_LAYER_ASSIGNMENT('124','D846',(#65,#66,#67,#68,#69,#70,#71,
#72,#73,#74,#75,#76,#77,#78,#79,#80,#81,#82,#83,#84,#85,#86,#87,#88,#89,#90,
#56));
#53=SHAPE_REPRESENTATION_RELATIONSHIP('','',#554,#54);
#54=ADVANCED_BREP_SHAPE_REPRESENTATION('',(#55),#889);
#55=MANIFOLD_SOLID_BREP('7556',#56);
#56=CLOSED_SHELL('',(#65,#66,#67,#68,#69,#70,#71,#72,#73,#74,#75,#76,#77,#78,
#79,#80,#81,#82,#83,#84,#85,#86,#87,#88,#89,#90));
#57=CYLINDRICAL_SURFACE('',#579,5.49338706265528);
#58=CYLINDRICAL_SURFACE('',#581,19.8258475423481);
#59=CYLINDRICAL_SURFACE('',#582,23.4727938591196);
#60=CYLINDRICAL_SURFACE('',#585,7.85696478016494);
#61=CYLINDRICAL_SURFACE('',#589,25.0422149219904);
#62=CYLINDRICAL_SURFACE('',#590,10.9799063601827);
#63=CYLINDRICAL_SURFACE('',#591,43.0793974884927);
#64=CYLINDRICAL_SURFACE('',#592,8.28669738032234);
#65=ADVANCED_FACE('',(#91),#287,.T.);
#66=ADVANCED_FACE('',(#92),#288,.T.);
#67=ADVANCED_FACE('',(#93),#289,.T.);
#68=ADVANCED_FACE('',(#94),#290,.T.);
#69=ADVANCED_FACE('',(#95),#291,.T.);
#70=ADVANCED_FACE('',(#96),#292,.T.);
#71=ADVANCED_FACE('',(#97),#293,.T.);
#72=ADVANCED_FACE('',(#98),#57,.F.);
#73=ADVANCED_FACE('',(#99),#294,.T.);
#74=ADVANCED_FACE('',(#100),#58,.T.);
#75=ADVANCED_FACE('',(#101),#59,.T.);
#76=ADVANCED_FACE('',(#102),#295,.T.);
#77=ADVANCED_FACE('',(#103),#296,.T.);
#78=ADVANCED_FACE('',(#104),#60,.T.);
#79=ADVANCED_FACE('',(#105),#297,.T.);
#80=ADVANCED_FACE('',(#106),#298,.T.);
#81=ADVANCED_FACE('',(#107),#299,.T.);
#82=ADVANCED_FACE('',(#108),#61,.T.);
#83=ADVANCED_FACE('',(#109),#62,.T.);
#84=ADVANCED_FACE('',(#110),#63,.F.);
#85=ADVANCED_FACE('',(#111),#64,.F.);
#86=ADVANCED_FACE('',(#112),#300,.T.);
#87=ADVANCED_FACE('',(#113),#301,.T.);
#88=ADVANCED_FACE('',(#114),#302,.T.);
#89=ADVANCED_FACE('',(#115),#303,.T.);
#90=ADVANCED_FACE('',(#116),#304,.F.);
#91=FACE_OUTER_BOUND('',#117,.T.);
#92=FACE_OUTER_BOUND('',#118,.T.);
#93=FACE_OUTER_BOUND('',#119,.T.);
#94=FACE_OUTER_BOUND('',#120,.T.);
#95=FACE_OUTER_BOUND('',#121,.T.);
#96=FACE_OUTER_BOUND('',#122,.T.);
#97=FACE_OUTER_BOUND('',#123,.T.);
#98=FACE_OUTER_BOUND('',#124,.T.);
#99=FACE_OUTER_BOUND('',#125,.T.);
#100=FACE_OUTER_BOUND('',#126,.T.);
#101=FACE_OUTER_BOUND('',#127,.T.);
#102=FACE_OUTER_BOUND('',#128,.T.);
#103=FACE_OUTER_BOUND('',#129,.T.);
#104=FACE_OUTER_BOUND('',#130,.T.);
#105=FACE_OUTER_BOUND('',#131,.T.);
#106=FACE_OUTER_BOUND('',#132,.T.);
#107=FACE_OUTER_BOUND('',#133,.T.);
#108=FACE_OUTER_BOUND('',#134,.T.);
#109=FACE_OUTER_BOUND('',#135,.T.);
#110=FACE_OUTER_BOUND('',#136,.T.);
#111=FACE_OUTER_BOUND('',#137,.T.);
#112=FACE_OUTER_BOUND('',#138,.T.);
#113=FACE_OUTER_BOUND('',#139,.T.);
#114=FACE_OUTER_BOUND('',#140,.T.);
#115=FACE_OUTER_BOUND('',#141,.T.);
#116=FACE_OUTER_BOUND('',#142,.T.);
#117=EDGE_LOOP('',(#143,#144,#145,#146));
#118=EDGE_LOOP('',(#147,#148,#149,#150));
#119=EDGE_LOOP('',(#151,#152,#153,#154));
#120=EDGE_LOOP('',(#155,#156,#157,#158));
#121=EDGE_LOOP('',(#159,#160,#161,#162));
#122=EDGE_LOOP('',(#163,#164,#165,#166));
#123=EDGE_LOOP('',(#167,#168,#169,#170));
#124=EDGE_LOOP('',(#171,#172,#173,#174));
#125=EDGE_LOOP('',(#175,#176,#177,#178));
#126=EDGE_LOOP('',(#179,#180,#181,#182));
#127=EDGE_LOOP('',(#183,#184,#185,#186));
#128=EDGE_LOOP('',(#187,#188,#189,#190));
#129=EDGE_LOOP('',(#191,#192,#193,#194));
#130=EDGE_LOOP('',(#195,#196,#197,#198));
#131=EDGE_LOOP('',(#199,#200,#201,#202));
#132=EDGE_LOOP('',(#203,#204,#205,#206));
#133=EDGE_LOOP('',(#207,#208,#209,#210));
#134=EDGE_LOOP('',(#211,#212,#213,#214));
#135=EDGE_LOOP('',(#215,#216,#217,#218));
#136=EDGE_LOOP('',(#219,#220,#221,#222));
#137=EDGE_LOOP('',(#223,#224,#225,#226));
#138=EDGE_LOOP('',(#227,#228,#229,#230));
#139=EDGE_LOOP('',(#231,#232,#233,#234));
#140=EDGE_LOOP('',(#235,#236,#237,#238));
#141=EDGE_LOOP('',(#239,#240,#241,#242,#243,#244,#245,#246,#247,#248,#249,#250
,#251,#252,#253,#254,#255,#256,#257,#258,#259,#260,#261,#262));
#142=EDGE_LOOP('',(#263,#264,#265,#266,#267,#268,#269,#270,#271,#272,#273,#274
,#275,#276,#277,#278,#279,#280,#281,#282,#283,#284,#285,#286));
#143=ORIENTED_EDGE('',*,*,#392,.F.);
#144=ORIENTED_EDGE('',*,*,#344,.F.);
#145=ORIENTED_EDGE('',*,*,#368,.T.);
#146=ORIENTED_EDGE('',*,*,#321,.T.);
#147=ORIENTED_EDGE('',*,*,#391,.F.);
#148=ORIENTED_EDGE('',*,*,#321,.F.);
#149=ORIENTED_EDGE('',*,*,#367,.T.);
#150=ORIENTED_EDGE('',*,*,#322,.T.);
#151=ORIENTED_EDGE('',*,*,#390,.F.);
#152=ORIENTED_EDGE('',*,*,#322,.F.);
#153=ORIENTED_EDGE('',*,*,#366,.T.);
#154=ORIENTED_EDGE('',*,*,#323,.T.);
#155=ORIENTED_EDGE('',*,*,#389,.F.);
#156=ORIENTED_EDGE('',*,*,#323,.F.);
#157=ORIENTED_EDGE('',*,*,#365,.T.);
#158=ORIENTED_EDGE('',*,*,#324,.T.);
#159=ORIENTED_EDGE('',*,*,#388,.F.);
#160=ORIENTED_EDGE('',*,*,#324,.F.);
#161=ORIENTED_EDGE('',*,*,#364,.T.);
#162=ORIENTED_EDGE('',*,*,#325,.T.);
#163=ORIENTED_EDGE('',*,*,#387,.F.);
#164=ORIENTED_EDGE('',*,*,#325,.F.);
#165=ORIENTED_EDGE('',*,*,#363,.T.);
#166=ORIENTED_EDGE('',*,*,#326,.T.);
#167=ORIENTED_EDGE('',*,*,#386,.F.);
#168=ORIENTED_EDGE('',*,*,#326,.F.);
#169=ORIENTED_EDGE('',*,*,#362,.T.);
#170=ORIENTED_EDGE('',*,*,#327,.T.);
#171=ORIENTED_EDGE('',*,*,#385,.F.);
#172=ORIENTED_EDGE('',*,*,#327,.F.);
#173=ORIENTED_EDGE('',*,*,#361,.T.);
#174=ORIENTED_EDGE('',*,*,#328,.T.);
#175=ORIENTED_EDGE('',*,*,#384,.F.);
#176=ORIENTED_EDGE('',*,*,#328,.F.);
#177=ORIENTED_EDGE('',*,*,#360,.T.);
#178=ORIENTED_EDGE('',*,*,#329,.T.);
#179=ORIENTED_EDGE('',*,*,#383,.F.);
#180=ORIENTED_EDGE('',*,*,#329,.F.);
#181=ORIENTED_EDGE('',*,*,#359,.T.);
#182=ORIENTED_EDGE('',*,*,#330,.T.);
#183=ORIENTED_EDGE('',*,*,#382,.F.);
#184=ORIENTED_EDGE('',*,*,#330,.F.);
#185=ORIENTED_EDGE('',*,*,#358,.T.);
#186=ORIENTED_EDGE('',*,*,#331,.T.);
#187=ORIENTED_EDGE('',*,*,#381,.F.);
#188=ORIENTED_EDGE('',*,*,#331,.F.);
#189=ORIENTED_EDGE('',*,*,#357,.T.);
#190=ORIENTED_EDGE('',*,*,#332,.T.);
#191=ORIENTED_EDGE('',*,*,#380,.F.);
#192=ORIENTED_EDGE('',*,*,#332,.F.);
#193=ORIENTED_EDGE('',*,*,#356,.T.);
#194=ORIENTED_EDGE('',*,*,#333,.T.);
#195=ORIENTED_EDGE('',*,*,#379,.F.);
#196=ORIENTED_EDGE('',*,*,#333,.F.);
#197=ORIENTED_EDGE('',*,*,#355,.T.);
#198=ORIENTED_EDGE('',*,*,#334,.T.);
#199=ORIENTED_EDGE('',*,*,#378,.F.);
#200=ORIENTED_EDGE('',*,*,#334,.F.);
#201=ORIENTED_EDGE('',*,*,#354,.T.);
#202=ORIENTED_EDGE('',*,*,#335,.T.);
#203=ORIENTED_EDGE('',*,*,#377,.F.);
#204=ORIENTED_EDGE('',*,*,#335,.F.);
#205=ORIENTED_EDGE('',*,*,#353,.T.);
#206=ORIENTED_EDGE('',*,*,#336,.T.);
#207=ORIENTED_EDGE('',*,*,#376,.F.);
#208=ORIENTED_EDGE('',*,*,#336,.F.);
#209=ORIENTED_EDGE('',*,*,#352,.T.);
#210=ORIENTED_EDGE('',*,*,#337,.T.);
#211=ORIENTED_EDGE('',*,*,#375,.F.);
#212=ORIENTED_EDGE('',*,*,#337,.F.);
#213=ORIENTED_EDGE('',*,*,#351,.T.);
#214=ORIENTED_EDGE('',*,*,#338,.T.);
#215=ORIENTED_EDGE('',*,*,#374,.F.);
#216=ORIENTED_EDGE('',*,*,#338,.F.);
#217=ORIENTED_EDGE('',*,*,#350,.T.);
#218=ORIENTED_EDGE('',*,*,#339,.T.);
#219=ORIENTED_EDGE('',*,*,#373,.F.);
#220=ORIENTED_EDGE('',*,*,#339,.F.);
#221=ORIENTED_EDGE('',*,*,#349,.T.);
#222=ORIENTED_EDGE('',*,*,#340,.T.);
#223=ORIENTED_EDGE('',*,*,#372,.F.);
#224=ORIENTED_EDGE('',*,*,#340,.F.);
#225=ORIENTED_EDGE('',*,*,#348,.T.);
#226=ORIENTED_EDGE('',*,*,#341,.T.);
#227=ORIENTED_EDGE('',*,*,#371,.F.);
#228=ORIENTED_EDGE('',*,*,#341,.F.);
#229=ORIENTED_EDGE('',*,*,#347,.T.);
#230=ORIENTED_EDGE('',*,*,#342,.T.);
#231=ORIENTED_EDGE('',*,*,#370,.F.);
#232=ORIENTED_EDGE('',*,*,#342,.F.);
#233=ORIENTED_EDGE('',*,*,#346,.T.);
#234=ORIENTED_EDGE('',*,*,#343,.T.);
#235=ORIENTED_EDGE('',*,*,#369,.F.);
#236=ORIENTED_EDGE('',*,*,#343,.F.);
#237=ORIENTED_EDGE('',*,*,#345,.T.);
#238=ORIENTED_EDGE('',*,*,#344,.T.);
#239=ORIENTED_EDGE('',*,*,#368,.F.);
#240=ORIENTED_EDGE('',*,*,#345,.F.);
#241=ORIENTED_EDGE('',*,*,#346,.F.);
#242=ORIENTED_EDGE('',*,*,#347,.F.);
#243=ORIENTED_EDGE('',*,*,#348,.F.);
#244=ORIENTED_EDGE('',*,*,#349,.F.);
#245=ORIENTED_EDGE('',*,*,#350,.F.);
#246=ORIENTED_EDGE('',*,*,#351,.F.);
#247=ORIENTED_EDGE('',*,*,#352,.F.);
#248=ORIENTED_EDGE('',*,*,#353,.F.);
#249=ORIENTED_EDGE('',*,*,#354,.F.);
#250=ORIENTED_EDGE('',*,*,#355,.F.);
#251=ORIENTED_EDGE('',*,*,#356,.F.);
#252=ORIENTED_EDGE('',*,*,#357,.F.);
#253=ORIENTED_EDGE('',*,*,#358,.F.);
#254=ORIENTED_EDGE('',*,*,#359,.F.);
#255=ORIENTED_EDGE('',*,*,#360,.F.);
#256=ORIENTED_EDGE('',*,*,#361,.F.);
#257=ORIENTED_EDGE('',*,*,#362,.F.);
#258=ORIENTED_EDGE('',*,*,#363,.F.);
#259=ORIENTED_EDGE('',*,*,#364,.F.);
#260=ORIENTED_EDGE('',*,*,#365,.F.);
#261=ORIENTED_EDGE('',*,*,#366,.F.);
#262=ORIENTED_EDGE('',*,*,#367,.F.);
#263=ORIENTED_EDGE('',*,*,#392,.T.);
#264=ORIENTED_EDGE('',*,*,#391,.T.);
#265=ORIENTED_EDGE('',*,*,#390,.T.);
#266=ORIENTED_EDGE('',*,*,#389,.T.);
#267=ORIENTED_EDGE('',*,*,#388,.T.);
#268=ORIENTED_EDGE('',*,*,#387,.T.);
#269=ORIENTED_EDGE('',*,*,#386,.T.);
#270=ORIENTED_EDGE('',*,*,#385,.T.);
#271=ORIENTED_EDGE('',*,*,#384,.T.);
#272=ORIENTED_EDGE('',*,*,#383,.T.);
#273=ORIENTED_EDGE('',*,*,#382,.T.);
#274=ORIENTED_EDGE('',*,*,#381,.T.);
#275=ORIENTED_EDGE('',*,*,#380,.T.);
#276=ORIENTED_EDGE('',*,*,#379,.T.);
#277=ORIENTED_EDGE('',*,*,#378,.T.);
#278=ORIENTED_EDGE('',*,*,#377,.T.);
#279=ORIENTED_EDGE('',*,*,#376,.T.);
#280=ORIENTED_EDGE('',*,*,#375,.T.);
#281=ORIENTED_EDGE('',*,*,#374,.T.);
#282=ORIENTED_EDGE('',*,*,#373,.T.);
#283=ORIENTED_EDGE('',*,*,#372,.T.);
#284=ORIENTED_EDGE('',*,*,#371,.T.);
#285=ORIENTED_EDGE('',*,*,#370,.T.);
#286=ORIENTED_EDGE('',*,*,#369,.T.);
#287=PLANE('',#572);
#288=PLANE('',#573);
#289=PLANE('',#574);
#290=PLANE('',#575);
#291=PLANE('',#576);
#292=PLANE('',#577);
#293=PLANE('',#578);
#294=PLANE('',#580);
#295=PLANE('',#583);
#296=PLANE('',#584);
#297=PLANE('',#586);
#298=PLANE('',#587);
#299=PLANE('',#588);
#300=PLANE('',#593);
#301=PLANE('',#594);
#302=PLANE('',#595);
#303=PLANE('',#596);
#304=PLANE('',#597);
#305=CIRCLE('',#556,8.28669738032234);
#306=CIRCLE('',#557,43.0793974884927);
#307=CIRCLE('',#558,10.9799063601827);
#308=CIRCLE('',#559,25.0422149219904);
#309=CIRCLE('',#560,7.85696478016494);
#310=CIRCLE('',#561,23.4727938591196);
#311=CIRCLE('',#562,19.8258475423481);
#312=CIRCLE('',#563,5.49338706265528);
#313=CIRCLE('',#564,8.28669738032234);
#314=CIRCLE('',#565,43.0793974884927);
#315=CIRCLE('',#566,10.9799063601827);
#316=CIRCLE('',#567,25.0422149219904);
#317=CIRCLE('',#568,7.85696478016494);
#318=CIRCLE('',#569,23.4727938591196);
#319=CIRCLE('',#570,19.8258475423481);
#320=CIRCLE('',#571,5.49338706265528);
#321=EDGE_CURVE('',#528,#552,#393,.T.);
#322=EDGE_CURVE('',#527,#551,#394,.T.);
#323=EDGE_CURVE('',#526,#550,#395,.T.);
#324=EDGE_CURVE('',#525,#549,#396,.T.);
#325=EDGE_CURVE('',#524,#548,#397,.T.);
#326=EDGE_CURVE('',#523,#547,#398,.T.);
#327=EDGE_CURVE('',#522,#546,#399,.T.);
#328=EDGE_CURVE('',#521,#545,#400,.T.);
#329=EDGE_CURVE('',#520,#544,#401,.T.);
#330=EDGE_CURVE('',#519,#543,#402,.T.);
#331=EDGE_CURVE('',#518,#542,#403,.T.);
#332=EDGE_CURVE('',#517,#541,#404,.T.);
#333=EDGE_CURVE('',#516,#540,#405,.T.);
#334=EDGE_CURVE('',#515,#539,#406,.T.);
#335=EDGE_CURVE('',#514,#538,#407,.T.);
#336=EDGE_CURVE('',#513,#537,#408,.T.);
#337=EDGE_CURVE('',#512,#536,#409,.T.);
#338=EDGE_CURVE('',#511,#535,#410,.T.);
#339=EDGE_CURVE('',#510,#534,#411,.T.);
#340=EDGE_CURVE('',#509,#533,#412,.T.);
#341=EDGE_CURVE('',#508,#532,#413,.T.);
#342=EDGE_CURVE('',#507,#531,#414,.T.);
#343=EDGE_CURVE('',#506,#530,#415,.T.);
#344=EDGE_CURVE('',#505,#529,#416,.T.);
#345=EDGE_CURVE('',#506,#505,#417,.T.);
#346=EDGE_CURVE('',#507,#506,#418,.T.);
#347=EDGE_CURVE('',#508,#507,#419,.T.);
#348=EDGE_CURVE('',#509,#508,#305,.T.);
#349=EDGE_CURVE('',#510,#509,#306,.T.);
#350=EDGE_CURVE('',#511,#510,#307,.T.);
#351=EDGE_CURVE('',#512,#511,#308,.T.);
#352=EDGE_CURVE('',#513,#512,#420,.T.);
#353=EDGE_CURVE('',#514,#513,#421,.T.);
#354=EDGE_CURVE('',#515,#514,#422,.T.);
#355=EDGE_CURVE('',#516,#515,#309,.T.);
#356=EDGE_CURVE('',#517,#516,#423,.T.);
#357=EDGE_CURVE('',#518,#517,#424,.T.);
#358=EDGE_CURVE('',#519,#518,#310,.T.);
#359=EDGE_CURVE('',#520,#519,#311,.T.);
#360=EDGE_CURVE('',#521,#520,#425,.T.);
#361=EDGE_CURVE('',#522,#521,#312,.T.);
#362=EDGE_CURVE('',#523,#522,#426,.T.);
#363=EDGE_CURVE('',#524,#523,#427,.T.);
#364=EDGE_CURVE('',#525,#524,#428,.T.);
#365=EDGE_CURVE('',#526,#525,#429,.T.);
#366=EDGE_CURVE('',#527,#526,#430,.T.);
#367=EDGE_CURVE('',#528,#527,#431,.T.);
#368=EDGE_CURVE('',#505,#528,#432,.T.);
#369=EDGE_CURVE('',#530,#529,#433,.T.);
#370=EDGE_CURVE('',#531,#530,#434,.T.);
#371=EDGE_CURVE('',#532,#531,#435,.T.);
#372=EDGE_CURVE('',#533,#532,#313,.T.);
#373=EDGE_CURVE('',#534,#533,#314,.T.);
#374=EDGE_CURVE('',#535,#534,#315,.T.);
#375=EDGE_CURVE('',#536,#535,#316,.T.);
#376=EDGE_CURVE('',#537,#536,#436,.T.);
#377=EDGE_CURVE('',#538,#537,#437,.T.);
#378=EDGE_CURVE('',#539,#538,#438,.T.);
#379=EDGE_CURVE('',#540,#539,#317,.T.);
#380=EDGE_CURVE('',#541,#540,#439,.T.);
#381=EDGE_CURVE('',#542,#541,#440,.T.);
#382=EDGE_CURVE('',#543,#542,#318,.T.);
#383=EDGE_CURVE('',#544,#543,#319,.T.);
#384=EDGE_CURVE('',#545,#544,#441,.T.);
#385=EDGE_CURVE('',#546,#545,#320,.T.);
#386=EDGE_CURVE('',#547,#546,#442,.T.);
#387=EDGE_CURVE('',#548,#547,#443,.T.);
#388=EDGE_CURVE('',#549,#548,#444,.T.);
#389=EDGE_CURVE('',#550,#549,#445,.T.);
#390=EDGE_CURVE('',#551,#550,#446,.T.);
#391=EDGE_CURVE('',#552,#551,#447,.T.);
#392=EDGE_CURVE('',#529,#552,#448,.T.);
#393=LINE('',#789,#449);
#394=LINE('',#790,#450);
#395=LINE('',#791,#451);
#396=LINE('',#792,#452);
#397=LINE('',#793,#453);
#398=LINE('',#794,#454);
#399=LINE('',#795,#455);
#400=LINE('',#796,#456);
#401=LINE('',#797,#457);
#402=LINE('',#798,#458);
#403=LINE('',#799,#459);
#404=LINE('',#800,#460);
#405=LINE('',#801,#461);
#406=LINE('',#802,#462);
#407=LINE('',#803,#463);
#408=LINE('',#804,#464);
#409=LINE('',#805,#465);
#410=LINE('',#806,#466);
#411=LINE('',#807,#467);
#412=LINE('',#808,#468);
#413=LINE('',#809,#469);
#414=LINE('',#810,#470);
#415=LINE('',#811,#471);
#416=LINE('',#812,#472);
#417=LINE('',#813,#473);
#418=LINE('',#814,#474);
#419=LINE('',#815,#475);
#420=LINE('',#820,#476);
#421=LINE('',#821,#477);
#422=LINE('',#822,#478);
#423=LINE('',#824,#479);
#424=LINE('',#825,#480);
#425=LINE('',#828,#481);
#426=LINE('',#830,#482);
#427=LINE('',#831,#483);
#428=LINE('',#832,#484);
#429=LINE('',#833,#485);
#430=LINE('',#834,#486);
#431=LINE('',#835,#487);
#432=LINE('',#836,#488);
#433=LINE('',#837,#489);
#434=LINE('',#838,#490);
#435=LINE('',#839,#491);
#436=LINE('',#844,#492);
#437=LINE('',#845,#493);
#438=LINE('',#846,#494);
#439=LINE('',#848,#495);
#440=LINE('',#849,#496);
#441=LINE('',#852,#497);
#442=LINE('',#854,#498);
#443=LINE('',#855,#499);
#444=LINE('',#856,#500);
#445=LINE('',#857,#501);
#446=LINE('',#858,#502);
#447=LINE('',#859,#503);
#448=LINE('',#860,#504);
#449=VECTOR('',#600,1.);
#450=VECTOR('',#601,1.);
#451=VECTOR('',#602,1.);
#452=VECTOR('',#603,1.);
#453=VECTOR('',#604,1.);
#454=VECTOR('',#605,1.);
#455=VECTOR('',#606,1.);
#456=VECTOR('',#607,1.);
#457=VECTOR('',#608,1.);
#458=VECTOR('',#609,1.);
#459=VECTOR('',#610,1.);
#460=VECTOR('',#611,1.);
#461=VECTOR('',#612,1.);
#462=VECTOR('',#613,1.);
#463=VECTOR('',#614,1.);
#464=VECTOR('',#615,1.);
#465=VECTOR('',#616,1.);
#466=VECTOR('',#617,1.);
#467=VECTOR('',#618,1.);
#468=VECTOR('',#619,1.);
#469=VECTOR('',#620,1.);
#470=VECTOR('',#621,1.);
#471=VECTOR('',#622,1.);
#472=VECTOR('',#623,1.);
#473=VECTOR('',#624,1.);
#474=VECTOR('',#625,1.);
#475=VECTOR('',#626,1.);
#476=VECTOR('',#635,1.);
#477=VECTOR('',#636,1.);
#478=VECTOR('',#637,1.);
#479=VECTOR('',#640,1.);
#480=VECTOR('',#641,1.);
#481=VECTOR('',#646,1.);
#482=VECTOR('',#649,1.);
#483=VECTOR('',#650,1.);
#484=VECTOR('',#651,1.);
#485=VECTOR('',#652,1.);
#486=VECTOR('',#653,1.);
#487=VECTOR('',#654,1.);
#488=VECTOR('',#655,1.);
#489=VECTOR('',#656,1.);
#490=VECTOR('',#657,1.);
#491=VECTOR('',#658,1.);
#492=VECTOR('',#667,1.);
#493=VECTOR('',#668,1.);
#494=VECTOR('',#669,1.);
#495=VECTOR('',#672,1.);
#496=VECTOR('',#673,1.);
#497=VECTOR('',#678,1.);
#498=VECTOR('',#681,1.);
#499=VECTOR('',#682,1.);
#500=VECTOR('',#683,1.);
#501=VECTOR('',#684,1.);
#502=VECTOR('',#685,1.);
#503=VECTOR('',#686,1.);
#504=VECTOR('',#687,1.);
#505=VERTEX_POINT('',#741);
#506=VERTEX_POINT('',#742);
#507=VERTEX_POINT('',#743);
#508=VERTEX_POINT('',#744);
#509=VERTEX_POINT('',#745);
#510=VERTEX_POINT('',#746);
#511=VERTEX_POINT('',#747);
#512=VERTEX_POINT('',#748);
#513=VERTEX_POINT('',#749);
#514=VERTEX_POINT('',#750);
#515=VERTEX_POINT('',#751);
#516=VERTEX_POINT('',#752);
#517=VERTEX_POINT('',#753);
#518=VERTEX_POINT('',#754);
#519=VERTEX_POINT('',#755);
#520=VERTEX_POINT('',#756);
#521=VERTEX_POINT('',#757);
#522=VERTEX_POINT('',#758);
#523=VERTEX_POINT('',#759);
#524=VERTEX_POINT('',#760);
#525=VERTEX_POINT('',#761);
#526=VERTEX_POINT('',#762);
#527=VERTEX_POINT('',#763);
#528=VERTEX_POINT('',#764);
#529=VERTEX_POINT('',#765);
#530=VERTEX_POINT('',#766);
#531=VERTEX_POINT('',#767);
#532=VERTEX_POINT('',#768);
#533=VERTEX_POINT('',#769);
#534=VERTEX_POINT('',#770);
#535=VERTEX_POINT('',#771);
#536=VERTEX_POINT('',#772);
#537=VERTEX_POINT('',#773);
#538=VERTEX_POINT('',#774);
#539=VERTEX_POINT('',#775);
#540=VERTEX_POINT('',#776);
#541=VERTEX_POINT('',#777);
#542=VERTEX_POINT('',#778);
#543=VERTEX_POINT('',#779);
#544=VERTEX_POINT('',#780);
#545=VERTEX_POINT('',#781);
#546=VERTEX_POINT('',#782);
#547=VERTEX_POINT('',#783);
#548=VERTEX_POINT('',#784);
#549=VERTEX_POINT('',#785);
#550=VERTEX_POINT('',#786);
#551=VERTEX_POINT('',#787);
#552=VERTEX_POINT('',#788);
#553=SHAPE_DEFINITION_REPRESENTATION(#887,#554);
#554=SHAPE_REPRESENTATION('master',(#555),#889);
#555=AXIS2_PLACEMENT_3D('',#740,#599,#598);
#556=AXIS2_PLACEMENT_3D('',#816,#628,#627);
#557=AXIS2_PLACEMENT_3D('',#817,#630,#629);
#558=AXIS2_PLACEMENT_3D('',#818,#632,#631);
#559=AXIS2_PLACEMENT_3D('',#819,#634,#633);
#560=AXIS2_PLACEMENT_3D('',#823,#639,#638);
#561=AXIS2_PLACEMENT_3D('',#826,#643,#642);
#562=AXIS2_PLACEMENT_3D('',#827,#645,#644);
#563=AXIS2_PLACEMENT_3D('',#829,#648,#647);
#564=AXIS2_PLACEMENT_3D('',#840,#660,#659);
#565=AXIS2_PLACEMENT_3D('',#841,#662,#661);
#566=AXIS2_PLACEMENT_3D('',#842,#664,#663);
#567=AXIS2_PLACEMENT_3D('',#843,#666,#665);
#568=AXIS2_PLACEMENT_3D('',#847,#671,#670);
#569=AXIS2_PLACEMENT_3D('',#850,#675,#674);
#570=AXIS2_PLACEMENT_3D('',#851,#677,#676);
#571=AXIS2_PLACEMENT_3D('',#853,#680,#679);
#572=AXIS2_PLACEMENT_3D('',#861,#689,#688);
#573=AXIS2_PLACEMENT_3D('',#862,#691,#690);
#574=AXIS2_PLACEMENT_3D('',#863,#693,#692);
#575=AXIS2_PLACEMENT_3D('',#864,#695,#694);
#576=AXIS2_PLACEMENT_3D('',#865,#697,#696);
#577=AXIS2_PLACEMENT_3D('',#866,#699,#698);
#578=AXIS2_PLACEMENT_3D('',#867,#701,#700);
#579=AXIS2_PLACEMENT_3D('',#868,#703,#702);
#580=AXIS2_PLACEMENT_3D('',#869,#705,#704);
#581=AXIS2_PLACEMENT_3D('',#870,#707,#706);
#582=AXIS2_PLACEMENT_3D('',#871,#709,#708);
#583=AXIS2_PLACEMENT_3D('',#872,#711,#710);
#584=AXIS2_PLACEMENT_3D('',#873,#713,#712);
#585=AXIS2_PLACEMENT_3D('',#874,#715,#714);
#586=AXIS2_PLACEMENT_3D('',#875,#717,#716);
#587=AXIS2_PLACEMENT_3D('',#876,#719,#718);
#588=AXIS2_PLACEMENT_3D('',#877,#721,#720);
#589=AXIS2_PLACEMENT_3D('',#878,#723,#722);
#590=AXIS2_PLACEMENT_3D('',#879,#725,#724);
#591=AXIS2_PLACEMENT_3D('',#880,#727,#726);
#592=AXIS2_PLACEMENT_3D('',#881,#729,#728);
#593=AXIS2_PLACEMENT_3D('',#882,#731,#730);
#594=AXIS2_PLACEMENT_3D('',#883,#733,#732);
#595=AXIS2_PLACEMENT_3D('',#884,#735,#734);
#596=AXIS2_PLACEMENT_3D('',#885,#737,#736);
#597=AXIS2_PLACEMENT_3D('',#886,#739,#738);
#598=DIRECTION('',(1.,0.,0.));
#599=DIRECTION('',(0.,0.,1.));
#600=DIRECTION('',(5.42762135864923E-016,-1.,-5.84709468658404E-015));
#601=DIRECTION('',(5.42762135864923E-016,-1.,-5.84709468658404E-015));
#602=DIRECTION('',(5.42762135864923E-016,-1.,-5.84709468658404E-015));
#603=DIRECTION('',(5.42762135864923E-016,-1.,-5.84709468658404E-015));
#604=DIRECTION('',(5.42762135864923E-016,-1.,-5.84709468658404E-015));
#605=DIRECTION('',(5.42762135864923E-016,-1.,-5.84709468658404E-015));
#606=DIRECTION('',(5.42762135864923E-016,-1.,-5.84709468658404E-015));
#607=DIRECTION('',(5.42762135864923E-016,-1.,-5.84709468658404E-015));
#608=DIRECTION('',(5.42762135864923E-016,-1.,-5.84709468658404E-015));
#609=DIRECTION('',(5.42762135864923E-016,-1.,-5.84709468658404E-015));
#610=DIRECTION('',(5.42762135864923E-016,-1.,-5.84709468658404E-015));
#611=DIRECTION('',(5.42762135864923E-016,-1.,-5.84709468658404E-015));
#612=DIRECTION('',(5.42762135864923E-016,-1.,-5.84709468658404E-015));
#613=DIRECTION('',(5.42762135864923E-016,-1.,-5.84709468658404E-015));
#614=DIRECTION('',(5.42762135864923E-016,-1.,-5.84709468658404E-015));
#615=DIRECTION('',(5.42762135864923E-016,-1.,-5.84709468658404E-015));
#616=DIRECTION('',(5.42762135864923E-016,-1.,-5.84709468658404E-015));
#617=DIRECTION('',(5.42762135864923E-016,-1.,-5.84709468658404E-015));
#618=DIRECTION('',(5.42762135864923E-016,-1.,-5.84709468658404E-015));
#619=DIRECTION('',(5.42762135864923E-016,-1.,-5.84709468658404E-015));
#620=DIRECTION('',(5.42762135864923E-016,-1.,-5.84709468658404E-015));
#621=DIRECTION('',(5.42762135864923E-016,-1.,-5.84709468658404E-015));
#622=DIRECTION('',(5.42762135864923E-016,-1.,-5.84709468658404E-015));
#623=DIRECTION('',(5.42762135864923E-016,-1.,-5.84709468658404E-015));
#624=DIRECTION('',(0.991443448001288,0.,0.130536927401092));
#625=DIRECTION('',(0.406138415716043,-0.,0.913811570992435));
#626=DIRECTION('',(0.987580305383538,-0.,0.157115054716463));
#627=DIRECTION('',(-0.612542329715156,0.,0.790437786487418));
#628=DIRECTION('',(0.,1.,0.));
#629=DIRECTION('',(-0.723653279488368,0.,0.690163698759743));
#630=DIRECTION('',(0.,1.,0.));
#631=DIRECTION('',(-0.586862298277813,-0.,-0.809686756011288));
#632=DIRECTION('',(0.,-1.,0.));
#633=DIRECTION('',(-0.707162897541417,-0.,-0.707050660377902));
#634=DIRECTION('',(0.,-1.,0.));
#635=DIRECTION('',(1.,-0.,-0.));
#636=DIRECTION('',(0.756330879411036,-0.,-0.654189269897733));
#637=DIRECTION('',(0.999522568500329,-0.,0.0308971691018079));
#638=DIRECTION('',(0.130001578243207,0.,-0.991513786920926));
#639=DIRECTION('',(0.,-1.,0.));
#640=DIRECTION('',(0.156195079497132,0.,0.987726225803934));
#641=DIRECTION('',(0.981840539988081,0.,0.189708075832088));
#642=DIRECTION('',(0.999245859398166,0.,-0.0388292734366962));
#643=DIRECTION('',(0.,-1.,0.));
#644=DIRECTION('',(0.351306035789811,0.,-0.936260684434441));
#645=DIRECTION('',(0.,-1.,0.));
#646=DIRECTION('',(0.339286660950686,-0.,0.940683029346726));
#647=DIRECTION('',(-0.985183746651788,0.,0.171502143815016));
#648=DIRECTION('',(0.,1.,0.));
#649=DIRECTION('',(0.996545761529263,0.,0.0830454404411335));
#650=DIRECTION('',(-0.,-0.,-1.));
#651=DIRECTION('',(-0.630876171084607,-0.,-0.775883532985219));
#652=DIRECTION('',(-0.999819332115958,0.,-0.0190079753577078));
#653=DIRECTION('',(-0.790956618508192,0.,-0.611872231465105));
#654=DIRECTION('',(-1.,-0.,-0.));
#655=DIRECTION('',(-0.,-0.,1.));
#656=DIRECTION('',(0.991443448001288,0.,0.130536927401092));
#657=DIRECTION('',(0.406138415716043,-0.,0.913811570992435));
#658=DIRECTION('',(0.987580305383538,-0.,0.157115054716463));
#659=DIRECTION('',(-0.612542329715156,0.,0.790437786487418));
#660=DIRECTION('',(0.,1.,0.));
#661=DIRECTION('',(-0.723653279488368,0.,0.690163698759743));
#662=DIRECTION('',(0.,1.,0.));
#663=DIRECTION('',(-0.586862298277813,-0.,-0.809686756011288));
#664=DIRECTION('',(0.,-1.,0.));
#665=DIRECTION('',(-0.707162897541417,-0.,-0.707050660377902));
#666=DIRECTION('',(0.,-1.,0.));
#667=DIRECTION('',(1.,-0.,-0.));
#668=DIRECTION('',(0.756330879411036,-0.,-0.654189269897733));
#669=DIRECTION('',(0.999522568500329,-0.,0.0308971691018079));
#670=DIRECTION('',(0.130001578243207,0.,-0.991513786920926));
#671=DIRECTION('',(0.,-1.,0.));
#672=DIRECTION('',(0.156195079497132,0.,0.987726225803934));
#673=DIRECTION('',(0.981840539988081,0.,0.189708075832088));
#674=DIRECTION('',(0.999245859398166,0.,-0.0388292734366962));
#675=DIRECTION('',(0.,-1.,0.));
#676=DIRECTION('',(0.351306035789811,0.,-0.936260684434441));
#677=DIRECTION('',(0.,-1.,0.));
#678=DIRECTION('',(0.339286660950686,-0.,0.940683029346726));
#679=DIRECTION('',(-0.985183746651788,0.,0.171502143815016));
#680=DIRECTION('',(0.,1.,0.));
#681=DIRECTION('',(0.996545761529263,0.,0.0830454404411335));
#682=DIRECTION('',(-0.,-0.,-1.));
#683=DIRECTION('',(-0.630876171084607,-0.,-0.775883532985219));
#684=DIRECTION('',(-0.999819332115958,0.,-0.0190079753577078));
#685=DIRECTION('',(-0.790956618508192,0.,-0.611872231465105));
#686=DIRECTION('',(-1.,-0.,-0.));
#687=DIRECTION('',(-0.,-0.,1.));
#688=DIRECTION('',(-5.42762135864923E-016,1.,0.));
#689=DIRECTION('',(1.,5.42762135864923E-016,0.));
#690=DIRECTION('',(0.,-1.,-5.84709468658404E-015));
#691=DIRECTION('',(0.,-5.84709468658404E-015,1.));
#692=DIRECTION('',(0.790956618508192,0.,0.611872231465105));
#693=DIRECTION('',(-0.611872231465105,-4.95689932062416E-015,0.790956618508192
));
#694=DIRECTION('',(0.999819332115958,2.46519032881566E-032,0.0190079753577078)
);
#695=DIRECTION('',(-0.0190079753577078,-5.85635511366284E-015,
0.999819332115958));
#696=DIRECTION('',(0.630876171084607,-3.94430452610506E-031,0.775883532985219)
);
#697=DIRECTION('',(-0.775883532985219,-4.10991291138677E-015,0.630876171084607
));
#698=DIRECTION('',(5.42762135864923E-016,-1.,0.));
#699=DIRECTION('',(-1.,-5.42762135864923E-016,0.));
#700=DIRECTION('',(-0.996545761529263,0.,-0.0830454404411335));
#701=DIRECTION('',(0.0830454404411335,5.87197134780327E-015,-0.996545761529263
));
#702=DIRECTION('',(0.,5.84709468658404E-015,-1.));
#703=DIRECTION('',(5.42762135864923E-016,-1.,-5.84709468658404E-015));
#704=DIRECTION('',(-0.339286660950686,-9.86076131526265E-032,
-0.940683029346726));
#705=DIRECTION('',(0.940683029346726,2.49440836265371E-015,-0.339286660950686)
);
#706=DIRECTION('',(0.,5.84709468658404E-015,-1.));
#707=DIRECTION('',(5.42762135864923E-016,-1.,-5.84709468658404E-015));
#708=DIRECTION('',(0.,5.84709468658404E-015,-1.));
#709=DIRECTION('',(5.42762135864923E-016,-1.,-5.84709468658404E-015));
#710=DIRECTION('',(-0.981840539988081,0.,-0.189708075832088));
#711=DIRECTION('',(0.189708075832088,5.84388096486656E-015,-0.981840539988081)
);
#712=DIRECTION('',(-0.156195079497132,4.93038065763132E-032,-0.987726225803934
));
#713=DIRECTION('',(0.987726225803934,1.4493878153654E-015,-0.156195079497132)
);
#714=DIRECTION('',(0.,5.84709468658404E-015,-1.));
#715=DIRECTION('',(5.42762135864923E-016,-1.,-5.84709468658404E-015));
#716=DIRECTION('',(-0.999522568500329,0.,-0.0308971691018079));
#717=DIRECTION('',(0.0308971691018079,5.86107291289298E-015,-0.999522568500329
));
#718=DIRECTION('',(-0.756330879411036,0.,0.654189269897733));
#719=DIRECTION('',(-0.654189269897733,4.06726910091409E-015,-0.756330879411036
));
#720=DIRECTION('',(0.,1.,5.84709468658404E-015));
#721=DIRECTION('',(0.,5.84709468658404E-015,-1.));
#722=DIRECTION('',(0.,5.84709468658404E-015,-1.));
#723=DIRECTION('',(5.42762135864923E-016,-1.,-5.84709468658404E-015));
#724=DIRECTION('',(0.,5.84709468658404E-015,-1.));
#725=DIRECTION('',(5.42762135864923E-016,-1.,-5.84709468658404E-015));
#726=DIRECTION('',(0.,5.84709468658404E-015,-1.));
#727=DIRECTION('',(5.42762135864923E-016,-1.,-5.84709468658404E-015));
#728=DIRECTION('',(0.,5.84709468658404E-015,-1.));
#729=DIRECTION('',(5.42762135864923E-016,-1.,-5.84709468658404E-015));
#730=DIRECTION('',(-0.987580305383538,0.,-0.157115054716463));
#731=DIRECTION('',(0.157115054716463,5.85975165885757E-015,-0.987580305383538)
);
#732=DIRECTION('',(-0.406138415716043,0.,-0.913811570992435));
#733=DIRECTION('',(0.913811570992435,2.87071209260087E-015,-0.406138415716043)
);
#734=DIRECTION('',(-0.991443448001288,-9.86076131526265E-032,
-0.130536927401092));
#735=DIRECTION('',(0.130536927401092,5.86791421838235E-015,-0.991443448001288)
);
#736=DIRECTION('',(0.,-0.,1.));
#737=DIRECTION('',(0.,1.,0.));
#738=DIRECTION('',(0.,-0.,1.));
#739=DIRECTION('',(0.,1.,0.));
#740=CARTESIAN_POINT('',(0.,0.,0.));
#741=CARTESIAN_POINT('',(227.150350999999,2168.281361,2243.25000000001));
#742=CARTESIAN_POINT('',(223.968770999999,2168.281361,2242.83110200001));
#743=CARTESIAN_POINT('',(223.220163999999,2168.281361,2241.14673600001));
#744=CARTESIAN_POINT('',(214.218408566698,2168.281361,2239.71463848881));
#745=CARTESIAN_POINT('',(210.444420560039,2168.281361,2238.08097809393));
#746=CARTESIAN_POINT('',(205.657827789436,2168.281361,2233.76123081091));
#747=CARTESIAN_POINT('',(191.268489462002,2168.281361,2232.44887883441));
#748=CARTESIAN_POINT('',(188.255895999999,2168.281361,2235.01911400001));
#749=CARTESIAN_POINT('',(184.755895999999,2168.281361,2235.01911400001));
#750=CARTESIAN_POINT('',(182.070200999999,2168.281361,2237.34210900001));
#751=CARTESIAN_POINT('',(136.666302999999,2168.281361,2235.93858700001));
#752=CARTESIAN_POINT('',(130.067645999999,2168.281361,2230.06307100001));
#753=CARTESIAN_POINT('',(129.140375999999,2168.281361,2224.19932100001));
#754=CARTESIAN_POINT('',(126.806648626813,2168.281361,2223.74840569202));
#755=CARTESIAN_POINT('',(126.950918159474,2168.281361,2220.08422933417));
#756=CARTESIAN_POINT('',(114.104961999999,2168.281361,2202.29189100001));
#757=CARTESIAN_POINT('',(112.670572999998,2168.281361,2198.31500200001));
#758=CARTESIAN_POINT('',(108.014651999999,2168.281361,2193.81602200001));
#759=CARTESIAN_POINT('',(103.080453999999,2168.281361,2193.40483902984));
#760=CARTESIAN_POINT('',(103.080453999999,2168.281361,2211.36042633605));
#761=CARTESIAN_POINT('',(130.628941999999,2168.281361,2245.24095500001));
#762=CARTESIAN_POINT('',(200.505925999999,2168.281361,2246.56941500001));
#763=CARTESIAN_POINT('',(204.294242388047,2168.281361,2249.50000000001));
#764=CARTESIAN_POINT('',(227.150350999999,2168.281361,2249.50000000001));
#765=CARTESIAN_POINT('',(227.150351,168.281361,2243.25));
#766=CARTESIAN_POINT('',(223.968771,168.281361,2242.831102));
#767=CARTESIAN_POINT('',(223.220164,168.281361,2241.146736));
#768=CARTESIAN_POINT('',(214.218408566699,168.281361,2239.7146384888));
#769=CARTESIAN_POINT('',(210.44442056004,168.281361,2238.08097809392));
#770=CARTESIAN_POINT('',(205.657827789437,168.281361,2233.7612308109));
#771=CARTESIAN_POINT('',(191.268489462003,168.281361,2232.44887883439));
#772=CARTESIAN_POINT('',(188.255896,168.281361,2235.019114));
#773=CARTESIAN_POINT('',(184.755896,168.281361,2235.019114));
#774=CARTESIAN_POINT('',(182.070201,168.281361,2237.342109));
#775=CARTESIAN_POINT('',(136.666303,168.281361,2235.938587));
#776=CARTESIAN_POINT('',(130.067646,168.281361,2230.063071));
#777=CARTESIAN_POINT('',(129.140376,168.281361,2224.199321));
#778=CARTESIAN_POINT('',(126.806648626814,168.281361,2223.74840569201));
#779=CARTESIAN_POINT('',(126.950918159475,168.281361,2220.08422933415));
#780=CARTESIAN_POINT('',(114.104962,168.281361,2202.291891));
#781=CARTESIAN_POINT('',(112.670572999999,168.281361,2198.315002));
#782=CARTESIAN_POINT('',(108.014652,168.281361,2193.816022));
#783=CARTESIAN_POINT('',(103.080454,168.281361,2193.40483902983));
#784=CARTESIAN_POINT('',(103.080454,168.281361,2211.36042633604));
#785=CARTESIAN_POINT('',(130.628942,168.281361,2245.240955));
#786=CARTESIAN_POINT('',(200.505926,168.281361,2246.569415));
#787=CARTESIAN_POINT('',(204.294242388048,168.281361,2249.5));
#788=CARTESIAN_POINT('',(227.150351,168.281361,2249.5));
#789=CARTESIAN_POINT('',(227.150350999999,2168.281361,2249.50000000001));
#790=CARTESIAN_POINT('',(204.294242388047,2168.281361,2249.50000000001));
#791=CARTESIAN_POINT('',(200.505925999999,2168.281361,2246.56941500001));
#792=CARTESIAN_POINT('',(130.628941999999,2168.281361,2245.24095500001));
#793=CARTESIAN_POINT('',(103.080453999999,2168.281361,2211.36042633605));
#794=CARTESIAN_POINT('',(103.080453999999,2168.281361,2193.40483902984));
#795=CARTESIAN_POINT('',(108.014651999999,2168.281361,2193.81602200001));
#796=CARTESIAN_POINT('',(112.670572999998,2168.281361,2198.31500200001));
#797=CARTESIAN_POINT('',(114.104961999999,2168.281361,2202.29189100001));
#798=CARTESIAN_POINT('',(126.950918159474,2168.281361,2220.08422933417));
#799=CARTESIAN_POINT('',(126.806648626813,2168.281361,2223.74840569202));
#800=CARTESIAN_POINT('',(129.140375999999,2168.281361,2224.19932100001));
#801=CARTESIAN_POINT('',(130.067645999999,2168.281361,2230.06307100001));
#802=CARTESIAN_POINT('',(136.666302999999,2168.281361,2235.93858700001));
#803=CARTESIAN_POINT('',(182.070200999999,2168.281361,2237.34210900001));
#804=CARTESIAN_POINT('',(184.755895999999,2168.281361,2235.01911400001));
#805=CARTESIAN_POINT('',(188.255895999999,2168.281361,2235.01911400001));
#806=CARTESIAN_POINT('',(191.268489462002,2168.281361,2232.44887883441));
#807=CARTESIAN_POINT('',(205.657827789436,2168.281361,2233.76123081091));
#808=CARTESIAN_POINT('',(210.444420560039,2168.281361,2238.08097809393));
#809=CARTESIAN_POINT('',(214.218408566698,2168.281361,2239.71463848881));
#810=CARTESIAN_POINT('',(223.220163999999,2168.281361,2241.14673600001));
#811=CARTESIAN_POINT('',(223.968770999999,2168.281361,2242.83110200001));
#812=CARTESIAN_POINT('',(227.150350999999,2168.281361,2243.25000000001));
#813=CARTESIAN_POINT('',(223.968770999999,2168.281361,2242.83110200001));
#814=CARTESIAN_POINT('',(223.220163999999,2168.281361,2241.14673600001));
#815=CARTESIAN_POINT('',(214.218408566698,2168.281361,2239.71463848881));
#816=CARTESIAN_POINT('',(215.520373479027,2168.281361,2231.53085935933));
#817=CARTESIAN_POINT('',(236.832375060366,2168.281361,2204.02939449991));
#818=CARTESIAN_POINT('',(197.712182543414,2168.281361,2241.33916359649));
#819=CARTESIAN_POINT('',(205.964821265088,2168.281361,2252.72522859793));
#820=CARTESIAN_POINT('',(184.755895999999,2168.281361,2235.01911400001));
#821=CARTESIAN_POINT('',(182.070200999999,2168.281361,2237.34210900001));
#822=CARTESIAN_POINT('',(136.666302999999,2168.281361,2235.93858700001));
#823=CARTESIAN_POINT('',(129.046228178376,2168.281361,2237.8533599029));
#824=CARTESIAN_POINT('',(129.140375999999,2168.281361,2224.19932100001));
#825=CARTESIAN_POINT('',(126.806648626813,2168.281361,2223.74840569202));
#826=CARTESIAN_POINT('',(103.495826087242,2168.281361,2220.99566086525));
#827=CARTESIAN_POINT('',(107.140022093723,2168.281361,2220.8540525895));
#828=CARTESIAN_POINT('',(112.670572999999,2168.281361,2198.31500200001));
#829=CARTESIAN_POINT('',(113.426647648194,2168.281361,2192.87389434196));
#830=CARTESIAN_POINT('',(103.080453999999,2168.281361,2193.40483902984));
#831=CARTESIAN_POINT('',(103.080453999999,2168.281361,2211.36042633605));
#832=CARTESIAN_POINT('',(130.628941999999,2168.281361,2245.24095500001));
#833=CARTESIAN_POINT('',(200.505925999999,2168.281361,2246.56941500001));
#834=CARTESIAN_POINT('',(204.294242388047,2168.281361,2249.50000000001));
#835=CARTESIAN_POINT('',(227.150350999999,2168.281361,2249.50000000001));
#836=CARTESIAN_POINT('',(227.150350999999,2168.281361,2243.25000000001));
#837=CARTESIAN_POINT('',(223.968771,168.281361,2242.831102));
#838=CARTESIAN_POINT('',(223.220164,168.281361,2241.146736));
#839=CARTESIAN_POINT('',(214.218408566699,168.281361,2239.7146384888));
#840=CARTESIAN_POINT('',(215.520373479028,168.281361,2231.53085935932));
#841=CARTESIAN_POINT('',(236.832375060367,168.281361,2204.0293944999));
#842=CARTESIAN_POINT('',(197.712182543415,168.281361,2241.33916359648));
#843=CARTESIAN_POINT('',(205.96482126509,168.281361,2252.72522859792));
#844=CARTESIAN_POINT('',(184.755896,168.281361,2235.019114));
#845=CARTESIAN_POINT('',(182.070201,168.281361,2237.342109));
#846=CARTESIAN_POINT('',(136.666303,168.281361,2235.938587));
#847=CARTESIAN_POINT('',(129.046228178377,168.281361,2237.85335990289));
#848=CARTESIAN_POINT('',(129.140376,168.281361,2224.199321));
#849=CARTESIAN_POINT('',(126.806648626814,168.281361,2223.74840569201));
#850=CARTESIAN_POINT('',(103.495826087243,168.281361,2220.99566086523));
#851=CARTESIAN_POINT('',(107.140022093724,168.281361,2220.85405258949));
#852=CARTESIAN_POINT('',(112.670573,168.281361,2198.315002));
#853=CARTESIAN_POINT('',(113.426647648195,168.281361,2192.87389434195));
#854=CARTESIAN_POINT('',(103.080454,168.281361,2193.40483902983));
#855=CARTESIAN_POINT('',(103.080454,168.281361,2211.36042633604));
#856=CARTESIAN_POINT('',(130.628942,168.281361,2245.240955));
#857=CARTESIAN_POINT('',(200.505926,168.281361,2246.569415));
#858=CARTESIAN_POINT('',(204.294242388048,168.281361,2249.5));
#859=CARTESIAN_POINT('',(227.150351,168.281361,2249.5));
#860=CARTESIAN_POINT('',(227.150351,168.281361,2243.25));
#861=CARTESIAN_POINT('',(227.150350999999,2168.281361,2243.25000000001));
#862=CARTESIAN_POINT('',(227.150350999999,2168.281361,2249.50000000001));
#863=CARTESIAN_POINT('',(204.294242388047,2168.281361,2249.50000000001));
#864=CARTESIAN_POINT('',(200.505925999999,2168.281361,2246.56941500001));
#865=CARTESIAN_POINT('',(130.628941999999,2168.281361,2245.24095500001));
#866=CARTESIAN_POINT('',(103.080453999999,2168.281361,2211.36042633605));
#867=CARTESIAN_POINT('',(103.080453999999,2168.281361,2193.40483902984));
#868=CARTESIAN_POINT('',(113.426647648194,2168.281361,2192.87389434196));
#869=CARTESIAN_POINT('',(112.670572999999,2168.281361,2198.31500200001));
#870=CARTESIAN_POINT('',(107.140022093723,2168.281361,2220.8540525895));
#871=CARTESIAN_POINT('',(103.495826087242,2168.281361,2220.99566086525));
#872=CARTESIAN_POINT('',(126.806648626813,2168.281361,2223.74840569202));
#873=CARTESIAN_POINT('',(129.140375999999,2168.281361,2224.19932100001));
#874=CARTESIAN_POINT('',(129.046228178376,2168.281361,2237.8533599029));
#875=CARTESIAN_POINT('',(136.666302999999,2168.281361,2235.93858700001));
#876=CARTESIAN_POINT('',(182.070200999999,2168.281361,2237.34210900001));
#877=CARTESIAN_POINT('',(184.755895999999,2168.281361,2235.01911400001));
#878=CARTESIAN_POINT('',(205.964821265088,2168.281361,2252.72522859793));
#879=CARTESIAN_POINT('',(197.712182543414,2168.281361,2241.33916359649));
#880=CARTESIAN_POINT('',(236.832375060366,2168.281361,2204.02939449991));
#881=CARTESIAN_POINT('',(215.520373479027,2168.281361,2231.53085935933));
#882=CARTESIAN_POINT('',(214.218408566698,2168.281361,2239.71463848881));
#883=CARTESIAN_POINT('',(223.220163999999,2168.281361,2241.14673600001));
#884=CARTESIAN_POINT('',(223.968770999999,2168.281361,2242.83110200001));
#885=CARTESIAN_POINT('',(113.426647648194,2168.281361,2192.87389434196));
#886=CARTESIAN_POINT('',(113.426647648195,168.281361,2192.87389434195));
#887=PRODUCT_DEFINITION_SHAPE('','',#888);
#888=PRODUCT_DEFINITION('','',#900,#905);
#889=(
GEOMETRIC_REPRESENTATION_CONTEXT(3)
GLOBAL_UNCERTAINTY_ASSIGNED_CONTEXT((#890))
GLOBAL_UNIT_ASSIGNED_CONTEXT((#892,#891,#895))
REPRESENTATION_CONTEXT('','')
);
#890=UNCERTAINTY_MEASURE_WITH_UNIT(LENGTH_MEASURE(0.001),#892,'','tolerance');
#891=(
CONVERSION_BASED_UNIT('',#893)
NAMED_UNIT(#899)
PLANE_ANGLE_UNIT()
);
#892=(
CONVERSION_BASED_UNIT('',#894)
LENGTH_UNIT()
NAMED_UNIT(#898)
);
#893=PLANE_ANGLE_MEASURE_WITH_UNIT(PLANE_ANGLE_MEASURE(0.0174532925199433),
#896);
#894=LENGTH_MEASURE_WITH_UNIT(LENGTH_MEASURE(1.),#897);
#895=(
NAMED_UNIT(*)
SI_UNIT($,.STERADIAN.)
SOLID_ANGLE_UNIT()
);
#896=(
NAMED_UNIT(*)
PLANE_ANGLE_UNIT()
SI_UNIT($,.RADIAN.)
);
#897=(
LENGTH_UNIT()
NAMED_UNIT(*)
SI_UNIT(.MILLI.,.METRE.)
);
#898=DIMENSIONAL_EXPONENTS(1.,0.,0.,0.,0.,0.,0.);
#899=DIMENSIONAL_EXPONENTS(0.,0.,0.,0.,0.,0.,0.);
#900=PRODUCT_DEFINITION_FORMATION_WITH_SPECIFIED_SOURCE('','',#903,.NOT_KNOWN.
);
#901=PRODUCT_CATEGORY_RELATIONSHIP('','',#906,#902);
#902=PRODUCT_RELATED_PRODUCT_CATEGORY('assembly','',(#903));
#903=PRODUCT('','master','',(#904));
#904=PRODUCT_CONTEXT('',#908,'');
#905=PRODUCT_DEFINITION_CONTEXT('',#908,'part_definition');
#906=PRODUCT_CATEGORY('part','');
#907=APPLICATION_PROTOCOL_DEFINITION('international standard',
'automotive_design_cc2',1994,#908);
#908=APPLICATION_CONTEXT(
'configuration controlled 3D designs of mechanical parts and assemblies');
ENDSEC;
END-ISO-10303-21;
42688