ISO-10303-21;
HEADER;
/* Generated by software using Delcam plc STEP library */

FILE_DESCRIPTION(
/* description */ ('AP-214 File'),
/* implementation_level */ '2;1');

FILE_NAME(
/* name */ 'D607',
/* time_stamp */ 'Tue Dec 27 09:33:47 2016',
/* author */ (''),
/* organization */ (''),
/* preprocessor_version */ 'DELCAM STEP V1',
/* originating_system */ 'Exchange7.1.0006',
/* authorisation */ '');

FILE_SCHEMA (('AUTOMOTIVE_DESIGN'));
ENDSEC;
DATA;
#10=PRESENTATION_STYLE_ASSIGNMENT((#20));
#11=PRESENTATION_STYLE_ASSIGNMENT((#21));
#12=SURFACE_SIDE_STYLE('',(#14));
#13=SURFACE_SIDE_STYLE('',(#15));
#14=SURFACE_STYLE_FILL_AREA(#16);
#15=SURFACE_STYLE_FILL_AREA(#17);
#16=FILL_AREA_STYLE('',(#18));
#17=FILL_AREA_STYLE('',(#19));
#18=FILL_AREA_STYLE_COLOUR('',#41);
#19=FILL_AREA_STYLE_COLOUR('',#42);
#20=SURFACE_STYLE_USAGE(.BOTH.,#12);
#21=SURFACE_STYLE_USAGE(.BOTH.,#13);
#22=STYLED_ITEM('',(#10),#54);
#23=STYLED_ITEM('',(#10),#55);
#24=STYLED_ITEM('',(#10),#56);
#25=STYLED_ITEM('',(#10),#57);
#26=STYLED_ITEM('',(#10),#58);
#27=STYLED_ITEM('',(#10),#59);
#28=STYLED_ITEM('',(#10),#60);
#29=STYLED_ITEM('',(#10),#61);
#30=STYLED_ITEM('',(#10),#62);
#31=STYLED_ITEM('',(#10),#63);
#32=STYLED_ITEM('',(#10),#64);
#33=STYLED_ITEM('',(#10),#65);
#34=STYLED_ITEM('',(#10),#66);
#35=STYLED_ITEM('',(#10),#67);
#36=STYLED_ITEM('',(#10),#68);
#37=STYLED_ITEM('',(#10),#69);
#38=STYLED_ITEM('',(#10),#70);
#39=STYLED_ITEM('',(#10),#71);
#40=STYLED_ITEM('',(#11),#48);
#41=COLOUR_RGB('',0.,0.,0.);
#42=COLOUR_RGB('rgb_colour_1',0.4,0.4,0.4);
#43=MECHANICAL_DESIGN_GEOMETRIC_PRESENTATION_REPRESENTATION('',(#22,#23,#24,
#25,#26,#27,#28,#29,#30,#31,#32,#33,#34,#35,#36,#37,#38,#39,#40),#611);
#44=PRESENTATION_LAYER_ASSIGNMENT('121','D607',(#54,#55,#56,#57,#58,#59,#60,
#61,#62,#63,#64,#65,#66,#67,#68,#69,#70,#71,#48));
#45=SHAPE_REPRESENTATION_RELATIONSHIP('','',#384,#46);
#46=ADVANCED_BREP_SHAPE_REPRESENTATION('',(#47),#611);
#47=MANIFOLD_SOLID_BREP('7555',#48);
#48=CLOSED_SHELL('',(#54,#55,#56,#57,#58,#59,#60,#61,#62,#63,#64,#65,#66,#67,
#68,#69,#70,#71));
#49=CYLINDRICAL_SURFACE('',#405,12.3082772520398);
#50=CYLINDRICAL_SURFACE('',#406,25.2829673811711);
#51=CYLINDRICAL_SURFACE('',#407,11.0143580769533);
#52=CYLINDRICAL_SURFACE('',#409,52.1540198127172);
#53=CYLINDRICAL_SURFACE('',#410,11.5488748201004);
#54=ADVANCED_FACE('',(#72),#204,.F.);
#55=ADVANCED_FACE('',(#73),#205,.F.);
#56=ADVANCED_FACE('',(#74),#206,.F.);
#57=ADVANCED_FACE('',(#75),#207,.F.);
#58=ADVANCED_FACE('',(#76),#208,.F.);
#59=ADVANCED_FACE('',(#77),#209,.F.);
#60=ADVANCED_FACE('',(#78),#210,.F.);
#61=ADVANCED_FACE('',(#79),#211,.F.);
#62=ADVANCED_FACE('',(#80),#212,.F.);
#63=ADVANCED_FACE('',(#81),#49,.F.);
#64=ADVANCED_FACE('',(#82),#50,.T.);
#65=ADVANCED_FACE('',(#83),#51,.T.);
#66=ADVANCED_FACE('',(#84),#213,.F.);
#67=ADVANCED_FACE('',(#85),#52,.F.);
#68=ADVANCED_FACE('',(#86),#53,.T.);
#69=ADVANCED_FACE('',(#87),#214,.F.);
#70=ADVANCED_FACE('',(#88),#215,.F.);
#71=ADVANCED_FACE('',(#89),#216,.T.);
#72=FACE_OUTER_BOUND('',#90,.T.);
#73=FACE_OUTER_BOUND('',#91,.T.);
#74=FACE_OUTER_BOUND('',#92,.T.);
#75=FACE_OUTER_BOUND('',#93,.T.);
#76=FACE_OUTER_BOUND('',#94,.T.);
#77=FACE_OUTER_BOUND('',#95,.T.);
#78=FACE_OUTER_BOUND('',#96,.T.);
#79=FACE_OUTER_BOUND('',#97,.T.);
#80=FACE_OUTER_BOUND('',#98,.T.);
#81=FACE_OUTER_BOUND('',#99,.T.);
#82=FACE_OUTER_BOUND('',#100,.T.);
#83=FACE_OUTER_BOUND('',#101,.T.);
#84=FACE_OUTER_BOUND('',#102,.T.);
#85=FACE_OUTER_BOUND('',#103,.T.);
#86=FACE_OUTER_BOUND('',#104,.T.);
#87=FACE_OUTER_BOUND('',#105,.T.);
#88=FACE_OUTER_BOUND('',#106,.T.);
#89=FACE_OUTER_BOUND('',#107,.T.);
#90=EDGE_LOOP('',(#108,#109,#110,#111));
#91=EDGE_LOOP('',(#112,#113,#114,#115));
#92=EDGE_LOOP('',(#116,#117,#118,#119));
#93=EDGE_LOOP('',(#120,#121,#122,#123));
#94=EDGE_LOOP('',(#124,#125,#126,#127));
#95=EDGE_LOOP('',(#128,#129,#130,#131));
#96=EDGE_LOOP('',(#132,#133,#134,#135));
#97=EDGE_LOOP('',(#136,#137,#138,#139));
#98=EDGE_LOOP('',(#140,#141,#142,#143));
#99=EDGE_LOOP('',(#144,#145,#146,#147));
#100=EDGE_LOOP('',(#148,#149,#150,#151));
#101=EDGE_LOOP('',(#152,#153,#154,#155));
#102=EDGE_LOOP('',(#156,#157,#158,#159));
#103=EDGE_LOOP('',(#160,#161,#162,#163));
#104=EDGE_LOOP('',(#164,#165,#166,#167));
#105=EDGE_LOOP('',(#168,#169,#170,#171));
#106=EDGE_LOOP('',(#172,#173,#174,#175,#176,#177,#178,#179,#180,#181,#182,#183
,#184,#185,#186,#187));
#107=EDGE_LOOP('',(#188,#189,#190,#191,#192,#193,#194,#195,#196,#197,#198,#199
,#200,#201,#202,#203));
#108=ORIENTED_EDGE('',*,*,#274,.T.);
#109=ORIENTED_EDGE('',*,*,#227,.F.);
#110=ORIENTED_EDGE('',*,*,#258,.F.);
#111=ORIENTED_EDGE('',*,*,#242,.T.);
#112=ORIENTED_EDGE('',*,*,#273,.T.);
#113=ORIENTED_EDGE('',*,*,#228,.F.);
#114=ORIENTED_EDGE('',*,*,#257,.F.);
#115=ORIENTED_EDGE('',*,*,#227,.T.);
#116=ORIENTED_EDGE('',*,*,#272,.T.);
#117=ORIENTED_EDGE('',*,*,#229,.F.);
#118=ORIENTED_EDGE('',*,*,#256,.F.);
#119=ORIENTED_EDGE('',*,*,#228,.T.);
#120=ORIENTED_EDGE('',*,*,#271,.T.);
#121=ORIENTED_EDGE('',*,*,#230,.F.);
#122=ORIENTED_EDGE('',*,*,#255,.F.);
#123=ORIENTED_EDGE('',*,*,#229,.T.);
#124=ORIENTED_EDGE('',*,*,#270,.T.);
#125=ORIENTED_EDGE('',*,*,#231,.F.);
#126=ORIENTED_EDGE('',*,*,#254,.F.);
#127=ORIENTED_EDGE('',*,*,#230,.T.);
#128=ORIENTED_EDGE('',*,*,#269,.T.);
#129=ORIENTED_EDGE('',*,*,#232,.F.);
#130=ORIENTED_EDGE('',*,*,#253,.F.);
#131=ORIENTED_EDGE('',*,*,#231,.T.);
#132=ORIENTED_EDGE('',*,*,#268,.T.);
#133=ORIENTED_EDGE('',*,*,#233,.F.);
#134=ORIENTED_EDGE('',*,*,#252,.F.);
#135=ORIENTED_EDGE('',*,*,#232,.T.);
#136=ORIENTED_EDGE('',*,*,#267,.T.);
#137=ORIENTED_EDGE('',*,*,#234,.F.);
#138=ORIENTED_EDGE('',*,*,#251,.F.);
#139=ORIENTED_EDGE('',*,*,#233,.T.);
#140=ORIENTED_EDGE('',*,*,#266,.T.);
#141=ORIENTED_EDGE('',*,*,#235,.F.);
#142=ORIENTED_EDGE('',*,*,#250,.F.);
#143=ORIENTED_EDGE('',*,*,#234,.T.);
#144=ORIENTED_EDGE('',*,*,#265,.T.);
#145=ORIENTED_EDGE('',*,*,#236,.F.);
#146=ORIENTED_EDGE('',*,*,#249,.F.);
#147=ORIENTED_EDGE('',*,*,#235,.T.);
#148=ORIENTED_EDGE('',*,*,#264,.T.);
#149=ORIENTED_EDGE('',*,*,#237,.F.);
#150=ORIENTED_EDGE('',*,*,#248,.F.);
#151=ORIENTED_EDGE('',*,*,#236,.T.);
#152=ORIENTED_EDGE('',*,*,#263,.T.);
#153=ORIENTED_EDGE('',*,*,#238,.F.);
#154=ORIENTED_EDGE('',*,*,#247,.F.);
#155=ORIENTED_EDGE('',*,*,#237,.T.);
#156=ORIENTED_EDGE('',*,*,#262,.T.);
#157=ORIENTED_EDGE('',*,*,#239,.F.);
#158=ORIENTED_EDGE('',*,*,#246,.F.);
#159=ORIENTED_EDGE('',*,*,#238,.T.);
#160=ORIENTED_EDGE('',*,*,#261,.T.);
#161=ORIENTED_EDGE('',*,*,#240,.F.);
#162=ORIENTED_EDGE('',*,*,#245,.F.);
#163=ORIENTED_EDGE('',*,*,#239,.T.);
#164=ORIENTED_EDGE('',*,*,#260,.T.);
#165=ORIENTED_EDGE('',*,*,#241,.F.);
#166=ORIENTED_EDGE('',*,*,#244,.F.);
#167=ORIENTED_EDGE('',*,*,#240,.T.);
#168=ORIENTED_EDGE('',*,*,#259,.T.);
#169=ORIENTED_EDGE('',*,*,#242,.F.);
#170=ORIENTED_EDGE('',*,*,#243,.F.);
#171=ORIENTED_EDGE('',*,*,#241,.T.);
#172=ORIENTED_EDGE('',*,*,#258,.T.);
#173=ORIENTED_EDGE('',*,*,#257,.T.);
#174=ORIENTED_EDGE('',*,*,#256,.T.);
#175=ORIENTED_EDGE('',*,*,#255,.T.);
#176=ORIENTED_EDGE('',*,*,#254,.T.);
#177=ORIENTED_EDGE('',*,*,#253,.T.);
#178=ORIENTED_EDGE('',*,*,#252,.T.);
#179=ORIENTED_EDGE('',*,*,#251,.T.);
#180=ORIENTED_EDGE('',*,*,#250,.T.);
#181=ORIENTED_EDGE('',*,*,#249,.T.);
#182=ORIENTED_EDGE('',*,*,#248,.T.);
#183=ORIENTED_EDGE('',*,*,#247,.T.);
#184=ORIENTED_EDGE('',*,*,#246,.T.);
#185=ORIENTED_EDGE('',*,*,#245,.T.);
#186=ORIENTED_EDGE('',*,*,#244,.T.);
#187=ORIENTED_EDGE('',*,*,#243,.T.);
#188=ORIENTED_EDGE('',*,*,#274,.F.);
#189=ORIENTED_EDGE('',*,*,#259,.F.);
#190=ORIENTED_EDGE('',*,*,#260,.F.);
#191=ORIENTED_EDGE('',*,*,#261,.F.);
#192=ORIENTED_EDGE('',*,*,#262,.F.);
#193=ORIENTED_EDGE('',*,*,#263,.F.);
#194=ORIENTED_EDGE('',*,*,#264,.F.);
#195=ORIENTED_EDGE('',*,*,#265,.F.);
#196=ORIENTED_EDGE('',*,*,#266,.F.);
#197=ORIENTED_EDGE('',*,*,#267,.F.);
#198=ORIENTED_EDGE('',*,*,#268,.F.);
#199=ORIENTED_EDGE('',*,*,#269,.F.);
#200=ORIENTED_EDGE('',*,*,#270,.F.);
#201=ORIENTED_EDGE('',*,*,#271,.F.);
#202=ORIENTED_EDGE('',*,*,#272,.F.);
#203=ORIENTED_EDGE('',*,*,#273,.F.);
#204=PLANE('',#396);
#205=PLANE('',#397);
#206=PLANE('',#398);
#207=PLANE('',#399);
#208=PLANE('',#400);
#209=PLANE('',#401);
#210=PLANE('',#402);
#211=PLANE('',#403);
#212=PLANE('',#404);
#213=PLANE('',#408);
#214=PLANE('',#411);
#215=PLANE('',#412);
#216=PLANE('',#413);
#217=CIRCLE('',#386,11.5488748201004);
#218=CIRCLE('',#387,52.1540198127172);
#219=CIRCLE('',#388,11.0143580769533);
#220=CIRCLE('',#389,25.2829673811711);
#221=CIRCLE('',#390,12.3082772520398);
#222=CIRCLE('',#391,11.5488748201004);
#223=CIRCLE('',#392,52.1540198127172);
#224=CIRCLE('',#393,11.0143580769533);
#225=CIRCLE('',#394,25.2829673811711);
#226=CIRCLE('',#395,12.3082772520398);
#227=EDGE_CURVE('',#366,#382,#275,.T.);
#228=EDGE_CURVE('',#365,#381,#276,.T.);
#229=EDGE_CURVE('',#364,#380,#277,.T.);
#230=EDGE_CURVE('',#363,#379,#278,.T.);
#231=EDGE_CURVE('',#362,#378,#279,.T.);
#232=EDGE_CURVE('',#361,#377,#280,.T.);
#233=EDGE_CURVE('',#360,#376,#281,.T.);
#234=EDGE_CURVE('',#359,#375,#282,.T.);
#235=EDGE_CURVE('',#358,#374,#283,.T.);
#236=EDGE_CURVE('',#357,#373,#284,.T.);
#237=EDGE_CURVE('',#356,#372,#285,.T.);
#238=EDGE_CURVE('',#355,#371,#286,.T.);
#239=EDGE_CURVE('',#354,#370,#287,.T.);
#240=EDGE_CURVE('',#353,#369,#288,.T.);
#241=EDGE_CURVE('',#352,#368,#289,.T.);
#242=EDGE_CURVE('',#351,#367,#290,.T.);
#243=EDGE_CURVE('',#352,#351,#291,.T.);
#244=EDGE_CURVE('',#353,#352,#217,.T.);
#245=EDGE_CURVE('',#354,#353,#218,.T.);
#246=EDGE_CURVE('',#355,#354,#292,.T.);
#247=EDGE_CURVE('',#356,#355,#219,.T.);
#248=EDGE_CURVE('',#357,#356,#220,.T.);
#249=EDGE_CURVE('',#358,#357,#221,.T.);
#250=EDGE_CURVE('',#359,#358,#293,.T.);
#251=EDGE_CURVE('',#360,#359,#294,.T.);
#252=EDGE_CURVE('',#361,#360,#295,.T.);
#253=EDGE_CURVE('',#362,#361,#296,.T.);
#254=EDGE_CURVE('',#363,#362,#297,.T.);
#255=EDGE_CURVE('',#364,#363,#298,.T.);
#256=EDGE_CURVE('',#365,#364,#299,.T.);
#257=EDGE_CURVE('',#366,#365,#300,.T.);
#258=EDGE_CURVE('',#351,#366,#301,.T.);
#259=EDGE_CURVE('',#368,#367,#302,.T.);
#260=EDGE_CURVE('',#369,#368,#222,.T.);
#261=EDGE_CURVE('',#370,#369,#223,.T.);
#262=EDGE_CURVE('',#371,#370,#303,.T.);
#263=EDGE_CURVE('',#372,#371,#224,.T.);
#264=EDGE_CURVE('',#373,#372,#225,.T.);
#265=EDGE_CURVE('',#374,#373,#226,.T.);
#266=EDGE_CURVE('',#375,#374,#304,.T.);
#267=EDGE_CURVE('',#376,#375,#305,.T.);
#268=EDGE_CURVE('',#377,#376,#306,.T.);
#269=EDGE_CURVE('',#378,#377,#307,.T.);
#270=EDGE_CURVE('',#379,#378,#308,.T.);
#271=EDGE_CURVE('',#380,#379,#309,.T.);
#272=EDGE_CURVE('',#381,#380,#310,.T.);
#273=EDGE_CURVE('',#382,#381,#311,.T.);
#274=EDGE_CURVE('',#367,#382,#312,.T.);
#275=LINE('',#543,#313);
#276=LINE('',#544,#314);
#277=LINE('',#545,#315);
#278=LINE('',#546,#316);
#279=LINE('',#547,#317);
#280=LINE('',#548,#318);
#281=LINE('',#549,#319);
#282=LINE('',#550,#320);
#283=LINE('',#551,#321);
#284=LINE('',#552,#322);
#285=LINE('',#553,#323);
#286=LINE('',#554,#324);
#287=LINE('',#555,#325);
#288=LINE('',#556,#326);
#289=LINE('',#557,#327);
#290=LINE('',#558,#328);
#291=LINE('',#559,#329);
#292=LINE('',#562,#330);
#293=LINE('',#566,#331);
#294=LINE('',#567,#332);
#295=LINE('',#568,#333);
#296=LINE('',#569,#334);
#297=LINE('',#570,#335);
#298=LINE('',#571,#336);
#299=LINE('',#572,#337);
#300=LINE('',#573,#338);
#301=LINE('',#574,#339);
#302=LINE('',#575,#340);
#303=LINE('',#578,#341);
#304=LINE('',#582,#342);
#305=LINE('',#583,#343);
#306=LINE('',#584,#344);
#307=LINE('',#585,#345);
#308=LINE('',#586,#346);
#309=LINE('',#587,#347);
#310=LINE('',#588,#348);
#311=LINE('',#589,#349);
#312=LINE('',#590,#350);
#313=VECTOR('',#416,1.);
#314=VECTOR('',#417,1.);
#315=VECTOR('',#418,1.);
#316=VECTOR('',#419,1.);
#317=VECTOR('',#420,1.);
#318=VECTOR('',#421,1.);
#319=VECTOR('',#422,1.);
#320=VECTOR('',#423,1.);
#321=VECTOR('',#424,1.);
#322=VECTOR('',#425,1.);
#323=VECTOR('',#426,1.);
#324=VECTOR('',#427,1.);
#325=VECTOR('',#428,1.);
#326=VECTOR('',#429,1.);
#327=VECTOR('',#430,1.);
#328=VECTOR('',#431,1.);
#329=VECTOR('',#432,1.);
#330=VECTOR('',#437,1.);
#331=VECTOR('',#444,1.);
#332=VECTOR('',#445,1.);
#333=VECTOR('',#446,1.);
#334=VECTOR('',#447,1.);
#335=VECTOR('',#448,1.);
#336=VECTOR('',#449,1.);
#337=VECTOR('',#450,1.);
#338=VECTOR('',#451,1.);
#339=VECTOR('',#452,1.);
#340=VECTOR('',#453,1.);
#341=VECTOR('',#458,1.);
#342=VECTOR('',#465,1.);
#343=VECTOR('',#466,1.);
#344=VECTOR('',#467,1.);
#345=VECTOR('',#468,1.);
#346=VECTOR('',#469,1.);
#347=VECTOR('',#470,1.);
#348=VECTOR('',#471,1.);
#349=VECTOR('',#472,1.);
#350=VECTOR('',#473,1.);
#351=VERTEX_POINT('',#511);
#352=VERTEX_POINT('',#512);
#353=VERTEX_POINT('',#513);
#354=VERTEX_POINT('',#514);
#355=VERTEX_POINT('',#515);
#356=VERTEX_POINT('',#516);
#357=VERTEX_POINT('',#517);
#358=VERTEX_POINT('',#518);
#359=VERTEX_POINT('',#519);
#360=VERTEX_POINT('',#520);
#361=VERTEX_POINT('',#521);
#362=VERTEX_POINT('',#522);
#363=VERTEX_POINT('',#523);
#364=VERTEX_POINT('',#524);
#365=VERTEX_POINT('',#525);
#366=VERTEX_POINT('',#526);
#367=VERTEX_POINT('',#527);
#368=VERTEX_POINT('',#528);
#369=VERTEX_POINT('',#529);
#370=VERTEX_POINT('',#530);
#371=VERTEX_POINT('',#531);
#372=VERTEX_POINT('',#532);
#373=VERTEX_POINT('',#533);
#374=VERTEX_POINT('',#534);
#375=VERTEX_POINT('',#535);
#376=VERTEX_POINT('',#536);
#377=VERTEX_POINT('',#537);
#378=VERTEX_POINT('',#538);
#379=VERTEX_POINT('',#539);
#380=VERTEX_POINT('',#540);
#381=VERTEX_POINT('',#541);
#382=VERTEX_POINT('',#542);
#383=SHAPE_DEFINITION_REPRESENTATION(#609,#384);
#384=SHAPE_REPRESENTATION('master',(#385),#611);
#385=AXIS2_PLACEMENT_3D('',#510,#415,#414);
#386=AXIS2_PLACEMENT_3D('',#560,#434,#433);
#387=AXIS2_PLACEMENT_3D('',#561,#436,#435);
#388=AXIS2_PLACEMENT_3D('',#563,#439,#438);
#389=AXIS2_PLACEMENT_3D('',#564,#441,#440);
#390=AXIS2_PLACEMENT_3D('',#565,#443,#442);
#391=AXIS2_PLACEMENT_3D('',#576,#455,#454);
#392=AXIS2_PLACEMENT_3D('',#577,#457,#456);
#393=AXIS2_PLACEMENT_3D('',#579,#460,#459);
#394=AXIS2_PLACEMENT_3D('',#580,#462,#461);
#395=AXIS2_PLACEMENT_3D('',#581,#464,#463);
#396=AXIS2_PLACEMENT_3D('',#591,#475,#474);
#397=AXIS2_PLACEMENT_3D('',#592,#477,#476);
#398=AXIS2_PLACEMENT_3D('',#593,#479,#478);
#399=AXIS2_PLACEMENT_3D('',#594,#481,#480);
#400=AXIS2_PLACEMENT_3D('',#595,#483,#482);
#401=AXIS2_PLACEMENT_3D('',#596,#485,#484);
#402=AXIS2_PLACEMENT_3D('',#597,#487,#486);
#403=AXIS2_PLACEMENT_3D('',#598,#489,#488);
#404=AXIS2_PLACEMENT_3D('',#599,#491,#490);
#405=AXIS2_PLACEMENT_3D('',#600,#493,#492);
#406=AXIS2_PLACEMENT_3D('',#601,#495,#494);
#407=AXIS2_PLACEMENT_3D('',#602,#497,#496);
#408=AXIS2_PLACEMENT_3D('',#603,#499,#498);
#409=AXIS2_PLACEMENT_3D('',#604,#501,#500);
#410=AXIS2_PLACEMENT_3D('',#605,#503,#502);
#411=AXIS2_PLACEMENT_3D('',#606,#505,#504);
#412=AXIS2_PLACEMENT_3D('',#607,#507,#506);
#413=AXIS2_PLACEMENT_3D('',#608,#509,#508);
#414=DIRECTION('',(1.,0.,0.));
#415=DIRECTION('',(0.,0.,1.));
#416=DIRECTION('',(-2.3841816984748E-016,-1.,7.9191813360456E-016));
#417=DIRECTION('',(-2.3841816984748E-016,-1.,7.9191813360456E-016));
#418=DIRECTION('',(-2.3841816984748E-016,-1.,7.9191813360456E-016));
#419=DIRECTION('',(-2.3841816984748E-016,-1.,7.9191813360456E-016));
#420=DIRECTION('',(-2.3841816984748E-016,-1.,7.9191813360456E-016));
#421=DIRECTION('',(-2.3841816984748E-016,-1.,7.9191813360456E-016));
#422=DIRECTION('',(-2.3841816984748E-016,-1.,7.9191813360456E-016));
#423=DIRECTION('',(-2.3841816984748E-016,-1.,7.9191813360456E-016));
#424=DIRECTION('',(-2.3841816984748E-016,-1.,7.9191813360456E-016));
#425=DIRECTION('',(-2.3841816984748E-016,-1.,7.9191813360456E-016));
#426=DIRECTION('',(-2.3841816984748E-016,-1.,7.9191813360456E-016));
#427=DIRECTION('',(-2.3841816984748E-016,-1.,7.9191813360456E-016));
#428=DIRECTION('',(-2.3841816984748E-016,-1.,7.9191813360456E-016));
#429=DIRECTION('',(-2.3841816984748E-016,-1.,7.9191813360456E-016));
#430=DIRECTION('',(-2.3841816984748E-016,-1.,7.9191813360456E-016));
#431=DIRECTION('',(-2.3841816984748E-016,-1.,7.9191813360456E-016));
#432=DIRECTION('',(-0.325990777626063,0.,-0.945372949106729));
#433=DIRECTION('',(0.515505838796099,-0.,0.856886066036279));
#434=DIRECTION('',(0.,1.,0.));
#435=DIRECTION('',(0.128590200024639,0.,0.991697817108429));
#436=DIRECTION('',(0.,-1.,0.));
#437=DIRECTION('',(-0.271549869962794,-0.,-0.962424370079639));
#438=DIRECTION('',(0.609849551879593,0.,-0.792517207429756));
#439=DIRECTION('',(0.,1.,0.));
#440=DIRECTION('',(0.778566306088248,0.,-0.627562353096567));
#441=DIRECTION('',(0.,1.,0.));
#442=DIRECTION('',(-0.025943232923717,0.,0.999663417688907));
#443=DIRECTION('',(0.,-1.,0.));
#444=DIRECTION('',(-0.999663417688909,0.,-0.0259432329236178));
#445=DIRECTION('',(-0.136190787407333,-0.,-0.990682628002213));
#446=DIRECTION('',(0.987108536894041,-0.,0.160052292676195));
#447=DIRECTION('',(0.798806463875039,-0.,0.601588092694209));
#448=DIRECTION('',(0.959342104667066,-0.,0.282245861285801));
#449=DIRECTION('',(0.822045537326416,-0.,0.569421754556079));
#450=DIRECTION('',(0.491230422011866,0.,0.871029662233178));
#451=DIRECTION('',(-0.,-0.,1.));
#452=DIRECTION('',(-1.,-0.,-0.));
#453=DIRECTION('',(-0.325990777626063,0.,-0.945372949106729));
#454=DIRECTION('',(0.515505838796099,-0.,0.856886066036279));
#455=DIRECTION('',(0.,1.,0.));
#456=DIRECTION('',(0.128590200024639,0.,0.991697817108429));
#457=DIRECTION('',(0.,-1.,0.));
#458=DIRECTION('',(-0.271549869962794,-0.,-0.962424370079639));
#459=DIRECTION('',(0.609849551879593,0.,-0.792517207429756));
#460=DIRECTION('',(0.,1.,0.));
#461=DIRECTION('',(0.778566306088248,0.,-0.627562353096567));
#462=DIRECTION('',(0.,1.,0.));
#463=DIRECTION('',(-0.025943232923717,0.,0.999663417688907));
#464=DIRECTION('',(0.,-1.,0.));
#465=DIRECTION('',(-0.999663417688909,0.,-0.0259432329236178));
#466=DIRECTION('',(-0.136190787407333,-0.,-0.990682628002213));
#467=DIRECTION('',(0.987108536894041,-0.,0.160052292676195));
#468=DIRECTION('',(0.798806463875039,-0.,0.601588092694209));
#469=DIRECTION('',(0.959342104667066,-0.,0.282245861285801));
#470=DIRECTION('',(0.822045537326416,-0.,0.569421754556079));
#471=DIRECTION('',(0.491230422011866,0.,0.871029662233178));
#472=DIRECTION('',(-0.,-0.,1.));
#473=DIRECTION('',(-1.,-0.,-0.));
#474=DIRECTION('',(0.,-1.,7.9191813360456E-016));
#475=DIRECTION('',(-0.,7.9191813360456E-016,1.));
#476=DIRECTION('',(2.3841816984748E-016,1.,0.));
#477=DIRECTION('',(1.,-2.3841816984748E-016,0.));
#478=DIRECTION('',(-0.491230422011866,0.,-0.871029662233178));
#479=DIRECTION('',(0.871029662233178,-5.9668357692192E-016,-0.491230422011866)
);
#480=DIRECTION('',(-0.822045537326416,0.,-0.569421754556079));
#481=DIRECTION('',(0.569421754556079,-7.86753260250095E-016,-0.822045537326416
));
#482=DIRECTION('',(-0.959342104667066,0.,-0.282245861285801));
#483=DIRECTION('',(0.282245861285801,-8.27012950711E-016,-0.959342104667066));
#484=DIRECTION('',(-0.798806463875039,-4.93038065763132E-032,
-0.601588092694209));
#485=DIRECTION('',(0.601588092694209,-7.76018856045369E-016,-0.798806463875039
));
#486=DIRECTION('',(-0.987108536894041,0.,-0.160052292676195));
#487=DIRECTION('',(0.160052292676195,-8.19868524902008E-016,-0.987108536894041
));
#488=DIRECTION('',(0.136190787407333,0.,0.990682628002213));
#489=DIRECTION('',(-0.990682628002213,3.4404869324573E-016,0.136190787407333)
);
#490=DIRECTION('',(0.99966341768891,0.,0.0259432329236178));
#491=DIRECTION('',(-0.0259432329236178,7.97836926082533E-016,0.99966341768891)
);
#492=DIRECTION('',(0.,-7.9191813360456E-016,-1.));
#493=DIRECTION('',(-2.3841816984748E-016,-1.,7.9191813360456E-016));
#494=DIRECTION('',(0.,-7.9191813360456E-016,-1.));
#495=DIRECTION('',(-2.3841816984748E-016,-1.,7.9191813360456E-016));
#496=DIRECTION('',(0.,-7.9191813360456E-016,-1.));
#497=DIRECTION('',(-2.3841816984748E-016,-1.,7.9191813360456E-016));
#498=DIRECTION('',(0.271549869962794,0.,0.962424370079639));
#499=DIRECTION('',(-0.962424370079639,4.44504723132498E-016,0.271549869962794)
);
#500=DIRECTION('',(0.,-7.9191813360456E-016,-1.));
#501=DIRECTION('',(-2.3841816984748E-016,-1.,7.9191813360456E-016));
#502=DIRECTION('',(0.,-7.9191813360456E-016,-1.));
#503=DIRECTION('',(-2.3841816984748E-016,-1.,7.9191813360456E-016));
#504=DIRECTION('',(0.325990777626063,0.,0.945372949106729));
#505=DIRECTION('',(-0.945372949106729,4.83552096539272E-016,0.325990777626063)
);
#506=DIRECTION('',(0.,0.,-1.));
#507=DIRECTION('',(0.,-1.,0.));
#508=DIRECTION('',(0.,0.,-1.));
#509=DIRECTION('',(0.,-1.,0.));
#510=CARTESIAN_POINT('',(0.,0.,0.));
#511=CARTESIAN_POINT('',(112.307845000001,2168.281361,2155.792265));
#512=CARTESIAN_POINT('',(113.586203,2168.281361,2159.499502));
#513=CARTESIAN_POINT('',(117.641675,2168.281361,2180.787409));
#514=CARTESIAN_POINT('',(175.329132000001,2168.281361,2221.509192));
#515=CARTESIAN_POINT('',(177.038156,2168.281361,2227.566298));
#516=CARTESIAN_POINT('',(188.995704355895,2168.281361,2228.52504672975));
#517=CARTESIAN_POINT('',(193.261364549209,2168.281361,2232.69559493122));
#518=CARTESIAN_POINT('',(202.524858,2168.281361,2237.275518));
#519=CARTESIAN_POINT('',(206.939815209049,2168.281361,2237.39009482775));
#520=CARTESIAN_POINT('',(208.604584,2168.281361,2249.5));
#521=CARTESIAN_POINT('',(188.829133,2168.281361,2246.293558));
#522=CARTESIAN_POINT('',(170.295224,2168.281361,2232.33551));
#523=CARTESIAN_POINT('',(146.775281,2168.281361,2225.415761));
#524=CARTESIAN_POINT('',(119.742662,2168.281361,2206.690568));
#525=CARTESIAN_POINT('',(103.080454,2168.281361,2177.14582330186));
#526=CARTESIAN_POINT('',(103.080454,2168.281361,2155.792265));
#527=CARTESIAN_POINT('',(112.307845,168.281361,2155.792265));
#528=CARTESIAN_POINT('',(113.586203,168.281361,2159.499502));
#529=CARTESIAN_POINT('',(117.641675,168.281361,2180.787409));
#530=CARTESIAN_POINT('',(175.329132,168.281361,2221.509192));
#531=CARTESIAN_POINT('',(177.038156,168.281361,2227.566298));
#532=CARTESIAN_POINT('',(188.995704355895,168.281361,2228.52504672975));
#533=CARTESIAN_POINT('',(193.261364549209,168.281361,2232.69559493122));
#534=CARTESIAN_POINT('',(202.524858,168.281361,2237.275518));
#535=CARTESIAN_POINT('',(206.939815209048,168.281361,2237.39009482776));
#536=CARTESIAN_POINT('',(208.604584,168.281361,2249.5));
#537=CARTESIAN_POINT('',(188.829133,168.281361,2246.293558));
#538=CARTESIAN_POINT('',(170.295224,168.281361,2232.33551));
#539=CARTESIAN_POINT('',(146.775281,168.281361,2225.415761));
#540=CARTESIAN_POINT('',(119.742662,168.281361,2206.690568));
#541=CARTESIAN_POINT('',(103.080454,168.281361,2177.14582330186));
#542=CARTESIAN_POINT('',(103.080454,168.281361,2155.792265));
#543=CARTESIAN_POINT('',(103.080454,2168.281361,2155.792265));
#544=CARTESIAN_POINT('',(103.080454,2168.281361,2177.14582330186));
#545=CARTESIAN_POINT('',(119.742662,2168.281361,2206.690568));
#546=CARTESIAN_POINT('',(146.775281,2168.281361,2225.415761));
#547=CARTESIAN_POINT('',(170.295224,2168.281361,2232.33551));
#548=CARTESIAN_POINT('',(188.829133,2168.281361,2246.293558));
#549=CARTESIAN_POINT('',(208.604584,2168.281361,2249.5));
#550=CARTESIAN_POINT('',(206.939815209049,2168.281361,2237.39009482775));
#551=CARTESIAN_POINT('',(202.524858,2168.281361,2237.275518));
#552=CARTESIAN_POINT('',(193.261364549209,2168.281361,2232.69559493122));
#553=CARTESIAN_POINT('',(188.995704355895,2168.281361,2228.52504672975));
#554=CARTESIAN_POINT('',(177.038156,2168.281361,2227.566298));
#555=CARTESIAN_POINT('',(175.329132000001,2168.281361,2221.509192));
#556=CARTESIAN_POINT('',(117.641675,2168.281361,2180.787409));
#557=CARTESIAN_POINT('',(113.586203,2168.281361,2159.499502));
#558=CARTESIAN_POINT('',(112.307845000001,2168.281361,2155.792265));
#559=CARTESIAN_POINT('',(113.586203,2168.281361,2159.499502));
#560=CARTESIAN_POINT('',(111.688162598713,2168.281361,2170.89133908826));
#561=CARTESIAN_POINT('',(168.622636160194,2168.281361,2169.7881643983));
#562=CARTESIAN_POINT('',(177.038156,2168.281361,2227.566298));
#563=CARTESIAN_POINT('',(182.278603018424,2168.281361,2237.25411503452));
#564=CARTESIAN_POINT('',(173.576898028301,2168.281361,2248.56223343421));
#565=CARTESIAN_POINT('',(202.84417450364,2168.281361,2224.97138349636));
#566=CARTESIAN_POINT('',(206.939815209049,2168.281361,2237.39009482775));
#567=CARTESIAN_POINT('',(208.604584,2168.281361,2249.5));
#568=CARTESIAN_POINT('',(188.829133,2168.281361,2246.293558));
#569=CARTESIAN_POINT('',(170.295224,2168.281361,2232.33551));
#570=CARTESIAN_POINT('',(146.775281,2168.281361,2225.415761));
#571=CARTESIAN_POINT('',(119.742662,2168.281361,2206.690568));
#572=CARTESIAN_POINT('',(103.080454,2168.281361,2177.14582330186));
#573=CARTESIAN_POINT('',(103.080454,2168.281361,2155.792265));
#574=CARTESIAN_POINT('',(112.307845000001,2168.281361,2155.792265));
#575=CARTESIAN_POINT('',(113.586203,168.281361,2159.499502));
#576=CARTESIAN_POINT('',(111.688162598713,168.281361,2170.89133908826));
#577=CARTESIAN_POINT('',(168.622636160194,168.281361,2169.7881643983));
#578=CARTESIAN_POINT('',(177.038156,168.281361,2227.566298));
#579=CARTESIAN_POINT('',(182.278603018424,168.281361,2237.25411503453));
#580=CARTESIAN_POINT('',(173.576898028301,168.281361,2248.56223343421));
#581=CARTESIAN_POINT('',(202.844174503639,168.281361,2224.97138349636));
#582=CARTESIAN_POINT('',(206.939815209048,168.281361,2237.39009482776));
#583=CARTESIAN_POINT('',(208.604584,168.281361,2249.5));
#584=CARTESIAN_POINT('',(188.829133,168.281361,2246.293558));
#585=CARTESIAN_POINT('',(170.295224,168.281361,2232.33551));
#586=CARTESIAN_POINT('',(146.775281,168.281361,2225.415761));
#587=CARTESIAN_POINT('',(119.742662,168.281361,2206.690568));
#588=CARTESIAN_POINT('',(103.080454,168.281361,2177.14582330186));
#589=CARTESIAN_POINT('',(103.080454,168.281361,2155.792265));
#590=CARTESIAN_POINT('',(112.307845,168.281361,2155.792265));
#591=CARTESIAN_POINT('',(112.307845000001,2168.281361,2155.792265));
#592=CARTESIAN_POINT('',(103.080454,2168.281361,2155.792265));
#593=CARTESIAN_POINT('',(103.080454,2168.281361,2177.14582330186));
#594=CARTESIAN_POINT('',(119.742662,2168.281361,2206.690568));
#595=CARTESIAN_POINT('',(146.775281,2168.281361,2225.415761));
#596=CARTESIAN_POINT('',(170.295224,2168.281361,2232.33551));
#597=CARTESIAN_POINT('',(188.829133,2168.281361,2246.293558));
#598=CARTESIAN_POINT('',(208.604584,2168.281361,2249.5));
#599=CARTESIAN_POINT('',(206.939815209049,2168.281361,2237.39009482775));
#600=CARTESIAN_POINT('',(202.84417450364,2168.281361,2224.97138349636));
#601=CARTESIAN_POINT('',(173.576898028301,2168.281361,2248.56223343421));
#602=CARTESIAN_POINT('',(182.278603018424,2168.281361,2237.25411503452));
#603=CARTESIAN_POINT('',(177.038156,2168.281361,2227.566298));
#604=CARTESIAN_POINT('',(168.622636160194,2168.281361,2169.7881643983));
#605=CARTESIAN_POINT('',(111.688162598713,2168.281361,2170.89133908826));
#606=CARTESIAN_POINT('',(113.586203,2168.281361,2159.499502));
#607=CARTESIAN_POINT('',(202.84417450364,2168.281361,2224.97138349636));
#608=CARTESIAN_POINT('',(202.844174503639,168.281361,2224.97138349636));
#609=PRODUCT_DEFINITION_SHAPE('','',#610);
#610=PRODUCT_DEFINITION('','',#622,#627);
#611=(
GEOMETRIC_REPRESENTATION_CONTEXT(3)
GLOBAL_UNCERTAINTY_ASSIGNED_CONTEXT((#612))
GLOBAL_UNIT_ASSIGNED_CONTEXT((#614,#613,#617))
REPRESENTATION_CONTEXT('','')
);
#612=UNCERTAINTY_MEASURE_WITH_UNIT(LENGTH_MEASURE(0.001),#614,'','tolerance');
#613=(
CONVERSION_BASED_UNIT('',#615)
NAMED_UNIT(#621)
PLANE_ANGLE_UNIT()
);
#614=(
CONVERSION_BASED_UNIT('',#616)
LENGTH_UNIT()
NAMED_UNIT(#620)
);
#615=PLANE_ANGLE_MEASURE_WITH_UNIT(PLANE_ANGLE_MEASURE(0.0174532925199433),
#618);
#616=LENGTH_MEASURE_WITH_UNIT(LENGTH_MEASURE(1.),#619);
#617=(
NAMED_UNIT(*)
SI_UNIT($,.STERADIAN.)
SOLID_ANGLE_UNIT()
);
#618=(
NAMED_UNIT(*)
PLANE_ANGLE_UNIT()
SI_UNIT($,.RADIAN.)
);
#619=(
LENGTH_UNIT()
NAMED_UNIT(*)
SI_UNIT(.MILLI.,.METRE.)
);
#620=DIMENSIONAL_EXPONENTS(1.,0.,0.,0.,0.,0.,0.);
#621=DIMENSIONAL_EXPONENTS(0.,0.,0.,0.,0.,0.,0.);
#622=PRODUCT_DEFINITION_FORMATION_WITH_SPECIFIED_SOURCE('','',#625,.NOT_KNOWN.
);
#623=PRODUCT_CATEGORY_RELATIONSHIP('','',#628,#624);
#624=PRODUCT_RELATED_PRODUCT_CATEGORY('assembly','',(#625));
#625=PRODUCT('','master','',(#626));
#626=PRODUCT_CONTEXT('',#630,'');
#627=PRODUCT_DEFINITION_CONTEXT('',#630,'part_definition');
#628=PRODUCT_CATEGORY('part','');
#629=APPLICATION_PROTOCOL_DEFINITION('international standard',
'automotive_design_cc2',1994,#630);
#630=APPLICATION_CONTEXT(
'configuration controlled 3D designs of mechanical parts and assemblies');
ENDSEC;
END-ISO-10303-21;
29103