ISO-10303-21;
HEADER;
/* Generated by software using Delcam plc STEP library */

FILE_DESCRIPTION(
/* description */ ('AP-214 File'),
/* implementation_level */ '2;1');

FILE_NAME(
/* name */ 'D608',
/* time_stamp */ 'Tue Oct 03 09:07:04 2017',
/* author */ (''),
/* organization */ (''),
/* preprocessor_version */ 'DELCAM STEP V1',
/* originating_system */ 'Exchange7.1.0006',
/* authorisation */ '');

FILE_SCHEMA (('AUTOMOTIVE_DESIGN'));
ENDSEC;
DATA;
#10=PRESENTATION_STYLE_ASSIGNMENT((#20));
#11=PRESENTATION_STYLE_ASSIGNMENT((#21));
#12=SURFACE_SIDE_STYLE('',(#14));
#13=SURFACE_SIDE_STYLE('',(#15));
#14=SURFACE_STYLE_FILL_AREA(#16);
#15=SURFACE_STYLE_FILL_AREA(#17);
#16=FILL_AREA_STYLE('',(#18));
#17=FILL_AREA_STYLE('',(#19));
#18=FILL_AREA_STYLE_COLOUR('',#52);
#19=FILL_AREA_STYLE_COLOUR('',#53);
#20=SURFACE_STYLE_USAGE(.BOTH.,#12);
#21=SURFACE_STYLE_USAGE(.BOTH.,#13);
#22=STYLED_ITEM('',(#10),#73);
#23=STYLED_ITEM('',(#10),#74);
#24=STYLED_ITEM('',(#10),#75);
#25=STYLED_ITEM('',(#10),#76);
#26=STYLED_ITEM('',(#10),#77);
#27=STYLED_ITEM('',(#10),#78);
#28=STYLED_ITEM('',(#10),#79);
#29=STYLED_ITEM('',(#10),#80);
#30=STYLED_ITEM('',(#10),#81);
#31=STYLED_ITEM('',(#10),#82);
#32=STYLED_ITEM('',(#10),#83);
#33=STYLED_ITEM('',(#10),#84);
#34=STYLED_ITEM('',(#10),#85);
#35=STYLED_ITEM('',(#10),#86);
#36=STYLED_ITEM('',(#10),#87);
#37=STYLED_ITEM('',(#10),#88);
#38=STYLED_ITEM('',(#10),#89);
#39=STYLED_ITEM('',(#10),#90);
#40=STYLED_ITEM('',(#10),#91);
#41=STYLED_ITEM('',(#10),#92);
#42=STYLED_ITEM('',(#10),#93);
#43=STYLED_ITEM('',(#10),#94);
#44=STYLED_ITEM('',(#10),#95);
#45=STYLED_ITEM('',(#10),#96);
#46=STYLED_ITEM('',(#10),#97);
#47=STYLED_ITEM('',(#10),#98);
#48=STYLED_ITEM('',(#10),#99);
#49=STYLED_ITEM('',(#10),#100);
#50=STYLED_ITEM('',(#10),#101);
#51=STYLED_ITEM('',(#11),#59);
#52=COLOUR_RGB('',0.,0.,0.);
#53=COLOUR_RGB('rgb_colour_1',0.4,0.4,0.4);
#54=MECHANICAL_DESIGN_GEOMETRIC_PRESENTATION_REPRESENTATION('',(#22,#23,#24,
#25,#26,#27,#28,#29,#30,#31,#32,#33,#34,#35,#36,#37,#38,#39,#40,#41,#42,#43,
#44,#45,#46,#47,#48,#49,#50,#51),#1007);
#55=PRESENTATION_LAYER_ASSIGNMENT('130','D608',(#73,#74,#75,#76,#77,#78,#79,
#80,#81,#82,#83,#84,#85,#86,#87,#88,#89,#90,#91,#92,#93,#94,#95,#96,#97,#98,
#99,#100,#101,#59));
#56=SHAPE_REPRESENTATION_RELATIONSHIP('','',#604,#57);
#57=ADVANCED_BREP_SHAPE_REPRESENTATION('',(#58),#1007);
#58=MANIFOLD_SOLID_BREP('8099',#59);
#59=CLOSED_SHELL('',(#73,#74,#75,#76,#77,#78,#79,#80,#81,#82,#83,#84,#85,#86,
#87,#88,#89,#90,#91,#92,#93,#94,#95,#96,#97,#98,#99,#100,#101));
#60=PLANE('',#646);
#61=PLANE('',#647);
#62=PLANE('',#648);
#63=PLANE('',#649);
#64=PLANE('',#652);
#65=PLANE('',#653);
#66=PLANE('',#659);
#67=PLANE('',#660);
#68=PLANE('',#661);
#69=PLANE('',#662);
#70=PLANE('',#664);
#71=PLANE('',#665);
#72=PLANE('',#666);
#73=ADVANCED_FACE('',(#102),#322,.T.);
#74=ADVANCED_FACE('',(#103),#323,.T.);
#75=ADVANCED_FACE('',(#104),#324,.F.);
#76=ADVANCED_FACE('',(#105),#325,.F.);
#77=ADVANCED_FACE('',(#106),#326,.F.);
#78=ADVANCED_FACE('',(#107),#327,.T.);
#79=ADVANCED_FACE('',(#108),#328,.F.);
#80=ADVANCED_FACE('',(#109),#329,.F.);
#81=ADVANCED_FACE('',(#110),#60,.T.);
#82=ADVANCED_FACE('',(#111),#61,.T.);
#83=ADVANCED_FACE('',(#112),#62,.T.);
#84=ADVANCED_FACE('',(#113),#63,.T.);
#85=ADVANCED_FACE('',(#114),#330,.F.);
#86=ADVANCED_FACE('',(#115),#331,.F.);
#87=ADVANCED_FACE('',(#116),#64,.T.);
#88=ADVANCED_FACE('',(#117),#65,.T.);
#89=ADVANCED_FACE('',(#118),#332,.T.);
#90=ADVANCED_FACE('',(#119),#333,.T.);
#91=ADVANCED_FACE('',(#120),#334,.F.);
#92=ADVANCED_FACE('',(#121),#335,.F.);
#93=ADVANCED_FACE('',(#122),#336,.F.);
#94=ADVANCED_FACE('',(#123),#66,.T.);
#95=ADVANCED_FACE('',(#124),#67,.T.);
#96=ADVANCED_FACE('',(#125),#68,.T.);
#97=ADVANCED_FACE('',(#126),#69,.T.);
#98=ADVANCED_FACE('',(#127),#337,.F.);
#99=ADVANCED_FACE('',(#128),#70,.T.);
#100=ADVANCED_FACE('',(#129),#71,.F.);
#101=ADVANCED_FACE('',(#130),#72,.T.);
#102=FACE_OUTER_BOUND('',#131,.T.);
#103=FACE_OUTER_BOUND('',#132,.T.);
#104=FACE_OUTER_BOUND('',#133,.T.);
#105=FACE_OUTER_BOUND('',#134,.T.);
#106=FACE_OUTER_BOUND('',#135,.T.);
#107=FACE_OUTER_BOUND('',#136,.T.);
#108=FACE_OUTER_BOUND('',#137,.T.);
#109=FACE_OUTER_BOUND('',#138,.T.);
#110=FACE_OUTER_BOUND('',#139,.T.);
#111=FACE_OUTER_BOUND('',#140,.T.);
#112=FACE_OUTER_BOUND('',#141,.T.);
#113=FACE_OUTER_BOUND('',#142,.T.);
#114=FACE_OUTER_BOUND('',#143,.T.);
#115=FACE_OUTER_BOUND('',#144,.T.);
#116=FACE_OUTER_BOUND('',#145,.T.);
#117=FACE_OUTER_BOUND('',#146,.T.);
#118=FACE_OUTER_BOUND('',#147,.T.);
#119=FACE_OUTER_BOUND('',#148,.T.);
#120=FACE_OUTER_BOUND('',#149,.T.);
#121=FACE_OUTER_BOUND('',#150,.T.);
#122=FACE_OUTER_BOUND('',#151,.T.);
#123=FACE_OUTER_BOUND('',#152,.T.);
#124=FACE_OUTER_BOUND('',#153,.T.);
#125=FACE_OUTER_BOUND('',#154,.T.);
#126=FACE_OUTER_BOUND('',#155,.T.);
#127=FACE_OUTER_BOUND('',#156,.T.);
#128=FACE_OUTER_BOUND('',#157,.T.);
#129=FACE_OUTER_BOUND('',#158,.T.);
#130=FACE_OUTER_BOUND('',#159,.T.);
#131=EDGE_LOOP('',(#160,#161,#162,#163));
#132=EDGE_LOOP('',(#164,#165,#166,#167));
#133=EDGE_LOOP('',(#168,#169,#170,#171));
#134=EDGE_LOOP('',(#172,#173,#174,#175));
#135=EDGE_LOOP('',(#176,#177,#178,#179));
#136=EDGE_LOOP('',(#180,#181,#182,#183));
#137=EDGE_LOOP('',(#184,#185,#186,#187));
#138=EDGE_LOOP('',(#188,#189,#190,#191));
#139=EDGE_LOOP('',(#192,#193,#194,#195));
#140=EDGE_LOOP('',(#196,#197,#198,#199));
#141=EDGE_LOOP('',(#200,#201,#202,#203));
#142=EDGE_LOOP('',(#204,#205,#206,#207));
#143=EDGE_LOOP('',(#208,#209,#210,#211));
#144=EDGE_LOOP('',(#212,#213,#214,#215));
#145=EDGE_LOOP('',(#216,#217,#218,#219));
#146=EDGE_LOOP('',(#220,#221,#222,#223));
#147=EDGE_LOOP('',(#224,#225,#226,#227));
#148=EDGE_LOOP('',(#228,#229,#230,#231));
#149=EDGE_LOOP('',(#232,#233,#234,#235));
#150=EDGE_LOOP('',(#236,#237,#238,#239));
#151=EDGE_LOOP('',(#240,#241,#242,#243));
#152=EDGE_LOOP('',(#244,#245,#246,#247));
#153=EDGE_LOOP('',(#248,#249,#250,#251));
#154=EDGE_LOOP('',(#252,#253,#254,#255));
#155=EDGE_LOOP('',(#256,#257,#258,#259));
#156=EDGE_LOOP('',(#260,#261,#262,#263));
#157=EDGE_LOOP('',(#264,#265,#266,#267));
#158=EDGE_LOOP('',(#268,#269,#270,#271,#272,#273,#274,#275,#276,#277,#278,#279
,#280,#281,#282,#283,#284,#285,#286,#287,#288,#289,#290,#291,#292,#293,#294));
#159=EDGE_LOOP('',(#295,#296,#297,#298,#299,#300,#301,#302,#303,#304,#305,#306
,#307,#308,#309,#310,#311,#312,#313,#314,#315,#316,#317,#318,#319,#320,#321));
#160=ORIENTED_EDGE('',*,*,#450,.F.);
#161=ORIENTED_EDGE('',*,*,#396,.F.);
#162=ORIENTED_EDGE('',*,*,#423,.T.);
#163=ORIENTED_EDGE('',*,*,#370,.T.);
#164=ORIENTED_EDGE('',*,*,#449,.F.);
#165=ORIENTED_EDGE('',*,*,#370,.F.);
#166=ORIENTED_EDGE('',*,*,#422,.T.);
#167=ORIENTED_EDGE('',*,*,#371,.T.);
#168=ORIENTED_EDGE('',*,*,#448,.F.);
#169=ORIENTED_EDGE('',*,*,#371,.F.);
#170=ORIENTED_EDGE('',*,*,#421,.T.);
#171=ORIENTED_EDGE('',*,*,#372,.T.);
#172=ORIENTED_EDGE('',*,*,#447,.F.);
#173=ORIENTED_EDGE('',*,*,#372,.F.);
#174=ORIENTED_EDGE('',*,*,#420,.T.);
#175=ORIENTED_EDGE('',*,*,#373,.T.);
#176=ORIENTED_EDGE('',*,*,#446,.F.);
#177=ORIENTED_EDGE('',*,*,#373,.F.);
#178=ORIENTED_EDGE('',*,*,#419,.T.);
#179=ORIENTED_EDGE('',*,*,#374,.T.);
#180=ORIENTED_EDGE('',*,*,#445,.F.);
#181=ORIENTED_EDGE('',*,*,#374,.F.);
#182=ORIENTED_EDGE('',*,*,#418,.T.);
#183=ORIENTED_EDGE('',*,*,#375,.T.);
#184=ORIENTED_EDGE('',*,*,#444,.F.);
#185=ORIENTED_EDGE('',*,*,#375,.F.);
#186=ORIENTED_EDGE('',*,*,#417,.T.);
#187=ORIENTED_EDGE('',*,*,#376,.T.);
#188=ORIENTED_EDGE('',*,*,#443,.F.);
#189=ORIENTED_EDGE('',*,*,#376,.F.);
#190=ORIENTED_EDGE('',*,*,#416,.T.);
#191=ORIENTED_EDGE('',*,*,#377,.T.);
#192=ORIENTED_EDGE('',*,*,#442,.F.);
#193=ORIENTED_EDGE('',*,*,#377,.F.);
#194=ORIENTED_EDGE('',*,*,#415,.T.);
#195=ORIENTED_EDGE('',*,*,#378,.T.);
#196=ORIENTED_EDGE('',*,*,#441,.F.);
#197=ORIENTED_EDGE('',*,*,#378,.F.);
#198=ORIENTED_EDGE('',*,*,#414,.T.);
#199=ORIENTED_EDGE('',*,*,#379,.T.);
#200=ORIENTED_EDGE('',*,*,#440,.F.);
#201=ORIENTED_EDGE('',*,*,#379,.F.);
#202=ORIENTED_EDGE('',*,*,#413,.T.);
#203=ORIENTED_EDGE('',*,*,#380,.T.);
#204=ORIENTED_EDGE('',*,*,#439,.F.);
#205=ORIENTED_EDGE('',*,*,#380,.F.);
#206=ORIENTED_EDGE('',*,*,#412,.T.);
#207=ORIENTED_EDGE('',*,*,#381,.T.);
#208=ORIENTED_EDGE('',*,*,#438,.F.);
#209=ORIENTED_EDGE('',*,*,#381,.F.);
#210=ORIENTED_EDGE('',*,*,#411,.T.);
#211=ORIENTED_EDGE('',*,*,#382,.T.);
#212=ORIENTED_EDGE('',*,*,#437,.F.);
#213=ORIENTED_EDGE('',*,*,#382,.F.);
#214=ORIENTED_EDGE('',*,*,#410,.T.);
#215=ORIENTED_EDGE('',*,*,#383,.T.);
#216=ORIENTED_EDGE('',*,*,#436,.F.);
#217=ORIENTED_EDGE('',*,*,#383,.F.);
#218=ORIENTED_EDGE('',*,*,#409,.T.);
#219=ORIENTED_EDGE('',*,*,#384,.T.);
#220=ORIENTED_EDGE('',*,*,#435,.F.);
#221=ORIENTED_EDGE('',*,*,#384,.F.);
#222=ORIENTED_EDGE('',*,*,#408,.T.);
#223=ORIENTED_EDGE('',*,*,#385,.T.);
#224=ORIENTED_EDGE('',*,*,#434,.F.);
#225=ORIENTED_EDGE('',*,*,#385,.F.);
#226=ORIENTED_EDGE('',*,*,#407,.T.);
#227=ORIENTED_EDGE('',*,*,#386,.T.);
#228=ORIENTED_EDGE('',*,*,#433,.F.);
#229=ORIENTED_EDGE('',*,*,#386,.F.);
#230=ORIENTED_EDGE('',*,*,#406,.T.);
#231=ORIENTED_EDGE('',*,*,#387,.T.);
#232=ORIENTED_EDGE('',*,*,#432,.F.);
#233=ORIENTED_EDGE('',*,*,#387,.F.);
#234=ORIENTED_EDGE('',*,*,#405,.T.);
#235=ORIENTED_EDGE('',*,*,#388,.T.);
#236=ORIENTED_EDGE('',*,*,#431,.F.);
#237=ORIENTED_EDGE('',*,*,#388,.F.);
#238=ORIENTED_EDGE('',*,*,#404,.T.);
#239=ORIENTED_EDGE('',*,*,#389,.T.);
#240=ORIENTED_EDGE('',*,*,#430,.F.);
#241=ORIENTED_EDGE('',*,*,#389,.F.);
#242=ORIENTED_EDGE('',*,*,#403,.T.);
#243=ORIENTED_EDGE('',*,*,#390,.T.);
#244=ORIENTED_EDGE('',*,*,#429,.F.);
#245=ORIENTED_EDGE('',*,*,#390,.F.);
#246=ORIENTED_EDGE('',*,*,#402,.T.);
#247=ORIENTED_EDGE('',*,*,#391,.T.);
#248=ORIENTED_EDGE('',*,*,#428,.F.);
#249=ORIENTED_EDGE('',*,*,#391,.F.);
#250=ORIENTED_EDGE('',*,*,#401,.T.);
#251=ORIENTED_EDGE('',*,*,#392,.T.);
#252=ORIENTED_EDGE('',*,*,#427,.F.);
#253=ORIENTED_EDGE('',*,*,#392,.F.);
#254=ORIENTED_EDGE('',*,*,#400,.T.);
#255=ORIENTED_EDGE('',*,*,#393,.T.);
#256=ORIENTED_EDGE('',*,*,#426,.F.);
#257=ORIENTED_EDGE('',*,*,#393,.F.);
#258=ORIENTED_EDGE('',*,*,#399,.T.);
#259=ORIENTED_EDGE('',*,*,#394,.T.);
#260=ORIENTED_EDGE('',*,*,#425,.F.);
#261=ORIENTED_EDGE('',*,*,#394,.F.);
#262=ORIENTED_EDGE('',*,*,#398,.T.);
#263=ORIENTED_EDGE('',*,*,#395,.T.);
#264=ORIENTED_EDGE('',*,*,#424,.F.);
#265=ORIENTED_EDGE('',*,*,#395,.F.);
#266=ORIENTED_EDGE('',*,*,#397,.T.);
#267=ORIENTED_EDGE('',*,*,#396,.T.);
#268=ORIENTED_EDGE('',*,*,#423,.F.);
#269=ORIENTED_EDGE('',*,*,#397,.F.);
#270=ORIENTED_EDGE('',*,*,#398,.F.);
#271=ORIENTED_EDGE('',*,*,#399,.F.);
#272=ORIENTED_EDGE('',*,*,#400,.F.);
#273=ORIENTED_EDGE('',*,*,#401,.F.);
#274=ORIENTED_EDGE('',*,*,#402,.F.);
#275=ORIENTED_EDGE('',*,*,#403,.F.);
#276=ORIENTED_EDGE('',*,*,#404,.F.);
#277=ORIENTED_EDGE('',*,*,#405,.F.);
#278=ORIENTED_EDGE('',*,*,#406,.F.);
#279=ORIENTED_EDGE('',*,*,#407,.F.);
#280=ORIENTED_EDGE('',*,*,#408,.F.);
#281=ORIENTED_EDGE('',*,*,#409,.F.);
#282=ORIENTED_EDGE('',*,*,#410,.F.);
#283=ORIENTED_EDGE('',*,*,#411,.F.);
#284=ORIENTED_EDGE('',*,*,#412,.F.);
#285=ORIENTED_EDGE('',*,*,#413,.F.);
#286=ORIENTED_EDGE('',*,*,#414,.F.);
#287=ORIENTED_EDGE('',*,*,#415,.F.);
#288=ORIENTED_EDGE('',*,*,#416,.F.);
#289=ORIENTED_EDGE('',*,*,#417,.F.);
#290=ORIENTED_EDGE('',*,*,#418,.F.);
#291=ORIENTED_EDGE('',*,*,#419,.F.);
#292=ORIENTED_EDGE('',*,*,#420,.F.);
#293=ORIENTED_EDGE('',*,*,#421,.F.);
#294=ORIENTED_EDGE('',*,*,#422,.F.);
#295=ORIENTED_EDGE('',*,*,#450,.T.);
#296=ORIENTED_EDGE('',*,*,#449,.T.);
#297=ORIENTED_EDGE('',*,*,#448,.T.);
#298=ORIENTED_EDGE('',*,*,#447,.T.);
#299=ORIENTED_EDGE('',*,*,#446,.T.);
#300=ORIENTED_EDGE('',*,*,#445,.T.);
#301=ORIENTED_EDGE('',*,*,#444,.T.);
#302=ORIENTED_EDGE('',*,*,#443,.T.);
#303=ORIENTED_EDGE('',*,*,#442,.T.);
#304=ORIENTED_EDGE('',*,*,#441,.T.);
#305=ORIENTED_EDGE('',*,*,#440,.T.);
#306=ORIENTED_EDGE('',*,*,#439,.T.);
#307=ORIENTED_EDGE('',*,*,#438,.T.);
#308=ORIENTED_EDGE('',*,*,#437,.T.);
#309=ORIENTED_EDGE('',*,*,#436,.T.);
#310=ORIENTED_EDGE('',*,*,#435,.T.);
#311=ORIENTED_EDGE('',*,*,#434,.T.);
#312=ORIENTED_EDGE('',*,*,#433,.T.);
#313=ORIENTED_EDGE('',*,*,#432,.T.);
#314=ORIENTED_EDGE('',*,*,#431,.T.);
#315=ORIENTED_EDGE('',*,*,#430,.T.);
#316=ORIENTED_EDGE('',*,*,#429,.T.);
#317=ORIENTED_EDGE('',*,*,#428,.T.);
#318=ORIENTED_EDGE('',*,*,#427,.T.);
#319=ORIENTED_EDGE('',*,*,#426,.T.);
#320=ORIENTED_EDGE('',*,*,#425,.T.);
#321=ORIENTED_EDGE('',*,*,#424,.T.);
#322=CYLINDRICAL_SURFACE('',#638,71.2565441940011);
#323=CYLINDRICAL_SURFACE('',#639,36.3390480804489);
#324=CYLINDRICAL_SURFACE('',#640,88.8760831875864);
#325=CYLINDRICAL_SURFACE('',#641,35.8127705682359);
#326=CYLINDRICAL_SURFACE('',#642,28.3121005722391);
#327=CYLINDRICAL_SURFACE('',#643,29.528254327352);
#328=CYLINDRICAL_SURFACE('',#644,181.223484697733);
#329=CYLINDRICAL_SURFACE('',#645,29.1333258162601);
#330=CYLINDRICAL_SURFACE('',#650,40.4174269193536);
#331=CYLINDRICAL_SURFACE('',#651,17.2807059196104);
#332=CYLINDRICAL_SURFACE('',#654,33.8795339155691);
#333=CYLINDRICAL_SURFACE('',#655,82.9831790043654);
#334=CYLINDRICAL_SURFACE('',#656,152.845515024007);
#335=CYLINDRICAL_SURFACE('',#657,40.4849540865996);
#336=CYLINDRICAL_SURFACE('',#658,63.5753775601159);
#337=CYLINDRICAL_SURFACE('',#663,8.59020243935847);
#338=CIRCLE('',#606,8.59020243935847);
#339=CIRCLE('',#607,63.5753775601159);
#340=CIRCLE('',#608,40.4849540865996);
#341=CIRCLE('',#609,152.845515024007);
#342=CIRCLE('',#610,82.9831790043654);
#343=CIRCLE('',#611,33.8795339155691);
#344=CIRCLE('',#612,17.2807059196104);
#345=CIRCLE('',#613,40.4174269193536);
#346=CIRCLE('',#614,29.1333258162601);
#347=CIRCLE('',#615,181.223484697733);
#348=CIRCLE('',#616,29.528254327352);
#349=CIRCLE('',#617,28.3121005722391);
#350=CIRCLE('',#618,35.8127705682359);
#351=CIRCLE('',#619,88.8760831875864);
#352=CIRCLE('',#620,36.3390480804489);
#353=CIRCLE('',#621,71.2565441940011);
#354=CIRCLE('',#622,8.59020243935847);
#355=CIRCLE('',#623,63.5753775601159);
#356=CIRCLE('',#624,40.4849540865996);
#357=CIRCLE('',#625,152.845515024007);
#358=CIRCLE('',#626,82.9831790043654);
#359=CIRCLE('',#627,33.8795339155691);
#360=CIRCLE('',#628,17.2807059196104);
#361=CIRCLE('',#629,40.4174269193536);
#362=CIRCLE('',#630,29.1333258162601);
#363=CIRCLE('',#631,181.223484697733);
#364=CIRCLE('',#632,29.528254327352);
#365=CIRCLE('',#633,28.3121005722391);
#366=CIRCLE('',#634,35.8127705682359);
#367=CIRCLE('',#635,88.8760831875864);
#368=CIRCLE('',#636,36.3390480804489);
#369=CIRCLE('',#637,71.2565441940011);
#370=EDGE_CURVE('',#575,#602,#451,.T.);
#371=EDGE_CURVE('',#574,#601,#452,.T.);
#372=EDGE_CURVE('',#573,#600,#453,.T.);
#373=EDGE_CURVE('',#572,#599,#454,.T.);
#374=EDGE_CURVE('',#571,#598,#455,.T.);
#375=EDGE_CURVE('',#570,#597,#456,.T.);
#376=EDGE_CURVE('',#569,#596,#457,.T.);
#377=EDGE_CURVE('',#568,#595,#458,.T.);
#378=EDGE_CURVE('',#567,#594,#459,.T.);
#379=EDGE_CURVE('',#566,#593,#460,.T.);
#380=EDGE_CURVE('',#565,#592,#461,.T.);
#381=EDGE_CURVE('',#564,#591,#462,.T.);
#382=EDGE_CURVE('',#563,#590,#463,.T.);
#383=EDGE_CURVE('',#562,#589,#464,.T.);
#384=EDGE_CURVE('',#561,#588,#465,.T.);
#385=EDGE_CURVE('',#560,#587,#466,.T.);
#386=EDGE_CURVE('',#559,#586,#467,.T.);
#387=EDGE_CURVE('',#558,#585,#468,.T.);
#388=EDGE_CURVE('',#557,#584,#469,.T.);
#389=EDGE_CURVE('',#556,#583,#470,.T.);
#390=EDGE_CURVE('',#555,#582,#471,.T.);
#391=EDGE_CURVE('',#554,#581,#472,.T.);
#392=EDGE_CURVE('',#553,#580,#473,.T.);
#393=EDGE_CURVE('',#552,#579,#474,.T.);
#394=EDGE_CURVE('',#551,#578,#475,.T.);
#395=EDGE_CURVE('',#550,#577,#476,.T.);
#396=EDGE_CURVE('',#549,#576,#477,.T.);
#397=EDGE_CURVE('',#550,#549,#478,.T.);
#398=EDGE_CURVE('',#551,#550,#338,.T.);
#399=EDGE_CURVE('',#552,#551,#479,.T.);
#400=EDGE_CURVE('',#553,#552,#480,.T.);
#401=EDGE_CURVE('',#554,#553,#481,.T.);
#402=EDGE_CURVE('',#555,#554,#482,.T.);
#403=EDGE_CURVE('',#556,#555,#339,.T.);
#404=EDGE_CURVE('',#557,#556,#340,.T.);
#405=EDGE_CURVE('',#558,#557,#341,.T.);
#406=EDGE_CURVE('',#559,#558,#342,.T.);
#407=EDGE_CURVE('',#560,#559,#343,.T.);
#408=EDGE_CURVE('',#561,#560,#483,.T.);
#409=EDGE_CURVE('',#562,#561,#484,.T.);
#410=EDGE_CURVE('',#563,#562,#344,.T.);
#411=EDGE_CURVE('',#564,#563,#345,.T.);
#412=EDGE_CURVE('',#565,#564,#485,.T.);
#413=EDGE_CURVE('',#566,#565,#486,.T.);
#414=EDGE_CURVE('',#567,#566,#487,.T.);
#415=EDGE_CURVE('',#568,#567,#488,.T.);
#416=EDGE_CURVE('',#569,#568,#346,.T.);
#417=EDGE_CURVE('',#570,#569,#347,.T.);
#418=EDGE_CURVE('',#571,#570,#348,.T.);
#419=EDGE_CURVE('',#572,#571,#349,.T.);
#420=EDGE_CURVE('',#573,#572,#350,.T.);
#421=EDGE_CURVE('',#574,#573,#351,.T.);
#422=EDGE_CURVE('',#575,#574,#352,.T.);
#423=EDGE_CURVE('',#549,#575,#353,.T.);
#424=EDGE_CURVE('',#577,#576,#489,.T.);
#425=EDGE_CURVE('',#578,#577,#354,.T.);
#426=EDGE_CURVE('',#579,#578,#490,.T.);
#427=EDGE_CURVE('',#580,#579,#491,.T.);
#428=EDGE_CURVE('',#581,#580,#492,.T.);
#429=EDGE_CURVE('',#582,#581,#493,.T.);
#430=EDGE_CURVE('',#583,#582,#355,.T.);
#431=EDGE_CURVE('',#584,#583,#356,.T.);
#432=EDGE_CURVE('',#585,#584,#357,.T.);
#433=EDGE_CURVE('',#586,#585,#358,.T.);
#434=EDGE_CURVE('',#587,#586,#359,.T.);
#435=EDGE_CURVE('',#588,#587,#494,.T.);
#436=EDGE_CURVE('',#589,#588,#495,.T.);
#437=EDGE_CURVE('',#590,#589,#360,.T.);
#438=EDGE_CURVE('',#591,#590,#361,.T.);
#439=EDGE_CURVE('',#592,#591,#496,.T.);
#440=EDGE_CURVE('',#593,#592,#497,.T.);
#441=EDGE_CURVE('',#594,#593,#498,.T.);
#442=EDGE_CURVE('',#595,#594,#499,.T.);
#443=EDGE_CURVE('',#596,#595,#362,.T.);
#444=EDGE_CURVE('',#597,#596,#363,.T.);
#445=EDGE_CURVE('',#598,#597,#364,.T.);
#446=EDGE_CURVE('',#599,#598,#365,.T.);
#447=EDGE_CURVE('',#600,#599,#366,.T.);
#448=EDGE_CURVE('',#601,#600,#367,.T.);
#449=EDGE_CURVE('',#602,#601,#368,.T.);
#450=EDGE_CURVE('',#576,#602,#369,.T.);
#451=LINE('',#895,#500);
#452=LINE('',#896,#501);
#453=LINE('',#897,#502);
#454=LINE('',#898,#503);
#455=LINE('',#899,#504);
#456=LINE('',#900,#505);
#457=LINE('',#901,#506);
#458=LINE('',#902,#507);
#459=LINE('',#903,#508);
#460=LINE('',#904,#509);
#461=LINE('',#905,#510);
#462=LINE('',#906,#511);
#463=LINE('',#907,#512);
#464=LINE('',#908,#513);
#465=LINE('',#909,#514);
#466=LINE('',#910,#515);
#467=LINE('',#911,#516);
#468=LINE('',#912,#517);
#469=LINE('',#913,#518);
#470=LINE('',#914,#519);
#471=LINE('',#915,#520);
#472=LINE('',#916,#521);
#473=LINE('',#917,#522);
#474=LINE('',#918,#523);
#475=LINE('',#919,#524);
#476=LINE('',#920,#525);
#477=LINE('',#921,#526);
#478=LINE('',#922,#527);
#479=LINE('',#924,#528);
#480=LINE('',#925,#529);
#481=LINE('',#926,#530);
#482=LINE('',#927,#531);
#483=LINE('',#933,#532);
#484=LINE('',#934,#533);
#485=LINE('',#937,#534);
#486=LINE('',#938,#535);
#487=LINE('',#939,#536);
#488=LINE('',#940,#537);
#489=LINE('',#949,#538);
#490=LINE('',#951,#539);
#491=LINE('',#952,#540);
#492=LINE('',#953,#541);
#493=LINE('',#954,#542);
#494=LINE('',#960,#543);
#495=LINE('',#961,#544);
#496=LINE('',#964,#545);
#497=LINE('',#965,#546);
#498=LINE('',#966,#547);
#499=LINE('',#967,#548);
#500=VECTOR('',#669,1.);
#501=VECTOR('',#670,1.);
#502=VECTOR('',#671,1.);
#503=VECTOR('',#672,1.);
#504=VECTOR('',#673,1.);
#505=VECTOR('',#674,1.);
#506=VECTOR('',#675,1.);
#507=VECTOR('',#676,1.);
#508=VECTOR('',#677,1.);
#509=VECTOR('',#678,1.);
#510=VECTOR('',#679,1.);
#511=VECTOR('',#680,1.);
#512=VECTOR('',#681,1.);
#513=VECTOR('',#682,1.);
#514=VECTOR('',#683,1.);
#515=VECTOR('',#684,1.);
#516=VECTOR('',#685,1.);
#517=VECTOR('',#686,1.);
#518=VECTOR('',#687,1.);
#519=VECTOR('',#688,1.);
#520=VECTOR('',#689,1.);
#521=VECTOR('',#690,1.);
#522=VECTOR('',#691,1.);
#523=VECTOR('',#692,1.);
#524=VECTOR('',#693,1.);
#525=VECTOR('',#694,1.);
#526=VECTOR('',#695,1.);
#527=VECTOR('',#696,1.);
#528=VECTOR('',#699,1.);
#529=VECTOR('',#700,1.);
#530=VECTOR('',#701,1.);
#531=VECTOR('',#702,1.);
#532=VECTOR('',#713,1.);
#533=VECTOR('',#714,1.);
#534=VECTOR('',#719,1.);
#535=VECTOR('',#720,1.);
#536=VECTOR('',#721,1.);
#537=VECTOR('',#722,1.);
#538=VECTOR('',#739,1.);
#539=VECTOR('',#742,1.);
#540=VECTOR('',#743,1.);
#541=VECTOR('',#744,1.);
#542=VECTOR('',#745,1.);
#543=VECTOR('',#756,1.);
#544=VECTOR('',#757,1.);
#545=VECTOR('',#762,1.);
#546=VECTOR('',#763,1.);
#547=VECTOR('',#764,1.);
#548=VECTOR('',#765,1.);
#549=VERTEX_POINT('',#841);
#550=VERTEX_POINT('',#842);
#551=VERTEX_POINT('',#843);
#552=VERTEX_POINT('',#844);
#553=VERTEX_POINT('',#845);
#554=VERTEX_POINT('',#846);
#555=VERTEX_POINT('',#847);
#556=VERTEX_POINT('',#848);
#557=VERTEX_POINT('',#849);
#558=VERTEX_POINT('',#850);
#559=VERTEX_POINT('',#851);
#560=VERTEX_POINT('',#852);
#561=VERTEX_POINT('',#853);
#562=VERTEX_POINT('',#854);
#563=VERTEX_POINT('',#855);
#564=VERTEX_POINT('',#856);
#565=VERTEX_POINT('',#857);
#566=VERTEX_POINT('',#858);
#567=VERTEX_POINT('',#859);
#568=VERTEX_POINT('',#860);
#569=VERTEX_POINT('',#861);
#570=VERTEX_POINT('',#862);
#571=VERTEX_POINT('',#863);
#572=VERTEX_POINT('',#864);
#573=VERTEX_POINT('',#865);
#574=VERTEX_POINT('',#866);
#575=VERTEX_POINT('',#867);
#576=VERTEX_POINT('',#868);
#577=VERTEX_POINT('',#869);
#578=VERTEX_POINT('',#870);
#579=VERTEX_POINT('',#871);
#580=VERTEX_POINT('',#872);
#581=VERTEX_POINT('',#873);
#582=VERTEX_POINT('',#874);
#583=VERTEX_POINT('',#875);
#584=VERTEX_POINT('',#876);
#585=VERTEX_POINT('',#877);
#586=VERTEX_POINT('',#878);
#587=VERTEX_POINT('',#879);
#588=VERTEX_POINT('',#880);
#589=VERTEX_POINT('',#881);
#590=VERTEX_POINT('',#882);
#591=VERTEX_POINT('',#883);
#592=VERTEX_POINT('',#884);
#593=VERTEX_POINT('',#885);
#594=VERTEX_POINT('',#886);
#595=VERTEX_POINT('',#887);
#596=VERTEX_POINT('',#888);
#597=VERTEX_POINT('',#889);
#598=VERTEX_POINT('',#890);
#599=VERTEX_POINT('',#891);
#600=VERTEX_POINT('',#892);
#601=VERTEX_POINT('',#893);
#602=VERTEX_POINT('',#894);
#603=SHAPE_DEFINITION_REPRESENTATION(#1005,#604);
#604=SHAPE_REPRESENTATION('master',(#605),#1007);
#605=AXIS2_PLACEMENT_3D('',#840,#668,#667);
#606=AXIS2_PLACEMENT_3D('',#923,#698,#697);
#607=AXIS2_PLACEMENT_3D('',#928,#704,#703);
#608=AXIS2_PLACEMENT_3D('',#929,#706,#705);
#609=AXIS2_PLACEMENT_3D('',#930,#708,#707);
#610=AXIS2_PLACEMENT_3D('',#931,#710,#709);
#611=AXIS2_PLACEMENT_3D('',#932,#712,#711);
#612=AXIS2_PLACEMENT_3D('',#935,#716,#715);
#613=AXIS2_PLACEMENT_3D('',#936,#718,#717);
#614=AXIS2_PLACEMENT_3D('',#941,#724,#723);
#615=AXIS2_PLACEMENT_3D('',#942,#726,#725);
#616=AXIS2_PLACEMENT_3D('',#943,#728,#727);
#617=AXIS2_PLACEMENT_3D('',#944,#730,#729);
#618=AXIS2_PLACEMENT_3D('',#945,#732,#731);
#619=AXIS2_PLACEMENT_3D('',#946,#734,#733);
#620=AXIS2_PLACEMENT_3D('',#947,#736,#735);
#621=AXIS2_PLACEMENT_3D('',#948,#738,#737);
#622=AXIS2_PLACEMENT_3D('',#950,#741,#740);
#623=AXIS2_PLACEMENT_3D('',#955,#747,#746);
#624=AXIS2_PLACEMENT_3D('',#956,#749,#748);
#625=AXIS2_PLACEMENT_3D('',#957,#751,#750);
#626=AXIS2_PLACEMENT_3D('',#958,#753,#752);
#627=AXIS2_PLACEMENT_3D('',#959,#755,#754);
#628=AXIS2_PLACEMENT_3D('',#962,#759,#758);
#629=AXIS2_PLACEMENT_3D('',#963,#761,#760);
#630=AXIS2_PLACEMENT_3D('',#968,#767,#766);
#631=AXIS2_PLACEMENT_3D('',#969,#769,#768);
#632=AXIS2_PLACEMENT_3D('',#970,#771,#770);
#633=AXIS2_PLACEMENT_3D('',#971,#773,#772);
#634=AXIS2_PLACEMENT_3D('',#972,#775,#774);
#635=AXIS2_PLACEMENT_3D('',#973,#777,#776);
#636=AXIS2_PLACEMENT_3D('',#974,#779,#778);
#637=AXIS2_PLACEMENT_3D('',#975,#781,#780);
#638=AXIS2_PLACEMENT_3D('',#976,#783,#782);
#639=AXIS2_PLACEMENT_3D('',#977,#785,#784);
#640=AXIS2_PLACEMENT_3D('',#978,#787,#786);
#641=AXIS2_PLACEMENT_3D('',#979,#789,#788);
#642=AXIS2_PLACEMENT_3D('',#980,#791,#790);
#643=AXIS2_PLACEMENT_3D('',#981,#793,#792);
#644=AXIS2_PLACEMENT_3D('',#982,#795,#794);
#645=AXIS2_PLACEMENT_3D('',#983,#797,#796);
#646=AXIS2_PLACEMENT_3D('',#984,#799,#798);
#647=AXIS2_PLACEMENT_3D('',#985,#801,#800);
#648=AXIS2_PLACEMENT_3D('',#986,#803,#802);
#649=AXIS2_PLACEMENT_3D('',#987,#805,#804);
#650=AXIS2_PLACEMENT_3D('',#988,#807,#806);
#651=AXIS2_PLACEMENT_3D('',#989,#809,#808);
#652=AXIS2_PLACEMENT_3D('',#990,#811,#810);
#653=AXIS2_PLACEMENT_3D('',#991,#813,#812);
#654=AXIS2_PLACEMENT_3D('',#992,#815,#814);
#655=AXIS2_PLACEMENT_3D('',#993,#817,#816);
#656=AXIS2_PLACEMENT_3D('',#994,#819,#818);
#657=AXIS2_PLACEMENT_3D('',#995,#821,#820);
#658=AXIS2_PLACEMENT_3D('',#996,#823,#822);
#659=AXIS2_PLACEMENT_3D('',#997,#825,#824);
#660=AXIS2_PLACEMENT_3D('',#998,#827,#826);
#661=AXIS2_PLACEMENT_3D('',#999,#829,#828);
#662=AXIS2_PLACEMENT_3D('',#1000,#831,#830);
#663=AXIS2_PLACEMENT_3D('',#1001,#833,#832);
#664=AXIS2_PLACEMENT_3D('',#1002,#835,#834);
#665=AXIS2_PLACEMENT_3D('',#1003,#837,#836);
#666=AXIS2_PLACEMENT_3D('',#1004,#839,#838);
#667=DIRECTION('',(1.,0.,0.));
#668=DIRECTION('',(0.,0.,1.));
#669=DIRECTION('',(-0.,-1.,-6.12323399573677E-017));
#670=DIRECTION('',(-0.,-1.,-6.12323399573677E-017));
#671=DIRECTION('',(-0.,-1.,-6.12323399573677E-017));
#672=DIRECTION('',(-0.,-1.,-6.12323399573677E-017));
#673=DIRECTION('',(-0.,-1.,-6.12323399573677E-017));
#674=DIRECTION('',(-0.,-1.,-6.12323399573677E-017));
#675=DIRECTION('',(-0.,-1.,-6.12323399573677E-017));
#676=DIRECTION('',(-0.,-1.,-6.12323399573677E-017));
#677=DIRECTION('',(-0.,-1.,-6.12323399573677E-017));
#678=DIRECTION('',(-0.,-1.,-6.12323399573677E-017));
#679=DIRECTION('',(-0.,-1.,-6.12323399573677E-017));
#680=DIRECTION('',(-0.,-1.,-6.12323399573677E-017));
#681=DIRECTION('',(-0.,-1.,-6.12323399573677E-017));
#682=DIRECTION('',(-0.,-1.,-6.12323399573677E-017));
#683=DIRECTION('',(-0.,-1.,-6.12323399573677E-017));
#684=DIRECTION('',(-0.,-1.,-6.12323399573677E-017));
#685=DIRECTION('',(-0.,-1.,-6.12323399573677E-017));
#686=DIRECTION('',(-0.,-1.,-6.12323399573677E-017));
#687=DIRECTION('',(-0.,-1.,-6.12323399573677E-017));
#688=DIRECTION('',(-0.,-1.,-6.12323399573677E-017));
#689=DIRECTION('',(-0.,-1.,-6.12323399573677E-017));
#690=DIRECTION('',(-0.,-1.,-6.12323399573677E-017));
#691=DIRECTION('',(-0.,-1.,-6.12323399573677E-017));
#692=DIRECTION('',(-0.,-1.,-6.12323399573677E-017));
#693=DIRECTION('',(-0.,-1.,-6.12323399573677E-017));
#694=DIRECTION('',(-0.,-1.,-6.12323399573677E-017));
#695=DIRECTION('',(-0.,-1.,-6.12323399573677E-017));
#696=DIRECTION('',(-0.868770428372068,0.,-0.495215047011108));
#697=DIRECTION('',(0.978304160382052,0.,-0.207173767111497));
#698=DIRECTION('',(0.,1.,0.));
#699=DIRECTION('',(-0.999890744064415,0.,-0.0147817432771341));
#700=DIRECTION('',(0.115278320157526,0.,0.993333231550047));
#701=DIRECTION('',(0.997819302078607,0.,0.0660048513320209));
#702=DIRECTION('',(0.202338508046186,0.,0.979315642763682));
#703=DIRECTION('',(-0.266298236818124,0.,0.963890683152171));
#704=DIRECTION('',(0.,1.,0.));
#705=DIRECTION('',(-0.803751930715788,0.,0.594964565222705));
#706=DIRECTION('',(0.,1.,0.));
#707=DIRECTION('',(-0.894899318588308,0.,0.446268091611066));
#708=DIRECTION('',(0.,1.,0.));
#709=DIRECTION('',(0.727546542899479,0.,-0.68605832690451));
#710=DIRECTION('',(0.,-1.,0.));
#711=DIRECTION('',(-0.0269202088315177,0.,-0.999637585506101));
#712=DIRECTION('',(0.,-1.,-0.));
#713=DIRECTION('',(0.159096951461179,0.,0.987262963974523));
#714=DIRECTION('',(0.991466536542088,0.,0.130361447204444));
#715=DIRECTION('',(-0.993351157191987,0.,0.115123753002329));
#716=DIRECTION('',(0.,1.,0.));
#717=DIRECTION('',(-0.999090746973731,0.,0.0426342504504562));
#718=DIRECTION('',(0.,1.,0.));
#719=DIRECTION('',(0.999890744064415,0.,0.0147817432771116));
#720=DIRECTION('',(0.0970199338701104,0.,0.995282438522774));
#721=DIRECTION('',(0.999890744064414,0.,0.0147817432771672));
#722=DIRECTION('',(0.0147817432771368,0.,-0.999890744064415));
#723=DIRECTION('',(0.759256562940051,0.,-0.650791419452086));
#724=DIRECTION('',(0.,1.,0.));
#725=DIRECTION('',(0.698740254622125,0.,-0.71537546545196));
#726=DIRECTION('',(0.,1.,0.));
#727=DIRECTION('',(-0.21385616258424,0.,0.976865160462151));
#728=DIRECTION('',(0.,-1.,0.));
#729=DIRECTION('',(0.545098906709014,0.,-0.838371744457456));
#730=DIRECTION('',(0.,1.,0.));
#731=DIRECTION('',(0.862429728035246,0.,-0.506176811204398));
#732=DIRECTION('',(0.,1.,0.));
#733=DIRECTION('',(0.939368459288412,0.,-0.342909459907591));
#734=DIRECTION('',(0.,1.,0.));
#735=DIRECTION('',(-0.542790052732808,0.,0.839868417464495));
#736=DIRECTION('',(0.,-1.,0.));
#737=DIRECTION('',(-0.277656605951343,0.,0.960680388668146));
#738=DIRECTION('',(0.,-1.,0.));
#739=DIRECTION('',(-0.868770428372068,0.,-0.495215047011108));
#740=DIRECTION('',(0.978304160382052,0.,-0.207173767111497));
#741=DIRECTION('',(0.,1.,0.));
#742=DIRECTION('',(-0.999890744064415,0.,-0.0147817432771341));
#743=DIRECTION('',(0.115278320157526,0.,0.993333231550047));
#744=DIRECTION('',(0.997819302078607,0.,0.0660048513320209));
#745=DIRECTION('',(0.202338508046186,0.,0.979315642763682));
#746=DIRECTION('',(-0.266298236818124,0.,0.963890683152171));
#747=DIRECTION('',(0.,1.,0.));
#748=DIRECTION('',(-0.803751930715788,0.,0.594964565222705));
#749=DIRECTION('',(0.,1.,0.));
#750=DIRECTION('',(-0.894899318588308,0.,0.446268091611066));
#751=DIRECTION('',(0.,1.,0.));
#752=DIRECTION('',(0.727546542899479,0.,-0.68605832690451));
#753=DIRECTION('',(0.,-1.,0.));
#754=DIRECTION('',(-0.0269202088315177,0.,-0.999637585506101));
#755=DIRECTION('',(0.,-1.,-0.));
#756=DIRECTION('',(0.159096951461179,0.,0.987262963974523));
#757=DIRECTION('',(0.991466536542088,0.,0.130361447204444));
#758=DIRECTION('',(-0.993351157191987,0.,0.115123753002329));
#759=DIRECTION('',(0.,1.,0.));
#760=DIRECTION('',(-0.999090746973731,0.,0.0426342504504562));
#761=DIRECTION('',(0.,1.,0.));
#762=DIRECTION('',(0.999890744064415,0.,0.0147817432771116));
#763=DIRECTION('',(0.0970199338701104,0.,0.995282438522774));
#764=DIRECTION('',(0.999890744064414,0.,0.0147817432771672));
#765=DIRECTION('',(0.0147817432771368,0.,-0.999890744064415));
#766=DIRECTION('',(0.759256562940051,0.,-0.650791419452086));
#767=DIRECTION('',(0.,1.,0.));
#768=DIRECTION('',(0.698740254622125,0.,-0.71537546545196));
#769=DIRECTION('',(0.,1.,0.));
#770=DIRECTION('',(-0.21385616258424,0.,0.976865160462151));
#771=DIRECTION('',(0.,-1.,0.));
#772=DIRECTION('',(0.545098906709014,0.,-0.838371744457456));
#773=DIRECTION('',(0.,1.,0.));
#774=DIRECTION('',(0.862429728035246,0.,-0.506176811204398));
#775=DIRECTION('',(0.,1.,0.));
#776=DIRECTION('',(0.939368459288412,0.,-0.342909459907591));
#777=DIRECTION('',(0.,1.,0.));
#778=DIRECTION('',(-0.542790052732808,0.,0.839868417464495));
#779=DIRECTION('',(0.,-1.,0.));
#780=DIRECTION('',(-0.277656605951343,0.,0.960680388668146));
#781=DIRECTION('',(0.,-1.,0.));
#782=DIRECTION('',(0.,6.12323399573677E-017,-1.));
#783=DIRECTION('',(-0.,-1.,-6.12323399573677E-017));
#784=DIRECTION('',(0.,6.12323399573677E-017,-1.));
#785=DIRECTION('',(-0.,-1.,-6.12323399573677E-017));
#786=DIRECTION('',(0.,6.12323399573677E-017,-1.));
#787=DIRECTION('',(-0.,-1.,-6.12323399573677E-017));
#788=DIRECTION('',(0.,6.12323399573677E-017,-1.));
#789=DIRECTION('',(-0.,-1.,-6.12323399573677E-017));
#790=DIRECTION('',(0.,6.12323399573677E-017,-1.));
#791=DIRECTION('',(-0.,-1.,-6.12323399573677E-017));
#792=DIRECTION('',(0.,6.12323399573677E-017,-1.));
#793=DIRECTION('',(-0.,-1.,-6.12323399573677E-017));
#794=DIRECTION('',(0.,6.12323399573677E-017,-1.));
#795=DIRECTION('',(-0.,-1.,-6.12323399573677E-017));
#796=DIRECTION('',(0.,6.12323399573677E-017,-1.));
#797=DIRECTION('',(-0.,-1.,-6.12323399573677E-017));
#798=DIRECTION('',(-0.0147817432771368,1.50463276905253E-036,0.999890744064415
));
#799=DIRECTION('',(-0.999890744064415,9.05120729508175E-019,
-0.0147817432771368));
#800=DIRECTION('',(-0.999890744064414,1.92592994438724E-034,
-0.0147817432771672));
#801=DIRECTION('',(0.0147817432771672,6.12256499607775E-017,-0.999890744064414
));
#802=DIRECTION('',(-0.0970199338701104,9.62964972193618E-035,
-0.995282438522774));
#803=DIRECTION('',(0.995282438522774,5.94075757337593E-018,-0.0970199338701104
));
#804=DIRECTION('',(-0.999890744064415,0.,-0.0147817432771116));
#805=DIRECTION('',(0.0147817432771116,6.12256499607776E-017,-0.999890744064415
));
#806=DIRECTION('',(0.,6.12323399573677E-017,-1.));
#807=DIRECTION('',(-0.,-1.,-6.12323399573677E-017));
#808=DIRECTION('',(0.,6.12323399573677E-017,-1.));
#809=DIRECTION('',(-0.,-1.,-6.12323399573677E-017));
#810=DIRECTION('',(-0.991466536542088,0.,-0.130361447204444));
#811=DIRECTION('',(0.130361447204444,6.0709816021899E-017,-0.991466536542088)
);
#812=DIRECTION('',(-0.159096951461179,-1.92592994438724E-034,
-0.987262963974523));
#813=DIRECTION('',(0.987262963974523,9.74187861805172E-018,-0.159096951461179)
);
#814=DIRECTION('',(0.,6.12323399573677E-017,-1.));
#815=DIRECTION('',(-0.,-1.,-6.12323399573677E-017));
#816=DIRECTION('',(0.,6.12323399573677E-017,-1.));
#817=DIRECTION('',(-0.,-1.,-6.12323399573677E-017));
#818=DIRECTION('',(0.,6.12323399573677E-017,-1.));
#819=DIRECTION('',(-0.,-1.,-6.12323399573677E-017));
#820=DIRECTION('',(0.,6.12323399573677E-017,-1.));
#821=DIRECTION('',(-0.,-1.,-6.12323399573677E-017));
#822=DIRECTION('',(0.,6.12323399573677E-017,-1.));
#823=DIRECTION('',(-0.,-1.,-6.12323399573677E-017));
#824=DIRECTION('',(-0.202338508046186,0.,-0.979315642763682));
#825=DIRECTION('',(0.979315642763682,1.23896603111506E-017,-0.202338508046186)
);
#826=DIRECTION('',(-0.997819302078607,0.,-0.0660048513320209));
#827=DIRECTION('',(0.0660048513320209,6.10988107209006E-017,-0.997819302078607
));
#828=DIRECTION('',(-0.115278320157526,-9.62964972193618E-035,
-0.993333231550047));
#829=DIRECTION('',(0.993333231550047,7.05876128959988E-018,-0.115278320157526)
);
#830=DIRECTION('',(0.999890744064415,-1.92592994438724E-034,0.0147817432771341
));
#831=DIRECTION('',(-0.0147817432771341,-6.12256499607775E-017,
0.999890744064415));
#832=DIRECTION('',(0.,6.12323399573677E-017,-1.));
#833=DIRECTION('',(-0.,-1.,-6.12323399573677E-017));
#834=DIRECTION('',(0.868770428372068,0.,0.495215047011108));
#835=DIRECTION('',(-0.495215047011108,-5.31968462149864E-017,0.868770428372068
));
#836=DIRECTION('',(0.,0.,-1.));
#837=DIRECTION('',(0.,-1.,0.));
#838=DIRECTION('',(0.,0.,-1.));
#839=DIRECTION('',(0.,-1.,0.));
#840=CARTESIAN_POINT('',(0.,0.,0.));
#841=CARTESIAN_POINT('',(206.148234288948,2168.281361,2237.47254495322));
#842=CARTESIAN_POINT('',(215.926855849966,2168.281361,2243.04653824063));
#843=CARTESIAN_POINT('',(220.777182978591,2168.281361,2249.0876274227));
#844=CARTESIAN_POINT('',(248.671560212678,2168.281361,2249.5));
#845=CARTESIAN_POINT('',(247.102983073118,2168.281361,2235.98384365035));
#846=CARTESIAN_POINT('',(229.878019046162,2168.281361,2234.84442773864));
#847=CARTESIAN_POINT('',(228.64028684565,2168.281361,2228.85382062575));
#848=CARTESIAN_POINT('',(208.455933240115,2168.281361,2226.64150463723));
#849=CARTESIAN_POINT('',(191.887335553368,2168.281361,2213.52713541906));
#850=CARTESIAN_POINT('',(182.729584620501,2168.281361,2197.63032063801));
#851=CARTESIAN_POINT('',(169.002143432399,2168.281361,2178.05093912611));
#852=CARTESIAN_POINT('',(145.519915180645,2168.281361,2169.45045247176));
#853=CARTESIAN_POINT('',(144.305068010063,2168.281361,2161.91181890657));
#854=CARTESIAN_POINT('',(136.551183700763,2168.281361,2160.89231139648));
#855=CARTESIAN_POINT('',(123.746157901794,2168.281361,2146.16029681751));
#856=CARTESIAN_POINT('',(123.069905900819,2168.281361,2140.32522203751));
#857=CARTESIAN_POINT('',(115.889414649403,2168.281361,2140.21907026152));
#858=CARTESIAN_POINT('',(114.161953570237,2168.281361,2122.49784940779));
#859=CARTESIAN_POINT('',(103.080454,2168.281361,2122.33402762752));
#860=CARTESIAN_POINT('',(102.524021103038,2168.281361,2159.97316754041));
#861=CARTESIAN_POINT('',(126.344768894352,2168.281361,2170.09706995874));
#862=CARTESIAN_POINT('',(133.803136648294,2168.281361,2176.98450980913));
#863=CARTESIAN_POINT('',(142.25989930199,2168.281361,2180.26170817131));
#864=CARTESIAN_POINT('',(154.952031887589,2168.281361,2184.70477111374));
#865=CARTESIAN_POINT('',(165.494563867977,2168.281361,2196.05085904271));
#866=CARTESIAN_POINT('',(173.443040737027,2168.281361,2212.40208137754));
#867=CARTESIAN_POINT('',(187.217888835277,2168.281361,2228.83942124012));
#868=CARTESIAN_POINT('',(206.148234288948,168.281361,2237.47254495322));
#869=CARTESIAN_POINT('',(215.926855849966,168.281361,2243.04653824063));
#870=CARTESIAN_POINT('',(220.777182978591,168.281361,2249.0876274227));
#871=CARTESIAN_POINT('',(248.671560212678,168.281361,2249.5));
#872=CARTESIAN_POINT('',(247.102983073118,168.281361,2235.98384365035));
#873=CARTESIAN_POINT('',(229.878019046162,168.281361,2234.84442773864));
#874=CARTESIAN_POINT('',(228.64028684565,168.281361,2228.85382062575));
#875=CARTESIAN_POINT('',(208.455933240115,168.281361,2226.64150463723));
#876=CARTESIAN_POINT('',(191.887335553368,168.281361,2213.52713541906));
#877=CARTESIAN_POINT('',(182.729584620501,168.281361,2197.63032063801));
#878=CARTESIAN_POINT('',(169.002143432399,168.281361,2178.05093912611));
#879=CARTESIAN_POINT('',(145.519915180645,168.281361,2169.45045247176));
#880=CARTESIAN_POINT('',(144.305068010063,168.281361,2161.91181890657));
#881=CARTESIAN_POINT('',(136.551183700763,168.281361,2160.89231139648));
#882=CARTESIAN_POINT('',(123.746157901794,168.281361,2146.16029681751));
#883=CARTESIAN_POINT('',(123.069905900819,168.281361,2140.32522203751));
#884=CARTESIAN_POINT('',(115.889414649403,168.281361,2140.21907026152));
#885=CARTESIAN_POINT('',(114.161953570237,168.281361,2122.49784940779));
#886=CARTESIAN_POINT('',(103.080454,168.281361,2122.33402762752));
#887=CARTESIAN_POINT('',(102.524021103038,168.281361,2159.97316754041));
#888=CARTESIAN_POINT('',(126.344768894352,168.281361,2170.09706995874));
#889=CARTESIAN_POINT('',(133.803136648294,168.281361,2176.98450980913));
#890=CARTESIAN_POINT('',(142.25989930199,168.281361,2180.26170817131));
#891=CARTESIAN_POINT('',(154.952031887589,168.281361,2184.70477111374));
#892=CARTESIAN_POINT('',(165.494563867977,168.281361,2196.05085904271));
#893=CARTESIAN_POINT('',(173.443040737027,168.281361,2212.40208137754));
#894=CARTESIAN_POINT('',(187.217888835277,168.281361,2228.83942124012));
#895=CARTESIAN_POINT('',(187.217888835277,2168.281361,2228.83942124012));
#896=CARTESIAN_POINT('',(173.443040737027,2168.281361,2212.40208137754));
#897=CARTESIAN_POINT('',(165.494563867977,2168.281361,2196.05085904271));
#898=CARTESIAN_POINT('',(154.952031887589,2168.281361,2184.70477111374));
#899=CARTESIAN_POINT('',(142.25989930199,2168.281361,2180.26170817131));
#900=CARTESIAN_POINT('',(133.803136648294,2168.281361,2176.98450980913));
#901=CARTESIAN_POINT('',(126.344768894352,2168.281361,2170.09706995874));
#902=CARTESIAN_POINT('',(102.524021103038,2168.281361,2159.97316754041));
#903=CARTESIAN_POINT('',(103.080454,2168.281361,2122.33402762752));
#904=CARTESIAN_POINT('',(114.161953570237,2168.281361,2122.49784940779));
#905=CARTESIAN_POINT('',(115.889414649403,2168.281361,2140.21907026152));
#906=CARTESIAN_POINT('',(123.069905900819,2168.281361,2140.32522203751));
#907=CARTESIAN_POINT('',(123.746157901794,2168.281361,2146.16029681751));
#908=CARTESIAN_POINT('',(136.551183700763,2168.281361,2160.89231139648));
#909=CARTESIAN_POINT('',(144.305068010063,2168.281361,2161.91181890657));
#910=CARTESIAN_POINT('',(145.519915180645,2168.281361,2169.45045247176));
#911=CARTESIAN_POINT('',(169.002143432399,2168.281361,2178.05093912611));
#912=CARTESIAN_POINT('',(182.729584620501,2168.281361,2197.63032063801));
#913=CARTESIAN_POINT('',(191.887335553368,2168.281361,2213.52713541906));
#914=CARTESIAN_POINT('',(208.455933240115,2168.281361,2226.64150463723));
#915=CARTESIAN_POINT('',(228.64028684565,2168.281361,2228.85382062575));
#916=CARTESIAN_POINT('',(229.878019046162,2168.281361,2234.84442773864));
#917=CARTESIAN_POINT('',(247.102983073118,2168.281361,2235.98384365035));
#918=CARTESIAN_POINT('',(248.671560212678,2168.281361,2249.5));
#919=CARTESIAN_POINT('',(220.777182978591,2168.281361,2249.0876274227));
#920=CARTESIAN_POINT('',(215.926855849966,2168.281361,2243.04653824063));
#921=CARTESIAN_POINT('',(206.148234288948,2168.281361,2237.47254495322));
#922=CARTESIAN_POINT('',(215.926855849966,2168.281361,2243.04653824063));
#923=CARTESIAN_POINT('',(212.373352193643,2168.281361,2250.86729202231));
#924=CARTESIAN_POINT('',(248.671560212678,2168.281361,2249.5));
#925=CARTESIAN_POINT('',(247.102983073118,2168.281361,2235.98384365035));
#926=CARTESIAN_POINT('',(229.878019046162,2168.281361,2234.84442773864));
#927=CARTESIAN_POINT('',(228.64028684565,2168.281361,2228.85382062575));
#928=CARTESIAN_POINT('',(225.38594418942,2168.281361,2165.36179052916));
#929=CARTESIAN_POINT('',(224.427195565413,2168.281361,2189.44002231286));
#930=CARTESIAN_POINT('',(319.510931864764,2168.281361,2129.42024433694));
#931=CARTESIAN_POINT('',(108.628018428964,2168.281361,2234.98224007506));
#932=CARTESIAN_POINT('',(146.431959308766,2168.281361,2203.31770795319));
#933=CARTESIAN_POINT('',(144.305068010063,2168.281361,2161.91181890657));
#934=CARTESIAN_POINT('',(136.551183700763,2168.281361,2160.89231139648));
#935=CARTESIAN_POINT('',(140.911967124134,2168.281361,2144.17087709751));
#936=CARTESIAN_POINT('',(163.450583152432,2168.281361,2138.60205533567));
#937=CARTESIAN_POINT('',(115.889414649403,2168.281361,2140.21907026152));
#938=CARTESIAN_POINT('',(114.161953570237,2168.281361,2122.49784940779));
#939=CARTESIAN_POINT('',(103.080454,2168.281361,2122.33402762752));
#940=CARTESIAN_POINT('',(102.524021103038,2168.281361,2159.97316754041));
#941=CARTESIAN_POINT('',(104.225100068086,2168.281361,2189.05678842006));
#942=CARTESIAN_POINT('',(7.17499280709117,2168.281361,2306.6273445256));
#943=CARTESIAN_POINT('',(148.574698460249,2168.281361,2151.41658526965));
#944=CARTESIAN_POINT('',(139.519136819026,2168.281361,2208.44083625975));
#945=CARTESIAN_POINT('',(134.608565886625,2168.281361,2214.17845304934));
#946=CARTESIAN_POINT('',(89.9556514055149,2168.281361,2242.8785310621));
#947=CARTESIAN_POINT('',(206.942362659124,2168.281361,2198.31940243663));
#948=CARTESIAN_POINT('',(225.933084501677,2168.281361,2169.01778038178));
#949=CARTESIAN_POINT('',(215.926855849966,168.281361,2243.04653824063));
#950=CARTESIAN_POINT('',(212.373352193643,168.281361,2250.86729202231));
#951=CARTESIAN_POINT('',(248.671560212678,168.281361,2249.5));
#952=CARTESIAN_POINT('',(247.102983073118,168.281361,2235.98384365035));
#953=CARTESIAN_POINT('',(229.878019046162,168.281361,2234.84442773864));
#954=CARTESIAN_POINT('',(228.64028684565,168.281361,2228.85382062575));
#955=CARTESIAN_POINT('',(225.38594418942,168.281361,2165.36179052916));
#956=CARTESIAN_POINT('',(224.427195565413,168.281361,2189.44002231286));
#957=CARTESIAN_POINT('',(319.510931864764,168.281361,2129.42024433694));
#958=CARTESIAN_POINT('',(108.628018428964,168.281361,2234.98224007506));
#959=CARTESIAN_POINT('',(146.431959308766,168.281361,2203.31770795319));
#960=CARTESIAN_POINT('',(144.305068010063,168.281361,2161.91181890657));
#961=CARTESIAN_POINT('',(136.551183700763,168.281361,2160.89231139648));
#962=CARTESIAN_POINT('',(140.911967124134,168.281361,2144.17087709751));
#963=CARTESIAN_POINT('',(163.450583152432,168.281361,2138.60205533567));
#964=CARTESIAN_POINT('',(115.889414649403,168.281361,2140.21907026152));
#965=CARTESIAN_POINT('',(114.161953570237,168.281361,2122.49784940779));
#966=CARTESIAN_POINT('',(103.080454,168.281361,2122.33402762752));
#967=CARTESIAN_POINT('',(102.524021103038,168.281361,2159.97316754041));
#968=CARTESIAN_POINT('',(104.225100068086,168.281361,2189.05678842006));
#969=CARTESIAN_POINT('',(7.17499280709117,168.281361,2306.6273445256));
#970=CARTESIAN_POINT('',(148.574698460249,168.281361,2151.41658526965));
#971=CARTESIAN_POINT('',(139.519136819026,168.281361,2208.44083625975));
#972=CARTESIAN_POINT('',(134.608565886625,168.281361,2214.17845304934));
#973=CARTESIAN_POINT('',(89.9556514055149,168.281361,2242.8785310621));
#974=CARTESIAN_POINT('',(206.942362659124,168.281361,2198.31940243663));
#975=CARTESIAN_POINT('',(225.933084501677,168.281361,2169.01778038178));
#976=CARTESIAN_POINT('',(225.933084501677,2168.281361,2169.01778038178));
#977=CARTESIAN_POINT('',(206.942362659124,2168.281361,2198.31940243663));
#978=CARTESIAN_POINT('',(89.9556514055149,2168.281361,2242.8785310621));
#979=CARTESIAN_POINT('',(134.608565886625,2168.281361,2214.17845304934));
#980=CARTESIAN_POINT('',(139.519136819026,2168.281361,2208.44083625975));
#981=CARTESIAN_POINT('',(148.574698460249,2168.281361,2151.41658526965));
#982=CARTESIAN_POINT('',(7.17499280709117,2168.281361,2306.6273445256));
#983=CARTESIAN_POINT('',(104.225100068086,2168.281361,2189.05678842006));
#984=CARTESIAN_POINT('',(102.524021103038,2168.281361,2159.97316754041));
#985=CARTESIAN_POINT('',(103.080454,2168.281361,2122.33402762752));
#986=CARTESIAN_POINT('',(114.161953570237,2168.281361,2122.49784940779));
#987=CARTESIAN_POINT('',(115.889414649403,2168.281361,2140.21907026152));
#988=CARTESIAN_POINT('',(163.450583152432,2168.281361,2138.60205533567));
#989=CARTESIAN_POINT('',(140.911967124134,2168.281361,2144.17087709751));
#990=CARTESIAN_POINT('',(136.551183700763,2168.281361,2160.89231139648));
#991=CARTESIAN_POINT('',(144.305068010063,2168.281361,2161.91181890657));
#992=CARTESIAN_POINT('',(146.431959308766,2168.281361,2203.31770795319));
#993=CARTESIAN_POINT('',(108.628018428964,2168.281361,2234.98224007506));
#994=CARTESIAN_POINT('',(319.510931864764,2168.281361,2129.42024433694));
#995=CARTESIAN_POINT('',(224.427195565413,2168.281361,2189.44002231286));
#996=CARTESIAN_POINT('',(225.38594418942,2168.281361,2165.36179052916));
#997=CARTESIAN_POINT('',(228.64028684565,2168.281361,2228.85382062575));
#998=CARTESIAN_POINT('',(229.878019046162,2168.281361,2234.84442773864));
#999=CARTESIAN_POINT('',(247.102983073118,2168.281361,2235.98384365035));
#1000=CARTESIAN_POINT('',(248.671560212678,2168.281361,2249.5));
#1001=CARTESIAN_POINT('',(212.373352193643,2168.281361,2250.86729202231));
#1002=CARTESIAN_POINT('',(215.926855849966,2168.281361,2243.04653824063));
#1003=CARTESIAN_POINT('',(225.933084501677,2168.281361,2169.01778038178));
#1004=CARTESIAN_POINT('',(225.933084501677,168.281361,2169.01778038178));
#1005=PRODUCT_DEFINITION_SHAPE('','',#1006);
#1006=PRODUCT_DEFINITION('','',#1018,#1023);
#1007=(
GEOMETRIC_REPRESENTATION_CONTEXT(3)
GLOBAL_UNCERTAINTY_ASSIGNED_CONTEXT((#1008))
GLOBAL_UNIT_ASSIGNED_CONTEXT((#1010,#1009,#1013))
REPRESENTATION_CONTEXT('','')
);
#1008=UNCERTAINTY_MEASURE_WITH_UNIT(LENGTH_MEASURE(0.001),#1010,'','tolerance'
);
#1009=(
CONVERSION_BASED_UNIT('',#1011)
NAMED_UNIT(#1017)
PLANE_ANGLE_UNIT()
);
#1010=(
CONVERSION_BASED_UNIT('',#1012)
LENGTH_UNIT()
NAMED_UNIT(#1016)
);
#1011=PLANE_ANGLE_MEASURE_WITH_UNIT(PLANE_ANGLE_MEASURE(0.0174532925199433),
#1014);
#1012=LENGTH_MEASURE_WITH_UNIT(LENGTH_MEASURE(1.),#1015);
#1013=(
NAMED_UNIT(*)
SI_UNIT($,.STERADIAN.)
SOLID_ANGLE_UNIT()
);
#1014=(
NAMED_UNIT(*)
PLANE_ANGLE_UNIT()
SI_UNIT($,.RADIAN.)
);
#1015=(
LENGTH_UNIT()
NAMED_UNIT(*)
SI_UNIT(.MILLI.,.METRE.)
);
#1016=DIMENSIONAL_EXPONENTS(1.,0.,0.,0.,0.,0.,0.);
#1017=DIMENSIONAL_EXPONENTS(0.,0.,0.,0.,0.,0.,0.);
#1018=PRODUCT_DEFINITION_FORMATION_WITH_SPECIFIED_SOURCE('','',#1021,
.NOT_KNOWN.);
#1019=PRODUCT_CATEGORY_RELATIONSHIP('','',#1024,#1020);
#1020=PRODUCT_RELATED_PRODUCT_CATEGORY('assembly','',(#1021));
#1021=PRODUCT('','master','',(#1022));
#1022=PRODUCT_CONTEXT('',#1026,'');
#1023=PRODUCT_DEFINITION_CONTEXT('',#1026,'part_definition');
#1024=PRODUCT_CATEGORY('part','');
#1025=APPLICATION_PROTOCOL_DEFINITION('international standard',
'automotive_design_cc2',1994,#1026);
#1026=APPLICATION_CONTEXT(
'configuration controlled 3D designs of mechanical parts and assemblies');
ENDSEC;
END-ISO-10303-21;
48536