ISO-10303-21;
HEADER;
/* Generated by software using Delcam plc STEP library */

FILE_DESCRIPTION(
/* description */ ('AP-214 File'),
/* implementation_level */ '2;1');

FILE_NAME(
/* name */ 'D609',
/* time_stamp */ 'Sat Dec 24 09:29:34 2016',
/* author */ (''),
/* organization */ (''),
/* preprocessor_version */ 'DELCAM STEP V1',
/* originating_system */ 'Exchange7.1.0006',
/* authorisation */ '');

FILE_SCHEMA (('AUTOMOTIVE_DESIGN'));
ENDSEC;
DATA;
#10=PRESENTATION_STYLE_ASSIGNMENT((#20));
#11=PRESENTATION_STYLE_ASSIGNMENT((#21));
#12=SURFACE_SIDE_STYLE('',(#14));
#13=SURFACE_SIDE_STYLE('',(#15));
#14=SURFACE_STYLE_FILL_AREA(#16);
#15=SURFACE_STYLE_FILL_AREA(#17);
#16=FILL_AREA_STYLE('',(#18));
#17=FILL_AREA_STYLE('',(#19));
#18=FILL_AREA_STYLE_COLOUR('',#51);
#19=FILL_AREA_STYLE_COLOUR('',#52);
#20=SURFACE_STYLE_USAGE(.BOTH.,#12);
#21=SURFACE_STYLE_USAGE(.BOTH.,#13);
#22=STYLED_ITEM('',(#10),#74);
#23=STYLED_ITEM('',(#10),#75);
#24=STYLED_ITEM('',(#10),#76);
#25=STYLED_ITEM('',(#10),#77);
#26=STYLED_ITEM('',(#10),#78);
#27=STYLED_ITEM('',(#10),#79);
#28=STYLED_ITEM('',(#10),#80);
#29=STYLED_ITEM('',(#10),#81);
#30=STYLED_ITEM('',(#10),#82);
#31=STYLED_ITEM('',(#10),#83);
#32=STYLED_ITEM('',(#10),#84);
#33=STYLED_ITEM('',(#10),#85);
#34=STYLED_ITEM('',(#10),#86);
#35=STYLED_ITEM('',(#10),#87);
#36=STYLED_ITEM('',(#10),#88);
#37=STYLED_ITEM('',(#10),#89);
#38=STYLED_ITEM('',(#10),#90);
#39=STYLED_ITEM('',(#10),#91);
#40=STYLED_ITEM('',(#10),#92);
#41=STYLED_ITEM('',(#10),#93);
#42=STYLED_ITEM('',(#10),#94);
#43=STYLED_ITEM('',(#10),#95);
#44=STYLED_ITEM('',(#10),#96);
#45=STYLED_ITEM('',(#10),#97);
#46=STYLED_ITEM('',(#10),#98);
#47=STYLED_ITEM('',(#10),#99);
#48=STYLED_ITEM('',(#10),#100);
#49=STYLED_ITEM('',(#10),#101);
#50=STYLED_ITEM('',(#11),#58);
#51=COLOUR_RGB('',0.,0.,0.);
#52=COLOUR_RGB('rgb_colour_1',0.4,0.4,0.4);
#53=MECHANICAL_DESIGN_GEOMETRIC_PRESENTATION_REPRESENTATION('',(#22,#23,#24,
#25,#26,#27,#28,#29,#30,#31,#32,#33,#34,#35,#36,#37,#38,#39,#40,#41,#42,#43,
#44,#45,#46,#47,#48,#49,#50),#971);
#54=PRESENTATION_LAYER_ASSIGNMENT('90','D620',(#74,#75,#76,#77,#78,#79,#80,#81
,#82,#83,#84,#85,#86,#87,#88,#89,#90,#91,#92,#93,#94,#95,#96,#97,#98,#99,#100,
#101,#58));
#55=SHAPE_REPRESENTATION_RELATIONSHIP('','',#584,#56);
#56=ADVANCED_BREP_SHAPE_REPRESENTATION('',(#57),#971);
#57=MANIFOLD_SOLID_BREP('7133',#58);
#58=CLOSED_SHELL('',(#74,#75,#76,#77,#78,#79,#80,#81,#82,#83,#84,#85,#86,#87,
#88,#89,#90,#91,#92,#93,#94,#95,#96,#97,#98,#99,#100,#101));
#59=CYLINDRICAL_SURFACE('',#620,8.36500930173579);
#60=CYLINDRICAL_SURFACE('',#621,63.443725656378);
#61=CYLINDRICAL_SURFACE('',#622,18.466458532498);
#62=CYLINDRICAL_SURFACE('',#625,105.389746323353);
#63=CYLINDRICAL_SURFACE('',#626,44.8921367989121);
#64=CYLINDRICAL_SURFACE('',#627,56.8830915912102);
#65=CYLINDRICAL_SURFACE('',#628,143.21916831302);
#66=CYLINDRICAL_SURFACE('',#629,202.586829525659);
#67=CYLINDRICAL_SURFACE('',#630,53.5500800462587);
#68=CYLINDRICAL_SURFACE('',#633,15.0377219063725);
#69=CYLINDRICAL_SURFACE('',#637,124.600026478079);
#70=CYLINDRICAL_SURFACE('',#638,62.687250531083);
#71=CYLINDRICAL_SURFACE('',#639,256.877378008656);
#72=CYLINDRICAL_SURFACE('',#640,58.0090397134665);
#73=CYLINDRICAL_SURFACE('',#641,101.487974165557);
#74=ADVANCED_FACE('',(#102),#314,.F.);
#75=ADVANCED_FACE('',(#103),#315,.F.);
#76=ADVANCED_FACE('',(#104),#316,.F.);
#77=ADVANCED_FACE('',(#105),#317,.F.);
#78=ADVANCED_FACE('',(#106),#59,.F.);
#79=ADVANCED_FACE('',(#107),#60,.F.);
#80=ADVANCED_FACE('',(#108),#61,.T.);
#81=ADVANCED_FACE('',(#109),#318,.F.);
#82=ADVANCED_FACE('',(#110),#319,.F.);
#83=ADVANCED_FACE('',(#111),#62,.F.);
#84=ADVANCED_FACE('',(#112),#63,.F.);
#85=ADVANCED_FACE('',(#113),#64,.F.);
#86=ADVANCED_FACE('',(#114),#65,.F.);
#87=ADVANCED_FACE('',(#115),#66,.T.);
#88=ADVANCED_FACE('',(#116),#67,.T.);
#89=ADVANCED_FACE('',(#117),#320,.F.);
#90=ADVANCED_FACE('',(#118),#321,.F.);
#91=ADVANCED_FACE('',(#119),#68,.F.);
#92=ADVANCED_FACE('',(#120),#322,.F.);
#93=ADVANCED_FACE('',(#121),#323,.F.);
#94=ADVANCED_FACE('',(#122),#324,.F.);
#95=ADVANCED_FACE('',(#123),#69,.F.);
#96=ADVANCED_FACE('',(#124),#70,.F.);
#97=ADVANCED_FACE('',(#125),#71,.T.);
#98=ADVANCED_FACE('',(#126),#72,.T.);
#99=ADVANCED_FACE('',(#127),#73,.F.);
#100=ADVANCED_FACE('',(#128),#325,.F.);
#101=ADVANCED_FACE('',(#129),#326,.T.);
#102=FACE_OUTER_BOUND('',#130,.T.);
#103=FACE_OUTER_BOUND('',#131,.T.);
#104=FACE_OUTER_BOUND('',#132,.T.);
#105=FACE_OUTER_BOUND('',#133,.T.);
#106=FACE_OUTER_BOUND('',#134,.T.);
#107=FACE_OUTER_BOUND('',#135,.T.);
#108=FACE_OUTER_BOUND('',#136,.T.);
#109=FACE_OUTER_BOUND('',#137,.T.);
#110=FACE_OUTER_BOUND('',#138,.T.);
#111=FACE_OUTER_BOUND('',#139,.T.);
#112=FACE_OUTER_BOUND('',#140,.T.);
#113=FACE_OUTER_BOUND('',#141,.T.);
#114=FACE_OUTER_BOUND('',#142,.T.);
#115=FACE_OUTER_BOUND('',#143,.T.);
#116=FACE_OUTER_BOUND('',#144,.T.);
#117=FACE_OUTER_BOUND('',#145,.T.);
#118=FACE_OUTER_BOUND('',#146,.T.);
#119=FACE_OUTER_BOUND('',#147,.T.);
#120=FACE_OUTER_BOUND('',#148,.T.);
#121=FACE_OUTER_BOUND('',#149,.T.);
#122=FACE_OUTER_BOUND('',#150,.T.);
#123=FACE_OUTER_BOUND('',#151,.T.);
#124=FACE_OUTER_BOUND('',#152,.T.);
#125=FACE_OUTER_BOUND('',#153,.T.);
#126=FACE_OUTER_BOUND('',#154,.T.);
#127=FACE_OUTER_BOUND('',#155,.T.);
#128=FACE_OUTER_BOUND('',#156,.T.);
#129=FACE_OUTER_BOUND('',#157,.T.);
#130=EDGE_LOOP('',(#158,#159,#160,#161));
#131=EDGE_LOOP('',(#162,#163,#164,#165));
#132=EDGE_LOOP('',(#166,#167,#168,#169));
#133=EDGE_LOOP('',(#170,#171,#172,#173));
#134=EDGE_LOOP('',(#174,#175,#176,#177));
#135=EDGE_LOOP('',(#178,#179,#180,#181));
#136=EDGE_LOOP('',(#182,#183,#184,#185));
#137=EDGE_LOOP('',(#186,#187,#188,#189));
#138=EDGE_LOOP('',(#190,#191,#192,#193));
#139=EDGE_LOOP('',(#194,#195,#196,#197));
#140=EDGE_LOOP('',(#198,#199,#200,#201));
#141=EDGE_LOOP('',(#202,#203,#204,#205));
#142=EDGE_LOOP('',(#206,#207,#208,#209));
#143=EDGE_LOOP('',(#210,#211,#212,#213));
#144=EDGE_LOOP('',(#214,#215,#216,#217));
#145=EDGE_LOOP('',(#218,#219,#220,#221));
#146=EDGE_LOOP('',(#222,#223,#224,#225));
#147=EDGE_LOOP('',(#226,#227,#228,#229));
#148=EDGE_LOOP('',(#230,#231,#232,#233));
#149=EDGE_LOOP('',(#234,#235,#236,#237));
#150=EDGE_LOOP('',(#238,#239,#240,#241));
#151=EDGE_LOOP('',(#242,#243,#244,#245));
#152=EDGE_LOOP('',(#246,#247,#248,#249));
#153=EDGE_LOOP('',(#250,#251,#252,#253));
#154=EDGE_LOOP('',(#254,#255,#256,#257));
#155=EDGE_LOOP('',(#258,#259,#260,#261));
#156=EDGE_LOOP('',(#262,#263,#264,#265,#266,#267,#268,#269,#270,#271,#272,#273
,#274,#275,#276,#277,#278,#279,#280,#281,#282,#283,#284,#285,#286,#287));
#157=EDGE_LOOP('',(#288,#289,#290,#291,#292,#293,#294,#295,#296,#297,#298,#299
,#300,#301,#302,#303,#304,#305,#306,#307,#308,#309,#310,#311,#312,#313));
#158=ORIENTED_EDGE('',*,*,#434,.T.);
#159=ORIENTED_EDGE('',*,*,#357,.F.);
#160=ORIENTED_EDGE('',*,*,#408,.F.);
#161=ORIENTED_EDGE('',*,*,#382,.T.);
#162=ORIENTED_EDGE('',*,*,#433,.T.);
#163=ORIENTED_EDGE('',*,*,#358,.F.);
#164=ORIENTED_EDGE('',*,*,#407,.F.);
#165=ORIENTED_EDGE('',*,*,#357,.T.);
#166=ORIENTED_EDGE('',*,*,#432,.T.);
#167=ORIENTED_EDGE('',*,*,#359,.F.);
#168=ORIENTED_EDGE('',*,*,#406,.F.);
#169=ORIENTED_EDGE('',*,*,#358,.T.);
#170=ORIENTED_EDGE('',*,*,#431,.T.);
#171=ORIENTED_EDGE('',*,*,#360,.F.);
#172=ORIENTED_EDGE('',*,*,#405,.F.);
#173=ORIENTED_EDGE('',*,*,#359,.T.);
#174=ORIENTED_EDGE('',*,*,#430,.T.);
#175=ORIENTED_EDGE('',*,*,#361,.F.);
#176=ORIENTED_EDGE('',*,*,#404,.F.);
#177=ORIENTED_EDGE('',*,*,#360,.T.);
#178=ORIENTED_EDGE('',*,*,#429,.T.);
#179=ORIENTED_EDGE('',*,*,#362,.F.);
#180=ORIENTED_EDGE('',*,*,#403,.F.);
#181=ORIENTED_EDGE('',*,*,#361,.T.);
#182=ORIENTED_EDGE('',*,*,#428,.T.);
#183=ORIENTED_EDGE('',*,*,#363,.F.);
#184=ORIENTED_EDGE('',*,*,#402,.F.);
#185=ORIENTED_EDGE('',*,*,#362,.T.);
#186=ORIENTED_EDGE('',*,*,#427,.T.);
#187=ORIENTED_EDGE('',*,*,#364,.F.);
#188=ORIENTED_EDGE('',*,*,#401,.F.);
#189=ORIENTED_EDGE('',*,*,#363,.T.);
#190=ORIENTED_EDGE('',*,*,#426,.T.);
#191=ORIENTED_EDGE('',*,*,#365,.F.);
#192=ORIENTED_EDGE('',*,*,#400,.F.);
#193=ORIENTED_EDGE('',*,*,#364,.T.);
#194=ORIENTED_EDGE('',*,*,#425,.T.);
#195=ORIENTED_EDGE('',*,*,#366,.F.);
#196=ORIENTED_EDGE('',*,*,#399,.F.);
#197=ORIENTED_EDGE('',*,*,#365,.T.);
#198=ORIENTED_EDGE('',*,*,#424,.T.);
#199=ORIENTED_EDGE('',*,*,#367,.F.);
#200=ORIENTED_EDGE('',*,*,#398,.F.);
#201=ORIENTED_EDGE('',*,*,#366,.T.);
#202=ORIENTED_EDGE('',*,*,#423,.T.);
#203=ORIENTED_EDGE('',*,*,#368,.F.);
#204=ORIENTED_EDGE('',*,*,#397,.F.);
#205=ORIENTED_EDGE('',*,*,#367,.T.);
#206=ORIENTED_EDGE('',*,*,#422,.T.);
#207=ORIENTED_EDGE('',*,*,#369,.F.);
#208=ORIENTED_EDGE('',*,*,#396,.F.);
#209=ORIENTED_EDGE('',*,*,#368,.T.);
#210=ORIENTED_EDGE('',*,*,#421,.T.);
#211=ORIENTED_EDGE('',*,*,#370,.F.);
#212=ORIENTED_EDGE('',*,*,#395,.F.);
#213=ORIENTED_EDGE('',*,*,#369,.T.);
#214=ORIENTED_EDGE('',*,*,#420,.T.);
#215=ORIENTED_EDGE('',*,*,#371,.F.);
#216=ORIENTED_EDGE('',*,*,#394,.F.);
#217=ORIENTED_EDGE('',*,*,#370,.T.);
#218=ORIENTED_EDGE('',*,*,#419,.T.);
#219=ORIENTED_EDGE('',*,*,#372,.F.);
#220=ORIENTED_EDGE('',*,*,#393,.F.);
#221=ORIENTED_EDGE('',*,*,#371,.T.);
#222=ORIENTED_EDGE('',*,*,#418,.T.);
#223=ORIENTED_EDGE('',*,*,#373,.F.);
#224=ORIENTED_EDGE('',*,*,#392,.F.);
#225=ORIENTED_EDGE('',*,*,#372,.T.);
#226=ORIENTED_EDGE('',*,*,#417,.T.);
#227=ORIENTED_EDGE('',*,*,#374,.F.);
#228=ORIENTED_EDGE('',*,*,#391,.F.);
#229=ORIENTED_EDGE('',*,*,#373,.T.);
#230=ORIENTED_EDGE('',*,*,#416,.T.);
#231=ORIENTED_EDGE('',*,*,#375,.F.);
#232=ORIENTED_EDGE('',*,*,#390,.F.);
#233=ORIENTED_EDGE('',*,*,#374,.T.);
#234=ORIENTED_EDGE('',*,*,#415,.T.);
#235=ORIENTED_EDGE('',*,*,#376,.F.);
#236=ORIENTED_EDGE('',*,*,#389,.F.);
#237=ORIENTED_EDGE('',*,*,#375,.T.);
#238=ORIENTED_EDGE('',*,*,#414,.T.);
#239=ORIENTED_EDGE('',*,*,#377,.F.);
#240=ORIENTED_EDGE('',*,*,#388,.F.);
#241=ORIENTED_EDGE('',*,*,#376,.T.);
#242=ORIENTED_EDGE('',*,*,#413,.T.);
#243=ORIENTED_EDGE('',*,*,#378,.F.);
#244=ORIENTED_EDGE('',*,*,#387,.F.);
#245=ORIENTED_EDGE('',*,*,#377,.T.);
#246=ORIENTED_EDGE('',*,*,#412,.T.);
#247=ORIENTED_EDGE('',*,*,#379,.F.);
#248=ORIENTED_EDGE('',*,*,#386,.F.);
#249=ORIENTED_EDGE('',*,*,#378,.T.);
#250=ORIENTED_EDGE('',*,*,#411,.T.);
#251=ORIENTED_EDGE('',*,*,#380,.F.);
#252=ORIENTED_EDGE('',*,*,#385,.F.);
#253=ORIENTED_EDGE('',*,*,#379,.T.);
#254=ORIENTED_EDGE('',*,*,#410,.T.);
#255=ORIENTED_EDGE('',*,*,#381,.F.);
#256=ORIENTED_EDGE('',*,*,#384,.F.);
#257=ORIENTED_EDGE('',*,*,#380,.T.);
#258=ORIENTED_EDGE('',*,*,#409,.T.);
#259=ORIENTED_EDGE('',*,*,#382,.F.);
#260=ORIENTED_EDGE('',*,*,#383,.F.);
#261=ORIENTED_EDGE('',*,*,#381,.T.);
#262=ORIENTED_EDGE('',*,*,#408,.T.);
#263=ORIENTED_EDGE('',*,*,#407,.T.);
#264=ORIENTED_EDGE('',*,*,#406,.T.);
#265=ORIENTED_EDGE('',*,*,#405,.T.);
#266=ORIENTED_EDGE('',*,*,#404,.T.);
#267=ORIENTED_EDGE('',*,*,#403,.T.);
#268=ORIENTED_EDGE('',*,*,#402,.T.);
#269=ORIENTED_EDGE('',*,*,#401,.T.);
#270=ORIENTED_EDGE('',*,*,#400,.T.);
#271=ORIENTED_EDGE('',*,*,#399,.T.);
#272=ORIENTED_EDGE('',*,*,#398,.T.);
#273=ORIENTED_EDGE('',*,*,#397,.T.);
#274=ORIENTED_EDGE('',*,*,#396,.T.);
#275=ORIENTED_EDGE('',*,*,#395,.T.);
#276=ORIENTED_EDGE('',*,*,#394,.T.);
#277=ORIENTED_EDGE('',*,*,#393,.T.);
#278=ORIENTED_EDGE('',*,*,#392,.T.);
#279=ORIENTED_EDGE('',*,*,#391,.T.);
#280=ORIENTED_EDGE('',*,*,#390,.T.);
#281=ORIENTED_EDGE('',*,*,#389,.T.);
#282=ORIENTED_EDGE('',*,*,#388,.T.);
#283=ORIENTED_EDGE('',*,*,#387,.T.);
#284=ORIENTED_EDGE('',*,*,#386,.T.);
#285=ORIENTED_EDGE('',*,*,#385,.T.);
#286=ORIENTED_EDGE('',*,*,#384,.T.);
#287=ORIENTED_EDGE('',*,*,#383,.T.);
#288=ORIENTED_EDGE('',*,*,#434,.F.);
#289=ORIENTED_EDGE('',*,*,#409,.F.);
#290=ORIENTED_EDGE('',*,*,#410,.F.);
#291=ORIENTED_EDGE('',*,*,#411,.F.);
#292=ORIENTED_EDGE('',*,*,#412,.F.);
#293=ORIENTED_EDGE('',*,*,#413,.F.);
#294=ORIENTED_EDGE('',*,*,#414,.F.);
#295=ORIENTED_EDGE('',*,*,#415,.F.);
#296=ORIENTED_EDGE('',*,*,#416,.F.);
#297=ORIENTED_EDGE('',*,*,#417,.F.);
#298=ORIENTED_EDGE('',*,*,#418,.F.);
#299=ORIENTED_EDGE('',*,*,#419,.F.);
#300=ORIENTED_EDGE('',*,*,#420,.F.);
#301=ORIENTED_EDGE('',*,*,#421,.F.);
#302=ORIENTED_EDGE('',*,*,#422,.F.);
#303=ORIENTED_EDGE('',*,*,#423,.F.);
#304=ORIENTED_EDGE('',*,*,#424,.F.);
#305=ORIENTED_EDGE('',*,*,#425,.F.);
#306=ORIENTED_EDGE('',*,*,#426,.F.);
#307=ORIENTED_EDGE('',*,*,#427,.F.);
#308=ORIENTED_EDGE('',*,*,#428,.F.);
#309=ORIENTED_EDGE('',*,*,#429,.F.);
#310=ORIENTED_EDGE('',*,*,#430,.F.);
#311=ORIENTED_EDGE('',*,*,#431,.F.);
#312=ORIENTED_EDGE('',*,*,#432,.F.);
#313=ORIENTED_EDGE('',*,*,#433,.F.);
#314=PLANE('',#616);
#315=PLANE('',#617);
#316=PLANE('',#618);
#317=PLANE('',#619);
#318=PLANE('',#623);
#319=PLANE('',#624);
#320=PLANE('',#631);
#321=PLANE('',#632);
#322=PLANE('',#634);
#323=PLANE('',#635);
#324=PLANE('',#636);
#325=PLANE('',#642);
#326=PLANE('',#643);
#327=CIRCLE('',#586,101.487974165557);
#328=CIRCLE('',#587,58.0090397134665);
#329=CIRCLE('',#588,256.877378008656);
#330=CIRCLE('',#589,62.687250531083);
#331=CIRCLE('',#590,124.600026478079);
#332=CIRCLE('',#591,15.0377219063725);
#333=CIRCLE('',#592,53.5500800462587);
#334=CIRCLE('',#593,202.586829525659);
#335=CIRCLE('',#594,143.21916831302);
#336=CIRCLE('',#595,56.8830915912102);
#337=CIRCLE('',#596,44.8921367989121);
#338=CIRCLE('',#597,105.389746323353);
#339=CIRCLE('',#598,18.466458532498);
#340=CIRCLE('',#599,63.443725656378);
#341=CIRCLE('',#600,8.36500930173579);
#342=CIRCLE('',#601,101.487974165557);
#343=CIRCLE('',#602,58.0090397134665);
#344=CIRCLE('',#603,256.877378008656);
#345=CIRCLE('',#604,62.687250531083);
#346=CIRCLE('',#605,124.600026478079);
#347=CIRCLE('',#606,15.0377219063725);
#348=CIRCLE('',#607,53.5500800462587);
#349=CIRCLE('',#608,202.586829525659);
#350=CIRCLE('',#609,143.21916831302);
#351=CIRCLE('',#610,56.8830915912102);
#352=CIRCLE('',#611,44.8921367989121);
#353=CIRCLE('',#612,105.389746323353);
#354=CIRCLE('',#613,18.466458532498);
#355=CIRCLE('',#614,63.443725656378);
#356=CIRCLE('',#615,8.36500930173579);
#357=EDGE_CURVE('',#556,#582,#435,.T.);
#358=EDGE_CURVE('',#555,#581,#436,.T.);
#359=EDGE_CURVE('',#554,#580,#437,.T.);
#360=EDGE_CURVE('',#553,#579,#438,.T.);
#361=EDGE_CURVE('',#552,#578,#439,.T.);
#362=EDGE_CURVE('',#551,#577,#440,.T.);
#363=EDGE_CURVE('',#550,#576,#441,.T.);
#364=EDGE_CURVE('',#549,#575,#442,.T.);
#365=EDGE_CURVE('',#548,#574,#443,.T.);
#366=EDGE_CURVE('',#547,#573,#444,.T.);
#367=EDGE_CURVE('',#546,#572,#445,.T.);
#368=EDGE_CURVE('',#545,#571,#446,.T.);
#369=EDGE_CURVE('',#544,#570,#447,.T.);
#370=EDGE_CURVE('',#543,#569,#448,.T.);
#371=EDGE_CURVE('',#542,#568,#449,.T.);
#372=EDGE_CURVE('',#541,#567,#450,.T.);
#373=EDGE_CURVE('',#540,#566,#451,.T.);
#374=EDGE_CURVE('',#539,#565,#452,.T.);
#375=EDGE_CURVE('',#538,#564,#453,.T.);
#376=EDGE_CURVE('',#537,#563,#454,.T.);
#377=EDGE_CURVE('',#536,#562,#455,.T.);
#378=EDGE_CURVE('',#535,#561,#456,.T.);
#379=EDGE_CURVE('',#534,#560,#457,.T.);
#380=EDGE_CURVE('',#533,#559,#458,.T.);
#381=EDGE_CURVE('',#532,#558,#459,.T.);
#382=EDGE_CURVE('',#531,#557,#460,.T.);
#383=EDGE_CURVE('',#532,#531,#327,.T.);
#384=EDGE_CURVE('',#533,#532,#328,.T.);
#385=EDGE_CURVE('',#534,#533,#329,.T.);
#386=EDGE_CURVE('',#535,#534,#330,.T.);
#387=EDGE_CURVE('',#536,#535,#331,.T.);
#388=EDGE_CURVE('',#537,#536,#461,.T.);
#389=EDGE_CURVE('',#538,#537,#462,.T.);
#390=EDGE_CURVE('',#539,#538,#463,.T.);
#391=EDGE_CURVE('',#540,#539,#332,.T.);
#392=EDGE_CURVE('',#541,#540,#464,.T.);
#393=EDGE_CURVE('',#542,#541,#465,.T.);
#394=EDGE_CURVE('',#543,#542,#333,.T.);
#395=EDGE_CURVE('',#544,#543,#334,.T.);
#396=EDGE_CURVE('',#545,#544,#335,.T.);
#397=EDGE_CURVE('',#546,#545,#336,.T.);
#398=EDGE_CURVE('',#547,#546,#337,.T.);
#399=EDGE_CURVE('',#548,#547,#338,.T.);
#400=EDGE_CURVE('',#549,#548,#466,.T.);
#401=EDGE_CURVE('',#550,#549,#467,.T.);
#402=EDGE_CURVE('',#551,#550,#339,.T.);
#403=EDGE_CURVE('',#552,#551,#340,.T.);
#404=EDGE_CURVE('',#553,#552,#341,.T.);
#405=EDGE_CURVE('',#554,#553,#468,.T.);
#406=EDGE_CURVE('',#555,#554,#469,.T.);
#407=EDGE_CURVE('',#556,#555,#470,.T.);
#408=EDGE_CURVE('',#531,#556,#471,.T.);
#409=EDGE_CURVE('',#558,#557,#342,.T.);
#410=EDGE_CURVE('',#559,#558,#343,.T.);
#411=EDGE_CURVE('',#560,#559,#344,.T.);
#412=EDGE_CURVE('',#561,#560,#345,.T.);
#413=EDGE_CURVE('',#562,#561,#346,.T.);
#414=EDGE_CURVE('',#563,#562,#472,.T.);
#415=EDGE_CURVE('',#564,#563,#473,.T.);
#416=EDGE_CURVE('',#565,#564,#474,.T.);
#417=EDGE_CURVE('',#566,#565,#347,.T.);
#418=EDGE_CURVE('',#567,#566,#475,.T.);
#419=EDGE_CURVE('',#568,#567,#476,.T.);
#420=EDGE_CURVE('',#569,#568,#348,.T.);
#421=EDGE_CURVE('',#570,#569,#349,.T.);
#422=EDGE_CURVE('',#571,#570,#350,.T.);
#423=EDGE_CURVE('',#572,#571,#351,.T.);
#424=EDGE_CURVE('',#573,#572,#352,.T.);
#425=EDGE_CURVE('',#574,#573,#353,.T.);
#426=EDGE_CURVE('',#575,#574,#477,.T.);
#427=EDGE_CURVE('',#576,#575,#478,.T.);
#428=EDGE_CURVE('',#577,#576,#354,.T.);
#429=EDGE_CURVE('',#578,#577,#355,.T.);
#430=EDGE_CURVE('',#579,#578,#356,.T.);
#431=EDGE_CURVE('',#580,#579,#479,.T.);
#432=EDGE_CURVE('',#581,#580,#480,.T.);
#433=EDGE_CURVE('',#582,#581,#481,.T.);
#434=EDGE_CURVE('',#557,#582,#482,.T.);
#435=LINE('',#863,#483);
#436=LINE('',#864,#484);
#437=LINE('',#865,#485);
#438=LINE('',#866,#486);
#439=LINE('',#867,#487);
#440=LINE('',#868,#488);
#441=LINE('',#869,#489);
#442=LINE('',#870,#490);
#443=LINE('',#871,#491);
#444=LINE('',#872,#492);
#445=LINE('',#873,#493);
#446=LINE('',#874,#494);
#447=LINE('',#875,#495);
#448=LINE('',#876,#496);
#449=LINE('',#877,#497);
#450=LINE('',#878,#498);
#451=LINE('',#879,#499);
#452=LINE('',#880,#500);
#453=LINE('',#881,#501);
#454=LINE('',#882,#502);
#455=LINE('',#883,#503);
#456=LINE('',#884,#504);
#457=LINE('',#885,#505);
#458=LINE('',#886,#506);
#459=LINE('',#887,#507);
#460=LINE('',#888,#508);
#461=LINE('',#894,#509);
#462=LINE('',#895,#510);
#463=LINE('',#896,#511);
#464=LINE('',#898,#512);
#465=LINE('',#899,#513);
#466=LINE('',#906,#514);
#467=LINE('',#907,#515);
#468=LINE('',#911,#516);
#469=LINE('',#912,#517);
#470=LINE('',#913,#518);
#471=LINE('',#914,#519);
#472=LINE('',#920,#520);
#473=LINE('',#921,#521);
#474=LINE('',#922,#522);
#475=LINE('',#924,#523);
#476=LINE('',#925,#524);
#477=LINE('',#932,#525);
#478=LINE('',#933,#526);
#479=LINE('',#937,#527);
#480=LINE('',#938,#528);
#481=LINE('',#939,#529);
#482=LINE('',#940,#530);
#483=VECTOR('',#646,1.);
#484=VECTOR('',#647,1.);
#485=VECTOR('',#648,1.);
#486=VECTOR('',#649,1.);
#487=VECTOR('',#650,1.);
#488=VECTOR('',#651,1.);
#489=VECTOR('',#652,1.);
#490=VECTOR('',#653,1.);
#491=VECTOR('',#654,1.);
#492=VECTOR('',#655,1.);
#493=VECTOR('',#656,1.);
#494=VECTOR('',#657,1.);
#495=VECTOR('',#658,1.);
#496=VECTOR('',#659,1.);
#497=VECTOR('',#660,1.);
#498=VECTOR('',#661,1.);
#499=VECTOR('',#662,1.);
#500=VECTOR('',#663,1.);
#501=VECTOR('',#664,1.);
#502=VECTOR('',#665,1.);
#503=VECTOR('',#666,1.);
#504=VECTOR('',#667,1.);
#505=VECTOR('',#668,1.);
#506=VECTOR('',#669,1.);
#507=VECTOR('',#670,1.);
#508=VECTOR('',#671,1.);
#509=VECTOR('',#682,1.);
#510=VECTOR('',#683,1.);
#511=VECTOR('',#684,1.);
#512=VECTOR('',#687,1.);
#513=VECTOR('',#688,1.);
#514=VECTOR('',#701,1.);
#515=VECTOR('',#702,1.);
#516=VECTOR('',#709,1.);
#517=VECTOR('',#710,1.);
#518=VECTOR('',#711,1.);
#519=VECTOR('',#712,1.);
#520=VECTOR('',#723,1.);
#521=VECTOR('',#724,1.);
#522=VECTOR('',#725,1.);
#523=VECTOR('',#728,1.);
#524=VECTOR('',#729,1.);
#525=VECTOR('',#742,1.);
#526=VECTOR('',#743,1.);
#527=VECTOR('',#750,1.);
#528=VECTOR('',#751,1.);
#529=VECTOR('',#752,1.);
#530=VECTOR('',#753,1.);
#531=VERTEX_POINT('',#811);
#532=VERTEX_POINT('',#812);
#533=VERTEX_POINT('',#813);
#534=VERTEX_POINT('',#814);
#535=VERTEX_POINT('',#815);
#536=VERTEX_POINT('',#816);
#537=VERTEX_POINT('',#817);
#538=VERTEX_POINT('',#818);
#539=VERTEX_POINT('',#819);
#540=VERTEX_POINT('',#820);
#541=VERTEX_POINT('',#821);
#542=VERTEX_POINT('',#822);
#543=VERTEX_POINT('',#823);
#544=VERTEX_POINT('',#824);
#545=VERTEX_POINT('',#825);
#546=VERTEX_POINT('',#826);
#547=VERTEX_POINT('',#827);
#548=VERTEX_POINT('',#828);
#549=VERTEX_POINT('',#829);
#550=VERTEX_POINT('',#830);
#551=VERTEX_POINT('',#831);
#552=VERTEX_POINT('',#832);
#553=VERTEX_POINT('',#833);
#554=VERTEX_POINT('',#834);
#555=VERTEX_POINT('',#835);
#556=VERTEX_POINT('',#836);
#557=VERTEX_POINT('',#837);
#558=VERTEX_POINT('',#838);
#559=VERTEX_POINT('',#839);
#560=VERTEX_POINT('',#840);
#561=VERTEX_POINT('',#841);
#562=VERTEX_POINT('',#842);
#563=VERTEX_POINT('',#843);
#564=VERTEX_POINT('',#844);
#565=VERTEX_POINT('',#845);
#566=VERTEX_POINT('',#846);
#567=VERTEX_POINT('',#847);
#568=VERTEX_POINT('',#848);
#569=VERTEX_POINT('',#849);
#570=VERTEX_POINT('',#850);
#571=VERTEX_POINT('',#851);
#572=VERTEX_POINT('',#852);
#573=VERTEX_POINT('',#853);
#574=VERTEX_POINT('',#854);
#575=VERTEX_POINT('',#855);
#576=VERTEX_POINT('',#856);
#577=VERTEX_POINT('',#857);
#578=VERTEX_POINT('',#858);
#579=VERTEX_POINT('',#859);
#580=VERTEX_POINT('',#860);
#581=VERTEX_POINT('',#861);
#582=VERTEX_POINT('',#862);
#583=SHAPE_DEFINITION_REPRESENTATION(#969,#584);
#584=SHAPE_REPRESENTATION('master',(#585),#971);
#585=AXIS2_PLACEMENT_3D('',#810,#645,#644);
#586=AXIS2_PLACEMENT_3D('',#889,#673,#672);
#587=AXIS2_PLACEMENT_3D('',#890,#675,#674);
#588=AXIS2_PLACEMENT_3D('',#891,#677,#676);
#589=AXIS2_PLACEMENT_3D('',#892,#679,#678);
#590=AXIS2_PLACEMENT_3D('',#893,#681,#680);
#591=AXIS2_PLACEMENT_3D('',#897,#686,#685);
#592=AXIS2_PLACEMENT_3D('',#900,#690,#689);
#593=AXIS2_PLACEMENT_3D('',#901,#692,#691);
#594=AXIS2_PLACEMENT_3D('',#902,#694,#693);
#595=AXIS2_PLACEMENT_3D('',#903,#696,#695);
#596=AXIS2_PLACEMENT_3D('',#904,#698,#697);
#597=AXIS2_PLACEMENT_3D('',#905,#700,#699);
#598=AXIS2_PLACEMENT_3D('',#908,#704,#703);
#599=AXIS2_PLACEMENT_3D('',#909,#706,#705);
#600=AXIS2_PLACEMENT_3D('',#910,#708,#707);
#601=AXIS2_PLACEMENT_3D('',#915,#714,#713);
#602=AXIS2_PLACEMENT_3D('',#916,#716,#715);
#603=AXIS2_PLACEMENT_3D('',#917,#718,#717);
#604=AXIS2_PLACEMENT_3D('',#918,#720,#719);
#605=AXIS2_PLACEMENT_3D('',#919,#722,#721);
#606=AXIS2_PLACEMENT_3D('',#923,#727,#726);
#607=AXIS2_PLACEMENT_3D('',#926,#731,#730);
#608=AXIS2_PLACEMENT_3D('',#927,#733,#732);
#609=AXIS2_PLACEMENT_3D('',#928,#735,#734);
#610=AXIS2_PLACEMENT_3D('',#929,#737,#736);
#611=AXIS2_PLACEMENT_3D('',#930,#739,#738);
#612=AXIS2_PLACEMENT_3D('',#931,#741,#740);
#613=AXIS2_PLACEMENT_3D('',#934,#745,#744);
#614=AXIS2_PLACEMENT_3D('',#935,#747,#746);
#615=AXIS2_PLACEMENT_3D('',#936,#749,#748);
#616=AXIS2_PLACEMENT_3D('',#941,#755,#754);
#617=AXIS2_PLACEMENT_3D('',#942,#757,#756);
#618=AXIS2_PLACEMENT_3D('',#943,#759,#758);
#619=AXIS2_PLACEMENT_3D('',#944,#761,#760);
#620=AXIS2_PLACEMENT_3D('',#945,#763,#762);
#621=AXIS2_PLACEMENT_3D('',#946,#765,#764);
#622=AXIS2_PLACEMENT_3D('',#947,#767,#766);
#623=AXIS2_PLACEMENT_3D('',#948,#769,#768);
#624=AXIS2_PLACEMENT_3D('',#949,#771,#770);
#625=AXIS2_PLACEMENT_3D('',#950,#773,#772);
#626=AXIS2_PLACEMENT_3D('',#951,#775,#774);
#627=AXIS2_PLACEMENT_3D('',#952,#777,#776);
#628=AXIS2_PLACEMENT_3D('',#953,#779,#778);
#629=AXIS2_PLACEMENT_3D('',#954,#781,#780);
#630=AXIS2_PLACEMENT_3D('',#955,#783,#782);
#631=AXIS2_PLACEMENT_3D('',#956,#785,#784);
#632=AXIS2_PLACEMENT_3D('',#957,#787,#786);
#633=AXIS2_PLACEMENT_3D('',#958,#789,#788);
#634=AXIS2_PLACEMENT_3D('',#959,#791,#790);
#635=AXIS2_PLACEMENT_3D('',#960,#793,#792);
#636=AXIS2_PLACEMENT_3D('',#961,#795,#794);
#637=AXIS2_PLACEMENT_3D('',#962,#797,#796);
#638=AXIS2_PLACEMENT_3D('',#963,#799,#798);
#639=AXIS2_PLACEMENT_3D('',#964,#801,#800);
#640=AXIS2_PLACEMENT_3D('',#965,#803,#802);
#641=AXIS2_PLACEMENT_3D('',#966,#805,#804);
#642=AXIS2_PLACEMENT_3D('',#967,#807,#806);
#643=AXIS2_PLACEMENT_3D('',#968,#809,#808);
#644=DIRECTION('',(1.,0.,0.));
#645=DIRECTION('',(0.,0.,1.));
#646=DIRECTION('',(0.,-1.,0.));
#647=DIRECTION('',(0.,-1.,0.));
#648=DIRECTION('',(0.,-1.,0.));
#649=DIRECTION('',(0.,-1.,0.));
#650=DIRECTION('',(0.,-1.,0.));
#651=DIRECTION('',(0.,-1.,0.));
#652=DIRECTION('',(0.,-1.,0.));
#653=DIRECTION('',(0.,-1.,0.));
#654=DIRECTION('',(0.,-1.,0.));
#655=DIRECTION('',(0.,-1.,0.));
#656=DIRECTION('',(0.,-1.,0.));
#657=DIRECTION('',(0.,-1.,0.));
#658=DIRECTION('',(0.,-1.,0.));
#659=DIRECTION('',(0.,-1.,0.));
#660=DIRECTION('',(0.,-1.,0.));
#661=DIRECTION('',(0.,-1.,0.));
#662=DIRECTION('',(0.,-1.,0.));
#663=DIRECTION('',(0.,-1.,0.));
#664=DIRECTION('',(0.,-1.,0.));
#665=DIRECTION('',(0.,-1.,0.));
#666=DIRECTION('',(0.,-1.,0.));
#667=DIRECTION('',(0.,-1.,0.));
#668=DIRECTION('',(0.,-1.,0.));
#669=DIRECTION('',(0.,-1.,0.));
#670=DIRECTION('',(0.,-1.,0.));
#671=DIRECTION('',(0.,-1.,0.));
#672=DIRECTION('',(0.410785438987716,0.,-0.911732045677714));
#673=DIRECTION('',(0.,-1.,0.));
#674=DIRECTION('',(-0.93026411779436,0.,0.366890543819652));
#675=DIRECTION('',(0.,1.,0.));
#676=DIRECTION('',(-0.975876858910575,0.,0.218321680652265));
#677=DIRECTION('',(0.,1.,0.));
#678=DIRECTION('',(0.473375307582744,0.,-0.880860839276524));
#679=DIRECTION('',(0.,-1.,0.));
#680=DIRECTION('',(0.156770799605775,0.,-0.987635011728));
#681=DIRECTION('',(0.,-1.,0.));
#682=DIRECTION('',(-0.,-0.,1.));
#683=DIRECTION('',(-0.998818750674864,-0.,-0.0485911854177699));
#684=DIRECTION('',(-0.292218560428301,0.,-0.956351563464614));
#685=DIRECTION('',(-0.282887572803081,0.,0.959153074933079));
#686=DIRECTION('',(0.,-1.,0.));
#687=DIRECTION('',(-0.95915307493308,0.,-0.282887572803079));
#688=DIRECTION('',(-0.277160690891692,0.,-0.960823579760842));
#689=DIRECTION('',(0.930623774031849,0.,-0.365977309688343));
#690=DIRECTION('',(0.,1.,0.));
#691=DIRECTION('',(0.977327202638018,-2.80587928612647E-016,-0.211734595623265
));
#692=DIRECTION('',(2.71828705436994E-016,1.,-7.04766280034246E-017));
#693=DIRECTION('',(-0.930215496370683,0.,0.367013801255271));
#694=DIRECTION('',(0.,-1.,0.));
#695=DIRECTION('',(-0.500022202069094,0.,0.866012585034406));
#696=DIRECTION('',(0.,-1.,0.));
#697=DIRECTION('',(-0.297137789374316,0.,0.954834610875488));
#698=DIRECTION('',(0.,-1.,0.));
#699=DIRECTION('',(-0.1371111763918,0.,0.990555664921693));
#700=DIRECTION('',(0.,-1.,0.));
#701=DIRECTION('',(-0.268651824528597,0.,-0.963237352461716));
#702=DIRECTION('',(-0.975639218467863,0.,-0.219381210196813));
#703=DIRECTION('',(0.815609013795344,0.,-0.57860343640164));
#704=DIRECTION('',(0.,1.,0.));
#705=DIRECTION('',(-0.714555696177758,0.,0.699578556746788));
#706=DIRECTION('',(0.,-1.,0.));
#707=DIRECTION('',(-0.0975713972372638,0.,0.995228527746853));
#708=DIRECTION('',(0.,-1.,0.));
#709=DIRECTION('',(-0.995228527746852,0.,-0.0975713972372732));
#710=DIRECTION('',(-0.215301815834092,0.,-0.976547555472104));
#711=DIRECTION('',(1.,-0.,-0.));
#712=DIRECTION('',(0.645712962385283,0.,0.763580231676817));
#713=DIRECTION('',(0.410785438987716,0.,-0.911732045677714));
#714=DIRECTION('',(0.,-1.,0.));
#715=DIRECTION('',(-0.93026411779436,0.,0.366890543819652));
#716=DIRECTION('',(0.,1.,0.));
#717=DIRECTION('',(-0.975876858910575,0.,0.218321680652265));
#718=DIRECTION('',(0.,1.,0.));
#719=DIRECTION('',(0.473375307582744,0.,-0.880860839276524));
#720=DIRECTION('',(0.,-1.,0.));
#721=DIRECTION('',(0.156770799605775,0.,-0.987635011728));
#722=DIRECTION('',(0.,-1.,0.));
#723=DIRECTION('',(-0.,-0.,1.));
#724=DIRECTION('',(-0.998818750674864,-0.,-0.0485911854177699));
#725=DIRECTION('',(-0.292218560428301,0.,-0.956351563464614));
#726=DIRECTION('',(-0.282887572803081,0.,0.959153074933079));
#727=DIRECTION('',(0.,-1.,0.));
#728=DIRECTION('',(-0.95915307493308,0.,-0.282887572803079));
#729=DIRECTION('',(-0.277160690891692,0.,-0.960823579760842));
#730=DIRECTION('',(0.930623774031849,0.,-0.365977309688343));
#731=DIRECTION('',(0.,1.,0.));
#732=DIRECTION('',(0.977327202638018,-2.80587928612647E-016,-0.211734595623265
));
#733=DIRECTION('',(2.71828705436994E-016,1.,-7.04766280034246E-017));
#734=DIRECTION('',(-0.930215496370683,0.,0.367013801255271));
#735=DIRECTION('',(0.,-1.,0.));
#736=DIRECTION('',(-0.500022202069094,0.,0.866012585034406));
#737=DIRECTION('',(0.,-1.,0.));
#738=DIRECTION('',(-0.297137789374316,0.,0.954834610875488));
#739=DIRECTION('',(0.,-1.,0.));
#740=DIRECTION('',(-0.1371111763918,0.,0.990555664921693));
#741=DIRECTION('',(0.,-1.,0.));
#742=DIRECTION('',(-0.268651824528597,0.,-0.963237352461716));
#743=DIRECTION('',(-0.975639218467863,0.,-0.219381210196813));
#744=DIRECTION('',(0.815609013795344,0.,-0.57860343640164));
#745=DIRECTION('',(0.,1.,0.));
#746=DIRECTION('',(-0.714555696177758,0.,0.699578556746788));
#747=DIRECTION('',(0.,-1.,0.));
#748=DIRECTION('',(-0.0975713972372638,0.,0.995228527746853));
#749=DIRECTION('',(0.,-1.,0.));
#750=DIRECTION('',(-0.995228527746852,0.,-0.0975713972372732));
#751=DIRECTION('',(-0.215301815834092,0.,-0.976547555472104));
#752=DIRECTION('',(1.,-0.,-0.));
#753=DIRECTION('',(0.645712962385283,0.,0.763580231676817));
#754=DIRECTION('',(-0.645712962385283,0.,-0.763580231676817));
#755=DIRECTION('',(0.763580231676817,0.,-0.645712962385283));
#756=DIRECTION('',(-1.,0.,0.));
#757=DIRECTION('',(-0.,-0.,-1.));
#758=DIRECTION('',(0.215301815834092,0.,0.976547555472104));
#759=DIRECTION('',(-0.976547555472104,0.,0.215301815834092));
#760=DIRECTION('',(0.995228527746852,0.,0.0975713972372732));
#761=DIRECTION('',(-0.0975713972372732,0.,0.995228527746852));
#762=DIRECTION('',(0.,0.,-1.));
#763=DIRECTION('',(0.,-1.,0.));
#764=DIRECTION('',(0.,0.,-1.));
#765=DIRECTION('',(0.,-1.,0.));
#766=DIRECTION('',(0.,0.,-1.));
#767=DIRECTION('',(0.,-1.,0.));
#768=DIRECTION('',(0.975639218467863,0.,0.219381210196813));
#769=DIRECTION('',(-0.219381210196813,0.,0.975639218467863));
#770=DIRECTION('',(0.268651824528597,0.,0.963237352461716));
#771=DIRECTION('',(-0.963237352461716,0.,0.268651824528597));
#772=DIRECTION('',(0.,0.,-1.));
#773=DIRECTION('',(0.,-1.,0.));
#774=DIRECTION('',(0.,0.,-1.));
#775=DIRECTION('',(0.,-1.,0.));
#776=DIRECTION('',(0.,0.,-1.));
#777=DIRECTION('',(0.,-1.,0.));
#778=DIRECTION('',(0.,0.,-1.));
#779=DIRECTION('',(0.,-1.,0.));
#780=DIRECTION('',(0.,0.,-1.));
#781=DIRECTION('',(0.,-1.,0.));
#782=DIRECTION('',(0.,0.,-1.));
#783=DIRECTION('',(0.,-1.,0.));
#784=DIRECTION('',(0.277160690891692,0.,0.960823579760842));
#785=DIRECTION('',(-0.960823579760842,0.,0.277160690891692));
#786=DIRECTION('',(0.95915307493308,0.,0.282887572803079));
#787=DIRECTION('',(-0.282887572803079,0.,0.95915307493308));
#788=DIRECTION('',(0.,0.,-1.));
#789=DIRECTION('',(0.,-1.,0.));
#790=DIRECTION('',(0.292218560428301,0.,0.956351563464614));
#791=DIRECTION('',(-0.956351563464614,0.,0.292218560428301));
#792=DIRECTION('',(0.998818750674864,0.,0.0485911854177699));
#793=DIRECTION('',(-0.0485911854177699,0.,0.998818750674864));
#794=DIRECTION('',(0.,0.,-1.));
#795=DIRECTION('',(1.,0.,0.));
#796=DIRECTION('',(0.,0.,-1.));
#797=DIRECTION('',(0.,-1.,0.));
#798=DIRECTION('',(0.,0.,-1.));
#799=DIRECTION('',(0.,-1.,0.));
#800=DIRECTION('',(0.,0.,-1.));
#801=DIRECTION('',(0.,-1.,0.));
#802=DIRECTION('',(0.,0.,-1.));
#803=DIRECTION('',(0.,-1.,0.));
#804=DIRECTION('',(0.,0.,-1.));
#805=DIRECTION('',(0.,-1.,0.));
#806=DIRECTION('',(0.,0.,-1.));
#807=DIRECTION('',(0.,-1.,0.));
#808=DIRECTION('',(0.,0.,-1.));
#809=DIRECTION('',(0.,-1.,0.));
#810=CARTESIAN_POINT('',(0.,0.,0.));
#811=CARTESIAN_POINT('',(251.685594174445,2160.,2242.12154735744));
#812=CARTESIAN_POINT('',(215.88116536827,2160.,2215.12380950471));
#813=CARTESIAN_POINT('',(185.746706059076,2160.,2183.51807718588));
#814=CARTESIAN_POINT('',(174.029824717356,2160.,2145.35409716172));
#815=CARTESIAN_POINT('',(142.529384077011,2160.,2103.82133893839));
#816=CARTESIAN_POINT('',(103.080454,2160.,2090.51727422376));
#817=CARTESIAN_POINT('',(103.080454,2160.,2053.01852024786));
#818=CARTESIAN_POINT('',(117.409807,2160.,2053.71562394968));
#819=CARTESIAN_POINT('',(120.760253480124,2160.,2064.68072050232));
#820=CARTESIAN_POINT('',(130.887617685648,2160.,2074.70989626121));
#821=CARTESIAN_POINT('',(138.915555,2160.,2077.07761394968));
#822=CARTESIAN_POINT('',(141.401344999999,2160.,2085.69501794968));
#823=CARTESIAN_POINT('',(181.107279563328,2160.,2118.68029996212));
#824=CARTESIAN_POINT('',(190.56877909263,2160.,2149.927842382));
#825=CARTESIAN_POINT('',(197.316078482044,2160.,2172.16680106892));
#826=CARTESIAN_POINT('',(221.786803043726,2160.,2200.55139459053));
#827=CARTESIAN_POINT('',(230.894717852787,2160.,2204.53880512535));
#828=CARTESIAN_POINT('',(247.759882,2160.,2208.30343794968));
#829=CARTESIAN_POINT('',(250.299249298424,2160.,2217.40820929361));
#830=CARTESIAN_POINT('',(255.66526499999,2160.,2218.61480594969));
#831=CARTESIAN_POINT('',(266.675481011102,2160.,2225.94665075514));
#832=CARTESIAN_POINT('',(273.086679970699,2160.,2233.62176310157));
#833=CARTESIAN_POINT('',(278.247759370361,2160.,2236.09487785904));
#834=CARTESIAN_POINT('',(287.283341,2160.,2236.98071894968));
#835=CARTESIAN_POINT('',(290.04349735692,2160.,2249.5));
#836=CARTESIAN_POINT('',(257.925098965166,2160.,2249.5));
#837=CARTESIAN_POINT('',(251.685594174445,160.,2242.12154735744));
#838=CARTESIAN_POINT('',(215.88116536827,160.,2215.12380950471));
#839=CARTESIAN_POINT('',(185.746706059076,160.,2183.51807718588));
#840=CARTESIAN_POINT('',(174.029824717356,160.,2145.35409716172));
#841=CARTESIAN_POINT('',(142.529384077011,160.,2103.82133893839));
#842=CARTESIAN_POINT('',(103.080454,160.,2090.51727422376));
#843=CARTESIAN_POINT('',(103.080454,160.,2053.01852024786));
#844=CARTESIAN_POINT('',(117.409807,160.,2053.71562394968));
#845=CARTESIAN_POINT('',(120.760253480124,160.,2064.68072050232));
#846=CARTESIAN_POINT('',(130.887617685648,160.,2074.70989626121));
#847=CARTESIAN_POINT('',(138.915555,160.,2077.07761394968));
#848=CARTESIAN_POINT('',(141.401344999999,160.,2085.69501794968));
#849=CARTESIAN_POINT('',(181.107279563328,160.,2118.68029996212));
#850=CARTESIAN_POINT('',(190.56877909263,160.,2149.927842382));
#851=CARTESIAN_POINT('',(197.316078482044,160.,2172.16680106892));
#852=CARTESIAN_POINT('',(221.786803043726,160.,2200.55139459053));
#853=CARTESIAN_POINT('',(230.894717852787,160.,2204.53880512535));
#854=CARTESIAN_POINT('',(247.759882,160.,2208.30343794968));
#855=CARTESIAN_POINT('',(250.299249298424,160.,2217.40820929361));
#856=CARTESIAN_POINT('',(255.66526499999,160.,2218.61480594969));
#857=CARTESIAN_POINT('',(266.675481011102,160.,2225.94665075514));
#858=CARTESIAN_POINT('',(273.086679970699,160.,2233.62176310157));
#859=CARTESIAN_POINT('',(278.247759370361,160.,2236.09487785904));
#860=CARTESIAN_POINT('',(287.283341,160.,2236.98071894968));
#861=CARTESIAN_POINT('',(290.04349735692,160.,2249.5));
#862=CARTESIAN_POINT('',(257.925098965166,160.,2249.5));
#863=CARTESIAN_POINT('',(257.925098965166,2160.,2249.5));
#864=CARTESIAN_POINT('',(290.04349735692,2160.,2249.5));
#865=CARTESIAN_POINT('',(287.283341,2160.,2236.98071894968));
#866=CARTESIAN_POINT('',(278.247759370361,2160.,2236.09487785904));
#867=CARTESIAN_POINT('',(273.086679970699,2160.,2233.62176310157));
#868=CARTESIAN_POINT('',(266.675481011102,2160.,2225.94665075514));
#869=CARTESIAN_POINT('',(255.66526499999,2160.,2218.61480594969));
#870=CARTESIAN_POINT('',(250.299249298424,2160.,2217.40820929361));
#871=CARTESIAN_POINT('',(247.759882,2160.,2208.30343794968));
#872=CARTESIAN_POINT('',(230.894717852787,2160.,2204.53880512535));
#873=CARTESIAN_POINT('',(221.786803043726,2160.,2200.55139459053));
#874=CARTESIAN_POINT('',(197.316078482044,2160.,2172.16680106892));
#875=CARTESIAN_POINT('',(190.56877909263,2160.,2149.927842382));
#876=CARTESIAN_POINT('',(181.107279563328,2160.,2118.68029996212));
#877=CARTESIAN_POINT('',(141.401344999999,2160.,2085.69501794968));
#878=CARTESIAN_POINT('',(138.915555,2160.,2077.07761394968));
#879=CARTESIAN_POINT('',(130.887617685648,2160.,2074.70989626121));
#880=CARTESIAN_POINT('',(120.760253480124,2160.,2064.68072050232));
#881=CARTESIAN_POINT('',(117.409807,2160.,2053.71562394968));
#882=CARTESIAN_POINT('',(103.080454,2160.,2053.01852024786));
#883=CARTESIAN_POINT('',(103.080454,2160.,2090.51727422376));
#884=CARTESIAN_POINT('',(142.529384077011,2160.,2103.82133893839));
#885=CARTESIAN_POINT('',(174.029824717356,2160.,2145.35409716172));
#886=CARTESIAN_POINT('',(185.746706059076,2160.,2183.51807718588));
#887=CARTESIAN_POINT('',(215.88116536827,2160.,2215.12380950471));
#888=CARTESIAN_POINT('',(251.685594174445,2160.,2242.12154735744));
#889=CARTESIAN_POINT('',(174.191383348697,2160.,2307.65364780236));
#890=CARTESIAN_POINT('',(239.710434212222,2160.,2162.23510905895));
#891=CARTESIAN_POINT('',(424.710513493627,2160.,2089.27219627332));
#892=CARTESIAN_POINT('',(112.854787575342,2160.,2159.04008305313));
#893=CARTESIAN_POINT('',(83.5468082181309,2160.,2213.57662283574));
#894=CARTESIAN_POINT('',(103.080454,2160.,2053.01852024786));
#895=CARTESIAN_POINT('',(117.409807,2160.,2053.71562394968));
#896=CARTESIAN_POINT('',(120.760253480124,2160.,2064.68072050232));
#897=CARTESIAN_POINT('',(135.141602336229,2160.,2060.28641905472));
#898=CARTESIAN_POINT('',(138.915555,2160.,2077.07761394968));
#899=CARTESIAN_POINT('',(141.401344999999,2160.,2085.69501794968));
#900=CARTESIAN_POINT('',(131.272301970972,2160.,2138.27841419105));
#901=CARTESIAN_POINT('',(-7.42484029898719,2160.,2192.82248281022));
#902=CARTESIAN_POINT('',(330.540768224137,2160.,2119.60338969374));
#903=CARTESIAN_POINT('',(250.229611761661,2160.,2151.28992139688));
#904=CARTESIAN_POINT('',(244.233868141505,2160.,2161.67423915359));
#905=CARTESIAN_POINT('',(262.209994098028,2160.,2103.90902770442));
#906=CARTESIAN_POINT('',(250.299249298424,2160.,2217.40820929361));
#907=CARTESIAN_POINT('',(255.66526499999,2160.,2218.61480594969));
#908=CARTESIAN_POINT('',(251.614070979118,2160.,2236.63140712021));
#909=CARTESIAN_POINT('',(318.420755525203,2160.,2189.23789307224));
#910=CARTESIAN_POINT('',(279.063945015834,2160.,2227.76978196709));
#911=CARTESIAN_POINT('',(287.283341,2160.,2236.98071894968));
#912=CARTESIAN_POINT('',(290.04349735692,2160.,2249.5));
#913=CARTESIAN_POINT('',(257.925098965166,2160.,2249.5));
#914=CARTESIAN_POINT('',(251.685594174445,2160.,2242.12154735744));
#915=CARTESIAN_POINT('',(174.191383348697,160.,2307.65364780236));
#916=CARTESIAN_POINT('',(239.710434212222,160.,2162.23510905895));
#917=CARTESIAN_POINT('',(424.710513493627,160.,2089.27219627332));
#918=CARTESIAN_POINT('',(112.854787575342,160.,2159.04008305313));
#919=CARTESIAN_POINT('',(83.5468082181309,160.,2213.57662283574));
#920=CARTESIAN_POINT('',(103.080454,160.,2053.01852024786));
#921=CARTESIAN_POINT('',(117.409807,160.,2053.71562394968));
#922=CARTESIAN_POINT('',(120.760253480124,160.,2064.68072050232));
#923=CARTESIAN_POINT('',(135.141602336229,160.,2060.28641905472));
#924=CARTESIAN_POINT('',(138.915555,160.,2077.07761394968));
#925=CARTESIAN_POINT('',(141.401344999999,160.,2085.69501794968));
#926=CARTESIAN_POINT('',(131.272301970972,160.,2138.27841419105));
#927=CARTESIAN_POINT('',(-7.42484029898719,160.,2192.82248281022));
#928=CARTESIAN_POINT('',(330.540768224137,160.,2119.60338969374));
#929=CARTESIAN_POINT('',(250.229611761661,160.,2151.28992139688));
#930=CARTESIAN_POINT('',(244.233868141505,160.,2161.67423915359));
#931=CARTESIAN_POINT('',(262.209994098028,160.,2103.90902770442));
#932=CARTESIAN_POINT('',(250.299249298424,160.,2217.40820929361));
#933=CARTESIAN_POINT('',(255.66526499999,160.,2218.61480594969));
#934=CARTESIAN_POINT('',(251.614070979118,160.,2236.63140712021));
#935=CARTESIAN_POINT('',(318.420755525203,160.,2189.23789307224));
#936=CARTESIAN_POINT('',(279.063945015834,160.,2227.76978196709));
#937=CARTESIAN_POINT('',(287.283341,160.,2236.98071894968));
#938=CARTESIAN_POINT('',(290.04349735692,160.,2249.5));
#939=CARTESIAN_POINT('',(257.925098965166,160.,2249.5));
#940=CARTESIAN_POINT('',(251.685594174445,160.,2242.12154735744));
#941=CARTESIAN_POINT('',(251.685594174445,2160.,2242.12154735744));
#942=CARTESIAN_POINT('',(257.925098965166,2160.,2249.5));
#943=CARTESIAN_POINT('',(290.04349735692,2160.,2249.5));
#944=CARTESIAN_POINT('',(287.283341,2160.,2236.98071894968));
#945=CARTESIAN_POINT('',(279.063945015834,2160.,2227.76978196709));
#946=CARTESIAN_POINT('',(318.420755525203,2160.,2189.23789307224));
#947=CARTESIAN_POINT('',(251.614070979118,2160.,2236.63140712021));
#948=CARTESIAN_POINT('',(255.66526499999,2160.,2218.61480594969));
#949=CARTESIAN_POINT('',(250.299249298424,2160.,2217.40820929361));
#950=CARTESIAN_POINT('',(262.209994098028,2160.,2103.90902770442));
#951=CARTESIAN_POINT('',(244.233868141505,2160.,2161.67423915359));
#952=CARTESIAN_POINT('',(250.229611761661,2160.,2151.28992139688));
#953=CARTESIAN_POINT('',(330.540768224137,2160.,2119.60338969374));
#954=CARTESIAN_POINT('',(-7.42484029898719,2160.,2192.82248281022));
#955=CARTESIAN_POINT('',(131.272301970972,2160.,2138.27841419105));
#956=CARTESIAN_POINT('',(141.401344999999,2160.,2085.69501794968));
#957=CARTESIAN_POINT('',(138.915555,2160.,2077.07761394968));
#958=CARTESIAN_POINT('',(135.141602336229,2160.,2060.28641905472));
#959=CARTESIAN_POINT('',(120.760253480124,2160.,2064.68072050232));
#960=CARTESIAN_POINT('',(117.409807,2160.,2053.71562394968));
#961=CARTESIAN_POINT('',(103.080454,2160.,2053.01852024786));
#962=CARTESIAN_POINT('',(83.5468082181309,2160.,2213.57662283574));
#963=CARTESIAN_POINT('',(112.854787575342,2160.,2159.04008305313));
#964=CARTESIAN_POINT('',(424.710513493627,2160.,2089.27219627332));
#965=CARTESIAN_POINT('',(239.710434212222,2160.,2162.23510905895));
#966=CARTESIAN_POINT('',(174.191383348697,2160.,2307.65364780236));
#967=CARTESIAN_POINT('',(279.063945015834,2160.,2227.76978196709));
#968=CARTESIAN_POINT('',(279.063945015834,160.,2227.76978196709));
#969=PRODUCT_DEFINITION_SHAPE('','',#970);
#970=PRODUCT_DEFINITION('','',#982,#987);
#971=(
GEOMETRIC_REPRESENTATION_CONTEXT(3)
GLOBAL_UNCERTAINTY_ASSIGNED_CONTEXT((#972))
GLOBAL_UNIT_ASSIGNED_CONTEXT((#974,#973,#977))
REPRESENTATION_CONTEXT('','')
);
#972=UNCERTAINTY_MEASURE_WITH_UNIT(LENGTH_MEASURE(0.001),#974,'','tolerance');
#973=(
CONVERSION_BASED_UNIT('',#975)
NAMED_UNIT(#981)
PLANE_ANGLE_UNIT()
);
#974=(
CONVERSION_BASED_UNIT('',#976)
LENGTH_UNIT()
NAMED_UNIT(#980)
);
#975=PLANE_ANGLE_MEASURE_WITH_UNIT(PLANE_ANGLE_MEASURE(0.0174532925199433),
#978);
#976=LENGTH_MEASURE_WITH_UNIT(LENGTH_MEASURE(1.),#979);
#977=(
NAMED_UNIT(*)
SI_UNIT($,.STERADIAN.)
SOLID_ANGLE_UNIT()
);
#978=(
NAMED_UNIT(*)
PLANE_ANGLE_UNIT()
SI_UNIT($,.RADIAN.)
);
#979=(
LENGTH_UNIT()
NAMED_UNIT(*)
SI_UNIT(.MILLI.,.METRE.)
);
#980=DIMENSIONAL_EXPONENTS(1.,0.,0.,0.,0.,0.,0.);
#981=DIMENSIONAL_EXPONENTS(0.,0.,0.,0.,0.,0.,0.);
#982=PRODUCT_DEFINITION_FORMATION_WITH_SPECIFIED_SOURCE('','',#985,.NOT_KNOWN.
);
#983=PRODUCT_CATEGORY_RELATIONSHIP('','',#988,#984);
#984=PRODUCT_RELATED_PRODUCT_CATEGORY('assembly','',(#985));
#985=PRODUCT('','master','',(#986));
#986=PRODUCT_CONTEXT('',#990,'');
#987=PRODUCT_DEFINITION_CONTEXT('',#990,'part_definition');
#988=PRODUCT_CATEGORY('part','');
#989=APPLICATION_PROTOCOL_DEFINITION('international standard',
'automotive_design_cc2',1994,#990);
#990=APPLICATION_CONTEXT(
'configuration controlled 3D designs of mechanical parts and assemblies');
ENDSEC;
END-ISO-10303-21;
43979