ISO-10303-21;
HEADER;
/* Generated by software using Delcam plc STEP library */

FILE_DESCRIPTION(
/* description */ ('AP-214 File'),
/* implementation_level */ '2;1');

FILE_NAME(
/* name */ 'D612',
/* time_stamp */ 'Tue Oct 03 09:09:43 2017',
/* author */ (''),
/* organization */ (''),
/* preprocessor_version */ 'DELCAM STEP V1',
/* originating_system */ 'Exchange7.1.0006',
/* authorisation */ '');

FILE_SCHEMA (('AUTOMOTIVE_DESIGN'));
ENDSEC;
DATA;
#10=PRESENTATION_STYLE_ASSIGNMENT((#20));
#11=PRESENTATION_STYLE_ASSIGNMENT((#21));
#12=SURFACE_SIDE_STYLE('',(#14));
#13=SURFACE_SIDE_STYLE('',(#15));
#14=SURFACE_STYLE_FILL_AREA(#16);
#15=SURFACE_STYLE_FILL_AREA(#17);
#16=FILL_AREA_STYLE('',(#18));
#17=FILL_AREA_STYLE('',(#19));
#18=FILL_AREA_STYLE_COLOUR('',#38);
#19=FILL_AREA_STYLE_COLOUR('',#39);
#20=SURFACE_STYLE_USAGE(.BOTH.,#12);
#21=SURFACE_STYLE_USAGE(.BOTH.,#13);
#22=STYLED_ITEM('',(#10),#60);
#23=STYLED_ITEM('',(#10),#61);
#24=STYLED_ITEM('',(#10),#62);
#25=STYLED_ITEM('',(#10),#63);
#26=STYLED_ITEM('',(#10),#64);
#27=STYLED_ITEM('',(#10),#65);
#28=STYLED_ITEM('',(#10),#66);
#29=STYLED_ITEM('',(#10),#67);
#30=STYLED_ITEM('',(#10),#68);
#31=STYLED_ITEM('',(#10),#69);
#32=STYLED_ITEM('',(#10),#70);
#33=STYLED_ITEM('',(#10),#71);
#34=STYLED_ITEM('',(#10),#72);
#35=STYLED_ITEM('',(#10),#73);
#36=STYLED_ITEM('',(#10),#74);
#37=STYLED_ITEM('',(#11),#45);
#38=COLOUR_RGB('',0.,0.,0.);
#39=COLOUR_RGB('rgb_colour_1',0.4,0.4,0.4);
#40=MECHANICAL_DESIGN_GEOMETRIC_PRESENTATION_REPRESENTATION('',(#22,#23,#24,
#25,#26,#27,#28,#29,#30,#31,#32,#33,#34,#35,#36,#37),#714);
#41=PRESENTATION_LAYER_ASSIGNMENT('50','BL140',(#60,#61,#62,#63,#64,#65,#66,
#67,#68,#69,#70,#71,#72,#73,#74,#45));
#42=SHAPE_REPRESENTATION_RELATIONSHIP('','',#326,#43);
#43=ADVANCED_BREP_SHAPE_REPRESENTATION('',(#44),#714);
#44=MANIFOLD_SOLID_BREP('8101',#45);
#45=CLOSED_SHELL('',(#60,#61,#62,#63,#64,#65,#66,#67,#68,#69,#70,#71,#72,#73,
#74));
#46=SURFACE_OF_LINEAR_EXTRUSION('',#192,#296);
#47=SURFACE_OF_LINEAR_EXTRUSION('',#193,#297);
#48=SURFACE_OF_LINEAR_EXTRUSION('',#194,#298);
#49=PLANE('',#331);
#50=PLANE('',#332);
#51=PLANE('',#333);
#52=PLANE('',#334);
#53=PLANE('',#335);
#54=PLANE('',#336);
#55=PLANE('',#337);
#56=PLANE('',#338);
#57=PLANE('',#339);
#58=PLANE('',#340);
#59=PLANE('',#341);
#60=ADVANCED_FACE('',(#75),#183,.F.);
#61=ADVANCED_FACE('',(#76),#49,.F.);
#62=ADVANCED_FACE('',(#77),#50,.F.);
#63=ADVANCED_FACE('',(#78),#51,.F.);
#64=ADVANCED_FACE('',(#79),#46,.F.);
#65=ADVANCED_FACE('',(#80),#52,.F.);
#66=ADVANCED_FACE('',(#81),#47,.F.);
#67=ADVANCED_FACE('',(#82),#53,.F.);
#68=ADVANCED_FACE('',(#83),#54,.F.);
#69=ADVANCED_FACE('',(#84),#48,.F.);
#70=ADVANCED_FACE('',(#85),#55,.F.);
#71=ADVANCED_FACE('',(#86),#56,.F.);
#72=ADVANCED_FACE('',(#87),#57,.F.);
#73=ADVANCED_FACE('',(#88),#58,.F.);
#74=ADVANCED_FACE('',(#89),#59,.T.);
#75=FACE_OUTER_BOUND('',#90,.T.);
#76=FACE_OUTER_BOUND('',#91,.T.);
#77=FACE_OUTER_BOUND('',#92,.T.);
#78=FACE_OUTER_BOUND('',#93,.T.);
#79=FACE_OUTER_BOUND('',#94,.T.);
#80=FACE_OUTER_BOUND('',#95,.T.);
#81=FACE_OUTER_BOUND('',#96,.T.);
#82=FACE_OUTER_BOUND('',#97,.T.);
#83=FACE_OUTER_BOUND('',#98,.T.);
#84=FACE_OUTER_BOUND('',#99,.T.);
#85=FACE_OUTER_BOUND('',#100,.T.);
#86=FACE_OUTER_BOUND('',#101,.T.);
#87=FACE_OUTER_BOUND('',#102,.T.);
#88=FACE_OUTER_BOUND('',#103,.T.);
#89=FACE_OUTER_BOUND('',#104,.T.);
#90=EDGE_LOOP('',(#105,#106,#107,#108));
#91=EDGE_LOOP('',(#109,#110,#111,#112));
#92=EDGE_LOOP('',(#113,#114,#115,#116));
#93=EDGE_LOOP('',(#117,#118,#119,#120));
#94=EDGE_LOOP('',(#121,#122,#123,#124));
#95=EDGE_LOOP('',(#125,#126,#127,#128));
#96=EDGE_LOOP('',(#129,#130,#131,#132));
#97=EDGE_LOOP('',(#133,#134,#135,#136));
#98=EDGE_LOOP('',(#137,#138,#139,#140));
#99=EDGE_LOOP('',(#141,#142,#143,#144));
#100=EDGE_LOOP('',(#145,#146,#147,#148));
#101=EDGE_LOOP('',(#149,#150,#151,#152));
#102=EDGE_LOOP('',(#153,#154,#155,#156));
#103=EDGE_LOOP('',(#157,#158,#159,#160,#161,#162,#163,#164,#165,#166,#167,#168
,#169));
#104=EDGE_LOOP('',(#170,#171,#172,#173,#174,#175,#176,#177,#178,#179,#180,#181
,#182));
#105=ORIENTED_EDGE('',*,*,#233,.T.);
#106=ORIENTED_EDGE('',*,*,#195,.F.);
#107=ORIENTED_EDGE('',*,*,#220,.F.);
#108=ORIENTED_EDGE('',*,*,#207,.T.);
#109=ORIENTED_EDGE('',*,*,#232,.T.);
#110=ORIENTED_EDGE('',*,*,#196,.F.);
#111=ORIENTED_EDGE('',*,*,#219,.F.);
#112=ORIENTED_EDGE('',*,*,#195,.T.);
#113=ORIENTED_EDGE('',*,*,#231,.T.);
#114=ORIENTED_EDGE('',*,*,#197,.F.);
#115=ORIENTED_EDGE('',*,*,#218,.F.);
#116=ORIENTED_EDGE('',*,*,#196,.T.);
#117=ORIENTED_EDGE('',*,*,#230,.T.);
#118=ORIENTED_EDGE('',*,*,#198,.F.);
#119=ORIENTED_EDGE('',*,*,#217,.F.);
#120=ORIENTED_EDGE('',*,*,#197,.T.);
#121=ORIENTED_EDGE('',*,*,#229,.T.);
#122=ORIENTED_EDGE('',*,*,#199,.F.);
#123=ORIENTED_EDGE('',*,*,#216,.F.);
#124=ORIENTED_EDGE('',*,*,#198,.T.);
#125=ORIENTED_EDGE('',*,*,#228,.T.);
#126=ORIENTED_EDGE('',*,*,#200,.F.);
#127=ORIENTED_EDGE('',*,*,#215,.F.);
#128=ORIENTED_EDGE('',*,*,#199,.T.);
#129=ORIENTED_EDGE('',*,*,#227,.T.);
#130=ORIENTED_EDGE('',*,*,#201,.F.);
#131=ORIENTED_EDGE('',*,*,#214,.F.);
#132=ORIENTED_EDGE('',*,*,#200,.T.);
#133=ORIENTED_EDGE('',*,*,#226,.T.);
#134=ORIENTED_EDGE('',*,*,#202,.F.);
#135=ORIENTED_EDGE('',*,*,#213,.F.);
#136=ORIENTED_EDGE('',*,*,#201,.T.);
#137=ORIENTED_EDGE('',*,*,#225,.T.);
#138=ORIENTED_EDGE('',*,*,#203,.F.);
#139=ORIENTED_EDGE('',*,*,#212,.F.);
#140=ORIENTED_EDGE('',*,*,#202,.T.);
#141=ORIENTED_EDGE('',*,*,#224,.T.);
#142=ORIENTED_EDGE('',*,*,#204,.F.);
#143=ORIENTED_EDGE('',*,*,#211,.F.);
#144=ORIENTED_EDGE('',*,*,#203,.T.);
#145=ORIENTED_EDGE('',*,*,#223,.T.);
#146=ORIENTED_EDGE('',*,*,#205,.F.);
#147=ORIENTED_EDGE('',*,*,#210,.F.);
#148=ORIENTED_EDGE('',*,*,#204,.T.);
#149=ORIENTED_EDGE('',*,*,#222,.T.);
#150=ORIENTED_EDGE('',*,*,#206,.F.);
#151=ORIENTED_EDGE('',*,*,#209,.F.);
#152=ORIENTED_EDGE('',*,*,#205,.T.);
#153=ORIENTED_EDGE('',*,*,#221,.T.);
#154=ORIENTED_EDGE('',*,*,#207,.F.);
#155=ORIENTED_EDGE('',*,*,#208,.F.);
#156=ORIENTED_EDGE('',*,*,#206,.T.);
#157=ORIENTED_EDGE('',*,*,#220,.T.);
#158=ORIENTED_EDGE('',*,*,#219,.T.);
#159=ORIENTED_EDGE('',*,*,#218,.T.);
#160=ORIENTED_EDGE('',*,*,#217,.T.);
#161=ORIENTED_EDGE('',*,*,#216,.T.);
#162=ORIENTED_EDGE('',*,*,#215,.T.);
#163=ORIENTED_EDGE('',*,*,#214,.T.);
#164=ORIENTED_EDGE('',*,*,#213,.T.);
#165=ORIENTED_EDGE('',*,*,#212,.T.);
#166=ORIENTED_EDGE('',*,*,#211,.T.);
#167=ORIENTED_EDGE('',*,*,#210,.T.);
#168=ORIENTED_EDGE('',*,*,#209,.T.);
#169=ORIENTED_EDGE('',*,*,#208,.T.);
#170=ORIENTED_EDGE('',*,*,#233,.F.);
#171=ORIENTED_EDGE('',*,*,#221,.F.);
#172=ORIENTED_EDGE('',*,*,#222,.F.);
#173=ORIENTED_EDGE('',*,*,#223,.F.);
#174=ORIENTED_EDGE('',*,*,#224,.F.);
#175=ORIENTED_EDGE('',*,*,#225,.F.);
#176=ORIENTED_EDGE('',*,*,#226,.F.);
#177=ORIENTED_EDGE('',*,*,#227,.F.);
#178=ORIENTED_EDGE('',*,*,#228,.F.);
#179=ORIENTED_EDGE('',*,*,#229,.F.);
#180=ORIENTED_EDGE('',*,*,#230,.F.);
#181=ORIENTED_EDGE('',*,*,#231,.F.);
#182=ORIENTED_EDGE('',*,*,#232,.F.);
#183=CYLINDRICAL_SURFACE('',#330,3.04308072511455);
#184=CIRCLE('',#328,3.04308072511455);
#185=CIRCLE('',#329,3.04308072511455);
#186=B_SPLINE_CURVE_WITH_KNOTS('',3,(#449,#450,#451,#452,#453,#454,#455,#456,
#457,#458,#459,#460,#461,#462,#463,#464,#465,#466,#467,#468,#469,#470,#471,
#472,#473,#474,#475,#476),.UNSPECIFIED.,.F.,.F.,(4,3,3,3,3,3,3,3,3,4),(0.,1.,
2.,3.,4.,5.,6.,7.,8.,9.),.UNSPECIFIED.);
#187=B_SPLINE_CURVE_WITH_KNOTS('',3,(#479,#480,#481,#482,#483,#484,#485,#486,
#487,#488,#489,#490,#491,#492,#493,#494,#495,#496,#497,#498,#499,#500,#501,
#502,#503,#504,#505,#506,#507,#508,#509),.UNSPECIFIED.,.F.,.F.,(4,3,3,3,3,3,3,
3,3,3,4),(0.,1.,2.,3.,4.,5.,6.,7.,8.,9.,10.),.UNSPECIFIED.);
#188=B_SPLINE_CURVE_WITH_KNOTS('',3,(#511,#512,#513,#514,#515,#516,#517,#518,
#519,#520,#521,#522,#523,#524,#525,#526,#527,#528,#529),.UNSPECIFIED.,.F.,.F.,
(4,3,3,3,3,3,4),(0.,1.,2.,3.,4.,5.,6.),.UNSPECIFIED.);
#189=B_SPLINE_CURVE_WITH_KNOTS('',3,(#537,#538,#539,#540,#541,#542,#543,#544,
#545,#546,#547,#548,#549,#550,#551,#552,#553,#554,#555,#556,#557,#558,#559,
#560,#561,#562,#563,#564),.UNSPECIFIED.,.F.,.F.,(4,3,3,3,3,3,3,3,3,4),(0.,1.,
2.,3.,4.,5.,6.,7.,8.,9.),.UNSPECIFIED.);
#190=B_SPLINE_CURVE_WITH_KNOTS('',3,(#567,#568,#569,#570,#571,#572,#573,#574,
#575,#576,#577,#578,#579,#580,#581,#582,#583,#584,#585,#586,#587,#588,#589,
#590,#591,#592,#593,#594,#595,#596,#597),.UNSPECIFIED.,.F.,.F.,(4,3,3,3,3,3,3,
3,3,3,4),(0.,1.,2.,3.,4.,5.,6.,7.,8.,9.,10.),.UNSPECIFIED.);
#191=B_SPLINE_CURVE_WITH_KNOTS('',3,(#599,#600,#601,#602,#603,#604,#605,#606,
#607,#608,#609,#610,#611,#612,#613,#614,#615,#616,#617),.UNSPECIFIED.,.F.,.F.,
(4,3,3,3,3,3,4),(0.,1.,2.,3.,4.,5.,6.),.UNSPECIFIED.);
#192=B_SPLINE_CURVE_WITH_KNOTS('',3,(#626,#627,#628,#629,#630,#631,#632,#633,
#634,#635,#636,#637,#638,#639,#640,#641,#642,#643,#644),.UNSPECIFIED.,.F.,.F.,
(4,3,3,3,3,3,4),(0.,1.,2.,3.,4.,5.,6.),.UNSPECIFIED.);
#193=B_SPLINE_CURVE_WITH_KNOTS('',3,(#646,#647,#648,#649,#650,#651,#652,#653,
#654,#655,#656,#657,#658,#659,#660,#661,#662,#663,#664,#665,#666,#667,#668,
#669,#670,#671,#672,#673,#674,#675,#676),.UNSPECIFIED.,.F.,.F.,(4,3,3,3,3,3,3,
3,3,3,4),(0.,1.,2.,3.,4.,5.,6.,7.,8.,9.,10.),.UNSPECIFIED.);
#194=B_SPLINE_CURVE_WITH_KNOTS('',3,(#679,#680,#681,#682,#683,#684,#685,#686,
#687,#688,#689,#690,#691,#692,#693,#694,#695,#696,#697,#698,#699,#700,#701,
#702,#703,#704,#705,#706),.UNSPECIFIED.,.F.,.F.,(4,3,3,3,3,3,3,3,3,4),(0.,1.,
2.,3.,4.,5.,6.,7.,8.,9.),.UNSPECIFIED.);
#195=EDGE_CURVE('',#311,#324,#234,.T.);
#196=EDGE_CURVE('',#310,#323,#235,.T.);
#197=EDGE_CURVE('',#309,#322,#236,.T.);
#198=EDGE_CURVE('',#308,#321,#237,.T.);
#199=EDGE_CURVE('',#307,#320,#238,.T.);
#200=EDGE_CURVE('',#306,#319,#239,.T.);
#201=EDGE_CURVE('',#305,#318,#240,.T.);
#202=EDGE_CURVE('',#304,#317,#241,.T.);
#203=EDGE_CURVE('',#303,#316,#242,.T.);
#204=EDGE_CURVE('',#302,#315,#243,.T.);
#205=EDGE_CURVE('',#301,#314,#244,.T.);
#206=EDGE_CURVE('',#300,#313,#245,.T.);
#207=EDGE_CURVE('',#299,#312,#246,.T.);
#208=EDGE_CURVE('',#300,#299,#247,.T.);
#209=EDGE_CURVE('',#301,#300,#248,.T.);
#210=EDGE_CURVE('',#302,#301,#249,.T.);
#211=EDGE_CURVE('',#303,#302,#186,.T.);
#212=EDGE_CURVE('',#304,#303,#250,.T.);
#213=EDGE_CURVE('',#305,#304,#251,.T.);
#214=EDGE_CURVE('',#306,#305,#187,.T.);
#215=EDGE_CURVE('',#307,#306,#252,.T.);
#216=EDGE_CURVE('',#308,#307,#188,.T.);
#217=EDGE_CURVE('',#309,#308,#253,.T.);
#218=EDGE_CURVE('',#310,#309,#254,.T.);
#219=EDGE_CURVE('',#311,#310,#255,.T.);
#220=EDGE_CURVE('',#299,#311,#184,.T.);
#221=EDGE_CURVE('',#313,#312,#256,.T.);
#222=EDGE_CURVE('',#314,#313,#257,.T.);
#223=EDGE_CURVE('',#315,#314,#258,.T.);
#224=EDGE_CURVE('',#316,#315,#189,.T.);
#225=EDGE_CURVE('',#317,#316,#259,.T.);
#226=EDGE_CURVE('',#318,#317,#260,.T.);
#227=EDGE_CURVE('',#319,#318,#190,.T.);
#228=EDGE_CURVE('',#320,#319,#261,.T.);
#229=EDGE_CURVE('',#321,#320,#191,.T.);
#230=EDGE_CURVE('',#322,#321,#262,.T.);
#231=EDGE_CURVE('',#323,#322,#263,.T.);
#232=EDGE_CURVE('',#324,#323,#264,.T.);
#233=EDGE_CURVE('',#312,#324,#185,.T.);
#234=LINE('',#433,#265);
#235=LINE('',#434,#266);
#236=LINE('',#435,#267);
#237=LINE('',#436,#268);
#238=LINE('',#437,#269);
#239=LINE('',#438,#270);
#240=LINE('',#439,#271);
#241=LINE('',#440,#272);
#242=LINE('',#441,#273);
#243=LINE('',#442,#274);
#244=LINE('',#443,#275);
#245=LINE('',#444,#276);
#246=LINE('',#445,#277);
#247=LINE('',#446,#278);
#248=LINE('',#447,#279);
#249=LINE('',#448,#280);
#250=LINE('',#477,#281);
#251=LINE('',#478,#282);
#252=LINE('',#510,#283);
#253=LINE('',#530,#284);
#254=LINE('',#531,#285);
#255=LINE('',#532,#286);
#256=LINE('',#534,#287);
#257=LINE('',#535,#288);
#258=LINE('',#536,#289);
#259=LINE('',#565,#290);
#260=LINE('',#566,#291);
#261=LINE('',#598,#292);
#262=LINE('',#618,#293);
#263=LINE('',#619,#294);
#264=LINE('',#620,#295);
#265=VECTOR('',#344,1.);
#266=VECTOR('',#345,1.);
#267=VECTOR('',#346,1.);
#268=VECTOR('',#347,1.);
#269=VECTOR('',#348,1.);
#270=VECTOR('',#349,1.);
#271=VECTOR('',#350,1.);
#272=VECTOR('',#351,1.);
#273=VECTOR('',#352,1.);
#274=VECTOR('',#353,1.);
#275=VECTOR('',#354,1.);
#276=VECTOR('',#355,1.);
#277=VECTOR('',#356,1.);
#278=VECTOR('',#357,1.);
#279=VECTOR('',#358,1.);
#280=VECTOR('',#359,1.);
#281=VECTOR('',#360,1.);
#282=VECTOR('',#361,1.);
#283=VECTOR('',#362,1.);
#284=VECTOR('',#363,1.);
#285=VECTOR('',#364,1.);
#286=VECTOR('',#365,1.);
#287=VECTOR('',#368,1.);
#288=VECTOR('',#369,1.);
#289=VECTOR('',#370,1.);
#290=VECTOR('',#371,1.);
#291=VECTOR('',#372,1.);
#292=VECTOR('',#373,1.);
#293=VECTOR('',#374,1.);
#294=VECTOR('',#375,1.);
#295=VECTOR('',#376,1.);
#296=VECTOR('',#387,1.);
#297=VECTOR('',#390,1.);
#298=VECTOR('',#395,1.);
#299=VERTEX_POINT('',#407);
#300=VERTEX_POINT('',#408);
#301=VERTEX_POINT('',#409);
#302=VERTEX_POINT('',#410);
#303=VERTEX_POINT('',#411);
#304=VERTEX_POINT('',#412);
#305=VERTEX_POINT('',#413);
#306=VERTEX_POINT('',#414);
#307=VERTEX_POINT('',#415);
#308=VERTEX_POINT('',#416);
#309=VERTEX_POINT('',#417);
#310=VERTEX_POINT('',#418);
#311=VERTEX_POINT('',#419);
#312=VERTEX_POINT('',#420);
#313=VERTEX_POINT('',#421);
#314=VERTEX_POINT('',#422);
#315=VERTEX_POINT('',#423);
#316=VERTEX_POINT('',#424);
#317=VERTEX_POINT('',#425);
#318=VERTEX_POINT('',#426);
#319=VERTEX_POINT('',#427);
#320=VERTEX_POINT('',#428);
#321=VERTEX_POINT('',#429);
#322=VERTEX_POINT('',#430);
#323=VERTEX_POINT('',#431);
#324=VERTEX_POINT('',#432);
#325=SHAPE_DEFINITION_REPRESENTATION(#712,#326);
#326=SHAPE_REPRESENTATION('master',(#327),#714);
#327=AXIS2_PLACEMENT_3D('',#406,#343,#342);
#328=AXIS2_PLACEMENT_3D('',#533,#367,#366);
#329=AXIS2_PLACEMENT_3D('',#621,#378,#377);
#330=AXIS2_PLACEMENT_3D('',#622,#380,#379);
#331=AXIS2_PLACEMENT_3D('',#623,#382,#381);
#332=AXIS2_PLACEMENT_3D('',#624,#384,#383);
#333=AXIS2_PLACEMENT_3D('',#625,#386,#385);
#334=AXIS2_PLACEMENT_3D('',#645,#389,#388);
#335=AXIS2_PLACEMENT_3D('',#677,#392,#391);
#336=AXIS2_PLACEMENT_3D('',#678,#394,#393);
#337=AXIS2_PLACEMENT_3D('',#707,#397,#396);
#338=AXIS2_PLACEMENT_3D('',#708,#399,#398);
#339=AXIS2_PLACEMENT_3D('',#709,#401,#400);
#340=AXIS2_PLACEMENT_3D('',#710,#403,#402);
#341=AXIS2_PLACEMENT_3D('',#711,#405,#404);
#342=DIRECTION('',(1.,0.,0.));
#343=DIRECTION('',(0.,0.,1.));
#344=DIRECTION('',(6.12323399573677E-017,1.,-3.74939945665464E-033));
#345=DIRECTION('',(6.12323399573677E-017,1.,-3.74939945665464E-033));
#346=DIRECTION('',(6.12323399573677E-017,1.,-3.74939945665464E-033));
#347=DIRECTION('',(6.12323399573677E-017,1.,-3.74939945665464E-033));
#348=DIRECTION('',(6.12323399573677E-017,1.,-3.74939945665464E-033));
#349=DIRECTION('',(6.12323399573677E-017,1.,-3.74939945665464E-033));
#350=DIRECTION('',(6.12323399573677E-017,1.,-3.74939945665464E-033));
#351=DIRECTION('',(6.12323399573677E-017,1.,-3.74939945665464E-033));
#352=DIRECTION('',(6.12323399573677E-017,1.,-3.74939945665464E-033));
#353=DIRECTION('',(6.12323399573677E-017,1.,-3.74939945665464E-033));
#354=DIRECTION('',(6.12323399573677E-017,1.,-3.74939945665464E-033));
#355=DIRECTION('',(6.12323399573677E-017,1.,-3.74939945665464E-033));
#356=DIRECTION('',(6.12323399573677E-017,1.,-3.74939945665464E-033));
#357=DIRECTION('',(0.,0.,-1.));
#358=DIRECTION('',(-1.,0.,0.));
#359=DIRECTION('',(0.0575560749268296,0.,0.998342275093576));
#360=DIRECTION('',(0.640434083247637,0.,0.768013141173222));
#361=DIRECTION('',(0.217069535804073,0.,0.97615614356813));
#362=DIRECTION('',(0.133219335311532,0.,0.991086579819924));
#363=DIRECTION('',(1.,-0.,-0.));
#364=DIRECTION('',(-0.,-0.,-1.));
#365=DIRECTION('',(-0.81794132270753,0.,-0.575301653576153));
#366=DIRECTION('',(0.998173734844482,0.,-0.0604085678245882));
#367=DIRECTION('',(0.,1.,0.));
#368=DIRECTION('',(0.,0.,-1.));
#369=DIRECTION('',(-1.,0.,0.));
#370=DIRECTION('',(0.0575560749268296,0.,0.998342275093576));
#371=DIRECTION('',(0.640434083247637,0.,0.768013141173222));
#372=DIRECTION('',(0.217069535804073,0.,0.97615614356813));
#373=DIRECTION('',(0.133219335311532,0.,0.991086579819924));
#374=DIRECTION('',(1.,-0.,-0.));
#375=DIRECTION('',(-0.,-0.,-1.));
#376=DIRECTION('',(-0.81794132270753,0.,-0.575301653576153));
#377=DIRECTION('',(0.998173734844482,0.,-0.0604085678245882));
#378=DIRECTION('',(0.,1.,0.));
#379=DIRECTION('',(-1.,6.12323399573677E-017,0.));
#380=DIRECTION('',(6.12323399573677E-017,1.,-3.74939945665464E-033));
#381=DIRECTION('',(-0.817941322707531,0.,-0.575301653576153));
#382=DIRECTION('',(0.575301653576153,-3.52270664298107E-017,-0.817941322707531
));
#383=DIRECTION('',(6.12323399573677E-017,1.,0.));
#384=DIRECTION('',(1.,-6.12323399573677E-017,0.));
#385=DIRECTION('',(0.,-1.,3.74939945665464E-033));
#386=DIRECTION('',(0.,3.74939945665464E-033,1.));
#387=DIRECTION('',(6.12323399573677E-017,1.,-3.74939945665464E-033));
#388=DIRECTION('',(0.133219335311532,0.,0.991086579819924));
#389=DIRECTION('',(-0.991086579819924,6.06865503827184E-017,0.133219335311532)
);
#390=DIRECTION('',(6.12323399573677E-017,1.,-3.74939945665464E-033));
#391=DIRECTION('',(0.217069535804073,-3.08148791101958E-033,0.976156143568131)
);
#392=DIRECTION('',(-0.97615614356813,5.97723248344368E-017,0.217069535804073)
);
#393=DIRECTION('',(0.640434083247637,0.,0.768013141173222));
#394=DIRECTION('',(-0.768013141173222,4.70272417520445E-017,0.640434083247637)
);
#395=DIRECTION('',(6.12323399573677E-017,1.,-3.74939945665464E-033));
#396=DIRECTION('',(0.0575560749268296,0.,0.998342275093576));
#397=DIRECTION('',(-0.998342275093576,6.11308335823417E-017,0.0575560749268296
));
#398=DIRECTION('',(0.,1.,-3.74939945665464E-033));
#399=DIRECTION('',(-0.,-3.74939945665464E-033,-1.));
#400=DIRECTION('',(6.12323399573677E-017,1.,0.));
#401=DIRECTION('',(1.,-6.12323399573677E-017,0.));
#402=DIRECTION('',(0.,-0.,1.));
#403=DIRECTION('',(0.,1.,0.));
#404=DIRECTION('',(0.,-0.,1.));
#405=DIRECTION('',(0.,1.,0.));
#406=CARTESIAN_POINT('',(0.,0.,0.));
#407=CARTESIAN_POINT('',(183.021702540154,168.281361,2247.45704182158));
#408=CARTESIAN_POINT('',(183.021702540154,168.281361,2249.5));
#409=CARTESIAN_POINT('',(218.080448986657,168.281361,2249.5));
#410=CARTESIAN_POINT('',(217.640986019505,168.281361,2241.87726931512));
#411=CARTESIAN_POINT('',(188.19953231798,168.281361,2233.66511098071));
#412=CARTESIAN_POINT('',(187.705188856636,168.281361,2233.07229076002));
#413=CARTESIAN_POINT('',(186.914230693994,168.281361,2229.5153721583));
#414=CARTESIAN_POINT('',(122.617916519208,168.281361,2189.2589896903));
#415=CARTESIAN_POINT('',(121.728097056718,168.281361,2182.6391688837));
#416=CARTESIAN_POINT('',(112.759753938651,168.281361,2170.87530382356));
#417=CARTESIAN_POINT('',(103.080454,168.281361,2170.87530382356));
#418=CARTESIAN_POINT('',(103.080454,168.281361,2189.82997359348));
#419=CARTESIAN_POINT('',(181.734868660457,168.281361,2245.15180849655));
#420=CARTESIAN_POINT('',(183.021702540154,2168.281361,2247.45704182158));
#421=CARTESIAN_POINT('',(183.021702540154,2168.281361,2249.5));
#422=CARTESIAN_POINT('',(218.080448986657,2168.281361,2249.5));
#423=CARTESIAN_POINT('',(217.640986019505,2168.281361,2241.87726931512));
#424=CARTESIAN_POINT('',(188.19953231798,2168.281361,2233.66511098071));
#425=CARTESIAN_POINT('',(187.705188856636,2168.281361,2233.07229076002));
#426=CARTESIAN_POINT('',(186.914230693994,2168.281361,2229.5153721583));
#427=CARTESIAN_POINT('',(122.617916519208,2168.281361,2189.2589896903));
#428=CARTESIAN_POINT('',(121.728097056718,2168.281361,2182.6391688837));
#429=CARTESIAN_POINT('',(112.759753938651,2168.281361,2170.87530382356));
#430=CARTESIAN_POINT('',(103.080454,2168.281361,2170.87530382356));
#431=CARTESIAN_POINT('',(103.080454,2168.281361,2189.82997359348));
#432=CARTESIAN_POINT('',(181.734868660458,2168.281361,2245.15180849655));
#433=CARTESIAN_POINT('',(181.734868660457,168.281361,2245.15180849655));
#434=CARTESIAN_POINT('',(103.080454,168.281361,2189.82997359348));
#435=CARTESIAN_POINT('',(103.080454,168.281361,2170.87530382356));
#436=CARTESIAN_POINT('',(112.759753938651,168.281361,2170.87530382356));
#437=CARTESIAN_POINT('',(121.728097056718,168.281361,2182.6391688837));
#438=CARTESIAN_POINT('',(122.617916519208,168.281361,2189.2589896903));
#439=CARTESIAN_POINT('',(186.914230693994,168.281361,2229.5153721583));
#440=CARTESIAN_POINT('',(187.705188856636,168.281361,2233.07229076002));
#441=CARTESIAN_POINT('',(188.19953231798,168.281361,2233.66511098071));
#442=CARTESIAN_POINT('',(217.640986019505,168.281361,2241.87726931512));
#443=CARTESIAN_POINT('',(218.080448986657,168.281361,2249.5));
#444=CARTESIAN_POINT('',(183.021702540154,168.281361,2249.5));
#445=CARTESIAN_POINT('',(183.021702540154,168.281361,2247.45704182158));
#446=CARTESIAN_POINT('',(183.021702540154,168.281361,2249.5));
#447=CARTESIAN_POINT('',(218.080448986657,168.281361,2249.5));
#448=CARTESIAN_POINT('',(217.640986019505,168.281361,2241.87726931512));
#449=CARTESIAN_POINT('',(188.19953231798,168.281361,2233.66511098071));
#450=CARTESIAN_POINT('',(188.985520871035,168.281361,2233.48703137224));
#451=CARTESIAN_POINT('',(189.771510701157,168.281361,2233.30895778412));
#452=CARTESIAN_POINT('',(190.572391740333,168.281361,2233.17110419977));
#453=CARTESIAN_POINT('',(191.71768711848,168.281361,2232.97396746499));
#454=CARTESIAN_POINT('',(192.893435417435,168.281361,2232.8590817137));
#455=CARTESIAN_POINT('',(194.032806430678,168.281361,2232.97349581296));
#456=CARTESIAN_POINT('',(195.55505966564,168.281361,2233.12635842812));
#457=CARTESIAN_POINT('',(197.012378659434,168.281361,2233.68852623207));
#458=CARTESIAN_POINT('',(198.481918833934,168.281361,2234.2579372082));
#459=CARTESIAN_POINT('',(199.393835912397,168.281361,2234.61128283482));
#460=CARTESIAN_POINT('',(200.310459088543,168.281361,2234.96741764168));
#461=CARTESIAN_POINT('',(201.05251449886,168.281361,2235.54237610712));
#462=CARTESIAN_POINT('',(202.010503167501,168.281361,2236.28464371567));
#463=CARTESIAN_POINT('',(202.677546013331,168.281361,2237.39161685328));
#464=CARTESIAN_POINT('',(203.524249532546,168.281361,2238.3088564336));
#465=CARTESIAN_POINT('',(204.264257978668,168.281361,2239.11051252825));
#466=CARTESIAN_POINT('',(205.141501032939,168.281361,2239.76723979737));
#467=CARTESIAN_POINT('',(206.094853873398,168.281361,2240.28492232739));
#468=CARTESIAN_POINT('',(207.478968353331,168.281361,2241.03651382153));
#469=CARTESIAN_POINT('',(209.02350973502,168.281361,2241.49502189213));
#470=CARTESIAN_POINT('',(210.583296668812,168.281361,2241.70380361906));
#471=CARTESIAN_POINT('',(211.929930983334,168.281361,2241.88405428768));
#472=CARTESIAN_POINT('',(213.287928793617,168.281361,2241.87816776503));
#473=CARTESIAN_POINT('',(214.643712522722,168.281361,2241.87647134051));
#474=CARTESIAN_POINT('',(215.643606538398,168.281361,2241.87522022304));
#475=CARTESIAN_POINT('',(216.642296293017,168.281361,2241.87624814215));
#476=CARTESIAN_POINT('',(217.640986019505,168.281361,2241.87726931512));
#477=CARTESIAN_POINT('',(187.705188856636,168.281361,2233.07229076002));
#478=CARTESIAN_POINT('',(186.914230693994,168.281361,2229.5153721583));
#479=CARTESIAN_POINT('',(122.617916519208,168.281361,2189.2589896903));
#480=CARTESIAN_POINT('',(125.428422206758,168.281361,2189.3365853998));
#481=CARTESIAN_POINT('',(128.238927497859,168.281361,2189.41418760695));
#482=CARTESIAN_POINT('',(131.021787580054,168.281361,2189.75301489017));
#483=CARTESIAN_POINT('',(134.382789574342,168.281361,2190.16223387387));
#484=CARTESIAN_POINT('',(137.703466540969,168.281361,2190.95249206236));
#485=CARTESIAN_POINT('',(140.908705089127,168.281361,2192.12429515511));
#486=CARTESIAN_POINT('',(144.059946321902,168.281361,2193.27635737047));
#487=CARTESIAN_POINT('',(147.0996058596,168.281361,2194.79721731997));
#488=CARTESIAN_POINT('',(149.708056366162,168.281361,2196.86685380009));
#489=CARTESIAN_POINT('',(152.209718199309,168.281361,2198.85176038651));
#490=CARTESIAN_POINT('',(154.314755245258,168.281361,2201.34142999727));
#491=CARTESIAN_POINT('',(156.134552212501,168.281361,2203.98069104125));
#492=CARTESIAN_POINT('',(158.328719732687,168.281361,2207.162903653));
#493=CARTESIAN_POINT('',(160.108215705105,168.281361,2210.56258679494));
#494=CARTESIAN_POINT('',(161.96783406222,168.281361,2213.95982720864));
#495=CARTESIAN_POINT('',(163.176234023602,168.281361,2216.16739048044));
#496=CARTESIAN_POINT('',(164.418465981152,168.281361,2218.37392230051));
#497=CARTESIAN_POINT('',(166.02147880886,168.281361,2220.28323300731));
#498=CARTESIAN_POINT('',(167.712331074407,168.281361,2222.29716719325));
#499=CARTESIAN_POINT('',(169.804586543095,168.281361,2223.98041448093));
#500=CARTESIAN_POINT('',(172.052500263214,168.281361,2225.42099885031));
#501=CARTESIAN_POINT('',(174.18586466343,168.281361,2226.78817383645));
#502=CARTESIAN_POINT('',(176.459427431849,168.281361,2227.93678703833));
#503=CARTESIAN_POINT('',(178.874468981596,168.281361,2228.58269716189));
#504=CARTESIAN_POINT('',(180.607978800873,168.281361,2229.04632957504));
#505=CARTESIAN_POINT('',(182.414383111233,168.281361,2229.25095293598));
#506=CARTESIAN_POINT('',(184.213402472232,168.281361,2229.37312379105));
#507=CARTESIAN_POINT('',(185.114914755137,168.281361,2229.4343452147));
#508=CARTESIAN_POINT('',(186.014572570897,168.281361,2229.4748616266));
#509=CARTESIAN_POINT('',(186.914230693994,168.281361,2229.5153721583));
#510=CARTESIAN_POINT('',(121.728097056718,168.281361,2182.6391688837));
#511=CARTESIAN_POINT('',(112.759753938651,168.281361,2170.87530382356));
#512=CARTESIAN_POINT('',(112.762716785119,168.281361,2171.67126706186));
#513=CARTESIAN_POINT('',(112.765686125967,168.281361,2172.46723003452));
#514=CARTESIAN_POINT('',(112.829881147614,168.281361,2173.25285768994));
#515=CARTESIAN_POINT('',(112.919322663495,168.281361,2174.34745547363));
#516=CARTESIAN_POINT('',(113.127616926954,168.281361,2175.42199009372));
#517=CARTESIAN_POINT('',(113.423098540867,168.281361,2176.51336631582));
#518=CARTESIAN_POINT('',(113.734469432732,168.281361,2177.66343038626));
#519=CARTESIAN_POINT('',(114.142656645789,168.281361,2178.83219604519));
#520=CARTESIAN_POINT('',(114.90613522724,168.281361,2179.67506974033));
#521=CARTESIAN_POINT('',(115.446377922375,168.281361,2180.27149296395));
#522=CARTESIAN_POINT('',(116.164517667942,168.281361,2180.70473963931));
#523=CARTESIAN_POINT('',(116.883514662988,168.281361,2181.15712310239));
#524=CARTESIAN_POINT('',(117.90004286301,168.281361,2181.79670929066));
#525=CARTESIAN_POINT('',(118.918284593935,168.281361,2182.47454744404));
#526=CARTESIAN_POINT('',(120.04732456889,168.281361,2182.63916030418));
#527=CARTESIAN_POINT('',(120.590486470892,168.281361,2182.71835274749));
#528=CARTESIAN_POINT('',(121.159291609567,168.281361,2182.67876390707));
#529=CARTESIAN_POINT('',(121.728097056718,168.281361,2182.6391688837));
#530=CARTESIAN_POINT('',(103.080454,168.281361,2170.87530382356));
#531=CARTESIAN_POINT('',(103.080454,168.281361,2189.82997359348));
#532=CARTESIAN_POINT('',(181.734868660457,168.281361,2245.15180849655));
#533=CARTESIAN_POINT('',(179.984179287333,168.281361,2247.64086996996));
#534=CARTESIAN_POINT('',(183.021702540154,2168.281361,2249.5));
#535=CARTESIAN_POINT('',(218.080448986657,2168.281361,2249.5));
#536=CARTESIAN_POINT('',(217.640986019505,2168.281361,2241.87726931512));
#537=CARTESIAN_POINT('',(188.19953231798,2168.281361,2233.66511098071));
#538=CARTESIAN_POINT('',(188.985520871035,2168.281361,2233.48703137224));
#539=CARTESIAN_POINT('',(189.771510701157,2168.281361,2233.30895778412));
#540=CARTESIAN_POINT('',(190.572391740333,2168.281361,2233.17110419977));
#541=CARTESIAN_POINT('',(191.71768711848,2168.281361,2232.97396746499));
#542=CARTESIAN_POINT('',(192.893435417435,2168.281361,2232.8590817137));
#543=CARTESIAN_POINT('',(194.032806430678,2168.281361,2232.97349581296));
#544=CARTESIAN_POINT('',(195.55505966564,2168.281361,2233.12635842812));
#545=CARTESIAN_POINT('',(197.012378659434,2168.281361,2233.68852623207));
#546=CARTESIAN_POINT('',(198.481918833934,2168.281361,2234.2579372082));
#547=CARTESIAN_POINT('',(199.393835912397,2168.281361,2234.61128283482));
#548=CARTESIAN_POINT('',(200.310459088543,2168.281361,2234.96741764168));
#549=CARTESIAN_POINT('',(201.05251449886,2168.281361,2235.54237610712));
#550=CARTESIAN_POINT('',(202.010503167501,2168.281361,2236.28464371567));
#551=CARTESIAN_POINT('',(202.677546013331,2168.281361,2237.39161685328));
#552=CARTESIAN_POINT('',(203.524249532546,2168.281361,2238.3088564336));
#553=CARTESIAN_POINT('',(204.264257978668,2168.281361,2239.11051252825));
#554=CARTESIAN_POINT('',(205.141501032939,2168.281361,2239.76723979737));
#555=CARTESIAN_POINT('',(206.094853873398,2168.281361,2240.28492232739));
#556=CARTESIAN_POINT('',(207.478968353331,2168.281361,2241.03651382153));
#557=CARTESIAN_POINT('',(209.023509735021,2168.281361,2241.49502189213));
#558=CARTESIAN_POINT('',(210.583296668812,2168.281361,2241.70380361906));
#559=CARTESIAN_POINT('',(211.929930983334,2168.281361,2241.88405428768));
#560=CARTESIAN_POINT('',(213.287928793617,2168.281361,2241.87816776503));
#561=CARTESIAN_POINT('',(214.643712522722,2168.281361,2241.87647134051));
#562=CARTESIAN_POINT('',(215.643606538399,2168.281361,2241.87522022304));
#563=CARTESIAN_POINT('',(216.642296293017,2168.281361,2241.87624814215));
#564=CARTESIAN_POINT('',(217.640986019505,2168.281361,2241.87726931512));
#565=CARTESIAN_POINT('',(187.705188856636,2168.281361,2233.07229076002));
#566=CARTESIAN_POINT('',(186.914230693994,2168.281361,2229.5153721583));
#567=CARTESIAN_POINT('',(122.617916519208,2168.281361,2189.2589896903));
#568=CARTESIAN_POINT('',(125.428422206758,2168.281361,2189.3365853998));
#569=CARTESIAN_POINT('',(128.238927497859,2168.281361,2189.41418760695));
#570=CARTESIAN_POINT('',(131.021787580054,2168.281361,2189.75301489017));
#571=CARTESIAN_POINT('',(134.382789574342,2168.281361,2190.16223387387));
#572=CARTESIAN_POINT('',(137.703466540969,2168.281361,2190.95249206236));
#573=CARTESIAN_POINT('',(140.908705089127,2168.281361,2192.12429515511));
#574=CARTESIAN_POINT('',(144.059946321902,2168.281361,2193.27635737047));
#575=CARTESIAN_POINT('',(147.0996058596,2168.281361,2194.79721731997));
#576=CARTESIAN_POINT('',(149.708056366162,2168.281361,2196.86685380009));
#577=CARTESIAN_POINT('',(152.20971819931,2168.281361,2198.85176038651));
#578=CARTESIAN_POINT('',(154.314755245258,2168.281361,2201.34142999727));
#579=CARTESIAN_POINT('',(156.134552212502,2168.281361,2203.98069104125));
#580=CARTESIAN_POINT('',(158.328719732687,2168.281361,2207.162903653));
#581=CARTESIAN_POINT('',(160.108215705105,2168.281361,2210.56258679494));
#582=CARTESIAN_POINT('',(161.96783406222,2168.281361,2213.95982720864));
#583=CARTESIAN_POINT('',(163.176234023602,2168.281361,2216.16739048044));
#584=CARTESIAN_POINT('',(164.418465981152,2168.281361,2218.37392230051));
#585=CARTESIAN_POINT('',(166.02147880886,2168.281361,2220.28323300731));
#586=CARTESIAN_POINT('',(167.712331074407,2168.281361,2222.29716719325));
#587=CARTESIAN_POINT('',(169.804586543095,2168.281361,2223.98041448093));
#588=CARTESIAN_POINT('',(172.052500263214,2168.281361,2225.42099885031));
#589=CARTESIAN_POINT('',(174.185864663431,2168.281361,2226.78817383645));
#590=CARTESIAN_POINT('',(176.459427431849,2168.281361,2227.93678703833));
#591=CARTESIAN_POINT('',(178.874468981596,2168.281361,2228.58269716189));
#592=CARTESIAN_POINT('',(180.607978800873,2168.281361,2229.04632957504));
#593=CARTESIAN_POINT('',(182.414383111233,2168.281361,2229.25095293598));
#594=CARTESIAN_POINT('',(184.213402472232,2168.281361,2229.37312379105));
#595=CARTESIAN_POINT('',(185.114914755137,2168.281361,2229.4343452147));
#596=CARTESIAN_POINT('',(186.014572570897,2168.281361,2229.4748616266));
#597=CARTESIAN_POINT('',(186.914230693994,2168.281361,2229.5153721583));
#598=CARTESIAN_POINT('',(121.728097056718,2168.281361,2182.6391688837));
#599=CARTESIAN_POINT('',(112.759753938651,2168.281361,2170.87530382356));
#600=CARTESIAN_POINT('',(112.762716785119,2168.281361,2171.67126706186));
#601=CARTESIAN_POINT('',(112.765686125967,2168.281361,2172.46723003452));
#602=CARTESIAN_POINT('',(112.829881147614,2168.281361,2173.25285768994));
#603=CARTESIAN_POINT('',(112.919322663495,2168.281361,2174.34745547363));
#604=CARTESIAN_POINT('',(113.127616926955,2168.281361,2175.42199009372));
#605=CARTESIAN_POINT('',(113.423098540867,2168.281361,2176.51336631582));
#606=CARTESIAN_POINT('',(113.734469432732,2168.281361,2177.66343038626));
#607=CARTESIAN_POINT('',(114.142656645789,2168.281361,2178.83219604519));
#608=CARTESIAN_POINT('',(114.906135227241,2168.281361,2179.67506974033));
#609=CARTESIAN_POINT('',(115.446377922375,2168.281361,2180.27149296395));
#610=CARTESIAN_POINT('',(116.164517667943,2168.281361,2180.70473963931));
#611=CARTESIAN_POINT('',(116.883514662988,2168.281361,2181.15712310239));
#612=CARTESIAN_POINT('',(117.90004286301,2168.281361,2181.79670929066));
#613=CARTESIAN_POINT('',(118.918284593935,2168.281361,2182.47454744404));
#614=CARTESIAN_POINT('',(120.04732456889,2168.281361,2182.63916030418));
#615=CARTESIAN_POINT('',(120.590486470892,2168.281361,2182.71835274749));
#616=CARTESIAN_POINT('',(121.159291609567,2168.281361,2182.67876390707));
#617=CARTESIAN_POINT('',(121.728097056718,2168.281361,2182.6391688837));
#618=CARTESIAN_POINT('',(103.080454,2168.281361,2170.87530382356));
#619=CARTESIAN_POINT('',(103.080454,2168.281361,2189.82997359348));
#620=CARTESIAN_POINT('',(181.734868660458,2168.281361,2245.15180849655));
#621=CARTESIAN_POINT('',(179.984179287333,2168.281361,2247.64086996996));
#622=CARTESIAN_POINT('',(179.984179287333,168.281361,2247.64086996996));
#623=CARTESIAN_POINT('',(181.734868660457,168.281361,2245.15180849655));
#624=CARTESIAN_POINT('',(103.080454,168.281361,2189.82997359348));
#625=CARTESIAN_POINT('',(103.080454,168.281361,2170.87530382356));
#626=CARTESIAN_POINT('',(112.759753938651,168.281361,2170.87530382356));
#627=CARTESIAN_POINT('',(112.762716785119,168.281361,2171.67126706186));
#628=CARTESIAN_POINT('',(112.765686125967,168.281361,2172.46723003452));
#629=CARTESIAN_POINT('',(112.829881147614,168.281361,2173.25285768994));
#630=CARTESIAN_POINT('',(112.919322663495,168.281361,2174.34745547363));
#631=CARTESIAN_POINT('',(113.127616926954,168.281361,2175.42199009372));
#632=CARTESIAN_POINT('',(113.423098540867,168.281361,2176.51336631582));
#633=CARTESIAN_POINT('',(113.734469432732,168.281361,2177.66343038626));
#634=CARTESIAN_POINT('',(114.142656645789,168.281361,2178.83219604519));
#635=CARTESIAN_POINT('',(114.90613522724,168.281361,2179.67506974033));
#636=CARTESIAN_POINT('',(115.446377922375,168.281361,2180.27149296395));
#637=CARTESIAN_POINT('',(116.164517667942,168.281361,2180.70473963931));
#638=CARTESIAN_POINT('',(116.883514662988,168.281361,2181.15712310239));
#639=CARTESIAN_POINT('',(117.90004286301,168.281361,2181.79670929066));
#640=CARTESIAN_POINT('',(118.918284593935,168.281361,2182.47454744404));
#641=CARTESIAN_POINT('',(120.04732456889,168.281361,2182.63916030418));
#642=CARTESIAN_POINT('',(120.590486470892,168.281361,2182.71835274749));
#643=CARTESIAN_POINT('',(121.159291609567,168.281361,2182.67876390707));
#644=CARTESIAN_POINT('',(121.728097056718,168.281361,2182.6391688837));
#645=CARTESIAN_POINT('',(121.728097056718,168.281361,2182.6391688837));
#646=CARTESIAN_POINT('',(122.617916519208,168.281361,2189.2589896903));
#647=CARTESIAN_POINT('',(125.428422206758,168.281361,2189.3365853998));
#648=CARTESIAN_POINT('',(128.238927497859,168.281361,2189.41418760695));
#649=CARTESIAN_POINT('',(131.021787580054,168.281361,2189.75301489017));
#650=CARTESIAN_POINT('',(134.382789574342,168.281361,2190.16223387387));
#651=CARTESIAN_POINT('',(137.703466540969,168.281361,2190.95249206236));
#652=CARTESIAN_POINT('',(140.908705089127,168.281361,2192.12429515511));
#653=CARTESIAN_POINT('',(144.059946321902,168.281361,2193.27635737047));
#654=CARTESIAN_POINT('',(147.0996058596,168.281361,2194.79721731997));
#655=CARTESIAN_POINT('',(149.708056366162,168.281361,2196.86685380009));
#656=CARTESIAN_POINT('',(152.209718199309,168.281361,2198.85176038651));
#657=CARTESIAN_POINT('',(154.314755245258,168.281361,2201.34142999727));
#658=CARTESIAN_POINT('',(156.134552212501,168.281361,2203.98069104125));
#659=CARTESIAN_POINT('',(158.328719732687,168.281361,2207.162903653));
#660=CARTESIAN_POINT('',(160.108215705105,168.281361,2210.56258679494));
#661=CARTESIAN_POINT('',(161.96783406222,168.281361,2213.95982720864));
#662=CARTESIAN_POINT('',(163.176234023602,168.281361,2216.16739048044));
#663=CARTESIAN_POINT('',(164.418465981152,168.281361,2218.37392230051));
#664=CARTESIAN_POINT('',(166.02147880886,168.281361,2220.28323300731));
#665=CARTESIAN_POINT('',(167.712331074407,168.281361,2222.29716719325));
#666=CARTESIAN_POINT('',(169.804586543095,168.281361,2223.98041448093));
#667=CARTESIAN_POINT('',(172.052500263214,168.281361,2225.42099885031));
#668=CARTESIAN_POINT('',(174.18586466343,168.281361,2226.78817383645));
#669=CARTESIAN_POINT('',(176.459427431849,168.281361,2227.93678703833));
#670=CARTESIAN_POINT('',(178.874468981596,168.281361,2228.58269716189));
#671=CARTESIAN_POINT('',(180.607978800873,168.281361,2229.04632957504));
#672=CARTESIAN_POINT('',(182.414383111233,168.281361,2229.25095293598));
#673=CARTESIAN_POINT('',(184.213402472232,168.281361,2229.37312379105));
#674=CARTESIAN_POINT('',(185.114914755137,168.281361,2229.4343452147));
#675=CARTESIAN_POINT('',(186.014572570897,168.281361,2229.4748616266));
#676=CARTESIAN_POINT('',(186.914230693994,168.281361,2229.5153721583));
#677=CARTESIAN_POINT('',(186.914230693994,168.281361,2229.5153721583));
#678=CARTESIAN_POINT('',(187.705188856636,168.281361,2233.07229076002));
#679=CARTESIAN_POINT('',(188.19953231798,168.281361,2233.66511098071));
#680=CARTESIAN_POINT('',(188.985520871035,168.281361,2233.48703137224));
#681=CARTESIAN_POINT('',(189.771510701157,168.281361,2233.30895778412));
#682=CARTESIAN_POINT('',(190.572391740333,168.281361,2233.17110419977));
#683=CARTESIAN_POINT('',(191.71768711848,168.281361,2232.97396746499));
#684=CARTESIAN_POINT('',(192.893435417435,168.281361,2232.8590817137));
#685=CARTESIAN_POINT('',(194.032806430678,168.281361,2232.97349581296));
#686=CARTESIAN_POINT('',(195.55505966564,168.281361,2233.12635842812));
#687=CARTESIAN_POINT('',(197.012378659434,168.281361,2233.68852623207));
#688=CARTESIAN_POINT('',(198.481918833934,168.281361,2234.2579372082));
#689=CARTESIAN_POINT('',(199.393835912397,168.281361,2234.61128283482));
#690=CARTESIAN_POINT('',(200.310459088543,168.281361,2234.96741764168));
#691=CARTESIAN_POINT('',(201.05251449886,168.281361,2235.54237610712));
#692=CARTESIAN_POINT('',(202.010503167501,168.281361,2236.28464371567));
#693=CARTESIAN_POINT('',(202.677546013331,168.281361,2237.39161685328));
#694=CARTESIAN_POINT('',(203.524249532546,168.281361,2238.3088564336));
#695=CARTESIAN_POINT('',(204.264257978668,168.281361,2239.11051252825));
#696=CARTESIAN_POINT('',(205.141501032939,168.281361,2239.76723979737));
#697=CARTESIAN_POINT('',(206.094853873398,168.281361,2240.28492232739));
#698=CARTESIAN_POINT('',(207.478968353331,168.281361,2241.03651382153));
#699=CARTESIAN_POINT('',(209.02350973502,168.281361,2241.49502189213));
#700=CARTESIAN_POINT('',(210.583296668812,168.281361,2241.70380361906));
#701=CARTESIAN_POINT('',(211.929930983334,168.281361,2241.88405428768));
#702=CARTESIAN_POINT('',(213.287928793617,168.281361,2241.87816776503));
#703=CARTESIAN_POINT('',(214.643712522722,168.281361,2241.87647134051));
#704=CARTESIAN_POINT('',(215.643606538398,168.281361,2241.87522022304));
#705=CARTESIAN_POINT('',(216.642296293017,168.281361,2241.87624814215));
#706=CARTESIAN_POINT('',(217.640986019505,168.281361,2241.87726931512));
#707=CARTESIAN_POINT('',(217.640986019505,168.281361,2241.87726931512));
#708=CARTESIAN_POINT('',(218.080448986657,168.281361,2249.5));
#709=CARTESIAN_POINT('',(183.021702540154,168.281361,2249.5));
#710=CARTESIAN_POINT('',(179.984179287333,168.281361,2247.64086996996));
#711=CARTESIAN_POINT('',(179.984179287333,2168.281361,2247.64086996996));
#712=PRODUCT_DEFINITION_SHAPE('','',#713);
#713=PRODUCT_DEFINITION('','',#725,#730);
#714=(
GEOMETRIC_REPRESENTATION_CONTEXT(3)
GLOBAL_UNCERTAINTY_ASSIGNED_CONTEXT((#715))
GLOBAL_UNIT_ASSIGNED_CONTEXT((#717,#716,#720))
REPRESENTATION_CONTEXT('','')
);
#715=UNCERTAINTY_MEASURE_WITH_UNIT(LENGTH_MEASURE(0.001),#717,'','tolerance');
#716=(
CONVERSION_BASED_UNIT('',#718)
NAMED_UNIT(#724)
PLANE_ANGLE_UNIT()
);
#717=(
CONVERSION_BASED_UNIT('',#719)
LENGTH_UNIT()
NAMED_UNIT(#723)
);
#718=PLANE_ANGLE_MEASURE_WITH_UNIT(PLANE_ANGLE_MEASURE(0.0174532925199433),
#721);
#719=LENGTH_MEASURE_WITH_UNIT(LENGTH_MEASURE(1.),#722);
#720=(
NAMED_UNIT(*)
SI_UNIT($,.STERADIAN.)
SOLID_ANGLE_UNIT()
);
#721=(
NAMED_UNIT(*)
PLANE_ANGLE_UNIT()
SI_UNIT($,.RADIAN.)
);
#722=(
LENGTH_UNIT()
NAMED_UNIT(*)
SI_UNIT(.MILLI.,.METRE.)
);
#723=DIMENSIONAL_EXPONENTS(1.,0.,0.,0.,0.,0.,0.);
#724=DIMENSIONAL_EXPONENTS(0.,0.,0.,0.,0.,0.,0.);
#725=PRODUCT_DEFINITION_FORMATION_WITH_SPECIFIED_SOURCE('','',#728,.NOT_KNOWN.
);
#726=PRODUCT_CATEGORY_RELATIONSHIP('','',#731,#727);
#727=PRODUCT_RELATED_PRODUCT_CATEGORY('assembly','',(#728));
#728=PRODUCT('','master','',(#729));
#729=PRODUCT_CONTEXT('',#733,'');
#730=PRODUCT_DEFINITION_CONTEXT('',#733,'part_definition');
#731=PRODUCT_CATEGORY('part','');
#732=APPLICATION_PROTOCOL_DEFINITION('international standard',
'automotive_design_cc2',1994,#733);
#733=APPLICATION_CONTEXT(
'configuration controlled 3D designs of mechanical parts and assemblies');
ENDSEC;
END-ISO-10303-21;
42176