ISO-10303-21;
HEADER;
/* Generated by software using Delcam plc STEP library */

FILE_DESCRIPTION(
/* description */ ('AP-214 File'),
/* implementation_level */ '2;1');

FILE_NAME(
/* name */ 'D614',
/* time_stamp */ 'Mon Dec 26 15:15:35 2016',
/* author */ (''),
/* organization */ (''),
/* preprocessor_version */ 'DELCAM STEP V1',
/* originating_system */ 'Exchange7.1.0006',
/* authorisation */ '');

FILE_SCHEMA (('AUTOMOTIVE_DESIGN'));
ENDSEC;
DATA;
#10=PRESENTATION_STYLE_ASSIGNMENT((#20));
#11=PRESENTATION_STYLE_ASSIGNMENT((#21));
#12=SURFACE_SIDE_STYLE('',(#14));
#13=SURFACE_SIDE_STYLE('',(#15));
#14=SURFACE_STYLE_FILL_AREA(#16);
#15=SURFACE_STYLE_FILL_AREA(#17);
#16=FILL_AREA_STYLE('',(#18));
#17=FILL_AREA_STYLE('',(#19));
#18=FILL_AREA_STYLE_COLOUR('',#37);
#19=FILL_AREA_STYLE_COLOUR('',#38);
#20=SURFACE_STYLE_USAGE(.BOTH.,#12);
#21=SURFACE_STYLE_USAGE(.BOTH.,#13);
#22=STYLED_ITEM('',(#10),#48);
#23=STYLED_ITEM('',(#10),#49);
#24=STYLED_ITEM('',(#10),#50);
#25=STYLED_ITEM('',(#10),#51);
#26=STYLED_ITEM('',(#10),#52);
#27=STYLED_ITEM('',(#10),#53);
#28=STYLED_ITEM('',(#10),#54);
#29=STYLED_ITEM('',(#10),#55);
#30=STYLED_ITEM('',(#10),#56);
#31=STYLED_ITEM('',(#10),#57);
#32=STYLED_ITEM('',(#10),#58);
#33=STYLED_ITEM('',(#10),#59);
#34=STYLED_ITEM('',(#10),#60);
#35=STYLED_ITEM('',(#10),#61);
#36=STYLED_ITEM('',(#11),#44);
#37=COLOUR_RGB('',0.,0.,0.);
#38=COLOUR_RGB('rgb_colour_1',0.4,0.4,0.4);
#39=MECHANICAL_DESIGN_GEOMETRIC_PRESENTATION_REPRESENTATION('',(#22,#23,#24,
#25,#26,#27,#28,#29,#30,#31,#32,#33,#34,#35,#36),#471);
#40=PRESENTATION_LAYER_ASSIGNMENT('0','General',(#48,#49,#50,#51,#52,#53,#54,
#55,#56,#57,#58,#59,#60,#61,#44));
#41=SHAPE_REPRESENTATION_RELATIONSHIP('','',#300,#42);
#42=ADVANCED_BREP_SHAPE_REPRESENTATION('',(#43),#471);
#43=MANIFOLD_SOLID_BREP('7542',#44);
#44=CLOSED_SHELL('',(#48,#49,#50,#51,#52,#53,#54,#55,#56,#57,#58,#59,#60,#61)
);
#45=CYLINDRICAL_SURFACE('',#316,41.373712919102);
#46=CYLINDRICAL_SURFACE('',#317,490.275784414353);
#47=CYLINDRICAL_SURFACE('',#318,72.2336899174428);
#48=ADVANCED_FACE('',(#62),#162,.T.);
#49=ADVANCED_FACE('',(#63),#163,.T.);
#50=ADVANCED_FACE('',(#64),#164,.T.);
#51=ADVANCED_FACE('',(#65),#165,.T.);
#52=ADVANCED_FACE('',(#66),#166,.T.);
#53=ADVANCED_FACE('',(#67),#167,.T.);
#54=ADVANCED_FACE('',(#68),#168,.T.);
#55=ADVANCED_FACE('',(#69),#169,.T.);
#56=ADVANCED_FACE('',(#70),#45,.T.);
#57=ADVANCED_FACE('',(#71),#46,.T.);
#58=ADVANCED_FACE('',(#72),#47,.F.);
#59=ADVANCED_FACE('',(#73),#170,.T.);
#60=ADVANCED_FACE('',(#74),#171,.F.);
#61=ADVANCED_FACE('',(#75),#172,.T.);
#62=FACE_OUTER_BOUND('',#76,.T.);
#63=FACE_OUTER_BOUND('',#77,.T.);
#64=FACE_OUTER_BOUND('',#78,.T.);
#65=FACE_OUTER_BOUND('',#79,.T.);
#66=FACE_OUTER_BOUND('',#80,.T.);
#67=FACE_OUTER_BOUND('',#81,.T.);
#68=FACE_OUTER_BOUND('',#82,.T.);
#69=FACE_OUTER_BOUND('',#83,.T.);
#70=FACE_OUTER_BOUND('',#84,.T.);
#71=FACE_OUTER_BOUND('',#85,.T.);
#72=FACE_OUTER_BOUND('',#86,.T.);
#73=FACE_OUTER_BOUND('',#87,.T.);
#74=FACE_OUTER_BOUND('',#88,.T.);
#75=FACE_OUTER_BOUND('',#89,.T.);
#76=EDGE_LOOP('',(#90,#91,#92,#93));
#77=EDGE_LOOP('',(#94,#95,#96,#97));
#78=EDGE_LOOP('',(#98,#99,#100,#101));
#79=EDGE_LOOP('',(#102,#103,#104,#105));
#80=EDGE_LOOP('',(#106,#107,#108,#109));
#81=EDGE_LOOP('',(#110,#111,#112,#113));
#82=EDGE_LOOP('',(#114,#115,#116,#117));
#83=EDGE_LOOP('',(#118,#119,#120,#121));
#84=EDGE_LOOP('',(#122,#123,#124,#125));
#85=EDGE_LOOP('',(#126,#127,#128,#129));
#86=EDGE_LOOP('',(#130,#131,#132,#133));
#87=EDGE_LOOP('',(#134,#135,#136,#137));
#88=EDGE_LOOP('',(#138,#139,#140,#141,#142,#143,#144,#145,#146,#147,#148,#149)
);
#89=EDGE_LOOP('',(#150,#151,#152,#153,#154,#155,#156,#157,#158,#159,#160,#161)
);
#90=ORIENTED_EDGE('',*,*,#214,.F.);
#91=ORIENTED_EDGE('',*,*,#190,.F.);
#92=ORIENTED_EDGE('',*,*,#202,.T.);
#93=ORIENTED_EDGE('',*,*,#179,.T.);
#94=ORIENTED_EDGE('',*,*,#213,.F.);
#95=ORIENTED_EDGE('',*,*,#179,.F.);
#96=ORIENTED_EDGE('',*,*,#201,.T.);
#97=ORIENTED_EDGE('',*,*,#180,.T.);
#98=ORIENTED_EDGE('',*,*,#212,.F.);
#99=ORIENTED_EDGE('',*,*,#180,.F.);
#100=ORIENTED_EDGE('',*,*,#200,.T.);
#101=ORIENTED_EDGE('',*,*,#181,.T.);
#102=ORIENTED_EDGE('',*,*,#211,.F.);
#103=ORIENTED_EDGE('',*,*,#181,.F.);
#104=ORIENTED_EDGE('',*,*,#199,.T.);
#105=ORIENTED_EDGE('',*,*,#182,.T.);
#106=ORIENTED_EDGE('',*,*,#210,.F.);
#107=ORIENTED_EDGE('',*,*,#182,.F.);
#108=ORIENTED_EDGE('',*,*,#198,.T.);
#109=ORIENTED_EDGE('',*,*,#183,.T.);
#110=ORIENTED_EDGE('',*,*,#209,.F.);
#111=ORIENTED_EDGE('',*,*,#183,.F.);
#112=ORIENTED_EDGE('',*,*,#197,.T.);
#113=ORIENTED_EDGE('',*,*,#184,.T.);
#114=ORIENTED_EDGE('',*,*,#208,.F.);
#115=ORIENTED_EDGE('',*,*,#184,.F.);
#116=ORIENTED_EDGE('',*,*,#196,.T.);
#117=ORIENTED_EDGE('',*,*,#185,.T.);
#118=ORIENTED_EDGE('',*,*,#207,.F.);
#119=ORIENTED_EDGE('',*,*,#185,.F.);
#120=ORIENTED_EDGE('',*,*,#195,.T.);
#121=ORIENTED_EDGE('',*,*,#186,.T.);
#122=ORIENTED_EDGE('',*,*,#206,.F.);
#123=ORIENTED_EDGE('',*,*,#186,.F.);
#124=ORIENTED_EDGE('',*,*,#194,.T.);
#125=ORIENTED_EDGE('',*,*,#187,.T.);
#126=ORIENTED_EDGE('',*,*,#205,.F.);
#127=ORIENTED_EDGE('',*,*,#187,.F.);
#128=ORIENTED_EDGE('',*,*,#193,.T.);
#129=ORIENTED_EDGE('',*,*,#188,.T.);
#130=ORIENTED_EDGE('',*,*,#204,.F.);
#131=ORIENTED_EDGE('',*,*,#188,.F.);
#132=ORIENTED_EDGE('',*,*,#192,.T.);
#133=ORIENTED_EDGE('',*,*,#189,.T.);
#134=ORIENTED_EDGE('',*,*,#203,.F.);
#135=ORIENTED_EDGE('',*,*,#189,.F.);
#136=ORIENTED_EDGE('',*,*,#191,.T.);
#137=ORIENTED_EDGE('',*,*,#190,.T.);
#138=ORIENTED_EDGE('',*,*,#202,.F.);
#139=ORIENTED_EDGE('',*,*,#191,.F.);
#140=ORIENTED_EDGE('',*,*,#192,.F.);
#141=ORIENTED_EDGE('',*,*,#193,.F.);
#142=ORIENTED_EDGE('',*,*,#194,.F.);
#143=ORIENTED_EDGE('',*,*,#195,.F.);
#144=ORIENTED_EDGE('',*,*,#196,.F.);
#145=ORIENTED_EDGE('',*,*,#197,.F.);
#146=ORIENTED_EDGE('',*,*,#198,.F.);
#147=ORIENTED_EDGE('',*,*,#199,.F.);
#148=ORIENTED_EDGE('',*,*,#200,.F.);
#149=ORIENTED_EDGE('',*,*,#201,.F.);
#150=ORIENTED_EDGE('',*,*,#214,.T.);
#151=ORIENTED_EDGE('',*,*,#213,.T.);
#152=ORIENTED_EDGE('',*,*,#212,.T.);
#153=ORIENTED_EDGE('',*,*,#211,.T.);
#154=ORIENTED_EDGE('',*,*,#210,.T.);
#155=ORIENTED_EDGE('',*,*,#209,.T.);
#156=ORIENTED_EDGE('',*,*,#208,.T.);
#157=ORIENTED_EDGE('',*,*,#207,.T.);
#158=ORIENTED_EDGE('',*,*,#206,.T.);
#159=ORIENTED_EDGE('',*,*,#205,.T.);
#160=ORIENTED_EDGE('',*,*,#204,.T.);
#161=ORIENTED_EDGE('',*,*,#203,.T.);
#162=PLANE('',#308);
#163=PLANE('',#309);
#164=PLANE('',#310);
#165=PLANE('',#311);
#166=PLANE('',#312);
#167=PLANE('',#313);
#168=PLANE('',#314);
#169=PLANE('',#315);
#170=PLANE('',#319);
#171=PLANE('',#320);
#172=PLANE('',#321);
#173=CIRCLE('',#302,72.2336899174428);
#174=CIRCLE('',#303,490.275784414353);
#175=CIRCLE('',#304,41.373712919102);
#176=CIRCLE('',#305,72.2336899174428);
#177=CIRCLE('',#306,490.275784414353);
#178=CIRCLE('',#307,41.373712919102);
#179=EDGE_CURVE('',#286,#298,#215,.T.);
#180=EDGE_CURVE('',#285,#297,#216,.T.);
#181=EDGE_CURVE('',#284,#296,#217,.T.);
#182=EDGE_CURVE('',#283,#295,#218,.T.);
#183=EDGE_CURVE('',#282,#294,#219,.T.);
#184=EDGE_CURVE('',#281,#293,#220,.T.);
#185=EDGE_CURVE('',#280,#292,#221,.T.);
#186=EDGE_CURVE('',#279,#291,#222,.T.);
#187=EDGE_CURVE('',#278,#290,#223,.T.);
#188=EDGE_CURVE('',#277,#289,#224,.T.);
#189=EDGE_CURVE('',#276,#288,#225,.T.);
#190=EDGE_CURVE('',#275,#287,#226,.T.);
#191=EDGE_CURVE('',#276,#275,#227,.T.);
#192=EDGE_CURVE('',#277,#276,#173,.T.);
#193=EDGE_CURVE('',#278,#277,#174,.T.);
#194=EDGE_CURVE('',#279,#278,#175,.T.);
#195=EDGE_CURVE('',#280,#279,#228,.T.);
#196=EDGE_CURVE('',#281,#280,#229,.T.);
#197=EDGE_CURVE('',#282,#281,#230,.T.);
#198=EDGE_CURVE('',#283,#282,#231,.T.);
#199=EDGE_CURVE('',#284,#283,#232,.T.);
#200=EDGE_CURVE('',#285,#284,#233,.T.);
#201=EDGE_CURVE('',#286,#285,#234,.T.);
#202=EDGE_CURVE('',#275,#286,#235,.T.);
#203=EDGE_CURVE('',#288,#287,#236,.T.);
#204=EDGE_CURVE('',#289,#288,#176,.T.);
#205=EDGE_CURVE('',#290,#289,#177,.T.);
#206=EDGE_CURVE('',#291,#290,#178,.T.);
#207=EDGE_CURVE('',#292,#291,#237,.T.);
#208=EDGE_CURVE('',#293,#292,#238,.T.);
#209=EDGE_CURVE('',#294,#293,#239,.T.);
#210=EDGE_CURVE('',#295,#294,#240,.T.);
#211=EDGE_CURVE('',#296,#295,#241,.T.);
#212=EDGE_CURVE('',#297,#296,#242,.T.);
#213=EDGE_CURVE('',#298,#297,#243,.T.);
#214=EDGE_CURVE('',#287,#298,#244,.T.);
#215=LINE('',#419,#245);
#216=LINE('',#420,#246);
#217=LINE('',#421,#247);
#218=LINE('',#422,#248);
#219=LINE('',#423,#249);
#220=LINE('',#424,#250);
#221=LINE('',#425,#251);
#222=LINE('',#426,#252);
#223=LINE('',#427,#253);
#224=LINE('',#428,#254);
#225=LINE('',#429,#255);
#226=LINE('',#430,#256);
#227=LINE('',#431,#257);
#228=LINE('',#435,#258);
#229=LINE('',#436,#259);
#230=LINE('',#437,#260);
#231=LINE('',#438,#261);
#232=LINE('',#439,#262);
#233=LINE('',#440,#263);
#234=LINE('',#441,#264);
#235=LINE('',#442,#265);
#236=LINE('',#443,#266);
#237=LINE('',#447,#267);
#238=LINE('',#448,#268);
#239=LINE('',#449,#269);
#240=LINE('',#450,#270);
#241=LINE('',#451,#271);
#242=LINE('',#452,#272);
#243=LINE('',#453,#273);
#244=LINE('',#454,#274);
#245=VECTOR('',#324,1.);
#246=VECTOR('',#325,1.);
#247=VECTOR('',#326,1.);
#248=VECTOR('',#327,1.);
#249=VECTOR('',#328,1.);
#250=VECTOR('',#329,1.);
#251=VECTOR('',#330,1.);
#252=VECTOR('',#331,1.);
#253=VECTOR('',#332,1.);
#254=VECTOR('',#333,1.);
#255=VECTOR('',#334,1.);
#256=VECTOR('',#335,1.);
#257=VECTOR('',#336,1.);
#258=VECTOR('',#343,1.);
#259=VECTOR('',#344,1.);
#260=VECTOR('',#345,1.);
#261=VECTOR('',#346,1.);
#262=VECTOR('',#347,1.);
#263=VECTOR('',#348,1.);
#264=VECTOR('',#349,1.);
#265=VECTOR('',#350,1.);
#266=VECTOR('',#351,1.);
#267=VECTOR('',#358,1.);
#268=VECTOR('',#359,1.);
#269=VECTOR('',#360,1.);
#270=VECTOR('',#361,1.);
#271=VECTOR('',#362,1.);
#272=VECTOR('',#363,1.);
#273=VECTOR('',#364,1.);
#274=VECTOR('',#365,1.);
#275=VERTEX_POINT('',#395);
#276=VERTEX_POINT('',#396);
#277=VERTEX_POINT('',#397);
#278=VERTEX_POINT('',#398);
#279=VERTEX_POINT('',#399);
#280=VERTEX_POINT('',#400);
#281=VERTEX_POINT('',#401);
#282=VERTEX_POINT('',#402);
#283=VERTEX_POINT('',#403);
#284=VERTEX_POINT('',#404);
#285=VERTEX_POINT('',#405);
#286=VERTEX_POINT('',#406);
#287=VERTEX_POINT('',#407);
#288=VERTEX_POINT('',#408);
#289=VERTEX_POINT('',#409);
#290=VERTEX_POINT('',#410);
#291=VERTEX_POINT('',#411);
#292=VERTEX_POINT('',#412);
#293=VERTEX_POINT('',#413);
#294=VERTEX_POINT('',#414);
#295=VERTEX_POINT('',#415);
#296=VERTEX_POINT('',#416);
#297=VERTEX_POINT('',#417);
#298=VERTEX_POINT('',#418);
#299=SHAPE_DEFINITION_REPRESENTATION(#469,#300);
#300=SHAPE_REPRESENTATION('master',(#301),#471);
#301=AXIS2_PLACEMENT_3D('',#394,#323,#322);
#302=AXIS2_PLACEMENT_3D('',#432,#338,#337);
#303=AXIS2_PLACEMENT_3D('',#433,#340,#339);
#304=AXIS2_PLACEMENT_3D('',#434,#342,#341);
#305=AXIS2_PLACEMENT_3D('',#444,#353,#352);
#306=AXIS2_PLACEMENT_3D('',#445,#355,#354);
#307=AXIS2_PLACEMENT_3D('',#446,#357,#356);
#308=AXIS2_PLACEMENT_3D('',#455,#367,#366);
#309=AXIS2_PLACEMENT_3D('',#456,#369,#368);
#310=AXIS2_PLACEMENT_3D('',#457,#371,#370);
#311=AXIS2_PLACEMENT_3D('',#458,#373,#372);
#312=AXIS2_PLACEMENT_3D('',#459,#375,#374);
#313=AXIS2_PLACEMENT_3D('',#460,#377,#376);
#314=AXIS2_PLACEMENT_3D('',#461,#379,#378);
#315=AXIS2_PLACEMENT_3D('',#462,#381,#380);
#316=AXIS2_PLACEMENT_3D('',#463,#383,#382);
#317=AXIS2_PLACEMENT_3D('',#464,#385,#384);
#318=AXIS2_PLACEMENT_3D('',#465,#387,#386);
#319=AXIS2_PLACEMENT_3D('',#466,#389,#388);
#320=AXIS2_PLACEMENT_3D('',#467,#391,#390);
#321=AXIS2_PLACEMENT_3D('',#468,#393,#392);
#322=DIRECTION('',(1.,0.,0.));
#323=DIRECTION('',(0.,0.,1.));
#324=DIRECTION('',(-0.,-1.,0.));
#325=DIRECTION('',(-0.,-1.,0.));
#326=DIRECTION('',(-0.,-1.,0.));
#327=DIRECTION('',(-0.,-1.,0.));
#328=DIRECTION('',(-0.,-1.,0.));
#329=DIRECTION('',(-0.,-1.,0.));
#330=DIRECTION('',(-0.,-1.,0.));
#331=DIRECTION('',(-0.,-1.,0.));
#332=DIRECTION('',(-0.,-1.,0.));
#333=DIRECTION('',(-0.,-1.,0.));
#334=DIRECTION('',(-0.,-1.,0.));
#335=DIRECTION('',(-0.,-1.,0.));
#336=DIRECTION('',(0.112703783191599,-0.,0.993628631458605));
#337=DIRECTION('',(-0.68489936812932,0.,0.728637670955914));
#338=DIRECTION('',(0.,1.,0.));
#339=DIRECTION('',(0.656682720634491,0.,-0.75416696057311));
#340=DIRECTION('',(0.,-1.,0.));
#341=DIRECTION('',(0.0544383906035164,0.,-0.998517131364555));
#342=DIRECTION('',(0.,-1.,0.));
#343=DIRECTION('',(0.998517131364558,-0.,0.0544383906034602));
#344=DIRECTION('',(-0.,-0.,1.));
#345=DIRECTION('',(1.,-0.,-0.));
#346=DIRECTION('',(-0.,-0.,1.));
#347=DIRECTION('',(0.999749064983284,0.,0.022401050534508));
#348=DIRECTION('',(-0.,-0.,-1.));
#349=DIRECTION('',(-0.860751588836114,-0.,-0.509025247228569));
#350=DIRECTION('',(-1.,-0.,-0.));
#351=DIRECTION('',(0.112703783191599,-0.,0.993628631458605));
#352=DIRECTION('',(-0.68489936812932,0.,0.728637670955914));
#353=DIRECTION('',(0.,1.,0.));
#354=DIRECTION('',(0.656682720634491,0.,-0.75416696057311));
#355=DIRECTION('',(0.,-1.,0.));
#356=DIRECTION('',(0.0544383906035164,0.,-0.998517131364555));
#357=DIRECTION('',(0.,-1.,0.));
#358=DIRECTION('',(0.998517131364558,-0.,0.0544383906034602));
#359=DIRECTION('',(-0.,-0.,1.));
#360=DIRECTION('',(1.,-0.,-0.));
#361=DIRECTION('',(-0.,-0.,1.));
#362=DIRECTION('',(0.999749064983284,0.,0.022401050534508));
#363=DIRECTION('',(-0.,-0.,-1.));
#364=DIRECTION('',(-0.860751588836114,-0.,-0.509025247228569));
#365=DIRECTION('',(-1.,-0.,-0.));
#366=DIRECTION('',(1.,0.,0.));
#367=DIRECTION('',(-0.,0.,1.));
#368=DIRECTION('',(0.860751588836114,0.,0.509025247228569));
#369=DIRECTION('',(-0.509025247228569,0.,0.860751588836114));
#370=DIRECTION('',(0.,0.,1.));
#371=DIRECTION('',(-1.,0.,0.));
#372=DIRECTION('',(-0.999749064983284,0.,-0.022401050534508));
#373=DIRECTION('',(0.022401050534508,-0.,-0.999749064983284));
#374=DIRECTION('',(0.,0.,-1.));
#375=DIRECTION('',(1.,0.,0.));
#376=DIRECTION('',(-1.,0.,0.));
#377=DIRECTION('',(-0.,0.,-1.));
#378=DIRECTION('',(0.,0.,-1.));
#379=DIRECTION('',(1.,0.,0.));
#380=DIRECTION('',(-0.998517131364558,0.,-0.0544383906034602));
#381=DIRECTION('',(0.0544383906034602,-0.,-0.998517131364558));
#382=DIRECTION('',(0.,-0.,-1.));
#383=DIRECTION('',(-0.,-1.,0.));
#384=DIRECTION('',(0.,-0.,-1.));
#385=DIRECTION('',(-0.,-1.,0.));
#386=DIRECTION('',(0.,-0.,-1.));
#387=DIRECTION('',(-0.,-1.,0.));
#388=DIRECTION('',(-0.112703783191599,0.,-0.993628631458605));
#389=DIRECTION('',(0.993628631458605,-0.,-0.112703783191599));
#390=DIRECTION('',(0.,0.,-1.));
#391=DIRECTION('',(0.,-1.,0.));
#392=DIRECTION('',(0.,0.,-1.));
#393=DIRECTION('',(0.,-1.,0.));
#394=CARTESIAN_POINT('',(0.,0.,0.));
#395=CARTESIAN_POINT('',(216.339797609133,2168.281361,2249.5));
#396=CARTESIAN_POINT('',(215.653960095045,2168.281361,2243.45346126609));
#397=CARTESIAN_POINT('',(178.083369001923,2168.281361,2224.83929331066));
#398=CARTESIAN_POINT('',(164.249430017859,2168.281361,2212.32290081806));
#399=CARTESIAN_POINT('',(139.332346,2168.281361,2202.213227));
#400=CARTESIAN_POINT('',(133.341243211813,2168.281361,2201.88659665638));
#401=CARTESIAN_POINT('',(133.341243211813,2168.281361,2196.63659665638));
#402=CARTESIAN_POINT('',(128.863976,2168.281361,2196.63659665638));
#403=CARTESIAN_POINT('',(128.863976,2168.281361,2187.688266));
#404=CARTESIAN_POINT('',(103.080454,2168.281361,2187.1105430498));
#405=CARTESIAN_POINT('',(103.080454,2168.281361,2196.64003354332));
#406=CARTESIAN_POINT('',(192.465608,2168.281361,2249.5));
#407=CARTESIAN_POINT('',(216.339797609133,168.281361,2249.5));
#408=CARTESIAN_POINT('',(215.653960095045,168.281361,2243.45346126609));
#409=CARTESIAN_POINT('',(178.083369001923,168.281361,2224.83929331066));
#410=CARTESIAN_POINT('',(164.249430017859,168.281361,2212.32290081806));
#411=CARTESIAN_POINT('',(139.332346,168.281361,2202.213227));
#412=CARTESIAN_POINT('',(133.341243211813,168.281361,2201.88659665638));
#413=CARTESIAN_POINT('',(133.341243211813,168.281361,2196.63659665638));
#414=CARTESIAN_POINT('',(128.863976,168.281361,2196.63659665638));
#415=CARTESIAN_POINT('',(128.863976,168.281361,2187.688266));
#416=CARTESIAN_POINT('',(103.080454,168.281361,2187.1105430498));
#417=CARTESIAN_POINT('',(103.080454,168.281361,2196.64003354332));
#418=CARTESIAN_POINT('',(192.465608,168.281361,2249.5));
#419=CARTESIAN_POINT('',(192.465608,2168.281361,2249.5));
#420=CARTESIAN_POINT('',(103.080454,2168.281361,2196.64003354332));
#421=CARTESIAN_POINT('',(103.080454,2168.281361,2187.1105430498));
#422=CARTESIAN_POINT('',(128.863976,2168.281361,2187.688266));
#423=CARTESIAN_POINT('',(128.863976,2168.281361,2196.63659665638));
#424=CARTESIAN_POINT('',(133.341243211813,2168.281361,2196.63659665638));
#425=CARTESIAN_POINT('',(133.341243211813,2168.281361,2201.88659665638));
#426=CARTESIAN_POINT('',(139.332346,2168.281361,2202.213227));
#427=CARTESIAN_POINT('',(164.249430017859,2168.281361,2212.32290081806));
#428=CARTESIAN_POINT('',(178.083369001923,2168.281361,2224.83929331066));
#429=CARTESIAN_POINT('',(215.653960095045,2168.281361,2243.45346126609));
#430=CARTESIAN_POINT('',(216.339797609133,2168.281361,2249.5));
#431=CARTESIAN_POINT('',(215.653960095045,2168.281361,2243.45346126609));
#432=CARTESIAN_POINT('',(227.556177584029,2168.281361,2172.20710572467));
#433=CARTESIAN_POINT('',(-157.706205952568,2168.281361,2582.07269899243));
#434=CARTESIAN_POINT('',(137.080027655392,2168.281361,2243.52558813788));
#435=CARTESIAN_POINT('',(133.341243211813,2168.281361,2201.88659665638));
#436=CARTESIAN_POINT('',(133.341243211813,2168.281361,2196.63659665638));
#437=CARTESIAN_POINT('',(128.863976,2168.281361,2196.63659665638));
#438=CARTESIAN_POINT('',(128.863976,2168.281361,2187.688266));
#439=CARTESIAN_POINT('',(103.080454,2168.281361,2187.1105430498));
#440=CARTESIAN_POINT('',(103.080454,2168.281361,2196.64003354332));
#441=CARTESIAN_POINT('',(192.465608,2168.281361,2249.5));
#442=CARTESIAN_POINT('',(216.339797609133,2168.281361,2249.5));
#443=CARTESIAN_POINT('',(215.653960095045,168.281361,2243.45346126609));
#444=CARTESIAN_POINT('',(227.556177584029,168.281361,2172.20710572467));
#445=CARTESIAN_POINT('',(-157.706205952568,168.281361,2582.07269899243));
#446=CARTESIAN_POINT('',(137.080027655392,168.281361,2243.52558813788));
#447=CARTESIAN_POINT('',(133.341243211813,168.281361,2201.88659665638));
#448=CARTESIAN_POINT('',(133.341243211813,168.281361,2196.63659665638));
#449=CARTESIAN_POINT('',(128.863976,168.281361,2196.63659665638));
#450=CARTESIAN_POINT('',(128.863976,168.281361,2187.688266));
#451=CARTESIAN_POINT('',(103.080454,168.281361,2187.1105430498));
#452=CARTESIAN_POINT('',(103.080454,168.281361,2196.64003354332));
#453=CARTESIAN_POINT('',(192.465608,168.281361,2249.5));
#454=CARTESIAN_POINT('',(216.339797609133,168.281361,2249.5));
#455=CARTESIAN_POINT('',(216.339797609133,2168.281361,2249.5));
#456=CARTESIAN_POINT('',(192.465608,2168.281361,2249.5));
#457=CARTESIAN_POINT('',(103.080454,2168.281361,2196.64003354332));
#458=CARTESIAN_POINT('',(103.080454,2168.281361,2187.1105430498));
#459=CARTESIAN_POINT('',(128.863976,2168.281361,2187.688266));
#460=CARTESIAN_POINT('',(128.863976,2168.281361,2196.63659665638));
#461=CARTESIAN_POINT('',(133.341243211813,2168.281361,2196.63659665638));
#462=CARTESIAN_POINT('',(133.341243211813,2168.281361,2201.88659665638));
#463=CARTESIAN_POINT('',(137.080027655392,2168.281361,2243.52558813788));
#464=CARTESIAN_POINT('',(-157.706205952568,2168.281361,2582.07269899243));
#465=CARTESIAN_POINT('',(227.556177584029,2168.281361,2172.20710572467));
#466=CARTESIAN_POINT('',(215.653960095045,2168.281361,2243.45346126609));
#467=CARTESIAN_POINT('',(137.080027655392,2168.281361,2243.52558813788));
#468=CARTESIAN_POINT('',(137.080027655392,168.281361,2243.52558813788));
#469=PRODUCT_DEFINITION_SHAPE('','',#470);
#470=PRODUCT_DEFINITION('','',#482,#487);
#471=(
GEOMETRIC_REPRESENTATION_CONTEXT(3)
GLOBAL_UNCERTAINTY_ASSIGNED_CONTEXT((#472))
GLOBAL_UNIT_ASSIGNED_CONTEXT((#474,#473,#477))
REPRESENTATION_CONTEXT('','')
);
#472=UNCERTAINTY_MEASURE_WITH_UNIT(LENGTH_MEASURE(0.001),#474,'','tolerance');
#473=(
CONVERSION_BASED_UNIT('',#475)
NAMED_UNIT(#481)
PLANE_ANGLE_UNIT()
);
#474=(
CONVERSION_BASED_UNIT('',#476)
LENGTH_UNIT()
NAMED_UNIT(#480)
);
#475=PLANE_ANGLE_MEASURE_WITH_UNIT(PLANE_ANGLE_MEASURE(0.0174532925199433),
#478);
#476=LENGTH_MEASURE_WITH_UNIT(LENGTH_MEASURE(1.),#479);
#477=(
NAMED_UNIT(*)
SI_UNIT($,.STERADIAN.)
SOLID_ANGLE_UNIT()
);
#478=(
NAMED_UNIT(*)
PLANE_ANGLE_UNIT()
SI_UNIT($,.RADIAN.)
);
#479=(
LENGTH_UNIT()
NAMED_UNIT(*)
SI_UNIT(.MILLI.,.METRE.)
);
#480=DIMENSIONAL_EXPONENTS(1.,0.,0.,0.,0.,0.,0.);
#481=DIMENSIONAL_EXPONENTS(0.,0.,0.,0.,0.,0.,0.);
#482=PRODUCT_DEFINITION_FORMATION_WITH_SPECIFIED_SOURCE('','',#485,.NOT_KNOWN.
);
#483=PRODUCT_CATEGORY_RELATIONSHIP('','',#488,#484);
#484=PRODUCT_RELATED_PRODUCT_CATEGORY('assembly','',(#485));
#485=PRODUCT('','master','',(#486));
#486=PRODUCT_CONTEXT('',#490,'');
#487=PRODUCT_DEFINITION_CONTEXT('',#490,'part_definition');
#488=PRODUCT_CATEGORY('part','');
#489=APPLICATION_PROTOCOL_DEFINITION('international standard',
'automotive_design_cc2',1994,#490);
#490=APPLICATION_CONTEXT(
'configuration controlled 3D designs of mechanical parts and assemblies');
ENDSEC;
END-ISO-10303-21;
21605