ISO-10303-21;
HEADER;
/* Generated by software using Delcam plc STEP library */

FILE_DESCRIPTION(
/* description */ ('AP-214 File'),
/* implementation_level */ '2;1');

FILE_NAME(
/* name */ 'D616',
/* time_stamp */ 'Tue Dec 27 09:14:18 2016',
/* author */ (''),
/* organization */ (''),
/* preprocessor_version */ 'DELCAM STEP V1',
/* originating_system */ 'Exchange7.1.0006',
/* authorisation */ '');

FILE_SCHEMA (('AUTOMOTIVE_DESIGN'));
ENDSEC;
DATA;
#10=PRESENTATION_STYLE_ASSIGNMENT((#20));
#11=PRESENTATION_STYLE_ASSIGNMENT((#21));
#12=SURFACE_SIDE_STYLE('',(#14));
#13=SURFACE_SIDE_STYLE('',(#15));
#14=SURFACE_STYLE_FILL_AREA(#16);
#15=SURFACE_STYLE_FILL_AREA(#17);
#16=FILL_AREA_STYLE('',(#18));
#17=FILL_AREA_STYLE('',(#19));
#18=FILL_AREA_STYLE_COLOUR('',#52);
#19=FILL_AREA_STYLE_COLOUR('',#53);
#20=SURFACE_STYLE_USAGE(.BOTH.,#12);
#21=SURFACE_STYLE_USAGE(.BOTH.,#13);
#22=STYLED_ITEM('',(#10),#88);
#23=STYLED_ITEM('',(#10),#89);
#24=STYLED_ITEM('',(#10),#90);
#25=STYLED_ITEM('',(#10),#91);
#26=STYLED_ITEM('',(#10),#92);
#27=STYLED_ITEM('',(#10),#93);
#28=STYLED_ITEM('',(#10),#94);
#29=STYLED_ITEM('',(#10),#95);
#30=STYLED_ITEM('',(#10),#96);
#31=STYLED_ITEM('',(#10),#97);
#32=STYLED_ITEM('',(#10),#98);
#33=STYLED_ITEM('',(#10),#99);
#34=STYLED_ITEM('',(#10),#100);
#35=STYLED_ITEM('',(#10),#101);
#36=STYLED_ITEM('',(#10),#102);
#37=STYLED_ITEM('',(#10),#103);
#38=STYLED_ITEM('',(#10),#104);
#39=STYLED_ITEM('',(#10),#105);
#40=STYLED_ITEM('',(#10),#106);
#41=STYLED_ITEM('',(#10),#107);
#42=STYLED_ITEM('',(#10),#108);
#43=STYLED_ITEM('',(#10),#109);
#44=STYLED_ITEM('',(#10),#110);
#45=STYLED_ITEM('',(#10),#111);
#46=STYLED_ITEM('',(#10),#112);
#47=STYLED_ITEM('',(#10),#113);
#48=STYLED_ITEM('',(#10),#114);
#49=STYLED_ITEM('',(#10),#115);
#50=STYLED_ITEM('',(#10),#116);
#51=STYLED_ITEM('',(#11),#59);
#52=COLOUR_RGB('',0.,0.,0.);
#53=COLOUR_RGB('rgb_colour_1',0.4,0.4,0.4);
#54=MECHANICAL_DESIGN_GEOMETRIC_PRESENTATION_REPRESENTATION('',(#22,#23,#24,
#25,#26,#27,#28,#29,#30,#31,#32,#33,#34,#35,#36,#37,#38,#39,#40,#41,#42,#43,
#44,#45,#46,#47,#48,#49,#50,#51),#1010);
#55=PRESENTATION_LAYER_ASSIGNMENT('120','D616',(#88,#89,#90,#91,#92,#93,#94,
#95,#96,#97,#98,#99,#100,#101,#102,#103,#104,#105,#106,#107,#108,#109,#110,
#111,#112,#113,#114,#115,#116,#59));
#56=SHAPE_REPRESENTATION_RELATIONSHIP('','',#606,#57);
#57=ADVANCED_BREP_SHAPE_REPRESENTATION('',(#58),#1010);
#58=MANIFOLD_SOLID_BREP('7554',#59);
#59=CLOSED_SHELL('',(#88,#89,#90,#91,#92,#93,#94,#95,#96,#97,#98,#99,#100,#101
,#102,#103,#104,#105,#106,#107,#108,#109,#110,#111,#112,#113,#114,#115,#116));
#60=CYLINDRICAL_SURFACE('',#639,6.80539070944276);
#61=CYLINDRICAL_SURFACE('',#648,20.0012826303354);
#62=CYLINDRICAL_SURFACE('',#649,6.0103844885055);
#63=CYLINDRICAL_SURFACE('',#651,6.64226426169632);
#64=CYLINDRICAL_SURFACE('',#652,11.4505586091065);
#65=CYLINDRICAL_SURFACE('',#653,30.9517103495757);
#66=CYLINDRICAL_SURFACE('',#655,18.0731769577737);
#67=CYLINDRICAL_SURFACE('',#656,31.4584755774702);
#68=CYLINDRICAL_SURFACE('',#657,71.9431615543432);
#69=CYLINDRICAL_SURFACE('',#658,68.7757640896628);
#70=CYLINDRICAL_SURFACE('',#659,23.0444373461949);
#71=CYLINDRICAL_SURFACE('',#660,73.0586699063493);
#72=CYLINDRICAL_SURFACE('',#661,7.39393341663537);
#73=CYLINDRICAL_SURFACE('',#662,1.87093238425209);
#74=CYLINDRICAL_SURFACE('',#663,5.59491573323279);
#75=PLANE('',#638);
#76=PLANE('',#640);
#77=PLANE('',#641);
#78=PLANE('',#642);
#79=PLANE('',#643);
#80=PLANE('',#644);
#81=PLANE('',#645);
#82=PLANE('',#646);
#83=PLANE('',#647);
#84=PLANE('',#650);
#85=PLANE('',#654);
#86=PLANE('',#664);
#87=PLANE('',#665);
#88=ADVANCED_FACE('',(#117),#337,.T.);
#89=ADVANCED_FACE('',(#118),#75,.T.);
#90=ADVANCED_FACE('',(#119),#60,.F.);
#91=ADVANCED_FACE('',(#120),#76,.T.);
#92=ADVANCED_FACE('',(#121),#77,.T.);
#93=ADVANCED_FACE('',(#122),#78,.T.);
#94=ADVANCED_FACE('',(#123),#79,.T.);
#95=ADVANCED_FACE('',(#124),#80,.T.);
#96=ADVANCED_FACE('',(#125),#81,.T.);
#97=ADVANCED_FACE('',(#126),#82,.T.);
#98=ADVANCED_FACE('',(#127),#83,.T.);
#99=ADVANCED_FACE('',(#128),#61,.F.);
#100=ADVANCED_FACE('',(#129),#62,.F.);
#101=ADVANCED_FACE('',(#130),#84,.T.);
#102=ADVANCED_FACE('',(#131),#63,.T.);
#103=ADVANCED_FACE('',(#132),#64,.T.);
#104=ADVANCED_FACE('',(#133),#65,.T.);
#105=ADVANCED_FACE('',(#134),#85,.T.);
#106=ADVANCED_FACE('',(#135),#66,.F.);
#107=ADVANCED_FACE('',(#136),#67,.F.);
#108=ADVANCED_FACE('',(#137),#68,.F.);
#109=ADVANCED_FACE('',(#138),#69,.F.);
#110=ADVANCED_FACE('',(#139),#70,.F.);
#111=ADVANCED_FACE('',(#140),#71,.T.);
#112=ADVANCED_FACE('',(#141),#72,.T.);
#113=ADVANCED_FACE('',(#142),#73,.F.);
#114=ADVANCED_FACE('',(#143),#74,.T.);
#115=ADVANCED_FACE('',(#144),#86,.F.);
#116=ADVANCED_FACE('',(#145),#87,.T.);
#117=FACE_OUTER_BOUND('',#146,.T.);
#118=FACE_OUTER_BOUND('',#147,.T.);
#119=FACE_OUTER_BOUND('',#148,.T.);
#120=FACE_OUTER_BOUND('',#149,.T.);
#121=FACE_OUTER_BOUND('',#150,.T.);
#122=FACE_OUTER_BOUND('',#151,.T.);
#123=FACE_OUTER_BOUND('',#152,.T.);
#124=FACE_OUTER_BOUND('',#153,.T.);
#125=FACE_OUTER_BOUND('',#154,.T.);
#126=FACE_OUTER_BOUND('',#155,.T.);
#127=FACE_OUTER_BOUND('',#156,.T.);
#128=FACE_OUTER_BOUND('',#157,.T.);
#129=FACE_OUTER_BOUND('',#158,.T.);
#130=FACE_OUTER_BOUND('',#159,.T.);
#131=FACE_OUTER_BOUND('',#160,.T.);
#132=FACE_OUTER_BOUND('',#161,.T.);
#133=FACE_OUTER_BOUND('',#162,.T.);
#134=FACE_OUTER_BOUND('',#163,.T.);
#135=FACE_OUTER_BOUND('',#164,.T.);
#136=FACE_OUTER_BOUND('',#165,.T.);
#137=FACE_OUTER_BOUND('',#166,.T.);
#138=FACE_OUTER_BOUND('',#167,.T.);
#139=FACE_OUTER_BOUND('',#168,.T.);
#140=FACE_OUTER_BOUND('',#169,.T.);
#141=FACE_OUTER_BOUND('',#170,.T.);
#142=FACE_OUTER_BOUND('',#171,.T.);
#143=FACE_OUTER_BOUND('',#172,.T.);
#144=FACE_OUTER_BOUND('',#173,.T.);
#145=FACE_OUTER_BOUND('',#174,.T.);
#146=EDGE_LOOP('',(#175,#176,#177,#178));
#147=EDGE_LOOP('',(#179,#180,#181,#182));
#148=EDGE_LOOP('',(#183,#184,#185,#186));
#149=EDGE_LOOP('',(#187,#188,#189,#190));
#150=EDGE_LOOP('',(#191,#192,#193,#194));
#151=EDGE_LOOP('',(#195,#196,#197,#198));
#152=EDGE_LOOP('',(#199,#200,#201,#202));
#153=EDGE_LOOP('',(#203,#204,#205,#206));
#154=EDGE_LOOP('',(#207,#208,#209,#210));
#155=EDGE_LOOP('',(#211,#212,#213,#214));
#156=EDGE_LOOP('',(#215,#216,#217,#218));
#157=EDGE_LOOP('',(#219,#220,#221,#222));
#158=EDGE_LOOP('',(#223,#224,#225,#226));
#159=EDGE_LOOP('',(#227,#228,#229,#230));
#160=EDGE_LOOP('',(#231,#232,#233,#234));
#161=EDGE_LOOP('',(#235,#236,#237,#238));
#162=EDGE_LOOP('',(#239,#240,#241,#242));
#163=EDGE_LOOP('',(#243,#244,#245,#246));
#164=EDGE_LOOP('',(#247,#248,#249,#250));
#165=EDGE_LOOP('',(#251,#252,#253,#254));
#166=EDGE_LOOP('',(#255,#256,#257,#258));
#167=EDGE_LOOP('',(#259,#260,#261,#262));
#168=EDGE_LOOP('',(#263,#264,#265,#266));
#169=EDGE_LOOP('',(#267,#268,#269,#270));
#170=EDGE_LOOP('',(#271,#272,#273,#274));
#171=EDGE_LOOP('',(#275,#276,#277,#278));
#172=EDGE_LOOP('',(#279,#280,#281,#282));
#173=EDGE_LOOP('',(#283,#284,#285,#286,#287,#288,#289,#290,#291,#292,#293,#294
,#295,#296,#297,#298,#299,#300,#301,#302,#303,#304,#305,#306,#307,#308,#309));
#174=EDGE_LOOP('',(#310,#311,#312,#313,#314,#315,#316,#317,#318,#319,#320,#321
,#322,#323,#324,#325,#326,#327,#328,#329,#330,#331,#332,#333,#334,#335,#336));
#175=ORIENTED_EDGE('',*,*,#451,.F.);
#176=ORIENTED_EDGE('',*,*,#397,.F.);
#177=ORIENTED_EDGE('',*,*,#424,.T.);
#178=ORIENTED_EDGE('',*,*,#371,.T.);
#179=ORIENTED_EDGE('',*,*,#450,.F.);
#180=ORIENTED_EDGE('',*,*,#371,.F.);
#181=ORIENTED_EDGE('',*,*,#423,.T.);
#182=ORIENTED_EDGE('',*,*,#372,.T.);
#183=ORIENTED_EDGE('',*,*,#449,.F.);
#184=ORIENTED_EDGE('',*,*,#372,.F.);
#185=ORIENTED_EDGE('',*,*,#422,.T.);
#186=ORIENTED_EDGE('',*,*,#373,.T.);
#187=ORIENTED_EDGE('',*,*,#448,.F.);
#188=ORIENTED_EDGE('',*,*,#373,.F.);
#189=ORIENTED_EDGE('',*,*,#421,.T.);
#190=ORIENTED_EDGE('',*,*,#374,.T.);
#191=ORIENTED_EDGE('',*,*,#447,.F.);
#192=ORIENTED_EDGE('',*,*,#374,.F.);
#193=ORIENTED_EDGE('',*,*,#420,.T.);
#194=ORIENTED_EDGE('',*,*,#375,.T.);
#195=ORIENTED_EDGE('',*,*,#446,.F.);
#196=ORIENTED_EDGE('',*,*,#375,.F.);
#197=ORIENTED_EDGE('',*,*,#419,.T.);
#198=ORIENTED_EDGE('',*,*,#376,.T.);
#199=ORIENTED_EDGE('',*,*,#445,.F.);
#200=ORIENTED_EDGE('',*,*,#376,.F.);
#201=ORIENTED_EDGE('',*,*,#418,.T.);
#202=ORIENTED_EDGE('',*,*,#377,.T.);
#203=ORIENTED_EDGE('',*,*,#444,.F.);
#204=ORIENTED_EDGE('',*,*,#377,.F.);
#205=ORIENTED_EDGE('',*,*,#417,.T.);
#206=ORIENTED_EDGE('',*,*,#378,.T.);
#207=ORIENTED_EDGE('',*,*,#443,.F.);
#208=ORIENTED_EDGE('',*,*,#378,.F.);
#209=ORIENTED_EDGE('',*,*,#416,.T.);
#210=ORIENTED_EDGE('',*,*,#379,.T.);
#211=ORIENTED_EDGE('',*,*,#442,.F.);
#212=ORIENTED_EDGE('',*,*,#379,.F.);
#213=ORIENTED_EDGE('',*,*,#415,.T.);
#214=ORIENTED_EDGE('',*,*,#380,.T.);
#215=ORIENTED_EDGE('',*,*,#441,.F.);
#216=ORIENTED_EDGE('',*,*,#380,.F.);
#217=ORIENTED_EDGE('',*,*,#414,.T.);
#218=ORIENTED_EDGE('',*,*,#381,.T.);
#219=ORIENTED_EDGE('',*,*,#440,.F.);
#220=ORIENTED_EDGE('',*,*,#381,.F.);
#221=ORIENTED_EDGE('',*,*,#413,.T.);
#222=ORIENTED_EDGE('',*,*,#382,.T.);
#223=ORIENTED_EDGE('',*,*,#439,.F.);
#224=ORIENTED_EDGE('',*,*,#382,.F.);
#225=ORIENTED_EDGE('',*,*,#412,.T.);
#226=ORIENTED_EDGE('',*,*,#383,.T.);
#227=ORIENTED_EDGE('',*,*,#438,.F.);
#228=ORIENTED_EDGE('',*,*,#383,.F.);
#229=ORIENTED_EDGE('',*,*,#411,.T.);
#230=ORIENTED_EDGE('',*,*,#384,.T.);
#231=ORIENTED_EDGE('',*,*,#437,.F.);
#232=ORIENTED_EDGE('',*,*,#384,.F.);
#233=ORIENTED_EDGE('',*,*,#410,.T.);
#234=ORIENTED_EDGE('',*,*,#385,.T.);
#235=ORIENTED_EDGE('',*,*,#436,.F.);
#236=ORIENTED_EDGE('',*,*,#385,.F.);
#237=ORIENTED_EDGE('',*,*,#409,.T.);
#238=ORIENTED_EDGE('',*,*,#386,.T.);
#239=ORIENTED_EDGE('',*,*,#435,.F.);
#240=ORIENTED_EDGE('',*,*,#386,.F.);
#241=ORIENTED_EDGE('',*,*,#408,.T.);
#242=ORIENTED_EDGE('',*,*,#387,.T.);
#243=ORIENTED_EDGE('',*,*,#434,.F.);
#244=ORIENTED_EDGE('',*,*,#387,.F.);
#245=ORIENTED_EDGE('',*,*,#407,.T.);
#246=ORIENTED_EDGE('',*,*,#388,.T.);
#247=ORIENTED_EDGE('',*,*,#433,.F.);
#248=ORIENTED_EDGE('',*,*,#388,.F.);
#249=ORIENTED_EDGE('',*,*,#406,.T.);
#250=ORIENTED_EDGE('',*,*,#389,.T.);
#251=ORIENTED_EDGE('',*,*,#432,.F.);
#252=ORIENTED_EDGE('',*,*,#389,.F.);
#253=ORIENTED_EDGE('',*,*,#405,.T.);
#254=ORIENTED_EDGE('',*,*,#390,.T.);
#255=ORIENTED_EDGE('',*,*,#431,.F.);
#256=ORIENTED_EDGE('',*,*,#390,.F.);
#257=ORIENTED_EDGE('',*,*,#404,.T.);
#258=ORIENTED_EDGE('',*,*,#391,.T.);
#259=ORIENTED_EDGE('',*,*,#430,.F.);
#260=ORIENTED_EDGE('',*,*,#391,.F.);
#261=ORIENTED_EDGE('',*,*,#403,.T.);
#262=ORIENTED_EDGE('',*,*,#392,.T.);
#263=ORIENTED_EDGE('',*,*,#429,.F.);
#264=ORIENTED_EDGE('',*,*,#392,.F.);
#265=ORIENTED_EDGE('',*,*,#402,.T.);
#266=ORIENTED_EDGE('',*,*,#393,.T.);
#267=ORIENTED_EDGE('',*,*,#428,.F.);
#268=ORIENTED_EDGE('',*,*,#393,.F.);
#269=ORIENTED_EDGE('',*,*,#401,.T.);
#270=ORIENTED_EDGE('',*,*,#394,.T.);
#271=ORIENTED_EDGE('',*,*,#427,.F.);
#272=ORIENTED_EDGE('',*,*,#394,.F.);
#273=ORIENTED_EDGE('',*,*,#400,.T.);
#274=ORIENTED_EDGE('',*,*,#395,.T.);
#275=ORIENTED_EDGE('',*,*,#426,.F.);
#276=ORIENTED_EDGE('',*,*,#395,.F.);
#277=ORIENTED_EDGE('',*,*,#399,.T.);
#278=ORIENTED_EDGE('',*,*,#396,.T.);
#279=ORIENTED_EDGE('',*,*,#425,.F.);
#280=ORIENTED_EDGE('',*,*,#396,.F.);
#281=ORIENTED_EDGE('',*,*,#398,.T.);
#282=ORIENTED_EDGE('',*,*,#397,.T.);
#283=ORIENTED_EDGE('',*,*,#424,.F.);
#284=ORIENTED_EDGE('',*,*,#398,.F.);
#285=ORIENTED_EDGE('',*,*,#399,.F.);
#286=ORIENTED_EDGE('',*,*,#400,.F.);
#287=ORIENTED_EDGE('',*,*,#401,.F.);
#288=ORIENTED_EDGE('',*,*,#402,.F.);
#289=ORIENTED_EDGE('',*,*,#403,.F.);
#290=ORIENTED_EDGE('',*,*,#404,.F.);
#291=ORIENTED_EDGE('',*,*,#405,.F.);
#292=ORIENTED_EDGE('',*,*,#406,.F.);
#293=ORIENTED_EDGE('',*,*,#407,.F.);
#294=ORIENTED_EDGE('',*,*,#408,.F.);
#295=ORIENTED_EDGE('',*,*,#409,.F.);
#296=ORIENTED_EDGE('',*,*,#410,.F.);
#297=ORIENTED_EDGE('',*,*,#411,.F.);
#298=ORIENTED_EDGE('',*,*,#412,.F.);
#299=ORIENTED_EDGE('',*,*,#413,.F.);
#300=ORIENTED_EDGE('',*,*,#414,.F.);
#301=ORIENTED_EDGE('',*,*,#415,.F.);
#302=ORIENTED_EDGE('',*,*,#416,.F.);
#303=ORIENTED_EDGE('',*,*,#417,.F.);
#304=ORIENTED_EDGE('',*,*,#418,.F.);
#305=ORIENTED_EDGE('',*,*,#419,.F.);
#306=ORIENTED_EDGE('',*,*,#420,.F.);
#307=ORIENTED_EDGE('',*,*,#421,.F.);
#308=ORIENTED_EDGE('',*,*,#422,.F.);
#309=ORIENTED_EDGE('',*,*,#423,.F.);
#310=ORIENTED_EDGE('',*,*,#451,.T.);
#311=ORIENTED_EDGE('',*,*,#450,.T.);
#312=ORIENTED_EDGE('',*,*,#449,.T.);
#313=ORIENTED_EDGE('',*,*,#448,.T.);
#314=ORIENTED_EDGE('',*,*,#447,.T.);
#315=ORIENTED_EDGE('',*,*,#446,.T.);
#316=ORIENTED_EDGE('',*,*,#445,.T.);
#317=ORIENTED_EDGE('',*,*,#444,.T.);
#318=ORIENTED_EDGE('',*,*,#443,.T.);
#319=ORIENTED_EDGE('',*,*,#442,.T.);
#320=ORIENTED_EDGE('',*,*,#441,.T.);
#321=ORIENTED_EDGE('',*,*,#440,.T.);
#322=ORIENTED_EDGE('',*,*,#439,.T.);
#323=ORIENTED_EDGE('',*,*,#438,.T.);
#324=ORIENTED_EDGE('',*,*,#437,.T.);
#325=ORIENTED_EDGE('',*,*,#436,.T.);
#326=ORIENTED_EDGE('',*,*,#435,.T.);
#327=ORIENTED_EDGE('',*,*,#434,.T.);
#328=ORIENTED_EDGE('',*,*,#433,.T.);
#329=ORIENTED_EDGE('',*,*,#432,.T.);
#330=ORIENTED_EDGE('',*,*,#431,.T.);
#331=ORIENTED_EDGE('',*,*,#430,.T.);
#332=ORIENTED_EDGE('',*,*,#429,.T.);
#333=ORIENTED_EDGE('',*,*,#428,.T.);
#334=ORIENTED_EDGE('',*,*,#427,.T.);
#335=ORIENTED_EDGE('',*,*,#426,.T.);
#336=ORIENTED_EDGE('',*,*,#425,.T.);
#337=SURFACE_OF_LINEAR_EXTRUSION('',#340,#550);
#338=B_SPLINE_CURVE_WITH_KNOTS('',3,(#942,#943,#944,#945),.UNSPECIFIED.,.F.,
.F.,(4,4),(0.,1.),.UNSPECIFIED.);
#339=B_SPLINE_CURVE_WITH_KNOTS('',3,(#972,#973,#974,#975),.UNSPECIFIED.,.F.,
.F.,(4,4),(0.,1.),.UNSPECIFIED.);
#340=B_SPLINE_CURVE_WITH_KNOTS('',3,(#976,#977,#978,#979),.UNSPECIFIED.,.F.,
.F.,(4,4),(0.,1.),.UNSPECIFIED.);
#341=CIRCLE('',#608,5.59491573323279);
#342=CIRCLE('',#609,1.87093238425209);
#343=CIRCLE('',#610,7.39393341663537);
#344=CIRCLE('',#611,73.0586699063493);
#345=CIRCLE('',#612,23.0444373461949);
#346=CIRCLE('',#613,68.7757640896628);
#347=CIRCLE('',#614,71.9431615543432);
#348=CIRCLE('',#615,31.4584755774702);
#349=CIRCLE('',#616,18.0731769577737);
#350=CIRCLE('',#617,30.9517103495757);
#351=CIRCLE('',#618,11.4505586091065);
#352=CIRCLE('',#619,6.64226426169632);
#353=CIRCLE('',#620,6.0103844885055);
#354=CIRCLE('',#621,20.0012826303354);
#355=CIRCLE('',#622,6.80539070944276);
#356=CIRCLE('',#623,5.59491573323279);
#357=CIRCLE('',#624,1.87093238425209);
#358=CIRCLE('',#625,7.39393341663537);
#359=CIRCLE('',#626,73.0586699063493);
#360=CIRCLE('',#627,23.0444373461949);
#361=CIRCLE('',#628,68.7757640896628);
#362=CIRCLE('',#629,71.9431615543432);
#363=CIRCLE('',#630,31.4584755774702);
#364=CIRCLE('',#631,18.0731769577737);
#365=CIRCLE('',#632,30.9517103495757);
#366=CIRCLE('',#633,11.4505586091065);
#367=CIRCLE('',#634,6.64226426169632);
#368=CIRCLE('',#635,6.0103844885055);
#369=CIRCLE('',#636,20.0012826303354);
#370=CIRCLE('',#637,6.80539070944276);
#371=EDGE_CURVE('',#577,#604,#452,.T.);
#372=EDGE_CURVE('',#576,#603,#453,.T.);
#373=EDGE_CURVE('',#575,#602,#454,.T.);
#374=EDGE_CURVE('',#574,#601,#455,.T.);
#375=EDGE_CURVE('',#573,#600,#456,.T.);
#376=EDGE_CURVE('',#572,#599,#457,.T.);
#377=EDGE_CURVE('',#571,#598,#458,.T.);
#378=EDGE_CURVE('',#570,#597,#459,.T.);
#379=EDGE_CURVE('',#569,#596,#460,.T.);
#380=EDGE_CURVE('',#568,#595,#461,.T.);
#381=EDGE_CURVE('',#567,#594,#462,.T.);
#382=EDGE_CURVE('',#566,#593,#463,.T.);
#383=EDGE_CURVE('',#565,#592,#464,.T.);
#384=EDGE_CURVE('',#564,#591,#465,.T.);
#385=EDGE_CURVE('',#563,#590,#466,.T.);
#386=EDGE_CURVE('',#562,#589,#467,.T.);
#387=EDGE_CURVE('',#561,#588,#468,.T.);
#388=EDGE_CURVE('',#560,#587,#469,.T.);
#389=EDGE_CURVE('',#559,#586,#470,.T.);
#390=EDGE_CURVE('',#558,#585,#471,.T.);
#391=EDGE_CURVE('',#557,#584,#472,.T.);
#392=EDGE_CURVE('',#556,#583,#473,.T.);
#393=EDGE_CURVE('',#555,#582,#474,.T.);
#394=EDGE_CURVE('',#554,#581,#475,.T.);
#395=EDGE_CURVE('',#553,#580,#476,.T.);
#396=EDGE_CURVE('',#552,#579,#477,.T.);
#397=EDGE_CURVE('',#551,#578,#478,.T.);
#398=EDGE_CURVE('',#552,#551,#341,.T.);
#399=EDGE_CURVE('',#553,#552,#342,.T.);
#400=EDGE_CURVE('',#554,#553,#343,.T.);
#401=EDGE_CURVE('',#555,#554,#344,.T.);
#402=EDGE_CURVE('',#556,#555,#345,.T.);
#403=EDGE_CURVE('',#557,#556,#346,.T.);
#404=EDGE_CURVE('',#558,#557,#347,.T.);
#405=EDGE_CURVE('',#559,#558,#348,.T.);
#406=EDGE_CURVE('',#560,#559,#349,.T.);
#407=EDGE_CURVE('',#561,#560,#479,.T.);
#408=EDGE_CURVE('',#562,#561,#350,.T.);
#409=EDGE_CURVE('',#563,#562,#351,.T.);
#410=EDGE_CURVE('',#564,#563,#352,.T.);
#411=EDGE_CURVE('',#565,#564,#480,.T.);
#412=EDGE_CURVE('',#566,#565,#353,.T.);
#413=EDGE_CURVE('',#567,#566,#354,.T.);
#414=EDGE_CURVE('',#568,#567,#481,.T.);
#415=EDGE_CURVE('',#569,#568,#482,.T.);
#416=EDGE_CURVE('',#570,#569,#483,.T.);
#417=EDGE_CURVE('',#571,#570,#484,.T.);
#418=EDGE_CURVE('',#572,#571,#485,.T.);
#419=EDGE_CURVE('',#573,#572,#486,.T.);
#420=EDGE_CURVE('',#574,#573,#487,.T.);
#421=EDGE_CURVE('',#575,#574,#488,.T.);
#422=EDGE_CURVE('',#576,#575,#355,.T.);
#423=EDGE_CURVE('',#577,#576,#489,.T.);
#424=EDGE_CURVE('',#551,#577,#338,.T.);
#425=EDGE_CURVE('',#579,#578,#356,.T.);
#426=EDGE_CURVE('',#580,#579,#357,.T.);
#427=EDGE_CURVE('',#581,#580,#358,.T.);
#428=EDGE_CURVE('',#582,#581,#359,.T.);
#429=EDGE_CURVE('',#583,#582,#360,.T.);
#430=EDGE_CURVE('',#584,#583,#361,.T.);
#431=EDGE_CURVE('',#585,#584,#362,.T.);
#432=EDGE_CURVE('',#586,#585,#363,.T.);
#433=EDGE_CURVE('',#587,#586,#364,.T.);
#434=EDGE_CURVE('',#588,#587,#490,.T.);
#435=EDGE_CURVE('',#589,#588,#365,.T.);
#436=EDGE_CURVE('',#590,#589,#366,.T.);
#437=EDGE_CURVE('',#591,#590,#367,.T.);
#438=EDGE_CURVE('',#592,#591,#491,.T.);
#439=EDGE_CURVE('',#593,#592,#368,.T.);
#440=EDGE_CURVE('',#594,#593,#369,.T.);
#441=EDGE_CURVE('',#595,#594,#492,.T.);
#442=EDGE_CURVE('',#596,#595,#493,.T.);
#443=EDGE_CURVE('',#597,#596,#494,.T.);
#444=EDGE_CURVE('',#598,#597,#495,.T.);
#445=EDGE_CURVE('',#599,#598,#496,.T.);
#446=EDGE_CURVE('',#600,#599,#497,.T.);
#447=EDGE_CURVE('',#601,#600,#498,.T.);
#448=EDGE_CURVE('',#602,#601,#499,.T.);
#449=EDGE_CURVE('',#603,#602,#370,.T.);
#450=EDGE_CURVE('',#604,#603,#500,.T.);
#451=EDGE_CURVE('',#578,#604,#339,.T.);
#452=LINE('',#889,#501);
#453=LINE('',#890,#502);
#454=LINE('',#891,#503);
#455=LINE('',#892,#504);
#456=LINE('',#893,#505);
#457=LINE('',#894,#506);
#458=LINE('',#895,#507);
#459=LINE('',#896,#508);
#460=LINE('',#897,#509);
#461=LINE('',#898,#510);
#462=LINE('',#899,#511);
#463=LINE('',#900,#512);
#464=LINE('',#901,#513);
#465=LINE('',#902,#514);
#466=LINE('',#903,#515);
#467=LINE('',#904,#516);
#468=LINE('',#905,#517);
#469=LINE('',#906,#518);
#470=LINE('',#907,#519);
#471=LINE('',#908,#520);
#472=LINE('',#909,#521);
#473=LINE('',#910,#522);
#474=LINE('',#911,#523);
#475=LINE('',#912,#524);
#476=LINE('',#913,#525);
#477=LINE('',#914,#526);
#478=LINE('',#915,#527);
#479=LINE('',#925,#528);
#480=LINE('',#929,#529);
#481=LINE('',#932,#530);
#482=LINE('',#933,#531);
#483=LINE('',#934,#532);
#484=LINE('',#935,#533);
#485=LINE('',#936,#534);
#486=LINE('',#937,#535);
#487=LINE('',#938,#536);
#488=LINE('',#939,#537);
#489=LINE('',#941,#538);
#490=LINE('',#955,#539);
#491=LINE('',#959,#540);
#492=LINE('',#962,#541);
#493=LINE('',#963,#542);
#494=LINE('',#964,#543);
#495=LINE('',#965,#544);
#496=LINE('',#966,#545);
#497=LINE('',#967,#546);
#498=LINE('',#968,#547);
#499=LINE('',#969,#548);
#500=LINE('',#971,#549);
#501=VECTOR('',#668,1.);
#502=VECTOR('',#669,1.);
#503=VECTOR('',#670,1.);
#504=VECTOR('',#671,1.);
#505=VECTOR('',#672,1.);
#506=VECTOR('',#673,1.);
#507=VECTOR('',#674,1.);
#508=VECTOR('',#675,1.);
#509=VECTOR('',#676,1.);
#510=VECTOR('',#677,1.);
#511=VECTOR('',#678,1.);
#512=VECTOR('',#679,1.);
#513=VECTOR('',#680,1.);
#514=VECTOR('',#681,1.);
#515=VECTOR('',#682,1.);
#516=VECTOR('',#683,1.);
#517=VECTOR('',#684,1.);
#518=VECTOR('',#685,1.);
#519=VECTOR('',#686,1.);
#520=VECTOR('',#687,1.);
#521=VECTOR('',#688,1.);
#522=VECTOR('',#689,1.);
#523=VECTOR('',#690,1.);
#524=VECTOR('',#691,1.);
#525=VECTOR('',#692,1.);
#526=VECTOR('',#693,1.);
#527=VECTOR('',#694,1.);
#528=VECTOR('',#713,1.);
#529=VECTOR('',#720,1.);
#530=VECTOR('',#725,1.);
#531=VECTOR('',#726,1.);
#532=VECTOR('',#727,1.);
#533=VECTOR('',#728,1.);
#534=VECTOR('',#729,1.);
#535=VECTOR('',#730,1.);
#536=VECTOR('',#731,1.);
#537=VECTOR('',#732,1.);
#538=VECTOR('',#735,1.);
#539=VECTOR('',#754,1.);
#540=VECTOR('',#761,1.);
#541=VECTOR('',#766,1.);
#542=VECTOR('',#767,1.);
#543=VECTOR('',#768,1.);
#544=VECTOR('',#769,1.);
#545=VECTOR('',#770,1.);
#546=VECTOR('',#771,1.);
#547=VECTOR('',#772,1.);
#548=VECTOR('',#773,1.);
#549=VECTOR('',#776,1.);
#550=VECTOR('',#777,1.);
#551=VERTEX_POINT('',#835);
#552=VERTEX_POINT('',#836);
#553=VERTEX_POINT('',#837);
#554=VERTEX_POINT('',#838);
#555=VERTEX_POINT('',#839);
#556=VERTEX_POINT('',#840);
#557=VERTEX_POINT('',#841);
#558=VERTEX_POINT('',#842);
#559=VERTEX_POINT('',#843);
#560=VERTEX_POINT('',#844);
#561=VERTEX_POINT('',#845);
#562=VERTEX_POINT('',#846);
#563=VERTEX_POINT('',#847);
#564=VERTEX_POINT('',#848);
#565=VERTEX_POINT('',#849);
#566=VERTEX_POINT('',#850);
#567=VERTEX_POINT('',#851);
#568=VERTEX_POINT('',#852);
#569=VERTEX_POINT('',#853);
#570=VERTEX_POINT('',#854);
#571=VERTEX_POINT('',#855);
#572=VERTEX_POINT('',#856);
#573=VERTEX_POINT('',#857);
#574=VERTEX_POINT('',#858);
#575=VERTEX_POINT('',#859);
#576=VERTEX_POINT('',#860);
#577=VERTEX_POINT('',#861);
#578=VERTEX_POINT('',#862);
#579=VERTEX_POINT('',#863);
#580=VERTEX_POINT('',#864);
#581=VERTEX_POINT('',#865);
#582=VERTEX_POINT('',#866);
#583=VERTEX_POINT('',#867);
#584=VERTEX_POINT('',#868);
#585=VERTEX_POINT('',#869);
#586=VERTEX_POINT('',#870);
#587=VERTEX_POINT('',#871);
#588=VERTEX_POINT('',#872);
#589=VERTEX_POINT('',#873);
#590=VERTEX_POINT('',#874);
#591=VERTEX_POINT('',#875);
#592=VERTEX_POINT('',#876);
#593=VERTEX_POINT('',#877);
#594=VERTEX_POINT('',#878);
#595=VERTEX_POINT('',#879);
#596=VERTEX_POINT('',#880);
#597=VERTEX_POINT('',#881);
#598=VERTEX_POINT('',#882);
#599=VERTEX_POINT('',#883);
#600=VERTEX_POINT('',#884);
#601=VERTEX_POINT('',#885);
#602=VERTEX_POINT('',#886);
#603=VERTEX_POINT('',#887);
#604=VERTEX_POINT('',#888);
#605=SHAPE_DEFINITION_REPRESENTATION(#1008,#606);
#606=SHAPE_REPRESENTATION('master',(#607),#1010);
#607=AXIS2_PLACEMENT_3D('',#834,#667,#666);
#608=AXIS2_PLACEMENT_3D('',#916,#696,#695);
#609=AXIS2_PLACEMENT_3D('',#917,#698,#697);
#610=AXIS2_PLACEMENT_3D('',#918,#700,#699);
#611=AXIS2_PLACEMENT_3D('',#919,#702,#701);
#612=AXIS2_PLACEMENT_3D('',#920,#704,#703);
#613=AXIS2_PLACEMENT_3D('',#921,#706,#705);
#614=AXIS2_PLACEMENT_3D('',#922,#708,#707);
#615=AXIS2_PLACEMENT_3D('',#923,#710,#709);
#616=AXIS2_PLACEMENT_3D('',#924,#712,#711);
#617=AXIS2_PLACEMENT_3D('',#926,#715,#714);
#618=AXIS2_PLACEMENT_3D('',#927,#717,#716);
#619=AXIS2_PLACEMENT_3D('',#928,#719,#718);
#620=AXIS2_PLACEMENT_3D('',#930,#722,#721);
#621=AXIS2_PLACEMENT_3D('',#931,#724,#723);
#622=AXIS2_PLACEMENT_3D('',#940,#734,#733);
#623=AXIS2_PLACEMENT_3D('',#946,#737,#736);
#624=AXIS2_PLACEMENT_3D('',#947,#739,#738);
#625=AXIS2_PLACEMENT_3D('',#948,#741,#740);
#626=AXIS2_PLACEMENT_3D('',#949,#743,#742);
#627=AXIS2_PLACEMENT_3D('',#950,#745,#744);
#628=AXIS2_PLACEMENT_3D('',#951,#747,#746);
#629=AXIS2_PLACEMENT_3D('',#952,#749,#748);
#630=AXIS2_PLACEMENT_3D('',#953,#751,#750);
#631=AXIS2_PLACEMENT_3D('',#954,#753,#752);
#632=AXIS2_PLACEMENT_3D('',#956,#756,#755);
#633=AXIS2_PLACEMENT_3D('',#957,#758,#757);
#634=AXIS2_PLACEMENT_3D('',#958,#760,#759);
#635=AXIS2_PLACEMENT_3D('',#960,#763,#762);
#636=AXIS2_PLACEMENT_3D('',#961,#765,#764);
#637=AXIS2_PLACEMENT_3D('',#970,#775,#774);
#638=AXIS2_PLACEMENT_3D('',#980,#779,#778);
#639=AXIS2_PLACEMENT_3D('',#981,#781,#780);
#640=AXIS2_PLACEMENT_3D('',#982,#783,#782);
#641=AXIS2_PLACEMENT_3D('',#983,#785,#784);
#642=AXIS2_PLACEMENT_3D('',#984,#787,#786);
#643=AXIS2_PLACEMENT_3D('',#985,#789,#788);
#644=AXIS2_PLACEMENT_3D('',#986,#791,#790);
#645=AXIS2_PLACEMENT_3D('',#987,#793,#792);
#646=AXIS2_PLACEMENT_3D('',#988,#795,#794);
#647=AXIS2_PLACEMENT_3D('',#989,#797,#796);
#648=AXIS2_PLACEMENT_3D('',#990,#799,#798);
#649=AXIS2_PLACEMENT_3D('',#991,#801,#800);
#650=AXIS2_PLACEMENT_3D('',#992,#803,#802);
#651=AXIS2_PLACEMENT_3D('',#993,#805,#804);
#652=AXIS2_PLACEMENT_3D('',#994,#807,#806);
#653=AXIS2_PLACEMENT_3D('',#995,#809,#808);
#654=AXIS2_PLACEMENT_3D('',#996,#811,#810);
#655=AXIS2_PLACEMENT_3D('',#997,#813,#812);
#656=AXIS2_PLACEMENT_3D('',#998,#815,#814);
#657=AXIS2_PLACEMENT_3D('',#999,#817,#816);
#658=AXIS2_PLACEMENT_3D('',#1000,#819,#818);
#659=AXIS2_PLACEMENT_3D('',#1001,#821,#820);
#660=AXIS2_PLACEMENT_3D('',#1002,#823,#822);
#661=AXIS2_PLACEMENT_3D('',#1003,#825,#824);
#662=AXIS2_PLACEMENT_3D('',#1004,#827,#826);
#663=AXIS2_PLACEMENT_3D('',#1005,#829,#828);
#664=AXIS2_PLACEMENT_3D('',#1006,#831,#830);
#665=AXIS2_PLACEMENT_3D('',#1007,#833,#832);
#666=DIRECTION('',(1.,0.,0.));
#667=DIRECTION('',(0.,0.,1.));
#668=DIRECTION('',(5.28876920344752E-016,-1.,-4.01265289465998E-016));
#669=DIRECTION('',(5.28876920344752E-016,-1.,-4.01265289465998E-016));
#670=DIRECTION('',(5.28876920344752E-016,-1.,-4.01265289465998E-016));
#671=DIRECTION('',(5.28876920344752E-016,-1.,-4.01265289465998E-016));
#672=DIRECTION('',(5.28876920344752E-016,-1.,-4.01265289465998E-016));
#673=DIRECTION('',(5.28876920344752E-016,-1.,-4.01265289465998E-016));
#674=DIRECTION('',(5.28876920344752E-016,-1.,-4.01265289465998E-016));
#675=DIRECTION('',(5.28876920344752E-016,-1.,-4.01265289465998E-016));
#676=DIRECTION('',(5.28876920344752E-016,-1.,-4.01265289465998E-016));
#677=DIRECTION('',(5.28876920344752E-016,-1.,-4.01265289465998E-016));
#678=DIRECTION('',(5.28876920344752E-016,-1.,-4.01265289465998E-016));
#679=DIRECTION('',(5.28876920344752E-016,-1.,-4.01265289465998E-016));
#680=DIRECTION('',(5.28876920344752E-016,-1.,-4.01265289465998E-016));
#681=DIRECTION('',(5.28876920344752E-016,-1.,-4.01265289465998E-016));
#682=DIRECTION('',(5.28876920344752E-016,-1.,-4.01265289465998E-016));
#683=DIRECTION('',(5.28876920344752E-016,-1.,-4.01265289465998E-016));
#684=DIRECTION('',(5.28876920344752E-016,-1.,-4.01265289465998E-016));
#685=DIRECTION('',(5.28876920344752E-016,-1.,-4.01265289465998E-016));
#686=DIRECTION('',(5.28876920344752E-016,-1.,-4.01265289465998E-016));
#687=DIRECTION('',(5.28876920344752E-016,-1.,-4.01265289465998E-016));
#688=DIRECTION('',(5.28876920344752E-016,-1.,-4.01265289465998E-016));
#689=DIRECTION('',(5.28876920344752E-016,-1.,-4.01265289465998E-016));
#690=DIRECTION('',(5.28876920344752E-016,-1.,-4.01265289465998E-016));
#691=DIRECTION('',(5.28876920344752E-016,-1.,-4.01265289465998E-016));
#692=DIRECTION('',(5.28876920344752E-016,-1.,-4.01265289465998E-016));
#693=DIRECTION('',(5.28876920344752E-016,-1.,-4.01265289465998E-016));
#694=DIRECTION('',(5.28876920344752E-016,-1.,-4.01265289465998E-016));
#695=DIRECTION('',(-0.0980463961992468,0.,-0.995181844786339));
#696=DIRECTION('',(0.,-1.,-0.));
#697=DIRECTION('',(-0.935194617609051,0.,0.354134193767082));
#698=DIRECTION('',(0.,1.,0.));
#699=DIRECTION('',(-0.524547538200435,-0.,-0.851381160331765));
#700=DIRECTION('',(0.,-1.,0.));
#701=DIRECTION('',(-0.606325231613682,-0.,-0.795216771395457));
#702=DIRECTION('',(0.,-1.,0.));
#703=DIRECTION('',(0.0824382454403189,-0.,0.996596174831472));
#704=DIRECTION('',(0.,1.,0.));
#705=DIRECTION('',(-0.217221554474763,0.,0.97612232648965));
#706=DIRECTION('',(0.,1.,0.));
#707=DIRECTION('',(-0.649723225186127,0.,0.760170856224926));
#708=DIRECTION('',(0.,1.,0.));
#709=DIRECTION('',(-0.94428089293071,0.,0.329140692175824));
#710=DIRECTION('',(0.,1.,0.));
#711=DIRECTION('',(-0.887917980829468,0.,-0.460001803604857));
#712=DIRECTION('',(0.,1.,0.));
#713=DIRECTION('',(0.347538950037012,-0.,0.937665547094043));
#714=DIRECTION('',(0.804300532076936,0.,0.594222731053565));
#715=DIRECTION('',(0.,-1.,0.));
#716=DIRECTION('',(0.987537181921937,0.,-0.157385877135399));
#717=DIRECTION('',(0.,-1.,0.));
#718=DIRECTION('',(-0.048755819382928,0.,-0.998810727854031));
#719=DIRECTION('',(0.,-1.,-0.));
#720=DIRECTION('',(0.166932740370533,0.,0.985968285591572));
#721=DIRECTION('',(-0.957370353395859,0.,0.288863300608936));
#722=DIRECTION('',(0.,1.,0.));
#723=DIRECTION('',(-0.992391688282342,0.,0.123120822885991));
#724=DIRECTION('',(0.,1.,0.));
#725=DIRECTION('',(1.,-0.,-0.));
#726=DIRECTION('',(-2.13504183252834E-015,-0.,-1.));
#727=DIRECTION('',(-0.727862505095149,-0.,-0.685723102772988));
#728=DIRECTION('',(-0.985691472569703,-0.,-0.168559547054953));
#729=DIRECTION('',(-0.999181542070937,0.,0.0404505375087156));
#730=DIRECTION('',(-0.646521639502462,-0.,-0.762895647946066));
#731=DIRECTION('',(-0.999281315040039,0.,0.037905849309184));
#732=DIRECTION('',(0.368048389762264,-0.,0.929806637314127));
#733=DIRECTION('',(-0.882206889753189,0.,0.470861979429221));
#734=DIRECTION('',(0.,1.,0.));
#735=DIRECTION('',(1.,-0.,-0.));
#736=DIRECTION('',(-0.0980463961992468,0.,-0.995181844786339));
#737=DIRECTION('',(0.,-1.,-0.));
#738=DIRECTION('',(-0.935194617609051,0.,0.354134193767082));
#739=DIRECTION('',(0.,1.,0.));
#740=DIRECTION('',(-0.524547538200435,-0.,-0.851381160331765));
#741=DIRECTION('',(0.,-1.,0.));
#742=DIRECTION('',(-0.606325231613682,-0.,-0.795216771395457));
#743=DIRECTION('',(0.,-1.,0.));
#744=DIRECTION('',(0.0824382454403189,-0.,0.996596174831472));
#745=DIRECTION('',(0.,1.,0.));
#746=DIRECTION('',(-0.217221554474763,0.,0.97612232648965));
#747=DIRECTION('',(0.,1.,0.));
#748=DIRECTION('',(-0.649723225186127,0.,0.760170856224926));
#749=DIRECTION('',(0.,1.,0.));
#750=DIRECTION('',(-0.94428089293071,0.,0.329140692175824));
#751=DIRECTION('',(0.,1.,0.));
#752=DIRECTION('',(-0.887917980829468,0.,-0.460001803604857));
#753=DIRECTION('',(0.,1.,0.));
#754=DIRECTION('',(0.347538950037012,-0.,0.937665547094043));
#755=DIRECTION('',(0.804300532076936,0.,0.594222731053565));
#756=DIRECTION('',(0.,-1.,0.));
#757=DIRECTION('',(0.987537181921937,0.,-0.157385877135399));
#758=DIRECTION('',(0.,-1.,0.));
#759=DIRECTION('',(-0.048755819382928,0.,-0.998810727854031));
#760=DIRECTION('',(0.,-1.,-0.));
#761=DIRECTION('',(0.166932740370533,0.,0.985968285591572));
#762=DIRECTION('',(-0.957370353395859,0.,0.288863300608936));
#763=DIRECTION('',(0.,1.,0.));
#764=DIRECTION('',(-0.992391688282342,0.,0.123120822885991));
#765=DIRECTION('',(0.,1.,0.));
#766=DIRECTION('',(1.,-0.,-0.));
#767=DIRECTION('',(-2.13504183252834E-015,-0.,-1.));
#768=DIRECTION('',(-0.727862505095149,-0.,-0.685723102772988));
#769=DIRECTION('',(-0.985691472569703,-0.,-0.168559547054953));
#770=DIRECTION('',(-0.999181542070937,0.,0.0404505375087156));
#771=DIRECTION('',(-0.646521639502462,-0.,-0.762895647946066));
#772=DIRECTION('',(-0.999281315040039,0.,0.037905849309184));
#773=DIRECTION('',(0.368048389762264,-0.,0.929806637314127));
#774=DIRECTION('',(-0.882206889753189,0.,0.470861979429221));
#775=DIRECTION('',(0.,1.,0.));
#776=DIRECTION('',(1.,-0.,-0.));
#777=DIRECTION('',(5.28876920344752E-016,-1.,-4.01265289465998E-016));
#778=DIRECTION('',(0.,1.,4.01265289465998E-016));
#779=DIRECTION('',(0.,4.01265289465998E-016,-1.));
#780=DIRECTION('',(1.,5.28876920344752E-016,0.));
#781=DIRECTION('',(5.28876920344752E-016,-1.,-4.01265289465998E-016));
#782=DIRECTION('',(-0.368048389762264,2.46519032881566E-032,-0.929806637314127
));
#783=DIRECTION('',(0.929806637314127,6.39438314514255E-016,-0.368048389762264)
);
#784=DIRECTION('',(0.999281315040039,0.,-0.037905849309184));
#785=DIRECTION('',(0.037905849309184,-3.80929377291811E-016,0.999281315040039)
);
#786=DIRECTION('',(0.646521639502462,4.93038065763132E-032,0.762895647946066)
);
#787=DIRECTION('',(-0.762895647946066,-6.62904593651117E-016,0.646521639502462
));
#788=DIRECTION('',(0.999181542070937,0.,-0.0404505375087156));
#789=DIRECTION('',(0.0404505375087156,-3.79543515004278E-016,0.999181542070937
));
#790=DIRECTION('',(0.985691472569703,1.23259516440783E-032,0.168559547054953)
);
#791=DIRECTION('',(-0.168559547054953,-4.84671028205978E-016,0.985691472569703
));
#792=DIRECTION('',(0.727862505095149,4.93038065763132E-032,0.685723102772988)
);
#793=DIRECTION('',(-0.685723102772988,-6.54729081602277E-016,0.727862505095149
));
#794=DIRECTION('',(2.13504183252834E-015,0.,1.));
#795=DIRECTION('',(-1.,-5.28876920344753E-016,2.13504183252834E-015));
#796=DIRECTION('',(0.,1.,4.01265289465998E-016));
#797=DIRECTION('',(0.,4.01265289465998E-016,-1.));
#798=DIRECTION('',(1.,5.28876920344752E-016,0.));
#799=DIRECTION('',(5.28876920344752E-016,-1.,-4.01265289465998E-016));
#800=DIRECTION('',(1.,5.28876920344752E-016,0.));
#801=DIRECTION('',(5.28876920344752E-016,-1.,-4.01265289465998E-016));
#802=DIRECTION('',(-0.166932740370533,0.,-0.985968285591572));
#803=DIRECTION('',(0.985968285591572,5.884401848274E-016,-0.166932740370533));
#804=DIRECTION('',(1.,5.28876920344752E-016,0.));
#805=DIRECTION('',(5.28876920344752E-016,-1.,-4.01265289465998E-016));
#806=DIRECTION('',(1.,5.28876920344752E-016,0.));
#807=DIRECTION('',(5.28876920344752E-016,-1.,-4.01265289465998E-016));
#808=DIRECTION('',(1.,5.28876920344752E-016,0.));
#809=DIRECTION('',(5.28876920344752E-016,-1.,-4.01265289465998E-016));
#810=DIRECTION('',(-0.347538950037012,0.,-0.937665547094043));
#811=DIRECTION('',(0.937665547094043,6.35364984247785E-016,-0.347538950037012)
);
#812=DIRECTION('',(1.,5.28876920344752E-016,0.));
#813=DIRECTION('',(5.28876920344752E-016,-1.,-4.01265289465998E-016));
#814=DIRECTION('',(1.,5.28876920344752E-016,0.));
#815=DIRECTION('',(5.28876920344752E-016,-1.,-4.01265289465998E-016));
#816=DIRECTION('',(1.,5.28876920344752E-016,0.));
#817=DIRECTION('',(5.28876920344752E-016,-1.,-4.01265289465998E-016));
#818=DIRECTION('',(1.,5.28876920344752E-016,0.));
#819=DIRECTION('',(5.28876920344752E-016,-1.,-4.01265289465998E-016));
#820=DIRECTION('',(1.,5.28876920344752E-016,0.));
#821=DIRECTION('',(5.28876920344752E-016,-1.,-4.01265289465998E-016));
#822=DIRECTION('',(1.,5.28876920344752E-016,0.));
#823=DIRECTION('',(5.28876920344752E-016,-1.,-4.01265289465998E-016));
#824=DIRECTION('',(1.,5.28876920344752E-016,0.));
#825=DIRECTION('',(5.28876920344752E-016,-1.,-4.01265289465998E-016));
#826=DIRECTION('',(1.,5.28876920344752E-016,0.));
#827=DIRECTION('',(5.28876920344752E-016,-1.,-4.01265289465998E-016));
#828=DIRECTION('',(1.,5.28876920344752E-016,0.));
#829=DIRECTION('',(5.28876920344752E-016,-1.,-4.01265289465998E-016));
#830=DIRECTION('',(0.,0.,-1.));
#831=DIRECTION('',(0.,-1.,0.));
#832=DIRECTION('',(0.,0.,-1.));
#833=DIRECTION('',(0.,-1.,0.));
#834=CARTESIAN_POINT('',(0.,0.,0.));
#835=CARTESIAN_POINT('',(211.043591806853,2168.281361,2239.9899359199));
#836=CARTESIAN_POINT('',(205.823005261314,2168.281361,2237.50016877575));
#837=CARTESIAN_POINT('',(203.889881187842,2168.281361,2236.30081196561));
#838=CARTESIAN_POINT('',(193.096644882331,2168.281361,2232.6242010032));
#839=CARTESIAN_POINT('',(187.122075373552,2168.281361,2236.72749655499));
#840=CARTESIAN_POINT('',(175.049394544193,2168.281361,2241.36817160029));
#841=CARTESIAN_POINT('',(154.440062838079,2168.281361,2239.96006703672));
#842=CARTESIAN_POINT('',(123.324525269568,2168.281361,2224.42383552357));
#843=CARTESIAN_POINT('',(114.058190072668,2168.281361,2210.86428363468));
#844=CARTESIAN_POINT('',(115.076846956929,2168.281361,2196.60197166353));
#845=CARTESIAN_POINT('',(114.416072782725,2168.281361,2194.81919256066));
#846=CARTESIAN_POINT('',(120.935198968826,2168.281361,2188.30447863401));
#847=CARTESIAN_POINT('',(123.033360967212,2168.281361,2179.69814021483));
#848=CARTESIAN_POINT('',(116.150028999999,2168.281361,2174.109174));
#849=CARTESIAN_POINT('',(115.73182614874,2168.281361,2171.63910882663));
#850=CARTESIAN_POINT('',(111.175375067969,2168.281361,2167.48544914079));
#851=CARTESIAN_POINT('',(110.474903450813,2168.281361,2164.170387));
#852=CARTESIAN_POINT('',(103.080453999999,2168.281361,2164.170387));
#853=CARTESIAN_POINT('',(103.080453999999,2168.281361,2217.41844799325));
#854=CARTESIAN_POINT('',(129.380032999999,2168.281361,2242.19542));
#855=CARTESIAN_POINT('',(161.568132999999,2168.281361,2247.699791));
#856=CARTESIAN_POINT('',(196.912851999999,2168.281361,2246.268907));
#857=CARTESIAN_POINT('',(199.651065999999,2168.281361,2249.5));
#858=CARTESIAN_POINT('',(222.945652538697,2168.281361,2248.61636385694));
#859=CARTESIAN_POINT('',(220.951448999999,2168.281361,2243.578375));
#860=CARTESIAN_POINT('',(214.542649999999,2168.281361,2239.989448));
#861=CARTESIAN_POINT('',(211.292649999999,2168.281361,2239.989448));
#862=CARTESIAN_POINT('',(211.043591806854,168.281361,2239.9899359199));
#863=CARTESIAN_POINT('',(205.823005261315,168.281361,2237.50016877575));
#864=CARTESIAN_POINT('',(203.889881187844,168.281361,2236.30081196561));
#865=CARTESIAN_POINT('',(193.096644882332,168.281361,2232.6242010032));
#866=CARTESIAN_POINT('',(187.122075373553,168.281361,2236.72749655499));
#867=CARTESIAN_POINT('',(175.049394544194,168.281361,2241.36817160029));
#868=CARTESIAN_POINT('',(154.44006283808,168.281361,2239.96006703672));
#869=CARTESIAN_POINT('',(123.324525269569,168.281361,2224.42383552357));
#870=CARTESIAN_POINT('',(114.058190072669,168.281361,2210.86428363468));
#871=CARTESIAN_POINT('',(115.07684695693,168.281361,2196.60197166353));
#872=CARTESIAN_POINT('',(114.416072782726,168.281361,2194.81919256066));
#873=CARTESIAN_POINT('',(120.935198968827,168.281361,2188.30447863401));
#874=CARTESIAN_POINT('',(123.033360967213,168.281361,2179.69814021483));
#875=CARTESIAN_POINT('',(116.150029,168.281361,2174.109174));
#876=CARTESIAN_POINT('',(115.731826148741,168.281361,2171.63910882663));
#877=CARTESIAN_POINT('',(111.17537506797,168.281361,2167.48544914079));
#878=CARTESIAN_POINT('',(110.474903450814,168.281361,2164.170387));
#879=CARTESIAN_POINT('',(103.080454,168.281361,2164.170387));
#880=CARTESIAN_POINT('',(103.080454,168.281361,2217.41844799325));
#881=CARTESIAN_POINT('',(129.380033,168.281361,2242.19542));
#882=CARTESIAN_POINT('',(161.568133,168.281361,2247.699791));
#883=CARTESIAN_POINT('',(196.912852,168.281361,2246.268907));
#884=CARTESIAN_POINT('',(199.651066,168.281361,2249.5));
#885=CARTESIAN_POINT('',(222.945652538698,168.281361,2248.61636385694));
#886=CARTESIAN_POINT('',(220.951449,168.281361,2243.578375));
#887=CARTESIAN_POINT('',(214.54265,168.281361,2239.989448));
#888=CARTESIAN_POINT('',(211.29265,168.281361,2239.989448));
#889=CARTESIAN_POINT('',(211.292649999999,2168.281361,2239.989448));
#890=CARTESIAN_POINT('',(214.542649999999,2168.281361,2239.989448));
#891=CARTESIAN_POINT('',(220.951448999999,2168.281361,2243.578375));
#892=CARTESIAN_POINT('',(222.945652538697,2168.281361,2248.61636385694));
#893=CARTESIAN_POINT('',(199.651065999999,2168.281361,2249.5));
#894=CARTESIAN_POINT('',(196.912851999999,2168.281361,2246.268907));
#895=CARTESIAN_POINT('',(161.568132999999,2168.281361,2247.699791));
#896=CARTESIAN_POINT('',(129.380032999999,2168.281361,2242.19542));
#897=CARTESIAN_POINT('',(103.080453999999,2168.281361,2217.41844799325));
#898=CARTESIAN_POINT('',(103.080453999999,2168.281361,2164.170387));
#899=CARTESIAN_POINT('',(110.474903450813,2168.281361,2164.170387));
#900=CARTESIAN_POINT('',(111.175375067969,2168.281361,2167.48544914079));
#901=CARTESIAN_POINT('',(115.73182614874,2168.281361,2171.63910882663));
#902=CARTESIAN_POINT('',(116.150028999999,2168.281361,2174.109174));
#903=CARTESIAN_POINT('',(123.033360967212,2168.281361,2179.69814021483));
#904=CARTESIAN_POINT('',(120.935198968826,2168.281361,2188.30447863401));
#905=CARTESIAN_POINT('',(114.416072782725,2168.281361,2194.81919256066));
#906=CARTESIAN_POINT('',(115.076846956929,2168.281361,2196.60197166353));
#907=CARTESIAN_POINT('',(114.058190072668,2168.281361,2210.86428363468));
#908=CARTESIAN_POINT('',(123.324525269568,2168.281361,2224.42383552357));
#909=CARTESIAN_POINT('',(154.440062838079,2168.281361,2239.96006703672));
#910=CARTESIAN_POINT('',(175.049394544193,2168.281361,2241.36817160029));
#911=CARTESIAN_POINT('',(187.122075373552,2168.281361,2236.72749655499));
#912=CARTESIAN_POINT('',(193.096644882331,2168.281361,2232.6242010032));
#913=CARTESIAN_POINT('',(203.889881187842,2168.281361,2236.30081196561));
#914=CARTESIAN_POINT('',(205.823005261314,2168.281361,2237.50016877575));
#915=CARTESIAN_POINT('',(211.043591806853,2168.281361,2239.9899359199));
#916=CARTESIAN_POINT('',(206.371566585996,2168.281361,2243.06812733657));
#917=CARTESIAN_POINT('',(205.639567083506,2168.281361,2235.63825083412));
#918=CARTESIAN_POINT('',(196.975114453645,2168.281361,2238.91925661487));
#919=CARTESIAN_POINT('',(231.419390325906,2168.281361,2294.82497616037));
#920=CARTESIAN_POINT('',(173.149651562213,2168.281361,2218.40217348993));
#921=CARTESIAN_POINT('',(169.379641223824,2168.281361,2172.82650818742));
#922=CARTESIAN_POINT('',(170.067668224742,2168.281361,2169.73474080527));
#923=CARTESIAN_POINT('',(143.7638274812,2168.281361,2200.51001920831));
#924=CARTESIAN_POINT('',(131.124345748449,2168.281361,2204.91566566098));
#925=CARTESIAN_POINT('',(114.416072782725,2168.281361,2194.81919256066));
#926=CARTESIAN_POINT('',(96.0407218659705,2168.281361,2169.91226877931));
#927=CARTESIAN_POINT('',(111.725508586943,2168.281361,2181.50029642522));
#928=CARTESIAN_POINT('',(116.473878036636,2168.281361,2180.74353880182));
#929=CARTESIAN_POINT('',(115.73182614874,2168.281361,2171.63910882663));
#930=CARTESIAN_POINT('',(116.929538989774,2168.281361,2165.74926963951));
#931=CARTESIAN_POINT('',(130.324010088144,2168.281361,2161.70781262378));
#932=CARTESIAN_POINT('',(103.080453999999,2168.281361,2164.170387));
#933=CARTESIAN_POINT('',(103.080453999999,2168.281361,2217.41844799325));
#934=CARTESIAN_POINT('',(129.380032999999,2168.281361,2242.19542));
#935=CARTESIAN_POINT('',(161.568132999999,2168.281361,2247.699791));
#936=CARTESIAN_POINT('',(196.912851999999,2168.281361,2246.268907));
#937=CARTESIAN_POINT('',(199.651065999999,2168.281361,2249.5));
#938=CARTESIAN_POINT('',(222.945652538697,2168.281361,2248.61636385694));
#939=CARTESIAN_POINT('',(220.951448999999,2168.281361,2243.578375));
#940=CARTESIAN_POINT('',(220.546412571332,2168.281361,2236.78504825976));
#941=CARTESIAN_POINT('',(211.292649999999,2168.281361,2239.989448));
#942=CARTESIAN_POINT('',(211.043591806853,2168.281361,2239.9899359199));
#943=CARTESIAN_POINT('',(211.126925140186,2168.281361,2239.9899359199));
#944=CARTESIAN_POINT('',(211.209316666666,2168.281361,2239.989448));
#945=CARTESIAN_POINT('',(211.292649999999,2168.281361,2239.989448));
#946=CARTESIAN_POINT('',(206.371566585997,168.281361,2243.06812733657));
#947=CARTESIAN_POINT('',(205.639567083507,168.281361,2235.63825083412));
#948=CARTESIAN_POINT('',(196.975114453646,168.281361,2238.91925661487));
#949=CARTESIAN_POINT('',(231.419390325907,168.281361,2294.82497616037));
#950=CARTESIAN_POINT('',(173.149651562215,168.281361,2218.40217348993));
#951=CARTESIAN_POINT('',(169.379641223825,168.281361,2172.82650818742));
#952=CARTESIAN_POINT('',(170.067668224743,168.281361,2169.73474080527));
#953=CARTESIAN_POINT('',(143.763827481202,168.281361,2200.51001920831));
#954=CARTESIAN_POINT('',(131.12434574845,168.281361,2204.91566566098));
#955=CARTESIAN_POINT('',(114.416072782726,168.281361,2194.81919256066));
#956=CARTESIAN_POINT('',(96.0407218659716,168.281361,2169.9122687793));
#957=CARTESIAN_POINT('',(111.725508586944,168.281361,2181.50029642522));
#958=CARTESIAN_POINT('',(116.473878036637,168.281361,2180.74353880182));
#959=CARTESIAN_POINT('',(115.731826148741,168.281361,2171.63910882663));
#960=CARTESIAN_POINT('',(116.929538989775,168.281361,2165.74926963951));
#961=CARTESIAN_POINT('',(130.324010088145,168.281361,2161.70781262378));
#962=CARTESIAN_POINT('',(103.080454,168.281361,2164.170387));
#963=CARTESIAN_POINT('',(103.080454,168.281361,2217.41844799325));
#964=CARTESIAN_POINT('',(129.380033,168.281361,2242.19542));
#965=CARTESIAN_POINT('',(161.568133,168.281361,2247.699791));
#966=CARTESIAN_POINT('',(196.912852,168.281361,2246.268907));
#967=CARTESIAN_POINT('',(199.651066,168.281361,2249.5));
#968=CARTESIAN_POINT('',(222.945652538698,168.281361,2248.61636385694));
#969=CARTESIAN_POINT('',(220.951449,168.281361,2243.578375));
#970=CARTESIAN_POINT('',(220.546412571333,168.281361,2236.78504825976));
#971=CARTESIAN_POINT('',(211.29265,168.281361,2239.989448));
#972=CARTESIAN_POINT('',(211.043591806854,168.281361,2239.9899359199));
#973=CARTESIAN_POINT('',(211.126925140188,168.281361,2239.9899359199));
#974=CARTESIAN_POINT('',(211.209316666667,168.281361,2239.989448));
#975=CARTESIAN_POINT('',(211.29265,168.281361,2239.989448));
#976=CARTESIAN_POINT('',(211.043591806853,2168.281361,2239.9899359199));
#977=CARTESIAN_POINT('',(211.126925140186,2168.281361,2239.9899359199));
#978=CARTESIAN_POINT('',(211.209316666666,2168.281361,2239.989448));
#979=CARTESIAN_POINT('',(211.292649999999,2168.281361,2239.989448));
#980=CARTESIAN_POINT('',(211.292649999999,2168.281361,2239.989448));
#981=CARTESIAN_POINT('',(220.546412571332,2168.281361,2236.78504825976));
#982=CARTESIAN_POINT('',(220.951448999999,2168.281361,2243.578375));
#983=CARTESIAN_POINT('',(222.945652538697,2168.281361,2248.61636385694));
#984=CARTESIAN_POINT('',(199.651065999999,2168.281361,2249.5));
#985=CARTESIAN_POINT('',(196.912851999999,2168.281361,2246.268907));
#986=CARTESIAN_POINT('',(161.568132999999,2168.281361,2247.699791));
#987=CARTESIAN_POINT('',(129.380032999999,2168.281361,2242.19542));
#988=CARTESIAN_POINT('',(103.080453999999,2168.281361,2217.41844799325));
#989=CARTESIAN_POINT('',(103.080453999999,2168.281361,2164.170387));
#990=CARTESIAN_POINT('',(130.324010088144,2168.281361,2161.70781262378));
#991=CARTESIAN_POINT('',(116.929538989774,2168.281361,2165.74926963951));
#992=CARTESIAN_POINT('',(115.73182614874,2168.281361,2171.63910882663));
#993=CARTESIAN_POINT('',(116.473878036636,2168.281361,2180.74353880182));
#994=CARTESIAN_POINT('',(111.725508586943,2168.281361,2181.50029642522));
#995=CARTESIAN_POINT('',(96.0407218659705,2168.281361,2169.91226877931));
#996=CARTESIAN_POINT('',(114.416072782725,2168.281361,2194.81919256066));
#997=CARTESIAN_POINT('',(131.124345748449,2168.281361,2204.91566566098));
#998=CARTESIAN_POINT('',(143.7638274812,2168.281361,2200.51001920831));
#999=CARTESIAN_POINT('',(170.067668224742,2168.281361,2169.73474080527));
#1000=CARTESIAN_POINT('',(169.379641223824,2168.281361,2172.82650818742));
#1001=CARTESIAN_POINT('',(173.149651562213,2168.281361,2218.40217348993));
#1002=CARTESIAN_POINT('',(231.419390325906,2168.281361,2294.82497616037));
#1003=CARTESIAN_POINT('',(196.975114453645,2168.281361,2238.91925661487));
#1004=CARTESIAN_POINT('',(205.639567083506,2168.281361,2235.63825083412));
#1005=CARTESIAN_POINT('',(206.371566585996,2168.281361,2243.06812733657));
#1006=CARTESIAN_POINT('',(211.168120903426,2168.281361,2239.98969195995));
#1007=CARTESIAN_POINT('',(211.168120903427,168.281361,2239.98969195995));
#1008=PRODUCT_DEFINITION_SHAPE('','',#1009);
#1009=PRODUCT_DEFINITION('','',#1021,#1026);
#1010=(
GEOMETRIC_REPRESENTATION_CONTEXT(3)
GLOBAL_UNCERTAINTY_ASSIGNED_CONTEXT((#1011))
GLOBAL_UNIT_ASSIGNED_CONTEXT((#1013,#1012,#1016))
REPRESENTATION_CONTEXT('','')
);
#1011=UNCERTAINTY_MEASURE_WITH_UNIT(LENGTH_MEASURE(0.001),#1013,'','tolerance'
);
#1012=(
CONVERSION_BASED_UNIT('',#1014)
NAMED_UNIT(#1020)
PLANE_ANGLE_UNIT()
);
#1013=(
CONVERSION_BASED_UNIT('',#1015)
LENGTH_UNIT()
NAMED_UNIT(#1019)
);
#1014=PLANE_ANGLE_MEASURE_WITH_UNIT(PLANE_ANGLE_MEASURE(0.0174532925199433),
#1017);
#1015=LENGTH_MEASURE_WITH_UNIT(LENGTH_MEASURE(1.),#1018);
#1016=(
NAMED_UNIT(*)
SI_UNIT($,.STERADIAN.)
SOLID_ANGLE_UNIT()
);
#1017=(
NAMED_UNIT(*)
PLANE_ANGLE_UNIT()
SI_UNIT($,.RADIAN.)
);
#1018=(
LENGTH_UNIT()
NAMED_UNIT(*)
SI_UNIT(.MILLI.,.METRE.)
);
#1019=DIMENSIONAL_EXPONENTS(1.,0.,0.,0.,0.,0.,0.);
#1020=DIMENSIONAL_EXPONENTS(0.,0.,0.,0.,0.,0.,0.);
#1021=PRODUCT_DEFINITION_FORMATION_WITH_SPECIFIED_SOURCE('','',#1024,
.NOT_KNOWN.);
#1022=PRODUCT_CATEGORY_RELATIONSHIP('','',#1027,#1023);
#1023=PRODUCT_RELATED_PRODUCT_CATEGORY('assembly','',(#1024));
#1024=PRODUCT('','master','',(#1025));
#1025=PRODUCT_CONTEXT('',#1029,'');
#1026=PRODUCT_DEFINITION_CONTEXT('',#1029,'part_definition');
#1027=PRODUCT_CATEGORY('part','');
#1028=APPLICATION_PROTOCOL_DEFINITION('international standard',
'automotive_design_cc2',1994,#1029);
#1029=APPLICATION_CONTEXT(
'configuration controlled 3D designs of mechanical parts and assemblies');
ENDSEC;
END-ISO-10303-21;
49278