ISO-10303-21;
HEADER;
/* Generated by software using Delcam plc STEP library */

FILE_DESCRIPTION(
/* description */ ('AP-214 File'),
/* implementation_level */ '2;1');

FILE_NAME(
/* name */ 'D620',
/* time_stamp */ 'Sat Dec 24 09:25:19 2016',
/* author */ (''),
/* organization */ (''),
/* preprocessor_version */ 'DELCAM STEP V1',
/* originating_system */ 'Exchange7.1.0006',
/* authorisation */ '');

FILE_SCHEMA (('AUTOMOTIVE_DESIGN'));
ENDSEC;
DATA;
#10=PRESENTATION_STYLE_ASSIGNMENT((#20));
#11=PRESENTATION_STYLE_ASSIGNMENT((#21));
#12=SURFACE_SIDE_STYLE('',(#14));
#13=SURFACE_SIDE_STYLE('',(#15));
#14=SURFACE_STYLE_FILL_AREA(#16);
#15=SURFACE_STYLE_FILL_AREA(#17);
#16=FILL_AREA_STYLE('',(#18));
#17=FILL_AREA_STYLE('',(#19));
#18=FILL_AREA_STYLE_COLOUR('',#35);
#19=FILL_AREA_STYLE_COLOUR('',#36);
#20=SURFACE_STYLE_USAGE(.BOTH.,#12);
#21=SURFACE_STYLE_USAGE(.BOTH.,#13);
#22=STYLED_ITEM('',(#10),#45);
#23=STYLED_ITEM('',(#10),#46);
#24=STYLED_ITEM('',(#10),#47);
#25=STYLED_ITEM('',(#10),#48);
#26=STYLED_ITEM('',(#10),#49);
#27=STYLED_ITEM('',(#10),#50);
#28=STYLED_ITEM('',(#10),#51);
#29=STYLED_ITEM('',(#10),#52);
#30=STYLED_ITEM('',(#10),#53);
#31=STYLED_ITEM('',(#10),#54);
#32=STYLED_ITEM('',(#10),#55);
#33=STYLED_ITEM('',(#10),#56);
#34=STYLED_ITEM('',(#11),#42);
#35=COLOUR_RGB('',0.,0.,0.);
#36=COLOUR_RGB('rgb_colour_1',0.4,0.4,0.4);
#37=MECHANICAL_DESIGN_GEOMETRIC_PRESENTATION_REPRESENTATION('',(#22,#23,#24,
#25,#26,#27,#28,#29,#30,#31,#32,#33,#34),#401);
#38=PRESENTATION_LAYER_ASSIGNMENT('90','D620',(#45,#46,#47,#48,#49,#50,#51,#52
,#53,#54,#55,#56,#42));
#39=SHAPE_REPRESENTATION_RELATIONSHIP('','',#258,#40);
#40=ADVANCED_BREP_SHAPE_REPRESENTATION('',(#41),#401);
#41=MANIFOLD_SOLID_BREP('7132',#42);
#42=CLOSED_SHELL('',(#45,#46,#47,#48,#49,#50,#51,#52,#53,#54,#55,#56));
#43=CYLINDRICAL_SURFACE('',#267,157.376824348983);
#44=CYLINDRICAL_SURFACE('',#271,144.50837339792);
#45=ADVANCED_FACE('',(#57),#141,.T.);
#46=ADVANCED_FACE('',(#58),#142,.T.);
#47=ADVANCED_FACE('',(#59),#143,.T.);
#48=ADVANCED_FACE('',(#60),#43,.T.);
#49=ADVANCED_FACE('',(#61),#144,.T.);
#50=ADVANCED_FACE('',(#62),#145,.T.);
#51=ADVANCED_FACE('',(#63),#146,.T.);
#52=ADVANCED_FACE('',(#64),#44,.F.);
#53=ADVANCED_FACE('',(#65),#147,.T.);
#54=ADVANCED_FACE('',(#66),#148,.T.);
#55=ADVANCED_FACE('',(#67),#149,.F.);
#56=ADVANCED_FACE('',(#68),#150,.T.);
#57=FACE_OUTER_BOUND('',#69,.T.);
#58=FACE_OUTER_BOUND('',#70,.T.);
#59=FACE_OUTER_BOUND('',#71,.T.);
#60=FACE_OUTER_BOUND('',#72,.T.);
#61=FACE_OUTER_BOUND('',#73,.T.);
#62=FACE_OUTER_BOUND('',#74,.T.);
#63=FACE_OUTER_BOUND('',#75,.T.);
#64=FACE_OUTER_BOUND('',#76,.T.);
#65=FACE_OUTER_BOUND('',#77,.T.);
#66=FACE_OUTER_BOUND('',#78,.T.);
#67=FACE_OUTER_BOUND('',#79,.T.);
#68=FACE_OUTER_BOUND('',#80,.T.);
#69=EDGE_LOOP('',(#81,#82,#83,#84));
#70=EDGE_LOOP('',(#85,#86,#87,#88));
#71=EDGE_LOOP('',(#89,#90,#91,#92));
#72=EDGE_LOOP('',(#93,#94,#95,#96));
#73=EDGE_LOOP('',(#97,#98,#99,#100));
#74=EDGE_LOOP('',(#101,#102,#103,#104));
#75=EDGE_LOOP('',(#105,#106,#107,#108));
#76=EDGE_LOOP('',(#109,#110,#111,#112));
#77=EDGE_LOOP('',(#113,#114,#115,#116));
#78=EDGE_LOOP('',(#117,#118,#119,#120));
#79=EDGE_LOOP('',(#121,#122,#123,#124,#125,#126,#127,#128,#129,#130));
#80=EDGE_LOOP('',(#131,#132,#133,#134,#135,#136,#137,#138,#139,#140));
#81=ORIENTED_EDGE('',*,*,#184,.F.);
#82=ORIENTED_EDGE('',*,*,#164,.F.);
#83=ORIENTED_EDGE('',*,*,#174,.T.);
#84=ORIENTED_EDGE('',*,*,#155,.T.);
#85=ORIENTED_EDGE('',*,*,#183,.F.);
#86=ORIENTED_EDGE('',*,*,#155,.F.);
#87=ORIENTED_EDGE('',*,*,#173,.T.);
#88=ORIENTED_EDGE('',*,*,#156,.T.);
#89=ORIENTED_EDGE('',*,*,#182,.F.);
#90=ORIENTED_EDGE('',*,*,#156,.F.);
#91=ORIENTED_EDGE('',*,*,#172,.T.);
#92=ORIENTED_EDGE('',*,*,#157,.T.);
#93=ORIENTED_EDGE('',*,*,#181,.F.);
#94=ORIENTED_EDGE('',*,*,#157,.F.);
#95=ORIENTED_EDGE('',*,*,#171,.T.);
#96=ORIENTED_EDGE('',*,*,#158,.T.);
#97=ORIENTED_EDGE('',*,*,#180,.F.);
#98=ORIENTED_EDGE('',*,*,#158,.F.);
#99=ORIENTED_EDGE('',*,*,#170,.T.);
#100=ORIENTED_EDGE('',*,*,#159,.T.);
#101=ORIENTED_EDGE('',*,*,#179,.F.);
#102=ORIENTED_EDGE('',*,*,#159,.F.);
#103=ORIENTED_EDGE('',*,*,#169,.T.);
#104=ORIENTED_EDGE('',*,*,#160,.T.);
#105=ORIENTED_EDGE('',*,*,#178,.F.);
#106=ORIENTED_EDGE('',*,*,#160,.F.);
#107=ORIENTED_EDGE('',*,*,#168,.T.);
#108=ORIENTED_EDGE('',*,*,#161,.T.);
#109=ORIENTED_EDGE('',*,*,#177,.F.);
#110=ORIENTED_EDGE('',*,*,#161,.F.);
#111=ORIENTED_EDGE('',*,*,#167,.T.);
#112=ORIENTED_EDGE('',*,*,#162,.T.);
#113=ORIENTED_EDGE('',*,*,#176,.F.);
#114=ORIENTED_EDGE('',*,*,#162,.F.);
#115=ORIENTED_EDGE('',*,*,#166,.T.);
#116=ORIENTED_EDGE('',*,*,#163,.T.);
#117=ORIENTED_EDGE('',*,*,#175,.F.);
#118=ORIENTED_EDGE('',*,*,#163,.F.);
#119=ORIENTED_EDGE('',*,*,#165,.T.);
#120=ORIENTED_EDGE('',*,*,#164,.T.);
#121=ORIENTED_EDGE('',*,*,#174,.F.);
#122=ORIENTED_EDGE('',*,*,#165,.F.);
#123=ORIENTED_EDGE('',*,*,#166,.F.);
#124=ORIENTED_EDGE('',*,*,#167,.F.);
#125=ORIENTED_EDGE('',*,*,#168,.F.);
#126=ORIENTED_EDGE('',*,*,#169,.F.);
#127=ORIENTED_EDGE('',*,*,#170,.F.);
#128=ORIENTED_EDGE('',*,*,#171,.F.);
#129=ORIENTED_EDGE('',*,*,#172,.F.);
#130=ORIENTED_EDGE('',*,*,#173,.F.);
#131=ORIENTED_EDGE('',*,*,#184,.T.);
#132=ORIENTED_EDGE('',*,*,#183,.T.);
#133=ORIENTED_EDGE('',*,*,#182,.T.);
#134=ORIENTED_EDGE('',*,*,#181,.T.);
#135=ORIENTED_EDGE('',*,*,#180,.T.);
#136=ORIENTED_EDGE('',*,*,#179,.T.);
#137=ORIENTED_EDGE('',*,*,#178,.T.);
#138=ORIENTED_EDGE('',*,*,#177,.T.);
#139=ORIENTED_EDGE('',*,*,#176,.T.);
#140=ORIENTED_EDGE('',*,*,#175,.T.);
#141=PLANE('',#264);
#142=PLANE('',#265);
#143=PLANE('',#266);
#144=PLANE('',#268);
#145=PLANE('',#269);
#146=PLANE('',#270);
#147=PLANE('',#272);
#148=PLANE('',#273);
#149=PLANE('',#274);
#150=PLANE('',#275);
#151=CIRCLE('',#260,144.50837339792);
#152=CIRCLE('',#261,157.376824348983);
#153=CIRCLE('',#262,144.50837339792);
#154=CIRCLE('',#263,157.376824348983);
#155=EDGE_CURVE('',#246,#256,#185,.T.);
#156=EDGE_CURVE('',#245,#255,#186,.T.);
#157=EDGE_CURVE('',#244,#254,#187,.T.);
#158=EDGE_CURVE('',#243,#253,#188,.T.);
#159=EDGE_CURVE('',#242,#252,#189,.T.);
#160=EDGE_CURVE('',#241,#251,#190,.T.);
#161=EDGE_CURVE('',#240,#250,#191,.T.);
#162=EDGE_CURVE('',#239,#249,#192,.T.);
#163=EDGE_CURVE('',#238,#248,#193,.T.);
#164=EDGE_CURVE('',#237,#247,#194,.T.);
#165=EDGE_CURVE('',#238,#237,#195,.T.);
#166=EDGE_CURVE('',#239,#238,#196,.T.);
#167=EDGE_CURVE('',#240,#239,#151,.T.);
#168=EDGE_CURVE('',#241,#240,#197,.T.);
#169=EDGE_CURVE('',#242,#241,#198,.T.);
#170=EDGE_CURVE('',#243,#242,#199,.T.);
#171=EDGE_CURVE('',#244,#243,#152,.T.);
#172=EDGE_CURVE('',#245,#244,#200,.T.);
#173=EDGE_CURVE('',#246,#245,#201,.T.);
#174=EDGE_CURVE('',#237,#246,#202,.T.);
#175=EDGE_CURVE('',#248,#247,#203,.T.);
#176=EDGE_CURVE('',#249,#248,#204,.T.);
#177=EDGE_CURVE('',#250,#249,#153,.T.);
#178=EDGE_CURVE('',#251,#250,#205,.T.);
#179=EDGE_CURVE('',#252,#251,#206,.T.);
#180=EDGE_CURVE('',#253,#252,#207,.T.);
#181=EDGE_CURVE('',#254,#253,#154,.T.);
#182=EDGE_CURVE('',#255,#254,#208,.T.);
#183=EDGE_CURVE('',#256,#255,#209,.T.);
#184=EDGE_CURVE('',#247,#256,#210,.T.);
#185=LINE('',#357,#211);
#186=LINE('',#358,#212);
#187=LINE('',#359,#213);
#188=LINE('',#360,#214);
#189=LINE('',#361,#215);
#190=LINE('',#362,#216);
#191=LINE('',#363,#217);
#192=LINE('',#364,#218);
#193=LINE('',#365,#219);
#194=LINE('',#366,#220);
#195=LINE('',#367,#221);
#196=LINE('',#368,#222);
#197=LINE('',#370,#223);
#198=LINE('',#371,#224);
#199=LINE('',#372,#225);
#200=LINE('',#374,#226);
#201=LINE('',#375,#227);
#202=LINE('',#376,#228);
#203=LINE('',#377,#229);
#204=LINE('',#378,#230);
#205=LINE('',#380,#231);
#206=LINE('',#381,#232);
#207=LINE('',#382,#233);
#208=LINE('',#384,#234);
#209=LINE('',#385,#235);
#210=LINE('',#386,#236);
#211=VECTOR('',#278,1.);
#212=VECTOR('',#279,1.);
#213=VECTOR('',#280,1.);
#214=VECTOR('',#281,1.);
#215=VECTOR('',#282,1.);
#216=VECTOR('',#283,1.);
#217=VECTOR('',#284,1.);
#218=VECTOR('',#285,1.);
#219=VECTOR('',#286,1.);
#220=VECTOR('',#287,1.);
#221=VECTOR('',#288,1.);
#222=VECTOR('',#289,1.);
#223=VECTOR('',#292,1.);
#224=VECTOR('',#293,1.);
#225=VECTOR('',#294,1.);
#226=VECTOR('',#297,1.);
#227=VECTOR('',#298,1.);
#228=VECTOR('',#299,1.);
#229=VECTOR('',#300,1.);
#230=VECTOR('',#301,1.);
#231=VECTOR('',#304,1.);
#232=VECTOR('',#305,1.);
#233=VECTOR('',#306,1.);
#234=VECTOR('',#309,1.);
#235=VECTOR('',#310,1.);
#236=VECTOR('',#311,1.);
#237=VERTEX_POINT('',#337);
#238=VERTEX_POINT('',#338);
#239=VERTEX_POINT('',#339);
#240=VERTEX_POINT('',#340);
#241=VERTEX_POINT('',#341);
#242=VERTEX_POINT('',#342);
#243=VERTEX_POINT('',#343);
#244=VERTEX_POINT('',#344);
#245=VERTEX_POINT('',#345);
#246=VERTEX_POINT('',#346);
#247=VERTEX_POINT('',#347);
#248=VERTEX_POINT('',#348);
#249=VERTEX_POINT('',#349);
#250=VERTEX_POINT('',#350);
#251=VERTEX_POINT('',#351);
#252=VERTEX_POINT('',#352);
#253=VERTEX_POINT('',#353);
#254=VERTEX_POINT('',#354);
#255=VERTEX_POINT('',#355);
#256=VERTEX_POINT('',#356);
#257=SHAPE_DEFINITION_REPRESENTATION(#399,#258);
#258=SHAPE_REPRESENTATION('master',(#259),#401);
#259=AXIS2_PLACEMENT_3D('',#336,#277,#276);
#260=AXIS2_PLACEMENT_3D('',#369,#291,#290);
#261=AXIS2_PLACEMENT_3D('',#373,#296,#295);
#262=AXIS2_PLACEMENT_3D('',#379,#303,#302);
#263=AXIS2_PLACEMENT_3D('',#383,#308,#307);
#264=AXIS2_PLACEMENT_3D('',#387,#313,#312);
#265=AXIS2_PLACEMENT_3D('',#388,#315,#314);
#266=AXIS2_PLACEMENT_3D('',#389,#317,#316);
#267=AXIS2_PLACEMENT_3D('',#390,#319,#318);
#268=AXIS2_PLACEMENT_3D('',#391,#321,#320);
#269=AXIS2_PLACEMENT_3D('',#392,#323,#322);
#270=AXIS2_PLACEMENT_3D('',#393,#325,#324);
#271=AXIS2_PLACEMENT_3D('',#394,#327,#326);
#272=AXIS2_PLACEMENT_3D('',#395,#329,#328);
#273=AXIS2_PLACEMENT_3D('',#396,#331,#330);
#274=AXIS2_PLACEMENT_3D('',#397,#333,#332);
#275=AXIS2_PLACEMENT_3D('',#398,#335,#334);
#276=DIRECTION('',(1.,0.,0.));
#277=DIRECTION('',(0.,0.,1.));
#278=DIRECTION('',(-8.04927907661242E-015,-1.,1.21599609205825E-014));
#279=DIRECTION('',(-8.04927907661242E-015,-1.,1.21599609205825E-014));
#280=DIRECTION('',(-8.04927907661242E-015,-1.,1.21599609205825E-014));
#281=DIRECTION('',(-8.04927907661242E-015,-1.,1.21599609205825E-014));
#282=DIRECTION('',(-8.04927907661242E-015,-1.,1.21599609205825E-014));
#283=DIRECTION('',(-8.04927907661242E-015,-1.,1.21599609205825E-014));
#284=DIRECTION('',(-8.04927907661242E-015,-1.,1.21599609205825E-014));
#285=DIRECTION('',(-8.04927907661242E-015,-1.,1.21599609205825E-014));
#286=DIRECTION('',(-8.04927907661242E-015,-1.,1.21599609205825E-014));
#287=DIRECTION('',(-8.04927907661242E-015,-1.,1.21599609205825E-014));
#288=DIRECTION('',(0.9955216791953,-0.,0.0945335191991197));
#289=DIRECTION('',(3.31586610021405E-014,-3.78956125738749E-014,1.));
#290=DIRECTION('',(-0.983756498691142,-1.57342906917327E-015,0.179508081386173
));
#291=DIRECTION('',(-1.97295045579846E-015,1.,-2.04711543055033E-015));
#292=DIRECTION('',(1.,3.49805654528062E-014,6.99611309056123E-014));
#293=DIRECTION('',(-0.,-7.70758221841465E-015,-1.));
#294=DIRECTION('',(-0.928787675064019,8.72373473445367E-015,-0.370612269965762
));
#295=DIRECTION('',(-0.395573336600576,1.44477229340345E-015,0.918434393612678)
);
#296=DIRECTION('',(-8.3258384929134E-016,-1.,1.21448448566041E-015));
#297=DIRECTION('',(-0.697078387438713,0.,-0.71699492450494));
#298=DIRECTION('',(-1.,-0.,-0.));
#299=DIRECTION('',(-0.,-0.,1.));
#300=DIRECTION('',(0.9955216791953,-0.,0.0945335191991197));
#301=DIRECTION('',(3.31586610021405E-014,-3.78956125738749E-014,1.));
#302=DIRECTION('',(-0.983756498691142,-1.57342906917327E-015,0.179508081386173
));
#303=DIRECTION('',(-1.97295045579846E-015,1.,-2.04711543055033E-015));
#304=DIRECTION('',(1.,3.49805654528062E-014,6.99611309056123E-014));
#305=DIRECTION('',(-0.,-7.70758221841465E-015,-1.));
#306=DIRECTION('',(-0.928787675064019,8.72373473445367E-015,-0.370612269965762
));
#307=DIRECTION('',(-0.395573336600576,1.44477229340345E-015,0.918434393612678)
);
#308=DIRECTION('',(-8.3258384929134E-016,-1.,1.21448448566041E-015));
#309=DIRECTION('',(-0.697078387438713,0.,-0.71699492450494));
#310=DIRECTION('',(-1.,-0.,-0.));
#311=DIRECTION('',(-0.,-0.,1.));
#312=DIRECTION('',(8.04927907661242E-015,1.,0.));
#313=DIRECTION('',(1.,-8.04927907661242E-015,0.));
#314=DIRECTION('',(0.,-1.,1.21599609205825E-014));
#315=DIRECTION('',(-0.,1.21599609205825E-014,1.));
#316=DIRECTION('',(0.697078387438713,0.,0.71699492450494));
#317=DIRECTION('',(-0.71699492450494,1.42477381936923E-014,0.697078387438713)
);
#318=DIRECTION('',(0.,-1.21599609205825E-014,-1.));
#319=DIRECTION('',(-8.04927907661242E-015,-1.,1.21599609205825E-014));
#320=DIRECTION('',(0.928787675064019,0.,0.370612269965762));
#321=DIRECTION('',(-0.370612269965762,1.42771834224684E-014,0.928787675064019)
);
#322=DIRECTION('',(-8.04927907661242E-015,-1.,0.));
#323=DIRECTION('',(-1.,8.04927907661242E-015,-6.20404802819549E-029));
#324=DIRECTION('',(-1.,0.,-6.99611309056127E-014));
#325=DIRECTION('',(6.99611309056127E-014,-1.21599609205831E-014,-1.));
#326=DIRECTION('',(0.,-1.21599609205825E-014,-1.));
#327=DIRECTION('',(-8.04927907661242E-015,-1.,1.21599609205825E-014));
#328=DIRECTION('',(-3.31586610021408E-014,0.,-1.));
#329=DIRECTION('',(1.,-8.04927907661282E-015,-3.31586610021408E-014));
#330=DIRECTION('',(-0.9955216791953,1.97215226305253E-031,-0.0945335191991197)
);
#331=DIRECTION('',(0.0945335191991197,-1.28664313927355E-014,-0.9955216791953)
);
#332=DIRECTION('',(0.,-1.21448448566041E-015,-1.));
#333=DIRECTION('',(-8.3258384929134E-016,-1.,1.21448448566041E-015));
#334=DIRECTION('',(0.,-1.21448448566041E-015,-1.));
#335=DIRECTION('',(-8.3258384929134E-016,-1.,1.21448448566041E-015));
#336=CARTESIAN_POINT('',(0.,0.,0.));
#337=CARTESIAN_POINT('',(229.970068000016,2160.,2258.05860540993));
#338=CARTESIAN_POINT('',(220.575149000016,2160.,2257.16647540993));
#339=CARTESIAN_POINT('',(220.575149000016,2160.,2251.16647540993));
#340=CARTESIAN_POINT('',(109.580454000016,2160.,2135.99939040993));
#341=CARTESIAN_POINT('',(103.080454000016,2160.,2135.99939040993));
#342=CARTESIAN_POINT('',(103.080454000016,2160.,2165.49939040993));
#343=CARTESIAN_POINT('',(109.132388000016,2160.,2167.91428140993));
#344=CARTESIAN_POINT('',(192.614161000016,2160.,2253.05316140993));
#345=CARTESIAN_POINT('',(206.230564666505,2160.,2267.05860540993));
#346=CARTESIAN_POINT('',(229.970068000016,2160.,2267.05860540993));
#347=CARTESIAN_POINT('',(229.970068,160.,2258.05860540995));
#348=CARTESIAN_POINT('',(220.575149,160.,2257.16647540995));
#349=CARTESIAN_POINT('',(220.575149,160.,2251.16647540995));
#350=CARTESIAN_POINT('',(109.580454,160.,2135.99939040995));
#351=CARTESIAN_POINT('',(103.080454,160.,2135.99939040995));
#352=CARTESIAN_POINT('',(103.080454,160.,2165.49939040995));
#353=CARTESIAN_POINT('',(109.132388,160.,2167.91428140995));
#354=CARTESIAN_POINT('',(192.614161,160.,2253.05316140995));
#355=CARTESIAN_POINT('',(206.230564666489,160.,2267.05860540995));
#356=CARTESIAN_POINT('',(229.970068,160.,2267.05860540995));
#357=CARTESIAN_POINT('',(229.970068000016,2160.,2267.05860540993));
#358=CARTESIAN_POINT('',(206.230564666505,2160.,2267.05860540993));
#359=CARTESIAN_POINT('',(192.614161000016,2160.,2253.05316140993));
#360=CARTESIAN_POINT('',(109.132388000016,2160.,2167.91428140993));
#361=CARTESIAN_POINT('',(103.080454000016,2160.,2165.49939040993));
#362=CARTESIAN_POINT('',(103.080454000016,2160.,2135.99939040993));
#363=CARTESIAN_POINT('',(109.580454000016,2160.,2135.99939040993));
#364=CARTESIAN_POINT('',(220.575149000016,2160.,2251.16647540993));
#365=CARTESIAN_POINT('',(220.575149000016,2160.,2257.16647540993));
#366=CARTESIAN_POINT('',(229.970068000016,2160.,2258.05860540993));
#367=CARTESIAN_POINT('',(220.575149000016,2160.,2257.16647540993));
#368=CARTESIAN_POINT('',(220.575149000016,2160.,2251.16647540993));
#369=CARTESIAN_POINT('',(251.741505445506,2160.,2110.05896955703));
#370=CARTESIAN_POINT('',(103.080454000016,2160.,2135.99939040993));
#371=CARTESIAN_POINT('',(103.080454000016,2160.,2165.49939040993));
#372=CARTESIAN_POINT('',(109.132388000016,2160.,2167.91428140993));
#373=CARTESIAN_POINT('',(254.868236511346,2160.,2108.51287317028));
#374=CARTESIAN_POINT('',(206.230564666505,2160.,2267.05860540993));
#375=CARTESIAN_POINT('',(229.970068000016,2160.,2267.05860540993));
#376=CARTESIAN_POINT('',(229.970068000016,2160.,2258.05860540993));
#377=CARTESIAN_POINT('',(220.575149,160.,2257.16647540995));
#378=CARTESIAN_POINT('',(220.575149,160.,2251.16647540995));
#379=CARTESIAN_POINT('',(251.74150544549,160.,2110.05896955706));
#380=CARTESIAN_POINT('',(103.080454,160.,2135.99939040995));
#381=CARTESIAN_POINT('',(103.080454,160.,2165.49939040995));
#382=CARTESIAN_POINT('',(109.132388,160.,2167.91428140995));
#383=CARTESIAN_POINT('',(254.86823651133,160.,2108.51287317031));
#384=CARTESIAN_POINT('',(206.230564666489,160.,2267.05860540995));
#385=CARTESIAN_POINT('',(229.970068,160.,2267.05860540995));
#386=CARTESIAN_POINT('',(229.970068,160.,2258.05860540995));
#387=CARTESIAN_POINT('',(229.970068000016,2160.,2258.05860540993));
#388=CARTESIAN_POINT('',(229.970068000016,2160.,2267.05860540993));
#389=CARTESIAN_POINT('',(206.230564666505,2160.,2267.05860540993));
#390=CARTESIAN_POINT('',(254.868236511346,2160.,2108.51287317028));
#391=CARTESIAN_POINT('',(109.132388000016,2160.,2167.91428140993));
#392=CARTESIAN_POINT('',(103.080454000016,2160.,2165.49939040993));
#393=CARTESIAN_POINT('',(103.080454000016,2160.,2135.99939040993));
#394=CARTESIAN_POINT('',(251.741505445506,2160.,2110.05896955703));
#395=CARTESIAN_POINT('',(220.575149000016,2160.,2251.16647540993));
#396=CARTESIAN_POINT('',(220.575149000016,2160.,2257.16647540993));
#397=CARTESIAN_POINT('',(254.868236511346,2160.,2108.51287317028));
#398=CARTESIAN_POINT('',(254.86823651133,160.,2108.51287317031));
#399=PRODUCT_DEFINITION_SHAPE('','',#400);
#400=PRODUCT_DEFINITION('','',#412,#417);
#401=(
GEOMETRIC_REPRESENTATION_CONTEXT(3)
GLOBAL_UNCERTAINTY_ASSIGNED_CONTEXT((#402))
GLOBAL_UNIT_ASSIGNED_CONTEXT((#404,#403,#407))
REPRESENTATION_CONTEXT('','')
);
#402=UNCERTAINTY_MEASURE_WITH_UNIT(LENGTH_MEASURE(0.001),#404,'','tolerance');
#403=(
CONVERSION_BASED_UNIT('',#405)
NAMED_UNIT(#411)
PLANE_ANGLE_UNIT()
);
#404=(
CONVERSION_BASED_UNIT('',#406)
LENGTH_UNIT()
NAMED_UNIT(#410)
);
#405=PLANE_ANGLE_MEASURE_WITH_UNIT(PLANE_ANGLE_MEASURE(0.0174532925199433),
#408);
#406=LENGTH_MEASURE_WITH_UNIT(LENGTH_MEASURE(1.),#409);
#407=(
NAMED_UNIT(*)
SI_UNIT($,.STERADIAN.)
SOLID_ANGLE_UNIT()
);
#408=(
NAMED_UNIT(*)
PLANE_ANGLE_UNIT()
SI_UNIT($,.RADIAN.)
);
#409=(
LENGTH_UNIT()
NAMED_UNIT(*)
SI_UNIT(.MILLI.,.METRE.)
);
#410=DIMENSIONAL_EXPONENTS(1.,0.,0.,0.,0.,0.,0.);
#411=DIMENSIONAL_EXPONENTS(0.,0.,0.,0.,0.,0.,0.);
#412=PRODUCT_DEFINITION_FORMATION_WITH_SPECIFIED_SOURCE('','',#415,.NOT_KNOWN.
);
#413=PRODUCT_CATEGORY_RELATIONSHIP('','',#418,#414);
#414=PRODUCT_RELATED_PRODUCT_CATEGORY('assembly','',(#415));
#415=PRODUCT('','master','',(#416));
#416=PRODUCT_CONTEXT('',#420,'');
#417=PRODUCT_DEFINITION_CONTEXT('',#420,'part_definition');
#418=PRODUCT_CATEGORY('part','');
#419=APPLICATION_PROTOCOL_DEFINITION('international standard',
'automotive_design_cc2',1994,#420);
#420=APPLICATION_CONTEXT(
'configuration controlled 3D designs of mechanical parts and assemblies');
ENDSEC;
END-ISO-10303-21;
19703