ISO-10303-21;
HEADER;
/* Generated by software using Delcam plc STEP library */

FILE_DESCRIPTION(
/* description */ ('AP-214 File'),
/* implementation_level */ '2;1');

FILE_NAME(
/* name */ 'D621',
/* time_stamp */ 'Wed Oct 11 13:29:15 2017',
/* author */ (''),
/* organization */ (''),
/* preprocessor_version */ 'DELCAM STEP V1',
/* originating_system */ 'Exchange7.1.0006',
/* authorisation */ '');

FILE_SCHEMA (('AUTOMOTIVE_DESIGN'));
ENDSEC;
DATA;
#10=PRESENTATION_STYLE_ASSIGNMENT((#20));
#11=PRESENTATION_STYLE_ASSIGNMENT((#21));
#12=SURFACE_SIDE_STYLE('',(#14));
#13=SURFACE_SIDE_STYLE('',(#15));
#14=SURFACE_STYLE_FILL_AREA(#16);
#15=SURFACE_STYLE_FILL_AREA(#17);
#16=FILL_AREA_STYLE('',(#18));
#17=FILL_AREA_STYLE('',(#19));
#18=FILL_AREA_STYLE_COLOUR('',#39);
#19=FILL_AREA_STYLE_COLOUR('',#40);
#20=SURFACE_STYLE_USAGE(.BOTH.,#12);
#21=SURFACE_STYLE_USAGE(.BOTH.,#13);
#22=STYLED_ITEM('',(#10),#50);
#23=STYLED_ITEM('',(#10),#51);
#24=STYLED_ITEM('',(#10),#52);
#25=STYLED_ITEM('',(#10),#53);
#26=STYLED_ITEM('',(#10),#54);
#27=STYLED_ITEM('',(#10),#55);
#28=STYLED_ITEM('',(#10),#56);
#29=STYLED_ITEM('',(#10),#57);
#30=STYLED_ITEM('',(#10),#58);
#31=STYLED_ITEM('',(#10),#59);
#32=STYLED_ITEM('',(#10),#60);
#33=STYLED_ITEM('',(#10),#61);
#34=STYLED_ITEM('',(#10),#62);
#35=STYLED_ITEM('',(#10),#63);
#36=STYLED_ITEM('',(#10),#64);
#37=STYLED_ITEM('',(#10),#65);
#38=STYLED_ITEM('',(#11),#46);
#39=COLOUR_RGB('',0.,0.,0.);
#40=COLOUR_RGB('rgb_colour_1',0.4,0.4,0.4);
#41=MECHANICAL_DESIGN_GEOMETRIC_PRESENTATION_REPRESENTATION('',(#22,#23,#24,
#25,#26,#27,#28,#29,#30,#31,#32,#33,#34,#35,#36,#37,#38),#539);
#42=PRESENTATION_LAYER_ASSIGNMENT('50','BL140',(#50,#51,#52,#53,#54,#55,#56,
#57,#58,#59,#60,#61,#62,#63,#64,#65,#46));
#43=SHAPE_REPRESENTATION_RELATIONSHIP('','',#344,#44);
#44=ADVANCED_BREP_SHAPE_REPRESENTATION('',(#45),#539);
#45=MANIFOLD_SOLID_BREP('8111',#46);
#46=CLOSED_SHELL('',(#50,#51,#52,#53,#54,#55,#56,#57,#58,#59,#60,#61,#62,#63,
#64,#65));
#47=CYLINDRICAL_SURFACE('',#353,106.832370009111);
#48=CYLINDRICAL_SURFACE('',#357,5.16039383215816);
#49=CYLINDRICAL_SURFACE('',#361,108.747307193706);
#50=ADVANCED_FACE('',(#66),#182,.F.);
#51=ADVANCED_FACE('',(#67),#47,.F.);
#52=ADVANCED_FACE('',(#68),#183,.F.);
#53=ADVANCED_FACE('',(#69),#184,.F.);
#54=ADVANCED_FACE('',(#70),#185,.F.);
#55=ADVANCED_FACE('',(#71),#48,.T.);
#56=ADVANCED_FACE('',(#72),#186,.F.);
#57=ADVANCED_FACE('',(#73),#187,.F.);
#58=ADVANCED_FACE('',(#74),#188,.F.);
#59=ADVANCED_FACE('',(#75),#49,.T.);
#60=ADVANCED_FACE('',(#76),#189,.F.);
#61=ADVANCED_FACE('',(#77),#190,.F.);
#62=ADVANCED_FACE('',(#78),#191,.F.);
#63=ADVANCED_FACE('',(#79),#192,.F.);
#64=ADVANCED_FACE('',(#80),#193,.F.);
#65=ADVANCED_FACE('',(#81),#194,.T.);
#66=FACE_OUTER_BOUND('',#82,.T.);
#67=FACE_OUTER_BOUND('',#83,.T.);
#68=FACE_OUTER_BOUND('',#84,.T.);
#69=FACE_OUTER_BOUND('',#85,.T.);
#70=FACE_OUTER_BOUND('',#86,.T.);
#71=FACE_OUTER_BOUND('',#87,.T.);
#72=FACE_OUTER_BOUND('',#88,.T.);
#73=FACE_OUTER_BOUND('',#89,.T.);
#74=FACE_OUTER_BOUND('',#90,.T.);
#75=FACE_OUTER_BOUND('',#91,.T.);
#76=FACE_OUTER_BOUND('',#92,.T.);
#77=FACE_OUTER_BOUND('',#93,.T.);
#78=FACE_OUTER_BOUND('',#94,.T.);
#79=FACE_OUTER_BOUND('',#95,.T.);
#80=FACE_OUTER_BOUND('',#96,.T.);
#81=FACE_OUTER_BOUND('',#97,.T.);
#82=EDGE_LOOP('',(#98,#99,#100,#101));
#83=EDGE_LOOP('',(#102,#103,#104,#105));
#84=EDGE_LOOP('',(#106,#107,#108,#109));
#85=EDGE_LOOP('',(#110,#111,#112,#113));
#86=EDGE_LOOP('',(#114,#115,#116,#117));
#87=EDGE_LOOP('',(#118,#119,#120,#121));
#88=EDGE_LOOP('',(#122,#123,#124,#125));
#89=EDGE_LOOP('',(#126,#127,#128,#129));
#90=EDGE_LOOP('',(#130,#131,#132,#133));
#91=EDGE_LOOP('',(#134,#135,#136,#137));
#92=EDGE_LOOP('',(#138,#139,#140,#141));
#93=EDGE_LOOP('',(#142,#143,#144,#145));
#94=EDGE_LOOP('',(#146,#147,#148,#149));
#95=EDGE_LOOP('',(#150,#151,#152,#153));
#96=EDGE_LOOP('',(#154,#155,#156,#157,#158,#159,#160,#161,#162,#163,#164,#165,
#166,#167));
#97=EDGE_LOOP('',(#168,#169,#170,#171,#172,#173,#174,#175,#176,#177,#178,#179,
#180,#181));
#98=ORIENTED_EDGE('',*,*,#242,.T.);
#99=ORIENTED_EDGE('',*,*,#201,.F.);
#100=ORIENTED_EDGE('',*,*,#228,.F.);
#101=ORIENTED_EDGE('',*,*,#214,.T.);
#102=ORIENTED_EDGE('',*,*,#241,.T.);
#103=ORIENTED_EDGE('',*,*,#202,.F.);
#104=ORIENTED_EDGE('',*,*,#227,.F.);
#105=ORIENTED_EDGE('',*,*,#201,.T.);
#106=ORIENTED_EDGE('',*,*,#240,.T.);
#107=ORIENTED_EDGE('',*,*,#203,.F.);
#108=ORIENTED_EDGE('',*,*,#226,.F.);
#109=ORIENTED_EDGE('',*,*,#202,.T.);
#110=ORIENTED_EDGE('',*,*,#239,.T.);
#111=ORIENTED_EDGE('',*,*,#204,.F.);
#112=ORIENTED_EDGE('',*,*,#225,.F.);
#113=ORIENTED_EDGE('',*,*,#203,.T.);
#114=ORIENTED_EDGE('',*,*,#238,.T.);
#115=ORIENTED_EDGE('',*,*,#205,.F.);
#116=ORIENTED_EDGE('',*,*,#224,.F.);
#117=ORIENTED_EDGE('',*,*,#204,.T.);
#118=ORIENTED_EDGE('',*,*,#237,.T.);
#119=ORIENTED_EDGE('',*,*,#206,.F.);
#120=ORIENTED_EDGE('',*,*,#223,.F.);
#121=ORIENTED_EDGE('',*,*,#205,.T.);
#122=ORIENTED_EDGE('',*,*,#236,.T.);
#123=ORIENTED_EDGE('',*,*,#207,.F.);
#124=ORIENTED_EDGE('',*,*,#222,.F.);
#125=ORIENTED_EDGE('',*,*,#206,.T.);
#126=ORIENTED_EDGE('',*,*,#235,.T.);
#127=ORIENTED_EDGE('',*,*,#208,.F.);
#128=ORIENTED_EDGE('',*,*,#221,.F.);
#129=ORIENTED_EDGE('',*,*,#207,.T.);
#130=ORIENTED_EDGE('',*,*,#234,.T.);
#131=ORIENTED_EDGE('',*,*,#209,.F.);
#132=ORIENTED_EDGE('',*,*,#220,.F.);
#133=ORIENTED_EDGE('',*,*,#208,.T.);
#134=ORIENTED_EDGE('',*,*,#233,.T.);
#135=ORIENTED_EDGE('',*,*,#210,.F.);
#136=ORIENTED_EDGE('',*,*,#219,.F.);
#137=ORIENTED_EDGE('',*,*,#209,.T.);
#138=ORIENTED_EDGE('',*,*,#232,.T.);
#139=ORIENTED_EDGE('',*,*,#211,.F.);
#140=ORIENTED_EDGE('',*,*,#218,.F.);
#141=ORIENTED_EDGE('',*,*,#210,.T.);
#142=ORIENTED_EDGE('',*,*,#231,.T.);
#143=ORIENTED_EDGE('',*,*,#212,.F.);
#144=ORIENTED_EDGE('',*,*,#217,.F.);
#145=ORIENTED_EDGE('',*,*,#211,.T.);
#146=ORIENTED_EDGE('',*,*,#230,.T.);
#147=ORIENTED_EDGE('',*,*,#213,.F.);
#148=ORIENTED_EDGE('',*,*,#216,.F.);
#149=ORIENTED_EDGE('',*,*,#212,.T.);
#150=ORIENTED_EDGE('',*,*,#229,.T.);
#151=ORIENTED_EDGE('',*,*,#214,.F.);
#152=ORIENTED_EDGE('',*,*,#215,.F.);
#153=ORIENTED_EDGE('',*,*,#213,.T.);
#154=ORIENTED_EDGE('',*,*,#228,.T.);
#155=ORIENTED_EDGE('',*,*,#227,.T.);
#156=ORIENTED_EDGE('',*,*,#226,.T.);
#157=ORIENTED_EDGE('',*,*,#225,.T.);
#158=ORIENTED_EDGE('',*,*,#224,.T.);
#159=ORIENTED_EDGE('',*,*,#223,.T.);
#160=ORIENTED_EDGE('',*,*,#222,.T.);
#161=ORIENTED_EDGE('',*,*,#221,.T.);
#162=ORIENTED_EDGE('',*,*,#220,.T.);
#163=ORIENTED_EDGE('',*,*,#219,.T.);
#164=ORIENTED_EDGE('',*,*,#218,.T.);
#165=ORIENTED_EDGE('',*,*,#217,.T.);
#166=ORIENTED_EDGE('',*,*,#216,.T.);
#167=ORIENTED_EDGE('',*,*,#215,.T.);
#168=ORIENTED_EDGE('',*,*,#242,.F.);
#169=ORIENTED_EDGE('',*,*,#229,.F.);
#170=ORIENTED_EDGE('',*,*,#230,.F.);
#171=ORIENTED_EDGE('',*,*,#231,.F.);
#172=ORIENTED_EDGE('',*,*,#232,.F.);
#173=ORIENTED_EDGE('',*,*,#233,.F.);
#174=ORIENTED_EDGE('',*,*,#234,.F.);
#175=ORIENTED_EDGE('',*,*,#235,.F.);
#176=ORIENTED_EDGE('',*,*,#236,.F.);
#177=ORIENTED_EDGE('',*,*,#237,.F.);
#178=ORIENTED_EDGE('',*,*,#238,.F.);
#179=ORIENTED_EDGE('',*,*,#239,.F.);
#180=ORIENTED_EDGE('',*,*,#240,.F.);
#181=ORIENTED_EDGE('',*,*,#241,.F.);
#182=PLANE('',#352);
#183=PLANE('',#354);
#184=PLANE('',#355);
#185=PLANE('',#356);
#186=PLANE('',#358);
#187=PLANE('',#359);
#188=PLANE('',#360);
#189=PLANE('',#362);
#190=PLANE('',#363);
#191=PLANE('',#364);
#192=PLANE('',#365);
#193=PLANE('',#366);
#194=PLANE('',#367);
#195=CIRCLE('',#346,108.747307193706);
#196=CIRCLE('',#347,5.16039383215816);
#197=CIRCLE('',#348,106.832370009111);
#198=CIRCLE('',#349,108.747307193706);
#199=CIRCLE('',#350,5.16039383215816);
#200=CIRCLE('',#351,106.832370009111);
#201=EDGE_CURVE('',#328,#342,#243,.T.);
#202=EDGE_CURVE('',#327,#341,#244,.T.);
#203=EDGE_CURVE('',#326,#340,#245,.T.);
#204=EDGE_CURVE('',#325,#339,#246,.T.);
#205=EDGE_CURVE('',#324,#338,#247,.T.);
#206=EDGE_CURVE('',#323,#337,#248,.T.);
#207=EDGE_CURVE('',#322,#336,#249,.T.);
#208=EDGE_CURVE('',#321,#335,#250,.T.);
#209=EDGE_CURVE('',#320,#334,#251,.T.);
#210=EDGE_CURVE('',#319,#333,#252,.T.);
#211=EDGE_CURVE('',#318,#332,#253,.T.);
#212=EDGE_CURVE('',#317,#331,#254,.T.);
#213=EDGE_CURVE('',#316,#330,#255,.T.);
#214=EDGE_CURVE('',#315,#329,#256,.T.);
#215=EDGE_CURVE('',#316,#315,#257,.T.);
#216=EDGE_CURVE('',#317,#316,#258,.T.);
#217=EDGE_CURVE('',#318,#317,#259,.T.);
#218=EDGE_CURVE('',#319,#318,#260,.T.);
#219=EDGE_CURVE('',#320,#319,#195,.T.);
#220=EDGE_CURVE('',#321,#320,#261,.T.);
#221=EDGE_CURVE('',#322,#321,#262,.T.);
#222=EDGE_CURVE('',#323,#322,#263,.T.);
#223=EDGE_CURVE('',#324,#323,#196,.T.);
#224=EDGE_CURVE('',#325,#324,#264,.T.);
#225=EDGE_CURVE('',#326,#325,#265,.T.);
#226=EDGE_CURVE('',#327,#326,#266,.T.);
#227=EDGE_CURVE('',#328,#327,#197,.T.);
#228=EDGE_CURVE('',#315,#328,#267,.T.);
#229=EDGE_CURVE('',#330,#329,#268,.T.);
#230=EDGE_CURVE('',#331,#330,#269,.T.);
#231=EDGE_CURVE('',#332,#331,#270,.T.);
#232=EDGE_CURVE('',#333,#332,#271,.T.);
#233=EDGE_CURVE('',#334,#333,#198,.T.);
#234=EDGE_CURVE('',#335,#334,#272,.T.);
#235=EDGE_CURVE('',#336,#335,#273,.T.);
#236=EDGE_CURVE('',#337,#336,#274,.T.);
#237=EDGE_CURVE('',#338,#337,#199,.T.);
#238=EDGE_CURVE('',#339,#338,#275,.T.);
#239=EDGE_CURVE('',#340,#339,#276,.T.);
#240=EDGE_CURVE('',#341,#340,#277,.T.);
#241=EDGE_CURVE('',#342,#341,#200,.T.);
#242=EDGE_CURVE('',#329,#342,#278,.T.);
#243=LINE('',#479,#279);
#244=LINE('',#480,#280);
#245=LINE('',#481,#281);
#246=LINE('',#482,#282);
#247=LINE('',#483,#283);
#248=LINE('',#484,#284);
#249=LINE('',#485,#285);
#250=LINE('',#486,#286);
#251=LINE('',#487,#287);
#252=LINE('',#488,#288);
#253=LINE('',#489,#289);
#254=LINE('',#490,#290);
#255=LINE('',#491,#291);
#256=LINE('',#492,#292);
#257=LINE('',#493,#293);
#258=LINE('',#494,#294);
#259=LINE('',#495,#295);
#260=LINE('',#496,#296);
#261=LINE('',#498,#297);
#262=LINE('',#499,#298);
#263=LINE('',#500,#299);
#264=LINE('',#502,#300);
#265=LINE('',#503,#301);
#266=LINE('',#504,#302);
#267=LINE('',#506,#303);
#268=LINE('',#507,#304);
#269=LINE('',#508,#305);
#270=LINE('',#509,#306);
#271=LINE('',#510,#307);
#272=LINE('',#512,#308);
#273=LINE('',#513,#309);
#274=LINE('',#514,#310);
#275=LINE('',#516,#311);
#276=LINE('',#517,#312);
#277=LINE('',#518,#313);
#278=LINE('',#520,#314);
#279=VECTOR('',#370,1.);
#280=VECTOR('',#371,1.);
#281=VECTOR('',#372,1.);
#282=VECTOR('',#373,1.);
#283=VECTOR('',#374,1.);
#284=VECTOR('',#375,1.);
#285=VECTOR('',#376,1.);
#286=VECTOR('',#377,1.);
#287=VECTOR('',#378,1.);
#288=VECTOR('',#379,1.);
#289=VECTOR('',#380,1.);
#290=VECTOR('',#381,1.);
#291=VECTOR('',#382,1.);
#292=VECTOR('',#383,1.);
#293=VECTOR('',#384,1.);
#294=VECTOR('',#385,1.);
#295=VECTOR('',#386,1.);
#296=VECTOR('',#387,1.);
#297=VECTOR('',#390,1.);
#298=VECTOR('',#391,1.);
#299=VECTOR('',#392,1.);
#300=VECTOR('',#395,1.);
#301=VECTOR('',#396,1.);
#302=VECTOR('',#397,1.);
#303=VECTOR('',#400,1.);
#304=VECTOR('',#401,1.);
#305=VECTOR('',#402,1.);
#306=VECTOR('',#403,1.);
#307=VECTOR('',#404,1.);
#308=VECTOR('',#407,1.);
#309=VECTOR('',#408,1.);
#310=VECTOR('',#409,1.);
#311=VECTOR('',#412,1.);
#312=VECTOR('',#413,1.);
#313=VECTOR('',#414,1.);
#314=VECTOR('',#417,1.);
#315=VERTEX_POINT('',#451);
#316=VERTEX_POINT('',#452);
#317=VERTEX_POINT('',#453);
#318=VERTEX_POINT('',#454);
#319=VERTEX_POINT('',#455);
#320=VERTEX_POINT('',#456);
#321=VERTEX_POINT('',#457);
#322=VERTEX_POINT('',#458);
#323=VERTEX_POINT('',#459);
#324=VERTEX_POINT('',#460);
#325=VERTEX_POINT('',#461);
#326=VERTEX_POINT('',#462);
#327=VERTEX_POINT('',#463);
#328=VERTEX_POINT('',#464);
#329=VERTEX_POINT('',#465);
#330=VERTEX_POINT('',#466);
#331=VERTEX_POINT('',#467);
#332=VERTEX_POINT('',#468);
#333=VERTEX_POINT('',#469);
#334=VERTEX_POINT('',#470);
#335=VERTEX_POINT('',#471);
#336=VERTEX_POINT('',#472);
#337=VERTEX_POINT('',#473);
#338=VERTEX_POINT('',#474);
#339=VERTEX_POINT('',#475);
#340=VERTEX_POINT('',#476);
#341=VERTEX_POINT('',#477);
#342=VERTEX_POINT('',#478);
#343=SHAPE_DEFINITION_REPRESENTATION(#537,#344);
#344=SHAPE_REPRESENTATION('master',(#345),#539);
#345=AXIS2_PLACEMENT_3D('',#450,#369,#368);
#346=AXIS2_PLACEMENT_3D('',#497,#389,#388);
#347=AXIS2_PLACEMENT_3D('',#501,#394,#393);
#348=AXIS2_PLACEMENT_3D('',#505,#399,#398);
#349=AXIS2_PLACEMENT_3D('',#511,#406,#405);
#350=AXIS2_PLACEMENT_3D('',#515,#411,#410);
#351=AXIS2_PLACEMENT_3D('',#519,#416,#415);
#352=AXIS2_PLACEMENT_3D('',#521,#419,#418);
#353=AXIS2_PLACEMENT_3D('',#522,#421,#420);
#354=AXIS2_PLACEMENT_3D('',#523,#423,#422);
#355=AXIS2_PLACEMENT_3D('',#524,#425,#424);
#356=AXIS2_PLACEMENT_3D('',#525,#427,#426);
#357=AXIS2_PLACEMENT_3D('',#526,#429,#428);
#358=AXIS2_PLACEMENT_3D('',#527,#431,#430);
#359=AXIS2_PLACEMENT_3D('',#528,#433,#432);
#360=AXIS2_PLACEMENT_3D('',#529,#435,#434);
#361=AXIS2_PLACEMENT_3D('',#530,#437,#436);
#362=AXIS2_PLACEMENT_3D('',#531,#439,#438);
#363=AXIS2_PLACEMENT_3D('',#532,#441,#440);
#364=AXIS2_PLACEMENT_3D('',#533,#443,#442);
#365=AXIS2_PLACEMENT_3D('',#534,#445,#444);
#366=AXIS2_PLACEMENT_3D('',#535,#447,#446);
#367=AXIS2_PLACEMENT_3D('',#536,#449,#448);
#368=DIRECTION('',(1.,0.,0.));
#369=DIRECTION('',(0.,0.,1.));
#370=DIRECTION('',(-5.21863424311988E-016,-1.,1.26569096575362E-016));
#371=DIRECTION('',(-5.21863424311988E-016,-1.,1.26569096575362E-016));
#372=DIRECTION('',(-5.21863424311988E-016,-1.,1.26569096575362E-016));
#373=DIRECTION('',(-5.21863424311988E-016,-1.,1.26569096575362E-016));
#374=DIRECTION('',(-5.21863424311988E-016,-1.,1.26569096575362E-016));
#375=DIRECTION('',(-5.21863424311988E-016,-1.,1.26569096575362E-016));
#376=DIRECTION('',(-5.21863424311988E-016,-1.,1.26569096575362E-016));
#377=DIRECTION('',(-5.21863424311988E-016,-1.,1.26569096575362E-016));
#378=DIRECTION('',(-5.21863424311988E-016,-1.,1.26569096575362E-016));
#379=DIRECTION('',(-5.21863424311988E-016,-1.,1.26569096575362E-016));
#380=DIRECTION('',(-5.21863424311988E-016,-1.,1.26569096575362E-016));
#381=DIRECTION('',(-5.21863424311988E-016,-1.,1.26569096575362E-016));
#382=DIRECTION('',(-5.21863424311988E-016,-1.,1.26569096575362E-016));
#383=DIRECTION('',(-5.21863424311988E-016,-1.,1.26569096575362E-016));
#384=DIRECTION('',(-0.995701214631893,-0.,-0.0926233835517432));
#385=DIRECTION('',(-0.12499618326613,-0.,-0.992157222505032));
#386=DIRECTION('',(0.998738383893444,-0.,0.0502159390822522));
#387=DIRECTION('',(0.705248432788687,-0.,0.708960258441262));
#388=DIRECTION('',(-0.958194457102598,7.22491472517137E-015,0.286117777109107)
);
#389=DIRECTION('',(5.7006167010884E-015,1.,-6.16045398482812E-015));
#390=DIRECTION('',(0.786318342221689,-1.23958307534269E-014,0.617821547605564)
);
#391=DIRECTION('',(-0.,-0.,1.));
#392=DIRECTION('',(-0.998846820749057,-6.20191067742945E-015,
-0.0480107142156899));
#393=DIRECTION('',(0.153337156990627,-1.10153257114942E-014,0.988173930179314)
);
#394=DIRECTION('',(5.86059076344148E-016,1.,1.1056212621311E-014));
#395=DIRECTION('',(0.988173930179313,-0.,-0.153337156990634));
#396=DIRECTION('',(0.,0.,-1.));
#397=DIRECTION('',(-0.98501192209724,0.,-0.172486269964602));
#398=DIRECTION('',(-0.223884351886311,0.,0.974615717593579));
#399=DIRECTION('',(0.,-1.,0.));
#400=DIRECTION('',(-0.224859606649318,-0.,-0.974391172629101));
#401=DIRECTION('',(-0.995701214631893,-0.,-0.0926233835517432));
#402=DIRECTION('',(-0.12499618326613,-0.,-0.992157222505032));
#403=DIRECTION('',(0.998738383893444,-0.,0.0502159390822522));
#404=DIRECTION('',(0.705248432788687,-0.,0.708960258441262));
#405=DIRECTION('',(-0.958194457102598,7.22491472517137E-015,0.286117777109107)
);
#406=DIRECTION('',(5.7006167010884E-015,1.,-6.16045398482812E-015));
#407=DIRECTION('',(0.786318342221689,-1.23958307534269E-014,0.617821547605564)
);
#408=DIRECTION('',(-0.,-0.,1.));
#409=DIRECTION('',(-0.998846820749057,-6.20191067742945E-015,
-0.0480107142156899));
#410=DIRECTION('',(0.153337156990627,-1.10153257114942E-014,0.988173930179314)
);
#411=DIRECTION('',(5.86059076344148E-016,1.,1.1056212621311E-014));
#412=DIRECTION('',(0.988173930179313,-0.,-0.153337156990634));
#413=DIRECTION('',(0.,0.,-1.));
#414=DIRECTION('',(-0.98501192209724,0.,-0.172486269964602));
#415=DIRECTION('',(-0.223884351886311,0.,0.974615717593579));
#416=DIRECTION('',(0.,-1.,0.));
#417=DIRECTION('',(-0.224859606649318,-0.,-0.974391172629101));
#418=DIRECTION('',(0.224859606649318,0.,0.974391172629101));
#419=DIRECTION('',(-0.974391172629101,5.36959391237491E-016,0.224859606649318)
);
#420=DIRECTION('',(1.,-5.21863424311988E-016,0.));
#421=DIRECTION('',(-5.21863424311988E-016,-1.,1.26569096575362E-016));
#422=DIRECTION('',(0.98501192209724,0.,0.172486269964602));
#423=DIRECTION('',(-0.172486269964602,2.14686344586338E-016,0.98501192209724)
);
#424=DIRECTION('',(-5.21863424311988E-016,-1.,0.));
#425=DIRECTION('',(-1.,5.21863424311988E-016,0.));
#426=DIRECTION('',(-0.988173930179313,0.,0.153337156990634));
#427=DIRECTION('',(-0.153337156990634,-4.50512277807234E-017,
-0.988173930179313));
#428=DIRECTION('',(1.,-5.21863424311988E-016,0.));
#429=DIRECTION('',(-5.21863424311988E-016,-1.,1.26569096575362E-016));
#430=DIRECTION('',(0.998846820749057,0.,0.0480107142156899));
#431=DIRECTION('',(-0.0480107142156899,1.51478175443645E-016,0.998846820749057
));
#432=DIRECTION('',(5.21863424311988E-016,1.,0.));
#433=DIRECTION('',(1.,-5.21863424311988E-016,0.));
#434=DIRECTION('',(-0.786318342221689,0.,-0.617821547605564));
#435=DIRECTION('',(0.617821547605564,-4.21942070642807E-016,-0.786318342221689
));
#436=DIRECTION('',(1.,-5.21863424311988E-016,0.));
#437=DIRECTION('',(-5.21863424311988E-016,-1.,1.26569096575362E-016));
#438=DIRECTION('',(-0.705248432788687,0.,-0.708960258441262));
#439=DIRECTION('',(0.708960258441262,-4.59243085170522E-016,-0.705248432788687
));
#440=DIRECTION('',(-0.998738383893444,0.,-0.0502159390822522));
#441=DIRECTION('',(0.0502159390822522,-1.52615276889036E-016,
-0.998738383893444));
#442=DIRECTION('',(0.12499618326613,0.,0.992157222505032));
#443=DIRECTION('',(-0.992157222505032,5.33591219583709E-016,0.12499618326613)
);
#444=DIRECTION('',(0.995701214631893,-3.08148791101958E-033,0.0926233835517432
));
#445=DIRECTION('',(-0.0926233835517432,1.74361759306624E-016,0.995701214631893
));
#446=DIRECTION('',(0.,0.,-1.));
#447=DIRECTION('',(0.,-1.,0.));
#448=DIRECTION('',(0.,0.,-1.));
#449=DIRECTION('',(0.,-1.,0.));
#450=CARTESIAN_POINT('',(0.,0.,0.));
#451=CARTESIAN_POINT('',(198.408443000001,2168.281361,2242.106303));
#452=CARTESIAN_POINT('',(203.118501000001,2168.281361,2242.544448));
#453=CARTESIAN_POINT('',(203.994791000001,2168.281361,2249.5));
#454=CARTESIAN_POINT('',(184.387804000001,2168.281361,2248.514173));
#455=CARTESIAN_POINT('',(173.981861000001,2168.281361,2238.053462));
#456=CARTESIAN_POINT('',(110.292076000001,2168.281361,2168.248166));
#457=CARTESIAN_POINT('',(103.080454000001,2168.281361,2162.5818916356));
#458=CARTESIAN_POINT('',(103.080454000001,2168.281361,2130.694156));
#459=CARTESIAN_POINT('',(112.235353379035,2168.281361,2131.13419670357));
#460=CARTESIAN_POINT('',(112.778879304694,2168.281361,2141.38800633103));
#461=CARTESIAN_POINT('',(109.415522,2168.281361,2141.909906));
#462=CARTESIAN_POINT('',(109.415522,2168.281361,2145.909906));
#463=CARTESIAN_POINT('',(115.410442002887,2168.281361,2146.95968150712));
#464=CARTESIAN_POINT('',(197.586921000001,2168.281361,2238.546376));
#465=CARTESIAN_POINT('',(198.408443,168.281361,2242.106303));
#466=CARTESIAN_POINT('',(203.118501,168.281361,2242.544448));
#467=CARTESIAN_POINT('',(203.994791,168.281361,2249.5));
#468=CARTESIAN_POINT('',(184.387804,168.281361,2248.514173));
#469=CARTESIAN_POINT('',(173.981861,168.281361,2238.053462));
#470=CARTESIAN_POINT('',(110.292076,168.281361,2168.248166));
#471=CARTESIAN_POINT('',(103.080454,168.281361,2162.5818916356));
#472=CARTESIAN_POINT('',(103.080454,168.281361,2130.694156));
#473=CARTESIAN_POINT('',(112.235353379034,168.281361,2131.13419670357));
#474=CARTESIAN_POINT('',(112.778879304693,168.281361,2141.38800633103));
#475=CARTESIAN_POINT('',(109.415521999999,168.281361,2141.909906));
#476=CARTESIAN_POINT('',(109.415521999999,168.281361,2145.909906));
#477=CARTESIAN_POINT('',(115.410442002886,168.281361,2146.95968150712));
#478=CARTESIAN_POINT('',(197.586921,168.281361,2238.546376));
#479=CARTESIAN_POINT('',(197.586921000001,2168.281361,2238.546376));
#480=CARTESIAN_POINT('',(115.410442002887,2168.281361,2146.95968150712));
#481=CARTESIAN_POINT('',(109.415522,2168.281361,2145.909906));
#482=CARTESIAN_POINT('',(109.415522,2168.281361,2141.909906));
#483=CARTESIAN_POINT('',(112.778879304694,2168.281361,2141.38800633103));
#484=CARTESIAN_POINT('',(112.235353379035,2168.281361,2131.13419670357));
#485=CARTESIAN_POINT('',(103.080454000001,2168.281361,2130.694156));
#486=CARTESIAN_POINT('',(103.080454000001,2168.281361,2162.5818916356));
#487=CARTESIAN_POINT('',(110.292076000001,2168.281361,2168.248166));
#488=CARTESIAN_POINT('',(173.981861000001,2168.281361,2238.053462));
#489=CARTESIAN_POINT('',(184.387804000001,2168.281361,2248.514173));
#490=CARTESIAN_POINT('',(203.994791000001,2168.281361,2249.5));
#491=CARTESIAN_POINT('',(203.118501000001,2168.281361,2242.544448));
#492=CARTESIAN_POINT('',(198.408443000001,2168.281361,2242.106303));
#493=CARTESIAN_POINT('',(203.118501000001,2168.281361,2242.544448));
#494=CARTESIAN_POINT('',(203.994791000001,2168.281361,2249.5));
#495=CARTESIAN_POINT('',(184.387804000001,2168.281361,2248.514173));
#496=CARTESIAN_POINT('',(173.981861000001,2168.281361,2238.053462));
#497=CARTESIAN_POINT('',(214.493142977844,2168.281361,2137.13362819914));
#498=CARTESIAN_POINT('',(103.080454000001,2168.281361,2162.5818916356));
#499=CARTESIAN_POINT('',(103.080454000001,2168.281361,2130.694156));
#500=CARTESIAN_POINT('',(112.235353379035,2168.281361,2131.13419670357));
#501=CARTESIAN_POINT('',(111.987599185519,2168.281361,2136.28863967663));
#502=CARTESIAN_POINT('',(109.415522,2168.281361,2141.909906));
#503=CARTESIAN_POINT('',(109.415522,2168.281361,2145.909906));
#504=CARTESIAN_POINT('',(115.410442002887,2168.281361,2146.95968150712));
#505=CARTESIAN_POINT('',(221.50501691997,2168.281361,2134.42586904135));
#506=CARTESIAN_POINT('',(198.408443000001,2168.281361,2242.106303));
#507=CARTESIAN_POINT('',(203.118501,168.281361,2242.544448));
#508=CARTESIAN_POINT('',(203.994791,168.281361,2249.5));
#509=CARTESIAN_POINT('',(184.387804,168.281361,2248.514173));
#510=CARTESIAN_POINT('',(173.981861,168.281361,2238.053462));
#511=CARTESIAN_POINT('',(214.493142977843,168.281360999999,2137.13362819914));
#512=CARTESIAN_POINT('',(103.080454,168.281361,2162.5818916356));
#513=CARTESIAN_POINT('',(103.080454,168.281361,2130.694156));
#514=CARTESIAN_POINT('',(112.235353379034,168.281361,2131.13419670357));
#515=CARTESIAN_POINT('',(111.987599185518,168.281361,2136.28863967663));
#516=CARTESIAN_POINT('',(109.415521999999,168.281361,2141.909906));
#517=CARTESIAN_POINT('',(109.415521999999,168.281361,2145.909906));
#518=CARTESIAN_POINT('',(115.410442002886,168.281361,2146.95968150712));
#519=CARTESIAN_POINT('',(221.505016919969,168.281361,2134.42586904135));
#520=CARTESIAN_POINT('',(198.408443,168.281361,2242.106303));
#521=CARTESIAN_POINT('',(198.408443000001,2168.281361,2242.106303));
#522=CARTESIAN_POINT('',(221.50501691997,2168.281361,2134.42586904135));
#523=CARTESIAN_POINT('',(115.410442002887,2168.281361,2146.95968150712));
#524=CARTESIAN_POINT('',(109.415522,2168.281361,2145.909906));
#525=CARTESIAN_POINT('',(109.415522,2168.281361,2141.909906));
#526=CARTESIAN_POINT('',(111.987599185519,2168.281361,2136.28863967663));
#527=CARTESIAN_POINT('',(112.235353379035,2168.281361,2131.13419670357));
#528=CARTESIAN_POINT('',(103.080454000001,2168.281361,2130.694156));
#529=CARTESIAN_POINT('',(103.080454000001,2168.281361,2162.5818916356));
#530=CARTESIAN_POINT('',(214.493142977844,2168.281361,2137.13362819914));
#531=CARTESIAN_POINT('',(173.981861000001,2168.281361,2238.053462));
#532=CARTESIAN_POINT('',(184.387804000001,2168.281361,2248.514173));
#533=CARTESIAN_POINT('',(203.994791000001,2168.281361,2249.5));
#534=CARTESIAN_POINT('',(203.118501000001,2168.281361,2242.544448));
#535=CARTESIAN_POINT('',(221.50501691997,2168.281361,2134.42586904135));
#536=CARTESIAN_POINT('',(221.505016919969,168.281361,2134.42586904135));
#537=PRODUCT_DEFINITION_SHAPE('','',#538);
#538=PRODUCT_DEFINITION('','',#550,#555);
#539=(
GEOMETRIC_REPRESENTATION_CONTEXT(3)
GLOBAL_UNCERTAINTY_ASSIGNED_CONTEXT((#540))
GLOBAL_UNIT_ASSIGNED_CONTEXT((#542,#541,#545))
REPRESENTATION_CONTEXT('','')
);
#540=UNCERTAINTY_MEASURE_WITH_UNIT(LENGTH_MEASURE(0.001),#542,'','tolerance');
#541=(
CONVERSION_BASED_UNIT('',#543)
NAMED_UNIT(#549)
PLANE_ANGLE_UNIT()
);
#542=(
CONVERSION_BASED_UNIT('',#544)
LENGTH_UNIT()
NAMED_UNIT(#548)
);
#543=PLANE_ANGLE_MEASURE_WITH_UNIT(PLANE_ANGLE_MEASURE(0.0174532925199433),
#546);
#544=LENGTH_MEASURE_WITH_UNIT(LENGTH_MEASURE(1.),#547);
#545=(
NAMED_UNIT(*)
SI_UNIT($,.STERADIAN.)
SOLID_ANGLE_UNIT()
);
#546=(
NAMED_UNIT(*)
PLANE_ANGLE_UNIT()
SI_UNIT($,.RADIAN.)
);
#547=(
LENGTH_UNIT()
NAMED_UNIT(*)
SI_UNIT(.MILLI.,.METRE.)
);
#548=DIMENSIONAL_EXPONENTS(1.,0.,0.,0.,0.,0.,0.);
#549=DIMENSIONAL_EXPONENTS(0.,0.,0.,0.,0.,0.,0.);
#550=PRODUCT_DEFINITION_FORMATION_WITH_SPECIFIED_SOURCE('','',#553,.NOT_KNOWN.
);
#551=PRODUCT_CATEGORY_RELATIONSHIP('','',#556,#552);
#552=PRODUCT_RELATED_PRODUCT_CATEGORY('assembly','',(#553));
#553=PRODUCT('','master','',(#554));
#554=PRODUCT_CONTEXT('',#558,'');
#555=PRODUCT_DEFINITION_CONTEXT('',#558,'part_definition');
#556=PRODUCT_CATEGORY('part','');
#557=APPLICATION_PROTOCOL_DEFINITION('international standard',
'automotive_design_cc2',1994,#558);
#558=APPLICATION_CONTEXT(
'configuration controlled 3D designs of mechanical parts and assemblies');
ENDSEC;
END-ISO-10303-21;
26286