ISO-10303-21;
HEADER;
/* Generated by software using Delcam plc STEP library */

FILE_DESCRIPTION(
/* description */ ('AP-214 File'),
/* implementation_level */ '2;1');

FILE_NAME(
/* name */ 'D622',
/* time_stamp */ 'Mon Dec 26 16:04:46 2016',
/* author */ (''),
/* organization */ (''),
/* preprocessor_version */ 'DELCAM STEP V1',
/* originating_system */ 'Exchange7.1.0006',
/* authorisation */ '');

FILE_SCHEMA (('AUTOMOTIVE_DESIGN'));
ENDSEC;
DATA;
#10=PRESENTATION_STYLE_ASSIGNMENT((#20));
#11=PRESENTATION_STYLE_ASSIGNMENT((#21));
#12=SURFACE_SIDE_STYLE('',(#14));
#13=SURFACE_SIDE_STYLE('',(#15));
#14=SURFACE_STYLE_FILL_AREA(#16);
#15=SURFACE_STYLE_FILL_AREA(#17);
#16=FILL_AREA_STYLE('',(#18));
#17=FILL_AREA_STYLE('',(#19));
#18=FILL_AREA_STYLE_COLOUR('',#44);
#19=FILL_AREA_STYLE_COLOUR('',#45);
#20=SURFACE_STYLE_USAGE(.BOTH.,#12);
#21=SURFACE_STYLE_USAGE(.BOTH.,#13);
#22=STYLED_ITEM('',(#10),#65);
#23=STYLED_ITEM('',(#10),#66);
#24=STYLED_ITEM('',(#10),#67);
#25=STYLED_ITEM('',(#10),#68);
#26=STYLED_ITEM('',(#10),#69);
#27=STYLED_ITEM('',(#10),#70);
#28=STYLED_ITEM('',(#10),#71);
#29=STYLED_ITEM('',(#10),#72);
#30=STYLED_ITEM('',(#10),#73);
#31=STYLED_ITEM('',(#10),#74);
#32=STYLED_ITEM('',(#10),#75);
#33=STYLED_ITEM('',(#10),#76);
#34=STYLED_ITEM('',(#10),#77);
#35=STYLED_ITEM('',(#10),#78);
#36=STYLED_ITEM('',(#10),#79);
#37=STYLED_ITEM('',(#10),#80);
#38=STYLED_ITEM('',(#10),#81);
#39=STYLED_ITEM('',(#10),#82);
#40=STYLED_ITEM('',(#10),#83);
#41=STYLED_ITEM('',(#10),#84);
#42=STYLED_ITEM('',(#10),#85);
#43=STYLED_ITEM('',(#11),#51);
#44=COLOUR_RGB('',0.,0.,0.);
#45=COLOUR_RGB('rgb_colour_1',0.4,0.4,0.4);
#46=MECHANICAL_DESIGN_GEOMETRIC_PRESENTATION_REPRESENTATION('',(#22,#23,#24,
#25,#26,#27,#28,#29,#30,#31,#32,#33,#34,#35,#36,#37,#38,#39,#40,#41,#42,#43),
#719);
#47=PRESENTATION_LAYER_ASSIGNMENT('114','D622',(#65,#66,#67,#68,#69,#70,#71,
#72,#73,#74,#75,#76,#77,#78,#79,#80,#81,#82,#83,#84,#85,#51));
#48=SHAPE_REPRESENTATION_RELATIONSHIP('','',#444,#49);
#49=ADVANCED_BREP_SHAPE_REPRESENTATION('',(#50),#719);
#50=MANIFOLD_SOLID_BREP('7548',#51);
#51=CLOSED_SHELL('',(#65,#66,#67,#68,#69,#70,#71,#72,#73,#74,#75,#76,#77,#78,
#79,#80,#81,#82,#83,#84,#85));
#52=PLANE('',#466);
#53=PLANE('',#468);
#54=PLANE('',#469);
#55=PLANE('',#470);
#56=PLANE('',#471);
#57=PLANE('',#472);
#58=PLANE('',#473);
#59=PLANE('',#474);
#60=PLANE('',#475);
#61=PLANE('',#476);
#62=PLANE('',#480);
#63=PLANE('',#481);
#64=PLANE('',#482);
#65=ADVANCED_FACE('',(#86),#242,.F.);
#66=ADVANCED_FACE('',(#87),#243,.F.);
#67=ADVANCED_FACE('',(#88),#244,.F.);
#68=ADVANCED_FACE('',(#89),#245,.T.);
#69=ADVANCED_FACE('',(#90),#52,.F.);
#70=ADVANCED_FACE('',(#91),#246,.F.);
#71=ADVANCED_FACE('',(#92),#53,.F.);
#72=ADVANCED_FACE('',(#93),#54,.F.);
#73=ADVANCED_FACE('',(#94),#55,.F.);
#74=ADVANCED_FACE('',(#95),#56,.F.);
#75=ADVANCED_FACE('',(#96),#57,.F.);
#76=ADVANCED_FACE('',(#97),#58,.F.);
#77=ADVANCED_FACE('',(#98),#59,.F.);
#78=ADVANCED_FACE('',(#99),#60,.F.);
#79=ADVANCED_FACE('',(#100),#61,.F.);
#80=ADVANCED_FACE('',(#101),#247,.T.);
#81=ADVANCED_FACE('',(#102),#248,.T.);
#82=ADVANCED_FACE('',(#103),#249,.F.);
#83=ADVANCED_FACE('',(#104),#62,.F.);
#84=ADVANCED_FACE('',(#105),#63,.F.);
#85=ADVANCED_FACE('',(#106),#64,.T.);
#86=FACE_OUTER_BOUND('',#107,.T.);
#87=FACE_OUTER_BOUND('',#108,.T.);
#88=FACE_OUTER_BOUND('',#109,.T.);
#89=FACE_OUTER_BOUND('',#110,.T.);
#90=FACE_OUTER_BOUND('',#111,.T.);
#91=FACE_OUTER_BOUND('',#112,.T.);
#92=FACE_OUTER_BOUND('',#113,.T.);
#93=FACE_OUTER_BOUND('',#114,.T.);
#94=FACE_OUTER_BOUND('',#115,.T.);
#95=FACE_OUTER_BOUND('',#116,.T.);
#96=FACE_OUTER_BOUND('',#117,.T.);
#97=FACE_OUTER_BOUND('',#118,.T.);
#98=FACE_OUTER_BOUND('',#119,.T.);
#99=FACE_OUTER_BOUND('',#120,.T.);
#100=FACE_OUTER_BOUND('',#121,.T.);
#101=FACE_OUTER_BOUND('',#122,.T.);
#102=FACE_OUTER_BOUND('',#123,.T.);
#103=FACE_OUTER_BOUND('',#124,.T.);
#104=FACE_OUTER_BOUND('',#125,.T.);
#105=FACE_OUTER_BOUND('',#126,.T.);
#106=FACE_OUTER_BOUND('',#127,.T.);
#107=EDGE_LOOP('',(#128,#129,#130,#131));
#108=EDGE_LOOP('',(#132,#133,#134,#135));
#109=EDGE_LOOP('',(#136,#137,#138,#139));
#110=EDGE_LOOP('',(#140,#141,#142,#143));
#111=EDGE_LOOP('',(#144,#145,#146,#147));
#112=EDGE_LOOP('',(#148,#149,#150,#151));
#113=EDGE_LOOP('',(#152,#153,#154,#155));
#114=EDGE_LOOP('',(#156,#157,#158,#159));
#115=EDGE_LOOP('',(#160,#161,#162,#163));
#116=EDGE_LOOP('',(#164,#165,#166,#167));
#117=EDGE_LOOP('',(#168,#169,#170,#171));
#118=EDGE_LOOP('',(#172,#173,#174,#175));
#119=EDGE_LOOP('',(#176,#177,#178,#179));
#120=EDGE_LOOP('',(#180,#181,#182,#183));
#121=EDGE_LOOP('',(#184,#185,#186,#187));
#122=EDGE_LOOP('',(#188,#189,#190,#191));
#123=EDGE_LOOP('',(#192,#193,#194,#195));
#124=EDGE_LOOP('',(#196,#197,#198,#199));
#125=EDGE_LOOP('',(#200,#201,#202,#203));
#126=EDGE_LOOP('',(#204,#205,#206,#207,#208,#209,#210,#211,#212,#213,#214,#215
,#216,#217,#218,#219,#220,#221,#222));
#127=EDGE_LOOP('',(#223,#224,#225,#226,#227,#228,#229,#230,#231,#232,#233,#234
,#235,#236,#237,#238,#239,#240,#241));
#128=ORIENTED_EDGE('',*,*,#322,.T.);
#129=ORIENTED_EDGE('',*,*,#266,.F.);
#130=ORIENTED_EDGE('',*,*,#303,.F.);
#131=ORIENTED_EDGE('',*,*,#284,.T.);
#132=ORIENTED_EDGE('',*,*,#321,.T.);
#133=ORIENTED_EDGE('',*,*,#267,.F.);
#134=ORIENTED_EDGE('',*,*,#302,.F.);
#135=ORIENTED_EDGE('',*,*,#266,.T.);
#136=ORIENTED_EDGE('',*,*,#320,.T.);
#137=ORIENTED_EDGE('',*,*,#268,.F.);
#138=ORIENTED_EDGE('',*,*,#301,.F.);
#139=ORIENTED_EDGE('',*,*,#267,.T.);
#140=ORIENTED_EDGE('',*,*,#319,.T.);
#141=ORIENTED_EDGE('',*,*,#269,.F.);
#142=ORIENTED_EDGE('',*,*,#300,.F.);
#143=ORIENTED_EDGE('',*,*,#268,.T.);
#144=ORIENTED_EDGE('',*,*,#318,.T.);
#145=ORIENTED_EDGE('',*,*,#270,.F.);
#146=ORIENTED_EDGE('',*,*,#299,.F.);
#147=ORIENTED_EDGE('',*,*,#269,.T.);
#148=ORIENTED_EDGE('',*,*,#317,.T.);
#149=ORIENTED_EDGE('',*,*,#271,.F.);
#150=ORIENTED_EDGE('',*,*,#298,.F.);
#151=ORIENTED_EDGE('',*,*,#270,.T.);
#152=ORIENTED_EDGE('',*,*,#316,.T.);
#153=ORIENTED_EDGE('',*,*,#272,.F.);
#154=ORIENTED_EDGE('',*,*,#297,.F.);
#155=ORIENTED_EDGE('',*,*,#271,.T.);
#156=ORIENTED_EDGE('',*,*,#315,.T.);
#157=ORIENTED_EDGE('',*,*,#273,.F.);
#158=ORIENTED_EDGE('',*,*,#296,.F.);
#159=ORIENTED_EDGE('',*,*,#272,.T.);
#160=ORIENTED_EDGE('',*,*,#314,.T.);
#161=ORIENTED_EDGE('',*,*,#274,.F.);
#162=ORIENTED_EDGE('',*,*,#295,.F.);
#163=ORIENTED_EDGE('',*,*,#273,.T.);
#164=ORIENTED_EDGE('',*,*,#313,.T.);
#165=ORIENTED_EDGE('',*,*,#275,.F.);
#166=ORIENTED_EDGE('',*,*,#294,.F.);
#167=ORIENTED_EDGE('',*,*,#274,.T.);
#168=ORIENTED_EDGE('',*,*,#312,.T.);
#169=ORIENTED_EDGE('',*,*,#276,.F.);
#170=ORIENTED_EDGE('',*,*,#293,.F.);
#171=ORIENTED_EDGE('',*,*,#275,.T.);
#172=ORIENTED_EDGE('',*,*,#311,.T.);
#173=ORIENTED_EDGE('',*,*,#277,.F.);
#174=ORIENTED_EDGE('',*,*,#292,.F.);
#175=ORIENTED_EDGE('',*,*,#276,.T.);
#176=ORIENTED_EDGE('',*,*,#310,.T.);
#177=ORIENTED_EDGE('',*,*,#278,.F.);
#178=ORIENTED_EDGE('',*,*,#291,.F.);
#179=ORIENTED_EDGE('',*,*,#277,.T.);
#180=ORIENTED_EDGE('',*,*,#309,.T.);
#181=ORIENTED_EDGE('',*,*,#279,.F.);
#182=ORIENTED_EDGE('',*,*,#290,.F.);
#183=ORIENTED_EDGE('',*,*,#278,.T.);
#184=ORIENTED_EDGE('',*,*,#308,.T.);
#185=ORIENTED_EDGE('',*,*,#280,.F.);
#186=ORIENTED_EDGE('',*,*,#289,.F.);
#187=ORIENTED_EDGE('',*,*,#279,.T.);
#188=ORIENTED_EDGE('',*,*,#307,.T.);
#189=ORIENTED_EDGE('',*,*,#281,.F.);
#190=ORIENTED_EDGE('',*,*,#288,.F.);
#191=ORIENTED_EDGE('',*,*,#280,.T.);
#192=ORIENTED_EDGE('',*,*,#306,.T.);
#193=ORIENTED_EDGE('',*,*,#282,.F.);
#194=ORIENTED_EDGE('',*,*,#287,.F.);
#195=ORIENTED_EDGE('',*,*,#281,.T.);
#196=ORIENTED_EDGE('',*,*,#305,.T.);
#197=ORIENTED_EDGE('',*,*,#283,.F.);
#198=ORIENTED_EDGE('',*,*,#286,.F.);
#199=ORIENTED_EDGE('',*,*,#282,.T.);
#200=ORIENTED_EDGE('',*,*,#304,.T.);
#201=ORIENTED_EDGE('',*,*,#284,.F.);
#202=ORIENTED_EDGE('',*,*,#285,.F.);
#203=ORIENTED_EDGE('',*,*,#283,.T.);
#204=ORIENTED_EDGE('',*,*,#303,.T.);
#205=ORIENTED_EDGE('',*,*,#302,.T.);
#206=ORIENTED_EDGE('',*,*,#301,.T.);
#207=ORIENTED_EDGE('',*,*,#300,.T.);
#208=ORIENTED_EDGE('',*,*,#299,.T.);
#209=ORIENTED_EDGE('',*,*,#298,.T.);
#210=ORIENTED_EDGE('',*,*,#297,.T.);
#211=ORIENTED_EDGE('',*,*,#296,.T.);
#212=ORIENTED_EDGE('',*,*,#295,.T.);
#213=ORIENTED_EDGE('',*,*,#294,.T.);
#214=ORIENTED_EDGE('',*,*,#293,.T.);
#215=ORIENTED_EDGE('',*,*,#292,.T.);
#216=ORIENTED_EDGE('',*,*,#291,.T.);
#217=ORIENTED_EDGE('',*,*,#290,.T.);
#218=ORIENTED_EDGE('',*,*,#289,.T.);
#219=ORIENTED_EDGE('',*,*,#288,.T.);
#220=ORIENTED_EDGE('',*,*,#287,.T.);
#221=ORIENTED_EDGE('',*,*,#286,.T.);
#222=ORIENTED_EDGE('',*,*,#285,.T.);
#223=ORIENTED_EDGE('',*,*,#322,.F.);
#224=ORIENTED_EDGE('',*,*,#304,.F.);
#225=ORIENTED_EDGE('',*,*,#305,.F.);
#226=ORIENTED_EDGE('',*,*,#306,.F.);
#227=ORIENTED_EDGE('',*,*,#307,.F.);
#228=ORIENTED_EDGE('',*,*,#308,.F.);
#229=ORIENTED_EDGE('',*,*,#309,.F.);
#230=ORIENTED_EDGE('',*,*,#310,.F.);
#231=ORIENTED_EDGE('',*,*,#311,.F.);
#232=ORIENTED_EDGE('',*,*,#312,.F.);
#233=ORIENTED_EDGE('',*,*,#313,.F.);
#234=ORIENTED_EDGE('',*,*,#314,.F.);
#235=ORIENTED_EDGE('',*,*,#315,.F.);
#236=ORIENTED_EDGE('',*,*,#316,.F.);
#237=ORIENTED_EDGE('',*,*,#317,.F.);
#238=ORIENTED_EDGE('',*,*,#318,.F.);
#239=ORIENTED_EDGE('',*,*,#319,.F.);
#240=ORIENTED_EDGE('',*,*,#320,.F.);
#241=ORIENTED_EDGE('',*,*,#321,.F.);
#242=CYLINDRICAL_SURFACE('',#462,75.1255081218117);
#243=CYLINDRICAL_SURFACE('',#463,36.5423135618144);
#244=CYLINDRICAL_SURFACE('',#464,3.73654609339305);
#245=CYLINDRICAL_SURFACE('',#465,6.21752212380484);
#246=CYLINDRICAL_SURFACE('',#467,5.43113906985139);
#247=CYLINDRICAL_SURFACE('',#477,6.50035898562263);
#248=CYLINDRICAL_SURFACE('',#478,4.9067699840551);
#249=CYLINDRICAL_SURFACE('',#479,3.13936819127028);
#250=CIRCLE('',#446,3.13936819127028);
#251=CIRCLE('',#447,4.9067699840551);
#252=CIRCLE('',#448,6.50035898562263);
#253=CIRCLE('',#449,5.43113906985139);
#254=CIRCLE('',#450,6.21752212380484);
#255=CIRCLE('',#451,3.73654609339305);
#256=CIRCLE('',#452,36.5423135618144);
#257=CIRCLE('',#453,75.1255081218117);
#258=CIRCLE('',#454,3.13936819127028);
#259=CIRCLE('',#455,4.9067699840551);
#260=CIRCLE('',#456,6.50035898562263);
#261=CIRCLE('',#457,5.43113906985139);
#262=CIRCLE('',#458,6.21752212380484);
#263=CIRCLE('',#459,3.73654609339305);
#264=CIRCLE('',#460,36.5423135618144);
#265=CIRCLE('',#461,75.1255081218117);
#266=EDGE_CURVE('',#423,#442,#323,.T.);
#267=EDGE_CURVE('',#422,#441,#324,.T.);
#268=EDGE_CURVE('',#421,#440,#325,.T.);
#269=EDGE_CURVE('',#420,#439,#326,.T.);
#270=EDGE_CURVE('',#419,#438,#327,.T.);
#271=EDGE_CURVE('',#418,#437,#328,.T.);
#272=EDGE_CURVE('',#417,#436,#329,.T.);
#273=EDGE_CURVE('',#416,#435,#330,.T.);
#274=EDGE_CURVE('',#415,#434,#331,.T.);
#275=EDGE_CURVE('',#414,#433,#332,.T.);
#276=EDGE_CURVE('',#413,#432,#333,.T.);
#277=EDGE_CURVE('',#412,#431,#334,.T.);
#278=EDGE_CURVE('',#411,#430,#335,.T.);
#279=EDGE_CURVE('',#410,#429,#336,.T.);
#280=EDGE_CURVE('',#409,#428,#337,.T.);
#281=EDGE_CURVE('',#408,#427,#338,.T.);
#282=EDGE_CURVE('',#407,#426,#339,.T.);
#283=EDGE_CURVE('',#406,#425,#340,.T.);
#284=EDGE_CURVE('',#405,#424,#341,.T.);
#285=EDGE_CURVE('',#406,#405,#342,.T.);
#286=EDGE_CURVE('',#407,#406,#250,.T.);
#287=EDGE_CURVE('',#408,#407,#251,.T.);
#288=EDGE_CURVE('',#409,#408,#252,.T.);
#289=EDGE_CURVE('',#410,#409,#343,.T.);
#290=EDGE_CURVE('',#411,#410,#344,.T.);
#291=EDGE_CURVE('',#412,#411,#345,.T.);
#292=EDGE_CURVE('',#413,#412,#346,.T.);
#293=EDGE_CURVE('',#414,#413,#347,.T.);
#294=EDGE_CURVE('',#415,#414,#348,.T.);
#295=EDGE_CURVE('',#416,#415,#349,.T.);
#296=EDGE_CURVE('',#417,#416,#350,.T.);
#297=EDGE_CURVE('',#418,#417,#351,.T.);
#298=EDGE_CURVE('',#419,#418,#253,.T.);
#299=EDGE_CURVE('',#420,#419,#352,.T.);
#300=EDGE_CURVE('',#421,#420,#254,.T.);
#301=EDGE_CURVE('',#422,#421,#255,.T.);
#302=EDGE_CURVE('',#423,#422,#256,.T.);
#303=EDGE_CURVE('',#405,#423,#257,.T.);
#304=EDGE_CURVE('',#425,#424,#353,.T.);
#305=EDGE_CURVE('',#426,#425,#258,.T.);
#306=EDGE_CURVE('',#427,#426,#259,.T.);
#307=EDGE_CURVE('',#428,#427,#260,.T.);
#308=EDGE_CURVE('',#429,#428,#354,.T.);
#309=EDGE_CURVE('',#430,#429,#355,.T.);
#310=EDGE_CURVE('',#431,#430,#356,.T.);
#311=EDGE_CURVE('',#432,#431,#357,.T.);
#312=EDGE_CURVE('',#433,#432,#358,.T.);
#313=EDGE_CURVE('',#434,#433,#359,.T.);
#314=EDGE_CURVE('',#435,#434,#360,.T.);
#315=EDGE_CURVE('',#436,#435,#361,.T.);
#316=EDGE_CURVE('',#437,#436,#362,.T.);
#317=EDGE_CURVE('',#438,#437,#261,.T.);
#318=EDGE_CURVE('',#439,#438,#363,.T.);
#319=EDGE_CURVE('',#440,#439,#262,.T.);
#320=EDGE_CURVE('',#441,#440,#263,.T.);
#321=EDGE_CURVE('',#442,#441,#264,.T.);
#322=EDGE_CURVE('',#424,#442,#265,.T.);
#323=LINE('',#639,#364);
#324=LINE('',#640,#365);
#325=LINE('',#641,#366);
#326=LINE('',#642,#367);
#327=LINE('',#643,#368);
#328=LINE('',#644,#369);
#329=LINE('',#645,#370);
#330=LINE('',#646,#371);
#331=LINE('',#647,#372);
#332=LINE('',#648,#373);
#333=LINE('',#649,#374);
#334=LINE('',#650,#375);
#335=LINE('',#651,#376);
#336=LINE('',#652,#377);
#337=LINE('',#653,#378);
#338=LINE('',#654,#379);
#339=LINE('',#655,#380);
#340=LINE('',#656,#381);
#341=LINE('',#657,#382);
#342=LINE('',#658,#383);
#343=LINE('',#662,#384);
#344=LINE('',#663,#385);
#345=LINE('',#664,#386);
#346=LINE('',#665,#387);
#347=LINE('',#666,#388);
#348=LINE('',#667,#389);
#349=LINE('',#668,#390);
#350=LINE('',#669,#391);
#351=LINE('',#670,#392);
#352=LINE('',#672,#393);
#353=LINE('',#677,#394);
#354=LINE('',#681,#395);
#355=LINE('',#682,#396);
#356=LINE('',#683,#397);
#357=LINE('',#684,#398);
#358=LINE('',#685,#399);
#359=LINE('',#686,#400);
#360=LINE('',#687,#401);
#361=LINE('',#688,#402);
#362=LINE('',#689,#403);
#363=LINE('',#691,#404);
#364=VECTOR('',#485,1.);
#365=VECTOR('',#486,1.);
#366=VECTOR('',#487,1.);
#367=VECTOR('',#488,1.);
#368=VECTOR('',#489,1.);
#369=VECTOR('',#490,1.);
#370=VECTOR('',#491,1.);
#371=VECTOR('',#492,1.);
#372=VECTOR('',#493,1.);
#373=VECTOR('',#494,1.);
#374=VECTOR('',#495,1.);
#375=VECTOR('',#496,1.);
#376=VECTOR('',#497,1.);
#377=VECTOR('',#498,1.);
#378=VECTOR('',#499,1.);
#379=VECTOR('',#500,1.);
#380=VECTOR('',#501,1.);
#381=VECTOR('',#502,1.);
#382=VECTOR('',#503,1.);
#383=VECTOR('',#504,1.);
#384=VECTOR('',#511,1.);
#385=VECTOR('',#512,1.);
#386=VECTOR('',#513,1.);
#387=VECTOR('',#514,1.);
#388=VECTOR('',#515,1.);
#389=VECTOR('',#516,1.);
#390=VECTOR('',#517,1.);
#391=VECTOR('',#518,1.);
#392=VECTOR('',#519,1.);
#393=VECTOR('',#522,1.);
#394=VECTOR('',#531,1.);
#395=VECTOR('',#538,1.);
#396=VECTOR('',#539,1.);
#397=VECTOR('',#540,1.);
#398=VECTOR('',#541,1.);
#399=VECTOR('',#542,1.);
#400=VECTOR('',#543,1.);
#401=VECTOR('',#544,1.);
#402=VECTOR('',#545,1.);
#403=VECTOR('',#546,1.);
#404=VECTOR('',#549,1.);
#405=VERTEX_POINT('',#601);
#406=VERTEX_POINT('',#602);
#407=VERTEX_POINT('',#603);
#408=VERTEX_POINT('',#604);
#409=VERTEX_POINT('',#605);
#410=VERTEX_POINT('',#606);
#411=VERTEX_POINT('',#607);
#412=VERTEX_POINT('',#608);
#413=VERTEX_POINT('',#609);
#414=VERTEX_POINT('',#610);
#415=VERTEX_POINT('',#611);
#416=VERTEX_POINT('',#612);
#417=VERTEX_POINT('',#613);
#418=VERTEX_POINT('',#614);
#419=VERTEX_POINT('',#615);
#420=VERTEX_POINT('',#616);
#421=VERTEX_POINT('',#617);
#422=VERTEX_POINT('',#618);
#423=VERTEX_POINT('',#619);
#424=VERTEX_POINT('',#620);
#425=VERTEX_POINT('',#621);
#426=VERTEX_POINT('',#622);
#427=VERTEX_POINT('',#623);
#428=VERTEX_POINT('',#624);
#429=VERTEX_POINT('',#625);
#430=VERTEX_POINT('',#626);
#431=VERTEX_POINT('',#627);
#432=VERTEX_POINT('',#628);
#433=VERTEX_POINT('',#629);
#434=VERTEX_POINT('',#630);
#435=VERTEX_POINT('',#631);
#436=VERTEX_POINT('',#632);
#437=VERTEX_POINT('',#633);
#438=VERTEX_POINT('',#634);
#439=VERTEX_POINT('',#635);
#440=VERTEX_POINT('',#636);
#441=VERTEX_POINT('',#637);
#442=VERTEX_POINT('',#638);
#443=SHAPE_DEFINITION_REPRESENTATION(#717,#444);
#444=SHAPE_REPRESENTATION('master',(#445),#719);
#445=AXIS2_PLACEMENT_3D('',#600,#484,#483);
#446=AXIS2_PLACEMENT_3D('',#659,#506,#505);
#447=AXIS2_PLACEMENT_3D('',#660,#508,#507);
#448=AXIS2_PLACEMENT_3D('',#661,#510,#509);
#449=AXIS2_PLACEMENT_3D('',#671,#521,#520);
#450=AXIS2_PLACEMENT_3D('',#673,#524,#523);
#451=AXIS2_PLACEMENT_3D('',#674,#526,#525);
#452=AXIS2_PLACEMENT_3D('',#675,#528,#527);
#453=AXIS2_PLACEMENT_3D('',#676,#530,#529);
#454=AXIS2_PLACEMENT_3D('',#678,#533,#532);
#455=AXIS2_PLACEMENT_3D('',#679,#535,#534);
#456=AXIS2_PLACEMENT_3D('',#680,#537,#536);
#457=AXIS2_PLACEMENT_3D('',#690,#548,#547);
#458=AXIS2_PLACEMENT_3D('',#692,#551,#550);
#459=AXIS2_PLACEMENT_3D('',#693,#553,#552);
#460=AXIS2_PLACEMENT_3D('',#694,#555,#554);
#461=AXIS2_PLACEMENT_3D('',#695,#557,#556);
#462=AXIS2_PLACEMENT_3D('',#696,#559,#558);
#463=AXIS2_PLACEMENT_3D('',#697,#561,#560);
#464=AXIS2_PLACEMENT_3D('',#698,#563,#562);
#465=AXIS2_PLACEMENT_3D('',#699,#565,#564);
#466=AXIS2_PLACEMENT_3D('',#700,#567,#566);
#467=AXIS2_PLACEMENT_3D('',#701,#569,#568);
#468=AXIS2_PLACEMENT_3D('',#702,#571,#570);
#469=AXIS2_PLACEMENT_3D('',#703,#573,#572);
#470=AXIS2_PLACEMENT_3D('',#704,#575,#574);
#471=AXIS2_PLACEMENT_3D('',#705,#577,#576);
#472=AXIS2_PLACEMENT_3D('',#706,#579,#578);
#473=AXIS2_PLACEMENT_3D('',#707,#581,#580);
#474=AXIS2_PLACEMENT_3D('',#708,#583,#582);
#475=AXIS2_PLACEMENT_3D('',#709,#585,#584);
#476=AXIS2_PLACEMENT_3D('',#710,#587,#586);
#477=AXIS2_PLACEMENT_3D('',#711,#589,#588);
#478=AXIS2_PLACEMENT_3D('',#712,#591,#590);
#479=AXIS2_PLACEMENT_3D('',#713,#593,#592);
#480=AXIS2_PLACEMENT_3D('',#714,#595,#594);
#481=AXIS2_PLACEMENT_3D('',#715,#597,#596);
#482=AXIS2_PLACEMENT_3D('',#716,#599,#598);
#483=DIRECTION('',(1.,0.,0.));
#484=DIRECTION('',(0.,0.,1.));
#485=DIRECTION('',(-0.,-1.,-0.));
#486=DIRECTION('',(-0.,-1.,-0.));
#487=DIRECTION('',(-0.,-1.,-0.));
#488=DIRECTION('',(-0.,-1.,-0.));
#489=DIRECTION('',(-0.,-1.,-0.));
#490=DIRECTION('',(-0.,-1.,-0.));
#491=DIRECTION('',(-0.,-1.,-0.));
#492=DIRECTION('',(-0.,-1.,-0.));
#493=DIRECTION('',(-0.,-1.,-0.));
#494=DIRECTION('',(-0.,-1.,-0.));
#495=DIRECTION('',(-0.,-1.,-0.));
#496=DIRECTION('',(-0.,-1.,-0.));
#497=DIRECTION('',(-0.,-1.,-0.));
#498=DIRECTION('',(-0.,-1.,-0.));
#499=DIRECTION('',(-0.,-1.,-0.));
#500=DIRECTION('',(-0.,-1.,-0.));
#501=DIRECTION('',(-0.,-1.,-0.));
#502=DIRECTION('',(-0.,-1.,-0.));
#503=DIRECTION('',(-0.,-1.,-0.));
#504=DIRECTION('',(-1.,0.,0.));
#505=DIRECTION('',(0.786741986135958,0.,0.617281983578695));
#506=DIRECTION('',(0.,-1.,0.));
#507=DIRECTION('',(0.251157645793212,0.,-0.967946195281335));
#508=DIRECTION('',(0.,1.,0.));
#509=DIRECTION('',(0.932048280652952,0.,-0.362334103462365));
#510=DIRECTION('',(0.,1.,0.));
#511=DIRECTION('',(-1.,-0.,-0.));
#512=DIRECTION('',(0.00610283610424151,0.,-0.999981377522344));
#513=DIRECTION('',(1.,-0.,-0.));
#514=DIRECTION('',(1.,-0.,-0.));
#515=DIRECTION('',(0.83785196419641,-0.,0.545897505116316));
#516=DIRECTION('',(0.416425598925992,-0.,0.909169797430122));
#517=DIRECTION('',(0.837610589933787,0.,0.546267791134324));
#518=DIRECTION('',(-0.,-0.,1.));
#519=DIRECTION('',(-0.987155929279998,0.,-0.159759729867525));
#520=DIRECTION('',(-0.417673232392955,0.,0.908597309561514));
#521=DIRECTION('',(0.,-1.,0.));
#522=DIRECTION('',(-0.001545566646188,0.,-0.999998805611158));
#523=DIRECTION('',(0.847369973297747,-0.,0.531002945710639));
#524=DIRECTION('',(0.,1.,0.));
#525=DIRECTION('',(-0.894994546498454,0.,0.446077080489489));
#526=DIRECTION('',(-0.,-1.,0.));
#527=DIRECTION('',(-0.289013291332756,0.,0.957325084510485));
#528=DIRECTION('',(0.,-1.,0.));
#529=DIRECTION('',(-3.78323024242577E-016,0.,1.));
#530=DIRECTION('',(0.,-1.,0.));
#531=DIRECTION('',(-1.,0.,0.));
#532=DIRECTION('',(0.786741986135958,0.,0.617281983578695));
#533=DIRECTION('',(0.,-1.,0.));
#534=DIRECTION('',(0.251157645793212,0.,-0.967946195281335));
#535=DIRECTION('',(0.,1.,0.));
#536=DIRECTION('',(0.932048280652952,0.,-0.362334103462365));
#537=DIRECTION('',(0.,1.,0.));
#538=DIRECTION('',(-1.,-0.,-0.));
#539=DIRECTION('',(0.00610283610424151,0.,-0.999981377522344));
#540=DIRECTION('',(1.,-0.,-0.));
#541=DIRECTION('',(1.,-0.,-0.));
#542=DIRECTION('',(0.83785196419641,-0.,0.545897505116316));
#543=DIRECTION('',(0.416425598925992,-0.,0.909169797430122));
#544=DIRECTION('',(0.837610589933787,0.,0.546267791134324));
#545=DIRECTION('',(-0.,-0.,1.));
#546=DIRECTION('',(-0.987155929279998,0.,-0.159759729867525));
#547=DIRECTION('',(-0.417673232392955,0.,0.908597309561514));
#548=DIRECTION('',(0.,-1.,0.));
#549=DIRECTION('',(-0.001545566646188,0.,-0.999998805611158));
#550=DIRECTION('',(0.847369973297747,-0.,0.531002945710639));
#551=DIRECTION('',(0.,1.,0.));
#552=DIRECTION('',(-0.894994546498454,0.,0.446077080489489));
#553=DIRECTION('',(-0.,-1.,0.));
#554=DIRECTION('',(-0.289013291332756,0.,0.957325084510485));
#555=DIRECTION('',(0.,-1.,0.));
#556=DIRECTION('',(-3.78323024242577E-016,0.,1.));
#557=DIRECTION('',(0.,-1.,0.));
#558=DIRECTION('',(0.,0.,-1.));
#559=DIRECTION('',(-0.,-1.,-0.));
#560=DIRECTION('',(0.,0.,-1.));
#561=DIRECTION('',(-0.,-1.,-0.));
#562=DIRECTION('',(0.,0.,-1.));
#563=DIRECTION('',(-0.,-1.,-0.));
#564=DIRECTION('',(0.,0.,-1.));
#565=DIRECTION('',(-0.,-1.,-0.));
#566=DIRECTION('',(0.001545566646188,0.,0.999998805611158));
#567=DIRECTION('',(-0.999998805611158,0.,0.001545566646188));
#568=DIRECTION('',(0.,0.,-1.));
#569=DIRECTION('',(-0.,-1.,-0.));
#570=DIRECTION('',(0.987155929279998,0.,0.159759729867525));
#571=DIRECTION('',(-0.159759729867525,0.,0.987155929279998));
#572=DIRECTION('',(0.,0.,-1.));
#573=DIRECTION('',(1.,-0.,0.));
#574=DIRECTION('',(-0.837610589933787,0.,-0.546267791134324));
#575=DIRECTION('',(0.546267791134324,0.,-0.837610589933787));
#576=DIRECTION('',(-0.416425598925992,0.,-0.909169797430122));
#577=DIRECTION('',(0.909169797430122,0.,-0.416425598925992));
#578=DIRECTION('',(-0.83785196419641,0.,-0.545897505116316));
#579=DIRECTION('',(0.545897505116316,0.,-0.83785196419641));
#580=DIRECTION('',(-1.,0.,0.));
#581=DIRECTION('',(0.,0.,-1.));
#582=DIRECTION('',(-1.,0.,0.));
#583=DIRECTION('',(0.,0.,-1.));
#584=DIRECTION('',(-0.00610283610424151,0.,0.999981377522344));
#585=DIRECTION('',(-0.999981377522344,0.,-0.00610283610424151));
#586=DIRECTION('',(1.,0.,-0.));
#587=DIRECTION('',(0.,0.,1.));
#588=DIRECTION('',(0.,0.,-1.));
#589=DIRECTION('',(-0.,-1.,-0.));
#590=DIRECTION('',(0.,0.,-1.));
#591=DIRECTION('',(-0.,-1.,-0.));
#592=DIRECTION('',(0.,0.,-1.));
#593=DIRECTION('',(-0.,-1.,-0.));
#594=DIRECTION('',(1.,0.,-0.));
#595=DIRECTION('',(0.,-0.,1.));
#596=DIRECTION('',(0.,0.,-1.));
#597=DIRECTION('',(0.,-1.,0.));
#598=DIRECTION('',(0.,0.,-1.));
#599=DIRECTION('',(0.,-1.,0.));
#600=CARTESIAN_POINT('',(0.,0.,0.));
#601=CARTESIAN_POINT('',(161.805225235457,1918.281361,2244.047556));
#602=CARTESIAN_POINT('',(169.859212,1918.281361,2244.047556));
#603=CARTESIAN_POINT('',(172.524892683051,1918.281361,2242.85217562561));
#604=CARTESIAN_POINT('',(177.617627443463,1918.281361,2241.13154699714));
#605=CARTESIAN_POINT('',(182.043661,1918.281361,2245.068243));
#606=CARTESIAN_POINT('',(184.043661,1918.281361,2245.068243));
#607=CARTESIAN_POINT('',(184.016614209697,1918.281361,2249.5));
#608=CARTESIAN_POINT('',(155.801096,1918.281361,2249.5));
#609=CARTESIAN_POINT('',(133.969287230587,1918.281361,2249.5));
#610=CARTESIAN_POINT('',(117.067515,1918.281361,2238.48775));
#611=CARTESIAN_POINT('',(110.728623,1918.281361,2224.648233));
#612=CARTESIAN_POINT('',(103.080454,1918.281361,2219.66029655786));
#613=CARTESIAN_POINT('',(103.080454,1918.281361,2202.60860162531));
#614=CARTESIAN_POINT('',(110.933835440379,1918.281361,2203.87958026226));
#615=CARTESIAN_POINT('',(114.087911,1918.281361,2208.508388));
#616=CARTESIAN_POINT('',(114.088844563283,1918.281361,2209.11241382489));
#617=CARTESIAN_POINT('',(118.126949244222,1918.281361,2218.50849186418));
#618=CARTESIAN_POINT('',(117.948997831279,1918.281361,2222.15939641901));
#619=CARTESIAN_POINT('',(140.092954870127,1918.281361,2240.8415812898));
#620=CARTESIAN_POINT('',(161.805225235457,168.281361,2244.047556));
#621=CARTESIAN_POINT('',(169.859212,168.281361,2244.047556));
#622=CARTESIAN_POINT('',(172.524892683051,168.281361,2242.85217562561));
#623=CARTESIAN_POINT('',(177.617627443463,168.281361,2241.13154699714));
#624=CARTESIAN_POINT('',(182.043661,168.281361,2245.068243));
#625=CARTESIAN_POINT('',(184.043661,168.281361,2245.068243));
#626=CARTESIAN_POINT('',(184.016614209697,168.281361,2249.5));
#627=CARTESIAN_POINT('',(155.801096,168.281361,2249.5));
#628=CARTESIAN_POINT('',(133.969287230587,168.281361,2249.5));
#629=CARTESIAN_POINT('',(117.067515,168.281361,2238.48775));
#630=CARTESIAN_POINT('',(110.728623,168.281361,2224.648233));
#631=CARTESIAN_POINT('',(103.080454,168.281361,2219.66029655786));
#632=CARTESIAN_POINT('',(103.080454,168.281361,2202.60860162531));
#633=CARTESIAN_POINT('',(110.933835440379,168.281361,2203.87958026226));
#634=CARTESIAN_POINT('',(114.087911,168.281361,2208.508388));
#635=CARTESIAN_POINT('',(114.088844563283,168.281361,2209.11241382489));
#636=CARTESIAN_POINT('',(118.126949244222,168.281361,2218.50849186418));
#637=CARTESIAN_POINT('',(117.948997831279,168.281361,2222.15939641901));
#638=CARTESIAN_POINT('',(140.092954870127,168.281361,2240.8415812898));
#639=CARTESIAN_POINT('',(140.092954870127,1918.281361,2240.8415812898));
#640=CARTESIAN_POINT('',(117.948997831279,1918.281361,2222.15939641901));
#641=CARTESIAN_POINT('',(118.126949244222,1918.281361,2218.50849186418));
#642=CARTESIAN_POINT('',(114.088844563283,1918.281361,2209.11241382489));
#643=CARTESIAN_POINT('',(114.087911,1918.281361,2208.508388));
#644=CARTESIAN_POINT('',(110.933835440379,1918.281361,2203.87958026226));
#645=CARTESIAN_POINT('',(103.080454,1918.281361,2202.60860162531));
#646=CARTESIAN_POINT('',(103.080454,1918.281361,2219.66029655786));
#647=CARTESIAN_POINT('',(110.728623,1918.281361,2224.648233));
#648=CARTESIAN_POINT('',(117.067515,1918.281361,2238.48775));
#649=CARTESIAN_POINT('',(133.969287230587,1918.281361,2249.5));
#650=CARTESIAN_POINT('',(155.801096,1918.281361,2249.5));
#651=CARTESIAN_POINT('',(184.016614209697,1918.281361,2249.5));
#652=CARTESIAN_POINT('',(184.043661,1918.281361,2245.068243));
#653=CARTESIAN_POINT('',(182.043661,1918.281361,2245.068243));
#654=CARTESIAN_POINT('',(177.617627443463,1918.281361,2241.13154699714));
#655=CARTESIAN_POINT('',(172.524892683051,1918.281361,2242.85217562561));
#656=CARTESIAN_POINT('',(169.859212,1918.281361,2244.047556));
#657=CARTESIAN_POINT('',(161.805225235457,1918.281361,2244.047556));
#658=CARTESIAN_POINT('',(169.859212,1918.281361,2244.047556));
#659=CARTESIAN_POINT('',(170.055019917039,1918.281361,2240.91430020132));
#660=CARTESIAN_POINT('',(176.385254645819,1918.281361,2245.88103633433));
#661=CARTESIAN_POINT('',(175.985012583823,1918.281361,2247.42354474524));
#662=CARTESIAN_POINT('',(184.043661,1918.281361,2245.068243));
#663=CARTESIAN_POINT('',(184.016614209697,1918.281361,2249.5));
#664=CARTESIAN_POINT('',(155.801096,1918.281361,2249.5));
#665=CARTESIAN_POINT('',(133.969287230587,1918.281361,2249.5));
#666=CARTESIAN_POINT('',(117.067515,1918.281361,2238.48775));
#667=CARTESIAN_POINT('',(110.728623,1918.281361,2224.648233));
#668=CARTESIAN_POINT('',(103.080454,1918.281361,2219.66029655786));
#669=CARTESIAN_POINT('',(103.080454,1918.281361,2202.60860162531));
#670=CARTESIAN_POINT('',(110.933835440379,1918.281361,2203.87958026226));
#671=CARTESIAN_POINT('',(116.35635241088,1918.281361,2203.57366965328));
#672=CARTESIAN_POINT('',(114.088844563283,1918.281361,2209.11241382489));
#673=CARTESIAN_POINT('',(112.858407688196,1918.281361,2215.20696930141));
#674=CARTESIAN_POINT('',(121.293186207607,1918.281361,2220.49260884655));
#675=CARTESIAN_POINT('',(150.65416918554,1918.281361,2205.85870787102));
#676=CARTESIAN_POINT('',(161.805225235458,1918.281361,2168.92204787819));
#677=CARTESIAN_POINT('',(169.859212,168.281361,2244.047556));
#678=CARTESIAN_POINT('',(170.055019917039,168.281361,2240.91430020132));
#679=CARTESIAN_POINT('',(176.385254645819,168.281361,2245.88103633433));
#680=CARTESIAN_POINT('',(175.985012583823,168.281361,2247.42354474524));
#681=CARTESIAN_POINT('',(184.043661,168.281361,2245.068243));
#682=CARTESIAN_POINT('',(184.016614209697,168.281361,2249.5));
#683=CARTESIAN_POINT('',(155.801096,168.281361,2249.5));
#684=CARTESIAN_POINT('',(133.969287230587,168.281361,2249.5));
#685=CARTESIAN_POINT('',(117.067515,168.281361,2238.48775));
#686=CARTESIAN_POINT('',(110.728623,168.281361,2224.648233));
#687=CARTESIAN_POINT('',(103.080454,168.281361,2219.66029655786));
#688=CARTESIAN_POINT('',(103.080454,168.281361,2202.60860162531));
#689=CARTESIAN_POINT('',(110.933835440379,168.281361,2203.87958026226));
#690=CARTESIAN_POINT('',(116.35635241088,168.281361,2203.57366965328));
#691=CARTESIAN_POINT('',(114.088844563283,168.281361,2209.11241382489));
#692=CARTESIAN_POINT('',(112.858407688196,168.281361,2215.20696930141));
#693=CARTESIAN_POINT('',(121.293186207607,168.281361,2220.49260884655));
#694=CARTESIAN_POINT('',(150.65416918554,168.281361,2205.85870787102));
#695=CARTESIAN_POINT('',(161.805225235458,168.281361,2168.92204787819));
#696=CARTESIAN_POINT('',(161.805225235458,1918.281361,2168.92204787819));
#697=CARTESIAN_POINT('',(150.65416918554,1918.281361,2205.85870787102));
#698=CARTESIAN_POINT('',(121.293186207607,1918.281361,2220.49260884655));
#699=CARTESIAN_POINT('',(112.858407688196,1918.281361,2215.20696930141));
#700=CARTESIAN_POINT('',(114.088844563283,1918.281361,2209.11241382489));
#701=CARTESIAN_POINT('',(116.35635241088,1918.281361,2203.57366965328));
#702=CARTESIAN_POINT('',(110.933835440379,1918.281361,2203.87958026226));
#703=CARTESIAN_POINT('',(103.080454,1918.281361,2202.60860162531));
#704=CARTESIAN_POINT('',(103.080454,1918.281361,2219.66029655786));
#705=CARTESIAN_POINT('',(110.728623,1918.281361,2224.648233));
#706=CARTESIAN_POINT('',(117.067515,1918.281361,2238.48775));
#707=CARTESIAN_POINT('',(133.969287230587,1918.281361,2249.5));
#708=CARTESIAN_POINT('',(155.801096,1918.281361,2249.5));
#709=CARTESIAN_POINT('',(184.016614209697,1918.281361,2249.5));
#710=CARTESIAN_POINT('',(184.043661,1918.281361,2245.068243));
#711=CARTESIAN_POINT('',(175.985012583823,1918.281361,2247.42354474524));
#712=CARTESIAN_POINT('',(176.385254645819,1918.281361,2245.88103633433));
#713=CARTESIAN_POINT('',(170.055019917039,1918.281361,2240.91430020132));
#714=CARTESIAN_POINT('',(169.859212,1918.281361,2244.047556));
#715=CARTESIAN_POINT('',(161.805225235458,1918.281361,2168.92204787819));
#716=CARTESIAN_POINT('',(161.805225235458,168.281361,2168.92204787819));
#717=PRODUCT_DEFINITION_SHAPE('','',#718);
#718=PRODUCT_DEFINITION('','',#730,#735);
#719=(
GEOMETRIC_REPRESENTATION_CONTEXT(3)
GLOBAL_UNCERTAINTY_ASSIGNED_CONTEXT((#720))
GLOBAL_UNIT_ASSIGNED_CONTEXT((#722,#721,#725))
REPRESENTATION_CONTEXT('','')
);
#720=UNCERTAINTY_MEASURE_WITH_UNIT(LENGTH_MEASURE(0.001),#722,'','tolerance');
#721=(
CONVERSION_BASED_UNIT('',#723)
NAMED_UNIT(#729)
PLANE_ANGLE_UNIT()
);
#722=(
CONVERSION_BASED_UNIT('',#724)
LENGTH_UNIT()
NAMED_UNIT(#728)
);
#723=PLANE_ANGLE_MEASURE_WITH_UNIT(PLANE_ANGLE_MEASURE(0.0174532925199433),
#726);
#724=LENGTH_MEASURE_WITH_UNIT(LENGTH_MEASURE(1.),#727);
#725=(
NAMED_UNIT(*)
SI_UNIT($,.STERADIAN.)
SOLID_ANGLE_UNIT()
);
#726=(
NAMED_UNIT(*)
PLANE_ANGLE_UNIT()
SI_UNIT($,.RADIAN.)
);
#727=(
LENGTH_UNIT()
NAMED_UNIT(*)
SI_UNIT(.MILLI.,.METRE.)
);
#728=DIMENSIONAL_EXPONENTS(1.,0.,0.,0.,0.,0.,0.);
#729=DIMENSIONAL_EXPONENTS(0.,0.,0.,0.,0.,0.,0.);
#730=PRODUCT_DEFINITION_FORMATION_WITH_SPECIFIED_SOURCE('','',#733,.NOT_KNOWN.
);
#731=PRODUCT_CATEGORY_RELATIONSHIP('','',#736,#732);
#732=PRODUCT_RELATED_PRODUCT_CATEGORY('assembly','',(#733));
#733=PRODUCT('','master','',(#734));
#734=PRODUCT_CONTEXT('',#738,'');
#735=PRODUCT_DEFINITION_CONTEXT('',#738,'part_definition');
#736=PRODUCT_CATEGORY('part','');
#737=APPLICATION_PROTOCOL_DEFINITION('international standard',
'automotive_design_cc2',1994,#738);
#738=APPLICATION_CONTEXT(
'configuration controlled 3D designs of mechanical parts and assemblies');
ENDSEC;
END-ISO-10303-21;
32647