ISO-10303-21;
HEADER;
/* Generated by software using Delcam plc STEP library */

FILE_DESCRIPTION(
/* description */ ('AP-214 File'),
/* implementation_level */ '2;1');

FILE_NAME(
/* name */ 'D624',
/* time_stamp */ 'Tue Dec 27 08:17:15 2016',
/* author */ (''),
/* organization */ (''),
/* preprocessor_version */ 'DELCAM STEP V1',
/* originating_system */ 'Exchange7.1.0006',
/* authorisation */ '');

FILE_SCHEMA (('AUTOMOTIVE_DESIGN'));
ENDSEC;
DATA;
#10=PRESENTATION_STYLE_ASSIGNMENT((#20));
#11=PRESENTATION_STYLE_ASSIGNMENT((#21));
#12=SURFACE_SIDE_STYLE('',(#14));
#13=SURFACE_SIDE_STYLE('',(#15));
#14=SURFACE_STYLE_FILL_AREA(#16);
#15=SURFACE_STYLE_FILL_AREA(#17);
#16=FILL_AREA_STYLE('',(#18));
#17=FILL_AREA_STYLE('',(#19));
#18=FILL_AREA_STYLE_COLOUR('',#44);
#19=FILL_AREA_STYLE_COLOUR('',#45);
#20=SURFACE_STYLE_USAGE(.BOTH.,#12);
#21=SURFACE_STYLE_USAGE(.BOTH.,#13);
#22=STYLED_ITEM('',(#10),#66);
#23=STYLED_ITEM('',(#10),#67);
#24=STYLED_ITEM('',(#10),#68);
#25=STYLED_ITEM('',(#10),#69);
#26=STYLED_ITEM('',(#10),#70);
#27=STYLED_ITEM('',(#10),#71);
#28=STYLED_ITEM('',(#10),#72);
#29=STYLED_ITEM('',(#10),#73);
#30=STYLED_ITEM('',(#10),#74);
#31=STYLED_ITEM('',(#10),#75);
#32=STYLED_ITEM('',(#10),#76);
#33=STYLED_ITEM('',(#10),#77);
#34=STYLED_ITEM('',(#10),#78);
#35=STYLED_ITEM('',(#10),#79);
#36=STYLED_ITEM('',(#10),#80);
#37=STYLED_ITEM('',(#10),#81);
#38=STYLED_ITEM('',(#10),#82);
#39=STYLED_ITEM('',(#10),#83);
#40=STYLED_ITEM('',(#10),#84);
#41=STYLED_ITEM('',(#10),#85);
#42=STYLED_ITEM('',(#10),#86);
#43=STYLED_ITEM('',(#11),#51);
#44=COLOUR_RGB('',0.,0.,0.);
#45=COLOUR_RGB('rgb_colour_1',0.4,0.4,0.4);
#46=MECHANICAL_DESIGN_GEOMETRIC_PRESENTATION_REPRESENTATION('',(#22,#23,#24,
#25,#26,#27,#28,#29,#30,#31,#32,#33,#34,#35,#36,#37,#38,#39,#40,#41,#42,#43),
#720);
#47=PRESENTATION_LAYER_ASSIGNMENT('118','D624',(#66,#67,#68,#69,#70,#71,#72,
#73,#74,#75,#76,#77,#78,#79,#80,#81,#82,#83,#84,#85,#86,#51));
#48=SHAPE_REPRESENTATION_RELATIONSHIP('','',#443,#49);
#49=ADVANCED_BREP_SHAPE_REPRESENTATION('',(#50),#720);
#50=MANIFOLD_SOLID_BREP('7550',#51);
#51=CLOSED_SHELL('',(#66,#67,#68,#69,#70,#71,#72,#73,#74,#75,#76,#77,#78,#79,
#80,#81,#82,#83,#84,#85,#86));
#52=PLANE('',#464);
#53=PLANE('',#465);
#54=PLANE('',#467);
#55=PLANE('',#468);
#56=PLANE('',#469);
#57=PLANE('',#470);
#58=PLANE('',#471);
#59=PLANE('',#472);
#60=PLANE('',#473);
#61=PLANE('',#474);
#62=PLANE('',#475);
#63=PLANE('',#477);
#64=PLANE('',#478);
#65=PLANE('',#479);
#66=ADVANCED_FACE('',(#87),#243,.T.);
#67=ADVANCED_FACE('',(#88),#244,.F.);
#68=ADVANCED_FACE('',(#89),#245,.F.);
#69=ADVANCED_FACE('',(#90),#246,.F.);
#70=ADVANCED_FACE('',(#91),#247,.F.);
#71=ADVANCED_FACE('',(#92),#52,.T.);
#72=ADVANCED_FACE('',(#93),#53,.T.);
#73=ADVANCED_FACE('',(#94),#248,.T.);
#74=ADVANCED_FACE('',(#95),#54,.T.);
#75=ADVANCED_FACE('',(#96),#55,.T.);
#76=ADVANCED_FACE('',(#97),#56,.T.);
#77=ADVANCED_FACE('',(#98),#57,.T.);
#78=ADVANCED_FACE('',(#99),#58,.T.);
#79=ADVANCED_FACE('',(#100),#59,.T.);
#80=ADVANCED_FACE('',(#101),#60,.T.);
#81=ADVANCED_FACE('',(#102),#61,.T.);
#82=ADVANCED_FACE('',(#103),#62,.T.);
#83=ADVANCED_FACE('',(#104),#249,.F.);
#84=ADVANCED_FACE('',(#105),#63,.T.);
#85=ADVANCED_FACE('',(#106),#64,.F.);
#86=ADVANCED_FACE('',(#107),#65,.T.);
#87=FACE_OUTER_BOUND('',#108,.T.);
#88=FACE_OUTER_BOUND('',#109,.T.);
#89=FACE_OUTER_BOUND('',#110,.T.);
#90=FACE_OUTER_BOUND('',#111,.T.);
#91=FACE_OUTER_BOUND('',#112,.T.);
#92=FACE_OUTER_BOUND('',#113,.T.);
#93=FACE_OUTER_BOUND('',#114,.T.);
#94=FACE_OUTER_BOUND('',#115,.T.);
#95=FACE_OUTER_BOUND('',#116,.T.);
#96=FACE_OUTER_BOUND('',#117,.T.);
#97=FACE_OUTER_BOUND('',#118,.T.);
#98=FACE_OUTER_BOUND('',#119,.T.);
#99=FACE_OUTER_BOUND('',#120,.T.);
#100=FACE_OUTER_BOUND('',#121,.T.);
#101=FACE_OUTER_BOUND('',#122,.T.);
#102=FACE_OUTER_BOUND('',#123,.T.);
#103=FACE_OUTER_BOUND('',#124,.T.);
#104=FACE_OUTER_BOUND('',#125,.T.);
#105=FACE_OUTER_BOUND('',#126,.T.);
#106=FACE_OUTER_BOUND('',#127,.T.);
#107=FACE_OUTER_BOUND('',#128,.T.);
#108=EDGE_LOOP('',(#129,#130,#131,#132));
#109=EDGE_LOOP('',(#133,#134,#135,#136));
#110=EDGE_LOOP('',(#137,#138,#139,#140));
#111=EDGE_LOOP('',(#141,#142,#143,#144));
#112=EDGE_LOOP('',(#145,#146,#147,#148));
#113=EDGE_LOOP('',(#149,#150,#151,#152));
#114=EDGE_LOOP('',(#153,#154,#155,#156));
#115=EDGE_LOOP('',(#157,#158,#159,#160));
#116=EDGE_LOOP('',(#161,#162,#163,#164));
#117=EDGE_LOOP('',(#165,#166,#167,#168));
#118=EDGE_LOOP('',(#169,#170,#171,#172));
#119=EDGE_LOOP('',(#173,#174,#175,#176));
#120=EDGE_LOOP('',(#177,#178,#179,#180));
#121=EDGE_LOOP('',(#181,#182,#183,#184));
#122=EDGE_LOOP('',(#185,#186,#187,#188));
#123=EDGE_LOOP('',(#189,#190,#191,#192));
#124=EDGE_LOOP('',(#193,#194,#195,#196));
#125=EDGE_LOOP('',(#197,#198,#199,#200));
#126=EDGE_LOOP('',(#201,#202,#203,#204));
#127=EDGE_LOOP('',(#205,#206,#207,#208,#209,#210,#211,#212,#213,#214,#215,#216
,#217,#218,#219,#220,#221,#222,#223));
#128=EDGE_LOOP('',(#224,#225,#226,#227,#228,#229,#230,#231,#232,#233,#234,#235
,#236,#237,#238,#239,#240,#241,#242));
#129=ORIENTED_EDGE('',*,*,#400,.F.);
#130=ORIENTED_EDGE('',*,*,#362,.F.);
#131=ORIENTED_EDGE('',*,*,#381,.T.);
#132=ORIENTED_EDGE('',*,*,#344,.T.);
#133=ORIENTED_EDGE('',*,*,#399,.F.);
#134=ORIENTED_EDGE('',*,*,#344,.F.);
#135=ORIENTED_EDGE('',*,*,#380,.T.);
#136=ORIENTED_EDGE('',*,*,#345,.T.);
#137=ORIENTED_EDGE('',*,*,#398,.F.);
#138=ORIENTED_EDGE('',*,*,#345,.F.);
#139=ORIENTED_EDGE('',*,*,#379,.T.);
#140=ORIENTED_EDGE('',*,*,#346,.T.);
#141=ORIENTED_EDGE('',*,*,#397,.F.);
#142=ORIENTED_EDGE('',*,*,#346,.F.);
#143=ORIENTED_EDGE('',*,*,#378,.T.);
#144=ORIENTED_EDGE('',*,*,#347,.T.);
#145=ORIENTED_EDGE('',*,*,#396,.F.);
#146=ORIENTED_EDGE('',*,*,#347,.F.);
#147=ORIENTED_EDGE('',*,*,#377,.T.);
#148=ORIENTED_EDGE('',*,*,#348,.T.);
#149=ORIENTED_EDGE('',*,*,#395,.F.);
#150=ORIENTED_EDGE('',*,*,#348,.F.);
#151=ORIENTED_EDGE('',*,*,#376,.T.);
#152=ORIENTED_EDGE('',*,*,#349,.T.);
#153=ORIENTED_EDGE('',*,*,#394,.F.);
#154=ORIENTED_EDGE('',*,*,#349,.F.);
#155=ORIENTED_EDGE('',*,*,#375,.T.);
#156=ORIENTED_EDGE('',*,*,#350,.T.);
#157=ORIENTED_EDGE('',*,*,#393,.F.);
#158=ORIENTED_EDGE('',*,*,#350,.F.);
#159=ORIENTED_EDGE('',*,*,#374,.T.);
#160=ORIENTED_EDGE('',*,*,#351,.T.);
#161=ORIENTED_EDGE('',*,*,#392,.F.);
#162=ORIENTED_EDGE('',*,*,#351,.F.);
#163=ORIENTED_EDGE('',*,*,#373,.T.);
#164=ORIENTED_EDGE('',*,*,#352,.T.);
#165=ORIENTED_EDGE('',*,*,#391,.F.);
#166=ORIENTED_EDGE('',*,*,#352,.F.);
#167=ORIENTED_EDGE('',*,*,#372,.T.);
#168=ORIENTED_EDGE('',*,*,#353,.T.);
#169=ORIENTED_EDGE('',*,*,#390,.F.);
#170=ORIENTED_EDGE('',*,*,#353,.F.);
#171=ORIENTED_EDGE('',*,*,#371,.T.);
#172=ORIENTED_EDGE('',*,*,#354,.T.);
#173=ORIENTED_EDGE('',*,*,#389,.F.);
#174=ORIENTED_EDGE('',*,*,#354,.F.);
#175=ORIENTED_EDGE('',*,*,#370,.T.);
#176=ORIENTED_EDGE('',*,*,#355,.T.);
#177=ORIENTED_EDGE('',*,*,#388,.F.);
#178=ORIENTED_EDGE('',*,*,#355,.F.);
#179=ORIENTED_EDGE('',*,*,#369,.T.);
#180=ORIENTED_EDGE('',*,*,#356,.T.);
#181=ORIENTED_EDGE('',*,*,#387,.F.);
#182=ORIENTED_EDGE('',*,*,#356,.F.);
#183=ORIENTED_EDGE('',*,*,#368,.T.);
#184=ORIENTED_EDGE('',*,*,#357,.T.);
#185=ORIENTED_EDGE('',*,*,#386,.F.);
#186=ORIENTED_EDGE('',*,*,#357,.F.);
#187=ORIENTED_EDGE('',*,*,#367,.T.);
#188=ORIENTED_EDGE('',*,*,#358,.T.);
#189=ORIENTED_EDGE('',*,*,#385,.F.);
#190=ORIENTED_EDGE('',*,*,#358,.F.);
#191=ORIENTED_EDGE('',*,*,#366,.T.);
#192=ORIENTED_EDGE('',*,*,#359,.T.);
#193=ORIENTED_EDGE('',*,*,#384,.F.);
#194=ORIENTED_EDGE('',*,*,#359,.F.);
#195=ORIENTED_EDGE('',*,*,#365,.T.);
#196=ORIENTED_EDGE('',*,*,#360,.T.);
#197=ORIENTED_EDGE('',*,*,#383,.F.);
#198=ORIENTED_EDGE('',*,*,#360,.F.);
#199=ORIENTED_EDGE('',*,*,#364,.T.);
#200=ORIENTED_EDGE('',*,*,#361,.T.);
#201=ORIENTED_EDGE('',*,*,#382,.F.);
#202=ORIENTED_EDGE('',*,*,#361,.F.);
#203=ORIENTED_EDGE('',*,*,#363,.T.);
#204=ORIENTED_EDGE('',*,*,#362,.T.);
#205=ORIENTED_EDGE('',*,*,#381,.F.);
#206=ORIENTED_EDGE('',*,*,#363,.F.);
#207=ORIENTED_EDGE('',*,*,#364,.F.);
#208=ORIENTED_EDGE('',*,*,#365,.F.);
#209=ORIENTED_EDGE('',*,*,#366,.F.);
#210=ORIENTED_EDGE('',*,*,#367,.F.);
#211=ORIENTED_EDGE('',*,*,#368,.F.);
#212=ORIENTED_EDGE('',*,*,#369,.F.);
#213=ORIENTED_EDGE('',*,*,#370,.F.);
#214=ORIENTED_EDGE('',*,*,#371,.F.);
#215=ORIENTED_EDGE('',*,*,#372,.F.);
#216=ORIENTED_EDGE('',*,*,#373,.F.);
#217=ORIENTED_EDGE('',*,*,#374,.F.);
#218=ORIENTED_EDGE('',*,*,#375,.F.);
#219=ORIENTED_EDGE('',*,*,#376,.F.);
#220=ORIENTED_EDGE('',*,*,#377,.F.);
#221=ORIENTED_EDGE('',*,*,#378,.F.);
#222=ORIENTED_EDGE('',*,*,#379,.F.);
#223=ORIENTED_EDGE('',*,*,#380,.F.);
#224=ORIENTED_EDGE('',*,*,#400,.T.);
#225=ORIENTED_EDGE('',*,*,#399,.T.);
#226=ORIENTED_EDGE('',*,*,#398,.T.);
#227=ORIENTED_EDGE('',*,*,#397,.T.);
#228=ORIENTED_EDGE('',*,*,#396,.T.);
#229=ORIENTED_EDGE('',*,*,#395,.T.);
#230=ORIENTED_EDGE('',*,*,#394,.T.);
#231=ORIENTED_EDGE('',*,*,#393,.T.);
#232=ORIENTED_EDGE('',*,*,#392,.T.);
#233=ORIENTED_EDGE('',*,*,#391,.T.);
#234=ORIENTED_EDGE('',*,*,#390,.T.);
#235=ORIENTED_EDGE('',*,*,#389,.T.);
#236=ORIENTED_EDGE('',*,*,#388,.T.);
#237=ORIENTED_EDGE('',*,*,#387,.T.);
#238=ORIENTED_EDGE('',*,*,#386,.T.);
#239=ORIENTED_EDGE('',*,*,#385,.T.);
#240=ORIENTED_EDGE('',*,*,#384,.T.);
#241=ORIENTED_EDGE('',*,*,#383,.T.);
#242=ORIENTED_EDGE('',*,*,#382,.T.);
#243=CYLINDRICAL_SURFACE('',#459,10.2153110965566);
#244=CYLINDRICAL_SURFACE('',#460,61.8554609787788);
#245=CYLINDRICAL_SURFACE('',#461,87.930396160374);
#246=CYLINDRICAL_SURFACE('',#462,174.327904894545);
#247=CYLINDRICAL_SURFACE('',#463,5.99108008740624);
#248=CYLINDRICAL_SURFACE('',#466,9.67384194661448);
#249=CYLINDRICAL_SURFACE('',#476,8.56893629868951);
#250=CIRCLE('',#445,8.56893629868951);
#251=CIRCLE('',#446,9.67384194661448);
#252=CIRCLE('',#447,5.99108008740624);
#253=CIRCLE('',#448,174.327904894545);
#254=CIRCLE('',#449,87.930396160374);
#255=CIRCLE('',#450,61.8554609787788);
#256=CIRCLE('',#451,10.2153110965566);
#257=CIRCLE('',#452,8.56893629868951);
#258=CIRCLE('',#453,9.67384194661448);
#259=CIRCLE('',#454,5.99108008740624);
#260=CIRCLE('',#455,174.327904894545);
#261=CIRCLE('',#456,87.930396160374);
#262=CIRCLE('',#457,61.8554609787788);
#263=CIRCLE('',#458,10.2153110965566);
#264=LINE('',#635,#304);
#265=LINE('',#636,#305);
#266=LINE('',#637,#306);
#267=LINE('',#638,#307);
#268=LINE('',#639,#308);
#269=LINE('',#640,#309);
#270=LINE('',#641,#310);
#271=LINE('',#642,#311);
#272=LINE('',#643,#312);
#273=LINE('',#644,#313);
#274=LINE('',#645,#314);
#275=LINE('',#646,#315);
#276=LINE('',#647,#316);
#277=LINE('',#648,#317);
#278=LINE('',#649,#318);
#279=LINE('',#650,#319);
#280=LINE('',#651,#320);
#281=LINE('',#652,#321);
#282=LINE('',#653,#322);
#283=LINE('',#655,#323);
#284=LINE('',#656,#324);
#285=LINE('',#657,#325);
#286=LINE('',#658,#326);
#287=LINE('',#659,#327);
#288=LINE('',#660,#328);
#289=LINE('',#665,#329);
#290=LINE('',#666,#330);
#291=LINE('',#668,#331);
#292=LINE('',#669,#332);
#293=LINE('',#675,#333);
#294=LINE('',#677,#334);
#295=LINE('',#678,#335);
#296=LINE('',#679,#336);
#297=LINE('',#680,#337);
#298=LINE('',#681,#338);
#299=LINE('',#682,#339);
#300=LINE('',#687,#340);
#301=LINE('',#688,#341);
#302=LINE('',#690,#342);
#303=LINE('',#691,#343);
#304=VECTOR('',#482,1.);
#305=VECTOR('',#483,1.);
#306=VECTOR('',#484,1.);
#307=VECTOR('',#485,1.);
#308=VECTOR('',#486,1.);
#309=VECTOR('',#487,1.);
#310=VECTOR('',#488,1.);
#311=VECTOR('',#489,1.);
#312=VECTOR('',#490,1.);
#313=VECTOR('',#491,1.);
#314=VECTOR('',#492,1.);
#315=VECTOR('',#493,1.);
#316=VECTOR('',#494,1.);
#317=VECTOR('',#495,1.);
#318=VECTOR('',#496,1.);
#319=VECTOR('',#497,1.);
#320=VECTOR('',#498,1.);
#321=VECTOR('',#499,1.);
#322=VECTOR('',#500,1.);
#323=VECTOR('',#503,1.);
#324=VECTOR('',#504,1.);
#325=VECTOR('',#505,1.);
#326=VECTOR('',#506,1.);
#327=VECTOR('',#507,1.);
#328=VECTOR('',#508,1.);
#329=VECTOR('',#509,1.);
#330=VECTOR('',#510,1.);
#331=VECTOR('',#513,1.);
#332=VECTOR('',#514,1.);
#333=VECTOR('',#525,1.);
#334=VECTOR('',#528,1.);
#335=VECTOR('',#529,1.);
#336=VECTOR('',#530,1.);
#337=VECTOR('',#531,1.);
#338=VECTOR('',#532,1.);
#339=VECTOR('',#533,1.);
#340=VECTOR('',#534,1.);
#341=VECTOR('',#535,1.);
#342=VECTOR('',#538,1.);
#343=VECTOR('',#539,1.);
#344=EDGE_CURVE('',#422,#441,#401,.F.);
#345=EDGE_CURVE('',#421,#440,#264,.T.);
#346=EDGE_CURVE('',#420,#439,#265,.T.);
#347=EDGE_CURVE('',#419,#438,#266,.T.);
#348=EDGE_CURVE('',#418,#437,#267,.T.);
#349=EDGE_CURVE('',#417,#436,#268,.T.);
#350=EDGE_CURVE('',#416,#435,#269,.T.);
#351=EDGE_CURVE('',#415,#434,#270,.T.);
#352=EDGE_CURVE('',#414,#433,#271,.T.);
#353=EDGE_CURVE('',#413,#432,#272,.T.);
#354=EDGE_CURVE('',#412,#431,#273,.T.);
#355=EDGE_CURVE('',#411,#430,#274,.T.);
#356=EDGE_CURVE('',#410,#429,#275,.T.);
#357=EDGE_CURVE('',#409,#428,#276,.T.);
#358=EDGE_CURVE('',#408,#427,#277,.T.);
#359=EDGE_CURVE('',#407,#426,#278,.T.);
#360=EDGE_CURVE('',#406,#425,#279,.T.);
#361=EDGE_CURVE('',#405,#424,#280,.T.);
#362=EDGE_CURVE('',#404,#423,#281,.T.);
#363=EDGE_CURVE('',#405,#404,#282,.T.);
#364=EDGE_CURVE('',#406,#405,#250,.T.);
#365=EDGE_CURVE('',#407,#406,#283,.T.);
#366=EDGE_CURVE('',#408,#407,#284,.T.);
#367=EDGE_CURVE('',#409,#408,#285,.T.);
#368=EDGE_CURVE('',#410,#409,#286,.T.);
#369=EDGE_CURVE('',#411,#410,#287,.T.);
#370=EDGE_CURVE('',#412,#411,#288,.T.);
#371=EDGE_CURVE('',#413,#412,#402,.T.);
#372=EDGE_CURVE('',#414,#413,#289,.T.);
#373=EDGE_CURVE('',#415,#414,#290,.T.);
#374=EDGE_CURVE('',#416,#415,#251,.T.);
#375=EDGE_CURVE('',#417,#416,#291,.T.);
#376=EDGE_CURVE('',#418,#417,#292,.T.);
#377=EDGE_CURVE('',#419,#418,#252,.T.);
#378=EDGE_CURVE('',#420,#419,#253,.T.);
#379=EDGE_CURVE('',#421,#420,#254,.T.);
#380=EDGE_CURVE('',#422,#421,#255,.T.);
#381=EDGE_CURVE('',#404,#422,#256,.T.);
#382=EDGE_CURVE('',#424,#423,#293,.T.);
#383=EDGE_CURVE('',#425,#424,#257,.T.);
#384=EDGE_CURVE('',#426,#425,#294,.T.);
#385=EDGE_CURVE('',#427,#426,#295,.T.);
#386=EDGE_CURVE('',#428,#427,#296,.T.);
#387=EDGE_CURVE('',#429,#428,#297,.T.);
#388=EDGE_CURVE('',#430,#429,#298,.T.);
#389=EDGE_CURVE('',#431,#430,#299,.T.);
#390=EDGE_CURVE('',#432,#431,#403,.T.);
#391=EDGE_CURVE('',#433,#432,#300,.T.);
#392=EDGE_CURVE('',#434,#433,#301,.T.);
#393=EDGE_CURVE('',#435,#434,#258,.T.);
#394=EDGE_CURVE('',#436,#435,#302,.T.);
#395=EDGE_CURVE('',#437,#436,#303,.T.);
#396=EDGE_CURVE('',#438,#437,#259,.T.);
#397=EDGE_CURVE('',#439,#438,#260,.T.);
#398=EDGE_CURVE('',#440,#439,#261,.T.);
#399=EDGE_CURVE('',#441,#440,#262,.T.);
#400=EDGE_CURVE('',#423,#441,#263,.T.);
#401=B_SPLINE_CURVE_WITH_KNOTS('',3,(#631,#632,#633,#634),.UNSPECIFIED.,.F.,
.F.,(4,4),(0.,1.),.UNSPECIFIED.);
#402=B_SPLINE_CURVE_WITH_KNOTS('',3,(#661,#662,#663,#664),.UNSPECIFIED.,.F.,
.F.,(4,4),(0.,1.),.UNSPECIFIED.);
#403=B_SPLINE_CURVE_WITH_KNOTS('',3,(#683,#684,#685,#686),.UNSPECIFIED.,.F.,
.F.,(4,4),(0.,1.),.UNSPECIFIED.);
#404=VERTEX_POINT('',#593);
#405=VERTEX_POINT('',#594);
#406=VERTEX_POINT('',#595);
#407=VERTEX_POINT('',#596);
#408=VERTEX_POINT('',#597);
#409=VERTEX_POINT('',#598);
#410=VERTEX_POINT('',#599);
#411=VERTEX_POINT('',#600);
#412=VERTEX_POINT('',#601);
#413=VERTEX_POINT('',#602);
#414=VERTEX_POINT('',#603);
#415=VERTEX_POINT('',#604);
#416=VERTEX_POINT('',#605);
#417=VERTEX_POINT('',#606);
#418=VERTEX_POINT('',#607);
#419=VERTEX_POINT('',#608);
#420=VERTEX_POINT('',#609);
#421=VERTEX_POINT('',#610);
#422=VERTEX_POINT('',#611);
#423=VERTEX_POINT('',#612);
#424=VERTEX_POINT('',#613);
#425=VERTEX_POINT('',#614);
#426=VERTEX_POINT('',#615);
#427=VERTEX_POINT('',#616);
#428=VERTEX_POINT('',#617);
#429=VERTEX_POINT('',#618);
#430=VERTEX_POINT('',#619);
#431=VERTEX_POINT('',#620);
#432=VERTEX_POINT('',#621);
#433=VERTEX_POINT('',#622);
#434=VERTEX_POINT('',#623);
#435=VERTEX_POINT('',#624);
#436=VERTEX_POINT('',#625);
#437=VERTEX_POINT('',#626);
#438=VERTEX_POINT('',#627);
#439=VERTEX_POINT('',#628);
#440=VERTEX_POINT('',#629);
#441=VERTEX_POINT('',#630);
#442=SHAPE_DEFINITION_REPRESENTATION(#718,#443);
#443=SHAPE_REPRESENTATION('master',(#444),#720);
#444=AXIS2_PLACEMENT_3D('',#592,#481,#480);
#445=AXIS2_PLACEMENT_3D('',#654,#502,#501);
#446=AXIS2_PLACEMENT_3D('',#667,#512,#511);
#447=AXIS2_PLACEMENT_3D('',#670,#516,#515);
#448=AXIS2_PLACEMENT_3D('',#671,#518,#517);
#449=AXIS2_PLACEMENT_3D('',#672,#520,#519);
#450=AXIS2_PLACEMENT_3D('',#673,#522,#521);
#451=AXIS2_PLACEMENT_3D('',#674,#524,#523);
#452=AXIS2_PLACEMENT_3D('',#676,#527,#526);
#453=AXIS2_PLACEMENT_3D('',#689,#537,#536);
#454=AXIS2_PLACEMENT_3D('',#692,#541,#540);
#455=AXIS2_PLACEMENT_3D('',#693,#543,#542);
#456=AXIS2_PLACEMENT_3D('',#694,#545,#544);
#457=AXIS2_PLACEMENT_3D('',#695,#547,#546);
#458=AXIS2_PLACEMENT_3D('',#696,#549,#548);
#459=AXIS2_PLACEMENT_3D('',#697,#551,#550);
#460=AXIS2_PLACEMENT_3D('',#698,#553,#552);
#461=AXIS2_PLACEMENT_3D('',#699,#555,#554);
#462=AXIS2_PLACEMENT_3D('',#700,#557,#556);
#463=AXIS2_PLACEMENT_3D('',#701,#559,#558);
#464=AXIS2_PLACEMENT_3D('',#702,#561,#560);
#465=AXIS2_PLACEMENT_3D('',#703,#563,#562);
#466=AXIS2_PLACEMENT_3D('',#704,#565,#564);
#467=AXIS2_PLACEMENT_3D('',#705,#567,#566);
#468=AXIS2_PLACEMENT_3D('',#706,#569,#568);
#469=AXIS2_PLACEMENT_3D('',#707,#571,#570);
#470=AXIS2_PLACEMENT_3D('',#708,#573,#572);
#471=AXIS2_PLACEMENT_3D('',#709,#575,#574);
#472=AXIS2_PLACEMENT_3D('',#710,#577,#576);
#473=AXIS2_PLACEMENT_3D('',#711,#579,#578);
#474=AXIS2_PLACEMENT_3D('',#712,#581,#580);
#475=AXIS2_PLACEMENT_3D('',#713,#583,#582);
#476=AXIS2_PLACEMENT_3D('',#714,#585,#584);
#477=AXIS2_PLACEMENT_3D('',#715,#587,#586);
#478=AXIS2_PLACEMENT_3D('',#716,#589,#588);
#479=AXIS2_PLACEMENT_3D('',#717,#591,#590);
#480=DIRECTION('',(1.,0.,0.));
#481=DIRECTION('',(0.,0.,1.));
#482=DIRECTION('',(1.60702138580485E-015,-1.,-2.29024716174049E-015));
#483=DIRECTION('',(1.60702138580485E-015,-1.,-2.29024716174049E-015));
#484=DIRECTION('',(1.60702138580485E-015,-1.,-2.29024716174049E-015));
#485=DIRECTION('',(1.60702138580485E-015,-1.,-2.29024716174049E-015));
#486=DIRECTION('',(1.60702138580485E-015,-1.,-2.29024716174049E-015));
#487=DIRECTION('',(1.60702138580485E-015,-1.,-2.29024716174049E-015));
#488=DIRECTION('',(1.60702138580485E-015,-1.,-2.29024716174049E-015));
#489=DIRECTION('',(1.60702138580485E-015,-1.,-2.29024716174049E-015));
#490=DIRECTION('',(1.60702138580485E-015,-1.,-2.29024716174049E-015));
#491=DIRECTION('',(1.60702138580485E-015,-1.,-2.29024716174049E-015));
#492=DIRECTION('',(1.60702138580485E-015,-1.,-2.29024716174049E-015));
#493=DIRECTION('',(1.60702138580485E-015,-1.,-2.29024716174049E-015));
#494=DIRECTION('',(1.60702138580485E-015,-1.,-2.29024716174049E-015));
#495=DIRECTION('',(1.60702138580485E-015,-1.,-2.29024716174049E-015));
#496=DIRECTION('',(1.60702138580485E-015,-1.,-2.29024716174049E-015));
#497=DIRECTION('',(1.60702138580485E-015,-1.,-2.29024716174049E-015));
#498=DIRECTION('',(1.60702138580485E-015,-1.,-2.29024716174049E-015));
#499=DIRECTION('',(1.60702138580485E-015,-1.,-2.29024716174049E-015));
#500=DIRECTION('',(-0.000876919924037426,0.,0.999999615505649));
#501=DIRECTION('',(-0.987351211545621,0.,0.158548368201617));
#502=DIRECTION('',(0.,1.,0.));
#503=DIRECTION('',(0.990682628002215,-0.,0.136190787407321));
#504=DIRECTION('',(-0.,-0.,-1.));
#505=DIRECTION('',(-0.807790944539989,-0.,-0.589469074607983));
#506=DIRECTION('',(-0.392998100133813,0.,-0.919539283169139));
#507=DIRECTION('',(-0.715620859010792,0.,-0.698488930584198));
#508=DIRECTION('',(-0.946351701273958,0.,-0.323138449423596));
#509=DIRECTION('',(0.,0.,1.));
#510=DIRECTION('',(1.,-0.,-0.));
#511=DIRECTION('',(-0.899239504501299,-0.,-0.437456641902096));
#512=DIRECTION('',(0.,-1.,0.));
#513=DIRECTION('',(1.,-0.,-2.59855629078081E-013));
#514=DIRECTION('',(0.909057945454328,-0.,-0.416669715489806));
#515=DIRECTION('',(-0.131748800466086,0.,0.991283134919458));
#516=DIRECTION('',(0.,1.,0.));
#517=DIRECTION('',(-0.317574903037012,0.,0.948233189126511));
#518=DIRECTION('',(0.,1.,0.));
#519=DIRECTION('',(-0.682469220656672,0.,0.730914333459315));
#520=DIRECTION('',(0.,1.,0.));
#521=DIRECTION('',(-0.998566043942216,0.,0.0535336892581817));
#522=DIRECTION('',(0.,1.,0.));
#523=DIRECTION('',(-0.0607892398437784,-0.,-0.998150624063931));
#524=DIRECTION('',(0.,-1.,0.));
#525=DIRECTION('',(-0.000876919924037426,0.,0.999999615505649));
#526=DIRECTION('',(-0.987351211545621,0.,0.158548368201617));
#527=DIRECTION('',(0.,1.,0.));
#528=DIRECTION('',(0.990682628002215,-0.,0.136190787407321));
#529=DIRECTION('',(-0.,-0.,-1.));
#530=DIRECTION('',(-0.807790944539989,-0.,-0.589469074607983));
#531=DIRECTION('',(-0.392998100133813,0.,-0.919539283169139));
#532=DIRECTION('',(-0.715620859010792,0.,-0.698488930584198));
#533=DIRECTION('',(-0.946351701273958,0.,-0.323138449423596));
#534=DIRECTION('',(0.,0.,1.));
#535=DIRECTION('',(1.,-0.,-0.));
#536=DIRECTION('',(-0.899239504501299,-0.,-0.437456641902096));
#537=DIRECTION('',(0.,-1.,0.));
#538=DIRECTION('',(1.,-0.,-2.59855629078081E-013));
#539=DIRECTION('',(0.909057945454328,-0.,-0.416669715489806));
#540=DIRECTION('',(-0.131748800466086,0.,0.991283134919458));
#541=DIRECTION('',(0.,1.,0.));
#542=DIRECTION('',(-0.317574903037012,0.,0.948233189126511));
#543=DIRECTION('',(0.,1.,0.));
#544=DIRECTION('',(-0.682469220656672,0.,0.730914333459315));
#545=DIRECTION('',(0.,1.,0.));
#546=DIRECTION('',(-0.998566043942216,0.,0.0535336892581817));
#547=DIRECTION('',(0.,1.,0.));
#548=DIRECTION('',(-0.0607892398437784,-0.,-0.998150624063931));
#549=DIRECTION('',(0.,-1.,0.));
#550=DIRECTION('',(0.,2.29024716174049E-015,-1.));
#551=DIRECTION('',(1.60702138580485E-015,-1.,-2.29024716174049E-015));
#552=DIRECTION('',(0.,2.29024716174049E-015,-1.));
#553=DIRECTION('',(1.60702138580485E-015,-1.,-2.29024716174049E-015));
#554=DIRECTION('',(0.,2.29024716174049E-015,-1.));
#555=DIRECTION('',(1.60702138580485E-015,-1.,-2.29024716174049E-015));
#556=DIRECTION('',(0.,2.29024716174049E-015,-1.));
#557=DIRECTION('',(1.60702138580485E-015,-1.,-2.29024716174049E-015));
#558=DIRECTION('',(0.,2.29024716174049E-015,-1.));
#559=DIRECTION('',(1.60702138580485E-015,-1.,-2.29024716174049E-015));
#560=DIRECTION('',(-0.909057945454328,0.,0.416669715489806));
#561=DIRECTION('',(-0.416669715489806,1.41237023582508E-015,-0.909057945454328
));
#562=DIRECTION('',(-1.,0.,2.59855629078081E-013));
#563=DIRECTION('',(-2.59855629078081E-013,2.29024716174007E-015,-1.));
#564=DIRECTION('',(0.,2.29024716174049E-015,-1.));
#565=DIRECTION('',(1.60702138580485E-015,-1.,-2.29024716174049E-015));
#566=DIRECTION('',(0.,1.,2.29024716174049E-015));
#567=DIRECTION('',(0.,2.29024716174049E-015,-1.));
#568=DIRECTION('',(-1.60702138580485E-015,1.,0.));
#569=DIRECTION('',(1.,1.60702138580485E-015,-0.));
#570=DIRECTION('',(0.,-1.,-2.29024716174049E-015));
#571=DIRECTION('',(0.,-2.29024716174049E-015,1.));
#572=DIRECTION('',(0.946351701273958,-9.86076131526265E-032,0.323138449423596)
);
#573=DIRECTION('',(-0.323138449423596,-2.68666969665051E-015,0.946351701273958
));
#574=DIRECTION('',(0.715620859010792,1.97215226305253E-031,0.698488930584198)
);
#575=DIRECTION('',(-0.698488930584198,-2.76143529042853E-015,0.715620859010792
));
#576=DIRECTION('',(0.392998100133813,-9.86076131526265E-032,0.919539283169139)
);
#577=DIRECTION('',(-0.919539283169139,-2.37778207654134E-015,0.392998100133813
));
#578=DIRECTION('',(0.807790944539989,0.,0.589469074607983));
#579=DIRECTION('',(-0.589469074607983,-2.79733032717801E-015,0.807790944539989
));
#580=DIRECTION('',(1.60702138580485E-015,-1.,0.));
#581=DIRECTION('',(-1.,-1.60702138580485E-015,0.));
#582=DIRECTION('',(-0.990682628002215,4.93038065763132E-032,-0.136190787407321
));
#583=DIRECTION('',(0.136190787407321,2.48776958488085E-015,-0.990682628002215)
);
#584=DIRECTION('',(0.,2.29024716174049E-015,-1.));
#585=DIRECTION('',(1.60702138580485E-015,-1.,-2.29024716174049E-015));
#586=DIRECTION('',(0.000876919924037426,0.,-0.99999961550565));
#587=DIRECTION('',(0.999999615505649,1.60501240454711E-015,
0.000876919924037426));
#588=DIRECTION('',(0.,0.,-1.));
#589=DIRECTION('',(0.,-1.,0.));
#590=DIRECTION('',(0.,0.,-1.));
#591=DIRECTION('',(0.,-1.,0.));
#592=CARTESIAN_POINT('',(0.,0.,0.));
#593=CARTESIAN_POINT('',(117.359623999997,2168.281361,2156.02547000001));
#594=CARTESIAN_POINT('',(117.361816609403,2168.281361,2153.52511791187));
#595=CARTESIAN_POINT('',(112.236227528796,2168.281361,2146.99037568202));
#596=CARTESIAN_POINT('',(103.080453999997,2168.281361,2145.73171627793));
#597=CARTESIAN_POINT('',(103.080453999997,2168.281361,2165.21300351564));
#598=CARTESIAN_POINT('',(109.098716999997,2168.281361,2169.604709));
#599=CARTESIAN_POINT('',(126.536399999997,2168.281361,2210.405503));
#600=CARTESIAN_POINT('',(151.696726999997,2168.281361,2234.963493));
#601=CARTESIAN_POINT('',(194.268720999997,2168.281361,2249.5));
#602=CARTESIAN_POINT('',(237.882330999997,2168.281361,2249.5));
#603=CARTESIAN_POINT('',(237.882330999997,2168.281361,2241.987171));
#604=CARTESIAN_POINT('',(233.556888999996,2168.281361,2241.987171));
#605=CARTESIAN_POINT('',(215.686265999996,2168.281361,2240.832036));
#606=CARTESIAN_POINT('',(213.936265999997,2168.281361,2240.832036));
#607=CARTESIAN_POINT('',(212.484991594158,2168.281361,2241.49723242318));
#608=CARTESIAN_POINT('',(209.199372343646,2168.281361,2241.98985011847));
#609=CARTESIAN_POINT('',(176.804697207602,2168.281361,2234.48504326255));
#610=CARTESIAN_POINT('',(144.719395302605,2168.281361,2215.3761101906));
#611=CARTESIAN_POINT('',(125.169732931631,2168.281361,2173.47651073274));
#612=CARTESIAN_POINT('',(117.359624,168.281361,2156.02547));
#613=CARTESIAN_POINT('',(117.361816609406,168.281361,2153.52511791187));
#614=CARTESIAN_POINT('',(112.236227528799,168.281361,2146.99037568202));
#615=CARTESIAN_POINT('',(103.080454,168.281361,2145.73171627792));
#616=CARTESIAN_POINT('',(103.080454,168.281361,2165.21300351563));
#617=CARTESIAN_POINT('',(109.098717,168.281361,2169.604709));
#618=CARTESIAN_POINT('',(126.5364,168.281361,2210.405503));
#619=CARTESIAN_POINT('',(151.696727,168.281361,2234.963493));
#620=CARTESIAN_POINT('',(194.268721,168.281361,2249.5));
#621=CARTESIAN_POINT('',(237.882331,168.281361,2249.5));
#622=CARTESIAN_POINT('',(237.882331,168.281361,2241.987171));
#623=CARTESIAN_POINT('',(233.556888999999,168.281361,2241.987171));
#624=CARTESIAN_POINT('',(215.686265999999,168.281361,2240.832036));
#625=CARTESIAN_POINT('',(213.936266,168.281361,2240.832036));
#626=CARTESIAN_POINT('',(212.484991594162,168.281361,2241.49723242318));
#627=CARTESIAN_POINT('',(209.19937234365,168.281361,2241.98985011847));
#628=CARTESIAN_POINT('',(176.804697207605,168.281361,2234.48504326254));
#629=CARTESIAN_POINT('',(144.719395302608,168.281361,2215.3761101906));
#630=CARTESIAN_POINT('',(125.169732931634,168.281361,2173.47651073273));
#631=CARTESIAN_POINT('',(125.171093464471,168.281361,2173.47788366015));
#632=CARTESIAN_POINT('',(125.17109346447,834.948027666667,2173.47788366016));
#633=CARTESIAN_POINT('',(125.171093464469,1501.61469433333,2173.47788366016));
#634=CARTESIAN_POINT('',(125.171093464468,2168.281361,2173.47788366016));
#635=CARTESIAN_POINT('',(144.719395302605,2168.281361,2215.3761101906));
#636=CARTESIAN_POINT('',(176.804697207602,2168.281361,2234.48504326255));
#637=CARTESIAN_POINT('',(209.199372343646,2168.281361,2241.98985011847));
#638=CARTESIAN_POINT('',(212.484991594158,2168.281361,2241.49723242318));
#639=CARTESIAN_POINT('',(213.936265999997,2168.281361,2240.832036));
#640=CARTESIAN_POINT('',(215.686265999996,2168.281361,2240.832036));
#641=CARTESIAN_POINT('',(233.556888999996,2168.281361,2241.987171));
#642=CARTESIAN_POINT('',(237.882330999997,2168.281361,2241.987171));
#643=CARTESIAN_POINT('',(237.882330999997,2168.281361,2249.5));
#644=CARTESIAN_POINT('',(194.268720999997,2168.281361,2249.5));
#645=CARTESIAN_POINT('',(151.696726999997,2168.281361,2234.963493));
#646=CARTESIAN_POINT('',(126.536399999997,2168.281361,2210.405503));
#647=CARTESIAN_POINT('',(109.098716999997,2168.281361,2169.604709));
#648=CARTESIAN_POINT('',(103.080453999997,2168.281361,2165.21300351564));
#649=CARTESIAN_POINT('',(103.080453999997,2168.281361,2145.73171627793));
#650=CARTESIAN_POINT('',(112.236227528796,2168.281361,2146.99037568202));
#651=CARTESIAN_POINT('',(117.361816609403,2168.281361,2153.52511791187));
#652=CARTESIAN_POINT('',(117.359623999997,2168.281361,2156.02547000001));
#653=CARTESIAN_POINT('',(117.361816609403,2168.281361,2153.52511791187));
#654=CARTESIAN_POINT('',(120.696777164964,2168.281361,2145.63178481464));
#655=CARTESIAN_POINT('',(103.080453999997,2168.281361,2145.73171627793));
#656=CARTESIAN_POINT('',(103.080453999997,2168.281361,2165.21300351564));
#657=CARTESIAN_POINT('',(109.098716999997,2168.281361,2169.604709));
#658=CARTESIAN_POINT('',(126.536399999997,2168.281361,2210.405503));
#659=CARTESIAN_POINT('',(151.696726999997,2168.281361,2234.963493));
#660=CARTESIAN_POINT('',(194.268720999997,2168.281361,2249.5));
#661=CARTESIAN_POINT('',(237.882330999997,2168.281361,2249.5));
#662=CARTESIAN_POINT('',(223.344460999997,2168.281361,2249.5));
#663=CARTESIAN_POINT('',(208.806590999997,2168.281361,2249.5));
#664=CARTESIAN_POINT('',(194.268720999997,2168.281361,2249.5));
#665=CARTESIAN_POINT('',(237.882330999997,2168.281361,2241.987171));
#666=CARTESIAN_POINT('',(233.556888999996,2168.281361,2241.987171));
#667=CARTESIAN_POINT('',(224.385366838694,2168.281361,2245.06392241226));
#668=CARTESIAN_POINT('',(213.936265999997,2168.281361,2240.832036));
#669=CARTESIAN_POINT('',(212.484991594158,2168.281361,2241.49723242318));
#670=CARTESIAN_POINT('',(209.988689958658,2168.281361,2236.05099346788));
#671=CARTESIAN_POINT('',(232.166864701132,2168.281361,2069.18153805065));
#672=CARTESIAN_POINT('',(204.729184242208,2168.281361,2151.10652329023));
#673=CARTESIAN_POINT('',(186.933843550135,2168.281361,2170.16506715846));
#674=CARTESIAN_POINT('',(117.980604996324,2168.281361,2166.22188914604));
#675=CARTESIAN_POINT('',(117.361816609406,168.281361,2153.52511791187));
#676=CARTESIAN_POINT('',(120.696777164967,168.281361,2145.63178481464));
#677=CARTESIAN_POINT('',(103.080454,168.281361,2145.73171627792));
#678=CARTESIAN_POINT('',(103.080454,168.281361,2165.21300351563));
#679=CARTESIAN_POINT('',(109.098717,168.281361,2169.604709));
#680=CARTESIAN_POINT('',(126.5364,168.281361,2210.405503));
#681=CARTESIAN_POINT('',(151.696727,168.281361,2234.963493));
#682=CARTESIAN_POINT('',(194.268721,168.281361,2249.5));
#683=CARTESIAN_POINT('',(237.882331,168.281361,2249.5));
#684=CARTESIAN_POINT('',(223.344461,168.281361,2249.5));
#685=CARTESIAN_POINT('',(208.806591,168.281361,2249.5));
#686=CARTESIAN_POINT('',(194.268721,168.281361,2249.5));
#687=CARTESIAN_POINT('',(237.882331,168.281361,2241.987171));
#688=CARTESIAN_POINT('',(233.556888999999,168.281361,2241.987171));
#689=CARTESIAN_POINT('',(224.385366838697,168.281361,2245.06392241226));
#690=CARTESIAN_POINT('',(213.936266,168.281361,2240.832036));
#691=CARTESIAN_POINT('',(212.484991594162,168.281361,2241.49723242318));
#692=CARTESIAN_POINT('',(209.988689958662,168.281361,2236.05099346787));
#693=CARTESIAN_POINT('',(232.166864701136,168.281361,2069.18153805065));
#694=CARTESIAN_POINT('',(204.729184242211,168.281361,2151.10652329022));
#695=CARTESIAN_POINT('',(186.933843550138,168.281361,2170.16506715846));
#696=CARTESIAN_POINT('',(117.980604996327,168.281361,2166.22188914604));
#697=CARTESIAN_POINT('',(117.980604996324,2168.281361,2166.22188914604));
#698=CARTESIAN_POINT('',(186.933843550135,2168.281361,2170.16506715846));
#699=CARTESIAN_POINT('',(204.729184242208,2168.281361,2151.10652329023));
#700=CARTESIAN_POINT('',(232.166864701132,2168.281361,2069.18153805065));
#701=CARTESIAN_POINT('',(209.988689958658,2168.281361,2236.05099346788));
#702=CARTESIAN_POINT('',(212.484991594158,2168.281361,2241.49723242318));
#703=CARTESIAN_POINT('',(213.936265999997,2168.281361,2240.832036));
#704=CARTESIAN_POINT('',(224.385366838694,2168.281361,2245.06392241226));
#705=CARTESIAN_POINT('',(233.556888999996,2168.281361,2241.987171));
#706=CARTESIAN_POINT('',(237.882330999997,2168.281361,2241.987171));
#707=CARTESIAN_POINT('',(237.882330999997,2168.281361,2249.5));
#708=CARTESIAN_POINT('',(194.268720999997,2168.281361,2249.5));
#709=CARTESIAN_POINT('',(151.696726999997,2168.281361,2234.963493));
#710=CARTESIAN_POINT('',(126.536399999997,2168.281361,2210.405503));
#711=CARTESIAN_POINT('',(109.098716999997,2168.281361,2169.604709));
#712=CARTESIAN_POINT('',(103.080453999997,2168.281361,2165.21300351564));
#713=CARTESIAN_POINT('',(103.080453999997,2168.281361,2145.73171627793));
#714=CARTESIAN_POINT('',(120.696777164964,2168.281361,2145.63178481464));
#715=CARTESIAN_POINT('',(117.361816609403,2168.281361,2153.52511791187));
#716=CARTESIAN_POINT('',(117.980604996324,2168.281361,2166.22188914604));
#717=CARTESIAN_POINT('',(117.980604996327,168.281361,2166.22188914604));
#718=PRODUCT_DEFINITION_SHAPE('','',#719);
#719=PRODUCT_DEFINITION('','',#731,#736);
#720=(
GEOMETRIC_REPRESENTATION_CONTEXT(3)
GLOBAL_UNCERTAINTY_ASSIGNED_CONTEXT((#721))
GLOBAL_UNIT_ASSIGNED_CONTEXT((#723,#722,#726))
REPRESENTATION_CONTEXT('','')
);
#721=UNCERTAINTY_MEASURE_WITH_UNIT(LENGTH_MEASURE(0.001),#723,'','tolerance');
#722=(
CONVERSION_BASED_UNIT('',#724)
NAMED_UNIT(#730)
PLANE_ANGLE_UNIT()
);
#723=(
CONVERSION_BASED_UNIT('',#725)
LENGTH_UNIT()
NAMED_UNIT(#729)
);
#724=PLANE_ANGLE_MEASURE_WITH_UNIT(PLANE_ANGLE_MEASURE(0.0174532925199433),
#727);
#725=LENGTH_MEASURE_WITH_UNIT(LENGTH_MEASURE(1.),#728);
#726=(
NAMED_UNIT(*)
SI_UNIT($,.STERADIAN.)
SOLID_ANGLE_UNIT()
);
#727=(
NAMED_UNIT(*)
PLANE_ANGLE_UNIT()
SI_UNIT($,.RADIAN.)
);
#728=(
LENGTH_UNIT()
NAMED_UNIT(*)
SI_UNIT(.MILLI.,.METRE.)
);
#729=DIMENSIONAL_EXPONENTS(1.,0.,0.,0.,0.,0.,0.);
#730=DIMENSIONAL_EXPONENTS(0.,0.,0.,0.,0.,0.,0.);
#731=PRODUCT_DEFINITION_FORMATION_WITH_SPECIFIED_SOURCE('','',#734,.NOT_KNOWN.
);
#732=PRODUCT_CATEGORY_RELATIONSHIP('','',#737,#733);
#733=PRODUCT_RELATED_PRODUCT_CATEGORY('assembly','',(#734));
#734=PRODUCT('','master','',(#735));
#735=PRODUCT_CONTEXT('',#739,'');
#736=PRODUCT_DEFINITION_CONTEXT('',#739,'part_definition');
#737=PRODUCT_CATEGORY('part','');
#738=APPLICATION_PROTOCOL_DEFINITION('international standard',
'automotive_design_cc2',1994,#739);
#739=APPLICATION_CONTEXT(
'configuration controlled 3D designs of mechanical parts and assemblies');
ENDSEC;
END-ISO-10303-21;
35014