ISO-10303-21;
HEADER;
/* Generated by software using Delcam plc STEP library */

FILE_DESCRIPTION(
/* description */ ('AP-214 File'),
/* implementation_level */ '2;1');

FILE_NAME(
/* name */ 'D626',
/* time_stamp */ 'Tue Dec 27 08:46:15 2016',
/* author */ (''),
/* organization */ (''),
/* preprocessor_version */ 'DELCAM STEP V1',
/* originating_system */ 'Exchange7.1.0006',
/* authorisation */ '');

FILE_SCHEMA (('AUTOMOTIVE_DESIGN'));
ENDSEC;
DATA;
#10=PRESENTATION_STYLE_ASSIGNMENT((#20));
#11=PRESENTATION_STYLE_ASSIGNMENT((#21));
#12=SURFACE_SIDE_STYLE('',(#14));
#13=SURFACE_SIDE_STYLE('',(#15));
#14=SURFACE_STYLE_FILL_AREA(#16);
#15=SURFACE_STYLE_FILL_AREA(#17);
#16=FILL_AREA_STYLE('',(#18));
#17=FILL_AREA_STYLE('',(#19));
#18=FILL_AREA_STYLE_COLOUR('',#46);
#19=FILL_AREA_STYLE_COLOUR('',#47);
#20=SURFACE_STYLE_USAGE(.BOTH.,#12);
#21=SURFACE_STYLE_USAGE(.BOTH.,#13);
#22=STYLED_ITEM('',(#10),#61);
#23=STYLED_ITEM('',(#10),#62);
#24=STYLED_ITEM('',(#10),#63);
#25=STYLED_ITEM('',(#10),#64);
#26=STYLED_ITEM('',(#10),#65);
#27=STYLED_ITEM('',(#10),#66);
#28=STYLED_ITEM('',(#10),#67);
#29=STYLED_ITEM('',(#10),#68);
#30=STYLED_ITEM('',(#10),#69);
#31=STYLED_ITEM('',(#10),#70);
#32=STYLED_ITEM('',(#10),#71);
#33=STYLED_ITEM('',(#10),#72);
#34=STYLED_ITEM('',(#10),#73);
#35=STYLED_ITEM('',(#10),#74);
#36=STYLED_ITEM('',(#10),#75);
#37=STYLED_ITEM('',(#10),#76);
#38=STYLED_ITEM('',(#10),#77);
#39=STYLED_ITEM('',(#10),#78);
#40=STYLED_ITEM('',(#10),#79);
#41=STYLED_ITEM('',(#10),#80);
#42=STYLED_ITEM('',(#10),#81);
#43=STYLED_ITEM('',(#10),#82);
#44=STYLED_ITEM('',(#10),#83);
#45=STYLED_ITEM('',(#11),#53);
#46=COLOUR_RGB('',0.,0.,0.);
#47=COLOUR_RGB('rgb_colour_1',0.4,0.4,0.4);
#48=MECHANICAL_DESIGN_GEOMETRIC_PRESENTATION_REPRESENTATION('',(#22,#23,#24,
#25,#26,#27,#28,#29,#30,#31,#32,#33,#34,#35,#36,#37,#38,#39,#40,#41,#42,#43,
#44,#45),#785);
#49=PRESENTATION_LAYER_ASSIGNMENT('122','D626',(#61,#62,#63,#64,#65,#66,#67,
#68,#69,#70,#71,#72,#73,#74,#75,#76,#77,#78,#79,#80,#81,#82,#83,#53));
#50=SHAPE_REPRESENTATION_RELATIONSHIP('','',#490,#51);
#51=ADVANCED_BREP_SHAPE_REPRESENTATION('',(#52),#785);
#52=MANIFOLD_SOLID_BREP('7552',#53);
#53=CLOSED_SHELL('',(#61,#62,#63,#64,#65,#66,#67,#68,#69,#70,#71,#72,#73,#74,
#75,#76,#77,#78,#79,#80,#81,#82,#83));
#54=CYLINDRICAL_SURFACE('',#510,21.8275907441777);
#55=CYLINDRICAL_SURFACE('',#512,23.6451803456521);
#56=CYLINDRICAL_SURFACE('',#514,55.6510793729414);
#57=CYLINDRICAL_SURFACE('',#515,20.5385098123864);
#58=CYLINDRICAL_SURFACE('',#519,19.3691068161454);
#59=CYLINDRICAL_SURFACE('',#520,7.54074585875791);
#60=CYLINDRICAL_SURFACE('',#521,2.76587755401488);
#61=ADVANCED_FACE('',(#84),#256,.T.);
#62=ADVANCED_FACE('',(#85),#257,.T.);
#63=ADVANCED_FACE('',(#86),#258,.T.);
#64=ADVANCED_FACE('',(#87),#259,.T.);
#65=ADVANCED_FACE('',(#88),#54,.F.);
#66=ADVANCED_FACE('',(#89),#260,.T.);
#67=ADVANCED_FACE('',(#90),#55,.T.);
#68=ADVANCED_FACE('',(#91),#261,.T.);
#69=ADVANCED_FACE('',(#92),#56,.F.);
#70=ADVANCED_FACE('',(#93),#57,.F.);
#71=ADVANCED_FACE('',(#94),#262,.T.);
#72=ADVANCED_FACE('',(#95),#263,.T.);
#73=ADVANCED_FACE('',(#96),#264,.T.);
#74=ADVANCED_FACE('',(#97),#58,.T.);
#75=ADVANCED_FACE('',(#98),#59,.F.);
#76=ADVANCED_FACE('',(#99),#60,.T.);
#77=ADVANCED_FACE('',(#100),#265,.T.);
#78=ADVANCED_FACE('',(#101),#266,.T.);
#79=ADVANCED_FACE('',(#102),#267,.T.);
#80=ADVANCED_FACE('',(#103),#268,.T.);
#81=ADVANCED_FACE('',(#104),#269,.T.);
#82=ADVANCED_FACE('',(#105),#270,.T.);
#83=ADVANCED_FACE('',(#106),#271,.F.);
#84=FACE_OUTER_BOUND('',#107,.T.);
#85=FACE_OUTER_BOUND('',#108,.T.);
#86=FACE_OUTER_BOUND('',#109,.T.);
#87=FACE_OUTER_BOUND('',#110,.T.);
#88=FACE_OUTER_BOUND('',#111,.T.);
#89=FACE_OUTER_BOUND('',#112,.T.);
#90=FACE_OUTER_BOUND('',#113,.T.);
#91=FACE_OUTER_BOUND('',#114,.T.);
#92=FACE_OUTER_BOUND('',#115,.T.);
#93=FACE_OUTER_BOUND('',#116,.T.);
#94=FACE_OUTER_BOUND('',#117,.T.);
#95=FACE_OUTER_BOUND('',#118,.T.);
#96=FACE_OUTER_BOUND('',#119,.T.);
#97=FACE_OUTER_BOUND('',#120,.T.);
#98=FACE_OUTER_BOUND('',#121,.T.);
#99=FACE_OUTER_BOUND('',#122,.T.);
#100=FACE_OUTER_BOUND('',#123,.T.);
#101=FACE_OUTER_BOUND('',#124,.T.);
#102=FACE_OUTER_BOUND('',#125,.T.);
#103=FACE_OUTER_BOUND('',#126,.T.);
#104=FACE_OUTER_BOUND('',#127,.T.);
#105=FACE_OUTER_BOUND('',#128,.T.);
#106=FACE_OUTER_BOUND('',#129,.T.);
#107=EDGE_LOOP('',(#130,#131,#132,#133));
#108=EDGE_LOOP('',(#134,#135,#136,#137));
#109=EDGE_LOOP('',(#138,#139,#140,#141));
#110=EDGE_LOOP('',(#142,#143,#144,#145));
#111=EDGE_LOOP('',(#146,#147,#148,#149));
#112=EDGE_LOOP('',(#150,#151,#152,#153));
#113=EDGE_LOOP('',(#154,#155,#156,#157));
#114=EDGE_LOOP('',(#158,#159,#160,#161));
#115=EDGE_LOOP('',(#162,#163,#164,#165));
#116=EDGE_LOOP('',(#166,#167,#168,#169));
#117=EDGE_LOOP('',(#170,#171,#172,#173));
#118=EDGE_LOOP('',(#174,#175,#176,#177));
#119=EDGE_LOOP('',(#178,#179,#180,#181));
#120=EDGE_LOOP('',(#182,#183,#184,#185));
#121=EDGE_LOOP('',(#186,#187,#188,#189));
#122=EDGE_LOOP('',(#190,#191,#192,#193));
#123=EDGE_LOOP('',(#194,#195,#196,#197));
#124=EDGE_LOOP('',(#198,#199,#200,#201));
#125=EDGE_LOOP('',(#202,#203,#204,#205));
#126=EDGE_LOOP('',(#206,#207,#208,#209));
#127=EDGE_LOOP('',(#210,#211,#212,#213));
#128=EDGE_LOOP('',(#214,#215,#216,#217,#218,#219,#220,#221,#222,#223,#224,#225
,#226,#227,#228,#229,#230,#231,#232,#233,#234));
#129=EDGE_LOOP('',(#235,#236,#237,#238,#239,#240,#241,#242,#243,#244,#245,#246
,#247,#248,#249,#250,#251,#252,#253,#254,#255));
#130=ORIENTED_EDGE('',*,*,#348,.F.);
#131=ORIENTED_EDGE('',*,*,#306,.F.);
#132=ORIENTED_EDGE('',*,*,#327,.T.);
#133=ORIENTED_EDGE('',*,*,#286,.T.);
#134=ORIENTED_EDGE('',*,*,#347,.F.);
#135=ORIENTED_EDGE('',*,*,#286,.F.);
#136=ORIENTED_EDGE('',*,*,#326,.T.);
#137=ORIENTED_EDGE('',*,*,#287,.T.);
#138=ORIENTED_EDGE('',*,*,#346,.F.);
#139=ORIENTED_EDGE('',*,*,#287,.F.);
#140=ORIENTED_EDGE('',*,*,#325,.T.);
#141=ORIENTED_EDGE('',*,*,#288,.T.);
#142=ORIENTED_EDGE('',*,*,#345,.F.);
#143=ORIENTED_EDGE('',*,*,#288,.F.);
#144=ORIENTED_EDGE('',*,*,#324,.T.);
#145=ORIENTED_EDGE('',*,*,#289,.T.);
#146=ORIENTED_EDGE('',*,*,#344,.F.);
#147=ORIENTED_EDGE('',*,*,#289,.F.);
#148=ORIENTED_EDGE('',*,*,#323,.T.);
#149=ORIENTED_EDGE('',*,*,#290,.T.);
#150=ORIENTED_EDGE('',*,*,#343,.F.);
#151=ORIENTED_EDGE('',*,*,#290,.F.);
#152=ORIENTED_EDGE('',*,*,#322,.T.);
#153=ORIENTED_EDGE('',*,*,#291,.T.);
#154=ORIENTED_EDGE('',*,*,#342,.F.);
#155=ORIENTED_EDGE('',*,*,#291,.F.);
#156=ORIENTED_EDGE('',*,*,#321,.T.);
#157=ORIENTED_EDGE('',*,*,#292,.T.);
#158=ORIENTED_EDGE('',*,*,#341,.F.);
#159=ORIENTED_EDGE('',*,*,#292,.F.);
#160=ORIENTED_EDGE('',*,*,#320,.T.);
#161=ORIENTED_EDGE('',*,*,#293,.T.);
#162=ORIENTED_EDGE('',*,*,#340,.F.);
#163=ORIENTED_EDGE('',*,*,#293,.F.);
#164=ORIENTED_EDGE('',*,*,#319,.T.);
#165=ORIENTED_EDGE('',*,*,#294,.T.);
#166=ORIENTED_EDGE('',*,*,#339,.F.);
#167=ORIENTED_EDGE('',*,*,#294,.F.);
#168=ORIENTED_EDGE('',*,*,#318,.T.);
#169=ORIENTED_EDGE('',*,*,#295,.T.);
#170=ORIENTED_EDGE('',*,*,#338,.F.);
#171=ORIENTED_EDGE('',*,*,#295,.F.);
#172=ORIENTED_EDGE('',*,*,#317,.T.);
#173=ORIENTED_EDGE('',*,*,#296,.T.);
#174=ORIENTED_EDGE('',*,*,#337,.F.);
#175=ORIENTED_EDGE('',*,*,#296,.F.);
#176=ORIENTED_EDGE('',*,*,#316,.T.);
#177=ORIENTED_EDGE('',*,*,#297,.T.);
#178=ORIENTED_EDGE('',*,*,#336,.F.);
#179=ORIENTED_EDGE('',*,*,#297,.F.);
#180=ORIENTED_EDGE('',*,*,#315,.T.);
#181=ORIENTED_EDGE('',*,*,#298,.T.);
#182=ORIENTED_EDGE('',*,*,#335,.F.);
#183=ORIENTED_EDGE('',*,*,#298,.F.);
#184=ORIENTED_EDGE('',*,*,#314,.T.);
#185=ORIENTED_EDGE('',*,*,#299,.T.);
#186=ORIENTED_EDGE('',*,*,#334,.F.);
#187=ORIENTED_EDGE('',*,*,#299,.F.);
#188=ORIENTED_EDGE('',*,*,#313,.T.);
#189=ORIENTED_EDGE('',*,*,#300,.T.);
#190=ORIENTED_EDGE('',*,*,#333,.F.);
#191=ORIENTED_EDGE('',*,*,#300,.F.);
#192=ORIENTED_EDGE('',*,*,#312,.T.);
#193=ORIENTED_EDGE('',*,*,#301,.T.);
#194=ORIENTED_EDGE('',*,*,#332,.F.);
#195=ORIENTED_EDGE('',*,*,#301,.F.);
#196=ORIENTED_EDGE('',*,*,#311,.T.);
#197=ORIENTED_EDGE('',*,*,#302,.T.);
#198=ORIENTED_EDGE('',*,*,#331,.F.);
#199=ORIENTED_EDGE('',*,*,#302,.F.);
#200=ORIENTED_EDGE('',*,*,#310,.T.);
#201=ORIENTED_EDGE('',*,*,#303,.T.);
#202=ORIENTED_EDGE('',*,*,#330,.F.);
#203=ORIENTED_EDGE('',*,*,#303,.F.);
#204=ORIENTED_EDGE('',*,*,#309,.T.);
#205=ORIENTED_EDGE('',*,*,#304,.T.);
#206=ORIENTED_EDGE('',*,*,#329,.F.);
#207=ORIENTED_EDGE('',*,*,#304,.F.);
#208=ORIENTED_EDGE('',*,*,#308,.T.);
#209=ORIENTED_EDGE('',*,*,#305,.T.);
#210=ORIENTED_EDGE('',*,*,#328,.F.);
#211=ORIENTED_EDGE('',*,*,#305,.F.);
#212=ORIENTED_EDGE('',*,*,#307,.T.);
#213=ORIENTED_EDGE('',*,*,#306,.T.);
#214=ORIENTED_EDGE('',*,*,#327,.F.);
#215=ORIENTED_EDGE('',*,*,#307,.F.);
#216=ORIENTED_EDGE('',*,*,#308,.F.);
#217=ORIENTED_EDGE('',*,*,#309,.F.);
#218=ORIENTED_EDGE('',*,*,#310,.F.);
#219=ORIENTED_EDGE('',*,*,#311,.F.);
#220=ORIENTED_EDGE('',*,*,#312,.F.);
#221=ORIENTED_EDGE('',*,*,#313,.F.);
#222=ORIENTED_EDGE('',*,*,#314,.F.);
#223=ORIENTED_EDGE('',*,*,#315,.F.);
#224=ORIENTED_EDGE('',*,*,#316,.F.);
#225=ORIENTED_EDGE('',*,*,#317,.F.);
#226=ORIENTED_EDGE('',*,*,#318,.F.);
#227=ORIENTED_EDGE('',*,*,#319,.F.);
#228=ORIENTED_EDGE('',*,*,#320,.F.);
#229=ORIENTED_EDGE('',*,*,#321,.F.);
#230=ORIENTED_EDGE('',*,*,#322,.F.);
#231=ORIENTED_EDGE('',*,*,#323,.F.);
#232=ORIENTED_EDGE('',*,*,#324,.F.);
#233=ORIENTED_EDGE('',*,*,#325,.F.);
#234=ORIENTED_EDGE('',*,*,#326,.F.);
#235=ORIENTED_EDGE('',*,*,#348,.T.);
#236=ORIENTED_EDGE('',*,*,#347,.T.);
#237=ORIENTED_EDGE('',*,*,#346,.T.);
#238=ORIENTED_EDGE('',*,*,#345,.T.);
#239=ORIENTED_EDGE('',*,*,#344,.T.);
#240=ORIENTED_EDGE('',*,*,#343,.T.);
#241=ORIENTED_EDGE('',*,*,#342,.T.);
#242=ORIENTED_EDGE('',*,*,#341,.T.);
#243=ORIENTED_EDGE('',*,*,#340,.T.);
#244=ORIENTED_EDGE('',*,*,#339,.T.);
#245=ORIENTED_EDGE('',*,*,#338,.T.);
#246=ORIENTED_EDGE('',*,*,#337,.T.);
#247=ORIENTED_EDGE('',*,*,#336,.T.);
#248=ORIENTED_EDGE('',*,*,#335,.T.);
#249=ORIENTED_EDGE('',*,*,#334,.T.);
#250=ORIENTED_EDGE('',*,*,#333,.T.);
#251=ORIENTED_EDGE('',*,*,#332,.T.);
#252=ORIENTED_EDGE('',*,*,#331,.T.);
#253=ORIENTED_EDGE('',*,*,#330,.T.);
#254=ORIENTED_EDGE('',*,*,#329,.T.);
#255=ORIENTED_EDGE('',*,*,#328,.T.);
#256=PLANE('',#506);
#257=PLANE('',#507);
#258=PLANE('',#508);
#259=PLANE('',#509);
#260=PLANE('',#511);
#261=PLANE('',#513);
#262=PLANE('',#516);
#263=PLANE('',#517);
#264=PLANE('',#518);
#265=PLANE('',#522);
#266=PLANE('',#523);
#267=PLANE('',#524);
#268=PLANE('',#525);
#269=PLANE('',#526);
#270=PLANE('',#527);
#271=PLANE('',#528);
#272=CIRCLE('',#492,2.76587755401488);
#273=CIRCLE('',#493,7.54074585875791);
#274=CIRCLE('',#494,19.3691068161454);
#275=CIRCLE('',#495,20.5385098123864);
#276=CIRCLE('',#496,55.6510793729414);
#277=CIRCLE('',#497,23.6451803456521);
#278=CIRCLE('',#498,21.8275907441777);
#279=CIRCLE('',#499,2.76587755401488);
#280=CIRCLE('',#500,7.54074585875791);
#281=CIRCLE('',#501,19.3691068161454);
#282=CIRCLE('',#502,20.5385098123864);
#283=CIRCLE('',#503,55.6510793729414);
#284=CIRCLE('',#504,23.6451803456521);
#285=CIRCLE('',#505,21.8275907441777);
#286=EDGE_CURVE('',#467,#488,#349,.T.);
#287=EDGE_CURVE('',#466,#487,#350,.T.);
#288=EDGE_CURVE('',#465,#486,#351,.T.);
#289=EDGE_CURVE('',#464,#485,#352,.T.);
#290=EDGE_CURVE('',#463,#484,#353,.T.);
#291=EDGE_CURVE('',#462,#483,#354,.T.);
#292=EDGE_CURVE('',#461,#482,#355,.T.);
#293=EDGE_CURVE('',#460,#481,#356,.T.);
#294=EDGE_CURVE('',#459,#480,#357,.T.);
#295=EDGE_CURVE('',#458,#479,#358,.T.);
#296=EDGE_CURVE('',#457,#478,#359,.T.);
#297=EDGE_CURVE('',#456,#477,#360,.T.);
#298=EDGE_CURVE('',#455,#476,#361,.T.);
#299=EDGE_CURVE('',#454,#475,#362,.T.);
#300=EDGE_CURVE('',#453,#474,#363,.T.);
#301=EDGE_CURVE('',#452,#473,#364,.T.);
#302=EDGE_CURVE('',#451,#472,#365,.T.);
#303=EDGE_CURVE('',#450,#471,#366,.T.);
#304=EDGE_CURVE('',#449,#470,#367,.T.);
#305=EDGE_CURVE('',#448,#469,#368,.T.);
#306=EDGE_CURVE('',#447,#468,#369,.T.);
#307=EDGE_CURVE('',#448,#447,#370,.T.);
#308=EDGE_CURVE('',#449,#448,#371,.T.);
#309=EDGE_CURVE('',#450,#449,#372,.T.);
#310=EDGE_CURVE('',#451,#450,#373,.T.);
#311=EDGE_CURVE('',#452,#451,#374,.T.);
#312=EDGE_CURVE('',#453,#452,#272,.T.);
#313=EDGE_CURVE('',#454,#453,#273,.T.);
#314=EDGE_CURVE('',#455,#454,#274,.T.);
#315=EDGE_CURVE('',#456,#455,#375,.T.);
#316=EDGE_CURVE('',#457,#456,#376,.T.);
#317=EDGE_CURVE('',#458,#457,#377,.T.);
#318=EDGE_CURVE('',#459,#458,#275,.T.);
#319=EDGE_CURVE('',#460,#459,#276,.T.);
#320=EDGE_CURVE('',#461,#460,#378,.T.);
#321=EDGE_CURVE('',#462,#461,#277,.T.);
#322=EDGE_CURVE('',#463,#462,#379,.T.);
#323=EDGE_CURVE('',#464,#463,#278,.T.);
#324=EDGE_CURVE('',#465,#464,#380,.T.);
#325=EDGE_CURVE('',#466,#465,#381,.T.);
#326=EDGE_CURVE('',#467,#466,#382,.T.);
#327=EDGE_CURVE('',#447,#467,#383,.T.);
#328=EDGE_CURVE('',#469,#468,#384,.T.);
#329=EDGE_CURVE('',#470,#469,#385,.T.);
#330=EDGE_CURVE('',#471,#470,#386,.T.);
#331=EDGE_CURVE('',#472,#471,#387,.T.);
#332=EDGE_CURVE('',#473,#472,#388,.T.);
#333=EDGE_CURVE('',#474,#473,#279,.T.);
#334=EDGE_CURVE('',#475,#474,#280,.T.);
#335=EDGE_CURVE('',#476,#475,#281,.T.);
#336=EDGE_CURVE('',#477,#476,#389,.T.);
#337=EDGE_CURVE('',#478,#477,#390,.T.);
#338=EDGE_CURVE('',#479,#478,#391,.T.);
#339=EDGE_CURVE('',#480,#479,#282,.T.);
#340=EDGE_CURVE('',#481,#480,#283,.T.);
#341=EDGE_CURVE('',#482,#481,#392,.T.);
#342=EDGE_CURVE('',#483,#482,#284,.T.);
#343=EDGE_CURVE('',#484,#483,#393,.T.);
#344=EDGE_CURVE('',#485,#484,#285,.T.);
#345=EDGE_CURVE('',#486,#485,#394,.T.);
#346=EDGE_CURVE('',#487,#486,#395,.T.);
#347=EDGE_CURVE('',#488,#487,#396,.T.);
#348=EDGE_CURVE('',#468,#488,#397,.T.);
#349=LINE('',#697,#398);
#350=LINE('',#698,#399);
#351=LINE('',#699,#400);
#352=LINE('',#700,#401);
#353=LINE('',#701,#402);
#354=LINE('',#702,#403);
#355=LINE('',#703,#404);
#356=LINE('',#704,#405);
#357=LINE('',#705,#406);
#358=LINE('',#706,#407);
#359=LINE('',#707,#408);
#360=LINE('',#708,#409);
#361=LINE('',#709,#410);
#362=LINE('',#710,#411);
#363=LINE('',#711,#412);
#364=LINE('',#712,#413);
#365=LINE('',#713,#414);
#366=LINE('',#714,#415);
#367=LINE('',#715,#416);
#368=LINE('',#716,#417);
#369=LINE('',#717,#418);
#370=LINE('',#718,#419);
#371=LINE('',#719,#420);
#372=LINE('',#720,#421);
#373=LINE('',#721,#422);
#374=LINE('',#722,#423);
#375=LINE('',#726,#424);
#376=LINE('',#727,#425);
#377=LINE('',#728,#426);
#378=LINE('',#731,#427);
#379=LINE('',#733,#428);
#380=LINE('',#735,#429);
#381=LINE('',#736,#430);
#382=LINE('',#737,#431);
#383=LINE('',#738,#432);
#384=LINE('',#739,#433);
#385=LINE('',#740,#434);
#386=LINE('',#741,#435);
#387=LINE('',#742,#436);
#388=LINE('',#743,#437);
#389=LINE('',#747,#438);
#390=LINE('',#748,#439);
#391=LINE('',#749,#440);
#392=LINE('',#752,#441);
#393=LINE('',#754,#442);
#394=LINE('',#756,#443);
#395=LINE('',#757,#444);
#396=LINE('',#758,#445);
#397=LINE('',#759,#446);
#398=VECTOR('',#531,1.);
#399=VECTOR('',#532,1.);
#400=VECTOR('',#533,1.);
#401=VECTOR('',#534,1.);
#402=VECTOR('',#535,1.);
#403=VECTOR('',#536,1.);
#404=VECTOR('',#537,1.);
#405=VECTOR('',#538,1.);
#406=VECTOR('',#539,1.);
#407=VECTOR('',#540,1.);
#408=VECTOR('',#541,1.);
#409=VECTOR('',#542,1.);
#410=VECTOR('',#543,1.);
#411=VECTOR('',#544,1.);
#412=VECTOR('',#545,1.);
#413=VECTOR('',#546,1.);
#414=VECTOR('',#547,1.);
#415=VECTOR('',#548,1.);
#416=VECTOR('',#549,1.);
#417=VECTOR('',#550,1.);
#418=VECTOR('',#551,1.);
#419=VECTOR('',#552,1.);
#420=VECTOR('',#553,1.);
#421=VECTOR('',#554,1.);
#422=VECTOR('',#555,1.);
#423=VECTOR('',#556,1.);
#424=VECTOR('',#563,1.);
#425=VECTOR('',#564,1.);
#426=VECTOR('',#565,1.);
#427=VECTOR('',#570,1.);
#428=VECTOR('',#573,1.);
#429=VECTOR('',#576,1.);
#430=VECTOR('',#577,1.);
#431=VECTOR('',#578,1.);
#432=VECTOR('',#579,1.);
#433=VECTOR('',#580,1.);
#434=VECTOR('',#581,1.);
#435=VECTOR('',#582,1.);
#436=VECTOR('',#583,1.);
#437=VECTOR('',#584,1.);
#438=VECTOR('',#591,1.);
#439=VECTOR('',#592,1.);
#440=VECTOR('',#593,1.);
#441=VECTOR('',#598,1.);
#442=VECTOR('',#601,1.);
#443=VECTOR('',#604,1.);
#444=VECTOR('',#605,1.);
#445=VECTOR('',#606,1.);
#446=VECTOR('',#607,1.);
#447=VERTEX_POINT('',#655);
#448=VERTEX_POINT('',#656);
#449=VERTEX_POINT('',#657);
#450=VERTEX_POINT('',#658);
#451=VERTEX_POINT('',#659);
#452=VERTEX_POINT('',#660);
#453=VERTEX_POINT('',#661);
#454=VERTEX_POINT('',#662);
#455=VERTEX_POINT('',#663);
#456=VERTEX_POINT('',#664);
#457=VERTEX_POINT('',#665);
#458=VERTEX_POINT('',#666);
#459=VERTEX_POINT('',#667);
#460=VERTEX_POINT('',#668);
#461=VERTEX_POINT('',#669);
#462=VERTEX_POINT('',#670);
#463=VERTEX_POINT('',#671);
#464=VERTEX_POINT('',#672);
#465=VERTEX_POINT('',#673);
#466=VERTEX_POINT('',#674);
#467=VERTEX_POINT('',#675);
#468=VERTEX_POINT('',#676);
#469=VERTEX_POINT('',#677);
#470=VERTEX_POINT('',#678);
#471=VERTEX_POINT('',#679);
#472=VERTEX_POINT('',#680);
#473=VERTEX_POINT('',#681);
#474=VERTEX_POINT('',#682);
#475=VERTEX_POINT('',#683);
#476=VERTEX_POINT('',#684);
#477=VERTEX_POINT('',#685);
#478=VERTEX_POINT('',#686);
#479=VERTEX_POINT('',#687);
#480=VERTEX_POINT('',#688);
#481=VERTEX_POINT('',#689);
#482=VERTEX_POINT('',#690);
#483=VERTEX_POINT('',#691);
#484=VERTEX_POINT('',#692);
#485=VERTEX_POINT('',#693);
#486=VERTEX_POINT('',#694);
#487=VERTEX_POINT('',#695);
#488=VERTEX_POINT('',#696);
#489=SHAPE_DEFINITION_REPRESENTATION(#783,#490);
#490=SHAPE_REPRESENTATION('master',(#491),#785);
#491=AXIS2_PLACEMENT_3D('',#654,#530,#529);
#492=AXIS2_PLACEMENT_3D('',#723,#558,#557);
#493=AXIS2_PLACEMENT_3D('',#724,#560,#559);
#494=AXIS2_PLACEMENT_3D('',#725,#562,#561);
#495=AXIS2_PLACEMENT_3D('',#729,#567,#566);
#496=AXIS2_PLACEMENT_3D('',#730,#569,#568);
#497=AXIS2_PLACEMENT_3D('',#732,#572,#571);
#498=AXIS2_PLACEMENT_3D('',#734,#575,#574);
#499=AXIS2_PLACEMENT_3D('',#744,#586,#585);
#500=AXIS2_PLACEMENT_3D('',#745,#588,#587);
#501=AXIS2_PLACEMENT_3D('',#746,#590,#589);
#502=AXIS2_PLACEMENT_3D('',#750,#595,#594);
#503=AXIS2_PLACEMENT_3D('',#751,#597,#596);
#504=AXIS2_PLACEMENT_3D('',#753,#600,#599);
#505=AXIS2_PLACEMENT_3D('',#755,#603,#602);
#506=AXIS2_PLACEMENT_3D('',#760,#609,#608);
#507=AXIS2_PLACEMENT_3D('',#761,#611,#610);
#508=AXIS2_PLACEMENT_3D('',#762,#613,#612);
#509=AXIS2_PLACEMENT_3D('',#763,#615,#614);
#510=AXIS2_PLACEMENT_3D('',#764,#617,#616);
#511=AXIS2_PLACEMENT_3D('',#765,#619,#618);
#512=AXIS2_PLACEMENT_3D('',#766,#621,#620);
#513=AXIS2_PLACEMENT_3D('',#767,#623,#622);
#514=AXIS2_PLACEMENT_3D('',#768,#625,#624);
#515=AXIS2_PLACEMENT_3D('',#769,#627,#626);
#516=AXIS2_PLACEMENT_3D('',#770,#629,#628);
#517=AXIS2_PLACEMENT_3D('',#771,#631,#630);
#518=AXIS2_PLACEMENT_3D('',#772,#633,#632);
#519=AXIS2_PLACEMENT_3D('',#773,#635,#634);
#520=AXIS2_PLACEMENT_3D('',#774,#637,#636);
#521=AXIS2_PLACEMENT_3D('',#775,#639,#638);
#522=AXIS2_PLACEMENT_3D('',#776,#641,#640);
#523=AXIS2_PLACEMENT_3D('',#777,#643,#642);
#524=AXIS2_PLACEMENT_3D('',#778,#645,#644);
#525=AXIS2_PLACEMENT_3D('',#779,#647,#646);
#526=AXIS2_PLACEMENT_3D('',#780,#649,#648);
#527=AXIS2_PLACEMENT_3D('',#781,#651,#650);
#528=AXIS2_PLACEMENT_3D('',#782,#653,#652);
#529=DIRECTION('',(1.,0.,0.));
#530=DIRECTION('',(0.,0.,1.));
#531=DIRECTION('',(-0.,-1.,-0.));
#532=DIRECTION('',(-0.,-1.,-0.));
#533=DIRECTION('',(-0.,-1.,-0.));
#534=DIRECTION('',(-0.,-1.,-0.));
#535=DIRECTION('',(-0.,-1.,-0.));
#536=DIRECTION('',(-0.,-1.,-0.));
#537=DIRECTION('',(-0.,-1.,-0.));
#538=DIRECTION('',(-0.,-1.,-0.));
#539=DIRECTION('',(-0.,-1.,-0.));
#540=DIRECTION('',(-0.,-1.,-0.));
#541=DIRECTION('',(-0.,-1.,-0.));
#542=DIRECTION('',(-0.,-1.,-0.));
#543=DIRECTION('',(-0.,-1.,-0.));
#544=DIRECTION('',(-0.,-1.,-0.));
#545=DIRECTION('',(-0.,-1.,-0.));
#546=DIRECTION('',(-0.,-1.,-0.));
#547=DIRECTION('',(-0.,-1.,-0.));
#548=DIRECTION('',(-0.,-1.,-0.));
#549=DIRECTION('',(-0.,-1.,-0.));
#550=DIRECTION('',(-0.,-1.,-0.));
#551=DIRECTION('',(-0.,-1.,-0.));
#552=DIRECTION('',(-0.759256593380368,0.,-0.650791383938385));
#553=DIRECTION('',(-1.,-0.,-0.));
#554=DIRECTION('',(0.140113507783409,-0.,0.990135447772995));
#555=DIRECTION('',(1.,-0.,-0.));
#556=DIRECTION('',(-0.,-0.,1.));
#557=DIRECTION('',(0.117198184586679,0.,-0.993108546700504));
#558=DIRECTION('',(0.,-1.,0.));
#559=DIRECTION('',(-0.760616727714696,0.,0.649201196487335));
#560=DIRECTION('',(0.,1.,0.));
#561=DIRECTION('',(-0.560157007615514,-0.,-0.828386459823695));
#562=DIRECTION('',(0.,-1.,0.));
#563=DIRECTION('',(1.,-0.,-0.));
#564=DIRECTION('',(0.713980381597545,-0.,-0.700165705168301));
#565=DIRECTION('',(0.999930485985764,-0.,0.0117908098226886));
#566=DIRECTION('',(-0.854541595184582,0.,0.519382962850526));
#567=DIRECTION('',(0.,1.,0.));
#568=DIRECTION('',(-0.905361478238444,0.,0.424641723953145));
#569=DIRECTION('',(0.,1.,0.));
#570=DIRECTION('',(1.,0.,-1.81898940354586E-013));
#571=DIRECTION('',(0.23003002909833,0.,-0.973183531361388));
#572=DIRECTION('',(0.,-1.,0.));
#573=DIRECTION('',(2.43614652260606E-014,-0.,1.));
#574=DIRECTION('',(-0.985133964756152,0.,0.171787867685194));
#575=DIRECTION('',(0.,1.,0.));
#576=DIRECTION('',(1.,0.,0.));
#577=DIRECTION('',(-0.,-0.,-1.));
#578=DIRECTION('',(-0.737479332036666,-0.,-0.675369702325143));
#579=DIRECTION('',(-1.,-0.,-0.));
#580=DIRECTION('',(-0.759256593380368,0.,-0.650791383938385));
#581=DIRECTION('',(-1.,-0.,-0.));
#582=DIRECTION('',(0.140113507783409,-0.,0.990135447772995));
#583=DIRECTION('',(1.,-0.,-0.));
#584=DIRECTION('',(-0.,-0.,1.));
#585=DIRECTION('',(0.117198184586679,0.,-0.993108546700504));
#586=DIRECTION('',(0.,-1.,0.));
#587=DIRECTION('',(-0.760616727714696,0.,0.649201196487335));
#588=DIRECTION('',(0.,1.,0.));
#589=DIRECTION('',(-0.560157007615514,-0.,-0.828386459823695));
#590=DIRECTION('',(0.,-1.,0.));
#591=DIRECTION('',(1.,-0.,-0.));
#592=DIRECTION('',(0.713980381597545,-0.,-0.700165705168301));
#593=DIRECTION('',(0.999930485985764,-0.,0.0117908098226886));
#594=DIRECTION('',(-0.854541595184582,0.,0.519382962850526));
#595=DIRECTION('',(0.,1.,0.));
#596=DIRECTION('',(-0.905361478238444,0.,0.424641723953145));
#597=DIRECTION('',(0.,1.,0.));
#598=DIRECTION('',(1.,0.,-1.81898940354586E-013));
#599=DIRECTION('',(0.23003002909833,0.,-0.973183531361388));
#600=DIRECTION('',(0.,-1.,0.));
#601=DIRECTION('',(2.43614652260606E-014,-0.,1.));
#602=DIRECTION('',(-0.985133964756152,0.,0.171787867685194));
#603=DIRECTION('',(0.,1.,0.));
#604=DIRECTION('',(1.,0.,0.));
#605=DIRECTION('',(-0.,-0.,-1.));
#606=DIRECTION('',(-0.737479332036666,-0.,-0.675369702325143));
#607=DIRECTION('',(-1.,-0.,-0.));
#608=DIRECTION('',(1.,0.,-0.));
#609=DIRECTION('',(0.,0.,1.));
#610=DIRECTION('',(0.737479332036666,0.,0.675369702325143));
#611=DIRECTION('',(-0.675369702325143,0.,0.737479332036666));
#612=DIRECTION('',(0.,0.,1.));
#613=DIRECTION('',(-1.,0.,0.));
#614=DIRECTION('',(-1.,0.,0.));
#615=DIRECTION('',(0.,0.,-1.));
#616=DIRECTION('',(0.,0.,-1.));
#617=DIRECTION('',(-0.,-1.,-0.));
#618=DIRECTION('',(-2.43614652260606E-014,0.,-1.));
#619=DIRECTION('',(1.,0.,-2.43614652260606E-014));
#620=DIRECTION('',(0.,0.,-1.));
#621=DIRECTION('',(-0.,-1.,-0.));
#622=DIRECTION('',(-1.,0.,1.81898940354586E-013));
#623=DIRECTION('',(-1.81898940354586E-013,0.,-1.));
#624=DIRECTION('',(0.,0.,-1.));
#625=DIRECTION('',(-0.,-1.,-0.));
#626=DIRECTION('',(0.,0.,-1.));
#627=DIRECTION('',(-0.,-1.,-0.));
#628=DIRECTION('',(-0.999930485985764,0.,-0.0117908098226886));
#629=DIRECTION('',(0.0117908098226886,0.,-0.999930485985764));
#630=DIRECTION('',(-0.713980381597545,0.,0.700165705168301));
#631=DIRECTION('',(-0.700165705168301,0.,-0.713980381597545));
#632=DIRECTION('',(-1.,0.,0.));
#633=DIRECTION('',(0.,0.,-1.));
#634=DIRECTION('',(0.,0.,-1.));
#635=DIRECTION('',(-0.,-1.,-0.));
#636=DIRECTION('',(0.,0.,-1.));
#637=DIRECTION('',(-0.,-1.,-0.));
#638=DIRECTION('',(0.,0.,-1.));
#639=DIRECTION('',(-0.,-1.,-0.));
#640=DIRECTION('',(0.,0.,-1.));
#641=DIRECTION('',(1.,-0.,0.));
#642=DIRECTION('',(-1.,0.,0.));
#643=DIRECTION('',(0.,0.,-1.));
#644=DIRECTION('',(-0.140113507783409,0.,-0.990135447772995));
#645=DIRECTION('',(0.990135447772995,0.,-0.140113507783409));
#646=DIRECTION('',(1.,0.,-0.));
#647=DIRECTION('',(0.,0.,1.));
#648=DIRECTION('',(0.759256593380368,0.,0.650791383938385));
#649=DIRECTION('',(-0.650791383938385,0.,0.759256593380368));
#650=DIRECTION('',(0.,-0.,1.));
#651=DIRECTION('',(0.,1.,0.));
#652=DIRECTION('',(0.,-0.,1.));
#653=DIRECTION('',(0.,1.,0.));
#654=CARTESIAN_POINT('',(0.,0.,0.));
#655=CARTESIAN_POINT('',(234.835726,2168.281361,2243.175379));
#656=CARTESIAN_POINT('',(242.214450293831,2168.281361,2249.5));
#657=CARTESIAN_POINT('',(278.004122735016,2168.281361,2249.5));
#658=CARTESIAN_POINT('',(276.826129,2168.281361,2241.175511));
#659=CARTESIAN_POINT('',(272.826129,2168.281361,2241.175511));
#660=CARTESIAN_POINT('',(272.826129,2168.281361,2239.64300507042));
#661=CARTESIAN_POINT('',(270.38440727411,2168.281361,2236.89618843236));
#662=CARTESIAN_POINT('',(265.53255155957,2168.281361,2234.30287050544));
#663=CARTESIAN_POINT('',(239.950344,2168.281361,2230.832212));
#664=CARTESIAN_POINT('',(238.200344,2168.281361,2230.832212));
#665=CARTESIAN_POINT('',(236.644434999999,2168.281361,2232.358016));
#666=CARTESIAN_POINT('',(161.465107620086,2168.281361,2231.47152922501));
#667=CARTESIAN_POINT('',(144.156262345554,2168.281361,2221.60179920577));
#668=CARTESIAN_POINT('',(141.328081,2168.281361,2216.329347));
#669=CARTESIAN_POINT('',(138.828081,2168.281361,2216.329347));
#670=CARTESIAN_POINT('',(120.632271,2168.281361,2194.015033));
#671=CARTESIAN_POINT('',(120.632271,2168.281361,2190.515033));
#672=CARTESIAN_POINT('',(108.963047,2168.281361,2174.777866));
#673=CARTESIAN_POINT('',(103.080454,2168.281361,2174.777866));
#674=CARTESIAN_POINT('',(103.080454,2168.281361,2209.54298927156));
#675=CARTESIAN_POINT('',(139.805809351797,2168.281361,2243.175379));
#676=CARTESIAN_POINT('',(234.835726,168.281361,2243.175379));
#677=CARTESIAN_POINT('',(242.214450293831,168.281361,2249.5));
#678=CARTESIAN_POINT('',(278.004122735016,168.281361,2249.5));
#679=CARTESIAN_POINT('',(276.826129,168.281361,2241.175511));
#680=CARTESIAN_POINT('',(272.826129,168.281361,2241.175511));
#681=CARTESIAN_POINT('',(272.826129,168.281361,2239.64300507042));
#682=CARTESIAN_POINT('',(270.38440727411,168.281361,2236.89618843236));
#683=CARTESIAN_POINT('',(265.53255155957,168.281361,2234.30287050544));
#684=CARTESIAN_POINT('',(239.950344,168.281361,2230.832212));
#685=CARTESIAN_POINT('',(238.200344,168.281361,2230.832212));
#686=CARTESIAN_POINT('',(236.644434999999,168.281361,2232.358016));
#687=CARTESIAN_POINT('',(161.465107620086,168.281361,2231.47152922501));
#688=CARTESIAN_POINT('',(144.156262345554,168.281361,2221.60179920577));
#689=CARTESIAN_POINT('',(141.328081,168.281361,2216.329347));
#690=CARTESIAN_POINT('',(138.828081,168.281361,2216.329347));
#691=CARTESIAN_POINT('',(120.632271,168.281361,2194.015033));
#692=CARTESIAN_POINT('',(120.632271,168.281361,2190.515033));
#693=CARTESIAN_POINT('',(108.963047,168.281361,2174.777866));
#694=CARTESIAN_POINT('',(103.080454,168.281361,2174.777866));
#695=CARTESIAN_POINT('',(103.080454,168.281361,2209.54298927156));
#696=CARTESIAN_POINT('',(139.805809351797,168.281361,2243.175379));
#697=CARTESIAN_POINT('',(139.805809351797,2168.281361,2243.175379));
#698=CARTESIAN_POINT('',(103.080454,2168.281361,2209.54298927156));
#699=CARTESIAN_POINT('',(103.080454,2168.281361,2174.777866));
#700=CARTESIAN_POINT('',(108.963047,2168.281361,2174.777866));
#701=CARTESIAN_POINT('',(120.632271,2168.281361,2190.515033));
#702=CARTESIAN_POINT('',(120.632271,2168.281361,2194.015033));
#703=CARTESIAN_POINT('',(138.828081,2168.281361,2216.329347));
#704=CARTESIAN_POINT('',(141.328081,2168.281361,2216.329347));
#705=CARTESIAN_POINT('',(144.156262345554,2168.281361,2221.60179920577));
#706=CARTESIAN_POINT('',(161.465107620086,2168.281361,2231.47152922501));
#707=CARTESIAN_POINT('',(236.644434999999,2168.281361,2232.358016));
#708=CARTESIAN_POINT('',(238.200344,2168.281361,2230.832212));
#709=CARTESIAN_POINT('',(239.950344,2168.281361,2230.832212));
#710=CARTESIAN_POINT('',(265.53255155957,2168.281361,2234.30287050544));
#711=CARTESIAN_POINT('',(270.38440727411,2168.281361,2236.89618843236));
#712=CARTESIAN_POINT('',(272.826129,2168.281361,2239.64300507042));
#713=CARTESIAN_POINT('',(272.826129,2168.281361,2241.175511));
#714=CARTESIAN_POINT('',(276.826129,2168.281361,2241.175511));
#715=CARTESIAN_POINT('',(278.004122735016,2168.281361,2249.5));
#716=CARTESIAN_POINT('',(242.214450293831,2168.281361,2249.5));
#717=CARTESIAN_POINT('',(234.835726,2168.281361,2243.175379));
#718=CARTESIAN_POINT('',(242.214450293831,2168.281361,2249.5));
#719=CARTESIAN_POINT('',(278.004122735016,2168.281361,2249.5));
#720=CARTESIAN_POINT('',(276.826129,2168.281361,2241.175511));
#721=CARTESIAN_POINT('',(272.826129,2168.281361,2241.175511));
#722=CARTESIAN_POINT('',(272.826129,2168.281361,2239.64300507042));
#723=CARTESIAN_POINT('',(270.060251445985,2168.281361,2239.64300507042));
#724=CARTESIAN_POINT('',(271.268168999187,2168.281361,2229.40740927153));
#725=CARTESIAN_POINT('',(250.800084914317,2168.281361,2246.87731782537));
#726=CARTESIAN_POINT('',(238.200344,2168.281361,2230.832212));
#727=CARTESIAN_POINT('',(236.644434999999,2168.281361,2232.358016));
#728=CARTESIAN_POINT('',(161.465107620086,2168.281361,2231.47152922501));
#729=CARTESIAN_POINT('',(161.707273283326,2168.281361,2210.93444712689));
#730=CARTESIAN_POINT('',(191.712424486651,2168.281361,2192.69757671522));
#731=CARTESIAN_POINT('',(138.828081,2168.281361,2216.329347));
#732=CARTESIAN_POINT('',(115.193169477054,2168.281361,2217.02613310846));
#733=CARTESIAN_POINT('',(120.632271,2168.281361,2190.515033));
#734=CARTESIAN_POINT('',(130.466148010886,2168.281361,2171.02815072935));
#735=CARTESIAN_POINT('',(103.080454,2168.281361,2174.777866));
#736=CARTESIAN_POINT('',(103.080454,2168.281361,2209.54298927156));
#737=CARTESIAN_POINT('',(139.805809351797,2168.281361,2243.175379));
#738=CARTESIAN_POINT('',(234.835726,2168.281361,2243.175379));
#739=CARTESIAN_POINT('',(242.214450293831,168.281361,2249.5));
#740=CARTESIAN_POINT('',(278.004122735016,168.281361,2249.5));
#741=CARTESIAN_POINT('',(276.826129,168.281361,2241.175511));
#742=CARTESIAN_POINT('',(272.826129,168.281361,2241.175511));
#743=CARTESIAN_POINT('',(272.826129,168.281361,2239.64300507042));
#744=CARTESIAN_POINT('',(270.060251445985,168.281361,2239.64300507042));
#745=CARTESIAN_POINT('',(271.268168999187,168.281361,2229.40740927153));
#746=CARTESIAN_POINT('',(250.800084914317,168.281361,2246.87731782537));
#747=CARTESIAN_POINT('',(238.200344,168.281361,2230.832212));
#748=CARTESIAN_POINT('',(236.644434999999,168.281361,2232.358016));
#749=CARTESIAN_POINT('',(161.465107620086,168.281361,2231.47152922501));
#750=CARTESIAN_POINT('',(161.707273283326,168.281361,2210.93444712689));
#751=CARTESIAN_POINT('',(191.712424486651,168.281361,2192.69757671522));
#752=CARTESIAN_POINT('',(138.828081,168.281361,2216.329347));
#753=CARTESIAN_POINT('',(115.193169477054,168.281361,2217.02613310846));
#754=CARTESIAN_POINT('',(120.632271,168.281361,2190.515033));
#755=CARTESIAN_POINT('',(130.466148010886,168.281361,2171.02815072935));
#756=CARTESIAN_POINT('',(103.080454,168.281361,2174.777866));
#757=CARTESIAN_POINT('',(103.080454,168.281361,2209.54298927156));
#758=CARTESIAN_POINT('',(139.805809351797,168.281361,2243.175379));
#759=CARTESIAN_POINT('',(234.835726,168.281361,2243.175379));
#760=CARTESIAN_POINT('',(234.835726,2168.281361,2243.175379));
#761=CARTESIAN_POINT('',(139.805809351797,2168.281361,2243.175379));
#762=CARTESIAN_POINT('',(103.080454,2168.281361,2209.54298927156));
#763=CARTESIAN_POINT('',(103.080454,2168.281361,2174.777866));
#764=CARTESIAN_POINT('',(130.466148010886,2168.281361,2171.02815072935));
#765=CARTESIAN_POINT('',(120.632271,2168.281361,2190.515033));
#766=CARTESIAN_POINT('',(115.193169477054,2168.281361,2217.02613310846));
#767=CARTESIAN_POINT('',(138.828081,2168.281361,2216.329347));
#768=CARTESIAN_POINT('',(191.712424486651,2168.281361,2192.69757671522));
#769=CARTESIAN_POINT('',(161.707273283326,2168.281361,2210.93444712689));
#770=CARTESIAN_POINT('',(161.465107620086,2168.281361,2231.47152922501));
#771=CARTESIAN_POINT('',(236.644434999999,2168.281361,2232.358016));
#772=CARTESIAN_POINT('',(238.200344,2168.281361,2230.832212));
#773=CARTESIAN_POINT('',(250.800084914317,2168.281361,2246.87731782537));
#774=CARTESIAN_POINT('',(271.268168999187,2168.281361,2229.40740927153));
#775=CARTESIAN_POINT('',(270.060251445985,2168.281361,2239.64300507042));
#776=CARTESIAN_POINT('',(272.826129,2168.281361,2239.64300507042));
#777=CARTESIAN_POINT('',(272.826129,2168.281361,2241.175511));
#778=CARTESIAN_POINT('',(276.826129,2168.281361,2241.175511));
#779=CARTESIAN_POINT('',(278.004122735016,2168.281361,2249.5));
#780=CARTESIAN_POINT('',(242.214450293831,2168.281361,2249.5));
#781=CARTESIAN_POINT('',(130.466148010886,2168.281361,2171.02815072935));
#782=CARTESIAN_POINT('',(130.466148010886,168.281361,2171.02815072935));
#783=PRODUCT_DEFINITION_SHAPE('','',#784);
#784=PRODUCT_DEFINITION('','',#796,#801);
#785=(
GEOMETRIC_REPRESENTATION_CONTEXT(3)
GLOBAL_UNCERTAINTY_ASSIGNED_CONTEXT((#786))
GLOBAL_UNIT_ASSIGNED_CONTEXT((#788,#787,#791))
REPRESENTATION_CONTEXT('','')
);
#786=UNCERTAINTY_MEASURE_WITH_UNIT(LENGTH_MEASURE(0.001),#788,'','tolerance');
#787=(
CONVERSION_BASED_UNIT('',#789)
NAMED_UNIT(#795)
PLANE_ANGLE_UNIT()
);
#788=(
CONVERSION_BASED_UNIT('',#790)
LENGTH_UNIT()
NAMED_UNIT(#794)
);
#789=PLANE_ANGLE_MEASURE_WITH_UNIT(PLANE_ANGLE_MEASURE(0.0174532925199433),
#792);
#790=LENGTH_MEASURE_WITH_UNIT(LENGTH_MEASURE(1.),#793);
#791=(
NAMED_UNIT(*)
SI_UNIT($,.STERADIAN.)
SOLID_ANGLE_UNIT()
);
#792=(
NAMED_UNIT(*)
PLANE_ANGLE_UNIT()
SI_UNIT($,.RADIAN.)
);
#793=(
LENGTH_UNIT()
NAMED_UNIT(*)
SI_UNIT(.MILLI.,.METRE.)
);
#794=DIMENSIONAL_EXPONENTS(1.,0.,0.,0.,0.,0.,0.);
#795=DIMENSIONAL_EXPONENTS(0.,0.,0.,0.,0.,0.,0.);
#796=PRODUCT_DEFINITION_FORMATION_WITH_SPECIFIED_SOURCE('','',#799,.NOT_KNOWN.
);
#797=PRODUCT_CATEGORY_RELATIONSHIP('','',#802,#798);
#798=PRODUCT_RELATED_PRODUCT_CATEGORY('assembly','',(#799));
#799=PRODUCT('','master','',(#800));
#800=PRODUCT_CONTEXT('',#804,'');
#801=PRODUCT_DEFINITION_CONTEXT('',#804,'part_definition');
#802=PRODUCT_CATEGORY('part','');
#803=APPLICATION_PROTOCOL_DEFINITION('international standard',
'automotive_design_cc2',1994,#804);
#804=APPLICATION_CONTEXT(
'configuration controlled 3D designs of mechanical parts and assemblies');
ENDSEC;
END-ISO-10303-21;
35134