ISO-10303-21;
HEADER;
/* Generated by software using Delcam plc STEP library */

FILE_DESCRIPTION(
/* description */ ('AP-214 File'),
/* implementation_level */ '2;1');

FILE_NAME(
/* name */ 'D630',
/* time_stamp */ 'Tue Oct 03 09:39:04 2017',
/* author */ (''),
/* organization */ (''),
/* preprocessor_version */ 'DELCAM STEP V1',
/* originating_system */ 'Exchange7.1.0006',
/* authorisation */ '');

FILE_SCHEMA (('AUTOMOTIVE_DESIGN'));
ENDSEC;
DATA;
#10=PRESENTATION_STYLE_ASSIGNMENT((#20));
#11=PRESENTATION_STYLE_ASSIGNMENT((#21));
#12=SURFACE_SIDE_STYLE('',(#14));
#13=SURFACE_SIDE_STYLE('',(#15));
#14=SURFACE_STYLE_FILL_AREA(#16);
#15=SURFACE_STYLE_FILL_AREA(#17);
#16=FILL_AREA_STYLE('',(#18));
#17=FILL_AREA_STYLE('',(#19));
#18=FILL_AREA_STYLE_COLOUR('',#43);
#19=FILL_AREA_STYLE_COLOUR('',#44);
#20=SURFACE_STYLE_USAGE(.BOTH.,#12);
#21=SURFACE_STYLE_USAGE(.BOTH.,#13);
#22=STYLED_ITEM('',(#10),#62);
#23=STYLED_ITEM('',(#10),#63);
#24=STYLED_ITEM('',(#10),#64);
#25=STYLED_ITEM('',(#10),#65);
#26=STYLED_ITEM('',(#10),#66);
#27=STYLED_ITEM('',(#10),#67);
#28=STYLED_ITEM('',(#10),#68);
#29=STYLED_ITEM('',(#10),#69);
#30=STYLED_ITEM('',(#10),#70);
#31=STYLED_ITEM('',(#10),#71);
#32=STYLED_ITEM('',(#10),#72);
#33=STYLED_ITEM('',(#10),#73);
#34=STYLED_ITEM('',(#10),#74);
#35=STYLED_ITEM('',(#10),#75);
#36=STYLED_ITEM('',(#10),#76);
#37=STYLED_ITEM('',(#10),#77);
#38=STYLED_ITEM('',(#10),#78);
#39=STYLED_ITEM('',(#10),#79);
#40=STYLED_ITEM('',(#10),#80);
#41=STYLED_ITEM('',(#10),#81);
#42=STYLED_ITEM('',(#11),#50);
#43=COLOUR_RGB('',0.,0.,0.);
#44=COLOUR_RGB('rgb_colour_1',0.4,0.4,0.4);
#45=MECHANICAL_DESIGN_GEOMETRIC_PRESENTATION_REPRESENTATION('',(#22,#23,#24,
#25,#26,#27,#28,#29,#30,#31,#32,#33,#34,#35,#36,#37,#38,#39,#40,#41,#42),#691
);
#46=PRESENTATION_LAYER_ASSIGNMENT('50','BL140',(#62,#63,#64,#65,#66,#67,#68,
#69,#70,#71,#72,#73,#74,#75,#76,#77,#78,#79,#80,#81,#50));
#47=SHAPE_REPRESENTATION_RELATIONSHIP('','',#416,#48);
#48=ADVANCED_BREP_SHAPE_REPRESENTATION('',(#49),#691);
#49=MANIFOLD_SOLID_BREP('8102',#50);
#50=CLOSED_SHELL('',(#62,#63,#64,#65,#66,#67,#68,#69,#70,#71,#72,#73,#74,#75,
#76,#77,#78,#79,#80,#81));
#51=CYLINDRICAL_SURFACE('',#444,4.5738970716156);
#52=CYLINDRICAL_SURFACE('',#445,8.554111543273);
#53=CYLINDRICAL_SURFACE('',#447,84.171052181501);
#54=CYLINDRICAL_SURFACE('',#448,39.8369044272443);
#55=CYLINDRICAL_SURFACE('',#449,818.618934551741);
#56=CYLINDRICAL_SURFACE('',#450,40.6569556513019);
#57=CYLINDRICAL_SURFACE('',#451,39.5177511304364);
#58=CYLINDRICAL_SURFACE('',#452,1.03284353442386);
#59=CYLINDRICAL_SURFACE('',#454,2.2671787312566);
#60=CYLINDRICAL_SURFACE('',#455,7.89436282135553);
#61=CYLINDRICAL_SURFACE('',#456,4.20103363622835);
#62=ADVANCED_FACE('',(#82),#230,.T.);
#63=ADVANCED_FACE('',(#83),#231,.T.);
#64=ADVANCED_FACE('',(#84),#232,.T.);
#65=ADVANCED_FACE('',(#85),#233,.T.);
#66=ADVANCED_FACE('',(#86),#51,.T.);
#67=ADVANCED_FACE('',(#87),#52,.T.);
#68=ADVANCED_FACE('',(#88),#234,.T.);
#69=ADVANCED_FACE('',(#89),#53,.F.);
#70=ADVANCED_FACE('',(#90),#54,.F.);
#71=ADVANCED_FACE('',(#91),#55,.F.);
#72=ADVANCED_FACE('',(#92),#56,.T.);
#73=ADVANCED_FACE('',(#93),#57,.T.);
#74=ADVANCED_FACE('',(#94),#58,.F.);
#75=ADVANCED_FACE('',(#95),#235,.T.);
#76=ADVANCED_FACE('',(#96),#59,.T.);
#77=ADVANCED_FACE('',(#97),#60,.F.);
#78=ADVANCED_FACE('',(#98),#61,.T.);
#79=ADVANCED_FACE('',(#99),#236,.T.);
#80=ADVANCED_FACE('',(#100),#237,.F.);
#81=ADVANCED_FACE('',(#101),#238,.T.);
#82=FACE_OUTER_BOUND('',#102,.T.);
#83=FACE_OUTER_BOUND('',#103,.T.);
#84=FACE_OUTER_BOUND('',#104,.T.);
#85=FACE_OUTER_BOUND('',#105,.T.);
#86=FACE_OUTER_BOUND('',#106,.T.);
#87=FACE_OUTER_BOUND('',#107,.T.);
#88=FACE_OUTER_BOUND('',#108,.T.);
#89=FACE_OUTER_BOUND('',#109,.T.);
#90=FACE_OUTER_BOUND('',#110,.T.);
#91=FACE_OUTER_BOUND('',#111,.T.);
#92=FACE_OUTER_BOUND('',#112,.T.);
#93=FACE_OUTER_BOUND('',#113,.T.);
#94=FACE_OUTER_BOUND('',#114,.T.);
#95=FACE_OUTER_BOUND('',#115,.T.);
#96=FACE_OUTER_BOUND('',#116,.T.);
#97=FACE_OUTER_BOUND('',#117,.T.);
#98=FACE_OUTER_BOUND('',#118,.T.);
#99=FACE_OUTER_BOUND('',#119,.T.);
#100=FACE_OUTER_BOUND('',#120,.T.);
#101=FACE_OUTER_BOUND('',#121,.T.);
#102=EDGE_LOOP('',(#122,#123,#124,#125));
#103=EDGE_LOOP('',(#126,#127,#128,#129));
#104=EDGE_LOOP('',(#130,#131,#132,#133));
#105=EDGE_LOOP('',(#134,#135,#136,#137));
#106=EDGE_LOOP('',(#138,#139,#140,#141));
#107=EDGE_LOOP('',(#142,#143,#144,#145));
#108=EDGE_LOOP('',(#146,#147,#148,#149));
#109=EDGE_LOOP('',(#150,#151,#152,#153));
#110=EDGE_LOOP('',(#154,#155,#156,#157));
#111=EDGE_LOOP('',(#158,#159,#160,#161));
#112=EDGE_LOOP('',(#162,#163,#164,#165));
#113=EDGE_LOOP('',(#166,#167,#168,#169));
#114=EDGE_LOOP('',(#170,#171,#172,#173));
#115=EDGE_LOOP('',(#174,#175,#176,#177));
#116=EDGE_LOOP('',(#178,#179,#180,#181));
#117=EDGE_LOOP('',(#182,#183,#184,#185));
#118=EDGE_LOOP('',(#186,#187,#188,#189));
#119=EDGE_LOOP('',(#190,#191,#192,#193));
#120=EDGE_LOOP('',(#194,#195,#196,#197,#198,#199,#200,#201,#202,#203,#204,#205
,#206,#207,#208,#209,#210,#211));
#121=EDGE_LOOP('',(#212,#213,#214,#215,#216,#217,#218,#219,#220,#221,#222,#223
,#224,#225,#226,#227,#228,#229));
#122=ORIENTED_EDGE('',*,*,#314,.F.);
#123=ORIENTED_EDGE('',*,*,#278,.F.);
#124=ORIENTED_EDGE('',*,*,#296,.T.);
#125=ORIENTED_EDGE('',*,*,#261,.T.);
#126=ORIENTED_EDGE('',*,*,#313,.F.);
#127=ORIENTED_EDGE('',*,*,#261,.F.);
#128=ORIENTED_EDGE('',*,*,#295,.T.);
#129=ORIENTED_EDGE('',*,*,#262,.T.);
#130=ORIENTED_EDGE('',*,*,#312,.F.);
#131=ORIENTED_EDGE('',*,*,#262,.F.);
#132=ORIENTED_EDGE('',*,*,#294,.T.);
#133=ORIENTED_EDGE('',*,*,#263,.T.);
#134=ORIENTED_EDGE('',*,*,#311,.F.);
#135=ORIENTED_EDGE('',*,*,#263,.F.);
#136=ORIENTED_EDGE('',*,*,#293,.T.);
#137=ORIENTED_EDGE('',*,*,#264,.T.);
#138=ORIENTED_EDGE('',*,*,#310,.F.);
#139=ORIENTED_EDGE('',*,*,#264,.F.);
#140=ORIENTED_EDGE('',*,*,#292,.T.);
#141=ORIENTED_EDGE('',*,*,#265,.T.);
#142=ORIENTED_EDGE('',*,*,#309,.F.);
#143=ORIENTED_EDGE('',*,*,#265,.F.);
#144=ORIENTED_EDGE('',*,*,#291,.T.);
#145=ORIENTED_EDGE('',*,*,#266,.T.);
#146=ORIENTED_EDGE('',*,*,#308,.F.);
#147=ORIENTED_EDGE('',*,*,#266,.F.);
#148=ORIENTED_EDGE('',*,*,#290,.T.);
#149=ORIENTED_EDGE('',*,*,#267,.T.);
#150=ORIENTED_EDGE('',*,*,#307,.F.);
#151=ORIENTED_EDGE('',*,*,#267,.F.);
#152=ORIENTED_EDGE('',*,*,#289,.T.);
#153=ORIENTED_EDGE('',*,*,#268,.T.);
#154=ORIENTED_EDGE('',*,*,#306,.F.);
#155=ORIENTED_EDGE('',*,*,#268,.F.);
#156=ORIENTED_EDGE('',*,*,#288,.T.);
#157=ORIENTED_EDGE('',*,*,#269,.T.);
#158=ORIENTED_EDGE('',*,*,#305,.F.);
#159=ORIENTED_EDGE('',*,*,#269,.F.);
#160=ORIENTED_EDGE('',*,*,#287,.T.);
#161=ORIENTED_EDGE('',*,*,#270,.T.);
#162=ORIENTED_EDGE('',*,*,#304,.F.);
#163=ORIENTED_EDGE('',*,*,#270,.F.);
#164=ORIENTED_EDGE('',*,*,#286,.T.);
#165=ORIENTED_EDGE('',*,*,#271,.T.);
#166=ORIENTED_EDGE('',*,*,#303,.F.);
#167=ORIENTED_EDGE('',*,*,#271,.F.);
#168=ORIENTED_EDGE('',*,*,#285,.T.);
#169=ORIENTED_EDGE('',*,*,#272,.T.);
#170=ORIENTED_EDGE('',*,*,#302,.F.);
#171=ORIENTED_EDGE('',*,*,#272,.F.);
#172=ORIENTED_EDGE('',*,*,#284,.T.);
#173=ORIENTED_EDGE('',*,*,#273,.T.);
#174=ORIENTED_EDGE('',*,*,#301,.F.);
#175=ORIENTED_EDGE('',*,*,#273,.F.);
#176=ORIENTED_EDGE('',*,*,#283,.T.);
#177=ORIENTED_EDGE('',*,*,#274,.T.);
#178=ORIENTED_EDGE('',*,*,#300,.F.);
#179=ORIENTED_EDGE('',*,*,#274,.F.);
#180=ORIENTED_EDGE('',*,*,#282,.T.);
#181=ORIENTED_EDGE('',*,*,#275,.T.);
#182=ORIENTED_EDGE('',*,*,#299,.F.);
#183=ORIENTED_EDGE('',*,*,#275,.F.);
#184=ORIENTED_EDGE('',*,*,#281,.T.);
#185=ORIENTED_EDGE('',*,*,#276,.T.);
#186=ORIENTED_EDGE('',*,*,#298,.F.);
#187=ORIENTED_EDGE('',*,*,#276,.F.);
#188=ORIENTED_EDGE('',*,*,#280,.T.);
#189=ORIENTED_EDGE('',*,*,#277,.T.);
#190=ORIENTED_EDGE('',*,*,#297,.F.);
#191=ORIENTED_EDGE('',*,*,#277,.F.);
#192=ORIENTED_EDGE('',*,*,#279,.T.);
#193=ORIENTED_EDGE('',*,*,#278,.T.);
#194=ORIENTED_EDGE('',*,*,#296,.F.);
#195=ORIENTED_EDGE('',*,*,#279,.F.);
#196=ORIENTED_EDGE('',*,*,#280,.F.);
#197=ORIENTED_EDGE('',*,*,#281,.F.);
#198=ORIENTED_EDGE('',*,*,#282,.F.);
#199=ORIENTED_EDGE('',*,*,#283,.F.);
#200=ORIENTED_EDGE('',*,*,#284,.F.);
#201=ORIENTED_EDGE('',*,*,#285,.F.);
#202=ORIENTED_EDGE('',*,*,#286,.F.);
#203=ORIENTED_EDGE('',*,*,#287,.F.);
#204=ORIENTED_EDGE('',*,*,#288,.F.);
#205=ORIENTED_EDGE('',*,*,#289,.F.);
#206=ORIENTED_EDGE('',*,*,#290,.F.);
#207=ORIENTED_EDGE('',*,*,#291,.F.);
#208=ORIENTED_EDGE('',*,*,#292,.F.);
#209=ORIENTED_EDGE('',*,*,#293,.F.);
#210=ORIENTED_EDGE('',*,*,#294,.F.);
#211=ORIENTED_EDGE('',*,*,#295,.F.);
#212=ORIENTED_EDGE('',*,*,#314,.T.);
#213=ORIENTED_EDGE('',*,*,#313,.T.);
#214=ORIENTED_EDGE('',*,*,#312,.T.);
#215=ORIENTED_EDGE('',*,*,#311,.T.);
#216=ORIENTED_EDGE('',*,*,#310,.T.);
#217=ORIENTED_EDGE('',*,*,#309,.T.);
#218=ORIENTED_EDGE('',*,*,#308,.T.);
#219=ORIENTED_EDGE('',*,*,#307,.T.);
#220=ORIENTED_EDGE('',*,*,#306,.T.);
#221=ORIENTED_EDGE('',*,*,#305,.T.);
#222=ORIENTED_EDGE('',*,*,#304,.T.);
#223=ORIENTED_EDGE('',*,*,#303,.T.);
#224=ORIENTED_EDGE('',*,*,#302,.T.);
#225=ORIENTED_EDGE('',*,*,#301,.T.);
#226=ORIENTED_EDGE('',*,*,#300,.T.);
#227=ORIENTED_EDGE('',*,*,#299,.T.);
#228=ORIENTED_EDGE('',*,*,#298,.T.);
#229=ORIENTED_EDGE('',*,*,#297,.T.);
#230=PLANE('',#440);
#231=PLANE('',#441);
#232=PLANE('',#442);
#233=PLANE('',#443);
#234=PLANE('',#446);
#235=PLANE('',#453);
#236=PLANE('',#457);
#237=PLANE('',#458);
#238=PLANE('',#459);
#239=CIRCLE('',#418,4.20103363622835);
#240=CIRCLE('',#419,7.89436282135553);
#241=CIRCLE('',#420,2.2671787312566);
#242=CIRCLE('',#421,1.03284353442386);
#243=CIRCLE('',#422,39.5177511304364);
#244=CIRCLE('',#423,40.6569556513019);
#245=CIRCLE('',#424,818.618934551741);
#246=CIRCLE('',#425,39.8369044272443);
#247=CIRCLE('',#426,84.171052181501);
#248=CIRCLE('',#427,8.554111543273);
#249=CIRCLE('',#428,4.5738970716156);
#250=CIRCLE('',#429,4.20103363622835);
#251=CIRCLE('',#430,7.89436282135553);
#252=CIRCLE('',#431,2.2671787312566);
#253=CIRCLE('',#432,1.03284353442386);
#254=CIRCLE('',#433,39.5177511304364);
#255=CIRCLE('',#434,40.6569556513019);
#256=CIRCLE('',#435,818.618934551741);
#257=CIRCLE('',#436,39.8369044272443);
#258=CIRCLE('',#437,84.171052181501);
#259=CIRCLE('',#438,8.554111543273);
#260=CIRCLE('',#439,4.5738970716156);
#261=EDGE_CURVE('',#396,#414,#315,.T.);
#262=EDGE_CURVE('',#395,#413,#316,.T.);
#263=EDGE_CURVE('',#394,#412,#317,.T.);
#264=EDGE_CURVE('',#393,#411,#318,.T.);
#265=EDGE_CURVE('',#392,#410,#319,.T.);
#266=EDGE_CURVE('',#391,#409,#320,.T.);
#267=EDGE_CURVE('',#390,#408,#321,.T.);
#268=EDGE_CURVE('',#389,#407,#322,.T.);
#269=EDGE_CURVE('',#388,#406,#323,.T.);
#270=EDGE_CURVE('',#387,#405,#324,.T.);
#271=EDGE_CURVE('',#386,#404,#325,.T.);
#272=EDGE_CURVE('',#385,#403,#326,.T.);
#273=EDGE_CURVE('',#384,#402,#327,.T.);
#274=EDGE_CURVE('',#383,#401,#328,.T.);
#275=EDGE_CURVE('',#382,#400,#329,.T.);
#276=EDGE_CURVE('',#381,#399,#330,.T.);
#277=EDGE_CURVE('',#380,#398,#331,.T.);
#278=EDGE_CURVE('',#379,#397,#332,.T.);
#279=EDGE_CURVE('',#380,#379,#333,.T.);
#280=EDGE_CURVE('',#381,#380,#239,.T.);
#281=EDGE_CURVE('',#382,#381,#240,.T.);
#282=EDGE_CURVE('',#383,#382,#241,.T.);
#283=EDGE_CURVE('',#384,#383,#334,.T.);
#284=EDGE_CURVE('',#385,#384,#242,.T.);
#285=EDGE_CURVE('',#386,#385,#243,.T.);
#286=EDGE_CURVE('',#387,#386,#244,.T.);
#287=EDGE_CURVE('',#388,#387,#245,.T.);
#288=EDGE_CURVE('',#389,#388,#246,.T.);
#289=EDGE_CURVE('',#390,#389,#247,.T.);
#290=EDGE_CURVE('',#391,#390,#335,.T.);
#291=EDGE_CURVE('',#392,#391,#248,.T.);
#292=EDGE_CURVE('',#393,#392,#249,.T.);
#293=EDGE_CURVE('',#394,#393,#336,.T.);
#294=EDGE_CURVE('',#395,#394,#337,.T.);
#295=EDGE_CURVE('',#396,#395,#338,.T.);
#296=EDGE_CURVE('',#379,#396,#339,.T.);
#297=EDGE_CURVE('',#398,#397,#340,.T.);
#298=EDGE_CURVE('',#399,#398,#250,.T.);
#299=EDGE_CURVE('',#400,#399,#251,.T.);
#300=EDGE_CURVE('',#401,#400,#252,.T.);
#301=EDGE_CURVE('',#402,#401,#341,.T.);
#302=EDGE_CURVE('',#403,#402,#253,.T.);
#303=EDGE_CURVE('',#404,#403,#254,.T.);
#304=EDGE_CURVE('',#405,#404,#255,.T.);
#305=EDGE_CURVE('',#406,#405,#256,.T.);
#306=EDGE_CURVE('',#407,#406,#257,.T.);
#307=EDGE_CURVE('',#408,#407,#258,.T.);
#308=EDGE_CURVE('',#409,#408,#342,.T.);
#309=EDGE_CURVE('',#410,#409,#259,.T.);
#310=EDGE_CURVE('',#411,#410,#260,.T.);
#311=EDGE_CURVE('',#412,#411,#343,.T.);
#312=EDGE_CURVE('',#413,#412,#344,.T.);
#313=EDGE_CURVE('',#414,#413,#345,.T.);
#314=EDGE_CURVE('',#397,#414,#346,.T.);
#315=LINE('',#615,#347);
#316=LINE('',#616,#348);
#317=LINE('',#617,#349);
#318=LINE('',#618,#350);
#319=LINE('',#619,#351);
#320=LINE('',#620,#352);
#321=LINE('',#621,#353);
#322=LINE('',#622,#354);
#323=LINE('',#623,#355);
#324=LINE('',#624,#356);
#325=LINE('',#625,#357);
#326=LINE('',#626,#358);
#327=LINE('',#627,#359);
#328=LINE('',#628,#360);
#329=LINE('',#629,#361);
#330=LINE('',#630,#362);
#331=LINE('',#631,#363);
#332=LINE('',#632,#364);
#333=LINE('',#633,#365);
#334=LINE('',#637,#366);
#335=LINE('',#644,#367);
#336=LINE('',#647,#368);
#337=LINE('',#648,#369);
#338=LINE('',#649,#370);
#339=LINE('',#650,#371);
#340=LINE('',#651,#372);
#341=LINE('',#655,#373);
#342=LINE('',#662,#374);
#343=LINE('',#665,#375);
#344=LINE('',#666,#376);
#345=LINE('',#667,#377);
#346=LINE('',#668,#378);
#347=VECTOR('',#462,1.);
#348=VECTOR('',#463,1.);
#349=VECTOR('',#464,1.);
#350=VECTOR('',#465,1.);
#351=VECTOR('',#466,1.);
#352=VECTOR('',#467,1.);
#353=VECTOR('',#468,1.);
#354=VECTOR('',#469,1.);
#355=VECTOR('',#470,1.);
#356=VECTOR('',#471,1.);
#357=VECTOR('',#472,1.);
#358=VECTOR('',#473,1.);
#359=VECTOR('',#474,1.);
#360=VECTOR('',#475,1.);
#361=VECTOR('',#476,1.);
#362=VECTOR('',#477,1.);
#363=VECTOR('',#478,1.);
#364=VECTOR('',#479,1.);
#365=VECTOR('',#480,1.);
#366=VECTOR('',#487,1.);
#367=VECTOR('',#500,1.);
#368=VECTOR('',#505,1.);
#369=VECTOR('',#506,1.);
#370=VECTOR('',#507,1.);
#371=VECTOR('',#508,1.);
#372=VECTOR('',#509,1.);
#373=VECTOR('',#516,1.);
#374=VECTOR('',#529,1.);
#375=VECTOR('',#534,1.);
#376=VECTOR('',#535,1.);
#377=VECTOR('',#536,1.);
#378=VECTOR('',#537,1.);
#379=VERTEX_POINT('',#579);
#380=VERTEX_POINT('',#580);
#381=VERTEX_POINT('',#581);
#382=VERTEX_POINT('',#582);
#383=VERTEX_POINT('',#583);
#384=VERTEX_POINT('',#584);
#385=VERTEX_POINT('',#585);
#386=VERTEX_POINT('',#586);
#387=VERTEX_POINT('',#587);
#388=VERTEX_POINT('',#588);
#389=VERTEX_POINT('',#589);
#390=VERTEX_POINT('',#590);
#391=VERTEX_POINT('',#591);
#392=VERTEX_POINT('',#592);
#393=VERTEX_POINT('',#593);
#394=VERTEX_POINT('',#594);
#395=VERTEX_POINT('',#595);
#396=VERTEX_POINT('',#596);
#397=VERTEX_POINT('',#597);
#398=VERTEX_POINT('',#598);
#399=VERTEX_POINT('',#599);
#400=VERTEX_POINT('',#600);
#401=VERTEX_POINT('',#601);
#402=VERTEX_POINT('',#602);
#403=VERTEX_POINT('',#603);
#404=VERTEX_POINT('',#604);
#405=VERTEX_POINT('',#605);
#406=VERTEX_POINT('',#606);
#407=VERTEX_POINT('',#607);
#408=VERTEX_POINT('',#608);
#409=VERTEX_POINT('',#609);
#410=VERTEX_POINT('',#610);
#411=VERTEX_POINT('',#611);
#412=VERTEX_POINT('',#612);
#413=VERTEX_POINT('',#613);
#414=VERTEX_POINT('',#614);
#415=SHAPE_DEFINITION_REPRESENTATION(#689,#416);
#416=SHAPE_REPRESENTATION('master',(#417),#691);
#417=AXIS2_PLACEMENT_3D('',#578,#461,#460);
#418=AXIS2_PLACEMENT_3D('',#634,#482,#481);
#419=AXIS2_PLACEMENT_3D('',#635,#484,#483);
#420=AXIS2_PLACEMENT_3D('',#636,#486,#485);
#421=AXIS2_PLACEMENT_3D('',#638,#489,#488);
#422=AXIS2_PLACEMENT_3D('',#639,#491,#490);
#423=AXIS2_PLACEMENT_3D('',#640,#493,#492);
#424=AXIS2_PLACEMENT_3D('',#641,#495,#494);
#425=AXIS2_PLACEMENT_3D('',#642,#497,#496);
#426=AXIS2_PLACEMENT_3D('',#643,#499,#498);
#427=AXIS2_PLACEMENT_3D('',#645,#502,#501);
#428=AXIS2_PLACEMENT_3D('',#646,#504,#503);
#429=AXIS2_PLACEMENT_3D('',#652,#511,#510);
#430=AXIS2_PLACEMENT_3D('',#653,#513,#512);
#431=AXIS2_PLACEMENT_3D('',#654,#515,#514);
#432=AXIS2_PLACEMENT_3D('',#656,#518,#517);
#433=AXIS2_PLACEMENT_3D('',#657,#520,#519);
#434=AXIS2_PLACEMENT_3D('',#658,#522,#521);
#435=AXIS2_PLACEMENT_3D('',#659,#524,#523);
#436=AXIS2_PLACEMENT_3D('',#660,#526,#525);
#437=AXIS2_PLACEMENT_3D('',#661,#528,#527);
#438=AXIS2_PLACEMENT_3D('',#663,#531,#530);
#439=AXIS2_PLACEMENT_3D('',#664,#533,#532);
#440=AXIS2_PLACEMENT_3D('',#669,#539,#538);
#441=AXIS2_PLACEMENT_3D('',#670,#541,#540);
#442=AXIS2_PLACEMENT_3D('',#671,#543,#542);
#443=AXIS2_PLACEMENT_3D('',#672,#545,#544);
#444=AXIS2_PLACEMENT_3D('',#673,#547,#546);
#445=AXIS2_PLACEMENT_3D('',#674,#549,#548);
#446=AXIS2_PLACEMENT_3D('',#675,#551,#550);
#447=AXIS2_PLACEMENT_3D('',#676,#553,#552);
#448=AXIS2_PLACEMENT_3D('',#677,#555,#554);
#449=AXIS2_PLACEMENT_3D('',#678,#557,#556);
#450=AXIS2_PLACEMENT_3D('',#679,#559,#558);
#451=AXIS2_PLACEMENT_3D('',#680,#561,#560);
#452=AXIS2_PLACEMENT_3D('',#681,#563,#562);
#453=AXIS2_PLACEMENT_3D('',#682,#565,#564);
#454=AXIS2_PLACEMENT_3D('',#683,#567,#566);
#455=AXIS2_PLACEMENT_3D('',#684,#569,#568);
#456=AXIS2_PLACEMENT_3D('',#685,#571,#570);
#457=AXIS2_PLACEMENT_3D('',#686,#573,#572);
#458=AXIS2_PLACEMENT_3D('',#687,#575,#574);
#459=AXIS2_PLACEMENT_3D('',#688,#577,#576);
#460=DIRECTION('',(1.,0.,0.));
#461=DIRECTION('',(0.,0.,1.));
#462=DIRECTION('',(7.68389669245457E-020,1.,-1.17096922947166E-019));
#463=DIRECTION('',(7.68389669245457E-020,1.,-1.17096922947166E-019));
#464=DIRECTION('',(7.68389669245457E-020,1.,-1.17096922947166E-019));
#465=DIRECTION('',(7.68389669245457E-020,1.,-1.17096922947166E-019));
#466=DIRECTION('',(7.68389669245457E-020,1.,-1.17096922947166E-019));
#467=DIRECTION('',(7.68389669245457E-020,1.,-1.17096922947166E-019));
#468=DIRECTION('',(7.68389669245457E-020,1.,-1.17096922947166E-019));
#469=DIRECTION('',(7.68389669245457E-020,1.,-1.17096922947166E-019));
#470=DIRECTION('',(7.68389669245457E-020,1.,-1.17096922947166E-019));
#471=DIRECTION('',(7.68389669245457E-020,1.,-1.17096922947166E-019));
#472=DIRECTION('',(7.68389669245457E-020,1.,-1.17096922947166E-019));
#473=DIRECTION('',(7.68389669245457E-020,1.,-1.17096922947166E-019));
#474=DIRECTION('',(7.68389669245457E-020,1.,-1.17096922947166E-019));
#475=DIRECTION('',(7.68389669245457E-020,1.,-1.17096922947166E-019));
#476=DIRECTION('',(7.68389669245457E-020,1.,-1.17096922947166E-019));
#477=DIRECTION('',(7.68389669245457E-020,1.,-1.17096922947166E-019));
#478=DIRECTION('',(7.68389669245457E-020,1.,-1.17096922947166E-019));
#479=DIRECTION('',(7.68389669245457E-020,1.,-1.17096922947166E-019));
#480=DIRECTION('',(-1.,0.,1.29949300325714E-013));
#481=DIRECTION('',(0.963570447457497,0.,-0.267454655570921));
#482=DIRECTION('',(0.,1.,0.));
#483=DIRECTION('',(-0.22759201313505,0.,0.973756579211219));
#484=DIRECTION('',(0.,-1.,0.));
#485=DIRECTION('',(0.991403447770873,0.,0.13084037506835));
#486=DIRECTION('',(-0.,1.,0.));
#487=DIRECTION('',(-0.0199387955403245,0.,-0.999801202455969));
#488=DIRECTION('',(0.0276556843434487,0.,0.99961750841184));
#489=DIRECTION('',(0.,-1.,0.));
#490=DIRECTION('',(0.287879548980933,0.,-0.95766662533396));
#491=DIRECTION('',(0.,1.,0.));
#492=DIRECTION('',(0.8578198965666,0.,-0.513950411085027));
#493=DIRECTION('',(0.,1.,0.));
#494=DIRECTION('',(-0.845948617864862,0.,0.53326441465049));
#495=DIRECTION('',(0.,-1.,0.));
#496=DIRECTION('',(-0.215718567165657,0.,0.976455580034236));
#497=DIRECTION('',(0.,-1.,0.));
#498=DIRECTION('',(-0.104578864920244,0.,0.994516596649846));
#499=DIRECTION('',(0.,-1.,0.));
#500=DIRECTION('',(7.41435898184394E-014,0.,-1.));
#501=DIRECTION('',(0.798438224234769,0.,-0.602076741022961));
#502=DIRECTION('',(0.,1.,0.));
#503=DIRECTION('',(0.999550693088155,0.,0.0299735207639739));
#504=DIRECTION('',(-0.,1.,0.));
#505=DIRECTION('',(0.,0.,-1.));
#506=DIRECTION('',(1.,0.,0.));
#507=DIRECTION('',(0.785682109480597,0.,0.618630441250767));
#508=DIRECTION('',(0.,0.,1.));
#509=DIRECTION('',(-1.,0.,1.29949300325714E-013));
#510=DIRECTION('',(0.963570447457497,0.,-0.267454655570921));
#511=DIRECTION('',(0.,1.,0.));
#512=DIRECTION('',(-0.22759201313505,0.,0.973756579211219));
#513=DIRECTION('',(0.,-1.,0.));
#514=DIRECTION('',(0.991403447770873,0.,0.13084037506835));
#515=DIRECTION('',(-0.,1.,0.));
#516=DIRECTION('',(-0.0199387955403245,0.,-0.999801202455969));
#517=DIRECTION('',(0.0276556843434487,0.,0.99961750841184));
#518=DIRECTION('',(0.,-1.,0.));
#519=DIRECTION('',(0.287879548980933,0.,-0.95766662533396));
#520=DIRECTION('',(0.,1.,0.));
#521=DIRECTION('',(0.8578198965666,0.,-0.513950411085027));
#522=DIRECTION('',(0.,1.,0.));
#523=DIRECTION('',(-0.845948617864862,0.,0.53326441465049));
#524=DIRECTION('',(0.,-1.,0.));
#525=DIRECTION('',(-0.215718567165657,0.,0.976455580034236));
#526=DIRECTION('',(0.,-1.,0.));
#527=DIRECTION('',(-0.104578864920244,0.,0.994516596649846));
#528=DIRECTION('',(0.,-1.,0.));
#529=DIRECTION('',(7.41435898184394E-014,0.,-1.));
#530=DIRECTION('',(0.798438224234769,0.,-0.602076741022961));
#531=DIRECTION('',(0.,1.,0.));
#532=DIRECTION('',(0.999550693088155,0.,0.0299735207639739));
#533=DIRECTION('',(-0.,1.,0.));
#534=DIRECTION('',(0.,0.,-1.));
#535=DIRECTION('',(1.,0.,0.));
#536=DIRECTION('',(0.785682109480597,0.,0.618630441250767));
#537=DIRECTION('',(0.,0.,1.));
#538=DIRECTION('',(-7.68389669245457E-020,-1.,0.));
#539=DIRECTION('',(-1.,7.68389669245457E-020,0.));
#540=DIRECTION('',(0.785682109480597,2.40741243048404E-035,0.618630441250767)
);
#541=DIRECTION('',(-0.618630441250767,1.39535881448601E-019,0.785682109480597)
);
#542=DIRECTION('',(0.,-1.,1.17096922947166E-019));
#543=DIRECTION('',(-0.,1.17096922947166E-019,1.));
#544=DIRECTION('',(7.68389669245457E-020,1.,0.));
#545=DIRECTION('',(1.,-7.68389669245457E-020,0.));
#546=DIRECTION('',(0.,1.17096922947166E-019,1.));
#547=DIRECTION('',(7.68389669245457E-020,1.,-1.17096922947166E-019));
#548=DIRECTION('',(0.,1.17096922947166E-019,1.));
#549=DIRECTION('',(7.68389669245457E-020,1.,-1.17096922947166E-019));
#550=DIRECTION('',(7.41435898184394E-014,0.,-1.));
#551=DIRECTION('',(1.,-7.6838966924537E-020,7.41435898184394E-014));
#552=DIRECTION('',(0.,1.17096922947166E-019,1.));
#553=DIRECTION('',(7.68389669245457E-020,1.,-1.17096922947166E-019));
#554=DIRECTION('',(0.,1.17096922947166E-019,1.));
#555=DIRECTION('',(7.68389669245457E-020,1.,-1.17096922947166E-019));
#556=DIRECTION('',(0.,1.17096922947166E-019,1.));
#557=DIRECTION('',(7.68389669245457E-020,1.,-1.17096922947166E-019));
#558=DIRECTION('',(0.,1.17096922947166E-019,1.));
#559=DIRECTION('',(7.68389669245457E-020,1.,-1.17096922947166E-019));
#560=DIRECTION('',(0.,1.17096922947166E-019,1.));
#561=DIRECTION('',(7.68389669245457E-020,1.,-1.17096922947166E-019));
#562=DIRECTION('',(0.,1.17096922947166E-019,1.));
#563=DIRECTION('',(7.68389669245457E-020,1.,-1.17096922947166E-019));
#564=DIRECTION('',(-0.0199387955403245,0.,-0.999801202455969));
#565=DIRECTION('',(0.999801202455969,-7.91584631316798E-020,
-0.0199387955403245));
#566=DIRECTION('',(0.,1.17096922947166E-019,1.));
#567=DIRECTION('',(7.68389669245457E-020,1.,-1.17096922947166E-019));
#568=DIRECTION('',(0.,1.17096922947166E-019,1.));
#569=DIRECTION('',(7.68389669245457E-020,1.,-1.17096922947166E-019));
#570=DIRECTION('',(0.,1.17096922947166E-019,1.));
#571=DIRECTION('',(7.68389669245457E-020,1.,-1.17096922947166E-019));
#572=DIRECTION('',(-1.,0.,1.29949300325714E-013));
#573=DIRECTION('',(-1.29949300325714E-013,-1.17096922947156E-019,-1.));
#574=DIRECTION('',(0.,-0.,1.));
#575=DIRECTION('',(-0.,1.,0.));
#576=DIRECTION('',(0.,-0.,1.));
#577=DIRECTION('',(-0.,1.,0.));
#578=CARTESIAN_POINT('',(0.,0.,0.));
#579=CARTESIAN_POINT('',(103.080454,168.281361,2170.87530382356));
#580=CARTESIAN_POINT('',(106.579875310824,168.281361,2170.87530382356));
#581=CARTESIAN_POINT('',(110.627867171468,168.281361,2173.95275145557));
#582=CARTESIAN_POINT('',(116.437947960703,168.281361,2179.52855510221));
#583=CARTESIAN_POINT('',(118.169645,168.281361,2182.03287382356));
#584=CARTESIAN_POINT('',(118.20004,168.281361,2183.55698582356));
#585=CARTESIAN_POINT('',(119.218423,168.281361,2184.29443582356));
#586=CARTESIAN_POINT('',(133.013604067709,168.281361,2185.89325948798));
#587=CARTESIAN_POINT('',(156.185643503391,168.281361,2203.93340993246));
#588=CARTESIAN_POINT('',(165.903697025983,168.281361,2219.74421895316));
#589=CARTESIAN_POINT('',(191.010111322865,168.281361,2237.39958305156));
#590=CARTESIAN_POINT('',(200.364857,168.281361,2238.91979782356));
#591=CARTESIAN_POINT('',(200.364856999999,168.281361,2241.21979782356));
#592=CARTESIAN_POINT('',(205.575084688952,168.281361,2244.46893464683));
#593=CARTESIAN_POINT('',(206.494952421306,168.281361,2247.35986748833));
#594=CARTESIAN_POINT('',(206.494952421306,168.281361,2247.90752182356));
#595=CARTESIAN_POINT('',(184.591183989872,168.281361,2247.90752182356));
#596=CARTESIAN_POINT('',(103.080454,168.281361,2183.72759682356));
#597=CARTESIAN_POINT('',(103.080454,1918.281361,2170.87530382356));
#598=CARTESIAN_POINT('',(106.579875310824,1918.281361,2170.87530382356));
#599=CARTESIAN_POINT('',(110.627867171468,1918.281361,2173.95275145557));
#600=CARTESIAN_POINT('',(116.437947960703,1918.281361,2179.52855510221));
#601=CARTESIAN_POINT('',(118.169645,1918.281361,2182.03287382356));
#602=CARTESIAN_POINT('',(118.20004,1918.281361,2183.55698582356));
#603=CARTESIAN_POINT('',(119.218423,1918.281361,2184.29443582356));
#604=CARTESIAN_POINT('',(133.013604067709,1918.281361,2185.89325948798));
#605=CARTESIAN_POINT('',(156.185643503391,1918.281361,2203.93340993246));
#606=CARTESIAN_POINT('',(165.903697025983,1918.281361,2219.74421895316));
#607=CARTESIAN_POINT('',(191.010111322865,1918.281361,2237.39958305156));
#608=CARTESIAN_POINT('',(200.364857,1918.281361,2238.91979782356));
#609=CARTESIAN_POINT('',(200.364856999999,1918.281361,2241.21979782356));
#610=CARTESIAN_POINT('',(205.575084688952,1918.281361,2244.46893464683));
#611=CARTESIAN_POINT('',(206.494952421306,1918.281361,2247.35986748833));
#612=CARTESIAN_POINT('',(206.494952421306,1918.281361,2247.90752182356));
#613=CARTESIAN_POINT('',(184.591183989872,1918.281361,2247.90752182356));
#614=CARTESIAN_POINT('',(103.080454,1918.281361,2183.72759682356));
#615=CARTESIAN_POINT('',(103.080454,168.281361,2183.72759682356));
#616=CARTESIAN_POINT('',(184.591183989872,168.281361,2247.90752182356));
#617=CARTESIAN_POINT('',(206.494952421306,168.281361,2247.90752182356));
#618=CARTESIAN_POINT('',(206.494952421306,168.281361,2247.35986748833));
#619=CARTESIAN_POINT('',(205.575084688952,168.281361,2244.46893464683));
#620=CARTESIAN_POINT('',(200.364856999999,168.281361,2241.21979782356));
#621=CARTESIAN_POINT('',(200.364857,168.281361,2238.91979782356));
#622=CARTESIAN_POINT('',(191.010111322865,168.281361,2237.39958305156));
#623=CARTESIAN_POINT('',(165.903697025983,168.281361,2219.74421895316));
#624=CARTESIAN_POINT('',(156.185643503391,168.281361,2203.93340993246));
#625=CARTESIAN_POINT('',(133.013604067709,168.281361,2185.89325948798));
#626=CARTESIAN_POINT('',(119.218423,168.281361,2184.29443582356));
#627=CARTESIAN_POINT('',(118.20004,168.281361,2183.55698582356));
#628=CARTESIAN_POINT('',(118.169645,168.281361,2182.03287382356));
#629=CARTESIAN_POINT('',(116.437947960703,168.281361,2179.52855510221));
#630=CARTESIAN_POINT('',(110.627867171468,168.281361,2173.95275145557));
#631=CARTESIAN_POINT('',(106.579875310824,168.281361,2170.87530382356));
#632=CARTESIAN_POINT('',(103.080454,168.281361,2170.87530382356));
#633=CARTESIAN_POINT('',(106.579875310824,168.281361,2170.87530382356));
#634=CARTESIAN_POINT('',(106.579875310824,168.281361,2175.07633745979));
#635=CARTESIAN_POINT('',(118.234641887634,168.281361,2171.84136736623));
#636=CARTESIAN_POINT('',(115.921956189119,168.281361,2181.73623530802));
#637=CARTESIAN_POINT('',(118.20004,168.281361,2183.55698582356));
#638=CARTESIAN_POINT('',(119.189859005236,168.281361,2183.2619873431));
#639=CARTESIAN_POINT('',(121.637251695538,168.281361,2223.73809085385));
#640=CARTESIAN_POINT('',(121.309298011878,168.281361,2224.82906900291));
#641=CARTESIAN_POINT('',(858.413253268035,168.281361,1783.20387199762));
#642=CARTESIAN_POINT('',(199.603671266225,168.281361,2198.50061543228));
#643=CARTESIAN_POINT('',(209.167370096284,168.281361,2155.21028947158));
#644=CARTESIAN_POINT('',(200.364856999999,168.281361,2241.21979782356));
#645=CARTESIAN_POINT('',(198.745155058435,168.281361,2249.61916624715));
#646=CARTESIAN_POINT('',(201.923110433259,168.281361,2247.22277168949));
#647=CARTESIAN_POINT('',(206.494952421306,168.281361,2247.90752182356));
#648=CARTESIAN_POINT('',(184.591183989872,168.281361,2247.90752182356));
#649=CARTESIAN_POINT('',(103.080454,168.281361,2183.72759682356));
#650=CARTESIAN_POINT('',(103.080454,168.281361,2170.87530382356));
#651=CARTESIAN_POINT('',(106.579875310824,1918.281361,2170.87530382356));
#652=CARTESIAN_POINT('',(106.579875310824,1918.281361,2175.07633745979));
#653=CARTESIAN_POINT('',(118.234641887634,1918.281361,2171.84136736623));
#654=CARTESIAN_POINT('',(115.921956189119,1918.281361,2181.73623530802));
#655=CARTESIAN_POINT('',(118.20004,1918.281361,2183.55698582356));
#656=CARTESIAN_POINT('',(119.189859005236,1918.281361,2183.2619873431));
#657=CARTESIAN_POINT('',(121.637251695538,1918.281361,2223.73809085385));
#658=CARTESIAN_POINT('',(121.309298011878,1918.281361,2224.82906900291));
#659=CARTESIAN_POINT('',(858.413253268035,1918.281361,1783.20387199762));
#660=CARTESIAN_POINT('',(199.603671266225,1918.281361,2198.50061543228));
#661=CARTESIAN_POINT('',(209.167370096284,1918.281361,2155.21028947158));
#662=CARTESIAN_POINT('',(200.364856999999,1918.281361,2241.21979782356));
#663=CARTESIAN_POINT('',(198.745155058435,1918.281361,2249.61916624715));
#664=CARTESIAN_POINT('',(201.923110433259,1918.281361,2247.22277168949));
#665=CARTESIAN_POINT('',(206.494952421306,1918.281361,2247.90752182356));
#666=CARTESIAN_POINT('',(184.591183989872,1918.281361,2247.90752182356));
#667=CARTESIAN_POINT('',(103.080454,1918.281361,2183.72759682356));
#668=CARTESIAN_POINT('',(103.080454,1918.281361,2170.87530382356));
#669=CARTESIAN_POINT('',(103.080454,168.281361,2170.87530382356));
#670=CARTESIAN_POINT('',(103.080454,168.281361,2183.72759682356));
#671=CARTESIAN_POINT('',(184.591183989872,168.281361,2247.90752182356));
#672=CARTESIAN_POINT('',(206.494952421306,168.281361,2247.90752182356));
#673=CARTESIAN_POINT('',(201.923110433259,168.281361,2247.22277168949));
#674=CARTESIAN_POINT('',(198.745155058435,168.281361,2249.61916624715));
#675=CARTESIAN_POINT('',(200.364856999999,168.281361,2241.21979782356));
#676=CARTESIAN_POINT('',(209.167370096284,168.281361,2155.21028947158));
#677=CARTESIAN_POINT('',(199.603671266225,168.281361,2198.50061543228));
#678=CARTESIAN_POINT('',(858.413253268035,168.281361,1783.20387199762));
#679=CARTESIAN_POINT('',(121.309298011878,168.281361,2224.82906900291));
#680=CARTESIAN_POINT('',(121.637251695538,168.281361,2223.73809085385));
#681=CARTESIAN_POINT('',(119.189859005236,168.281361,2183.2619873431));
#682=CARTESIAN_POINT('',(118.20004,168.281361,2183.55698582356));
#683=CARTESIAN_POINT('',(115.921956189119,168.281361,2181.73623530802));
#684=CARTESIAN_POINT('',(118.234641887634,168.281361,2171.84136736623));
#685=CARTESIAN_POINT('',(106.579875310824,168.281361,2175.07633745979));
#686=CARTESIAN_POINT('',(106.579875310824,168.281361,2170.87530382356));
#687=CARTESIAN_POINT('',(201.923110433259,168.281361,2247.22277168949));
#688=CARTESIAN_POINT('',(201.923110433259,1918.281361,2247.22277168949));
#689=PRODUCT_DEFINITION_SHAPE('','',#690);
#690=PRODUCT_DEFINITION('','',#702,#707);
#691=(
GEOMETRIC_REPRESENTATION_CONTEXT(3)
GLOBAL_UNCERTAINTY_ASSIGNED_CONTEXT((#692))
GLOBAL_UNIT_ASSIGNED_CONTEXT((#694,#693,#697))
REPRESENTATION_CONTEXT('','')
);
#692=UNCERTAINTY_MEASURE_WITH_UNIT(LENGTH_MEASURE(0.001),#694,'','tolerance');
#693=(
CONVERSION_BASED_UNIT('',#695)
NAMED_UNIT(#701)
PLANE_ANGLE_UNIT()
);
#694=(
CONVERSION_BASED_UNIT('',#696)
LENGTH_UNIT()
NAMED_UNIT(#700)
);
#695=PLANE_ANGLE_MEASURE_WITH_UNIT(PLANE_ANGLE_MEASURE(0.0174532925199433),
#698);
#696=LENGTH_MEASURE_WITH_UNIT(LENGTH_MEASURE(1.),#699);
#697=(
NAMED_UNIT(*)
SI_UNIT($,.STERADIAN.)
SOLID_ANGLE_UNIT()
);
#698=(
NAMED_UNIT(*)
PLANE_ANGLE_UNIT()
SI_UNIT($,.RADIAN.)
);
#699=(
LENGTH_UNIT()
NAMED_UNIT(*)
SI_UNIT(.MILLI.,.METRE.)
);
#700=DIMENSIONAL_EXPONENTS(1.,0.,0.,0.,0.,0.,0.);
#701=DIMENSIONAL_EXPONENTS(0.,0.,0.,0.,0.,0.,0.);
#702=PRODUCT_DEFINITION_FORMATION_WITH_SPECIFIED_SOURCE('','',#705,.NOT_KNOWN.
);
#703=PRODUCT_CATEGORY_RELATIONSHIP('','',#708,#704);
#704=PRODUCT_RELATED_PRODUCT_CATEGORY('assembly','',(#705));
#705=PRODUCT('','master','',(#706));
#706=PRODUCT_CONTEXT('',#710,'');
#707=PRODUCT_DEFINITION_CONTEXT('',#710,'part_definition');
#708=PRODUCT_CATEGORY('part','');
#709=APPLICATION_PROTOCOL_DEFINITION('international standard',
'automotive_design_cc2',1994,#710);
#710=APPLICATION_CONTEXT(
'configuration controlled 3D designs of mechanical parts and assemblies');
ENDSEC;
END-ISO-10303-21;
33444