ISO-10303-21;
HEADER;
/* Generated by software using Delcam plc STEP library */

FILE_DESCRIPTION(
/* description */ ('AP-214 File'),
/* implementation_level */ '2;1');

FILE_NAME(
/* name */ 'D631',
/* time_stamp */ 'Wed Oct 11 13:42:56 2017',
/* author */ (''),
/* organization */ (''),
/* preprocessor_version */ 'DELCAM STEP V1',
/* originating_system */ 'Exchange7.1.0006',
/* authorisation */ '');

FILE_SCHEMA (('AUTOMOTIVE_DESIGN'));
ENDSEC;
DATA;
#10=PRESENTATION_STYLE_ASSIGNMENT((#20));
#11=PRESENTATION_STYLE_ASSIGNMENT((#21));
#12=SURFACE_SIDE_STYLE('',(#14));
#13=SURFACE_SIDE_STYLE('',(#15));
#14=SURFACE_STYLE_FILL_AREA(#16);
#15=SURFACE_STYLE_FILL_AREA(#17);
#16=FILL_AREA_STYLE('',(#18));
#17=FILL_AREA_STYLE('',(#19));
#18=FILL_AREA_STYLE_COLOUR('',#37);
#19=FILL_AREA_STYLE_COLOUR('',#38);
#20=SURFACE_STYLE_USAGE(.BOTH.,#12);
#21=SURFACE_STYLE_USAGE(.BOTH.,#13);
#22=STYLED_ITEM('',(#10),#46);
#23=STYLED_ITEM('',(#10),#47);
#24=STYLED_ITEM('',(#10),#48);
#25=STYLED_ITEM('',(#10),#49);
#26=STYLED_ITEM('',(#10),#50);
#27=STYLED_ITEM('',(#10),#51);
#28=STYLED_ITEM('',(#10),#52);
#29=STYLED_ITEM('',(#10),#53);
#30=STYLED_ITEM('',(#10),#54);
#31=STYLED_ITEM('',(#10),#55);
#32=STYLED_ITEM('',(#10),#56);
#33=STYLED_ITEM('',(#10),#57);
#34=STYLED_ITEM('',(#10),#58);
#35=STYLED_ITEM('',(#10),#59);
#36=STYLED_ITEM('',(#11),#44);
#37=COLOUR_RGB('',0.,0.,0.);
#38=COLOUR_RGB('rgb_colour_1',0.4,0.4,0.4);
#39=MECHANICAL_DESIGN_GEOMETRIC_PRESENTATION_REPRESENTATION('',(#22,#23,#24,
#25,#26,#27,#28,#29,#30,#31,#32,#33,#34,#35,#36),#467);
#40=PRESENTATION_LAYER_ASSIGNMENT('141','D631',(#46,#47,#48,#49,#50,#51,#52,
#53,#54,#55,#56,#57,#58,#59,#44));
#41=SHAPE_REPRESENTATION_RELATIONSHIP('','',#304,#42);
#42=ADVANCED_BREP_SHAPE_REPRESENTATION('',(#43),#467);
#43=MANIFOLD_SOLID_BREP('8110',#44);
#44=CLOSED_SHELL('',(#46,#47,#48,#49,#50,#51,#52,#53,#54,#55,#56,#57,#58,#59)
);
#45=CYLINDRICAL_SURFACE('',#317,79.8480579907862);
#46=ADVANCED_FACE('',(#60),#160,.F.);
#47=ADVANCED_FACE('',(#61),#161,.F.);
#48=ADVANCED_FACE('',(#62),#162,.F.);
#49=ADVANCED_FACE('',(#63),#163,.F.);
#50=ADVANCED_FACE('',(#64),#164,.F.);
#51=ADVANCED_FACE('',(#65),#165,.F.);
#52=ADVANCED_FACE('',(#66),#166,.F.);
#53=ADVANCED_FACE('',(#67),#167,.F.);
#54=ADVANCED_FACE('',(#68),#168,.F.);
#55=ADVANCED_FACE('',(#69),#45,.F.);
#56=ADVANCED_FACE('',(#70),#169,.F.);
#57=ADVANCED_FACE('',(#71),#170,.F.);
#58=ADVANCED_FACE('',(#72),#171,.F.);
#59=ADVANCED_FACE('',(#73),#172,.T.);
#60=FACE_OUTER_BOUND('',#74,.T.);
#61=FACE_OUTER_BOUND('',#75,.T.);
#62=FACE_OUTER_BOUND('',#76,.T.);
#63=FACE_OUTER_BOUND('',#77,.T.);
#64=FACE_OUTER_BOUND('',#78,.T.);
#65=FACE_OUTER_BOUND('',#79,.T.);
#66=FACE_OUTER_BOUND('',#80,.T.);
#67=FACE_OUTER_BOUND('',#81,.T.);
#68=FACE_OUTER_BOUND('',#82,.T.);
#69=FACE_OUTER_BOUND('',#83,.T.);
#70=FACE_OUTER_BOUND('',#84,.T.);
#71=FACE_OUTER_BOUND('',#85,.T.);
#72=FACE_OUTER_BOUND('',#86,.T.);
#73=FACE_OUTER_BOUND('',#87,.T.);
#74=EDGE_LOOP('',(#88,#89,#90,#91));
#75=EDGE_LOOP('',(#92,#93,#94,#95));
#76=EDGE_LOOP('',(#96,#97,#98,#99));
#77=EDGE_LOOP('',(#100,#101,#102,#103));
#78=EDGE_LOOP('',(#104,#105,#106,#107));
#79=EDGE_LOOP('',(#108,#109,#110,#111));
#80=EDGE_LOOP('',(#112,#113,#114,#115));
#81=EDGE_LOOP('',(#116,#117,#118,#119));
#82=EDGE_LOOP('',(#120,#121,#122,#123));
#83=EDGE_LOOP('',(#124,#125,#126,#127));
#84=EDGE_LOOP('',(#128,#129,#130,#131));
#85=EDGE_LOOP('',(#132,#133,#134,#135));
#86=EDGE_LOOP('',(#136,#137,#138,#139,#140,#141,#142,#143,#144,#145,#146,#147)
);
#87=EDGE_LOOP('',(#148,#149,#150,#151,#152,#153,#154,#155,#156,#157,#158,#159)
);
#88=ORIENTED_EDGE('',*,*,#210,.T.);
#89=ORIENTED_EDGE('',*,*,#175,.F.);
#90=ORIENTED_EDGE('',*,*,#198,.F.);
#91=ORIENTED_EDGE('',*,*,#186,.T.);
#92=ORIENTED_EDGE('',*,*,#209,.T.);
#93=ORIENTED_EDGE('',*,*,#176,.F.);
#94=ORIENTED_EDGE('',*,*,#197,.F.);
#95=ORIENTED_EDGE('',*,*,#175,.T.);
#96=ORIENTED_EDGE('',*,*,#208,.T.);
#97=ORIENTED_EDGE('',*,*,#177,.F.);
#98=ORIENTED_EDGE('',*,*,#196,.F.);
#99=ORIENTED_EDGE('',*,*,#176,.T.);
#100=ORIENTED_EDGE('',*,*,#207,.T.);
#101=ORIENTED_EDGE('',*,*,#178,.F.);
#102=ORIENTED_EDGE('',*,*,#195,.F.);
#103=ORIENTED_EDGE('',*,*,#177,.T.);
#104=ORIENTED_EDGE('',*,*,#206,.T.);
#105=ORIENTED_EDGE('',*,*,#179,.F.);
#106=ORIENTED_EDGE('',*,*,#194,.F.);
#107=ORIENTED_EDGE('',*,*,#178,.T.);
#108=ORIENTED_EDGE('',*,*,#205,.T.);
#109=ORIENTED_EDGE('',*,*,#180,.F.);
#110=ORIENTED_EDGE('',*,*,#193,.F.);
#111=ORIENTED_EDGE('',*,*,#179,.T.);
#112=ORIENTED_EDGE('',*,*,#204,.T.);
#113=ORIENTED_EDGE('',*,*,#181,.F.);
#114=ORIENTED_EDGE('',*,*,#192,.F.);
#115=ORIENTED_EDGE('',*,*,#180,.T.);
#116=ORIENTED_EDGE('',*,*,#203,.T.);
#117=ORIENTED_EDGE('',*,*,#182,.F.);
#118=ORIENTED_EDGE('',*,*,#191,.F.);
#119=ORIENTED_EDGE('',*,*,#181,.T.);
#120=ORIENTED_EDGE('',*,*,#202,.T.);
#121=ORIENTED_EDGE('',*,*,#183,.F.);
#122=ORIENTED_EDGE('',*,*,#190,.F.);
#123=ORIENTED_EDGE('',*,*,#182,.T.);
#124=ORIENTED_EDGE('',*,*,#201,.T.);
#125=ORIENTED_EDGE('',*,*,#184,.F.);
#126=ORIENTED_EDGE('',*,*,#189,.F.);
#127=ORIENTED_EDGE('',*,*,#183,.T.);
#128=ORIENTED_EDGE('',*,*,#200,.T.);
#129=ORIENTED_EDGE('',*,*,#185,.F.);
#130=ORIENTED_EDGE('',*,*,#188,.F.);
#131=ORIENTED_EDGE('',*,*,#184,.T.);
#132=ORIENTED_EDGE('',*,*,#199,.T.);
#133=ORIENTED_EDGE('',*,*,#186,.F.);
#134=ORIENTED_EDGE('',*,*,#187,.F.);
#135=ORIENTED_EDGE('',*,*,#185,.T.);
#136=ORIENTED_EDGE('',*,*,#198,.T.);
#137=ORIENTED_EDGE('',*,*,#197,.T.);
#138=ORIENTED_EDGE('',*,*,#196,.T.);
#139=ORIENTED_EDGE('',*,*,#195,.T.);
#140=ORIENTED_EDGE('',*,*,#194,.T.);
#141=ORIENTED_EDGE('',*,*,#193,.T.);
#142=ORIENTED_EDGE('',*,*,#192,.T.);
#143=ORIENTED_EDGE('',*,*,#191,.T.);
#144=ORIENTED_EDGE('',*,*,#190,.T.);
#145=ORIENTED_EDGE('',*,*,#189,.T.);
#146=ORIENTED_EDGE('',*,*,#188,.T.);
#147=ORIENTED_EDGE('',*,*,#187,.T.);
#148=ORIENTED_EDGE('',*,*,#210,.F.);
#149=ORIENTED_EDGE('',*,*,#199,.F.);
#150=ORIENTED_EDGE('',*,*,#200,.F.);
#151=ORIENTED_EDGE('',*,*,#201,.F.);
#152=ORIENTED_EDGE('',*,*,#202,.F.);
#153=ORIENTED_EDGE('',*,*,#203,.F.);
#154=ORIENTED_EDGE('',*,*,#204,.F.);
#155=ORIENTED_EDGE('',*,*,#205,.F.);
#156=ORIENTED_EDGE('',*,*,#206,.F.);
#157=ORIENTED_EDGE('',*,*,#207,.F.);
#158=ORIENTED_EDGE('',*,*,#208,.F.);
#159=ORIENTED_EDGE('',*,*,#209,.F.);
#160=PLANE('',#308);
#161=PLANE('',#309);
#162=PLANE('',#310);
#163=PLANE('',#311);
#164=PLANE('',#312);
#165=PLANE('',#313);
#166=PLANE('',#314);
#167=PLANE('',#315);
#168=PLANE('',#316);
#169=PLANE('',#318);
#170=PLANE('',#319);
#171=PLANE('',#320);
#172=PLANE('',#321);
#173=CIRCLE('',#306,79.8480579907862);
#174=CIRCLE('',#307,79.8480579907862);
#175=EDGE_CURVE('',#290,#302,#211,.T.);
#176=EDGE_CURVE('',#289,#301,#212,.T.);
#177=EDGE_CURVE('',#288,#300,#213,.T.);
#178=EDGE_CURVE('',#287,#299,#214,.T.);
#179=EDGE_CURVE('',#286,#298,#215,.T.);
#180=EDGE_CURVE('',#285,#297,#216,.T.);
#181=EDGE_CURVE('',#284,#296,#217,.T.);
#182=EDGE_CURVE('',#283,#295,#218,.T.);
#183=EDGE_CURVE('',#282,#294,#219,.T.);
#184=EDGE_CURVE('',#281,#293,#220,.T.);
#185=EDGE_CURVE('',#280,#292,#221,.T.);
#186=EDGE_CURVE('',#279,#291,#222,.T.);
#187=EDGE_CURVE('',#280,#279,#223,.T.);
#188=EDGE_CURVE('',#281,#280,#224,.T.);
#189=EDGE_CURVE('',#282,#281,#173,.T.);
#190=EDGE_CURVE('',#283,#282,#225,.T.);
#191=EDGE_CURVE('',#284,#283,#226,.T.);
#192=EDGE_CURVE('',#285,#284,#227,.T.);
#193=EDGE_CURVE('',#286,#285,#228,.T.);
#194=EDGE_CURVE('',#287,#286,#229,.T.);
#195=EDGE_CURVE('',#288,#287,#230,.T.);
#196=EDGE_CURVE('',#289,#288,#231,.T.);
#197=EDGE_CURVE('',#290,#289,#232,.T.);
#198=EDGE_CURVE('',#279,#290,#233,.T.);
#199=EDGE_CURVE('',#292,#291,#234,.T.);
#200=EDGE_CURVE('',#293,#292,#235,.T.);
#201=EDGE_CURVE('',#294,#293,#174,.T.);
#202=EDGE_CURVE('',#295,#294,#236,.T.);
#203=EDGE_CURVE('',#296,#295,#237,.T.);
#204=EDGE_CURVE('',#297,#296,#238,.T.);
#205=EDGE_CURVE('',#298,#297,#239,.T.);
#206=EDGE_CURVE('',#299,#298,#240,.T.);
#207=EDGE_CURVE('',#300,#299,#241,.T.);
#208=EDGE_CURVE('',#301,#300,#242,.T.);
#209=EDGE_CURVE('',#302,#301,#243,.T.);
#210=EDGE_CURVE('',#291,#302,#244,.T.);
#211=LINE('',#415,#245);
#212=LINE('',#416,#246);
#213=LINE('',#417,#247);
#214=LINE('',#418,#248);
#215=LINE('',#419,#249);
#216=LINE('',#420,#250);
#217=LINE('',#421,#251);
#218=LINE('',#422,#252);
#219=LINE('',#423,#253);
#220=LINE('',#424,#254);
#221=LINE('',#425,#255);
#222=LINE('',#426,#256);
#223=LINE('',#427,#257);
#224=LINE('',#428,#258);
#225=LINE('',#430,#259);
#226=LINE('',#431,#260);
#227=LINE('',#432,#261);
#228=LINE('',#433,#262);
#229=LINE('',#434,#263);
#230=LINE('',#435,#264);
#231=LINE('',#436,#265);
#232=LINE('',#437,#266);
#233=LINE('',#438,#267);
#234=LINE('',#439,#268);
#235=LINE('',#440,#269);
#236=LINE('',#442,#270);
#237=LINE('',#443,#271);
#238=LINE('',#444,#272);
#239=LINE('',#445,#273);
#240=LINE('',#446,#274);
#241=LINE('',#447,#275);
#242=LINE('',#448,#276);
#243=LINE('',#449,#277);
#244=LINE('',#450,#278);
#245=VECTOR('',#324,1.);
#246=VECTOR('',#325,1.);
#247=VECTOR('',#326,1.);
#248=VECTOR('',#327,1.);
#249=VECTOR('',#328,1.);
#250=VECTOR('',#329,1.);
#251=VECTOR('',#330,1.);
#252=VECTOR('',#331,1.);
#253=VECTOR('',#332,1.);
#254=VECTOR('',#333,1.);
#255=VECTOR('',#334,1.);
#256=VECTOR('',#335,1.);
#257=VECTOR('',#336,1.);
#258=VECTOR('',#337,1.);
#259=VECTOR('',#340,1.);
#260=VECTOR('',#341,1.);
#261=VECTOR('',#342,1.);
#262=VECTOR('',#343,1.);
#263=VECTOR('',#344,1.);
#264=VECTOR('',#345,1.);
#265=VECTOR('',#346,1.);
#266=VECTOR('',#347,1.);
#267=VECTOR('',#348,1.);
#268=VECTOR('',#349,1.);
#269=VECTOR('',#350,1.);
#270=VECTOR('',#353,1.);
#271=VECTOR('',#354,1.);
#272=VECTOR('',#355,1.);
#273=VECTOR('',#356,1.);
#274=VECTOR('',#357,1.);
#275=VECTOR('',#358,1.);
#276=VECTOR('',#359,1.);
#277=VECTOR('',#360,1.);
#278=VECTOR('',#361,1.);
#279=VERTEX_POINT('',#391);
#280=VERTEX_POINT('',#392);
#281=VERTEX_POINT('',#393);
#282=VERTEX_POINT('',#394);
#283=VERTEX_POINT('',#395);
#284=VERTEX_POINT('',#396);
#285=VERTEX_POINT('',#397);
#286=VERTEX_POINT('',#398);
#287=VERTEX_POINT('',#399);
#288=VERTEX_POINT('',#400);
#289=VERTEX_POINT('',#401);
#290=VERTEX_POINT('',#402);
#291=VERTEX_POINT('',#403);
#292=VERTEX_POINT('',#404);
#293=VERTEX_POINT('',#405);
#294=VERTEX_POINT('',#406);
#295=VERTEX_POINT('',#407);
#296=VERTEX_POINT('',#408);
#297=VERTEX_POINT('',#409);
#298=VERTEX_POINT('',#410);
#299=VERTEX_POINT('',#411);
#300=VERTEX_POINT('',#412);
#301=VERTEX_POINT('',#413);
#302=VERTEX_POINT('',#414);
#303=SHAPE_DEFINITION_REPRESENTATION(#465,#304);
#304=SHAPE_REPRESENTATION('master',(#305),#467);
#305=AXIS2_PLACEMENT_3D('',#390,#323,#322);
#306=AXIS2_PLACEMENT_3D('',#429,#339,#338);
#307=AXIS2_PLACEMENT_3D('',#441,#352,#351);
#308=AXIS2_PLACEMENT_3D('',#451,#363,#362);
#309=AXIS2_PLACEMENT_3D('',#452,#365,#364);
#310=AXIS2_PLACEMENT_3D('',#453,#367,#366);
#311=AXIS2_PLACEMENT_3D('',#454,#369,#368);
#312=AXIS2_PLACEMENT_3D('',#455,#371,#370);
#313=AXIS2_PLACEMENT_3D('',#456,#373,#372);
#314=AXIS2_PLACEMENT_3D('',#457,#375,#374);
#315=AXIS2_PLACEMENT_3D('',#458,#377,#376);
#316=AXIS2_PLACEMENT_3D('',#459,#379,#378);
#317=AXIS2_PLACEMENT_3D('',#460,#381,#380);
#318=AXIS2_PLACEMENT_3D('',#461,#383,#382);
#319=AXIS2_PLACEMENT_3D('',#462,#385,#384);
#320=AXIS2_PLACEMENT_3D('',#463,#387,#386);
#321=AXIS2_PLACEMENT_3D('',#464,#389,#388);
#322=DIRECTION('',(1.,0.,0.));
#323=DIRECTION('',(0.,0.,1.));
#324=DIRECTION('',(9.21951430434413E-016,-1.,-2.28499458763667E-016));
#325=DIRECTION('',(9.21951430434413E-016,-1.,-2.28499458763667E-016));
#326=DIRECTION('',(9.21951430434413E-016,-1.,-2.28499458763667E-016));
#327=DIRECTION('',(9.21951430434413E-016,-1.,-2.28499458763667E-016));
#328=DIRECTION('',(9.21951430434413E-016,-1.,-2.28499458763667E-016));
#329=DIRECTION('',(9.21951430434413E-016,-1.,-2.28499458763667E-016));
#330=DIRECTION('',(9.21951430434413E-016,-1.,-2.28499458763667E-016));
#331=DIRECTION('',(9.21951430434413E-016,-1.,-2.28499458763667E-016));
#332=DIRECTION('',(9.21951430434413E-016,-1.,-2.28499458763667E-016));
#333=DIRECTION('',(9.21951430434413E-016,-1.,-2.28499458763667E-016));
#334=DIRECTION('',(9.21951430434413E-016,-1.,-2.28499458763667E-016));
#335=DIRECTION('',(9.21951430434413E-016,-1.,-2.28499458763667E-016));
#336=DIRECTION('',(-0.,-0.,-1.));
#337=DIRECTION('',(-0.997259893792448,-1.19667020762376E-014,
-0.0739777279529112));
#338=DIRECTION('',(-0.0131316298934633,0.,0.999913776430919));
#339=DIRECTION('',(0.,-1.,0.));
#340=DIRECTION('',(-0.,-0.,-1.));
#341=DIRECTION('',(-0.996103618475529,-0.,-0.088190596210473));
#342=DIRECTION('',(-0.,-0.,-1.));
#343=DIRECTION('',(0.998187396969754,-0.,0.0601823938602219));
#344=DIRECTION('',(0.788406753566973,-0.,0.61515428221706));
#345=DIRECTION('',(0.429443226214966,-0.,0.903093857502132));
#346=DIRECTION('',(0.768750515783736,6.82054090392393E-015,0.639548781941018)
);
#347=DIRECTION('',(-0.,-0.,1.));
#348=DIRECTION('',(-1.,-0.,-0.));
#349=DIRECTION('',(-0.,-0.,-1.));
#350=DIRECTION('',(-0.997259893792448,-1.19667020762376E-014,
-0.0739777279529112));
#351=DIRECTION('',(-0.0131316298934633,0.,0.999913776430919));
#352=DIRECTION('',(0.,-1.,0.));
#353=DIRECTION('',(-0.,-0.,-1.));
#354=DIRECTION('',(-0.996103618475529,-0.,-0.088190596210473));
#355=DIRECTION('',(-0.,-0.,-1.));
#356=DIRECTION('',(0.998187396969754,-0.,0.0601823938602219));
#357=DIRECTION('',(0.788406753566973,-0.,0.61515428221706));
#358=DIRECTION('',(0.429443226214966,-0.,0.903093857502132));
#359=DIRECTION('',(0.768750515783736,6.82054090392393E-015,0.639548781941018)
);
#360=DIRECTION('',(-0.,-0.,1.));
#361=DIRECTION('',(-1.,-0.,-0.));
#362=DIRECTION('',(0.,-1.,-2.28499458763667E-016));
#363=DIRECTION('',(0.,-2.28499458763667E-016,1.));
#364=DIRECTION('',(-9.21951430434413E-016,1.,0.));
#365=DIRECTION('',(1.,9.21951430434413E-016,0.));
#366=DIRECTION('',(-0.768750515783736,4.93038065763132E-032,-0.639548781941018
));
#367=DIRECTION('',(0.639548781941018,7.65291991123982E-016,-0.768750515783736)
);
#368=DIRECTION('',(-0.429443226214966,0.,-0.903093857502132));
#369=DIRECTION('',(0.903093857502132,9.30736218500466E-016,-0.429443226214966)
);
#370=DIRECTION('',(-0.788406753566973,4.93038065763132E-032,-0.61515428221706)
);
#371=DIRECTION('',(0.61515428221706,7.47292886903547E-016,-0.788406753566973)
);
#372=DIRECTION('',(-0.998187396969754,-3.08148791101958E-033,
-0.0601823938602219));
#373=DIRECTION('',(0.0601823938602219,2.83570524058702E-016,-0.998187396969754
));
#374=DIRECTION('',(9.21951430434413E-016,-1.,0.));
#375=DIRECTION('',(-1.,-9.21951430434413E-016,0.));
#376=DIRECTION('',(0.996103618475529,0.,0.088190596210473));
#377=DIRECTION('',(-0.088190596210473,-3.08916584021298E-016,0.996103618475529
));
#378=DIRECTION('',(9.21951430434413E-016,-1.,0.));
#379=DIRECTION('',(-1.,-9.21951430434413E-016,0.));
#380=DIRECTION('',(1.,9.21951430434413E-016,0.));
#381=DIRECTION('',(9.21951430434413E-016,-1.,-2.28499458763667E-016));
#382=DIRECTION('',(0.997259893792448,-3.08148791101958E-033,0.0739777279529112
));
#383=DIRECTION('',(-0.0739777279529112,-2.96077218084761E-016,
0.997259893792448));
#384=DIRECTION('',(9.21951430434413E-016,-1.,0.));
#385=DIRECTION('',(-1.,-9.21951430434413E-016,0.));
#386=DIRECTION('',(0.,0.,-1.));
#387=DIRECTION('',(0.,-1.,0.));
#388=DIRECTION('',(0.,0.,-1.));
#389=DIRECTION('',(0.,-1.,0.));
#390=CARTESIAN_POINT('',(0.,0.,0.));
#391=CARTESIAN_POINT('',(118.080453999998,2168.281361,2151.475163));
#392=CARTESIAN_POINT('',(118.080453999998,2168.281361,2166.475163));
#393=CARTESIAN_POINT('',(127.554686999998,2168.281361,2167.177971));
#394=CARTESIAN_POINT('',(202.700619999998,2168.281361,2223.142055));
#395=CARTESIAN_POINT('',(202.700619999998,2168.281361,2237.142055));
#396=CARTESIAN_POINT('',(212.024567999998,2168.281361,2237.967556));
#397=CARTESIAN_POINT('',(212.024567999998,2168.281361,2249.5));
#398=CARTESIAN_POINT('',(194.016261999998,2168.281361,2248.414249));
#399=CARTESIAN_POINT('',(123.934517999999,2168.281361,2193.732976));
#400=CARTESIAN_POINT('',(115.894219999999,2168.281361,2176.824702));
#401=CARTESIAN_POINT('',(103.080453999998,2168.281361,2166.16450955899));
#402=CARTESIAN_POINT('',(103.080453999998,2168.281361,2151.475163));
#403=CARTESIAN_POINT('',(118.080454,168.281361,2151.475163));
#404=CARTESIAN_POINT('',(118.080454,168.281361,2166.475163));
#405=CARTESIAN_POINT('',(127.554687,168.281361,2167.177971));
#406=CARTESIAN_POINT('',(202.70062,168.281361,2223.142055));
#407=CARTESIAN_POINT('',(202.70062,168.281361,2237.142055));
#408=CARTESIAN_POINT('',(212.024568,168.281361,2237.967556));
#409=CARTESIAN_POINT('',(212.024568,168.281361,2249.5));
#410=CARTESIAN_POINT('',(194.016262,168.281361,2248.414249));
#411=CARTESIAN_POINT('',(123.934518,168.281361,2193.732976));
#412=CARTESIAN_POINT('',(115.894220000001,168.281361,2176.824702));
#413=CARTESIAN_POINT('',(103.080454,168.281361,2166.16450955899));
#414=CARTESIAN_POINT('',(103.080454,168.281361,2151.475163));
#415=CARTESIAN_POINT('',(103.080453999998,2168.281361,2151.475163));
#416=CARTESIAN_POINT('',(103.080453999998,2168.281361,2166.16450955899));
#417=CARTESIAN_POINT('',(115.894219999999,2168.281361,2176.824702));
#418=CARTESIAN_POINT('',(123.934517999999,2168.281361,2193.732976));
#419=CARTESIAN_POINT('',(194.016261999998,2168.281361,2248.414249));
#420=CARTESIAN_POINT('',(212.024567999998,2168.281361,2249.5));
#421=CARTESIAN_POINT('',(212.024567999998,2168.281361,2237.967556));
#422=CARTESIAN_POINT('',(202.700619999998,2168.281361,2237.142055));
#423=CARTESIAN_POINT('',(202.700619999998,2168.281361,2223.142055));
#424=CARTESIAN_POINT('',(127.554686999998,2168.281361,2167.177971));
#425=CARTESIAN_POINT('',(118.080453999998,2168.281361,2166.475163));
#426=CARTESIAN_POINT('',(118.080453999998,2168.281361,2151.475163));
#427=CARTESIAN_POINT('',(118.080453999998,2168.281361,2166.475163));
#428=CARTESIAN_POINT('',(127.554686999998,2168.281361,2167.177971));
#429=CARTESIAN_POINT('',(203.749155145245,2168.281361,2143.30088179376));
#430=CARTESIAN_POINT('',(202.700619999998,2168.281361,2237.142055));
#431=CARTESIAN_POINT('',(212.024567999998,2168.281361,2237.967556));
#432=CARTESIAN_POINT('',(212.024567999998,2168.281361,2249.5));
#433=CARTESIAN_POINT('',(194.016261999998,2168.281361,2248.414249));
#434=CARTESIAN_POINT('',(123.934517999999,2168.281361,2193.732976));
#435=CARTESIAN_POINT('',(115.894219999999,2168.281361,2176.824702));
#436=CARTESIAN_POINT('',(103.080453999998,2168.281361,2166.16450955899));
#437=CARTESIAN_POINT('',(103.080453999998,2168.281361,2151.475163));
#438=CARTESIAN_POINT('',(118.080453999998,2168.281361,2151.475163));
#439=CARTESIAN_POINT('',(118.080454,168.281361,2166.475163));
#440=CARTESIAN_POINT('',(127.554687,168.281361,2167.177971));
#441=CARTESIAN_POINT('',(203.749155145247,168.281361,2143.30088179376));
#442=CARTESIAN_POINT('',(202.70062,168.281361,2237.142055));
#443=CARTESIAN_POINT('',(212.024568,168.281361,2237.967556));
#444=CARTESIAN_POINT('',(212.024568,168.281361,2249.5));
#445=CARTESIAN_POINT('',(194.016262,168.281361,2248.414249));
#446=CARTESIAN_POINT('',(123.934518,168.281361,2193.732976));
#447=CARTESIAN_POINT('',(115.894220000001,168.281361,2176.824702));
#448=CARTESIAN_POINT('',(103.080454,168.281361,2166.16450955899));
#449=CARTESIAN_POINT('',(103.080454,168.281361,2151.475163));
#450=CARTESIAN_POINT('',(118.080454,168.281361,2151.475163));
#451=CARTESIAN_POINT('',(118.080453999998,2168.281361,2151.475163));
#452=CARTESIAN_POINT('',(103.080453999998,2168.281361,2151.475163));
#453=CARTESIAN_POINT('',(103.080453999998,2168.281361,2166.16450955899));
#454=CARTESIAN_POINT('',(115.894219999999,2168.281361,2176.824702));
#455=CARTESIAN_POINT('',(123.934517999999,2168.281361,2193.732976));
#456=CARTESIAN_POINT('',(194.016261999998,2168.281361,2248.414249));
#457=CARTESIAN_POINT('',(212.024567999998,2168.281361,2249.5));
#458=CARTESIAN_POINT('',(212.024567999998,2168.281361,2237.967556));
#459=CARTESIAN_POINT('',(202.700619999998,2168.281361,2237.142055));
#460=CARTESIAN_POINT('',(203.749155145245,2168.281361,2143.30088179376));
#461=CARTESIAN_POINT('',(127.554686999998,2168.281361,2167.177971));
#462=CARTESIAN_POINT('',(118.080453999998,2168.281361,2166.475163));
#463=CARTESIAN_POINT('',(203.749155145245,2168.281361,2143.30088179376));
#464=CARTESIAN_POINT('',(203.749155145247,168.281361,2143.30088179376));
#465=PRODUCT_DEFINITION_SHAPE('','',#466);
#466=PRODUCT_DEFINITION('','',#478,#483);
#467=(
GEOMETRIC_REPRESENTATION_CONTEXT(3)
GLOBAL_UNCERTAINTY_ASSIGNED_CONTEXT((#468))
GLOBAL_UNIT_ASSIGNED_CONTEXT((#470,#469,#473))
REPRESENTATION_CONTEXT('','')
);
#468=UNCERTAINTY_MEASURE_WITH_UNIT(LENGTH_MEASURE(0.001),#470,'','tolerance');
#469=(
CONVERSION_BASED_UNIT('',#471)
NAMED_UNIT(#477)
PLANE_ANGLE_UNIT()
);
#470=(
CONVERSION_BASED_UNIT('',#472)
LENGTH_UNIT()
NAMED_UNIT(#476)
);
#471=PLANE_ANGLE_MEASURE_WITH_UNIT(PLANE_ANGLE_MEASURE(0.0174532925199433),
#474);
#472=LENGTH_MEASURE_WITH_UNIT(LENGTH_MEASURE(1.),#475);
#473=(
NAMED_UNIT(*)
SI_UNIT($,.STERADIAN.)
SOLID_ANGLE_UNIT()
);
#474=(
NAMED_UNIT(*)
PLANE_ANGLE_UNIT()
SI_UNIT($,.RADIAN.)
);
#475=(
LENGTH_UNIT()
NAMED_UNIT(*)
SI_UNIT(.MILLI.,.METRE.)
);
#476=DIMENSIONAL_EXPONENTS(1.,0.,0.,0.,0.,0.,0.);
#477=DIMENSIONAL_EXPONENTS(0.,0.,0.,0.,0.,0.,0.);
#478=PRODUCT_DEFINITION_FORMATION_WITH_SPECIFIED_SOURCE('','',#481,.NOT_KNOWN.
);
#479=PRODUCT_CATEGORY_RELATIONSHIP('','',#484,#480);
#480=PRODUCT_RELATED_PRODUCT_CATEGORY('assembly','',(#481));
#481=PRODUCT('','master','',(#482));
#482=PRODUCT_CONTEXT('',#486,'');
#483=PRODUCT_DEFINITION_CONTEXT('',#486,'part_definition');
#484=PRODUCT_CATEGORY('part','');
#485=APPLICATION_PROTOCOL_DEFINITION('international standard',
'automotive_design_cc2',1994,#486);
#486=APPLICATION_CONTEXT(
'configuration controlled 3D designs of mechanical parts and assemblies');
ENDSEC;
END-ISO-10303-21;
22305