ISO-10303-21;
HEADER;
/* Generated by software using Delcam plc STEP library */

FILE_DESCRIPTION(
/* description */ ('AP-214 File'),
/* implementation_level */ '2;1');

FILE_NAME(
/* name */ 'D632',
/* time_stamp */ 'Mon Feb 15 15:31:12 2021',
/* author */ (''),
/* organization */ (''),
/* preprocessor_version */ 'DELCAM STEP V1',
/* originating_system */ 'Exchange7.1.0006',
/* authorisation */ '');

FILE_SCHEMA (('AUTOMOTIVE_DESIGN'));
ENDSEC;
DATA;
#10=PRESENTATION_STYLE_ASSIGNMENT((#20));
#11=PRESENTATION_STYLE_ASSIGNMENT((#21));
#12=SURFACE_SIDE_STYLE('',(#14));
#13=SURFACE_SIDE_STYLE('',(#15));
#14=SURFACE_STYLE_FILL_AREA(#16);
#15=SURFACE_STYLE_FILL_AREA(#17);
#16=FILL_AREA_STYLE('',(#18));
#17=FILL_AREA_STYLE('',(#19));
#18=FILL_AREA_STYLE_COLOUR('',#45);
#19=FILL_AREA_STYLE_COLOUR('',#46);
#20=SURFACE_STYLE_USAGE(.BOTH.,#12);
#21=SURFACE_STYLE_USAGE(.BOTH.,#13);
#22=STYLED_ITEM('',(#10),#56);
#23=STYLED_ITEM('',(#10),#57);
#24=STYLED_ITEM('',(#10),#58);
#25=STYLED_ITEM('',(#10),#59);
#26=STYLED_ITEM('',(#10),#60);
#27=STYLED_ITEM('',(#10),#61);
#28=STYLED_ITEM('',(#10),#62);
#29=STYLED_ITEM('',(#10),#63);
#30=STYLED_ITEM('',(#10),#64);
#31=STYLED_ITEM('',(#10),#65);
#32=STYLED_ITEM('',(#10),#66);
#33=STYLED_ITEM('',(#10),#67);
#34=STYLED_ITEM('',(#10),#68);
#35=STYLED_ITEM('',(#10),#69);
#36=STYLED_ITEM('',(#10),#70);
#37=STYLED_ITEM('',(#10),#71);
#38=STYLED_ITEM('',(#10),#72);
#39=STYLED_ITEM('',(#10),#73);
#40=STYLED_ITEM('',(#10),#74);
#41=STYLED_ITEM('',(#10),#75);
#42=STYLED_ITEM('',(#10),#76);
#43=STYLED_ITEM('',(#10),#77);
#44=STYLED_ITEM('',(#11),#52);
#45=COLOUR_RGB('Standard04',0.,0.,0.);
#46=COLOUR_RGB('rgb_colour_1',0.4,0.4,0.4);
#47=MECHANICAL_DESIGN_GEOMETRIC_PRESENTATION_REPRESENTATION('',(#22,#23,#24,
#25,#26,#27,#28,#29,#30,#31,#32,#33,#34,#35,#36,#37,#38,#39,#40,#41,#42,#43,
#44),#1351);
#48=PRESENTATION_LAYER_ASSIGNMENT('0','General',(#56,#57,#58,#59,#60,#61,#62,
#63,#64,#65,#66,#67,#68,#69,#70,#71,#72,#73,#74,#75,#76,#77,#52));
#49=SHAPE_REPRESENTATION_RELATIONSHIP('','',#574,#50);
#50=MANIFOLD_SURFACE_SHAPE_REPRESENTATION('',(#51),#1351);
#51=SHELL_BASED_SURFACE_MODEL('',(#52));
#52=OPEN_SHELL('3',(#56,#57,#58,#59,#60,#61,#62,#63,#64,#65,#66,#67,#68,#69,
#70,#71,#72,#73,#74,#75,#76,#77));
#53=B_SPLINE_SURFACE_WITH_KNOTS('',1,3,((#1210,#1211,#1212,#1213,#1214,#1215,
#1216,#1217,#1218,#1219,#1220,#1221,#1222,#1223,#1224,#1225,#1226,#1227,#1228,
#1229,#1230,#1231,#1232,#1233,#1234,#1235,#1236,#1237,#1238,#1239,#1240,#1241,
#1242,#1243,#1244,#1245,#1246,#1247,#1248,#1249,#1250,#1251,#1252,#1253,#1254,
#1255,#1256,#1257,#1258,#1259,#1260,#1261,#1262,#1263,#1264,#1265,#1266,#1267,
#1268,#1269,#1270,#1271,#1272,#1273,#1274,#1275,#1276),(#1277,#1278,#1279,
#1280,#1281,#1282,#1283,#1284,#1285,#1286,#1287,#1288,#1289,#1290,#1291,#1292,
#1293,#1294,#1295,#1296,#1297,#1298,#1299,#1300,#1301,#1302,#1303,#1304,#1305,
#1306,#1307,#1308,#1309,#1310,#1311,#1312,#1313,#1314,#1315,#1316,#1317,#1318,
#1319,#1320,#1321,#1322,#1323,#1324,#1325,#1326,#1327,#1328,#1329,#1330,#1331,
#1332,#1333,#1334,#1335,#1336,#1337,#1338,#1339,#1340,#1341,#1342,#1343)),
.UNSPECIFIED.,.F.,.F.,.F.,(2,2),(4,3,3,3,3,3,3,3,3,3,3,3,3,3,3,3,3,3,3,3,3,3,4
),(0.,1.),(15.,16.,17.,18.,19.,20.,21.,22.,23.,24.,25.,26.,27.,28.,29.,30.,31.
,32.,33.,34.,35.,36.,37.),.UNSPECIFIED.);
#54=(
BOUNDED_SURFACE()
B_SPLINE_SURFACE(1,3,((#1188,#1189,#1190,#1191),(#1192,#1193,#1194,#1195)),
.UNSPECIFIED.,.F.,.F.,.F.)
B_SPLINE_SURFACE_WITH_KNOTS((2,2),(4,4),(0.,1.),(6.,7.),.UNSPECIFIED.)
GEOMETRIC_REPRESENTATION_ITEM()
RATIONAL_B_SPLINE_SURFACE(((1.,0.804740071098417,0.804740071098417,1.),(1.,
0.804740071098417,0.804740071098417,1.)))
REPRESENTATION_ITEM('')
SURFACE()
);
#55=(
BOUNDED_SURFACE()
B_SPLINE_SURFACE(1,3,((#1199,#1200,#1201,#1202),(#1203,#1204,#1205,#1206)),
.UNSPECIFIED.,.F.,.F.,.F.)
B_SPLINE_SURFACE_WITH_KNOTS((2,2),(4,4),(0.,1.),(11.,12.),.UNSPECIFIED.)
GEOMETRIC_REPRESENTATION_ITEM()
RATIONAL_B_SPLINE_SURFACE(((1.,0.804737854124365,0.804737854124365,1.),(1.,
0.804737854124365,0.804737854124365,1.)))
REPRESENTATION_ITEM('')
SURFACE()
);
#56=ADVANCED_FACE('',(#78),#242,.T.);
#57=ADVANCED_FACE('',(#79),#243,.T.);
#58=ADVANCED_FACE('',(#80),#244,.T.);
#59=ADVANCED_FACE('',(#81),#245,.T.);
#60=ADVANCED_FACE('',(#82),#246,.T.);
#61=ADVANCED_FACE('',(#83),#247,.T.);
#62=ADVANCED_FACE('',(#84),#248,.T.);
#63=ADVANCED_FACE('',(#85),#249,.T.);
#64=ADVANCED_FACE('',(#86),#54,.T.);
#65=ADVANCED_FACE('',(#87),#250,.T.);
#66=ADVANCED_FACE('',(#88),#251,.T.);
#67=ADVANCED_FACE('',(#89),#252,.T.);
#68=ADVANCED_FACE('',(#90),#55,.T.);
#69=ADVANCED_FACE('',(#91),#253,.T.);
#70=ADVANCED_FACE('',(#92),#254,.T.);
#71=ADVANCED_FACE('',(#93),#255,.T.);
#72=ADVANCED_FACE('',(#94),#53,.T.);
#73=ADVANCED_FACE('',(#95),#256,.T.);
#74=ADVANCED_FACE('',(#96),#257,.T.);
#75=ADVANCED_FACE('',(#97),#258,.T.);
#76=ADVANCED_FACE('',(#98),#259,.T.);
#77=ADVANCED_FACE('',(#99),#260,.T.);
#78=FACE_OUTER_BOUND('',#100,.T.);
#79=FACE_OUTER_BOUND('',#101,.T.);
#80=FACE_OUTER_BOUND('',#102,.T.);
#81=FACE_OUTER_BOUND('',#103,.T.);
#82=FACE_OUTER_BOUND('',#104,.T.);
#83=FACE_OUTER_BOUND('',#105,.T.);
#84=FACE_OUTER_BOUND('',#106,.T.);
#85=FACE_OUTER_BOUND('',#107,.T.);
#86=FACE_OUTER_BOUND('',#108,.T.);
#87=FACE_OUTER_BOUND('',#109,.T.);
#88=FACE_OUTER_BOUND('',#110,.T.);
#89=FACE_OUTER_BOUND('',#111,.T.);
#90=FACE_OUTER_BOUND('',#112,.T.);
#91=FACE_OUTER_BOUND('',#113,.T.);
#92=FACE_OUTER_BOUND('',#114,.T.);
#93=FACE_OUTER_BOUND('',#115,.T.);
#94=FACE_OUTER_BOUND('',#116,.T.);
#95=FACE_OUTER_BOUND('',#117,.T.);
#96=FACE_OUTER_BOUND('',#118,.T.);
#97=FACE_OUTER_BOUND('',#119,.T.);
#98=FACE_OUTER_BOUND('',#120,.T.);
#99=FACE_OUTER_BOUND('',#121,.T.);
#100=EDGE_LOOP('',(#122,#123,#124,#125));
#101=EDGE_LOOP('',(#126,#127,#128,#129,#130,#131,#132,#133,#134,#135,#136,#137
,#138,#139,#140,#141,#142,#143,#144,#145));
#102=EDGE_LOOP('',(#146,#147,#148,#149,#150,#151,#152,#153,#154,#155,#156,#157
,#158,#159,#160,#161,#162,#163,#164,#165));
#103=EDGE_LOOP('',(#166,#167,#168,#169));
#104=EDGE_LOOP('',(#170,#171,#172,#173));
#105=EDGE_LOOP('',(#174,#175,#176,#177));
#106=EDGE_LOOP('',(#178,#179,#180,#181));
#107=EDGE_LOOP('',(#182,#183,#184,#185));
#108=EDGE_LOOP('',(#186,#187,#188,#189));
#109=EDGE_LOOP('',(#190,#191,#192,#193));
#110=EDGE_LOOP('',(#194,#195,#196,#197));
#111=EDGE_LOOP('',(#198,#199,#200,#201));
#112=EDGE_LOOP('',(#202,#203,#204,#205));
#113=EDGE_LOOP('',(#206,#207,#208,#209));
#114=EDGE_LOOP('',(#210,#211,#212,#213));
#115=EDGE_LOOP('',(#214,#215,#216,#217));
#116=EDGE_LOOP('',(#218,#219,#220,#221));
#117=EDGE_LOOP('',(#222,#223,#224,#225));
#118=EDGE_LOOP('',(#226,#227,#228,#229));
#119=EDGE_LOOP('',(#230,#231,#232,#233));
#120=EDGE_LOOP('',(#234,#235,#236,#237));
#121=EDGE_LOOP('',(#238,#239,#240,#241));
#122=ORIENTED_EDGE('',*,*,#261,.T.);
#123=ORIENTED_EDGE('',*,*,#262,.T.);
#124=ORIENTED_EDGE('',*,*,#263,.T.);
#125=ORIENTED_EDGE('',*,*,#264,.T.);
#126=ORIENTED_EDGE('',*,*,#265,.T.);
#127=ORIENTED_EDGE('',*,*,#266,.T.);
#128=ORIENTED_EDGE('',*,*,#267,.T.);
#129=ORIENTED_EDGE('',*,*,#268,.T.);
#130=ORIENTED_EDGE('',*,*,#269,.T.);
#131=ORIENTED_EDGE('',*,*,#270,.T.);
#132=ORIENTED_EDGE('',*,*,#271,.T.);
#133=ORIENTED_EDGE('',*,*,#272,.T.);
#134=ORIENTED_EDGE('',*,*,#273,.T.);
#135=ORIENTED_EDGE('',*,*,#274,.T.);
#136=ORIENTED_EDGE('',*,*,#275,.T.);
#137=ORIENTED_EDGE('',*,*,#276,.T.);
#138=ORIENTED_EDGE('',*,*,#277,.T.);
#139=ORIENTED_EDGE('',*,*,#278,.T.);
#140=ORIENTED_EDGE('',*,*,#279,.T.);
#141=ORIENTED_EDGE('',*,*,#280,.T.);
#142=ORIENTED_EDGE('',*,*,#281,.T.);
#143=ORIENTED_EDGE('',*,*,#282,.T.);
#144=ORIENTED_EDGE('',*,*,#283,.T.);
#145=ORIENTED_EDGE('',*,*,#284,.T.);
#146=ORIENTED_EDGE('',*,*,#285,.T.);
#147=ORIENTED_EDGE('',*,*,#286,.T.);
#148=ORIENTED_EDGE('',*,*,#287,.T.);
#149=ORIENTED_EDGE('',*,*,#288,.T.);
#150=ORIENTED_EDGE('',*,*,#289,.T.);
#151=ORIENTED_EDGE('',*,*,#290,.T.);
#152=ORIENTED_EDGE('',*,*,#291,.T.);
#153=ORIENTED_EDGE('',*,*,#292,.T.);
#154=ORIENTED_EDGE('',*,*,#293,.T.);
#155=ORIENTED_EDGE('',*,*,#294,.T.);
#156=ORIENTED_EDGE('',*,*,#295,.T.);
#157=ORIENTED_EDGE('',*,*,#296,.T.);
#158=ORIENTED_EDGE('',*,*,#297,.T.);
#159=ORIENTED_EDGE('',*,*,#298,.T.);
#160=ORIENTED_EDGE('',*,*,#299,.T.);
#161=ORIENTED_EDGE('',*,*,#300,.T.);
#162=ORIENTED_EDGE('',*,*,#301,.T.);
#163=ORIENTED_EDGE('',*,*,#302,.T.);
#164=ORIENTED_EDGE('',*,*,#303,.T.);
#165=ORIENTED_EDGE('',*,*,#304,.T.);
#166=ORIENTED_EDGE('',*,*,#305,.T.);
#167=ORIENTED_EDGE('',*,*,#306,.T.);
#168=ORIENTED_EDGE('',*,*,#307,.T.);
#169=ORIENTED_EDGE('',*,*,#308,.T.);
#170=ORIENTED_EDGE('',*,*,#309,.T.);
#171=ORIENTED_EDGE('',*,*,#310,.T.);
#172=ORIENTED_EDGE('',*,*,#311,.T.);
#173=ORIENTED_EDGE('',*,*,#312,.T.);
#174=ORIENTED_EDGE('',*,*,#313,.T.);
#175=ORIENTED_EDGE('',*,*,#314,.T.);
#176=ORIENTED_EDGE('',*,*,#315,.T.);
#177=ORIENTED_EDGE('',*,*,#316,.T.);
#178=ORIENTED_EDGE('',*,*,#317,.T.);
#179=ORIENTED_EDGE('',*,*,#318,.T.);
#180=ORIENTED_EDGE('',*,*,#319,.T.);
#181=ORIENTED_EDGE('',*,*,#320,.T.);
#182=ORIENTED_EDGE('',*,*,#321,.T.);
#183=ORIENTED_EDGE('',*,*,#322,.T.);
#184=ORIENTED_EDGE('',*,*,#323,.T.);
#185=ORIENTED_EDGE('',*,*,#324,.T.);
#186=ORIENTED_EDGE('',*,*,#323,.T.);
#187=ORIENTED_EDGE('',*,*,#299,.T.);
#188=ORIENTED_EDGE('',*,*,#325,.T.);
#189=ORIENTED_EDGE('',*,*,#270,.T.);
#190=ORIENTED_EDGE('',*,*,#325,.T.);
#191=ORIENTED_EDGE('',*,*,#326,.T.);
#192=ORIENTED_EDGE('',*,*,#327,.T.);
#193=ORIENTED_EDGE('',*,*,#328,.T.);
#194=ORIENTED_EDGE('',*,*,#329,.T.);
#195=ORIENTED_EDGE('',*,*,#330,.T.);
#196=ORIENTED_EDGE('',*,*,#331,.T.);
#197=ORIENTED_EDGE('',*,*,#332,.T.);
#198=ORIENTED_EDGE('',*,*,#333,.T.);
#199=ORIENTED_EDGE('',*,*,#334,.T.);
#200=ORIENTED_EDGE('',*,*,#335,.T.);
#201=ORIENTED_EDGE('',*,*,#336,.T.);
#202=ORIENTED_EDGE('',*,*,#335,.T.);
#203=ORIENTED_EDGE('',*,*,#295,.T.);
#204=ORIENTED_EDGE('',*,*,#337,.T.);
#205=ORIENTED_EDGE('',*,*,#274,.T.);
#206=ORIENTED_EDGE('',*,*,#337,.T.);
#207=ORIENTED_EDGE('',*,*,#338,.T.);
#208=ORIENTED_EDGE('',*,*,#339,.T.);
#209=ORIENTED_EDGE('',*,*,#340,.T.);
#210=ORIENTED_EDGE('',*,*,#341,.T.);
#211=ORIENTED_EDGE('',*,*,#342,.T.);
#212=ORIENTED_EDGE('',*,*,#343,.T.);
#213=ORIENTED_EDGE('',*,*,#344,.T.);
#214=ORIENTED_EDGE('',*,*,#345,.T.);
#215=ORIENTED_EDGE('',*,*,#346,.T.);
#216=ORIENTED_EDGE('',*,*,#347,.T.);
#217=ORIENTED_EDGE('',*,*,#348,.T.);
#218=ORIENTED_EDGE('',*,*,#347,.T.);
#219=ORIENTED_EDGE('',*,*,#291,.T.);
#220=ORIENTED_EDGE('',*,*,#349,.T.);
#221=ORIENTED_EDGE('',*,*,#278,.T.);
#222=ORIENTED_EDGE('',*,*,#349,.T.);
#223=ORIENTED_EDGE('',*,*,#350,.T.);
#224=ORIENTED_EDGE('',*,*,#351,.T.);
#225=ORIENTED_EDGE('',*,*,#352,.T.);
#226=ORIENTED_EDGE('',*,*,#353,.T.);
#227=ORIENTED_EDGE('',*,*,#354,.T.);
#228=ORIENTED_EDGE('',*,*,#355,.T.);
#229=ORIENTED_EDGE('',*,*,#356,.T.);
#230=ORIENTED_EDGE('',*,*,#357,.T.);
#231=ORIENTED_EDGE('',*,*,#358,.T.);
#232=ORIENTED_EDGE('',*,*,#359,.T.);
#233=ORIENTED_EDGE('',*,*,#360,.T.);
#234=ORIENTED_EDGE('',*,*,#361,.T.);
#235=ORIENTED_EDGE('',*,*,#362,.T.);
#236=ORIENTED_EDGE('',*,*,#363,.T.);
#237=ORIENTED_EDGE('',*,*,#364,.T.);
#238=ORIENTED_EDGE('',*,*,#365,.T.);
#239=ORIENTED_EDGE('',*,*,#366,.T.);
#240=ORIENTED_EDGE('',*,*,#367,.T.);
#241=ORIENTED_EDGE('',*,*,#368,.T.);
#242=PLANE('',#576);
#243=PLANE('',#577);
#244=PLANE('',#578);
#245=PLANE('',#579);
#246=PLANE('',#580);
#247=PLANE('',#581);
#248=PLANE('',#582);
#249=PLANE('',#583);
#250=PLANE('',#584);
#251=PLANE('',#585);
#252=PLANE('',#586);
#253=PLANE('',#587);
#254=PLANE('',#588);
#255=PLANE('',#589);
#256=PLANE('',#590);
#257=PLANE('',#591);
#258=PLANE('',#592);
#259=PLANE('',#593);
#260=PLANE('',#594);
#261=EDGE_CURVE('',#480,#477,#369,.T.);
#262=EDGE_CURVE('',#477,#478,#370,.T.);
#263=EDGE_CURVE('',#478,#479,#371,.T.);
#264=EDGE_CURVE('',#479,#480,#372,.T.);
#265=EDGE_CURVE('',#500,#481,#373,.T.);
#266=EDGE_CURVE('',#481,#482,#374,.T.);
#267=EDGE_CURVE('',#482,#483,#375,.T.);
#268=EDGE_CURVE('',#483,#484,#376,.T.);
#269=EDGE_CURVE('',#484,#485,#377,.T.);
#270=EDGE_CURVE('',#485,#486,#378,.T.);
#271=EDGE_CURVE('',#486,#487,#379,.T.);
#272=EDGE_CURVE('',#487,#488,#380,.T.);
#273=EDGE_CURVE('',#488,#489,#381,.T.);
#274=EDGE_CURVE('',#489,#490,#382,.T.);
#275=EDGE_CURVE('',#490,#491,#383,.T.);
#276=EDGE_CURVE('',#491,#492,#384,.T.);
#277=EDGE_CURVE('',#492,#493,#385,.T.);
#278=EDGE_CURVE('',#493,#494,#386,.T.);
#279=EDGE_CURVE('',#494,#495,#387,.T.);
#280=EDGE_CURVE('',#495,#496,#388,.T.);
#281=EDGE_CURVE('',#496,#497,#389,.T.);
#282=EDGE_CURVE('',#497,#498,#390,.T.);
#283=EDGE_CURVE('',#498,#499,#391,.T.);
#284=EDGE_CURVE('',#499,#500,#392,.T.);
#285=EDGE_CURVE('',#520,#501,#393,.T.);
#286=EDGE_CURVE('',#501,#502,#394,.T.);
#287=EDGE_CURVE('',#502,#503,#395,.T.);
#288=EDGE_CURVE('',#503,#504,#396,.T.);
#289=EDGE_CURVE('',#504,#505,#397,.T.);
#290=EDGE_CURVE('',#505,#506,#398,.T.);
#291=EDGE_CURVE('',#506,#507,#399,.T.);
#292=EDGE_CURVE('',#507,#508,#400,.T.);
#293=EDGE_CURVE('',#508,#509,#401,.T.);
#294=EDGE_CURVE('',#509,#510,#402,.T.);
#295=EDGE_CURVE('',#510,#511,#403,.T.);
#296=EDGE_CURVE('',#511,#512,#404,.T.);
#297=EDGE_CURVE('',#512,#513,#405,.T.);
#298=EDGE_CURVE('',#513,#514,#406,.T.);
#299=EDGE_CURVE('',#514,#515,#407,.T.);
#300=EDGE_CURVE('',#515,#516,#408,.T.);
#301=EDGE_CURVE('',#516,#517,#409,.T.);
#302=EDGE_CURVE('',#517,#518,#410,.T.);
#303=EDGE_CURVE('',#518,#519,#411,.T.);
#304=EDGE_CURVE('',#519,#520,#412,.T.);
#305=EDGE_CURVE('',#524,#521,#413,.T.);
#306=EDGE_CURVE('',#521,#522,#414,.T.);
#307=EDGE_CURVE('',#522,#523,#415,.T.);
#308=EDGE_CURVE('',#523,#524,#416,.T.);
#309=EDGE_CURVE('',#528,#525,#417,.T.);
#310=EDGE_CURVE('',#525,#526,#418,.T.);
#311=EDGE_CURVE('',#526,#527,#419,.T.);
#312=EDGE_CURVE('',#527,#528,#420,.T.);
#313=EDGE_CURVE('',#532,#529,#421,.T.);
#314=EDGE_CURVE('',#529,#530,#422,.T.);
#315=EDGE_CURVE('',#530,#531,#423,.T.);
#316=EDGE_CURVE('',#531,#532,#424,.T.);
#317=EDGE_CURVE('',#536,#533,#425,.T.);
#318=EDGE_CURVE('',#533,#534,#426,.T.);
#319=EDGE_CURVE('',#534,#535,#427,.T.);
#320=EDGE_CURVE('',#535,#536,#428,.T.);
#321=EDGE_CURVE('',#538,#537,#429,.T.);
#322=EDGE_CURVE('',#537,#515,#430,.T.);
#323=EDGE_CURVE('',#515,#485,#431,.T.);
#324=EDGE_CURVE('',#485,#538,#432,.T.);
#325=EDGE_CURVE('',#486,#514,#433,.T.);
#326=EDGE_CURVE('',#514,#539,#434,.T.);
#327=EDGE_CURVE('',#539,#540,#435,.T.);
#328=EDGE_CURVE('',#540,#486,#436,.T.);
#329=EDGE_CURVE('',#544,#541,#437,.T.);
#330=EDGE_CURVE('',#541,#542,#438,.T.);
#331=EDGE_CURVE('',#542,#543,#439,.T.);
#332=EDGE_CURVE('',#543,#544,#440,.T.);
#333=EDGE_CURVE('',#546,#545,#441,.T.);
#334=EDGE_CURVE('',#545,#511,#442,.T.);
#335=EDGE_CURVE('',#511,#489,#443,.T.);
#336=EDGE_CURVE('',#489,#546,#444,.T.);
#337=EDGE_CURVE('',#490,#510,#445,.T.);
#338=EDGE_CURVE('',#510,#547,#446,.T.);
#339=EDGE_CURVE('',#547,#548,#447,.T.);
#340=EDGE_CURVE('',#548,#490,#448,.T.);
#341=EDGE_CURVE('',#552,#549,#449,.T.);
#342=EDGE_CURVE('',#549,#550,#450,.T.);
#343=EDGE_CURVE('',#550,#551,#451,.T.);
#344=EDGE_CURVE('',#551,#552,#452,.T.);
#345=EDGE_CURVE('',#554,#553,#453,.T.);
#346=EDGE_CURVE('',#553,#507,#454,.T.);
#347=EDGE_CURVE('',#507,#493,#455,.T.);
#348=EDGE_CURVE('',#493,#554,#456,.T.);
#349=EDGE_CURVE('',#494,#506,#457,.T.);
#350=EDGE_CURVE('',#506,#555,#458,.T.);
#351=EDGE_CURVE('',#555,#556,#459,.T.);
#352=EDGE_CURVE('',#556,#494,#460,.T.);
#353=EDGE_CURVE('',#560,#557,#461,.T.);
#354=EDGE_CURVE('',#557,#558,#462,.T.);
#355=EDGE_CURVE('',#558,#559,#463,.T.);
#356=EDGE_CURVE('',#559,#560,#464,.T.);
#357=EDGE_CURVE('',#564,#561,#465,.T.);
#358=EDGE_CURVE('',#561,#562,#466,.T.);
#359=EDGE_CURVE('',#562,#563,#467,.T.);
#360=EDGE_CURVE('',#563,#564,#468,.T.);
#361=EDGE_CURVE('',#568,#565,#469,.T.);
#362=EDGE_CURVE('',#565,#566,#470,.T.);
#363=EDGE_CURVE('',#566,#567,#471,.T.);
#364=EDGE_CURVE('',#567,#568,#472,.T.);
#365=EDGE_CURVE('',#572,#569,#473,.T.);
#366=EDGE_CURVE('',#569,#570,#474,.T.);
#367=EDGE_CURVE('',#570,#571,#475,.T.);
#368=EDGE_CURVE('',#571,#572,#476,.T.);
#369=B_SPLINE_CURVE_WITH_KNOTS('',1,(#732,#733),.UNSPECIFIED.,.F.,.F.,(2,2),(
0.,1.),.UNSPECIFIED.);
#370=B_SPLINE_CURVE_WITH_KNOTS('',1,(#734,#735),.UNSPECIFIED.,.F.,.F.,(2,2),(
0.,1.),.UNSPECIFIED.);
#371=B_SPLINE_CURVE_WITH_KNOTS('',1,(#736,#737),.UNSPECIFIED.,.F.,.F.,(2,2),(
0.,1.),.UNSPECIFIED.);
#372=B_SPLINE_CURVE_WITH_KNOTS('',1,(#738,#739),.UNSPECIFIED.,.F.,.F.,(2,2),(
0.,1.),.UNSPECIFIED.);
#373=B_SPLINE_CURVE_WITH_KNOTS('',1,(#740,#741),.UNSPECIFIED.,.F.,.F.,(2,2),(
0.,1.),.UNSPECIFIED.);
#374=B_SPLINE_CURVE_WITH_KNOTS('',1,(#742,#743),.UNSPECIFIED.,.F.,.F.,(2,2),(
0.,1.),.UNSPECIFIED.);
#375=B_SPLINE_CURVE_WITH_KNOTS('',1,(#744,#745,#746),.UNSPECIFIED.,.F.,.F.,(2,
1,2),(0.,1.,2.),.UNSPECIFIED.);
#376=B_SPLINE_CURVE_WITH_KNOTS('',1,(#747,#748),.UNSPECIFIED.,.F.,.F.,(2,2),(
0.,1.),.UNSPECIFIED.);
#377=B_SPLINE_CURVE_WITH_KNOTS('',1,(#749,#750),.UNSPECIFIED.,.F.,.F.,(2,2),(
0.,1.),.UNSPECIFIED.);
#378=B_SPLINE_CURVE_WITH_KNOTS('',1,(#751,#752,#753,#754,#755,#756,#757,#758,
#759,#760,#761,#762,#763,#764,#765,#766,#767,#768,#769,#770,#771,#772,#773,
#774,#775,#776,#777,#778,#779,#780,#781,#782,#783),.UNSPECIFIED.,.F.,.F.,(2,1,
1,1,1,1,1,1,1,1,1,1,1,1,1,1,1,1,1,1,1,1,1,1,1,1,1,1,1,1,1,1,2),(0.,1.,2.,3.,4.
,5.,6.,7.,8.,9.,10.,11.,12.,13.,14.,15.,16.,17.,18.,19.,20.,21.,22.,23.,24.,
25.,26.,27.,28.,29.,30.,31.,32.),.UNSPECIFIED.);
#379=B_SPLINE_CURVE_WITH_KNOTS('',1,(#784,#785),.UNSPECIFIED.,.F.,.F.,(2,2),(
0.,1.),.UNSPECIFIED.);
#380=B_SPLINE_CURVE_WITH_KNOTS('',1,(#786,#787),.UNSPECIFIED.,.F.,.F.,(2,2),(
0.,1.),.UNSPECIFIED.);
#381=B_SPLINE_CURVE_WITH_KNOTS('',1,(#788,#789),.UNSPECIFIED.,.F.,.F.,(2,2),(
0.,1.),.UNSPECIFIED.);
#382=B_SPLINE_CURVE_WITH_KNOTS('',1,(#790,#791,#792,#793,#794,#795,#796,#797,
#798,#799,#800,#801,#802,#803,#804,#805,#806,#807,#808,#809,#810,#811,#812,
#813,#814,#815,#816,#817,#818,#819,#820,#821,#822,#823,#824,#825,#826,#827,
#828,#829,#830,#831,#832,#833,#834,#835,#836,#837,#838,#839,#840,#841,#842,
#843,#844,#845,#846,#847,#848,#849,#850,#851,#852,#853,#854),.UNSPECIFIED.,.F.
,.F.,(2,1,1,1,1,1,1,1,1,1,1,1,1,1,1,1,1,1,1,1,1,1,1,1,1,1,1,1,1,1,1,1,1,1,1,1,
1,1,1,1,1,1,1,1,1,1,1,1,1,1,1,1,1,1,1,1,1,1,1,1,1,1,1,1,2),(0.,1.,2.,3.,4.,5.,
6.,7.,8.,9.,10.,11.,12.,13.,14.,15.,16.,17.,18.,19.,20.,21.,22.,23.,24.,25.,
26.,27.,28.,29.,30.,31.,32.,33.,34.,35.,36.,37.,38.,39.,40.,41.,42.,43.,44.,
45.,46.,47.,48.,49.,50.,51.,52.,53.,54.,55.,56.,57.,58.,59.,60.,61.,62.,63.,
64.),.UNSPECIFIED.);
#383=B_SPLINE_CURVE_WITH_KNOTS('',1,(#855,#856),.UNSPECIFIED.,.F.,.F.,(2,2),(
0.,1.),.UNSPECIFIED.);
#384=B_SPLINE_CURVE_WITH_KNOTS('',1,(#857,#858),.UNSPECIFIED.,.F.,.F.,(2,2),(
0.,1.),.UNSPECIFIED.);
#385=B_SPLINE_CURVE_WITH_KNOTS('',1,(#859,#860),.UNSPECIFIED.,.F.,.F.,(2,2),(
0.,1.),.UNSPECIFIED.);
#386=B_SPLINE_CURVE_WITH_KNOTS('',1,(#861,#862,#863,#864,#865,#866,#867,#868,
#869,#870,#871,#872,#873,#874,#875,#876,#877,#878,#879,#880,#881,#882,#883),
.UNSPECIFIED.,.F.,.F.,(2,1,1,1,1,1,1,1,1,1,1,1,1,1,1,1,1,1,1,1,1,1,2),(0.,1.,
2.,3.,4.,5.,6.,7.,8.,9.,10.,11.,12.,13.,14.,15.,16.,17.,18.,19.,20.,21.,22.),
.UNSPECIFIED.);
#387=B_SPLINE_CURVE_WITH_KNOTS('',1,(#884,#885),.UNSPECIFIED.,.F.,.F.,(2,2),(
0.,1.),.UNSPECIFIED.);
#388=B_SPLINE_CURVE_WITH_KNOTS('',1,(#886,#887),.UNSPECIFIED.,.F.,.F.,(2,2),(
0.,1.),.UNSPECIFIED.);
#389=B_SPLINE_CURVE_WITH_KNOTS('',1,(#888,#889),.UNSPECIFIED.,.F.,.F.,(2,2),(
0.,1.),.UNSPECIFIED.);
#390=B_SPLINE_CURVE_WITH_KNOTS('',1,(#890,#891),.UNSPECIFIED.,.F.,.F.,(2,2),(
0.,1.),.UNSPECIFIED.);
#391=B_SPLINE_CURVE_WITH_KNOTS('',1,(#892,#893),.UNSPECIFIED.,.F.,.F.,(2,2),(
0.,1.),.UNSPECIFIED.);
#392=B_SPLINE_CURVE_WITH_KNOTS('',1,(#894,#895),.UNSPECIFIED.,.F.,.F.,(2,2),(
0.,1.),.UNSPECIFIED.);
#393=B_SPLINE_CURVE_WITH_KNOTS('',1,(#896,#897),.UNSPECIFIED.,.F.,.F.,(2,2),(
0.,1.),.UNSPECIFIED.);
#394=B_SPLINE_CURVE_WITH_KNOTS('',1,(#898,#899),.UNSPECIFIED.,.F.,.F.,(2,2),(
0.,1.),.UNSPECIFIED.);
#395=B_SPLINE_CURVE_WITH_KNOTS('',1,(#900,#901),.UNSPECIFIED.,.F.,.F.,(2,2),(
0.,1.),.UNSPECIFIED.);
#396=B_SPLINE_CURVE_WITH_KNOTS('',1,(#902,#903),.UNSPECIFIED.,.F.,.F.,(2,2),(
0.,1.),.UNSPECIFIED.);
#397=B_SPLINE_CURVE_WITH_KNOTS('',1,(#904,#905),.UNSPECIFIED.,.F.,.F.,(2,2),(
0.,1.),.UNSPECIFIED.);
#398=B_SPLINE_CURVE_WITH_KNOTS('',1,(#906,#907),.UNSPECIFIED.,.F.,.F.,(2,2),(
0.,1.),.UNSPECIFIED.);
#399=B_SPLINE_CURVE_WITH_KNOTS('',1,(#908,#909,#910,#911,#912,#913,#914,#915,
#916,#917,#918,#919,#920,#921,#922,#923,#924,#925,#926,#927,#928,#929,#930),
.UNSPECIFIED.,.F.,.F.,(2,1,1,1,1,1,1,1,1,1,1,1,1,1,1,1,1,1,1,1,1,1,2),(0.,1.,
2.,3.,4.,5.,6.,7.,8.,9.,10.,11.,12.,13.,14.,15.,16.,17.,18.,19.,20.,21.,22.),
.UNSPECIFIED.);
#400=B_SPLINE_CURVE_WITH_KNOTS('',1,(#931,#932),.UNSPECIFIED.,.F.,.F.,(2,2),(
0.,1.),.UNSPECIFIED.);
#401=B_SPLINE_CURVE_WITH_KNOTS('',1,(#933,#934),.UNSPECIFIED.,.F.,.F.,(2,2),(
0.,1.),.UNSPECIFIED.);
#402=B_SPLINE_CURVE_WITH_KNOTS('',1,(#935,#936),.UNSPECIFIED.,.F.,.F.,(2,2),(
0.,1.),.UNSPECIFIED.);
#403=B_SPLINE_CURVE_WITH_KNOTS('',1,(#937,#938,#939,#940,#941,#942,#943,#944,
#945,#946,#947,#948,#949,#950,#951,#952,#953,#954,#955,#956,#957,#958,#959,
#960,#961,#962,#963,#964,#965,#966,#967,#968,#969,#970,#971,#972,#973,#974,
#975,#976,#977,#978,#979,#980,#981,#982,#983,#984,#985,#986,#987,#988,#989,
#990,#991,#992,#993,#994,#995,#996,#997,#998,#999,#1000,#1001),.UNSPECIFIED.,
.F.,.F.,(2,1,1,1,1,1,1,1,1,1,1,1,1,1,1,1,1,1,1,1,1,1,1,1,1,1,1,1,1,1,1,1,1,1,1
,1,1,1,1,1,1,1,1,1,1,1,1,1,1,1,1,1,1,1,1,1,1,1,1,1,1,1,1,1,2),(0.,1.,2.,3.,4.,
5.,6.,7.,8.,9.,10.,11.,12.,13.,14.,15.,16.,17.,18.,19.,20.,21.,22.,23.,24.,25.
,26.,27.,28.,29.,30.,31.,32.,33.,34.,35.,36.,37.,38.,39.,40.,41.,42.,43.,44.,
45.,46.,47.,48.,49.,50.,51.,52.,53.,54.,55.,56.,57.,58.,59.,60.,61.,62.,63.,
64.),.UNSPECIFIED.);
#404=B_SPLINE_CURVE_WITH_KNOTS('',1,(#1002,#1003),.UNSPECIFIED.,.F.,.F.,(2,2),
(0.,1.),.UNSPECIFIED.);
#405=B_SPLINE_CURVE_WITH_KNOTS('',1,(#1004,#1005),.UNSPECIFIED.,.F.,.F.,(2,2),
(0.,1.),.UNSPECIFIED.);
#406=B_SPLINE_CURVE_WITH_KNOTS('',1,(#1006,#1007),.UNSPECIFIED.,.F.,.F.,(2,2),
(0.,1.),.UNSPECIFIED.);
#407=B_SPLINE_CURVE_WITH_KNOTS('',1,(#1008,#1009,#1010,#1011,#1012,#1013,#1014
,#1015,#1016,#1017,#1018,#1019,#1020,#1021,#1022,#1023,#1024,#1025,#1026,#1027
,#1028,#1029,#1030,#1031,#1032,#1033,#1034,#1035,#1036,#1037,#1038,#1039,#1040
),.UNSPECIFIED.,.F.,.F.,(2,1,1,1,1,1,1,1,1,1,1,1,1,1,1,1,1,1,1,1,1,1,1,1,1,1,1
,1,1,1,1,1,2),(0.,1.,2.,3.,4.,5.,6.,7.,8.,9.,10.,11.,12.,13.,14.,15.,16.,17.,
18.,19.,20.,21.,22.,23.,24.,25.,26.,27.,28.,29.,30.,31.,32.),.UNSPECIFIED.);
#408=B_SPLINE_CURVE_WITH_KNOTS('',1,(#1041,#1042),.UNSPECIFIED.,.F.,.F.,(2,2),
(0.,1.),.UNSPECIFIED.);
#409=B_SPLINE_CURVE_WITH_KNOTS('',1,(#1043,#1044),.UNSPECIFIED.,.F.,.F.,(2,2),
(0.,1.),.UNSPECIFIED.);
#410=B_SPLINE_CURVE_WITH_KNOTS('',1,(#1045,#1046,#1047),.UNSPECIFIED.,.F.,.F.,
(2,1,2),(0.,1.,2.),.UNSPECIFIED.);
#411=B_SPLINE_CURVE_WITH_KNOTS('',1,(#1048,#1049),.UNSPECIFIED.,.F.,.F.,(2,2),
(0.,1.),.UNSPECIFIED.);
#412=B_SPLINE_CURVE_WITH_KNOTS('',1,(#1050,#1051),.UNSPECIFIED.,.F.,.F.,(2,2),
(0.,1.),.UNSPECIFIED.);
#413=B_SPLINE_CURVE_WITH_KNOTS('',1,(#1052,#1053),.UNSPECIFIED.,.F.,.F.,(2,2),
(0.,1.),.UNSPECIFIED.);
#414=B_SPLINE_CURVE_WITH_KNOTS('',1,(#1054,#1055),.UNSPECIFIED.,.F.,.F.,(2,2),
(0.,1.),.UNSPECIFIED.);
#415=B_SPLINE_CURVE_WITH_KNOTS('',1,(#1056,#1057),.UNSPECIFIED.,.F.,.F.,(2,2),
(0.,1.),.UNSPECIFIED.);
#416=B_SPLINE_CURVE_WITH_KNOTS('',1,(#1058,#1059),.UNSPECIFIED.,.F.,.F.,(2,2),
(0.,1.),.UNSPECIFIED.);
#417=B_SPLINE_CURVE_WITH_KNOTS('',1,(#1060,#1061),.UNSPECIFIED.,.F.,.F.,(2,2),
(0.,1.),.UNSPECIFIED.);
#418=B_SPLINE_CURVE_WITH_KNOTS('',1,(#1062,#1063),.UNSPECIFIED.,.F.,.F.,(2,2),
(0.,1.),.UNSPECIFIED.);
#419=B_SPLINE_CURVE_WITH_KNOTS('',1,(#1064,#1065),.UNSPECIFIED.,.F.,.F.,(2,2),
(0.,1.),.UNSPECIFIED.);
#420=B_SPLINE_CURVE_WITH_KNOTS('',1,(#1066,#1067),.UNSPECIFIED.,.F.,.F.,(2,2),
(0.,1.),.UNSPECIFIED.);
#421=B_SPLINE_CURVE_WITH_KNOTS('',1,(#1068,#1069),.UNSPECIFIED.,.F.,.F.,(2,2),
(0.,1.),.UNSPECIFIED.);
#422=B_SPLINE_CURVE_WITH_KNOTS('',1,(#1070,#1071),.UNSPECIFIED.,.F.,.F.,(2,2),
(0.,1.),.UNSPECIFIED.);
#423=B_SPLINE_CURVE_WITH_KNOTS('',1,(#1072,#1073),.UNSPECIFIED.,.F.,.F.,(2,2),
(0.,1.),.UNSPECIFIED.);
#424=B_SPLINE_CURVE_WITH_KNOTS('',1,(#1074,#1075),.UNSPECIFIED.,.F.,.F.,(2,2),
(0.,1.),.UNSPECIFIED.);
#425=B_SPLINE_CURVE_WITH_KNOTS('',1,(#1076,#1077),.UNSPECIFIED.,.F.,.F.,(2,2),
(0.,1.),.UNSPECIFIED.);
#426=B_SPLINE_CURVE_WITH_KNOTS('',1,(#1078,#1079),.UNSPECIFIED.,.F.,.F.,(2,2),
(0.,1.),.UNSPECIFIED.);
#427=B_SPLINE_CURVE_WITH_KNOTS('',1,(#1080,#1081),.UNSPECIFIED.,.F.,.F.,(2,2),
(0.,1.),.UNSPECIFIED.);
#428=B_SPLINE_CURVE_WITH_KNOTS('',1,(#1082,#1083),.UNSPECIFIED.,.F.,.F.,(2,2),
(0.,1.),.UNSPECIFIED.);
#429=B_SPLINE_CURVE_WITH_KNOTS('',1,(#1084,#1085),.UNSPECIFIED.,.F.,.F.,(2,2),
(0.,1.),.UNSPECIFIED.);
#430=B_SPLINE_CURVE_WITH_KNOTS('',1,(#1086,#1087),.UNSPECIFIED.,.F.,.F.,(2,2),
(0.,1.),.UNSPECIFIED.);
#431=B_SPLINE_CURVE_WITH_KNOTS('',1,(#1088,#1089),.UNSPECIFIED.,.F.,.F.,(2,2),
(0.,1.),.UNSPECIFIED.);
#432=B_SPLINE_CURVE_WITH_KNOTS('',1,(#1090,#1091),.UNSPECIFIED.,.F.,.F.,(2,2),
(0.,1.),.UNSPECIFIED.);
#433=B_SPLINE_CURVE_WITH_KNOTS('',1,(#1092,#1093),.UNSPECIFIED.,.F.,.F.,(2,2),
(0.,1.),.UNSPECIFIED.);
#434=B_SPLINE_CURVE_WITH_KNOTS('',1,(#1094,#1095),.UNSPECIFIED.,.F.,.F.,(2,2),
(0.,1.),.UNSPECIFIED.);
#435=B_SPLINE_CURVE_WITH_KNOTS('',1,(#1096,#1097),.UNSPECIFIED.,.F.,.F.,(2,2),
(0.,1.),.UNSPECIFIED.);
#436=B_SPLINE_CURVE_WITH_KNOTS('',1,(#1098,#1099),.UNSPECIFIED.,.F.,.F.,(2,2),
(0.,1.),.UNSPECIFIED.);
#437=B_SPLINE_CURVE_WITH_KNOTS('',1,(#1100,#1101),.UNSPECIFIED.,.F.,.F.,(2,2),
(0.,1.),.UNSPECIFIED.);
#438=B_SPLINE_CURVE_WITH_KNOTS('',1,(#1102,#1103),.UNSPECIFIED.,.F.,.F.,(2,2),
(0.,1.),.UNSPECIFIED.);
#439=B_SPLINE_CURVE_WITH_KNOTS('',1,(#1104,#1105),.UNSPECIFIED.,.F.,.F.,(2,2),
(0.,1.),.UNSPECIFIED.);
#440=B_SPLINE_CURVE_WITH_KNOTS('',1,(#1106,#1107),.UNSPECIFIED.,.F.,.F.,(2,2),
(0.,1.),.UNSPECIFIED.);
#441=B_SPLINE_CURVE_WITH_KNOTS('',1,(#1108,#1109),.UNSPECIFIED.,.F.,.F.,(2,2),
(0.,1.),.UNSPECIFIED.);
#442=B_SPLINE_CURVE_WITH_KNOTS('',1,(#1110,#1111),.UNSPECIFIED.,.F.,.F.,(2,2),
(0.,1.),.UNSPECIFIED.);
#443=B_SPLINE_CURVE_WITH_KNOTS('',1,(#1112,#1113),.UNSPECIFIED.,.F.,.F.,(2,2),
(0.,1.),.UNSPECIFIED.);
#444=B_SPLINE_CURVE_WITH_KNOTS('',1,(#1114,#1115),.UNSPECIFIED.,.F.,.F.,(2,2),
(0.,1.),.UNSPECIFIED.);
#445=B_SPLINE_CURVE_WITH_KNOTS('',1,(#1116,#1117),.UNSPECIFIED.,.F.,.F.,(2,2),
(0.,1.),.UNSPECIFIED.);
#446=B_SPLINE_CURVE_WITH_KNOTS('',1,(#1118,#1119),.UNSPECIFIED.,.F.,.F.,(2,2),
(0.,1.),.UNSPECIFIED.);
#447=B_SPLINE_CURVE_WITH_KNOTS('',1,(#1120,#1121),.UNSPECIFIED.,.F.,.F.,(2,2),
(0.,1.),.UNSPECIFIED.);
#448=B_SPLINE_CURVE_WITH_KNOTS('',1,(#1122,#1123),.UNSPECIFIED.,.F.,.F.,(2,2),
(0.,1.),.UNSPECIFIED.);
#449=B_SPLINE_CURVE_WITH_KNOTS('',1,(#1124,#1125),.UNSPECIFIED.,.F.,.F.,(2,2),
(0.,1.),.UNSPECIFIED.);
#450=B_SPLINE_CURVE_WITH_KNOTS('',1,(#1126,#1127),.UNSPECIFIED.,.F.,.F.,(2,2),
(0.,1.),.UNSPECIFIED.);
#451=B_SPLINE_CURVE_WITH_KNOTS('',1,(#1128,#1129),.UNSPECIFIED.,.F.,.F.,(2,2),
(0.,1.),.UNSPECIFIED.);
#452=B_SPLINE_CURVE_WITH_KNOTS('',1,(#1130,#1131),.UNSPECIFIED.,.F.,.F.,(2,2),
(0.,1.),.UNSPECIFIED.);
#453=B_SPLINE_CURVE_WITH_KNOTS('',1,(#1132,#1133),.UNSPECIFIED.,.F.,.F.,(2,2),
(0.,1.),.UNSPECIFIED.);
#454=B_SPLINE_CURVE_WITH_KNOTS('',1,(#1134,#1135),.UNSPECIFIED.,.F.,.F.,(2,2),
(0.,1.),.UNSPECIFIED.);
#455=B_SPLINE_CURVE_WITH_KNOTS('',1,(#1136,#1137),.UNSPECIFIED.,.F.,.F.,(2,2),
(0.,1.),.UNSPECIFIED.);
#456=B_SPLINE_CURVE_WITH_KNOTS('',1,(#1138,#1139),.UNSPECIFIED.,.F.,.F.,(2,2),
(0.,1.),.UNSPECIFIED.);
#457=B_SPLINE_CURVE_WITH_KNOTS('',1,(#1140,#1141),.UNSPECIFIED.,.F.,.F.,(2,2),
(0.,1.),.UNSPECIFIED.);
#458=B_SPLINE_CURVE_WITH_KNOTS('',1,(#1142,#1143),.UNSPECIFIED.,.F.,.F.,(2,2),
(0.,1.),.UNSPECIFIED.);
#459=B_SPLINE_CURVE_WITH_KNOTS('',1,(#1144,#1145),.UNSPECIFIED.,.F.,.F.,(2,2),
(0.,1.),.UNSPECIFIED.);
#460=B_SPLINE_CURVE_WITH_KNOTS('',1,(#1146,#1147),.UNSPECIFIED.,.F.,.F.,(2,2),
(0.,1.),.UNSPECIFIED.);
#461=B_SPLINE_CURVE_WITH_KNOTS('',1,(#1148,#1149),.UNSPECIFIED.,.F.,.F.,(2,2),
(0.,1.),.UNSPECIFIED.);
#462=B_SPLINE_CURVE_WITH_KNOTS('',1,(#1150,#1151),.UNSPECIFIED.,.F.,.F.,(2,2),
(0.,1.),.UNSPECIFIED.);
#463=B_SPLINE_CURVE_WITH_KNOTS('',1,(#1152,#1153),.UNSPECIFIED.,.F.,.F.,(2,2),
(0.,1.),.UNSPECIFIED.);
#464=B_SPLINE_CURVE_WITH_KNOTS('',1,(#1154,#1155),.UNSPECIFIED.,.F.,.F.,(2,2),
(0.,1.),.UNSPECIFIED.);
#465=B_SPLINE_CURVE_WITH_KNOTS('',1,(#1156,#1157),.UNSPECIFIED.,.F.,.F.,(2,2),
(0.,1.),.UNSPECIFIED.);
#466=B_SPLINE_CURVE_WITH_KNOTS('',1,(#1158,#1159),.UNSPECIFIED.,.F.,.F.,(2,2),
(0.,1.),.UNSPECIFIED.);
#467=B_SPLINE_CURVE_WITH_KNOTS('',1,(#1160,#1161),.UNSPECIFIED.,.F.,.F.,(2,2),
(0.,1.),.UNSPECIFIED.);
#468=B_SPLINE_CURVE_WITH_KNOTS('',1,(#1162,#1163),.UNSPECIFIED.,.F.,.F.,(2,2),
(0.,1.),.UNSPECIFIED.);
#469=B_SPLINE_CURVE_WITH_KNOTS('',1,(#1164,#1165),.UNSPECIFIED.,.F.,.F.,(2,2),
(0.,1.),.UNSPECIFIED.);
#470=B_SPLINE_CURVE_WITH_KNOTS('',1,(#1166,#1167),.UNSPECIFIED.,.F.,.F.,(2,2),
(0.,1.),.UNSPECIFIED.);
#471=B_SPLINE_CURVE_WITH_KNOTS('',1,(#1168,#1169),.UNSPECIFIED.,.F.,.F.,(2,2),
(0.,1.),.UNSPECIFIED.);
#472=B_SPLINE_CURVE_WITH_KNOTS('',1,(#1170,#1171),.UNSPECIFIED.,.F.,.F.,(2,2),
(0.,1.),.UNSPECIFIED.);
#473=B_SPLINE_CURVE_WITH_KNOTS('',1,(#1172,#1173),.UNSPECIFIED.,.F.,.F.,(2,2),
(0.,1.),.UNSPECIFIED.);
#474=B_SPLINE_CURVE_WITH_KNOTS('',1,(#1174,#1175),.UNSPECIFIED.,.F.,.F.,(2,2),
(0.,1.),.UNSPECIFIED.);
#475=B_SPLINE_CURVE_WITH_KNOTS('',1,(#1176,#1177),.UNSPECIFIED.,.F.,.F.,(2,2),
(0.,1.),.UNSPECIFIED.);
#476=B_SPLINE_CURVE_WITH_KNOTS('',1,(#1178,#1179),.UNSPECIFIED.,.F.,.F.,(2,2),
(0.,1.),.UNSPECIFIED.);
#477=VERTEX_POINT('',#636);
#478=VERTEX_POINT('',#637);
#479=VERTEX_POINT('',#638);
#480=VERTEX_POINT('',#639);
#481=VERTEX_POINT('',#640);
#482=VERTEX_POINT('',#641);
#483=VERTEX_POINT('',#642);
#484=VERTEX_POINT('',#643);
#485=VERTEX_POINT('',#644);
#486=VERTEX_POINT('',#645);
#487=VERTEX_POINT('',#646);
#488=VERTEX_POINT('',#647);
#489=VERTEX_POINT('',#648);
#490=VERTEX_POINT('',#649);
#491=VERTEX_POINT('',#650);
#492=VERTEX_POINT('',#651);
#493=VERTEX_POINT('',#652);
#494=VERTEX_POINT('',#653);
#495=VERTEX_POINT('',#654);
#496=VERTEX_POINT('',#655);
#497=VERTEX_POINT('',#656);
#498=VERTEX_POINT('',#657);
#499=VERTEX_POINT('',#658);
#500=VERTEX_POINT('',#659);
#501=VERTEX_POINT('',#660);
#502=VERTEX_POINT('',#661);
#503=VERTEX_POINT('',#662);
#504=VERTEX_POINT('',#663);
#505=VERTEX_POINT('',#664);
#506=VERTEX_POINT('',#665);
#507=VERTEX_POINT('',#666);
#508=VERTEX_POINT('',#667);
#509=VERTEX_POINT('',#668);
#510=VERTEX_POINT('',#669);
#511=VERTEX_POINT('',#670);
#512=VERTEX_POINT('',#671);
#513=VERTEX_POINT('',#672);
#514=VERTEX_POINT('',#673);
#515=VERTEX_POINT('',#674);
#516=VERTEX_POINT('',#675);
#517=VERTEX_POINT('',#676);
#518=VERTEX_POINT('',#677);
#519=VERTEX_POINT('',#678);
#520=VERTEX_POINT('',#679);
#521=VERTEX_POINT('',#680);
#522=VERTEX_POINT('',#681);
#523=VERTEX_POINT('',#682);
#524=VERTEX_POINT('',#683);
#525=VERTEX_POINT('',#684);
#526=VERTEX_POINT('',#685);
#527=VERTEX_POINT('',#686);
#528=VERTEX_POINT('',#687);
#529=VERTEX_POINT('',#688);
#530=VERTEX_POINT('',#689);
#531=VERTEX_POINT('',#690);
#532=VERTEX_POINT('',#691);
#533=VERTEX_POINT('',#692);
#534=VERTEX_POINT('',#693);
#535=VERTEX_POINT('',#694);
#536=VERTEX_POINT('',#695);
#537=VERTEX_POINT('',#696);
#538=VERTEX_POINT('',#697);
#539=VERTEX_POINT('',#698);
#540=VERTEX_POINT('',#699);
#541=VERTEX_POINT('',#700);
#542=VERTEX_POINT('',#701);
#543=VERTEX_POINT('',#702);
#544=VERTEX_POINT('',#703);
#545=VERTEX_POINT('',#704);
#546=VERTEX_POINT('',#705);
#547=VERTEX_POINT('',#706);
#548=VERTEX_POINT('',#707);
#549=VERTEX_POINT('',#708);
#550=VERTEX_POINT('',#709);
#551=VERTEX_POINT('',#710);
#552=VERTEX_POINT('',#711);
#553=VERTEX_POINT('',#712);
#554=VERTEX_POINT('',#713);
#555=VERTEX_POINT('',#714);
#556=VERTEX_POINT('',#715);
#557=VERTEX_POINT('',#716);
#558=VERTEX_POINT('',#717);
#559=VERTEX_POINT('',#718);
#560=VERTEX_POINT('',#719);
#561=VERTEX_POINT('',#720);
#562=VERTEX_POINT('',#721);
#563=VERTEX_POINT('',#722);
#564=VERTEX_POINT('',#723);
#565=VERTEX_POINT('',#724);
#566=VERTEX_POINT('',#725);
#567=VERTEX_POINT('',#726);
#568=VERTEX_POINT('',#727);
#569=VERTEX_POINT('',#728);
#570=VERTEX_POINT('',#729);
#571=VERTEX_POINT('',#730);
#572=VERTEX_POINT('',#731);
#573=SHAPE_DEFINITION_REPRESENTATION(#1349,#574);
#574=SHAPE_REPRESENTATION('master',(#575),#1351);
#575=AXIS2_PLACEMENT_3D('',#635,#596,#595);
#576=AXIS2_PLACEMENT_3D('',#1180,#598,#597);
#577=AXIS2_PLACEMENT_3D('',#1181,#600,#599);
#578=AXIS2_PLACEMENT_3D('',#1182,#602,#601);
#579=AXIS2_PLACEMENT_3D('',#1183,#604,#603);
#580=AXIS2_PLACEMENT_3D('',#1184,#606,#605);
#581=AXIS2_PLACEMENT_3D('',#1185,#608,#607);
#582=AXIS2_PLACEMENT_3D('',#1186,#610,#609);
#583=AXIS2_PLACEMENT_3D('',#1187,#612,#611);
#584=AXIS2_PLACEMENT_3D('',#1196,#614,#613);
#585=AXIS2_PLACEMENT_3D('',#1197,#616,#615);
#586=AXIS2_PLACEMENT_3D('',#1198,#618,#617);
#587=AXIS2_PLACEMENT_3D('',#1207,#620,#619);
#588=AXIS2_PLACEMENT_3D('',#1208,#622,#621);
#589=AXIS2_PLACEMENT_3D('',#1209,#624,#623);
#590=AXIS2_PLACEMENT_3D('',#1344,#626,#625);
#591=AXIS2_PLACEMENT_3D('',#1345,#628,#627);
#592=AXIS2_PLACEMENT_3D('',#1346,#630,#629);
#593=AXIS2_PLACEMENT_3D('',#1347,#632,#631);
#594=AXIS2_PLACEMENT_3D('',#1348,#634,#633);
#595=DIRECTION('',(1.,0.,0.));
#596=DIRECTION('',(0.,0.,1.));
#597=DIRECTION('',(0.,-0.,1.));
#598=DIRECTION('',(-0.707106781186519,0.707106781186576,0.));
#599=DIRECTION('',(-0.,-1.,-0.));
#600=DIRECTION('',(0.,0.,-1.));
#601=DIRECTION('',(1.,0.,0.));
#602=DIRECTION('',(0.,0.,1.));
#603=DIRECTION('',(0.,-0.,1.));
#604=DIRECTION('',(-0.202340998407139,0.979315128221556,0.));
#605=DIRECTION('',(-0.,0.,1.));
#606=DIRECTION('',(0.,1.,0.));
#607=DIRECTION('',(0.,-0.,1.));
#608=DIRECTION('',(-0.70710678118655,0.707106781186545,0.));
#609=DIRECTION('',(-0.,0.,1.));
#610=DIRECTION('',(0.,1.,0.));
#611=DIRECTION('',(-0.,0.,1.));
#612=DIRECTION('',(1.,0.,0.));
#613=DIRECTION('',(0.,0.,1.));
#614=DIRECTION('',(-2.79040911819244E-005,-0.999999999610681,0.));
#615=DIRECTION('',(-0.,0.,1.));
#616=DIRECTION('',(1.,0.,0.));
#617=DIRECTION('',(0.,0.,1.));
#618=DIRECTION('',(0.,-1.,0.));
#619=DIRECTION('',(-0.,0.,1.));
#620=DIRECTION('',(1.,0.,0.));
#621=DIRECTION('',(0.,0.,1.));
#622=DIRECTION('',(0.,-1.,0.));
#623=DIRECTION('',(-0.,0.,1.));
#624=DIRECTION('',(1.,0.,0.));
#625=DIRECTION('',(0.,0.,1.));
#626=DIRECTION('',(0.,-1.,0.));
#627=DIRECTION('',(0.,-0.,1.));
#628=DIRECTION('',(-1.,0.,0.));
#629=DIRECTION('',(0.,-0.,1.));
#630=DIRECTION('',(-0.707106781186545,0.70710678118655,0.));
#631=DIRECTION('',(0.,-0.,1.));
#632=DIRECTION('',(-1.,0.,0.));
#633=DIRECTION('',(0.,-0.,1.));
#634=DIRECTION('',(-0.979315128221564,0.2023409984071,0.));
#635=CARTESIAN_POINT('',(0.,0.,0.));
#636=CARTESIAN_POINT('',(334.109402172815,2148.21918652081,2000.));
#637=CARTESIAN_POINT('',(375.444996908502,2189.5547812565,2000.));
#638=CARTESIAN_POINT('',(375.444996908502,2189.5547812565,0.));
#639=CARTESIAN_POINT('',(334.109402172815,2148.21918652081,0.));
#640=CARTESIAN_POINT('',(423.916465760751,2199.56970405222,0.));
#641=CARTESIAN_POINT('',(473.091199404857,2199.56970405218,0.));
#642=CARTESIAN_POINT('',(486.09105988374,2212.56956453106,0.));
#643=CARTESIAN_POINT('',(511.090918795391,2212.56956453105,0.));
#644=CARTESIAN_POINT('',(511.090918795391,2207.56956453105,0.));
#645=CARTESIAN_POINT('',(496.091059883087,2192.56956453172,0.));
#646=CARTESIAN_POINT('',(491.091059883738,2192.56970405217,0.));
#647=CARTESIAN_POINT('',(491.091059883735,2187.56970405217,0.));
#648=CARTESIAN_POINT('',(436.094479377115,2187.56970405218,0.));
#649=CARTESIAN_POINT('',(336.094479377115,2087.56970405218,0.));
#650=CARTESIAN_POINT('',(336.094479377093,2032.56970405221,0.));
#651=CARTESIAN_POINT('',(331.094479377093,2032.56970405221,0.));
#652=CARTESIAN_POINT('',(331.094479377093,2027.56970405221,0.));
#653=CARTESIAN_POINT('',(316.094479377093,2012.56970405221,0.));
#654=CARTESIAN_POINT('',(311.094479377093,2012.56970405221,0.));
#655=CARTESIAN_POINT('',(311.094479377093,2037.56970405221,0.));
#656=CARTESIAN_POINT('',(324.094479377093,2050.56970405221,0.));
#657=CARTESIAN_POINT('',(324.094479377093,2099.74771766857,0.));
#658=CARTESIAN_POINT('',(334.109402172815,2148.21918652081,0.));
#659=CARTESIAN_POINT('',(375.444996908502,2189.5547812565,0.));
#660=CARTESIAN_POINT('',(334.109402172815,2148.21918652081,2000.));
#661=CARTESIAN_POINT('',(324.094479377093,2099.74771766857,2000.));
#662=CARTESIAN_POINT('',(324.094479377093,2050.56970405221,2000.));
#663=CARTESIAN_POINT('',(311.094479377093,2037.56970405221,2000.));
#664=CARTESIAN_POINT('',(311.094479377093,2012.56970405221,2000.));
#665=CARTESIAN_POINT('',(316.094479377093,2012.56970405221,2000.));
#666=CARTESIAN_POINT('',(331.094479377093,2027.56970405221,2000.));
#667=CARTESIAN_POINT('',(331.094479377093,2032.56970405221,2000.));
#668=CARTESIAN_POINT('',(336.094479377093,2032.56970405221,2000.));
#669=CARTESIAN_POINT('',(336.094479377115,2087.56970405218,2000.));
#670=CARTESIAN_POINT('',(436.094479377115,2187.56970405218,2000.));
#671=CARTESIAN_POINT('',(491.091059883735,2187.56970405217,2000.));
#672=CARTESIAN_POINT('',(491.091059883738,2192.56970405217,2000.));
#673=CARTESIAN_POINT('',(496.091059883087,2192.56956453172,2000.));
#674=CARTESIAN_POINT('',(511.090918795391,2207.56956453105,2000.));
#675=CARTESIAN_POINT('',(511.090918795391,2212.56956453105,2000.));
#676=CARTESIAN_POINT('',(486.09105988374,2212.56956453106,2000.));
#677=CARTESIAN_POINT('',(473.091199404857,2199.56970405218,2000.));
#678=CARTESIAN_POINT('',(423.916465760751,2199.56970405222,2000.));
#679=CARTESIAN_POINT('',(375.444996908502,2189.5547812565,2000.));
#680=CARTESIAN_POINT('',(423.916465760751,2199.56970405222,0.));
#681=CARTESIAN_POINT('',(375.444996908502,2189.5547812565,0.));
#682=CARTESIAN_POINT('',(375.444996908502,2189.5547812565,2000.));
#683=CARTESIAN_POINT('',(423.916465760751,2199.56970405222,2000.));
#684=CARTESIAN_POINT('',(423.916465760751,2199.5697040522,2000.));
#685=CARTESIAN_POINT('',(473.091199404857,2199.5697040522,2000.));
#686=CARTESIAN_POINT('',(473.091199404857,2199.5697040522,0.));
#687=CARTESIAN_POINT('',(423.916465760751,2199.5697040522,0.));
#688=CARTESIAN_POINT('',(473.091199404857,2199.56970405218,2000.));
#689=CARTESIAN_POINT('',(486.09105988374,2212.56956453106,2000.));
#690=CARTESIAN_POINT('',(486.09105988374,2212.56956453106,0.));
#691=CARTESIAN_POINT('',(473.091199404857,2199.56970405218,0.));
#692=CARTESIAN_POINT('',(486.09105988374,2212.56956453105,2000.));
#693=CARTESIAN_POINT('',(511.090918795391,2212.56956453105,2000.));
#694=CARTESIAN_POINT('',(511.090918795391,2212.56956453105,0.));
#695=CARTESIAN_POINT('',(486.09105988374,2212.56956453105,0.));
#696=CARTESIAN_POINT('',(511.090918795391,2212.56956453105,2000.));
#697=CARTESIAN_POINT('',(511.090918795391,2212.56956453105,0.));
#698=CARTESIAN_POINT('',(491.091059883738,2192.56970405217,2000.));
#699=CARTESIAN_POINT('',(491.091059883738,2192.56970405217,0.));
#700=CARTESIAN_POINT('',(491.091059883737,2192.56970405217,2000.));
#701=CARTESIAN_POINT('',(491.091059883737,2187.56970405217,2000.));
#702=CARTESIAN_POINT('',(491.091059883737,2187.56970405217,0.));
#703=CARTESIAN_POINT('',(491.091059883737,2192.56970405217,0.));
#704=CARTESIAN_POINT('',(491.091059883735,2187.56970405218,2000.));
#705=CARTESIAN_POINT('',(491.091059883735,2187.56970405218,0.));
#706=CARTESIAN_POINT('',(336.094479377104,2032.56970405221,2000.));
#707=CARTESIAN_POINT('',(336.094479377104,2032.56970405221,0.));
#708=CARTESIAN_POINT('',(336.094479377093,2032.56970405221,2000.));
#709=CARTESIAN_POINT('',(331.094479377093,2032.56970405221,2000.));
#710=CARTESIAN_POINT('',(331.094479377093,2032.56970405221,0.));
#711=CARTESIAN_POINT('',(336.094479377093,2032.56970405221,0.));
#712=CARTESIAN_POINT('',(331.094479377093,2032.56970405221,2000.));
#713=CARTESIAN_POINT('',(331.094479377093,2032.56970405221,0.));
#714=CARTESIAN_POINT('',(311.094479377093,2012.56970405221,2000.));
#715=CARTESIAN_POINT('',(311.094479377093,2012.56970405221,0.));
#716=CARTESIAN_POINT('',(311.094479377093,2012.56970405221,2000.));
#717=CARTESIAN_POINT('',(311.094479377093,2037.56970405221,2000.));
#718=CARTESIAN_POINT('',(311.094479377093,2037.56970405221,0.));
#719=CARTESIAN_POINT('',(311.094479377093,2012.56970405221,0.));
#720=CARTESIAN_POINT('',(311.094479377093,2037.56970405221,2000.));
#721=CARTESIAN_POINT('',(324.094479377093,2050.56970405221,2000.));
#722=CARTESIAN_POINT('',(324.094479377093,2050.56970405221,0.));
#723=CARTESIAN_POINT('',(311.094479377093,2037.56970405221,0.));
#724=CARTESIAN_POINT('',(324.094479377093,2050.56970405221,2000.));
#725=CARTESIAN_POINT('',(324.094479377093,2099.74771766857,2000.));
#726=CARTESIAN_POINT('',(324.094479377093,2099.74771766857,0.));
#727=CARTESIAN_POINT('',(324.094479377093,2050.56970405221,0.));
#728=CARTESIAN_POINT('',(324.094479377093,2099.74771766857,2000.));
#729=CARTESIAN_POINT('',(334.109402172815,2148.21918652081,2000.));
#730=CARTESIAN_POINT('',(334.109402172815,2148.21918652081,0.));
#731=CARTESIAN_POINT('',(324.094479377093,2099.74771766857,0.));
#732=CARTESIAN_POINT('',(334.109402172815,2148.21918652081,0.));
#733=CARTESIAN_POINT('',(334.109402172815,2148.21918652081,2000.));
#734=CARTESIAN_POINT('',(334.109402172815,2148.21918652081,2000.));
#735=CARTESIAN_POINT('',(375.444996908502,2189.5547812565,2000.));
#736=CARTESIAN_POINT('',(375.444996908502,2189.5547812565,2000.));
#737=CARTESIAN_POINT('',(375.444996908502,2189.5547812565,0.));
#738=CARTESIAN_POINT('',(375.444996908502,2189.5547812565,0.));
#739=CARTESIAN_POINT('',(334.109402172815,2148.21918652081,0.));
#740=CARTESIAN_POINT('',(375.444996908502,2189.5547812565,0.));
#741=CARTESIAN_POINT('',(423.916465760751,2199.56970405222,0.));
#742=CARTESIAN_POINT('',(423.916465760751,2199.56970405222,0.));
#743=CARTESIAN_POINT('',(473.091199404857,2199.56970405218,0.));
#744=CARTESIAN_POINT('',(473.091199404857,2199.56970405218,0.));
#745=CARTESIAN_POINT('',(474.091199404859,2200.56970405218,0.));
#746=CARTESIAN_POINT('',(486.09105988374,2212.56956453106,0.));
#747=CARTESIAN_POINT('',(486.09105988374,2212.56956453106,0.));
#748=CARTESIAN_POINT('',(511.090918795391,2212.56956453105,0.));
#749=CARTESIAN_POINT('',(511.090918795391,2212.56956453105,0.));
#750=CARTESIAN_POINT('',(511.090918795391,2207.56956453105,0.));
#751=CARTESIAN_POINT('',(511.090918795391,2207.56956453105,0.));
#752=CARTESIAN_POINT('',(510.422218485265,2207.55464548527,0.));
#753=CARTESIAN_POINT('',(509.743109394944,2207.50887607815,0.));
#754=CARTESIAN_POINT('',(509.055499354196,2207.43080584371,0.));
#755=CARTESIAN_POINT('',(508.361489144853,2207.31912193473,0.));
#756=CARTESIAN_POINT('',(507.663362602405,2207.1726769175,0.));
#757=CARTESIAN_POINT('',(506.963572298396,2206.99051617293,0.));
#758=CARTESIAN_POINT('',(506.264720694308,2206.77190412894,0.));
#759=CARTESIAN_POINT('',(505.569536807032,2206.51634849507,0.));
#760=CARTESIAN_POINT('',(504.880848593756,2206.22362164826,0.));
#761=CARTESIAN_POINT('',(504.201551442701,2205.89377833403,0.));
#762=CARTESIAN_POINT('',(503.534573336569,2205.52716890414,0.));
#763=CARTESIAN_POINT('',(502.882837427226,2205.1244474111,0.));
#764=CARTESIAN_POINT('',(502.24922291183,2204.68657402142,0.));
#765=CARTESIAN_POINT('',(501.636525221313,2204.21481138738,0.));
#766=CARTESIAN_POINT('',(501.047416612069,2203.71071482441,0.));
#767=CARTESIAN_POINT('',(500.484408283373,2203.17611636736,0.));
#768=CARTESIAN_POINT('',(499.949815121914,2202.61310301034,0.));
#769=CARTESIAN_POINT('',(499.445724100039,2202.02398965967,0.));
#770=CARTESIAN_POINT('',(498.973967228953,2201.41128753185,0.));
#771=CARTESIAN_POINT('',(498.536099798977,2200.77766889791,0.));
#772=CARTESIAN_POINT('',(498.133384436084,2200.12592920066,0.));
#773=CARTESIAN_POINT('',(497.766781279702,2199.45894764629,0.));
#774=CARTESIAN_POINT('',(497.436944354853,2198.77964739281,0.));
#775=CARTESIAN_POINT('',(497.144223985748,2198.09095642622,0.));
#776=CARTESIAN_POINT('',(496.888674890687,2197.39577013526,0.));
#777=CARTESIAN_POINT('',(496.670069419997,2196.69691647497,0.));
#778=CARTESIAN_POINT('',(496.48791525755,2195.99712445761,0.));
#779=CARTESIAN_POINT('',(496.341476806797,2195.29899653776,0.));
#780=CARTESIAN_POINT('',(496.229799425584,2194.60498527796,0.));
#781=CARTESIAN_POINT('',(496.151735658696,2193.91737450293,0.));
#782=CARTESIAN_POINT('',(496.105972639177,2193.23826498214,0.));
#783=CARTESIAN_POINT('',(496.091059883087,2192.56956453172,0.));
#784=CARTESIAN_POINT('',(496.091059883087,2192.56956453172,0.));
#785=CARTESIAN_POINT('',(491.091059883738,2192.56970405217,0.));
#786=CARTESIAN_POINT('',(491.091059883738,2192.56970405217,0.));
#787=CARTESIAN_POINT('',(491.091059883735,2187.56970405217,0.));
#788=CARTESIAN_POINT('',(491.091059883735,2187.56970405217,0.));
#789=CARTESIAN_POINT('',(436.094479377115,2187.56970405218,0.));
#790=CARTESIAN_POINT('',(436.094479377115,2187.56970405218,0.));
#791=CARTESIAN_POINT('',(433.874885000954,2187.54506802154,0.));
#792=CARTESIAN_POINT('',(431.636454962249,2187.47028472275,0.));
#793=CARTESIAN_POINT('',(429.380655438174,2187.34407234443,0.));
#794=CARTESIAN_POINT('',(427.109035587344,2187.16519491347,0.));
#795=CARTESIAN_POINT('',(424.823226578728,2186.93246800506,0.));
#796=CARTESIAN_POINT('',(422.524940199416,2186.64476451901,0.));
#797=CARTESIAN_POINT('',(420.215967024621,2186.30102048963,0.));
#798=CARTESIAN_POINT('',(417.8981741359,2185.90024089384,0.));
#799=CARTESIAN_POINT('',(415.573502376556,2185.4415054198,0.));
#800=CARTESIAN_POINT('',(413.24396313647,2184.92397415646,0.));
#801=CARTESIAN_POINT('',(410.911634662262,2184.34689316236,0.));
#802=CARTESIAN_POINT('',(408.578657892578,2183.70959987089,0.));
#803=CARTESIAN_POINT('',(406.247231822511,2183.01152828776,0.));
#804=CARTESIAN_POINT('',(403.919608405587,2182.25221393635,0.));
#805=CARTESIAN_POINT('',(401.598087006298,2181.43129850592,0.));
#806=CARTESIAN_POINT('',(399.285008420927,2180.54853415843,0.));
#807=CARTESIAN_POINT('',(396.982748489143,2179.60378745038,0.));
#808=CARTESIAN_POINT('',(394.69371132363,2178.59704282786,0.));
#809=CARTESIAN_POINT('',(392.420322189722,2177.52840565448,0.));
#810=CARTESIAN_POINT('',(390.165020071514,2176.39810473516,0.));
#811=CARTESIAN_POINT('',(387.930249965307,2175.20649430129,0.));
#812=CARTESIAN_POINT('',(385.7184549452,2173.95405542693,0.));
#813=CARTESIAN_POINT('',(383.532068049351,2172.64139684956,0.));
#814=CARTESIAN_POINT('',(381.373504038601,2171.26925517405,0.));
#815=CARTESIAN_POINT('',(379.245151081865,2169.83849444307,0.));
#816=CARTESIAN_POINT('',(377.149362424835,2168.35010506308,0.));
#817=CARTESIAN_POINT('',(375.088448100042,2166.80520208066,0.));
#818=CARTESIAN_POINT('',(373.064666737192,2165.20502280967,0.));
#819=CARTESIAN_POINT('',(371.080217532831,2163.5509238163,0.));
#820=CARTESIAN_POINT('',(369.137232437895,2161.84437727476,0.));
#821=CARTESIAN_POINT('',(367.237768620381,2160.08696671262,0.));
#822=CARTESIAN_POINT('',(365.38380125846,2158.28038217084,0.));
#823=CARTESIAN_POINT('',(363.577216716673,2156.42641480892,0.));
#824=CARTESIAN_POINT('',(361.819806154539,2154.5269509914,0.));
#825=CARTESIAN_POINT('',(360.113259612999,2152.58396589647,0.));
#826=CARTESIAN_POINT('',(358.459160619631,2150.59951669211,0.));
#827=CARTESIAN_POINT('',(356.858981348637,2148.57573532926,0.));
#828=CARTESIAN_POINT('',(355.314078366214,2146.51482100446,0.));
#829=CARTESIAN_POINT('',(353.825688986233,2144.41903234743,0.));
#830=CARTESIAN_POINT('',(352.39492825525,2142.2906793907,0.));
#831=CARTESIAN_POINT('',(351.02278657974,2140.13211537995,0.));
#832=CARTESIAN_POINT('',(349.710128002372,2137.9457284841,0.));
#833=CARTESIAN_POINT('',(348.457689128003,2135.73393346399,0.));
#834=CARTESIAN_POINT('',(347.26607869414,2133.49916335778,0.));
#835=CARTESIAN_POINT('',(346.135777774819,2131.24386123958,0.));
#836=CARTESIAN_POINT('',(345.06714060144,2128.97047210567,0.));
#837=CARTESIAN_POINT('',(344.060395978915,2126.68143494016,0.));
#838=CARTESIAN_POINT('',(343.115649270872,2124.37917500837,0.));
#839=CARTESIAN_POINT('',(342.232884923373,2122.066096423,0.));
#840=CARTESIAN_POINT('',(341.411969492947,2119.74457502371,0.));
#841=CARTESIAN_POINT('',(340.652655141541,2117.41695160679,0.));
#842=CARTESIAN_POINT('',(339.954583558412,2115.08552553672,0.));
#843=CARTESIAN_POINT('',(339.317290266934,2112.75254876704,0.));
#844=CARTESIAN_POINT('',(338.740209272841,2110.42022029283,0.));
#845=CARTESIAN_POINT('',(338.222678009497,2108.09068105274,0.));
#846=CARTESIAN_POINT('',(337.763942535458,2105.7660092934,0.));
#847=CARTESIAN_POINT('',(337.363162939666,2103.44821640468,0.));
#848=CARTESIAN_POINT('',(337.019418910291,2101.13924322988,0.));
#849=CARTESIAN_POINT('',(336.73171542424,2098.84095685057,0.));
#850=CARTESIAN_POINT('',(336.498988515827,2096.55514784195,0.));
#851=CARTESIAN_POINT('',(336.320111084868,2094.28352799112,0.));
#852=CARTESIAN_POINT('',(336.193898706548,2092.02772846705,0.));
#853=CARTESIAN_POINT('',(336.119115407759,2089.78929842834,0.));
#854=CARTESIAN_POINT('',(336.094479377115,2087.56970405218,0.));
#855=CARTESIAN_POINT('',(336.094479377115,2087.56970405218,0.));
#856=CARTESIAN_POINT('',(336.094479377093,2032.56970405221,0.));
#857=CARTESIAN_POINT('',(336.094479377093,2032.56970405221,0.));
#858=CARTESIAN_POINT('',(331.094479377093,2032.56970405221,0.));
#859=CARTESIAN_POINT('',(331.094479377093,2032.56970405221,0.));
#860=CARTESIAN_POINT('',(331.094479377093,2027.56970405221,0.));
#861=CARTESIAN_POINT('',(331.094479377093,2027.56970405221,0.));
#862=CARTESIAN_POINT('',(330.024391629104,2027.53148577136,0.));
#863=CARTESIAN_POINT('',(328.959756802994,2027.41702568042,0.));
#864=CARTESIAN_POINT('',(327.906000033798,2027.22690704178,0.));
#865=CARTESIAN_POINT('',(326.868491024472,2026.96209865643,0.));
#866=CARTESIAN_POINT('',(325.852516683107,2026.6239499272,0.));
#867=CARTESIAN_POINT('',(324.863254182065,2026.21418398253,0.));
#868=CARTESIAN_POINT('',(323.905744576293,2025.73488889572,0.));
#869=CARTESIAN_POINT('',(322.98486711526,2025.18850704468,0.));
#870=CARTESIAN_POINT('',(322.105314379423,2024.57782266607,0.));
#871=CARTESIAN_POINT('',(321.271568367914,2023.90594766752,0.));
#872=CARTESIAN_POINT('',(320.487877659295,2023.17630577001,0.));
#873=CARTESIAN_POINT('',(319.75823576178,2022.39261506139,0.));
#874=CARTESIAN_POINT('',(319.086360763228,2021.55886904988,0.));
#875=CARTESIAN_POINT('',(318.475676384626,2020.67931631404,0.));
#876=CARTESIAN_POINT('',(317.929294533585,2019.75843885301,0.));
#877=CARTESIAN_POINT('',(317.449999446776,2018.80092924724,0.));
#878=CARTESIAN_POINT('',(317.040233502097,2017.8116667462,0.));
#879=CARTESIAN_POINT('',(316.702084772876,2016.79569240483,0.));
#880=CARTESIAN_POINT('',(316.437276387526,2015.7581833955,0.));
#881=CARTESIAN_POINT('',(316.247157748879,2014.70442662631,0.));
#882=CARTESIAN_POINT('',(316.132697657939,2013.6397918002,0.));
#883=CARTESIAN_POINT('',(316.094479377093,2012.56970405221,0.));
#884=CARTESIAN_POINT('',(316.094479377093,2012.56970405221,0.));
#885=CARTESIAN_POINT('',(311.094479377093,2012.56970405221,0.));
#886=CARTESIAN_POINT('',(311.094479377093,2012.56970405221,0.));
#887=CARTESIAN_POINT('',(311.094479377093,2037.56970405221,0.));
#888=CARTESIAN_POINT('',(311.094479377093,2037.56970405221,0.));
#889=CARTESIAN_POINT('',(324.094479377093,2050.56970405221,0.));
#890=CARTESIAN_POINT('',(324.094479377093,2050.56970405221,0.));
#891=CARTESIAN_POINT('',(324.094479377093,2099.74771766857,0.));
#892=CARTESIAN_POINT('',(324.094479377093,2099.74771766857,0.));
#893=CARTESIAN_POINT('',(334.109402172815,2148.21918652081,0.));
#894=CARTESIAN_POINT('',(334.109402172815,2148.21918652081,0.));
#895=CARTESIAN_POINT('',(375.444996908502,2189.5547812565,0.));
#896=CARTESIAN_POINT('',(375.444996908502,2189.5547812565,2000.));
#897=CARTESIAN_POINT('',(334.109402172815,2148.21918652081,2000.));
#898=CARTESIAN_POINT('',(334.109402172815,2148.21918652081,2000.));
#899=CARTESIAN_POINT('',(324.094479377093,2099.74771766857,2000.));
#900=CARTESIAN_POINT('',(324.094479377093,2099.74771766857,2000.));
#901=CARTESIAN_POINT('',(324.094479377093,2050.56970405221,2000.));
#902=CARTESIAN_POINT('',(324.094479377093,2050.56970405221,2000.));
#903=CARTESIAN_POINT('',(311.094479377093,2037.56970405221,2000.));
#904=CARTESIAN_POINT('',(311.094479377093,2037.56970405221,2000.));
#905=CARTESIAN_POINT('',(311.094479377093,2012.56970405221,2000.));
#906=CARTESIAN_POINT('',(311.094479377093,2012.56970405221,2000.));
#907=CARTESIAN_POINT('',(316.094479377093,2012.56970405221,2000.));
#908=CARTESIAN_POINT('',(316.094479377093,2012.56970405221,2000.));
#909=CARTESIAN_POINT('',(316.132697657939,2013.6397918002,2000.));
#910=CARTESIAN_POINT('',(316.247157748879,2014.70442662631,2000.));
#911=CARTESIAN_POINT('',(316.437276387526,2015.7581833955,2000.));
#912=CARTESIAN_POINT('',(316.702084772876,2016.79569240483,2000.));
#913=CARTESIAN_POINT('',(317.040233502097,2017.8116667462,2000.));
#914=CARTESIAN_POINT('',(317.449999446776,2018.80092924724,2000.));
#915=CARTESIAN_POINT('',(317.929294533585,2019.75843885301,2000.));
#916=CARTESIAN_POINT('',(318.475676384626,2020.67931631404,2000.));
#917=CARTESIAN_POINT('',(319.086360763228,2021.55886904988,2000.));
#918=CARTESIAN_POINT('',(319.75823576178,2022.39261506139,2000.));
#919=CARTESIAN_POINT('',(320.487877659295,2023.17630577001,2000.));
#920=CARTESIAN_POINT('',(321.271568367914,2023.90594766752,2000.));
#921=CARTESIAN_POINT('',(322.105314379423,2024.57782266607,2000.));
#922=CARTESIAN_POINT('',(322.98486711526,2025.18850704468,2000.));
#923=CARTESIAN_POINT('',(323.905744576293,2025.73488889572,2000.));
#924=CARTESIAN_POINT('',(324.863254182065,2026.21418398253,2000.));
#925=CARTESIAN_POINT('',(325.852516683107,2026.6239499272,2000.));
#926=CARTESIAN_POINT('',(326.868491024472,2026.96209865643,2000.));
#927=CARTESIAN_POINT('',(327.906000033798,2027.22690704178,2000.));
#928=CARTESIAN_POINT('',(328.959756802994,2027.41702568042,2000.));
#929=CARTESIAN_POINT('',(330.024391629104,2027.53148577136,2000.));
#930=CARTESIAN_POINT('',(331.094479377093,2027.56970405221,2000.));
#931=CARTESIAN_POINT('',(331.094479377093,2027.56970405221,2000.));
#932=CARTESIAN_POINT('',(331.094479377093,2032.56970405221,2000.));
#933=CARTESIAN_POINT('',(331.094479377093,2032.56970405221,2000.));
#934=CARTESIAN_POINT('',(336.094479377093,2032.56970405221,2000.));
#935=CARTESIAN_POINT('',(336.094479377093,2032.56970405221,2000.));
#936=CARTESIAN_POINT('',(336.094479377115,2087.56970405218,2000.));
#937=CARTESIAN_POINT('',(336.094479377115,2087.56970405218,2000.));
#938=CARTESIAN_POINT('',(336.119115407759,2089.78929842834,2000.));
#939=CARTESIAN_POINT('',(336.193898706548,2092.02772846705,2000.));
#940=CARTESIAN_POINT('',(336.320111084868,2094.28352799112,2000.));
#941=CARTESIAN_POINT('',(336.498988515827,2096.55514784195,2000.));
#942=CARTESIAN_POINT('',(336.73171542424,2098.84095685057,2000.));
#943=CARTESIAN_POINT('',(337.019418910291,2101.13924322988,2000.));
#944=CARTESIAN_POINT('',(337.363162939666,2103.44821640468,2000.));
#945=CARTESIAN_POINT('',(337.763942535458,2105.7660092934,2000.));
#946=CARTESIAN_POINT('',(338.222678009497,2108.09068105274,2000.));
#947=CARTESIAN_POINT('',(338.740209272841,2110.42022029283,2000.));
#948=CARTESIAN_POINT('',(339.317290266934,2112.75254876704,2000.));
#949=CARTESIAN_POINT('',(339.954583558412,2115.08552553672,2000.));
#950=CARTESIAN_POINT('',(340.652655141541,2117.41695160679,2000.));
#951=CARTESIAN_POINT('',(341.411969492947,2119.74457502371,2000.));
#952=CARTESIAN_POINT('',(342.232884923373,2122.066096423,2000.));
#953=CARTESIAN_POINT('',(343.115649270872,2124.37917500837,2000.));
#954=CARTESIAN_POINT('',(344.060395978915,2126.68143494016,2000.));
#955=CARTESIAN_POINT('',(345.06714060144,2128.97047210567,2000.));
#956=CARTESIAN_POINT('',(346.135777774819,2131.24386123958,2000.));
#957=CARTESIAN_POINT('',(347.26607869414,2133.49916335778,2000.));
#958=CARTESIAN_POINT('',(348.457689128003,2135.73393346399,2000.));
#959=CARTESIAN_POINT('',(349.710128002372,2137.9457284841,2000.));
#960=CARTESIAN_POINT('',(351.02278657974,2140.13211537995,2000.));
#961=CARTESIAN_POINT('',(352.39492825525,2142.2906793907,2000.));
#962=CARTESIAN_POINT('',(353.825688986233,2144.41903234743,2000.));
#963=CARTESIAN_POINT('',(355.314078366214,2146.51482100446,2000.));
#964=CARTESIAN_POINT('',(356.858981348637,2148.57573532926,2000.));
#965=CARTESIAN_POINT('',(358.459160619631,2150.59951669211,2000.));
#966=CARTESIAN_POINT('',(360.113259612999,2152.58396589647,2000.));
#967=CARTESIAN_POINT('',(361.819806154539,2154.5269509914,2000.));
#968=CARTESIAN_POINT('',(363.577216716673,2156.42641480892,2000.));
#969=CARTESIAN_POINT('',(365.38380125846,2158.28038217084,2000.));
#970=CARTESIAN_POINT('',(367.237768620381,2160.08696671262,2000.));
#971=CARTESIAN_POINT('',(369.137232437895,2161.84437727476,2000.));
#972=CARTESIAN_POINT('',(371.080217532831,2163.5509238163,2000.));
#973=CARTESIAN_POINT('',(373.064666737192,2165.20502280967,2000.));
#974=CARTESIAN_POINT('',(375.088448100042,2166.80520208066,2000.));
#975=CARTESIAN_POINT('',(377.149362424835,2168.35010506308,2000.));
#976=CARTESIAN_POINT('',(379.245151081865,2169.83849444307,2000.));
#977=CARTESIAN_POINT('',(381.373504038601,2171.26925517405,2000.));
#978=CARTESIAN_POINT('',(383.532068049351,2172.64139684956,2000.));
#979=CARTESIAN_POINT('',(385.7184549452,2173.95405542693,2000.));
#980=CARTESIAN_POINT('',(387.930249965307,2175.20649430129,2000.));
#981=CARTESIAN_POINT('',(390.165020071514,2176.39810473516,2000.));
#982=CARTESIAN_POINT('',(392.420322189722,2177.52840565448,2000.));
#983=CARTESIAN_POINT('',(394.69371132363,2178.59704282786,2000.));
#984=CARTESIAN_POINT('',(396.982748489143,2179.60378745038,2000.));
#985=CARTESIAN_POINT('',(399.285008420927,2180.54853415843,2000.));
#986=CARTESIAN_POINT('',(401.598087006298,2181.43129850592,2000.));
#987=CARTESIAN_POINT('',(403.919608405587,2182.25221393635,2000.));
#988=CARTESIAN_POINT('',(406.247231822511,2183.01152828776,2000.));
#989=CARTESIAN_POINT('',(408.578657892578,2183.70959987089,2000.));
#990=CARTESIAN_POINT('',(410.911634662262,2184.34689316236,2000.));
#991=CARTESIAN_POINT('',(413.24396313647,2184.92397415646,2000.));
#992=CARTESIAN_POINT('',(415.573502376556,2185.4415054198,2000.));
#993=CARTESIAN_POINT('',(417.8981741359,2185.90024089384,2000.));
#994=CARTESIAN_POINT('',(420.215967024621,2186.30102048963,2000.));
#995=CARTESIAN_POINT('',(422.524940199416,2186.64476451901,2000.));
#996=CARTESIAN_POINT('',(424.823226578728,2186.93246800506,2000.));
#997=CARTESIAN_POINT('',(427.109035587344,2187.16519491347,2000.));
#998=CARTESIAN_POINT('',(429.380655438174,2187.34407234443,2000.));
#999=CARTESIAN_POINT('',(431.636454962249,2187.47028472275,2000.));
#1000=CARTESIAN_POINT('',(433.874885000954,2187.54506802154,2000.));
#1001=CARTESIAN_POINT('',(436.094479377115,2187.56970405218,2000.));
#1002=CARTESIAN_POINT('',(436.094479377115,2187.56970405218,2000.));
#1003=CARTESIAN_POINT('',(491.091059883735,2187.56970405217,2000.));
#1004=CARTESIAN_POINT('',(491.091059883735,2187.56970405217,2000.));
#1005=CARTESIAN_POINT('',(491.091059883738,2192.56970405217,2000.));
#1006=CARTESIAN_POINT('',(491.091059883738,2192.56970405217,2000.));
#1007=CARTESIAN_POINT('',(496.091059883087,2192.56956453172,2000.));
#1008=CARTESIAN_POINT('',(496.091059883087,2192.56956453172,2000.));
#1009=CARTESIAN_POINT('',(496.105972639177,2193.23826498214,2000.));
#1010=CARTESIAN_POINT('',(496.151735658696,2193.91737450293,2000.));
#1011=CARTESIAN_POINT('',(496.229799425584,2194.60498527796,2000.));
#1012=CARTESIAN_POINT('',(496.341476806797,2195.29899653776,2000.));
#1013=CARTESIAN_POINT('',(496.487915257549,2195.99712445761,2000.));
#1014=CARTESIAN_POINT('',(496.670069419997,2196.69691647497,2000.));
#1015=CARTESIAN_POINT('',(496.888674890687,2197.39577013526,2000.));
#1016=CARTESIAN_POINT('',(497.144223985748,2198.09095642622,2000.));
#1017=CARTESIAN_POINT('',(497.436944354853,2198.77964739281,2000.));
#1018=CARTESIAN_POINT('',(497.766781279702,2199.45894764629,2000.));
#1019=CARTESIAN_POINT('',(498.133384436084,2200.12592920066,2000.));
#1020=CARTESIAN_POINT('',(498.536099798977,2200.77766889791,2000.));
#1021=CARTESIAN_POINT('',(498.973967228953,2201.41128753185,2000.));
#1022=CARTESIAN_POINT('',(499.445724100039,2202.02398965967,2000.));
#1023=CARTESIAN_POINT('',(499.949815121914,2202.61310301034,2000.));
#1024=CARTESIAN_POINT('',(500.484408283373,2203.17611636736,2000.));
#1025=CARTESIAN_POINT('',(501.047416612069,2203.71071482441,2000.));
#1026=CARTESIAN_POINT('',(501.636525221313,2204.21481138738,2000.));
#1027=CARTESIAN_POINT('',(502.24922291183,2204.68657402142,2000.));
#1028=CARTESIAN_POINT('',(502.882837427226,2205.1244474111,2000.));
#1029=CARTESIAN_POINT('',(503.534573336569,2205.52716890414,2000.));
#1030=CARTESIAN_POINT('',(504.201551442701,2205.89377833403,2000.));
#1031=CARTESIAN_POINT('',(504.880848593756,2206.22362164826,2000.));
#1032=CARTESIAN_POINT('',(505.569536807032,2206.51634849507,2000.));
#1033=CARTESIAN_POINT('',(506.264720694308,2206.77190412894,2000.));
#1034=CARTESIAN_POINT('',(506.963572298396,2206.99051617293,2000.));
#1035=CARTESIAN_POINT('',(507.663362602405,2207.1726769175,2000.));
#1036=CARTESIAN_POINT('',(508.361489144853,2207.31912193473,2000.));
#1037=CARTESIAN_POINT('',(509.055499354196,2207.43080584371,2000.));
#1038=CARTESIAN_POINT('',(509.743109394944,2207.50887607815,2000.));
#1039=CARTESIAN_POINT('',(510.422218485265,2207.55464548527,2000.));
#1040=CARTESIAN_POINT('',(511.090918795391,2207.56956453105,2000.));
#1041=CARTESIAN_POINT('',(511.090918795391,2207.56956453105,2000.));
#1042=CARTESIAN_POINT('',(511.090918795391,2212.56956453105,2000.));
#1043=CARTESIAN_POINT('',(511.090918795391,2212.56956453105,2000.));
#1044=CARTESIAN_POINT('',(486.09105988374,2212.56956453106,2000.));
#1045=CARTESIAN_POINT('',(486.09105988374,2212.56956453106,2000.));
#1046=CARTESIAN_POINT('',(474.091199404859,2200.56970405218,2000.));
#1047=CARTESIAN_POINT('',(473.091199404857,2199.56970405218,2000.));
#1048=CARTESIAN_POINT('',(473.091199404857,2199.56970405218,2000.));
#1049=CARTESIAN_POINT('',(423.916465760751,2199.56970405222,2000.));
#1050=CARTESIAN_POINT('',(423.916465760751,2199.56970405222,2000.));
#1051=CARTESIAN_POINT('',(375.444996908502,2189.5547812565,2000.));
#1052=CARTESIAN_POINT('',(423.916465760751,2199.56970405222,2000.));
#1053=CARTESIAN_POINT('',(423.916465760751,2199.56970405222,0.));
#1054=CARTESIAN_POINT('',(423.916465760751,2199.56970405222,0.));
#1055=CARTESIAN_POINT('',(375.444996908502,2189.5547812565,0.));
#1056=CARTESIAN_POINT('',(375.444996908502,2189.5547812565,0.));
#1057=CARTESIAN_POINT('',(375.444996908502,2189.5547812565,2000.));
#1058=CARTESIAN_POINT('',(375.444996908502,2189.5547812565,2000.));
#1059=CARTESIAN_POINT('',(423.916465760751,2199.56970405222,2000.));
#1060=CARTESIAN_POINT('',(423.916465760751,2199.5697040522,0.));
#1061=CARTESIAN_POINT('',(423.916465760751,2199.5697040522,2000.));
#1062=CARTESIAN_POINT('',(423.916465760751,2199.5697040522,2000.));
#1063=CARTESIAN_POINT('',(473.091199404857,2199.5697040522,2000.));
#1064=CARTESIAN_POINT('',(473.091199404857,2199.5697040522,2000.));
#1065=CARTESIAN_POINT('',(473.091199404857,2199.5697040522,0.));
#1066=CARTESIAN_POINT('',(473.091199404857,2199.5697040522,0.));
#1067=CARTESIAN_POINT('',(423.916465760751,2199.5697040522,0.));
#1068=CARTESIAN_POINT('',(473.091199404857,2199.56970405218,0.));
#1069=CARTESIAN_POINT('',(473.091199404857,2199.56970405218,2000.));
#1070=CARTESIAN_POINT('',(473.091199404857,2199.56970405218,2000.));
#1071=CARTESIAN_POINT('',(486.09105988374,2212.56956453106,2000.));
#1072=CARTESIAN_POINT('',(486.09105988374,2212.56956453106,2000.));
#1073=CARTESIAN_POINT('',(486.09105988374,2212.56956453106,0.));
#1074=CARTESIAN_POINT('',(486.09105988374,2212.56956453106,0.));
#1075=CARTESIAN_POINT('',(473.091199404857,2199.56970405218,0.));
#1076=CARTESIAN_POINT('',(486.09105988374,2212.56956453105,0.));
#1077=CARTESIAN_POINT('',(486.09105988374,2212.56956453105,2000.));
#1078=CARTESIAN_POINT('',(486.09105988374,2212.56956453105,2000.));
#1079=CARTESIAN_POINT('',(511.090918795391,2212.56956453105,2000.));
#1080=CARTESIAN_POINT('',(511.090918795391,2212.56956453105,2000.));
#1081=CARTESIAN_POINT('',(511.090918795391,2212.56956453105,0.));
#1082=CARTESIAN_POINT('',(511.090918795391,2212.56956453105,0.));
#1083=CARTESIAN_POINT('',(486.09105988374,2212.56956453105,0.));
#1084=CARTESIAN_POINT('',(511.090918795391,2212.56956453105,0.));
#1085=CARTESIAN_POINT('',(511.090918795391,2212.56956453105,2000.));
#1086=CARTESIAN_POINT('',(511.090918795391,2212.56956453105,2000.));
#1087=CARTESIAN_POINT('',(511.090918795391,2207.56956453105,2000.));
#1088=CARTESIAN_POINT('',(511.090918795391,2207.56956453105,2000.));
#1089=CARTESIAN_POINT('',(511.090918795391,2207.56956453105,0.));
#1090=CARTESIAN_POINT('',(511.090918795391,2207.56956453105,0.));
#1091=CARTESIAN_POINT('',(511.090918795391,2212.56956453105,0.));
#1092=CARTESIAN_POINT('',(496.091059883087,2192.56956453171,0.));
#1093=CARTESIAN_POINT('',(496.091059883087,2192.56956453171,2000.));
#1094=CARTESIAN_POINT('',(496.091059883087,2192.56956453171,2000.));
#1095=CARTESIAN_POINT('',(491.091059883738,2192.56970405217,2000.));
#1096=CARTESIAN_POINT('',(491.091059883738,2192.56970405217,2000.));
#1097=CARTESIAN_POINT('',(491.091059883738,2192.56970405217,0.));
#1098=CARTESIAN_POINT('',(491.091059883738,2192.56970405217,0.));
#1099=CARTESIAN_POINT('',(496.091059883087,2192.56956453171,0.));
#1100=CARTESIAN_POINT('',(491.091059883737,2192.56970405217,0.));
#1101=CARTESIAN_POINT('',(491.091059883737,2192.56970405217,2000.));
#1102=CARTESIAN_POINT('',(491.091059883737,2192.56970405217,2000.));
#1103=CARTESIAN_POINT('',(491.091059883737,2187.56970405217,2000.));
#1104=CARTESIAN_POINT('',(491.091059883737,2187.56970405217,2000.));
#1105=CARTESIAN_POINT('',(491.091059883737,2187.56970405217,0.));
#1106=CARTESIAN_POINT('',(491.091059883737,2187.56970405217,0.));
#1107=CARTESIAN_POINT('',(491.091059883737,2192.56970405217,0.));
#1108=CARTESIAN_POINT('',(491.091059883735,2187.56970405218,0.));
#1109=CARTESIAN_POINT('',(491.091059883735,2187.56970405218,2000.));
#1110=CARTESIAN_POINT('',(491.091059883735,2187.56970405218,2000.));
#1111=CARTESIAN_POINT('',(436.094479377115,2187.56970405218,2000.));
#1112=CARTESIAN_POINT('',(436.094479377115,2187.56970405218,2000.));
#1113=CARTESIAN_POINT('',(436.094479377115,2187.56970405218,0.));
#1114=CARTESIAN_POINT('',(436.094479377115,2187.56970405218,0.));
#1115=CARTESIAN_POINT('',(491.091059883735,2187.56970405218,0.));
#1116=CARTESIAN_POINT('',(336.094479377104,2087.56970405218,0.));
#1117=CARTESIAN_POINT('',(336.094479377104,2087.56970405218,2000.));
#1118=CARTESIAN_POINT('',(336.094479377104,2087.56970405218,2000.));
#1119=CARTESIAN_POINT('',(336.094479377104,2032.56970405221,2000.));
#1120=CARTESIAN_POINT('',(336.094479377104,2032.56970405221,2000.));
#1121=CARTESIAN_POINT('',(336.094479377104,2032.56970405221,0.));
#1122=CARTESIAN_POINT('',(336.094479377104,2032.56970405221,0.));
#1123=CARTESIAN_POINT('',(336.094479377104,2087.56970405218,0.));
#1124=CARTESIAN_POINT('',(336.094479377093,2032.56970405221,0.));
#1125=CARTESIAN_POINT('',(336.094479377093,2032.56970405221,2000.));
#1126=CARTESIAN_POINT('',(336.094479377093,2032.56970405221,2000.));
#1127=CARTESIAN_POINT('',(331.094479377093,2032.56970405221,2000.));
#1128=CARTESIAN_POINT('',(331.094479377093,2032.56970405221,2000.));
#1129=CARTESIAN_POINT('',(331.094479377093,2032.56970405221,0.));
#1130=CARTESIAN_POINT('',(331.094479377093,2032.56970405221,0.));
#1131=CARTESIAN_POINT('',(336.094479377093,2032.56970405221,0.));
#1132=CARTESIAN_POINT('',(331.094479377093,2032.56970405221,0.));
#1133=CARTESIAN_POINT('',(331.094479377093,2032.56970405221,2000.));
#1134=CARTESIAN_POINT('',(331.094479377093,2032.56970405221,2000.));
#1135=CARTESIAN_POINT('',(331.094479377093,2027.56970405221,2000.));
#1136=CARTESIAN_POINT('',(331.094479377093,2027.56970405221,2000.));
#1137=CARTESIAN_POINT('',(331.094479377093,2027.56970405221,0.));
#1138=CARTESIAN_POINT('',(331.094479377093,2027.56970405221,0.));
#1139=CARTESIAN_POINT('',(331.094479377093,2032.56970405221,0.));
#1140=CARTESIAN_POINT('',(316.094479377093,2012.56970405221,0.));
#1141=CARTESIAN_POINT('',(316.094479377093,2012.56970405221,2000.));
#1142=CARTESIAN_POINT('',(316.094479377093,2012.56970405221,2000.));
#1143=CARTESIAN_POINT('',(311.094479377093,2012.56970405221,2000.));
#1144=CARTESIAN_POINT('',(311.094479377093,2012.56970405221,2000.));
#1145=CARTESIAN_POINT('',(311.094479377093,2012.56970405221,0.));
#1146=CARTESIAN_POINT('',(311.094479377093,2012.56970405221,0.));
#1147=CARTESIAN_POINT('',(316.094479377093,2012.56970405221,0.));
#1148=CARTESIAN_POINT('',(311.094479377093,2012.56970405221,0.));
#1149=CARTESIAN_POINT('',(311.094479377093,2012.56970405221,2000.));
#1150=CARTESIAN_POINT('',(311.094479377093,2012.56970405221,2000.));
#1151=CARTESIAN_POINT('',(311.094479377093,2037.56970405221,2000.));
#1152=CARTESIAN_POINT('',(311.094479377093,2037.56970405221,2000.));
#1153=CARTESIAN_POINT('',(311.094479377093,2037.56970405221,0.));
#1154=CARTESIAN_POINT('',(311.094479377093,2037.56970405221,0.));
#1155=CARTESIAN_POINT('',(311.094479377093,2012.56970405221,0.));
#1156=CARTESIAN_POINT('',(311.094479377093,2037.56970405221,0.));
#1157=CARTESIAN_POINT('',(311.094479377093,2037.56970405221,2000.));
#1158=CARTESIAN_POINT('',(311.094479377093,2037.56970405221,2000.));
#1159=CARTESIAN_POINT('',(324.094479377093,2050.56970405221,2000.));
#1160=CARTESIAN_POINT('',(324.094479377093,2050.56970405221,2000.));
#1161=CARTESIAN_POINT('',(324.094479377093,2050.56970405221,0.));
#1162=CARTESIAN_POINT('',(324.094479377093,2050.56970405221,0.));
#1163=CARTESIAN_POINT('',(311.094479377093,2037.56970405221,0.));
#1164=CARTESIAN_POINT('',(324.094479377093,2050.56970405221,0.));
#1165=CARTESIAN_POINT('',(324.094479377093,2050.56970405221,2000.));
#1166=CARTESIAN_POINT('',(324.094479377093,2050.56970405221,2000.));
#1167=CARTESIAN_POINT('',(324.094479377093,2099.74771766857,2000.));
#1168=CARTESIAN_POINT('',(324.094479377093,2099.74771766857,2000.));
#1169=CARTESIAN_POINT('',(324.094479377093,2099.74771766857,0.));
#1170=CARTESIAN_POINT('',(324.094479377093,2099.74771766857,0.));
#1171=CARTESIAN_POINT('',(324.094479377093,2050.56970405221,0.));
#1172=CARTESIAN_POINT('',(324.094479377093,2099.74771766857,0.));
#1173=CARTESIAN_POINT('',(324.094479377093,2099.74771766857,2000.));
#1174=CARTESIAN_POINT('',(324.094479377093,2099.74771766857,2000.));
#1175=CARTESIAN_POINT('',(334.109402172815,2148.21918652081,2000.));
#1176=CARTESIAN_POINT('',(334.109402172815,2148.21918652081,2000.));
#1177=CARTESIAN_POINT('',(334.109402172815,2148.21918652081,0.));
#1178=CARTESIAN_POINT('',(334.109402172815,2148.21918652081,0.));
#1179=CARTESIAN_POINT('',(324.094479377093,2099.74771766857,0.));
#1180=CARTESIAN_POINT('',(354.777199540659,2168.88698388865,1000.));
#1181=CARTESIAN_POINT('',(411.092699086242,2112.56963429163,0.));
#1182=CARTESIAN_POINT('',(411.092699086242,2112.56963429163,2000.));
#1183=CARTESIAN_POINT('',(399.680731334627,2194.56224265436,1000.));
#1184=CARTESIAN_POINT('',(448.503832582804,2199.5697040522,1000.));
#1185=CARTESIAN_POINT('',(477.757819564485,2204.2363242118,1000.));
#1186=CARTESIAN_POINT('',(498.590989339566,2212.56956453105,1000.));
#1187=CARTESIAN_POINT('',(511.090918795391,2210.06956453105,1000.));
#1188=CARTESIAN_POINT('',(511.090918795391,2207.56956453105,0.));
#1189=CARTESIAN_POINT('',(502.304187761687,2207.56948188441,0.));
#1190=CARTESIAN_POINT('',(496.091059883087,2201.35629556581,0.));
#1191=CARTESIAN_POINT('',(496.091059883087,2192.56956453172,0.));
#1192=CARTESIAN_POINT('',(511.090918795391,2207.56956453105,2000.));
#1193=CARTESIAN_POINT('',(502.304187761687,2207.56948188441,2000.));
#1194=CARTESIAN_POINT('',(496.091059883087,2201.35629556581,2000.));
#1195=CARTESIAN_POINT('',(496.091059883087,2192.56956453172,2000.));
#1196=CARTESIAN_POINT('',(493.591059883413,2192.56963429194,1000.));
#1197=CARTESIAN_POINT('',(491.091059883737,2190.06970405217,1000.));
#1198=CARTESIAN_POINT('',(467.45289475851,2187.56970405218,1000.));
#1199=CARTESIAN_POINT('',(436.094479377115,2187.56970405218,0.));
#1200=CARTESIAN_POINT('',(377.515835614424,2187.56970405218,0.));
#1201=CARTESIAN_POINT('',(336.094479377115,2146.14834781487,0.));
#1202=CARTESIAN_POINT('',(336.094479377115,2087.56970405218,0.));
#1203=CARTESIAN_POINT('',(436.094479377115,2187.56970405218,2000.));
#1204=CARTESIAN_POINT('',(377.515835614424,2187.56970405218,2000.));
#1205=CARTESIAN_POINT('',(336.094479377115,2146.14834781487,2000.));
#1206=CARTESIAN_POINT('',(336.094479377115,2087.56970405218,2000.));
#1207=CARTESIAN_POINT('',(336.094479377104,2060.0697040522,1000.));
#1208=CARTESIAN_POINT('',(333.594479377093,2032.56970405221,1000.));
#1209=CARTESIAN_POINT('',(331.094479377093,2030.06970405221,1000.));
#1210=CARTESIAN_POINT('',(331.094479377093,2027.56970405221,0.));
#1211=CARTESIAN_POINT('',(330.737442291268,2027.56970405221,0.));
#1212=CARTESIAN_POINT('',(330.380519025355,2027.55695650544,0.));
#1213=CARTESIAN_POINT('',(330.024391629104,2027.53148577136,0.));
#1214=CARTESIAN_POINT('',(329.668264232854,2027.50601503729,0.));
#1215=CARTESIAN_POINT('',(329.31315976609,2027.46783735555,0.));
#1216=CARTESIAN_POINT('',(328.959756802994,2027.41702568042,0.));
#1217=CARTESIAN_POINT('',(328.606353839897,2027.3662140053,0.));
#1218=CARTESIAN_POINT('',(328.254877703248,2027.3028007333,0.));
#1219=CARTESIAN_POINT('',(327.906000033798,2027.22690704178,0.));
#1220=CARTESIAN_POINT('',(327.557122364349,2027.15101335025,0.));
#1221=CARTESIAN_POINT('',(327.211065599641,2027.0626876275,0.));
#1222=CARTESIAN_POINT('',(326.868491024472,2026.96209865643,0.));
#1223=CARTESIAN_POINT('',(326.525916449303,2026.86150968535,0.));
#1224=CARTESIAN_POINT('',(326.187042482485,2026.74872159949,0.));
#1225=CARTESIAN_POINT('',(325.852516683107,2026.6239499272,0.));
#1226=CARTESIAN_POINT('',(325.517990883728,2026.49917825492,0.));
#1227=CARTESIAN_POINT('',(325.18802653886,2026.36250254818,0.));
#1228=CARTESIAN_POINT('',(324.863254182065,2026.21418398253,0.));
#1229=CARTESIAN_POINT('',(324.53848182527,2026.06586541688,0.));
#1230=CARTESIAN_POINT('',(324.219108525018,2025.90599855732,0.));
#1231=CARTESIAN_POINT('',(323.905744576293,2025.73488889572,0.));
#1232=CARTESIAN_POINT('',(323.592380627568,2025.56377923411,0.));
#1233=CARTESIAN_POINT('',(323.285225825062,2025.38153586662,0.));
#1234=CARTESIAN_POINT('',(322.98486711526,2025.18850704468,0.));
#1235=CARTESIAN_POINT('',(322.684508405457,2024.99547822273,0.));
#1236=CARTESIAN_POINT('',(322.391137291166,2024.79178701773,0.));
#1237=CARTESIAN_POINT('',(322.105314379423,2024.57782266607,0.));
#1238=CARTESIAN_POINT('',(321.819491467681,2024.36385831442,0.));
#1239=CARTESIAN_POINT('',(321.541398993555,2024.13975723559,0.));
#1240=CARTESIAN_POINT('',(321.271568367914,2023.90594766752,0.));
#1241=CARTESIAN_POINT('',(321.001737742273,2023.67213809945,0.));
#1242=CARTESIAN_POINT('',(320.740341003817,2023.42876911453,0.));
#1243=CARTESIAN_POINT('',(320.487877659295,2023.17630577001,0.));
#1244=CARTESIAN_POINT('',(320.235414314773,2022.92384242549,0.));
#1245=CARTESIAN_POINT('',(319.992045329849,2022.66244568703,0.));
#1246=CARTESIAN_POINT('',(319.75823576178,2022.39261506139,0.));
#1247=CARTESIAN_POINT('',(319.524426193711,2022.12278443575,0.));
#1248=CARTESIAN_POINT('',(319.30032511488,2021.84469196162,0.));
#1249=CARTESIAN_POINT('',(319.086360763228,2021.55886904988,0.));
#1250=CARTESIAN_POINT('',(318.872396411577,2021.27304613814,0.));
#1251=CARTESIAN_POINT('',(318.668705206568,2020.97967502385,0.));
#1252=CARTESIAN_POINT('',(318.475676384626,2020.67931631404,0.));
#1253=CARTESIAN_POINT('',(318.282647562683,2020.37895760424,0.));
#1254=CARTESIAN_POINT('',(318.100404195188,2020.07180280174,0.));
#1255=CARTESIAN_POINT('',(317.929294533585,2019.75843885301,0.));
#1256=CARTESIAN_POINT('',(317.758184871982,2019.44507490429,0.));
#1257=CARTESIAN_POINT('',(317.598318012426,2019.12570160403,0.));
#1258=CARTESIAN_POINT('',(317.449999446776,2018.80092924724,0.));
#1259=CARTESIAN_POINT('',(317.301680881125,2018.47615689044,0.));
#1260=CARTESIAN_POINT('',(317.165005174381,2018.14619254557,0.));
#1261=CARTESIAN_POINT('',(317.040233502097,2017.8116667462,0.));
#1262=CARTESIAN_POINT('',(316.915461829813,2017.47714094682,0.));
#1263=CARTESIAN_POINT('',(316.802673743953,2017.13826698,0.));
#1264=CARTESIAN_POINT('',(316.702084772876,2016.79569240483,0.));
#1265=CARTESIAN_POINT('',(316.601495801799,2016.45311782966,0.));
#1266=CARTESIAN_POINT('',(316.513170079055,2016.10706106495,0.));
#1267=CARTESIAN_POINT('',(316.437276387526,2015.7581833955,0.));
#1268=CARTESIAN_POINT('',(316.361382695996,2015.40930572606,0.));
#1269=CARTESIAN_POINT('',(316.297969424006,2015.05782958941,0.));
#1270=CARTESIAN_POINT('',(316.247157748879,2014.70442662631,0.));
#1271=CARTESIAN_POINT('',(316.196346073752,2014.35102366321,0.));
#1272=CARTESIAN_POINT('',(316.158168392014,2013.99591919645,0.));
#1273=CARTESIAN_POINT('',(316.132697657939,2013.6397918002,0.));
#1274=CARTESIAN_POINT('',(316.107226923864,2013.28366440395,0.));
#1275=CARTESIAN_POINT('',(316.094479377093,2012.92674113804,0.));
#1276=CARTESIAN_POINT('',(316.094479377093,2012.56970405221,0.));
#1277=CARTESIAN_POINT('',(331.094479377093,2027.56970405221,2000.));
#1278=CARTESIAN_POINT('',(330.737442291268,2027.56970405221,2000.));
#1279=CARTESIAN_POINT('',(330.380519025355,2027.55695650544,2000.));
#1280=CARTESIAN_POINT('',(330.024391629104,2027.53148577136,2000.));
#1281=CARTESIAN_POINT('',(329.668264232854,2027.50601503729,2000.));
#1282=CARTESIAN_POINT('',(329.31315976609,2027.46783735555,2000.));
#1283=CARTESIAN_POINT('',(328.959756802994,2027.41702568042,2000.));
#1284=CARTESIAN_POINT('',(328.606353839897,2027.3662140053,2000.));
#1285=CARTESIAN_POINT('',(328.254877703248,2027.3028007333,2000.));
#1286=CARTESIAN_POINT('',(327.906000033798,2027.22690704178,2000.));
#1287=CARTESIAN_POINT('',(327.557122364349,2027.15101335025,2000.));
#1288=CARTESIAN_POINT('',(327.211065599641,2027.0626876275,2000.));
#1289=CARTESIAN_POINT('',(326.868491024472,2026.96209865643,2000.));
#1290=CARTESIAN_POINT('',(326.525916449303,2026.86150968535,2000.));
#1291=CARTESIAN_POINT('',(326.187042482485,2026.74872159949,2000.));
#1292=CARTESIAN_POINT('',(325.852516683107,2026.6239499272,2000.));
#1293=CARTESIAN_POINT('',(325.517990883728,2026.49917825492,2000.));
#1294=CARTESIAN_POINT('',(325.18802653886,2026.36250254818,2000.));
#1295=CARTESIAN_POINT('',(324.863254182065,2026.21418398253,2000.));
#1296=CARTESIAN_POINT('',(324.53848182527,2026.06586541688,2000.));
#1297=CARTESIAN_POINT('',(324.219108525018,2025.90599855732,2000.));
#1298=CARTESIAN_POINT('',(323.905744576293,2025.73488889572,2000.));
#1299=CARTESIAN_POINT('',(323.592380627568,2025.56377923411,2000.));
#1300=CARTESIAN_POINT('',(323.285225825062,2025.38153586662,2000.));
#1301=CARTESIAN_POINT('',(322.98486711526,2025.18850704468,2000.));
#1302=CARTESIAN_POINT('',(322.684508405457,2024.99547822273,2000.));
#1303=CARTESIAN_POINT('',(322.391137291166,2024.79178701773,2000.));
#1304=CARTESIAN_POINT('',(322.105314379423,2024.57782266607,2000.));
#1305=CARTESIAN_POINT('',(321.819491467681,2024.36385831442,2000.));
#1306=CARTESIAN_POINT('',(321.541398993555,2024.13975723559,2000.));
#1307=CARTESIAN_POINT('',(321.271568367914,2023.90594766752,2000.));
#1308=CARTESIAN_POINT('',(321.001737742273,2023.67213809945,2000.));
#1309=CARTESIAN_POINT('',(320.740341003817,2023.42876911453,2000.));
#1310=CARTESIAN_POINT('',(320.487877659295,2023.17630577001,2000.));
#1311=CARTESIAN_POINT('',(320.235414314773,2022.92384242549,2000.));
#1312=CARTESIAN_POINT('',(319.992045329849,2022.66244568703,2000.));
#1313=CARTESIAN_POINT('',(319.75823576178,2022.39261506139,2000.));
#1314=CARTESIAN_POINT('',(319.524426193711,2022.12278443575,2000.));
#1315=CARTESIAN_POINT('',(319.30032511488,2021.84469196162,2000.));
#1316=CARTESIAN_POINT('',(319.086360763228,2021.55886904988,2000.));
#1317=CARTESIAN_POINT('',(318.872396411577,2021.27304613814,2000.));
#1318=CARTESIAN_POINT('',(318.668705206568,2020.97967502385,2000.));
#1319=CARTESIAN_POINT('',(318.475676384626,2020.67931631404,2000.));
#1320=CARTESIAN_POINT('',(318.282647562683,2020.37895760424,2000.));
#1321=CARTESIAN_POINT('',(318.100404195188,2020.07180280174,2000.));
#1322=CARTESIAN_POINT('',(317.929294533585,2019.75843885301,2000.));
#1323=CARTESIAN_POINT('',(317.758184871982,2019.44507490429,2000.));
#1324=CARTESIAN_POINT('',(317.598318012426,2019.12570160403,2000.));
#1325=CARTESIAN_POINT('',(317.449999446776,2018.80092924724,2000.));
#1326=CARTESIAN_POINT('',(317.301680881125,2018.47615689044,2000.));
#1327=CARTESIAN_POINT('',(317.165005174381,2018.14619254557,2000.));
#1328=CARTESIAN_POINT('',(317.040233502097,2017.8116667462,2000.));
#1329=CARTESIAN_POINT('',(316.915461829813,2017.47714094682,2000.));
#1330=CARTESIAN_POINT('',(316.802673743953,2017.13826698,2000.));
#1331=CARTESIAN_POINT('',(316.702084772876,2016.79569240483,2000.));
#1332=CARTESIAN_POINT('',(316.601495801799,2016.45311782966,2000.));
#1333=CARTESIAN_POINT('',(316.513170079055,2016.10706106495,2000.));
#1334=CARTESIAN_POINT('',(316.437276387526,2015.7581833955,2000.));
#1335=CARTESIAN_POINT('',(316.361382695996,2015.40930572606,2000.));
#1336=CARTESIAN_POINT('',(316.297969424006,2015.05782958941,2000.));
#1337=CARTESIAN_POINT('',(316.247157748879,2014.70442662631,2000.));
#1338=CARTESIAN_POINT('',(316.196346073752,2014.35102366321,2000.));
#1339=CARTESIAN_POINT('',(316.158168392014,2013.99591919645,2000.));
#1340=CARTESIAN_POINT('',(316.132697657939,2013.6397918002,2000.));
#1341=CARTESIAN_POINT('',(316.107226923864,2013.28366440395,2000.));
#1342=CARTESIAN_POINT('',(316.094479377093,2012.92674113804,2000.));
#1343=CARTESIAN_POINT('',(316.094479377093,2012.56970405221,2000.));
#1344=CARTESIAN_POINT('',(313.594479377093,2012.56970405221,1000.));
#1345=CARTESIAN_POINT('',(311.094479377093,2025.06970405221,1000.));
#1346=CARTESIAN_POINT('',(317.594479377093,2044.06970405221,1000.));
#1347=CARTESIAN_POINT('',(324.094479377093,2075.15871086039,1000.));
#1348=CARTESIAN_POINT('',(329.101940774954,2123.98345209469,1000.));
#1349=PRODUCT_DEFINITION_SHAPE('','',#1350);
#1350=PRODUCT_DEFINITION('','',#1362,#1367);
#1351=(
GEOMETRIC_REPRESENTATION_CONTEXT(3)
GLOBAL_UNCERTAINTY_ASSIGNED_CONTEXT((#1352))
GLOBAL_UNIT_ASSIGNED_CONTEXT((#1354,#1353,#1357))
REPRESENTATION_CONTEXT('','')
);
#1352=UNCERTAINTY_MEASURE_WITH_UNIT(LENGTH_MEASURE(0.001),#1354,'','tolerance'
);
#1353=(
CONVERSION_BASED_UNIT('',#1355)
NAMED_UNIT(#1361)
PLANE_ANGLE_UNIT()
);
#1354=(
CONVERSION_BASED_UNIT('',#1356)
LENGTH_UNIT()
NAMED_UNIT(#1360)
);
#1355=PLANE_ANGLE_MEASURE_WITH_UNIT(PLANE_ANGLE_MEASURE(0.0174532925199433),
#1358);
#1356=LENGTH_MEASURE_WITH_UNIT(LENGTH_MEASURE(1.),#1359);
#1357=(
NAMED_UNIT(*)
SI_UNIT($,.STERADIAN.)
SOLID_ANGLE_UNIT()
);
#1358=(
NAMED_UNIT(*)
PLANE_ANGLE_UNIT()
SI_UNIT($,.RADIAN.)
);
#1359=(
LENGTH_UNIT()
NAMED_UNIT(*)
SI_UNIT(.MILLI.,.METRE.)
);
#1360=DIMENSIONAL_EXPONENTS(1.,0.,0.,0.,0.,0.,0.);
#1361=DIMENSIONAL_EXPONENTS(0.,0.,0.,0.,0.,0.,0.);
#1362=PRODUCT_DEFINITION_FORMATION_WITH_SPECIFIED_SOURCE('','',#1365,
.NOT_KNOWN.);
#1363=PRODUCT_CATEGORY_RELATIONSHIP('','',#1368,#1364);
#1364=PRODUCT_RELATED_PRODUCT_CATEGORY('assembly','',(#1365));
#1365=PRODUCT('','master','',(#1366));
#1366=PRODUCT_CONTEXT('',#1370,'');
#1367=PRODUCT_DEFINITION_CONTEXT('',#1370,'part_definition');
#1368=PRODUCT_CATEGORY('part','');
#1369=APPLICATION_PROTOCOL_DEFINITION('international standard',
'automotive_design_cc2',1994,#1370);
#1370=APPLICATION_CONTEXT(
'configuration controlled 3D designs of mechanical parts and assemblies');
ENDSEC;
END-ISO-10303-21;
85515