ISO-10303-21;
HEADER;
/* Generated by software using Delcam plc STEP library */

FILE_DESCRIPTION(
/* description */ ('AP-214 File'),
/* implementation_level */ '2;1');

FILE_NAME(
/* name */ 'D633',
/* time_stamp */ 'Mon Feb 15 15:14:26 2021',
/* author */ (''),
/* organization */ (''),
/* preprocessor_version */ 'DELCAM STEP V1',
/* originating_system */ 'Exchange7.1.0006',
/* authorisation */ '');

FILE_SCHEMA (('AUTOMOTIVE_DESIGN'));
ENDSEC;
DATA;
#10=PRESENTATION_STYLE_ASSIGNMENT((#20));
#11=PRESENTATION_STYLE_ASSIGNMENT((#21));
#12=SURFACE_SIDE_STYLE('',(#14));
#13=SURFACE_SIDE_STYLE('',(#15));
#14=SURFACE_STYLE_FILL_AREA(#16);
#15=SURFACE_STYLE_FILL_AREA(#17);
#16=FILL_AREA_STYLE('',(#18));
#17=FILL_AREA_STYLE('',(#19));
#18=FILL_AREA_STYLE_COLOUR('',#47);
#19=FILL_AREA_STYLE_COLOUR('',#48);
#20=SURFACE_STYLE_USAGE(.BOTH.,#12);
#21=SURFACE_STYLE_USAGE(.BOTH.,#13);
#22=STYLED_ITEM('',(#10),#58);
#23=STYLED_ITEM('',(#10),#59);
#24=STYLED_ITEM('',(#10),#60);
#25=STYLED_ITEM('',(#10),#61);
#26=STYLED_ITEM('',(#10),#62);
#27=STYLED_ITEM('',(#10),#63);
#28=STYLED_ITEM('',(#10),#64);
#29=STYLED_ITEM('',(#10),#65);
#30=STYLED_ITEM('',(#10),#66);
#31=STYLED_ITEM('',(#10),#67);
#32=STYLED_ITEM('',(#10),#68);
#33=STYLED_ITEM('',(#10),#69);
#34=STYLED_ITEM('',(#10),#70);
#35=STYLED_ITEM('',(#10),#71);
#36=STYLED_ITEM('',(#10),#72);
#37=STYLED_ITEM('',(#10),#73);
#38=STYLED_ITEM('',(#10),#74);
#39=STYLED_ITEM('',(#10),#75);
#40=STYLED_ITEM('',(#10),#76);
#41=STYLED_ITEM('',(#10),#77);
#42=STYLED_ITEM('',(#10),#78);
#43=STYLED_ITEM('',(#10),#79);
#44=STYLED_ITEM('',(#10),#80);
#45=STYLED_ITEM('',(#10),#81);
#46=STYLED_ITEM('',(#11),#54);
#47=COLOUR_RGB('',0.,0.,0.);
#48=COLOUR_RGB('rgb_colour_1',0.4,0.4,0.4);
#49=MECHANICAL_DESIGN_GEOMETRIC_PRESENTATION_REPRESENTATION('',(#22,#23,#24,
#25,#26,#27,#28,#29,#30,#31,#32,#33,#34,#35,#36,#37,#38,#39,#40,#41,#42,#43,
#44,#45,#46),#1027);
#50=PRESENTATION_LAYER_ASSIGNMENT('0','General',(#58,#59,#60,#61,#62,#63,#64,
#65,#66,#67,#68,#69,#70,#71,#72,#73,#74,#75,#76,#77,#78,#79,#80,#81,#54));
#51=SHAPE_REPRESENTATION_RELATIONSHIP('','',#498,#52);
#52=ADVANCED_BREP_SHAPE_REPRESENTATION('',(#53),#1027);
#53=MANIFOLD_SOLID_BREP('1',#54);
#54=CLOSED_SHELL('',(#58,#59,#60,#61,#62,#63,#64,#65,#66,#67,#68,#69,#70,#71,
#72,#73,#74,#75,#76,#77,#78,#79,#80,#81));
#55=CYLINDRICAL_SURFACE('',#515,199.999999999999);
#56=CYLINDRICAL_SURFACE('',#520,15.0000000000002);
#57=SURFACE_OF_LINEAR_EXTRUSION('',#313,#452);
#58=ADVANCED_FACE('',(#82),#262,.F.);
#59=ADVANCED_FACE('',(#83),#263,.F.);
#60=ADVANCED_FACE('',(#84),#264,.F.);
#61=ADVANCED_FACE('',(#85),#265,.F.);
#62=ADVANCED_FACE('',(#86),#266,.F.);
#63=ADVANCED_FACE('',(#87),#267,.F.);
#64=ADVANCED_FACE('',(#88),#268,.F.);
#65=ADVANCED_FACE('',(#89),#269,.F.);
#66=ADVANCED_FACE('',(#90),#57,.F.);
#67=ADVANCED_FACE('',(#91),#270,.F.);
#68=ADVANCED_FACE('',(#92),#271,.F.);
#69=ADVANCED_FACE('',(#93),#272,.F.);
#70=ADVANCED_FACE('',(#94),#55,.F.);
#71=ADVANCED_FACE('',(#95),#273,.F.);
#72=ADVANCED_FACE('',(#96),#274,.F.);
#73=ADVANCED_FACE('',(#97),#275,.F.);
#74=ADVANCED_FACE('',(#98),#276,.F.);
#75=ADVANCED_FACE('',(#99),#56,.F.);
#76=ADVANCED_FACE('',(#100),#277,.F.);
#77=ADVANCED_FACE('',(#101),#278,.F.);
#78=ADVANCED_FACE('',(#102),#279,.F.);
#79=ADVANCED_FACE('',(#103),#280,.F.);
#80=ADVANCED_FACE('',(#104),#281,.T.);
#81=ADVANCED_FACE('',(#105),#282,.F.);
#82=FACE_OUTER_BOUND('',#106,.T.);
#83=FACE_OUTER_BOUND('',#107,.T.);
#84=FACE_OUTER_BOUND('',#108,.T.);
#85=FACE_OUTER_BOUND('',#109,.T.);
#86=FACE_OUTER_BOUND('',#110,.T.);
#87=FACE_OUTER_BOUND('',#111,.T.);
#88=FACE_OUTER_BOUND('',#112,.T.);
#89=FACE_OUTER_BOUND('',#113,.T.);
#90=FACE_OUTER_BOUND('',#114,.T.);
#91=FACE_OUTER_BOUND('',#115,.T.);
#92=FACE_OUTER_BOUND('',#116,.T.);
#93=FACE_OUTER_BOUND('',#117,.T.);
#94=FACE_OUTER_BOUND('',#118,.T.);
#95=FACE_OUTER_BOUND('',#119,.T.);
#96=FACE_OUTER_BOUND('',#120,.T.);
#97=FACE_OUTER_BOUND('',#121,.T.);
#98=FACE_OUTER_BOUND('',#122,.T.);
#99=FACE_OUTER_BOUND('',#123,.T.);
#100=FACE_OUTER_BOUND('',#124,.T.);
#101=FACE_OUTER_BOUND('',#125,.T.);
#102=FACE_OUTER_BOUND('',#126,.T.);
#103=FACE_OUTER_BOUND('',#127,.T.);
#104=FACE_OUTER_BOUND('',#128,.T.);
#105=FACE_OUTER_BOUND('',#129,.T.);
#106=EDGE_LOOP('',(#130,#131,#132,#133));
#107=EDGE_LOOP('',(#134,#135,#136,#137));
#108=EDGE_LOOP('',(#138,#139,#140,#141));
#109=EDGE_LOOP('',(#142,#143,#144,#145));
#110=EDGE_LOOP('',(#146,#147,#148,#149));
#111=EDGE_LOOP('',(#150,#151,#152,#153));
#112=EDGE_LOOP('',(#154,#155,#156,#157));
#113=EDGE_LOOP('',(#158,#159,#160,#161));
#114=EDGE_LOOP('',(#162,#163,#164,#165));
#115=EDGE_LOOP('',(#166,#167,#168,#169));
#116=EDGE_LOOP('',(#170,#171,#172,#173));
#117=EDGE_LOOP('',(#174,#175,#176,#177));
#118=EDGE_LOOP('',(#178,#179,#180,#181));
#119=EDGE_LOOP('',(#182,#183,#184,#185));
#120=EDGE_LOOP('',(#186,#187,#188,#189));
#121=EDGE_LOOP('',(#190,#191,#192,#193));
#122=EDGE_LOOP('',(#194,#195,#196,#197));
#123=EDGE_LOOP('',(#198,#199,#200,#201));
#124=EDGE_LOOP('',(#202,#203,#204,#205));
#125=EDGE_LOOP('',(#206,#207,#208,#209));
#126=EDGE_LOOP('',(#210,#211,#212,#213));
#127=EDGE_LOOP('',(#214,#215,#216,#217));
#128=EDGE_LOOP('',(#218,#219,#220,#221,#222,#223,#224,#225,#226,#227,#228,#229
,#230,#231,#232,#233,#234,#235,#236,#237,#238,#239));
#129=EDGE_LOOP('',(#240,#241,#242,#243,#244,#245,#246,#247,#248,#249,#250,#251
,#252,#253,#254,#255,#256,#257,#258,#259,#260,#261));
#130=ORIENTED_EDGE('',*,*,#379,.T.);
#131=ORIENTED_EDGE('',*,*,#314,.F.);
#132=ORIENTED_EDGE('',*,*,#357,.F.);
#133=ORIENTED_EDGE('',*,*,#335,.T.);
#134=ORIENTED_EDGE('',*,*,#378,.T.);
#135=ORIENTED_EDGE('',*,*,#315,.F.);
#136=ORIENTED_EDGE('',*,*,#356,.F.);
#137=ORIENTED_EDGE('',*,*,#314,.T.);
#138=ORIENTED_EDGE('',*,*,#377,.T.);
#139=ORIENTED_EDGE('',*,*,#316,.F.);
#140=ORIENTED_EDGE('',*,*,#355,.F.);
#141=ORIENTED_EDGE('',*,*,#315,.T.);
#142=ORIENTED_EDGE('',*,*,#376,.T.);
#143=ORIENTED_EDGE('',*,*,#317,.F.);
#144=ORIENTED_EDGE('',*,*,#354,.F.);
#145=ORIENTED_EDGE('',*,*,#316,.T.);
#146=ORIENTED_EDGE('',*,*,#375,.T.);
#147=ORIENTED_EDGE('',*,*,#318,.F.);
#148=ORIENTED_EDGE('',*,*,#353,.F.);
#149=ORIENTED_EDGE('',*,*,#317,.T.);
#150=ORIENTED_EDGE('',*,*,#374,.T.);
#151=ORIENTED_EDGE('',*,*,#319,.F.);
#152=ORIENTED_EDGE('',*,*,#352,.F.);
#153=ORIENTED_EDGE('',*,*,#318,.T.);
#154=ORIENTED_EDGE('',*,*,#373,.T.);
#155=ORIENTED_EDGE('',*,*,#320,.F.);
#156=ORIENTED_EDGE('',*,*,#351,.F.);
#157=ORIENTED_EDGE('',*,*,#319,.T.);
#158=ORIENTED_EDGE('',*,*,#372,.T.);
#159=ORIENTED_EDGE('',*,*,#321,.F.);
#160=ORIENTED_EDGE('',*,*,#350,.F.);
#161=ORIENTED_EDGE('',*,*,#320,.T.);
#162=ORIENTED_EDGE('',*,*,#371,.T.);
#163=ORIENTED_EDGE('',*,*,#322,.F.);
#164=ORIENTED_EDGE('',*,*,#349,.F.);
#165=ORIENTED_EDGE('',*,*,#321,.T.);
#166=ORIENTED_EDGE('',*,*,#370,.T.);
#167=ORIENTED_EDGE('',*,*,#323,.F.);
#168=ORIENTED_EDGE('',*,*,#348,.F.);
#169=ORIENTED_EDGE('',*,*,#322,.T.);
#170=ORIENTED_EDGE('',*,*,#369,.T.);
#171=ORIENTED_EDGE('',*,*,#324,.F.);
#172=ORIENTED_EDGE('',*,*,#347,.F.);
#173=ORIENTED_EDGE('',*,*,#323,.T.);
#174=ORIENTED_EDGE('',*,*,#368,.T.);
#175=ORIENTED_EDGE('',*,*,#325,.F.);
#176=ORIENTED_EDGE('',*,*,#346,.F.);
#177=ORIENTED_EDGE('',*,*,#324,.T.);
#178=ORIENTED_EDGE('',*,*,#367,.T.);
#179=ORIENTED_EDGE('',*,*,#326,.F.);
#180=ORIENTED_EDGE('',*,*,#345,.F.);
#181=ORIENTED_EDGE('',*,*,#325,.T.);
#182=ORIENTED_EDGE('',*,*,#366,.T.);
#183=ORIENTED_EDGE('',*,*,#327,.F.);
#184=ORIENTED_EDGE('',*,*,#344,.F.);
#185=ORIENTED_EDGE('',*,*,#326,.T.);
#186=ORIENTED_EDGE('',*,*,#365,.T.);
#187=ORIENTED_EDGE('',*,*,#328,.F.);
#188=ORIENTED_EDGE('',*,*,#343,.F.);
#189=ORIENTED_EDGE('',*,*,#327,.T.);
#190=ORIENTED_EDGE('',*,*,#364,.T.);
#191=ORIENTED_EDGE('',*,*,#329,.F.);
#192=ORIENTED_EDGE('',*,*,#342,.F.);
#193=ORIENTED_EDGE('',*,*,#328,.T.);
#194=ORIENTED_EDGE('',*,*,#363,.T.);
#195=ORIENTED_EDGE('',*,*,#330,.F.);
#196=ORIENTED_EDGE('',*,*,#341,.F.);
#197=ORIENTED_EDGE('',*,*,#329,.T.);
#198=ORIENTED_EDGE('',*,*,#362,.T.);
#199=ORIENTED_EDGE('',*,*,#331,.F.);
#200=ORIENTED_EDGE('',*,*,#340,.F.);
#201=ORIENTED_EDGE('',*,*,#330,.T.);
#202=ORIENTED_EDGE('',*,*,#361,.T.);
#203=ORIENTED_EDGE('',*,*,#332,.F.);
#204=ORIENTED_EDGE('',*,*,#339,.F.);
#205=ORIENTED_EDGE('',*,*,#331,.T.);
#206=ORIENTED_EDGE('',*,*,#360,.T.);
#207=ORIENTED_EDGE('',*,*,#333,.F.);
#208=ORIENTED_EDGE('',*,*,#338,.F.);
#209=ORIENTED_EDGE('',*,*,#332,.T.);
#210=ORIENTED_EDGE('',*,*,#359,.T.);
#211=ORIENTED_EDGE('',*,*,#334,.F.);
#212=ORIENTED_EDGE('',*,*,#337,.F.);
#213=ORIENTED_EDGE('',*,*,#333,.T.);
#214=ORIENTED_EDGE('',*,*,#358,.T.);
#215=ORIENTED_EDGE('',*,*,#335,.F.);
#216=ORIENTED_EDGE('',*,*,#336,.F.);
#217=ORIENTED_EDGE('',*,*,#334,.T.);
#218=ORIENTED_EDGE('',*,*,#357,.T.);
#219=ORIENTED_EDGE('',*,*,#356,.T.);
#220=ORIENTED_EDGE('',*,*,#355,.T.);
#221=ORIENTED_EDGE('',*,*,#354,.T.);
#222=ORIENTED_EDGE('',*,*,#353,.T.);
#223=ORIENTED_EDGE('',*,*,#352,.T.);
#224=ORIENTED_EDGE('',*,*,#351,.T.);
#225=ORIENTED_EDGE('',*,*,#350,.T.);
#226=ORIENTED_EDGE('',*,*,#349,.T.);
#227=ORIENTED_EDGE('',*,*,#348,.T.);
#228=ORIENTED_EDGE('',*,*,#347,.T.);
#229=ORIENTED_EDGE('',*,*,#346,.T.);
#230=ORIENTED_EDGE('',*,*,#345,.T.);
#231=ORIENTED_EDGE('',*,*,#344,.T.);
#232=ORIENTED_EDGE('',*,*,#343,.T.);
#233=ORIENTED_EDGE('',*,*,#342,.T.);
#234=ORIENTED_EDGE('',*,*,#341,.T.);
#235=ORIENTED_EDGE('',*,*,#340,.T.);
#236=ORIENTED_EDGE('',*,*,#339,.T.);
#237=ORIENTED_EDGE('',*,*,#338,.T.);
#238=ORIENTED_EDGE('',*,*,#337,.T.);
#239=ORIENTED_EDGE('',*,*,#336,.T.);
#240=ORIENTED_EDGE('',*,*,#379,.F.);
#241=ORIENTED_EDGE('',*,*,#358,.F.);
#242=ORIENTED_EDGE('',*,*,#359,.F.);
#243=ORIENTED_EDGE('',*,*,#360,.F.);
#244=ORIENTED_EDGE('',*,*,#361,.F.);
#245=ORIENTED_EDGE('',*,*,#362,.F.);
#246=ORIENTED_EDGE('',*,*,#363,.F.);
#247=ORIENTED_EDGE('',*,*,#364,.F.);
#248=ORIENTED_EDGE('',*,*,#365,.F.);
#249=ORIENTED_EDGE('',*,*,#366,.F.);
#250=ORIENTED_EDGE('',*,*,#367,.F.);
#251=ORIENTED_EDGE('',*,*,#368,.F.);
#252=ORIENTED_EDGE('',*,*,#369,.F.);
#253=ORIENTED_EDGE('',*,*,#370,.F.);
#254=ORIENTED_EDGE('',*,*,#371,.F.);
#255=ORIENTED_EDGE('',*,*,#372,.F.);
#256=ORIENTED_EDGE('',*,*,#373,.F.);
#257=ORIENTED_EDGE('',*,*,#374,.F.);
#258=ORIENTED_EDGE('',*,*,#375,.F.);
#259=ORIENTED_EDGE('',*,*,#376,.F.);
#260=ORIENTED_EDGE('',*,*,#377,.F.);
#261=ORIENTED_EDGE('',*,*,#378,.F.);
#262=PLANE('',#504);
#263=PLANE('',#505);
#264=PLANE('',#506);
#265=PLANE('',#507);
#266=PLANE('',#508);
#267=PLANE('',#509);
#268=PLANE('',#510);
#269=PLANE('',#511);
#270=PLANE('',#512);
#271=PLANE('',#513);
#272=PLANE('',#514);
#273=PLANE('',#516);
#274=PLANE('',#517);
#275=PLANE('',#518);
#276=PLANE('',#519);
#277=PLANE('',#521);
#278=PLANE('',#522);
#279=PLANE('',#523);
#280=PLANE('',#524);
#281=PLANE('',#525);
#282=PLANE('',#526);
#283=CIRCLE('',#500,15.0000000000002);
#284=CIRCLE('',#501,199.999999999999);
#285=CIRCLE('',#502,15.0000000000002);
#286=CIRCLE('',#503,199.999999999999);
#287=B_SPLINE_CURVE_WITH_KNOTS('',3,(#688,#689,#690,#691),.UNSPECIFIED.,.F.,
.F.,(4,4),(1.,2.),.UNSPECIFIED.);
#288=B_SPLINE_CURVE_WITH_KNOTS('',3,(#692,#693,#694,#695),.UNSPECIFIED.,.F.,
.F.,(4,4),(0.,1.),.UNSPECIFIED.);
#289=B_SPLINE_CURVE_WITH_KNOTS('',3,(#696,#697,#698,#699),.UNSPECIFIED.,.F.,
.F.,(4,4),(0.,1.),.UNSPECIFIED.);
#290=B_SPLINE_CURVE_WITH_KNOTS('',3,(#701,#702,#703,#704),.UNSPECIFIED.,.F.,
.F.,(4,4),(1.,2.),.UNSPECIFIED.);
#291=B_SPLINE_CURVE_WITH_KNOTS('',3,(#705,#706,#707,#708),.UNSPECIFIED.,.F.,
.F.,(4,4),(0.,1.),.UNSPECIFIED.);
#292=B_SPLINE_CURVE_WITH_KNOTS('',3,(#709,#710,#711,#712),.UNSPECIFIED.,.F.,
.F.,(4,4),(0.,1.),.UNSPECIFIED.);
#293=B_SPLINE_CURVE_WITH_KNOTS('',3,(#713,#714,#715,#716),.UNSPECIFIED.,.F.,
.F.,(4,4),(0.,1.),.UNSPECIFIED.);
#294=B_SPLINE_CURVE_WITH_KNOTS('',3,(#718,#719,#720,#721),.UNSPECIFIED.,.F.,
.F.,(4,4),(0.,1.),.UNSPECIFIED.);
#295=B_SPLINE_CURVE_WITH_KNOTS('',3,(#722,#723,#724,#725),.UNSPECIFIED.,.F.,
.F.,(4,4),(0.,1.),.UNSPECIFIED.);
#296=B_SPLINE_CURVE_WITH_KNOTS('',3,(#726,#727,#728,#729),.UNSPECIFIED.,.F.,
.F.,(4,4),(0.,1.),.UNSPECIFIED.);
#297=B_SPLINE_CURVE_WITH_KNOTS('',3,(#730,#731,#732,#733,#734,#735,#736,#737,
#738,#739,#740,#741,#742,#743,#744,#745,#746,#747,#748,#749,#750,#751,#752,
#753,#754,#755,#756,#757,#758,#759,#760,#761,#762,#763,#764,#765,#766,#767,
#768,#769,#770,#771,#772,#773,#774,#775,#776,#777,#778,#779,#780,#781,#782,
#783,#784,#785,#786,#787,#788,#789,#790,#791,#792,#793,#794,#795,#796),
.UNSPECIFIED.,.F.,.F.,(4,3,3,3,3,3,3,3,3,3,3,3,3,3,3,3,3,3,3,3,3,3,4),(0.,1.,
2.,3.,4.,5.,6.,7.,8.,9.,10.,11.,12.,13.,14.,15.,16.,17.,18.,19.,20.,21.,22.),
.UNSPECIFIED.);
#298=B_SPLINE_CURVE_WITH_KNOTS('',3,(#797,#798,#799,#800),.UNSPECIFIED.,.F.,
.F.,(4,4),(0.,1.),.UNSPECIFIED.);
#299=B_SPLINE_CURVE_WITH_KNOTS('',3,(#801,#802,#803,#804),.UNSPECIFIED.,.F.,
.F.,(4,4),(0.,1.),.UNSPECIFIED.);
#300=B_SPLINE_CURVE_WITH_KNOTS('',3,(#812,#813,#814,#815),.UNSPECIFIED.,.F.,
.F.,(4,4),(1.,2.),.UNSPECIFIED.);
#301=B_SPLINE_CURVE_WITH_KNOTS('',3,(#816,#817,#818,#819),.UNSPECIFIED.,.F.,
.F.,(4,4),(0.,1.),.UNSPECIFIED.);
#302=B_SPLINE_CURVE_WITH_KNOTS('',3,(#820,#821,#822,#823),.UNSPECIFIED.,.F.,
.F.,(4,4),(0.,1.),.UNSPECIFIED.);
#303=B_SPLINE_CURVE_WITH_KNOTS('',3,(#825,#826,#827,#828),.UNSPECIFIED.,.F.,
.F.,(4,4),(1.,2.),.UNSPECIFIED.);
#304=B_SPLINE_CURVE_WITH_KNOTS('',3,(#829,#830,#831,#832),.UNSPECIFIED.,.F.,
.F.,(4,4),(0.,1.),.UNSPECIFIED.);
#305=B_SPLINE_CURVE_WITH_KNOTS('',3,(#833,#834,#835,#836),.UNSPECIFIED.,.F.,
.F.,(4,4),(0.,1.),.UNSPECIFIED.);
#306=B_SPLINE_CURVE_WITH_KNOTS('',3,(#837,#838,#839,#840),.UNSPECIFIED.,.F.,
.F.,(4,4),(0.,1.),.UNSPECIFIED.);
#307=B_SPLINE_CURVE_WITH_KNOTS('',3,(#842,#843,#844,#845),.UNSPECIFIED.,.F.,
.F.,(4,4),(0.,1.),.UNSPECIFIED.);
#308=B_SPLINE_CURVE_WITH_KNOTS('',3,(#846,#847,#848,#849),.UNSPECIFIED.,.F.,
.F.,(4,4),(0.,1.),.UNSPECIFIED.);
#309=B_SPLINE_CURVE_WITH_KNOTS('',3,(#850,#851,#852,#853),.UNSPECIFIED.,.F.,
.F.,(4,4),(0.,1.),.UNSPECIFIED.);
#310=B_SPLINE_CURVE_WITH_KNOTS('',3,(#854,#855,#856,#857,#858,#859,#860,#861,
#862,#863,#864,#865,#866,#867,#868,#869,#870,#871,#872,#873,#874,#875,#876,
#877,#878,#879,#880,#881,#882,#883,#884,#885,#886,#887,#888,#889,#890,#891,
#892,#893,#894,#895,#896,#897,#898,#899,#900,#901,#902,#903,#904,#905,#906,
#907,#908,#909,#910,#911,#912,#913,#914,#915,#916,#917,#918,#919,#920),
.UNSPECIFIED.,.F.,.F.,(4,3,3,3,3,3,3,3,3,3,3,3,3,3,3,3,3,3,3,3,3,3,4),(0.,1.,
2.,3.,4.,5.,6.,7.,8.,9.,10.,11.,12.,13.,14.,15.,16.,17.,18.,19.,20.,21.,22.),
.UNSPECIFIED.);
#311=B_SPLINE_CURVE_WITH_KNOTS('',3,(#921,#922,#923,#924),.UNSPECIFIED.,.F.,
.F.,(4,4),(0.,1.),.UNSPECIFIED.);
#312=B_SPLINE_CURVE_WITH_KNOTS('',3,(#925,#926,#927,#928),.UNSPECIFIED.,.F.,
.F.,(4,4),(0.,1.),.UNSPECIFIED.);
#313=B_SPLINE_CURVE_WITH_KNOTS('',3,(#943,#944,#945,#946,#947,#948,#949,#950,
#951,#952,#953,#954,#955,#956,#957,#958,#959,#960,#961,#962,#963,#964,#965,
#966,#967,#968,#969,#970,#971,#972,#973,#974,#975,#976,#977,#978,#979,#980,
#981,#982,#983,#984,#985,#986,#987,#988,#989,#990,#991,#992,#993,#994,#995,
#996,#997,#998,#999,#1000,#1001,#1002,#1003,#1004,#1005,#1006,#1007,#1008,
#1009),.UNSPECIFIED.,.F.,.F.,(4,3,3,3,3,3,3,3,3,3,3,3,3,3,3,3,3,3,3,3,3,3,4),(
0.,1.,2.,3.,4.,5.,6.,7.,8.,9.,10.,11.,12.,13.,14.,15.,16.,17.,18.,19.,20.,21.,
22.),.UNSPECIFIED.);
#314=EDGE_CURVE('',#474,#496,#380,.T.);
#315=EDGE_CURVE('',#473,#495,#381,.T.);
#316=EDGE_CURVE('',#472,#494,#382,.T.);
#317=EDGE_CURVE('',#471,#493,#383,.T.);
#318=EDGE_CURVE('',#470,#492,#384,.T.);
#319=EDGE_CURVE('',#469,#491,#385,.T.);
#320=EDGE_CURVE('',#468,#490,#386,.T.);
#321=EDGE_CURVE('',#467,#489,#387,.T.);
#322=EDGE_CURVE('',#466,#488,#388,.T.);
#323=EDGE_CURVE('',#465,#487,#389,.T.);
#324=EDGE_CURVE('',#464,#486,#390,.T.);
#325=EDGE_CURVE('',#463,#485,#391,.T.);
#326=EDGE_CURVE('',#462,#484,#392,.T.);
#327=EDGE_CURVE('',#461,#483,#393,.T.);
#328=EDGE_CURVE('',#460,#482,#394,.T.);
#329=EDGE_CURVE('',#459,#481,#395,.T.);
#330=EDGE_CURVE('',#458,#480,#396,.T.);
#331=EDGE_CURVE('',#457,#479,#397,.T.);
#332=EDGE_CURVE('',#456,#478,#398,.T.);
#333=EDGE_CURVE('',#455,#477,#399,.T.);
#334=EDGE_CURVE('',#454,#476,#400,.T.);
#335=EDGE_CURVE('',#453,#475,#401,.T.);
#336=EDGE_CURVE('',#454,#453,#402,.T.);
#337=EDGE_CURVE('',#455,#454,#287,.T.);
#338=EDGE_CURVE('',#456,#455,#288,.T.);
#339=EDGE_CURVE('',#457,#456,#289,.T.);
#340=EDGE_CURVE('',#458,#457,#283,.T.);
#341=EDGE_CURVE('',#459,#458,#290,.T.);
#342=EDGE_CURVE('',#460,#459,#291,.T.);
#343=EDGE_CURVE('',#461,#460,#292,.T.);
#344=EDGE_CURVE('',#462,#461,#293,.T.);
#345=EDGE_CURVE('',#463,#462,#284,.T.);
#346=EDGE_CURVE('',#464,#463,#294,.T.);
#347=EDGE_CURVE('',#465,#464,#295,.T.);
#348=EDGE_CURVE('',#466,#465,#296,.T.);
#349=EDGE_CURVE('',#467,#466,#297,.T.);
#350=EDGE_CURVE('',#468,#467,#298,.T.);
#351=EDGE_CURVE('',#469,#468,#299,.T.);
#352=EDGE_CURVE('',#470,#469,#403,.T.);
#353=EDGE_CURVE('',#471,#470,#404,.T.);
#354=EDGE_CURVE('',#472,#471,#405,.T.);
#355=EDGE_CURVE('',#473,#472,#406,.T.);
#356=EDGE_CURVE('',#474,#473,#407,.T.);
#357=EDGE_CURVE('',#453,#474,#408,.T.);
#358=EDGE_CURVE('',#476,#475,#409,.T.);
#359=EDGE_CURVE('',#477,#476,#300,.T.);
#360=EDGE_CURVE('',#478,#477,#301,.T.);
#361=EDGE_CURVE('',#479,#478,#302,.T.);
#362=EDGE_CURVE('',#480,#479,#285,.T.);
#363=EDGE_CURVE('',#481,#480,#303,.T.);
#364=EDGE_CURVE('',#482,#481,#304,.T.);
#365=EDGE_CURVE('',#483,#482,#305,.T.);
#366=EDGE_CURVE('',#484,#483,#306,.T.);
#367=EDGE_CURVE('',#485,#484,#286,.T.);
#368=EDGE_CURVE('',#486,#485,#307,.T.);
#369=EDGE_CURVE('',#487,#486,#308,.T.);
#370=EDGE_CURVE('',#488,#487,#309,.T.);
#371=EDGE_CURVE('',#489,#488,#310,.T.);
#372=EDGE_CURVE('',#490,#489,#311,.T.);
#373=EDGE_CURVE('',#491,#490,#312,.T.);
#374=EDGE_CURVE('',#492,#491,#410,.T.);
#375=EDGE_CURVE('',#493,#492,#411,.T.);
#376=EDGE_CURVE('',#494,#493,#412,.T.);
#377=EDGE_CURVE('',#495,#494,#413,.T.);
#378=EDGE_CURVE('',#496,#495,#414,.T.);
#379=EDGE_CURVE('',#475,#496,#415,.T.);
#380=LINE('',#665,#416);
#381=LINE('',#666,#417);
#382=LINE('',#667,#418);
#383=LINE('',#668,#419);
#384=LINE('',#669,#420);
#385=LINE('',#670,#421);
#386=LINE('',#671,#422);
#387=LINE('',#672,#423);
#388=LINE('',#673,#424);
#389=LINE('',#674,#425);
#390=LINE('',#675,#426);
#391=LINE('',#676,#427);
#392=LINE('',#677,#428);
#393=LINE('',#678,#429);
#394=LINE('',#679,#430);
#395=LINE('',#680,#431);
#396=LINE('',#681,#432);
#397=LINE('',#682,#433);
#398=LINE('',#683,#434);
#399=LINE('',#684,#435);
#400=LINE('',#685,#436);
#401=LINE('',#686,#437);
#402=LINE('',#687,#438);
#403=LINE('',#805,#439);
#404=LINE('',#806,#440);
#405=LINE('',#807,#441);
#406=LINE('',#808,#442);
#407=LINE('',#809,#443);
#408=LINE('',#810,#444);
#409=LINE('',#811,#445);
#410=LINE('',#929,#446);
#411=LINE('',#930,#447);
#412=LINE('',#931,#448);
#413=LINE('',#932,#449);
#414=LINE('',#933,#450);
#415=LINE('',#934,#451);
#416=VECTOR('',#529,1.);
#417=VECTOR('',#530,1.);
#418=VECTOR('',#531,1.);
#419=VECTOR('',#532,1.);
#420=VECTOR('',#533,1.);
#421=VECTOR('',#534,1.);
#422=VECTOR('',#535,1.);
#423=VECTOR('',#536,1.);
#424=VECTOR('',#537,1.);
#425=VECTOR('',#538,1.);
#426=VECTOR('',#539,1.);
#427=VECTOR('',#540,1.);
#428=VECTOR('',#541,1.);
#429=VECTOR('',#542,1.);
#430=VECTOR('',#543,1.);
#431=VECTOR('',#544,1.);
#432=VECTOR('',#545,1.);
#433=VECTOR('',#546,1.);
#434=VECTOR('',#547,1.);
#435=VECTOR('',#548,1.);
#436=VECTOR('',#549,1.);
#437=VECTOR('',#550,1.);
#438=VECTOR('',#551,1.);
#439=VECTOR('',#556,1.);
#440=VECTOR('',#557,1.);
#441=VECTOR('',#558,1.);
#442=VECTOR('',#559,1.);
#443=VECTOR('',#560,1.);
#444=VECTOR('',#561,1.);
#445=VECTOR('',#562,1.);
#446=VECTOR('',#567,1.);
#447=VECTOR('',#568,1.);
#448=VECTOR('',#569,1.);
#449=VECTOR('',#570,1.);
#450=VECTOR('',#571,1.);
#451=VECTOR('',#572,1.);
#452=VECTOR('',#589,1.);
#453=VERTEX_POINT('',#621);
#454=VERTEX_POINT('',#622);
#455=VERTEX_POINT('',#623);
#456=VERTEX_POINT('',#624);
#457=VERTEX_POINT('',#625);
#458=VERTEX_POINT('',#626);
#459=VERTEX_POINT('',#627);
#460=VERTEX_POINT('',#628);
#461=VERTEX_POINT('',#629);
#462=VERTEX_POINT('',#630);
#463=VERTEX_POINT('',#631);
#464=VERTEX_POINT('',#632);
#465=VERTEX_POINT('',#633);
#466=VERTEX_POINT('',#634);
#467=VERTEX_POINT('',#635);
#468=VERTEX_POINT('',#636);
#469=VERTEX_POINT('',#637);
#470=VERTEX_POINT('',#638);
#471=VERTEX_POINT('',#639);
#472=VERTEX_POINT('',#640);
#473=VERTEX_POINT('',#641);
#474=VERTEX_POINT('',#642);
#475=VERTEX_POINT('',#643);
#476=VERTEX_POINT('',#644);
#477=VERTEX_POINT('',#645);
#478=VERTEX_POINT('',#646);
#479=VERTEX_POINT('',#647);
#480=VERTEX_POINT('',#648);
#481=VERTEX_POINT('',#649);
#482=VERTEX_POINT('',#650);
#483=VERTEX_POINT('',#651);
#484=VERTEX_POINT('',#652);
#485=VERTEX_POINT('',#653);
#486=VERTEX_POINT('',#654);
#487=VERTEX_POINT('',#655);
#488=VERTEX_POINT('',#656);
#489=VERTEX_POINT('',#657);
#490=VERTEX_POINT('',#658);
#491=VERTEX_POINT('',#659);
#492=VERTEX_POINT('',#660);
#493=VERTEX_POINT('',#661);
#494=VERTEX_POINT('',#662);
#495=VERTEX_POINT('',#663);
#496=VERTEX_POINT('',#664);
#497=SHAPE_DEFINITION_REPRESENTATION(#1025,#498);
#498=SHAPE_REPRESENTATION('master',(#499),#1027);
#499=AXIS2_PLACEMENT_3D('',#620,#528,#527);
#500=AXIS2_PLACEMENT_3D('',#700,#553,#552);
#501=AXIS2_PLACEMENT_3D('',#717,#555,#554);
#502=AXIS2_PLACEMENT_3D('',#824,#564,#563);
#503=AXIS2_PLACEMENT_3D('',#841,#566,#565);
#504=AXIS2_PLACEMENT_3D('',#935,#574,#573);
#505=AXIS2_PLACEMENT_3D('',#936,#576,#575);
#506=AXIS2_PLACEMENT_3D('',#937,#578,#577);
#507=AXIS2_PLACEMENT_3D('',#938,#580,#579);
#508=AXIS2_PLACEMENT_3D('',#939,#582,#581);
#509=AXIS2_PLACEMENT_3D('',#940,#584,#583);
#510=AXIS2_PLACEMENT_3D('',#941,#586,#585);
#511=AXIS2_PLACEMENT_3D('',#942,#588,#587);
#512=AXIS2_PLACEMENT_3D('',#1010,#591,#590);
#513=AXIS2_PLACEMENT_3D('',#1011,#593,#592);
#514=AXIS2_PLACEMENT_3D('',#1012,#595,#594);
#515=AXIS2_PLACEMENT_3D('',#1013,#597,#596);
#516=AXIS2_PLACEMENT_3D('',#1014,#599,#598);
#517=AXIS2_PLACEMENT_3D('',#1015,#601,#600);
#518=AXIS2_PLACEMENT_3D('',#1016,#603,#602);
#519=AXIS2_PLACEMENT_3D('',#1017,#605,#604);
#520=AXIS2_PLACEMENT_3D('',#1018,#607,#606);
#521=AXIS2_PLACEMENT_3D('',#1019,#609,#608);
#522=AXIS2_PLACEMENT_3D('',#1020,#611,#610);
#523=AXIS2_PLACEMENT_3D('',#1021,#613,#612);
#524=AXIS2_PLACEMENT_3D('',#1022,#615,#614);
#525=AXIS2_PLACEMENT_3D('',#1023,#617,#616);
#526=AXIS2_PLACEMENT_3D('',#1024,#619,#618);
#527=DIRECTION('',(1.,0.,0.));
#528=DIRECTION('',(0.,0.,1.));
#529=DIRECTION('',(-0.,-0.,-1.));
#530=DIRECTION('',(-0.,-0.,-1.));
#531=DIRECTION('',(-0.,-0.,-1.));
#532=DIRECTION('',(-0.,-0.,-1.));
#533=DIRECTION('',(-0.,-0.,-1.));
#534=DIRECTION('',(-0.,-0.,-1.));
#535=DIRECTION('',(-0.,-0.,-1.));
#536=DIRECTION('',(-0.,-0.,-1.));
#537=DIRECTION('',(-0.,-0.,-1.));
#538=DIRECTION('',(-0.,-0.,-1.));
#539=DIRECTION('',(-0.,-0.,-1.));
#540=DIRECTION('',(-0.,-0.,-1.));
#541=DIRECTION('',(-0.,-0.,-1.));
#542=DIRECTION('',(-0.,-0.,-1.));
#543=DIRECTION('',(-0.,-0.,-1.));
#544=DIRECTION('',(-0.,-0.,-1.));
#545=DIRECTION('',(-0.,-0.,-1.));
#546=DIRECTION('',(-0.,-0.,-1.));
#547=DIRECTION('',(-0.,-0.,-1.));
#548=DIRECTION('',(-0.,-0.,-1.));
#549=DIRECTION('',(-0.,-0.,-1.));
#550=DIRECTION('',(-0.,-0.,-1.));
#551=DIRECTION('',(-0.707106781185864,-0.707106781187231,0.));
#552=DIRECTION('',(-1.,1.51582450295486E-014,0.));
#553=DIRECTION('',(0.,0.,-1.));
#554=DIRECTION('',(-1.,3.33955085807249E-015,0.));
#555=DIRECTION('',(0.,0.,-1.));
#556=DIRECTION('',(-0.707106781186537,-0.707106781186558,-0.));
#557=DIRECTION('',(0.,-1.,0.));
#558=DIRECTION('',(-0.3337121746631,-0.942675015305712,-0.));
#559=DIRECTION('',(-0.707106781186547,-0.707106781186547,-0.));
#560=DIRECTION('',(-0.942675015305719,-0.333712174663081,0.));
#561=DIRECTION('',(-0.999999999998211,1.89146317512596E-006,0.));
#562=DIRECTION('',(-0.707106781185864,-0.707106781187231,0.));
#563=DIRECTION('',(-1.,1.51582450295486E-014,0.));
#564=DIRECTION('',(0.,0.,-1.));
#565=DIRECTION('',(-1.,3.33955085807249E-015,0.));
#566=DIRECTION('',(0.,0.,-1.));
#567=DIRECTION('',(-0.707106781186537,-0.707106781186558,-0.));
#568=DIRECTION('',(0.,-1.,0.));
#569=DIRECTION('',(-0.3337121746631,-0.942675015305712,-0.));
#570=DIRECTION('',(-0.707106781186547,-0.707106781186547,-0.));
#571=DIRECTION('',(-0.942675015305719,-0.333712174663081,0.));
#572=DIRECTION('',(-0.999999999998211,1.89146317512596E-006,0.));
#573=DIRECTION('',(0.999999999998211,-1.89146317512596E-006,0.));
#574=DIRECTION('',(-1.89146317512596E-006,-0.999999999998211,0.));
#575=DIRECTION('',(0.942675015305719,0.333712174663081,0.));
#576=DIRECTION('',(0.333712174663081,-0.942675015305719,0.));
#577=DIRECTION('',(0.707106781186548,0.707106781186548,0.));
#578=DIRECTION('',(0.707106781186548,-0.707106781186548,0.));
#579=DIRECTION('',(0.3337121746631,0.942675015305712,0.));
#580=DIRECTION('',(0.942675015305712,-0.3337121746631,0.));
#581=DIRECTION('',(-0.,0.,-1.));
#582=DIRECTION('',(1.,0.,-0.));
#583=DIRECTION('',(0.707106781186537,0.707106781186558,0.));
#584=DIRECTION('',(0.707106781186558,-0.707106781186537,0.));
#585=DIRECTION('',(-0.,0.,-1.));
#586=DIRECTION('',(1.,0.,-0.));
#587=DIRECTION('',(-1.,-4.64905891561691E-014,0.));
#588=DIRECTION('',(-4.64905891561691E-014,1.,0.));
#589=DIRECTION('',(-0.,-0.,-1.));
#590=DIRECTION('',(-8.88178419700085E-014,-1.,0.));
#591=DIRECTION('',(-1.,8.88178419700085E-014,0.));
#592=DIRECTION('',(-1.,1.87350135405495E-013,0.));
#593=DIRECTION('',(1.87350135405495E-013,1.,-0.));
#594=DIRECTION('',(0.,0.,1.));
#595=DIRECTION('',(-1.,0.,0.));
#596=DIRECTION('',(-1.,0.,0.));
#597=DIRECTION('',(-0.,-0.,-1.));
#598=DIRECTION('',(-1.,1.47021502876112E-012,0.));
#599=DIRECTION('',(1.47021502876112E-012,1.,-0.));
#600=DIRECTION('',(-1.,1.91803596314912E-013,0.));
#601=DIRECTION('',(1.91803596314912E-013,1.,-0.));
#602=DIRECTION('',(0.,0.,1.));
#603=DIRECTION('',(-1.,0.,0.));
#604=DIRECTION('',(-1.,3.88578058618804E-013,0.));
#605=DIRECTION('',(3.88578058618804E-013,1.,-0.));
#606=DIRECTION('',(-1.,0.,0.));
#607=DIRECTION('',(-0.,-0.,-1.));
#608=DIRECTION('',(1.29500027172781E-010,-1.,0.));
#609=DIRECTION('',(-1.,-1.29500027172781E-010,0.));
#610=DIRECTION('',(1.,-2.02061730824018E-013,0.));
#611=DIRECTION('',(-2.02061730824018E-013,-1.,0.));
#612=DIRECTION('',(0.707106781186603,0.707106781186492,0.));
#613=DIRECTION('',(0.707106781186492,-0.707106781186603,0.));
#614=DIRECTION('',(0.707106781185864,0.707106781187231,0.));
#615=DIRECTION('',(0.707106781187231,-0.707106781185864,0.));
#616=DIRECTION('',(1.,0.,-0.));
#617=DIRECTION('',(0.,0.,1.));
#618=DIRECTION('',(1.,0.,-0.));
#619=DIRECTION('',(0.,0.,1.));
#620=CARTESIAN_POINT('',(0.,0.,0.));
#621=CARTESIAN_POINT('',(927.254399765777,311.879687042458,2000.));
#622=CARTESIAN_POINT('',(928.254539286895,312.879826563578,2000.));
#623=CARTESIAN_POINT('',(940.254399765777,324.879687042458,2000.));
#624=CARTESIAN_POINT('',(965.254258677428,324.879687042453,2000.));
#625=CARTESIAN_POINT('',(965.254258678075,319.879826562906,2000.));
#626=CARTESIAN_POINT('',(950.254399765773,304.87982656357,2000.));
#627=CARTESIAN_POINT('',(945.254399765773,304.879826563572,2000.));
#628=CARTESIAN_POINT('',(945.254399765773,299.879826563572,2000.));
#629=CARTESIAN_POINT('',(929.336484896719,299.879826563575,2000.));
#630=CARTESIAN_POINT('',(890.257819259105,299.879826563632,2000.));
#631=CARTESIAN_POINT('',(690.257819259106,99.8798265636342,2000.));
#632=CARTESIAN_POINT('',(690.257819259106,44.8798265636085,2000.));
#633=CARTESIAN_POINT('',(685.257819259106,44.8798265636094,2000.));
#634=CARTESIAN_POINT('',(685.257819259106,39.8798265636092,2000.));
#635=CARTESIAN_POINT('',(670.257819259106,24.8798265636119,2000.));
#636=CARTESIAN_POINT('',(665.257819259105,24.8798265636117,2000.));
#637=CARTESIAN_POINT('',(665.257819259105,49.8798265636119,2000.));
#638=CARTESIAN_POINT('',(678.257819259105,62.8798265636123,2000.));
#639=CARTESIAN_POINT('',(678.257819259105,136.646846988151,2000.));
#640=CARTESIAN_POINT('',(708.556182830463,222.234106045158,2000.));
#641=CARTESIAN_POINT('',(767.903539777602,281.581462992297,2000.));
#642=CARTESIAN_POINT('',(853.490798834609,311.879826563653,2000.));
#643=CARTESIAN_POINT('',(927.254399765777,311.879687042458,0.));
#644=CARTESIAN_POINT('',(928.254539286895,312.879826563578,0.));
#645=CARTESIAN_POINT('',(940.254399765777,324.879687042458,0.));
#646=CARTESIAN_POINT('',(965.254258677428,324.879687042453,0.));
#647=CARTESIAN_POINT('',(965.254258678075,319.879826562906,0.));
#648=CARTESIAN_POINT('',(950.254399765773,304.87982656357,0.));
#649=CARTESIAN_POINT('',(945.254399765773,304.879826563572,0.));
#650=CARTESIAN_POINT('',(945.254399765773,299.879826563572,0.));
#651=CARTESIAN_POINT('',(929.336484896719,299.879826563575,0.));
#652=CARTESIAN_POINT('',(890.257819259105,299.879826563632,0.));
#653=CARTESIAN_POINT('',(690.257819259106,99.8798265636342,0.));
#654=CARTESIAN_POINT('',(690.257819259106,44.8798265636085,0.));
#655=CARTESIAN_POINT('',(685.257819259106,44.8798265636094,0.));
#656=CARTESIAN_POINT('',(685.257819259106,39.8798265636092,0.));
#657=CARTESIAN_POINT('',(670.257819259106,24.8798265636119,0.));
#658=CARTESIAN_POINT('',(665.257819259105,24.8798265636117,0.));
#659=CARTESIAN_POINT('',(665.257819259105,49.8798265636119,0.));
#660=CARTESIAN_POINT('',(678.257819259105,62.8798265636123,0.));
#661=CARTESIAN_POINT('',(678.257819259105,136.646846988151,0.));
#662=CARTESIAN_POINT('',(708.556182830463,222.234106045158,0.));
#663=CARTESIAN_POINT('',(767.903539777602,281.581462992297,0.));
#664=CARTESIAN_POINT('',(853.490798834609,311.879826563653,0.));
#665=CARTESIAN_POINT('',(853.490798834609,311.879826563653,2000.));
#666=CARTESIAN_POINT('',(767.903539777602,281.581462992297,2000.));
#667=CARTESIAN_POINT('',(708.556182830463,222.234106045158,2000.));
#668=CARTESIAN_POINT('',(678.257819259105,136.646846988151,2000.));
#669=CARTESIAN_POINT('',(678.257819259105,62.8798265636123,2000.));
#670=CARTESIAN_POINT('',(665.257819259105,49.8798265636119,2000.));
#671=CARTESIAN_POINT('',(665.257819259105,24.8798265636117,2000.));
#672=CARTESIAN_POINT('',(670.257819259106,24.8798265636119,2000.));
#673=CARTESIAN_POINT('',(685.257819259106,39.8798265636092,2000.));
#674=CARTESIAN_POINT('',(685.257819259106,44.8798265636094,2000.));
#675=CARTESIAN_POINT('',(690.257819259106,44.8798265636085,2000.));
#676=CARTESIAN_POINT('',(690.257819259106,99.8798265636342,2000.));
#677=CARTESIAN_POINT('',(890.257819259105,299.879826563632,2000.));
#678=CARTESIAN_POINT('',(929.336484896719,299.879826563575,2000.));
#679=CARTESIAN_POINT('',(945.254399765773,299.879826563572,2000.));
#680=CARTESIAN_POINT('',(945.254399765773,304.879826563572,2000.));
#681=CARTESIAN_POINT('',(950.254399765773,304.87982656357,2000.));
#682=CARTESIAN_POINT('',(965.254258678075,319.879826562906,2000.));
#683=CARTESIAN_POINT('',(965.254258677428,324.879687042453,2000.));
#684=CARTESIAN_POINT('',(940.254399765777,324.879687042458,2000.));
#685=CARTESIAN_POINT('',(928.254539286895,312.879826563578,2000.));
#686=CARTESIAN_POINT('',(927.254399765777,311.879687042458,2000.));
#687=CARTESIAN_POINT('',(928.254539286895,312.879826563578,2000.));
#688=CARTESIAN_POINT('',(940.254399765777,324.879687042458,2000.));
#689=CARTESIAN_POINT('',(936.254446272816,320.879733549498,2000.));
#690=CARTESIAN_POINT('',(932.254492779856,316.879780056538,2000.));
#691=CARTESIAN_POINT('',(928.254539286895,312.879826563578,2000.));
#692=CARTESIAN_POINT('',(965.254258677428,324.879687042453,2000.));
#693=CARTESIAN_POINT('',(956.920972373544,324.879687042455,2000.));
#694=CARTESIAN_POINT('',(948.587686069661,324.879687042456,2000.));
#695=CARTESIAN_POINT('',(940.254399765777,324.879687042458,2000.));
#696=CARTESIAN_POINT('',(965.254258678075,319.879826562906,2000.));
#697=CARTESIAN_POINT('',(965.254258678075,321.546493229573,2000.));
#698=CARTESIAN_POINT('',(965.254258677428,323.213020375786,2000.));
#699=CARTESIAN_POINT('',(965.254258677428,324.879687042453,2000.));
#700=CARTESIAN_POINT('',(965.254399765773,304.87982656357,2000.));
#701=CARTESIAN_POINT('',(945.254399765773,304.879826563572,2000.));
#702=CARTESIAN_POINT('',(946.92106643244,304.879826563571,2000.));
#703=CARTESIAN_POINT('',(948.587733099106,304.879826563571,2000.));
#704=CARTESIAN_POINT('',(950.254399765773,304.87982656357,2000.));
#705=CARTESIAN_POINT('',(945.254399765773,299.879826563572,2000.));
#706=CARTESIAN_POINT('',(945.254399765773,301.546493230239,2000.));
#707=CARTESIAN_POINT('',(945.254399765773,303.213159896905,2000.));
#708=CARTESIAN_POINT('',(945.254399765773,304.879826563572,2000.));
#709=CARTESIAN_POINT('',(929.336484896719,299.879826563575,2000.));
#710=CARTESIAN_POINT('',(934.642456519737,299.879826563574,2000.));
#711=CARTESIAN_POINT('',(939.948428142755,299.879826563573,2000.));
#712=CARTESIAN_POINT('',(945.254399765773,299.879826563572,2000.));
#713=CARTESIAN_POINT('',(890.257819259104,299.879826563632,2000.));
#714=CARTESIAN_POINT('',(903.284041138293,299.87982656363,2000.));
#715=CARTESIAN_POINT('',(916.31026301753,299.879826563578,2000.));
#716=CARTESIAN_POINT('',(929.336484896719,299.879826563575,2000.));
#717=CARTESIAN_POINT('',(890.257819259105,99.8798265636337,2000.));
#718=CARTESIAN_POINT('',(690.257819259106,44.8798265636085,2000.));
#719=CARTESIAN_POINT('',(690.257819259106,63.2131598969504,2000.));
#720=CARTESIAN_POINT('',(690.257819259106,81.5464932302923,2000.));
#721=CARTESIAN_POINT('',(690.257819259106,99.8798265636342,2000.));
#722=CARTESIAN_POINT('',(685.257819259106,44.8798265636094,2000.));
#723=CARTESIAN_POINT('',(686.924485925773,44.8798265636091,2000.));
#724=CARTESIAN_POINT('',(688.591152592439,44.8798265636088,2000.));
#725=CARTESIAN_POINT('',(690.257819259106,44.8798265636085,2000.));
#726=CARTESIAN_POINT('',(685.257819259106,39.8798265636092,2000.));
#727=CARTESIAN_POINT('',(685.257819259106,41.5464932302759,2000.));
#728=CARTESIAN_POINT('',(685.257819259106,43.2131598969427,2000.));
#729=CARTESIAN_POINT('',(685.257819259106,44.8798265636094,2000.));
#730=CARTESIAN_POINT('',(670.257819259106,24.8798265636119,2000.));
#731=CARTESIAN_POINT('',(670.257819259106,25.236863649437,2000.));
#732=CARTESIAN_POINT('',(670.270566805877,25.5937869153498,2000.));
#733=CARTESIAN_POINT('',(670.296037539952,25.9499143116002,2000.));
#734=CARTESIAN_POINT('',(670.321508274027,26.3060417078507,2000.));
#735=CARTESIAN_POINT('',(670.359685955765,26.6611461746146,2000.));
#736=CARTESIAN_POINT('',(670.410497630892,27.0145491377109,2000.));
#737=CARTESIAN_POINT('',(670.461309306019,27.3679521008072,2000.));
#738=CARTESIAN_POINT('',(670.524722578009,27.7194282374567,2000.));
#739=CARTESIAN_POINT('',(670.600616269539,28.0683059069061,2000.));
#740=CARTESIAN_POINT('',(670.676509961068,28.4171835763555,2000.));
#741=CARTESIAN_POINT('',(670.764835683812,28.7632403410638,2000.));
#742=CARTESIAN_POINT('',(670.865424654889,29.1058149162327,2000.));
#743=CARTESIAN_POINT('',(670.966013625966,29.4483894914016,2000.));
#744=CARTESIAN_POINT('',(671.078801711826,29.7872634582191,2000.));
#745=CARTESIAN_POINT('',(671.20357338411,30.1217892575976,2000.));
#746=CARTESIAN_POINT('',(671.328345056394,30.4563150569761,2000.));
#747=CARTESIAN_POINT('',(671.465020763138,30.7862794018446,2000.));
#748=CARTESIAN_POINT('',(671.613339328789,31.1110517586392,2000.));
#749=CARTESIAN_POINT('',(671.761657894439,31.4358241154338,2000.));
#750=CARTESIAN_POINT('',(671.921524753995,31.7551974156866,2000.));
#751=CARTESIAN_POINT('',(672.092634415598,32.0685613644116,2000.));
#752=CARTESIAN_POINT('',(672.263744077201,32.3819253131365,2000.));
#753=CARTESIAN_POINT('',(672.445987444696,32.6890801156424,2000.));
#754=CARTESIAN_POINT('',(672.639016266639,32.9894388254445,2000.));
#755=CARTESIAN_POINT('',(672.832045088581,33.2897975352466,2000.));
#756=CARTESIAN_POINT('',(673.03573629359,33.5831686495382,2000.));
#757=CARTESIAN_POINT('',(673.249700645241,33.8689915612806,2000.));
#758=CARTESIAN_POINT('',(673.463664996892,34.1548144730229,2000.));
#759=CARTESIAN_POINT('',(673.687766075724,34.4329069471485,2000.));
#760=CARTESIAN_POINT('',(673.921575643793,34.7027375727895,2000.));
#761=CARTESIAN_POINT('',(674.155385211862,34.9725681984304,2000.));
#762=CARTESIAN_POINT('',(674.398754196786,35.2339649368863,2000.));
#763=CARTESIAN_POINT('',(674.651217541308,35.4864282814082,2000.));
#764=CARTESIAN_POINT('',(674.90368088583,35.7388916259302,2000.));
#765=CARTESIAN_POINT('',(675.165077624286,35.9822606108547,2000.));
#766=CARTESIAN_POINT('',(675.434908249927,36.2160701789237,2000.));
#767=CARTESIAN_POINT('',(675.704738875568,36.4498797469928,2000.));
#768=CARTESIAN_POINT('',(675.982831349694,36.6739808258239,2000.));
#769=CARTESIAN_POINT('',(676.268654261436,36.8879451774751,2000.));
#770=CARTESIAN_POINT('',(676.554477173179,37.1019095291264,2000.));
#771=CARTESIAN_POINT('',(676.84784828747,37.3056007341349,2000.));
#772=CARTESIAN_POINT('',(677.148206997273,37.4986295560773,2000.));
#773=CARTESIAN_POINT('',(677.448565707075,37.6916583780197,2000.));
#774=CARTESIAN_POINT('',(677.755720509581,37.8739017455152,2000.));
#775=CARTESIAN_POINT('',(678.069084458306,38.0450114071183,2000.));
#776=CARTESIAN_POINT('',(678.38244840703,38.2161210687214,2000.));
#777=CARTESIAN_POINT('',(678.701821707283,38.375987928277,2000.));
#778=CARTESIAN_POINT('',(679.026594064078,38.5243064939272,2000.));
#779=CARTESIAN_POINT('',(679.351366420873,38.6726250595773,2000.));
#780=CARTESIAN_POINT('',(679.681330765741,38.8093007663214,2000.));
#781=CARTESIAN_POINT('',(680.01585656512,38.9340724386057,2000.));
#782=CARTESIAN_POINT('',(680.350382364498,39.05884411089,2000.));
#783=CARTESIAN_POINT('',(680.689256331316,39.17163219675,2000.));
#784=CARTESIAN_POINT('',(681.031830906485,39.2722211678267,2000.));
#785=CARTESIAN_POINT('',(681.374405481654,39.3728101389034,2000.));
#786=CARTESIAN_POINT('',(681.720462246362,39.461135861647,2000.));
#787=CARTESIAN_POINT('',(682.069339915811,39.5370295531766,2000.));
#788=CARTESIAN_POINT('',(682.418217585261,39.6129232447061,2000.));
#789=CARTESIAN_POINT('',(682.76969372191,39.6763365166964,2000.));
#790=CARTESIAN_POINT('',(683.123096685007,39.7271481918232,2000.));
#791=CARTESIAN_POINT('',(683.476499648103,39.7779598669499,2000.));
#792=CARTESIAN_POINT('',(683.831604114867,39.8161375486884,2000.));
#793=CARTESIAN_POINT('',(684.187731511117,39.841608282763,2000.));
#794=CARTESIAN_POINT('',(684.543858907368,39.8670790168376,2000.));
#795=CARTESIAN_POINT('',(684.900782173281,39.8798265636092,2000.));
#796=CARTESIAN_POINT('',(685.257819259106,39.8798265636092,2000.));
#797=CARTESIAN_POINT('',(665.257819259105,24.8798265636117,2000.));
#798=CARTESIAN_POINT('',(666.924485925772,24.8798265636118,2000.));
#799=CARTESIAN_POINT('',(668.591152592439,24.8798265636119,2000.));
#800=CARTESIAN_POINT('',(670.257819259106,24.8798265636119,2000.));
#801=CARTESIAN_POINT('',(665.257819259105,49.8798265636119,2000.));
#802=CARTESIAN_POINT('',(665.257819259105,41.5464932302785,2000.));
#803=CARTESIAN_POINT('',(665.257819259105,33.2131598969451,2000.));
#804=CARTESIAN_POINT('',(665.257819259105,24.8798265636117,2000.));
#805=CARTESIAN_POINT('',(678.257819259105,62.8798265636123,2000.));
#806=CARTESIAN_POINT('',(678.257819259105,136.646846988151,2000.));
#807=CARTESIAN_POINT('',(708.556182830463,222.234106045158,2000.));
#808=CARTESIAN_POINT('',(767.903539777602,281.581462992297,2000.));
#809=CARTESIAN_POINT('',(853.490798834609,311.879826563653,2000.));
#810=CARTESIAN_POINT('',(927.254399765777,311.879687042458,2000.));
#811=CARTESIAN_POINT('',(928.254539286895,312.879826563578,0.));
#812=CARTESIAN_POINT('',(940.254399765777,324.879687042458,0.));
#813=CARTESIAN_POINT('',(936.254446272816,320.879733549498,0.));
#814=CARTESIAN_POINT('',(932.254492779856,316.879780056538,0.));
#815=CARTESIAN_POINT('',(928.254539286895,312.879826563578,0.));
#816=CARTESIAN_POINT('',(965.254258677428,324.879687042453,0.));
#817=CARTESIAN_POINT('',(956.920972373544,324.879687042455,0.));
#818=CARTESIAN_POINT('',(948.587686069661,324.879687042456,0.));
#819=CARTESIAN_POINT('',(940.254399765777,324.879687042458,0.));
#820=CARTESIAN_POINT('',(965.254258678075,319.879826562906,0.));
#821=CARTESIAN_POINT('',(965.254258678075,321.546493229573,0.));
#822=CARTESIAN_POINT('',(965.254258677428,323.213020375786,0.));
#823=CARTESIAN_POINT('',(965.254258677428,324.879687042453,0.));
#824=CARTESIAN_POINT('',(965.254399765773,304.87982656357,0.));
#825=CARTESIAN_POINT('',(945.254399765773,304.879826563572,0.));
#826=CARTESIAN_POINT('',(946.92106643244,304.879826563571,0.));
#827=CARTESIAN_POINT('',(948.587733099106,304.879826563571,0.));
#828=CARTESIAN_POINT('',(950.254399765773,304.87982656357,0.));
#829=CARTESIAN_POINT('',(945.254399765773,299.879826563572,0.));
#830=CARTESIAN_POINT('',(945.254399765773,301.546493230239,0.));
#831=CARTESIAN_POINT('',(945.254399765773,303.213159896905,0.));
#832=CARTESIAN_POINT('',(945.254399765773,304.879826563572,0.));
#833=CARTESIAN_POINT('',(929.336484896719,299.879826563575,0.));
#834=CARTESIAN_POINT('',(934.642456519737,299.879826563574,0.));
#835=CARTESIAN_POINT('',(939.948428142755,299.879826563573,0.));
#836=CARTESIAN_POINT('',(945.254399765773,299.879826563572,0.));
#837=CARTESIAN_POINT('',(890.257819259104,299.879826563632,0.));
#838=CARTESIAN_POINT('',(903.284041138293,299.87982656363,0.));
#839=CARTESIAN_POINT('',(916.31026301753,299.879826563578,0.));
#840=CARTESIAN_POINT('',(929.336484896719,299.879826563575,0.));
#841=CARTESIAN_POINT('',(890.257819259105,99.8798265636337,0.));
#842=CARTESIAN_POINT('',(690.257819259106,44.8798265636085,0.));
#843=CARTESIAN_POINT('',(690.257819259106,63.2131598969504,0.));
#844=CARTESIAN_POINT('',(690.257819259106,81.5464932302923,0.));
#845=CARTESIAN_POINT('',(690.257819259106,99.8798265636342,0.));
#846=CARTESIAN_POINT('',(685.257819259106,44.8798265636094,0.));
#847=CARTESIAN_POINT('',(686.924485925773,44.8798265636091,0.));
#848=CARTESIAN_POINT('',(688.591152592439,44.8798265636088,0.));
#849=CARTESIAN_POINT('',(690.257819259106,44.8798265636085,0.));
#850=CARTESIAN_POINT('',(685.257819259106,39.8798265636092,0.));
#851=CARTESIAN_POINT('',(685.257819259106,41.5464932302759,0.));
#852=CARTESIAN_POINT('',(685.257819259106,43.2131598969427,0.));
#853=CARTESIAN_POINT('',(685.257819259106,44.8798265636094,0.));
#854=CARTESIAN_POINT('',(670.257819259106,24.8798265636119,0.));
#855=CARTESIAN_POINT('',(670.257819259106,25.236863649437,0.));
#856=CARTESIAN_POINT('',(670.270566805877,25.5937869153498,0.));
#857=CARTESIAN_POINT('',(670.296037539952,25.9499143116002,0.));
#858=CARTESIAN_POINT('',(670.321508274027,26.3060417078507,0.));
#859=CARTESIAN_POINT('',(670.359685955765,26.6611461746146,0.));
#860=CARTESIAN_POINT('',(670.410497630892,27.0145491377109,0.));
#861=CARTESIAN_POINT('',(670.461309306019,27.3679521008072,0.));
#862=CARTESIAN_POINT('',(670.524722578009,27.7194282374567,0.));
#863=CARTESIAN_POINT('',(670.600616269539,28.0683059069061,0.));
#864=CARTESIAN_POINT('',(670.676509961068,28.4171835763555,0.));
#865=CARTESIAN_POINT('',(670.764835683812,28.7632403410638,0.));
#866=CARTESIAN_POINT('',(670.865424654889,29.1058149162327,0.));
#867=CARTESIAN_POINT('',(670.966013625966,29.4483894914016,0.));
#868=CARTESIAN_POINT('',(671.078801711826,29.7872634582191,0.));
#869=CARTESIAN_POINT('',(671.20357338411,30.1217892575976,0.));
#870=CARTESIAN_POINT('',(671.328345056394,30.4563150569761,0.));
#871=CARTESIAN_POINT('',(671.465020763138,30.7862794018446,0.));
#872=CARTESIAN_POINT('',(671.613339328789,31.1110517586392,0.));
#873=CARTESIAN_POINT('',(671.761657894439,31.4358241154338,0.));
#874=CARTESIAN_POINT('',(671.921524753995,31.7551974156866,0.));
#875=CARTESIAN_POINT('',(672.092634415598,32.0685613644116,0.));
#876=CARTESIAN_POINT('',(672.263744077201,32.3819253131365,0.));
#877=CARTESIAN_POINT('',(672.445987444696,32.6890801156424,0.));
#878=CARTESIAN_POINT('',(672.639016266639,32.9894388254445,0.));
#879=CARTESIAN_POINT('',(672.832045088581,33.2897975352466,0.));
#880=CARTESIAN_POINT('',(673.03573629359,33.5831686495382,0.));
#881=CARTESIAN_POINT('',(673.249700645241,33.8689915612806,0.));
#882=CARTESIAN_POINT('',(673.463664996892,34.1548144730229,0.));
#883=CARTESIAN_POINT('',(673.687766075724,34.4329069471485,0.));
#884=CARTESIAN_POINT('',(673.921575643793,34.7027375727895,0.));
#885=CARTESIAN_POINT('',(674.155385211862,34.9725681984304,0.));
#886=CARTESIAN_POINT('',(674.398754196786,35.2339649368863,0.));
#887=CARTESIAN_POINT('',(674.651217541308,35.4864282814082,0.));
#888=CARTESIAN_POINT('',(674.90368088583,35.7388916259302,0.));
#889=CARTESIAN_POINT('',(675.165077624286,35.9822606108547,0.));
#890=CARTESIAN_POINT('',(675.434908249927,36.2160701789237,0.));
#891=CARTESIAN_POINT('',(675.704738875568,36.4498797469928,0.));
#892=CARTESIAN_POINT('',(675.982831349694,36.6739808258239,0.));
#893=CARTESIAN_POINT('',(676.268654261436,36.8879451774751,0.));
#894=CARTESIAN_POINT('',(676.554477173179,37.1019095291264,0.));
#895=CARTESIAN_POINT('',(676.84784828747,37.3056007341349,0.));
#896=CARTESIAN_POINT('',(677.148206997273,37.4986295560773,0.));
#897=CARTESIAN_POINT('',(677.448565707075,37.6916583780197,0.));
#898=CARTESIAN_POINT('',(677.755720509581,37.8739017455152,0.));
#899=CARTESIAN_POINT('',(678.069084458306,38.0450114071183,0.));
#900=CARTESIAN_POINT('',(678.38244840703,38.2161210687214,0.));
#901=CARTESIAN_POINT('',(678.701821707283,38.375987928277,0.));
#902=CARTESIAN_POINT('',(679.026594064078,38.5243064939272,0.));
#903=CARTESIAN_POINT('',(679.351366420873,38.6726250595773,0.));
#904=CARTESIAN_POINT('',(679.681330765741,38.8093007663214,0.));
#905=CARTESIAN_POINT('',(680.01585656512,38.9340724386057,0.));
#906=CARTESIAN_POINT('',(680.350382364498,39.05884411089,0.));
#907=CARTESIAN_POINT('',(680.689256331316,39.17163219675,0.));
#908=CARTESIAN_POINT('',(681.031830906485,39.2722211678267,0.));
#909=CARTESIAN_POINT('',(681.374405481654,39.3728101389034,0.));
#910=CARTESIAN_POINT('',(681.720462246362,39.461135861647,0.));
#911=CARTESIAN_POINT('',(682.069339915811,39.5370295531766,0.));
#912=CARTESIAN_POINT('',(682.418217585261,39.6129232447061,0.));
#913=CARTESIAN_POINT('',(682.76969372191,39.6763365166964,0.));
#914=CARTESIAN_POINT('',(683.123096685007,39.7271481918232,0.));
#915=CARTESIAN_POINT('',(683.476499648103,39.7779598669499,0.));
#916=CARTESIAN_POINT('',(683.831604114867,39.8161375486884,0.));
#917=CARTESIAN_POINT('',(684.187731511117,39.841608282763,0.));
#918=CARTESIAN_POINT('',(684.543858907368,39.8670790168376,0.));
#919=CARTESIAN_POINT('',(684.900782173281,39.8798265636092,0.));
#920=CARTESIAN_POINT('',(685.257819259106,39.8798265636092,0.));
#921=CARTESIAN_POINT('',(665.257819259105,24.8798265636117,0.));
#922=CARTESIAN_POINT('',(666.924485925772,24.8798265636118,0.));
#923=CARTESIAN_POINT('',(668.591152592439,24.8798265636119,0.));
#924=CARTESIAN_POINT('',(670.257819259106,24.8798265636119,0.));
#925=CARTESIAN_POINT('',(665.257819259105,49.8798265636119,0.));
#926=CARTESIAN_POINT('',(665.257819259105,41.5464932302785,0.));
#927=CARTESIAN_POINT('',(665.257819259105,33.2131598969451,0.));
#928=CARTESIAN_POINT('',(665.257819259105,24.8798265636117,0.));
#929=CARTESIAN_POINT('',(678.257819259105,62.8798265636123,0.));
#930=CARTESIAN_POINT('',(678.257819259105,136.646846988151,0.));
#931=CARTESIAN_POINT('',(708.556182830463,222.234106045158,0.));
#932=CARTESIAN_POINT('',(767.903539777602,281.581462992297,0.));
#933=CARTESIAN_POINT('',(853.490798834609,311.879826563653,0.));
#934=CARTESIAN_POINT('',(927.254399765777,311.879687042458,0.));
#935=CARTESIAN_POINT('',(927.254399765777,311.879687042458,2000.));
#936=CARTESIAN_POINT('',(853.490798834609,311.879826563653,2000.));
#937=CARTESIAN_POINT('',(767.903539777602,281.581462992297,2000.));
#938=CARTESIAN_POINT('',(708.556182830463,222.234106045158,2000.));
#939=CARTESIAN_POINT('',(678.257819259105,136.646846988151,2000.));
#940=CARTESIAN_POINT('',(678.257819259105,62.8798265636123,2000.));
#941=CARTESIAN_POINT('',(665.257819259105,49.8798265636119,2000.));
#942=CARTESIAN_POINT('',(665.257819259105,24.8798265636117,2000.));
#943=CARTESIAN_POINT('',(670.257819259106,24.8798265636119,2000.));
#944=CARTESIAN_POINT('',(670.257819259106,25.236863649437,2000.));
#945=CARTESIAN_POINT('',(670.270566805877,25.5937869153498,2000.));
#946=CARTESIAN_POINT('',(670.296037539952,25.9499143116002,2000.));
#947=CARTESIAN_POINT('',(670.321508274027,26.3060417078507,2000.));
#948=CARTESIAN_POINT('',(670.359685955765,26.6611461746146,2000.));
#949=CARTESIAN_POINT('',(670.410497630892,27.0145491377109,2000.));
#950=CARTESIAN_POINT('',(670.461309306019,27.3679521008072,2000.));
#951=CARTESIAN_POINT('',(670.524722578009,27.7194282374567,2000.));
#952=CARTESIAN_POINT('',(670.600616269539,28.0683059069061,2000.));
#953=CARTESIAN_POINT('',(670.676509961068,28.4171835763555,2000.));
#954=CARTESIAN_POINT('',(670.764835683812,28.7632403410638,2000.));
#955=CARTESIAN_POINT('',(670.865424654889,29.1058149162327,2000.));
#956=CARTESIAN_POINT('',(670.966013625966,29.4483894914016,2000.));
#957=CARTESIAN_POINT('',(671.078801711826,29.7872634582191,2000.));
#958=CARTESIAN_POINT('',(671.20357338411,30.1217892575976,2000.));
#959=CARTESIAN_POINT('',(671.328345056394,30.4563150569761,2000.));
#960=CARTESIAN_POINT('',(671.465020763138,30.7862794018446,2000.));
#961=CARTESIAN_POINT('',(671.613339328789,31.1110517586392,2000.));
#962=CARTESIAN_POINT('',(671.761657894439,31.4358241154338,2000.));
#963=CARTESIAN_POINT('',(671.921524753995,31.7551974156866,2000.));
#964=CARTESIAN_POINT('',(672.092634415598,32.0685613644116,2000.));
#965=CARTESIAN_POINT('',(672.263744077201,32.3819253131365,2000.));
#966=CARTESIAN_POINT('',(672.445987444696,32.6890801156424,2000.));
#967=CARTESIAN_POINT('',(672.639016266639,32.9894388254445,2000.));
#968=CARTESIAN_POINT('',(672.832045088581,33.2897975352466,2000.));
#969=CARTESIAN_POINT('',(673.03573629359,33.5831686495382,2000.));
#970=CARTESIAN_POINT('',(673.249700645241,33.8689915612806,2000.));
#971=CARTESIAN_POINT('',(673.463664996892,34.1548144730229,2000.));
#972=CARTESIAN_POINT('',(673.687766075724,34.4329069471485,2000.));
#973=CARTESIAN_POINT('',(673.921575643793,34.7027375727895,2000.));
#974=CARTESIAN_POINT('',(674.155385211862,34.9725681984304,2000.));
#975=CARTESIAN_POINT('',(674.398754196786,35.2339649368863,2000.));
#976=CARTESIAN_POINT('',(674.651217541308,35.4864282814082,2000.));
#977=CARTESIAN_POINT('',(674.90368088583,35.7388916259302,2000.));
#978=CARTESIAN_POINT('',(675.165077624286,35.9822606108547,2000.));
#979=CARTESIAN_POINT('',(675.434908249927,36.2160701789237,2000.));
#980=CARTESIAN_POINT('',(675.704738875568,36.4498797469928,2000.));
#981=CARTESIAN_POINT('',(675.982831349694,36.6739808258239,2000.));
#982=CARTESIAN_POINT('',(676.268654261436,36.8879451774751,2000.));
#983=CARTESIAN_POINT('',(676.554477173179,37.1019095291264,2000.));
#984=CARTESIAN_POINT('',(676.84784828747,37.3056007341349,2000.));
#985=CARTESIAN_POINT('',(677.148206997273,37.4986295560773,2000.));
#986=CARTESIAN_POINT('',(677.448565707075,37.6916583780197,2000.));
#987=CARTESIAN_POINT('',(677.755720509581,37.8739017455152,2000.));
#988=CARTESIAN_POINT('',(678.069084458306,38.0450114071183,2000.));
#989=CARTESIAN_POINT('',(678.38244840703,38.2161210687214,2000.));
#990=CARTESIAN_POINT('',(678.701821707283,38.375987928277,2000.));
#991=CARTESIAN_POINT('',(679.026594064078,38.5243064939272,2000.));
#992=CARTESIAN_POINT('',(679.351366420873,38.6726250595773,2000.));
#993=CARTESIAN_POINT('',(679.681330765741,38.8093007663214,2000.));
#994=CARTESIAN_POINT('',(680.01585656512,38.9340724386057,2000.));
#995=CARTESIAN_POINT('',(680.350382364498,39.05884411089,2000.));
#996=CARTESIAN_POINT('',(680.689256331316,39.17163219675,2000.));
#997=CARTESIAN_POINT('',(681.031830906485,39.2722211678267,2000.));
#998=CARTESIAN_POINT('',(681.374405481654,39.3728101389034,2000.));
#999=CARTESIAN_POINT('',(681.720462246362,39.461135861647,2000.));
#1000=CARTESIAN_POINT('',(682.069339915811,39.5370295531766,2000.));
#1001=CARTESIAN_POINT('',(682.418217585261,39.6129232447061,2000.));
#1002=CARTESIAN_POINT('',(682.76969372191,39.6763365166964,2000.));
#1003=CARTESIAN_POINT('',(683.123096685007,39.7271481918232,2000.));
#1004=CARTESIAN_POINT('',(683.476499648103,39.7779598669499,2000.));
#1005=CARTESIAN_POINT('',(683.831604114867,39.8161375486884,2000.));
#1006=CARTESIAN_POINT('',(684.187731511117,39.841608282763,2000.));
#1007=CARTESIAN_POINT('',(684.543858907368,39.8670790168376,2000.));
#1008=CARTESIAN_POINT('',(684.900782173281,39.8798265636092,2000.));
#1009=CARTESIAN_POINT('',(685.257819259106,39.8798265636092,2000.));
#1010=CARTESIAN_POINT('',(685.257819259106,39.8798265636092,2000.));
#1011=CARTESIAN_POINT('',(685.257819259106,44.8798265636094,2000.));
#1012=CARTESIAN_POINT('',(690.257819259106,44.8798265636085,2000.));
#1013=CARTESIAN_POINT('',(890.257819259105,99.8798265636337,2000.));
#1014=CARTESIAN_POINT('',(890.257819259104,299.879826563632,2000.));
#1015=CARTESIAN_POINT('',(929.336484896719,299.879826563575,2000.));
#1016=CARTESIAN_POINT('',(945.254399765773,299.879826563572,2000.));
#1017=CARTESIAN_POINT('',(945.254399765773,304.879826563572,2000.));
#1018=CARTESIAN_POINT('',(965.254399765773,304.87982656357,2000.));
#1019=CARTESIAN_POINT('',(965.254258678075,319.879826562906,2000.));
#1020=CARTESIAN_POINT('',(965.254258677428,324.879687042453,2000.));
#1021=CARTESIAN_POINT('',(940.254399765777,324.879687042458,2000.));
#1022=CARTESIAN_POINT('',(928.254539286895,312.879826563578,2000.));
#1023=CARTESIAN_POINT('',(674.651217541308,35.4864282814082,2000.));
#1024=CARTESIAN_POINT('',(674.651217541308,35.4864282814082,0.));
#1025=PRODUCT_DEFINITION_SHAPE('','',#1026);
#1026=PRODUCT_DEFINITION('','',#1038,#1043);
#1027=(
GEOMETRIC_REPRESENTATION_CONTEXT(3)
GLOBAL_UNCERTAINTY_ASSIGNED_CONTEXT((#1028))
GLOBAL_UNIT_ASSIGNED_CONTEXT((#1030,#1029,#1033))
REPRESENTATION_CONTEXT('','')
);
#1028=UNCERTAINTY_MEASURE_WITH_UNIT(LENGTH_MEASURE(0.001),#1030,'','tolerance'
);
#1029=(
CONVERSION_BASED_UNIT('',#1031)
NAMED_UNIT(#1037)
PLANE_ANGLE_UNIT()
);
#1030=(
CONVERSION_BASED_UNIT('',#1032)
LENGTH_UNIT()
NAMED_UNIT(#1036)
);
#1031=PLANE_ANGLE_MEASURE_WITH_UNIT(PLANE_ANGLE_MEASURE(0.0174532925199433),
#1034);
#1032=LENGTH_MEASURE_WITH_UNIT(LENGTH_MEASURE(1.),#1035);
#1033=(
NAMED_UNIT(*)
SI_UNIT($,.STERADIAN.)
SOLID_ANGLE_UNIT()
);
#1034=(
NAMED_UNIT(*)
PLANE_ANGLE_UNIT()
SI_UNIT($,.RADIAN.)
);
#1035=(
LENGTH_UNIT()
NAMED_UNIT(*)
SI_UNIT(.MILLI.,.METRE.)
);
#1036=DIMENSIONAL_EXPONENTS(1.,0.,0.,0.,0.,0.,0.);
#1037=DIMENSIONAL_EXPONENTS(0.,0.,0.,0.,0.,0.,0.);
#1038=PRODUCT_DEFINITION_FORMATION_WITH_SPECIFIED_SOURCE('','',#1041,
.NOT_KNOWN.);
#1039=PRODUCT_CATEGORY_RELATIONSHIP('','',#1044,#1040);
#1040=PRODUCT_RELATED_PRODUCT_CATEGORY('assembly','',(#1041));
#1041=PRODUCT('','master','',(#1042));
#1042=PRODUCT_CONTEXT('',#1046,'');
#1043=PRODUCT_DEFINITION_CONTEXT('',#1046,'part_definition');
#1044=PRODUCT_CATEGORY('part','');
#1045=APPLICATION_PROTOCOL_DEFINITION('international standard',
'automotive_design_cc2',1994,#1046);
#1046=APPLICATION_CONTEXT(
'configuration controlled 3D designs of mechanical parts and assemblies');
ENDSEC;
END-ISO-10303-21;
56197