ISO-10303-21;
HEADER;
/* Generated by software using Delcam plc STEP library */

FILE_DESCRIPTION(
/* description */ ('AP-214 File'),
/* implementation_level */ '2;1');

FILE_NAME(
/* name */ 'D650',
/* time_stamp */ 'Wed Oct 04 08:28:51 2017',
/* author */ (''),
/* organization */ (''),
/* preprocessor_version */ 'DELCAM STEP V1',
/* originating_system */ 'Exchange7.1.0006',
/* authorisation */ '');

FILE_SCHEMA (('AUTOMOTIVE_DESIGN'));
ENDSEC;
DATA;
#10=PRESENTATION_STYLE_ASSIGNMENT((#20));
#11=PRESENTATION_STYLE_ASSIGNMENT((#21));
#12=SURFACE_SIDE_STYLE('',(#14));
#13=SURFACE_SIDE_STYLE('',(#15));
#14=SURFACE_STYLE_FILL_AREA(#16);
#15=SURFACE_STYLE_FILL_AREA(#17);
#16=FILL_AREA_STYLE('',(#18));
#17=FILL_AREA_STYLE('',(#19));
#18=FILL_AREA_STYLE_COLOUR('',#50);
#19=FILL_AREA_STYLE_COLOUR('',#51);
#20=SURFACE_STYLE_USAGE(.BOTH.,#12);
#21=SURFACE_STYLE_USAGE(.BOTH.,#13);
#22=STYLED_ITEM('',(#10),#68);
#23=STYLED_ITEM('',(#10),#69);
#24=STYLED_ITEM('',(#10),#70);
#25=STYLED_ITEM('',(#10),#71);
#26=STYLED_ITEM('',(#10),#72);
#27=STYLED_ITEM('',(#10),#73);
#28=STYLED_ITEM('',(#10),#74);
#29=STYLED_ITEM('',(#10),#75);
#30=STYLED_ITEM('',(#10),#76);
#31=STYLED_ITEM('',(#10),#77);
#32=STYLED_ITEM('',(#10),#78);
#33=STYLED_ITEM('',(#10),#79);
#34=STYLED_ITEM('',(#10),#80);
#35=STYLED_ITEM('',(#10),#81);
#36=STYLED_ITEM('',(#10),#82);
#37=STYLED_ITEM('',(#10),#83);
#38=STYLED_ITEM('',(#10),#84);
#39=STYLED_ITEM('',(#10),#85);
#40=STYLED_ITEM('',(#10),#86);
#41=STYLED_ITEM('',(#10),#87);
#42=STYLED_ITEM('',(#10),#88);
#43=STYLED_ITEM('',(#10),#89);
#44=STYLED_ITEM('',(#10),#90);
#45=STYLED_ITEM('',(#10),#91);
#46=STYLED_ITEM('',(#10),#92);
#47=STYLED_ITEM('',(#10),#93);
#48=STYLED_ITEM('',(#10),#94);
#49=STYLED_ITEM('',(#11),#57);
#50=COLOUR_RGB('',0.,0.,0.);
#51=COLOUR_RGB('rgb_colour_1',0.4,0.4,0.4);
#52=MECHANICAL_DESIGN_GEOMETRIC_PRESENTATION_REPRESENTATION('',(#22,#23,#24,
#25,#26,#27,#28,#29,#30,#31,#32,#33,#34,#35,#36,#37,#38,#39,#40,#41,#42,#43,
#44,#45,#46,#47,#48,#49),#927);
#53=PRESENTATION_LAYER_ASSIGNMENT('138','D650',(#68,#69,#70,#71,#72,#73,#74,
#75,#76,#77,#78,#79,#80,#81,#82,#83,#84,#85,#86,#87,#88,#89,#90,#91,#92,#93,
#94,#57));
#54=SHAPE_REPRESENTATION_RELATIONSHIP('','',#572,#55);
#55=ADVANCED_BREP_SHAPE_REPRESENTATION('',(#56),#927);
#56=MANIFOLD_SOLID_BREP('D650_1',#57);
#57=CLOSED_SHELL('',(#68,#69,#70,#71,#72,#73,#74,#75,#76,#77,#78,#79,#80,#81,
#82,#83,#84,#85,#86,#87,#88,#89,#90,#91,#92,#93,#94));
#58=CYLINDRICAL_SURFACE('',#602,6.24395404982331);
#59=CYLINDRICAL_SURFACE('',#606,11.0989427987426);
#60=CYLINDRICAL_SURFACE('',#609,15.7455343596869);
#61=CYLINDRICAL_SURFACE('',#610,67.0846960333476);
#62=CYLINDRICAL_SURFACE('',#611,157.014272118606);
#63=CYLINDRICAL_SURFACE('',#612,815.890306689779);
#64=CYLINDRICAL_SURFACE('',#613,11.0867897062626);
#65=CYLINDRICAL_SURFACE('',#614,16.8575863278166);
#66=CYLINDRICAL_SURFACE('',#615,17.3718976229438);
#67=CYLINDRICAL_SURFACE('',#616,26.3690894037722);
#68=ADVANCED_FACE('',(#95),#299,.F.);
#69=ADVANCED_FACE('',(#96),#300,.F.);
#70=ADVANCED_FACE('',(#97),#301,.F.);
#71=ADVANCED_FACE('',(#98),#302,.F.);
#72=ADVANCED_FACE('',(#99),#303,.F.);
#73=ADVANCED_FACE('',(#100),#304,.F.);
#74=ADVANCED_FACE('',(#101),#305,.F.);
#75=ADVANCED_FACE('',(#102),#306,.F.);
#76=ADVANCED_FACE('',(#103),#58,.F.);
#77=ADVANCED_FACE('',(#104),#307,.F.);
#78=ADVANCED_FACE('',(#105),#308,.F.);
#79=ADVANCED_FACE('',(#106),#309,.F.);
#80=ADVANCED_FACE('',(#107),#59,.T.);
#81=ADVANCED_FACE('',(#108),#310,.F.);
#82=ADVANCED_FACE('',(#109),#311,.F.);
#83=ADVANCED_FACE('',(#110),#60,.F.);
#84=ADVANCED_FACE('',(#111),#61,.F.);
#85=ADVANCED_FACE('',(#112),#62,.F.);
#86=ADVANCED_FACE('',(#113),#63,.F.);
#87=ADVANCED_FACE('',(#114),#64,.T.);
#88=ADVANCED_FACE('',(#115),#65,.T.);
#89=ADVANCED_FACE('',(#116),#66,.F.);
#90=ADVANCED_FACE('',(#117),#67,.F.);
#91=ADVANCED_FACE('',(#118),#312,.F.);
#92=ADVANCED_FACE('',(#119),#313,.F.);
#93=ADVANCED_FACE('',(#120),#314,.F.);
#94=ADVANCED_FACE('',(#121),#315,.T.);
#95=FACE_OUTER_BOUND('',#122,.T.);
#96=FACE_OUTER_BOUND('',#123,.T.);
#97=FACE_OUTER_BOUND('',#124,.T.);
#98=FACE_OUTER_BOUND('',#125,.T.);
#99=FACE_OUTER_BOUND('',#126,.T.);
#100=FACE_OUTER_BOUND('',#127,.T.);
#101=FACE_OUTER_BOUND('',#128,.T.);
#102=FACE_OUTER_BOUND('',#129,.T.);
#103=FACE_OUTER_BOUND('',#130,.T.);
#104=FACE_OUTER_BOUND('',#131,.T.);
#105=FACE_OUTER_BOUND('',#132,.T.);
#106=FACE_OUTER_BOUND('',#133,.T.);
#107=FACE_OUTER_BOUND('',#134,.T.);
#108=FACE_OUTER_BOUND('',#135,.T.);
#109=FACE_OUTER_BOUND('',#136,.T.);
#110=FACE_OUTER_BOUND('',#137,.T.);
#111=FACE_OUTER_BOUND('',#138,.T.);
#112=FACE_OUTER_BOUND('',#139,.T.);
#113=FACE_OUTER_BOUND('',#140,.T.);
#114=FACE_OUTER_BOUND('',#141,.T.);
#115=FACE_OUTER_BOUND('',#142,.T.);
#116=FACE_OUTER_BOUND('',#143,.T.);
#117=FACE_OUTER_BOUND('',#144,.T.);
#118=FACE_OUTER_BOUND('',#145,.T.);
#119=FACE_OUTER_BOUND('',#146,.T.);
#120=FACE_OUTER_BOUND('',#147,.T.);
#121=FACE_OUTER_BOUND('',#148,.T.);
#122=EDGE_LOOP('',(#149,#150,#151,#152));
#123=EDGE_LOOP('',(#153,#154,#155,#156));
#124=EDGE_LOOP('',(#157,#158,#159,#160));
#125=EDGE_LOOP('',(#161,#162,#163,#164));
#126=EDGE_LOOP('',(#165,#166,#167,#168));
#127=EDGE_LOOP('',(#169,#170,#171,#172));
#128=EDGE_LOOP('',(#173,#174,#175,#176));
#129=EDGE_LOOP('',(#177,#178,#179,#180));
#130=EDGE_LOOP('',(#181,#182,#183,#184));
#131=EDGE_LOOP('',(#185,#186,#187,#188));
#132=EDGE_LOOP('',(#189,#190,#191,#192));
#133=EDGE_LOOP('',(#193,#194,#195,#196));
#134=EDGE_LOOP('',(#197,#198,#199,#200));
#135=EDGE_LOOP('',(#201,#202,#203,#204));
#136=EDGE_LOOP('',(#205,#206,#207,#208));
#137=EDGE_LOOP('',(#209,#210,#211,#212));
#138=EDGE_LOOP('',(#213,#214,#215,#216));
#139=EDGE_LOOP('',(#217,#218,#219,#220));
#140=EDGE_LOOP('',(#221,#222,#223,#224));
#141=EDGE_LOOP('',(#225,#226,#227,#228));
#142=EDGE_LOOP('',(#229,#230,#231,#232));
#143=EDGE_LOOP('',(#233,#234,#235,#236));
#144=EDGE_LOOP('',(#237,#238,#239,#240));
#145=EDGE_LOOP('',(#241,#242,#243,#244));
#146=EDGE_LOOP('',(#245,#246,#247,#248));
#147=EDGE_LOOP('',(#249,#250,#251,#252,#253,#254,#255,#256,#257,#258,#259,#260
,#261,#262,#263,#264,#265,#266,#267,#268,#269,#270,#271,#272,#273));
#148=EDGE_LOOP('',(#274,#275,#276,#277,#278,#279,#280,#281,#282,#283,#284,#285
,#286,#287,#288,#289,#290,#291,#292,#293,#294,#295,#296,#297,#298));
#149=ORIENTED_EDGE('',*,*,#410,.T.);
#150=ORIENTED_EDGE('',*,*,#336,.F.);
#151=ORIENTED_EDGE('',*,*,#385,.F.);
#152=ORIENTED_EDGE('',*,*,#360,.T.);
#153=ORIENTED_EDGE('',*,*,#409,.T.);
#154=ORIENTED_EDGE('',*,*,#337,.F.);
#155=ORIENTED_EDGE('',*,*,#384,.F.);
#156=ORIENTED_EDGE('',*,*,#336,.T.);
#157=ORIENTED_EDGE('',*,*,#408,.T.);
#158=ORIENTED_EDGE('',*,*,#338,.F.);
#159=ORIENTED_EDGE('',*,*,#383,.F.);
#160=ORIENTED_EDGE('',*,*,#337,.T.);
#161=ORIENTED_EDGE('',*,*,#407,.T.);
#162=ORIENTED_EDGE('',*,*,#339,.F.);
#163=ORIENTED_EDGE('',*,*,#382,.F.);
#164=ORIENTED_EDGE('',*,*,#338,.T.);
#165=ORIENTED_EDGE('',*,*,#406,.T.);
#166=ORIENTED_EDGE('',*,*,#340,.F.);
#167=ORIENTED_EDGE('',*,*,#381,.F.);
#168=ORIENTED_EDGE('',*,*,#339,.T.);
#169=ORIENTED_EDGE('',*,*,#405,.T.);
#170=ORIENTED_EDGE('',*,*,#341,.F.);
#171=ORIENTED_EDGE('',*,*,#380,.F.);
#172=ORIENTED_EDGE('',*,*,#340,.T.);
#173=ORIENTED_EDGE('',*,*,#404,.T.);
#174=ORIENTED_EDGE('',*,*,#342,.F.);
#175=ORIENTED_EDGE('',*,*,#379,.F.);
#176=ORIENTED_EDGE('',*,*,#341,.T.);
#177=ORIENTED_EDGE('',*,*,#403,.T.);
#178=ORIENTED_EDGE('',*,*,#343,.F.);
#179=ORIENTED_EDGE('',*,*,#378,.F.);
#180=ORIENTED_EDGE('',*,*,#342,.T.);
#181=ORIENTED_EDGE('',*,*,#402,.T.);
#182=ORIENTED_EDGE('',*,*,#344,.F.);
#183=ORIENTED_EDGE('',*,*,#377,.F.);
#184=ORIENTED_EDGE('',*,*,#343,.T.);
#185=ORIENTED_EDGE('',*,*,#401,.T.);
#186=ORIENTED_EDGE('',*,*,#345,.F.);
#187=ORIENTED_EDGE('',*,*,#376,.F.);
#188=ORIENTED_EDGE('',*,*,#344,.T.);
#189=ORIENTED_EDGE('',*,*,#400,.T.);
#190=ORIENTED_EDGE('',*,*,#346,.F.);
#191=ORIENTED_EDGE('',*,*,#375,.F.);
#192=ORIENTED_EDGE('',*,*,#345,.T.);
#193=ORIENTED_EDGE('',*,*,#399,.T.);
#194=ORIENTED_EDGE('',*,*,#347,.F.);
#195=ORIENTED_EDGE('',*,*,#374,.F.);
#196=ORIENTED_EDGE('',*,*,#346,.T.);
#197=ORIENTED_EDGE('',*,*,#398,.T.);
#198=ORIENTED_EDGE('',*,*,#348,.F.);
#199=ORIENTED_EDGE('',*,*,#373,.F.);
#200=ORIENTED_EDGE('',*,*,#347,.T.);
#201=ORIENTED_EDGE('',*,*,#397,.T.);
#202=ORIENTED_EDGE('',*,*,#349,.F.);
#203=ORIENTED_EDGE('',*,*,#372,.F.);
#204=ORIENTED_EDGE('',*,*,#348,.T.);
#205=ORIENTED_EDGE('',*,*,#396,.T.);
#206=ORIENTED_EDGE('',*,*,#350,.F.);
#207=ORIENTED_EDGE('',*,*,#371,.F.);
#208=ORIENTED_EDGE('',*,*,#349,.T.);
#209=ORIENTED_EDGE('',*,*,#395,.T.);
#210=ORIENTED_EDGE('',*,*,#351,.F.);
#211=ORIENTED_EDGE('',*,*,#370,.F.);
#212=ORIENTED_EDGE('',*,*,#350,.T.);
#213=ORIENTED_EDGE('',*,*,#394,.T.);
#214=ORIENTED_EDGE('',*,*,#352,.F.);
#215=ORIENTED_EDGE('',*,*,#369,.F.);
#216=ORIENTED_EDGE('',*,*,#351,.T.);
#217=ORIENTED_EDGE('',*,*,#393,.T.);
#218=ORIENTED_EDGE('',*,*,#353,.F.);
#219=ORIENTED_EDGE('',*,*,#368,.F.);
#220=ORIENTED_EDGE('',*,*,#352,.T.);
#221=ORIENTED_EDGE('',*,*,#392,.T.);
#222=ORIENTED_EDGE('',*,*,#354,.F.);
#223=ORIENTED_EDGE('',*,*,#367,.F.);
#224=ORIENTED_EDGE('',*,*,#353,.T.);
#225=ORIENTED_EDGE('',*,*,#391,.T.);
#226=ORIENTED_EDGE('',*,*,#355,.F.);
#227=ORIENTED_EDGE('',*,*,#366,.F.);
#228=ORIENTED_EDGE('',*,*,#354,.T.);
#229=ORIENTED_EDGE('',*,*,#390,.T.);
#230=ORIENTED_EDGE('',*,*,#356,.F.);
#231=ORIENTED_EDGE('',*,*,#365,.F.);
#232=ORIENTED_EDGE('',*,*,#355,.T.);
#233=ORIENTED_EDGE('',*,*,#389,.T.);
#234=ORIENTED_EDGE('',*,*,#357,.F.);
#235=ORIENTED_EDGE('',*,*,#364,.F.);
#236=ORIENTED_EDGE('',*,*,#356,.T.);
#237=ORIENTED_EDGE('',*,*,#388,.T.);
#238=ORIENTED_EDGE('',*,*,#358,.F.);
#239=ORIENTED_EDGE('',*,*,#363,.F.);
#240=ORIENTED_EDGE('',*,*,#357,.T.);
#241=ORIENTED_EDGE('',*,*,#387,.T.);
#242=ORIENTED_EDGE('',*,*,#359,.F.);
#243=ORIENTED_EDGE('',*,*,#362,.F.);
#244=ORIENTED_EDGE('',*,*,#358,.T.);
#245=ORIENTED_EDGE('',*,*,#386,.T.);
#246=ORIENTED_EDGE('',*,*,#360,.F.);
#247=ORIENTED_EDGE('',*,*,#361,.F.);
#248=ORIENTED_EDGE('',*,*,#359,.T.);
#249=ORIENTED_EDGE('',*,*,#385,.T.);
#250=ORIENTED_EDGE('',*,*,#384,.T.);
#251=ORIENTED_EDGE('',*,*,#383,.T.);
#252=ORIENTED_EDGE('',*,*,#382,.T.);
#253=ORIENTED_EDGE('',*,*,#381,.T.);
#254=ORIENTED_EDGE('',*,*,#380,.T.);
#255=ORIENTED_EDGE('',*,*,#379,.T.);
#256=ORIENTED_EDGE('',*,*,#378,.T.);
#257=ORIENTED_EDGE('',*,*,#377,.T.);
#258=ORIENTED_EDGE('',*,*,#376,.T.);
#259=ORIENTED_EDGE('',*,*,#375,.T.);
#260=ORIENTED_EDGE('',*,*,#374,.T.);
#261=ORIENTED_EDGE('',*,*,#373,.T.);
#262=ORIENTED_EDGE('',*,*,#372,.T.);
#263=ORIENTED_EDGE('',*,*,#371,.T.);
#264=ORIENTED_EDGE('',*,*,#370,.T.);
#265=ORIENTED_EDGE('',*,*,#369,.T.);
#266=ORIENTED_EDGE('',*,*,#368,.T.);
#267=ORIENTED_EDGE('',*,*,#367,.T.);
#268=ORIENTED_EDGE('',*,*,#366,.T.);
#269=ORIENTED_EDGE('',*,*,#365,.T.);
#270=ORIENTED_EDGE('',*,*,#364,.T.);
#271=ORIENTED_EDGE('',*,*,#363,.T.);
#272=ORIENTED_EDGE('',*,*,#362,.T.);
#273=ORIENTED_EDGE('',*,*,#361,.T.);
#274=ORIENTED_EDGE('',*,*,#410,.F.);
#275=ORIENTED_EDGE('',*,*,#386,.F.);
#276=ORIENTED_EDGE('',*,*,#387,.F.);
#277=ORIENTED_EDGE('',*,*,#388,.F.);
#278=ORIENTED_EDGE('',*,*,#389,.F.);
#279=ORIENTED_EDGE('',*,*,#390,.F.);
#280=ORIENTED_EDGE('',*,*,#391,.F.);
#281=ORIENTED_EDGE('',*,*,#392,.F.);
#282=ORIENTED_EDGE('',*,*,#393,.F.);
#283=ORIENTED_EDGE('',*,*,#394,.F.);
#284=ORIENTED_EDGE('',*,*,#395,.F.);
#285=ORIENTED_EDGE('',*,*,#396,.F.);
#286=ORIENTED_EDGE('',*,*,#397,.F.);
#287=ORIENTED_EDGE('',*,*,#398,.F.);
#288=ORIENTED_EDGE('',*,*,#399,.F.);
#289=ORIENTED_EDGE('',*,*,#400,.F.);
#290=ORIENTED_EDGE('',*,*,#401,.F.);
#291=ORIENTED_EDGE('',*,*,#402,.F.);
#292=ORIENTED_EDGE('',*,*,#403,.F.);
#293=ORIENTED_EDGE('',*,*,#404,.F.);
#294=ORIENTED_EDGE('',*,*,#405,.F.);
#295=ORIENTED_EDGE('',*,*,#406,.F.);
#296=ORIENTED_EDGE('',*,*,#407,.F.);
#297=ORIENTED_EDGE('',*,*,#408,.F.);
#298=ORIENTED_EDGE('',*,*,#409,.F.);
#299=PLANE('',#594);
#300=PLANE('',#595);
#301=PLANE('',#596);
#302=PLANE('',#597);
#303=PLANE('',#598);
#304=PLANE('',#599);
#305=PLANE('',#600);
#306=PLANE('',#601);
#307=PLANE('',#603);
#308=PLANE('',#604);
#309=PLANE('',#605);
#310=PLANE('',#607);
#311=PLANE('',#608);
#312=PLANE('',#617);
#313=PLANE('',#618);
#314=PLANE('',#619);
#315=PLANE('',#620);
#316=CIRCLE('',#574,26.3690894037722);
#317=CIRCLE('',#575,17.3718976229438);
#318=CIRCLE('',#576,16.8575863278166);
#319=CIRCLE('',#577,11.0867897062626);
#320=CIRCLE('',#578,815.890306689779);
#321=CIRCLE('',#579,157.014272118606);
#322=CIRCLE('',#580,67.0846960333476);
#323=CIRCLE('',#581,15.7455343596869);
#324=CIRCLE('',#582,11.0989427987426);
#325=CIRCLE('',#583,6.24395404982331);
#326=CIRCLE('',#584,26.3690894037722);
#327=CIRCLE('',#585,17.3718976229438);
#328=CIRCLE('',#586,16.8575863278166);
#329=CIRCLE('',#587,11.0867897062626);
#330=CIRCLE('',#588,815.890306689779);
#331=CIRCLE('',#589,157.014272118606);
#332=CIRCLE('',#590,67.0846960333476);
#333=CIRCLE('',#591,15.7455343596869);
#334=CIRCLE('',#592,11.0989427987426);
#335=CIRCLE('',#593,6.24395404982331);
#336=EDGE_CURVE('',#545,#570,#411,.T.);
#337=EDGE_CURVE('',#544,#569,#412,.T.);
#338=EDGE_CURVE('',#543,#568,#413,.T.);
#339=EDGE_CURVE('',#542,#567,#414,.T.);
#340=EDGE_CURVE('',#541,#566,#415,.T.);
#341=EDGE_CURVE('',#540,#565,#416,.T.);
#342=EDGE_CURVE('',#539,#564,#417,.T.);
#343=EDGE_CURVE('',#538,#563,#418,.T.);
#344=EDGE_CURVE('',#537,#562,#419,.T.);
#345=EDGE_CURVE('',#536,#561,#420,.T.);
#346=EDGE_CURVE('',#535,#560,#421,.T.);
#347=EDGE_CURVE('',#534,#559,#422,.T.);
#348=EDGE_CURVE('',#533,#558,#423,.T.);
#349=EDGE_CURVE('',#532,#557,#424,.T.);
#350=EDGE_CURVE('',#531,#556,#425,.T.);
#351=EDGE_CURVE('',#530,#555,#426,.T.);
#352=EDGE_CURVE('',#529,#554,#427,.T.);
#353=EDGE_CURVE('',#528,#553,#428,.T.);
#354=EDGE_CURVE('',#527,#552,#429,.T.);
#355=EDGE_CURVE('',#526,#551,#430,.T.);
#356=EDGE_CURVE('',#525,#550,#431,.T.);
#357=EDGE_CURVE('',#524,#549,#432,.T.);
#358=EDGE_CURVE('',#523,#548,#433,.T.);
#359=EDGE_CURVE('',#522,#547,#434,.T.);
#360=EDGE_CURVE('',#521,#546,#435,.T.);
#361=EDGE_CURVE('',#522,#521,#436,.T.);
#362=EDGE_CURVE('',#523,#522,#437,.T.);
#363=EDGE_CURVE('',#524,#523,#316,.T.);
#364=EDGE_CURVE('',#525,#524,#317,.T.);
#365=EDGE_CURVE('',#526,#525,#318,.T.);
#366=EDGE_CURVE('',#527,#526,#319,.T.);
#367=EDGE_CURVE('',#528,#527,#320,.T.);
#368=EDGE_CURVE('',#529,#528,#321,.T.);
#369=EDGE_CURVE('',#530,#529,#322,.T.);
#370=EDGE_CURVE('',#531,#530,#323,.T.);
#371=EDGE_CURVE('',#532,#531,#438,.T.);
#372=EDGE_CURVE('',#533,#532,#439,.T.);
#373=EDGE_CURVE('',#534,#533,#324,.T.);
#374=EDGE_CURVE('',#535,#534,#440,.T.);
#375=EDGE_CURVE('',#536,#535,#441,.T.);
#376=EDGE_CURVE('',#537,#536,#442,.T.);
#377=EDGE_CURVE('',#538,#537,#325,.T.);
#378=EDGE_CURVE('',#539,#538,#443,.T.);
#379=EDGE_CURVE('',#540,#539,#444,.T.);
#380=EDGE_CURVE('',#541,#540,#445,.T.);
#381=EDGE_CURVE('',#542,#541,#446,.T.);
#382=EDGE_CURVE('',#543,#542,#447,.T.);
#383=EDGE_CURVE('',#544,#543,#448,.T.);
#384=EDGE_CURVE('',#545,#544,#449,.T.);
#385=EDGE_CURVE('',#521,#545,#450,.T.);
#386=EDGE_CURVE('',#547,#546,#451,.T.);
#387=EDGE_CURVE('',#548,#547,#452,.T.);
#388=EDGE_CURVE('',#549,#548,#326,.T.);
#389=EDGE_CURVE('',#550,#549,#327,.T.);
#390=EDGE_CURVE('',#551,#550,#328,.T.);
#391=EDGE_CURVE('',#552,#551,#329,.T.);
#392=EDGE_CURVE('',#553,#552,#330,.T.);
#393=EDGE_CURVE('',#554,#553,#331,.T.);
#394=EDGE_CURVE('',#555,#554,#332,.T.);
#395=EDGE_CURVE('',#556,#555,#333,.T.);
#396=EDGE_CURVE('',#557,#556,#453,.T.);
#397=EDGE_CURVE('',#558,#557,#454,.T.);
#398=EDGE_CURVE('',#559,#558,#334,.T.);
#399=EDGE_CURVE('',#560,#559,#455,.T.);
#400=EDGE_CURVE('',#561,#560,#456,.T.);
#401=EDGE_CURVE('',#562,#561,#457,.T.);
#402=EDGE_CURVE('',#563,#562,#335,.T.);
#403=EDGE_CURVE('',#564,#563,#458,.T.);
#404=EDGE_CURVE('',#565,#564,#459,.T.);
#405=EDGE_CURVE('',#566,#565,#460,.T.);
#406=EDGE_CURVE('',#567,#566,#461,.T.);
#407=EDGE_CURVE('',#568,#567,#462,.T.);
#408=EDGE_CURVE('',#569,#568,#463,.T.);
#409=EDGE_CURVE('',#570,#569,#464,.T.);
#410=EDGE_CURVE('',#546,#570,#465,.T.);
#411=LINE('',#823,#466);
#412=LINE('',#824,#467);
#413=LINE('',#825,#468);
#414=LINE('',#826,#469);
#415=LINE('',#827,#470);
#416=LINE('',#828,#471);
#417=LINE('',#829,#472);
#418=LINE('',#830,#473);
#419=LINE('',#831,#474);
#420=LINE('',#832,#475);
#421=LINE('',#833,#476);
#422=LINE('',#834,#477);
#423=LINE('',#835,#478);
#424=LINE('',#836,#479);
#425=LINE('',#837,#480);
#426=LINE('',#838,#481);
#427=LINE('',#839,#482);
#428=LINE('',#840,#483);
#429=LINE('',#841,#484);
#430=LINE('',#842,#485);
#431=LINE('',#843,#486);
#432=LINE('',#844,#487);
#433=LINE('',#845,#488);
#434=LINE('',#846,#489);
#435=LINE('',#847,#490);
#436=LINE('',#848,#491);
#437=LINE('',#849,#492);
#438=LINE('',#858,#493);
#439=LINE('',#859,#494);
#440=LINE('',#861,#495);
#441=LINE('',#862,#496);
#442=LINE('',#863,#497);
#443=LINE('',#865,#498);
#444=LINE('',#866,#499);
#445=LINE('',#867,#500);
#446=LINE('',#868,#501);
#447=LINE('',#869,#502);
#448=LINE('',#870,#503);
#449=LINE('',#871,#504);
#450=LINE('',#872,#505);
#451=LINE('',#873,#506);
#452=LINE('',#874,#507);
#453=LINE('',#883,#508);
#454=LINE('',#884,#509);
#455=LINE('',#886,#510);
#456=LINE('',#887,#511);
#457=LINE('',#888,#512);
#458=LINE('',#890,#513);
#459=LINE('',#891,#514);
#460=LINE('',#892,#515);
#461=LINE('',#893,#516);
#462=LINE('',#894,#517);
#463=LINE('',#895,#518);
#464=LINE('',#896,#519);
#465=LINE('',#897,#520);
#466=VECTOR('',#623,1.);
#467=VECTOR('',#624,1.);
#468=VECTOR('',#625,1.);
#469=VECTOR('',#626,1.);
#470=VECTOR('',#627,1.);
#471=VECTOR('',#628,1.);
#472=VECTOR('',#629,1.);
#473=VECTOR('',#630,1.);
#474=VECTOR('',#631,1.);
#475=VECTOR('',#632,1.);
#476=VECTOR('',#633,1.);
#477=VECTOR('',#634,1.);
#478=VECTOR('',#635,1.);
#479=VECTOR('',#636,1.);
#480=VECTOR('',#637,1.);
#481=VECTOR('',#638,1.);
#482=VECTOR('',#639,1.);
#483=VECTOR('',#640,1.);
#484=VECTOR('',#641,1.);
#485=VECTOR('',#642,1.);
#486=VECTOR('',#643,1.);
#487=VECTOR('',#644,1.);
#488=VECTOR('',#645,1.);
#489=VECTOR('',#646,1.);
#490=VECTOR('',#647,1.);
#491=VECTOR('',#648,1.);
#492=VECTOR('',#649,1.);
#493=VECTOR('',#666,1.);
#494=VECTOR('',#667,1.);
#495=VECTOR('',#670,1.);
#496=VECTOR('',#671,1.);
#497=VECTOR('',#672,1.);
#498=VECTOR('',#675,1.);
#499=VECTOR('',#676,1.);
#500=VECTOR('',#677,1.);
#501=VECTOR('',#678,1.);
#502=VECTOR('',#679,1.);
#503=VECTOR('',#680,1.);
#504=VECTOR('',#681,1.);
#505=VECTOR('',#682,1.);
#506=VECTOR('',#683,1.);
#507=VECTOR('',#684,1.);
#508=VECTOR('',#701,1.);
#509=VECTOR('',#702,1.);
#510=VECTOR('',#705,1.);
#511=VECTOR('',#706,1.);
#512=VECTOR('',#707,1.);
#513=VECTOR('',#710,1.);
#514=VECTOR('',#711,1.);
#515=VECTOR('',#712,1.);
#516=VECTOR('',#713,1.);
#517=VECTOR('',#714,1.);
#518=VECTOR('',#715,1.);
#519=VECTOR('',#716,1.);
#520=VECTOR('',#717,1.);
#521=VERTEX_POINT('',#773);
#522=VERTEX_POINT('',#774);
#523=VERTEX_POINT('',#775);
#524=VERTEX_POINT('',#776);
#525=VERTEX_POINT('',#777);
#526=VERTEX_POINT('',#778);
#527=VERTEX_POINT('',#779);
#528=VERTEX_POINT('',#780);
#529=VERTEX_POINT('',#781);
#530=VERTEX_POINT('',#782);
#531=VERTEX_POINT('',#783);
#532=VERTEX_POINT('',#784);
#533=VERTEX_POINT('',#785);
#534=VERTEX_POINT('',#786);
#535=VERTEX_POINT('',#787);
#536=VERTEX_POINT('',#788);
#537=VERTEX_POINT('',#789);
#538=VERTEX_POINT('',#790);
#539=VERTEX_POINT('',#791);
#540=VERTEX_POINT('',#792);
#541=VERTEX_POINT('',#793);
#542=VERTEX_POINT('',#794);
#543=VERTEX_POINT('',#795);
#544=VERTEX_POINT('',#796);
#545=VERTEX_POINT('',#797);
#546=VERTEX_POINT('',#798);
#547=VERTEX_POINT('',#799);
#548=VERTEX_POINT('',#800);
#549=VERTEX_POINT('',#801);
#550=VERTEX_POINT('',#802);
#551=VERTEX_POINT('',#803);
#552=VERTEX_POINT('',#804);
#553=VERTEX_POINT('',#805);
#554=VERTEX_POINT('',#806);
#555=VERTEX_POINT('',#807);
#556=VERTEX_POINT('',#808);
#557=VERTEX_POINT('',#809);
#558=VERTEX_POINT('',#810);
#559=VERTEX_POINT('',#811);
#560=VERTEX_POINT('',#812);
#561=VERTEX_POINT('',#813);
#562=VERTEX_POINT('',#814);
#563=VERTEX_POINT('',#815);
#564=VERTEX_POINT('',#816);
#565=VERTEX_POINT('',#817);
#566=VERTEX_POINT('',#818);
#567=VERTEX_POINT('',#819);
#568=VERTEX_POINT('',#820);
#569=VERTEX_POINT('',#821);
#570=VERTEX_POINT('',#822);
#571=SHAPE_DEFINITION_REPRESENTATION(#925,#572);
#572=SHAPE_REPRESENTATION('master',(#573),#927);
#573=AXIS2_PLACEMENT_3D('',#772,#622,#621);
#574=AXIS2_PLACEMENT_3D('',#850,#651,#650);
#575=AXIS2_PLACEMENT_3D('',#851,#653,#652);
#576=AXIS2_PLACEMENT_3D('',#852,#655,#654);
#577=AXIS2_PLACEMENT_3D('',#853,#657,#656);
#578=AXIS2_PLACEMENT_3D('',#854,#659,#658);
#579=AXIS2_PLACEMENT_3D('',#855,#661,#660);
#580=AXIS2_PLACEMENT_3D('',#856,#663,#662);
#581=AXIS2_PLACEMENT_3D('',#857,#665,#664);
#582=AXIS2_PLACEMENT_3D('',#860,#669,#668);
#583=AXIS2_PLACEMENT_3D('',#864,#674,#673);
#584=AXIS2_PLACEMENT_3D('',#875,#686,#685);
#585=AXIS2_PLACEMENT_3D('',#876,#688,#687);
#586=AXIS2_PLACEMENT_3D('',#877,#690,#689);
#587=AXIS2_PLACEMENT_3D('',#878,#692,#691);
#588=AXIS2_PLACEMENT_3D('',#879,#694,#693);
#589=AXIS2_PLACEMENT_3D('',#880,#696,#695);
#590=AXIS2_PLACEMENT_3D('',#881,#698,#697);
#591=AXIS2_PLACEMENT_3D('',#882,#700,#699);
#592=AXIS2_PLACEMENT_3D('',#885,#704,#703);
#593=AXIS2_PLACEMENT_3D('',#889,#709,#708);
#594=AXIS2_PLACEMENT_3D('',#898,#719,#718);
#595=AXIS2_PLACEMENT_3D('',#899,#721,#720);
#596=AXIS2_PLACEMENT_3D('',#900,#723,#722);
#597=AXIS2_PLACEMENT_3D('',#901,#725,#724);
#598=AXIS2_PLACEMENT_3D('',#902,#727,#726);
#599=AXIS2_PLACEMENT_3D('',#903,#729,#728);
#600=AXIS2_PLACEMENT_3D('',#904,#731,#730);
#601=AXIS2_PLACEMENT_3D('',#905,#733,#732);
#602=AXIS2_PLACEMENT_3D('',#906,#735,#734);
#603=AXIS2_PLACEMENT_3D('',#907,#737,#736);
#604=AXIS2_PLACEMENT_3D('',#908,#739,#738);
#605=AXIS2_PLACEMENT_3D('',#909,#741,#740);
#606=AXIS2_PLACEMENT_3D('',#910,#743,#742);
#607=AXIS2_PLACEMENT_3D('',#911,#745,#744);
#608=AXIS2_PLACEMENT_3D('',#912,#747,#746);
#609=AXIS2_PLACEMENT_3D('',#913,#749,#748);
#610=AXIS2_PLACEMENT_3D('',#914,#751,#750);
#611=AXIS2_PLACEMENT_3D('',#915,#753,#752);
#612=AXIS2_PLACEMENT_3D('',#916,#755,#754);
#613=AXIS2_PLACEMENT_3D('',#917,#757,#756);
#614=AXIS2_PLACEMENT_3D('',#918,#759,#758);
#615=AXIS2_PLACEMENT_3D('',#919,#761,#760);
#616=AXIS2_PLACEMENT_3D('',#920,#763,#762);
#617=AXIS2_PLACEMENT_3D('',#921,#765,#764);
#618=AXIS2_PLACEMENT_3D('',#922,#767,#766);
#619=AXIS2_PLACEMENT_3D('',#923,#769,#768);
#620=AXIS2_PLACEMENT_3D('',#924,#771,#770);
#621=DIRECTION('',(1.,0.,0.));
#622=DIRECTION('',(0.,0.,1.));
#623=DIRECTION('',(-0.,1.,-6.12323399573677E-017));
#624=DIRECTION('',(-0.,1.,-6.12323399573677E-017));
#625=DIRECTION('',(-0.,1.,-6.12323399573677E-017));
#626=DIRECTION('',(-0.,1.,-6.12323399573677E-017));
#627=DIRECTION('',(-0.,1.,-6.12323399573677E-017));
#628=DIRECTION('',(-0.,1.,-6.12323399573677E-017));
#629=DIRECTION('',(-0.,1.,-6.12323399573677E-017));
#630=DIRECTION('',(-0.,1.,-6.12323399573677E-017));
#631=DIRECTION('',(-0.,1.,-6.12323399573677E-017));
#632=DIRECTION('',(-0.,1.,-6.12323399573677E-017));
#633=DIRECTION('',(-0.,1.,-6.12323399573677E-017));
#634=DIRECTION('',(-0.,1.,-6.12323399573677E-017));
#635=DIRECTION('',(-0.,1.,-6.12323399573677E-017));
#636=DIRECTION('',(-0.,1.,-6.12323399573677E-017));
#637=DIRECTION('',(-0.,1.,-6.12323399573677E-017));
#638=DIRECTION('',(-0.,1.,-6.12323399573677E-017));
#639=DIRECTION('',(-0.,1.,-6.12323399573677E-017));
#640=DIRECTION('',(-0.,1.,-6.12323399573677E-017));
#641=DIRECTION('',(-0.,1.,-6.12323399573677E-017));
#642=DIRECTION('',(-0.,1.,-6.12323399573677E-017));
#643=DIRECTION('',(-0.,1.,-6.12323399573677E-017));
#644=DIRECTION('',(-0.,1.,-6.12323399573677E-017));
#645=DIRECTION('',(-0.,1.,-6.12323399573677E-017));
#646=DIRECTION('',(-0.,1.,-6.12323399573677E-017));
#647=DIRECTION('',(-0.,1.,-6.12323399573677E-017));
#648=DIRECTION('',(0.966620413638019,0.,0.256212755221642));
#649=DIRECTION('',(0.3271106075961,0.,0.944986058308857));
#650=DIRECTION('',(-0.319074822344585,0.,0.94772952773762));
#651=DIRECTION('',(0.,1.,0.));
#652=DIRECTION('',(-0.755273895690858,0.,0.655409293867546));
#653=DIRECTION('',(0.,1.,0.));
#654=DIRECTION('',(-0.190399123704321,0.,-0.981706765634539));
#655=DIRECTION('',(0.,-1.,-0.));
#656=DIRECTION('',(-0.902016309105409,-0.,-0.431701955181878));
#657=DIRECTION('',(0.,-1.,0.));
#658=DIRECTION('',(-0.11974414197272,0.,0.992804784669785));
#659=DIRECTION('',(0.,1.,0.));
#660=DIRECTION('',(-0.393934616084202,0.,0.919138465221967));
#661=DIRECTION('',(0.,1.,0.));
#662=DIRECTION('',(-0.837710705525111,0.,0.546114249812822));
#663=DIRECTION('',(0.,1.,0.));
#664=DIRECTION('',(-0.878437797731063,0.,-0.477856710235819));
#665=DIRECTION('',(0.,1.,0.));
#666=DIRECTION('',(0.591363854891028,0.,0.806404855595763));
#667=DIRECTION('',(-0.835460005571535,0.,0.549551252469149));
#668=DIRECTION('',(0.328466715181248,0.,-0.944515546202412));
#669=DIRECTION('',(0.,-1.,0.));
#670=DIRECTION('',(0.944515546202409,0.,0.328466715181257));
#671=DIRECTION('',(0.,0.,1.));
#672=DIRECTION('',(0.948683298050388,0.,0.316227766017215));
#673=DIRECTION('',(-0.959168759196658,0.,0.282834388611328));
#674=DIRECTION('',(0.,1.,0.));
#675=DIRECTION('',(0.282834388610448,0.,0.959168759196917));
#676=DIRECTION('',(1.,0.,0.));
#677=DIRECTION('',(0.,0.,-1.));
#678=DIRECTION('',(-0.737292674365271,0.,-0.675573469229888));
#679=DIRECTION('',(-0.197234230122961,0.,-0.980356393597656));
#680=DIRECTION('',(-0.826818632117097,0.,-0.562468620977217));
#681=DIRECTION('',(-1.,0.,0.));
#682=DIRECTION('',(-0.0866491080857103,0.,0.996238893071311));
#683=DIRECTION('',(0.966620413638019,0.,0.256212755221642));
#684=DIRECTION('',(0.3271106075961,0.,0.944986058308857));
#685=DIRECTION('',(-0.319074822344585,0.,0.94772952773762));
#686=DIRECTION('',(0.,1.,0.));
#687=DIRECTION('',(-0.755273895690858,0.,0.655409293867546));
#688=DIRECTION('',(0.,1.,0.));
#689=DIRECTION('',(-0.190399123704321,0.,-0.981706765634539));
#690=DIRECTION('',(0.,-1.,-0.));
#691=DIRECTION('',(-0.902016309105409,-0.,-0.431701955181878));
#692=DIRECTION('',(0.,-1.,0.));
#693=DIRECTION('',(-0.11974414197272,0.,0.992804784669785));
#694=DIRECTION('',(0.,1.,0.));
#695=DIRECTION('',(-0.393934616084202,0.,0.919138465221967));
#696=DIRECTION('',(0.,1.,0.));
#697=DIRECTION('',(-0.837710705525111,0.,0.546114249812822));
#698=DIRECTION('',(0.,1.,0.));
#699=DIRECTION('',(-0.878437797731063,0.,-0.477856710235819));
#700=DIRECTION('',(0.,1.,0.));
#701=DIRECTION('',(0.591363854891028,0.,0.806404855595763));
#702=DIRECTION('',(-0.835460005571535,0.,0.549551252469149));
#703=DIRECTION('',(0.328466715181248,0.,-0.944515546202412));
#704=DIRECTION('',(0.,-1.,0.));
#705=DIRECTION('',(0.944515546202409,0.,0.328466715181257));
#706=DIRECTION('',(0.,0.,1.));
#707=DIRECTION('',(0.948683298050388,0.,0.316227766017215));
#708=DIRECTION('',(-0.959168759196658,0.,0.282834388611328));
#709=DIRECTION('',(0.,1.,0.));
#710=DIRECTION('',(0.282834388610448,0.,0.959168759196917));
#711=DIRECTION('',(1.,0.,0.));
#712=DIRECTION('',(0.,0.,-1.));
#713=DIRECTION('',(-0.737292674365271,0.,-0.675573469229888));
#714=DIRECTION('',(-0.197234230122961,0.,-0.980356393597656));
#715=DIRECTION('',(-0.826818632117097,0.,-0.562468620977217));
#716=DIRECTION('',(-1.,0.,0.));
#717=DIRECTION('',(-0.0866491080857103,0.,0.996238893071311));
#718=DIRECTION('',(-0.0866491080857103,9.62964972193618E-035,0.996238893071311
));
#719=DIRECTION('',(-0.996238893071311,-5.30572764330691E-018,
-0.0866491080857103));
#720=DIRECTION('',(0.,1.,-6.12323399573677E-017));
#721=DIRECTION('',(-0.,-6.12323399573677E-017,-1.));
#722=DIRECTION('',(-0.826818632117097,0.,-0.562468620977217));
#723=DIRECTION('',(0.562468620977217,-5.06280395648798E-017,-0.826818632117097
));
#724=DIRECTION('',(-0.197234230122961,-3.85185988877447E-034,
-0.980356393597656));
#725=DIRECTION('',(0.980356393597656,-1.20771134301188E-017,-0.197234230122961
));
#726=DIRECTION('',(-0.737292674365271,3.08148791101958E-033,-0.675573469229888
));
#727=DIRECTION('',(0.675573469229888,-4.51461556848111E-017,-0.737292674365271
));
#728=DIRECTION('',(0.,0.,-1.));
#729=DIRECTION('',(1.,0.,0.));
#730=DIRECTION('',(0.,-1.,6.12323399573677E-017));
#731=DIRECTION('',(-0.,6.12323399573677E-017,1.));
#732=DIRECTION('',(0.282834388610448,0.,0.959168759196917));
#733=DIRECTION('',(-0.959168759196917,1.73186114350292E-017,0.282834388610448)
);
#734=DIRECTION('',(0.,6.12323399573677E-017,1.));
#735=DIRECTION('',(-0.,1.,-6.12323399573677E-017));
#736=DIRECTION('',(0.948683298050388,0.,0.316227766017215));
#737=DIRECTION('',(-0.316227766017215,5.80900982180981E-017,0.948683298050388)
);
#738=DIRECTION('',(0.,0.,1.));
#739=DIRECTION('',(-1.,0.,0.));
#740=DIRECTION('',(0.944515546202409,0.,0.328466715181257));
#741=DIRECTION('',(-0.328466715181257,5.78348970200847E-017,0.944515546202409)
);
#742=DIRECTION('',(0.,6.12323399573677E-017,1.));
#743=DIRECTION('',(-0.,1.,-6.12323399573677E-017));
#744=DIRECTION('',(-0.835460005571535,0.,0.549551252469149));
#745=DIRECTION('',(-0.549551252469149,-5.11571710819405E-017,
-0.835460005571535));
#746=DIRECTION('',(0.591363854891028,0.,0.806404855595763));
#747=DIRECTION('',(-0.806404855595763,3.62105926011869E-017,0.591363854891028)
);
#748=DIRECTION('',(0.,6.12323399573677E-017,1.));
#749=DIRECTION('',(-0.,1.,-6.12323399573677E-017));
#750=DIRECTION('',(0.,6.12323399573677E-017,1.));
#751=DIRECTION('',(-0.,1.,-6.12323399573677E-017));
#752=DIRECTION('',(0.,6.12323399573677E-017,1.));
#753=DIRECTION('',(-0.,1.,-6.12323399573677E-017));
#754=DIRECTION('',(0.,6.12323399573677E-017,1.));
#755=DIRECTION('',(-0.,1.,-6.12323399573677E-017));
#756=DIRECTION('',(0.,6.12323399573677E-017,1.));
#757=DIRECTION('',(-0.,1.,-6.12323399573677E-017));
#758=DIRECTION('',(0.,6.12323399573677E-017,1.));
#759=DIRECTION('',(-0.,1.,-6.12323399573677E-017));
#760=DIRECTION('',(0.,6.12323399573677E-017,1.));
#761=DIRECTION('',(-0.,1.,-6.12323399573677E-017));
#762=DIRECTION('',(0.,6.12323399573677E-017,1.));
#763=DIRECTION('',(-0.,1.,-6.12323399573677E-017));
#764=DIRECTION('',(0.3271106075961,0.,0.944986058308857));
#765=DIRECTION('',(-0.944986058308857,2.00297479279855E-017,0.3271106075961));
#766=DIRECTION('',(0.966620413638019,-3.08148791101958E-033,0.256212755221642)
);
#767=DIRECTION('',(-0.256212755221642,5.91884297776145E-017,0.966620413638019)
);
#768=DIRECTION('',(0.,-0.,1.));
#769=DIRECTION('',(0.,1.,0.));
#770=DIRECTION('',(0.,-0.,1.));
#771=DIRECTION('',(0.,1.,0.));
#772=CARTESIAN_POINT('',(0.,0.,0.));
#773=CARTESIAN_POINT('',(301.767783,168.281361,2244.109677));
#774=CARTESIAN_POINT('',(297.027176000001,168.281361,2242.85313));
#775=CARTESIAN_POINT('',(296.513133999998,168.281361,2241.36812));
#776=CARTESIAN_POINT('',(291.00698429364,168.281361,2240.15058530385));
#777=CARTESIAN_POINT('',(283.429378648242,168.281361,2235.07242812794));
#778=CARTESIAN_POINT('',(267.487614085902,168.281361,2229.57184032908));
#779=CARTESIAN_POINT('',(259.598063999995,168.281361,2235.669628));
#780=CARTESIAN_POINT('',(204.9764236112,168.281361,2230.93706556632));
#781=CARTESIAN_POINT('',(161.924605896701,168.281361,2219.37040203856));
#782=CARTESIAN_POINT('',(132.154021829699,168.281361,2194.34618593477));
#783=CARTESIAN_POINT('',(131.512752,168.281361,2178.223216));
#784=CARTESIAN_POINT('',(129.502126999997,168.281361,2175.481456));
#785=CARTESIAN_POINT('',(134.386140642488,168.281361,2172.26883565144));
#786=CARTESIAN_POINT('',(131.93233600944,168.281361,2152.51298881914));
#787=CARTESIAN_POINT('',(126.359894999999,168.281361,2150.575105));
#788=CARTESIAN_POINT('',(126.359894999999,168.281361,2147.075105));
#789=CARTESIAN_POINT('',(120.874846160802,168.281361,2145.24675538694));
#790=CARTESIAN_POINT('',(116.860352142638,168.281361,2141.08922539227));
#791=CARTESIAN_POINT('',(115.543552,168.281361,2136.623596));
#792=CARTESIAN_POINT('',(103.080454,168.281361,2136.623596));
#793=CARTESIAN_POINT('',(103.080454,168.281361,2154.147319));
#794=CARTESIAN_POINT('',(115.823276302542,168.281361,2165.82343212308));
#795=CARTESIAN_POINT('',(124.210598292874,168.281361,2207.51277140896));
#796=CARTESIAN_POINT('',(185.931059871186,168.281361,2249.5));
#797=CARTESIAN_POINT('',(301.298952999995,168.281361,2249.5));
#798=CARTESIAN_POINT('',(301.767783,2168.281361,2244.109677));
#799=CARTESIAN_POINT('',(297.027176000001,2168.281361,2242.85313));
#800=CARTESIAN_POINT('',(296.513133999998,2168.281361,2241.36812));
#801=CARTESIAN_POINT('',(291.00698429364,2168.281361,2240.15058530385));
#802=CARTESIAN_POINT('',(283.429378648242,2168.281361,2235.07242812794));
#803=CARTESIAN_POINT('',(267.487614085902,2168.281361,2229.57184032908));
#804=CARTESIAN_POINT('',(259.598063999995,2168.281361,2235.669628));
#805=CARTESIAN_POINT('',(204.9764236112,2168.281361,2230.93706556632));
#806=CARTESIAN_POINT('',(161.924605896701,2168.281361,2219.37040203856));
#807=CARTESIAN_POINT('',(132.154021829699,2168.281361,2194.34618593477));
#808=CARTESIAN_POINT('',(131.512752,2168.281361,2178.223216));
#809=CARTESIAN_POINT('',(129.502126999997,2168.281361,2175.481456));
#810=CARTESIAN_POINT('',(134.386140642488,2168.281361,2172.26883565144));
#811=CARTESIAN_POINT('',(131.93233600944,2168.281361,2152.51298881914));
#812=CARTESIAN_POINT('',(126.359894999999,2168.281361,2150.575105));
#813=CARTESIAN_POINT('',(126.359894999999,2168.281361,2147.075105));
#814=CARTESIAN_POINT('',(120.874846160802,2168.281361,2145.24675538694));
#815=CARTESIAN_POINT('',(116.860352142638,2168.281361,2141.08922539227));
#816=CARTESIAN_POINT('',(115.543552,2168.281361,2136.623596));
#817=CARTESIAN_POINT('',(103.080454,2168.281361,2136.623596));
#818=CARTESIAN_POINT('',(103.080454,2168.281361,2154.147319));
#819=CARTESIAN_POINT('',(115.823276302542,2168.281361,2165.82343212308));
#820=CARTESIAN_POINT('',(124.210598292874,2168.281361,2207.51277140896));
#821=CARTESIAN_POINT('',(185.931059871186,2168.281361,2249.5));
#822=CARTESIAN_POINT('',(301.298952999995,2168.281361,2249.5));
#823=CARTESIAN_POINT('',(301.298952999995,168.281361,2249.5));
#824=CARTESIAN_POINT('',(185.931059871186,168.281361,2249.5));
#825=CARTESIAN_POINT('',(124.210598292874,168.281361,2207.51277140896));
#826=CARTESIAN_POINT('',(115.823276302542,168.281361,2165.82343212308));
#827=CARTESIAN_POINT('',(103.080454,168.281361,2154.147319));
#828=CARTESIAN_POINT('',(103.080454,168.281361,2136.623596));
#829=CARTESIAN_POINT('',(115.543552,168.281361,2136.623596));
#830=CARTESIAN_POINT('',(116.860352142638,168.281361,2141.08922539227));
#831=CARTESIAN_POINT('',(120.874846160802,168.281361,2145.24675538694));
#832=CARTESIAN_POINT('',(126.359894999999,168.281361,2147.075105));
#833=CARTESIAN_POINT('',(126.359894999999,168.281361,2150.575105));
#834=CARTESIAN_POINT('',(131.93233600944,168.281361,2152.51298881914));
#835=CARTESIAN_POINT('',(134.386140642488,168.281361,2172.26883565144));
#836=CARTESIAN_POINT('',(129.502126999997,168.281361,2175.481456));
#837=CARTESIAN_POINT('',(131.512752,168.281361,2178.223216));
#838=CARTESIAN_POINT('',(132.154021829699,168.281361,2194.34618593477));
#839=CARTESIAN_POINT('',(161.924605896701,168.281361,2219.37040203856));
#840=CARTESIAN_POINT('',(204.9764236112,168.281361,2230.93706556632));
#841=CARTESIAN_POINT('',(259.598063999995,168.281361,2235.669628));
#842=CARTESIAN_POINT('',(267.487614085902,168.281361,2229.57184032908));
#843=CARTESIAN_POINT('',(283.429378648242,168.281361,2235.07242812794));
#844=CARTESIAN_POINT('',(291.00698429364,168.281361,2240.15058530385));
#845=CARTESIAN_POINT('',(296.513133999998,168.281361,2241.36812));
#846=CARTESIAN_POINT('',(297.027176000001,168.281361,2242.85313));
#847=CARTESIAN_POINT('',(301.767783,168.281361,2244.109677));
#848=CARTESIAN_POINT('',(297.027176000001,168.281361,2242.85313));
#849=CARTESIAN_POINT('',(296.513133999998,168.281361,2241.36812));
#850=CARTESIAN_POINT('',(299.420696810537,168.281361,2215.15982065634));
#851=CARTESIAN_POINT('',(296.549919441466,168.281361,2223.68672497375));
#852=CARTESIAN_POINT('',(270.697283750489,168.281361,2246.12104687937));
#853=CARTESIAN_POINT('',(269.598529130666,168.281361,2240.45581679289));
#854=CARTESIAN_POINT('',(302.674508329626,168.281361,1420.91726531901));
#855=CARTESIAN_POINT('',(223.777962903485,168.281361,2075.05254494552));
#856=CARTESIAN_POINT('',(188.351589873732,168.281361,2157.71027748659));
#857=CARTESIAN_POINT('',(145.344224527022,168.281361,2185.74732525002));
#858=CARTESIAN_POINT('',(129.502126999997,168.281361,2175.481456));
#859=CARTESIAN_POINT('',(134.386140642488,168.281361,2172.26883565144));
#860=CARTESIAN_POINT('',(128.286702726352,168.281361,2162.99611283897));
#861=CARTESIAN_POINT('',(126.359894999999,168.281361,2150.575105));
#862=CARTESIAN_POINT('',(126.359894999999,168.281361,2147.075105));
#863=CARTESIAN_POINT('',(120.874846160802,168.281361,2145.24675538694));
#864=CARTESIAN_POINT('',(122.849357801088,168.281361,2139.32322046607));
#865=CARTESIAN_POINT('',(115.543552,168.281361,2136.623596));
#866=CARTESIAN_POINT('',(103.080454,168.281361,2136.623596));
#867=CARTESIAN_POINT('',(103.080454,168.281361,2154.147319));
#868=CARTESIAN_POINT('',(115.823276302542,168.281361,2165.82343212308));
#869=CARTESIAN_POINT('',(124.210598292874,168.281361,2207.51277140896));
#870=CARTESIAN_POINT('',(185.931059871186,168.281361,2249.5));
#871=CARTESIAN_POINT('',(301.298952999995,168.281361,2249.5));
#872=CARTESIAN_POINT('',(301.767783,168.281361,2244.109677));
#873=CARTESIAN_POINT('',(297.027176000001,2168.281361,2242.85313));
#874=CARTESIAN_POINT('',(296.513133999998,2168.281361,2241.36812));
#875=CARTESIAN_POINT('',(299.420696810537,2168.281361,2215.15982065634));
#876=CARTESIAN_POINT('',(296.549919441466,2168.281361,2223.68672497375));
#877=CARTESIAN_POINT('',(270.697283750489,2168.281361,2246.12104687937));
#878=CARTESIAN_POINT('',(269.598529130666,2168.281361,2240.45581679289));
#879=CARTESIAN_POINT('',(302.674508329626,2168.281361,1420.91726531901));
#880=CARTESIAN_POINT('',(223.777962903485,2168.281361,2075.05254494552));
#881=CARTESIAN_POINT('',(188.351589873732,2168.281361,2157.71027748659));
#882=CARTESIAN_POINT('',(145.344224527022,2168.281361,2185.74732525002));
#883=CARTESIAN_POINT('',(129.502126999997,2168.281361,2175.481456));
#884=CARTESIAN_POINT('',(134.386140642488,2168.281361,2172.26883565144));
#885=CARTESIAN_POINT('',(128.286702726352,2168.281361,2162.99611283897));
#886=CARTESIAN_POINT('',(126.359894999999,2168.281361,2150.575105));
#887=CARTESIAN_POINT('',(126.359894999999,2168.281361,2147.075105));
#888=CARTESIAN_POINT('',(120.874846160802,2168.281361,2145.24675538694));
#889=CARTESIAN_POINT('',(122.849357801088,2168.281361,2139.32322046607));
#890=CARTESIAN_POINT('',(115.543552,2168.281361,2136.623596));
#891=CARTESIAN_POINT('',(103.080454,2168.281361,2136.623596));
#892=CARTESIAN_POINT('',(103.080454,2168.281361,2154.147319));
#893=CARTESIAN_POINT('',(115.823276302542,2168.281361,2165.82343212308));
#894=CARTESIAN_POINT('',(124.210598292874,2168.281361,2207.51277140896));
#895=CARTESIAN_POINT('',(185.931059871186,2168.281361,2249.5));
#896=CARTESIAN_POINT('',(301.298952999995,2168.281361,2249.5));
#897=CARTESIAN_POINT('',(301.767783,2168.281361,2244.109677));
#898=CARTESIAN_POINT('',(301.767783,168.281361,2244.109677));
#899=CARTESIAN_POINT('',(301.298952999995,168.281361,2249.5));
#900=CARTESIAN_POINT('',(185.931059871186,168.281361,2249.5));
#901=CARTESIAN_POINT('',(124.210598292874,168.281361,2207.51277140896));
#902=CARTESIAN_POINT('',(115.823276302542,168.281361,2165.82343212308));
#903=CARTESIAN_POINT('',(103.080454,168.281361,2154.147319));
#904=CARTESIAN_POINT('',(103.080454,168.281361,2136.623596));
#905=CARTESIAN_POINT('',(115.543552,168.281361,2136.623596));
#906=CARTESIAN_POINT('',(122.849357801088,168.281361,2139.32322046607));
#907=CARTESIAN_POINT('',(120.874846160802,168.281361,2145.24675538694));
#908=CARTESIAN_POINT('',(126.359894999999,168.281361,2147.075105));
#909=CARTESIAN_POINT('',(126.359894999999,168.281361,2150.575105));
#910=CARTESIAN_POINT('',(128.286702726352,168.281361,2162.99611283897));
#911=CARTESIAN_POINT('',(134.386140642488,168.281361,2172.26883565144));
#912=CARTESIAN_POINT('',(129.502126999997,168.281361,2175.481456));
#913=CARTESIAN_POINT('',(145.344224527022,168.281361,2185.74732525002));
#914=CARTESIAN_POINT('',(188.351589873732,168.281361,2157.71027748659));
#915=CARTESIAN_POINT('',(223.777962903485,168.281361,2075.05254494552));
#916=CARTESIAN_POINT('',(302.674508329626,168.281361,1420.91726531901));
#917=CARTESIAN_POINT('',(269.598529130666,168.281361,2240.45581679289));
#918=CARTESIAN_POINT('',(270.697283750489,168.281361,2246.12104687937));
#919=CARTESIAN_POINT('',(296.549919441466,168.281361,2223.68672497375));
#920=CARTESIAN_POINT('',(299.420696810537,168.281361,2215.15982065634));
#921=CARTESIAN_POINT('',(296.513133999998,168.281361,2241.36812));
#922=CARTESIAN_POINT('',(297.027176000001,168.281361,2242.85313));
#923=CARTESIAN_POINT('',(122.849357801088,168.281361,2139.32322046607));
#924=CARTESIAN_POINT('',(122.849357801088,2168.281361,2139.32322046607));
#925=PRODUCT_DEFINITION_SHAPE('','',#926);
#926=PRODUCT_DEFINITION('','',#938,#943);
#927=(
GEOMETRIC_REPRESENTATION_CONTEXT(3)
GLOBAL_UNCERTAINTY_ASSIGNED_CONTEXT((#928))
GLOBAL_UNIT_ASSIGNED_CONTEXT((#930,#929,#933))
REPRESENTATION_CONTEXT('','')
);
#928=UNCERTAINTY_MEASURE_WITH_UNIT(LENGTH_MEASURE(0.001),#930,'','tolerance');
#929=(
CONVERSION_BASED_UNIT('',#931)
NAMED_UNIT(#937)
PLANE_ANGLE_UNIT()
);
#930=(
CONVERSION_BASED_UNIT('',#932)
LENGTH_UNIT()
NAMED_UNIT(#936)
);
#931=PLANE_ANGLE_MEASURE_WITH_UNIT(PLANE_ANGLE_MEASURE(0.0174532925199433),
#934);
#932=LENGTH_MEASURE_WITH_UNIT(LENGTH_MEASURE(1.),#935);
#933=(
NAMED_UNIT(*)
SI_UNIT($,.STERADIAN.)
SOLID_ANGLE_UNIT()
);
#934=(
NAMED_UNIT(*)
PLANE_ANGLE_UNIT()
SI_UNIT($,.RADIAN.)
);
#935=(
LENGTH_UNIT()
NAMED_UNIT(*)
SI_UNIT(.MILLI.,.METRE.)
);
#936=DIMENSIONAL_EXPONENTS(1.,0.,0.,0.,0.,0.,0.);
#937=DIMENSIONAL_EXPONENTS(0.,0.,0.,0.,0.,0.,0.);
#938=PRODUCT_DEFINITION_FORMATION_WITH_SPECIFIED_SOURCE('','',#941,.NOT_KNOWN.
);
#939=PRODUCT_CATEGORY_RELATIONSHIP('','',#944,#940);
#940=PRODUCT_RELATED_PRODUCT_CATEGORY('assembly','',(#941));
#941=PRODUCT('','master','',(#942));
#942=PRODUCT_CONTEXT('',#946,'');
#943=PRODUCT_DEFINITION_CONTEXT('',#946,'part_definition');
#944=PRODUCT_CATEGORY('part','');
#945=APPLICATION_PROTOCOL_DEFINITION('international standard',
'automotive_design_cc2',1994,#946);
#946=APPLICATION_CONTEXT(
'configuration controlled 3D designs of mechanical parts and assemblies');
ENDSEC;
END-ISO-10303-21;
43438