ISO-10303-21;
HEADER;
/* Generated by software using Delcam plc STEP library */

FILE_DESCRIPTION(
/* description */ ('AP-214 File'),
/* implementation_level */ '2;1');

FILE_NAME(
/* name */ 'D651',
/* time_stamp */ 'Mon Dec 26 16:19:17 2016',
/* author */ (''),
/* organization */ (''),
/* preprocessor_version */ 'DELCAM STEP V1',
/* originating_system */ 'Exchange7.1.0006',
/* authorisation */ '');

FILE_SCHEMA (('AUTOMOTIVE_DESIGN'));
ENDSEC;
DATA;
#10=PRESENTATION_STYLE_ASSIGNMENT((#20));
#11=PRESENTATION_STYLE_ASSIGNMENT((#21));
#12=SURFACE_SIDE_STYLE('',(#14));
#13=SURFACE_SIDE_STYLE('',(#15));
#14=SURFACE_STYLE_FILL_AREA(#16);
#15=SURFACE_STYLE_FILL_AREA(#17);
#16=FILL_AREA_STYLE('',(#18));
#17=FILL_AREA_STYLE('',(#19));
#18=FILL_AREA_STYLE_COLOUR('',#58);
#19=FILL_AREA_STYLE_COLOUR('',#59);
#20=SURFACE_STYLE_USAGE(.BOTH.,#12);
#21=SURFACE_STYLE_USAGE(.BOTH.,#13);
#22=STYLED_ITEM('',(#10),#83);
#23=STYLED_ITEM('',(#10),#84);
#24=STYLED_ITEM('',(#10),#85);
#25=STYLED_ITEM('',(#10),#86);
#26=STYLED_ITEM('',(#10),#87);
#27=STYLED_ITEM('',(#10),#88);
#28=STYLED_ITEM('',(#10),#89);
#29=STYLED_ITEM('',(#10),#90);
#30=STYLED_ITEM('',(#10),#91);
#31=STYLED_ITEM('',(#10),#92);
#32=STYLED_ITEM('',(#10),#93);
#33=STYLED_ITEM('',(#10),#94);
#34=STYLED_ITEM('',(#10),#95);
#35=STYLED_ITEM('',(#10),#96);
#36=STYLED_ITEM('',(#10),#97);
#37=STYLED_ITEM('',(#10),#98);
#38=STYLED_ITEM('',(#10),#99);
#39=STYLED_ITEM('',(#10),#100);
#40=STYLED_ITEM('',(#10),#101);
#41=STYLED_ITEM('',(#10),#102);
#42=STYLED_ITEM('',(#10),#103);
#43=STYLED_ITEM('',(#10),#104);
#44=STYLED_ITEM('',(#10),#105);
#45=STYLED_ITEM('',(#10),#106);
#46=STYLED_ITEM('',(#10),#107);
#47=STYLED_ITEM('',(#10),#108);
#48=STYLED_ITEM('',(#10),#109);
#49=STYLED_ITEM('',(#10),#110);
#50=STYLED_ITEM('',(#10),#111);
#51=STYLED_ITEM('',(#10),#112);
#52=STYLED_ITEM('',(#10),#113);
#53=STYLED_ITEM('',(#10),#114);
#54=STYLED_ITEM('',(#10),#115);
#55=STYLED_ITEM('',(#10),#116);
#56=STYLED_ITEM('',(#10),#117);
#57=STYLED_ITEM('',(#11),#65);
#58=COLOUR_RGB('',0.,0.,0.);
#59=COLOUR_RGB('rgb_colour_1',0.4,0.4,0.4);
#60=MECHANICAL_DESIGN_GEOMETRIC_PRESENTATION_REPRESENTATION('',(#22,#23,#24,
#25,#26,#27,#28,#29,#30,#31,#32,#33,#34,#35,#36,#37,#38,#39,#40,#41,#42,#43,
#44,#45,#46,#47,#48,#49,#50,#51,#52,#53,#54,#55,#56,#57),#1215);
#61=PRESENTATION_LAYER_ASSIGNMENT('125','D651',(#83,#84,#85,#86,#87,#88,#89,
#90,#91,#92,#93,#94,#95,#96,#97,#98,#99,#100,#101,#102,#103,#104,#105,#106,
#107,#108,#109,#110,#111,#112,#113,#114,#115,#116,#117,#65));
#62=SHAPE_REPRESENTATION_RELATIONSHIP('','',#732,#63);
#63=ADVANCED_BREP_SHAPE_REPRESENTATION('',(#64),#1215);
#64=MANIFOLD_SOLID_BREP('7549',#65);
#65=CLOSED_SHELL('',(#83,#84,#85,#86,#87,#88,#89,#90,#91,#92,#93,#94,#95,#96,
#97,#98,#99,#100,#101,#102,#103,#104,#105,#106,#107,#108,#109,#110,#111,#112,
#113,#114,#115,#116,#117));
#66=PLANE('',#771);
#67=PLANE('',#772);
#68=PLANE('',#773);
#69=PLANE('',#774);
#70=PLANE('',#775);
#71=PLANE('',#779);
#72=PLANE('',#787);
#73=PLANE('',#792);
#74=PLANE('',#793);
#75=PLANE('',#795);
#76=PLANE('',#797);
#77=PLANE('',#798);
#78=PLANE('',#800);
#79=PLANE('',#801);
#80=PLANE('',#802);
#81=PLANE('',#803);
#82=PLANE('',#804);
#83=ADVANCED_FACE('',(#118),#386,.F.);
#84=ADVANCED_FACE('',(#119),#66,.T.);
#85=ADVANCED_FACE('',(#120),#67,.T.);
#86=ADVANCED_FACE('',(#121),#68,.T.);
#87=ADVANCED_FACE('',(#122),#69,.T.);
#88=ADVANCED_FACE('',(#123),#70,.T.);
#89=ADVANCED_FACE('',(#124),#387,.F.);
#90=ADVANCED_FACE('',(#125),#388,.F.);
#91=ADVANCED_FACE('',(#126),#389,.F.);
#92=ADVANCED_FACE('',(#127),#71,.T.);
#93=ADVANCED_FACE('',(#128),#390,.T.);
#94=ADVANCED_FACE('',(#129),#391,.T.);
#95=ADVANCED_FACE('',(#130),#392,.T.);
#96=ADVANCED_FACE('',(#131),#393,.F.);
#97=ADVANCED_FACE('',(#132),#394,.F.);
#98=ADVANCED_FACE('',(#133),#395,.F.);
#99=ADVANCED_FACE('',(#134),#396,.F.);
#100=ADVANCED_FACE('',(#135),#72,.T.);
#101=ADVANCED_FACE('',(#136),#397,.T.);
#102=ADVANCED_FACE('',(#137),#398,.T.);
#103=ADVANCED_FACE('',(#138),#399,.T.);
#104=ADVANCED_FACE('',(#139),#400,.F.);
#105=ADVANCED_FACE('',(#140),#73,.T.);
#106=ADVANCED_FACE('',(#141),#74,.T.);
#107=ADVANCED_FACE('',(#142),#401,.T.);
#108=ADVANCED_FACE('',(#143),#75,.T.);
#109=ADVANCED_FACE('',(#144),#402,.F.);
#110=ADVANCED_FACE('',(#145),#76,.T.);
#111=ADVANCED_FACE('',(#146),#77,.T.);
#112=ADVANCED_FACE('',(#147),#403,.F.);
#113=ADVANCED_FACE('',(#148),#78,.T.);
#114=ADVANCED_FACE('',(#149),#79,.T.);
#115=ADVANCED_FACE('',(#150),#80,.T.);
#116=ADVANCED_FACE('',(#151),#81,.T.);
#117=ADVANCED_FACE('',(#152),#82,.F.);
#118=FACE_OUTER_BOUND('',#153,.T.);
#119=FACE_OUTER_BOUND('',#154,.T.);
#120=FACE_OUTER_BOUND('',#155,.T.);
#121=FACE_OUTER_BOUND('',#156,.T.);
#122=FACE_OUTER_BOUND('',#157,.T.);
#123=FACE_OUTER_BOUND('',#158,.T.);
#124=FACE_OUTER_BOUND('',#159,.T.);
#125=FACE_OUTER_BOUND('',#160,.T.);
#126=FACE_OUTER_BOUND('',#161,.T.);
#127=FACE_OUTER_BOUND('',#162,.T.);
#128=FACE_OUTER_BOUND('',#163,.T.);
#129=FACE_OUTER_BOUND('',#164,.T.);
#130=FACE_OUTER_BOUND('',#165,.T.);
#131=FACE_OUTER_BOUND('',#166,.T.);
#132=FACE_OUTER_BOUND('',#167,.T.);
#133=FACE_OUTER_BOUND('',#168,.T.);
#134=FACE_OUTER_BOUND('',#169,.T.);
#135=FACE_OUTER_BOUND('',#170,.T.);
#136=FACE_OUTER_BOUND('',#171,.T.);
#137=FACE_OUTER_BOUND('',#172,.T.);
#138=FACE_OUTER_BOUND('',#173,.T.);
#139=FACE_OUTER_BOUND('',#174,.T.);
#140=FACE_OUTER_BOUND('',#175,.T.);
#141=FACE_OUTER_BOUND('',#176,.T.);
#142=FACE_OUTER_BOUND('',#177,.T.);
#143=FACE_OUTER_BOUND('',#178,.T.);
#144=FACE_OUTER_BOUND('',#179,.T.);
#145=FACE_OUTER_BOUND('',#180,.T.);
#146=FACE_OUTER_BOUND('',#181,.T.);
#147=FACE_OUTER_BOUND('',#182,.T.);
#148=FACE_OUTER_BOUND('',#183,.T.);
#149=FACE_OUTER_BOUND('',#184,.T.);
#150=FACE_OUTER_BOUND('',#185,.T.);
#151=FACE_OUTER_BOUND('',#186,.T.);
#152=FACE_OUTER_BOUND('',#187,.T.);
#153=EDGE_LOOP('',(#188,#189,#190,#191));
#154=EDGE_LOOP('',(#192,#193,#194,#195));
#155=EDGE_LOOP('',(#196,#197,#198,#199));
#156=EDGE_LOOP('',(#200,#201,#202,#203));
#157=EDGE_LOOP('',(#204,#205,#206,#207));
#158=EDGE_LOOP('',(#208,#209,#210,#211));
#159=EDGE_LOOP('',(#212,#213,#214,#215));
#160=EDGE_LOOP('',(#216,#217,#218,#219));
#161=EDGE_LOOP('',(#220,#221,#222,#223));
#162=EDGE_LOOP('',(#224,#225,#226,#227));
#163=EDGE_LOOP('',(#228,#229,#230,#231));
#164=EDGE_LOOP('',(#232,#233,#234,#235));
#165=EDGE_LOOP('',(#236,#237,#238,#239));
#166=EDGE_LOOP('',(#240,#241,#242,#243));
#167=EDGE_LOOP('',(#244,#245,#246,#247));
#168=EDGE_LOOP('',(#248,#249,#250,#251));
#169=EDGE_LOOP('',(#252,#253,#254,#255));
#170=EDGE_LOOP('',(#256,#257,#258,#259));
#171=EDGE_LOOP('',(#260,#261,#262,#263));
#172=EDGE_LOOP('',(#264,#265,#266,#267));
#173=EDGE_LOOP('',(#268,#269,#270,#271));
#174=EDGE_LOOP('',(#272,#273,#274,#275));
#175=EDGE_LOOP('',(#276,#277,#278,#279));
#176=EDGE_LOOP('',(#280,#281,#282,#283));
#177=EDGE_LOOP('',(#284,#285,#286,#287));
#178=EDGE_LOOP('',(#288,#289,#290,#291));
#179=EDGE_LOOP('',(#292,#293,#294,#295));
#180=EDGE_LOOP('',(#296,#297,#298,#299));
#181=EDGE_LOOP('',(#300,#301,#302,#303));
#182=EDGE_LOOP('',(#304,#305,#306,#307));
#183=EDGE_LOOP('',(#308,#309,#310,#311));
#184=EDGE_LOOP('',(#312,#313,#314,#315));
#185=EDGE_LOOP('',(#316,#317,#318,#319));
#186=EDGE_LOOP('',(#320,#321,#322,#323,#324,#325,#326,#327,#328,#329,#330,#331
,#332,#333,#334,#335,#336,#337,#338,#339,#340,#341,#342,#343,#344,#345,#346,
#347,#348,#349,#350,#351,#352));
#187=EDGE_LOOP('',(#353,#354,#355,#356,#357,#358,#359,#360,#361,#362,#363,#364
,#365,#366,#367,#368,#369,#370,#371,#372,#373,#374,#375,#376,#377,#378,#379,
#380,#381,#382,#383,#384,#385));
#188=ORIENTED_EDGE('',*,*,#538,.F.);
#189=ORIENTED_EDGE('',*,*,#472,.F.);
#190=ORIENTED_EDGE('',*,*,#505,.T.);
#191=ORIENTED_EDGE('',*,*,#440,.T.);
#192=ORIENTED_EDGE('',*,*,#537,.F.);
#193=ORIENTED_EDGE('',*,*,#440,.F.);
#194=ORIENTED_EDGE('',*,*,#504,.T.);
#195=ORIENTED_EDGE('',*,*,#441,.T.);
#196=ORIENTED_EDGE('',*,*,#536,.F.);
#197=ORIENTED_EDGE('',*,*,#441,.F.);
#198=ORIENTED_EDGE('',*,*,#503,.T.);
#199=ORIENTED_EDGE('',*,*,#442,.T.);
#200=ORIENTED_EDGE('',*,*,#535,.F.);
#201=ORIENTED_EDGE('',*,*,#442,.F.);
#202=ORIENTED_EDGE('',*,*,#502,.T.);
#203=ORIENTED_EDGE('',*,*,#443,.T.);
#204=ORIENTED_EDGE('',*,*,#534,.F.);
#205=ORIENTED_EDGE('',*,*,#443,.F.);
#206=ORIENTED_EDGE('',*,*,#501,.T.);
#207=ORIENTED_EDGE('',*,*,#444,.T.);
#208=ORIENTED_EDGE('',*,*,#533,.F.);
#209=ORIENTED_EDGE('',*,*,#444,.F.);
#210=ORIENTED_EDGE('',*,*,#500,.T.);
#211=ORIENTED_EDGE('',*,*,#445,.T.);
#212=ORIENTED_EDGE('',*,*,#532,.F.);
#213=ORIENTED_EDGE('',*,*,#445,.F.);
#214=ORIENTED_EDGE('',*,*,#499,.T.);
#215=ORIENTED_EDGE('',*,*,#446,.T.);
#216=ORIENTED_EDGE('',*,*,#531,.F.);
#217=ORIENTED_EDGE('',*,*,#446,.F.);
#218=ORIENTED_EDGE('',*,*,#498,.T.);
#219=ORIENTED_EDGE('',*,*,#447,.T.);
#220=ORIENTED_EDGE('',*,*,#530,.F.);
#221=ORIENTED_EDGE('',*,*,#447,.F.);
#222=ORIENTED_EDGE('',*,*,#497,.T.);
#223=ORIENTED_EDGE('',*,*,#448,.T.);
#224=ORIENTED_EDGE('',*,*,#529,.F.);
#225=ORIENTED_EDGE('',*,*,#448,.F.);
#226=ORIENTED_EDGE('',*,*,#496,.T.);
#227=ORIENTED_EDGE('',*,*,#449,.T.);
#228=ORIENTED_EDGE('',*,*,#528,.F.);
#229=ORIENTED_EDGE('',*,*,#449,.F.);
#230=ORIENTED_EDGE('',*,*,#495,.T.);
#231=ORIENTED_EDGE('',*,*,#450,.T.);
#232=ORIENTED_EDGE('',*,*,#527,.F.);
#233=ORIENTED_EDGE('',*,*,#450,.F.);
#234=ORIENTED_EDGE('',*,*,#494,.T.);
#235=ORIENTED_EDGE('',*,*,#451,.T.);
#236=ORIENTED_EDGE('',*,*,#526,.F.);
#237=ORIENTED_EDGE('',*,*,#451,.F.);
#238=ORIENTED_EDGE('',*,*,#493,.T.);
#239=ORIENTED_EDGE('',*,*,#452,.T.);
#240=ORIENTED_EDGE('',*,*,#525,.F.);
#241=ORIENTED_EDGE('',*,*,#452,.F.);
#242=ORIENTED_EDGE('',*,*,#492,.T.);
#243=ORIENTED_EDGE('',*,*,#453,.T.);
#244=ORIENTED_EDGE('',*,*,#524,.F.);
#245=ORIENTED_EDGE('',*,*,#453,.F.);
#246=ORIENTED_EDGE('',*,*,#491,.T.);
#247=ORIENTED_EDGE('',*,*,#454,.T.);
#248=ORIENTED_EDGE('',*,*,#523,.F.);
#249=ORIENTED_EDGE('',*,*,#454,.F.);
#250=ORIENTED_EDGE('',*,*,#490,.T.);
#251=ORIENTED_EDGE('',*,*,#455,.T.);
#252=ORIENTED_EDGE('',*,*,#522,.F.);
#253=ORIENTED_EDGE('',*,*,#455,.F.);
#254=ORIENTED_EDGE('',*,*,#489,.T.);
#255=ORIENTED_EDGE('',*,*,#456,.T.);
#256=ORIENTED_EDGE('',*,*,#521,.F.);
#257=ORIENTED_EDGE('',*,*,#456,.F.);
#258=ORIENTED_EDGE('',*,*,#488,.T.);
#259=ORIENTED_EDGE('',*,*,#457,.T.);
#260=ORIENTED_EDGE('',*,*,#520,.F.);
#261=ORIENTED_EDGE('',*,*,#457,.F.);
#262=ORIENTED_EDGE('',*,*,#487,.T.);
#263=ORIENTED_EDGE('',*,*,#458,.T.);
#264=ORIENTED_EDGE('',*,*,#519,.F.);
#265=ORIENTED_EDGE('',*,*,#458,.F.);
#266=ORIENTED_EDGE('',*,*,#486,.T.);
#267=ORIENTED_EDGE('',*,*,#459,.T.);
#268=ORIENTED_EDGE('',*,*,#518,.F.);
#269=ORIENTED_EDGE('',*,*,#459,.F.);
#270=ORIENTED_EDGE('',*,*,#485,.T.);
#271=ORIENTED_EDGE('',*,*,#460,.T.);
#272=ORIENTED_EDGE('',*,*,#517,.F.);
#273=ORIENTED_EDGE('',*,*,#460,.F.);
#274=ORIENTED_EDGE('',*,*,#484,.T.);
#275=ORIENTED_EDGE('',*,*,#461,.T.);
#276=ORIENTED_EDGE('',*,*,#516,.F.);
#277=ORIENTED_EDGE('',*,*,#461,.F.);
#278=ORIENTED_EDGE('',*,*,#483,.T.);
#279=ORIENTED_EDGE('',*,*,#462,.T.);
#280=ORIENTED_EDGE('',*,*,#515,.F.);
#281=ORIENTED_EDGE('',*,*,#462,.F.);
#282=ORIENTED_EDGE('',*,*,#482,.T.);
#283=ORIENTED_EDGE('',*,*,#463,.T.);
#284=ORIENTED_EDGE('',*,*,#514,.F.);
#285=ORIENTED_EDGE('',*,*,#463,.F.);
#286=ORIENTED_EDGE('',*,*,#481,.T.);
#287=ORIENTED_EDGE('',*,*,#464,.T.);
#288=ORIENTED_EDGE('',*,*,#513,.F.);
#289=ORIENTED_EDGE('',*,*,#464,.F.);
#290=ORIENTED_EDGE('',*,*,#480,.T.);
#291=ORIENTED_EDGE('',*,*,#465,.T.);
#292=ORIENTED_EDGE('',*,*,#512,.F.);
#293=ORIENTED_EDGE('',*,*,#465,.F.);
#294=ORIENTED_EDGE('',*,*,#479,.T.);
#295=ORIENTED_EDGE('',*,*,#466,.T.);
#296=ORIENTED_EDGE('',*,*,#511,.F.);
#297=ORIENTED_EDGE('',*,*,#466,.F.);
#298=ORIENTED_EDGE('',*,*,#478,.T.);
#299=ORIENTED_EDGE('',*,*,#467,.T.);
#300=ORIENTED_EDGE('',*,*,#510,.F.);
#301=ORIENTED_EDGE('',*,*,#467,.F.);
#302=ORIENTED_EDGE('',*,*,#477,.T.);
#303=ORIENTED_EDGE('',*,*,#468,.T.);
#304=ORIENTED_EDGE('',*,*,#509,.F.);
#305=ORIENTED_EDGE('',*,*,#468,.F.);
#306=ORIENTED_EDGE('',*,*,#476,.T.);
#307=ORIENTED_EDGE('',*,*,#469,.T.);
#308=ORIENTED_EDGE('',*,*,#508,.F.);
#309=ORIENTED_EDGE('',*,*,#469,.F.);
#310=ORIENTED_EDGE('',*,*,#475,.T.);
#311=ORIENTED_EDGE('',*,*,#470,.T.);
#312=ORIENTED_EDGE('',*,*,#507,.F.);
#313=ORIENTED_EDGE('',*,*,#470,.F.);
#314=ORIENTED_EDGE('',*,*,#474,.T.);
#315=ORIENTED_EDGE('',*,*,#471,.T.);
#316=ORIENTED_EDGE('',*,*,#506,.F.);
#317=ORIENTED_EDGE('',*,*,#471,.F.);
#318=ORIENTED_EDGE('',*,*,#473,.T.);
#319=ORIENTED_EDGE('',*,*,#472,.T.);
#320=ORIENTED_EDGE('',*,*,#505,.F.);
#321=ORIENTED_EDGE('',*,*,#473,.F.);
#322=ORIENTED_EDGE('',*,*,#474,.F.);
#323=ORIENTED_EDGE('',*,*,#475,.F.);
#324=ORIENTED_EDGE('',*,*,#476,.F.);
#325=ORIENTED_EDGE('',*,*,#477,.F.);
#326=ORIENTED_EDGE('',*,*,#478,.F.);
#327=ORIENTED_EDGE('',*,*,#479,.F.);
#328=ORIENTED_EDGE('',*,*,#480,.F.);
#329=ORIENTED_EDGE('',*,*,#481,.F.);
#330=ORIENTED_EDGE('',*,*,#482,.F.);
#331=ORIENTED_EDGE('',*,*,#483,.F.);
#332=ORIENTED_EDGE('',*,*,#484,.F.);
#333=ORIENTED_EDGE('',*,*,#485,.F.);
#334=ORIENTED_EDGE('',*,*,#486,.F.);
#335=ORIENTED_EDGE('',*,*,#487,.F.);
#336=ORIENTED_EDGE('',*,*,#488,.F.);
#337=ORIENTED_EDGE('',*,*,#489,.F.);
#338=ORIENTED_EDGE('',*,*,#490,.F.);
#339=ORIENTED_EDGE('',*,*,#491,.F.);
#340=ORIENTED_EDGE('',*,*,#492,.F.);
#341=ORIENTED_EDGE('',*,*,#493,.F.);
#342=ORIENTED_EDGE('',*,*,#494,.F.);
#343=ORIENTED_EDGE('',*,*,#495,.F.);
#344=ORIENTED_EDGE('',*,*,#496,.F.);
#345=ORIENTED_EDGE('',*,*,#497,.F.);
#346=ORIENTED_EDGE('',*,*,#498,.F.);
#347=ORIENTED_EDGE('',*,*,#499,.F.);
#348=ORIENTED_EDGE('',*,*,#500,.F.);
#349=ORIENTED_EDGE('',*,*,#501,.F.);
#350=ORIENTED_EDGE('',*,*,#502,.F.);
#351=ORIENTED_EDGE('',*,*,#503,.F.);
#352=ORIENTED_EDGE('',*,*,#504,.F.);
#353=ORIENTED_EDGE('',*,*,#538,.T.);
#354=ORIENTED_EDGE('',*,*,#537,.T.);
#355=ORIENTED_EDGE('',*,*,#536,.T.);
#356=ORIENTED_EDGE('',*,*,#535,.T.);
#357=ORIENTED_EDGE('',*,*,#534,.T.);
#358=ORIENTED_EDGE('',*,*,#533,.T.);
#359=ORIENTED_EDGE('',*,*,#532,.T.);
#360=ORIENTED_EDGE('',*,*,#531,.T.);
#361=ORIENTED_EDGE('',*,*,#530,.T.);
#362=ORIENTED_EDGE('',*,*,#529,.T.);
#363=ORIENTED_EDGE('',*,*,#528,.T.);
#364=ORIENTED_EDGE('',*,*,#527,.T.);
#365=ORIENTED_EDGE('',*,*,#526,.T.);
#366=ORIENTED_EDGE('',*,*,#525,.T.);
#367=ORIENTED_EDGE('',*,*,#524,.T.);
#368=ORIENTED_EDGE('',*,*,#523,.T.);
#369=ORIENTED_EDGE('',*,*,#522,.T.);
#370=ORIENTED_EDGE('',*,*,#521,.T.);
#371=ORIENTED_EDGE('',*,*,#520,.T.);
#372=ORIENTED_EDGE('',*,*,#519,.T.);
#373=ORIENTED_EDGE('',*,*,#518,.T.);
#374=ORIENTED_EDGE('',*,*,#517,.T.);
#375=ORIENTED_EDGE('',*,*,#516,.T.);
#376=ORIENTED_EDGE('',*,*,#515,.T.);
#377=ORIENTED_EDGE('',*,*,#514,.T.);
#378=ORIENTED_EDGE('',*,*,#513,.T.);
#379=ORIENTED_EDGE('',*,*,#512,.T.);
#380=ORIENTED_EDGE('',*,*,#511,.T.);
#381=ORIENTED_EDGE('',*,*,#510,.T.);
#382=ORIENTED_EDGE('',*,*,#509,.T.);
#383=ORIENTED_EDGE('',*,*,#508,.T.);
#384=ORIENTED_EDGE('',*,*,#507,.T.);
#385=ORIENTED_EDGE('',*,*,#506,.T.);
#386=CYLINDRICAL_SURFACE('',#770,26.1917738599576);
#387=CYLINDRICAL_SURFACE('',#776,11.1676076491403);
#388=CYLINDRICAL_SURFACE('',#777,9.0535885932342);
#389=CYLINDRICAL_SURFACE('',#778,23.2442177495539);
#390=CYLINDRICAL_SURFACE('',#780,12.6133890061356);
#391=CYLINDRICAL_SURFACE('',#781,16.0315137994614);
#392=CYLINDRICAL_SURFACE('',#782,152.463979155583);
#393=CYLINDRICAL_SURFACE('',#783,7.7721214929227);
#394=CYLINDRICAL_SURFACE('',#784,33.4020659642726);
#395=CYLINDRICAL_SURFACE('',#785,103.499924978891);
#396=CYLINDRICAL_SURFACE('',#786,211.447293283773);
#397=CYLINDRICAL_SURFACE('',#788,7.1392845728998);
#398=CYLINDRICAL_SURFACE('',#789,15.3263821551653);
#399=CYLINDRICAL_SURFACE('',#790,46.1381858346162);
#400=CYLINDRICAL_SURFACE('',#791,18.1353006122033);
#401=CYLINDRICAL_SURFACE('',#794,5.9772468197563);
#402=CYLINDRICAL_SURFACE('',#796,8.94360195673511);
#403=CYLINDRICAL_SURFACE('',#799,26.4467632196071);
#404=CIRCLE('',#734,26.4467632196071);
#405=CIRCLE('',#735,8.94360195673511);
#406=CIRCLE('',#736,5.9772468197563);
#407=CIRCLE('',#737,18.1353006122033);
#408=CIRCLE('',#738,46.1381858346162);
#409=CIRCLE('',#739,15.3263821551653);
#410=CIRCLE('',#740,7.1392845728998);
#411=CIRCLE('',#741,211.447293283773);
#412=CIRCLE('',#742,103.499924978891);
#413=CIRCLE('',#743,33.4020659642726);
#414=CIRCLE('',#744,7.7721214929227);
#415=CIRCLE('',#745,152.463979155583);
#416=CIRCLE('',#746,16.0315137994614);
#417=CIRCLE('',#747,12.6133890061356);
#418=CIRCLE('',#748,23.2442177495539);
#419=CIRCLE('',#749,9.0535885932342);
#420=CIRCLE('',#750,11.1676076491403);
#421=CIRCLE('',#751,26.1917738599576);
#422=CIRCLE('',#752,26.4467632196071);
#423=CIRCLE('',#753,8.94360195673511);
#424=CIRCLE('',#754,5.9772468197563);
#425=CIRCLE('',#755,18.1353006122033);
#426=CIRCLE('',#756,46.1381858346162);
#427=CIRCLE('',#757,15.3263821551653);
#428=CIRCLE('',#758,7.1392845728998);
#429=CIRCLE('',#759,211.447293283773);
#430=CIRCLE('',#760,103.499924978891);
#431=CIRCLE('',#761,33.4020659642726);
#432=CIRCLE('',#762,7.7721214929227);
#433=CIRCLE('',#763,152.463979155583);
#434=CIRCLE('',#764,16.0315137994614);
#435=CIRCLE('',#765,12.6133890061356);
#436=CIRCLE('',#766,23.2442177495539);
#437=CIRCLE('',#767,9.0535885932342);
#438=CIRCLE('',#768,11.1676076491403);
#439=CIRCLE('',#769,26.1917738599576);
#440=EDGE_CURVE('',#697,#730,#539,.T.);
#441=EDGE_CURVE('',#696,#729,#540,.T.);
#442=EDGE_CURVE('',#695,#728,#541,.T.);
#443=EDGE_CURVE('',#694,#727,#542,.T.);
#444=EDGE_CURVE('',#693,#726,#543,.T.);
#445=EDGE_CURVE('',#692,#725,#544,.T.);
#446=EDGE_CURVE('',#691,#724,#545,.T.);
#447=EDGE_CURVE('',#690,#723,#546,.T.);
#448=EDGE_CURVE('',#689,#722,#547,.T.);
#449=EDGE_CURVE('',#688,#721,#548,.T.);
#450=EDGE_CURVE('',#687,#720,#549,.T.);
#451=EDGE_CURVE('',#686,#719,#550,.T.);
#452=EDGE_CURVE('',#685,#718,#551,.T.);
#453=EDGE_CURVE('',#684,#717,#552,.T.);
#454=EDGE_CURVE('',#683,#716,#553,.T.);
#455=EDGE_CURVE('',#682,#715,#554,.T.);
#456=EDGE_CURVE('',#681,#714,#555,.T.);
#457=EDGE_CURVE('',#680,#713,#556,.T.);
#458=EDGE_CURVE('',#679,#712,#557,.T.);
#459=EDGE_CURVE('',#678,#711,#558,.T.);
#460=EDGE_CURVE('',#677,#710,#559,.T.);
#461=EDGE_CURVE('',#676,#709,#560,.T.);
#462=EDGE_CURVE('',#675,#708,#561,.T.);
#463=EDGE_CURVE('',#674,#707,#562,.T.);
#464=EDGE_CURVE('',#673,#706,#563,.T.);
#465=EDGE_CURVE('',#672,#705,#564,.T.);
#466=EDGE_CURVE('',#671,#704,#565,.T.);
#467=EDGE_CURVE('',#670,#703,#566,.T.);
#468=EDGE_CURVE('',#669,#702,#567,.T.);
#469=EDGE_CURVE('',#668,#701,#568,.T.);
#470=EDGE_CURVE('',#667,#700,#569,.T.);
#471=EDGE_CURVE('',#666,#699,#570,.T.);
#472=EDGE_CURVE('',#665,#698,#571,.T.);
#473=EDGE_CURVE('',#666,#665,#572,.T.);
#474=EDGE_CURVE('',#667,#666,#573,.T.);
#475=EDGE_CURVE('',#668,#667,#574,.T.);
#476=EDGE_CURVE('',#669,#668,#404,.T.);
#477=EDGE_CURVE('',#670,#669,#575,.T.);
#478=EDGE_CURVE('',#671,#670,#576,.T.);
#479=EDGE_CURVE('',#672,#671,#405,.T.);
#480=EDGE_CURVE('',#673,#672,#577,.T.);
#481=EDGE_CURVE('',#674,#673,#406,.T.);
#482=EDGE_CURVE('',#675,#674,#578,.T.);
#483=EDGE_CURVE('',#676,#675,#579,.T.);
#484=EDGE_CURVE('',#677,#676,#407,.T.);
#485=EDGE_CURVE('',#678,#677,#408,.T.);
#486=EDGE_CURVE('',#679,#678,#409,.T.);
#487=EDGE_CURVE('',#680,#679,#410,.T.);
#488=EDGE_CURVE('',#681,#680,#580,.T.);
#489=EDGE_CURVE('',#682,#681,#411,.T.);
#490=EDGE_CURVE('',#683,#682,#412,.T.);
#491=EDGE_CURVE('',#684,#683,#413,.T.);
#492=EDGE_CURVE('',#685,#684,#414,.T.);
#493=EDGE_CURVE('',#686,#685,#415,.T.);
#494=EDGE_CURVE('',#687,#686,#416,.T.);
#495=EDGE_CURVE('',#688,#687,#417,.T.);
#496=EDGE_CURVE('',#689,#688,#581,.T.);
#497=EDGE_CURVE('',#690,#689,#418,.T.);
#498=EDGE_CURVE('',#691,#690,#419,.T.);
#499=EDGE_CURVE('',#692,#691,#420,.T.);
#500=EDGE_CURVE('',#693,#692,#582,.T.);
#501=EDGE_CURVE('',#694,#693,#583,.T.);
#502=EDGE_CURVE('',#695,#694,#584,.T.);
#503=EDGE_CURVE('',#696,#695,#585,.T.);
#504=EDGE_CURVE('',#697,#696,#586,.T.);
#505=EDGE_CURVE('',#665,#697,#421,.T.);
#506=EDGE_CURVE('',#699,#698,#587,.T.);
#507=EDGE_CURVE('',#700,#699,#588,.T.);
#508=EDGE_CURVE('',#701,#700,#589,.T.);
#509=EDGE_CURVE('',#702,#701,#422,.T.);
#510=EDGE_CURVE('',#703,#702,#590,.T.);
#511=EDGE_CURVE('',#704,#703,#591,.T.);
#512=EDGE_CURVE('',#705,#704,#423,.T.);
#513=EDGE_CURVE('',#706,#705,#592,.T.);
#514=EDGE_CURVE('',#707,#706,#424,.T.);
#515=EDGE_CURVE('',#708,#707,#593,.T.);
#516=EDGE_CURVE('',#709,#708,#594,.T.);
#517=EDGE_CURVE('',#710,#709,#425,.T.);
#518=EDGE_CURVE('',#711,#710,#426,.T.);
#519=EDGE_CURVE('',#712,#711,#427,.T.);
#520=EDGE_CURVE('',#713,#712,#428,.T.);
#521=EDGE_CURVE('',#714,#713,#595,.T.);
#522=EDGE_CURVE('',#715,#714,#429,.T.);
#523=EDGE_CURVE('',#716,#715,#430,.T.);
#524=EDGE_CURVE('',#717,#716,#431,.T.);
#525=EDGE_CURVE('',#718,#717,#432,.T.);
#526=EDGE_CURVE('',#719,#718,#433,.T.);
#527=EDGE_CURVE('',#720,#719,#434,.T.);
#528=EDGE_CURVE('',#721,#720,#435,.T.);
#529=EDGE_CURVE('',#722,#721,#596,.T.);
#530=EDGE_CURVE('',#723,#722,#436,.T.);
#531=EDGE_CURVE('',#724,#723,#437,.T.);
#532=EDGE_CURVE('',#725,#724,#438,.T.);
#533=EDGE_CURVE('',#726,#725,#597,.T.);
#534=EDGE_CURVE('',#727,#726,#598,.T.);
#535=EDGE_CURVE('',#728,#727,#599,.T.);
#536=EDGE_CURVE('',#729,#728,#600,.T.);
#537=EDGE_CURVE('',#730,#729,#601,.T.);
#538=EDGE_CURVE('',#698,#730,#439,.T.);
#539=LINE('',#1079,#602);
#540=LINE('',#1080,#603);
#541=LINE('',#1081,#604);
#542=LINE('',#1082,#605);
#543=LINE('',#1083,#606);
#544=LINE('',#1084,#607);
#545=LINE('',#1085,#608);
#546=LINE('',#1086,#609);
#547=LINE('',#1087,#610);
#548=LINE('',#1088,#611);
#549=LINE('',#1089,#612);
#550=LINE('',#1090,#613);
#551=LINE('',#1091,#614);
#552=LINE('',#1092,#615);
#553=LINE('',#1093,#616);
#554=LINE('',#1094,#617);
#555=LINE('',#1095,#618);
#556=LINE('',#1096,#619);
#557=LINE('',#1097,#620);
#558=LINE('',#1098,#621);
#559=LINE('',#1099,#622);
#560=LINE('',#1100,#623);
#561=LINE('',#1101,#624);
#562=LINE('',#1102,#625);
#563=LINE('',#1103,#626);
#564=LINE('',#1104,#627);
#565=LINE('',#1105,#628);
#566=LINE('',#1106,#629);
#567=LINE('',#1107,#630);
#568=LINE('',#1108,#631);
#569=LINE('',#1109,#632);
#570=LINE('',#1110,#633);
#571=LINE('',#1111,#634);
#572=LINE('',#1112,#635);
#573=LINE('',#1113,#636);
#574=LINE('',#1114,#637);
#575=LINE('',#1116,#638);
#576=LINE('',#1117,#639);
#577=LINE('',#1119,#640);
#578=LINE('',#1121,#641);
#579=LINE('',#1122,#642);
#580=LINE('',#1127,#643);
#581=LINE('',#1135,#644);
#582=LINE('',#1139,#645);
#583=LINE('',#1140,#646);
#584=LINE('',#1141,#647);
#585=LINE('',#1142,#648);
#586=LINE('',#1143,#649);
#587=LINE('',#1145,#650);
#588=LINE('',#1146,#651);
#589=LINE('',#1147,#652);
#590=LINE('',#1149,#653);
#591=LINE('',#1150,#654);
#592=LINE('',#1152,#655);
#593=LINE('',#1154,#656);
#594=LINE('',#1155,#657);
#595=LINE('',#1160,#658);
#596=LINE('',#1168,#659);
#597=LINE('',#1172,#660);
#598=LINE('',#1173,#661);
#599=LINE('',#1174,#662);
#600=LINE('',#1175,#663);
#601=LINE('',#1176,#664);
#602=VECTOR('',#807,1.);
#603=VECTOR('',#808,1.);
#604=VECTOR('',#809,1.);
#605=VECTOR('',#810,1.);
#606=VECTOR('',#811,1.);
#607=VECTOR('',#812,1.);
#608=VECTOR('',#813,1.);
#609=VECTOR('',#814,1.);
#610=VECTOR('',#815,1.);
#611=VECTOR('',#816,1.);
#612=VECTOR('',#817,1.);
#613=VECTOR('',#818,1.);
#614=VECTOR('',#819,1.);
#615=VECTOR('',#820,1.);
#616=VECTOR('',#821,1.);
#617=VECTOR('',#822,1.);
#618=VECTOR('',#823,1.);
#619=VECTOR('',#824,1.);
#620=VECTOR('',#825,1.);
#621=VECTOR('',#826,1.);
#622=VECTOR('',#827,1.);
#623=VECTOR('',#828,1.);
#624=VECTOR('',#829,1.);
#625=VECTOR('',#830,1.);
#626=VECTOR('',#831,1.);
#627=VECTOR('',#832,1.);
#628=VECTOR('',#833,1.);
#629=VECTOR('',#834,1.);
#630=VECTOR('',#835,1.);
#631=VECTOR('',#836,1.);
#632=VECTOR('',#837,1.);
#633=VECTOR('',#838,1.);
#634=VECTOR('',#839,1.);
#635=VECTOR('',#840,1.);
#636=VECTOR('',#841,1.);
#637=VECTOR('',#842,1.);
#638=VECTOR('',#845,1.);
#639=VECTOR('',#846,1.);
#640=VECTOR('',#849,1.);
#641=VECTOR('',#852,1.);
#642=VECTOR('',#853,1.);
#643=VECTOR('',#862,1.);
#644=VECTOR('',#877,1.);
#645=VECTOR('',#884,1.);
#646=VECTOR('',#885,1.);
#647=VECTOR('',#886,1.);
#648=VECTOR('',#887,1.);
#649=VECTOR('',#888,1.);
#650=VECTOR('',#891,1.);
#651=VECTOR('',#892,1.);
#652=VECTOR('',#893,1.);
#653=VECTOR('',#896,1.);
#654=VECTOR('',#897,1.);
#655=VECTOR('',#900,1.);
#656=VECTOR('',#903,1.);
#657=VECTOR('',#904,1.);
#658=VECTOR('',#913,1.);
#659=VECTOR('',#928,1.);
#660=VECTOR('',#935,1.);
#661=VECTOR('',#936,1.);
#662=VECTOR('',#937,1.);
#663=VECTOR('',#938,1.);
#664=VECTOR('',#939,1.);
#665=VERTEX_POINT('',#1013);
#666=VERTEX_POINT('',#1014);
#667=VERTEX_POINT('',#1015);
#668=VERTEX_POINT('',#1016);
#669=VERTEX_POINT('',#1017);
#670=VERTEX_POINT('',#1018);
#671=VERTEX_POINT('',#1019);
#672=VERTEX_POINT('',#1020);
#673=VERTEX_POINT('',#1021);
#674=VERTEX_POINT('',#1022);
#675=VERTEX_POINT('',#1023);
#676=VERTEX_POINT('',#1024);
#677=VERTEX_POINT('',#1025);
#678=VERTEX_POINT('',#1026);
#679=VERTEX_POINT('',#1027);
#680=VERTEX_POINT('',#1028);
#681=VERTEX_POINT('',#1029);
#682=VERTEX_POINT('',#1030);
#683=VERTEX_POINT('',#1031);
#684=VERTEX_POINT('',#1032);
#685=VERTEX_POINT('',#1033);
#686=VERTEX_POINT('',#1034);
#687=VERTEX_POINT('',#1035);
#688=VERTEX_POINT('',#1036);
#689=VERTEX_POINT('',#1037);
#690=VERTEX_POINT('',#1038);
#691=VERTEX_POINT('',#1039);
#692=VERTEX_POINT('',#1040);
#693=VERTEX_POINT('',#1041);
#694=VERTEX_POINT('',#1042);
#695=VERTEX_POINT('',#1043);
#696=VERTEX_POINT('',#1044);
#697=VERTEX_POINT('',#1045);
#698=VERTEX_POINT('',#1046);
#699=VERTEX_POINT('',#1047);
#700=VERTEX_POINT('',#1048);
#701=VERTEX_POINT('',#1049);
#702=VERTEX_POINT('',#1050);
#703=VERTEX_POINT('',#1051);
#704=VERTEX_POINT('',#1052);
#705=VERTEX_POINT('',#1053);
#706=VERTEX_POINT('',#1054);
#707=VERTEX_POINT('',#1055);
#708=VERTEX_POINT('',#1056);
#709=VERTEX_POINT('',#1057);
#710=VERTEX_POINT('',#1058);
#711=VERTEX_POINT('',#1059);
#712=VERTEX_POINT('',#1060);
#713=VERTEX_POINT('',#1061);
#714=VERTEX_POINT('',#1062);
#715=VERTEX_POINT('',#1063);
#716=VERTEX_POINT('',#1064);
#717=VERTEX_POINT('',#1065);
#718=VERTEX_POINT('',#1066);
#719=VERTEX_POINT('',#1067);
#720=VERTEX_POINT('',#1068);
#721=VERTEX_POINT('',#1069);
#722=VERTEX_POINT('',#1070);
#723=VERTEX_POINT('',#1071);
#724=VERTEX_POINT('',#1072);
#725=VERTEX_POINT('',#1073);
#726=VERTEX_POINT('',#1074);
#727=VERTEX_POINT('',#1075);
#728=VERTEX_POINT('',#1076);
#729=VERTEX_POINT('',#1077);
#730=VERTEX_POINT('',#1078);
#731=SHAPE_DEFINITION_REPRESENTATION(#1213,#732);
#732=SHAPE_REPRESENTATION('master',(#733),#1215);
#733=AXIS2_PLACEMENT_3D('',#1012,#806,#805);
#734=AXIS2_PLACEMENT_3D('',#1115,#844,#843);
#735=AXIS2_PLACEMENT_3D('',#1118,#848,#847);
#736=AXIS2_PLACEMENT_3D('',#1120,#851,#850);
#737=AXIS2_PLACEMENT_3D('',#1123,#855,#854);
#738=AXIS2_PLACEMENT_3D('',#1124,#857,#856);
#739=AXIS2_PLACEMENT_3D('',#1125,#859,#858);
#740=AXIS2_PLACEMENT_3D('',#1126,#861,#860);
#741=AXIS2_PLACEMENT_3D('',#1128,#864,#863);
#742=AXIS2_PLACEMENT_3D('',#1129,#866,#865);
#743=AXIS2_PLACEMENT_3D('',#1130,#868,#867);
#744=AXIS2_PLACEMENT_3D('',#1131,#870,#869);
#745=AXIS2_PLACEMENT_3D('',#1132,#872,#871);
#746=AXIS2_PLACEMENT_3D('',#1133,#874,#873);
#747=AXIS2_PLACEMENT_3D('',#1134,#876,#875);
#748=AXIS2_PLACEMENT_3D('',#1136,#879,#878);
#749=AXIS2_PLACEMENT_3D('',#1137,#881,#880);
#750=AXIS2_PLACEMENT_3D('',#1138,#883,#882);
#751=AXIS2_PLACEMENT_3D('',#1144,#890,#889);
#752=AXIS2_PLACEMENT_3D('',#1148,#895,#894);
#753=AXIS2_PLACEMENT_3D('',#1151,#899,#898);
#754=AXIS2_PLACEMENT_3D('',#1153,#902,#901);
#755=AXIS2_PLACEMENT_3D('',#1156,#906,#905);
#756=AXIS2_PLACEMENT_3D('',#1157,#908,#907);
#757=AXIS2_PLACEMENT_3D('',#1158,#910,#909);
#758=AXIS2_PLACEMENT_3D('',#1159,#912,#911);
#759=AXIS2_PLACEMENT_3D('',#1161,#915,#914);
#760=AXIS2_PLACEMENT_3D('',#1162,#917,#916);
#761=AXIS2_PLACEMENT_3D('',#1163,#919,#918);
#762=AXIS2_PLACEMENT_3D('',#1164,#921,#920);
#763=AXIS2_PLACEMENT_3D('',#1165,#923,#922);
#764=AXIS2_PLACEMENT_3D('',#1166,#925,#924);
#765=AXIS2_PLACEMENT_3D('',#1167,#927,#926);
#766=AXIS2_PLACEMENT_3D('',#1169,#930,#929);
#767=AXIS2_PLACEMENT_3D('',#1170,#932,#931);
#768=AXIS2_PLACEMENT_3D('',#1171,#934,#933);
#769=AXIS2_PLACEMENT_3D('',#1177,#941,#940);
#770=AXIS2_PLACEMENT_3D('',#1178,#943,#942);
#771=AXIS2_PLACEMENT_3D('',#1179,#945,#944);
#772=AXIS2_PLACEMENT_3D('',#1180,#947,#946);
#773=AXIS2_PLACEMENT_3D('',#1181,#949,#948);
#774=AXIS2_PLACEMENT_3D('',#1182,#951,#950);
#775=AXIS2_PLACEMENT_3D('',#1183,#953,#952);
#776=AXIS2_PLACEMENT_3D('',#1184,#955,#954);
#777=AXIS2_PLACEMENT_3D('',#1185,#957,#956);
#778=AXIS2_PLACEMENT_3D('',#1186,#959,#958);
#779=AXIS2_PLACEMENT_3D('',#1187,#961,#960);
#780=AXIS2_PLACEMENT_3D('',#1188,#963,#962);
#781=AXIS2_PLACEMENT_3D('',#1189,#965,#964);
#782=AXIS2_PLACEMENT_3D('',#1190,#967,#966);
#783=AXIS2_PLACEMENT_3D('',#1191,#969,#968);
#784=AXIS2_PLACEMENT_3D('',#1192,#971,#970);
#785=AXIS2_PLACEMENT_3D('',#1193,#973,#972);
#786=AXIS2_PLACEMENT_3D('',#1194,#975,#974);
#787=AXIS2_PLACEMENT_3D('',#1195,#977,#976);
#788=AXIS2_PLACEMENT_3D('',#1196,#979,#978);
#789=AXIS2_PLACEMENT_3D('',#1197,#981,#980);
#790=AXIS2_PLACEMENT_3D('',#1198,#983,#982);
#791=AXIS2_PLACEMENT_3D('',#1199,#985,#984);
#792=AXIS2_PLACEMENT_3D('',#1200,#987,#986);
#793=AXIS2_PLACEMENT_3D('',#1201,#989,#988);
#794=AXIS2_PLACEMENT_3D('',#1202,#991,#990);
#795=AXIS2_PLACEMENT_3D('',#1203,#993,#992);
#796=AXIS2_PLACEMENT_3D('',#1204,#995,#994);
#797=AXIS2_PLACEMENT_3D('',#1205,#997,#996);
#798=AXIS2_PLACEMENT_3D('',#1206,#999,#998);
#799=AXIS2_PLACEMENT_3D('',#1207,#1001,#1000);
#800=AXIS2_PLACEMENT_3D('',#1208,#1003,#1002);
#801=AXIS2_PLACEMENT_3D('',#1209,#1005,#1004);
#802=AXIS2_PLACEMENT_3D('',#1210,#1007,#1006);
#803=AXIS2_PLACEMENT_3D('',#1211,#1009,#1008);
#804=AXIS2_PLACEMENT_3D('',#1212,#1011,#1010);
#805=DIRECTION('',(1.,0.,0.));
#806=DIRECTION('',(0.,0.,1.));
#807=DIRECTION('',(2.38176926394337E-016,-1.,-9.53285455333068E-016));
#808=DIRECTION('',(2.38176926394337E-016,-1.,-9.53285455333068E-016));
#809=DIRECTION('',(2.38176926394337E-016,-1.,-9.53285455333068E-016));
#810=DIRECTION('',(2.38176926394337E-016,-1.,-9.53285455333068E-016));
#811=DIRECTION('',(2.38176926394337E-016,-1.,-9.53285455333068E-016));
#812=DIRECTION('',(2.38176926394337E-016,-1.,-9.53285455333068E-016));
#813=DIRECTION('',(2.38176926394337E-016,-1.,-9.53285455333068E-016));
#814=DIRECTION('',(2.38176926394337E-016,-1.,-9.53285455333068E-016));
#815=DIRECTION('',(2.38176926394337E-016,-1.,-9.53285455333068E-016));
#816=DIRECTION('',(2.38176926394337E-016,-1.,-9.53285455333068E-016));
#817=DIRECTION('',(2.38176926394337E-016,-1.,-9.53285455333068E-016));
#818=DIRECTION('',(2.38176926394337E-016,-1.,-9.53285455333068E-016));
#819=DIRECTION('',(2.38176926394337E-016,-1.,-9.53285455333068E-016));
#820=DIRECTION('',(2.38176926394337E-016,-1.,-9.53285455333068E-016));
#821=DIRECTION('',(2.38176926394337E-016,-1.,-9.53285455333068E-016));
#822=DIRECTION('',(2.38176926394337E-016,-1.,-9.53285455333068E-016));
#823=DIRECTION('',(2.38176926394337E-016,-1.,-9.53285455333068E-016));
#824=DIRECTION('',(2.38176926394337E-016,-1.,-9.53285455333068E-016));
#825=DIRECTION('',(2.38176926394337E-016,-1.,-9.53285455333068E-016));
#826=DIRECTION('',(2.38176926394337E-016,-1.,-9.53285455333068E-016));
#827=DIRECTION('',(2.38176926394337E-016,-1.,-9.53285455333068E-016));
#828=DIRECTION('',(2.38176926394337E-016,-1.,-9.53285455333068E-016));
#829=DIRECTION('',(2.38176926394337E-016,-1.,-9.53285455333068E-016));
#830=DIRECTION('',(2.38176926394337E-016,-1.,-9.53285455333068E-016));
#831=DIRECTION('',(2.38176926394337E-016,-1.,-9.53285455333068E-016));
#832=DIRECTION('',(2.38176926394337E-016,-1.,-9.53285455333068E-016));
#833=DIRECTION('',(2.38176926394337E-016,-1.,-9.53285455333068E-016));
#834=DIRECTION('',(2.38176926394337E-016,-1.,-9.53285455333068E-016));
#835=DIRECTION('',(2.38176926394337E-016,-1.,-9.53285455333068E-016));
#836=DIRECTION('',(2.38176926394337E-016,-1.,-9.53285455333068E-016));
#837=DIRECTION('',(2.38176926394337E-016,-1.,-9.53285455333068E-016));
#838=DIRECTION('',(2.38176926394337E-016,-1.,-9.53285455333068E-016));
#839=DIRECTION('',(2.38176926394337E-016,-1.,-9.53285455333068E-016));
#840=DIRECTION('',(-0.237716814768187,0.,-0.971334502618159));
#841=DIRECTION('',(-0.797836591370939,-0.,-0.602873762465743));
#842=DIRECTION('',(-0.999776827172219,0.,0.0211257153594834));
#843=DIRECTION('',(0.921580199886047,0.,-0.388188015242607));
#844=DIRECTION('',(0.,1.,0.));
#845=DIRECTION('',(-0.999511992618007,0.,0.0312374232737112));
#846=DIRECTION('',(0.0747398645140867,0.,0.99720306490324));
#847=DIRECTION('',(-0.975130862999794,0.,0.22162987168989));
#848=DIRECTION('',(0.,1.,0.));
#849=DIRECTION('',(0.984071392167096,0.,0.177773718862813));
#850=DIRECTION('',(-0.286723603317231,0.,-0.958013348185078));
#851=DIRECTION('',(0.,-1.,-0.));
#852=DIRECTION('',(0.356694974253895,-0.,0.934220902860781));
#853=DIRECTION('',(0.951976706242626,-0.,0.306170460318171));
#854=DIRECTION('',(-0.725566745118104,0.,0.688151798935904));
#855=DIRECTION('',(0.,1.,0.));
#856=DIRECTION('',(0.5847298155818,0.,-0.811228107729062));
#857=DIRECTION('',(0.,-1.,0.));
#858=DIRECTION('',(-0.0458951278087289,0.,-0.998946263441343));
#859=DIRECTION('',(0.,-1.,-0.));
#860=DIRECTION('',(-0.951451043929077,-0.,-0.307800115344796));
#861=DIRECTION('',(0.,-1.,0.));
#862=DIRECTION('',(0.307800115344856,0.,-0.951451043929058));
#863=DIRECTION('',(-0.167816984121345,0.,0.985818167737041));
#864=DIRECTION('',(0.,1.,0.));
#865=DIRECTION('',(-0.554912292216207,0.,0.831908857957021));
#866=DIRECTION('',(0.,1.,0.));
#867=DIRECTION('',(-0.863947973040881,0.,0.503581075774849));
#868=DIRECTION('',(0.,1.,0.));
#869=DIRECTION('',(-0.899977174115762,0.,-0.435937020761724));
#870=DIRECTION('',(0.,1.,0.));
#871=DIRECTION('',(0.914430655595881,0.,0.404742604758243));
#872=DIRECTION('',(0.,-1.,0.));
#873=DIRECTION('',(0.468849562344137,0.,-0.883278035439414));
#874=DIRECTION('',(0.,-1.,0.));
#875=DIRECTION('',(-0.189246905084272,0.,-0.981929533579688));
#876=DIRECTION('',(0.,-1.,-0.));
#877=DIRECTION('',(0.217874361894061,0.,0.975976824739838));
#878=DIRECTION('',(-0.400011272433812,0.,0.916510219215194));
#879=DIRECTION('',(0.,1.,0.));
#880=DIRECTION('',(-0.867479540073157,0.,0.497472861123564));
#881=DIRECTION('',(0.,1.,0.));
#882=DIRECTION('',(-0.983485874327269,0.,0.180984902681763));
#883=DIRECTION('',(0.,1.,0.));
#884=DIRECTION('',(0.998393474859767,0.,0.0566610038513317));
#885=DIRECTION('',(-0.0566610038511978,0.,0.998393474859774));
#886=DIRECTION('',(0.998393474859769,0.,0.0566610038512885));
#887=DIRECTION('',(-0.,-0.,-1.));
#888=DIRECTION('',(-0.92530098600378,-0.,-0.379233549808601));
#889=DIRECTION('',(0.971334502618153,0.,-0.237716814768212));
#890=DIRECTION('',(0.,1.,0.));
#891=DIRECTION('',(-0.237716814768187,0.,-0.971334502618159));
#892=DIRECTION('',(-0.797836591370939,-0.,-0.602873762465743));
#893=DIRECTION('',(-0.999776827172219,0.,0.0211257153594834));
#894=DIRECTION('',(0.921580199886047,0.,-0.388188015242607));
#895=DIRECTION('',(0.,1.,0.));
#896=DIRECTION('',(-0.999511992618007,0.,0.0312374232737112));
#897=DIRECTION('',(0.0747398645140867,0.,0.99720306490324));
#898=DIRECTION('',(-0.975130862999794,0.,0.22162987168989));
#899=DIRECTION('',(0.,1.,0.));
#900=DIRECTION('',(0.984071392167096,0.,0.177773718862813));
#901=DIRECTION('',(-0.286723603317231,0.,-0.958013348185078));
#902=DIRECTION('',(0.,-1.,-0.));
#903=DIRECTION('',(0.356694974253895,-0.,0.934220902860781));
#904=DIRECTION('',(0.951976706242626,-0.,0.306170460318171));
#905=DIRECTION('',(-0.725566745118104,0.,0.688151798935904));
#906=DIRECTION('',(0.,1.,0.));
#907=DIRECTION('',(0.5847298155818,0.,-0.811228107729062));
#908=DIRECTION('',(0.,-1.,0.));
#909=DIRECTION('',(-0.0458951278087289,0.,-0.998946263441343));
#910=DIRECTION('',(0.,-1.,-0.));
#911=DIRECTION('',(-0.951451043929077,-0.,-0.307800115344796));
#912=DIRECTION('',(0.,-1.,0.));
#913=DIRECTION('',(0.307800115344856,0.,-0.951451043929058));
#914=DIRECTION('',(-0.167816984121345,0.,0.985818167737041));
#915=DIRECTION('',(0.,1.,0.));
#916=DIRECTION('',(-0.554912292216207,0.,0.831908857957021));
#917=DIRECTION('',(0.,1.,0.));
#918=DIRECTION('',(-0.863947973040881,0.,0.503581075774849));
#919=DIRECTION('',(0.,1.,0.));
#920=DIRECTION('',(-0.899977174115762,0.,-0.435937020761724));
#921=DIRECTION('',(0.,1.,0.));
#922=DIRECTION('',(0.914430655595881,0.,0.404742604758243));
#923=DIRECTION('',(0.,-1.,0.));
#924=DIRECTION('',(0.468849562344137,0.,-0.883278035439414));
#925=DIRECTION('',(0.,-1.,0.));
#926=DIRECTION('',(-0.189246905084272,0.,-0.981929533579688));
#927=DIRECTION('',(0.,-1.,-0.));
#928=DIRECTION('',(0.217874361894061,0.,0.975976824739838));
#929=DIRECTION('',(-0.400011272433812,0.,0.916510219215194));
#930=DIRECTION('',(0.,1.,0.));
#931=DIRECTION('',(-0.867479540073157,0.,0.497472861123564));
#932=DIRECTION('',(0.,1.,0.));
#933=DIRECTION('',(-0.983485874327269,0.,0.180984902681763));
#934=DIRECTION('',(0.,1.,0.));
#935=DIRECTION('',(0.998393474859767,0.,0.0566610038513317));
#936=DIRECTION('',(-0.0566610038511978,0.,0.998393474859774));
#937=DIRECTION('',(0.998393474859769,0.,0.0566610038512885));
#938=DIRECTION('',(-0.,-0.,-1.));
#939=DIRECTION('',(-0.92530098600378,-0.,-0.379233549808601));
#940=DIRECTION('',(0.971334502618153,0.,-0.237716814768212));
#941=DIRECTION('',(0.,1.,0.));
#942=DIRECTION('',(0.,9.53285455333068E-016,-1.));
#943=DIRECTION('',(2.38176926394337E-016,-1.,-9.53285455333068E-016));
#944=DIRECTION('',(0.92530098600378,0.,0.379233549808601));
#945=DIRECTION('',(-0.379233549808601,-9.72400653041776E-016,0.92530098600378)
);
#946=DIRECTION('',(2.38176926394337E-016,-1.,0.));
#947=DIRECTION('',(-1.,-2.38176926394337E-016,0.));
#948=DIRECTION('',(-0.998393474859769,6.16297582203915E-033,
-0.0566610038512886));
#949=DIRECTION('',(0.0566610038512886,9.65249322026976E-016,-0.998393474859769
));
#950=DIRECTION('',(0.0566610038511978,1.54074395550979E-033,-0.998393474859774
));
#951=DIRECTION('',(0.998393474859774,1.83780178318345E-016,0.0566610038511978)
);
#952=DIRECTION('',(-0.998393474859767,0.,-0.0566610038513317));
#953=DIRECTION('',(0.0566610038513317,9.65249322026984E-016,-0.998393474859767
));
#954=DIRECTION('',(0.,9.53285455333068E-016,-1.));
#955=DIRECTION('',(2.38176926394337E-016,-1.,-9.53285455333068E-016));
#956=DIRECTION('',(0.,9.53285455333068E-016,-1.));
#957=DIRECTION('',(2.38176926394337E-016,-1.,-9.53285455333068E-016));
#958=DIRECTION('',(0.,9.53285455333068E-016,-1.));
#959=DIRECTION('',(2.38176926394337E-016,-1.,-9.53285455333068E-016));
#960=DIRECTION('',(-0.217874361894061,1.23259516440783E-032,-0.975976824739838
));
#961=DIRECTION('',(0.975976824739838,4.4015162063222E-016,-0.217874361894061)
);
#962=DIRECTION('',(0.,9.53285455333068E-016,-1.));
#963=DIRECTION('',(2.38176926394337E-016,-1.,-9.53285455333068E-016));
#964=DIRECTION('',(0.,9.53285455333068E-016,-1.));
#965=DIRECTION('',(2.38176926394337E-016,-1.,-9.53285455333068E-016));
#966=DIRECTION('',(0.,9.53285455333068E-016,-1.));
#967=DIRECTION('',(2.38176926394337E-016,-1.,-9.53285455333068E-016));
#968=DIRECTION('',(0.,9.53285455333068E-016,-1.));
#969=DIRECTION('',(2.38176926394337E-016,-1.,-9.53285455333068E-016));
#970=DIRECTION('',(0.,9.53285455333068E-016,-1.));
#971=DIRECTION('',(2.38176926394337E-016,-1.,-9.53285455333068E-016));
#972=DIRECTION('',(0.,9.53285455333068E-016,-1.));
#973=DIRECTION('',(2.38176926394337E-016,-1.,-9.53285455333068E-016));
#974=DIRECTION('',(0.,9.53285455333068E-016,-1.));
#975=DIRECTION('',(2.38176926394337E-016,-1.,-9.53285455333068E-016));
#976=DIRECTION('',(-0.307800115344856,0.,0.951451043929058));
#977=DIRECTION('',(-0.951451043929058,6.68076878503853E-017,-0.307800115344856
));
#978=DIRECTION('',(0.,9.53285455333068E-016,-1.));
#979=DIRECTION('',(2.38176926394337E-016,-1.,-9.53285455333068E-016));
#980=DIRECTION('',(0.,9.53285455333068E-016,-1.));
#981=DIRECTION('',(2.38176926394337E-016,-1.,-9.53285455333068E-016));
#982=DIRECTION('',(0.,9.53285455333068E-016,-1.));
#983=DIRECTION('',(2.38176926394337E-016,-1.,-9.53285455333068E-016));
#984=DIRECTION('',(0.,9.53285455333068E-016,-1.));
#985=DIRECTION('',(2.38176926394337E-016,-1.,-9.53285455333068E-016));
#986=DIRECTION('',(-0.951976706242626,0.,-0.306170460318171));
#987=DIRECTION('',(0.306170460318171,9.80428287068297E-016,-0.951976706242626)
);
#988=DIRECTION('',(-0.356694974253895,2.46519032881566E-032,-0.934220902860781
));
#989=DIRECTION('',(0.934220902860781,5.62541994163364E-016,-0.356694974253895)
);
#990=DIRECTION('',(0.,9.53285455333068E-016,-1.));
#991=DIRECTION('',(2.38176926394337E-016,-1.,-9.53285455333068E-016));
#992=DIRECTION('',(-0.984071392167096,2.46519032881566E-032,-0.177773718862813
));
#993=DIRECTION('',(0.177773718862813,9.80442543114691E-016,-0.984071392167096)
);
#994=DIRECTION('',(0.,9.53285455333068E-016,-1.));
#995=DIRECTION('',(2.38176926394337E-016,-1.,-9.53285455333068E-016));
#996=DIRECTION('',(-0.0747398645140868,0.,-0.99720306490324));
#997=DIRECTION('',(0.99720306490324,3.08759186764509E-016,-0.0747398645140868)
);
#998=DIRECTION('',(0.999511992618007,0.,-0.0312374232737112));
#999=DIRECTION('',(0.0312374232737112,-9.45380211529907E-016,0.999511992618007
));
#1000=DIRECTION('',(0.,9.53285455333068E-016,-1.));
#1001=DIRECTION('',(2.38176926394337E-016,-1.,-9.53285455333068E-016));
#1002=DIRECTION('',(0.99977682717222,0.,-0.0211257153594834));
#1003=DIRECTION('',(0.0211257153594834,-9.48041049970116E-016,0.99977682717222
));
#1004=DIRECTION('',(0.797836591370939,0.,0.602873762465743));
#1005=DIRECTION('',(-0.602873762465743,-9.04156638034309E-016,
0.797836591370939));
#1006=DIRECTION('',(0.237716814768187,-1.23259516440783E-032,0.971334502618159
));
#1007=DIRECTION('',(-0.971334502618159,-4.57961448340983E-016,
0.237716814768187));
#1008=DIRECTION('',(0.,-0.,1.));
#1009=DIRECTION('',(0.,1.,0.));
#1010=DIRECTION('',(0.,-0.,1.));
#1011=DIRECTION('',(0.,1.,0.));
#1012=CARTESIAN_POINT('',(0.,0.,0.));
#1013=CARTESIAN_POINT('',(127.188844289702,2168.281361,2189.43020905619));
#1014=CARTESIAN_POINT('',(130.578501335033,2168.281361,2203.28068422508));
#1015=CARTESIAN_POINT('',(173.283341618112,2168.281361,2235.5499834969));
#1016=CARTESIAN_POINT('',(273.29985658051,2168.281361,2233.43659141887));
#1017=CARTESIAN_POINT('',(300.157999006056,2168.281361,2249.5));
#1018=CARTESIAN_POINT('',(329.069490743145,2168.281361,2248.59643855048));
#1019=CARTESIAN_POINT('',(328.370830723313,2168.281361,2239.27469415568));
#1020=CARTESIAN_POINT('',(321.222504512444,2168.281361,2232.45265203454));
#1021=CARTESIAN_POINT('',(317.308366005326,2168.281361,2231.74555805326));
#1022=CARTESIAN_POINT('',(309.917091111382,2168.281361,2227.88848952046));
#1023=CARTESIAN_POINT('',(309.371648132134,2168.281361,2226.45991813787));
#1024=CARTESIAN_POINT('',(301.241655903185,2168.281361,2223.84518665674));
#1025=CARTESIAN_POINT('',(293.635778202701,2168.281361,2219.06064265374));
#1026=CARTESIAN_POINT('',(287.137817775379,2168.281361,2213.38212504681));
#1027=CARTESIAN_POINT('',(277.472618896396,2168.281361,2210.5050848549));
#1028=CARTESIAN_POINT('',(271.00759751454,2168.281361,2215.43937388762));
#1029=CARTESIAN_POINT('',(269.355657239956,2168.281361,2220.54574071598));
#1030=CARTESIAN_POINT('',(191.415934867337,2168.281361,2221.85304985551));
#1031=CARTESIAN_POINT('',(151.351599519837,2168.281361,2205.92344783973));
#1032=CARTESIAN_POINT('',(141.029169323618,2168.281361,2194.95662160138));
#1033=CARTESIAN_POINT('',(140.74914599557,2168.281361,2187.65457281029));
#1034=CARTESIAN_POINT('',(142.95278129468,2168.281361,2182.89854801897));
#1035=CARTESIAN_POINT('',(135.809441849435,2168.281361,2162.24962735165));
#1036=CARTESIAN_POINT('',(127.508615102197,2168.281361,2161.00529762957));
#1037=CARTESIAN_POINT('',(126.751764417104,2168.281361,2157.61495503938));
#1038=CARTESIAN_POINT('',(122.251151374908,2168.281361,2156.17474481295));
#1039=CARTESIAN_POINT('',(118.01888599931,2168.281361,2152.38095296759));
#1040=CARTESIAN_POINT('',(116.723372773544,2168.281361,2148.84653962204));
#1041=CARTESIAN_POINT('',(113.47859398025,2168.281361,2148.66239135952));
#1042=CARTESIAN_POINT('',(113.563585486027,2168.281361,2147.16480114723));
#1043=CARTESIAN_POINT('',(103.080453999999,2168.281361,2146.56986060679));
#1044=CARTESIAN_POINT('',(103.080453999999,2168.281361,2167.89637123873));
#1045=CARTESIAN_POINT('',(111.680670031449,2168.281361,2171.4211599335));
#1046=CARTESIAN_POINT('',(127.188844289702,168.281361,2189.43020905619));
#1047=CARTESIAN_POINT('',(130.578501335034,168.281361,2203.28068422507));
#1048=CARTESIAN_POINT('',(173.283341618112,168.281361,2235.54998349689));
#1049=CARTESIAN_POINT('',(273.29985658051,168.281361,2233.43659141887));
#1050=CARTESIAN_POINT('',(300.157999006057,168.281361,2249.5));
#1051=CARTESIAN_POINT('',(329.069490743145,168.281361,2248.59643855048));
#1052=CARTESIAN_POINT('',(328.370830723313,168.281361,2239.27469415568));
#1053=CARTESIAN_POINT('',(321.222504512445,168.281361,2232.45265203454));
#1054=CARTESIAN_POINT('',(317.308366005327,168.281361,2231.74555805326));
#1055=CARTESIAN_POINT('',(309.917091111383,168.281361,2227.88848952046));
#1056=CARTESIAN_POINT('',(309.371648132134,168.281361,2226.45991813787));
#1057=CARTESIAN_POINT('',(301.241655903186,168.281361,2223.84518665674));
#1058=CARTESIAN_POINT('',(293.635778202701,168.281361,2219.06064265374));
#1059=CARTESIAN_POINT('',(287.137817775379,168.281361,2213.38212504681));
#1060=CARTESIAN_POINT('',(277.472618896397,168.281361,2210.5050848549));
#1061=CARTESIAN_POINT('',(271.00759751454,168.281361,2215.43937388762));
#1062=CARTESIAN_POINT('',(269.355657239956,168.281361,2220.54574071598));
#1063=CARTESIAN_POINT('',(191.415934867337,168.281361,2221.85304985551));
#1064=CARTESIAN_POINT('',(151.351599519838,168.281361,2205.92344783973));
#1065=CARTESIAN_POINT('',(141.029169323618,168.281361,2194.95662160137));
#1066=CARTESIAN_POINT('',(140.749145995571,168.281361,2187.65457281029));
#1067=CARTESIAN_POINT('',(142.95278129468,168.281361,2182.89854801897));
#1068=CARTESIAN_POINT('',(135.809441849436,168.281361,2162.24962735165));
#1069=CARTESIAN_POINT('',(127.508615102198,168.281361,2161.00529762957));
#1070=CARTESIAN_POINT('',(126.751764417105,168.281361,2157.61495503938));
#1071=CARTESIAN_POINT('',(122.251151374908,168.281361,2156.17474481295));
#1072=CARTESIAN_POINT('',(118.01888599931,168.281361,2152.38095296759));
#1073=CARTESIAN_POINT('',(116.723372773545,168.281361,2148.84653962204));
#1074=CARTESIAN_POINT('',(113.478593980251,168.281361,2148.66239135952));
#1075=CARTESIAN_POINT('',(113.563585486027,168.281361,2147.16480114723));
#1076=CARTESIAN_POINT('',(103.080454,168.281361,2146.56986060679));
#1077=CARTESIAN_POINT('',(103.080454,168.281361,2167.89637123873));
#1078=CARTESIAN_POINT('',(111.680670031449,168.281361,2171.4211599335));
#1079=CARTESIAN_POINT('',(111.680670031449,2168.281361,2171.4211599335));
#1080=CARTESIAN_POINT('',(103.080453999999,2168.281361,2167.89637123873));
#1081=CARTESIAN_POINT('',(103.080453999999,2168.281361,2146.56986060679));
#1082=CARTESIAN_POINT('',(113.563585486027,2168.281361,2147.16480114723));
#1083=CARTESIAN_POINT('',(113.47859398025,2168.281361,2148.66239135952));
#1084=CARTESIAN_POINT('',(116.723372773544,2168.281361,2148.84653962204));
#1085=CARTESIAN_POINT('',(118.01888599931,2168.281361,2152.38095296759));
#1086=CARTESIAN_POINT('',(122.251151374908,2168.281361,2156.17474481295));
#1087=CARTESIAN_POINT('',(126.751764417104,2168.281361,2157.61495503938));
#1088=CARTESIAN_POINT('',(127.508615102197,2168.281361,2161.00529762957));
#1089=CARTESIAN_POINT('',(135.809441849435,2168.281361,2162.24962735165));
#1090=CARTESIAN_POINT('',(142.95278129468,2168.281361,2182.89854801897));
#1091=CARTESIAN_POINT('',(140.74914599557,2168.281361,2187.65457281029));
#1092=CARTESIAN_POINT('',(141.029169323618,2168.281361,2194.95662160138));
#1093=CARTESIAN_POINT('',(151.351599519837,2168.281361,2205.92344783973));
#1094=CARTESIAN_POINT('',(191.415934867337,2168.281361,2221.85304985551));
#1095=CARTESIAN_POINT('',(269.355657239956,2168.281361,2220.54574071598));
#1096=CARTESIAN_POINT('',(271.00759751454,2168.281361,2215.43937388762));
#1097=CARTESIAN_POINT('',(277.472618896396,2168.281361,2210.5050848549));
#1098=CARTESIAN_POINT('',(287.137817775379,2168.281361,2213.38212504681));
#1099=CARTESIAN_POINT('',(293.635778202701,2168.281361,2219.06064265374));
#1100=CARTESIAN_POINT('',(301.241655903185,2168.281361,2223.84518665674));
#1101=CARTESIAN_POINT('',(309.371648132134,2168.281361,2226.45991813787));
#1102=CARTESIAN_POINT('',(309.917091111382,2168.281361,2227.88848952046));
#1103=CARTESIAN_POINT('',(317.308366005326,2168.281361,2231.74555805326));
#1104=CARTESIAN_POINT('',(321.222504512444,2168.281361,2232.45265203454));
#1105=CARTESIAN_POINT('',(328.370830723313,2168.281361,2239.27469415568));
#1106=CARTESIAN_POINT('',(329.069490743145,2168.281361,2248.59643855048));
#1107=CARTESIAN_POINT('',(300.157999006056,2168.281361,2249.5));
#1108=CARTESIAN_POINT('',(273.29985658051,2168.281361,2233.43659141887));
#1109=CARTESIAN_POINT('',(173.283341618112,2168.281361,2235.5499834969));
#1110=CARTESIAN_POINT('',(130.578501335033,2168.281361,2203.28068422508));
#1111=CARTESIAN_POINT('',(127.188844289702,2168.281361,2189.43020905619));
#1112=CARTESIAN_POINT('',(130.578501335033,2168.281361,2203.28068422508));
#1113=CARTESIAN_POINT('',(173.283341618112,2168.281361,2235.5499834969));
#1114=CARTESIAN_POINT('',(273.29985658051,2168.281361,2233.43659141887));
#1115=CARTESIAN_POINT('',(275.785185671792,2168.281361,2259.76631652381));
#1116=CARTESIAN_POINT('',(329.069490743145,2168.281361,2248.59643855048));
#1117=CARTESIAN_POINT('',(328.370830723313,2168.281361,2239.27469415568));
#1118=CARTESIAN_POINT('',(329.943686806842,2168.281361,2230.47048268043));
#1119=CARTESIAN_POINT('',(317.308366005326,2168.281361,2231.74555805326));
#1120=CARTESIAN_POINT('',(311.630908857459,2168.281361,2233.61477175919));
#1121=CARTESIAN_POINT('',(309.371648132134,2168.281361,2226.45991813787));
#1122=CARTESIAN_POINT('',(301.241655903185,2168.281361,2223.84518665674));
#1123=CARTESIAN_POINT('',(306.794149239633,2168.281361,2206.58080291321));
#1124=CARTESIAN_POINT('',(260.159444881025,2168.281361,2250.81071823547));
#1125=CARTESIAN_POINT('',(278.176025164253,2168.281361,2225.81531704087));
#1126=CARTESIAN_POINT('',(277.800277274332,2168.281361,2217.63684650264));
#1127=CARTESIAN_POINT('',(269.355657239956,2168.281361,2220.54574071598));
#1128=CARTESIAN_POINT('',(226.900381926841,2168.281361,2013.40446661755));
#1129=CARTESIAN_POINT('',(208.784980134079,2168.281361,2119.8209434519));
#1130=CARTESIAN_POINT('',(169.886816508829,2168.281361,2178.13597328999));
#1131=CARTESIAN_POINT('',(147.743877933656,2168.281361,2191.04272829892));
#1132=CARTESIAN_POINT('',(3.53504488068322,2168.281361,2121.18987996374));
#1133=CARTESIAN_POINT('',(128.293073620844,2168.281361,2176.40991136556));
#1134=CARTESIAN_POINT('',(129.895659934232,2168.281361,2173.39075681322));
#1135=CARTESIAN_POINT('',(126.751764417104,2168.281361,2157.61495503938));
#1136=CARTESIAN_POINT('',(131.549100493636,2168.281361,2134.87118170782));
#1137=CARTESIAN_POINT('',(125.87268886818,2168.281361,2147.87703834668));
#1138=CARTESIAN_POINT('',(127.706557146503,2168.281361,2146.82537123847));
#1139=CARTESIAN_POINT('',(113.47859398025,2168.281361,2148.66239135952));
#1140=CARTESIAN_POINT('',(113.563585486027,2168.281361,2147.16480114723));
#1141=CARTESIAN_POINT('',(103.080453999999,2168.281361,2146.56986060679));
#1142=CARTESIAN_POINT('',(103.080453999999,2168.281361,2167.89637123873));
#1143=CARTESIAN_POINT('',(111.680670031449,2168.281361,2171.4211599335));
#1144=CARTESIAN_POINT('',(101.747870654753,2168.281361,2195.65643411131));
#1145=CARTESIAN_POINT('',(130.578501335034,168.281361,2203.28068422507));
#1146=CARTESIAN_POINT('',(173.283341618112,168.281361,2235.5499834969));
#1147=CARTESIAN_POINT('',(273.29985658051,168.281361,2233.43659141887));
#1148=CARTESIAN_POINT('',(275.785185671792,168.281361,2259.76631652381));
#1149=CARTESIAN_POINT('',(329.069490743145,168.281361,2248.59643855048));
#1150=CARTESIAN_POINT('',(328.370830723313,168.281361,2239.27469415568));
#1151=CARTESIAN_POINT('',(329.943686806842,168.281361,2230.47048268043));
#1152=CARTESIAN_POINT('',(317.308366005327,168.281361,2231.74555805326));
#1153=CARTESIAN_POINT('',(311.63090885746,168.281361,2233.61477175918));
#1154=CARTESIAN_POINT('',(309.371648132134,168.281361,2226.45991813787));
#1155=CARTESIAN_POINT('',(301.241655903186,168.281361,2223.84518665674));
#1156=CARTESIAN_POINT('',(306.794149239634,168.281361,2206.58080291321));
#1157=CARTESIAN_POINT('',(260.159444881026,168.281361,2250.81071823547));
#1158=CARTESIAN_POINT('',(278.176025164253,168.281361,2225.81531704087));
#1159=CARTESIAN_POINT('',(277.800277274332,168.281361,2217.63684650264));
#1160=CARTESIAN_POINT('',(269.355657239956,168.281361,2220.54574071598));
#1161=CARTESIAN_POINT('',(226.900381926842,168.281361,2013.40446661755));
#1162=CARTESIAN_POINT('',(208.78498013408,168.281361,2119.8209434519));
#1163=CARTESIAN_POINT('',(169.886816508829,168.281361,2178.13597328998));
#1164=CARTESIAN_POINT('',(147.743877933656,168.281361,2191.04272829892));
#1165=CARTESIAN_POINT('',(3.5350448806837,168.281361,2121.18987996373));
#1166=CARTESIAN_POINT('',(128.293073620844,168.281361,2176.40991136556));
#1167=CARTESIAN_POINT('',(129.895659934233,168.281361,2173.39075681322));
#1168=CARTESIAN_POINT('',(126.751764417105,168.281361,2157.61495503938));
#1169=CARTESIAN_POINT('',(131.549100493636,168.281361,2134.87118170782));
#1170=CARTESIAN_POINT('',(125.87268886818,168.281361,2147.87703834668));
#1171=CARTESIAN_POINT('',(127.706557146504,168.281361,2146.82537123847));
#1172=CARTESIAN_POINT('',(113.478593980251,168.281361,2148.66239135952));
#1173=CARTESIAN_POINT('',(113.563585486027,168.281361,2147.16480114723));
#1174=CARTESIAN_POINT('',(103.080454,168.281361,2146.56986060679));
#1175=CARTESIAN_POINT('',(103.080454,168.281361,2167.89637123873));
#1176=CARTESIAN_POINT('',(111.680670031449,168.281361,2171.4211599335));
#1177=CARTESIAN_POINT('',(101.747870654754,168.281361,2195.65643411131));
#1178=CARTESIAN_POINT('',(101.747870654753,2168.281361,2195.65643411131));
#1179=CARTESIAN_POINT('',(111.680670031449,2168.281361,2171.4211599335));
#1180=CARTESIAN_POINT('',(103.080453999999,2168.281361,2167.89637123873));
#1181=CARTESIAN_POINT('',(103.080453999999,2168.281361,2146.56986060679));
#1182=CARTESIAN_POINT('',(113.563585486027,2168.281361,2147.16480114723));
#1183=CARTESIAN_POINT('',(113.47859398025,2168.281361,2148.66239135952));
#1184=CARTESIAN_POINT('',(127.706557146503,2168.281361,2146.82537123847));
#1185=CARTESIAN_POINT('',(125.87268886818,2168.281361,2147.87703834668));
#1186=CARTESIAN_POINT('',(131.549100493636,2168.281361,2134.87118170782));
#1187=CARTESIAN_POINT('',(126.751764417104,2168.281361,2157.61495503938));
#1188=CARTESIAN_POINT('',(129.895659934232,2168.281361,2173.39075681322));
#1189=CARTESIAN_POINT('',(128.293073620844,2168.281361,2176.40991136556));
#1190=CARTESIAN_POINT('',(3.53504488068322,2168.281361,2121.18987996374));
#1191=CARTESIAN_POINT('',(147.743877933656,2168.281361,2191.04272829892));
#1192=CARTESIAN_POINT('',(169.886816508829,2168.281361,2178.13597328999));
#1193=CARTESIAN_POINT('',(208.784980134079,2168.281361,2119.8209434519));
#1194=CARTESIAN_POINT('',(226.900381926841,2168.281361,2013.40446661755));
#1195=CARTESIAN_POINT('',(269.355657239956,2168.281361,2220.54574071598));
#1196=CARTESIAN_POINT('',(277.800277274332,2168.281361,2217.63684650264));
#1197=CARTESIAN_POINT('',(278.176025164253,2168.281361,2225.81531704087));
#1198=CARTESIAN_POINT('',(260.159444881025,2168.281361,2250.81071823547));
#1199=CARTESIAN_POINT('',(306.794149239633,2168.281361,2206.58080291321));
#1200=CARTESIAN_POINT('',(301.241655903185,2168.281361,2223.84518665674));
#1201=CARTESIAN_POINT('',(309.371648132134,2168.281361,2226.45991813787));
#1202=CARTESIAN_POINT('',(311.630908857459,2168.281361,2233.61477175919));
#1203=CARTESIAN_POINT('',(317.308366005326,2168.281361,2231.74555805326));
#1204=CARTESIAN_POINT('',(329.943686806842,2168.281361,2230.47048268043));
#1205=CARTESIAN_POINT('',(328.370830723313,2168.281361,2239.27469415568));
#1206=CARTESIAN_POINT('',(329.069490743145,2168.281361,2248.59643855048));
#1207=CARTESIAN_POINT('',(275.785185671792,2168.281361,2259.76631652381));
#1208=CARTESIAN_POINT('',(273.29985658051,2168.281361,2233.43659141887));
#1209=CARTESIAN_POINT('',(173.283341618112,2168.281361,2235.5499834969));
#1210=CARTESIAN_POINT('',(130.578501335033,2168.281361,2203.28068422508));
#1211=CARTESIAN_POINT('',(101.747870654753,2168.281361,2195.65643411131));
#1212=CARTESIAN_POINT('',(101.747870654754,168.281361,2195.65643411131));
#1213=PRODUCT_DEFINITION_SHAPE('','',#1214);
#1214=PRODUCT_DEFINITION('','',#1226,#1231);
#1215=(
GEOMETRIC_REPRESENTATION_CONTEXT(3)
GLOBAL_UNCERTAINTY_ASSIGNED_CONTEXT((#1216))
GLOBAL_UNIT_ASSIGNED_CONTEXT((#1218,#1217,#1221))
REPRESENTATION_CONTEXT('','')
);
#1216=UNCERTAINTY_MEASURE_WITH_UNIT(LENGTH_MEASURE(0.001),#1218,'','tolerance'
);
#1217=(
CONVERSION_BASED_UNIT('',#1219)
NAMED_UNIT(#1225)
PLANE_ANGLE_UNIT()
);
#1218=(
CONVERSION_BASED_UNIT('',#1220)
LENGTH_UNIT()
NAMED_UNIT(#1224)
);
#1219=PLANE_ANGLE_MEASURE_WITH_UNIT(PLANE_ANGLE_MEASURE(0.0174532925199433),
#1222);
#1220=LENGTH_MEASURE_WITH_UNIT(LENGTH_MEASURE(1.),#1223);
#1221=(
NAMED_UNIT(*)
SI_UNIT($,.STERADIAN.)
SOLID_ANGLE_UNIT()
);
#1222=(
NAMED_UNIT(*)
PLANE_ANGLE_UNIT()
SI_UNIT($,.RADIAN.)
);
#1223=(
LENGTH_UNIT()
NAMED_UNIT(*)
SI_UNIT(.MILLI.,.METRE.)
);
#1224=DIMENSIONAL_EXPONENTS(1.,0.,0.,0.,0.,0.,0.);
#1225=DIMENSIONAL_EXPONENTS(0.,0.,0.,0.,0.,0.,0.);
#1226=PRODUCT_DEFINITION_FORMATION_WITH_SPECIFIED_SOURCE('','',#1229,
.NOT_KNOWN.);
#1227=PRODUCT_CATEGORY_RELATIONSHIP('','',#1232,#1228);
#1228=PRODUCT_RELATED_PRODUCT_CATEGORY('assembly','',(#1229));
#1229=PRODUCT('','master','',(#1230));
#1230=PRODUCT_CONTEXT('',#1234,'');
#1231=PRODUCT_DEFINITION_CONTEXT('',#1234,'part_definition');
#1232=PRODUCT_CATEGORY('part','');
#1233=APPLICATION_PROTOCOL_DEFINITION('international standard',
'automotive_design_cc2',1994,#1234);
#1234=APPLICATION_CONTEXT(
'configuration controlled 3D designs of mechanical parts and assemblies');
ENDSEC;
END-ISO-10303-21;
59580