ISO-10303-21;
HEADER;
/* Generated by software using Delcam plc STEP library */

FILE_DESCRIPTION(
/* description */ ('AP-214 File'),
/* implementation_level */ '2;1');

FILE_NAME(
/* name */ 'D652',
/* time_stamp */ 'Tue Dec 20 10:09:24 2016',
/* author */ (''),
/* organization */ (''),
/* preprocessor_version */ 'DELCAM STEP V1',
/* originating_system */ 'Exchange7.1.0006',
/* authorisation */ '');

FILE_SCHEMA (('AUTOMOTIVE_DESIGN'));
ENDSEC;
DATA;
#10=PRESENTATION_STYLE_ASSIGNMENT((#20));
#11=PRESENTATION_STYLE_ASSIGNMENT((#21));
#12=SURFACE_SIDE_STYLE('',(#14));
#13=SURFACE_SIDE_STYLE('',(#15));
#14=SURFACE_STYLE_FILL_AREA(#16);
#15=SURFACE_STYLE_FILL_AREA(#17);
#16=FILL_AREA_STYLE('',(#18));
#17=FILL_AREA_STYLE('',(#19));
#18=FILL_AREA_STYLE_COLOUR('',#59);
#19=FILL_AREA_STYLE_COLOUR('',#60);
#20=SURFACE_STYLE_USAGE(.BOTH.,#12);
#21=SURFACE_STYLE_USAGE(.BOTH.,#13);
#22=STYLED_ITEM('',(#10),#81);
#23=STYLED_ITEM('',(#10),#82);
#24=STYLED_ITEM('',(#10),#83);
#25=STYLED_ITEM('',(#10),#84);
#26=STYLED_ITEM('',(#10),#85);
#27=STYLED_ITEM('',(#10),#86);
#28=STYLED_ITEM('',(#10),#87);
#29=STYLED_ITEM('',(#10),#88);
#30=STYLED_ITEM('',(#10),#89);
#31=STYLED_ITEM('',(#10),#90);
#32=STYLED_ITEM('',(#10),#91);
#33=STYLED_ITEM('',(#10),#92);
#34=STYLED_ITEM('',(#10),#93);
#35=STYLED_ITEM('',(#10),#94);
#36=STYLED_ITEM('',(#10),#95);
#37=STYLED_ITEM('',(#10),#96);
#38=STYLED_ITEM('',(#10),#97);
#39=STYLED_ITEM('',(#10),#98);
#40=STYLED_ITEM('',(#10),#99);
#41=STYLED_ITEM('',(#10),#100);
#42=STYLED_ITEM('',(#10),#101);
#43=STYLED_ITEM('',(#10),#102);
#44=STYLED_ITEM('',(#10),#103);
#45=STYLED_ITEM('',(#10),#104);
#46=STYLED_ITEM('',(#10),#105);
#47=STYLED_ITEM('',(#10),#106);
#48=STYLED_ITEM('',(#10),#107);
#49=STYLED_ITEM('',(#10),#108);
#50=STYLED_ITEM('',(#10),#109);
#51=STYLED_ITEM('',(#10),#110);
#52=STYLED_ITEM('',(#10),#111);
#53=STYLED_ITEM('',(#10),#112);
#54=STYLED_ITEM('',(#10),#113);
#55=STYLED_ITEM('',(#10),#114);
#56=STYLED_ITEM('',(#10),#115);
#57=STYLED_ITEM('',(#10),#116);
#58=STYLED_ITEM('',(#11),#66);
#59=COLOUR_RGB('',0.,0.,0.);
#60=COLOUR_RGB('rgb_colour_1',0.4,0.4,0.4);
#61=MECHANICAL_DESIGN_GEOMETRIC_PRESENTATION_REPRESENTATION('',(#22,#23,#24,
#25,#26,#27,#28,#29,#30,#31,#32,#33,#34,#35,#36,#37,#38,#39,#40,#41,#42,#43,
#44,#45,#46,#47,#48,#49,#50,#51,#52,#53,#54,#55,#56,#57,#58),#1241);
#62=PRESENTATION_LAYER_ASSIGNMENT('59','D114',(#81,#82,#83,#84,#85,#86,#87,#88
,#89,#90,#91,#92,#93,#94,#95,#96,#97,#98,#99,#100,#101,#102,#103,#104,#105,
#106,#107,#108,#109,#110,#111,#112,#113,#114,#115,#116,#66));
#63=SHAPE_REPRESENTATION_RELATIONSHIP('','',#762,#64);
#64=ADVANCED_BREP_SHAPE_REPRESENTATION('',(#65),#1241);
#65=MANIFOLD_SOLID_BREP('955',#66);
#66=CLOSED_SHELL('',(#81,#82,#83,#84,#85,#86,#87,#88,#89,#90,#91,#92,#93,#94,
#95,#96,#97,#98,#99,#100,#101,#102,#103,#104,#105,#106,#107,#108,#109,#110,
#111,#112,#113,#114,#115,#116));
#67=CYLINDRICAL_SURFACE('',#799,6.43738922322359);
#68=CYLINDRICAL_SURFACE('',#800,4.11613139449567);
#69=CYLINDRICAL_SURFACE('',#801,5.14435648153504);
#70=CYLINDRICAL_SURFACE('',#805,3.53519027638539);
#71=CYLINDRICAL_SURFACE('',#806,31.5556826682541);
#72=CYLINDRICAL_SURFACE('',#807,32.3755599590323);
#73=CYLINDRICAL_SURFACE('',#808,10.6642587191418);
#74=CYLINDRICAL_SURFACE('',#810,6.56856062435189);
#75=CYLINDRICAL_SURFACE('',#811,44.2863005431449);
#76=CYLINDRICAL_SURFACE('',#812,151.252506570959);
#77=CYLINDRICAL_SURFACE('',#813,86.3048167477218);
#78=CYLINDRICAL_SURFACE('',#814,40.4788647187693);
#79=CYLINDRICAL_SURFACE('',#815,33.7772153971388);
#80=CYLINDRICAL_SURFACE('',#819,11.9684685839133);
#81=ADVANCED_FACE('',(#117),#393,.F.);
#82=ADVANCED_FACE('',(#118),#394,.F.);
#83=ADVANCED_FACE('',(#119),#395,.F.);
#84=ADVANCED_FACE('',(#120),#396,.F.);
#85=ADVANCED_FACE('',(#121),#397,.F.);
#86=ADVANCED_FACE('',(#122),#398,.F.);
#87=ADVANCED_FACE('',(#123),#399,.F.);
#88=ADVANCED_FACE('',(#124),#67,.T.);
#89=ADVANCED_FACE('',(#125),#68,.T.);
#90=ADVANCED_FACE('',(#126),#69,.T.);
#91=ADVANCED_FACE('',(#127),#400,.F.);
#92=ADVANCED_FACE('',(#128),#401,.F.);
#93=ADVANCED_FACE('',(#129),#402,.F.);
#94=ADVANCED_FACE('',(#130),#70,.F.);
#95=ADVANCED_FACE('',(#131),#71,.F.);
#96=ADVANCED_FACE('',(#132),#72,.T.);
#97=ADVANCED_FACE('',(#133),#73,.T.);
#98=ADVANCED_FACE('',(#134),#403,.F.);
#99=ADVANCED_FACE('',(#135),#74,.T.);
#100=ADVANCED_FACE('',(#136),#75,.F.);
#101=ADVANCED_FACE('',(#137),#76,.F.);
#102=ADVANCED_FACE('',(#138),#77,.F.);
#103=ADVANCED_FACE('',(#139),#78,.F.);
#104=ADVANCED_FACE('',(#140),#79,.F.);
#105=ADVANCED_FACE('',(#141),#404,.F.);
#106=ADVANCED_FACE('',(#142),#405,.F.);
#107=ADVANCED_FACE('',(#143),#406,.F.);
#108=ADVANCED_FACE('',(#144),#80,.T.);
#109=ADVANCED_FACE('',(#145),#407,.F.);
#110=ADVANCED_FACE('',(#146),#408,.F.);
#111=ADVANCED_FACE('',(#147),#409,.F.);
#112=ADVANCED_FACE('',(#148),#410,.F.);
#113=ADVANCED_FACE('',(#149),#411,.F.);
#114=ADVANCED_FACE('',(#150),#412,.F.);
#115=ADVANCED_FACE('',(#151),#413,.T.);
#116=ADVANCED_FACE('',(#152),#414,.F.);
#117=FACE_OUTER_BOUND('',#153,.T.);
#118=FACE_OUTER_BOUND('',#154,.T.);
#119=FACE_OUTER_BOUND('',#155,.T.);
#120=FACE_OUTER_BOUND('',#156,.T.);
#121=FACE_OUTER_BOUND('',#157,.T.);
#122=FACE_OUTER_BOUND('',#158,.T.);
#123=FACE_OUTER_BOUND('',#159,.T.);
#124=FACE_OUTER_BOUND('',#160,.T.);
#125=FACE_OUTER_BOUND('',#161,.T.);
#126=FACE_OUTER_BOUND('',#162,.T.);
#127=FACE_OUTER_BOUND('',#163,.T.);
#128=FACE_OUTER_BOUND('',#164,.T.);
#129=FACE_OUTER_BOUND('',#165,.T.);
#130=FACE_OUTER_BOUND('',#166,.T.);
#131=FACE_OUTER_BOUND('',#167,.T.);
#132=FACE_OUTER_BOUND('',#168,.T.);
#133=FACE_OUTER_BOUND('',#169,.T.);
#134=FACE_OUTER_BOUND('',#170,.T.);
#135=FACE_OUTER_BOUND('',#171,.T.);
#136=FACE_OUTER_BOUND('',#172,.T.);
#137=FACE_OUTER_BOUND('',#173,.T.);
#138=FACE_OUTER_BOUND('',#174,.T.);
#139=FACE_OUTER_BOUND('',#175,.T.);
#140=FACE_OUTER_BOUND('',#176,.T.);
#141=FACE_OUTER_BOUND('',#177,.T.);
#142=FACE_OUTER_BOUND('',#178,.T.);
#143=FACE_OUTER_BOUND('',#179,.T.);
#144=FACE_OUTER_BOUND('',#180,.T.);
#145=FACE_OUTER_BOUND('',#181,.T.);
#146=FACE_OUTER_BOUND('',#182,.T.);
#147=FACE_OUTER_BOUND('',#183,.T.);
#148=FACE_OUTER_BOUND('',#184,.T.);
#149=FACE_OUTER_BOUND('',#185,.T.);
#150=FACE_OUTER_BOUND('',#186,.T.);
#151=FACE_OUTER_BOUND('',#187,.T.);
#152=FACE_OUTER_BOUND('',#188,.T.);
#153=EDGE_LOOP('',(#189,#190,#191,#192));
#154=EDGE_LOOP('',(#193,#194,#195,#196));
#155=EDGE_LOOP('',(#197,#198,#199,#200));
#156=EDGE_LOOP('',(#201,#202,#203,#204));
#157=EDGE_LOOP('',(#205,#206,#207,#208));
#158=EDGE_LOOP('',(#209,#210,#211,#212));
#159=EDGE_LOOP('',(#213,#214,#215,#216));
#160=EDGE_LOOP('',(#217,#218,#219,#220));
#161=EDGE_LOOP('',(#221,#222,#223,#224));
#162=EDGE_LOOP('',(#225,#226,#227,#228));
#163=EDGE_LOOP('',(#229,#230,#231,#232));
#164=EDGE_LOOP('',(#233,#234,#235,#236));
#165=EDGE_LOOP('',(#237,#238,#239,#240));
#166=EDGE_LOOP('',(#241,#242,#243,#244));
#167=EDGE_LOOP('',(#245,#246,#247,#248));
#168=EDGE_LOOP('',(#249,#250,#251,#252));
#169=EDGE_LOOP('',(#253,#254,#255,#256));
#170=EDGE_LOOP('',(#257,#258,#259,#260));
#171=EDGE_LOOP('',(#261,#262,#263,#264));
#172=EDGE_LOOP('',(#265,#266,#267,#268));
#173=EDGE_LOOP('',(#269,#270,#271,#272));
#174=EDGE_LOOP('',(#273,#274,#275,#276));
#175=EDGE_LOOP('',(#277,#278,#279,#280));
#176=EDGE_LOOP('',(#281,#282,#283,#284));
#177=EDGE_LOOP('',(#285,#286,#287,#288));
#178=EDGE_LOOP('',(#289,#290,#291,#292));
#179=EDGE_LOOP('',(#293,#294,#295,#296));
#180=EDGE_LOOP('',(#297,#298,#299,#300));
#181=EDGE_LOOP('',(#301,#302,#303,#304));
#182=EDGE_LOOP('',(#305,#306,#307,#308));
#183=EDGE_LOOP('',(#309,#310,#311,#312));
#184=EDGE_LOOP('',(#313,#314,#315,#316));
#185=EDGE_LOOP('',(#317,#318,#319,#320));
#186=EDGE_LOOP('',(#321,#322,#323,#324));
#187=EDGE_LOOP('',(#325,#326,#327,#328,#329,#330,#331,#332,#333,#334,#335,#336
,#337,#338,#339,#340,#341,#342,#343,#344,#345,#346,#347,#348,#349,#350,#351,
#352,#353,#354,#355,#356,#357,#358));
#188=EDGE_LOOP('',(#359,#360,#361,#362,#363,#364,#365,#366,#367,#368,#369,#370
,#371,#372,#373,#374,#375,#376,#377,#378,#379,#380,#381,#382,#383,#384,#385,
#386,#387,#388,#389,#390,#391,#392));
#189=ORIENTED_EDGE('',*,*,#544,.T.);
#190=ORIENTED_EDGE('',*,*,#443,.F.);
#191=ORIENTED_EDGE('',*,*,#510,.F.);
#192=ORIENTED_EDGE('',*,*,#476,.T.);
#193=ORIENTED_EDGE('',*,*,#543,.T.);
#194=ORIENTED_EDGE('',*,*,#444,.F.);
#195=ORIENTED_EDGE('',*,*,#509,.F.);
#196=ORIENTED_EDGE('',*,*,#443,.T.);
#197=ORIENTED_EDGE('',*,*,#542,.T.);
#198=ORIENTED_EDGE('',*,*,#445,.F.);
#199=ORIENTED_EDGE('',*,*,#508,.F.);
#200=ORIENTED_EDGE('',*,*,#444,.T.);
#201=ORIENTED_EDGE('',*,*,#541,.T.);
#202=ORIENTED_EDGE('',*,*,#446,.F.);
#203=ORIENTED_EDGE('',*,*,#507,.F.);
#204=ORIENTED_EDGE('',*,*,#445,.T.);
#205=ORIENTED_EDGE('',*,*,#540,.T.);
#206=ORIENTED_EDGE('',*,*,#447,.F.);
#207=ORIENTED_EDGE('',*,*,#506,.F.);
#208=ORIENTED_EDGE('',*,*,#446,.T.);
#209=ORIENTED_EDGE('',*,*,#539,.T.);
#210=ORIENTED_EDGE('',*,*,#448,.F.);
#211=ORIENTED_EDGE('',*,*,#505,.F.);
#212=ORIENTED_EDGE('',*,*,#447,.T.);
#213=ORIENTED_EDGE('',*,*,#538,.T.);
#214=ORIENTED_EDGE('',*,*,#449,.F.);
#215=ORIENTED_EDGE('',*,*,#504,.F.);
#216=ORIENTED_EDGE('',*,*,#448,.T.);
#217=ORIENTED_EDGE('',*,*,#537,.T.);
#218=ORIENTED_EDGE('',*,*,#450,.F.);
#219=ORIENTED_EDGE('',*,*,#503,.F.);
#220=ORIENTED_EDGE('',*,*,#449,.T.);
#221=ORIENTED_EDGE('',*,*,#536,.T.);
#222=ORIENTED_EDGE('',*,*,#451,.F.);
#223=ORIENTED_EDGE('',*,*,#502,.F.);
#224=ORIENTED_EDGE('',*,*,#450,.T.);
#225=ORIENTED_EDGE('',*,*,#535,.T.);
#226=ORIENTED_EDGE('',*,*,#452,.F.);
#227=ORIENTED_EDGE('',*,*,#501,.F.);
#228=ORIENTED_EDGE('',*,*,#451,.T.);
#229=ORIENTED_EDGE('',*,*,#534,.T.);
#230=ORIENTED_EDGE('',*,*,#453,.F.);
#231=ORIENTED_EDGE('',*,*,#500,.F.);
#232=ORIENTED_EDGE('',*,*,#452,.T.);
#233=ORIENTED_EDGE('',*,*,#533,.T.);
#234=ORIENTED_EDGE('',*,*,#454,.F.);
#235=ORIENTED_EDGE('',*,*,#499,.F.);
#236=ORIENTED_EDGE('',*,*,#453,.T.);
#237=ORIENTED_EDGE('',*,*,#532,.T.);
#238=ORIENTED_EDGE('',*,*,#455,.F.);
#239=ORIENTED_EDGE('',*,*,#498,.F.);
#240=ORIENTED_EDGE('',*,*,#454,.T.);
#241=ORIENTED_EDGE('',*,*,#531,.T.);
#242=ORIENTED_EDGE('',*,*,#456,.F.);
#243=ORIENTED_EDGE('',*,*,#497,.F.);
#244=ORIENTED_EDGE('',*,*,#455,.T.);
#245=ORIENTED_EDGE('',*,*,#530,.T.);
#246=ORIENTED_EDGE('',*,*,#457,.F.);
#247=ORIENTED_EDGE('',*,*,#496,.F.);
#248=ORIENTED_EDGE('',*,*,#456,.T.);
#249=ORIENTED_EDGE('',*,*,#529,.T.);
#250=ORIENTED_EDGE('',*,*,#458,.F.);
#251=ORIENTED_EDGE('',*,*,#495,.F.);
#252=ORIENTED_EDGE('',*,*,#457,.T.);
#253=ORIENTED_EDGE('',*,*,#528,.T.);
#254=ORIENTED_EDGE('',*,*,#459,.F.);
#255=ORIENTED_EDGE('',*,*,#494,.F.);
#256=ORIENTED_EDGE('',*,*,#458,.T.);
#257=ORIENTED_EDGE('',*,*,#527,.T.);
#258=ORIENTED_EDGE('',*,*,#460,.F.);
#259=ORIENTED_EDGE('',*,*,#493,.F.);
#260=ORIENTED_EDGE('',*,*,#459,.T.);
#261=ORIENTED_EDGE('',*,*,#526,.T.);
#262=ORIENTED_EDGE('',*,*,#461,.F.);
#263=ORIENTED_EDGE('',*,*,#492,.F.);
#264=ORIENTED_EDGE('',*,*,#460,.T.);
#265=ORIENTED_EDGE('',*,*,#525,.T.);
#266=ORIENTED_EDGE('',*,*,#462,.F.);
#267=ORIENTED_EDGE('',*,*,#491,.F.);
#268=ORIENTED_EDGE('',*,*,#461,.T.);
#269=ORIENTED_EDGE('',*,*,#524,.T.);
#270=ORIENTED_EDGE('',*,*,#463,.F.);
#271=ORIENTED_EDGE('',*,*,#490,.F.);
#272=ORIENTED_EDGE('',*,*,#462,.T.);
#273=ORIENTED_EDGE('',*,*,#523,.T.);
#274=ORIENTED_EDGE('',*,*,#464,.F.);
#275=ORIENTED_EDGE('',*,*,#489,.F.);
#276=ORIENTED_EDGE('',*,*,#463,.T.);
#277=ORIENTED_EDGE('',*,*,#522,.T.);
#278=ORIENTED_EDGE('',*,*,#465,.F.);
#279=ORIENTED_EDGE('',*,*,#488,.F.);
#280=ORIENTED_EDGE('',*,*,#464,.T.);
#281=ORIENTED_EDGE('',*,*,#521,.T.);
#282=ORIENTED_EDGE('',*,*,#466,.F.);
#283=ORIENTED_EDGE('',*,*,#487,.F.);
#284=ORIENTED_EDGE('',*,*,#465,.T.);
#285=ORIENTED_EDGE('',*,*,#520,.T.);
#286=ORIENTED_EDGE('',*,*,#467,.F.);
#287=ORIENTED_EDGE('',*,*,#486,.F.);
#288=ORIENTED_EDGE('',*,*,#466,.T.);
#289=ORIENTED_EDGE('',*,*,#519,.T.);
#290=ORIENTED_EDGE('',*,*,#468,.F.);
#291=ORIENTED_EDGE('',*,*,#485,.F.);
#292=ORIENTED_EDGE('',*,*,#467,.T.);
#293=ORIENTED_EDGE('',*,*,#518,.T.);
#294=ORIENTED_EDGE('',*,*,#469,.F.);
#295=ORIENTED_EDGE('',*,*,#484,.F.);
#296=ORIENTED_EDGE('',*,*,#468,.T.);
#297=ORIENTED_EDGE('',*,*,#517,.T.);
#298=ORIENTED_EDGE('',*,*,#470,.F.);
#299=ORIENTED_EDGE('',*,*,#483,.F.);
#300=ORIENTED_EDGE('',*,*,#469,.T.);
#301=ORIENTED_EDGE('',*,*,#516,.T.);
#302=ORIENTED_EDGE('',*,*,#471,.F.);
#303=ORIENTED_EDGE('',*,*,#482,.F.);
#304=ORIENTED_EDGE('',*,*,#470,.T.);
#305=ORIENTED_EDGE('',*,*,#515,.T.);
#306=ORIENTED_EDGE('',*,*,#472,.F.);
#307=ORIENTED_EDGE('',*,*,#481,.F.);
#308=ORIENTED_EDGE('',*,*,#471,.T.);
#309=ORIENTED_EDGE('',*,*,#514,.T.);
#310=ORIENTED_EDGE('',*,*,#473,.F.);
#311=ORIENTED_EDGE('',*,*,#480,.F.);
#312=ORIENTED_EDGE('',*,*,#472,.T.);
#313=ORIENTED_EDGE('',*,*,#513,.T.);
#314=ORIENTED_EDGE('',*,*,#474,.F.);
#315=ORIENTED_EDGE('',*,*,#479,.F.);
#316=ORIENTED_EDGE('',*,*,#473,.T.);
#317=ORIENTED_EDGE('',*,*,#512,.T.);
#318=ORIENTED_EDGE('',*,*,#475,.F.);
#319=ORIENTED_EDGE('',*,*,#478,.F.);
#320=ORIENTED_EDGE('',*,*,#474,.T.);
#321=ORIENTED_EDGE('',*,*,#511,.T.);
#322=ORIENTED_EDGE('',*,*,#476,.F.);
#323=ORIENTED_EDGE('',*,*,#477,.F.);
#324=ORIENTED_EDGE('',*,*,#475,.T.);
#325=ORIENTED_EDGE('',*,*,#510,.T.);
#326=ORIENTED_EDGE('',*,*,#509,.T.);
#327=ORIENTED_EDGE('',*,*,#508,.T.);
#328=ORIENTED_EDGE('',*,*,#507,.T.);
#329=ORIENTED_EDGE('',*,*,#506,.T.);
#330=ORIENTED_EDGE('',*,*,#505,.T.);
#331=ORIENTED_EDGE('',*,*,#504,.T.);
#332=ORIENTED_EDGE('',*,*,#503,.T.);
#333=ORIENTED_EDGE('',*,*,#502,.T.);
#334=ORIENTED_EDGE('',*,*,#501,.T.);
#335=ORIENTED_EDGE('',*,*,#500,.T.);
#336=ORIENTED_EDGE('',*,*,#499,.T.);
#337=ORIENTED_EDGE('',*,*,#498,.T.);
#338=ORIENTED_EDGE('',*,*,#497,.T.);
#339=ORIENTED_EDGE('',*,*,#496,.T.);
#340=ORIENTED_EDGE('',*,*,#495,.T.);
#341=ORIENTED_EDGE('',*,*,#494,.T.);
#342=ORIENTED_EDGE('',*,*,#493,.T.);
#343=ORIENTED_EDGE('',*,*,#492,.T.);
#344=ORIENTED_EDGE('',*,*,#491,.T.);
#345=ORIENTED_EDGE('',*,*,#490,.T.);
#346=ORIENTED_EDGE('',*,*,#489,.T.);
#347=ORIENTED_EDGE('',*,*,#488,.T.);
#348=ORIENTED_EDGE('',*,*,#487,.T.);
#349=ORIENTED_EDGE('',*,*,#486,.T.);
#350=ORIENTED_EDGE('',*,*,#485,.T.);
#351=ORIENTED_EDGE('',*,*,#484,.T.);
#352=ORIENTED_EDGE('',*,*,#483,.T.);
#353=ORIENTED_EDGE('',*,*,#482,.T.);
#354=ORIENTED_EDGE('',*,*,#481,.T.);
#355=ORIENTED_EDGE('',*,*,#480,.T.);
#356=ORIENTED_EDGE('',*,*,#479,.T.);
#357=ORIENTED_EDGE('',*,*,#478,.T.);
#358=ORIENTED_EDGE('',*,*,#477,.T.);
#359=ORIENTED_EDGE('',*,*,#544,.F.);
#360=ORIENTED_EDGE('',*,*,#511,.F.);
#361=ORIENTED_EDGE('',*,*,#512,.F.);
#362=ORIENTED_EDGE('',*,*,#513,.F.);
#363=ORIENTED_EDGE('',*,*,#514,.F.);
#364=ORIENTED_EDGE('',*,*,#515,.F.);
#365=ORIENTED_EDGE('',*,*,#516,.F.);
#366=ORIENTED_EDGE('',*,*,#517,.F.);
#367=ORIENTED_EDGE('',*,*,#518,.F.);
#368=ORIENTED_EDGE('',*,*,#519,.F.);
#369=ORIENTED_EDGE('',*,*,#520,.F.);
#370=ORIENTED_EDGE('',*,*,#521,.F.);
#371=ORIENTED_EDGE('',*,*,#522,.F.);
#372=ORIENTED_EDGE('',*,*,#523,.F.);
#373=ORIENTED_EDGE('',*,*,#524,.F.);
#374=ORIENTED_EDGE('',*,*,#525,.F.);
#375=ORIENTED_EDGE('',*,*,#526,.F.);
#376=ORIENTED_EDGE('',*,*,#527,.F.);
#377=ORIENTED_EDGE('',*,*,#528,.F.);
#378=ORIENTED_EDGE('',*,*,#529,.F.);
#379=ORIENTED_EDGE('',*,*,#530,.F.);
#380=ORIENTED_EDGE('',*,*,#531,.F.);
#381=ORIENTED_EDGE('',*,*,#532,.F.);
#382=ORIENTED_EDGE('',*,*,#533,.F.);
#383=ORIENTED_EDGE('',*,*,#534,.F.);
#384=ORIENTED_EDGE('',*,*,#535,.F.);
#385=ORIENTED_EDGE('',*,*,#536,.F.);
#386=ORIENTED_EDGE('',*,*,#537,.F.);
#387=ORIENTED_EDGE('',*,*,#538,.F.);
#388=ORIENTED_EDGE('',*,*,#539,.F.);
#389=ORIENTED_EDGE('',*,*,#540,.F.);
#390=ORIENTED_EDGE('',*,*,#541,.F.);
#391=ORIENTED_EDGE('',*,*,#542,.F.);
#392=ORIENTED_EDGE('',*,*,#543,.F.);
#393=PLANE('',#792);
#394=PLANE('',#793);
#395=PLANE('',#794);
#396=PLANE('',#795);
#397=PLANE('',#796);
#398=PLANE('',#797);
#399=PLANE('',#798);
#400=PLANE('',#802);
#401=PLANE('',#803);
#402=PLANE('',#804);
#403=PLANE('',#809);
#404=PLANE('',#816);
#405=PLANE('',#817);
#406=PLANE('',#818);
#407=PLANE('',#820);
#408=PLANE('',#821);
#409=PLANE('',#822);
#410=PLANE('',#823);
#411=PLANE('',#824);
#412=PLANE('',#825);
#413=PLANE('',#826);
#414=PLANE('',#827);
#415=CIRCLE('',#764,11.9684685839133);
#416=CIRCLE('',#765,33.7772153971388);
#417=CIRCLE('',#766,40.4788647187693);
#418=CIRCLE('',#767,86.3048167477218);
#419=CIRCLE('',#768,151.252506570959);
#420=CIRCLE('',#769,44.2863005431449);
#421=CIRCLE('',#770,6.56856062435189);
#422=CIRCLE('',#771,10.6642587191418);
#423=CIRCLE('',#772,32.3755599590323);
#424=CIRCLE('',#773,31.5556826682541);
#425=CIRCLE('',#774,3.53519027638539);
#426=CIRCLE('',#775,5.14435648153504);
#427=CIRCLE('',#776,4.11613139449567);
#428=CIRCLE('',#777,6.43738922322359);
#429=CIRCLE('',#778,11.9684685839133);
#430=CIRCLE('',#779,33.7772153971388);
#431=CIRCLE('',#780,40.4788647187693);
#432=CIRCLE('',#781,86.3048167477218);
#433=CIRCLE('',#782,151.252506570959);
#434=CIRCLE('',#783,44.2863005431449);
#435=CIRCLE('',#784,6.56856062435189);
#436=CIRCLE('',#785,10.6642587191418);
#437=CIRCLE('',#786,32.3755599590323);
#438=CIRCLE('',#787,31.5556826682541);
#439=CIRCLE('',#788,3.53519027638539);
#440=CIRCLE('',#789,5.14435648153504);
#441=CIRCLE('',#790,4.11613139449567);
#442=CIRCLE('',#791,6.43738922322359);
#443=EDGE_CURVE('',#726,#760,#545,.T.);
#444=EDGE_CURVE('',#725,#759,#546,.T.);
#445=EDGE_CURVE('',#724,#758,#547,.T.);
#446=EDGE_CURVE('',#723,#757,#548,.T.);
#447=EDGE_CURVE('',#722,#756,#549,.T.);
#448=EDGE_CURVE('',#721,#755,#550,.T.);
#449=EDGE_CURVE('',#720,#754,#551,.T.);
#450=EDGE_CURVE('',#719,#753,#552,.T.);
#451=EDGE_CURVE('',#718,#752,#553,.T.);
#452=EDGE_CURVE('',#717,#751,#554,.T.);
#453=EDGE_CURVE('',#716,#750,#555,.T.);
#454=EDGE_CURVE('',#715,#749,#556,.T.);
#455=EDGE_CURVE('',#714,#748,#557,.T.);
#456=EDGE_CURVE('',#713,#747,#558,.T.);
#457=EDGE_CURVE('',#712,#746,#559,.T.);
#458=EDGE_CURVE('',#711,#745,#560,.T.);
#459=EDGE_CURVE('',#710,#744,#561,.T.);
#460=EDGE_CURVE('',#709,#743,#562,.T.);
#461=EDGE_CURVE('',#708,#742,#563,.T.);
#462=EDGE_CURVE('',#707,#741,#564,.T.);
#463=EDGE_CURVE('',#706,#740,#565,.T.);
#464=EDGE_CURVE('',#705,#739,#566,.T.);
#465=EDGE_CURVE('',#704,#738,#567,.T.);
#466=EDGE_CURVE('',#703,#737,#568,.T.);
#467=EDGE_CURVE('',#702,#736,#569,.T.);
#468=EDGE_CURVE('',#701,#735,#570,.T.);
#469=EDGE_CURVE('',#700,#734,#571,.T.);
#470=EDGE_CURVE('',#699,#733,#572,.T.);
#471=EDGE_CURVE('',#698,#732,#573,.T.);
#472=EDGE_CURVE('',#697,#731,#574,.T.);
#473=EDGE_CURVE('',#696,#730,#575,.T.);
#474=EDGE_CURVE('',#695,#729,#576,.T.);
#475=EDGE_CURVE('',#694,#728,#577,.T.);
#476=EDGE_CURVE('',#693,#727,#578,.T.);
#477=EDGE_CURVE('',#694,#693,#579,.T.);
#478=EDGE_CURVE('',#695,#694,#580,.T.);
#479=EDGE_CURVE('',#696,#695,#581,.T.);
#480=EDGE_CURVE('',#697,#696,#582,.T.);
#481=EDGE_CURVE('',#698,#697,#583,.T.);
#482=EDGE_CURVE('',#699,#698,#584,.T.);
#483=EDGE_CURVE('',#700,#699,#415,.T.);
#484=EDGE_CURVE('',#701,#700,#585,.T.);
#485=EDGE_CURVE('',#702,#701,#586,.T.);
#486=EDGE_CURVE('',#703,#702,#587,.T.);
#487=EDGE_CURVE('',#704,#703,#416,.T.);
#488=EDGE_CURVE('',#705,#704,#417,.T.);
#489=EDGE_CURVE('',#706,#705,#418,.T.);
#490=EDGE_CURVE('',#707,#706,#419,.T.);
#491=EDGE_CURVE('',#708,#707,#420,.T.);
#492=EDGE_CURVE('',#709,#708,#421,.T.);
#493=EDGE_CURVE('',#710,#709,#588,.T.);
#494=EDGE_CURVE('',#711,#710,#422,.T.);
#495=EDGE_CURVE('',#712,#711,#423,.T.);
#496=EDGE_CURVE('',#713,#712,#424,.T.);
#497=EDGE_CURVE('',#714,#713,#425,.T.);
#498=EDGE_CURVE('',#715,#714,#589,.T.);
#499=EDGE_CURVE('',#716,#715,#590,.T.);
#500=EDGE_CURVE('',#717,#716,#591,.T.);
#501=EDGE_CURVE('',#718,#717,#426,.T.);
#502=EDGE_CURVE('',#719,#718,#427,.T.);
#503=EDGE_CURVE('',#720,#719,#428,.T.);
#504=EDGE_CURVE('',#721,#720,#592,.T.);
#505=EDGE_CURVE('',#722,#721,#593,.T.);
#506=EDGE_CURVE('',#723,#722,#594,.T.);
#507=EDGE_CURVE('',#724,#723,#595,.T.);
#508=EDGE_CURVE('',#725,#724,#596,.T.);
#509=EDGE_CURVE('',#726,#725,#597,.T.);
#510=EDGE_CURVE('',#693,#726,#598,.T.);
#511=EDGE_CURVE('',#728,#727,#599,.T.);
#512=EDGE_CURVE('',#729,#728,#600,.T.);
#513=EDGE_CURVE('',#730,#729,#601,.T.);
#514=EDGE_CURVE('',#731,#730,#602,.T.);
#515=EDGE_CURVE('',#732,#731,#603,.T.);
#516=EDGE_CURVE('',#733,#732,#604,.T.);
#517=EDGE_CURVE('',#734,#733,#429,.T.);
#518=EDGE_CURVE('',#735,#734,#605,.T.);
#519=EDGE_CURVE('',#736,#735,#606,.T.);
#520=EDGE_CURVE('',#737,#736,#607,.T.);
#521=EDGE_CURVE('',#738,#737,#430,.T.);
#522=EDGE_CURVE('',#739,#738,#431,.T.);
#523=EDGE_CURVE('',#740,#739,#432,.T.);
#524=EDGE_CURVE('',#741,#740,#433,.T.);
#525=EDGE_CURVE('',#742,#741,#434,.T.);
#526=EDGE_CURVE('',#743,#742,#435,.T.);
#527=EDGE_CURVE('',#744,#743,#608,.T.);
#528=EDGE_CURVE('',#745,#744,#436,.T.);
#529=EDGE_CURVE('',#746,#745,#437,.T.);
#530=EDGE_CURVE('',#747,#746,#438,.T.);
#531=EDGE_CURVE('',#748,#747,#439,.T.);
#532=EDGE_CURVE('',#749,#748,#609,.T.);
#533=EDGE_CURVE('',#750,#749,#610,.T.);
#534=EDGE_CURVE('',#751,#750,#611,.T.);
#535=EDGE_CURVE('',#752,#751,#440,.T.);
#536=EDGE_CURVE('',#753,#752,#441,.T.);
#537=EDGE_CURVE('',#754,#753,#442,.T.);
#538=EDGE_CURVE('',#755,#754,#612,.T.);
#539=EDGE_CURVE('',#756,#755,#613,.T.);
#540=EDGE_CURVE('',#757,#756,#614,.T.);
#541=EDGE_CURVE('',#758,#757,#615,.T.);
#542=EDGE_CURVE('',#759,#758,#616,.T.);
#543=EDGE_CURVE('',#760,#759,#617,.T.);
#544=EDGE_CURVE('',#727,#760,#618,.T.);
#545=LINE('',#1101,#619);
#546=LINE('',#1102,#620);
#547=LINE('',#1103,#621);
#548=LINE('',#1104,#622);
#549=LINE('',#1105,#623);
#550=LINE('',#1106,#624);
#551=LINE('',#1107,#625);
#552=LINE('',#1108,#626);
#553=LINE('',#1109,#627);
#554=LINE('',#1110,#628);
#555=LINE('',#1111,#629);
#556=LINE('',#1112,#630);
#557=LINE('',#1113,#631);
#558=LINE('',#1114,#632);
#559=LINE('',#1115,#633);
#560=LINE('',#1116,#634);
#561=LINE('',#1117,#635);
#562=LINE('',#1118,#636);
#563=LINE('',#1119,#637);
#564=LINE('',#1120,#638);
#565=LINE('',#1121,#639);
#566=LINE('',#1122,#640);
#567=LINE('',#1123,#641);
#568=LINE('',#1124,#642);
#569=LINE('',#1125,#643);
#570=LINE('',#1126,#644);
#571=LINE('',#1127,#645);
#572=LINE('',#1128,#646);
#573=LINE('',#1129,#647);
#574=LINE('',#1130,#648);
#575=LINE('',#1131,#649);
#576=LINE('',#1132,#650);
#577=LINE('',#1133,#651);
#578=LINE('',#1134,#652);
#579=LINE('',#1135,#653);
#580=LINE('',#1136,#654);
#581=LINE('',#1137,#655);
#582=LINE('',#1138,#656);
#583=LINE('',#1139,#657);
#584=LINE('',#1140,#658);
#585=LINE('',#1142,#659);
#586=LINE('',#1143,#660);
#587=LINE('',#1144,#661);
#588=LINE('',#1151,#662);
#589=LINE('',#1156,#663);
#590=LINE('',#1157,#664);
#591=LINE('',#1158,#665);
#592=LINE('',#1162,#666);
#593=LINE('',#1163,#667);
#594=LINE('',#1164,#668);
#595=LINE('',#1165,#669);
#596=LINE('',#1166,#670);
#597=LINE('',#1167,#671);
#598=LINE('',#1168,#672);
#599=LINE('',#1169,#673);
#600=LINE('',#1170,#674);
#601=LINE('',#1171,#675);
#602=LINE('',#1172,#676);
#603=LINE('',#1173,#677);
#604=LINE('',#1174,#678);
#605=LINE('',#1176,#679);
#606=LINE('',#1177,#680);
#607=LINE('',#1178,#681);
#608=LINE('',#1185,#682);
#609=LINE('',#1190,#683);
#610=LINE('',#1191,#684);
#611=LINE('',#1192,#685);
#612=LINE('',#1196,#686);
#613=LINE('',#1197,#687);
#614=LINE('',#1198,#688);
#615=LINE('',#1199,#689);
#616=LINE('',#1200,#690);
#617=LINE('',#1201,#691);
#618=LINE('',#1202,#692);
#619=VECTOR('',#830,1.);
#620=VECTOR('',#831,1.);
#621=VECTOR('',#832,1.);
#622=VECTOR('',#833,1.);
#623=VECTOR('',#834,1.);
#624=VECTOR('',#835,1.);
#625=VECTOR('',#836,1.);
#626=VECTOR('',#837,1.);
#627=VECTOR('',#838,1.);
#628=VECTOR('',#839,1.);
#629=VECTOR('',#840,1.);
#630=VECTOR('',#841,1.);
#631=VECTOR('',#842,1.);
#632=VECTOR('',#843,1.);
#633=VECTOR('',#844,1.);
#634=VECTOR('',#845,1.);
#635=VECTOR('',#846,1.);
#636=VECTOR('',#847,1.);
#637=VECTOR('',#848,1.);
#638=VECTOR('',#849,1.);
#639=VECTOR('',#850,1.);
#640=VECTOR('',#851,1.);
#641=VECTOR('',#852,1.);
#642=VECTOR('',#853,1.);
#643=VECTOR('',#854,1.);
#644=VECTOR('',#855,1.);
#645=VECTOR('',#856,1.);
#646=VECTOR('',#857,1.);
#647=VECTOR('',#858,1.);
#648=VECTOR('',#859,1.);
#649=VECTOR('',#860,1.);
#650=VECTOR('',#861,1.);
#651=VECTOR('',#862,1.);
#652=VECTOR('',#863,1.);
#653=VECTOR('',#864,1.);
#654=VECTOR('',#865,1.);
#655=VECTOR('',#866,1.);
#656=VECTOR('',#867,1.);
#657=VECTOR('',#868,1.);
#658=VECTOR('',#869,1.);
#659=VECTOR('',#872,1.);
#660=VECTOR('',#873,1.);
#661=VECTOR('',#874,1.);
#662=VECTOR('',#887,1.);
#663=VECTOR('',#896,1.);
#664=VECTOR('',#897,1.);
#665=VECTOR('',#898,1.);
#666=VECTOR('',#905,1.);
#667=VECTOR('',#906,1.);
#668=VECTOR('',#907,1.);
#669=VECTOR('',#908,1.);
#670=VECTOR('',#909,1.);
#671=VECTOR('',#910,1.);
#672=VECTOR('',#911,1.);
#673=VECTOR('',#912,1.);
#674=VECTOR('',#913,1.);
#675=VECTOR('',#914,1.);
#676=VECTOR('',#915,1.);
#677=VECTOR('',#916,1.);
#678=VECTOR('',#917,1.);
#679=VECTOR('',#920,1.);
#680=VECTOR('',#921,1.);
#681=VECTOR('',#922,1.);
#682=VECTOR('',#935,1.);
#683=VECTOR('',#944,1.);
#684=VECTOR('',#945,1.);
#685=VECTOR('',#946,1.);
#686=VECTOR('',#953,1.);
#687=VECTOR('',#954,1.);
#688=VECTOR('',#955,1.);
#689=VECTOR('',#956,1.);
#690=VECTOR('',#957,1.);
#691=VECTOR('',#958,1.);
#692=VECTOR('',#959,1.);
#693=VERTEX_POINT('',#1033);
#694=VERTEX_POINT('',#1034);
#695=VERTEX_POINT('',#1035);
#696=VERTEX_POINT('',#1036);
#697=VERTEX_POINT('',#1037);
#698=VERTEX_POINT('',#1038);
#699=VERTEX_POINT('',#1039);
#700=VERTEX_POINT('',#1040);
#701=VERTEX_POINT('',#1041);
#702=VERTEX_POINT('',#1042);
#703=VERTEX_POINT('',#1043);
#704=VERTEX_POINT('',#1044);
#705=VERTEX_POINT('',#1045);
#706=VERTEX_POINT('',#1046);
#707=VERTEX_POINT('',#1047);
#708=VERTEX_POINT('',#1048);
#709=VERTEX_POINT('',#1049);
#710=VERTEX_POINT('',#1050);
#711=VERTEX_POINT('',#1051);
#712=VERTEX_POINT('',#1052);
#713=VERTEX_POINT('',#1053);
#714=VERTEX_POINT('',#1054);
#715=VERTEX_POINT('',#1055);
#716=VERTEX_POINT('',#1056);
#717=VERTEX_POINT('',#1057);
#718=VERTEX_POINT('',#1058);
#719=VERTEX_POINT('',#1059);
#720=VERTEX_POINT('',#1060);
#721=VERTEX_POINT('',#1061);
#722=VERTEX_POINT('',#1062);
#723=VERTEX_POINT('',#1063);
#724=VERTEX_POINT('',#1064);
#725=VERTEX_POINT('',#1065);
#726=VERTEX_POINT('',#1066);
#727=VERTEX_POINT('',#1067);
#728=VERTEX_POINT('',#1068);
#729=VERTEX_POINT('',#1069);
#730=VERTEX_POINT('',#1070);
#731=VERTEX_POINT('',#1071);
#732=VERTEX_POINT('',#1072);
#733=VERTEX_POINT('',#1073);
#734=VERTEX_POINT('',#1074);
#735=VERTEX_POINT('',#1075);
#736=VERTEX_POINT('',#1076);
#737=VERTEX_POINT('',#1077);
#738=VERTEX_POINT('',#1078);
#739=VERTEX_POINT('',#1079);
#740=VERTEX_POINT('',#1080);
#741=VERTEX_POINT('',#1081);
#742=VERTEX_POINT('',#1082);
#743=VERTEX_POINT('',#1083);
#744=VERTEX_POINT('',#1084);
#745=VERTEX_POINT('',#1085);
#746=VERTEX_POINT('',#1086);
#747=VERTEX_POINT('',#1087);
#748=VERTEX_POINT('',#1088);
#749=VERTEX_POINT('',#1089);
#750=VERTEX_POINT('',#1090);
#751=VERTEX_POINT('',#1091);
#752=VERTEX_POINT('',#1092);
#753=VERTEX_POINT('',#1093);
#754=VERTEX_POINT('',#1094);
#755=VERTEX_POINT('',#1095);
#756=VERTEX_POINT('',#1096);
#757=VERTEX_POINT('',#1097);
#758=VERTEX_POINT('',#1098);
#759=VERTEX_POINT('',#1099);
#760=VERTEX_POINT('',#1100);
#761=SHAPE_DEFINITION_REPRESENTATION(#1239,#762);
#762=SHAPE_REPRESENTATION('master',(#763),#1241);
#763=AXIS2_PLACEMENT_3D('',#1032,#829,#828);
#764=AXIS2_PLACEMENT_3D('',#1141,#871,#870);
#765=AXIS2_PLACEMENT_3D('',#1145,#876,#875);
#766=AXIS2_PLACEMENT_3D('',#1146,#878,#877);
#767=AXIS2_PLACEMENT_3D('',#1147,#880,#879);
#768=AXIS2_PLACEMENT_3D('',#1148,#882,#881);
#769=AXIS2_PLACEMENT_3D('',#1149,#884,#883);
#770=AXIS2_PLACEMENT_3D('',#1150,#886,#885);
#771=AXIS2_PLACEMENT_3D('',#1152,#889,#888);
#772=AXIS2_PLACEMENT_3D('',#1153,#891,#890);
#773=AXIS2_PLACEMENT_3D('',#1154,#893,#892);
#774=AXIS2_PLACEMENT_3D('',#1155,#895,#894);
#775=AXIS2_PLACEMENT_3D('',#1159,#900,#899);
#776=AXIS2_PLACEMENT_3D('',#1160,#902,#901);
#777=AXIS2_PLACEMENT_3D('',#1161,#904,#903);
#778=AXIS2_PLACEMENT_3D('',#1175,#919,#918);
#779=AXIS2_PLACEMENT_3D('',#1179,#924,#923);
#780=AXIS2_PLACEMENT_3D('',#1180,#926,#925);
#781=AXIS2_PLACEMENT_3D('',#1181,#928,#927);
#782=AXIS2_PLACEMENT_3D('',#1182,#930,#929);
#783=AXIS2_PLACEMENT_3D('',#1183,#932,#931);
#784=AXIS2_PLACEMENT_3D('',#1184,#934,#933);
#785=AXIS2_PLACEMENT_3D('',#1186,#937,#936);
#786=AXIS2_PLACEMENT_3D('',#1187,#939,#938);
#787=AXIS2_PLACEMENT_3D('',#1188,#941,#940);
#788=AXIS2_PLACEMENT_3D('',#1189,#943,#942);
#789=AXIS2_PLACEMENT_3D('',#1193,#948,#947);
#790=AXIS2_PLACEMENT_3D('',#1194,#950,#949);
#791=AXIS2_PLACEMENT_3D('',#1195,#952,#951);
#792=AXIS2_PLACEMENT_3D('',#1203,#961,#960);
#793=AXIS2_PLACEMENT_3D('',#1204,#963,#962);
#794=AXIS2_PLACEMENT_3D('',#1205,#965,#964);
#795=AXIS2_PLACEMENT_3D('',#1206,#967,#966);
#796=AXIS2_PLACEMENT_3D('',#1207,#969,#968);
#797=AXIS2_PLACEMENT_3D('',#1208,#971,#970);
#798=AXIS2_PLACEMENT_3D('',#1209,#973,#972);
#799=AXIS2_PLACEMENT_3D('',#1210,#975,#974);
#800=AXIS2_PLACEMENT_3D('',#1211,#977,#976);
#801=AXIS2_PLACEMENT_3D('',#1212,#979,#978);
#802=AXIS2_PLACEMENT_3D('',#1213,#981,#980);
#803=AXIS2_PLACEMENT_3D('',#1214,#983,#982);
#804=AXIS2_PLACEMENT_3D('',#1215,#985,#984);
#805=AXIS2_PLACEMENT_3D('',#1216,#987,#986);
#806=AXIS2_PLACEMENT_3D('',#1217,#989,#988);
#807=AXIS2_PLACEMENT_3D('',#1218,#991,#990);
#808=AXIS2_PLACEMENT_3D('',#1219,#993,#992);
#809=AXIS2_PLACEMENT_3D('',#1220,#995,#994);
#810=AXIS2_PLACEMENT_3D('',#1221,#997,#996);
#811=AXIS2_PLACEMENT_3D('',#1222,#999,#998);
#812=AXIS2_PLACEMENT_3D('',#1223,#1001,#1000);
#813=AXIS2_PLACEMENT_3D('',#1224,#1003,#1002);
#814=AXIS2_PLACEMENT_3D('',#1225,#1005,#1004);
#815=AXIS2_PLACEMENT_3D('',#1226,#1007,#1006);
#816=AXIS2_PLACEMENT_3D('',#1227,#1009,#1008);
#817=AXIS2_PLACEMENT_3D('',#1228,#1011,#1010);
#818=AXIS2_PLACEMENT_3D('',#1229,#1013,#1012);
#819=AXIS2_PLACEMENT_3D('',#1230,#1015,#1014);
#820=AXIS2_PLACEMENT_3D('',#1231,#1017,#1016);
#821=AXIS2_PLACEMENT_3D('',#1232,#1019,#1018);
#822=AXIS2_PLACEMENT_3D('',#1233,#1021,#1020);
#823=AXIS2_PLACEMENT_3D('',#1234,#1023,#1022);
#824=AXIS2_PLACEMENT_3D('',#1235,#1025,#1024);
#825=AXIS2_PLACEMENT_3D('',#1236,#1027,#1026);
#826=AXIS2_PLACEMENT_3D('',#1237,#1029,#1028);
#827=AXIS2_PLACEMENT_3D('',#1238,#1031,#1030);
#828=DIRECTION('',(1.,0.,0.));
#829=DIRECTION('',(0.,0.,1.));
#830=DIRECTION('',(2.47697588187855E-015,-1.,-2.42399690200981E-015));
#831=DIRECTION('',(2.47697588187855E-015,-1.,-2.42399690200981E-015));
#832=DIRECTION('',(2.47697588187855E-015,-1.,-2.42399690200981E-015));
#833=DIRECTION('',(2.47697588187855E-015,-1.,-2.42399690200981E-015));
#834=DIRECTION('',(2.47697588187855E-015,-1.,-2.42399690200981E-015));
#835=DIRECTION('',(2.47697588187855E-015,-1.,-2.42399690200981E-015));
#836=DIRECTION('',(2.47697588187855E-015,-1.,-2.42399690200981E-015));
#837=DIRECTION('',(2.47697588187855E-015,-1.,-2.42399690200981E-015));
#838=DIRECTION('',(2.47697588187855E-015,-1.,-2.42399690200981E-015));
#839=DIRECTION('',(2.47697588187855E-015,-1.,-2.42399690200981E-015));
#840=DIRECTION('',(2.47697588187855E-015,-1.,-2.42399690200981E-015));
#841=DIRECTION('',(2.47697588187855E-015,-1.,-2.42399690200981E-015));
#842=DIRECTION('',(2.47697588187855E-015,-1.,-2.42399690200981E-015));
#843=DIRECTION('',(2.47697588187855E-015,-1.,-2.42399690200981E-015));
#844=DIRECTION('',(2.47697588187855E-015,-1.,-2.42399690200981E-015));
#845=DIRECTION('',(2.47697588187855E-015,-1.,-2.42399690200981E-015));
#846=DIRECTION('',(2.47697588187855E-015,-1.,-2.42399690200981E-015));
#847=DIRECTION('',(2.47697588187855E-015,-1.,-2.42399690200981E-015));
#848=DIRECTION('',(2.47697588187855E-015,-1.,-2.42399690200981E-015));
#849=DIRECTION('',(2.47697588187855E-015,-1.,-2.42399690200981E-015));
#850=DIRECTION('',(2.47697588187855E-015,-1.,-2.42399690200981E-015));
#851=DIRECTION('',(2.47697588187855E-015,-1.,-2.42399690200981E-015));
#852=DIRECTION('',(2.47697588187855E-015,-1.,-2.42399690200981E-015));
#853=DIRECTION('',(2.47697588187855E-015,-1.,-2.42399690200981E-015));
#854=DIRECTION('',(2.47697588187855E-015,-1.,-2.42399690200981E-015));
#855=DIRECTION('',(2.47697588187855E-015,-1.,-2.42399690200981E-015));
#856=DIRECTION('',(2.47697588187855E-015,-1.,-2.42399690200981E-015));
#857=DIRECTION('',(2.47697588187855E-015,-1.,-2.42399690200981E-015));
#858=DIRECTION('',(2.47697588187855E-015,-1.,-2.42399690200981E-015));
#859=DIRECTION('',(2.47697588187855E-015,-1.,-2.42399690200981E-015));
#860=DIRECTION('',(2.47697588187855E-015,-1.,-2.42399690200981E-015));
#861=DIRECTION('',(2.47697588187855E-015,-1.,-2.42399690200981E-015));
#862=DIRECTION('',(2.47697588187855E-015,-1.,-2.42399690200981E-015));
#863=DIRECTION('',(2.47697588187855E-015,-1.,-2.42399690200981E-015));
#864=DIRECTION('',(0.,0.,1.));
#865=DIRECTION('',(0.684108447114763,0.,0.729380307237746));
#866=DIRECTION('',(-0.,-0.,1.));
#867=DIRECTION('',(-0.999573299043688,-0.,-0.0292099270611711));
#868=DIRECTION('',(0.,0.,-1.));
#869=DIRECTION('',(-1.,0.,-1.40098950661037E-013));
#870=DIRECTION('',(0.998834654532263,0.,-0.0482631630274656));
#871=DIRECTION('',(0.,1.,0.));
#872=DIRECTION('',(-0.04826316302746,0.,-0.998834654532263));
#873=DIRECTION('',(-0.989461028341037,0.,-0.144799424702921));
#874=DIRECTION('',(-0.0805778374459566,0.,-0.996748319342718));
#875=DIRECTION('',(-0.971840259538221,-0.,-0.235640637286279));
#876=DIRECTION('',(0.,-1.,0.));
#877=DIRECTION('',(-0.770590223504003,0.,0.637330924591025));
#878=DIRECTION('',(0.,-1.,0.));
#879=DIRECTION('',(-0.176808184062202,0.,0.984245328182271));
#880=DIRECTION('',(0.,-1.,0.));
#881=DIRECTION('',(0.238091892780219,0.,0.971242632194619));
#882=DIRECTION('',(0.,-1.,0.));
#883=DIRECTION('',(0.44391784634569,0.,0.896067489475991));
#884=DIRECTION('',(0.,-1.,0.));
#885=DIRECTION('',(0.137619639714618,0.,-0.990485151208648));
#886=DIRECTION('',(0.,1.,0.));
#887=DIRECTION('',(-0.995596316146322,-0.,-0.0937442012919932));
#888=DIRECTION('',(0.782356614388819,0.,-0.622830737778784));
#889=DIRECTION('',(0.,1.,0.));
#890=DIRECTION('',(0.92439439428516,0.,-0.381438073367318));
#891=DIRECTION('',(0.,1.,0.));
#892=DIRECTION('',(-0.786139163045424,0.,0.61804952578757));
#893=DIRECTION('',(0.,-1.,0.));
#894=DIRECTION('',(0.780737382000852,0.,0.62485929643917));
#895=DIRECTION('',(0.,-1.,0.));
#896=DIRECTION('',(-0.624859296439036,0.,0.78073738200096));
#897=DIRECTION('',(-0.983999653519624,0.,-0.178170373163612));
#898=DIRECTION('',(-0.983999653519653,0.,-0.178170373163448));
#899=DIRECTION('',(-0.397982963352073,0.,-0.917392806207626));
#900=DIRECTION('',(0.,1.,0.));
#901=DIRECTION('',(0.526547028510218,0.,-0.850146003205955));
#902=DIRECTION('',(0.,1.,0.));
#903=DIRECTION('',(1.,0.,0.));
#904=DIRECTION('',(-0.,1.,0.));
#905=DIRECTION('',(0.,0.,-1.));
#906=DIRECTION('',(-1.,0.,0.));
#907=DIRECTION('',(-0.0265018071632139,0.,-0.999648765425679));
#908=DIRECTION('',(0.999204372609298,0.,0.0398825996953445));
#909=DIRECTION('',(0.755794694095517,-0.,0.654808659363225));
#910=DIRECTION('',(0.999678337298884,0.,0.0253618204263758));
#911=DIRECTION('',(0.788802457956965,0.,0.614646794770014));
#912=DIRECTION('',(0.,0.,1.));
#913=DIRECTION('',(0.684108447114763,0.,0.729380307237746));
#914=DIRECTION('',(-0.,-0.,1.));
#915=DIRECTION('',(-0.999573299043688,-0.,-0.0292099270611711));
#916=DIRECTION('',(0.,0.,-1.));
#917=DIRECTION('',(-1.,0.,-1.40098950661037E-013));
#918=DIRECTION('',(0.998834654532263,0.,-0.0482631630274656));
#919=DIRECTION('',(0.,1.,0.));
#920=DIRECTION('',(-0.04826316302746,0.,-0.998834654532263));
#921=DIRECTION('',(-0.989461028341037,0.,-0.144799424702921));
#922=DIRECTION('',(-0.0805778374459566,0.,-0.996748319342718));
#923=DIRECTION('',(-0.971840259538221,-0.,-0.235640637286279));
#924=DIRECTION('',(0.,-1.,0.));
#925=DIRECTION('',(-0.770590223504003,0.,0.637330924591025));
#926=DIRECTION('',(0.,-1.,0.));
#927=DIRECTION('',(-0.176808184062202,0.,0.984245328182271));
#928=DIRECTION('',(0.,-1.,0.));
#929=DIRECTION('',(0.238091892780219,0.,0.971242632194619));
#930=DIRECTION('',(0.,-1.,0.));
#931=DIRECTION('',(0.44391784634569,0.,0.896067489475991));
#932=DIRECTION('',(0.,-1.,0.));
#933=DIRECTION('',(0.137619639714618,0.,-0.990485151208648));
#934=DIRECTION('',(0.,1.,0.));
#935=DIRECTION('',(-0.995596316146322,-0.,-0.0937442012919932));
#936=DIRECTION('',(0.782356614388819,0.,-0.622830737778784));
#937=DIRECTION('',(0.,1.,0.));
#938=DIRECTION('',(0.92439439428516,0.,-0.381438073367318));
#939=DIRECTION('',(0.,1.,0.));
#940=DIRECTION('',(-0.786139163045424,0.,0.61804952578757));
#941=DIRECTION('',(0.,-1.,0.));
#942=DIRECTION('',(0.780737382000852,0.,0.62485929643917));
#943=DIRECTION('',(0.,-1.,0.));
#944=DIRECTION('',(-0.624859296439036,0.,0.78073738200096));
#945=DIRECTION('',(-0.983999653519624,0.,-0.178170373163612));
#946=DIRECTION('',(-0.983999653519653,0.,-0.178170373163448));
#947=DIRECTION('',(-0.397982963352073,0.,-0.917392806207626));
#948=DIRECTION('',(0.,1.,0.));
#949=DIRECTION('',(0.526547028510218,0.,-0.850146003205955));
#950=DIRECTION('',(0.,1.,0.));
#951=DIRECTION('',(1.,0.,0.));
#952=DIRECTION('',(-0.,1.,0.));
#953=DIRECTION('',(0.,0.,-1.));
#954=DIRECTION('',(-1.,0.,0.));
#955=DIRECTION('',(-0.0265018071632139,0.,-0.999648765425679));
#956=DIRECTION('',(0.999204372609298,0.,0.0398825996953445));
#957=DIRECTION('',(0.755794694095517,-0.,0.654808659363225));
#958=DIRECTION('',(0.999678337298884,0.,0.0253618204263758));
#959=DIRECTION('',(0.788802457956965,0.,0.614646794770014));
#960=DIRECTION('',(-0.788802457956965,0.,-0.614646794770014));
#961=DIRECTION('',(0.614646794770014,3.43452000090468E-015,-0.788802457956965)
);
#962=DIRECTION('',(-0.999678337298884,1.23259516440783E-032,
-0.0253618204263758));
#963=DIRECTION('',(0.0253618204263758,2.48603781013548E-015,-0.999678337298884
));
#964=DIRECTION('',(-0.755794694095517,0.,-0.654808659363225));
#965=DIRECTION('',(0.654808659363225,3.45398925353092E-015,-0.755794694095517)
);
#966=DIRECTION('',(-0.999204372609298,1.23259516440783E-032,
-0.0398825996953445));
#967=DIRECTION('',(0.0398825996953445,2.52085654123158E-015,-0.999204372609298
));
#968=DIRECTION('',(0.0265018071632139,-1.23259516440783E-032,0.999648765425679
));
#969=DIRECTION('',(-0.999648765425679,-2.54034618077036E-015,
0.0265018071632139));
#970=DIRECTION('',(0.,-1.,-2.42399690200981E-015));
#971=DIRECTION('',(0.,-2.42399690200981E-015,1.));
#972=DIRECTION('',(2.47697588187855E-015,-1.,0.));
#973=DIRECTION('',(-1.,-2.47697588187855E-015,-0.));
#974=DIRECTION('',(1.,2.47697588187855E-015,0.));
#975=DIRECTION('',(2.47697588187855E-015,-1.,-2.42399690200981E-015));
#976=DIRECTION('',(1.,2.47697588187855E-015,0.));
#977=DIRECTION('',(2.47697588187855E-015,-1.,-2.42399690200981E-015));
#978=DIRECTION('',(1.,2.47697588187855E-015,0.));
#979=DIRECTION('',(2.47697588187855E-015,-1.,-2.42399690200981E-015));
#980=DIRECTION('',(0.983999653519653,0.,0.178170373163448));
#981=DIRECTION('',(-0.178170373163448,-2.82653582890153E-015,0.983999653519653
));
#982=DIRECTION('',(0.983999653519624,9.86076131526265E-032,0.178170373163612)
);
#983=DIRECTION('',(-0.178170373163612,-2.82653582890186E-015,0.983999653519624
));
#984=DIRECTION('',(0.624859296439036,-2.46519032881566E-032,-0.78073738200096)
);
#985=DIRECTION('',(0.78073738200096,4.19210666537122E-016,0.624859296439036));
#986=DIRECTION('',(1.,2.47697588187855E-015,0.));
#987=DIRECTION('',(2.47697588187855E-015,-1.,-2.42399690200981E-015));
#988=DIRECTION('',(1.,2.47697588187855E-015,0.));
#989=DIRECTION('',(2.47697588187855E-015,-1.,-2.42399690200981E-015));
#990=DIRECTION('',(1.,2.47697588187855E-015,0.));
#991=DIRECTION('',(2.47697588187855E-015,-1.,-2.42399690200981E-015));
#992=DIRECTION('',(1.,2.47697588187855E-015,0.));
#993=DIRECTION('',(2.47697588187855E-015,-1.,-2.42399690200981E-015));
#994=DIRECTION('',(0.995596316146322,0.,0.0937442012919932));
#995=DIRECTION('',(-0.0937442012919932,-2.6455245116573E-015,0.995596316146322
));
#996=DIRECTION('',(1.,2.47697588187855E-015,0.));
#997=DIRECTION('',(2.47697588187855E-015,-1.,-2.42399690200981E-015));
#998=DIRECTION('',(1.,2.47697588187855E-015,0.));
#999=DIRECTION('',(2.47697588187855E-015,-1.,-2.42399690200981E-015));
#1000=DIRECTION('',(1.,2.47697588187855E-015,0.));
#1001=DIRECTION('',(2.47697588187855E-015,-1.,-2.42399690200981E-015));
#1002=DIRECTION('',(1.,2.47697588187855E-015,0.));
#1003=DIRECTION('',(2.47697588187855E-015,-1.,-2.42399690200981E-015));
#1004=DIRECTION('',(1.,2.47697588187855E-015,0.));
#1005=DIRECTION('',(2.47697588187855E-015,-1.,-2.42399690200981E-015));
#1006=DIRECTION('',(1.,2.47697588187855E-015,0.));
#1007=DIRECTION('',(2.47697588187855E-015,-1.,-2.42399690200981E-015));
#1008=DIRECTION('',(0.0805778374459566,0.,0.996748319342718));
#1009=DIRECTION('',(-0.996748319342718,-2.66424197565454E-015,
0.0805778374459566));
#1010=DIRECTION('',(0.989461028341037,9.86076131526265E-032,0.144799424702921)
);
#1011=DIRECTION('',(-0.144799424702921,-2.75711515005714E-015,
0.989461028341037));
#1012=DIRECTION('',(0.04826316302746,0.,0.998834654532263));
#1013=DIRECTION('',(-0.998834654532263,-2.59107910692066E-015,0.04826316302746
));
#1014=DIRECTION('',(1.,2.47697588187855E-015,0.));
#1015=DIRECTION('',(2.47697588187855E-015,-1.,-2.42399690200981E-015));
#1016=DIRECTION('',(1.,0.,1.40098950661037E-013));
#1017=DIRECTION('',(-1.40098950661037E-013,-2.42399690201016E-015,1.));
#1018=DIRECTION('',(2.47697588187855E-015,-1.,0.));
#1019=DIRECTION('',(-1.,-2.47697588187855E-015,-0.));
#1020=DIRECTION('',(0.999573299043688,0.,0.0292099270611711));
#1021=DIRECTION('',(-0.0292099270611711,-2.49531486505557E-015,
0.999573299043688));
#1022=DIRECTION('',(-2.47697588187855E-015,1.,0.));
#1023=DIRECTION('',(1.,2.47697588187855E-015,0.));
#1024=DIRECTION('',(-0.684108447114763,0.,-0.729380307237746));
#1025=DIRECTION('',(0.729380307237746,3.46493418618999E-015,-0.684108447114763
));
#1026=DIRECTION('',(-2.47697588187855E-015,1.,0.));
#1027=DIRECTION('',(1.,2.47697588187855E-015,-0.));
#1028=DIRECTION('',(0.,-0.,1.));
#1029=DIRECTION('',(-0.,1.,0.));
#1030=DIRECTION('',(0.,-0.,1.));
#1031=DIRECTION('',(-0.,1.,0.));
#1032=CARTESIAN_POINT('',(0.,0.,0.));
#1033=CARTESIAN_POINT('',(117.286364999995,1622.253894,2201.78961400001));
#1034=CARTESIAN_POINT('',(117.286364999995,1622.253894,2149.78961400001));
#1035=CARTESIAN_POINT('',(103.080453999995,1622.253894,2134.64360641382));
#1036=CARTESIAN_POINT('',(103.080453999995,1622.253894,2101.9249639509));
#1037=CARTESIAN_POINT('',(118.613096999995,1622.253894,2102.378865));
#1038=CARTESIAN_POINT('',(118.613096999995,1622.253894,2109.128865));
#1039=CARTESIAN_POINT('',(121.858998191551,1622.253894,2109.12886500001));
#1040=CARTESIAN_POINT('',(133.813519374845,1622.253894,2120.51969743346));
#1041=CARTESIAN_POINT('',(134.184251999995,1622.253894,2128.192228));
#1042=CARTESIAN_POINT('',(137.178879999995,1622.253894,2128.63046700001));
#1043=CARTESIAN_POINT('',(138.148961999995,1622.253894,2140.63038700001));
#1044=CARTESIAN_POINT('',(125.533352044005,1622.253894,2159.73469567358));
#1045=CARTESIAN_POINT('',(133.679725027283,1622.253894,2195.07159343014));
#1046=CARTESIAN_POINT('',(184.925975129395,1622.253894,2225.01197745923));
#1047=CARTESIAN_POINT('',(247.680651728295,1622.253894,2223.04528709892));
#1048=CARTESIAN_POINT('',(256.795921767475,1622.253894,2219.71605813511));
#1049=CARTESIAN_POINT('',(260.615785999995,1622.253894,2219.09587));
#1050=CARTESIAN_POINT('',(265.044397999866,1622.253894,2219.51286300011));
#1051=CARTESIAN_POINT('',(283.593899814959,1622.253894,2215.96258295993));
#1052=CARTESIAN_POINT('',(288.192452474442,1622.253894,2223.77780564025));
#1053=CARTESIAN_POINT('',(292.555190678669,1622.253894,2231.2442415485));
#1054=CARTESIAN_POINT('',(298.094397405013,1622.253894,2231.26831538349));
#1055=CARTESIAN_POINT('',(299.859782641112,1622.253894,2229.06253520976));
#1056=CARTESIAN_POINT('',(302.718881581238,1622.253894,2229.5802251533));
#1057=CARTESIAN_POINT('',(302.899284410302,1622.253894,2229.61289024547));
#1058=CARTESIAN_POINT('',(305.645605018966,1622.253894,2226.76030206108));
#1059=CARTESIAN_POINT('',(309.451091943624,1622.253894,2227.0370987381));
#1060=CARTESIAN_POINT('',(312.498892999995,1622.253894,2232.5098194573));
#1061=CARTESIAN_POINT('',(312.498892999995,1622.253894,2235.35344500001));
#1062=CARTESIAN_POINT('',(314.998892999995,1622.253894,2235.353445));
#1063=CARTESIAN_POINT('',(315.373933999995,1622.253894,2249.5));
#1064=CARTESIAN_POINT('',(288.451479625034,1622.253894,2248.42540755417));
#1065=CARTESIAN_POINT('',(277.538404999995,1622.253894,2238.97049100001));
#1066=CARTESIAN_POINT('',(161.214864999995,1622.253894,2236.019365));
#1067=CARTESIAN_POINT('',(117.286365,-377.746106,2201.789614));
#1068=CARTESIAN_POINT('',(117.286365,-377.746106,2149.789614));
#1069=CARTESIAN_POINT('',(103.080454,-377.746106,2134.64360641382));
#1070=CARTESIAN_POINT('',(103.080454,-377.746106,2101.92496395089));
#1071=CARTESIAN_POINT('',(118.613097,-377.746106,2102.378865));
#1072=CARTESIAN_POINT('',(118.613097,-377.746106,2109.128865));
#1073=CARTESIAN_POINT('',(121.858998191556,-377.746106,2109.128865));
#1074=CARTESIAN_POINT('',(133.81351937485,-377.746106,2120.51969743346));
#1075=CARTESIAN_POINT('',(134.184252,-377.746106,2128.192228));
#1076=CARTESIAN_POINT('',(137.17888,-377.746106,2128.630467));
#1077=CARTESIAN_POINT('',(138.148962,-377.746106,2140.630387));
#1078=CARTESIAN_POINT('',(125.53335204401,-377.746106,2159.73469567357));
#1079=CARTESIAN_POINT('',(133.679725027288,-377.746106,2195.07159343014));
#1080=CARTESIAN_POINT('',(184.9259751294,-377.746106,2225.01197745922));
#1081=CARTESIAN_POINT('',(247.6806517283,-377.746106,2223.04528709891));
#1082=CARTESIAN_POINT('',(256.79592176748,-377.746106,2219.7160581351));
#1083=CARTESIAN_POINT('',(260.615786,-377.746106,2219.09587));
#1084=CARTESIAN_POINT('',(265.044397999871,-377.746106,2219.5128630001));
#1085=CARTESIAN_POINT('',(283.593899814964,-377.746106,2215.96258295992));
#1086=CARTESIAN_POINT('',(288.192452474446,-377.746106,2223.77780564025));
#1087=CARTESIAN_POINT('',(292.555190678674,-377.746106,2231.2442415485));
#1088=CARTESIAN_POINT('',(298.094397405018,-377.746106,2231.26831538349));
#1089=CARTESIAN_POINT('',(299.859782641117,-377.746106,2229.06253520976));
#1090=CARTESIAN_POINT('',(302.718881581243,-377.746106,2229.5802251533));
#1091=CARTESIAN_POINT('',(302.899284410307,-377.746106,2229.61289024547));
#1092=CARTESIAN_POINT('',(305.645605018971,-377.746106,2226.76030206108));
#1093=CARTESIAN_POINT('',(309.451091943629,-377.746106,2227.03709873809));
#1094=CARTESIAN_POINT('',(312.498893,-377.746106,2232.5098194573));
#1095=CARTESIAN_POINT('',(312.498893,-377.746106,2235.353445));
#1096=CARTESIAN_POINT('',(314.998893,-377.746106,2235.353445));
#1097=CARTESIAN_POINT('',(315.373934,-377.746106,2249.5));
#1098=CARTESIAN_POINT('',(288.451479625039,-377.746106,2248.42540755416));
#1099=CARTESIAN_POINT('',(277.538405,-377.746106,2238.970491));
#1100=CARTESIAN_POINT('',(161.214865,-377.746106,2236.019365));
#1101=CARTESIAN_POINT('',(161.214864999995,1622.253894,2236.019365));
#1102=CARTESIAN_POINT('',(277.538404999995,1622.253894,2238.97049100001));
#1103=CARTESIAN_POINT('',(288.451479625034,1622.253894,2248.42540755417));
#1104=CARTESIAN_POINT('',(315.373933999995,1622.253894,2249.5));
#1105=CARTESIAN_POINT('',(314.998892999995,1622.253894,2235.353445));
#1106=CARTESIAN_POINT('',(312.498892999995,1622.253894,2235.35344500001));
#1107=CARTESIAN_POINT('',(312.498892999995,1622.253894,2232.5098194573));
#1108=CARTESIAN_POINT('',(309.451091943624,1622.253894,2227.0370987381));
#1109=CARTESIAN_POINT('',(305.645605018966,1622.253894,2226.76030206108));
#1110=CARTESIAN_POINT('',(302.899284410302,1622.253894,2229.61289024547));
#1111=CARTESIAN_POINT('',(302.718881581238,1622.253894,2229.5802251533));
#1112=CARTESIAN_POINT('',(299.859782641112,1622.253894,2229.06253520976));
#1113=CARTESIAN_POINT('',(298.094397405013,1622.253894,2231.26831538349));
#1114=CARTESIAN_POINT('',(292.555190678669,1622.253894,2231.2442415485));
#1115=CARTESIAN_POINT('',(288.192452474442,1622.253894,2223.77780564025));
#1116=CARTESIAN_POINT('',(283.593899814959,1622.253894,2215.96258295993));
#1117=CARTESIAN_POINT('',(265.044397999866,1622.253894,2219.51286300011));
#1118=CARTESIAN_POINT('',(260.615785999995,1622.253894,2219.09587));
#1119=CARTESIAN_POINT('',(256.795921767475,1622.253894,2219.71605813511));
#1120=CARTESIAN_POINT('',(247.680651728295,1622.253894,2223.04528709892));
#1121=CARTESIAN_POINT('',(184.925975129395,1622.253894,2225.01197745923));
#1122=CARTESIAN_POINT('',(133.679725027283,1622.253894,2195.07159343014));
#1123=CARTESIAN_POINT('',(125.533352044005,1622.253894,2159.73469567358));
#1124=CARTESIAN_POINT('',(138.148961999995,1622.253894,2140.63038700001));
#1125=CARTESIAN_POINT('',(137.178879999995,1622.253894,2128.63046700001));
#1126=CARTESIAN_POINT('',(134.184251999995,1622.253894,2128.192228));
#1127=CARTESIAN_POINT('',(133.813519374845,1622.253894,2120.51969743346));
#1128=CARTESIAN_POINT('',(121.858998191551,1622.253894,2109.12886500001));
#1129=CARTESIAN_POINT('',(118.613096999995,1622.253894,2109.128865));
#1130=CARTESIAN_POINT('',(118.613096999995,1622.253894,2102.378865));
#1131=CARTESIAN_POINT('',(103.080453999995,1622.253894,2101.9249639509));
#1132=CARTESIAN_POINT('',(103.080453999995,1622.253894,2134.64360641382));
#1133=CARTESIAN_POINT('',(117.286364999995,1622.253894,2149.78961400001));
#1134=CARTESIAN_POINT('',(117.286364999995,1622.253894,2201.78961400001));
#1135=CARTESIAN_POINT('',(117.286364999995,1622.253894,2149.78961400001));
#1136=CARTESIAN_POINT('',(103.080453999995,1622.253894,2134.64360641382));
#1137=CARTESIAN_POINT('',(103.080453999995,1622.253894,2101.9249639509));
#1138=CARTESIAN_POINT('',(118.613096999995,1622.253894,2102.378865));
#1139=CARTESIAN_POINT('',(118.613096999995,1622.253894,2109.128865));
#1140=CARTESIAN_POINT('',(121.858998191552,1622.253894,2109.12886500001));
#1141=CARTESIAN_POINT('',(121.858998191551,1622.253894,2121.09733358392));
#1142=CARTESIAN_POINT('',(134.184251999995,1622.253894,2128.192228));
#1143=CARTESIAN_POINT('',(137.178879999995,1622.253894,2128.630467));
#1144=CARTESIAN_POINT('',(138.148961999995,1622.253894,2140.63038700001));
#1145=CARTESIAN_POINT('',(158.35940982204,1622.253894,2167.69398023552));
#1146=CARTESIAN_POINT('',(164.872342438107,1622.253894,2169.27316115253));
#1147=CARTESIAN_POINT('',(200.185373054382,1622.253894,2140.06686477566));
#1148=CARTESIAN_POINT('',(211.668656151063,1622.253894,2076.1424044909));
#1149=CARTESIAN_POINT('',(237.136442607744,1622.253894,2180.03254398923));
#1150=CARTESIAN_POINT('',(259.711823053428,1622.253894,2225.60193176324));
#1151=CARTESIAN_POINT('',(265.044397999866,1622.253894,2219.51286300011));
#1152=CARTESIAN_POINT('',(275.250646468485,1622.253894,2222.60461108584));
#1153=CARTESIAN_POINT('',(258.264666336469,1622.253894,2236.12707685521));
#1154=CARTESIAN_POINT('',(317.362348640817,1622.253894,2211.74126683948));
#1155=CARTESIAN_POINT('',(295.334342203753,1622.253894,2229.05931887461));
#1156=CARTESIAN_POINT('',(299.859782641112,1622.253894,2229.06253520976));
#1157=CARTESIAN_POINT('',(302.718881581238,1622.253894,2229.5802251533));
#1158=CARTESIAN_POINT('',(302.899284410302,1622.253894,2229.61289024547));
#1159=CARTESIAN_POINT('',(307.692971256027,1622.253894,2231.47969768981));
#1160=CARTESIAN_POINT('',(307.283755188895,1622.253894,2230.5364113918));
#1161=CARTESIAN_POINT('',(306.061503776772,1622.253894,2232.5098194573));
#1162=CARTESIAN_POINT('',(312.498892999995,1622.253894,2235.35344500001));
#1163=CARTESIAN_POINT('',(314.998892999995,1622.253894,2235.35344500001));
#1164=CARTESIAN_POINT('',(315.373933999995,1622.253894,2249.5));
#1165=CARTESIAN_POINT('',(288.451479625034,1622.253894,2248.42540755417));
#1166=CARTESIAN_POINT('',(277.538404999995,1622.253894,2238.97049100001));
#1167=CARTESIAN_POINT('',(161.214864999995,1622.253894,2236.019365));
#1168=CARTESIAN_POINT('',(117.286364999995,1622.253894,2201.78961400001));
#1169=CARTESIAN_POINT('',(117.286365,-377.746106,2149.789614));
#1170=CARTESIAN_POINT('',(103.080454,-377.746106,2134.64360641382));
#1171=CARTESIAN_POINT('',(103.080454,-377.746106,2101.92496395089));
#1172=CARTESIAN_POINT('',(118.613097,-377.746106,2102.378865));
#1173=CARTESIAN_POINT('',(118.613097,-377.746106,2109.128865));
#1174=CARTESIAN_POINT('',(121.858998191556,-377.746106,2109.128865));
#1175=CARTESIAN_POINT('',(121.858998191556,-377.746106,2121.09733358391));
#1176=CARTESIAN_POINT('',(134.184252,-377.746106,2128.192228));
#1177=CARTESIAN_POINT('',(137.17888,-377.746106,2128.630467));
#1178=CARTESIAN_POINT('',(138.148962,-377.746106,2140.630387));
#1179=CARTESIAN_POINT('',(158.359409822044,-377.746106,2167.69398023551));
#1180=CARTESIAN_POINT('',(164.872342438112,-377.746106,2169.27316115253));
#1181=CARTESIAN_POINT('',(200.185373054386,-377.746106,2140.06686477565));
#1182=CARTESIAN_POINT('',(211.668656151068,-377.746106,2076.1424044909));
#1183=CARTESIAN_POINT('',(237.136442607749,-377.746106,2180.03254398923));
#1184=CARTESIAN_POINT('',(259.711823053433,-377.746106,2225.60193176323));
#1185=CARTESIAN_POINT('',(265.044397999871,-377.746106,2219.5128630001));
#1186=CARTESIAN_POINT('',(275.25064646849,-377.746106,2222.60461108583));
#1187=CARTESIAN_POINT('',(258.264666336474,-377.746106,2236.12707685521));
#1188=CARTESIAN_POINT('',(317.362348640822,-377.746106,2211.74126683948));
#1189=CARTESIAN_POINT('',(295.334342203758,-377.746106,2229.05931887461));
#1190=CARTESIAN_POINT('',(299.859782641117,-377.746106,2229.06253520976));
#1191=CARTESIAN_POINT('',(302.718881581243,-377.746106,2229.5802251533));
#1192=CARTESIAN_POINT('',(302.899284410307,-377.746106,2229.61289024547));
#1193=CARTESIAN_POINT('',(307.692971256032,-377.746106,2231.47969768981));
#1194=CARTESIAN_POINT('',(307.283755188899,-377.746106,2230.53641139179));
#1195=CARTESIAN_POINT('',(306.061503776777,-377.746106,2232.5098194573));
#1196=CARTESIAN_POINT('',(312.498893,-377.746106,2235.353445));
#1197=CARTESIAN_POINT('',(314.998893,-377.746106,2235.353445));
#1198=CARTESIAN_POINT('',(315.373934,-377.746106,2249.5));
#1199=CARTESIAN_POINT('',(288.451479625039,-377.746106,2248.42540755416));
#1200=CARTESIAN_POINT('',(277.538405,-377.746106,2238.970491));
#1201=CARTESIAN_POINT('',(161.214865,-377.746106,2236.019365));
#1202=CARTESIAN_POINT('',(117.286365,-377.746106,2201.789614));
#1203=CARTESIAN_POINT('',(117.286364999995,1622.253894,2201.78961400001));
#1204=CARTESIAN_POINT('',(161.214864999995,1622.253894,2236.019365));
#1205=CARTESIAN_POINT('',(277.538404999995,1622.253894,2238.97049100001));
#1206=CARTESIAN_POINT('',(288.451479625034,1622.253894,2248.42540755417));
#1207=CARTESIAN_POINT('',(315.373933999995,1622.253894,2249.5));
#1208=CARTESIAN_POINT('',(314.998892999995,1622.253894,2235.35344500001));
#1209=CARTESIAN_POINT('',(312.498892999995,1622.253894,2235.35344500001));
#1210=CARTESIAN_POINT('',(306.061503776772,1622.253894,2232.5098194573));
#1211=CARTESIAN_POINT('',(307.283755188895,1622.253894,2230.5364113918));
#1212=CARTESIAN_POINT('',(307.692971256027,1622.253894,2231.47969768981));
#1213=CARTESIAN_POINT('',(302.899284410302,1622.253894,2229.61289024547));
#1214=CARTESIAN_POINT('',(302.718881581238,1622.253894,2229.5802251533));
#1215=CARTESIAN_POINT('',(299.859782641112,1622.253894,2229.06253520976));
#1216=CARTESIAN_POINT('',(295.334342203753,1622.253894,2229.05931887461));
#1217=CARTESIAN_POINT('',(317.362348640817,1622.253894,2211.74126683948));
#1218=CARTESIAN_POINT('',(258.264666336469,1622.253894,2236.12707685521));
#1219=CARTESIAN_POINT('',(275.250646468485,1622.253894,2222.60461108584));
#1220=CARTESIAN_POINT('',(265.044397999866,1622.253894,2219.51286300011));
#1221=CARTESIAN_POINT('',(259.711823053428,1622.253894,2225.60193176324));
#1222=CARTESIAN_POINT('',(237.136442607744,1622.253894,2180.03254398923));
#1223=CARTESIAN_POINT('',(211.668656151063,1622.253894,2076.1424044909));
#1224=CARTESIAN_POINT('',(200.185373054382,1622.253894,2140.06686477566));
#1225=CARTESIAN_POINT('',(164.872342438107,1622.253894,2169.27316115253));
#1226=CARTESIAN_POINT('',(158.35940982204,1622.253894,2167.69398023552));
#1227=CARTESIAN_POINT('',(138.148961999995,1622.253894,2140.63038700001));
#1228=CARTESIAN_POINT('',(137.178879999995,1622.253894,2128.630467));
#1229=CARTESIAN_POINT('',(134.184251999995,1622.253894,2128.192228));
#1230=CARTESIAN_POINT('',(121.858998191551,1622.253894,2121.09733358392));
#1231=CARTESIAN_POINT('',(121.858998191552,1622.253894,2109.12886500001));
#1232=CARTESIAN_POINT('',(118.613096999995,1622.253894,2109.128865));
#1233=CARTESIAN_POINT('',(118.613096999995,1622.253894,2102.378865));
#1234=CARTESIAN_POINT('',(103.080453999995,1622.253894,2101.9249639509));
#1235=CARTESIAN_POINT('',(103.080453999995,1622.253894,2134.64360641382));
#1236=CARTESIAN_POINT('',(117.286364999995,1622.253894,2149.78961400001));
#1237=CARTESIAN_POINT('',(306.061503776772,1622.253894,2232.5098194573));
#1238=CARTESIAN_POINT('',(306.061503776777,-377.746106,2232.5098194573));
#1239=PRODUCT_DEFINITION_SHAPE('','',#1240);
#1240=PRODUCT_DEFINITION('','',#1252,#1257);
#1241=(
GEOMETRIC_REPRESENTATION_CONTEXT(3)
GLOBAL_UNCERTAINTY_ASSIGNED_CONTEXT((#1242))
GLOBAL_UNIT_ASSIGNED_CONTEXT((#1244,#1243,#1247))
REPRESENTATION_CONTEXT('','')
);
#1242=UNCERTAINTY_MEASURE_WITH_UNIT(LENGTH_MEASURE(0.001),#1244,'','tolerance'
);
#1243=(
CONVERSION_BASED_UNIT('',#1245)
NAMED_UNIT(#1251)
PLANE_ANGLE_UNIT()
);
#1244=(
CONVERSION_BASED_UNIT('',#1246)
LENGTH_UNIT()
NAMED_UNIT(#1250)
);
#1245=PLANE_ANGLE_MEASURE_WITH_UNIT(PLANE_ANGLE_MEASURE(0.0174532925199433),
#1248);
#1246=LENGTH_MEASURE_WITH_UNIT(LENGTH_MEASURE(1.),#1249);
#1247=(
NAMED_UNIT(*)
SI_UNIT($,.STERADIAN.)
SOLID_ANGLE_UNIT()
);
#1248=(
NAMED_UNIT(*)
PLANE_ANGLE_UNIT()
SI_UNIT($,.RADIAN.)
);
#1249=(
LENGTH_UNIT()
NAMED_UNIT(*)
SI_UNIT(.MILLI.,.METRE.)
);
#1250=DIMENSIONAL_EXPONENTS(1.,0.,0.,0.,0.,0.,0.);
#1251=DIMENSIONAL_EXPONENTS(0.,0.,0.,0.,0.,0.,0.);
#1252=PRODUCT_DEFINITION_FORMATION_WITH_SPECIFIED_SOURCE('','',#1255,
.NOT_KNOWN.);
#1253=PRODUCT_CATEGORY_RELATIONSHIP('','',#1258,#1254);
#1254=PRODUCT_RELATED_PRODUCT_CATEGORY('assembly','',(#1255));
#1255=PRODUCT('','master','',(#1256));
#1256=PRODUCT_CONTEXT('',#1260,'');
#1257=PRODUCT_DEFINITION_CONTEXT('',#1260,'part_definition');
#1258=PRODUCT_CATEGORY('part','');
#1259=APPLICATION_PROTOCOL_DEFINITION('international standard',
'automotive_design_cc2',1994,#1260);
#1260=APPLICATION_CONTEXT(
'configuration controlled 3D designs of mechanical parts and assemblies');
ENDSEC;
END-ISO-10303-21;
59800