ISO-10303-21;
HEADER;
/* Generated by software using Delcam plc STEP library */

FILE_DESCRIPTION(
/* description */ ('AP-214 File'),
/* implementation_level */ '2;1');

FILE_NAME(
/* name */ 'D703',
/* time_stamp */ 'Mon Dec 26 15:23:36 2016',
/* author */ (''),
/* organization */ (''),
/* preprocessor_version */ 'DELCAM STEP V1',
/* originating_system */ 'Exchange7.1.0006',
/* authorisation */ '');

FILE_SCHEMA (('AUTOMOTIVE_DESIGN'));
ENDSEC;
DATA;
#10=PRESENTATION_STYLE_ASSIGNMENT((#20));
#11=PRESENTATION_STYLE_ASSIGNMENT((#21));
#12=SURFACE_SIDE_STYLE('',(#14));
#13=SURFACE_SIDE_STYLE('',(#15));
#14=SURFACE_STYLE_FILL_AREA(#16);
#15=SURFACE_STYLE_FILL_AREA(#17);
#16=FILL_AREA_STYLE('',(#18));
#17=FILL_AREA_STYLE('',(#19));
#18=FILL_AREA_STYLE_COLOUR('',#50);
#19=FILL_AREA_STYLE_COLOUR('',#51);
#20=SURFACE_STYLE_USAGE(.BOTH.,#12);
#21=SURFACE_STYLE_USAGE(.BOTH.,#13);
#22=STYLED_ITEM('',(#10),#74);
#23=STYLED_ITEM('',(#10),#75);
#24=STYLED_ITEM('',(#10),#76);
#25=STYLED_ITEM('',(#10),#77);
#26=STYLED_ITEM('',(#10),#78);
#27=STYLED_ITEM('',(#10),#79);
#28=STYLED_ITEM('',(#10),#80);
#29=STYLED_ITEM('',(#10),#81);
#30=STYLED_ITEM('',(#10),#82);
#31=STYLED_ITEM('',(#10),#83);
#32=STYLED_ITEM('',(#10),#84);
#33=STYLED_ITEM('',(#10),#85);
#34=STYLED_ITEM('',(#10),#86);
#35=STYLED_ITEM('',(#10),#87);
#36=STYLED_ITEM('',(#10),#88);
#37=STYLED_ITEM('',(#10),#89);
#38=STYLED_ITEM('',(#10),#90);
#39=STYLED_ITEM('',(#10),#91);
#40=STYLED_ITEM('',(#10),#92);
#41=STYLED_ITEM('',(#10),#93);
#42=STYLED_ITEM('',(#10),#94);
#43=STYLED_ITEM('',(#10),#95);
#44=STYLED_ITEM('',(#10),#96);
#45=STYLED_ITEM('',(#10),#97);
#46=STYLED_ITEM('',(#10),#98);
#47=STYLED_ITEM('',(#10),#99);
#48=STYLED_ITEM('',(#10),#100);
#49=STYLED_ITEM('',(#11),#57);
#50=COLOUR_RGB('',0.,0.,0.);
#51=COLOUR_RGB('rgb_colour_1',0.4,0.4,0.4);
#52=MECHANICAL_DESIGN_GEOMETRIC_PRESENTATION_REPRESENTATION('',(#22,#23,#24,
#25,#26,#27,#28,#29,#30,#31,#32,#33,#34,#35,#36,#37,#38,#39,#40,#41,#42,#43,
#44,#45,#46,#47,#48,#49),#929);
#53=PRESENTATION_LAYER_ASSIGNMENT('0','General',(#74,#75,#76,#77,#78,#79,#80,
#81,#82,#83,#84,#85,#86,#87,#88,#89,#90,#91,#92,#93,#94,#95,#96,#97,#98,#99,
#100,#57));
#54=SHAPE_REPRESENTATION_RELATIONSHIP('','',#570,#55);
#55=ADVANCED_BREP_SHAPE_REPRESENTATION('',(#56),#929);
#56=MANIFOLD_SOLID_BREP('7543',#57);
#57=CLOSED_SHELL('',(#74,#75,#76,#77,#78,#79,#80,#81,#82,#83,#84,#85,#86,#87,
#88,#89,#90,#91,#92,#93,#94,#95,#96,#97,#98,#99,#100));
#58=PLANE('',#598);
#59=PLANE('',#600);
#60=PLANE('',#601);
#61=PLANE('',#602);
#62=PLANE('',#603);
#63=PLANE('',#608);
#64=PLANE('',#609);
#65=PLANE('',#610);
#66=PLANE('',#611);
#67=PLANE('',#612);
#68=PLANE('',#613);
#69=PLANE('',#614);
#70=PLANE('',#616);
#71=PLANE('',#617);
#72=PLANE('',#619);
#73=PLANE('',#620);
#74=ADVANCED_FACE('',(#101),#305,.F.);
#75=ADVANCED_FACE('',(#102),#306,.F.);
#76=ADVANCED_FACE('',(#103),#307,.F.);
#77=ADVANCED_FACE('',(#104),#308,.F.);
#78=ADVANCED_FACE('',(#105),#58,.T.);
#79=ADVANCED_FACE('',(#106),#309,.T.);
#80=ADVANCED_FACE('',(#107),#59,.T.);
#81=ADVANCED_FACE('',(#108),#60,.T.);
#82=ADVANCED_FACE('',(#109),#61,.T.);
#83=ADVANCED_FACE('',(#110),#62,.T.);
#84=ADVANCED_FACE('',(#111),#310,.T.);
#85=ADVANCED_FACE('',(#112),#311,.T.);
#86=ADVANCED_FACE('',(#113),#312,.T.);
#87=ADVANCED_FACE('',(#114),#313,.F.);
#88=ADVANCED_FACE('',(#115),#63,.T.);
#89=ADVANCED_FACE('',(#116),#64,.T.);
#90=ADVANCED_FACE('',(#117),#65,.T.);
#91=ADVANCED_FACE('',(#118),#66,.T.);
#92=ADVANCED_FACE('',(#119),#67,.T.);
#93=ADVANCED_FACE('',(#120),#68,.T.);
#94=ADVANCED_FACE('',(#121),#69,.T.);
#95=ADVANCED_FACE('',(#122),#314,.F.);
#96=ADVANCED_FACE('',(#123),#70,.T.);
#97=ADVANCED_FACE('',(#124),#71,.T.);
#98=ADVANCED_FACE('',(#125),#315,.T.);
#99=ADVANCED_FACE('',(#126),#72,.T.);
#100=ADVANCED_FACE('',(#127),#73,.F.);
#101=FACE_OUTER_BOUND('',#128,.T.);
#102=FACE_OUTER_BOUND('',#129,.T.);
#103=FACE_OUTER_BOUND('',#130,.T.);
#104=FACE_OUTER_BOUND('',#131,.T.);
#105=FACE_OUTER_BOUND('',#132,.T.);
#106=FACE_OUTER_BOUND('',#133,.T.);
#107=FACE_OUTER_BOUND('',#134,.T.);
#108=FACE_OUTER_BOUND('',#135,.T.);
#109=FACE_OUTER_BOUND('',#136,.T.);
#110=FACE_OUTER_BOUND('',#137,.T.);
#111=FACE_OUTER_BOUND('',#138,.T.);
#112=FACE_OUTER_BOUND('',#139,.T.);
#113=FACE_OUTER_BOUND('',#140,.T.);
#114=FACE_OUTER_BOUND('',#141,.T.);
#115=FACE_OUTER_BOUND('',#142,.T.);
#116=FACE_OUTER_BOUND('',#143,.T.);
#117=FACE_OUTER_BOUND('',#144,.T.);
#118=FACE_OUTER_BOUND('',#145,.T.);
#119=FACE_OUTER_BOUND('',#146,.T.);
#120=FACE_OUTER_BOUND('',#147,.T.);
#121=FACE_OUTER_BOUND('',#148,.T.);
#122=FACE_OUTER_BOUND('',#149,.T.);
#123=FACE_OUTER_BOUND('',#150,.T.);
#124=FACE_OUTER_BOUND('',#151,.T.);
#125=FACE_OUTER_BOUND('',#152,.T.);
#126=FACE_OUTER_BOUND('',#153,.T.);
#127=FACE_OUTER_BOUND('',#154,.T.);
#128=EDGE_LOOP('',(#155,#156,#157,#158));
#129=EDGE_LOOP('',(#159,#160,#161,#162));
#130=EDGE_LOOP('',(#163,#164,#165,#166));
#131=EDGE_LOOP('',(#167,#168,#169,#170));
#132=EDGE_LOOP('',(#171,#172,#173,#174));
#133=EDGE_LOOP('',(#175,#176,#177,#178));
#134=EDGE_LOOP('',(#179,#180,#181,#182));
#135=EDGE_LOOP('',(#183,#184,#185,#186));
#136=EDGE_LOOP('',(#187,#188,#189,#190));
#137=EDGE_LOOP('',(#191,#192,#193,#194));
#138=EDGE_LOOP('',(#195,#196,#197,#198));
#139=EDGE_LOOP('',(#199,#200,#201,#202));
#140=EDGE_LOOP('',(#203,#204,#205,#206));
#141=EDGE_LOOP('',(#207,#208,#209,#210));
#142=EDGE_LOOP('',(#211,#212,#213,#214));
#143=EDGE_LOOP('',(#215,#216,#217,#218));
#144=EDGE_LOOP('',(#219,#220,#221,#222));
#145=EDGE_LOOP('',(#223,#224,#225,#226));
#146=EDGE_LOOP('',(#227,#228,#229,#230));
#147=EDGE_LOOP('',(#231,#232,#233,#234));
#148=EDGE_LOOP('',(#235,#236,#237,#238));
#149=EDGE_LOOP('',(#239,#240,#241,#242));
#150=EDGE_LOOP('',(#243,#244,#245,#246));
#151=EDGE_LOOP('',(#247,#248,#249,#250));
#152=EDGE_LOOP('',(#251,#252,#253,#254));
#153=EDGE_LOOP('',(#255,#256,#257,#258,#259,#260,#261,#262,#263,#264,#265,#266
,#267,#268,#269,#270,#271,#272,#273,#274,#275,#276,#277,#278,#279));
#154=EDGE_LOOP('',(#280,#281,#282,#283,#284,#285,#286,#287,#288,#289,#290,#291
,#292,#293,#294,#295,#296,#297,#298,#299,#300,#301,#302,#303,#304));
#155=ORIENTED_EDGE('',*,*,#412,.F.);
#156=ORIENTED_EDGE('',*,*,#362,.F.);
#157=ORIENTED_EDGE('',*,*,#387,.T.);
#158=ORIENTED_EDGE('',*,*,#338,.T.);
#159=ORIENTED_EDGE('',*,*,#411,.F.);
#160=ORIENTED_EDGE('',*,*,#338,.F.);
#161=ORIENTED_EDGE('',*,*,#386,.T.);
#162=ORIENTED_EDGE('',*,*,#339,.T.);
#163=ORIENTED_EDGE('',*,*,#410,.F.);
#164=ORIENTED_EDGE('',*,*,#339,.F.);
#165=ORIENTED_EDGE('',*,*,#385,.T.);
#166=ORIENTED_EDGE('',*,*,#340,.T.);
#167=ORIENTED_EDGE('',*,*,#409,.F.);
#168=ORIENTED_EDGE('',*,*,#340,.F.);
#169=ORIENTED_EDGE('',*,*,#384,.T.);
#170=ORIENTED_EDGE('',*,*,#341,.T.);
#171=ORIENTED_EDGE('',*,*,#408,.F.);
#172=ORIENTED_EDGE('',*,*,#341,.F.);
#173=ORIENTED_EDGE('',*,*,#383,.T.);
#174=ORIENTED_EDGE('',*,*,#342,.T.);
#175=ORIENTED_EDGE('',*,*,#407,.F.);
#176=ORIENTED_EDGE('',*,*,#342,.F.);
#177=ORIENTED_EDGE('',*,*,#382,.T.);
#178=ORIENTED_EDGE('',*,*,#343,.T.);
#179=ORIENTED_EDGE('',*,*,#406,.F.);
#180=ORIENTED_EDGE('',*,*,#343,.F.);
#181=ORIENTED_EDGE('',*,*,#381,.T.);
#182=ORIENTED_EDGE('',*,*,#344,.T.);
#183=ORIENTED_EDGE('',*,*,#405,.F.);
#184=ORIENTED_EDGE('',*,*,#344,.F.);
#185=ORIENTED_EDGE('',*,*,#380,.T.);
#186=ORIENTED_EDGE('',*,*,#345,.T.);
#187=ORIENTED_EDGE('',*,*,#404,.F.);
#188=ORIENTED_EDGE('',*,*,#345,.F.);
#189=ORIENTED_EDGE('',*,*,#379,.T.);
#190=ORIENTED_EDGE('',*,*,#346,.T.);
#191=ORIENTED_EDGE('',*,*,#403,.F.);
#192=ORIENTED_EDGE('',*,*,#346,.F.);
#193=ORIENTED_EDGE('',*,*,#378,.T.);
#194=ORIENTED_EDGE('',*,*,#347,.T.);
#195=ORIENTED_EDGE('',*,*,#402,.F.);
#196=ORIENTED_EDGE('',*,*,#347,.F.);
#197=ORIENTED_EDGE('',*,*,#377,.T.);
#198=ORIENTED_EDGE('',*,*,#348,.T.);
#199=ORIENTED_EDGE('',*,*,#401,.F.);
#200=ORIENTED_EDGE('',*,*,#348,.F.);
#201=ORIENTED_EDGE('',*,*,#376,.T.);
#202=ORIENTED_EDGE('',*,*,#349,.T.);
#203=ORIENTED_EDGE('',*,*,#400,.F.);
#204=ORIENTED_EDGE('',*,*,#349,.F.);
#205=ORIENTED_EDGE('',*,*,#375,.T.);
#206=ORIENTED_EDGE('',*,*,#350,.T.);
#207=ORIENTED_EDGE('',*,*,#399,.F.);
#208=ORIENTED_EDGE('',*,*,#350,.F.);
#209=ORIENTED_EDGE('',*,*,#374,.T.);
#210=ORIENTED_EDGE('',*,*,#351,.T.);
#211=ORIENTED_EDGE('',*,*,#398,.F.);
#212=ORIENTED_EDGE('',*,*,#351,.F.);
#213=ORIENTED_EDGE('',*,*,#373,.T.);
#214=ORIENTED_EDGE('',*,*,#352,.T.);
#215=ORIENTED_EDGE('',*,*,#397,.F.);
#216=ORIENTED_EDGE('',*,*,#352,.F.);
#217=ORIENTED_EDGE('',*,*,#372,.T.);
#218=ORIENTED_EDGE('',*,*,#353,.T.);
#219=ORIENTED_EDGE('',*,*,#396,.F.);
#220=ORIENTED_EDGE('',*,*,#353,.F.);
#221=ORIENTED_EDGE('',*,*,#371,.T.);
#222=ORIENTED_EDGE('',*,*,#354,.T.);
#223=ORIENTED_EDGE('',*,*,#395,.F.);
#224=ORIENTED_EDGE('',*,*,#354,.F.);
#225=ORIENTED_EDGE('',*,*,#370,.T.);
#226=ORIENTED_EDGE('',*,*,#355,.T.);
#227=ORIENTED_EDGE('',*,*,#394,.F.);
#228=ORIENTED_EDGE('',*,*,#355,.F.);
#229=ORIENTED_EDGE('',*,*,#369,.T.);
#230=ORIENTED_EDGE('',*,*,#356,.T.);
#231=ORIENTED_EDGE('',*,*,#393,.F.);
#232=ORIENTED_EDGE('',*,*,#356,.F.);
#233=ORIENTED_EDGE('',*,*,#368,.T.);
#234=ORIENTED_EDGE('',*,*,#357,.T.);
#235=ORIENTED_EDGE('',*,*,#392,.F.);
#236=ORIENTED_EDGE('',*,*,#357,.F.);
#237=ORIENTED_EDGE('',*,*,#367,.T.);
#238=ORIENTED_EDGE('',*,*,#358,.T.);
#239=ORIENTED_EDGE('',*,*,#391,.F.);
#240=ORIENTED_EDGE('',*,*,#358,.F.);
#241=ORIENTED_EDGE('',*,*,#366,.T.);
#242=ORIENTED_EDGE('',*,*,#359,.T.);
#243=ORIENTED_EDGE('',*,*,#390,.F.);
#244=ORIENTED_EDGE('',*,*,#359,.F.);
#245=ORIENTED_EDGE('',*,*,#365,.T.);
#246=ORIENTED_EDGE('',*,*,#360,.T.);
#247=ORIENTED_EDGE('',*,*,#389,.F.);
#248=ORIENTED_EDGE('',*,*,#360,.F.);
#249=ORIENTED_EDGE('',*,*,#364,.T.);
#250=ORIENTED_EDGE('',*,*,#361,.T.);
#251=ORIENTED_EDGE('',*,*,#388,.F.);
#252=ORIENTED_EDGE('',*,*,#361,.F.);
#253=ORIENTED_EDGE('',*,*,#363,.T.);
#254=ORIENTED_EDGE('',*,*,#362,.T.);
#255=ORIENTED_EDGE('',*,*,#387,.F.);
#256=ORIENTED_EDGE('',*,*,#363,.F.);
#257=ORIENTED_EDGE('',*,*,#364,.F.);
#258=ORIENTED_EDGE('',*,*,#365,.F.);
#259=ORIENTED_EDGE('',*,*,#366,.F.);
#260=ORIENTED_EDGE('',*,*,#367,.F.);
#261=ORIENTED_EDGE('',*,*,#368,.F.);
#262=ORIENTED_EDGE('',*,*,#369,.F.);
#263=ORIENTED_EDGE('',*,*,#370,.F.);
#264=ORIENTED_EDGE('',*,*,#371,.F.);
#265=ORIENTED_EDGE('',*,*,#372,.F.);
#266=ORIENTED_EDGE('',*,*,#373,.F.);
#267=ORIENTED_EDGE('',*,*,#374,.F.);
#268=ORIENTED_EDGE('',*,*,#375,.F.);
#269=ORIENTED_EDGE('',*,*,#376,.F.);
#270=ORIENTED_EDGE('',*,*,#377,.F.);
#271=ORIENTED_EDGE('',*,*,#378,.F.);
#272=ORIENTED_EDGE('',*,*,#379,.F.);
#273=ORIENTED_EDGE('',*,*,#380,.F.);
#274=ORIENTED_EDGE('',*,*,#381,.F.);
#275=ORIENTED_EDGE('',*,*,#382,.F.);
#276=ORIENTED_EDGE('',*,*,#383,.F.);
#277=ORIENTED_EDGE('',*,*,#384,.F.);
#278=ORIENTED_EDGE('',*,*,#385,.F.);
#279=ORIENTED_EDGE('',*,*,#386,.F.);
#280=ORIENTED_EDGE('',*,*,#412,.T.);
#281=ORIENTED_EDGE('',*,*,#411,.T.);
#282=ORIENTED_EDGE('',*,*,#410,.T.);
#283=ORIENTED_EDGE('',*,*,#409,.T.);
#284=ORIENTED_EDGE('',*,*,#408,.T.);
#285=ORIENTED_EDGE('',*,*,#407,.T.);
#286=ORIENTED_EDGE('',*,*,#406,.T.);
#287=ORIENTED_EDGE('',*,*,#405,.T.);
#288=ORIENTED_EDGE('',*,*,#404,.T.);
#289=ORIENTED_EDGE('',*,*,#403,.T.);
#290=ORIENTED_EDGE('',*,*,#402,.T.);
#291=ORIENTED_EDGE('',*,*,#401,.T.);
#292=ORIENTED_EDGE('',*,*,#400,.T.);
#293=ORIENTED_EDGE('',*,*,#399,.T.);
#294=ORIENTED_EDGE('',*,*,#398,.T.);
#295=ORIENTED_EDGE('',*,*,#397,.T.);
#296=ORIENTED_EDGE('',*,*,#396,.T.);
#297=ORIENTED_EDGE('',*,*,#395,.T.);
#298=ORIENTED_EDGE('',*,*,#394,.T.);
#299=ORIENTED_EDGE('',*,*,#393,.T.);
#300=ORIENTED_EDGE('',*,*,#392,.T.);
#301=ORIENTED_EDGE('',*,*,#391,.T.);
#302=ORIENTED_EDGE('',*,*,#390,.T.);
#303=ORIENTED_EDGE('',*,*,#389,.T.);
#304=ORIENTED_EDGE('',*,*,#388,.T.);
#305=CYLINDRICAL_SURFACE('',#594,79.5227192701283);
#306=CYLINDRICAL_SURFACE('',#595,13.7353658133378);
#307=CYLINDRICAL_SURFACE('',#596,12.3894757249101);
#308=CYLINDRICAL_SURFACE('',#597,29.731822060944);
#309=CYLINDRICAL_SURFACE('',#599,6.4736299741015);
#310=CYLINDRICAL_SURFACE('',#604,38.2032014657081);
#311=CYLINDRICAL_SURFACE('',#605,17.1008622760527);
#312=CYLINDRICAL_SURFACE('',#606,121.060904459744);
#313=CYLINDRICAL_SURFACE('',#607,24.6928398180674);
#314=CYLINDRICAL_SURFACE('',#615,3.97933090798842);
#315=CYLINDRICAL_SURFACE('',#618,20.2810160833019);
#316=CIRCLE('',#572,20.2810160833019);
#317=CIRCLE('',#573,3.97933090798842);
#318=CIRCLE('',#574,24.6928398180674);
#319=CIRCLE('',#575,121.060904459744);
#320=CIRCLE('',#576,17.1008622760527);
#321=CIRCLE('',#577,38.2032014657081);
#322=CIRCLE('',#578,6.4736299741015);
#323=CIRCLE('',#579,29.731822060944);
#324=CIRCLE('',#580,12.3894757249101);
#325=CIRCLE('',#581,13.7353658133378);
#326=CIRCLE('',#582,79.5227192701283);
#327=CIRCLE('',#583,20.2810160833019);
#328=CIRCLE('',#584,3.97933090798842);
#329=CIRCLE('',#585,24.6928398180674);
#330=CIRCLE('',#586,121.060904459744);
#331=CIRCLE('',#587,17.1008622760527);
#332=CIRCLE('',#588,38.2032014657081);
#333=CIRCLE('',#589,6.4736299741015);
#334=CIRCLE('',#590,29.731822060944);
#335=CIRCLE('',#591,12.3894757249101);
#336=CIRCLE('',#592,13.7353658133378);
#337=CIRCLE('',#593,79.5227192701283);
#338=EDGE_CURVE('',#543,#568,#413,.T.);
#339=EDGE_CURVE('',#542,#567,#414,.T.);
#340=EDGE_CURVE('',#541,#566,#415,.T.);
#341=EDGE_CURVE('',#540,#565,#416,.T.);
#342=EDGE_CURVE('',#539,#564,#417,.T.);
#343=EDGE_CURVE('',#538,#563,#418,.T.);
#344=EDGE_CURVE('',#537,#562,#419,.T.);
#345=EDGE_CURVE('',#536,#561,#420,.T.);
#346=EDGE_CURVE('',#535,#560,#421,.T.);
#347=EDGE_CURVE('',#534,#559,#422,.T.);
#348=EDGE_CURVE('',#533,#558,#423,.T.);
#349=EDGE_CURVE('',#532,#557,#424,.T.);
#350=EDGE_CURVE('',#531,#556,#425,.T.);
#351=EDGE_CURVE('',#530,#555,#426,.T.);
#352=EDGE_CURVE('',#529,#554,#427,.T.);
#353=EDGE_CURVE('',#528,#553,#428,.T.);
#354=EDGE_CURVE('',#527,#552,#429,.T.);
#355=EDGE_CURVE('',#526,#551,#430,.T.);
#356=EDGE_CURVE('',#525,#550,#431,.T.);
#357=EDGE_CURVE('',#524,#549,#432,.T.);
#358=EDGE_CURVE('',#523,#548,#433,.T.);
#359=EDGE_CURVE('',#522,#547,#434,.T.);
#360=EDGE_CURVE('',#521,#546,#435,.T.);
#361=EDGE_CURVE('',#520,#545,#436,.T.);
#362=EDGE_CURVE('',#519,#544,#437,.T.);
#363=EDGE_CURVE('',#520,#519,#316,.T.);
#364=EDGE_CURVE('',#521,#520,#438,.T.);
#365=EDGE_CURVE('',#522,#521,#439,.T.);
#366=EDGE_CURVE('',#523,#522,#317,.T.);
#367=EDGE_CURVE('',#524,#523,#440,.T.);
#368=EDGE_CURVE('',#525,#524,#441,.T.);
#369=EDGE_CURVE('',#526,#525,#442,.T.);
#370=EDGE_CURVE('',#527,#526,#443,.T.);
#371=EDGE_CURVE('',#528,#527,#444,.T.);
#372=EDGE_CURVE('',#529,#528,#445,.T.);
#373=EDGE_CURVE('',#530,#529,#446,.T.);
#374=EDGE_CURVE('',#531,#530,#318,.T.);
#375=EDGE_CURVE('',#532,#531,#319,.T.);
#376=EDGE_CURVE('',#533,#532,#320,.T.);
#377=EDGE_CURVE('',#534,#533,#321,.T.);
#378=EDGE_CURVE('',#535,#534,#447,.T.);
#379=EDGE_CURVE('',#536,#535,#448,.T.);
#380=EDGE_CURVE('',#537,#536,#449,.T.);
#381=EDGE_CURVE('',#538,#537,#450,.T.);
#382=EDGE_CURVE('',#539,#538,#322,.T.);
#383=EDGE_CURVE('',#540,#539,#451,.T.);
#384=EDGE_CURVE('',#541,#540,#323,.T.);
#385=EDGE_CURVE('',#542,#541,#324,.T.);
#386=EDGE_CURVE('',#543,#542,#325,.T.);
#387=EDGE_CURVE('',#519,#543,#326,.T.);
#388=EDGE_CURVE('',#545,#544,#327,.T.);
#389=EDGE_CURVE('',#546,#545,#452,.T.);
#390=EDGE_CURVE('',#547,#546,#453,.T.);
#391=EDGE_CURVE('',#548,#547,#328,.T.);
#392=EDGE_CURVE('',#549,#548,#454,.T.);
#393=EDGE_CURVE('',#550,#549,#455,.T.);
#394=EDGE_CURVE('',#551,#550,#456,.T.);
#395=EDGE_CURVE('',#552,#551,#457,.T.);
#396=EDGE_CURVE('',#553,#552,#458,.T.);
#397=EDGE_CURVE('',#554,#553,#459,.T.);
#398=EDGE_CURVE('',#555,#554,#460,.T.);
#399=EDGE_CURVE('',#556,#555,#329,.T.);
#400=EDGE_CURVE('',#557,#556,#330,.T.);
#401=EDGE_CURVE('',#558,#557,#331,.T.);
#402=EDGE_CURVE('',#559,#558,#332,.T.);
#403=EDGE_CURVE('',#560,#559,#461,.T.);
#404=EDGE_CURVE('',#561,#560,#462,.T.);
#405=EDGE_CURVE('',#562,#561,#463,.T.);
#406=EDGE_CURVE('',#563,#562,#464,.T.);
#407=EDGE_CURVE('',#564,#563,#333,.T.);
#408=EDGE_CURVE('',#565,#564,#465,.T.);
#409=EDGE_CURVE('',#566,#565,#334,.T.);
#410=EDGE_CURVE('',#567,#566,#335,.T.);
#411=EDGE_CURVE('',#568,#567,#336,.T.);
#412=EDGE_CURVE('',#544,#568,#337,.T.);
#413=LINE('',#825,#466);
#414=LINE('',#826,#467);
#415=LINE('',#827,#468);
#416=LINE('',#828,#469);
#417=LINE('',#829,#470);
#418=LINE('',#830,#471);
#419=LINE('',#831,#472);
#420=LINE('',#832,#473);
#421=LINE('',#833,#474);
#422=LINE('',#834,#475);
#423=LINE('',#835,#476);
#424=LINE('',#836,#477);
#425=LINE('',#837,#478);
#426=LINE('',#838,#479);
#427=LINE('',#839,#480);
#428=LINE('',#840,#481);
#429=LINE('',#841,#482);
#430=LINE('',#842,#483);
#431=LINE('',#843,#484);
#432=LINE('',#844,#485);
#433=LINE('',#845,#486);
#434=LINE('',#846,#487);
#435=LINE('',#847,#488);
#436=LINE('',#848,#489);
#437=LINE('',#849,#490);
#438=LINE('',#851,#491);
#439=LINE('',#852,#492);
#440=LINE('',#854,#493);
#441=LINE('',#855,#494);
#442=LINE('',#856,#495);
#443=LINE('',#857,#496);
#444=LINE('',#858,#497);
#445=LINE('',#859,#498);
#446=LINE('',#860,#499);
#447=LINE('',#865,#500);
#448=LINE('',#866,#501);
#449=LINE('',#867,#502);
#450=LINE('',#868,#503);
#451=LINE('',#870,#504);
#452=LINE('',#876,#505);
#453=LINE('',#877,#506);
#454=LINE('',#879,#507);
#455=LINE('',#880,#508);
#456=LINE('',#881,#509);
#457=LINE('',#882,#510);
#458=LINE('',#883,#511);
#459=LINE('',#884,#512);
#460=LINE('',#885,#513);
#461=LINE('',#890,#514);
#462=LINE('',#891,#515);
#463=LINE('',#892,#516);
#464=LINE('',#893,#517);
#465=LINE('',#895,#518);
#466=VECTOR('',#623,1.);
#467=VECTOR('',#624,1.);
#468=VECTOR('',#625,1.);
#469=VECTOR('',#626,1.);
#470=VECTOR('',#627,1.);
#471=VECTOR('',#628,1.);
#472=VECTOR('',#629,1.);
#473=VECTOR('',#630,1.);
#474=VECTOR('',#631,1.);
#475=VECTOR('',#632,1.);
#476=VECTOR('',#633,1.);
#477=VECTOR('',#634,1.);
#478=VECTOR('',#635,1.);
#479=VECTOR('',#636,1.);
#480=VECTOR('',#637,1.);
#481=VECTOR('',#638,1.);
#482=VECTOR('',#639,1.);
#483=VECTOR('',#640,1.);
#484=VECTOR('',#641,1.);
#485=VECTOR('',#642,1.);
#486=VECTOR('',#643,1.);
#487=VECTOR('',#644,1.);
#488=VECTOR('',#645,1.);
#489=VECTOR('',#646,1.);
#490=VECTOR('',#647,1.);
#491=VECTOR('',#650,1.);
#492=VECTOR('',#651,1.);
#493=VECTOR('',#654,1.);
#494=VECTOR('',#655,1.);
#495=VECTOR('',#656,1.);
#496=VECTOR('',#657,1.);
#497=VECTOR('',#658,1.);
#498=VECTOR('',#659,1.);
#499=VECTOR('',#660,1.);
#500=VECTOR('',#669,1.);
#501=VECTOR('',#670,1.);
#502=VECTOR('',#671,1.);
#503=VECTOR('',#672,1.);
#504=VECTOR('',#675,1.);
#505=VECTOR('',#686,1.);
#506=VECTOR('',#687,1.);
#507=VECTOR('',#690,1.);
#508=VECTOR('',#691,1.);
#509=VECTOR('',#692,1.);
#510=VECTOR('',#693,1.);
#511=VECTOR('',#694,1.);
#512=VECTOR('',#695,1.);
#513=VECTOR('',#696,1.);
#514=VECTOR('',#705,1.);
#515=VECTOR('',#706,1.);
#516=VECTOR('',#707,1.);
#517=VECTOR('',#708,1.);
#518=VECTOR('',#711,1.);
#519=VERTEX_POINT('',#775);
#520=VERTEX_POINT('',#776);
#521=VERTEX_POINT('',#777);
#522=VERTEX_POINT('',#778);
#523=VERTEX_POINT('',#779);
#524=VERTEX_POINT('',#780);
#525=VERTEX_POINT('',#781);
#526=VERTEX_POINT('',#782);
#527=VERTEX_POINT('',#783);
#528=VERTEX_POINT('',#784);
#529=VERTEX_POINT('',#785);
#530=VERTEX_POINT('',#786);
#531=VERTEX_POINT('',#787);
#532=VERTEX_POINT('',#788);
#533=VERTEX_POINT('',#789);
#534=VERTEX_POINT('',#790);
#535=VERTEX_POINT('',#791);
#536=VERTEX_POINT('',#792);
#537=VERTEX_POINT('',#793);
#538=VERTEX_POINT('',#794);
#539=VERTEX_POINT('',#795);
#540=VERTEX_POINT('',#796);
#541=VERTEX_POINT('',#797);
#542=VERTEX_POINT('',#798);
#543=VERTEX_POINT('',#799);
#544=VERTEX_POINT('',#800);
#545=VERTEX_POINT('',#801);
#546=VERTEX_POINT('',#802);
#547=VERTEX_POINT('',#803);
#548=VERTEX_POINT('',#804);
#549=VERTEX_POINT('',#805);
#550=VERTEX_POINT('',#806);
#551=VERTEX_POINT('',#807);
#552=VERTEX_POINT('',#808);
#553=VERTEX_POINT('',#809);
#554=VERTEX_POINT('',#810);
#555=VERTEX_POINT('',#811);
#556=VERTEX_POINT('',#812);
#557=VERTEX_POINT('',#813);
#558=VERTEX_POINT('',#814);
#559=VERTEX_POINT('',#815);
#560=VERTEX_POINT('',#816);
#561=VERTEX_POINT('',#817);
#562=VERTEX_POINT('',#818);
#563=VERTEX_POINT('',#819);
#564=VERTEX_POINT('',#820);
#565=VERTEX_POINT('',#821);
#566=VERTEX_POINT('',#822);
#567=VERTEX_POINT('',#823);
#568=VERTEX_POINT('',#824);
#569=SHAPE_DEFINITION_REPRESENTATION(#927,#570);
#570=SHAPE_REPRESENTATION('master',(#571),#929);
#571=AXIS2_PLACEMENT_3D('',#774,#622,#621);
#572=AXIS2_PLACEMENT_3D('',#850,#649,#648);
#573=AXIS2_PLACEMENT_3D('',#853,#653,#652);
#574=AXIS2_PLACEMENT_3D('',#861,#662,#661);
#575=AXIS2_PLACEMENT_3D('',#862,#664,#663);
#576=AXIS2_PLACEMENT_3D('',#863,#666,#665);
#577=AXIS2_PLACEMENT_3D('',#864,#668,#667);
#578=AXIS2_PLACEMENT_3D('',#869,#674,#673);
#579=AXIS2_PLACEMENT_3D('',#871,#677,#676);
#580=AXIS2_PLACEMENT_3D('',#872,#679,#678);
#581=AXIS2_PLACEMENT_3D('',#873,#681,#680);
#582=AXIS2_PLACEMENT_3D('',#874,#683,#682);
#583=AXIS2_PLACEMENT_3D('',#875,#685,#684);
#584=AXIS2_PLACEMENT_3D('',#878,#689,#688);
#585=AXIS2_PLACEMENT_3D('',#886,#698,#697);
#586=AXIS2_PLACEMENT_3D('',#887,#700,#699);
#587=AXIS2_PLACEMENT_3D('',#888,#702,#701);
#588=AXIS2_PLACEMENT_3D('',#889,#704,#703);
#589=AXIS2_PLACEMENT_3D('',#894,#710,#709);
#590=AXIS2_PLACEMENT_3D('',#896,#713,#712);
#591=AXIS2_PLACEMENT_3D('',#897,#715,#714);
#592=AXIS2_PLACEMENT_3D('',#898,#717,#716);
#593=AXIS2_PLACEMENT_3D('',#899,#719,#718);
#594=AXIS2_PLACEMENT_3D('',#900,#721,#720);
#595=AXIS2_PLACEMENT_3D('',#901,#723,#722);
#596=AXIS2_PLACEMENT_3D('',#902,#725,#724);
#597=AXIS2_PLACEMENT_3D('',#903,#727,#726);
#598=AXIS2_PLACEMENT_3D('',#904,#729,#728);
#599=AXIS2_PLACEMENT_3D('',#905,#731,#730);
#600=AXIS2_PLACEMENT_3D('',#906,#733,#732);
#601=AXIS2_PLACEMENT_3D('',#907,#735,#734);
#602=AXIS2_PLACEMENT_3D('',#908,#737,#736);
#603=AXIS2_PLACEMENT_3D('',#909,#739,#738);
#604=AXIS2_PLACEMENT_3D('',#910,#741,#740);
#605=AXIS2_PLACEMENT_3D('',#911,#743,#742);
#606=AXIS2_PLACEMENT_3D('',#912,#745,#744);
#607=AXIS2_PLACEMENT_3D('',#913,#747,#746);
#608=AXIS2_PLACEMENT_3D('',#914,#749,#748);
#609=AXIS2_PLACEMENT_3D('',#915,#751,#750);
#610=AXIS2_PLACEMENT_3D('',#916,#753,#752);
#611=AXIS2_PLACEMENT_3D('',#917,#755,#754);
#612=AXIS2_PLACEMENT_3D('',#918,#757,#756);
#613=AXIS2_PLACEMENT_3D('',#919,#759,#758);
#614=AXIS2_PLACEMENT_3D('',#920,#761,#760);
#615=AXIS2_PLACEMENT_3D('',#921,#763,#762);
#616=AXIS2_PLACEMENT_3D('',#922,#765,#764);
#617=AXIS2_PLACEMENT_3D('',#923,#767,#766);
#618=AXIS2_PLACEMENT_3D('',#924,#769,#768);
#619=AXIS2_PLACEMENT_3D('',#925,#771,#770);
#620=AXIS2_PLACEMENT_3D('',#926,#773,#772);
#621=DIRECTION('',(1.,0.,0.));
#622=DIRECTION('',(0.,0.,1.));
#623=DIRECTION('',(-1.47851214695284E-015,-1.,2.36499829176463E-015));
#624=DIRECTION('',(-1.47851214695284E-015,-1.,2.36499829176463E-015));
#625=DIRECTION('',(-1.47851214695284E-015,-1.,2.36499829176463E-015));
#626=DIRECTION('',(-1.47851214695284E-015,-1.,2.36499829176463E-015));
#627=DIRECTION('',(-1.47851214695284E-015,-1.,2.36499829176463E-015));
#628=DIRECTION('',(-1.47851214695284E-015,-1.,2.36499829176463E-015));
#629=DIRECTION('',(-1.47851214695284E-015,-1.,2.36499829176463E-015));
#630=DIRECTION('',(-1.47851214695284E-015,-1.,2.36499829176463E-015));
#631=DIRECTION('',(-1.47851214695284E-015,-1.,2.36499829176463E-015));
#632=DIRECTION('',(-1.47851214695284E-015,-1.,2.36499829176463E-015));
#633=DIRECTION('',(-1.47851214695284E-015,-1.,2.36499829176463E-015));
#634=DIRECTION('',(-1.47851214695284E-015,-1.,2.36499829176463E-015));
#635=DIRECTION('',(-1.47851214695284E-015,-1.,2.36499829176463E-015));
#636=DIRECTION('',(-1.47851214695284E-015,-1.,2.36499829176463E-015));
#637=DIRECTION('',(-1.47851214695284E-015,-1.,2.36499829176463E-015));
#638=DIRECTION('',(-1.47851214695284E-015,-1.,2.36499829176463E-015));
#639=DIRECTION('',(-1.47851214695284E-015,-1.,2.36499829176463E-015));
#640=DIRECTION('',(-1.47851214695284E-015,-1.,2.36499829176463E-015));
#641=DIRECTION('',(-1.47851214695284E-015,-1.,2.36499829176463E-015));
#642=DIRECTION('',(-1.47851214695284E-015,-1.,2.36499829176463E-015));
#643=DIRECTION('',(-1.47851214695284E-015,-1.,2.36499829176463E-015));
#644=DIRECTION('',(-1.47851214695284E-015,-1.,2.36499829176463E-015));
#645=DIRECTION('',(-1.47851214695284E-015,-1.,2.36499829176463E-015));
#646=DIRECTION('',(-1.47851214695284E-015,-1.,2.36499829176463E-015));
#647=DIRECTION('',(-1.47851214695284E-015,-1.,2.36499829176463E-015));
#648=DIRECTION('',(0.291006968497029,0.,-0.956720933337496));
#649=DIRECTION('',(0.,-1.,0.));
#650=DIRECTION('',(0.306531188895459,0.,0.951860614919189));
#651=DIRECTION('',(0.970142516497479,-0.,0.242535559627736));
#652=DIRECTION('',(-1.,0.,1.14277339935106E-013));
#653=DIRECTION('',(0.,1.,0.));
#654=DIRECTION('',(0.,0.,1.));
#655=DIRECTION('',(0.926946883603791,-0.,0.375192583851573));
#656=DIRECTION('',(0.133412137575729,0.,0.991060644737483));
#657=DIRECTION('',(0.997634272663301,0.,0.0687448762277313));
#658=DIRECTION('',(-0.,-0.,-1.));
#659=DIRECTION('',(-0.762834889631006,-0.,-0.64659332749546));
#660=DIRECTION('',(-0.956059846534775,0.,-0.293171570661111));
#661=DIRECTION('',(0.929968089530739,0.,-0.367640248686875));
#662=DIRECTION('',(0.,1.,0.));
#663=DIRECTION('',(-0.875646736742559,0.,0.482952163709935));
#664=DIRECTION('',(0.,-1.,0.));
#665=DIRECTION('',(-0.455344332266804,0.,0.890315415497507));
#666=DIRECTION('',(0.,-1.,0.));
#667=DIRECTION('',(-0.243459355155265,0.,0.969911100249596));
#668=DIRECTION('',(0.,-1.,0.));
#669=DIRECTION('',(-0.552007605980652,0.,-0.833839074965613));
#670=DIRECTION('',(-1.,-0.,-0.));
#671=DIRECTION('',(0.183098656327935,-0.,0.983094543800801));
#672=DIRECTION('',(0.994333794928838,-0.,0.106302889247732));
#673=DIRECTION('',(-0.204226825169956,-0.,-0.978923594506231));
#674=DIRECTION('',(0.,-1.,0.));
#675=DIRECTION('',(0.35112359511688,-0.,0.936329119995847));
#676=DIRECTION('',(-0.14687443084319,0.,0.989155145346011));
#677=DIRECTION('',(0.,1.,0.));
#678=DIRECTION('',(-0.617266446008222,0.,0.786754176749243));
#679=DIRECTION('',(0.,1.,0.));
#680=DIRECTION('',(-0.99203511290975,0.,0.125961640010517));
#681=DIRECTION('',(0.,1.,0.));
#682=DIRECTION('',(-0.997739272603264,0.,0.0672037491893873));
#683=DIRECTION('',(0.,1.,0.));
#684=DIRECTION('',(0.291006968497029,0.,-0.956720933337496));
#685=DIRECTION('',(0.,-1.,0.));
#686=DIRECTION('',(0.306531188895459,0.,0.951860614919189));
#687=DIRECTION('',(0.970142516497479,-0.,0.242535559627736));
#688=DIRECTION('',(-1.,0.,1.14277339935106E-013));
#689=DIRECTION('',(0.,1.,0.));
#690=DIRECTION('',(0.,0.,1.));
#691=DIRECTION('',(0.926946883603791,-0.,0.375192583851573));
#692=DIRECTION('',(0.133412137575729,0.,0.991060644737483));
#693=DIRECTION('',(0.997634272663301,0.,0.0687448762277313));
#694=DIRECTION('',(-0.,-0.,-1.));
#695=DIRECTION('',(-0.762834889631006,-0.,-0.64659332749546));
#696=DIRECTION('',(-0.956059846534775,0.,-0.293171570661111));
#697=DIRECTION('',(0.929968089530739,0.,-0.367640248686875));
#698=DIRECTION('',(0.,1.,0.));
#699=DIRECTION('',(-0.875646736742559,0.,0.482952163709935));
#700=DIRECTION('',(0.,-1.,0.));
#701=DIRECTION('',(-0.455344332266804,0.,0.890315415497507));
#702=DIRECTION('',(0.,-1.,0.));
#703=DIRECTION('',(-0.243459355155265,0.,0.969911100249596));
#704=DIRECTION('',(0.,-1.,0.));
#705=DIRECTION('',(-0.552007605980652,0.,-0.833839074965613));
#706=DIRECTION('',(-1.,-0.,-0.));
#707=DIRECTION('',(0.183098656327935,-0.,0.983094543800801));
#708=DIRECTION('',(0.994333794928838,-0.,0.106302889247732));
#709=DIRECTION('',(-0.204226825169956,-0.,-0.978923594506231));
#710=DIRECTION('',(0.,-1.,0.));
#711=DIRECTION('',(0.35112359511688,-0.,0.936329119995847));
#712=DIRECTION('',(-0.14687443084319,0.,0.989155145346011));
#713=DIRECTION('',(0.,1.,0.));
#714=DIRECTION('',(-0.617266446008222,0.,0.786754176749243));
#715=DIRECTION('',(0.,1.,0.));
#716=DIRECTION('',(-0.99203511290975,0.,0.125961640010517));
#717=DIRECTION('',(0.,1.,0.));
#718=DIRECTION('',(-0.997739272603264,0.,0.0672037491893873));
#719=DIRECTION('',(0.,1.,0.));
#720=DIRECTION('',(0.,-2.36499829176463E-015,-1.));
#721=DIRECTION('',(-1.47851214695284E-015,-1.,2.36499829176463E-015));
#722=DIRECTION('',(0.,-2.36499829176463E-015,-1.));
#723=DIRECTION('',(-1.47851214695284E-015,-1.,2.36499829176463E-015));
#724=DIRECTION('',(0.,-2.36499829176463E-015,-1.));
#725=DIRECTION('',(-1.47851214695284E-015,-1.,2.36499829176463E-015));
#726=DIRECTION('',(0.,-2.36499829176463E-015,-1.));
#727=DIRECTION('',(-1.47851214695284E-015,-1.,2.36499829176463E-015));
#728=DIRECTION('',(-0.35112359511688,1.97215226305253E-031,-0.936329119995847)
);
#729=DIRECTION('',(0.936329119995847,-2.2147806801092E-015,-0.35112359511688)
);
#730=DIRECTION('',(0.,-2.36499829176463E-015,-1.));
#731=DIRECTION('',(-1.47851214695284E-015,-1.,2.36499829176463E-015));
#732=DIRECTION('',(-0.994333794928838,0.,-0.106302889247732));
#733=DIRECTION('',(0.106302889247732,-2.5087678394595E-015,-0.994333794928838)
);
#734=DIRECTION('',(-0.183098656327935,-4.93038065763132E-032,
-0.983094543800801));
#735=DIRECTION('',(0.983094543800801,-1.88654523405251E-015,-0.183098656327935
));
#736=DIRECTION('',(0.,-1.,2.36499829176463E-015));
#737=DIRECTION('',(-0.,2.36499829176463E-015,1.));
#738=DIRECTION('',(0.552007605980652,0.,0.833839074965613));
#739=DIRECTION('',(-0.833839074965613,2.5383382461259E-015,0.552007605980652)
);
#740=DIRECTION('',(0.,-2.36499829176463E-015,-1.));
#741=DIRECTION('',(-1.47851214695284E-015,-1.,2.36499829176463E-015));
#742=DIRECTION('',(0.,-2.36499829176463E-015,-1.));
#743=DIRECTION('',(-1.47851214695284E-015,-1.,2.36499829176463E-015));
#744=DIRECTION('',(0.,-2.36499829176463E-015,-1.));
#745=DIRECTION('',(-1.47851214695284E-015,-1.,2.36499829176463E-015));
#746=DIRECTION('',(0.,-2.36499829176463E-015,-1.));
#747=DIRECTION('',(-1.47851214695284E-015,-1.,2.36499829176463E-015));
#748=DIRECTION('',(0.956059846534775,0.,0.293171570661111));
#749=DIRECTION('',(-0.293171570661111,2.69453763224319E-015,0.956059846534775)
);
#750=DIRECTION('',(0.762834889631006,-1.97215226305253E-031,0.64659332749546)
);
#751=DIRECTION('',(-0.64659332749546,2.76009929971648E-015,0.762834889631006)
);
#752=DIRECTION('',(-1.47851214695284E-015,-1.,0.));
#753=DIRECTION('',(-1.,1.47851214695284E-015,0.));
#754=DIRECTION('',(-0.997634272663301,0.,-0.0687448762277313));
#755=DIRECTION('',(0.0687448762277313,-2.46104348519803E-015,
-0.997634272663301));
#756=DIRECTION('',(-0.133412137575729,0.,-0.991060644737483));
#757=DIRECTION('',(0.991060644737483,-1.78081467907854E-015,-0.133412137575729
));
#758=DIRECTION('',(-0.926946883603791,-1.97215226305253E-031,
-0.375192583851573));
#759=DIRECTION('',(0.375192583851573,-2.74695458895069E-015,-0.926946883603791
));
#760=DIRECTION('',(1.47851214695284E-015,1.,0.));
#761=DIRECTION('',(1.,-1.47851214695284E-015,0.));
#762=DIRECTION('',(0.,-2.36499829176463E-015,-1.));
#763=DIRECTION('',(-1.47851214695284E-015,-1.,2.36499829176463E-015));
#764=DIRECTION('',(-0.970142516497479,0.,-0.242535559627736));
#765=DIRECTION('',(0.242535559627736,-2.65297716526239E-015,-0.970142516497479
));
#766=DIRECTION('',(-0.306531188895459,0.,-0.951860614919189));
#767=DIRECTION('',(0.951860614919189,-2.13228321947436E-015,-0.306531188895459
));
#768=DIRECTION('',(0.,-2.36499829176463E-015,-1.));
#769=DIRECTION('',(-1.47851214695284E-015,-1.,2.36499829176463E-015));
#770=DIRECTION('',(0.,-0.,1.));
#771=DIRECTION('',(0.,1.,0.));
#772=DIRECTION('',(0.,-0.,1.));
#773=DIRECTION('',(0.,1.,0.));
#774=CARTESIAN_POINT('',(0.,0.,0.));
#775=CARTESIAN_POINT('',(70.6392010721533,1918.281361,2218.47415331808));
#776=CARTESIAN_POINT('',(56.3059518459857,1918.281361,2200.433841));
#777=CARTESIAN_POINT('',(55.2698918459856,1918.281361,2197.2166));
#778=CARTESIAN_POINT('',(52.3949065052614,1918.281361,2196.49785387077));
#779=CARTESIAN_POINT('',(49.3807048459856,1918.281361,2192.63733576971));
#780=CARTESIAN_POINT('',(49.3807048459856,1918.281361,2189.636998));
#781=CARTESIAN_POINT('',(47.0904658459857,1918.281361,2188.709997));
#782=CARTESIAN_POINT('',(46.7087588459857,1918.281361,2185.874462));
#783=CARTESIAN_POINT('',(40.5882948459856,1918.281361,2185.45271371842));
#784=CARTESIAN_POINT('',(40.5882948459856,1918.281361,2204.34199755234));
#785=CARTESIAN_POINT('',(43.7497288459857,1918.281361,2207.021689));
#786=CARTESIAN_POINT('',(47.6325569523309,1918.281361,2208.21234125746));
#787=CARTESIAN_POINT('',(61.3773847445885,1918.281361,2222.04171334974));
#788=CARTESIAN_POINT('',(67.9535768446019,1918.281361,2236.00147807742));
#789=CARTESIAN_POINT('',(75.141110377836,1918.281361,2242.96774094256));
#790=CARTESIAN_POINT('',(83.2357948459856,1918.281361,2246.00855092295));
#791=CARTESIAN_POINT('',(85.5471598374914,1918.281361,2249.5));
#792=CARTESIAN_POINT('',(103.080454000003,1918.281361,2249.5));
#793=CARTESIAN_POINT('',(101.866906736112,1918.281361,2242.98421382383));
#794=CARTESIAN_POINT('',(98.8059588459854,1918.281361,2242.656972));
#795=CARTESIAN_POINT('',(91.0287418459855,1918.281361,2236.80887));
#796=CARTESIAN_POINT('',(90.2768428459854,1918.281361,2234.803807));
#797=CARTESIAN_POINT('',(82.0683065504809,1918.281361,2234.73060968071));
#798=CARTESIAN_POINT('',(76.2403960974018,1918.281361,2232.22296779358));
#799=CARTESIAN_POINT('',(71.0928113621324,1918.281361,2223.14674057475));
#800=CARTESIAN_POINT('',(70.6392010721507,168.281361,2218.47415331808));
#801=CARTESIAN_POINT('',(56.3059518459832,168.281361,2200.433841));
#802=CARTESIAN_POINT('',(55.269891845983,168.281361,2197.2166));
#803=CARTESIAN_POINT('',(52.3949065052588,168.281361,2196.49785387077));
#804=CARTESIAN_POINT('',(49.380704845983,168.281361,2192.63733576972));
#805=CARTESIAN_POINT('',(49.380704845983,168.281361,2189.636998));
#806=CARTESIAN_POINT('',(47.0904658459831,168.281361,2188.709997));
#807=CARTESIAN_POINT('',(46.7087588459831,168.281361,2185.874462));
#808=CARTESIAN_POINT('',(40.588294845983,168.281361,2185.45271371842));
#809=CARTESIAN_POINT('',(40.588294845983,168.281361,2204.34199755234));
#810=CARTESIAN_POINT('',(43.7497288459831,168.281361,2207.021689));
#811=CARTESIAN_POINT('',(47.6325569523284,168.281361,2208.21234125746));
#812=CARTESIAN_POINT('',(61.377384744586,168.281361,2222.04171334974));
#813=CARTESIAN_POINT('',(67.9535768445993,168.281361,2236.00147807742));
#814=CARTESIAN_POINT('',(75.1411103778334,168.281361,2242.96774094257));
#815=CARTESIAN_POINT('',(83.235794845983,168.281361,2246.00855092295));
#816=CARTESIAN_POINT('',(85.5471598374888,168.281361,2249.5));
#817=CARTESIAN_POINT('',(103.080454,168.281361,2249.5));
#818=CARTESIAN_POINT('',(101.866906736109,168.281361,2242.98421382384));
#819=CARTESIAN_POINT('',(98.8059588459828,168.281361,2242.656972));
#820=CARTESIAN_POINT('',(91.028741845983,168.281361,2236.80887));
#821=CARTESIAN_POINT('',(90.2768428459828,168.281361,2234.803807));
#822=CARTESIAN_POINT('',(82.0683065504783,168.281361,2234.73060968071));
#823=CARTESIAN_POINT('',(76.2403960973992,168.281361,2232.22296779359));
#824=CARTESIAN_POINT('',(71.0928113621298,168.281361,2223.14674057476));
#825=CARTESIAN_POINT('',(71.0928113621324,1918.281361,2223.14674057475));
#826=CARTESIAN_POINT('',(76.2403960974018,1918.281361,2232.22296779358));
#827=CARTESIAN_POINT('',(82.0683065504809,1918.281361,2234.73060968071));
#828=CARTESIAN_POINT('',(90.2768428459854,1918.281361,2234.803807));
#829=CARTESIAN_POINT('',(91.0287418459855,1918.281361,2236.80887));
#830=CARTESIAN_POINT('',(98.8059588459854,1918.281361,2242.656972));
#831=CARTESIAN_POINT('',(101.866906736112,1918.281361,2242.98421382383));
#832=CARTESIAN_POINT('',(103.080454000003,1918.281361,2249.5));
#833=CARTESIAN_POINT('',(85.5471598374914,1918.281361,2249.5));
#834=CARTESIAN_POINT('',(83.2357948459856,1918.281361,2246.00855092295));
#835=CARTESIAN_POINT('',(75.141110377836,1918.281361,2242.96774094256));
#836=CARTESIAN_POINT('',(67.9535768446019,1918.281361,2236.00147807742));
#837=CARTESIAN_POINT('',(61.3773847445885,1918.281361,2222.04171334974));
#838=CARTESIAN_POINT('',(47.6325569523309,1918.281361,2208.21234125746));
#839=CARTESIAN_POINT('',(43.7497288459857,1918.281361,2207.021689));
#840=CARTESIAN_POINT('',(40.5882948459856,1918.281361,2204.34199755234));
#841=CARTESIAN_POINT('',(40.5882948459856,1918.281361,2185.45271371842));
#842=CARTESIAN_POINT('',(46.7087588459857,1918.281361,2185.874462));
#843=CARTESIAN_POINT('',(47.0904658459857,1918.281361,2188.709997));
#844=CARTESIAN_POINT('',(49.3807048459856,1918.281361,2189.636998));
#845=CARTESIAN_POINT('',(49.3807048459856,1918.281361,2192.63733576971));
#846=CARTESIAN_POINT('',(52.3949065052614,1918.281361,2196.49785387077));
#847=CARTESIAN_POINT('',(55.2698918459856,1918.281361,2197.2166));
#848=CARTESIAN_POINT('',(56.3059518459857,1918.281361,2200.433841));
#849=CARTESIAN_POINT('',(70.6392010721533,1918.281361,2218.47415331808));
#850=CARTESIAN_POINT('',(50.4040348375446,1918.281361,2219.83711363625));
#851=CARTESIAN_POINT('',(55.2698918459856,1918.281361,2197.2166));
#852=CARTESIAN_POINT('',(52.3949065052612,1918.281361,2196.49785387077));
#853=CARTESIAN_POINT('',(53.3600357539738,1918.281361,2192.63733576971));
#854=CARTESIAN_POINT('',(49.3807048459856,1918.281361,2189.636998));
#855=CARTESIAN_POINT('',(47.0904658459857,1918.281361,2188.709997));
#856=CARTESIAN_POINT('',(46.7087588459857,1918.281361,2185.874462));
#857=CARTESIAN_POINT('',(40.5882948459856,1918.281361,2185.45271371842));
#858=CARTESIAN_POINT('',(40.5882948459856,1918.281361,2204.34199755234));
#859=CARTESIAN_POINT('',(43.7497288459857,1918.281361,2207.021689));
#860=CARTESIAN_POINT('',(47.632556952331,1918.281361,2208.21234125746));
#861=CARTESIAN_POINT('',(38.4138316738919,1918.281361,2231.11979512124));
#862=CARTESIAN_POINT('',(173.96016278188,1918.281361,2177.5348523279));
#863=CARTESIAN_POINT('',(82.9278910921115,1918.281361,2227.74257963989));
#864=CARTESIAN_POINT('',(92.5367216396936,1918.281361,2208.95484175629));
#865=CARTESIAN_POINT('',(85.5471598374914,1918.281361,2249.5));
#866=CARTESIAN_POINT('',(103.080454000003,1918.281361,2249.5));
#867=CARTESIAN_POINT('',(101.866906736112,1918.281361,2242.98421382383));
#868=CARTESIAN_POINT('',(98.8059588459856,1918.281361,2242.656972));
#869=CARTESIAN_POINT('',(92.3508307429214,1918.281361,2243.14605912375));
#870=CARTESIAN_POINT('',(90.2768428459854,1918.281361,2234.803807));
#871=CARTESIAN_POINT('',(86.4351509936131,1918.281361,2205.32122490861));
#872=CARTESIAN_POINT('',(83.8880037460227,1918.281361,2222.47549601927));
#873=CARTESIAN_POINT('',(84.7187765376237,1918.281361,2221.41661137076));
#874=CARTESIAN_POINT('',(149.982141152165,1918.281361,2213.12992843739));
#875=CARTESIAN_POINT('',(50.404034837542,168.281361,2219.83711363625));
#876=CARTESIAN_POINT('',(55.269891845983,168.281361,2197.2166));
#877=CARTESIAN_POINT('',(52.3949065052586,168.281361,2196.49785387077));
#878=CARTESIAN_POINT('',(53.3600357539713,168.281361,2192.63733576972));
#879=CARTESIAN_POINT('',(49.380704845983,168.281361,2189.636998));
#880=CARTESIAN_POINT('',(47.0904658459831,168.281361,2188.709997));
#881=CARTESIAN_POINT('',(46.7087588459831,168.281361,2185.874462));
#882=CARTESIAN_POINT('',(40.588294845983,168.281361,2185.45271371842));
#883=CARTESIAN_POINT('',(40.588294845983,168.281361,2204.34199755234));
#884=CARTESIAN_POINT('',(43.7497288459831,168.281361,2207.021689));
#885=CARTESIAN_POINT('',(47.6325569523284,168.281361,2208.21234125746));
#886=CARTESIAN_POINT('',(38.4138316738893,168.281361,2231.11979512124));
#887=CARTESIAN_POINT('',(173.960162781877,168.281361,2177.53485232791));
#888=CARTESIAN_POINT('',(82.9278910921089,168.281361,2227.7425796399));
#889=CARTESIAN_POINT('',(92.536721639691,168.281361,2208.95484175629));
#890=CARTESIAN_POINT('',(85.5471598374888,168.281361,2249.5));
#891=CARTESIAN_POINT('',(103.080454,168.281361,2249.5));
#892=CARTESIAN_POINT('',(101.866906736109,168.281361,2242.98421382384));
#893=CARTESIAN_POINT('',(98.805958845983,168.281361,2242.656972));
#894=CARTESIAN_POINT('',(92.3508307429188,168.281361,2243.14605912375));
#895=CARTESIAN_POINT('',(90.2768428459829,168.281361,2234.803807));
#896=CARTESIAN_POINT('',(86.4351509936105,168.281361,2205.32122490862));
#897=CARTESIAN_POINT('',(83.8880037460201,168.281361,2222.47549601928));
#898=CARTESIAN_POINT('',(84.7187765376211,168.281361,2221.41661137076));
#899=CARTESIAN_POINT('',(149.982141152162,168.281361,2213.12992843739));
#900=CARTESIAN_POINT('',(149.982141152165,1918.281361,2213.12992843739));
#901=CARTESIAN_POINT('',(84.7187765376237,1918.281361,2221.41661137076));
#902=CARTESIAN_POINT('',(83.8880037460227,1918.281361,2222.47549601927));
#903=CARTESIAN_POINT('',(86.4351509936131,1918.281361,2205.32122490861));
#904=CARTESIAN_POINT('',(90.2768428459854,1918.281361,2234.803807));
#905=CARTESIAN_POINT('',(92.3508307429214,1918.281361,2243.14605912375));
#906=CARTESIAN_POINT('',(98.8059588459856,1918.281361,2242.656972));
#907=CARTESIAN_POINT('',(101.866906736112,1918.281361,2242.98421382383));
#908=CARTESIAN_POINT('',(103.080454000003,1918.281361,2249.5));
#909=CARTESIAN_POINT('',(85.5471598374914,1918.281361,2249.5));
#910=CARTESIAN_POINT('',(92.5367216396936,1918.281361,2208.95484175629));
#911=CARTESIAN_POINT('',(82.9278910921115,1918.281361,2227.74257963989));
#912=CARTESIAN_POINT('',(173.96016278188,1918.281361,2177.5348523279));
#913=CARTESIAN_POINT('',(38.4138316738919,1918.281361,2231.11979512124));
#914=CARTESIAN_POINT('',(47.632556952331,1918.281361,2208.21234125746));
#915=CARTESIAN_POINT('',(43.7497288459857,1918.281361,2207.021689));
#916=CARTESIAN_POINT('',(40.5882948459856,1918.281361,2204.34199755234));
#917=CARTESIAN_POINT('',(40.5882948459856,1918.281361,2185.45271371842));
#918=CARTESIAN_POINT('',(46.7087588459857,1918.281361,2185.874462));
#919=CARTESIAN_POINT('',(47.0904658459857,1918.281361,2188.709997));
#920=CARTESIAN_POINT('',(49.3807048459856,1918.281361,2189.636998));
#921=CARTESIAN_POINT('',(53.3600357539738,1918.281361,2192.63733576971));
#922=CARTESIAN_POINT('',(52.3949065052612,1918.281361,2196.49785387077));
#923=CARTESIAN_POINT('',(55.2698918459856,1918.281361,2197.2166));
#924=CARTESIAN_POINT('',(50.4040348375446,1918.281361,2219.83711363625));
#925=CARTESIAN_POINT('',(149.982141152165,1918.281361,2213.12992843739));
#926=CARTESIAN_POINT('',(149.982141152162,168.281361,2213.12992843739));
#927=PRODUCT_DEFINITION_SHAPE('','',#928);
#928=PRODUCT_DEFINITION('','',#940,#945);
#929=(
GEOMETRIC_REPRESENTATION_CONTEXT(3)
GLOBAL_UNCERTAINTY_ASSIGNED_CONTEXT((#930))
GLOBAL_UNIT_ASSIGNED_CONTEXT((#932,#931,#935))
REPRESENTATION_CONTEXT('','')
);
#930=UNCERTAINTY_MEASURE_WITH_UNIT(LENGTH_MEASURE(0.001),#932,'','tolerance');
#931=(
CONVERSION_BASED_UNIT('',#933)
NAMED_UNIT(#939)
PLANE_ANGLE_UNIT()
);
#932=(
CONVERSION_BASED_UNIT('',#934)
LENGTH_UNIT()
NAMED_UNIT(#938)
);
#933=PLANE_ANGLE_MEASURE_WITH_UNIT(PLANE_ANGLE_MEASURE(0.0174532925199433),
#936);
#934=LENGTH_MEASURE_WITH_UNIT(LENGTH_MEASURE(1.),#937);
#935=(
NAMED_UNIT(*)
SI_UNIT($,.STERADIAN.)
SOLID_ANGLE_UNIT()
);
#936=(
NAMED_UNIT(*)
PLANE_ANGLE_UNIT()
SI_UNIT($,.RADIAN.)
);
#937=(
LENGTH_UNIT()
NAMED_UNIT(*)
SI_UNIT(.MILLI.,.METRE.)
);
#938=DIMENSIONAL_EXPONENTS(1.,0.,0.,0.,0.,0.,0.);
#939=DIMENSIONAL_EXPONENTS(0.,0.,0.,0.,0.,0.,0.);
#940=PRODUCT_DEFINITION_FORMATION_WITH_SPECIFIED_SOURCE('','',#943,.NOT_KNOWN.
);
#941=PRODUCT_CATEGORY_RELATIONSHIP('','',#946,#942);
#942=PRODUCT_RELATED_PRODUCT_CATEGORY('assembly','',(#943));
#943=PRODUCT('','master','',(#944));
#944=PRODUCT_CONTEXT('',#948,'');
#945=PRODUCT_DEFINITION_CONTEXT('',#948,'part_definition');
#946=PRODUCT_CATEGORY('part','');
#947=APPLICATION_PROTOCOL_DEFINITION('international standard',
'automotive_design_cc2',1994,#948);
#948=APPLICATION_CONTEXT(
'configuration controlled 3D designs of mechanical parts and assemblies');
ENDSEC;
END-ISO-10303-21;
44686