ISO-10303-21;
HEADER;
/* Generated by software using Delcam plc STEP library */

FILE_DESCRIPTION(
/* description */ ('AP-214 File'),
/* implementation_level */ '2;1');

FILE_NAME(
/* name */ 'D704',
/* time_stamp */ 'Mon Dec 26 15:49:02 2016',
/* author */ (''),
/* organization */ (''),
/* preprocessor_version */ 'DELCAM STEP V1',
/* originating_system */ 'Exchange7.1.0006',
/* authorisation */ '');

FILE_SCHEMA (('AUTOMOTIVE_DESIGN'));
ENDSEC;
DATA;
#10=PRESENTATION_STYLE_ASSIGNMENT((#20));
#11=PRESENTATION_STYLE_ASSIGNMENT((#21));
#12=SURFACE_SIDE_STYLE('',(#14));
#13=SURFACE_SIDE_STYLE('',(#15));
#14=SURFACE_STYLE_FILL_AREA(#16);
#15=SURFACE_STYLE_FILL_AREA(#17);
#16=FILL_AREA_STYLE('',(#18));
#17=FILL_AREA_STYLE('',(#19));
#18=FILL_AREA_STYLE_COLOUR('',#40);
#19=FILL_AREA_STYLE_COLOUR('',#41);
#20=SURFACE_STYLE_USAGE(.BOTH.,#12);
#21=SURFACE_STYLE_USAGE(.BOTH.,#13);
#22=STYLED_ITEM('',(#10),#55);
#23=STYLED_ITEM('',(#10),#56);
#24=STYLED_ITEM('',(#10),#57);
#25=STYLED_ITEM('',(#10),#58);
#26=STYLED_ITEM('',(#10),#59);
#27=STYLED_ITEM('',(#10),#60);
#28=STYLED_ITEM('',(#10),#61);
#29=STYLED_ITEM('',(#10),#62);
#30=STYLED_ITEM('',(#10),#63);
#31=STYLED_ITEM('',(#10),#64);
#32=STYLED_ITEM('',(#10),#65);
#33=STYLED_ITEM('',(#10),#66);
#34=STYLED_ITEM('',(#10),#67);
#35=STYLED_ITEM('',(#10),#68);
#36=STYLED_ITEM('',(#10),#69);
#37=STYLED_ITEM('',(#10),#70);
#38=STYLED_ITEM('',(#10),#71);
#39=STYLED_ITEM('',(#11),#47);
#40=COLOUR_RGB('',0.,0.,0.);
#41=COLOUR_RGB('rgb_colour_1',0.4,0.4,0.4);
#42=MECHANICAL_DESIGN_GEOMETRIC_PRESENTATION_REPRESENTATION('',(#22,#23,#24,
#25,#26,#27,#28,#29,#30,#31,#32,#33,#34,#35,#36,#37,#38,#39),#581);
#43=PRESENTATION_LAYER_ASSIGNMENT('111','D704',(#55,#56,#57,#58,#59,#60,#61,
#62,#63,#64,#65,#66,#67,#68,#69,#70,#71,#47));
#44=SHAPE_REPRESENTATION_RELATIONSHIP('','',#358,#45);
#45=ADVANCED_BREP_SHAPE_REPRESENTATION('',(#46),#581);
#46=MANIFOLD_SOLID_BREP('7546',#47);
#47=CLOSED_SHELL('',(#55,#56,#57,#58,#59,#60,#61,#62,#63,#64,#65,#66,#67,#68,
#69,#70,#71));
#48=CYLINDRICAL_SURFACE('',#378,23.0013038505963);
#49=CYLINDRICAL_SURFACE('',#379,7.78432496629472);
#50=CYLINDRICAL_SURFACE('',#381,26.8505823733964);
#51=CYLINDRICAL_SURFACE('',#382,16.0949916024802);
#52=CYLINDRICAL_SURFACE('',#383,164.131113017606);
#53=CYLINDRICAL_SURFACE('',#384,15.2081032459833);
#54=CYLINDRICAL_SURFACE('',#385,60.7246204298332);
#55=ADVANCED_FACE('',(#72),#196,.T.);
#56=ADVANCED_FACE('',(#73),#197,.T.);
#57=ADVANCED_FACE('',(#74),#198,.T.);
#58=ADVANCED_FACE('',(#75),#199,.T.);
#59=ADVANCED_FACE('',(#76),#48,.F.);
#60=ADVANCED_FACE('',(#77),#49,.F.);
#61=ADVANCED_FACE('',(#78),#200,.T.);
#62=ADVANCED_FACE('',(#79),#50,.T.);
#63=ADVANCED_FACE('',(#80),#51,.T.);
#64=ADVANCED_FACE('',(#81),#52,.T.);
#65=ADVANCED_FACE('',(#82),#53,.F.);
#66=ADVANCED_FACE('',(#83),#54,.F.);
#67=ADVANCED_FACE('',(#84),#201,.T.);
#68=ADVANCED_FACE('',(#85),#202,.T.);
#69=ADVANCED_FACE('',(#86),#203,.T.);
#70=ADVANCED_FACE('',(#87),#204,.T.);
#71=ADVANCED_FACE('',(#88),#205,.F.);
#72=FACE_OUTER_BOUND('',#89,.T.);
#73=FACE_OUTER_BOUND('',#90,.T.);
#74=FACE_OUTER_BOUND('',#91,.T.);
#75=FACE_OUTER_BOUND('',#92,.T.);
#76=FACE_OUTER_BOUND('',#93,.T.);
#77=FACE_OUTER_BOUND('',#94,.T.);
#78=FACE_OUTER_BOUND('',#95,.T.);
#79=FACE_OUTER_BOUND('',#96,.T.);
#80=FACE_OUTER_BOUND('',#97,.T.);
#81=FACE_OUTER_BOUND('',#98,.T.);
#82=FACE_OUTER_BOUND('',#99,.T.);
#83=FACE_OUTER_BOUND('',#100,.T.);
#84=FACE_OUTER_BOUND('',#101,.T.);
#85=FACE_OUTER_BOUND('',#102,.T.);
#86=FACE_OUTER_BOUND('',#103,.T.);
#87=FACE_OUTER_BOUND('',#104,.T.);
#88=FACE_OUTER_BOUND('',#105,.T.);
#89=EDGE_LOOP('',(#106,#107,#108,#109));
#90=EDGE_LOOP('',(#110,#111,#112,#113));
#91=EDGE_LOOP('',(#114,#115,#116,#117));
#92=EDGE_LOOP('',(#118,#119,#120,#121));
#93=EDGE_LOOP('',(#122,#123,#124,#125));
#94=EDGE_LOOP('',(#126,#127,#128,#129));
#95=EDGE_LOOP('',(#130,#131,#132,#133));
#96=EDGE_LOOP('',(#134,#135,#136,#137));
#97=EDGE_LOOP('',(#138,#139,#140,#141));
#98=EDGE_LOOP('',(#142,#143,#144,#145));
#99=EDGE_LOOP('',(#146,#147,#148,#149));
#100=EDGE_LOOP('',(#150,#151,#152,#153));
#101=EDGE_LOOP('',(#154,#155,#156,#157));
#102=EDGE_LOOP('',(#158,#159,#160,#161));
#103=EDGE_LOOP('',(#162,#163,#164,#165));
#104=EDGE_LOOP('',(#166,#167,#168,#169,#170,#171,#172,#173,#174,#175,#176,#177
,#178,#179,#180));
#105=EDGE_LOOP('',(#181,#182,#183,#184,#185,#186,#187,#188,#189,#190,#191,#192
,#193,#194,#195));
#106=ORIENTED_EDGE('',*,*,#264,.F.);
#107=ORIENTED_EDGE('',*,*,#234,.F.);
#108=ORIENTED_EDGE('',*,*,#249,.T.);
#109=ORIENTED_EDGE('',*,*,#220,.T.);
#110=ORIENTED_EDGE('',*,*,#263,.F.);
#111=ORIENTED_EDGE('',*,*,#220,.F.);
#112=ORIENTED_EDGE('',*,*,#248,.T.);
#113=ORIENTED_EDGE('',*,*,#221,.T.);
#114=ORIENTED_EDGE('',*,*,#262,.F.);
#115=ORIENTED_EDGE('',*,*,#221,.F.);
#116=ORIENTED_EDGE('',*,*,#247,.T.);
#117=ORIENTED_EDGE('',*,*,#222,.T.);
#118=ORIENTED_EDGE('',*,*,#261,.F.);
#119=ORIENTED_EDGE('',*,*,#222,.F.);
#120=ORIENTED_EDGE('',*,*,#246,.T.);
#121=ORIENTED_EDGE('',*,*,#223,.T.);
#122=ORIENTED_EDGE('',*,*,#260,.F.);
#123=ORIENTED_EDGE('',*,*,#223,.F.);
#124=ORIENTED_EDGE('',*,*,#245,.T.);
#125=ORIENTED_EDGE('',*,*,#224,.T.);
#126=ORIENTED_EDGE('',*,*,#259,.F.);
#127=ORIENTED_EDGE('',*,*,#224,.F.);
#128=ORIENTED_EDGE('',*,*,#244,.T.);
#129=ORIENTED_EDGE('',*,*,#225,.T.);
#130=ORIENTED_EDGE('',*,*,#258,.F.);
#131=ORIENTED_EDGE('',*,*,#225,.F.);
#132=ORIENTED_EDGE('',*,*,#243,.T.);
#133=ORIENTED_EDGE('',*,*,#226,.T.);
#134=ORIENTED_EDGE('',*,*,#257,.F.);
#135=ORIENTED_EDGE('',*,*,#226,.F.);
#136=ORIENTED_EDGE('',*,*,#242,.T.);
#137=ORIENTED_EDGE('',*,*,#227,.T.);
#138=ORIENTED_EDGE('',*,*,#256,.F.);
#139=ORIENTED_EDGE('',*,*,#227,.F.);
#140=ORIENTED_EDGE('',*,*,#241,.T.);
#141=ORIENTED_EDGE('',*,*,#228,.T.);
#142=ORIENTED_EDGE('',*,*,#255,.F.);
#143=ORIENTED_EDGE('',*,*,#228,.F.);
#144=ORIENTED_EDGE('',*,*,#240,.T.);
#145=ORIENTED_EDGE('',*,*,#229,.T.);
#146=ORIENTED_EDGE('',*,*,#254,.F.);
#147=ORIENTED_EDGE('',*,*,#229,.F.);
#148=ORIENTED_EDGE('',*,*,#239,.T.);
#149=ORIENTED_EDGE('',*,*,#230,.T.);
#150=ORIENTED_EDGE('',*,*,#253,.F.);
#151=ORIENTED_EDGE('',*,*,#230,.F.);
#152=ORIENTED_EDGE('',*,*,#238,.T.);
#153=ORIENTED_EDGE('',*,*,#231,.T.);
#154=ORIENTED_EDGE('',*,*,#252,.F.);
#155=ORIENTED_EDGE('',*,*,#231,.F.);
#156=ORIENTED_EDGE('',*,*,#237,.T.);
#157=ORIENTED_EDGE('',*,*,#232,.T.);
#158=ORIENTED_EDGE('',*,*,#251,.F.);
#159=ORIENTED_EDGE('',*,*,#232,.F.);
#160=ORIENTED_EDGE('',*,*,#236,.T.);
#161=ORIENTED_EDGE('',*,*,#233,.T.);
#162=ORIENTED_EDGE('',*,*,#250,.F.);
#163=ORIENTED_EDGE('',*,*,#233,.F.);
#164=ORIENTED_EDGE('',*,*,#235,.T.);
#165=ORIENTED_EDGE('',*,*,#234,.T.);
#166=ORIENTED_EDGE('',*,*,#249,.F.);
#167=ORIENTED_EDGE('',*,*,#235,.F.);
#168=ORIENTED_EDGE('',*,*,#236,.F.);
#169=ORIENTED_EDGE('',*,*,#237,.F.);
#170=ORIENTED_EDGE('',*,*,#238,.F.);
#171=ORIENTED_EDGE('',*,*,#239,.F.);
#172=ORIENTED_EDGE('',*,*,#240,.F.);
#173=ORIENTED_EDGE('',*,*,#241,.F.);
#174=ORIENTED_EDGE('',*,*,#242,.F.);
#175=ORIENTED_EDGE('',*,*,#243,.F.);
#176=ORIENTED_EDGE('',*,*,#244,.F.);
#177=ORIENTED_EDGE('',*,*,#245,.F.);
#178=ORIENTED_EDGE('',*,*,#246,.F.);
#179=ORIENTED_EDGE('',*,*,#247,.F.);
#180=ORIENTED_EDGE('',*,*,#248,.F.);
#181=ORIENTED_EDGE('',*,*,#264,.T.);
#182=ORIENTED_EDGE('',*,*,#263,.T.);
#183=ORIENTED_EDGE('',*,*,#262,.T.);
#184=ORIENTED_EDGE('',*,*,#261,.T.);
#185=ORIENTED_EDGE('',*,*,#260,.T.);
#186=ORIENTED_EDGE('',*,*,#259,.T.);
#187=ORIENTED_EDGE('',*,*,#258,.T.);
#188=ORIENTED_EDGE('',*,*,#257,.T.);
#189=ORIENTED_EDGE('',*,*,#256,.T.);
#190=ORIENTED_EDGE('',*,*,#255,.T.);
#191=ORIENTED_EDGE('',*,*,#254,.T.);
#192=ORIENTED_EDGE('',*,*,#253,.T.);
#193=ORIENTED_EDGE('',*,*,#252,.T.);
#194=ORIENTED_EDGE('',*,*,#251,.T.);
#195=ORIENTED_EDGE('',*,*,#250,.T.);
#196=PLANE('',#374);
#197=PLANE('',#375);
#198=PLANE('',#376);
#199=PLANE('',#377);
#200=PLANE('',#380);
#201=PLANE('',#386);
#202=PLANE('',#387);
#203=PLANE('',#388);
#204=PLANE('',#389);
#205=PLANE('',#390);
#206=CIRCLE('',#360,60.7246204298332);
#207=CIRCLE('',#361,15.2081032459833);
#208=CIRCLE('',#362,164.131113017606);
#209=CIRCLE('',#363,16.0949916024802);
#210=CIRCLE('',#364,26.8505823733964);
#211=CIRCLE('',#365,7.78432496629472);
#212=CIRCLE('',#366,23.0013038505963);
#213=CIRCLE('',#367,60.7246204298332);
#214=CIRCLE('',#368,15.2081032459833);
#215=CIRCLE('',#369,164.131113017606);
#216=CIRCLE('',#370,16.0949916024802);
#217=CIRCLE('',#371,26.8505823733964);
#218=CIRCLE('',#372,7.78432496629472);
#219=CIRCLE('',#373,23.0013038505963);
#220=EDGE_CURVE('',#341,#356,#265,.T.);
#221=EDGE_CURVE('',#340,#355,#266,.T.);
#222=EDGE_CURVE('',#339,#354,#267,.T.);
#223=EDGE_CURVE('',#338,#353,#268,.T.);
#224=EDGE_CURVE('',#337,#352,#269,.T.);
#225=EDGE_CURVE('',#336,#351,#270,.T.);
#226=EDGE_CURVE('',#335,#350,#271,.T.);
#227=EDGE_CURVE('',#334,#349,#272,.T.);
#228=EDGE_CURVE('',#333,#348,#273,.T.);
#229=EDGE_CURVE('',#332,#347,#274,.T.);
#230=EDGE_CURVE('',#331,#346,#275,.T.);
#231=EDGE_CURVE('',#330,#345,#276,.T.);
#232=EDGE_CURVE('',#329,#344,#277,.T.);
#233=EDGE_CURVE('',#328,#343,#278,.T.);
#234=EDGE_CURVE('',#327,#342,#279,.T.);
#235=EDGE_CURVE('',#328,#327,#280,.T.);
#236=EDGE_CURVE('',#329,#328,#281,.T.);
#237=EDGE_CURVE('',#330,#329,#282,.T.);
#238=EDGE_CURVE('',#331,#330,#206,.T.);
#239=EDGE_CURVE('',#332,#331,#207,.T.);
#240=EDGE_CURVE('',#333,#332,#208,.T.);
#241=EDGE_CURVE('',#334,#333,#209,.T.);
#242=EDGE_CURVE('',#335,#334,#210,.T.);
#243=EDGE_CURVE('',#336,#335,#283,.T.);
#244=EDGE_CURVE('',#337,#336,#211,.T.);
#245=EDGE_CURVE('',#338,#337,#212,.T.);
#246=EDGE_CURVE('',#339,#338,#284,.T.);
#247=EDGE_CURVE('',#340,#339,#285,.T.);
#248=EDGE_CURVE('',#341,#340,#286,.T.);
#249=EDGE_CURVE('',#327,#341,#287,.T.);
#250=EDGE_CURVE('',#343,#342,#288,.T.);
#251=EDGE_CURVE('',#344,#343,#289,.T.);
#252=EDGE_CURVE('',#345,#344,#290,.T.);
#253=EDGE_CURVE('',#346,#345,#213,.T.);
#254=EDGE_CURVE('',#347,#346,#214,.T.);
#255=EDGE_CURVE('',#348,#347,#215,.T.);
#256=EDGE_CURVE('',#349,#348,#216,.T.);
#257=EDGE_CURVE('',#350,#349,#217,.T.);
#258=EDGE_CURVE('',#351,#350,#291,.T.);
#259=EDGE_CURVE('',#352,#351,#218,.T.);
#260=EDGE_CURVE('',#353,#352,#219,.T.);
#261=EDGE_CURVE('',#354,#353,#292,.T.);
#262=EDGE_CURVE('',#355,#354,#293,.T.);
#263=EDGE_CURVE('',#356,#355,#294,.T.);
#264=EDGE_CURVE('',#342,#356,#295,.T.);
#265=LINE('',#517,#296);
#266=LINE('',#518,#297);
#267=LINE('',#519,#298);
#268=LINE('',#520,#299);
#269=LINE('',#521,#300);
#270=LINE('',#522,#301);
#271=LINE('',#523,#302);
#272=LINE('',#524,#303);
#273=LINE('',#525,#304);
#274=LINE('',#526,#305);
#275=LINE('',#527,#306);
#276=LINE('',#528,#307);
#277=LINE('',#529,#308);
#278=LINE('',#530,#309);
#279=LINE('',#531,#310);
#280=LINE('',#532,#311);
#281=LINE('',#533,#312);
#282=LINE('',#534,#313);
#283=LINE('',#540,#314);
#284=LINE('',#543,#315);
#285=LINE('',#544,#316);
#286=LINE('',#545,#317);
#287=LINE('',#546,#318);
#288=LINE('',#547,#319);
#289=LINE('',#548,#320);
#290=LINE('',#549,#321);
#291=LINE('',#555,#322);
#292=LINE('',#558,#323);
#293=LINE('',#559,#324);
#294=LINE('',#560,#325);
#295=LINE('',#561,#326);
#296=VECTOR('',#393,1.);
#297=VECTOR('',#394,1.);
#298=VECTOR('',#395,1.);
#299=VECTOR('',#396,1.);
#300=VECTOR('',#397,1.);
#301=VECTOR('',#398,1.);
#302=VECTOR('',#399,1.);
#303=VECTOR('',#400,1.);
#304=VECTOR('',#401,1.);
#305=VECTOR('',#402,1.);
#306=VECTOR('',#403,1.);
#307=VECTOR('',#404,1.);
#308=VECTOR('',#405,1.);
#309=VECTOR('',#406,1.);
#310=VECTOR('',#407,1.);
#311=VECTOR('',#408,1.);
#312=VECTOR('',#409,1.);
#313=VECTOR('',#410,1.);
#314=VECTOR('',#421,1.);
#315=VECTOR('',#426,1.);
#316=VECTOR('',#427,1.);
#317=VECTOR('',#428,1.);
#318=VECTOR('',#429,1.);
#319=VECTOR('',#430,1.);
#320=VECTOR('',#431,1.);
#321=VECTOR('',#432,1.);
#322=VECTOR('',#443,1.);
#323=VECTOR('',#448,1.);
#324=VECTOR('',#449,1.);
#325=VECTOR('',#450,1.);
#326=VECTOR('',#451,1.);
#327=VERTEX_POINT('',#487);
#328=VERTEX_POINT('',#488);
#329=VERTEX_POINT('',#489);
#330=VERTEX_POINT('',#490);
#331=VERTEX_POINT('',#491);
#332=VERTEX_POINT('',#492);
#333=VERTEX_POINT('',#493);
#334=VERTEX_POINT('',#494);
#335=VERTEX_POINT('',#495);
#336=VERTEX_POINT('',#496);
#337=VERTEX_POINT('',#497);
#338=VERTEX_POINT('',#498);
#339=VERTEX_POINT('',#499);
#340=VERTEX_POINT('',#500);
#341=VERTEX_POINT('',#501);
#342=VERTEX_POINT('',#502);
#343=VERTEX_POINT('',#503);
#344=VERTEX_POINT('',#504);
#345=VERTEX_POINT('',#505);
#346=VERTEX_POINT('',#506);
#347=VERTEX_POINT('',#507);
#348=VERTEX_POINT('',#508);
#349=VERTEX_POINT('',#509);
#350=VERTEX_POINT('',#510);
#351=VERTEX_POINT('',#511);
#352=VERTEX_POINT('',#512);
#353=VERTEX_POINT('',#513);
#354=VERTEX_POINT('',#514);
#355=VERTEX_POINT('',#515);
#356=VERTEX_POINT('',#516);
#357=SHAPE_DEFINITION_REPRESENTATION(#579,#358);
#358=SHAPE_REPRESENTATION('master',(#359),#581);
#359=AXIS2_PLACEMENT_3D('',#486,#392,#391);
#360=AXIS2_PLACEMENT_3D('',#535,#412,#411);
#361=AXIS2_PLACEMENT_3D('',#536,#414,#413);
#362=AXIS2_PLACEMENT_3D('',#537,#416,#415);
#363=AXIS2_PLACEMENT_3D('',#538,#418,#417);
#364=AXIS2_PLACEMENT_3D('',#539,#420,#419);
#365=AXIS2_PLACEMENT_3D('',#541,#423,#422);
#366=AXIS2_PLACEMENT_3D('',#542,#425,#424);
#367=AXIS2_PLACEMENT_3D('',#550,#434,#433);
#368=AXIS2_PLACEMENT_3D('',#551,#436,#435);
#369=AXIS2_PLACEMENT_3D('',#552,#438,#437);
#370=AXIS2_PLACEMENT_3D('',#553,#440,#439);
#371=AXIS2_PLACEMENT_3D('',#554,#442,#441);
#372=AXIS2_PLACEMENT_3D('',#556,#445,#444);
#373=AXIS2_PLACEMENT_3D('',#557,#447,#446);
#374=AXIS2_PLACEMENT_3D('',#562,#453,#452);
#375=AXIS2_PLACEMENT_3D('',#563,#455,#454);
#376=AXIS2_PLACEMENT_3D('',#564,#457,#456);
#377=AXIS2_PLACEMENT_3D('',#565,#459,#458);
#378=AXIS2_PLACEMENT_3D('',#566,#461,#460);
#379=AXIS2_PLACEMENT_3D('',#567,#463,#462);
#380=AXIS2_PLACEMENT_3D('',#568,#465,#464);
#381=AXIS2_PLACEMENT_3D('',#569,#467,#466);
#382=AXIS2_PLACEMENT_3D('',#570,#469,#468);
#383=AXIS2_PLACEMENT_3D('',#571,#471,#470);
#384=AXIS2_PLACEMENT_3D('',#572,#473,#472);
#385=AXIS2_PLACEMENT_3D('',#573,#475,#474);
#386=AXIS2_PLACEMENT_3D('',#574,#477,#476);
#387=AXIS2_PLACEMENT_3D('',#575,#479,#478);
#388=AXIS2_PLACEMENT_3D('',#576,#481,#480);
#389=AXIS2_PLACEMENT_3D('',#577,#483,#482);
#390=AXIS2_PLACEMENT_3D('',#578,#485,#484);
#391=DIRECTION('',(1.,0.,0.));
#392=DIRECTION('',(0.,0.,1.));
#393=DIRECTION('',(-1.24770739599819E-014,-1.,1.37448366235213E-014));
#394=DIRECTION('',(-1.24770739599819E-014,-1.,1.37448366235213E-014));
#395=DIRECTION('',(-1.24770739599819E-014,-1.,1.37448366235213E-014));
#396=DIRECTION('',(-1.24770739599819E-014,-1.,1.37448366235213E-014));
#397=DIRECTION('',(-1.24770739599819E-014,-1.,1.37448366235213E-014));
#398=DIRECTION('',(-1.24770739599819E-014,-1.,1.37448366235213E-014));
#399=DIRECTION('',(-1.24770739599819E-014,-1.,1.37448366235213E-014));
#400=DIRECTION('',(-1.24770739599819E-014,-1.,1.37448366235213E-014));
#401=DIRECTION('',(-1.24770739599819E-014,-1.,1.37448366235213E-014));
#402=DIRECTION('',(-1.24770739599819E-014,-1.,1.37448366235213E-014));
#403=DIRECTION('',(-1.24770739599819E-014,-1.,1.37448366235213E-014));
#404=DIRECTION('',(-1.24770739599819E-014,-1.,1.37448366235213E-014));
#405=DIRECTION('',(-1.24770739599819E-014,-1.,1.37448366235213E-014));
#406=DIRECTION('',(-1.24770739599819E-014,-1.,1.37448366235213E-014));
#407=DIRECTION('',(-1.24770739599819E-014,-1.,1.37448366235213E-014));
#408=DIRECTION('',(-0.,-0.,1.));
#409=DIRECTION('',(0.985294568869066,0.,0.170864310366801));
#410=DIRECTION('',(2.43614652260606E-014,0.,1.));
#411=DIRECTION('',(-0.325654164416132,0.,0.945488955619489));
#412=DIRECTION('',(0.,1.,0.));
#413=DIRECTION('',(-0.897460901792266,0.,0.441094014643378));
#414=DIRECTION('',(0.,1.,0.));
#415=DIRECTION('',(0.87829757757056,0.,-0.478114385093867));
#416=DIRECTION('',(0.,-1.,0.));
#417=DIRECTION('',(0.113345742808493,0.,-0.993555606187792));
#418=DIRECTION('',(0.,-1.,0.));
#419=DIRECTION('',(-0.146655777504809,-0.,-0.989187587328339));
#420=DIRECTION('',(0.,-1.,0.));
#421=DIRECTION('',(-4.39244600288026E-014,0.,1.));
#422=DIRECTION('',(-0.905314387060414,0.,0.42474211067591));
#423=DIRECTION('',(0.,1.,0.));
#424=DIRECTION('',(-0.991279629549782,0.,0.131775172318791));
#425=DIRECTION('',(0.,1.,0.));
#426=DIRECTION('',(0.990201794488849,0.,0.139643854827426));
#427=DIRECTION('',(-0.,-0.,-1.));
#428=DIRECTION('',(-0.932606895245836,-0.,-0.360893861044937));
#429=DIRECTION('',(-1.,-0.,-0.));
#430=DIRECTION('',(-0.,-0.,1.));
#431=DIRECTION('',(0.985294568869066,0.,0.170864310366801));
#432=DIRECTION('',(2.43614652260606E-014,0.,1.));
#433=DIRECTION('',(-0.325654164416132,0.,0.945488955619489));
#434=DIRECTION('',(0.,1.,0.));
#435=DIRECTION('',(-0.897460901792266,0.,0.441094014643378));
#436=DIRECTION('',(0.,1.,0.));
#437=DIRECTION('',(0.87829757757056,0.,-0.478114385093867));
#438=DIRECTION('',(0.,-1.,0.));
#439=DIRECTION('',(0.113345742808493,0.,-0.993555606187792));
#440=DIRECTION('',(0.,-1.,0.));
#441=DIRECTION('',(-0.146655777504809,-0.,-0.989187587328339));
#442=DIRECTION('',(0.,-1.,0.));
#443=DIRECTION('',(-4.39244600288026E-014,0.,1.));
#444=DIRECTION('',(-0.905314387060414,0.,0.42474211067591));
#445=DIRECTION('',(0.,1.,0.));
#446=DIRECTION('',(-0.991279629549782,0.,0.131775172318791));
#447=DIRECTION('',(0.,1.,0.));
#448=DIRECTION('',(0.990201794488849,0.,0.139643854827426));
#449=DIRECTION('',(-0.,-0.,-1.));
#450=DIRECTION('',(-0.932606895245836,-0.,-0.360893861044937));
#451=DIRECTION('',(-1.,-0.,-0.));
#452=DIRECTION('',(0.,-1.,1.37448366235213E-014));
#453=DIRECTION('',(-0.,1.37448366235213E-014,1.));
#454=DIRECTION('',(0.932606895245836,7.88860905221012E-031,0.360893861044937)
);
#455=DIRECTION('',(-0.360893861044937,1.73214288050846E-014,0.932606895245836)
);
#456=DIRECTION('',(-1.24770739599819E-014,-1.,0.));
#457=DIRECTION('',(-1.,1.24770739599819E-014,0.));
#458=DIRECTION('',(-0.990201794488849,0.,-0.139643854827426));
#459=DIRECTION('',(0.139643854827426,-1.53525085943056E-014,-0.990201794488849
));
#460=DIRECTION('',(0.,-1.37448366235213E-014,-1.));
#461=DIRECTION('',(-1.24770739599819E-014,-1.,1.37448366235213E-014));
#462=DIRECTION('',(0.,-1.37448366235213E-014,-1.));
#463=DIRECTION('',(-1.24770739599819E-014,-1.,1.37448366235213E-014));
#464=DIRECTION('',(4.39244600288026E-014,0.,-1.));
#465=DIRECTION('',(1.,-1.24770739599813E-014,4.39244600288026E-014));
#466=DIRECTION('',(0.,-1.37448366235213E-014,-1.));
#467=DIRECTION('',(-1.24770739599819E-014,-1.,1.37448366235213E-014));
#468=DIRECTION('',(0.,-1.37448366235213E-014,-1.));
#469=DIRECTION('',(-1.24770739599819E-014,-1.,1.37448366235213E-014));
#470=DIRECTION('',(0.,-1.37448366235213E-014,-1.));
#471=DIRECTION('',(-1.24770739599819E-014,-1.,1.37448366235213E-014));
#472=DIRECTION('',(0.,-1.37448366235213E-014,-1.));
#473=DIRECTION('',(-1.24770739599819E-014,-1.,1.37448366235213E-014));
#474=DIRECTION('',(0.,-1.37448366235213E-014,-1.));
#475=DIRECTION('',(-1.24770739599819E-014,-1.,1.37448366235213E-014));
#476=DIRECTION('',(-2.43614652260606E-014,0.,-1.));
#477=DIRECTION('',(1.,-1.24770739599823E-014,-2.43614652260606E-014));
#478=DIRECTION('',(-0.985294568869066,0.,-0.170864310366801));
#479=DIRECTION('',(0.170864310366801,-1.5674599512716E-014,-0.985294568869066)
);
#480=DIRECTION('',(1.24770739599819E-014,1.,0.));
#481=DIRECTION('',(1.,-1.24770739599819E-014,0.));
#482=DIRECTION('',(0.,-0.,1.));
#483=DIRECTION('',(0.,1.,0.));
#484=DIRECTION('',(0.,-0.,1.));
#485=DIRECTION('',(0.,1.,0.));
#486=CARTESIAN_POINT('',(0.,0.,0.));
#487=CARTESIAN_POINT('',(171.836315000025,2168.281361,2249.49999999997));
#488=CARTESIAN_POINT('',(171.836315000025,2168.281361,2245.53510299997));
#489=CARTESIAN_POINT('',(166.497965000025,2168.281361,2244.60935599997));
#490=CARTESIAN_POINT('',(166.497965000025,2168.281361,2241.10935599997));
#491=CARTESIAN_POINT('',(148.682155227593,2168.281361,2237.83081422034));
#492=CARTESIAN_POINT('',(139.986059328828,2168.281361,2230.15992388122));
#493=CARTESIAN_POINT('',(136.840761595203,2168.281361,2224.08372927486));
#494=CARTESIAN_POINT('',(124.528868238405,2168.281361,2215.78770714978));
#495=CARTESIAN_POINT('',(117.547676000025,2168.281361,2215.90499099997));
#496=CARTESIAN_POINT('',(117.547676000026,2168.281361,2210.40499099997));
#497=CARTESIAN_POINT('',(110.584570663112,2168.281361,2205.9274515673));
#498=CARTESIAN_POINT('',(108.607258000025,2168.281361,2199.18882999997));
#499=CARTESIAN_POINT('',(103.080454000025,2168.281361,2198.40940885599));
#500=CARTESIAN_POINT('',(103.080454000025,2168.281361,2232.3190438251));
#501=CARTESIAN_POINT('',(147.478765872693,2168.281361,2249.49999999997));
#502=CARTESIAN_POINT('',(171.836315,168.281361,2249.5));
#503=CARTESIAN_POINT('',(171.836315,168.281361,2245.535103));
#504=CARTESIAN_POINT('',(166.497965,168.281361,2244.609356));
#505=CARTESIAN_POINT('',(166.497965,168.281361,2241.109356));
#506=CARTESIAN_POINT('',(148.682155227568,168.281361,2237.83081422036));
#507=CARTESIAN_POINT('',(139.986059328803,168.281361,2230.15992388125));
#508=CARTESIAN_POINT('',(136.840761595178,168.281361,2224.08372927488));
#509=CARTESIAN_POINT('',(124.52886823838,168.281361,2215.78770714981));
#510=CARTESIAN_POINT('',(117.547676,168.281361,2215.904991));
#511=CARTESIAN_POINT('',(117.547676000001,168.281361,2210.404991));
#512=CARTESIAN_POINT('',(110.584570663087,168.281361,2205.92745156733));
#513=CARTESIAN_POINT('',(108.607258,168.281361,2199.18883));
#514=CARTESIAN_POINT('',(103.080454,168.281361,2198.40940885602));
#515=CARTESIAN_POINT('',(103.080454,168.281361,2232.31904382513));
#516=CARTESIAN_POINT('',(147.478765872668,168.281361,2249.5));
#517=CARTESIAN_POINT('',(147.478765872693,2168.281361,2249.49999999997));
#518=CARTESIAN_POINT('',(103.080454000025,2168.281361,2232.3190438251));
#519=CARTESIAN_POINT('',(103.080454000025,2168.281361,2198.40940885599));
#520=CARTESIAN_POINT('',(108.607258000025,2168.281361,2199.18882999997));
#521=CARTESIAN_POINT('',(110.584570663112,2168.281361,2205.9274515673));
#522=CARTESIAN_POINT('',(117.547676000026,2168.281361,2210.40499099997));
#523=CARTESIAN_POINT('',(117.547676000025,2168.281361,2215.90499099997));
#524=CARTESIAN_POINT('',(124.528868238405,2168.281361,2215.78770714978));
#525=CARTESIAN_POINT('',(136.840761595203,2168.281361,2224.08372927486));
#526=CARTESIAN_POINT('',(139.986059328828,2168.281361,2230.15992388122));
#527=CARTESIAN_POINT('',(148.682155227593,2168.281361,2237.83081422034));
#528=CARTESIAN_POINT('',(166.497965000025,2168.281361,2241.10935599997));
#529=CARTESIAN_POINT('',(166.497965000025,2168.281361,2244.60935599997));
#530=CARTESIAN_POINT('',(171.836315000025,2168.281361,2245.53510299997));
#531=CARTESIAN_POINT('',(171.836315000025,2168.281361,2249.49999999997));
#532=CARTESIAN_POINT('',(171.836315000025,2168.281361,2245.53510299997));
#533=CARTESIAN_POINT('',(166.497965000025,2168.281361,2244.60935599997));
#534=CARTESIAN_POINT('',(166.497965000025,2168.281361,2241.10935599997));
#535=CARTESIAN_POINT('',(168.457380753157,2168.281361,2180.41635626974));
#536=CARTESIAN_POINT('',(153.634737382518,2168.281361,2223.45172056534));
#537=CARTESIAN_POINT('',(-7.31519737212062,2168.281361,2302.55717545004));
#538=CARTESIAN_POINT('',(122.704569459726,2168.281361,2231.77897628797));
#539=CARTESIAN_POINT('',(121.485469034452,2168.281361,2242.46525379627));
#540=CARTESIAN_POINT('',(117.547676000025,2168.281361,2210.40499099997));
#541=CARTESIAN_POINT('',(117.631832048652,2168.281361,2202.62112095093));
#542=CARTESIAN_POINT('',(131.407981960205,2168.281361,2196.1578292215));
#543=CARTESIAN_POINT('',(103.080454000025,2168.281361,2198.40940885599));
#544=CARTESIAN_POINT('',(103.080454000025,2168.281361,2232.3190438251));
#545=CARTESIAN_POINT('',(147.478765872693,2168.281361,2249.49999999997));
#546=CARTESIAN_POINT('',(171.836315000025,2168.281361,2249.49999999997));
#547=CARTESIAN_POINT('',(171.836315,168.281361,2245.535103));
#548=CARTESIAN_POINT('',(166.497965,168.281361,2244.609356));
#549=CARTESIAN_POINT('',(166.497965,168.281361,2241.109356));
#550=CARTESIAN_POINT('',(168.457380753132,168.281361,2180.41635626977));
#551=CARTESIAN_POINT('',(153.634737382493,168.281361,2223.45172056536));
#552=CARTESIAN_POINT('',(-7.31519737214558,168.281361,2302.55717545007));
#553=CARTESIAN_POINT('',(122.704569459701,168.281361,2231.778976288));
#554=CARTESIAN_POINT('',(121.485469034427,168.281361,2242.4652537963));
#555=CARTESIAN_POINT('',(117.547676,168.281361,2210.404991));
#556=CARTESIAN_POINT('',(117.631832048628,168.281361,2202.62112095096));
#557=CARTESIAN_POINT('',(131.40798196018,168.281361,2196.15782922153));
#558=CARTESIAN_POINT('',(103.080454,168.281361,2198.40940885602));
#559=CARTESIAN_POINT('',(103.080454,168.281361,2232.31904382513));
#560=CARTESIAN_POINT('',(147.478765872668,168.281361,2249.5));
#561=CARTESIAN_POINT('',(171.836315,168.281361,2249.5));
#562=CARTESIAN_POINT('',(171.836315000025,2168.281361,2249.49999999997));
#563=CARTESIAN_POINT('',(147.478765872693,2168.281361,2249.49999999997));
#564=CARTESIAN_POINT('',(103.080454000025,2168.281361,2232.3190438251));
#565=CARTESIAN_POINT('',(103.080454000025,2168.281361,2198.40940885599));
#566=CARTESIAN_POINT('',(131.407981960205,2168.281361,2196.1578292215));
#567=CARTESIAN_POINT('',(117.631832048652,2168.281361,2202.62112095093));
#568=CARTESIAN_POINT('',(117.547676000025,2168.281361,2210.40499099997));
#569=CARTESIAN_POINT('',(121.485469034452,2168.281361,2242.46525379627));
#570=CARTESIAN_POINT('',(122.704569459726,2168.281361,2231.77897628797));
#571=CARTESIAN_POINT('',(-7.31519737212062,2168.281361,2302.55717545004));
#572=CARTESIAN_POINT('',(153.634737382518,2168.281361,2223.45172056534));
#573=CARTESIAN_POINT('',(168.457380753157,2168.281361,2180.41635626974));
#574=CARTESIAN_POINT('',(166.497965000025,2168.281361,2241.10935599997));
#575=CARTESIAN_POINT('',(166.497965000025,2168.281361,2244.60935599997));
#576=CARTESIAN_POINT('',(171.836315000025,2168.281361,2245.53510299997));
#577=CARTESIAN_POINT('',(131.407981960205,2168.281361,2196.1578292215));
#578=CARTESIAN_POINT('',(131.40798196018,168.281361,2196.15782922153));
#579=PRODUCT_DEFINITION_SHAPE('','',#580);
#580=PRODUCT_DEFINITION('','',#592,#597);
#581=(
GEOMETRIC_REPRESENTATION_CONTEXT(3)
GLOBAL_UNCERTAINTY_ASSIGNED_CONTEXT((#582))
GLOBAL_UNIT_ASSIGNED_CONTEXT((#584,#583,#587))
REPRESENTATION_CONTEXT('','')
);
#582=UNCERTAINTY_MEASURE_WITH_UNIT(LENGTH_MEASURE(0.001),#584,'','tolerance');
#583=(
CONVERSION_BASED_UNIT('',#585)
NAMED_UNIT(#591)
PLANE_ANGLE_UNIT()
);
#584=(
CONVERSION_BASED_UNIT('',#586)
LENGTH_UNIT()
NAMED_UNIT(#590)
);
#585=PLANE_ANGLE_MEASURE_WITH_UNIT(PLANE_ANGLE_MEASURE(0.0174532925199433),
#588);
#586=LENGTH_MEASURE_WITH_UNIT(LENGTH_MEASURE(1.),#589);
#587=(
NAMED_UNIT(*)
SI_UNIT($,.STERADIAN.)
SOLID_ANGLE_UNIT()
);
#588=(
NAMED_UNIT(*)
PLANE_ANGLE_UNIT()
SI_UNIT($,.RADIAN.)
);
#589=(
LENGTH_UNIT()
NAMED_UNIT(*)
SI_UNIT(.MILLI.,.METRE.)
);
#590=DIMENSIONAL_EXPONENTS(1.,0.,0.,0.,0.,0.,0.);
#591=DIMENSIONAL_EXPONENTS(0.,0.,0.,0.,0.,0.,0.);
#592=PRODUCT_DEFINITION_FORMATION_WITH_SPECIFIED_SOURCE('','',#595,.NOT_KNOWN.
);
#593=PRODUCT_CATEGORY_RELATIONSHIP('','',#598,#594);
#594=PRODUCT_RELATED_PRODUCT_CATEGORY('assembly','',(#595));
#595=PRODUCT('','master','',(#596));
#596=PRODUCT_CONTEXT('',#600,'');
#597=PRODUCT_DEFINITION_CONTEXT('',#600,'part_definition');
#598=PRODUCT_CATEGORY('part','');
#599=APPLICATION_PROTOCOL_DEFINITION('international standard',
'automotive_design_cc2',1994,#600);
#600=APPLICATION_CONTEXT(
'configuration controlled 3D designs of mechanical parts and assemblies');
ENDSEC;
END-ISO-10303-21;
28173