ISO-10303-21;
HEADER;
/* Generated by software using Delcam plc STEP library */

FILE_DESCRIPTION(
/* description */ ('AP-214 File'),
/* implementation_level */ '2;1');

FILE_NAME(
/* name */ 'D706',
/* time_stamp */ 'Mon Dec 26 15:57:20 2016',
/* author */ (''),
/* organization */ (''),
/* preprocessor_version */ 'DELCAM STEP V1',
/* originating_system */ 'Exchange7.1.0006',
/* authorisation */ '');

FILE_SCHEMA (('AUTOMOTIVE_DESIGN'));
ENDSEC;
DATA;
#10=PRESENTATION_STYLE_ASSIGNMENT((#20));
#11=PRESENTATION_STYLE_ASSIGNMENT((#21));
#12=SURFACE_SIDE_STYLE('',(#14));
#13=SURFACE_SIDE_STYLE('',(#15));
#14=SURFACE_STYLE_FILL_AREA(#16);
#15=SURFACE_STYLE_FILL_AREA(#17);
#16=FILL_AREA_STYLE('',(#18));
#17=FILL_AREA_STYLE('',(#19));
#18=FILL_AREA_STYLE_COLOUR('',#33);
#19=FILL_AREA_STYLE_COLOUR('',#34);
#20=SURFACE_STYLE_USAGE(.BOTH.,#12);
#21=SURFACE_STYLE_USAGE(.BOTH.,#13);
#22=STYLED_ITEM('',(#10),#41);
#23=STYLED_ITEM('',(#10),#42);
#24=STYLED_ITEM('',(#10),#43);
#25=STYLED_ITEM('',(#10),#44);
#26=STYLED_ITEM('',(#10),#45);
#27=STYLED_ITEM('',(#10),#46);
#28=STYLED_ITEM('',(#10),#47);
#29=STYLED_ITEM('',(#10),#48);
#30=STYLED_ITEM('',(#10),#49);
#31=STYLED_ITEM('',(#10),#50);
#32=STYLED_ITEM('',(#11),#40);
#33=COLOUR_RGB('',0.,0.,0.);
#34=COLOUR_RGB('rgb_colour_1',0.4,0.4,0.4);
#35=MECHANICAL_DESIGN_GEOMETRIC_PRESENTATION_REPRESENTATION('',(#22,#23,#24,
#25,#26,#27,#28,#29,#30,#31,#32),#329);
#36=PRESENTATION_LAYER_ASSIGNMENT('116','D706',(#41,#42,#43,#44,#45,#46,#47,
#48,#49,#50,#40));
#37=SHAPE_REPRESENTATION_RELATIONSHIP('','',#218,#38);
#38=ADVANCED_BREP_SHAPE_REPRESENTATION('',(#39),#329);
#39=MANIFOLD_SOLID_BREP('7547',#40);
#40=CLOSED_SHELL('',(#41,#42,#43,#44,#45,#46,#47,#48,#49,#50));
#41=ADVANCED_FACE('',(#51),#119,.F.);
#42=ADVANCED_FACE('',(#52),#120,.F.);
#43=ADVANCED_FACE('',(#53),#121,.F.);
#44=ADVANCED_FACE('',(#54),#122,.F.);
#45=ADVANCED_FACE('',(#55),#123,.F.);
#46=ADVANCED_FACE('',(#56),#124,.F.);
#47=ADVANCED_FACE('',(#57),#125,.F.);
#48=ADVANCED_FACE('',(#58),#126,.F.);
#49=ADVANCED_FACE('',(#59),#127,.T.);
#50=ADVANCED_FACE('',(#60),#128,.F.);
#51=FACE_OUTER_BOUND('',#61,.T.);
#52=FACE_OUTER_BOUND('',#62,.T.);
#53=FACE_OUTER_BOUND('',#63,.T.);
#54=FACE_OUTER_BOUND('',#64,.T.);
#55=FACE_OUTER_BOUND('',#65,.T.);
#56=FACE_OUTER_BOUND('',#66,.T.);
#57=FACE_OUTER_BOUND('',#67,.T.);
#58=FACE_OUTER_BOUND('',#68,.T.);
#59=FACE_OUTER_BOUND('',#69,.T.);
#60=FACE_OUTER_BOUND('',#70,.T.);
#61=EDGE_LOOP('',(#71,#72,#73,#74));
#62=EDGE_LOOP('',(#75,#76,#77,#78));
#63=EDGE_LOOP('',(#79,#80,#81,#82));
#64=EDGE_LOOP('',(#83,#84,#85,#86));
#65=EDGE_LOOP('',(#87,#88,#89,#90));
#66=EDGE_LOOP('',(#91,#92,#93,#94));
#67=EDGE_LOOP('',(#95,#96,#97,#98));
#68=EDGE_LOOP('',(#99,#100,#101,#102));
#69=EDGE_LOOP('',(#103,#104,#105,#106,#107,#108,#109,#110));
#70=EDGE_LOOP('',(#111,#112,#113,#114,#115,#116,#117,#118));
#71=ORIENTED_EDGE('',*,*,#152,.T.);
#72=ORIENTED_EDGE('',*,*,#129,.F.);
#73=ORIENTED_EDGE('',*,*,#144,.F.);
#74=ORIENTED_EDGE('',*,*,#136,.T.);
#75=ORIENTED_EDGE('',*,*,#151,.T.);
#76=ORIENTED_EDGE('',*,*,#130,.F.);
#77=ORIENTED_EDGE('',*,*,#143,.F.);
#78=ORIENTED_EDGE('',*,*,#129,.T.);
#79=ORIENTED_EDGE('',*,*,#150,.T.);
#80=ORIENTED_EDGE('',*,*,#131,.F.);
#81=ORIENTED_EDGE('',*,*,#142,.F.);
#82=ORIENTED_EDGE('',*,*,#130,.T.);
#83=ORIENTED_EDGE('',*,*,#149,.T.);
#84=ORIENTED_EDGE('',*,*,#132,.F.);
#85=ORIENTED_EDGE('',*,*,#141,.F.);
#86=ORIENTED_EDGE('',*,*,#131,.T.);
#87=ORIENTED_EDGE('',*,*,#148,.T.);
#88=ORIENTED_EDGE('',*,*,#133,.F.);
#89=ORIENTED_EDGE('',*,*,#140,.F.);
#90=ORIENTED_EDGE('',*,*,#132,.T.);
#91=ORIENTED_EDGE('',*,*,#147,.T.);
#92=ORIENTED_EDGE('',*,*,#134,.F.);
#93=ORIENTED_EDGE('',*,*,#139,.F.);
#94=ORIENTED_EDGE('',*,*,#133,.T.);
#95=ORIENTED_EDGE('',*,*,#146,.T.);
#96=ORIENTED_EDGE('',*,*,#135,.F.);
#97=ORIENTED_EDGE('',*,*,#138,.F.);
#98=ORIENTED_EDGE('',*,*,#134,.T.);
#99=ORIENTED_EDGE('',*,*,#145,.T.);
#100=ORIENTED_EDGE('',*,*,#136,.F.);
#101=ORIENTED_EDGE('',*,*,#137,.F.);
#102=ORIENTED_EDGE('',*,*,#135,.T.);
#103=ORIENTED_EDGE('',*,*,#144,.T.);
#104=ORIENTED_EDGE('',*,*,#143,.T.);
#105=ORIENTED_EDGE('',*,*,#142,.T.);
#106=ORIENTED_EDGE('',*,*,#141,.T.);
#107=ORIENTED_EDGE('',*,*,#140,.T.);
#108=ORIENTED_EDGE('',*,*,#139,.T.);
#109=ORIENTED_EDGE('',*,*,#138,.T.);
#110=ORIENTED_EDGE('',*,*,#137,.T.);
#111=ORIENTED_EDGE('',*,*,#152,.F.);
#112=ORIENTED_EDGE('',*,*,#145,.F.);
#113=ORIENTED_EDGE('',*,*,#146,.F.);
#114=ORIENTED_EDGE('',*,*,#147,.F.);
#115=ORIENTED_EDGE('',*,*,#148,.F.);
#116=ORIENTED_EDGE('',*,*,#149,.F.);
#117=ORIENTED_EDGE('',*,*,#150,.F.);
#118=ORIENTED_EDGE('',*,*,#151,.F.);
#119=PLANE('',#220);
#120=PLANE('',#221);
#121=PLANE('',#222);
#122=PLANE('',#223);
#123=PLANE('',#224);
#124=PLANE('',#225);
#125=PLANE('',#226);
#126=PLANE('',#227);
#127=PLANE('',#228);
#128=PLANE('',#229);
#129=EDGE_CURVE('',#208,#216,#153,.T.);
#130=EDGE_CURVE('',#207,#215,#154,.T.);
#131=EDGE_CURVE('',#206,#214,#155,.T.);
#132=EDGE_CURVE('',#205,#213,#156,.T.);
#133=EDGE_CURVE('',#204,#212,#157,.T.);
#134=EDGE_CURVE('',#203,#211,#158,.T.);
#135=EDGE_CURVE('',#202,#210,#159,.T.);
#136=EDGE_CURVE('',#201,#209,#160,.T.);
#137=EDGE_CURVE('',#202,#201,#161,.T.);
#138=EDGE_CURVE('',#203,#202,#162,.T.);
#139=EDGE_CURVE('',#204,#203,#163,.T.);
#140=EDGE_CURVE('',#205,#204,#164,.T.);
#141=EDGE_CURVE('',#206,#205,#165,.T.);
#142=EDGE_CURVE('',#207,#206,#166,.T.);
#143=EDGE_CURVE('',#208,#207,#167,.T.);
#144=EDGE_CURVE('',#201,#208,#168,.T.);
#145=EDGE_CURVE('',#210,#209,#169,.T.);
#146=EDGE_CURVE('',#211,#210,#170,.T.);
#147=EDGE_CURVE('',#212,#211,#171,.T.);
#148=EDGE_CURVE('',#213,#212,#172,.T.);
#149=EDGE_CURVE('',#214,#213,#173,.T.);
#150=EDGE_CURVE('',#215,#214,#174,.T.);
#151=EDGE_CURVE('',#216,#215,#175,.T.);
#152=EDGE_CURVE('',#209,#216,#176,.T.);
#153=LINE('',#293,#177);
#154=LINE('',#294,#178);
#155=LINE('',#295,#179);
#156=LINE('',#296,#180);
#157=LINE('',#297,#181);
#158=LINE('',#298,#182);
#159=LINE('',#299,#183);
#160=LINE('',#300,#184);
#161=LINE('',#301,#185);
#162=LINE('',#302,#186);
#163=LINE('',#303,#187);
#164=LINE('',#304,#188);
#165=LINE('',#305,#189);
#166=LINE('',#306,#190);
#167=LINE('',#307,#191);
#168=LINE('',#308,#192);
#169=LINE('',#309,#193);
#170=LINE('',#310,#194);
#171=LINE('',#311,#195);
#172=LINE('',#312,#196);
#173=LINE('',#313,#197);
#174=LINE('',#314,#198);
#175=LINE('',#315,#199);
#176=LINE('',#316,#200);
#177=VECTOR('',#232,1.);
#178=VECTOR('',#233,1.);
#179=VECTOR('',#234,1.);
#180=VECTOR('',#235,1.);
#181=VECTOR('',#236,1.);
#182=VECTOR('',#237,1.);
#183=VECTOR('',#238,1.);
#184=VECTOR('',#239,1.);
#185=VECTOR('',#240,1.);
#186=VECTOR('',#241,1.);
#187=VECTOR('',#242,1.);
#188=VECTOR('',#243,1.);
#189=VECTOR('',#244,1.);
#190=VECTOR('',#245,1.);
#191=VECTOR('',#246,1.);
#192=VECTOR('',#247,1.);
#193=VECTOR('',#248,1.);
#194=VECTOR('',#249,1.);
#195=VECTOR('',#250,1.);
#196=VECTOR('',#251,1.);
#197=VECTOR('',#252,1.);
#198=VECTOR('',#253,1.);
#199=VECTOR('',#254,1.);
#200=VECTOR('',#255,1.);
#201=VERTEX_POINT('',#277);
#202=VERTEX_POINT('',#278);
#203=VERTEX_POINT('',#279);
#204=VERTEX_POINT('',#280);
#205=VERTEX_POINT('',#281);
#206=VERTEX_POINT('',#282);
#207=VERTEX_POINT('',#283);
#208=VERTEX_POINT('',#284);
#209=VERTEX_POINT('',#285);
#210=VERTEX_POINT('',#286);
#211=VERTEX_POINT('',#287);
#212=VERTEX_POINT('',#288);
#213=VERTEX_POINT('',#289);
#214=VERTEX_POINT('',#290);
#215=VERTEX_POINT('',#291);
#216=VERTEX_POINT('',#292);
#217=SHAPE_DEFINITION_REPRESENTATION(#327,#218);
#218=SHAPE_REPRESENTATION('master',(#219),#329);
#219=AXIS2_PLACEMENT_3D('',#276,#231,#230);
#220=AXIS2_PLACEMENT_3D('',#317,#257,#256);
#221=AXIS2_PLACEMENT_3D('',#318,#259,#258);
#222=AXIS2_PLACEMENT_3D('',#319,#261,#260);
#223=AXIS2_PLACEMENT_3D('',#320,#263,#262);
#224=AXIS2_PLACEMENT_3D('',#321,#265,#264);
#225=AXIS2_PLACEMENT_3D('',#322,#267,#266);
#226=AXIS2_PLACEMENT_3D('',#323,#269,#268);
#227=AXIS2_PLACEMENT_3D('',#324,#271,#270);
#228=AXIS2_PLACEMENT_3D('',#325,#273,#272);
#229=AXIS2_PLACEMENT_3D('',#326,#275,#274);
#230=DIRECTION('',(1.,0.,0.));
#231=DIRECTION('',(0.,0.,1.));
#232=DIRECTION('',(0.,-1.,0.));
#233=DIRECTION('',(0.,-1.,0.));
#234=DIRECTION('',(0.,-1.,0.));
#235=DIRECTION('',(0.,-1.,0.));
#236=DIRECTION('',(0.,-1.,0.));
#237=DIRECTION('',(0.,-1.,0.));
#238=DIRECTION('',(0.,-1.,0.));
#239=DIRECTION('',(0.,-1.,0.));
#240=DIRECTION('',(1.,0.,0.));
#241=DIRECTION('',(-0.,-0.,1.));
#242=DIRECTION('',(-1.,0.,0.));
#243=DIRECTION('',(-0.696499749136679,-0.,-0.717557035679076));
#244=DIRECTION('',(-1.,0.,0.));
#245=DIRECTION('',(0.,0.,-1.));
#246=DIRECTION('',(1.,-0.,-0.));
#247=DIRECTION('',(0.696615557524889,-0.,0.717444607627856));
#248=DIRECTION('',(1.,0.,0.));
#249=DIRECTION('',(-0.,-0.,1.));
#250=DIRECTION('',(-1.,0.,0.));
#251=DIRECTION('',(-0.696499749136679,-0.,-0.717557035679076));
#252=DIRECTION('',(-1.,0.,0.));
#253=DIRECTION('',(0.,0.,-1.));
#254=DIRECTION('',(1.,-0.,-0.));
#255=DIRECTION('',(0.696615557524889,-0.,0.717444607627856));
#256=DIRECTION('',(-0.696615557524889,0.,-0.717444607627856));
#257=DIRECTION('',(0.717444607627856,0.,-0.696615557524889));
#258=DIRECTION('',(-1.,0.,0.));
#259=DIRECTION('',(-0.,-0.,-1.));
#260=DIRECTION('',(-0.,0.,1.));
#261=DIRECTION('',(-1.,-0.,-0.));
#262=DIRECTION('',(1.,0.,-0.));
#263=DIRECTION('',(0.,0.,1.));
#264=DIRECTION('',(0.696499749136679,0.,0.717557035679076));
#265=DIRECTION('',(-0.717557035679076,0.,0.696499749136679));
#266=DIRECTION('',(1.,0.,-0.));
#267=DIRECTION('',(0.,0.,1.));
#268=DIRECTION('',(0.,0.,-1.));
#269=DIRECTION('',(1.,0.,0.));
#270=DIRECTION('',(-1.,0.,0.));
#271=DIRECTION('',(0.,0.,-1.));
#272=DIRECTION('',(0.,-0.,1.));
#273=DIRECTION('',(0.,1.,0.));
#274=DIRECTION('',(0.,-0.,1.));
#275=DIRECTION('',(0.,1.,0.));
#276=CARTESIAN_POINT('',(0.,0.,0.));
#277=CARTESIAN_POINT('',(129.391114,2168.281361,2216.301732));
#278=CARTESIAN_POINT('',(103.080454,2168.281361,2216.301732));
#279=CARTESIAN_POINT('',(103.080454,2168.281361,2198.762956));
#280=CARTESIAN_POINT('',(131.942642319896,2168.281361,2198.762956));
#281=CARTESIAN_POINT('',(170.947365,2168.281361,2238.946909));
#282=CARTESIAN_POINT('',(180.947365,2168.281361,2238.946909));
#283=CARTESIAN_POINT('',(180.947365,2168.281361,2249.5));
#284=CARTESIAN_POINT('',(161.625560709615,2168.281361,2249.5));
#285=CARTESIAN_POINT('',(129.391114,168.281361,2216.301732));
#286=CARTESIAN_POINT('',(103.080454,168.281361,2216.301732));
#287=CARTESIAN_POINT('',(103.080454,168.281361,2198.762956));
#288=CARTESIAN_POINT('',(131.942642319896,168.281361,2198.762956));
#289=CARTESIAN_POINT('',(170.947365,168.281361,2238.946909));
#290=CARTESIAN_POINT('',(180.947365,168.281361,2238.946909));
#291=CARTESIAN_POINT('',(180.947365,168.281361,2249.5));
#292=CARTESIAN_POINT('',(161.625560709615,168.281361,2249.5));
#293=CARTESIAN_POINT('',(161.625560709615,2168.281361,2249.5));
#294=CARTESIAN_POINT('',(180.947365,2168.281361,2249.5));
#295=CARTESIAN_POINT('',(180.947365,2168.281361,2238.946909));
#296=CARTESIAN_POINT('',(170.947365,2168.281361,2238.946909));
#297=CARTESIAN_POINT('',(131.942642319896,2168.281361,2198.762956));
#298=CARTESIAN_POINT('',(103.080454,2168.281361,2198.762956));
#299=CARTESIAN_POINT('',(103.080454,2168.281361,2216.301732));
#300=CARTESIAN_POINT('',(129.391114,2168.281361,2216.301732));
#301=CARTESIAN_POINT('',(103.080454,2168.281361,2216.301732));
#302=CARTESIAN_POINT('',(103.080454,2168.281361,2198.762956));
#303=CARTESIAN_POINT('',(131.942642319896,2168.281361,2198.762956));
#304=CARTESIAN_POINT('',(170.947365,2168.281361,2238.946909));
#305=CARTESIAN_POINT('',(180.947365,2168.281361,2238.946909));
#306=CARTESIAN_POINT('',(180.947365,2168.281361,2249.5));
#307=CARTESIAN_POINT('',(161.625560709615,2168.281361,2249.5));
#308=CARTESIAN_POINT('',(129.391114,2168.281361,2216.301732));
#309=CARTESIAN_POINT('',(103.080454,168.281361,2216.301732));
#310=CARTESIAN_POINT('',(103.080454,168.281361,2198.762956));
#311=CARTESIAN_POINT('',(131.942642319896,168.281361,2198.762956));
#312=CARTESIAN_POINT('',(170.947365,168.281361,2238.946909));
#313=CARTESIAN_POINT('',(180.947365,168.281361,2238.946909));
#314=CARTESIAN_POINT('',(180.947365,168.281361,2249.5));
#315=CARTESIAN_POINT('',(161.625560709615,168.281361,2249.5));
#316=CARTESIAN_POINT('',(129.391114,168.281361,2216.301732));
#317=CARTESIAN_POINT('',(129.391114,2168.281361,2216.301732));
#318=CARTESIAN_POINT('',(161.625560709615,2168.281361,2249.5));
#319=CARTESIAN_POINT('',(180.947365,2168.281361,2249.5));
#320=CARTESIAN_POINT('',(180.947365,2168.281361,2238.946909));
#321=CARTESIAN_POINT('',(170.947365,2168.281361,2238.946909));
#322=CARTESIAN_POINT('',(131.942642319896,2168.281361,2198.762956));
#323=CARTESIAN_POINT('',(103.080454,2168.281361,2198.762956));
#324=CARTESIAN_POINT('',(103.080454,2168.281361,2216.301732));
#325=CARTESIAN_POINT('',(0.,2168.281361,0.));
#326=CARTESIAN_POINT('',(0.,168.281361,0.));
#327=PRODUCT_DEFINITION_SHAPE('','',#328);
#328=PRODUCT_DEFINITION('','',#340,#345);
#329=(
GEOMETRIC_REPRESENTATION_CONTEXT(3)
GLOBAL_UNCERTAINTY_ASSIGNED_CONTEXT((#330))
GLOBAL_UNIT_ASSIGNED_CONTEXT((#332,#331,#335))
REPRESENTATION_CONTEXT('','')
);
#330=UNCERTAINTY_MEASURE_WITH_UNIT(LENGTH_MEASURE(0.001),#332,'','tolerance');
#331=(
CONVERSION_BASED_UNIT('',#333)
NAMED_UNIT(#339)
PLANE_ANGLE_UNIT()
);
#332=(
CONVERSION_BASED_UNIT('',#334)
LENGTH_UNIT()
NAMED_UNIT(#338)
);
#333=PLANE_ANGLE_MEASURE_WITH_UNIT(PLANE_ANGLE_MEASURE(0.0174532925199433),
#336);
#334=LENGTH_MEASURE_WITH_UNIT(LENGTH_MEASURE(1.),#337);
#335=(
NAMED_UNIT(*)
SI_UNIT($,.STERADIAN.)
SOLID_ANGLE_UNIT()
);
#336=(
NAMED_UNIT(*)
PLANE_ANGLE_UNIT()
SI_UNIT($,.RADIAN.)
);
#337=(
LENGTH_UNIT()
NAMED_UNIT(*)
SI_UNIT(.MILLI.,.METRE.)
);
#338=DIMENSIONAL_EXPONENTS(1.,0.,0.,0.,0.,0.,0.);
#339=DIMENSIONAL_EXPONENTS(0.,0.,0.,0.,0.,0.,0.);
#340=PRODUCT_DEFINITION_FORMATION_WITH_SPECIFIED_SOURCE('','',#343,.NOT_KNOWN.
);
#341=PRODUCT_CATEGORY_RELATIONSHIP('','',#346,#342);
#342=PRODUCT_RELATED_PRODUCT_CATEGORY('assembly','',(#343));
#343=PRODUCT('','master','',(#344));
#344=PRODUCT_CONTEXT('',#348,'');
#345=PRODUCT_DEFINITION_CONTEXT('',#348,'part_definition');
#346=PRODUCT_CATEGORY('part','');
#347=APPLICATION_PROTOCOL_DEFINITION('international standard',
'automotive_design_cc2',1994,#348);
#348=APPLICATION_CONTEXT(
'configuration controlled 3D designs of mechanical parts and assemblies');
ENDSEC;
END-ISO-10303-21;
14763