ISO-10303-21;
HEADER;
/* Generated by software using Delcam plc STEP library */

FILE_DESCRIPTION(
/* description */ ('AP-214 File'),
/* implementation_level */ '2;1');

FILE_NAME(
/* name */ 'D709',
/* time_stamp */ 'Mon Dec 26 15:30:35 2016',
/* author */ (''),
/* organization */ (''),
/* preprocessor_version */ 'DELCAM STEP V1',
/* originating_system */ 'Exchange7.1.0006',
/* authorisation */ '');

FILE_SCHEMA (('AUTOMOTIVE_DESIGN'));
ENDSEC;
DATA;
#10=PRESENTATION_STYLE_ASSIGNMENT((#20));
#11=PRESENTATION_STYLE_ASSIGNMENT((#21));
#12=SURFACE_SIDE_STYLE('',(#14));
#13=SURFACE_SIDE_STYLE('',(#15));
#14=SURFACE_STYLE_FILL_AREA(#16);
#15=SURFACE_STYLE_FILL_AREA(#17);
#16=FILL_AREA_STYLE('',(#18));
#17=FILL_AREA_STYLE('',(#19));
#18=FILL_AREA_STYLE_COLOUR('',#41);
#19=FILL_AREA_STYLE_COLOUR('',#42);
#20=SURFACE_STYLE_USAGE(.BOTH.,#12);
#21=SURFACE_STYLE_USAGE(.BOTH.,#13);
#22=STYLED_ITEM('',(#10),#59);
#23=STYLED_ITEM('',(#10),#60);
#24=STYLED_ITEM('',(#10),#61);
#25=STYLED_ITEM('',(#10),#62);
#26=STYLED_ITEM('',(#10),#63);
#27=STYLED_ITEM('',(#10),#64);
#28=STYLED_ITEM('',(#10),#65);
#29=STYLED_ITEM('',(#10),#66);
#30=STYLED_ITEM('',(#10),#67);
#31=STYLED_ITEM('',(#10),#68);
#32=STYLED_ITEM('',(#10),#69);
#33=STYLED_ITEM('',(#10),#70);
#34=STYLED_ITEM('',(#10),#71);
#35=STYLED_ITEM('',(#10),#72);
#36=STYLED_ITEM('',(#10),#73);
#37=STYLED_ITEM('',(#10),#74);
#38=STYLED_ITEM('',(#10),#75);
#39=STYLED_ITEM('',(#10),#76);
#40=STYLED_ITEM('',(#11),#48);
#41=COLOUR_RGB('',0.,0.,0.);
#42=COLOUR_RGB('rgb_colour_1',0.4,0.4,0.4);
#43=MECHANICAL_DESIGN_GEOMETRIC_PRESENTATION_REPRESENTATION('',(#22,#23,#24,
#25,#26,#27,#28,#29,#30,#31,#32,#33,#34,#35,#36,#37,#38,#39,#40),#621);
#44=PRESENTATION_LAYER_ASSIGNMENT('109','D708',(#59,#60,#61,#62,#63,#64,#65,
#66,#67,#68,#69,#70,#71,#72,#73,#74,#75,#76,#48));
#45=SHAPE_REPRESENTATION_RELATIONSHIP('','',#374,#46);
#46=ADVANCED_BREP_SHAPE_REPRESENTATION('',(#47),#621);
#47=MANIFOLD_SOLID_BREP('7544',#48);
#48=CLOSED_SHELL('',(#59,#60,#61,#62,#63,#64,#65,#66,#67,#68,#69,#70,#71,#72,
#73,#74,#75,#76));
#49=CYLINDRICAL_SURFACE('',#399,71.4398514111168);
#50=CYLINDRICAL_SURFACE('',#400,31.9969810006111);
#51=CYLINDRICAL_SURFACE('',#401,50.5427008625995);
#52=CYLINDRICAL_SURFACE('',#403,106.752639647929);
#53=CYLINDRICAL_SURFACE('',#404,54.545102142541);
#54=CYLINDRICAL_SURFACE('',#405,64.3763816698854);
#55=CYLINDRICAL_SURFACE('',#407,256.299651544759);
#56=CYLINDRICAL_SURFACE('',#408,54.7252402434086);
#57=CYLINDRICAL_SURFACE('',#409,38.9042313956373);
#58=CYLINDRICAL_SURFACE('',#410,145.583720994321);
#59=ADVANCED_FACE('',(#77),#209,.T.);
#60=ADVANCED_FACE('',(#78),#210,.T.);
#61=ADVANCED_FACE('',(#79),#211,.T.);
#62=ADVANCED_FACE('',(#80),#49,.T.);
#63=ADVANCED_FACE('',(#81),#50,.T.);
#64=ADVANCED_FACE('',(#82),#51,.F.);
#65=ADVANCED_FACE('',(#83),#212,.T.);
#66=ADVANCED_FACE('',(#84),#52,.T.);
#67=ADVANCED_FACE('',(#85),#53,.T.);
#68=ADVANCED_FACE('',(#86),#54,.T.);
#69=ADVANCED_FACE('',(#87),#213,.T.);
#70=ADVANCED_FACE('',(#88),#55,.F.);
#71=ADVANCED_FACE('',(#89),#56,.F.);
#72=ADVANCED_FACE('',(#90),#57,.F.);
#73=ADVANCED_FACE('',(#91),#58,.F.);
#74=ADVANCED_FACE('',(#92),#214,.T.);
#75=ADVANCED_FACE('',(#93),#215,.F.);
#76=ADVANCED_FACE('',(#94),#216,.T.);
#77=FACE_OUTER_BOUND('',#95,.T.);
#78=FACE_OUTER_BOUND('',#96,.T.);
#79=FACE_OUTER_BOUND('',#97,.T.);
#80=FACE_OUTER_BOUND('',#98,.T.);
#81=FACE_OUTER_BOUND('',#99,.T.);
#82=FACE_OUTER_BOUND('',#100,.T.);
#83=FACE_OUTER_BOUND('',#101,.T.);
#84=FACE_OUTER_BOUND('',#102,.T.);
#85=FACE_OUTER_BOUND('',#103,.T.);
#86=FACE_OUTER_BOUND('',#104,.T.);
#87=FACE_OUTER_BOUND('',#105,.T.);
#88=FACE_OUTER_BOUND('',#106,.T.);
#89=FACE_OUTER_BOUND('',#107,.T.);
#90=FACE_OUTER_BOUND('',#108,.T.);
#91=FACE_OUTER_BOUND('',#109,.T.);
#92=FACE_OUTER_BOUND('',#110,.T.);
#93=FACE_OUTER_BOUND('',#111,.T.);
#94=FACE_OUTER_BOUND('',#112,.T.);
#95=EDGE_LOOP('',(#113,#114,#115,#116));
#96=EDGE_LOOP('',(#117,#118,#119,#120));
#97=EDGE_LOOP('',(#121,#122,#123,#124));
#98=EDGE_LOOP('',(#125,#126,#127,#128));
#99=EDGE_LOOP('',(#129,#130,#131,#132));
#100=EDGE_LOOP('',(#133,#134,#135,#136));
#101=EDGE_LOOP('',(#137,#138,#139,#140));
#102=EDGE_LOOP('',(#141,#142,#143,#144));
#103=EDGE_LOOP('',(#145,#146,#147,#148));
#104=EDGE_LOOP('',(#149,#150,#151,#152));
#105=EDGE_LOOP('',(#153,#154,#155,#156));
#106=EDGE_LOOP('',(#157,#158,#159,#160));
#107=EDGE_LOOP('',(#161,#162,#163,#164));
#108=EDGE_LOOP('',(#165,#166,#167,#168));
#109=EDGE_LOOP('',(#169,#170,#171,#172));
#110=EDGE_LOOP('',(#173,#174,#175,#176));
#111=EDGE_LOOP('',(#177,#178,#179,#180,#181,#182,#183,#184,#185,#186,#187,#188
,#189,#190,#191,#192));
#112=EDGE_LOOP('',(#193,#194,#195,#196,#197,#198,#199,#200,#201,#202,#203,#204
,#205,#206,#207,#208));
#113=ORIENTED_EDGE('',*,*,#284,.F.);
#114=ORIENTED_EDGE('',*,*,#252,.F.);
#115=ORIENTED_EDGE('',*,*,#268,.T.);
#116=ORIENTED_EDGE('',*,*,#237,.T.);
#117=ORIENTED_EDGE('',*,*,#283,.F.);
#118=ORIENTED_EDGE('',*,*,#237,.F.);
#119=ORIENTED_EDGE('',*,*,#267,.T.);
#120=ORIENTED_EDGE('',*,*,#238,.T.);
#121=ORIENTED_EDGE('',*,*,#282,.F.);
#122=ORIENTED_EDGE('',*,*,#238,.F.);
#123=ORIENTED_EDGE('',*,*,#266,.T.);
#124=ORIENTED_EDGE('',*,*,#239,.T.);
#125=ORIENTED_EDGE('',*,*,#281,.F.);
#126=ORIENTED_EDGE('',*,*,#239,.F.);
#127=ORIENTED_EDGE('',*,*,#265,.T.);
#128=ORIENTED_EDGE('',*,*,#240,.T.);
#129=ORIENTED_EDGE('',*,*,#280,.F.);
#130=ORIENTED_EDGE('',*,*,#240,.F.);
#131=ORIENTED_EDGE('',*,*,#264,.T.);
#132=ORIENTED_EDGE('',*,*,#241,.T.);
#133=ORIENTED_EDGE('',*,*,#279,.F.);
#134=ORIENTED_EDGE('',*,*,#241,.F.);
#135=ORIENTED_EDGE('',*,*,#263,.T.);
#136=ORIENTED_EDGE('',*,*,#242,.T.);
#137=ORIENTED_EDGE('',*,*,#278,.F.);
#138=ORIENTED_EDGE('',*,*,#242,.F.);
#139=ORIENTED_EDGE('',*,*,#262,.T.);
#140=ORIENTED_EDGE('',*,*,#243,.T.);
#141=ORIENTED_EDGE('',*,*,#277,.F.);
#142=ORIENTED_EDGE('',*,*,#243,.F.);
#143=ORIENTED_EDGE('',*,*,#261,.T.);
#144=ORIENTED_EDGE('',*,*,#244,.T.);
#145=ORIENTED_EDGE('',*,*,#276,.F.);
#146=ORIENTED_EDGE('',*,*,#244,.F.);
#147=ORIENTED_EDGE('',*,*,#260,.T.);
#148=ORIENTED_EDGE('',*,*,#245,.T.);
#149=ORIENTED_EDGE('',*,*,#275,.F.);
#150=ORIENTED_EDGE('',*,*,#245,.F.);
#151=ORIENTED_EDGE('',*,*,#259,.T.);
#152=ORIENTED_EDGE('',*,*,#246,.T.);
#153=ORIENTED_EDGE('',*,*,#274,.F.);
#154=ORIENTED_EDGE('',*,*,#246,.F.);
#155=ORIENTED_EDGE('',*,*,#258,.T.);
#156=ORIENTED_EDGE('',*,*,#247,.T.);
#157=ORIENTED_EDGE('',*,*,#273,.F.);
#158=ORIENTED_EDGE('',*,*,#247,.F.);
#159=ORIENTED_EDGE('',*,*,#257,.T.);
#160=ORIENTED_EDGE('',*,*,#248,.T.);
#161=ORIENTED_EDGE('',*,*,#272,.F.);
#162=ORIENTED_EDGE('',*,*,#248,.F.);
#163=ORIENTED_EDGE('',*,*,#256,.T.);
#164=ORIENTED_EDGE('',*,*,#249,.T.);
#165=ORIENTED_EDGE('',*,*,#271,.F.);
#166=ORIENTED_EDGE('',*,*,#249,.F.);
#167=ORIENTED_EDGE('',*,*,#255,.T.);
#168=ORIENTED_EDGE('',*,*,#250,.T.);
#169=ORIENTED_EDGE('',*,*,#270,.F.);
#170=ORIENTED_EDGE('',*,*,#250,.F.);
#171=ORIENTED_EDGE('',*,*,#254,.T.);
#172=ORIENTED_EDGE('',*,*,#251,.T.);
#173=ORIENTED_EDGE('',*,*,#269,.F.);
#174=ORIENTED_EDGE('',*,*,#251,.F.);
#175=ORIENTED_EDGE('',*,*,#253,.T.);
#176=ORIENTED_EDGE('',*,*,#252,.T.);
#177=ORIENTED_EDGE('',*,*,#268,.F.);
#178=ORIENTED_EDGE('',*,*,#253,.F.);
#179=ORIENTED_EDGE('',*,*,#254,.F.);
#180=ORIENTED_EDGE('',*,*,#255,.F.);
#181=ORIENTED_EDGE('',*,*,#256,.F.);
#182=ORIENTED_EDGE('',*,*,#257,.F.);
#183=ORIENTED_EDGE('',*,*,#258,.F.);
#184=ORIENTED_EDGE('',*,*,#259,.F.);
#185=ORIENTED_EDGE('',*,*,#260,.F.);
#186=ORIENTED_EDGE('',*,*,#261,.F.);
#187=ORIENTED_EDGE('',*,*,#262,.F.);
#188=ORIENTED_EDGE('',*,*,#263,.F.);
#189=ORIENTED_EDGE('',*,*,#264,.F.);
#190=ORIENTED_EDGE('',*,*,#265,.F.);
#191=ORIENTED_EDGE('',*,*,#266,.F.);
#192=ORIENTED_EDGE('',*,*,#267,.F.);
#193=ORIENTED_EDGE('',*,*,#284,.T.);
#194=ORIENTED_EDGE('',*,*,#283,.T.);
#195=ORIENTED_EDGE('',*,*,#282,.T.);
#196=ORIENTED_EDGE('',*,*,#281,.T.);
#197=ORIENTED_EDGE('',*,*,#280,.T.);
#198=ORIENTED_EDGE('',*,*,#279,.T.);
#199=ORIENTED_EDGE('',*,*,#278,.T.);
#200=ORIENTED_EDGE('',*,*,#277,.T.);
#201=ORIENTED_EDGE('',*,*,#276,.T.);
#202=ORIENTED_EDGE('',*,*,#275,.T.);
#203=ORIENTED_EDGE('',*,*,#274,.T.);
#204=ORIENTED_EDGE('',*,*,#273,.T.);
#205=ORIENTED_EDGE('',*,*,#272,.T.);
#206=ORIENTED_EDGE('',*,*,#271,.T.);
#207=ORIENTED_EDGE('',*,*,#270,.T.);
#208=ORIENTED_EDGE('',*,*,#269,.T.);
#209=PLANE('',#396);
#210=PLANE('',#397);
#211=PLANE('',#398);
#212=PLANE('',#402);
#213=PLANE('',#406);
#214=PLANE('',#411);
#215=PLANE('',#412);
#216=PLANE('',#413);
#217=CIRCLE('',#376,145.583720994321);
#218=CIRCLE('',#377,38.9042313956373);
#219=CIRCLE('',#378,54.7252402434086);
#220=CIRCLE('',#379,256.299651544759);
#221=CIRCLE('',#380,64.3763816698854);
#222=CIRCLE('',#381,54.545102142541);
#223=CIRCLE('',#382,106.752639647929);
#224=CIRCLE('',#383,50.5427008625995);
#225=CIRCLE('',#384,31.9969810006111);
#226=CIRCLE('',#385,71.4398514111168);
#227=CIRCLE('',#386,145.583720994321);
#228=CIRCLE('',#387,38.9042313956373);
#229=CIRCLE('',#388,54.7252402434086);
#230=CIRCLE('',#389,256.299651544759);
#231=CIRCLE('',#390,64.3763816698854);
#232=CIRCLE('',#391,54.545102142541);
#233=CIRCLE('',#392,106.752639647929);
#234=CIRCLE('',#393,50.5427008625995);
#235=CIRCLE('',#394,31.9969810006111);
#236=CIRCLE('',#395,71.4398514111168);
#237=EDGE_CURVE('',#356,#372,#285,.T.);
#238=EDGE_CURVE('',#355,#371,#286,.T.);
#239=EDGE_CURVE('',#354,#370,#287,.T.);
#240=EDGE_CURVE('',#353,#369,#288,.T.);
#241=EDGE_CURVE('',#352,#368,#289,.T.);
#242=EDGE_CURVE('',#351,#367,#290,.T.);
#243=EDGE_CURVE('',#350,#366,#291,.T.);
#244=EDGE_CURVE('',#349,#365,#292,.T.);
#245=EDGE_CURVE('',#348,#364,#293,.T.);
#246=EDGE_CURVE('',#347,#363,#294,.T.);
#247=EDGE_CURVE('',#346,#362,#295,.T.);
#248=EDGE_CURVE('',#345,#361,#296,.T.);
#249=EDGE_CURVE('',#344,#360,#297,.T.);
#250=EDGE_CURVE('',#343,#359,#298,.T.);
#251=EDGE_CURVE('',#342,#358,#299,.T.);
#252=EDGE_CURVE('',#341,#357,#300,.T.);
#253=EDGE_CURVE('',#342,#341,#301,.T.);
#254=EDGE_CURVE('',#343,#342,#217,.T.);
#255=EDGE_CURVE('',#344,#343,#218,.T.);
#256=EDGE_CURVE('',#345,#344,#219,.T.);
#257=EDGE_CURVE('',#346,#345,#220,.T.);
#258=EDGE_CURVE('',#347,#346,#302,.T.);
#259=EDGE_CURVE('',#348,#347,#221,.T.);
#260=EDGE_CURVE('',#349,#348,#222,.T.);
#261=EDGE_CURVE('',#350,#349,#223,.T.);
#262=EDGE_CURVE('',#351,#350,#303,.T.);
#263=EDGE_CURVE('',#352,#351,#224,.T.);
#264=EDGE_CURVE('',#353,#352,#225,.T.);
#265=EDGE_CURVE('',#354,#353,#226,.T.);
#266=EDGE_CURVE('',#355,#354,#304,.T.);
#267=EDGE_CURVE('',#356,#355,#305,.T.);
#268=EDGE_CURVE('',#341,#356,#306,.T.);
#269=EDGE_CURVE('',#358,#357,#307,.T.);
#270=EDGE_CURVE('',#359,#358,#227,.T.);
#271=EDGE_CURVE('',#360,#359,#228,.T.);
#272=EDGE_CURVE('',#361,#360,#229,.T.);
#273=EDGE_CURVE('',#362,#361,#230,.T.);
#274=EDGE_CURVE('',#363,#362,#308,.T.);
#275=EDGE_CURVE('',#364,#363,#231,.T.);
#276=EDGE_CURVE('',#365,#364,#232,.T.);
#277=EDGE_CURVE('',#366,#365,#233,.T.);
#278=EDGE_CURVE('',#367,#366,#309,.T.);
#279=EDGE_CURVE('',#368,#367,#234,.T.);
#280=EDGE_CURVE('',#369,#368,#235,.T.);
#281=EDGE_CURVE('',#370,#369,#236,.T.);
#282=EDGE_CURVE('',#371,#370,#310,.T.);
#283=EDGE_CURVE('',#372,#371,#311,.T.);
#284=EDGE_CURVE('',#357,#372,#312,.T.);
#285=LINE('',#553,#313);
#286=LINE('',#554,#314);
#287=LINE('',#555,#315);
#288=LINE('',#556,#316);
#289=LINE('',#557,#317);
#290=LINE('',#558,#318);
#291=LINE('',#559,#319);
#292=LINE('',#560,#320);
#293=LINE('',#561,#321);
#294=LINE('',#562,#322);
#295=LINE('',#563,#323);
#296=LINE('',#564,#324);
#297=LINE('',#565,#325);
#298=LINE('',#566,#326);
#299=LINE('',#567,#327);
#300=LINE('',#568,#328);
#301=LINE('',#569,#329);
#302=LINE('',#574,#330);
#303=LINE('',#578,#331);
#304=LINE('',#582,#332);
#305=LINE('',#583,#333);
#306=LINE('',#584,#334);
#307=LINE('',#585,#335);
#308=LINE('',#590,#336);
#309=LINE('',#594,#337);
#310=LINE('',#598,#338);
#311=LINE('',#599,#339);
#312=LINE('',#600,#340);
#313=VECTOR('',#416,1.);
#314=VECTOR('',#417,1.);
#315=VECTOR('',#418,1.);
#316=VECTOR('',#419,1.);
#317=VECTOR('',#420,1.);
#318=VECTOR('',#421,1.);
#319=VECTOR('',#422,1.);
#320=VECTOR('',#423,1.);
#321=VECTOR('',#424,1.);
#322=VECTOR('',#425,1.);
#323=VECTOR('',#426,1.);
#324=VECTOR('',#427,1.);
#325=VECTOR('',#428,1.);
#326=VECTOR('',#429,1.);
#327=VECTOR('',#430,1.);
#328=VECTOR('',#431,1.);
#329=VECTOR('',#432,1.);
#330=VECTOR('',#441,1.);
#331=VECTOR('',#448,1.);
#332=VECTOR('',#455,1.);
#333=VECTOR('',#456,1.);
#334=VECTOR('',#457,1.);
#335=VECTOR('',#458,1.);
#336=VECTOR('',#467,1.);
#337=VECTOR('',#474,1.);
#338=VECTOR('',#481,1.);
#339=VECTOR('',#482,1.);
#340=VECTOR('',#483,1.);
#341=VERTEX_POINT('',#521);
#342=VERTEX_POINT('',#522);
#343=VERTEX_POINT('',#523);
#344=VERTEX_POINT('',#524);
#345=VERTEX_POINT('',#525);
#346=VERTEX_POINT('',#526);
#347=VERTEX_POINT('',#527);
#348=VERTEX_POINT('',#528);
#349=VERTEX_POINT('',#529);
#350=VERTEX_POINT('',#530);
#351=VERTEX_POINT('',#531);
#352=VERTEX_POINT('',#532);
#353=VERTEX_POINT('',#533);
#354=VERTEX_POINT('',#534);
#355=VERTEX_POINT('',#535);
#356=VERTEX_POINT('',#536);
#357=VERTEX_POINT('',#537);
#358=VERTEX_POINT('',#538);
#359=VERTEX_POINT('',#539);
#360=VERTEX_POINT('',#540);
#361=VERTEX_POINT('',#541);
#362=VERTEX_POINT('',#542);
#363=VERTEX_POINT('',#543);
#364=VERTEX_POINT('',#544);
#365=VERTEX_POINT('',#545);
#366=VERTEX_POINT('',#546);
#367=VERTEX_POINT('',#547);
#368=VERTEX_POINT('',#548);
#369=VERTEX_POINT('',#549);
#370=VERTEX_POINT('',#550);
#371=VERTEX_POINT('',#551);
#372=VERTEX_POINT('',#552);
#373=SHAPE_DEFINITION_REPRESENTATION(#619,#374);
#374=SHAPE_REPRESENTATION('master',(#375),#621);
#375=AXIS2_PLACEMENT_3D('',#520,#415,#414);
#376=AXIS2_PLACEMENT_3D('',#570,#434,#433);
#377=AXIS2_PLACEMENT_3D('',#571,#436,#435);
#378=AXIS2_PLACEMENT_3D('',#572,#438,#437);
#379=AXIS2_PLACEMENT_3D('',#573,#440,#439);
#380=AXIS2_PLACEMENT_3D('',#575,#443,#442);
#381=AXIS2_PLACEMENT_3D('',#576,#445,#444);
#382=AXIS2_PLACEMENT_3D('',#577,#447,#446);
#383=AXIS2_PLACEMENT_3D('',#579,#450,#449);
#384=AXIS2_PLACEMENT_3D('',#580,#452,#451);
#385=AXIS2_PLACEMENT_3D('',#581,#454,#453);
#386=AXIS2_PLACEMENT_3D('',#586,#460,#459);
#387=AXIS2_PLACEMENT_3D('',#587,#462,#461);
#388=AXIS2_PLACEMENT_3D('',#588,#464,#463);
#389=AXIS2_PLACEMENT_3D('',#589,#466,#465);
#390=AXIS2_PLACEMENT_3D('',#591,#469,#468);
#391=AXIS2_PLACEMENT_3D('',#592,#471,#470);
#392=AXIS2_PLACEMENT_3D('',#593,#473,#472);
#393=AXIS2_PLACEMENT_3D('',#595,#476,#475);
#394=AXIS2_PLACEMENT_3D('',#596,#478,#477);
#395=AXIS2_PLACEMENT_3D('',#597,#480,#479);
#396=AXIS2_PLACEMENT_3D('',#601,#485,#484);
#397=AXIS2_PLACEMENT_3D('',#602,#487,#486);
#398=AXIS2_PLACEMENT_3D('',#603,#489,#488);
#399=AXIS2_PLACEMENT_3D('',#604,#491,#490);
#400=AXIS2_PLACEMENT_3D('',#605,#493,#492);
#401=AXIS2_PLACEMENT_3D('',#606,#495,#494);
#402=AXIS2_PLACEMENT_3D('',#607,#497,#496);
#403=AXIS2_PLACEMENT_3D('',#608,#499,#498);
#404=AXIS2_PLACEMENT_3D('',#609,#501,#500);
#405=AXIS2_PLACEMENT_3D('',#610,#503,#502);
#406=AXIS2_PLACEMENT_3D('',#611,#505,#504);
#407=AXIS2_PLACEMENT_3D('',#612,#507,#506);
#408=AXIS2_PLACEMENT_3D('',#613,#509,#508);
#409=AXIS2_PLACEMENT_3D('',#614,#511,#510);
#410=AXIS2_PLACEMENT_3D('',#615,#513,#512);
#411=AXIS2_PLACEMENT_3D('',#616,#515,#514);
#412=AXIS2_PLACEMENT_3D('',#617,#517,#516);
#413=AXIS2_PLACEMENT_3D('',#618,#519,#518);
#414=DIRECTION('',(1.,0.,0.));
#415=DIRECTION('',(0.,0.,1.));
#416=DIRECTION('',(-0.,-1.,0.));
#417=DIRECTION('',(-0.,-1.,0.));
#418=DIRECTION('',(-0.,-1.,0.));
#419=DIRECTION('',(-0.,-1.,0.));
#420=DIRECTION('',(-0.,-1.,0.));
#421=DIRECTION('',(-0.,-1.,0.));
#422=DIRECTION('',(-0.,-1.,0.));
#423=DIRECTION('',(-0.,-1.,0.));
#424=DIRECTION('',(-0.,-1.,0.));
#425=DIRECTION('',(-0.,-1.,0.));
#426=DIRECTION('',(-0.,-1.,0.));
#427=DIRECTION('',(-0.,-1.,0.));
#428=DIRECTION('',(-0.,-1.,0.));
#429=DIRECTION('',(-0.,-1.,0.));
#430=DIRECTION('',(-0.,-1.,0.));
#431=DIRECTION('',(-0.,-1.,0.));
#432=DIRECTION('',(-0.138769344627289,0.,-0.990324729061994));
#433=DIRECTION('',(0.265796311868282,0.,-0.96402921148543));
#434=DIRECTION('',(0.,1.,0.));
#435=DIRECTION('',(0.70587646727259,0.,-0.708334958159463));
#436=DIRECTION('',(0.,1.,0.));
#437=DIRECTION('',(0.996925069982911,0.,-0.0783607353179356));
#438=DIRECTION('',(0.,1.,0.));
#439=DIRECTION('',(0.999258959909404,0.,-0.0384906617347055));
#440=DIRECTION('',(0.,1.,0.));
#441=DIRECTION('',(-1.,-0.,-0.));
#442=DIRECTION('',(0.893129247323728,0.,-0.449800119580854));
#443=DIRECTION('',(0.,-1.,0.));
#444=DIRECTION('',(0.218034233891772,0.,-0.975941121610944));
#445=DIRECTION('',(0.,-1.,0.));
#446=DIRECTION('',(0.126460116803234,0.,-0.991971692568953));
#447=DIRECTION('',(0.,-1.,0.));
#448=DIRECTION('',(6.11886989431185E-005,0.,0.999999998127971));
#449=DIRECTION('',(-0.947099922307774,0.,0.320938837108581));
#450=DIRECTION('',(0.,1.,0.));
#451=DIRECTION('',(0.237807376728147,0.,-0.971312334717148));
#452=DIRECTION('',(0.,-1.,0.));
#453=DIRECTION('',(0.1350907514661,0.,-0.990833229594327));
#454=DIRECTION('',(0.,-1.,0.));
#455=DIRECTION('',(-0.,-0.,-1.));
#456=DIRECTION('',(-1.,-0.,-0.));
#457=DIRECTION('',(-0.915126196405088,0.,-0.403167514382244));
#458=DIRECTION('',(-0.138769344627289,0.,-0.990324729061994));
#459=DIRECTION('',(0.265796311868282,0.,-0.96402921148543));
#460=DIRECTION('',(0.,1.,0.));
#461=DIRECTION('',(0.70587646727259,0.,-0.708334958159463));
#462=DIRECTION('',(0.,1.,0.));
#463=DIRECTION('',(0.996925069982911,0.,-0.0783607353179356));
#464=DIRECTION('',(0.,1.,0.));
#465=DIRECTION('',(0.999258959909404,0.,-0.0384906617347055));
#466=DIRECTION('',(0.,1.,0.));
#467=DIRECTION('',(-1.,-0.,-0.));
#468=DIRECTION('',(0.893129247323728,0.,-0.449800119580854));
#469=DIRECTION('',(0.,-1.,0.));
#470=DIRECTION('',(0.218034233891772,0.,-0.975941121610944));
#471=DIRECTION('',(0.,-1.,0.));
#472=DIRECTION('',(0.126460116803234,0.,-0.991971692568953));
#473=DIRECTION('',(0.,-1.,0.));
#474=DIRECTION('',(6.11886989431185E-005,0.,0.999999998127971));
#475=DIRECTION('',(-0.947099922307774,0.,0.320938837108581));
#476=DIRECTION('',(0.,1.,0.));
#477=DIRECTION('',(0.237807376728147,0.,-0.971312334717148));
#478=DIRECTION('',(0.,-1.,0.));
#479=DIRECTION('',(0.1350907514661,0.,-0.990833229594327));
#480=DIRECTION('',(0.,-1.,0.));
#481=DIRECTION('',(-0.,-0.,-1.));
#482=DIRECTION('',(-1.,-0.,-0.));
#483=DIRECTION('',(-0.915126196405088,0.,-0.403167514382244));
#484=DIRECTION('',(0.915126196405088,0.,0.403167514382244));
#485=DIRECTION('',(-0.403167514382244,0.,0.915126196405088));
#486=DIRECTION('',(1.,0.,0.));
#487=DIRECTION('',(-0.,0.,1.));
#488=DIRECTION('',(0.,0.,1.));
#489=DIRECTION('',(-1.,0.,0.));
#490=DIRECTION('',(0.,-0.,-1.));
#491=DIRECTION('',(-0.,-1.,0.));
#492=DIRECTION('',(0.,-0.,-1.));
#493=DIRECTION('',(-0.,-1.,0.));
#494=DIRECTION('',(0.,-0.,-1.));
#495=DIRECTION('',(-0.,-1.,0.));
#496=DIRECTION('',(-6.11886989431185E-005,0.,-0.999999998127972));
#497=DIRECTION('',(0.999999998127972,-0.,-6.11886989431185E-005));
#498=DIRECTION('',(0.,-0.,-1.));
#499=DIRECTION('',(-0.,-1.,0.));
#500=DIRECTION('',(0.,-0.,-1.));
#501=DIRECTION('',(-0.,-1.,0.));
#502=DIRECTION('',(0.,-0.,-1.));
#503=DIRECTION('',(-0.,-1.,0.));
#504=DIRECTION('',(1.,0.,0.));
#505=DIRECTION('',(-0.,0.,1.));
#506=DIRECTION('',(0.,-0.,-1.));
#507=DIRECTION('',(-0.,-1.,0.));
#508=DIRECTION('',(0.,-0.,-1.));
#509=DIRECTION('',(-0.,-1.,0.));
#510=DIRECTION('',(0.,-0.,-1.));
#511=DIRECTION('',(-0.,-1.,0.));
#512=DIRECTION('',(0.,-0.,-1.));
#513=DIRECTION('',(-0.,-1.,0.));
#514=DIRECTION('',(0.138769344627289,0.,0.990324729061994));
#515=DIRECTION('',(-0.990324729061994,0.,0.138769344627289));
#516=DIRECTION('',(0.,0.,-1.));
#517=DIRECTION('',(0.,-1.,0.));
#518=DIRECTION('',(0.,0.,-1.));
#519=DIRECTION('',(0.,-1.,0.));
#520=CARTESIAN_POINT('',(0.,0.,0.));
#521=CARTESIAN_POINT('',(158.780717,2168.281361,2179.804865));
#522=CARTESIAN_POINT('',(160.241056953573,2168.281361,2190.2265526771));
#523=CARTESIAN_POINT('',(185.677216960131,2168.281361,2194.85823494346));
#524=CARTESIAN_POINT('',(202.798197158608,2168.281361,2204.80582334139));
#525=CARTESIAN_POINT('',(218.725901864437,2168.281361,2239.28131403354));
#526=CARTESIAN_POINT('',(219.324077039342,2168.281361,2249.5));
#527=CARTESIAN_POINT('',(229.405343999999,2168.281361,2249.5));
#528=CARTESIAN_POINT('',(222.871490186196,2168.281361,2213.87706046194));
#529=CARTESIAN_POINT('',(186.04836372263,2168.281361,2185.17864576483));
#530=CARTESIAN_POINT('',(176.272585,2168.281361,2183.46734));
#531=CARTESIAN_POINT('',(176.271892792372,2168.281361,2172.15466888832));
#532=CARTESIAN_POINT('',(133.113734550959,2168.281361,2138.05309885885));
#533=CARTESIAN_POINT('',(110.418514446173,2168.281361,2117.24311041257));
#534=CARTESIAN_POINT('',(103.080454,2168.281361,2115.84854058313));
#535=CARTESIAN_POINT('',(103.080454,2168.281361,2169.588675));
#536=CARTESIAN_POINT('',(135.591589,2168.281361,2169.588675));
#537=CARTESIAN_POINT('',(158.780717,168.281361,2179.804865));
#538=CARTESIAN_POINT('',(160.241056953573,168.281361,2190.2265526771));
#539=CARTESIAN_POINT('',(185.677216960131,168.281361,2194.85823494346));
#540=CARTESIAN_POINT('',(202.798197158608,168.281361,2204.80582334139));
#541=CARTESIAN_POINT('',(218.725901864437,168.281361,2239.28131403354));
#542=CARTESIAN_POINT('',(219.324077039342,168.281361,2249.5));
#543=CARTESIAN_POINT('',(229.405343999999,168.281361,2249.5));
#544=CARTESIAN_POINT('',(222.871490186196,168.281361,2213.87706046194));
#545=CARTESIAN_POINT('',(186.04836372263,168.281361,2185.17864576483));
#546=CARTESIAN_POINT('',(176.272585,168.281361,2183.46734));
#547=CARTESIAN_POINT('',(176.271892792372,168.281361,2172.15466888832));
#548=CARTESIAN_POINT('',(133.113734550959,168.281361,2138.05309885885));
#549=CARTESIAN_POINT('',(110.418514446173,168.281361,2117.24311041257));
#550=CARTESIAN_POINT('',(103.080454,168.281361,2115.84854058313));
#551=CARTESIAN_POINT('',(103.080454,168.281361,2169.588675));
#552=CARTESIAN_POINT('',(135.591589,168.281361,2169.588675));
#553=CARTESIAN_POINT('',(135.591589,2168.281361,2169.588675));
#554=CARTESIAN_POINT('',(103.080454,2168.281361,2169.588675));
#555=CARTESIAN_POINT('',(103.080454,2168.281361,2115.84854058313));
#556=CARTESIAN_POINT('',(110.418514446173,2168.281361,2117.24311041257));
#557=CARTESIAN_POINT('',(133.113734550959,2168.281361,2138.05309885885));
#558=CARTESIAN_POINT('',(176.271892792372,2168.281361,2172.15466888832));
#559=CARTESIAN_POINT('',(176.272585,2168.281361,2183.46734));
#560=CARTESIAN_POINT('',(186.04836372263,2168.281361,2185.17864576483));
#561=CARTESIAN_POINT('',(222.871490186196,2168.281361,2213.87706046194));
#562=CARTESIAN_POINT('',(229.405343999999,2168.281361,2249.5));
#563=CARTESIAN_POINT('',(219.324077039342,2168.281361,2249.5));
#564=CARTESIAN_POINT('',(218.725901864437,2168.281361,2239.28131403354));
#565=CARTESIAN_POINT('',(202.798197158608,2168.281361,2204.80582334139));
#566=CARTESIAN_POINT('',(185.677216960131,2168.281361,2194.85823494346));
#567=CARTESIAN_POINT('',(160.241056953573,2168.281361,2190.2265526771));
#568=CARTESIAN_POINT('',(158.780717,2168.281361,2179.804865));
#569=CARTESIAN_POINT('',(160.241056953573,2168.281361,2190.2265526771));
#570=CARTESIAN_POINT('',(146.981600851779,2168.281361,2335.20519469873));
#571=CARTESIAN_POINT('',(175.3366157391,2168.281361,2232.36305045924));
#572=CARTESIAN_POINT('',(164.168937904947,2168.281361,2243.56962409947));
#573=CARTESIAN_POINT('',(-36.7856461884173,2168.281361,2259.36514319033));
#574=CARTESIAN_POINT('',(229.405344,2168.281361,2249.5));
#575=CARTESIAN_POINT('',(165.375060879946,2168.281361,2242.83356463524));
#576=CARTESIAN_POINT('',(174.155664164433,2168.281361,2238.41145392821));
#577=CARTESIAN_POINT('',(162.77263372107,2168.281361,2289.36293663776));
#578=CARTESIAN_POINT('',(176.271892792372,2168.281361,2172.15466888832));
#579=CARTESIAN_POINT('',(180.982722611152,2168.281361,2121.83198321968));
#580=CARTESIAN_POINT('',(102.809396331197,2168.281361,2148.32217273217));
#581=CARTESIAN_POINT('',(93.4295907882456,2168.281361,2186.63351927855));
#582=CARTESIAN_POINT('',(103.080454,2168.281361,2169.588675));
#583=CARTESIAN_POINT('',(135.591589,2168.281361,2169.588675));
#584=CARTESIAN_POINT('',(158.780717,2168.281361,2179.804865));
#585=CARTESIAN_POINT('',(160.241056953573,168.281361,2190.2265526771));
#586=CARTESIAN_POINT('',(146.981600851779,168.281361,2335.20519469873));
#587=CARTESIAN_POINT('',(175.3366157391,168.281361,2232.36305045924));
#588=CARTESIAN_POINT('',(164.168937904947,168.281361,2243.56962409947));
#589=CARTESIAN_POINT('',(-36.7856461884173,168.281361,2259.36514319033));
#590=CARTESIAN_POINT('',(229.405344,168.281361,2249.5));
#591=CARTESIAN_POINT('',(165.375060879946,168.281361,2242.83356463524));
#592=CARTESIAN_POINT('',(174.155664164433,168.281361,2238.41145392821));
#593=CARTESIAN_POINT('',(162.77263372107,168.281361,2289.36293663776));
#594=CARTESIAN_POINT('',(176.271892792372,168.281361,2172.15466888832));
#595=CARTESIAN_POINT('',(180.982722611152,168.281361,2121.83198321968));
#596=CARTESIAN_POINT('',(102.809396331197,168.281361,2148.32217273217));
#597=CARTESIAN_POINT('',(93.4295907882456,168.281361,2186.63351927855));
#598=CARTESIAN_POINT('',(103.080454,168.281361,2169.588675));
#599=CARTESIAN_POINT('',(135.591589,168.281361,2169.588675));
#600=CARTESIAN_POINT('',(158.780717,168.281361,2179.804865));
#601=CARTESIAN_POINT('',(158.780717,2168.281361,2179.804865));
#602=CARTESIAN_POINT('',(135.591589,2168.281361,2169.588675));
#603=CARTESIAN_POINT('',(103.080454,2168.281361,2169.588675));
#604=CARTESIAN_POINT('',(93.4295907882456,2168.281361,2186.63351927855));
#605=CARTESIAN_POINT('',(102.809396331197,2168.281361,2148.32217273217));
#606=CARTESIAN_POINT('',(180.982722611152,2168.281361,2121.83198321968));
#607=CARTESIAN_POINT('',(176.271892792372,2168.281361,2172.15466888832));
#608=CARTESIAN_POINT('',(162.77263372107,2168.281361,2289.36293663776));
#609=CARTESIAN_POINT('',(174.155664164433,2168.281361,2238.41145392821));
#610=CARTESIAN_POINT('',(165.375060879946,2168.281361,2242.83356463524));
#611=CARTESIAN_POINT('',(229.405344,2168.281361,2249.5));
#612=CARTESIAN_POINT('',(-36.7856461884173,2168.281361,2259.36514319033));
#613=CARTESIAN_POINT('',(164.168937904947,2168.281361,2243.56962409947));
#614=CARTESIAN_POINT('',(175.3366157391,2168.281361,2232.36305045924));
#615=CARTESIAN_POINT('',(146.981600851779,2168.281361,2335.20519469873));
#616=CARTESIAN_POINT('',(160.241056953573,2168.281361,2190.2265526771));
#617=CARTESIAN_POINT('',(93.4295907882456,2168.281361,2186.63351927855));
#618=CARTESIAN_POINT('',(93.4295907882456,168.281361,2186.63351927855));
#619=PRODUCT_DEFINITION_SHAPE('','',#620);
#620=PRODUCT_DEFINITION('','',#632,#637);
#621=(
GEOMETRIC_REPRESENTATION_CONTEXT(3)
GLOBAL_UNCERTAINTY_ASSIGNED_CONTEXT((#622))
GLOBAL_UNIT_ASSIGNED_CONTEXT((#624,#623,#627))
REPRESENTATION_CONTEXT('','')
);
#622=UNCERTAINTY_MEASURE_WITH_UNIT(LENGTH_MEASURE(0.001),#624,'','tolerance');
#623=(
CONVERSION_BASED_UNIT('',#625)
NAMED_UNIT(#631)
PLANE_ANGLE_UNIT()
);
#624=(
CONVERSION_BASED_UNIT('',#626)
LENGTH_UNIT()
NAMED_UNIT(#630)
);
#625=PLANE_ANGLE_MEASURE_WITH_UNIT(PLANE_ANGLE_MEASURE(0.0174532925199433),
#628);
#626=LENGTH_MEASURE_WITH_UNIT(LENGTH_MEASURE(1.),#629);
#627=(
NAMED_UNIT(*)
SI_UNIT($,.STERADIAN.)
SOLID_ANGLE_UNIT()
);
#628=(
NAMED_UNIT(*)
PLANE_ANGLE_UNIT()
SI_UNIT($,.RADIAN.)
);
#629=(
LENGTH_UNIT()
NAMED_UNIT(*)
SI_UNIT(.MILLI.,.METRE.)
);
#630=DIMENSIONAL_EXPONENTS(1.,0.,0.,0.,0.,0.,0.);
#631=DIMENSIONAL_EXPONENTS(0.,0.,0.,0.,0.,0.,0.);
#632=PRODUCT_DEFINITION_FORMATION_WITH_SPECIFIED_SOURCE('','',#635,.NOT_KNOWN.
);
#633=PRODUCT_CATEGORY_RELATIONSHIP('','',#638,#634);
#634=PRODUCT_RELATED_PRODUCT_CATEGORY('assembly','',(#635));
#635=PRODUCT('','master','',(#636));
#636=PRODUCT_CONTEXT('',#640,'');
#637=PRODUCT_DEFINITION_CONTEXT('',#640,'part_definition');
#638=PRODUCT_CATEGORY('part','');
#639=APPLICATION_PROTOCOL_DEFINITION('international standard',
'automotive_design_cc2',1994,#640);
#640=APPLICATION_CONTEXT(
'configuration controlled 3D designs of mechanical parts and assemblies');
ENDSEC;
END-ISO-10303-21;
28741