ISO-10303-21;
HEADER;
/* Generated by software using Delcam plc STEP library */

FILE_DESCRIPTION(
/* description */ ('AP-214 File'),
/* implementation_level */ '2;1');

FILE_NAME(
/* name */ 'D709',
/* time_stamp */ 'Mon Dec 26 14:50:57 2016',
/* author */ (''),
/* organization */ (''),
/* preprocessor_version */ 'DELCAM STEP V1',
/* originating_system */ 'Exchange7.1.0006',
/* authorisation */ '');

FILE_SCHEMA (('AUTOMOTIVE_DESIGN'));
ENDSEC;
DATA;
#10=PRESENTATION_STYLE_ASSIGNMENT((#20));
#11=PRESENTATION_STYLE_ASSIGNMENT((#21));
#12=SURFACE_SIDE_STYLE('',(#14));
#13=SURFACE_SIDE_STYLE('',(#15));
#14=SURFACE_STYLE_FILL_AREA(#16);
#15=SURFACE_STYLE_FILL_AREA(#17);
#16=FILL_AREA_STYLE('',(#18));
#17=FILL_AREA_STYLE('',(#19));
#18=FILL_AREA_STYLE_COLOUR('',#35);
#19=FILL_AREA_STYLE_COLOUR('',#36);
#20=SURFACE_STYLE_USAGE(.BOTH.,#12);
#21=SURFACE_STYLE_USAGE(.BOTH.,#13);
#22=STYLED_ITEM('',(#10),#43);
#23=STYLED_ITEM('',(#10),#44);
#24=STYLED_ITEM('',(#10),#45);
#25=STYLED_ITEM('',(#10),#46);
#26=STYLED_ITEM('',(#10),#47);
#27=STYLED_ITEM('',(#10),#48);
#28=STYLED_ITEM('',(#10),#49);
#29=STYLED_ITEM('',(#10),#50);
#30=STYLED_ITEM('',(#10),#51);
#31=STYLED_ITEM('',(#10),#52);
#32=STYLED_ITEM('',(#10),#53);
#33=STYLED_ITEM('',(#10),#54);
#34=STYLED_ITEM('',(#11),#42);
#35=COLOUR_RGB('',0.,0.,0.);
#36=COLOUR_RGB('rgb_colour_1',0.4,0.4,0.4);
#37=MECHANICAL_DESIGN_GEOMETRIC_PRESENTATION_REPRESENTATION('',(#22,#23,#24,
#25,#26,#27,#28,#29,#30,#31,#32,#33,#34),#397);
#38=PRESENTATION_LAYER_ASSIGNMENT('127','D566',(#43,#44,#45,#46,#47,#48,#49,
#50,#51,#52,#53,#54,#42));
#39=SHAPE_REPRESENTATION_RELATIONSHIP('','',#262,#40);
#40=ADVANCED_BREP_SHAPE_REPRESENTATION('',(#41),#397);
#41=MANIFOLD_SOLID_BREP('7540',#42);
#42=CLOSED_SHELL('',(#43,#44,#45,#46,#47,#48,#49,#50,#51,#52,#53,#54));
#43=ADVANCED_FACE('',(#55),#139,.F.);
#44=ADVANCED_FACE('',(#56),#140,.F.);
#45=ADVANCED_FACE('',(#57),#141,.F.);
#46=ADVANCED_FACE('',(#58),#142,.F.);
#47=ADVANCED_FACE('',(#59),#143,.F.);
#48=ADVANCED_FACE('',(#60),#144,.F.);
#49=ADVANCED_FACE('',(#61),#145,.F.);
#50=ADVANCED_FACE('',(#62),#146,.F.);
#51=ADVANCED_FACE('',(#63),#147,.F.);
#52=ADVANCED_FACE('',(#64),#148,.F.);
#53=ADVANCED_FACE('',(#65),#149,.F.);
#54=ADVANCED_FACE('',(#66),#150,.T.);
#55=FACE_OUTER_BOUND('',#67,.T.);
#56=FACE_OUTER_BOUND('',#68,.T.);
#57=FACE_OUTER_BOUND('',#69,.T.);
#58=FACE_OUTER_BOUND('',#70,.T.);
#59=FACE_OUTER_BOUND('',#71,.T.);
#60=FACE_OUTER_BOUND('',#72,.T.);
#61=FACE_OUTER_BOUND('',#73,.T.);
#62=FACE_OUTER_BOUND('',#74,.T.);
#63=FACE_OUTER_BOUND('',#75,.T.);
#64=FACE_OUTER_BOUND('',#76,.T.);
#65=FACE_OUTER_BOUND('',#77,.T.);
#66=FACE_OUTER_BOUND('',#78,.T.);
#67=EDGE_LOOP('',(#79,#80,#81,#82));
#68=EDGE_LOOP('',(#83,#84,#85,#86));
#69=EDGE_LOOP('',(#87,#88,#89,#90));
#70=EDGE_LOOP('',(#91,#92,#93,#94));
#71=EDGE_LOOP('',(#95,#96,#97,#98));
#72=EDGE_LOOP('',(#99,#100,#101,#102));
#73=EDGE_LOOP('',(#103,#104,#105,#106));
#74=EDGE_LOOP('',(#107,#108,#109,#110));
#75=EDGE_LOOP('',(#111,#112,#113,#114));
#76=EDGE_LOOP('',(#115,#116,#117,#118));
#77=EDGE_LOOP('',(#119,#120,#121,#122,#123,#124,#125,#126,#127,#128));
#78=EDGE_LOOP('',(#129,#130,#131,#132,#133,#134,#135,#136,#137,#138));
#79=ORIENTED_EDGE('',*,*,#180,.T.);
#80=ORIENTED_EDGE('',*,*,#151,.F.);
#81=ORIENTED_EDGE('',*,*,#170,.F.);
#82=ORIENTED_EDGE('',*,*,#160,.T.);
#83=ORIENTED_EDGE('',*,*,#179,.T.);
#84=ORIENTED_EDGE('',*,*,#152,.F.);
#85=ORIENTED_EDGE('',*,*,#169,.F.);
#86=ORIENTED_EDGE('',*,*,#151,.T.);
#87=ORIENTED_EDGE('',*,*,#178,.T.);
#88=ORIENTED_EDGE('',*,*,#153,.F.);
#89=ORIENTED_EDGE('',*,*,#168,.F.);
#90=ORIENTED_EDGE('',*,*,#152,.T.);
#91=ORIENTED_EDGE('',*,*,#177,.T.);
#92=ORIENTED_EDGE('',*,*,#154,.F.);
#93=ORIENTED_EDGE('',*,*,#167,.F.);
#94=ORIENTED_EDGE('',*,*,#153,.T.);
#95=ORIENTED_EDGE('',*,*,#176,.T.);
#96=ORIENTED_EDGE('',*,*,#155,.F.);
#97=ORIENTED_EDGE('',*,*,#166,.F.);
#98=ORIENTED_EDGE('',*,*,#154,.T.);
#99=ORIENTED_EDGE('',*,*,#175,.T.);
#100=ORIENTED_EDGE('',*,*,#156,.F.);
#101=ORIENTED_EDGE('',*,*,#165,.F.);
#102=ORIENTED_EDGE('',*,*,#155,.T.);
#103=ORIENTED_EDGE('',*,*,#174,.T.);
#104=ORIENTED_EDGE('',*,*,#157,.F.);
#105=ORIENTED_EDGE('',*,*,#164,.F.);
#106=ORIENTED_EDGE('',*,*,#156,.T.);
#107=ORIENTED_EDGE('',*,*,#173,.T.);
#108=ORIENTED_EDGE('',*,*,#158,.F.);
#109=ORIENTED_EDGE('',*,*,#163,.F.);
#110=ORIENTED_EDGE('',*,*,#157,.T.);
#111=ORIENTED_EDGE('',*,*,#172,.T.);
#112=ORIENTED_EDGE('',*,*,#159,.F.);
#113=ORIENTED_EDGE('',*,*,#162,.F.);
#114=ORIENTED_EDGE('',*,*,#158,.T.);
#115=ORIENTED_EDGE('',*,*,#171,.T.);
#116=ORIENTED_EDGE('',*,*,#160,.F.);
#117=ORIENTED_EDGE('',*,*,#161,.F.);
#118=ORIENTED_EDGE('',*,*,#159,.T.);
#119=ORIENTED_EDGE('',*,*,#170,.T.);
#120=ORIENTED_EDGE('',*,*,#169,.T.);
#121=ORIENTED_EDGE('',*,*,#168,.T.);
#122=ORIENTED_EDGE('',*,*,#167,.T.);
#123=ORIENTED_EDGE('',*,*,#166,.T.);
#124=ORIENTED_EDGE('',*,*,#165,.T.);
#125=ORIENTED_EDGE('',*,*,#164,.T.);
#126=ORIENTED_EDGE('',*,*,#163,.T.);
#127=ORIENTED_EDGE('',*,*,#162,.T.);
#128=ORIENTED_EDGE('',*,*,#161,.T.);
#129=ORIENTED_EDGE('',*,*,#180,.F.);
#130=ORIENTED_EDGE('',*,*,#171,.F.);
#131=ORIENTED_EDGE('',*,*,#172,.F.);
#132=ORIENTED_EDGE('',*,*,#173,.F.);
#133=ORIENTED_EDGE('',*,*,#174,.F.);
#134=ORIENTED_EDGE('',*,*,#175,.F.);
#135=ORIENTED_EDGE('',*,*,#176,.F.);
#136=ORIENTED_EDGE('',*,*,#177,.F.);
#137=ORIENTED_EDGE('',*,*,#178,.F.);
#138=ORIENTED_EDGE('',*,*,#179,.F.);
#139=PLANE('',#264);
#140=PLANE('',#265);
#141=PLANE('',#266);
#142=PLANE('',#267);
#143=PLANE('',#268);
#144=PLANE('',#269);
#145=PLANE('',#270);
#146=PLANE('',#271);
#147=PLANE('',#272);
#148=PLANE('',#273);
#149=PLANE('',#274);
#150=PLANE('',#275);
#151=EDGE_CURVE('',#250,#260,#181,.T.);
#152=EDGE_CURVE('',#249,#259,#182,.T.);
#153=EDGE_CURVE('',#248,#258,#183,.T.);
#154=EDGE_CURVE('',#247,#257,#184,.T.);
#155=EDGE_CURVE('',#246,#256,#185,.T.);
#156=EDGE_CURVE('',#245,#255,#186,.T.);
#157=EDGE_CURVE('',#244,#254,#187,.T.);
#158=EDGE_CURVE('',#243,#253,#188,.T.);
#159=EDGE_CURVE('',#242,#252,#189,.T.);
#160=EDGE_CURVE('',#241,#251,#190,.T.);
#161=EDGE_CURVE('',#242,#241,#191,.T.);
#162=EDGE_CURVE('',#243,#242,#192,.T.);
#163=EDGE_CURVE('',#244,#243,#193,.T.);
#164=EDGE_CURVE('',#245,#244,#194,.T.);
#165=EDGE_CURVE('',#246,#245,#195,.T.);
#166=EDGE_CURVE('',#247,#246,#196,.T.);
#167=EDGE_CURVE('',#248,#247,#197,.T.);
#168=EDGE_CURVE('',#249,#248,#198,.T.);
#169=EDGE_CURVE('',#250,#249,#199,.T.);
#170=EDGE_CURVE('',#241,#250,#200,.T.);
#171=EDGE_CURVE('',#252,#251,#201,.T.);
#172=EDGE_CURVE('',#253,#252,#202,.T.);
#173=EDGE_CURVE('',#254,#253,#203,.T.);
#174=EDGE_CURVE('',#255,#254,#204,.T.);
#175=EDGE_CURVE('',#256,#255,#205,.T.);
#176=EDGE_CURVE('',#257,#256,#206,.T.);
#177=EDGE_CURVE('',#258,#257,#207,.T.);
#178=EDGE_CURVE('',#259,#258,#208,.T.);
#179=EDGE_CURVE('',#260,#259,#209,.T.);
#180=EDGE_CURVE('',#251,#260,#210,.T.);
#181=LINE('',#353,#211);
#182=LINE('',#354,#212);
#183=LINE('',#355,#213);
#184=LINE('',#356,#214);
#185=LINE('',#357,#215);
#186=LINE('',#358,#216);
#187=LINE('',#359,#217);
#188=LINE('',#360,#218);
#189=LINE('',#361,#219);
#190=LINE('',#362,#220);
#191=LINE('',#363,#221);
#192=LINE('',#364,#222);
#193=LINE('',#365,#223);
#194=LINE('',#366,#224);
#195=LINE('',#367,#225);
#196=LINE('',#368,#226);
#197=LINE('',#369,#227);
#198=LINE('',#370,#228);
#199=LINE('',#371,#229);
#200=LINE('',#372,#230);
#201=LINE('',#373,#231);
#202=LINE('',#374,#232);
#203=LINE('',#375,#233);
#204=LINE('',#376,#234);
#205=LINE('',#377,#235);
#206=LINE('',#378,#236);
#207=LINE('',#379,#237);
#208=LINE('',#380,#238);
#209=LINE('',#381,#239);
#210=LINE('',#382,#240);
#211=VECTOR('',#278,1.);
#212=VECTOR('',#279,1.);
#213=VECTOR('',#280,1.);
#214=VECTOR('',#281,1.);
#215=VECTOR('',#282,1.);
#216=VECTOR('',#283,1.);
#217=VECTOR('',#284,1.);
#218=VECTOR('',#285,1.);
#219=VECTOR('',#286,1.);
#220=VECTOR('',#287,1.);
#221=VECTOR('',#288,1.);
#222=VECTOR('',#289,1.);
#223=VECTOR('',#290,1.);
#224=VECTOR('',#291,1.);
#225=VECTOR('',#292,1.);
#226=VECTOR('',#293,1.);
#227=VECTOR('',#294,1.);
#228=VECTOR('',#295,1.);
#229=VECTOR('',#296,1.);
#230=VECTOR('',#297,1.);
#231=VECTOR('',#298,1.);
#232=VECTOR('',#299,1.);
#233=VECTOR('',#300,1.);
#234=VECTOR('',#301,1.);
#235=VECTOR('',#302,1.);
#236=VECTOR('',#303,1.);
#237=VECTOR('',#304,1.);
#238=VECTOR('',#305,1.);
#239=VECTOR('',#306,1.);
#240=VECTOR('',#307,1.);
#241=VERTEX_POINT('',#333);
#242=VERTEX_POINT('',#334);
#243=VERTEX_POINT('',#335);
#244=VERTEX_POINT('',#336);
#245=VERTEX_POINT('',#337);
#246=VERTEX_POINT('',#338);
#247=VERTEX_POINT('',#339);
#248=VERTEX_POINT('',#340);
#249=VERTEX_POINT('',#341);
#250=VERTEX_POINT('',#342);
#251=VERTEX_POINT('',#343);
#252=VERTEX_POINT('',#344);
#253=VERTEX_POINT('',#345);
#254=VERTEX_POINT('',#346);
#255=VERTEX_POINT('',#347);
#256=VERTEX_POINT('',#348);
#257=VERTEX_POINT('',#349);
#258=VERTEX_POINT('',#350);
#259=VERTEX_POINT('',#351);
#260=VERTEX_POINT('',#352);
#261=SHAPE_DEFINITION_REPRESENTATION(#395,#262);
#262=SHAPE_REPRESENTATION('master',(#263),#397);
#263=AXIS2_PLACEMENT_3D('',#332,#277,#276);
#264=AXIS2_PLACEMENT_3D('',#383,#309,#308);
#265=AXIS2_PLACEMENT_3D('',#384,#311,#310);
#266=AXIS2_PLACEMENT_3D('',#385,#313,#312);
#267=AXIS2_PLACEMENT_3D('',#386,#315,#314);
#268=AXIS2_PLACEMENT_3D('',#387,#317,#316);
#269=AXIS2_PLACEMENT_3D('',#388,#319,#318);
#270=AXIS2_PLACEMENT_3D('',#389,#321,#320);
#271=AXIS2_PLACEMENT_3D('',#390,#323,#322);
#272=AXIS2_PLACEMENT_3D('',#391,#325,#324);
#273=AXIS2_PLACEMENT_3D('',#392,#327,#326);
#274=AXIS2_PLACEMENT_3D('',#393,#329,#328);
#275=AXIS2_PLACEMENT_3D('',#394,#331,#330);
#276=DIRECTION('',(1.,0.,0.));
#277=DIRECTION('',(0.,0.,1.));
#278=DIRECTION('',(0.,-1.,0.));
#279=DIRECTION('',(0.,-1.,0.));
#280=DIRECTION('',(0.,-1.,0.));
#281=DIRECTION('',(0.,-1.,0.));
#282=DIRECTION('',(0.,-1.,0.));
#283=DIRECTION('',(0.,-1.,0.));
#284=DIRECTION('',(0.,-1.,0.));
#285=DIRECTION('',(0.,-1.,0.));
#286=DIRECTION('',(0.,-1.,0.));
#287=DIRECTION('',(0.,-1.,0.));
#288=DIRECTION('',(0.,0.,-1.));
#289=DIRECTION('',(1.,0.,0.));
#290=DIRECTION('',(-0.,-0.,1.));
#291=DIRECTION('',(0.778753917410352,0.,0.627329527535593));
#292=DIRECTION('',(1.,-0.,-0.));
#293=DIRECTION('',(0.407597982917318,0.,-0.91316147768165));
#294=DIRECTION('',(1.,-0.,-0.));
#295=DIRECTION('',(-0.,-0.,1.));
#296=DIRECTION('',(-1.,-0.,-0.));
#297=DIRECTION('',(-0.782968323595379,-0.,-0.622061575928173));
#298=DIRECTION('',(0.,0.,-1.));
#299=DIRECTION('',(1.,0.,0.));
#300=DIRECTION('',(-0.,-0.,1.));
#301=DIRECTION('',(0.778753917410352,0.,0.627329527535593));
#302=DIRECTION('',(1.,-0.,-0.));
#303=DIRECTION('',(0.407597982917318,0.,-0.91316147768165));
#304=DIRECTION('',(1.,-0.,-0.));
#305=DIRECTION('',(-0.,-0.,1.));
#306=DIRECTION('',(-1.,-0.,-0.));
#307=DIRECTION('',(-0.782968323595379,-0.,-0.622061575928173));
#308=DIRECTION('',(0.782968323595379,0.,0.622061575928173));
#309=DIRECTION('',(-0.622061575928173,0.,0.782968323595379));
#310=DIRECTION('',(1.,0.,0.));
#311=DIRECTION('',(-0.,0.,1.));
#312=DIRECTION('',(0.,0.,-1.));
#313=DIRECTION('',(1.,0.,0.));
#314=DIRECTION('',(-1.,0.,0.));
#315=DIRECTION('',(-0.,-0.,-1.));
#316=DIRECTION('',(-0.407597982917318,0.,0.91316147768165));
#317=DIRECTION('',(-0.91316147768165,-0.,-0.407597982917318));
#318=DIRECTION('',(-1.,0.,0.));
#319=DIRECTION('',(-0.,-0.,-1.));
#320=DIRECTION('',(-0.778753917410352,0.,-0.627329527535593));
#321=DIRECTION('',(0.627329527535593,0.,-0.778753917410352));
#322=DIRECTION('',(0.,0.,-1.));
#323=DIRECTION('',(1.,0.,0.));
#324=DIRECTION('',(-1.,0.,0.));
#325=DIRECTION('',(0.,0.,-1.));
#326=DIRECTION('',(-0.,0.,1.));
#327=DIRECTION('',(-1.,-0.,-0.));
#328=DIRECTION('',(0.,0.,-1.));
#329=DIRECTION('',(0.,-1.,0.));
#330=DIRECTION('',(0.,0.,-1.));
#331=DIRECTION('',(0.,-1.,0.));
#332=CARTESIAN_POINT('',(0.,0.,0.));
#333=CARTESIAN_POINT('',(220.451624,2168.281361,2174.286215));
#334=CARTESIAN_POINT('',(220.451624,2168.281361,2220.286215));
#335=CARTESIAN_POINT('',(206.451624,2168.281361,2220.286215));
#336=CARTESIAN_POINT('',(206.451624,2168.281361,2178.919443));
#337=CARTESIAN_POINT('',(173.454578,2168.281361,2152.33849));
#338=CARTESIAN_POINT('',(132.454578,2168.281361,2152.33849));
#339=CARTESIAN_POINT('',(125.265650957506,2168.281361,2168.444191));
#340=CARTESIAN_POINT('',(103.080454,2168.281361,2168.444191));
#341=CARTESIAN_POINT('',(103.080454,2168.281361,2139.942207));
#342=CARTESIAN_POINT('',(177.223957463639,2168.281361,2139.942207));
#343=CARTESIAN_POINT('',(220.451624,168.281361,2174.286215));
#344=CARTESIAN_POINT('',(220.451624,168.281361,2220.286215));
#345=CARTESIAN_POINT('',(206.451624,168.281361,2220.286215));
#346=CARTESIAN_POINT('',(206.451624,168.281361,2178.919443));
#347=CARTESIAN_POINT('',(173.454578,168.281361,2152.33849));
#348=CARTESIAN_POINT('',(132.454578,168.281361,2152.33849));
#349=CARTESIAN_POINT('',(125.265650957506,168.281361,2168.444191));
#350=CARTESIAN_POINT('',(103.080454,168.281361,2168.444191));
#351=CARTESIAN_POINT('',(103.080454,168.281361,2139.942207));
#352=CARTESIAN_POINT('',(177.223957463639,168.281361,2139.942207));
#353=CARTESIAN_POINT('',(177.223957463639,2168.281361,2139.942207));
#354=CARTESIAN_POINT('',(103.080454,2168.281361,2139.942207));
#355=CARTESIAN_POINT('',(103.080454,2168.281361,2168.444191));
#356=CARTESIAN_POINT('',(125.265650957506,2168.281361,2168.444191));
#357=CARTESIAN_POINT('',(132.454578,2168.281361,2152.33849));
#358=CARTESIAN_POINT('',(173.454578,2168.281361,2152.33849));
#359=CARTESIAN_POINT('',(206.451624,2168.281361,2178.919443));
#360=CARTESIAN_POINT('',(206.451624,2168.281361,2220.286215));
#361=CARTESIAN_POINT('',(220.451624,2168.281361,2220.286215));
#362=CARTESIAN_POINT('',(220.451624,2168.281361,2174.286215));
#363=CARTESIAN_POINT('',(220.451624,2168.281361,2220.286215));
#364=CARTESIAN_POINT('',(206.451624,2168.281361,2220.286215));
#365=CARTESIAN_POINT('',(206.451624,2168.281361,2178.919443));
#366=CARTESIAN_POINT('',(173.454578,2168.281361,2152.33849));
#367=CARTESIAN_POINT('',(132.454578,2168.281361,2152.33849));
#368=CARTESIAN_POINT('',(125.265650957506,2168.281361,2168.444191));
#369=CARTESIAN_POINT('',(103.080454,2168.281361,2168.444191));
#370=CARTESIAN_POINT('',(103.080454,2168.281361,2139.942207));
#371=CARTESIAN_POINT('',(177.223957463639,2168.281361,2139.942207));
#372=CARTESIAN_POINT('',(220.451624,2168.281361,2174.286215));
#373=CARTESIAN_POINT('',(220.451624,168.281361,2220.286215));
#374=CARTESIAN_POINT('',(206.451624,168.281361,2220.286215));
#375=CARTESIAN_POINT('',(206.451624,168.281361,2178.919443));
#376=CARTESIAN_POINT('',(173.454578,168.281361,2152.33849));
#377=CARTESIAN_POINT('',(132.454578,168.281361,2152.33849));
#378=CARTESIAN_POINT('',(125.265650957506,168.281361,2168.444191));
#379=CARTESIAN_POINT('',(103.080454,168.281361,2168.444191));
#380=CARTESIAN_POINT('',(103.080454,168.281361,2139.942207));
#381=CARTESIAN_POINT('',(177.223957463639,168.281361,2139.942207));
#382=CARTESIAN_POINT('',(220.451624,168.281361,2174.286215));
#383=CARTESIAN_POINT('',(220.451624,2168.281361,2174.286215));
#384=CARTESIAN_POINT('',(177.223957463639,2168.281361,2139.942207));
#385=CARTESIAN_POINT('',(103.080454,2168.281361,2139.942207));
#386=CARTESIAN_POINT('',(103.080454,2168.281361,2168.444191));
#387=CARTESIAN_POINT('',(125.265650957506,2168.281361,2168.444191));
#388=CARTESIAN_POINT('',(132.454578,2168.281361,2152.33849));
#389=CARTESIAN_POINT('',(173.454578,2168.281361,2152.33849));
#390=CARTESIAN_POINT('',(206.451624,2168.281361,2178.919443));
#391=CARTESIAN_POINT('',(206.451624,2168.281361,2220.286215));
#392=CARTESIAN_POINT('',(220.451624,2168.281361,2220.286215));
#393=CARTESIAN_POINT('',(-0.,2168.281361,-0.));
#394=CARTESIAN_POINT('',(-0.,168.281361,-0.));
#395=PRODUCT_DEFINITION_SHAPE('','',#396);
#396=PRODUCT_DEFINITION('','',#408,#413);
#397=(
GEOMETRIC_REPRESENTATION_CONTEXT(3)
GLOBAL_UNCERTAINTY_ASSIGNED_CONTEXT((#398))
GLOBAL_UNIT_ASSIGNED_CONTEXT((#400,#399,#403))
REPRESENTATION_CONTEXT('','')
);
#398=UNCERTAINTY_MEASURE_WITH_UNIT(LENGTH_MEASURE(0.001),#400,'','tolerance');
#399=(
CONVERSION_BASED_UNIT('',#401)
NAMED_UNIT(#407)
PLANE_ANGLE_UNIT()
);
#400=(
CONVERSION_BASED_UNIT('',#402)
LENGTH_UNIT()
NAMED_UNIT(#406)
);
#401=PLANE_ANGLE_MEASURE_WITH_UNIT(PLANE_ANGLE_MEASURE(0.0174532925199433),
#404);
#402=LENGTH_MEASURE_WITH_UNIT(LENGTH_MEASURE(1.),#405);
#403=(
NAMED_UNIT(*)
SI_UNIT($,.STERADIAN.)
SOLID_ANGLE_UNIT()
);
#404=(
NAMED_UNIT(*)
PLANE_ANGLE_UNIT()
SI_UNIT($,.RADIAN.)
);
#405=(
LENGTH_UNIT()
NAMED_UNIT(*)
SI_UNIT(.MILLI.,.METRE.)
);
#406=DIMENSIONAL_EXPONENTS(1.,0.,0.,0.,0.,0.,0.);
#407=DIMENSIONAL_EXPONENTS(0.,0.,0.,0.,0.,0.,0.);
#408=PRODUCT_DEFINITION_FORMATION_WITH_SPECIFIED_SOURCE('','',#411,.NOT_KNOWN.
);
#409=PRODUCT_CATEGORY_RELATIONSHIP('','',#414,#410);
#410=PRODUCT_RELATED_PRODUCT_CATEGORY('assembly','',(#411));
#411=PRODUCT('','master','',(#412));
#412=PRODUCT_CONTEXT('',#416,'');
#413=PRODUCT_DEFINITION_CONTEXT('',#416,'part_definition');
#414=PRODUCT_CATEGORY('part','');
#415=APPLICATION_PROTOCOL_DEFINITION('international standard',
'automotive_design_cc2',1994,#416);
#416=APPLICATION_CONTEXT(
'configuration controlled 3D designs of mechanical parts and assemblies');
ENDSEC;
END-ISO-10303-21;
17657