ISO-10303-21;
HEADER;
/* Generated by software using Delcam plc STEP library */

FILE_DESCRIPTION(
/* description */ ('AP-214 File'),
/* implementation_level */ '2;1');

FILE_NAME(
/* name */ 'D710',
/* time_stamp */ 'Wed Feb 01 09:16:59 2017',
/* author */ (''),
/* organization */ (''),
/* preprocessor_version */ 'DELCAM STEP V1',
/* originating_system */ 'Exchange7.1.0006',
/* authorisation */ '');

FILE_SCHEMA (('AUTOMOTIVE_DESIGN'));
ENDSEC;
DATA;
#10=PRESENTATION_STYLE_ASSIGNMENT((#20));
#11=PRESENTATION_STYLE_ASSIGNMENT((#21));
#12=SURFACE_SIDE_STYLE('',(#14));
#13=SURFACE_SIDE_STYLE('',(#15));
#14=SURFACE_STYLE_FILL_AREA(#16);
#15=SURFACE_STYLE_FILL_AREA(#17);
#16=FILL_AREA_STYLE('',(#18));
#17=FILL_AREA_STYLE('',(#19));
#18=FILL_AREA_STYLE_COLOUR('',#38);
#19=FILL_AREA_STYLE_COLOUR('',#39);
#20=SURFACE_STYLE_USAGE(.BOTH.,#12);
#21=SURFACE_STYLE_USAGE(.BOTH.,#13);
#22=STYLED_ITEM('',(#10),#54);
#23=STYLED_ITEM('',(#10),#55);
#24=STYLED_ITEM('',(#10),#56);
#25=STYLED_ITEM('',(#10),#57);
#26=STYLED_ITEM('',(#10),#58);
#27=STYLED_ITEM('',(#10),#59);
#28=STYLED_ITEM('',(#10),#60);
#29=STYLED_ITEM('',(#10),#61);
#30=STYLED_ITEM('',(#10),#62);
#31=STYLED_ITEM('',(#10),#63);
#32=STYLED_ITEM('',(#10),#64);
#33=STYLED_ITEM('',(#10),#65);
#34=STYLED_ITEM('',(#10),#66);
#35=STYLED_ITEM('',(#10),#67);
#36=STYLED_ITEM('',(#10),#68);
#37=STYLED_ITEM('',(#11),#45);
#38=COLOUR_RGB('',0.,0.,0.);
#39=COLOUR_RGB('rgb_colour_1',0.4,0.4,0.4);
#40=MECHANICAL_DESIGN_GEOMETRIC_PRESENTATION_REPRESENTATION('',(#22,#23,#24,
#25,#26,#27,#28,#29,#30,#31,#32,#33,#34,#35,#36,#37),#515);
#41=PRESENTATION_LAYER_ASSIGNMENT('22','D108',(#54,#55,#56,#57,#58,#59,#60,#61
,#62,#63,#64,#65,#66,#67,#68,#45));
#42=SHAPE_REPRESENTATION_RELATIONSHIP('','',#312,#43);
#43=ADVANCED_BREP_SHAPE_REPRESENTATION('',(#44),#515);
#44=MANIFOLD_SOLID_BREP('8042',#45);
#45=CLOSED_SHELL('',(#54,#55,#56,#57,#58,#59,#60,#61,#62,#63,#64,#65,#66,#67,
#68));
#46=CYLINDRICAL_SURFACE('',#332,349.025503401426);
#47=CYLINDRICAL_SURFACE('',#333,214.679473603656);
#48=CYLINDRICAL_SURFACE('',#334,25.4568147575072);
#49=CYLINDRICAL_SURFACE('',#335,5.93109595070149);
#50=CYLINDRICAL_SURFACE('',#336,8.05857864047233);
#51=CYLINDRICAL_SURFACE('',#337,48.5052687467592);
#52=CYLINDRICAL_SURFACE('',#338,247.587910906045);
#53=CYLINDRICAL_SURFACE('',#340,5.65713085869551);
#54=ADVANCED_FACE('',(#69),#177,.T.);
#55=ADVANCED_FACE('',(#70),#178,.T.);
#56=ADVANCED_FACE('',(#71),#46,.T.);
#57=ADVANCED_FACE('',(#72),#47,.T.);
#58=ADVANCED_FACE('',(#73),#48,.T.);
#59=ADVANCED_FACE('',(#74),#49,.T.);
#60=ADVANCED_FACE('',(#75),#50,.T.);
#61=ADVANCED_FACE('',(#76),#51,.F.);
#62=ADVANCED_FACE('',(#77),#52,.F.);
#63=ADVANCED_FACE('',(#78),#179,.T.);
#64=ADVANCED_FACE('',(#79),#53,.F.);
#65=ADVANCED_FACE('',(#80),#180,.T.);
#66=ADVANCED_FACE('',(#81),#181,.T.);
#67=ADVANCED_FACE('',(#82),#182,.F.);
#68=ADVANCED_FACE('',(#83),#183,.T.);
#69=FACE_OUTER_BOUND('',#84,.T.);
#70=FACE_OUTER_BOUND('',#85,.T.);
#71=FACE_OUTER_BOUND('',#86,.T.);
#72=FACE_OUTER_BOUND('',#87,.T.);
#73=FACE_OUTER_BOUND('',#88,.T.);
#74=FACE_OUTER_BOUND('',#89,.T.);
#75=FACE_OUTER_BOUND('',#90,.T.);
#76=FACE_OUTER_BOUND('',#91,.T.);
#77=FACE_OUTER_BOUND('',#92,.T.);
#78=FACE_OUTER_BOUND('',#93,.T.);
#79=FACE_OUTER_BOUND('',#94,.T.);
#80=FACE_OUTER_BOUND('',#95,.T.);
#81=FACE_OUTER_BOUND('',#96,.T.);
#82=FACE_OUTER_BOUND('',#97,.T.);
#83=FACE_OUTER_BOUND('',#98,.T.);
#84=EDGE_LOOP('',(#99,#100,#101,#102));
#85=EDGE_LOOP('',(#103,#104,#105,#106));
#86=EDGE_LOOP('',(#107,#108,#109,#110));
#87=EDGE_LOOP('',(#111,#112,#113,#114));
#88=EDGE_LOOP('',(#115,#116,#117,#118));
#89=EDGE_LOOP('',(#119,#120,#121,#122));
#90=EDGE_LOOP('',(#123,#124,#125,#126));
#91=EDGE_LOOP('',(#127,#128,#129,#130));
#92=EDGE_LOOP('',(#131,#132,#133,#134));
#93=EDGE_LOOP('',(#135,#136,#137,#138));
#94=EDGE_LOOP('',(#139,#140,#141,#142));
#95=EDGE_LOOP('',(#143,#144,#145,#146));
#96=EDGE_LOOP('',(#147,#148,#149,#150));
#97=EDGE_LOOP('',(#151,#152,#153,#154,#155,#156,#157,#158,#159,#160,#161,#162,
#163));
#98=EDGE_LOOP('',(#164,#165,#166,#167,#168,#169,#170,#171,#172,#173,#174,#175,
#176));
#99=ORIENTED_EDGE('',*,*,#238,.F.);
#100=ORIENTED_EDGE('',*,*,#212,.F.);
#101=ORIENTED_EDGE('',*,*,#225,.T.);
#102=ORIENTED_EDGE('',*,*,#200,.T.);
#103=ORIENTED_EDGE('',*,*,#237,.F.);
#104=ORIENTED_EDGE('',*,*,#200,.F.);
#105=ORIENTED_EDGE('',*,*,#224,.T.);
#106=ORIENTED_EDGE('',*,*,#201,.T.);
#107=ORIENTED_EDGE('',*,*,#236,.F.);
#108=ORIENTED_EDGE('',*,*,#201,.F.);
#109=ORIENTED_EDGE('',*,*,#223,.T.);
#110=ORIENTED_EDGE('',*,*,#202,.T.);
#111=ORIENTED_EDGE('',*,*,#235,.F.);
#112=ORIENTED_EDGE('',*,*,#202,.F.);
#113=ORIENTED_EDGE('',*,*,#222,.T.);
#114=ORIENTED_EDGE('',*,*,#203,.T.);
#115=ORIENTED_EDGE('',*,*,#234,.F.);
#116=ORIENTED_EDGE('',*,*,#203,.F.);
#117=ORIENTED_EDGE('',*,*,#221,.T.);
#118=ORIENTED_EDGE('',*,*,#204,.T.);
#119=ORIENTED_EDGE('',*,*,#233,.F.);
#120=ORIENTED_EDGE('',*,*,#204,.F.);
#121=ORIENTED_EDGE('',*,*,#220,.T.);
#122=ORIENTED_EDGE('',*,*,#205,.T.);
#123=ORIENTED_EDGE('',*,*,#232,.F.);
#124=ORIENTED_EDGE('',*,*,#205,.F.);
#125=ORIENTED_EDGE('',*,*,#219,.T.);
#126=ORIENTED_EDGE('',*,*,#206,.T.);
#127=ORIENTED_EDGE('',*,*,#231,.F.);
#128=ORIENTED_EDGE('',*,*,#206,.F.);
#129=ORIENTED_EDGE('',*,*,#218,.T.);
#130=ORIENTED_EDGE('',*,*,#207,.T.);
#131=ORIENTED_EDGE('',*,*,#230,.F.);
#132=ORIENTED_EDGE('',*,*,#207,.F.);
#133=ORIENTED_EDGE('',*,*,#217,.T.);
#134=ORIENTED_EDGE('',*,*,#208,.T.);
#135=ORIENTED_EDGE('',*,*,#229,.F.);
#136=ORIENTED_EDGE('',*,*,#208,.F.);
#137=ORIENTED_EDGE('',*,*,#216,.T.);
#138=ORIENTED_EDGE('',*,*,#209,.T.);
#139=ORIENTED_EDGE('',*,*,#228,.F.);
#140=ORIENTED_EDGE('',*,*,#209,.F.);
#141=ORIENTED_EDGE('',*,*,#215,.T.);
#142=ORIENTED_EDGE('',*,*,#210,.T.);
#143=ORIENTED_EDGE('',*,*,#227,.F.);
#144=ORIENTED_EDGE('',*,*,#210,.F.);
#145=ORIENTED_EDGE('',*,*,#214,.T.);
#146=ORIENTED_EDGE('',*,*,#211,.T.);
#147=ORIENTED_EDGE('',*,*,#226,.F.);
#148=ORIENTED_EDGE('',*,*,#211,.F.);
#149=ORIENTED_EDGE('',*,*,#213,.T.);
#150=ORIENTED_EDGE('',*,*,#212,.T.);
#151=ORIENTED_EDGE('',*,*,#225,.F.);
#152=ORIENTED_EDGE('',*,*,#213,.F.);
#153=ORIENTED_EDGE('',*,*,#214,.F.);
#154=ORIENTED_EDGE('',*,*,#215,.F.);
#155=ORIENTED_EDGE('',*,*,#216,.F.);
#156=ORIENTED_EDGE('',*,*,#217,.F.);
#157=ORIENTED_EDGE('',*,*,#218,.F.);
#158=ORIENTED_EDGE('',*,*,#219,.F.);
#159=ORIENTED_EDGE('',*,*,#220,.F.);
#160=ORIENTED_EDGE('',*,*,#221,.F.);
#161=ORIENTED_EDGE('',*,*,#222,.F.);
#162=ORIENTED_EDGE('',*,*,#223,.F.);
#163=ORIENTED_EDGE('',*,*,#224,.F.);
#164=ORIENTED_EDGE('',*,*,#238,.T.);
#165=ORIENTED_EDGE('',*,*,#237,.T.);
#166=ORIENTED_EDGE('',*,*,#236,.T.);
#167=ORIENTED_EDGE('',*,*,#235,.T.);
#168=ORIENTED_EDGE('',*,*,#234,.T.);
#169=ORIENTED_EDGE('',*,*,#233,.T.);
#170=ORIENTED_EDGE('',*,*,#232,.T.);
#171=ORIENTED_EDGE('',*,*,#231,.T.);
#172=ORIENTED_EDGE('',*,*,#230,.T.);
#173=ORIENTED_EDGE('',*,*,#229,.T.);
#174=ORIENTED_EDGE('',*,*,#228,.T.);
#175=ORIENTED_EDGE('',*,*,#227,.T.);
#176=ORIENTED_EDGE('',*,*,#226,.T.);
#177=PLANE('',#330);
#178=PLANE('',#331);
#179=PLANE('',#339);
#180=PLANE('',#341);
#181=PLANE('',#342);
#182=PLANE('',#343);
#183=PLANE('',#344);
#184=CIRCLE('',#314,5.65713085869551);
#185=CIRCLE('',#315,247.587910906045);
#186=CIRCLE('',#316,48.5052687467592);
#187=CIRCLE('',#317,8.05857864047233);
#188=CIRCLE('',#318,5.93109595070149);
#189=CIRCLE('',#319,25.4568147575072);
#190=CIRCLE('',#320,214.679473603656);
#191=CIRCLE('',#321,349.025503401426);
#192=CIRCLE('',#322,5.65713085869551);
#193=CIRCLE('',#323,247.587910906045);
#194=CIRCLE('',#324,48.5052687467592);
#195=CIRCLE('',#325,8.05857864047233);
#196=CIRCLE('',#326,5.93109595070149);
#197=CIRCLE('',#327,25.4568147575072);
#198=CIRCLE('',#328,214.679473603656);
#199=CIRCLE('',#329,349.025503401426);
#200=EDGE_CURVE('',#297,#310,#239,.T.);
#201=EDGE_CURVE('',#296,#309,#240,.T.);
#202=EDGE_CURVE('',#295,#308,#241,.T.);
#203=EDGE_CURVE('',#294,#307,#242,.T.);
#204=EDGE_CURVE('',#293,#306,#243,.T.);
#205=EDGE_CURVE('',#292,#305,#244,.T.);
#206=EDGE_CURVE('',#291,#304,#245,.T.);
#207=EDGE_CURVE('',#290,#303,#246,.T.);
#208=EDGE_CURVE('',#289,#302,#247,.T.);
#209=EDGE_CURVE('',#288,#301,#248,.T.);
#210=EDGE_CURVE('',#287,#300,#249,.T.);
#211=EDGE_CURVE('',#286,#299,#250,.T.);
#212=EDGE_CURVE('',#285,#298,#251,.T.);
#213=EDGE_CURVE('',#286,#285,#252,.T.);
#214=EDGE_CURVE('',#287,#286,#253,.T.);
#215=EDGE_CURVE('',#288,#287,#184,.T.);
#216=EDGE_CURVE('',#289,#288,#254,.T.);
#217=EDGE_CURVE('',#290,#289,#185,.T.);
#218=EDGE_CURVE('',#291,#290,#186,.T.);
#219=EDGE_CURVE('',#292,#291,#187,.T.);
#220=EDGE_CURVE('',#293,#292,#188,.T.);
#221=EDGE_CURVE('',#294,#293,#189,.T.);
#222=EDGE_CURVE('',#295,#294,#190,.T.);
#223=EDGE_CURVE('',#296,#295,#191,.T.);
#224=EDGE_CURVE('',#297,#296,#255,.T.);
#225=EDGE_CURVE('',#285,#297,#256,.T.);
#226=EDGE_CURVE('',#299,#298,#257,.T.);
#227=EDGE_CURVE('',#300,#299,#258,.T.);
#228=EDGE_CURVE('',#301,#300,#192,.T.);
#229=EDGE_CURVE('',#302,#301,#259,.T.);
#230=EDGE_CURVE('',#303,#302,#193,.T.);
#231=EDGE_CURVE('',#304,#303,#194,.T.);
#232=EDGE_CURVE('',#305,#304,#195,.T.);
#233=EDGE_CURVE('',#306,#305,#196,.T.);
#234=EDGE_CURVE('',#307,#306,#197,.T.);
#235=EDGE_CURVE('',#308,#307,#198,.T.);
#236=EDGE_CURVE('',#309,#308,#199,.T.);
#237=EDGE_CURVE('',#310,#309,#260,.T.);
#238=EDGE_CURVE('',#298,#310,#261,.T.);
#239=LINE('',#459,#262);
#240=LINE('',#460,#263);
#241=LINE('',#461,#264);
#242=LINE('',#462,#265);
#243=LINE('',#463,#266);
#244=LINE('',#464,#267);
#245=LINE('',#465,#268);
#246=LINE('',#466,#269);
#247=LINE('',#467,#270);
#248=LINE('',#468,#271);
#249=LINE('',#469,#272);
#250=LINE('',#470,#273);
#251=LINE('',#471,#274);
#252=LINE('',#472,#275);
#253=LINE('',#473,#276);
#254=LINE('',#475,#277);
#255=LINE('',#483,#278);
#256=LINE('',#484,#279);
#257=LINE('',#485,#280);
#258=LINE('',#486,#281);
#259=LINE('',#488,#282);
#260=LINE('',#496,#283);
#261=LINE('',#497,#284);
#262=VECTOR('',#347,1.);
#263=VECTOR('',#348,1.);
#264=VECTOR('',#349,1.);
#265=VECTOR('',#350,1.);
#266=VECTOR('',#351,1.);
#267=VECTOR('',#352,1.);
#268=VECTOR('',#353,1.);
#269=VECTOR('',#354,1.);
#270=VECTOR('',#355,1.);
#271=VECTOR('',#356,1.);
#272=VECTOR('',#357,1.);
#273=VECTOR('',#358,1.);
#274=VECTOR('',#359,1.);
#275=VECTOR('',#360,1.);
#276=VECTOR('',#361,1.);
#277=VECTOR('',#364,1.);
#278=VECTOR('',#379,1.);
#279=VECTOR('',#380,1.);
#280=VECTOR('',#381,1.);
#281=VECTOR('',#382,1.);
#282=VECTOR('',#385,1.);
#283=VECTOR('',#400,1.);
#284=VECTOR('',#401,1.);
#285=VERTEX_POINT('',#433);
#286=VERTEX_POINT('',#434);
#287=VERTEX_POINT('',#435);
#288=VERTEX_POINT('',#436);
#289=VERTEX_POINT('',#437);
#290=VERTEX_POINT('',#438);
#291=VERTEX_POINT('',#439);
#292=VERTEX_POINT('',#440);
#293=VERTEX_POINT('',#441);
#294=VERTEX_POINT('',#442);
#295=VERTEX_POINT('',#443);
#296=VERTEX_POINT('',#444);
#297=VERTEX_POINT('',#445);
#298=VERTEX_POINT('',#446);
#299=VERTEX_POINT('',#447);
#300=VERTEX_POINT('',#448);
#301=VERTEX_POINT('',#449);
#302=VERTEX_POINT('',#450);
#303=VERTEX_POINT('',#451);
#304=VERTEX_POINT('',#452);
#305=VERTEX_POINT('',#453);
#306=VERTEX_POINT('',#454);
#307=VERTEX_POINT('',#455);
#308=VERTEX_POINT('',#456);
#309=VERTEX_POINT('',#457);
#310=VERTEX_POINT('',#458);
#311=SHAPE_DEFINITION_REPRESENTATION(#513,#312);
#312=SHAPE_REPRESENTATION('master',(#313),#515);
#313=AXIS2_PLACEMENT_3D('',#432,#346,#345);
#314=AXIS2_PLACEMENT_3D('',#474,#363,#362);
#315=AXIS2_PLACEMENT_3D('',#476,#366,#365);
#316=AXIS2_PLACEMENT_3D('',#477,#368,#367);
#317=AXIS2_PLACEMENT_3D('',#478,#370,#369);
#318=AXIS2_PLACEMENT_3D('',#479,#372,#371);
#319=AXIS2_PLACEMENT_3D('',#480,#374,#373);
#320=AXIS2_PLACEMENT_3D('',#481,#376,#375);
#321=AXIS2_PLACEMENT_3D('',#482,#378,#377);
#322=AXIS2_PLACEMENT_3D('',#487,#384,#383);
#323=AXIS2_PLACEMENT_3D('',#489,#387,#386);
#324=AXIS2_PLACEMENT_3D('',#490,#389,#388);
#325=AXIS2_PLACEMENT_3D('',#491,#391,#390);
#326=AXIS2_PLACEMENT_3D('',#492,#393,#392);
#327=AXIS2_PLACEMENT_3D('',#493,#395,#394);
#328=AXIS2_PLACEMENT_3D('',#494,#397,#396);
#329=AXIS2_PLACEMENT_3D('',#495,#399,#398);
#330=AXIS2_PLACEMENT_3D('',#498,#403,#402);
#331=AXIS2_PLACEMENT_3D('',#499,#405,#404);
#332=AXIS2_PLACEMENT_3D('',#500,#407,#406);
#333=AXIS2_PLACEMENT_3D('',#501,#409,#408);
#334=AXIS2_PLACEMENT_3D('',#502,#411,#410);
#335=AXIS2_PLACEMENT_3D('',#503,#413,#412);
#336=AXIS2_PLACEMENT_3D('',#504,#415,#414);
#337=AXIS2_PLACEMENT_3D('',#505,#417,#416);
#338=AXIS2_PLACEMENT_3D('',#506,#419,#418);
#339=AXIS2_PLACEMENT_3D('',#507,#421,#420);
#340=AXIS2_PLACEMENT_3D('',#508,#423,#422);
#341=AXIS2_PLACEMENT_3D('',#509,#425,#424);
#342=AXIS2_PLACEMENT_3D('',#510,#427,#426);
#343=AXIS2_PLACEMENT_3D('',#511,#429,#428);
#344=AXIS2_PLACEMENT_3D('',#512,#431,#430);
#345=DIRECTION('',(1.,0.,0.));
#346=DIRECTION('',(0.,0.,1.));
#347=DIRECTION('',(-1.3894952829018E-016,-1.,3.28692829963272E-016));
#348=DIRECTION('',(-1.3894952829018E-016,-1.,3.28692829963272E-016));
#349=DIRECTION('',(-1.3894952829018E-016,-1.,3.28692829963272E-016));
#350=DIRECTION('',(-1.3894952829018E-016,-1.,3.28692829963272E-016));
#351=DIRECTION('',(-1.3894952829018E-016,-1.,3.28692829963272E-016));
#352=DIRECTION('',(-1.3894952829018E-016,-1.,3.28692829963272E-016));
#353=DIRECTION('',(-1.3894952829018E-016,-1.,3.28692829963272E-016));
#354=DIRECTION('',(-1.3894952829018E-016,-1.,3.28692829963272E-016));
#355=DIRECTION('',(-1.3894952829018E-016,-1.,3.28692829963272E-016));
#356=DIRECTION('',(-1.3894952829018E-016,-1.,3.28692829963272E-016));
#357=DIRECTION('',(-1.3894952829018E-016,-1.,3.28692829963272E-016));
#358=DIRECTION('',(-1.3894952829018E-016,-1.,3.28692829963272E-016));
#359=DIRECTION('',(-1.3894952829018E-016,-1.,3.28692829963272E-016));
#360=DIRECTION('',(-1.,-0.,-0.));
#361=DIRECTION('',(-0.359044700874424,-0.,0.933320364491205));
#362=DIRECTION('',(-5.02405020147589E-015,0.,-1.));
#363=DIRECTION('',(0.,1.,0.));
#364=DIRECTION('',(-1.,-0.,-7.3731350274821E-015));
#365=DIRECTION('',(0.632355113152113,0.,-0.774678650067483));
#366=DIRECTION('',(0.,1.,0.));
#367=DIRECTION('',(0.773230932303942,0.,-0.634124534557982));
#368=DIRECTION('',(0.,1.,0.));
#369=DIRECTION('',(0.12003714025943,0.,0.992769401703305));
#370=DIRECTION('',(0.,-1.,0.));
#371=DIRECTION('',(0.939549873299741,0.,-0.342412084457369));
#372=DIRECTION('',(0.,-1.,0.));
#373=DIRECTION('',(0.718930062624596,0.,-0.695082416015968));
#374=DIRECTION('',(0.,-1.,0.));
#375=DIRECTION('',(0.26224528076187,0.,-0.96500125011221));
#376=DIRECTION('',(0.,-1.,0.));
#377=DIRECTION('',(-1.30290579471909E-015,-0.,-1.));
#378=DIRECTION('',(0.,-1.,0.));
#379=DIRECTION('',(1.,-0.,-3.34740530079502E-015));
#380=DIRECTION('',(-0.,-0.,-1.));
#381=DIRECTION('',(-1.,-0.,-0.));
#382=DIRECTION('',(-0.359044700874424,-0.,0.933320364491205));
#383=DIRECTION('',(-5.02405020147589E-015,0.,-1.));
#384=DIRECTION('',(0.,1.,0.));
#385=DIRECTION('',(-1.,-0.,-7.3731350274821E-015));
#386=DIRECTION('',(0.632355113152113,0.,-0.774678650067483));
#387=DIRECTION('',(0.,1.,0.));
#388=DIRECTION('',(0.773230932303942,0.,-0.634124534557982));
#389=DIRECTION('',(0.,1.,0.));
#390=DIRECTION('',(0.12003714025943,0.,0.992769401703305));
#391=DIRECTION('',(0.,-1.,0.));
#392=DIRECTION('',(0.939549873299741,0.,-0.342412084457369));
#393=DIRECTION('',(0.,-1.,0.));
#394=DIRECTION('',(0.718930062624596,0.,-0.695082416015968));
#395=DIRECTION('',(0.,-1.,0.));
#396=DIRECTION('',(0.26224528076187,0.,-0.96500125011221));
#397=DIRECTION('',(0.,-1.,0.));
#398=DIRECTION('',(-1.30290579471909E-015,-0.,-1.));
#399=DIRECTION('',(0.,-1.,0.));
#400=DIRECTION('',(1.,-0.,-3.34740530079502E-015));
#401=DIRECTION('',(-0.,-0.,-1.));
#402=DIRECTION('',(-1.3894952829018E-016,-1.,0.));
#403=DIRECTION('',(-1.,1.3894952829018E-016,0.));
#404=DIRECTION('',(-1.,0.,3.34740530079502E-015));
#405=DIRECTION('',(-3.34740530079502E-015,-3.28692829963272E-016,-1.));
#406=DIRECTION('',(0.,-3.28692829963272E-016,-1.));
#407=DIRECTION('',(-1.3894952829018E-016,-1.,3.28692829963272E-016));
#408=DIRECTION('',(0.,-3.28692829963272E-016,-1.));
#409=DIRECTION('',(-1.3894952829018E-016,-1.,3.28692829963272E-016));
#410=DIRECTION('',(0.,-3.28692829963272E-016,-1.));
#411=DIRECTION('',(-1.3894952829018E-016,-1.,3.28692829963272E-016));
#412=DIRECTION('',(0.,-3.28692829963272E-016,-1.));
#413=DIRECTION('',(-1.3894952829018E-016,-1.,3.28692829963272E-016));
#414=DIRECTION('',(0.,-3.28692829963272E-016,-1.));
#415=DIRECTION('',(-1.3894952829018E-016,-1.,3.28692829963272E-016));
#416=DIRECTION('',(0.,-3.28692829963272E-016,-1.));
#417=DIRECTION('',(-1.3894952829018E-016,-1.,3.28692829963272E-016));
#418=DIRECTION('',(0.,-3.28692829963272E-016,-1.));
#419=DIRECTION('',(-1.3894952829018E-016,-1.,3.28692829963272E-016));
#420=DIRECTION('',(1.,0.,7.3731350274821E-015));
#421=DIRECTION('',(-7.3731350274821E-015,3.28692829963273E-016,1.));
#422=DIRECTION('',(0.,-3.28692829963272E-016,-1.));
#423=DIRECTION('',(-1.3894952829018E-016,-1.,3.28692829963272E-016));
#424=DIRECTION('',(0.359044700874424,0.,-0.933320364491205));
#425=DIRECTION('',(0.933320364491205,-1.16690055759408E-017,0.359044700874424)
);
#426=DIRECTION('',(0.,-1.,3.28692829963272E-016));
#427=DIRECTION('',(-0.,3.28692829963272E-016,1.));
#428=DIRECTION('',(0.,0.,-1.));
#429=DIRECTION('',(0.,-1.,0.));
#430=DIRECTION('',(0.,0.,-1.));
#431=DIRECTION('',(0.,-1.,0.));
#432=CARTESIAN_POINT('',(0.,0.,0.));
#433=CARTESIAN_POINT('',(103.080454,2168.281361,2141.997242));
#434=CARTESIAN_POINT('',(117.580454,2168.281361,2141.997242));
#435=CARTESIAN_POINT('',(130.030366071959,2168.281361,2109.63426200173));
#436=CARTESIAN_POINT('',(135.310281506972,2168.281361,2106.008294));
#437=CARTESIAN_POINT('',(258.662790091576,2168.281361,2106.008294));
#438=CARTESIAN_POINT('',(415.226271507662,2168.281361,2161.79513631232));
#439=CARTESIAN_POINT('',(422.059490975543,2168.281361,2168.61275145857));
#440=CARTESIAN_POINT('',(429.257961985318,2168.281361,2171.50291932447));
#441=CARTESIAN_POINT('',(434.118570637802,2168.281361,2163.58382981845));
#442=CARTESIAN_POINT('',(428.50229298561,2168.281361,2154.60596651749));
#443=CARTESIAN_POINT('',(330.461444412523,2168.281361,2096.65993329801));
#444=CARTESIAN_POINT('',(238.931153279965,2168.281361,2084.444477));
#445=CARTESIAN_POINT('',(103.080454,2168.281361,2084.444477));
#446=CARTESIAN_POINT('',(103.080454,168.281361,2141.997242));
#447=CARTESIAN_POINT('',(117.580454,168.281361,2141.997242));
#448=CARTESIAN_POINT('',(130.030366071959,168.281361,2109.63426200173));
#449=CARTESIAN_POINT('',(135.310281506971,168.281361,2106.008294));
#450=CARTESIAN_POINT('',(258.662790091575,168.281361,2106.008294));
#451=CARTESIAN_POINT('',(415.226271507662,168.281361,2161.79513631232));
#452=CARTESIAN_POINT('',(422.059490975543,168.281361,2168.61275145858));
#453=CARTESIAN_POINT('',(429.257961985317,168.281361,2171.50291932447));
#454=CARTESIAN_POINT('',(434.118570637801,168.281361,2163.58382981845));
#455=CARTESIAN_POINT('',(428.50229298561,168.281361,2154.60596651749));
#456=CARTESIAN_POINT('',(330.461444412523,168.281361,2096.65993329801));
#457=CARTESIAN_POINT('',(238.931153279964,168.281361,2084.444477));
#458=CARTESIAN_POINT('',(103.080454,168.281361,2084.444477));
#459=CARTESIAN_POINT('',(103.080454,2168.281361,2084.444477));
#460=CARTESIAN_POINT('',(238.931153279965,2168.281361,2084.444477));
#461=CARTESIAN_POINT('',(330.461444412523,2168.281361,2096.65993329801));
#462=CARTESIAN_POINT('',(428.50229298561,2168.281361,2154.60596651749));
#463=CARTESIAN_POINT('',(434.118570637802,2168.281361,2163.58382981845));
#464=CARTESIAN_POINT('',(429.257961985318,2168.281361,2171.50291932447));
#465=CARTESIAN_POINT('',(422.059490975543,2168.281361,2168.61275145857));
#466=CARTESIAN_POINT('',(415.226271507662,2168.281361,2161.79513631232));
#467=CARTESIAN_POINT('',(258.662790091576,2168.281361,2106.008294));
#468=CARTESIAN_POINT('',(135.310281506972,2168.281361,2106.008294));
#469=CARTESIAN_POINT('',(130.030366071959,2168.281361,2109.63426200173));
#470=CARTESIAN_POINT('',(117.580454,2168.281361,2141.997242));
#471=CARTESIAN_POINT('',(103.080454,2168.281361,2141.997242));
#472=CARTESIAN_POINT('',(117.580454,2168.281361,2141.997242));
#473=CARTESIAN_POINT('',(130.03036607196,2168.281361,2109.63426200173));
#474=CARTESIAN_POINT('',(135.310281506972,2168.281361,2111.6654248587));
#475=CARTESIAN_POINT('',(258.662790091575,2168.281361,2106.008294));
#476=CARTESIAN_POINT('',(258.662790091575,2168.281361,2353.59620490605));
#477=CARTESIAN_POINT('',(384.553716800833,2168.281361,2199.37113242622));
#478=CARTESIAN_POINT('',(428.29063325076,2168.281361,2163.50260902899));
#479=CARTESIAN_POINT('',(428.546010188791,2168.281361,2165.61470874604));
#480=CARTESIAN_POINT('',(410.200623557772,2168.281361,2172.30055082321));
#481=CARTESIAN_POINT('',(274.162765583523,2168.281361,2303.82589369896));
#482=CARTESIAN_POINT('',(238.931153279965,2168.281361,2433.46998040143));
#483=CARTESIAN_POINT('',(103.080454,2168.281361,2084.444477));
#484=CARTESIAN_POINT('',(103.080454,2168.281361,2141.997242));
#485=CARTESIAN_POINT('',(117.580454,168.281361,2141.997242));
#486=CARTESIAN_POINT('',(130.030366071959,168.281361,2109.63426200173));
#487=CARTESIAN_POINT('',(135.310281506971,168.281361,2111.6654248587));
#488=CARTESIAN_POINT('',(258.662790091575,168.281361,2106.008294));
#489=CARTESIAN_POINT('',(258.662790091575,168.281361,2353.59620490605));
#490=CARTESIAN_POINT('',(384.553716800832,168.281361,2199.37113242622));
#491=CARTESIAN_POINT('',(428.29063325076,168.281361,2163.50260902899));
#492=CARTESIAN_POINT('',(428.546010188791,168.281361,2165.61470874604));
#493=CARTESIAN_POINT('',(410.200623557771,168.281361,2172.30055082321));
#494=CARTESIAN_POINT('',(274.162765583522,168.281361,2303.82589369897));
#495=CARTESIAN_POINT('',(238.931153279965,168.281361,2433.46998040143));
#496=CARTESIAN_POINT('',(103.080454,168.281361,2084.444477));
#497=CARTESIAN_POINT('',(103.080454,168.281361,2141.997242));
#498=CARTESIAN_POINT('',(103.080454,2168.281361,2141.997242));
#499=CARTESIAN_POINT('',(103.080454,2168.281361,2084.444477));
#500=CARTESIAN_POINT('',(238.931153279965,2168.281361,2433.46998040143));
#501=CARTESIAN_POINT('',(274.162765583523,2168.281361,2303.82589369896));
#502=CARTESIAN_POINT('',(410.200623557772,2168.281361,2172.30055082321));
#503=CARTESIAN_POINT('',(428.546010188791,2168.281361,2165.61470874604));
#504=CARTESIAN_POINT('',(428.29063325076,2168.281361,2163.50260902899));
#505=CARTESIAN_POINT('',(384.553716800833,2168.281361,2199.37113242622));
#506=CARTESIAN_POINT('',(258.662790091575,2168.281361,2353.59620490605));
#507=CARTESIAN_POINT('',(258.662790091575,2168.281361,2106.008294));
#508=CARTESIAN_POINT('',(135.310281506972,2168.281361,2111.6654248587));
#509=CARTESIAN_POINT('',(130.03036607196,2168.281361,2109.63426200173));
#510=CARTESIAN_POINT('',(117.580454,2168.281361,2141.997242));
#511=CARTESIAN_POINT('',(238.931153279965,2168.281361,2433.46998040143));
#512=CARTESIAN_POINT('',(238.931153279965,168.281361,2433.46998040143));
#513=PRODUCT_DEFINITION_SHAPE('','',#514);
#514=PRODUCT_DEFINITION('','',#526,#531);
#515=(
GEOMETRIC_REPRESENTATION_CONTEXT(3)
GLOBAL_UNCERTAINTY_ASSIGNED_CONTEXT((#516))
GLOBAL_UNIT_ASSIGNED_CONTEXT((#518,#517,#521))
REPRESENTATION_CONTEXT('','')
);
#516=UNCERTAINTY_MEASURE_WITH_UNIT(LENGTH_MEASURE(0.001),#518,'','tolerance');
#517=(
CONVERSION_BASED_UNIT('',#519)
NAMED_UNIT(#525)
PLANE_ANGLE_UNIT()
);
#518=(
CONVERSION_BASED_UNIT('',#520)
LENGTH_UNIT()
NAMED_UNIT(#524)
);
#519=PLANE_ANGLE_MEASURE_WITH_UNIT(PLANE_ANGLE_MEASURE(0.0174532925199433),
#522);
#520=LENGTH_MEASURE_WITH_UNIT(LENGTH_MEASURE(1.),#523);
#521=(
NAMED_UNIT(*)
SI_UNIT($,.STERADIAN.)
SOLID_ANGLE_UNIT()
);
#522=(
NAMED_UNIT(*)
PLANE_ANGLE_UNIT()
SI_UNIT($,.RADIAN.)
);
#523=(
LENGTH_UNIT()
NAMED_UNIT(*)
SI_UNIT(.MILLI.,.METRE.)
);
#524=DIMENSIONAL_EXPONENTS(1.,0.,0.,0.,0.,0.,0.);
#525=DIMENSIONAL_EXPONENTS(0.,0.,0.,0.,0.,0.,0.);
#526=PRODUCT_DEFINITION_FORMATION_WITH_SPECIFIED_SOURCE('','',#529,.NOT_KNOWN.
);
#527=PRODUCT_CATEGORY_RELATIONSHIP('','',#532,#528);
#528=PRODUCT_RELATED_PRODUCT_CATEGORY('assembly','',(#529));
#529=PRODUCT('','master','',(#530));
#530=PRODUCT_CONTEXT('',#534,'');
#531=PRODUCT_DEFINITION_CONTEXT('',#534,'part_definition');
#532=PRODUCT_CATEGORY('part','');
#533=APPLICATION_PROTOCOL_DEFINITION('international standard',
'automotive_design_cc2',1994,#534);
#534=APPLICATION_CONTEXT(
'configuration controlled 3D designs of mechanical parts and assemblies');
ENDSEC;
END-ISO-10303-21;
25050