ISO-10303-21;
HEADER;
/* Generated by software using Delcam plc STEP library */

FILE_DESCRIPTION(
/* description */ ('AP-214 File'),
/* implementation_level */ '2;1');

FILE_NAME(
/* name */ 'D712 sans motif',
/* time_stamp */ 'Wed Dec 21 15:20:47 2016',
/* author */ (''),
/* organization */ (''),
/* preprocessor_version */ 'DELCAM STEP V1',
/* originating_system */ 'Exchange7.1.0006',
/* authorisation */ '');

FILE_SCHEMA (('AUTOMOTIVE_DESIGN'));
ENDSEC;
DATA;
#10=PRESENTATION_STYLE_ASSIGNMENT((#20));
#11=PRESENTATION_STYLE_ASSIGNMENT((#21));
#12=SURFACE_SIDE_STYLE('',(#14));
#13=SURFACE_SIDE_STYLE('',(#15));
#14=SURFACE_STYLE_FILL_AREA(#16);
#15=SURFACE_STYLE_FILL_AREA(#17);
#16=FILL_AREA_STYLE('',(#18));
#17=FILL_AREA_STYLE('',(#19));
#18=FILL_AREA_STYLE_COLOUR('',#51);
#19=FILL_AREA_STYLE_COLOUR('',#52);
#20=SURFACE_STYLE_USAGE(.BOTH.,#12);
#21=SURFACE_STYLE_USAGE(.BOTH.,#13);
#22=STYLED_ITEM('',(#10),#79);
#23=STYLED_ITEM('',(#10),#80);
#24=STYLED_ITEM('',(#10),#81);
#25=STYLED_ITEM('',(#10),#82);
#26=STYLED_ITEM('',(#10),#83);
#27=STYLED_ITEM('',(#10),#84);
#28=STYLED_ITEM('',(#10),#85);
#29=STYLED_ITEM('',(#10),#86);
#30=STYLED_ITEM('',(#10),#87);
#31=STYLED_ITEM('',(#10),#88);
#32=STYLED_ITEM('',(#10),#89);
#33=STYLED_ITEM('',(#10),#90);
#34=STYLED_ITEM('',(#10),#91);
#35=STYLED_ITEM('',(#10),#92);
#36=STYLED_ITEM('',(#10),#93);
#37=STYLED_ITEM('',(#10),#94);
#38=STYLED_ITEM('',(#10),#95);
#39=STYLED_ITEM('',(#10),#96);
#40=STYLED_ITEM('',(#10),#97);
#41=STYLED_ITEM('',(#10),#98);
#42=STYLED_ITEM('',(#10),#99);
#43=STYLED_ITEM('',(#10),#100);
#44=STYLED_ITEM('',(#10),#101);
#45=STYLED_ITEM('',(#10),#102);
#46=STYLED_ITEM('',(#10),#103);
#47=STYLED_ITEM('',(#10),#104);
#48=STYLED_ITEM('',(#10),#105);
#49=STYLED_ITEM('',(#10),#106);
#50=STYLED_ITEM('',(#11),#58);
#51=COLOUR_RGB('',0.,0.,0.);
#52=COLOUR_RGB('rgb_colour_1',0.4,0.4,0.4);
#53=MECHANICAL_DESIGN_GEOMETRIC_PRESENTATION_REPRESENTATION('',(#22,#23,#24,
#25,#26,#27,#28,#29,#30,#31,#32,#33,#34,#35,#36,#37,#38,#39,#40,#41,#42,#43,
#44,#45,#46,#47,#48,#49,#50),#957);
#54=PRESENTATION_LAYER_ASSIGNMENT('77','D712',(#79,#80,#81,#82,#83,#84,#85,#86
,#87,#88,#89,#90,#91,#92,#93,#94,#95,#96,#97,#98,#99,#100,#101,#102,#103,#104,
#105,#106,#58));
#55=SHAPE_REPRESENTATION_RELATIONSHIP('','',#598,#56);
#56=ADVANCED_BREP_SHAPE_REPRESENTATION('',(#57),#957);
#57=MANIFOLD_SOLID_BREP('1287',#58);
#58=CLOSED_SHELL('',(#79,#80,#81,#82,#83,#84,#85,#86,#87,#88,#89,#90,#91,#92,
#93,#94,#95,#96,#97,#98,#99,#100,#101,#102,#103,#104,#105,#106));
#59=PLANE('',#619);
#60=PLANE('',#621);
#61=PLANE('',#622);
#62=PLANE('',#623);
#63=PLANE('',#624);
#64=PLANE('',#625);
#65=PLANE('',#626);
#66=PLANE('',#627);
#67=PLANE('',#628);
#68=PLANE('',#631);
#69=PLANE('',#633);
#70=PLANE('',#634);
#71=PLANE('',#635);
#72=PLANE('',#636);
#73=PLANE('',#637);
#74=PLANE('',#638);
#75=PLANE('',#639);
#76=PLANE('',#640);
#77=PLANE('',#642);
#78=PLANE('',#643);
#79=ADVANCED_FACE('',(#107),#319,.F.);
#80=ADVANCED_FACE('',(#108),#320,.T.);
#81=ADVANCED_FACE('',(#109),#321,.T.);
#82=ADVANCED_FACE('',(#110),#59,.F.);
#83=ADVANCED_FACE('',(#111),#322,.T.);
#84=ADVANCED_FACE('',(#112),#60,.F.);
#85=ADVANCED_FACE('',(#113),#61,.F.);
#86=ADVANCED_FACE('',(#114),#62,.F.);
#87=ADVANCED_FACE('',(#115),#63,.F.);
#88=ADVANCED_FACE('',(#116),#64,.F.);
#89=ADVANCED_FACE('',(#117),#65,.F.);
#90=ADVANCED_FACE('',(#118),#66,.F.);
#91=ADVANCED_FACE('',(#119),#67,.F.);
#92=ADVANCED_FACE('',(#120),#323,.T.);
#93=ADVANCED_FACE('',(#121),#324,.T.);
#94=ADVANCED_FACE('',(#122),#68,.F.);
#95=ADVANCED_FACE('',(#123),#325,.F.);
#96=ADVANCED_FACE('',(#124),#69,.F.);
#97=ADVANCED_FACE('',(#125),#70,.F.);
#98=ADVANCED_FACE('',(#126),#71,.F.);
#99=ADVANCED_FACE('',(#127),#72,.F.);
#100=ADVANCED_FACE('',(#128),#73,.F.);
#101=ADVANCED_FACE('',(#129),#74,.F.);
#102=ADVANCED_FACE('',(#130),#75,.F.);
#103=ADVANCED_FACE('',(#131),#76,.F.);
#104=ADVANCED_FACE('',(#132),#326,.F.);
#105=ADVANCED_FACE('',(#133),#77,.F.);
#106=ADVANCED_FACE('',(#134),#78,.T.);
#107=FACE_OUTER_BOUND('',#135,.T.);
#108=FACE_OUTER_BOUND('',#136,.T.);
#109=FACE_OUTER_BOUND('',#137,.T.);
#110=FACE_OUTER_BOUND('',#138,.T.);
#111=FACE_OUTER_BOUND('',#139,.T.);
#112=FACE_OUTER_BOUND('',#140,.T.);
#113=FACE_OUTER_BOUND('',#141,.T.);
#114=FACE_OUTER_BOUND('',#142,.T.);
#115=FACE_OUTER_BOUND('',#143,.T.);
#116=FACE_OUTER_BOUND('',#144,.T.);
#117=FACE_OUTER_BOUND('',#145,.T.);
#118=FACE_OUTER_BOUND('',#146,.T.);
#119=FACE_OUTER_BOUND('',#147,.T.);
#120=FACE_OUTER_BOUND('',#148,.T.);
#121=FACE_OUTER_BOUND('',#149,.T.);
#122=FACE_OUTER_BOUND('',#150,.T.);
#123=FACE_OUTER_BOUND('',#151,.T.);
#124=FACE_OUTER_BOUND('',#152,.T.);
#125=FACE_OUTER_BOUND('',#153,.T.);
#126=FACE_OUTER_BOUND('',#154,.T.);
#127=FACE_OUTER_BOUND('',#155,.T.);
#128=FACE_OUTER_BOUND('',#156,.T.);
#129=FACE_OUTER_BOUND('',#157,.T.);
#130=FACE_OUTER_BOUND('',#158,.T.);
#131=FACE_OUTER_BOUND('',#159,.T.);
#132=FACE_OUTER_BOUND('',#160,.T.);
#133=FACE_OUTER_BOUND('',#161,.T.);
#134=FACE_OUTER_BOUND('',#162,.T.);
#135=EDGE_LOOP('',(#163,#164,#165,#166));
#136=EDGE_LOOP('',(#167,#168,#169,#170));
#137=EDGE_LOOP('',(#171,#172,#173,#174));
#138=EDGE_LOOP('',(#175,#176,#177,#178));
#139=EDGE_LOOP('',(#179,#180,#181,#182));
#140=EDGE_LOOP('',(#183,#184,#185,#186));
#141=EDGE_LOOP('',(#187,#188,#189,#190));
#142=EDGE_LOOP('',(#191,#192,#193,#194));
#143=EDGE_LOOP('',(#195,#196,#197,#198));
#144=EDGE_LOOP('',(#199,#200,#201,#202));
#145=EDGE_LOOP('',(#203,#204,#205,#206));
#146=EDGE_LOOP('',(#207,#208,#209,#210));
#147=EDGE_LOOP('',(#211,#212,#213,#214));
#148=EDGE_LOOP('',(#215,#216,#217,#218));
#149=EDGE_LOOP('',(#219,#220,#221,#222));
#150=EDGE_LOOP('',(#223,#224,#225,#226));
#151=EDGE_LOOP('',(#227,#228,#229,#230));
#152=EDGE_LOOP('',(#231,#232,#233,#234));
#153=EDGE_LOOP('',(#235,#236,#237,#238));
#154=EDGE_LOOP('',(#239,#240,#241,#242));
#155=EDGE_LOOP('',(#243,#244,#245,#246));
#156=EDGE_LOOP('',(#247,#248,#249,#250));
#157=EDGE_LOOP('',(#251,#252,#253,#254));
#158=EDGE_LOOP('',(#255,#256,#257,#258));
#159=EDGE_LOOP('',(#259,#260,#261,#262));
#160=EDGE_LOOP('',(#263,#264,#265,#266));
#161=EDGE_LOOP('',(#267,#268,#269,#270,#271,#272,#273,#274,#275,#276,#277,#278
,#279,#280,#281,#282,#283,#284,#285,#286,#287,#288,#289,#290,#291,#292));
#162=EDGE_LOOP('',(#293,#294,#295,#296,#297,#298,#299,#300,#301,#302,#303,#304
,#305,#306,#307,#308,#309,#310,#311,#312,#313,#314,#315,#316,#317,#318));
#163=ORIENTED_EDGE('',*,*,#420,.T.);
#164=ORIENTED_EDGE('',*,*,#343,.F.);
#165=ORIENTED_EDGE('',*,*,#394,.F.);
#166=ORIENTED_EDGE('',*,*,#368,.T.);
#167=ORIENTED_EDGE('',*,*,#419,.T.);
#168=ORIENTED_EDGE('',*,*,#344,.F.);
#169=ORIENTED_EDGE('',*,*,#393,.F.);
#170=ORIENTED_EDGE('',*,*,#343,.T.);
#171=ORIENTED_EDGE('',*,*,#418,.T.);
#172=ORIENTED_EDGE('',*,*,#345,.F.);
#173=ORIENTED_EDGE('',*,*,#392,.F.);
#174=ORIENTED_EDGE('',*,*,#344,.T.);
#175=ORIENTED_EDGE('',*,*,#417,.T.);
#176=ORIENTED_EDGE('',*,*,#346,.F.);
#177=ORIENTED_EDGE('',*,*,#391,.F.);
#178=ORIENTED_EDGE('',*,*,#345,.T.);
#179=ORIENTED_EDGE('',*,*,#416,.T.);
#180=ORIENTED_EDGE('',*,*,#347,.F.);
#181=ORIENTED_EDGE('',*,*,#390,.F.);
#182=ORIENTED_EDGE('',*,*,#346,.T.);
#183=ORIENTED_EDGE('',*,*,#415,.T.);
#184=ORIENTED_EDGE('',*,*,#348,.F.);
#185=ORIENTED_EDGE('',*,*,#389,.F.);
#186=ORIENTED_EDGE('',*,*,#347,.T.);
#187=ORIENTED_EDGE('',*,*,#414,.T.);
#188=ORIENTED_EDGE('',*,*,#349,.F.);
#189=ORIENTED_EDGE('',*,*,#388,.F.);
#190=ORIENTED_EDGE('',*,*,#348,.T.);
#191=ORIENTED_EDGE('',*,*,#413,.T.);
#192=ORIENTED_EDGE('',*,*,#350,.F.);
#193=ORIENTED_EDGE('',*,*,#387,.F.);
#194=ORIENTED_EDGE('',*,*,#349,.T.);
#195=ORIENTED_EDGE('',*,*,#412,.T.);
#196=ORIENTED_EDGE('',*,*,#351,.F.);
#197=ORIENTED_EDGE('',*,*,#386,.F.);
#198=ORIENTED_EDGE('',*,*,#350,.T.);
#199=ORIENTED_EDGE('',*,*,#411,.T.);
#200=ORIENTED_EDGE('',*,*,#352,.F.);
#201=ORIENTED_EDGE('',*,*,#385,.F.);
#202=ORIENTED_EDGE('',*,*,#351,.T.);
#203=ORIENTED_EDGE('',*,*,#410,.T.);
#204=ORIENTED_EDGE('',*,*,#353,.F.);
#205=ORIENTED_EDGE('',*,*,#384,.F.);
#206=ORIENTED_EDGE('',*,*,#352,.T.);
#207=ORIENTED_EDGE('',*,*,#409,.T.);
#208=ORIENTED_EDGE('',*,*,#354,.F.);
#209=ORIENTED_EDGE('',*,*,#383,.F.);
#210=ORIENTED_EDGE('',*,*,#353,.T.);
#211=ORIENTED_EDGE('',*,*,#408,.T.);
#212=ORIENTED_EDGE('',*,*,#355,.F.);
#213=ORIENTED_EDGE('',*,*,#382,.F.);
#214=ORIENTED_EDGE('',*,*,#354,.T.);
#215=ORIENTED_EDGE('',*,*,#407,.T.);
#216=ORIENTED_EDGE('',*,*,#356,.F.);
#217=ORIENTED_EDGE('',*,*,#381,.F.);
#218=ORIENTED_EDGE('',*,*,#355,.T.);
#219=ORIENTED_EDGE('',*,*,#406,.T.);
#220=ORIENTED_EDGE('',*,*,#357,.F.);
#221=ORIENTED_EDGE('',*,*,#380,.F.);
#222=ORIENTED_EDGE('',*,*,#356,.T.);
#223=ORIENTED_EDGE('',*,*,#405,.T.);
#224=ORIENTED_EDGE('',*,*,#358,.F.);
#225=ORIENTED_EDGE('',*,*,#379,.F.);
#226=ORIENTED_EDGE('',*,*,#357,.T.);
#227=ORIENTED_EDGE('',*,*,#404,.T.);
#228=ORIENTED_EDGE('',*,*,#359,.F.);
#229=ORIENTED_EDGE('',*,*,#378,.F.);
#230=ORIENTED_EDGE('',*,*,#358,.T.);
#231=ORIENTED_EDGE('',*,*,#403,.T.);
#232=ORIENTED_EDGE('',*,*,#360,.F.);
#233=ORIENTED_EDGE('',*,*,#377,.F.);
#234=ORIENTED_EDGE('',*,*,#359,.T.);
#235=ORIENTED_EDGE('',*,*,#402,.T.);
#236=ORIENTED_EDGE('',*,*,#361,.F.);
#237=ORIENTED_EDGE('',*,*,#376,.F.);
#238=ORIENTED_EDGE('',*,*,#360,.T.);
#239=ORIENTED_EDGE('',*,*,#401,.T.);
#240=ORIENTED_EDGE('',*,*,#362,.F.);
#241=ORIENTED_EDGE('',*,*,#375,.F.);
#242=ORIENTED_EDGE('',*,*,#361,.T.);
#243=ORIENTED_EDGE('',*,*,#400,.T.);
#244=ORIENTED_EDGE('',*,*,#363,.F.);
#245=ORIENTED_EDGE('',*,*,#374,.F.);
#246=ORIENTED_EDGE('',*,*,#362,.T.);
#247=ORIENTED_EDGE('',*,*,#399,.T.);
#248=ORIENTED_EDGE('',*,*,#364,.F.);
#249=ORIENTED_EDGE('',*,*,#373,.F.);
#250=ORIENTED_EDGE('',*,*,#363,.T.);
#251=ORIENTED_EDGE('',*,*,#398,.T.);
#252=ORIENTED_EDGE('',*,*,#365,.F.);
#253=ORIENTED_EDGE('',*,*,#372,.F.);
#254=ORIENTED_EDGE('',*,*,#364,.T.);
#255=ORIENTED_EDGE('',*,*,#397,.T.);
#256=ORIENTED_EDGE('',*,*,#366,.F.);
#257=ORIENTED_EDGE('',*,*,#371,.F.);
#258=ORIENTED_EDGE('',*,*,#365,.T.);
#259=ORIENTED_EDGE('',*,*,#396,.T.);
#260=ORIENTED_EDGE('',*,*,#367,.F.);
#261=ORIENTED_EDGE('',*,*,#370,.F.);
#262=ORIENTED_EDGE('',*,*,#366,.T.);
#263=ORIENTED_EDGE('',*,*,#395,.T.);
#264=ORIENTED_EDGE('',*,*,#368,.F.);
#265=ORIENTED_EDGE('',*,*,#369,.F.);
#266=ORIENTED_EDGE('',*,*,#367,.T.);
#267=ORIENTED_EDGE('',*,*,#394,.T.);
#268=ORIENTED_EDGE('',*,*,#393,.T.);
#269=ORIENTED_EDGE('',*,*,#392,.T.);
#270=ORIENTED_EDGE('',*,*,#391,.T.);
#271=ORIENTED_EDGE('',*,*,#390,.T.);
#272=ORIENTED_EDGE('',*,*,#389,.T.);
#273=ORIENTED_EDGE('',*,*,#388,.T.);
#274=ORIENTED_EDGE('',*,*,#387,.T.);
#275=ORIENTED_EDGE('',*,*,#386,.T.);
#276=ORIENTED_EDGE('',*,*,#385,.T.);
#277=ORIENTED_EDGE('',*,*,#384,.T.);
#278=ORIENTED_EDGE('',*,*,#383,.T.);
#279=ORIENTED_EDGE('',*,*,#382,.T.);
#280=ORIENTED_EDGE('',*,*,#381,.T.);
#281=ORIENTED_EDGE('',*,*,#380,.T.);
#282=ORIENTED_EDGE('',*,*,#379,.T.);
#283=ORIENTED_EDGE('',*,*,#378,.T.);
#284=ORIENTED_EDGE('',*,*,#377,.T.);
#285=ORIENTED_EDGE('',*,*,#376,.T.);
#286=ORIENTED_EDGE('',*,*,#375,.T.);
#287=ORIENTED_EDGE('',*,*,#374,.T.);
#288=ORIENTED_EDGE('',*,*,#373,.T.);
#289=ORIENTED_EDGE('',*,*,#372,.T.);
#290=ORIENTED_EDGE('',*,*,#371,.T.);
#291=ORIENTED_EDGE('',*,*,#370,.T.);
#292=ORIENTED_EDGE('',*,*,#369,.T.);
#293=ORIENTED_EDGE('',*,*,#420,.F.);
#294=ORIENTED_EDGE('',*,*,#395,.F.);
#295=ORIENTED_EDGE('',*,*,#396,.F.);
#296=ORIENTED_EDGE('',*,*,#397,.F.);
#297=ORIENTED_EDGE('',*,*,#398,.F.);
#298=ORIENTED_EDGE('',*,*,#399,.F.);
#299=ORIENTED_EDGE('',*,*,#400,.F.);
#300=ORIENTED_EDGE('',*,*,#401,.F.);
#301=ORIENTED_EDGE('',*,*,#402,.F.);
#302=ORIENTED_EDGE('',*,*,#403,.F.);
#303=ORIENTED_EDGE('',*,*,#404,.F.);
#304=ORIENTED_EDGE('',*,*,#405,.F.);
#305=ORIENTED_EDGE('',*,*,#406,.F.);
#306=ORIENTED_EDGE('',*,*,#407,.F.);
#307=ORIENTED_EDGE('',*,*,#408,.F.);
#308=ORIENTED_EDGE('',*,*,#409,.F.);
#309=ORIENTED_EDGE('',*,*,#410,.F.);
#310=ORIENTED_EDGE('',*,*,#411,.F.);
#311=ORIENTED_EDGE('',*,*,#412,.F.);
#312=ORIENTED_EDGE('',*,*,#413,.F.);
#313=ORIENTED_EDGE('',*,*,#414,.F.);
#314=ORIENTED_EDGE('',*,*,#415,.F.);
#315=ORIENTED_EDGE('',*,*,#416,.F.);
#316=ORIENTED_EDGE('',*,*,#417,.F.);
#317=ORIENTED_EDGE('',*,*,#418,.F.);
#318=ORIENTED_EDGE('',*,*,#419,.F.);
#319=CYLINDRICAL_SURFACE('',#616,286.537783241582);
#320=CYLINDRICAL_SURFACE('',#617,9.48908716139191);
#321=CYLINDRICAL_SURFACE('',#618,3.47963111087969);
#322=CYLINDRICAL_SURFACE('',#620,3.30074990652494);
#323=CYLINDRICAL_SURFACE('',#629,36.9586016546158);
#324=CYLINDRICAL_SURFACE('',#630,13.3634261125946);
#325=CYLINDRICAL_SURFACE('',#632,10.5081006939081);
#326=CYLINDRICAL_SURFACE('',#641,15.6757631825135);
#327=CIRCLE('',#600,15.6757631825135);
#328=CIRCLE('',#601,10.5081006939081);
#329=CIRCLE('',#602,13.3634261125946);
#330=CIRCLE('',#603,36.9586016546158);
#331=CIRCLE('',#604,3.30074990652494);
#332=CIRCLE('',#605,3.47963111087969);
#333=CIRCLE('',#606,9.48908716139191);
#334=CIRCLE('',#607,286.537783241582);
#335=CIRCLE('',#608,15.6757631825135);
#336=CIRCLE('',#609,10.5081006939081);
#337=CIRCLE('',#610,13.3634261125946);
#338=CIRCLE('',#611,36.9586016546158);
#339=CIRCLE('',#612,3.30074990652494);
#340=CIRCLE('',#613,3.47963111087969);
#341=CIRCLE('',#614,9.48908716139191);
#342=CIRCLE('',#615,286.537783241582);
#343=EDGE_CURVE('',#570,#596,#421,.T.);
#344=EDGE_CURVE('',#569,#595,#422,.T.);
#345=EDGE_CURVE('',#568,#594,#423,.T.);
#346=EDGE_CURVE('',#567,#593,#424,.T.);
#347=EDGE_CURVE('',#566,#592,#425,.T.);
#348=EDGE_CURVE('',#565,#591,#426,.T.);
#349=EDGE_CURVE('',#564,#590,#427,.T.);
#350=EDGE_CURVE('',#563,#589,#428,.T.);
#351=EDGE_CURVE('',#562,#588,#429,.T.);
#352=EDGE_CURVE('',#561,#587,#430,.T.);
#353=EDGE_CURVE('',#560,#586,#431,.T.);
#354=EDGE_CURVE('',#559,#585,#432,.T.);
#355=EDGE_CURVE('',#558,#584,#433,.T.);
#356=EDGE_CURVE('',#557,#583,#434,.T.);
#357=EDGE_CURVE('',#556,#582,#435,.T.);
#358=EDGE_CURVE('',#555,#581,#436,.T.);
#359=EDGE_CURVE('',#554,#580,#437,.T.);
#360=EDGE_CURVE('',#553,#579,#438,.T.);
#361=EDGE_CURVE('',#552,#578,#439,.T.);
#362=EDGE_CURVE('',#551,#577,#440,.T.);
#363=EDGE_CURVE('',#550,#576,#441,.T.);
#364=EDGE_CURVE('',#549,#575,#442,.T.);
#365=EDGE_CURVE('',#548,#574,#443,.T.);
#366=EDGE_CURVE('',#547,#573,#444,.T.);
#367=EDGE_CURVE('',#546,#572,#445,.T.);
#368=EDGE_CURVE('',#545,#571,#446,.T.);
#369=EDGE_CURVE('',#546,#545,#327,.T.);
#370=EDGE_CURVE('',#547,#546,#447,.T.);
#371=EDGE_CURVE('',#548,#547,#448,.T.);
#372=EDGE_CURVE('',#549,#548,#449,.T.);
#373=EDGE_CURVE('',#550,#549,#450,.T.);
#374=EDGE_CURVE('',#551,#550,#451,.T.);
#375=EDGE_CURVE('',#552,#551,#452,.T.);
#376=EDGE_CURVE('',#553,#552,#453,.T.);
#377=EDGE_CURVE('',#554,#553,#454,.T.);
#378=EDGE_CURVE('',#555,#554,#328,.T.);
#379=EDGE_CURVE('',#556,#555,#455,.T.);
#380=EDGE_CURVE('',#557,#556,#329,.T.);
#381=EDGE_CURVE('',#558,#557,#330,.T.);
#382=EDGE_CURVE('',#559,#558,#456,.T.);
#383=EDGE_CURVE('',#560,#559,#457,.T.);
#384=EDGE_CURVE('',#561,#560,#458,.T.);
#385=EDGE_CURVE('',#562,#561,#459,.T.);
#386=EDGE_CURVE('',#563,#562,#460,.T.);
#387=EDGE_CURVE('',#564,#563,#461,.T.);
#388=EDGE_CURVE('',#565,#564,#462,.T.);
#389=EDGE_CURVE('',#566,#565,#463,.T.);
#390=EDGE_CURVE('',#567,#566,#331,.T.);
#391=EDGE_CURVE('',#568,#567,#464,.T.);
#392=EDGE_CURVE('',#569,#568,#332,.T.);
#393=EDGE_CURVE('',#570,#569,#333,.T.);
#394=EDGE_CURVE('',#545,#570,#334,.T.);
#395=EDGE_CURVE('',#572,#571,#335,.T.);
#396=EDGE_CURVE('',#573,#572,#465,.T.);
#397=EDGE_CURVE('',#574,#573,#466,.T.);
#398=EDGE_CURVE('',#575,#574,#467,.T.);
#399=EDGE_CURVE('',#576,#575,#468,.T.);
#400=EDGE_CURVE('',#577,#576,#469,.T.);
#401=EDGE_CURVE('',#578,#577,#470,.T.);
#402=EDGE_CURVE('',#579,#578,#471,.T.);
#403=EDGE_CURVE('',#580,#579,#472,.T.);
#404=EDGE_CURVE('',#581,#580,#336,.T.);
#405=EDGE_CURVE('',#582,#581,#473,.T.);
#406=EDGE_CURVE('',#583,#582,#337,.T.);
#407=EDGE_CURVE('',#584,#583,#338,.T.);
#408=EDGE_CURVE('',#585,#584,#474,.T.);
#409=EDGE_CURVE('',#586,#585,#475,.T.);
#410=EDGE_CURVE('',#587,#586,#476,.T.);
#411=EDGE_CURVE('',#588,#587,#477,.T.);
#412=EDGE_CURVE('',#589,#588,#478,.T.);
#413=EDGE_CURVE('',#590,#589,#479,.T.);
#414=EDGE_CURVE('',#591,#590,#480,.T.);
#415=EDGE_CURVE('',#592,#591,#481,.T.);
#416=EDGE_CURVE('',#593,#592,#339,.T.);
#417=EDGE_CURVE('',#594,#593,#482,.T.);
#418=EDGE_CURVE('',#595,#594,#340,.T.);
#419=EDGE_CURVE('',#596,#595,#341,.T.);
#420=EDGE_CURVE('',#571,#596,#342,.T.);
#421=LINE('',#849,#483);
#422=LINE('',#850,#484);
#423=LINE('',#851,#485);
#424=LINE('',#852,#486);
#425=LINE('',#853,#487);
#426=LINE('',#854,#488);
#427=LINE('',#855,#489);
#428=LINE('',#856,#490);
#429=LINE('',#857,#491);
#430=LINE('',#858,#492);
#431=LINE('',#859,#493);
#432=LINE('',#860,#494);
#433=LINE('',#861,#495);
#434=LINE('',#862,#496);
#435=LINE('',#863,#497);
#436=LINE('',#864,#498);
#437=LINE('',#865,#499);
#438=LINE('',#866,#500);
#439=LINE('',#867,#501);
#440=LINE('',#868,#502);
#441=LINE('',#869,#503);
#442=LINE('',#870,#504);
#443=LINE('',#871,#505);
#444=LINE('',#872,#506);
#445=LINE('',#873,#507);
#446=LINE('',#874,#508);
#447=LINE('',#876,#509);
#448=LINE('',#877,#510);
#449=LINE('',#878,#511);
#450=LINE('',#879,#512);
#451=LINE('',#880,#513);
#452=LINE('',#881,#514);
#453=LINE('',#882,#515);
#454=LINE('',#883,#516);
#455=LINE('',#885,#517);
#456=LINE('',#888,#518);
#457=LINE('',#889,#519);
#458=LINE('',#890,#520);
#459=LINE('',#891,#521);
#460=LINE('',#892,#522);
#461=LINE('',#893,#523);
#462=LINE('',#894,#524);
#463=LINE('',#895,#525);
#464=LINE('',#897,#526);
#465=LINE('',#902,#527);
#466=LINE('',#903,#528);
#467=LINE('',#904,#529);
#468=LINE('',#905,#530);
#469=LINE('',#906,#531);
#470=LINE('',#907,#532);
#471=LINE('',#908,#533);
#472=LINE('',#909,#534);
#473=LINE('',#911,#535);
#474=LINE('',#914,#536);
#475=LINE('',#915,#537);
#476=LINE('',#916,#538);
#477=LINE('',#917,#539);
#478=LINE('',#918,#540);
#479=LINE('',#919,#541);
#480=LINE('',#920,#542);
#481=LINE('',#921,#543);
#482=LINE('',#923,#544);
#483=VECTOR('',#646,1.);
#484=VECTOR('',#647,1.);
#485=VECTOR('',#648,1.);
#486=VECTOR('',#649,1.);
#487=VECTOR('',#650,1.);
#488=VECTOR('',#651,1.);
#489=VECTOR('',#652,1.);
#490=VECTOR('',#653,1.);
#491=VECTOR('',#654,1.);
#492=VECTOR('',#655,1.);
#493=VECTOR('',#656,1.);
#494=VECTOR('',#657,1.);
#495=VECTOR('',#658,1.);
#496=VECTOR('',#659,1.);
#497=VECTOR('',#660,1.);
#498=VECTOR('',#661,1.);
#499=VECTOR('',#662,1.);
#500=VECTOR('',#663,1.);
#501=VECTOR('',#664,1.);
#502=VECTOR('',#665,1.);
#503=VECTOR('',#666,1.);
#504=VECTOR('',#667,1.);
#505=VECTOR('',#668,1.);
#506=VECTOR('',#669,1.);
#507=VECTOR('',#670,1.);
#508=VECTOR('',#671,1.);
#509=VECTOR('',#674,1.);
#510=VECTOR('',#675,1.);
#511=VECTOR('',#676,1.);
#512=VECTOR('',#677,1.);
#513=VECTOR('',#678,1.);
#514=VECTOR('',#679,1.);
#515=VECTOR('',#680,1.);
#516=VECTOR('',#681,1.);
#517=VECTOR('',#684,1.);
#518=VECTOR('',#689,1.);
#519=VECTOR('',#690,1.);
#520=VECTOR('',#691,1.);
#521=VECTOR('',#692,1.);
#522=VECTOR('',#693,1.);
#523=VECTOR('',#694,1.);
#524=VECTOR('',#695,1.);
#525=VECTOR('',#696,1.);
#526=VECTOR('',#699,1.);
#527=VECTOR('',#708,1.);
#528=VECTOR('',#709,1.);
#529=VECTOR('',#710,1.);
#530=VECTOR('',#711,1.);
#531=VECTOR('',#712,1.);
#532=VECTOR('',#713,1.);
#533=VECTOR('',#714,1.);
#534=VECTOR('',#715,1.);
#535=VECTOR('',#718,1.);
#536=VECTOR('',#723,1.);
#537=VECTOR('',#724,1.);
#538=VECTOR('',#725,1.);
#539=VECTOR('',#726,1.);
#540=VECTOR('',#727,1.);
#541=VECTOR('',#728,1.);
#542=VECTOR('',#729,1.);
#543=VECTOR('',#730,1.);
#544=VECTOR('',#733,1.);
#545=VERTEX_POINT('',#797);
#546=VERTEX_POINT('',#798);
#547=VERTEX_POINT('',#799);
#548=VERTEX_POINT('',#800);
#549=VERTEX_POINT('',#801);
#550=VERTEX_POINT('',#802);
#551=VERTEX_POINT('',#803);
#552=VERTEX_POINT('',#804);
#553=VERTEX_POINT('',#805);
#554=VERTEX_POINT('',#806);
#555=VERTEX_POINT('',#807);
#556=VERTEX_POINT('',#808);
#557=VERTEX_POINT('',#809);
#558=VERTEX_POINT('',#810);
#559=VERTEX_POINT('',#811);
#560=VERTEX_POINT('',#812);
#561=VERTEX_POINT('',#813);
#562=VERTEX_POINT('',#814);
#563=VERTEX_POINT('',#815);
#564=VERTEX_POINT('',#816);
#565=VERTEX_POINT('',#817);
#566=VERTEX_POINT('',#818);
#567=VERTEX_POINT('',#819);
#568=VERTEX_POINT('',#820);
#569=VERTEX_POINT('',#821);
#570=VERTEX_POINT('',#822);
#571=VERTEX_POINT('',#823);
#572=VERTEX_POINT('',#824);
#573=VERTEX_POINT('',#825);
#574=VERTEX_POINT('',#826);
#575=VERTEX_POINT('',#827);
#576=VERTEX_POINT('',#828);
#577=VERTEX_POINT('',#829);
#578=VERTEX_POINT('',#830);
#579=VERTEX_POINT('',#831);
#580=VERTEX_POINT('',#832);
#581=VERTEX_POINT('',#833);
#582=VERTEX_POINT('',#834);
#583=VERTEX_POINT('',#835);
#584=VERTEX_POINT('',#836);
#585=VERTEX_POINT('',#837);
#586=VERTEX_POINT('',#838);
#587=VERTEX_POINT('',#839);
#588=VERTEX_POINT('',#840);
#589=VERTEX_POINT('',#841);
#590=VERTEX_POINT('',#842);
#591=VERTEX_POINT('',#843);
#592=VERTEX_POINT('',#844);
#593=VERTEX_POINT('',#845);
#594=VERTEX_POINT('',#846);
#595=VERTEX_POINT('',#847);
#596=VERTEX_POINT('',#848);
#597=SHAPE_DEFINITION_REPRESENTATION(#955,#598);
#598=SHAPE_REPRESENTATION('master',(#599),#957);
#599=AXIS2_PLACEMENT_3D('',#796,#645,#644);
#600=AXIS2_PLACEMENT_3D('',#875,#673,#672);
#601=AXIS2_PLACEMENT_3D('',#884,#683,#682);
#602=AXIS2_PLACEMENT_3D('',#886,#686,#685);
#603=AXIS2_PLACEMENT_3D('',#887,#688,#687);
#604=AXIS2_PLACEMENT_3D('',#896,#698,#697);
#605=AXIS2_PLACEMENT_3D('',#898,#701,#700);
#606=AXIS2_PLACEMENT_3D('',#899,#703,#702);
#607=AXIS2_PLACEMENT_3D('',#900,#705,#704);
#608=AXIS2_PLACEMENT_3D('',#901,#707,#706);
#609=AXIS2_PLACEMENT_3D('',#910,#717,#716);
#610=AXIS2_PLACEMENT_3D('',#912,#720,#719);
#611=AXIS2_PLACEMENT_3D('',#913,#722,#721);
#612=AXIS2_PLACEMENT_3D('',#922,#732,#731);
#613=AXIS2_PLACEMENT_3D('',#924,#735,#734);
#614=AXIS2_PLACEMENT_3D('',#925,#737,#736);
#615=AXIS2_PLACEMENT_3D('',#926,#739,#738);
#616=AXIS2_PLACEMENT_3D('',#927,#741,#740);
#617=AXIS2_PLACEMENT_3D('',#928,#743,#742);
#618=AXIS2_PLACEMENT_3D('',#929,#745,#744);
#619=AXIS2_PLACEMENT_3D('',#930,#747,#746);
#620=AXIS2_PLACEMENT_3D('',#931,#749,#748);
#621=AXIS2_PLACEMENT_3D('',#932,#751,#750);
#622=AXIS2_PLACEMENT_3D('',#933,#753,#752);
#623=AXIS2_PLACEMENT_3D('',#934,#755,#754);
#624=AXIS2_PLACEMENT_3D('',#935,#757,#756);
#625=AXIS2_PLACEMENT_3D('',#936,#759,#758);
#626=AXIS2_PLACEMENT_3D('',#937,#761,#760);
#627=AXIS2_PLACEMENT_3D('',#938,#763,#762);
#628=AXIS2_PLACEMENT_3D('',#939,#765,#764);
#629=AXIS2_PLACEMENT_3D('',#940,#767,#766);
#630=AXIS2_PLACEMENT_3D('',#941,#769,#768);
#631=AXIS2_PLACEMENT_3D('',#942,#771,#770);
#632=AXIS2_PLACEMENT_3D('',#943,#773,#772);
#633=AXIS2_PLACEMENT_3D('',#944,#775,#774);
#634=AXIS2_PLACEMENT_3D('',#945,#777,#776);
#635=AXIS2_PLACEMENT_3D('',#946,#779,#778);
#636=AXIS2_PLACEMENT_3D('',#947,#781,#780);
#637=AXIS2_PLACEMENT_3D('',#948,#783,#782);
#638=AXIS2_PLACEMENT_3D('',#949,#785,#784);
#639=AXIS2_PLACEMENT_3D('',#950,#787,#786);
#640=AXIS2_PLACEMENT_3D('',#951,#789,#788);
#641=AXIS2_PLACEMENT_3D('',#952,#791,#790);
#642=AXIS2_PLACEMENT_3D('',#953,#793,#792);
#643=AXIS2_PLACEMENT_3D('',#954,#795,#794);
#644=DIRECTION('',(1.,0.,0.));
#645=DIRECTION('',(0.,0.,1.));
#646=DIRECTION('',(-2.30054774325926E-015,-1.,2.93183932380842E-014));
#647=DIRECTION('',(-2.30054774325926E-015,-1.,2.93183932380842E-014));
#648=DIRECTION('',(-2.30054774325926E-015,-1.,2.93183932380842E-014));
#649=DIRECTION('',(-2.30054774325926E-015,-1.,2.93183932380842E-014));
#650=DIRECTION('',(-2.30054774325926E-015,-1.,2.93183932380842E-014));
#651=DIRECTION('',(-2.30054774325926E-015,-1.,2.93183932380842E-014));
#652=DIRECTION('',(-2.30054774325926E-015,-1.,2.93183932380842E-014));
#653=DIRECTION('',(-2.30054774325926E-015,-1.,2.93183932380842E-014));
#654=DIRECTION('',(-2.30054774325926E-015,-1.,2.93183932380842E-014));
#655=DIRECTION('',(-2.30054774325926E-015,-1.,2.93183932380842E-014));
#656=DIRECTION('',(-2.30054774325926E-015,-1.,2.93183932380842E-014));
#657=DIRECTION('',(-2.30054774325926E-015,-1.,2.93183932380842E-014));
#658=DIRECTION('',(-2.30054774325926E-015,-1.,2.93183932380842E-014));
#659=DIRECTION('',(-2.30054774325926E-015,-1.,2.93183932380842E-014));
#660=DIRECTION('',(-2.30054774325926E-015,-1.,2.93183932380842E-014));
#661=DIRECTION('',(-2.30054774325926E-015,-1.,2.93183932380842E-014));
#662=DIRECTION('',(-2.30054774325926E-015,-1.,2.93183932380842E-014));
#663=DIRECTION('',(-2.30054774325926E-015,-1.,2.93183932380842E-014));
#664=DIRECTION('',(-2.30054774325926E-015,-1.,2.93183932380842E-014));
#665=DIRECTION('',(-2.30054774325926E-015,-1.,2.93183932380842E-014));
#666=DIRECTION('',(-2.30054774325926E-015,-1.,2.93183932380842E-014));
#667=DIRECTION('',(-2.30054774325926E-015,-1.,2.93183932380842E-014));
#668=DIRECTION('',(-2.30054774325926E-015,-1.,2.93183932380842E-014));
#669=DIRECTION('',(-2.30054774325926E-015,-1.,2.93183932380842E-014));
#670=DIRECTION('',(-2.30054774325926E-015,-1.,2.93183932380842E-014));
#671=DIRECTION('',(-2.30054774325926E-015,-1.,2.93183932380842E-014));
#672=DIRECTION('',(-0.0427623675973729,0.,0.999085271594706));
#673=DIRECTION('',(0.,-1.,0.));
#674=DIRECTION('',(-0.100166364831227,0.,-0.994970702762899));
#675=DIRECTION('',(1.,-0.,-0.));
#676=DIRECTION('',(0.752922061530104,-0.,0.658109693942627));
#677=DIRECTION('',(0.998516586690749,0.,0.0544483801729239));
#678=DIRECTION('',(0.769353510658515,-0.,0.638823274182632));
#679=DIRECTION('',(-0.,-0.,1.));
#680=DIRECTION('',(-0.990938331881412,-0.,-0.134317617638508));
#681=DIRECTION('',(-0.261896009237411,0.,-0.965096099020982));
#682=DIRECTION('',(-0.279983234427498,0.,0.960004889799795));
#683=DIRECTION('',(0.,-1.,0.));
#684=DIRECTION('',(2.36954418832929E-014,-0.,-1.));
#685=DIRECTION('',(0.917879372800921,0.,-0.396859492751008));
#686=DIRECTION('',(0.,1.,0.));
#687=DIRECTION('',(0.969012361922356,0.,-0.247012231360428));
#688=DIRECTION('',(0.,1.,0.));
#689=DIRECTION('',(-0.989480518773863,-0.,-0.144666177688523));
#690=DIRECTION('',(-0.397143033956994,-0.,-0.917756727340875));
#691=DIRECTION('',(-0.996759440200583,-0.,-0.0804401539718826));
#692=DIRECTION('',(-0.188847299039204,-0.,-0.98200646517505));
#693=DIRECTION('',(-1.,-0.,-0.));
#694=DIRECTION('',(-0.999464821679526,-0.,-0.0327119278721574));
#695=DIRECTION('',(-0.521215428118026,-0.,0.853425144632933));
#696=DIRECTION('',(-0.997503311534513,-0.,-0.0706197102633606));
#697=DIRECTION('',(0.78714194813131,0.,-0.616771881243013));
#698=DIRECTION('',(0.,1.,0.));
#699=DIRECTION('',(-1.,-0.,-0.));
#700=DIRECTION('',(-0.0497424301087296,0.,-0.998762079099361));
#701=DIRECTION('',(0.,1.,0.));
#702=DIRECTION('',(0.804649190200491,0.,-0.593750520597408));
#703=DIRECTION('',(0.,1.,0.));
#704=DIRECTION('',(-0.790357836660856,0.,0.612645484786081));
#705=DIRECTION('',(0.,-1.,0.));
#706=DIRECTION('',(-0.0427623675973729,0.,0.999085271594706));
#707=DIRECTION('',(0.,-1.,0.));
#708=DIRECTION('',(-0.100166364831227,0.,-0.994970702762899));
#709=DIRECTION('',(1.,-0.,-0.));
#710=DIRECTION('',(0.752922061530104,-0.,0.658109693942627));
#711=DIRECTION('',(0.998516586690749,0.,0.0544483801729239));
#712=DIRECTION('',(0.769353510658515,-0.,0.638823274182632));
#713=DIRECTION('',(-0.,-0.,1.));
#714=DIRECTION('',(-0.990938331881412,-0.,-0.134317617638508));
#715=DIRECTION('',(-0.261896009237411,0.,-0.965096099020982));
#716=DIRECTION('',(-0.279983234427498,0.,0.960004889799795));
#717=DIRECTION('',(0.,-1.,0.));
#718=DIRECTION('',(2.36954418832929E-014,-0.,-1.));
#719=DIRECTION('',(0.917879372800921,0.,-0.396859492751008));
#720=DIRECTION('',(0.,1.,0.));
#721=DIRECTION('',(0.969012361922356,0.,-0.247012231360428));
#722=DIRECTION('',(0.,1.,0.));
#723=DIRECTION('',(-0.989480518773863,-0.,-0.144666177688523));
#724=DIRECTION('',(-0.397143033956994,-0.,-0.917756727340875));
#725=DIRECTION('',(-0.996759440200583,-0.,-0.0804401539718826));
#726=DIRECTION('',(-0.188847299039204,-0.,-0.98200646517505));
#727=DIRECTION('',(-1.,-0.,-0.));
#728=DIRECTION('',(-0.999464821679526,-0.,-0.0327119278721574));
#729=DIRECTION('',(-0.521215428118026,-0.,0.853425144632933));
#730=DIRECTION('',(-0.997503311534513,-0.,-0.0706197102633606));
#731=DIRECTION('',(0.78714194813131,0.,-0.616771881243013));
#732=DIRECTION('',(0.,1.,0.));
#733=DIRECTION('',(-1.,-0.,-0.));
#734=DIRECTION('',(-0.0497424301087296,0.,-0.998762079099361));
#735=DIRECTION('',(0.,1.,0.));
#736=DIRECTION('',(0.804649190200491,0.,-0.593750520597408));
#737=DIRECTION('',(0.,1.,0.));
#738=DIRECTION('',(-0.790357836660856,0.,0.612645484786081));
#739=DIRECTION('',(0.,-1.,0.));
#740=DIRECTION('',(0.,-2.93183932380842E-014,-1.));
#741=DIRECTION('',(-2.30054774325926E-015,-1.,2.93183932380842E-014));
#742=DIRECTION('',(0.,-2.93183932380842E-014,-1.));
#743=DIRECTION('',(-2.30054774325926E-015,-1.,2.93183932380842E-014));
#744=DIRECTION('',(0.,-2.93183932380842E-014,-1.));
#745=DIRECTION('',(-2.30054774325926E-015,-1.,2.93183932380842E-014));
#746=DIRECTION('',(0.,-1.,2.93183932380842E-014));
#747=DIRECTION('',(-0.,2.93183932380842E-014,1.));
#748=DIRECTION('',(0.,-2.93183932380842E-014,-1.));
#749=DIRECTION('',(-2.30054774325926E-015,-1.,2.93183932380842E-014));
#750=DIRECTION('',(0.997503311534513,0.,0.0706197102633606));
#751=DIRECTION('',(-0.0706197102633606,2.94076583589361E-014,0.997503311534513
));
#752=DIRECTION('',(0.521215428118026,-7.88860905221012E-031,-0.853425144632933
));
#753=DIRECTION('',(0.853425144632933,1.33178535927947E-014,0.521215428118026)
);
#754=DIRECTION('',(0.999464821679526,0.,0.0327119278721574));
#755=DIRECTION('',(-0.0327119278721574,2.9377958021476E-014,0.999464821679526)
);
#756=DIRECTION('',(0.,-1.,2.93183932380842E-014));
#757=DIRECTION('',(-0.,2.93183932380842E-014,1.));
#758=DIRECTION('',(0.188847299039204,0.,0.98200646517505));
#759=DIRECTION('',(-0.98200646517505,7.79585213250594E-015,0.188847299039204)
);
#760=DIRECTION('',(0.996759440200583,0.,0.0804401539718826));
#761=DIRECTION('',(-0.0804401539718826,2.94084416462608E-014,0.996759440200583
));
#762=DIRECTION('',(0.397143033956994,0.,0.917756727340875));
#763=DIRECTION('',(-0.917756727340875,1.3754938809262E-014,0.397143033956994)
);
#764=DIRECTION('',(0.989480518773863,0.,0.144666177688523));
#765=DIRECTION('',(-0.144666177688523,2.93427903994429E-014,0.989480518773863)
);
#766=DIRECTION('',(0.,-2.93183932380842E-014,-1.));
#767=DIRECTION('',(-2.30054774325926E-015,-1.,2.93183932380842E-014));
#768=DIRECTION('',(0.,-2.93183932380842E-014,-1.));
#769=DIRECTION('',(-2.30054774325926E-015,-1.,2.93183932380842E-014));
#770=DIRECTION('',(-2.36954418832929E-014,0.,1.));
#771=DIRECTION('',(-1.,2.30054774325856E-015,-2.36954418832929E-014));
#772=DIRECTION('',(0.,-2.93183932380842E-014,-1.));
#773=DIRECTION('',(-2.30054774325926E-015,-1.,2.93183932380842E-014));
#774=DIRECTION('',(0.261896009237411,0.,0.965096099020982));
#775=DIRECTION('',(-0.965096099020982,9.89861983893839E-015,0.261896009237411)
);
#776=DIRECTION('',(0.990938331881412,7.88860905221012E-031,0.134317617638508)
);
#777=DIRECTION('',(-0.134317617638508,2.93617237809287E-014,0.990938331881412)
);
#778=DIRECTION('',(2.30054774325926E-015,1.,0.));
#779=DIRECTION('',(1.,-2.30054774325926E-015,0.));
#780=DIRECTION('',(-0.769353510658515,0.,-0.638823274182632));
#781=DIRECTION('',(0.638823274182632,-2.40258522063493E-014,-0.769353510658515
));
#782=DIRECTION('',(-0.998516586690749,0.,-0.0544483801729239));
#783=DIRECTION('',(0.0544483801729239,-2.94001630414799E-014,
-0.998516586690749));
#784=DIRECTION('',(-0.752922061530104,-1.57772181044202E-030,
-0.658109693942627));
#785=DIRECTION('',(0.658109693942627,-2.35884778487854E-014,-0.752922061530104
));
#786=DIRECTION('',(0.,1.,-2.93183932380842E-014));
#787=DIRECTION('',(-0.,-2.93183932380842E-014,-1.));
#788=DIRECTION('',(0.100166364831227,0.,0.994970702762899));
#789=DIRECTION('',(-0.994970702762899,5.2256944782016E-015,0.100166364831227)
);
#790=DIRECTION('',(0.,-2.93183932380842E-014,-1.));
#791=DIRECTION('',(-2.30054774325926E-015,-1.,2.93183932380842E-014));
#792=DIRECTION('',(0.,0.,-1.));
#793=DIRECTION('',(0.,-1.,0.));
#794=DIRECTION('',(0.,0.,-1.));
#795=DIRECTION('',(0.,-1.,0.));
#796=CARTESIAN_POINT('',(0.,0.,0.));
#797=CARTESIAN_POINT('',(226.550587470646,1622.253894,2236.75376341763));
#798=CARTESIAN_POINT('',(238.269717000005,1622.253894,2242.81150199994));
#799=CARTESIAN_POINT('',(238.943066003127,1622.253894,2249.49999999994));
#800=CARTESIAN_POINT('',(216.452334659011,1622.253894,2249.49999999994));
#801=CARTESIAN_POINT('',(206.004000000005,1622.253894,2240.36738099994));
#802=CARTESIAN_POINT('',(134.660600866772,1622.253894,2236.4770775532));
#803=CARTESIAN_POINT('',(103.080454000005,1622.253894,2210.25488899994));
#804=CARTESIAN_POINT('',(103.080454000005,1622.253894,2190.59039299994));
#805=CARTESIAN_POINT('',(108.995543000005,1622.253894,2191.39215899994));
#806=CARTESIAN_POINT('',(110.214853032165,1622.253894,2195.88535978968));
#807=CARTESIAN_POINT('',(117.414088000005,1622.253894,2203.22115820194));
#808=CARTESIAN_POINT('',(117.414088000005,1622.253894,2206.81953499994));
#809=CARTESIAN_POINT('',(128.049044223656,1622.253894,2214.77964675717));
#810=CARTESIAN_POINT('',(129.938848000005,1622.253894,2220.31779199994));
#811=CARTESIAN_POINT('',(132.344053000005,1622.253894,2220.66944299994));
#812=CARTESIAN_POINT('',(133.442876000005,1622.253894,2223.20870999994));
#813=CARTESIAN_POINT('',(143.992583000005,1622.253894,2224.06008899994));
#814=CARTESIAN_POINT('',(144.362748000005,1622.253894,2225.98494799994));
#815=CARTESIAN_POINT('',(146.062748000005,1622.253894,2225.98494799994));
#816=CARTESIAN_POINT('',(200.287470000005,1622.253894,2227.75969299994));
#817=CARTESIAN_POINT('',(201.183324000005,1622.253894,2226.29284399994));
#818=CARTESIAN_POINT('',(209.442193290338,1622.253894,2226.87754276699));
#819=CARTESIAN_POINT('',(211.807254000005,1622.253894,2228.13424199994));
#820=CARTESIAN_POINT('',(212.507254000005,1622.253894,2228.13424199994));
#821=CARTESIAN_POINT('',(214.348178152793,1622.253894,2227.49645228457));
#822=CARTESIAN_POINT('',(222.455574707871,1622.253894,2231.33964226457));
#823=CARTESIAN_POINT('',(226.550587470641,-377.746106,2236.75376341769));
#824=CARTESIAN_POINT('',(238.269717,-377.746106,2242.811502));
#825=CARTESIAN_POINT('',(238.943066003122,-377.746106,2249.5));
#826=CARTESIAN_POINT('',(216.452334659007,-377.746106,2249.5));
#827=CARTESIAN_POINT('',(206.004,-377.746106,2240.367381));
#828=CARTESIAN_POINT('',(134.660600866767,-377.746106,2236.47707755326));
#829=CARTESIAN_POINT('',(103.080454,-377.746106,2210.254889));
#830=CARTESIAN_POINT('',(103.080454,-377.746106,2190.590393));
#831=CARTESIAN_POINT('',(108.995543,-377.746106,2191.392159));
#832=CARTESIAN_POINT('',(110.21485303216,-377.746106,2195.88535978974));
#833=CARTESIAN_POINT('',(117.414088,-377.746106,2203.221158202));
#834=CARTESIAN_POINT('',(117.414088,-377.746106,2206.819535));
#835=CARTESIAN_POINT('',(128.049044223651,-377.746106,2214.77964675723));
#836=CARTESIAN_POINT('',(129.938848,-377.746106,2220.317792));
#837=CARTESIAN_POINT('',(132.344053,-377.746106,2220.669443));
#838=CARTESIAN_POINT('',(133.442876,-377.746106,2223.20871));
#839=CARTESIAN_POINT('',(143.992583,-377.746106,2224.060089));
#840=CARTESIAN_POINT('',(144.362748,-377.746106,2225.984948));
#841=CARTESIAN_POINT('',(146.062748,-377.746106,2225.984948));
#842=CARTESIAN_POINT('',(200.28747,-377.746106,2227.759693));
#843=CARTESIAN_POINT('',(201.183324,-377.746106,2226.292844));
#844=CARTESIAN_POINT('',(209.442193290333,-377.746106,2226.87754276705));
#845=CARTESIAN_POINT('',(211.807254,-377.746106,2228.134242));
#846=CARTESIAN_POINT('',(212.507254,-377.746106,2228.134242));
#847=CARTESIAN_POINT('',(214.348178152789,-377.746106,2227.49645228463));
#848=CARTESIAN_POINT('',(222.455574707866,-377.746106,2231.33964226463));
#849=CARTESIAN_POINT('',(222.455574707871,1622.253894,2231.33964226457));
#850=CARTESIAN_POINT('',(214.348178152793,1622.253894,2227.49645228457));
#851=CARTESIAN_POINT('',(212.507254000005,1622.253894,2228.13424199994));
#852=CARTESIAN_POINT('',(211.807254000005,1622.253894,2228.13424199994));
#853=CARTESIAN_POINT('',(209.442193290338,1622.253894,2226.87754276699));
#854=CARTESIAN_POINT('',(201.183324000005,1622.253894,2226.29284399994));
#855=CARTESIAN_POINT('',(200.287470000005,1622.253894,2227.75969299994));
#856=CARTESIAN_POINT('',(146.062748000005,1622.253894,2225.98494799994));
#857=CARTESIAN_POINT('',(144.362748000005,1622.253894,2225.98494799994));
#858=CARTESIAN_POINT('',(143.992583000005,1622.253894,2224.06008899994));
#859=CARTESIAN_POINT('',(133.442876000005,1622.253894,2223.20870999994));
#860=CARTESIAN_POINT('',(132.344053000005,1622.253894,2220.66944299994));
#861=CARTESIAN_POINT('',(129.938848000005,1622.253894,2220.31779199994));
#862=CARTESIAN_POINT('',(128.049044223656,1622.253894,2214.77964675717));
#863=CARTESIAN_POINT('',(117.414088000005,1622.253894,2206.81953499994));
#864=CARTESIAN_POINT('',(117.414088000005,1622.253894,2203.22115820194));
#865=CARTESIAN_POINT('',(110.214853032165,1622.253894,2195.88535978968));
#866=CARTESIAN_POINT('',(108.995543000005,1622.253894,2191.39215899994));
#867=CARTESIAN_POINT('',(103.080454000005,1622.253894,2190.59039299994));
#868=CARTESIAN_POINT('',(103.080454000005,1622.253894,2210.25488899994));
#869=CARTESIAN_POINT('',(134.660600866772,1622.253894,2236.4770775532));
#870=CARTESIAN_POINT('',(206.004000000005,1622.253894,2240.36738099994));
#871=CARTESIAN_POINT('',(216.452334659011,1622.253894,2249.49999999994));
#872=CARTESIAN_POINT('',(238.943066003127,1622.253894,2249.49999999994));
#873=CARTESIAN_POINT('',(238.269717000005,1622.253894,2242.81150199994));
#874=CARTESIAN_POINT('',(226.550587470646,1622.253894,2236.75376341763));
#875=CARTESIAN_POINT('',(238.940049747585,1622.253894,2227.15007788329));
#876=CARTESIAN_POINT('',(238.943066003127,1622.253894,2249.49999999994));
#877=CARTESIAN_POINT('',(216.452334659011,1622.253894,2249.49999999994));
#878=CARTESIAN_POINT('',(206.004000000005,1622.253894,2240.36738099994));
#879=CARTESIAN_POINT('',(134.660600866772,1622.253894,2236.4770775532));
#880=CARTESIAN_POINT('',(103.080454000005,1622.253894,2210.25488899994));
#881=CARTESIAN_POINT('',(103.080454000005,1622.253894,2190.59039299994));
#882=CARTESIAN_POINT('',(108.995543000005,1622.253894,2191.39215899994));
#883=CARTESIAN_POINT('',(110.214853032165,1622.253894,2195.88535978968));
#884=CARTESIAN_POINT('',(120.356180019975,1622.253894,2193.13333015328));
#885=CARTESIAN_POINT('',(117.414088000005,1622.253894,2206.81953499994));
#886=CARTESIAN_POINT('',(115.783031044956,1622.253894,2220.08304926563));
#887=CARTESIAN_POINT('',(94.125506117318,1622.253894,2229.44701866261));
#888=CARTESIAN_POINT('',(132.344053000005,1622.253894,2220.66944299994));
#889=CARTESIAN_POINT('',(133.442876000005,1622.253894,2223.20870999994));
#890=CARTESIAN_POINT('',(143.992583000005,1622.253894,2224.06008899994));
#891=CARTESIAN_POINT('',(144.362748000005,1622.253894,2225.98494799994));
#892=CARTESIAN_POINT('',(146.062748000005,1622.253894,2225.98494799994));
#893=CARTESIAN_POINT('',(200.287470000005,1622.253894,2227.75969299994));
#894=CARTESIAN_POINT('',(201.183324000005,1622.253894,2226.29284399994));
#895=CARTESIAN_POINT('',(209.442193290339,1622.253894,2226.87754276699));
#896=CARTESIAN_POINT('',(209.209095288288,1622.253894,2230.1700517293));
#897=CARTESIAN_POINT('',(212.507254000005,1622.253894,2228.13424199994));
#898=CARTESIAN_POINT('',(214.52126346013,1622.253894,2230.97177588737));
#899=CARTESIAN_POINT('',(214.820188407715,1622.253894,2236.97379270664));
#900=CARTESIAN_POINT('',(453.01796995506,1622.253894,2061.20768429406));
#901=CARTESIAN_POINT('',(238.94004974758,-377.746106,2227.15007788334));
#902=CARTESIAN_POINT('',(238.943066003122,-377.746106,2249.5));
#903=CARTESIAN_POINT('',(216.452334659007,-377.746106,2249.5));
#904=CARTESIAN_POINT('',(206.004,-377.746106,2240.367381));
#905=CARTESIAN_POINT('',(134.660600866767,-377.746106,2236.47707755326));
#906=CARTESIAN_POINT('',(103.080454,-377.746106,2210.254889));
#907=CARTESIAN_POINT('',(103.080454,-377.746106,2190.590393));
#908=CARTESIAN_POINT('',(108.995543,-377.746106,2191.392159));
#909=CARTESIAN_POINT('',(110.21485303216,-377.746106,2195.88535978974));
#910=CARTESIAN_POINT('',(120.35618001997,-377.746106,2193.13333015334));
#911=CARTESIAN_POINT('',(117.414088,-377.746106,2206.819535));
#912=CARTESIAN_POINT('',(115.783031044952,-377.746106,2220.08304926569));
#913=CARTESIAN_POINT('',(94.1255061173134,-377.746106,2229.44701866267));
#914=CARTESIAN_POINT('',(132.344053,-377.746106,2220.669443));
#915=CARTESIAN_POINT('',(133.442876,-377.746106,2223.20871));
#916=CARTESIAN_POINT('',(143.992583,-377.746106,2224.060089));
#917=CARTESIAN_POINT('',(144.362748,-377.746106,2225.984948));
#918=CARTESIAN_POINT('',(146.062748,-377.746106,2225.984948));
#919=CARTESIAN_POINT('',(200.28747,-377.746106,2227.759693));
#920=CARTESIAN_POINT('',(201.183324,-377.746106,2226.292844));
#921=CARTESIAN_POINT('',(209.442193290334,-377.746106,2226.87754276705));
#922=CARTESIAN_POINT('',(209.209095288284,-377.746106,2230.17005172936));
#923=CARTESIAN_POINT('',(212.507254,-377.746106,2228.134242));
#924=CARTESIAN_POINT('',(214.521263460126,-377.746106,2230.97177588743));
#925=CARTESIAN_POINT('',(214.82018840771,-377.746106,2236.9737927067));
#926=CARTESIAN_POINT('',(453.017969955055,-377.746106,2061.20768429412));
#927=CARTESIAN_POINT('',(453.01796995506,1622.253894,2061.20768429406));
#928=CARTESIAN_POINT('',(214.820188407715,1622.253894,2236.97379270664));
#929=CARTESIAN_POINT('',(214.52126346013,1622.253894,2230.97177588737));
#930=CARTESIAN_POINT('',(212.507254000005,1622.253894,2228.13424199994));
#931=CARTESIAN_POINT('',(209.209095288288,1622.253894,2230.1700517293));
#932=CARTESIAN_POINT('',(209.442193290339,1622.253894,2226.87754276699));
#933=CARTESIAN_POINT('',(201.183324000005,1622.253894,2226.29284399994));
#934=CARTESIAN_POINT('',(200.287470000005,1622.253894,2227.75969299994));
#935=CARTESIAN_POINT('',(146.062748000005,1622.253894,2225.98494799994));
#936=CARTESIAN_POINT('',(144.362748000005,1622.253894,2225.98494799994));
#937=CARTESIAN_POINT('',(143.992583000005,1622.253894,2224.06008899994));
#938=CARTESIAN_POINT('',(133.442876000005,1622.253894,2223.20870999994));
#939=CARTESIAN_POINT('',(132.344053000005,1622.253894,2220.66944299994));
#940=CARTESIAN_POINT('',(94.125506117318,1622.253894,2229.44701866261));
#941=CARTESIAN_POINT('',(115.783031044956,1622.253894,2220.08304926563));
#942=CARTESIAN_POINT('',(117.414088000005,1622.253894,2206.81953499994));
#943=CARTESIAN_POINT('',(120.356180019975,1622.253894,2193.13333015328));
#944=CARTESIAN_POINT('',(110.214853032165,1622.253894,2195.88535978968));
#945=CARTESIAN_POINT('',(108.995543000005,1622.253894,2191.39215899994));
#946=CARTESIAN_POINT('',(103.080454000005,1622.253894,2190.59039299994));
#947=CARTESIAN_POINT('',(103.080454000005,1622.253894,2210.25488899994));
#948=CARTESIAN_POINT('',(134.660600866772,1622.253894,2236.4770775532));
#949=CARTESIAN_POINT('',(206.004000000005,1622.253894,2240.36738099994));
#950=CARTESIAN_POINT('',(216.452334659011,1622.253894,2249.49999999994));
#951=CARTESIAN_POINT('',(238.943066003127,1622.253894,2249.49999999994));
#952=CARTESIAN_POINT('',(238.940049747585,1622.253894,2227.15007788329));
#953=CARTESIAN_POINT('',(453.01796995506,1622.253894,2061.20768429406));
#954=CARTESIAN_POINT('',(453.017969955055,-377.746106,2061.20768429412));
#955=PRODUCT_DEFINITION_SHAPE('','',#956);
#956=PRODUCT_DEFINITION('','',#968,#973);
#957=(
GEOMETRIC_REPRESENTATION_CONTEXT(3)
GLOBAL_UNCERTAINTY_ASSIGNED_CONTEXT((#958))
GLOBAL_UNIT_ASSIGNED_CONTEXT((#960,#959,#963))
REPRESENTATION_CONTEXT('','')
);
#958=UNCERTAINTY_MEASURE_WITH_UNIT(LENGTH_MEASURE(0.001),#960,'','tolerance');
#959=(
CONVERSION_BASED_UNIT('',#961)
NAMED_UNIT(#967)
PLANE_ANGLE_UNIT()
);
#960=(
CONVERSION_BASED_UNIT('',#962)
LENGTH_UNIT()
NAMED_UNIT(#966)
);
#961=PLANE_ANGLE_MEASURE_WITH_UNIT(PLANE_ANGLE_MEASURE(0.0174532925199433),
#964);
#962=LENGTH_MEASURE_WITH_UNIT(LENGTH_MEASURE(1.),#965);
#963=(
NAMED_UNIT(*)
SI_UNIT($,.STERADIAN.)
SOLID_ANGLE_UNIT()
);
#964=(
NAMED_UNIT(*)
PLANE_ANGLE_UNIT()
SI_UNIT($,.RADIAN.)
);
#965=(
LENGTH_UNIT()
NAMED_UNIT(*)
SI_UNIT(.MILLI.,.METRE.)
);
#966=DIMENSIONAL_EXPONENTS(1.,0.,0.,0.,0.,0.,0.);
#967=DIMENSIONAL_EXPONENTS(0.,0.,0.,0.,0.,0.,0.);
#968=PRODUCT_DEFINITION_FORMATION_WITH_SPECIFIED_SOURCE('','',#971,.NOT_KNOWN.
);
#969=PRODUCT_CATEGORY_RELATIONSHIP('','',#974,#970);
#970=PRODUCT_RELATED_PRODUCT_CATEGORY('assembly','',(#971));
#971=PRODUCT('','master','',(#972));
#972=PRODUCT_CONTEXT('',#976,'');
#973=PRODUCT_DEFINITION_CONTEXT('',#976,'part_definition');
#974=PRODUCT_CATEGORY('part','');
#975=APPLICATION_PROTOCOL_DEFINITION('international standard',
'automotive_design_cc2',1994,#976);
#976=APPLICATION_CONTEXT(
'configuration controlled 3D designs of mechanical parts and assemblies');
ENDSEC;
END-ISO-10303-21;
45857