ISO-10303-21;
HEADER;
/* Generated by software using Delcam plc STEP library */

FILE_DESCRIPTION(
/* description */ ('AP-214 File'),
/* implementation_level */ '2;1');

FILE_NAME(
/* name */ 'D717',
/* time_stamp */ 'Tue Dec 27 09:01:26 2016',
/* author */ (''),
/* organization */ (''),
/* preprocessor_version */ 'DELCAM STEP V1',
/* originating_system */ 'Exchange7.1.0006',
/* authorisation */ '');

FILE_SCHEMA (('AUTOMOTIVE_DESIGN'));
ENDSEC;
DATA;
#10=PRESENTATION_STYLE_ASSIGNMENT((#20));
#11=PRESENTATION_STYLE_ASSIGNMENT((#21));
#12=SURFACE_SIDE_STYLE('',(#14));
#13=SURFACE_SIDE_STYLE('',(#15));
#14=SURFACE_STYLE_FILL_AREA(#16);
#15=SURFACE_STYLE_FILL_AREA(#17);
#16=FILL_AREA_STYLE('',(#18));
#17=FILL_AREA_STYLE('',(#19));
#18=FILL_AREA_STYLE_COLOUR('',#45);
#19=FILL_AREA_STYLE_COLOUR('',#46);
#20=SURFACE_STYLE_USAGE(.BOTH.,#12);
#21=SURFACE_STYLE_USAGE(.BOTH.,#13);
#22=STYLED_ITEM('',(#10),#61);
#23=STYLED_ITEM('',(#10),#62);
#24=STYLED_ITEM('',(#10),#63);
#25=STYLED_ITEM('',(#10),#64);
#26=STYLED_ITEM('',(#10),#65);
#27=STYLED_ITEM('',(#10),#66);
#28=STYLED_ITEM('',(#10),#67);
#29=STYLED_ITEM('',(#10),#68);
#30=STYLED_ITEM('',(#10),#69);
#31=STYLED_ITEM('',(#10),#70);
#32=STYLED_ITEM('',(#10),#71);
#33=STYLED_ITEM('',(#10),#72);
#34=STYLED_ITEM('',(#10),#73);
#35=STYLED_ITEM('',(#10),#74);
#36=STYLED_ITEM('',(#10),#75);
#37=STYLED_ITEM('',(#10),#76);
#38=STYLED_ITEM('',(#10),#77);
#39=STYLED_ITEM('',(#10),#78);
#40=STYLED_ITEM('',(#10),#79);
#41=STYLED_ITEM('',(#10),#80);
#42=STYLED_ITEM('',(#10),#81);
#43=STYLED_ITEM('',(#10),#82);
#44=STYLED_ITEM('',(#11),#52);
#45=COLOUR_RGB('',0.,0.,0.);
#46=COLOUR_RGB('rgb_colour_1',0.4,0.4,0.4);
#47=MECHANICAL_DESIGN_GEOMETRIC_PRESENTATION_REPRESENTATION('',(#22,#23,#24,
#25,#26,#27,#28,#29,#30,#31,#32,#33,#34,#35,#36,#37,#38,#39,#40,#41,#42,#43,
#44),#753);
#48=PRESENTATION_LAYER_ASSIGNMENT('119','D717',(#61,#62,#63,#64,#65,#66,#67,
#68,#69,#70,#71,#72,#73,#74,#75,#76,#77,#78,#79,#80,#81,#82,#52));
#49=SHAPE_REPRESENTATION_RELATIONSHIP('','',#466,#50);
#50=ADVANCED_BREP_SHAPE_REPRESENTATION('',(#51),#753);
#51=MANIFOLD_SOLID_BREP('7553',#52);
#52=CLOSED_SHELL('',(#61,#62,#63,#64,#65,#66,#67,#68,#69,#70,#71,#72,#73,#74,
#75,#76,#77,#78,#79,#80,#81,#82));
#53=CYLINDRICAL_SURFACE('',#489,10.6571721393799);
#54=CYLINDRICAL_SURFACE('',#490,17.3143729416872);
#55=CYLINDRICAL_SURFACE('',#492,6.83687834518711);
#56=CYLINDRICAL_SURFACE('',#495,14.6673532608275);
#57=CYLINDRICAL_SURFACE('',#496,34.7563520693991);
#58=CYLINDRICAL_SURFACE('',#497,161.312996671796);
#59=CYLINDRICAL_SURFACE('',#501,7.2615531651725);
#60=CYLINDRICAL_SURFACE('',#502,8.77159740784317);
#61=ADVANCED_FACE('',(#83),#247,.T.);
#62=ADVANCED_FACE('',(#84),#248,.T.);
#63=ADVANCED_FACE('',(#85),#249,.T.);
#64=ADVANCED_FACE('',(#86),#250,.T.);
#65=ADVANCED_FACE('',(#87),#251,.T.);
#66=ADVANCED_FACE('',(#88),#53,.T.);
#67=ADVANCED_FACE('',(#89),#54,.T.);
#68=ADVANCED_FACE('',(#90),#252,.T.);
#69=ADVANCED_FACE('',(#91),#55,.F.);
#70=ADVANCED_FACE('',(#92),#253,.T.);
#71=ADVANCED_FACE('',(#93),#254,.T.);
#72=ADVANCED_FACE('',(#94),#56,.F.);
#73=ADVANCED_FACE('',(#95),#57,.F.);
#74=ADVANCED_FACE('',(#96),#58,.F.);
#75=ADVANCED_FACE('',(#97),#255,.T.);
#76=ADVANCED_FACE('',(#98),#256,.T.);
#77=ADVANCED_FACE('',(#99),#257,.T.);
#78=ADVANCED_FACE('',(#100),#59,.T.);
#79=ADVANCED_FACE('',(#101),#60,.F.);
#80=ADVANCED_FACE('',(#102),#258,.T.);
#81=ADVANCED_FACE('',(#103),#259,.F.);
#82=ADVANCED_FACE('',(#104),#260,.T.);
#83=FACE_OUTER_BOUND('',#105,.T.);
#84=FACE_OUTER_BOUND('',#106,.T.);
#85=FACE_OUTER_BOUND('',#107,.T.);
#86=FACE_OUTER_BOUND('',#108,.T.);
#87=FACE_OUTER_BOUND('',#109,.T.);
#88=FACE_OUTER_BOUND('',#110,.T.);
#89=FACE_OUTER_BOUND('',#111,.T.);
#90=FACE_OUTER_BOUND('',#112,.T.);
#91=FACE_OUTER_BOUND('',#113,.T.);
#92=FACE_OUTER_BOUND('',#114,.T.);
#93=FACE_OUTER_BOUND('',#115,.T.);
#94=FACE_OUTER_BOUND('',#116,.T.);
#95=FACE_OUTER_BOUND('',#117,.T.);
#96=FACE_OUTER_BOUND('',#118,.T.);
#97=FACE_OUTER_BOUND('',#119,.T.);
#98=FACE_OUTER_BOUND('',#120,.T.);
#99=FACE_OUTER_BOUND('',#121,.T.);
#100=FACE_OUTER_BOUND('',#122,.T.);
#101=FACE_OUTER_BOUND('',#123,.T.);
#102=FACE_OUTER_BOUND('',#124,.T.);
#103=FACE_OUTER_BOUND('',#125,.T.);
#104=FACE_OUTER_BOUND('',#126,.T.);
#105=EDGE_LOOP('',(#127,#128,#129,#130));
#106=EDGE_LOOP('',(#131,#132,#133,#134));
#107=EDGE_LOOP('',(#135,#136,#137,#138));
#108=EDGE_LOOP('',(#139,#140,#141,#142));
#109=EDGE_LOOP('',(#143,#144,#145,#146));
#110=EDGE_LOOP('',(#147,#148,#149,#150));
#111=EDGE_LOOP('',(#151,#152,#153,#154));
#112=EDGE_LOOP('',(#155,#156,#157,#158));
#113=EDGE_LOOP('',(#159,#160,#161,#162));
#114=EDGE_LOOP('',(#163,#164,#165,#166));
#115=EDGE_LOOP('',(#167,#168,#169,#170));
#116=EDGE_LOOP('',(#171,#172,#173,#174));
#117=EDGE_LOOP('',(#175,#176,#177,#178));
#118=EDGE_LOOP('',(#179,#180,#181,#182));
#119=EDGE_LOOP('',(#183,#184,#185,#186));
#120=EDGE_LOOP('',(#187,#188,#189,#190));
#121=EDGE_LOOP('',(#191,#192,#193,#194));
#122=EDGE_LOOP('',(#195,#196,#197,#198));
#123=EDGE_LOOP('',(#199,#200,#201,#202));
#124=EDGE_LOOP('',(#203,#204,#205,#206));
#125=EDGE_LOOP('',(#207,#208,#209,#210,#211,#212,#213,#214,#215,#216,#217,#218
,#219,#220,#221,#222,#223,#224,#225,#226));
#126=EDGE_LOOP('',(#227,#228,#229,#230,#231,#232,#233,#234,#235,#236,#237,#238
,#239,#240,#241,#242,#243,#244,#245,#246));
#127=ORIENTED_EDGE('',*,*,#336,.F.);
#128=ORIENTED_EDGE('',*,*,#296,.F.);
#129=ORIENTED_EDGE('',*,*,#316,.T.);
#130=ORIENTED_EDGE('',*,*,#277,.T.);
#131=ORIENTED_EDGE('',*,*,#335,.F.);
#132=ORIENTED_EDGE('',*,*,#277,.F.);
#133=ORIENTED_EDGE('',*,*,#315,.T.);
#134=ORIENTED_EDGE('',*,*,#278,.T.);
#135=ORIENTED_EDGE('',*,*,#334,.F.);
#136=ORIENTED_EDGE('',*,*,#278,.F.);
#137=ORIENTED_EDGE('',*,*,#314,.T.);
#138=ORIENTED_EDGE('',*,*,#279,.T.);
#139=ORIENTED_EDGE('',*,*,#333,.F.);
#140=ORIENTED_EDGE('',*,*,#279,.F.);
#141=ORIENTED_EDGE('',*,*,#313,.T.);
#142=ORIENTED_EDGE('',*,*,#280,.T.);
#143=ORIENTED_EDGE('',*,*,#332,.F.);
#144=ORIENTED_EDGE('',*,*,#280,.F.);
#145=ORIENTED_EDGE('',*,*,#312,.T.);
#146=ORIENTED_EDGE('',*,*,#281,.T.);
#147=ORIENTED_EDGE('',*,*,#331,.F.);
#148=ORIENTED_EDGE('',*,*,#281,.F.);
#149=ORIENTED_EDGE('',*,*,#311,.T.);
#150=ORIENTED_EDGE('',*,*,#282,.T.);
#151=ORIENTED_EDGE('',*,*,#330,.F.);
#152=ORIENTED_EDGE('',*,*,#282,.F.);
#153=ORIENTED_EDGE('',*,*,#310,.T.);
#154=ORIENTED_EDGE('',*,*,#283,.T.);
#155=ORIENTED_EDGE('',*,*,#329,.F.);
#156=ORIENTED_EDGE('',*,*,#283,.F.);
#157=ORIENTED_EDGE('',*,*,#309,.T.);
#158=ORIENTED_EDGE('',*,*,#284,.T.);
#159=ORIENTED_EDGE('',*,*,#328,.F.);
#160=ORIENTED_EDGE('',*,*,#284,.F.);
#161=ORIENTED_EDGE('',*,*,#308,.T.);
#162=ORIENTED_EDGE('',*,*,#285,.T.);
#163=ORIENTED_EDGE('',*,*,#327,.F.);
#164=ORIENTED_EDGE('',*,*,#285,.F.);
#165=ORIENTED_EDGE('',*,*,#307,.T.);
#166=ORIENTED_EDGE('',*,*,#286,.T.);
#167=ORIENTED_EDGE('',*,*,#326,.F.);
#168=ORIENTED_EDGE('',*,*,#286,.F.);
#169=ORIENTED_EDGE('',*,*,#306,.T.);
#170=ORIENTED_EDGE('',*,*,#287,.T.);
#171=ORIENTED_EDGE('',*,*,#325,.F.);
#172=ORIENTED_EDGE('',*,*,#287,.F.);
#173=ORIENTED_EDGE('',*,*,#305,.T.);
#174=ORIENTED_EDGE('',*,*,#288,.T.);
#175=ORIENTED_EDGE('',*,*,#324,.F.);
#176=ORIENTED_EDGE('',*,*,#288,.F.);
#177=ORIENTED_EDGE('',*,*,#304,.T.);
#178=ORIENTED_EDGE('',*,*,#289,.T.);
#179=ORIENTED_EDGE('',*,*,#323,.F.);
#180=ORIENTED_EDGE('',*,*,#289,.F.);
#181=ORIENTED_EDGE('',*,*,#303,.T.);
#182=ORIENTED_EDGE('',*,*,#290,.T.);
#183=ORIENTED_EDGE('',*,*,#322,.F.);
#184=ORIENTED_EDGE('',*,*,#290,.F.);
#185=ORIENTED_EDGE('',*,*,#302,.T.);
#186=ORIENTED_EDGE('',*,*,#291,.T.);
#187=ORIENTED_EDGE('',*,*,#321,.F.);
#188=ORIENTED_EDGE('',*,*,#291,.F.);
#189=ORIENTED_EDGE('',*,*,#301,.T.);
#190=ORIENTED_EDGE('',*,*,#292,.T.);
#191=ORIENTED_EDGE('',*,*,#320,.F.);
#192=ORIENTED_EDGE('',*,*,#292,.F.);
#193=ORIENTED_EDGE('',*,*,#300,.T.);
#194=ORIENTED_EDGE('',*,*,#293,.T.);
#195=ORIENTED_EDGE('',*,*,#319,.F.);
#196=ORIENTED_EDGE('',*,*,#293,.F.);
#197=ORIENTED_EDGE('',*,*,#299,.T.);
#198=ORIENTED_EDGE('',*,*,#294,.T.);
#199=ORIENTED_EDGE('',*,*,#318,.F.);
#200=ORIENTED_EDGE('',*,*,#294,.F.);
#201=ORIENTED_EDGE('',*,*,#298,.T.);
#202=ORIENTED_EDGE('',*,*,#295,.T.);
#203=ORIENTED_EDGE('',*,*,#317,.F.);
#204=ORIENTED_EDGE('',*,*,#295,.F.);
#205=ORIENTED_EDGE('',*,*,#297,.T.);
#206=ORIENTED_EDGE('',*,*,#296,.T.);
#207=ORIENTED_EDGE('',*,*,#316,.F.);
#208=ORIENTED_EDGE('',*,*,#297,.F.);
#209=ORIENTED_EDGE('',*,*,#298,.F.);
#210=ORIENTED_EDGE('',*,*,#299,.F.);
#211=ORIENTED_EDGE('',*,*,#300,.F.);
#212=ORIENTED_EDGE('',*,*,#301,.F.);
#213=ORIENTED_EDGE('',*,*,#302,.F.);
#214=ORIENTED_EDGE('',*,*,#303,.F.);
#215=ORIENTED_EDGE('',*,*,#304,.F.);
#216=ORIENTED_EDGE('',*,*,#305,.F.);
#217=ORIENTED_EDGE('',*,*,#306,.F.);
#218=ORIENTED_EDGE('',*,*,#307,.F.);
#219=ORIENTED_EDGE('',*,*,#308,.F.);
#220=ORIENTED_EDGE('',*,*,#309,.F.);
#221=ORIENTED_EDGE('',*,*,#310,.F.);
#222=ORIENTED_EDGE('',*,*,#311,.F.);
#223=ORIENTED_EDGE('',*,*,#312,.F.);
#224=ORIENTED_EDGE('',*,*,#313,.F.);
#225=ORIENTED_EDGE('',*,*,#314,.F.);
#226=ORIENTED_EDGE('',*,*,#315,.F.);
#227=ORIENTED_EDGE('',*,*,#336,.T.);
#228=ORIENTED_EDGE('',*,*,#335,.T.);
#229=ORIENTED_EDGE('',*,*,#334,.T.);
#230=ORIENTED_EDGE('',*,*,#333,.T.);
#231=ORIENTED_EDGE('',*,*,#332,.T.);
#232=ORIENTED_EDGE('',*,*,#331,.T.);
#233=ORIENTED_EDGE('',*,*,#330,.T.);
#234=ORIENTED_EDGE('',*,*,#329,.T.);
#235=ORIENTED_EDGE('',*,*,#328,.T.);
#236=ORIENTED_EDGE('',*,*,#327,.T.);
#237=ORIENTED_EDGE('',*,*,#326,.T.);
#238=ORIENTED_EDGE('',*,*,#325,.T.);
#239=ORIENTED_EDGE('',*,*,#324,.T.);
#240=ORIENTED_EDGE('',*,*,#323,.T.);
#241=ORIENTED_EDGE('',*,*,#322,.T.);
#242=ORIENTED_EDGE('',*,*,#321,.T.);
#243=ORIENTED_EDGE('',*,*,#320,.T.);
#244=ORIENTED_EDGE('',*,*,#319,.T.);
#245=ORIENTED_EDGE('',*,*,#318,.T.);
#246=ORIENTED_EDGE('',*,*,#317,.T.);
#247=PLANE('',#484);
#248=PLANE('',#485);
#249=PLANE('',#486);
#250=PLANE('',#487);
#251=PLANE('',#488);
#252=PLANE('',#491);
#253=PLANE('',#493);
#254=PLANE('',#494);
#255=PLANE('',#498);
#256=PLANE('',#499);
#257=PLANE('',#500);
#258=PLANE('',#503);
#259=PLANE('',#504);
#260=PLANE('',#505);
#261=CIRCLE('',#468,8.77159740784317);
#262=CIRCLE('',#469,7.2615531651725);
#263=CIRCLE('',#470,161.312996671796);
#264=CIRCLE('',#471,34.7563520693991);
#265=CIRCLE('',#472,14.6673532608275);
#266=CIRCLE('',#473,6.83687834518711);
#267=CIRCLE('',#474,17.3143729416872);
#268=CIRCLE('',#475,10.6571721393799);
#269=CIRCLE('',#476,8.77159740784317);
#270=CIRCLE('',#477,7.2615531651725);
#271=CIRCLE('',#478,161.312996671796);
#272=CIRCLE('',#479,34.7563520693991);
#273=CIRCLE('',#480,14.6673532608275);
#274=CIRCLE('',#481,6.83687834518711);
#275=CIRCLE('',#482,17.3143729416872);
#276=CIRCLE('',#483,10.6571721393799);
#277=EDGE_CURVE('',#444,#464,#337,.T.);
#278=EDGE_CURVE('',#443,#463,#338,.T.);
#279=EDGE_CURVE('',#442,#462,#339,.T.);
#280=EDGE_CURVE('',#441,#461,#340,.T.);
#281=EDGE_CURVE('',#440,#460,#341,.T.);
#282=EDGE_CURVE('',#439,#459,#342,.T.);
#283=EDGE_CURVE('',#438,#458,#343,.T.);
#284=EDGE_CURVE('',#437,#457,#344,.T.);
#285=EDGE_CURVE('',#436,#456,#345,.T.);
#286=EDGE_CURVE('',#435,#455,#346,.T.);
#287=EDGE_CURVE('',#434,#454,#347,.T.);
#288=EDGE_CURVE('',#433,#453,#348,.T.);
#289=EDGE_CURVE('',#432,#452,#349,.T.);
#290=EDGE_CURVE('',#431,#451,#350,.T.);
#291=EDGE_CURVE('',#430,#450,#351,.T.);
#292=EDGE_CURVE('',#429,#449,#352,.T.);
#293=EDGE_CURVE('',#428,#448,#353,.T.);
#294=EDGE_CURVE('',#427,#447,#354,.T.);
#295=EDGE_CURVE('',#426,#446,#355,.T.);
#296=EDGE_CURVE('',#425,#445,#356,.T.);
#297=EDGE_CURVE('',#426,#425,#357,.T.);
#298=EDGE_CURVE('',#427,#426,#261,.T.);
#299=EDGE_CURVE('',#428,#427,#262,.T.);
#300=EDGE_CURVE('',#429,#428,#358,.T.);
#301=EDGE_CURVE('',#430,#429,#359,.T.);
#302=EDGE_CURVE('',#431,#430,#360,.T.);
#303=EDGE_CURVE('',#432,#431,#263,.T.);
#304=EDGE_CURVE('',#433,#432,#264,.T.);
#305=EDGE_CURVE('',#434,#433,#265,.T.);
#306=EDGE_CURVE('',#435,#434,#361,.T.);
#307=EDGE_CURVE('',#436,#435,#362,.T.);
#308=EDGE_CURVE('',#437,#436,#266,.T.);
#309=EDGE_CURVE('',#438,#437,#363,.T.);
#310=EDGE_CURVE('',#439,#438,#267,.T.);
#311=EDGE_CURVE('',#440,#439,#268,.T.);
#312=EDGE_CURVE('',#441,#440,#364,.T.);
#313=EDGE_CURVE('',#442,#441,#365,.T.);
#314=EDGE_CURVE('',#443,#442,#366,.T.);
#315=EDGE_CURVE('',#444,#443,#367,.T.);
#316=EDGE_CURVE('',#425,#444,#368,.T.);
#317=EDGE_CURVE('',#446,#445,#369,.T.);
#318=EDGE_CURVE('',#447,#446,#269,.T.);
#319=EDGE_CURVE('',#448,#447,#270,.T.);
#320=EDGE_CURVE('',#449,#448,#370,.T.);
#321=EDGE_CURVE('',#450,#449,#371,.T.);
#322=EDGE_CURVE('',#451,#450,#372,.T.);
#323=EDGE_CURVE('',#452,#451,#271,.T.);
#324=EDGE_CURVE('',#453,#452,#272,.T.);
#325=EDGE_CURVE('',#454,#453,#273,.T.);
#326=EDGE_CURVE('',#455,#454,#373,.T.);
#327=EDGE_CURVE('',#456,#455,#374,.T.);
#328=EDGE_CURVE('',#457,#456,#274,.T.);
#329=EDGE_CURVE('',#458,#457,#375,.T.);
#330=EDGE_CURVE('',#459,#458,#275,.T.);
#331=EDGE_CURVE('',#460,#459,#276,.T.);
#332=EDGE_CURVE('',#461,#460,#376,.T.);
#333=EDGE_CURVE('',#462,#461,#377,.T.);
#334=EDGE_CURVE('',#463,#462,#378,.T.);
#335=EDGE_CURVE('',#464,#463,#379,.T.);
#336=EDGE_CURVE('',#445,#464,#380,.T.);
#337=LINE('',#669,#381);
#338=LINE('',#670,#382);
#339=LINE('',#671,#383);
#340=LINE('',#672,#384);
#341=LINE('',#673,#385);
#342=LINE('',#674,#386);
#343=LINE('',#675,#387);
#344=LINE('',#676,#388);
#345=LINE('',#677,#389);
#346=LINE('',#678,#390);
#347=LINE('',#679,#391);
#348=LINE('',#680,#392);
#349=LINE('',#681,#393);
#350=LINE('',#682,#394);
#351=LINE('',#683,#395);
#352=LINE('',#684,#396);
#353=LINE('',#685,#397);
#354=LINE('',#686,#398);
#355=LINE('',#687,#399);
#356=LINE('',#688,#400);
#357=LINE('',#689,#401);
#358=LINE('',#692,#402);
#359=LINE('',#693,#403);
#360=LINE('',#694,#404);
#361=LINE('',#698,#405);
#362=LINE('',#699,#406);
#363=LINE('',#701,#407);
#364=LINE('',#704,#408);
#365=LINE('',#705,#409);
#366=LINE('',#706,#410);
#367=LINE('',#707,#411);
#368=LINE('',#708,#412);
#369=LINE('',#709,#413);
#370=LINE('',#712,#414);
#371=LINE('',#713,#415);
#372=LINE('',#714,#416);
#373=LINE('',#718,#417);
#374=LINE('',#719,#418);
#375=LINE('',#721,#419);
#376=LINE('',#724,#420);
#377=LINE('',#725,#421);
#378=LINE('',#726,#422);
#379=LINE('',#727,#423);
#380=LINE('',#728,#424);
#381=VECTOR('',#508,1.);
#382=VECTOR('',#509,1.);
#383=VECTOR('',#510,1.);
#384=VECTOR('',#511,1.);
#385=VECTOR('',#512,1.);
#386=VECTOR('',#513,1.);
#387=VECTOR('',#514,1.);
#388=VECTOR('',#515,1.);
#389=VECTOR('',#516,1.);
#390=VECTOR('',#517,1.);
#391=VECTOR('',#518,1.);
#392=VECTOR('',#519,1.);
#393=VECTOR('',#520,1.);
#394=VECTOR('',#521,1.);
#395=VECTOR('',#522,1.);
#396=VECTOR('',#523,1.);
#397=VECTOR('',#524,1.);
#398=VECTOR('',#525,1.);
#399=VECTOR('',#526,1.);
#400=VECTOR('',#527,1.);
#401=VECTOR('',#528,1.);
#402=VECTOR('',#533,1.);
#403=VECTOR('',#534,1.);
#404=VECTOR('',#535,1.);
#405=VECTOR('',#542,1.);
#406=VECTOR('',#543,1.);
#407=VECTOR('',#546,1.);
#408=VECTOR('',#551,1.);
#409=VECTOR('',#552,1.);
#410=VECTOR('',#553,1.);
#411=VECTOR('',#554,1.);
#412=VECTOR('',#555,1.);
#413=VECTOR('',#556,1.);
#414=VECTOR('',#561,1.);
#415=VECTOR('',#562,1.);
#416=VECTOR('',#563,1.);
#417=VECTOR('',#570,1.);
#418=VECTOR('',#571,1.);
#419=VECTOR('',#574,1.);
#420=VECTOR('',#579,1.);
#421=VECTOR('',#580,1.);
#422=VECTOR('',#581,1.);
#423=VECTOR('',#582,1.);
#424=VECTOR('',#583,1.);
#425=VERTEX_POINT('',#629);
#426=VERTEX_POINT('',#630);
#427=VERTEX_POINT('',#631);
#428=VERTEX_POINT('',#632);
#429=VERTEX_POINT('',#633);
#430=VERTEX_POINT('',#634);
#431=VERTEX_POINT('',#635);
#432=VERTEX_POINT('',#636);
#433=VERTEX_POINT('',#637);
#434=VERTEX_POINT('',#638);
#435=VERTEX_POINT('',#639);
#436=VERTEX_POINT('',#640);
#437=VERTEX_POINT('',#641);
#438=VERTEX_POINT('',#642);
#439=VERTEX_POINT('',#643);
#440=VERTEX_POINT('',#644);
#441=VERTEX_POINT('',#645);
#442=VERTEX_POINT('',#646);
#443=VERTEX_POINT('',#647);
#444=VERTEX_POINT('',#648);
#445=VERTEX_POINT('',#649);
#446=VERTEX_POINT('',#650);
#447=VERTEX_POINT('',#651);
#448=VERTEX_POINT('',#652);
#449=VERTEX_POINT('',#653);
#450=VERTEX_POINT('',#654);
#451=VERTEX_POINT('',#655);
#452=VERTEX_POINT('',#656);
#453=VERTEX_POINT('',#657);
#454=VERTEX_POINT('',#658);
#455=VERTEX_POINT('',#659);
#456=VERTEX_POINT('',#660);
#457=VERTEX_POINT('',#661);
#458=VERTEX_POINT('',#662);
#459=VERTEX_POINT('',#663);
#460=VERTEX_POINT('',#664);
#461=VERTEX_POINT('',#665);
#462=VERTEX_POINT('',#666);
#463=VERTEX_POINT('',#667);
#464=VERTEX_POINT('',#668);
#465=SHAPE_DEFINITION_REPRESENTATION(#751,#466);
#466=SHAPE_REPRESENTATION('master',(#467),#753);
#467=AXIS2_PLACEMENT_3D('',#628,#507,#506);
#468=AXIS2_PLACEMENT_3D('',#690,#530,#529);
#469=AXIS2_PLACEMENT_3D('',#691,#532,#531);
#470=AXIS2_PLACEMENT_3D('',#695,#537,#536);
#471=AXIS2_PLACEMENT_3D('',#696,#539,#538);
#472=AXIS2_PLACEMENT_3D('',#697,#541,#540);
#473=AXIS2_PLACEMENT_3D('',#700,#545,#544);
#474=AXIS2_PLACEMENT_3D('',#702,#548,#547);
#475=AXIS2_PLACEMENT_3D('',#703,#550,#549);
#476=AXIS2_PLACEMENT_3D('',#710,#558,#557);
#477=AXIS2_PLACEMENT_3D('',#711,#560,#559);
#478=AXIS2_PLACEMENT_3D('',#715,#565,#564);
#479=AXIS2_PLACEMENT_3D('',#716,#567,#566);
#480=AXIS2_PLACEMENT_3D('',#717,#569,#568);
#481=AXIS2_PLACEMENT_3D('',#720,#573,#572);
#482=AXIS2_PLACEMENT_3D('',#722,#576,#575);
#483=AXIS2_PLACEMENT_3D('',#723,#578,#577);
#484=AXIS2_PLACEMENT_3D('',#729,#585,#584);
#485=AXIS2_PLACEMENT_3D('',#730,#587,#586);
#486=AXIS2_PLACEMENT_3D('',#731,#589,#588);
#487=AXIS2_PLACEMENT_3D('',#732,#591,#590);
#488=AXIS2_PLACEMENT_3D('',#733,#593,#592);
#489=AXIS2_PLACEMENT_3D('',#734,#595,#594);
#490=AXIS2_PLACEMENT_3D('',#735,#597,#596);
#491=AXIS2_PLACEMENT_3D('',#736,#599,#598);
#492=AXIS2_PLACEMENT_3D('',#737,#601,#600);
#493=AXIS2_PLACEMENT_3D('',#738,#603,#602);
#494=AXIS2_PLACEMENT_3D('',#739,#605,#604);
#495=AXIS2_PLACEMENT_3D('',#740,#607,#606);
#496=AXIS2_PLACEMENT_3D('',#741,#609,#608);
#497=AXIS2_PLACEMENT_3D('',#742,#611,#610);
#498=AXIS2_PLACEMENT_3D('',#743,#613,#612);
#499=AXIS2_PLACEMENT_3D('',#744,#615,#614);
#500=AXIS2_PLACEMENT_3D('',#745,#617,#616);
#501=AXIS2_PLACEMENT_3D('',#746,#619,#618);
#502=AXIS2_PLACEMENT_3D('',#747,#621,#620);
#503=AXIS2_PLACEMENT_3D('',#748,#623,#622);
#504=AXIS2_PLACEMENT_3D('',#749,#625,#624);
#505=AXIS2_PLACEMENT_3D('',#750,#627,#626);
#506=DIRECTION('',(1.,0.,0.));
#507=DIRECTION('',(0.,0.,1.));
#508=DIRECTION('',(2.50620292305548E-015,-1.,-7.44180075241576E-016));
#509=DIRECTION('',(2.50620292305548E-015,-1.,-7.44180075241576E-016));
#510=DIRECTION('',(2.50620292305548E-015,-1.,-7.44180075241576E-016));
#511=DIRECTION('',(2.50620292305548E-015,-1.,-7.44180075241576E-016));
#512=DIRECTION('',(2.50620292305548E-015,-1.,-7.44180075241576E-016));
#513=DIRECTION('',(2.50620292305548E-015,-1.,-7.44180075241576E-016));
#514=DIRECTION('',(2.50620292305548E-015,-1.,-7.44180075241576E-016));
#515=DIRECTION('',(2.50620292305548E-015,-1.,-7.44180075241576E-016));
#516=DIRECTION('',(2.50620292305548E-015,-1.,-7.44180075241576E-016));
#517=DIRECTION('',(2.50620292305548E-015,-1.,-7.44180075241576E-016));
#518=DIRECTION('',(2.50620292305548E-015,-1.,-7.44180075241576E-016));
#519=DIRECTION('',(2.50620292305548E-015,-1.,-7.44180075241576E-016));
#520=DIRECTION('',(2.50620292305548E-015,-1.,-7.44180075241576E-016));
#521=DIRECTION('',(2.50620292305548E-015,-1.,-7.44180075241576E-016));
#522=DIRECTION('',(2.50620292305548E-015,-1.,-7.44180075241576E-016));
#523=DIRECTION('',(2.50620292305548E-015,-1.,-7.44180075241576E-016));
#524=DIRECTION('',(2.50620292305548E-015,-1.,-7.44180075241576E-016));
#525=DIRECTION('',(2.50620292305548E-015,-1.,-7.44180075241576E-016));
#526=DIRECTION('',(2.50620292305548E-015,-1.,-7.44180075241576E-016));
#527=DIRECTION('',(2.50620292305548E-015,-1.,-7.44180075241576E-016));
#528=DIRECTION('',(-0.102553716181372,-0.,0.994727467851064));
#529=DIRECTION('',(-0.763667925771342,0.,0.645609246485903));
#530=DIRECTION('',(0.,1.,0.));
#531=DIRECTION('',(0.150898992349096,0.,-0.988549186488982));
#532=DIRECTION('',(0.,-1.,0.));
#533=DIRECTION('',(0.316227340771582,-0.,0.948683439798826));
#534=DIRECTION('',(0.989270593453719,0.,0.146094808010847));
#535=DIRECTION('',(0.470941312378313,-0.,-0.882164542642353));
#536=DIRECTION('',(-0.474639719656389,0.,0.880180172762659));
#537=DIRECTION('',(0.,1.,0.));
#538=DIRECTION('',(-0.693010464045413,0.,0.72092752529194));
#539=DIRECTION('',(0.,1.,0.));
#540=DIRECTION('',(-0.678569782064938,0.,-0.734535942529937));
#541=DIRECTION('',(0.,1.,0.));
#542=DIRECTION('',(-0.136218327850011,-0.,0.990678841581744));
#543=DIRECTION('',(0.957024398801457,0.,0.290007413868524));
#544=DIRECTION('',(-0.984789912082796,0.,0.173749328228798));
#545=DIRECTION('',(0.,1.,0.));
#546=DIRECTION('',(0.975191587693777,0.,0.221362524586459));
#547=DIRECTION('',(0.903329592657832,0.,-0.428947137802125));
#548=DIRECTION('',(0.,-1.,0.));
#549=DIRECTION('',(-0.923326959934061,-0.,-0.38401474588735));
#550=DIRECTION('',(0.,-1.,0.));
#551=DIRECTION('',(-0.148461579481842,-0.,-0.988918176300626));
#552=DIRECTION('',(-0.766100390610381,-0.,-0.642720928169156));
#553=DIRECTION('',(0.,0.,-1.));
#554=DIRECTION('',(-0.749383038156693,-0.,-0.662136739747195));
#555=DIRECTION('',(-1.,-0.,-0.));
#556=DIRECTION('',(-0.102553716181372,-0.,0.994727467851064));
#557=DIRECTION('',(-0.763667925771342,0.,0.645609246485903));
#558=DIRECTION('',(0.,1.,0.));
#559=DIRECTION('',(0.150898992349096,0.,-0.988549186488982));
#560=DIRECTION('',(0.,-1.,0.));
#561=DIRECTION('',(0.316227340771582,-0.,0.948683439798826));
#562=DIRECTION('',(0.989270593453719,0.,0.146094808010847));
#563=DIRECTION('',(0.470941312378313,-0.,-0.882164542642353));
#564=DIRECTION('',(-0.474639719656389,0.,0.880180172762659));
#565=DIRECTION('',(0.,1.,0.));
#566=DIRECTION('',(-0.693010464045413,0.,0.72092752529194));
#567=DIRECTION('',(0.,1.,0.));
#568=DIRECTION('',(-0.678569782064938,0.,-0.734535942529937));
#569=DIRECTION('',(0.,1.,0.));
#570=DIRECTION('',(-0.136218327850011,-0.,0.990678841581744));
#571=DIRECTION('',(0.957024398801457,0.,0.290007413868524));
#572=DIRECTION('',(-0.984789912082796,0.,0.173749328228798));
#573=DIRECTION('',(0.,1.,0.));
#574=DIRECTION('',(0.975191587693777,0.,0.221362524586459));
#575=DIRECTION('',(0.903329592657832,0.,-0.428947137802125));
#576=DIRECTION('',(0.,-1.,0.));
#577=DIRECTION('',(-0.923326959934061,-0.,-0.38401474588735));
#578=DIRECTION('',(0.,-1.,0.));
#579=DIRECTION('',(-0.148461579481842,-0.,-0.988918176300626));
#580=DIRECTION('',(-0.766100390610381,-0.,-0.642720928169156));
#581=DIRECTION('',(0.,0.,-1.));
#582=DIRECTION('',(-0.749383038156693,-0.,-0.662136739747195));
#583=DIRECTION('',(-1.,-0.,-0.));
#584=DIRECTION('',(0.,-1.,-7.44180075241576E-016));
#585=DIRECTION('',(0.,-7.44180075241576E-016,1.));
#586=DIRECTION('',(0.749383038156693,1.97215226305253E-031,0.662136739747195)
);
#587=DIRECTION('',(-0.662136739747195,-2.21712495833705E-015,0.749383038156693
));
#588=DIRECTION('',(2.50620292305548E-015,-1.,0.));
#589=DIRECTION('',(-1.,-2.50620292305548E-015,-0.));
#590=DIRECTION('',(0.766100390610381,0.,0.642720928169156));
#591=DIRECTION('',(-0.642720928169156,-2.1809057152135E-015,0.766100390610381)
);
#592=DIRECTION('',(0.148461579481842,4.93038065763132E-032,0.988918176300627)
);
#593=DIRECTION('',(-0.988918176300627,-2.5889117734966E-015,0.148461579481842)
);
#594=DIRECTION('',(1.,2.50620292305548E-015,0.));
#595=DIRECTION('',(2.50620292305548E-015,-1.,-7.44180075241576E-016));
#596=DIRECTION('',(1.,2.50620292305548E-015,0.));
#597=DIRECTION('',(2.50620292305548E-015,-1.,-7.44180075241576E-016));
#598=DIRECTION('',(-0.975191587693777,0.,-0.221362524586459));
#599=DIRECTION('',(0.221362524586459,1.28049755527843E-015,-0.975191587693777)
);
#600=DIRECTION('',(1.,2.50620292305548E-015,0.));
#601=DIRECTION('',(2.50620292305548E-015,-1.,-7.44180075241576E-016));
#602=DIRECTION('',(-0.957024398801457,-4.93038065763132E-032,
-0.290007413868524));
#603=DIRECTION('',(0.290007413868524,1.43901591745315E-015,-0.957024398801457)
);
#604=DIRECTION('',(0.136218327850011,0.,-0.990678841581744));
#605=DIRECTION('',(0.990678841581744,2.38147124311268E-015,0.136218327850011)
);
#606=DIRECTION('',(1.,2.50620292305548E-015,0.));
#607=DIRECTION('',(2.50620292305548E-015,-1.,-7.44180075241576E-016));
#608=DIRECTION('',(1.,2.50620292305548E-015,0.));
#609=DIRECTION('',(2.50620292305548E-015,-1.,-7.44180075241576E-016));
#610=DIRECTION('',(1.,2.50620292305548E-015,0.));
#611=DIRECTION('',(2.50620292305548E-015,-1.,-7.44180075241576E-016));
#612=DIRECTION('',(-0.470941312378313,0.,0.882164542642353));
#613=DIRECTION('',(-0.882164542642353,-1.8604182141061E-015,-0.470941312378313
));
#614=DIRECTION('',(-0.989270593453719,0.,-0.146094808010847));
#615=DIRECTION('',(0.146094808010847,1.10233869955068E-015,-0.989270593453719)
);
#616=DIRECTION('',(-0.316227340771582,-9.86076131526265E-032,
-0.948683439798827));
#617=DIRECTION('',(0.948683439798827,2.61292329612698E-015,-0.316227340771582)
);
#618=DIRECTION('',(1.,2.50620292305548E-015,0.));
#619=DIRECTION('',(2.50620292305548E-015,-1.,-7.44180075241576E-016));
#620=DIRECTION('',(1.,2.50620292305548E-015,0.));
#621=DIRECTION('',(2.50620292305548E-015,-1.,-7.44180075241576E-016));
#622=DIRECTION('',(0.102553716181372,0.,-0.994727467851065));
#623=DIRECTION('',(0.994727467851065,2.41667045534775E-015,0.102553716181372)
);
#624=DIRECTION('',(0.,0.,-1.));
#625=DIRECTION('',(0.,-1.,0.));
#626=DIRECTION('',(0.,0.,-1.));
#627=DIRECTION('',(0.,-1.,0.));
#628=CARTESIAN_POINT('',(0.,0.,0.));
#629=CARTESIAN_POINT('',(228.357702999995,2168.281361,2249.5));
#630=CARTESIAN_POINT('',(229.026974999995,2168.281361,2243.008346));
#631=CARTESIAN_POINT('',(224.385681188007,2168.281361,2240.1444446068));
#632=CARTESIAN_POINT('',(219.936026999995,2168.281361,2237.654168));
#633=CARTESIAN_POINT('',(219.489845999995,2168.281361,2236.315623));
#634=CARTESIAN_POINT('',(207.490650944966,2168.281361,2234.54359004011));
#635=CARTESIAN_POINT('',(204.380193999995,2168.281361,2240.37008));
#636=CARTESIAN_POINT('',(158.096663889702,2168.281361,2223.90937992425));
#637=CARTESIAN_POINT('',(150.50689341606,2168.281361,2218.37433884077));
#638=CARTESIAN_POINT('',(150.718699999995,2168.281361,2197.026542));
#639=CARTESIAN_POINT('',(151.909655999995,2168.281361,2188.365043));
#640=CARTESIAN_POINT('',(137.604501416506,2168.281361,2184.03014736835));
#641=CARTESIAN_POINT('',(132.854357999995,2168.281361,2178.674991));
#642=CARTESIAN_POINT('',(124.030454999995,2168.281361,2176.672019));
#643=CARTESIAN_POINT('',(122.547447320493,2168.281361,2171.80828276473));
#644=CARTESIAN_POINT('',(103.080453999995,2168.281361,2172.287135));
#645=CARTESIAN_POINT('',(104.178814999995,2168.281361,2179.603433));
#646=CARTESIAN_POINT('',(137.236935999995,2168.281361,2207.337587));
#647=CARTESIAN_POINT('',(137.236935999995,2168.281361,2216.10369377004));
#648=CARTESIAN_POINT('',(175.033698999995,2168.281361,2249.5));
#649=CARTESIAN_POINT('',(228.357703,168.281361,2249.5));
#650=CARTESIAN_POINT('',(229.026975,168.281361,2243.008346));
#651=CARTESIAN_POINT('',(224.385681188012,168.281361,2240.14444460679));
#652=CARTESIAN_POINT('',(219.936027,168.281361,2237.654168));
#653=CARTESIAN_POINT('',(219.489846,168.281361,2236.315623));
#654=CARTESIAN_POINT('',(207.490650944971,168.281361,2234.54359004011));
#655=CARTESIAN_POINT('',(204.380194,168.281361,2240.37008));
#656=CARTESIAN_POINT('',(158.096663889707,168.281361,2223.90937992425));
#657=CARTESIAN_POINT('',(150.506893416065,168.281361,2218.37433884077));
#658=CARTESIAN_POINT('',(150.7187,168.281361,2197.026542));
#659=CARTESIAN_POINT('',(151.909656,168.281361,2188.365043));
#660=CARTESIAN_POINT('',(137.604501416511,168.281361,2184.03014736835));
#661=CARTESIAN_POINT('',(132.854358,168.281361,2178.674991));
#662=CARTESIAN_POINT('',(124.030455,168.281361,2176.672019));
#663=CARTESIAN_POINT('',(122.547447320498,168.281361,2171.80828276473));
#664=CARTESIAN_POINT('',(103.080454,168.281361,2172.287135));
#665=CARTESIAN_POINT('',(104.178815,168.281361,2179.603433));
#666=CARTESIAN_POINT('',(137.236936,168.281361,2207.337587));
#667=CARTESIAN_POINT('',(137.236936,168.281361,2216.10369377004));
#668=CARTESIAN_POINT('',(175.033699,168.281361,2249.5));
#669=CARTESIAN_POINT('',(175.033698999995,2168.281361,2249.5));
#670=CARTESIAN_POINT('',(137.236935999995,2168.281361,2216.10369377004));
#671=CARTESIAN_POINT('',(137.236935999995,2168.281361,2207.337587));
#672=CARTESIAN_POINT('',(104.178814999995,2168.281361,2179.603433));
#673=CARTESIAN_POINT('',(103.080453999995,2168.281361,2172.287135));
#674=CARTESIAN_POINT('',(122.547447320493,2168.281361,2171.80828276473));
#675=CARTESIAN_POINT('',(124.030454999995,2168.281361,2176.672019));
#676=CARTESIAN_POINT('',(132.854357999995,2168.281361,2178.674991));
#677=CARTESIAN_POINT('',(137.604501416506,2168.281361,2184.03014736835));
#678=CARTESIAN_POINT('',(151.909655999995,2168.281361,2188.365043));
#679=CARTESIAN_POINT('',(150.718699999995,2168.281361,2197.026542));
#680=CARTESIAN_POINT('',(150.50689341606,2168.281361,2218.37433884077));
#681=CARTESIAN_POINT('',(158.096663889702,2168.281361,2223.90937992425));
#682=CARTESIAN_POINT('',(204.380193999995,2168.281361,2240.37008));
#683=CARTESIAN_POINT('',(207.490650944966,2168.281361,2234.54359004011));
#684=CARTESIAN_POINT('',(219.489845999995,2168.281361,2236.315623));
#685=CARTESIAN_POINT('',(219.936026999995,2168.281361,2237.654168));
#686=CARTESIAN_POINT('',(224.385681188007,2168.281361,2240.1444446068));
#687=CARTESIAN_POINT('',(229.026974999995,2168.281361,2243.008346));
#688=CARTESIAN_POINT('',(228.357702999995,2168.281361,2249.5));
#689=CARTESIAN_POINT('',(229.026974999995,2168.281361,2243.008346));
#690=CARTESIAN_POINT('',(231.084268786156,2168.281361,2234.48142021384));
#691=CARTESIAN_POINT('',(218.840265944481,2168.281361,2244.83257047408));
#692=CARTESIAN_POINT('',(219.489845999995,2168.281361,2236.315623));
#693=CARTESIAN_POINT('',(207.490650944966,2168.281361,2234.54359004011));
#694=CARTESIAN_POINT('',(204.380193999995,2168.281361,2240.37008));
#695=CARTESIAN_POINT('',(234.662219406935,2168.281361,2081.92487864481));
#696=CARTESIAN_POINT('',(174.5934090922,2168.281361,2193.31752795521));
#697=CARTESIAN_POINT('',(160.671522705664,2168.281361,2207.80024015186));
#698=CARTESIAN_POINT('',(151.909655999995,2168.281361,2188.365043));
#699=CARTESIAN_POINT('',(137.604501416505,2168.281361,2184.03014736835));
#700=CARTESIAN_POINT('',(139.587246824326,2168.281361,2177.48708798037));
#701=CARTESIAN_POINT('',(124.030454999995,2168.281361,2176.672019));
#702=CARTESIAN_POINT('',(106.906861863953,2168.281361,2179.23523348091));
#703=CARTESIAN_POINT('',(112.920508352943,2168.281361,2176.37964625098));
#704=CARTESIAN_POINT('',(104.178814999995,2168.281361,2179.603433));
#705=CARTESIAN_POINT('',(137.236935999995,2168.281361,2207.337587));
#706=CARTESIAN_POINT('',(137.236935999995,2168.281361,2216.10369377004));
#707=CARTESIAN_POINT('',(175.033698999995,2168.281361,2249.5));
#708=CARTESIAN_POINT('',(228.357702999995,2168.281361,2249.5));
#709=CARTESIAN_POINT('',(229.026975,168.281361,2243.008346));
#710=CARTESIAN_POINT('',(231.084268786161,168.281361,2234.48142021384));
#711=CARTESIAN_POINT('',(218.840265944486,168.281361,2244.83257047408));
#712=CARTESIAN_POINT('',(219.489846,168.281361,2236.315623));
#713=CARTESIAN_POINT('',(207.490650944971,168.281361,2234.54359004011));
#714=CARTESIAN_POINT('',(204.380194,168.281361,2240.37008));
#715=CARTESIAN_POINT('',(234.66221940694,168.281361,2081.9248786448));
#716=CARTESIAN_POINT('',(174.593409092205,168.281361,2193.3175279552));
#717=CARTESIAN_POINT('',(160.671522705669,168.281361,2207.80024015186));
#718=CARTESIAN_POINT('',(151.909656,168.281361,2188.365043));
#719=CARTESIAN_POINT('',(137.60450141651,168.281361,2184.03014736835));
#720=CARTESIAN_POINT('',(139.587246824331,168.281361,2177.48708798037));
#721=CARTESIAN_POINT('',(124.030455,168.281361,2176.672019));
#722=CARTESIAN_POINT('',(106.906861863958,168.281361,2179.23523348091));
#723=CARTESIAN_POINT('',(112.920508352948,168.281361,2176.37964625098));
#724=CARTESIAN_POINT('',(104.178815,168.281361,2179.603433));
#725=CARTESIAN_POINT('',(137.236936,168.281361,2207.337587));
#726=CARTESIAN_POINT('',(137.236936,168.281361,2216.10369377004));
#727=CARTESIAN_POINT('',(175.033699,168.281361,2249.5));
#728=CARTESIAN_POINT('',(228.357703,168.281361,2249.5));
#729=CARTESIAN_POINT('',(228.357702999995,2168.281361,2249.5));
#730=CARTESIAN_POINT('',(175.033698999995,2168.281361,2249.5));
#731=CARTESIAN_POINT('',(137.236935999995,2168.281361,2216.10369377004));
#732=CARTESIAN_POINT('',(137.236935999995,2168.281361,2207.337587));
#733=CARTESIAN_POINT('',(104.178814999995,2168.281361,2179.603433));
#734=CARTESIAN_POINT('',(112.920508352943,2168.281361,2176.37964625098));
#735=CARTESIAN_POINT('',(106.906861863953,2168.281361,2179.23523348091));
#736=CARTESIAN_POINT('',(124.030454999995,2168.281361,2176.672019));
#737=CARTESIAN_POINT('',(139.587246824326,2168.281361,2177.48708798037));
#738=CARTESIAN_POINT('',(137.604501416505,2168.281361,2184.03014736835));
#739=CARTESIAN_POINT('',(151.909655999995,2168.281361,2188.365043));
#740=CARTESIAN_POINT('',(160.671522705664,2168.281361,2207.80024015186));
#741=CARTESIAN_POINT('',(174.5934090922,2168.281361,2193.31752795521));
#742=CARTESIAN_POINT('',(234.662219406935,2168.281361,2081.92487864481));
#743=CARTESIAN_POINT('',(204.380193999995,2168.281361,2240.37008));
#744=CARTESIAN_POINT('',(207.490650944966,2168.281361,2234.54359004011));
#745=CARTESIAN_POINT('',(219.489845999995,2168.281361,2236.315623));
#746=CARTESIAN_POINT('',(218.840265944481,2168.281361,2244.83257047408));
#747=CARTESIAN_POINT('',(231.084268786156,2168.281361,2234.48142021384));
#748=CARTESIAN_POINT('',(229.026974999995,2168.281361,2243.008346));
#749=CARTESIAN_POINT('',(112.920508352943,2168.281361,2176.37964625098));
#750=CARTESIAN_POINT('',(112.920508352948,168.281361,2176.37964625098));
#751=PRODUCT_DEFINITION_SHAPE('','',#752);
#752=PRODUCT_DEFINITION('','',#764,#769);
#753=(
GEOMETRIC_REPRESENTATION_CONTEXT(3)
GLOBAL_UNCERTAINTY_ASSIGNED_CONTEXT((#754))
GLOBAL_UNIT_ASSIGNED_CONTEXT((#756,#755,#759))
REPRESENTATION_CONTEXT('','')
);
#754=UNCERTAINTY_MEASURE_WITH_UNIT(LENGTH_MEASURE(0.001),#756,'','tolerance');
#755=(
CONVERSION_BASED_UNIT('',#757)
NAMED_UNIT(#763)
PLANE_ANGLE_UNIT()
);
#756=(
CONVERSION_BASED_UNIT('',#758)
LENGTH_UNIT()
NAMED_UNIT(#762)
);
#757=PLANE_ANGLE_MEASURE_WITH_UNIT(PLANE_ANGLE_MEASURE(0.0174532925199433),
#760);
#758=LENGTH_MEASURE_WITH_UNIT(LENGTH_MEASURE(1.),#761);
#759=(
NAMED_UNIT(*)
SI_UNIT($,.STERADIAN.)
SOLID_ANGLE_UNIT()
);
#760=(
NAMED_UNIT(*)
PLANE_ANGLE_UNIT()
SI_UNIT($,.RADIAN.)
);
#761=(
LENGTH_UNIT()
NAMED_UNIT(*)
SI_UNIT(.MILLI.,.METRE.)
);
#762=DIMENSIONAL_EXPONENTS(1.,0.,0.,0.,0.,0.,0.);
#763=DIMENSIONAL_EXPONENTS(0.,0.,0.,0.,0.,0.,0.);
#764=PRODUCT_DEFINITION_FORMATION_WITH_SPECIFIED_SOURCE('','',#767,.NOT_KNOWN.
);
#765=PRODUCT_CATEGORY_RELATIONSHIP('','',#770,#766);
#766=PRODUCT_RELATED_PRODUCT_CATEGORY('assembly','',(#767));
#767=PRODUCT('','master','',(#768));
#768=PRODUCT_CONTEXT('',#772,'');
#769=PRODUCT_DEFINITION_CONTEXT('',#772,'part_definition');
#770=PRODUCT_CATEGORY('part','');
#771=APPLICATION_PROTOCOL_DEFINITION('international standard',
'automotive_design_cc2',1994,#772);
#772=APPLICATION_CONTEXT(
'configuration controlled 3D designs of mechanical parts and assemblies');
ENDSEC;
END-ISO-10303-21;
36221