ISO-10303-21;
HEADER;
/* Generated by software using Delcam plc STEP library */

FILE_DESCRIPTION(
/* description */ ('AP-214 File'),
/* implementation_level */ '2;1');

FILE_NAME(
/* name */ 'D718',
/* time_stamp */ 'Wed Feb 01 09:27:17 2017',
/* author */ (''),
/* organization */ (''),
/* preprocessor_version */ 'DELCAM STEP V1',
/* originating_system */ 'Exchange7.1.0006',
/* authorisation */ '');

FILE_SCHEMA (('AUTOMOTIVE_DESIGN'));
ENDSEC;
DATA;
#10=PRESENTATION_STYLE_ASSIGNMENT((#20));
#11=PRESENTATION_STYLE_ASSIGNMENT((#21));
#12=SURFACE_SIDE_STYLE('',(#14));
#13=SURFACE_SIDE_STYLE('',(#15));
#14=SURFACE_STYLE_FILL_AREA(#16);
#15=SURFACE_STYLE_FILL_AREA(#17);
#16=FILL_AREA_STYLE('',(#18));
#17=FILL_AREA_STYLE('',(#19));
#18=FILL_AREA_STYLE_COLOUR('',#31);
#19=FILL_AREA_STYLE_COLOUR('',#32);
#20=SURFACE_STYLE_USAGE(.BOTH.,#12);
#21=SURFACE_STYLE_USAGE(.BOTH.,#13);
#22=STYLED_ITEM('',(#10),#40);
#23=STYLED_ITEM('',(#10),#41);
#24=STYLED_ITEM('',(#10),#42);
#25=STYLED_ITEM('',(#10),#43);
#26=STYLED_ITEM('',(#10),#44);
#27=STYLED_ITEM('',(#10),#45);
#28=STYLED_ITEM('',(#10),#46);
#29=STYLED_ITEM('',(#10),#47);
#30=STYLED_ITEM('',(#11),#38);
#31=COLOUR_RGB('',0.,0.,0.);
#32=COLOUR_RGB('rgb_colour_1',0.4,0.4,0.4);
#33=MECHANICAL_DESIGN_GEOMETRIC_PRESENTATION_REPRESENTATION('',(#22,#23,#24,
#25,#26,#27,#28,#29,#30),#263);
#34=PRESENTATION_LAYER_ASSIGNMENT('64','D718',(#40,#41,#42,#43,#44,#45,#46,#47
,#38));
#35=SHAPE_REPRESENTATION_RELATIONSHIP('','',#172,#36);
#36=ADVANCED_BREP_SHAPE_REPRESENTATION('',(#37),#263);
#37=MANIFOLD_SOLID_BREP('8043',#38);
#38=CLOSED_SHELL('',(#40,#41,#42,#43,#44,#45,#46,#47));
#39=CYLINDRICAL_SURFACE('',#180,147.768965977607);
#40=ADVANCED_FACE('',(#48),#100,.F.);
#41=ADVANCED_FACE('',(#49),#101,.F.);
#42=ADVANCED_FACE('',(#50),#102,.F.);
#43=ADVANCED_FACE('',(#51),#103,.F.);
#44=ADVANCED_FACE('',(#52),#39,.F.);
#45=ADVANCED_FACE('',(#53),#104,.F.);
#46=ADVANCED_FACE('',(#54),#105,.F.);
#47=ADVANCED_FACE('',(#55),#106,.T.);
#48=FACE_OUTER_BOUND('',#56,.T.);
#49=FACE_OUTER_BOUND('',#57,.T.);
#50=FACE_OUTER_BOUND('',#58,.T.);
#51=FACE_OUTER_BOUND('',#59,.T.);
#52=FACE_OUTER_BOUND('',#60,.T.);
#53=FACE_OUTER_BOUND('',#61,.T.);
#54=FACE_OUTER_BOUND('',#62,.T.);
#55=FACE_OUTER_BOUND('',#63,.T.);
#56=EDGE_LOOP('',(#64,#65,#66,#67));
#57=EDGE_LOOP('',(#68,#69,#70,#71));
#58=EDGE_LOOP('',(#72,#73,#74,#75));
#59=EDGE_LOOP('',(#76,#77,#78,#79));
#60=EDGE_LOOP('',(#80,#81,#82,#83));
#61=EDGE_LOOP('',(#84,#85,#86,#87));
#62=EDGE_LOOP('',(#88,#89,#90,#91,#92,#93));
#63=EDGE_LOOP('',(#94,#95,#96,#97,#98,#99));
#64=ORIENTED_EDGE('',*,*,#126,.T.);
#65=ORIENTED_EDGE('',*,*,#109,.F.);
#66=ORIENTED_EDGE('',*,*,#120,.F.);
#67=ORIENTED_EDGE('',*,*,#114,.T.);
#68=ORIENTED_EDGE('',*,*,#125,.T.);
#69=ORIENTED_EDGE('',*,*,#110,.F.);
#70=ORIENTED_EDGE('',*,*,#119,.F.);
#71=ORIENTED_EDGE('',*,*,#109,.T.);
#72=ORIENTED_EDGE('',*,*,#124,.T.);
#73=ORIENTED_EDGE('',*,*,#111,.F.);
#74=ORIENTED_EDGE('',*,*,#118,.F.);
#75=ORIENTED_EDGE('',*,*,#110,.T.);
#76=ORIENTED_EDGE('',*,*,#123,.T.);
#77=ORIENTED_EDGE('',*,*,#112,.F.);
#78=ORIENTED_EDGE('',*,*,#117,.F.);
#79=ORIENTED_EDGE('',*,*,#111,.T.);
#80=ORIENTED_EDGE('',*,*,#122,.T.);
#81=ORIENTED_EDGE('',*,*,#113,.F.);
#82=ORIENTED_EDGE('',*,*,#116,.F.);
#83=ORIENTED_EDGE('',*,*,#112,.T.);
#84=ORIENTED_EDGE('',*,*,#121,.T.);
#85=ORIENTED_EDGE('',*,*,#114,.F.);
#86=ORIENTED_EDGE('',*,*,#115,.F.);
#87=ORIENTED_EDGE('',*,*,#113,.T.);
#88=ORIENTED_EDGE('',*,*,#120,.T.);
#89=ORIENTED_EDGE('',*,*,#119,.T.);
#90=ORIENTED_EDGE('',*,*,#118,.T.);
#91=ORIENTED_EDGE('',*,*,#117,.T.);
#92=ORIENTED_EDGE('',*,*,#116,.T.);
#93=ORIENTED_EDGE('',*,*,#115,.T.);
#94=ORIENTED_EDGE('',*,*,#126,.F.);
#95=ORIENTED_EDGE('',*,*,#121,.F.);
#96=ORIENTED_EDGE('',*,*,#122,.F.);
#97=ORIENTED_EDGE('',*,*,#123,.F.);
#98=ORIENTED_EDGE('',*,*,#124,.F.);
#99=ORIENTED_EDGE('',*,*,#125,.F.);
#100=PLANE('',#176);
#101=PLANE('',#177);
#102=PLANE('',#178);
#103=PLANE('',#179);
#104=PLANE('',#181);
#105=PLANE('',#182);
#106=PLANE('',#183);
#107=CIRCLE('',#174,147.768965977607);
#108=CIRCLE('',#175,147.768965977607);
#109=EDGE_CURVE('',#164,#170,#127,.T.);
#110=EDGE_CURVE('',#163,#169,#128,.T.);
#111=EDGE_CURVE('',#162,#168,#129,.T.);
#112=EDGE_CURVE('',#161,#167,#130,.T.);
#113=EDGE_CURVE('',#160,#166,#131,.T.);
#114=EDGE_CURVE('',#159,#165,#132,.T.);
#115=EDGE_CURVE('',#160,#159,#133,.T.);
#116=EDGE_CURVE('',#161,#160,#107,.T.);
#117=EDGE_CURVE('',#162,#161,#134,.T.);
#118=EDGE_CURVE('',#163,#162,#135,.T.);
#119=EDGE_CURVE('',#164,#163,#136,.T.);
#120=EDGE_CURVE('',#159,#164,#137,.T.);
#121=EDGE_CURVE('',#166,#165,#138,.T.);
#122=EDGE_CURVE('',#167,#166,#108,.T.);
#123=EDGE_CURVE('',#168,#167,#139,.T.);
#124=EDGE_CURVE('',#169,#168,#140,.T.);
#125=EDGE_CURVE('',#170,#169,#141,.T.);
#126=EDGE_CURVE('',#165,#170,#142,.T.);
#127=LINE('',#235,#143);
#128=LINE('',#236,#144);
#129=LINE('',#237,#145);
#130=LINE('',#238,#146);
#131=LINE('',#239,#147);
#132=LINE('',#240,#148);
#133=LINE('',#241,#149);
#134=LINE('',#243,#150);
#135=LINE('',#244,#151);
#136=LINE('',#245,#152);
#137=LINE('',#246,#153);
#138=LINE('',#247,#154);
#139=LINE('',#249,#155);
#140=LINE('',#250,#156);
#141=LINE('',#251,#157);
#142=LINE('',#252,#158);
#143=VECTOR('',#186,1.);
#144=VECTOR('',#187,1.);
#145=VECTOR('',#188,1.);
#146=VECTOR('',#189,1.);
#147=VECTOR('',#190,1.);
#148=VECTOR('',#191,1.);
#149=VECTOR('',#192,1.);
#150=VECTOR('',#195,1.);
#151=VECTOR('',#196,1.);
#152=VECTOR('',#197,1.);
#153=VECTOR('',#198,1.);
#154=VECTOR('',#199,1.);
#155=VECTOR('',#202,1.);
#156=VECTOR('',#203,1.);
#157=VECTOR('',#204,1.);
#158=VECTOR('',#205,1.);
#159=VERTEX_POINT('',#223);
#160=VERTEX_POINT('',#224);
#161=VERTEX_POINT('',#225);
#162=VERTEX_POINT('',#226);
#163=VERTEX_POINT('',#227);
#164=VERTEX_POINT('',#228);
#165=VERTEX_POINT('',#229);
#166=VERTEX_POINT('',#230);
#167=VERTEX_POINT('',#231);
#168=VERTEX_POINT('',#232);
#169=VERTEX_POINT('',#233);
#170=VERTEX_POINT('',#234);
#171=SHAPE_DEFINITION_REPRESENTATION(#261,#172);
#172=SHAPE_REPRESENTATION('master',(#173),#263);
#173=AXIS2_PLACEMENT_3D('',#222,#185,#184);
#174=AXIS2_PLACEMENT_3D('',#242,#194,#193);
#175=AXIS2_PLACEMENT_3D('',#248,#201,#200);
#176=AXIS2_PLACEMENT_3D('',#253,#207,#206);
#177=AXIS2_PLACEMENT_3D('',#254,#209,#208);
#178=AXIS2_PLACEMENT_3D('',#255,#211,#210);
#179=AXIS2_PLACEMENT_3D('',#256,#213,#212);
#180=AXIS2_PLACEMENT_3D('',#257,#215,#214);
#181=AXIS2_PLACEMENT_3D('',#258,#217,#216);
#182=AXIS2_PLACEMENT_3D('',#259,#219,#218);
#183=AXIS2_PLACEMENT_3D('',#260,#221,#220);
#184=DIRECTION('',(1.,0.,0.));
#185=DIRECTION('',(0.,0.,1.));
#186=DIRECTION('',(-0.,-1.,0.));
#187=DIRECTION('',(-0.,-1.,0.));
#188=DIRECTION('',(-0.,-1.,0.));
#189=DIRECTION('',(-0.,-1.,0.));
#190=DIRECTION('',(-0.,-1.,0.));
#191=DIRECTION('',(-0.,-1.,0.));
#192=DIRECTION('',(-1.,-0.,-0.));
#193=DIRECTION('',(-0.0539131232867483,1.84003144648686E-016,0.998545629972646
));
#194=DIRECTION('',(-3.78588930572494E-016,-1.,1.63830503133056E-016));
#195=DIRECTION('',(-0.,-0.,-1.));
#196=DIRECTION('',(1.,-0.,-0.));
#197=DIRECTION('',(0.738156898700646,-0.,0.67462907801298));
#198=DIRECTION('',(1.9297661962983E-015,-0.,1.));
#199=DIRECTION('',(-1.,-0.,-0.));
#200=DIRECTION('',(-0.0539131232867483,1.84003144648686E-016,0.998545629972646
));
#201=DIRECTION('',(-3.78588930572494E-016,-1.,1.63830503133056E-016));
#202=DIRECTION('',(-0.,-0.,-1.));
#203=DIRECTION('',(1.,-0.,-0.));
#204=DIRECTION('',(0.738156898700646,-0.,0.67462907801298));
#205=DIRECTION('',(1.9297661962983E-015,-0.,1.));
#206=DIRECTION('',(-1.9297661962983E-015,0.,-1.));
#207=DIRECTION('',(1.,-0.,-1.9297661962983E-015));
#208=DIRECTION('',(-0.738156898700646,0.,-0.67462907801298));
#209=DIRECTION('',(0.67462907801298,-0.,-0.738156898700646));
#210=DIRECTION('',(-1.,0.,0.));
#211=DIRECTION('',(-0.,0.,-1.));
#212=DIRECTION('',(0.,0.,1.));
#213=DIRECTION('',(-1.,0.,0.));
#214=DIRECTION('',(0.,-0.,-1.));
#215=DIRECTION('',(-0.,-1.,0.));
#216=DIRECTION('',(1.,0.,0.));
#217=DIRECTION('',(-0.,0.,1.));
#218=DIRECTION('',(1.,-3.78588930572494E-016,0.));
#219=DIRECTION('',(-3.78588930572494E-016,-1.,1.63830503133056E-016));
#220=DIRECTION('',(1.,-3.78588930572494E-016,0.));
#221=DIRECTION('',(-3.78588930572494E-016,-1.,1.63830503133056E-016));
#222=CARTESIAN_POINT('',(0.,0.,0.));
#223=CARTESIAN_POINT('',(103.080454,2168.281361,2096.094489));
#224=CARTESIAN_POINT('',(116.936994,2168.281361,2096.094489));
#225=CARTESIAN_POINT('',(256.627341,2168.281361,2237.898086));
#226=CARTESIAN_POINT('',(256.627341,2168.281361,2249.5));
#227=CARTESIAN_POINT('',(206.471882818665,2168.281361,2249.5));
#228=CARTESIAN_POINT('',(103.080454,2168.281361,2155.006723));
#229=CARTESIAN_POINT('',(103.080454,168.281361,2096.094489));
#230=CARTESIAN_POINT('',(116.936994,168.281361,2096.094489));
#231=CARTESIAN_POINT('',(256.627341,168.281361,2237.898086));
#232=CARTESIAN_POINT('',(256.627341,168.281361,2249.5));
#233=CARTESIAN_POINT('',(206.471882818665,168.281361,2249.5));
#234=CARTESIAN_POINT('',(103.080454,168.281361,2155.006723));
#235=CARTESIAN_POINT('',(103.080454,2168.281361,2155.006723));
#236=CARTESIAN_POINT('',(206.471882818665,2168.281361,2249.5));
#237=CARTESIAN_POINT('',(256.627341,2168.281361,2249.5));
#238=CARTESIAN_POINT('',(256.627341,2168.281361,2237.898086));
#239=CARTESIAN_POINT('',(116.936994,2168.281361,2096.094489));
#240=CARTESIAN_POINT('',(103.080454,2168.281361,2096.094489));
#241=CARTESIAN_POINT('',(116.936994,2168.281361,2096.094489));
#242=CARTESIAN_POINT('',(264.594027480706,2168.281361,2090.34403077748));
#243=CARTESIAN_POINT('',(256.627341,2168.281361,2249.5));
#244=CARTESIAN_POINT('',(206.471882818665,2168.281361,2249.5));
#245=CARTESIAN_POINT('',(103.080454,2168.281361,2155.006723));
#246=CARTESIAN_POINT('',(103.080454,2168.281361,2096.094489));
#247=CARTESIAN_POINT('',(116.936994,168.281361,2096.094489));
#248=CARTESIAN_POINT('',(264.594027480706,168.281361,2090.34403077748));
#249=CARTESIAN_POINT('',(256.627341,168.281361,2249.5));
#250=CARTESIAN_POINT('',(206.471882818665,168.281361,2249.5));
#251=CARTESIAN_POINT('',(103.080454,168.281361,2155.006723));
#252=CARTESIAN_POINT('',(103.080454,168.281361,2096.094489));
#253=CARTESIAN_POINT('',(103.080454,2168.281361,2096.094489));
#254=CARTESIAN_POINT('',(103.080454,2168.281361,2155.006723));
#255=CARTESIAN_POINT('',(206.471882818665,2168.281361,2249.5));
#256=CARTESIAN_POINT('',(256.627341,2168.281361,2249.5));
#257=CARTESIAN_POINT('',(264.594027480706,2168.281361,2090.34403077748));
#258=CARTESIAN_POINT('',(116.936994,2168.281361,2096.094489));
#259=CARTESIAN_POINT('',(264.594027480706,2168.281361,2090.34403077748));
#260=CARTESIAN_POINT('',(264.594027480706,168.281361,2090.34403077748));
#261=PRODUCT_DEFINITION_SHAPE('','',#262);
#262=PRODUCT_DEFINITION('','',#274,#279);
#263=(
GEOMETRIC_REPRESENTATION_CONTEXT(3)
GLOBAL_UNCERTAINTY_ASSIGNED_CONTEXT((#264))
GLOBAL_UNIT_ASSIGNED_CONTEXT((#266,#265,#269))
REPRESENTATION_CONTEXT('','')
);
#264=UNCERTAINTY_MEASURE_WITH_UNIT(LENGTH_MEASURE(0.001),#266,'','tolerance');
#265=(
CONVERSION_BASED_UNIT('',#267)
NAMED_UNIT(#273)
PLANE_ANGLE_UNIT()
);
#266=(
CONVERSION_BASED_UNIT('',#268)
LENGTH_UNIT()
NAMED_UNIT(#272)
);
#267=PLANE_ANGLE_MEASURE_WITH_UNIT(PLANE_ANGLE_MEASURE(0.0174532925199433),
#270);
#268=LENGTH_MEASURE_WITH_UNIT(LENGTH_MEASURE(1.),#271);
#269=(
NAMED_UNIT(*)
SI_UNIT($,.STERADIAN.)
SOLID_ANGLE_UNIT()
);
#270=(
NAMED_UNIT(*)
PLANE_ANGLE_UNIT()
SI_UNIT($,.RADIAN.)
);
#271=(
LENGTH_UNIT()
NAMED_UNIT(*)
SI_UNIT(.MILLI.,.METRE.)
);
#272=DIMENSIONAL_EXPONENTS(1.,0.,0.,0.,0.,0.,0.);
#273=DIMENSIONAL_EXPONENTS(0.,0.,0.,0.,0.,0.,0.);
#274=PRODUCT_DEFINITION_FORMATION_WITH_SPECIFIED_SOURCE('','',#277,.NOT_KNOWN.
);
#275=PRODUCT_CATEGORY_RELATIONSHIP('','',#280,#276);
#276=PRODUCT_RELATED_PRODUCT_CATEGORY('assembly','',(#277));
#277=PRODUCT('','master','',(#278));
#278=PRODUCT_CONTEXT('',#282,'');
#279=PRODUCT_DEFINITION_CONTEXT('',#282,'part_definition');
#280=PRODUCT_CATEGORY('part','');
#281=APPLICATION_PROTOCOL_DEFINITION('international standard',
'automotive_design_cc2',1994,#282);
#282=APPLICATION_CONTEXT(
'configuration controlled 3D designs of mechanical parts and assemblies');
ENDSEC;
END-ISO-10303-21;
12526