ISO-10303-21;
HEADER;
/* Generated by software using Delcam plc STEP library */

FILE_DESCRIPTION(
/* description */ ('AP-214 File'),
/* implementation_level */ '2;1');

FILE_NAME(
/* name */ 'D748',
/* time_stamp */ 'Mon Dec 26 14:06:25 2016',
/* author */ (''),
/* organization */ (''),
/* preprocessor_version */ 'DELCAM STEP V1',
/* originating_system */ 'Exchange7.1.0006',
/* authorisation */ '');

FILE_SCHEMA (('AUTOMOTIVE_DESIGN'));
ENDSEC;
DATA;
#10=PRESENTATION_STYLE_ASSIGNMENT((#20));
#11=PRESENTATION_STYLE_ASSIGNMENT((#21));
#12=SURFACE_SIDE_STYLE('',(#14));
#13=SURFACE_SIDE_STYLE('',(#15));
#14=SURFACE_STYLE_FILL_AREA(#16);
#15=SURFACE_STYLE_FILL_AREA(#17);
#16=FILL_AREA_STYLE('',(#18));
#17=FILL_AREA_STYLE('',(#19));
#18=FILL_AREA_STYLE_COLOUR('',#36);
#19=FILL_AREA_STYLE_COLOUR('',#37);
#20=SURFACE_STYLE_USAGE(.BOTH.,#12);
#21=SURFACE_STYLE_USAGE(.BOTH.,#13);
#22=STYLED_ITEM('',(#10),#49);
#23=STYLED_ITEM('',(#10),#50);
#24=STYLED_ITEM('',(#10),#51);
#25=STYLED_ITEM('',(#10),#52);
#26=STYLED_ITEM('',(#10),#53);
#27=STYLED_ITEM('',(#10),#54);
#28=STYLED_ITEM('',(#10),#55);
#29=STYLED_ITEM('',(#10),#56);
#30=STYLED_ITEM('',(#10),#57);
#31=STYLED_ITEM('',(#10),#58);
#32=STYLED_ITEM('',(#10),#59);
#33=STYLED_ITEM('',(#10),#60);
#34=STYLED_ITEM('',(#10),#61);
#35=STYLED_ITEM('',(#11),#43);
#36=COLOUR_RGB('',0.,0.,0.);
#37=COLOUR_RGB('rgb_colour_1',0.4,0.4,0.4);
#38=MECHANICAL_DESIGN_GEOMETRIC_PRESENTATION_REPRESENTATION('',(#22,#23,#24,
#25,#26,#27,#28,#29,#30,#31,#32,#33,#34,#35),#441);
#39=PRESENTATION_LAYER_ASSIGNMENT('110','D748',(#49,#50,#51,#52,#53,#54,#55,
#56,#57,#58,#59,#60,#61,#43));
#40=SHAPE_REPRESENTATION_RELATIONSHIP('','',#274,#41);
#41=ADVANCED_BREP_SHAPE_REPRESENTATION('',(#42),#441);
#42=MANIFOLD_SOLID_BREP('7537',#43);
#43=CLOSED_SHELL('',(#49,#50,#51,#52,#53,#54,#55,#56,#57,#58,#59,#60,#61));
#44=CYLINDRICAL_SURFACE('',#288,129.055467838155);
#45=CYLINDRICAL_SURFACE('',#289,17.0959770091317);
#46=CYLINDRICAL_SURFACE('',#290,1.35007282251974);
#47=CYLINDRICAL_SURFACE('',#292,118.543854963913);
#48=CYLINDRICAL_SURFACE('',#293,119.61719149227);
#49=ADVANCED_FACE('',(#62),#154,.T.);
#50=ADVANCED_FACE('',(#63),#155,.T.);
#51=ADVANCED_FACE('',(#64),#44,.T.);
#52=ADVANCED_FACE('',(#65),#45,.T.);
#53=ADVANCED_FACE('',(#66),#46,.T.);
#54=ADVANCED_FACE('',(#67),#156,.T.);
#55=ADVANCED_FACE('',(#68),#47,.F.);
#56=ADVANCED_FACE('',(#69),#48,.F.);
#57=ADVANCED_FACE('',(#70),#157,.T.);
#58=ADVANCED_FACE('',(#71),#158,.T.);
#59=ADVANCED_FACE('',(#72),#159,.T.);
#60=ADVANCED_FACE('',(#73),#160,.F.);
#61=ADVANCED_FACE('',(#74),#161,.T.);
#62=FACE_OUTER_BOUND('',#75,.T.);
#63=FACE_OUTER_BOUND('',#76,.T.);
#64=FACE_OUTER_BOUND('',#77,.T.);
#65=FACE_OUTER_BOUND('',#78,.T.);
#66=FACE_OUTER_BOUND('',#79,.T.);
#67=FACE_OUTER_BOUND('',#80,.T.);
#68=FACE_OUTER_BOUND('',#81,.T.);
#69=FACE_OUTER_BOUND('',#82,.T.);
#70=FACE_OUTER_BOUND('',#83,.T.);
#71=FACE_OUTER_BOUND('',#84,.T.);
#72=FACE_OUTER_BOUND('',#85,.T.);
#73=FACE_OUTER_BOUND('',#86,.T.);
#74=FACE_OUTER_BOUND('',#87,.T.);
#75=EDGE_LOOP('',(#88,#89,#90,#91));
#76=EDGE_LOOP('',(#92,#93,#94,#95));
#77=EDGE_LOOP('',(#96,#97,#98,#99));
#78=EDGE_LOOP('',(#100,#101,#102,#103));
#79=EDGE_LOOP('',(#104,#105,#106,#107));
#80=EDGE_LOOP('',(#108,#109,#110,#111));
#81=EDGE_LOOP('',(#112,#113,#114,#115));
#82=EDGE_LOOP('',(#116,#117,#118,#119));
#83=EDGE_LOOP('',(#120,#121,#122,#123));
#84=EDGE_LOOP('',(#124,#125,#126,#127));
#85=EDGE_LOOP('',(#128,#129,#130,#131));
#86=EDGE_LOOP('',(#132,#133,#134,#135,#136,#137,#138,#139,#140,#141,#142));
#87=EDGE_LOOP('',(#143,#144,#145,#146,#147,#148,#149,#150,#151,#152,#153));
#88=ORIENTED_EDGE('',*,*,#204,.F.);
#89=ORIENTED_EDGE('',*,*,#182,.F.);
#90=ORIENTED_EDGE('',*,*,#193,.T.);
#91=ORIENTED_EDGE('',*,*,#172,.T.);
#92=ORIENTED_EDGE('',*,*,#203,.F.);
#93=ORIENTED_EDGE('',*,*,#172,.F.);
#94=ORIENTED_EDGE('',*,*,#192,.T.);
#95=ORIENTED_EDGE('',*,*,#173,.T.);
#96=ORIENTED_EDGE('',*,*,#202,.F.);
#97=ORIENTED_EDGE('',*,*,#173,.F.);
#98=ORIENTED_EDGE('',*,*,#191,.T.);
#99=ORIENTED_EDGE('',*,*,#174,.T.);
#100=ORIENTED_EDGE('',*,*,#201,.F.);
#101=ORIENTED_EDGE('',*,*,#174,.F.);
#102=ORIENTED_EDGE('',*,*,#190,.T.);
#103=ORIENTED_EDGE('',*,*,#175,.T.);
#104=ORIENTED_EDGE('',*,*,#200,.F.);
#105=ORIENTED_EDGE('',*,*,#175,.F.);
#106=ORIENTED_EDGE('',*,*,#189,.T.);
#107=ORIENTED_EDGE('',*,*,#176,.T.);
#108=ORIENTED_EDGE('',*,*,#199,.F.);
#109=ORIENTED_EDGE('',*,*,#176,.F.);
#110=ORIENTED_EDGE('',*,*,#188,.T.);
#111=ORIENTED_EDGE('',*,*,#177,.T.);
#112=ORIENTED_EDGE('',*,*,#198,.F.);
#113=ORIENTED_EDGE('',*,*,#177,.F.);
#114=ORIENTED_EDGE('',*,*,#187,.T.);
#115=ORIENTED_EDGE('',*,*,#178,.T.);
#116=ORIENTED_EDGE('',*,*,#197,.F.);
#117=ORIENTED_EDGE('',*,*,#178,.F.);
#118=ORIENTED_EDGE('',*,*,#186,.T.);
#119=ORIENTED_EDGE('',*,*,#179,.T.);
#120=ORIENTED_EDGE('',*,*,#196,.F.);
#121=ORIENTED_EDGE('',*,*,#179,.F.);
#122=ORIENTED_EDGE('',*,*,#185,.T.);
#123=ORIENTED_EDGE('',*,*,#180,.T.);
#124=ORIENTED_EDGE('',*,*,#195,.F.);
#125=ORIENTED_EDGE('',*,*,#180,.F.);
#126=ORIENTED_EDGE('',*,*,#184,.T.);
#127=ORIENTED_EDGE('',*,*,#181,.T.);
#128=ORIENTED_EDGE('',*,*,#194,.F.);
#129=ORIENTED_EDGE('',*,*,#181,.F.);
#130=ORIENTED_EDGE('',*,*,#183,.T.);
#131=ORIENTED_EDGE('',*,*,#182,.T.);
#132=ORIENTED_EDGE('',*,*,#193,.F.);
#133=ORIENTED_EDGE('',*,*,#183,.F.);
#134=ORIENTED_EDGE('',*,*,#184,.F.);
#135=ORIENTED_EDGE('',*,*,#185,.F.);
#136=ORIENTED_EDGE('',*,*,#186,.F.);
#137=ORIENTED_EDGE('',*,*,#187,.F.);
#138=ORIENTED_EDGE('',*,*,#188,.F.);
#139=ORIENTED_EDGE('',*,*,#189,.F.);
#140=ORIENTED_EDGE('',*,*,#190,.F.);
#141=ORIENTED_EDGE('',*,*,#191,.F.);
#142=ORIENTED_EDGE('',*,*,#192,.F.);
#143=ORIENTED_EDGE('',*,*,#204,.T.);
#144=ORIENTED_EDGE('',*,*,#203,.T.);
#145=ORIENTED_EDGE('',*,*,#202,.T.);
#146=ORIENTED_EDGE('',*,*,#201,.T.);
#147=ORIENTED_EDGE('',*,*,#200,.T.);
#148=ORIENTED_EDGE('',*,*,#199,.T.);
#149=ORIENTED_EDGE('',*,*,#198,.T.);
#150=ORIENTED_EDGE('',*,*,#197,.T.);
#151=ORIENTED_EDGE('',*,*,#196,.T.);
#152=ORIENTED_EDGE('',*,*,#195,.T.);
#153=ORIENTED_EDGE('',*,*,#194,.T.);
#154=PLANE('',#286);
#155=PLANE('',#287);
#156=PLANE('',#291);
#157=PLANE('',#294);
#158=PLANE('',#295);
#159=PLANE('',#296);
#160=PLANE('',#297);
#161=PLANE('',#298);
#162=CIRCLE('',#276,119.61719149227);
#163=CIRCLE('',#277,118.543854963913);
#164=CIRCLE('',#278,1.35007282251974);
#165=CIRCLE('',#279,17.0959770091317);
#166=CIRCLE('',#280,129.055467838155);
#167=CIRCLE('',#281,119.61719149227);
#168=CIRCLE('',#282,118.543854963913);
#169=CIRCLE('',#283,1.35007282251974);
#170=CIRCLE('',#284,17.0959770091317);
#171=CIRCLE('',#285,129.055467838155);
#172=EDGE_CURVE('',#261,#272,#205,.T.);
#173=EDGE_CURVE('',#260,#271,#206,.T.);
#174=EDGE_CURVE('',#259,#270,#207,.T.);
#175=EDGE_CURVE('',#258,#269,#208,.T.);
#176=EDGE_CURVE('',#257,#268,#209,.T.);
#177=EDGE_CURVE('',#256,#267,#210,.T.);
#178=EDGE_CURVE('',#255,#266,#211,.T.);
#179=EDGE_CURVE('',#254,#265,#212,.T.);
#180=EDGE_CURVE('',#253,#264,#213,.T.);
#181=EDGE_CURVE('',#252,#263,#214,.T.);
#182=EDGE_CURVE('',#251,#262,#215,.T.);
#183=EDGE_CURVE('',#252,#251,#216,.T.);
#184=EDGE_CURVE('',#253,#252,#217,.T.);
#185=EDGE_CURVE('',#254,#253,#218,.T.);
#186=EDGE_CURVE('',#255,#254,#162,.T.);
#187=EDGE_CURVE('',#256,#255,#163,.T.);
#188=EDGE_CURVE('',#257,#256,#219,.T.);
#189=EDGE_CURVE('',#258,#257,#164,.T.);
#190=EDGE_CURVE('',#259,#258,#165,.T.);
#191=EDGE_CURVE('',#260,#259,#166,.T.);
#192=EDGE_CURVE('',#261,#260,#220,.T.);
#193=EDGE_CURVE('',#251,#261,#221,.T.);
#194=EDGE_CURVE('',#263,#262,#222,.T.);
#195=EDGE_CURVE('',#264,#263,#223,.T.);
#196=EDGE_CURVE('',#265,#264,#224,.T.);
#197=EDGE_CURVE('',#266,#265,#167,.T.);
#198=EDGE_CURVE('',#267,#266,#168,.T.);
#199=EDGE_CURVE('',#268,#267,#225,.T.);
#200=EDGE_CURVE('',#269,#268,#169,.T.);
#201=EDGE_CURVE('',#270,#269,#170,.T.);
#202=EDGE_CURVE('',#271,#270,#171,.T.);
#203=EDGE_CURVE('',#272,#271,#226,.T.);
#204=EDGE_CURVE('',#262,#272,#227,.T.);
#205=LINE('',#393,#228);
#206=LINE('',#394,#229);
#207=LINE('',#395,#230);
#208=LINE('',#396,#231);
#209=LINE('',#397,#232);
#210=LINE('',#398,#233);
#211=LINE('',#399,#234);
#212=LINE('',#400,#235);
#213=LINE('',#401,#236);
#214=LINE('',#402,#237);
#215=LINE('',#403,#238);
#216=LINE('',#404,#239);
#217=LINE('',#405,#240);
#218=LINE('',#406,#241);
#219=LINE('',#409,#242);
#220=LINE('',#413,#243);
#221=LINE('',#414,#244);
#222=LINE('',#415,#245);
#223=LINE('',#416,#246);
#224=LINE('',#417,#247);
#225=LINE('',#420,#248);
#226=LINE('',#424,#249);
#227=LINE('',#425,#250);
#228=VECTOR('',#301,1.);
#229=VECTOR('',#302,1.);
#230=VECTOR('',#303,1.);
#231=VECTOR('',#304,1.);
#232=VECTOR('',#305,1.);
#233=VECTOR('',#306,1.);
#234=VECTOR('',#307,1.);
#235=VECTOR('',#308,1.);
#236=VECTOR('',#309,1.);
#237=VECTOR('',#310,1.);
#238=VECTOR('',#311,1.);
#239=VECTOR('',#312,1.);
#240=VECTOR('',#313,1.);
#241=VECTOR('',#314,1.);
#242=VECTOR('',#319,1.);
#243=VECTOR('',#326,1.);
#244=VECTOR('',#327,1.);
#245=VECTOR('',#328,1.);
#246=VECTOR('',#329,1.);
#247=VECTOR('',#330,1.);
#248=VECTOR('',#335,1.);
#249=VECTOR('',#342,1.);
#250=VECTOR('',#343,1.);
#251=VERTEX_POINT('',#371);
#252=VERTEX_POINT('',#372);
#253=VERTEX_POINT('',#373);
#254=VERTEX_POINT('',#374);
#255=VERTEX_POINT('',#375);
#256=VERTEX_POINT('',#376);
#257=VERTEX_POINT('',#377);
#258=VERTEX_POINT('',#378);
#259=VERTEX_POINT('',#379);
#260=VERTEX_POINT('',#380);
#261=VERTEX_POINT('',#381);
#262=VERTEX_POINT('',#382);
#263=VERTEX_POINT('',#383);
#264=VERTEX_POINT('',#384);
#265=VERTEX_POINT('',#385);
#266=VERTEX_POINT('',#386);
#267=VERTEX_POINT('',#387);
#268=VERTEX_POINT('',#388);
#269=VERTEX_POINT('',#389);
#270=VERTEX_POINT('',#390);
#271=VERTEX_POINT('',#391);
#272=VERTEX_POINT('',#392);
#273=SHAPE_DEFINITION_REPRESENTATION(#439,#274);
#274=SHAPE_REPRESENTATION('master',(#275),#441);
#275=AXIS2_PLACEMENT_3D('',#370,#300,#299);
#276=AXIS2_PLACEMENT_3D('',#407,#316,#315);
#277=AXIS2_PLACEMENT_3D('',#408,#318,#317);
#278=AXIS2_PLACEMENT_3D('',#410,#321,#320);
#279=AXIS2_PLACEMENT_3D('',#411,#323,#322);
#280=AXIS2_PLACEMENT_3D('',#412,#325,#324);
#281=AXIS2_PLACEMENT_3D('',#418,#332,#331);
#282=AXIS2_PLACEMENT_3D('',#419,#334,#333);
#283=AXIS2_PLACEMENT_3D('',#421,#337,#336);
#284=AXIS2_PLACEMENT_3D('',#422,#339,#338);
#285=AXIS2_PLACEMENT_3D('',#423,#341,#340);
#286=AXIS2_PLACEMENT_3D('',#426,#345,#344);
#287=AXIS2_PLACEMENT_3D('',#427,#347,#346);
#288=AXIS2_PLACEMENT_3D('',#428,#349,#348);
#289=AXIS2_PLACEMENT_3D('',#429,#351,#350);
#290=AXIS2_PLACEMENT_3D('',#430,#353,#352);
#291=AXIS2_PLACEMENT_3D('',#431,#355,#354);
#292=AXIS2_PLACEMENT_3D('',#432,#357,#356);
#293=AXIS2_PLACEMENT_3D('',#433,#359,#358);
#294=AXIS2_PLACEMENT_3D('',#434,#361,#360);
#295=AXIS2_PLACEMENT_3D('',#435,#363,#362);
#296=AXIS2_PLACEMENT_3D('',#436,#365,#364);
#297=AXIS2_PLACEMENT_3D('',#437,#367,#366);
#298=AXIS2_PLACEMENT_3D('',#438,#369,#368);
#299=DIRECTION('',(1.,0.,0.));
#300=DIRECTION('',(0.,0.,1.));
#301=DIRECTION('',(-0.,-1.,-0.));
#302=DIRECTION('',(-0.,-1.,-0.));
#303=DIRECTION('',(-0.,-1.,-0.));
#304=DIRECTION('',(-0.,-1.,-0.));
#305=DIRECTION('',(-0.,-1.,-0.));
#306=DIRECTION('',(-0.,-1.,-0.));
#307=DIRECTION('',(-0.,-1.,-0.));
#308=DIRECTION('',(-0.,-1.,-0.));
#309=DIRECTION('',(-0.,-1.,-0.));
#310=DIRECTION('',(-0.,-1.,-0.));
#311=DIRECTION('',(-0.,-1.,-0.));
#312=DIRECTION('',(-1.,0.,0.));
#313=DIRECTION('',(-0.232716061934415,0.,0.972544721088824));
#314=DIRECTION('',(-0.999833079596632,0.,0.0182705485499353));
#315=DIRECTION('',(0.546187692069035,0.,-0.837662822997595));
#316=DIRECTION('',(0.,1.,0.));
#317=DIRECTION('',(0.788271313892354,0.,-0.615327827823853));
#318=DIRECTION('',(0.,1.,0.));
#319=DIRECTION('',(-1.,-0.,-9.4956852901078E-014));
#320=DIRECTION('',(0.936736333729377,0.,-0.35003577113096));
#321=DIRECTION('',(0.,-1.,0.));
#322=DIRECTION('',(0.797657395930198,0.,-0.603110834522026));
#323=DIRECTION('',(0.,-1.,0.));
#324=DIRECTION('',(-8.80914537183252E-016,0.,-1.));
#325=DIRECTION('',(0.,-1.,-0.));
#326=DIRECTION('',(1.,0.,0.));
#327=DIRECTION('',(-0.0511228567864032,0.,-0.998692371811258));
#328=DIRECTION('',(-1.,0.,0.));
#329=DIRECTION('',(-0.232716061934415,0.,0.972544721088824));
#330=DIRECTION('',(-0.999833079596632,0.,0.0182705485499353));
#331=DIRECTION('',(0.546187692069035,0.,-0.837662822997595));
#332=DIRECTION('',(0.,1.,0.));
#333=DIRECTION('',(0.788271313892354,0.,-0.615327827823853));
#334=DIRECTION('',(0.,1.,0.));
#335=DIRECTION('',(-1.,-0.,-9.4956852901078E-014));
#336=DIRECTION('',(0.936736333729377,0.,-0.35003577113096));
#337=DIRECTION('',(0.,-1.,0.));
#338=DIRECTION('',(0.797657395930198,0.,-0.603110834522026));
#339=DIRECTION('',(0.,-1.,0.));
#340=DIRECTION('',(-8.80914537183252E-016,0.,-1.));
#341=DIRECTION('',(0.,-1.,-0.));
#342=DIRECTION('',(1.,0.,0.));
#343=DIRECTION('',(-0.0511228567864032,0.,-0.998692371811258));
#344=DIRECTION('',(0.0511228567864032,0.,0.998692371811258));
#345=DIRECTION('',(-0.998692371811258,0.,0.0511228567864032));
#346=DIRECTION('',(-1.,0.,0.));
#347=DIRECTION('',(0.,0.,-1.));
#348=DIRECTION('',(0.,0.,-1.));
#349=DIRECTION('',(-0.,-1.,-0.));
#350=DIRECTION('',(0.,0.,-1.));
#351=DIRECTION('',(-0.,-1.,-0.));
#352=DIRECTION('',(0.,0.,-1.));
#353=DIRECTION('',(-0.,-1.,-0.));
#354=DIRECTION('',(1.,0.,9.4956852901078E-014));
#355=DIRECTION('',(-9.4956852901078E-014,0.,1.));
#356=DIRECTION('',(0.,0.,-1.));
#357=DIRECTION('',(-0.,-1.,-0.));
#358=DIRECTION('',(0.,0.,-1.));
#359=DIRECTION('',(-0.,-1.,-0.));
#360=DIRECTION('',(0.999833079596632,0.,-0.0182705485499353));
#361=DIRECTION('',(0.0182705485499353,-0.,0.999833079596632));
#362=DIRECTION('',(0.232716061934415,0.,-0.972544721088824));
#363=DIRECTION('',(0.972544721088824,-0.,0.232716061934415));
#364=DIRECTION('',(1.,0.,-0.));
#365=DIRECTION('',(0.,-0.,1.));
#366=DIRECTION('',(0.,0.,-1.));
#367=DIRECTION('',(0.,-1.,-0.));
#368=DIRECTION('',(0.,0.,-1.));
#369=DIRECTION('',(0.,-1.,-0.));
#370=CARTESIAN_POINT('',(0.,0.,0.));
#371=CARTESIAN_POINT('',(-1095.145475,2000.,57.53559));
#372=CARTESIAN_POINT('',(-1082.645475,2000.,57.53559));
#373=CARTESIAN_POINT('',(-1072.0128,2000.,13.1005309999999));
#374=CARTESIAN_POINT('',(-990.095462384998,2000.,11.603606438772));
#375=CARTESIAN_POINT('',(-923.340913502357,2000.,31.0134815787224));
#376=CARTESIAN_POINT('',(-894.643387747796,2000.,57.3699290000001));
#377=CARTESIAN_POINT('',(-879.902280111198,2000.,57.3699290000015));
#378=CARTESIAN_POINT('',(-878.637617845163,2000.,55.5472823959681));
#379=CARTESIAN_POINT('',(-881.015308168232,2000.,51.2207169306509));
#380=CARTESIAN_POINT('',(-983.957356574565,2000.,-1.13686837721616E-013));
#381=CARTESIAN_POINT('',(-1098.09071,2000.,-1.13686837721616E-013));
#382=CARTESIAN_POINT('',(-1095.145475,0.,57.53559));
#383=CARTESIAN_POINT('',(-1082.645475,0.,57.53559));
#384=CARTESIAN_POINT('',(-1072.0128,0.,13.1005309999999));
#385=CARTESIAN_POINT('',(-990.095462384998,0.,11.603606438772));
#386=CARTESIAN_POINT('',(-923.340913502357,0.,31.0134815787224));
#387=CARTESIAN_POINT('',(-894.643387747796,0.,57.3699290000001));
#388=CARTESIAN_POINT('',(-879.902280111198,0.,57.3699290000015));
#389=CARTESIAN_POINT('',(-878.637617845163,0.,55.5472823959681));
#390=CARTESIAN_POINT('',(-881.015308168232,0.,51.2207169306509));
#391=CARTESIAN_POINT('',(-983.957356574565,0.,-1.13686837721616E-013));
#392=CARTESIAN_POINT('',(-1098.09071,0.,-1.13686837721616E-013));
#393=CARTESIAN_POINT('',(-1098.09071,2000.,-1.13686837721616E-013));
#394=CARTESIAN_POINT('',(-983.957356574565,2000.,-1.13686837721616E-013));
#395=CARTESIAN_POINT('',(-881.015308168232,2000.,51.2207169306509));
#396=CARTESIAN_POINT('',(-878.637617845163,2000.,55.5472823959681));
#397=CARTESIAN_POINT('',(-879.902280111198,2000.,57.3699290000015));
#398=CARTESIAN_POINT('',(-894.643387747796,2000.,57.3699290000001));
#399=CARTESIAN_POINT('',(-923.340913502357,2000.,31.0134815787224));
#400=CARTESIAN_POINT('',(-990.095462384998,2000.,11.603606438772));
#401=CARTESIAN_POINT('',(-1072.0128,2000.,13.1005309999999));
#402=CARTESIAN_POINT('',(-1082.645475,2000.,57.53559));
#403=CARTESIAN_POINT('',(-1095.145475,2000.,57.53559));
#404=CARTESIAN_POINT('',(-1082.645475,2000.,57.53559));
#405=CARTESIAN_POINT('',(-1072.0128,2000.,13.1005309999999));
#406=CARTESIAN_POINT('',(-990.095462384998,2000.,11.603606438772));
#407=CARTESIAN_POINT('',(-988.6743512553,2000.,131.212355883182));
#408=CARTESIAN_POINT('',(-988.088108054064,2000.,130.31326177681));
#409=CARTESIAN_POINT('',(-879.902280111198,2000.,57.3699290000015));
#410=CARTESIAN_POINT('',(-879.902280111198,2000.,56.0198561774817));
#411=CARTESIAN_POINT('',(-894.652040670219,2000.,61.5314858915977));
#412=CARTESIAN_POINT('',(-983.957356574565,2000.,129.055467838154));
#413=CARTESIAN_POINT('',(-1098.09071,2000.,-1.13686837721616E-013));
#414=CARTESIAN_POINT('',(-1095.145475,2000.,57.53559));
#415=CARTESIAN_POINT('',(-1082.645475,0.,57.53559));
#416=CARTESIAN_POINT('',(-1072.0128,0.,13.1005309999999));
#417=CARTESIAN_POINT('',(-990.095462384998,0.,11.603606438772));
#418=CARTESIAN_POINT('',(-988.6743512553,0.,131.212355883182));
#419=CARTESIAN_POINT('',(-988.088108054064,0.,130.31326177681));
#420=CARTESIAN_POINT('',(-879.902280111198,0.,57.3699290000015));
#421=CARTESIAN_POINT('',(-879.902280111198,0.,56.0198561774817));
#422=CARTESIAN_POINT('',(-894.652040670219,0.,61.5314858915977));
#423=CARTESIAN_POINT('',(-983.957356574565,0.,129.055467838154));
#424=CARTESIAN_POINT('',(-1098.09071,0.,-1.13686837721616E-013));
#425=CARTESIAN_POINT('',(-1095.145475,0.,57.53559));
#426=CARTESIAN_POINT('',(-1095.145475,2000.,57.53559));
#427=CARTESIAN_POINT('',(-1098.09071,2000.,-1.13686837721616E-013));
#428=CARTESIAN_POINT('',(-983.957356574565,2000.,129.055467838154));
#429=CARTESIAN_POINT('',(-894.652040670219,2000.,61.5314858915977));
#430=CARTESIAN_POINT('',(-879.902280111198,2000.,56.0198561774817));
#431=CARTESIAN_POINT('',(-879.902280111198,2000.,57.3699290000015));
#432=CARTESIAN_POINT('',(-988.088108054064,2000.,130.31326177681));
#433=CARTESIAN_POINT('',(-988.6743512553,2000.,131.212355883182));
#434=CARTESIAN_POINT('',(-990.095462384998,2000.,11.603606438772));
#435=CARTESIAN_POINT('',(-1072.0128,2000.,13.1005309999999));
#436=CARTESIAN_POINT('',(-1082.645475,2000.,57.53559));
#437=CARTESIAN_POINT('',(-983.957356574565,2000.,129.055467838154));
#438=CARTESIAN_POINT('',(-983.957356574565,0.,129.055467838154));
#439=PRODUCT_DEFINITION_SHAPE('','',#440);
#440=PRODUCT_DEFINITION('','',#452,#457);
#441=(
GEOMETRIC_REPRESENTATION_CONTEXT(3)
GLOBAL_UNCERTAINTY_ASSIGNED_CONTEXT((#442))
GLOBAL_UNIT_ASSIGNED_CONTEXT((#444,#443,#447))
REPRESENTATION_CONTEXT('','')
);
#442=UNCERTAINTY_MEASURE_WITH_UNIT(LENGTH_MEASURE(0.001),#444,'','tolerance');
#443=(
CONVERSION_BASED_UNIT('',#445)
NAMED_UNIT(#451)
PLANE_ANGLE_UNIT()
);
#444=(
CONVERSION_BASED_UNIT('',#446)
LENGTH_UNIT()
NAMED_UNIT(#450)
);
#445=PLANE_ANGLE_MEASURE_WITH_UNIT(PLANE_ANGLE_MEASURE(0.0174532925199433),
#448);
#446=LENGTH_MEASURE_WITH_UNIT(LENGTH_MEASURE(1.),#449);
#447=(
NAMED_UNIT(*)
SI_UNIT($,.STERADIAN.)
SOLID_ANGLE_UNIT()
);
#448=(
NAMED_UNIT(*)
PLANE_ANGLE_UNIT()
SI_UNIT($,.RADIAN.)
);
#449=(
LENGTH_UNIT()
NAMED_UNIT(*)
SI_UNIT(.MILLI.,.METRE.)
);
#450=DIMENSIONAL_EXPONENTS(1.,0.,0.,0.,0.,0.,0.);
#451=DIMENSIONAL_EXPONENTS(0.,0.,0.,0.,0.,0.,0.);
#452=PRODUCT_DEFINITION_FORMATION_WITH_SPECIFIED_SOURCE('','',#455,.NOT_KNOWN.
);
#453=PRODUCT_CATEGORY_RELATIONSHIP('','',#458,#454);
#454=PRODUCT_RELATED_PRODUCT_CATEGORY('assembly','',(#455));
#455=PRODUCT('','master','',(#456));
#456=PRODUCT_CONTEXT('',#460,'');
#457=PRODUCT_DEFINITION_CONTEXT('',#460,'part_definition');
#458=PRODUCT_CATEGORY('part','');
#459=APPLICATION_PROTOCOL_DEFINITION('international standard',
'automotive_design_cc2',1994,#460);
#460=APPLICATION_CONTEXT(
'configuration controlled 3D designs of mechanical parts and assemblies');
ENDSEC;
END-ISO-10303-21;
20342