ISO-10303-21;
HEADER;
/* Generated by software using Delcam plc STEP library */

FILE_DESCRIPTION(
/* description */ ('AP-214 File'),
/* implementation_level */ '2;1');

FILE_NAME(
/* name */ 'D749',
/* time_stamp */ 'Fri Sep 22 12:42:58 2017',
/* author */ (''),
/* organization */ (''),
/* preprocessor_version */ 'DELCAM STEP V1',
/* originating_system */ 'Exchange7.1.0006',
/* authorisation */ '');

FILE_SCHEMA (('AUTOMOTIVE_DESIGN'));
ENDSEC;
DATA;
#10=PRESENTATION_STYLE_ASSIGNMENT((#20));
#11=PRESENTATION_STYLE_ASSIGNMENT((#21));
#12=SURFACE_SIDE_STYLE('',(#14));
#13=SURFACE_SIDE_STYLE('',(#15));
#14=SURFACE_STYLE_FILL_AREA(#16);
#15=SURFACE_STYLE_FILL_AREA(#17);
#16=FILL_AREA_STYLE('',(#18));
#17=FILL_AREA_STYLE('',(#19));
#18=FILL_AREA_STYLE_COLOUR('',#55);
#19=FILL_AREA_STYLE_COLOUR('',#56);
#20=SURFACE_STYLE_USAGE(.BOTH.,#12);
#21=SURFACE_STYLE_USAGE(.BOTH.,#13);
#22=STYLED_ITEM('',(#10),#74);
#23=STYLED_ITEM('',(#10),#75);
#24=STYLED_ITEM('',(#10),#76);
#25=STYLED_ITEM('',(#10),#77);
#26=STYLED_ITEM('',(#10),#78);
#27=STYLED_ITEM('',(#10),#79);
#28=STYLED_ITEM('',(#10),#80);
#29=STYLED_ITEM('',(#10),#81);
#30=STYLED_ITEM('',(#10),#82);
#31=STYLED_ITEM('',(#10),#83);
#32=STYLED_ITEM('',(#10),#84);
#33=STYLED_ITEM('',(#10),#85);
#34=STYLED_ITEM('',(#10),#86);
#35=STYLED_ITEM('',(#10),#87);
#36=STYLED_ITEM('',(#10),#88);
#37=STYLED_ITEM('',(#10),#89);
#38=STYLED_ITEM('',(#10),#90);
#39=STYLED_ITEM('',(#10),#91);
#40=STYLED_ITEM('',(#10),#92);
#41=STYLED_ITEM('',(#10),#93);
#42=STYLED_ITEM('',(#10),#94);
#43=STYLED_ITEM('',(#10),#95);
#44=STYLED_ITEM('',(#10),#96);
#45=STYLED_ITEM('',(#10),#97);
#46=STYLED_ITEM('',(#10),#98);
#47=STYLED_ITEM('',(#10),#99);
#48=STYLED_ITEM('',(#10),#100);
#49=STYLED_ITEM('',(#10),#101);
#50=STYLED_ITEM('',(#10),#102);
#51=STYLED_ITEM('',(#10),#103);
#52=STYLED_ITEM('',(#10),#104);
#53=STYLED_ITEM('',(#11),#72);
#54=STYLED_ITEM('',(#11),#73);
#55=COLOUR_RGB('',0.,0.,0.);
#56=COLOUR_RGB('rgb_colour_1',0.4,0.4,0.4);
#57=MECHANICAL_DESIGN_GEOMETRIC_PRESENTATION_REPRESENTATION('',(#22,#23,#24,
#25,#26,#27,#28,#29,#30,#31,#32,#33,#34,#35,#36,#37,#38,#39,#40,#41,#42,#43,
#44,#45,#46,#47,#48,#49,#50,#51,#52,#53,#54),#1006);
#58=PRESENTATION_LAYER_ASSIGNMENT('0','General',(#74,#75,#76,#77,#78,#79,#80,
#81,#82,#83,#84,#85,#86,#72,#87,#88,#89,#90,#91,#92,#93,#94,#95,#96,#97,#98,
#99,#100,#101,#102,#103,#104,#73));
#59=SHAPE_REPRESENTATION_RELATIONSHIP('','',#639,#60);
#60=ADVANCED_BREP_SHAPE_REPRESENTATION('',(#70,#71),#1006);
#61=CYLINDRICAL_SURFACE('',#662,142.307682865449);
#62=CYLINDRICAL_SURFACE('',#663,123.424089008847);
#63=CYLINDRICAL_SURFACE('',#665,132.963278388652);
#64=CIRCLE('',#654,132.963278388652);
#65=CIRCLE('',#655,123.424089008847);
#66=CIRCLE('',#656,142.307682865449);
#67=CIRCLE('',#657,132.963278388652);
#68=CIRCLE('',#658,123.424089008847);
#69=CIRCLE('',#659,142.307682865449);
#70=MANIFOLD_SOLID_BREP('2',#72);
#71=MANIFOLD_SOLID_BREP('1',#73);
#72=CLOSED_SHELL('',(#74,#75,#76,#77,#78,#79,#80,#81,#82,#83,#84,#85,#86));
#73=CLOSED_SHELL('',(#87,#88,#89,#90,#91,#92,#93,#94,#95,#96,#97,#98,#99,#100,
#101,#102,#103,#104));
#74=ADVANCED_FACE('',(#105),#329,.F.);
#75=ADVANCED_FACE('',(#106),#330,.F.);
#76=ADVANCED_FACE('',(#107),#331,.F.);
#77=ADVANCED_FACE('',(#108),#332,.F.);
#78=ADVANCED_FACE('',(#109),#333,.F.);
#79=ADVANCED_FACE('',(#110),#334,.F.);
#80=ADVANCED_FACE('',(#111),#335,.F.);
#81=ADVANCED_FACE('',(#112),#336,.F.);
#82=ADVANCED_FACE('',(#113),#337,.F.);
#83=ADVANCED_FACE('',(#114),#338,.F.);
#84=ADVANCED_FACE('',(#115),#339,.F.);
#85=ADVANCED_FACE('',(#116),#340,.T.);
#86=ADVANCED_FACE('',(#117),#341,.F.);
#87=ADVANCED_FACE('',(#118),#342,.T.);
#88=ADVANCED_FACE('',(#119),#343,.T.);
#89=ADVANCED_FACE('',(#120),#61,.T.);
#90=ADVANCED_FACE('',(#121),#62,.T.);
#91=ADVANCED_FACE('',(#122),#344,.T.);
#92=ADVANCED_FACE('',(#123),#63,.F.);
#93=ADVANCED_FACE('',(#124),#345,.T.);
#94=ADVANCED_FACE('',(#125),#346,.T.);
#95=ADVANCED_FACE('',(#126),#347,.T.);
#96=ADVANCED_FACE('',(#127),#348,.T.);
#97=ADVANCED_FACE('',(#128),#349,.T.);
#98=ADVANCED_FACE('',(#129),#350,.T.);
#99=ADVANCED_FACE('',(#130),#351,.T.);
#100=ADVANCED_FACE('',(#131),#352,.T.);
#101=ADVANCED_FACE('',(#132),#353,.T.);
#102=ADVANCED_FACE('',(#133),#354,.T.);
#103=ADVANCED_FACE('',(#134),#355,.F.);
#104=ADVANCED_FACE('',(#135),#356,.T.);
#105=FACE_OUTER_BOUND('',#136,.T.);
#106=FACE_OUTER_BOUND('',#137,.T.);
#107=FACE_OUTER_BOUND('',#138,.T.);
#108=FACE_OUTER_BOUND('',#139,.T.);
#109=FACE_OUTER_BOUND('',#140,.T.);
#110=FACE_OUTER_BOUND('',#141,.T.);
#111=FACE_OUTER_BOUND('',#142,.T.);
#112=FACE_OUTER_BOUND('',#143,.T.);
#113=FACE_OUTER_BOUND('',#144,.T.);
#114=FACE_OUTER_BOUND('',#145,.T.);
#115=FACE_OUTER_BOUND('',#146,.T.);
#116=FACE_OUTER_BOUND('',#147,.T.);
#117=FACE_OUTER_BOUND('',#148,.T.);
#118=FACE_OUTER_BOUND('',#149,.T.);
#119=FACE_OUTER_BOUND('',#150,.T.);
#120=FACE_OUTER_BOUND('',#151,.T.);
#121=FACE_OUTER_BOUND('',#152,.T.);
#122=FACE_OUTER_BOUND('',#153,.T.);
#123=FACE_OUTER_BOUND('',#154,.T.);
#124=FACE_OUTER_BOUND('',#155,.T.);
#125=FACE_OUTER_BOUND('',#156,.T.);
#126=FACE_OUTER_BOUND('',#157,.T.);
#127=FACE_OUTER_BOUND('',#158,.T.);
#128=FACE_OUTER_BOUND('',#159,.T.);
#129=FACE_OUTER_BOUND('',#160,.T.);
#130=FACE_OUTER_BOUND('',#161,.T.);
#131=FACE_OUTER_BOUND('',#162,.T.);
#132=FACE_OUTER_BOUND('',#163,.T.);
#133=FACE_OUTER_BOUND('',#164,.T.);
#134=FACE_OUTER_BOUND('',#165,.T.);
#135=FACE_OUTER_BOUND('',#166,.T.);
#136=EDGE_LOOP('',(#167,#168,#169,#170));
#137=EDGE_LOOP('',(#171,#172,#173,#174));
#138=EDGE_LOOP('',(#175,#176,#177,#178));
#139=EDGE_LOOP('',(#179,#180,#181,#182));
#140=EDGE_LOOP('',(#183,#184,#185,#186));
#141=EDGE_LOOP('',(#187,#188,#189,#190));
#142=EDGE_LOOP('',(#191,#192,#193,#194));
#143=EDGE_LOOP('',(#195,#196,#197,#198));
#144=EDGE_LOOP('',(#199,#200,#201,#202));
#145=EDGE_LOOP('',(#203,#204,#205,#206));
#146=EDGE_LOOP('',(#207,#208,#209,#210));
#147=EDGE_LOOP('',(#211,#212,#213,#214,#215,#216,#217,#218,#219,#220,#221));
#148=EDGE_LOOP('',(#222,#223,#224,#225,#226,#227,#228,#229,#230,#231,#232));
#149=EDGE_LOOP('',(#233,#234,#235,#236));
#150=EDGE_LOOP('',(#237,#238,#239,#240));
#151=EDGE_LOOP('',(#241,#242,#243,#244));
#152=EDGE_LOOP('',(#245,#246,#247,#248));
#153=EDGE_LOOP('',(#249,#250,#251,#252));
#154=EDGE_LOOP('',(#253,#254,#255,#256));
#155=EDGE_LOOP('',(#257,#258,#259,#260));
#156=EDGE_LOOP('',(#261,#262,#263,#264));
#157=EDGE_LOOP('',(#265,#266,#267,#268));
#158=EDGE_LOOP('',(#269,#270,#271,#272));
#159=EDGE_LOOP('',(#273,#274,#275,#276));
#160=EDGE_LOOP('',(#277,#278,#279,#280));
#161=EDGE_LOOP('',(#281,#282,#283,#284));
#162=EDGE_LOOP('',(#285,#286,#287,#288));
#163=EDGE_LOOP('',(#289,#290,#291,#292));
#164=EDGE_LOOP('',(#293,#294,#295,#296));
#165=EDGE_LOOP('',(#297,#298,#299,#300,#301,#302,#303,#304,#305,#306,#307,#308
,#309,#310,#311,#312));
#166=EDGE_LOOP('',(#313,#314,#315,#316,#317,#318,#319,#320,#321,#322,#323,#324
,#325,#326,#327,#328));
#167=ORIENTED_EDGE('',*,*,#393,.T.);
#168=ORIENTED_EDGE('',*,*,#361,.F.);
#169=ORIENTED_EDGE('',*,*,#382,.F.);
#170=ORIENTED_EDGE('',*,*,#371,.T.);
#171=ORIENTED_EDGE('',*,*,#392,.T.);
#172=ORIENTED_EDGE('',*,*,#362,.F.);
#173=ORIENTED_EDGE('',*,*,#381,.F.);
#174=ORIENTED_EDGE('',*,*,#361,.T.);
#175=ORIENTED_EDGE('',*,*,#391,.T.);
#176=ORIENTED_EDGE('',*,*,#363,.F.);
#177=ORIENTED_EDGE('',*,*,#380,.F.);
#178=ORIENTED_EDGE('',*,*,#362,.T.);
#179=ORIENTED_EDGE('',*,*,#390,.T.);
#180=ORIENTED_EDGE('',*,*,#364,.F.);
#181=ORIENTED_EDGE('',*,*,#379,.F.);
#182=ORIENTED_EDGE('',*,*,#363,.T.);
#183=ORIENTED_EDGE('',*,*,#389,.T.);
#184=ORIENTED_EDGE('',*,*,#365,.F.);
#185=ORIENTED_EDGE('',*,*,#378,.F.);
#186=ORIENTED_EDGE('',*,*,#364,.T.);
#187=ORIENTED_EDGE('',*,*,#388,.T.);
#188=ORIENTED_EDGE('',*,*,#366,.F.);
#189=ORIENTED_EDGE('',*,*,#377,.F.);
#190=ORIENTED_EDGE('',*,*,#365,.T.);
#191=ORIENTED_EDGE('',*,*,#387,.T.);
#192=ORIENTED_EDGE('',*,*,#367,.F.);
#193=ORIENTED_EDGE('',*,*,#376,.F.);
#194=ORIENTED_EDGE('',*,*,#366,.T.);
#195=ORIENTED_EDGE('',*,*,#386,.T.);
#196=ORIENTED_EDGE('',*,*,#368,.F.);
#197=ORIENTED_EDGE('',*,*,#375,.F.);
#198=ORIENTED_EDGE('',*,*,#367,.T.);
#199=ORIENTED_EDGE('',*,*,#385,.T.);
#200=ORIENTED_EDGE('',*,*,#369,.F.);
#201=ORIENTED_EDGE('',*,*,#374,.F.);
#202=ORIENTED_EDGE('',*,*,#368,.T.);
#203=ORIENTED_EDGE('',*,*,#384,.T.);
#204=ORIENTED_EDGE('',*,*,#370,.F.);
#205=ORIENTED_EDGE('',*,*,#373,.F.);
#206=ORIENTED_EDGE('',*,*,#369,.T.);
#207=ORIENTED_EDGE('',*,*,#383,.T.);
#208=ORIENTED_EDGE('',*,*,#371,.F.);
#209=ORIENTED_EDGE('',*,*,#372,.F.);
#210=ORIENTED_EDGE('',*,*,#370,.T.);
#211=ORIENTED_EDGE('',*,*,#382,.T.);
#212=ORIENTED_EDGE('',*,*,#381,.T.);
#213=ORIENTED_EDGE('',*,*,#380,.T.);
#214=ORIENTED_EDGE('',*,*,#379,.T.);
#215=ORIENTED_EDGE('',*,*,#378,.T.);
#216=ORIENTED_EDGE('',*,*,#377,.T.);
#217=ORIENTED_EDGE('',*,*,#376,.T.);
#218=ORIENTED_EDGE('',*,*,#375,.T.);
#219=ORIENTED_EDGE('',*,*,#374,.T.);
#220=ORIENTED_EDGE('',*,*,#373,.T.);
#221=ORIENTED_EDGE('',*,*,#372,.T.);
#222=ORIENTED_EDGE('',*,*,#393,.F.);
#223=ORIENTED_EDGE('',*,*,#383,.F.);
#224=ORIENTED_EDGE('',*,*,#384,.F.);
#225=ORIENTED_EDGE('',*,*,#385,.F.);
#226=ORIENTED_EDGE('',*,*,#386,.F.);
#227=ORIENTED_EDGE('',*,*,#387,.F.);
#228=ORIENTED_EDGE('',*,*,#388,.F.);
#229=ORIENTED_EDGE('',*,*,#389,.F.);
#230=ORIENTED_EDGE('',*,*,#390,.F.);
#231=ORIENTED_EDGE('',*,*,#391,.F.);
#232=ORIENTED_EDGE('',*,*,#392,.F.);
#233=ORIENTED_EDGE('',*,*,#441,.F.);
#234=ORIENTED_EDGE('',*,*,#409,.F.);
#235=ORIENTED_EDGE('',*,*,#425,.T.);
#236=ORIENTED_EDGE('',*,*,#394,.T.);
#237=ORIENTED_EDGE('',*,*,#440,.F.);
#238=ORIENTED_EDGE('',*,*,#394,.F.);
#239=ORIENTED_EDGE('',*,*,#424,.T.);
#240=ORIENTED_EDGE('',*,*,#395,.T.);
#241=ORIENTED_EDGE('',*,*,#439,.F.);
#242=ORIENTED_EDGE('',*,*,#395,.F.);
#243=ORIENTED_EDGE('',*,*,#423,.T.);
#244=ORIENTED_EDGE('',*,*,#396,.T.);
#245=ORIENTED_EDGE('',*,*,#438,.F.);
#246=ORIENTED_EDGE('',*,*,#396,.F.);
#247=ORIENTED_EDGE('',*,*,#422,.T.);
#248=ORIENTED_EDGE('',*,*,#397,.T.);
#249=ORIENTED_EDGE('',*,*,#437,.F.);
#250=ORIENTED_EDGE('',*,*,#397,.F.);
#251=ORIENTED_EDGE('',*,*,#421,.T.);
#252=ORIENTED_EDGE('',*,*,#398,.T.);
#253=ORIENTED_EDGE('',*,*,#436,.F.);
#254=ORIENTED_EDGE('',*,*,#398,.F.);
#255=ORIENTED_EDGE('',*,*,#420,.T.);
#256=ORIENTED_EDGE('',*,*,#399,.T.);
#257=ORIENTED_EDGE('',*,*,#435,.F.);
#258=ORIENTED_EDGE('',*,*,#399,.F.);
#259=ORIENTED_EDGE('',*,*,#419,.T.);
#260=ORIENTED_EDGE('',*,*,#400,.T.);
#261=ORIENTED_EDGE('',*,*,#434,.F.);
#262=ORIENTED_EDGE('',*,*,#400,.F.);
#263=ORIENTED_EDGE('',*,*,#418,.T.);
#264=ORIENTED_EDGE('',*,*,#401,.T.);
#265=ORIENTED_EDGE('',*,*,#433,.F.);
#266=ORIENTED_EDGE('',*,*,#401,.F.);
#267=ORIENTED_EDGE('',*,*,#417,.T.);
#268=ORIENTED_EDGE('',*,*,#402,.T.);
#269=ORIENTED_EDGE('',*,*,#432,.F.);
#270=ORIENTED_EDGE('',*,*,#402,.F.);
#271=ORIENTED_EDGE('',*,*,#416,.T.);
#272=ORIENTED_EDGE('',*,*,#403,.T.);
#273=ORIENTED_EDGE('',*,*,#431,.F.);
#274=ORIENTED_EDGE('',*,*,#403,.F.);
#275=ORIENTED_EDGE('',*,*,#415,.T.);
#276=ORIENTED_EDGE('',*,*,#404,.T.);
#277=ORIENTED_EDGE('',*,*,#430,.F.);
#278=ORIENTED_EDGE('',*,*,#404,.F.);
#279=ORIENTED_EDGE('',*,*,#414,.T.);
#280=ORIENTED_EDGE('',*,*,#405,.T.);
#281=ORIENTED_EDGE('',*,*,#429,.F.);
#282=ORIENTED_EDGE('',*,*,#405,.F.);
#283=ORIENTED_EDGE('',*,*,#413,.T.);
#284=ORIENTED_EDGE('',*,*,#406,.T.);
#285=ORIENTED_EDGE('',*,*,#428,.F.);
#286=ORIENTED_EDGE('',*,*,#406,.F.);
#287=ORIENTED_EDGE('',*,*,#412,.T.);
#288=ORIENTED_EDGE('',*,*,#407,.T.);
#289=ORIENTED_EDGE('',*,*,#427,.F.);
#290=ORIENTED_EDGE('',*,*,#407,.F.);
#291=ORIENTED_EDGE('',*,*,#411,.T.);
#292=ORIENTED_EDGE('',*,*,#408,.T.);
#293=ORIENTED_EDGE('',*,*,#426,.F.);
#294=ORIENTED_EDGE('',*,*,#408,.F.);
#295=ORIENTED_EDGE('',*,*,#410,.T.);
#296=ORIENTED_EDGE('',*,*,#409,.T.);
#297=ORIENTED_EDGE('',*,*,#425,.F.);
#298=ORIENTED_EDGE('',*,*,#410,.F.);
#299=ORIENTED_EDGE('',*,*,#411,.F.);
#300=ORIENTED_EDGE('',*,*,#412,.F.);
#301=ORIENTED_EDGE('',*,*,#413,.F.);
#302=ORIENTED_EDGE('',*,*,#414,.F.);
#303=ORIENTED_EDGE('',*,*,#415,.F.);
#304=ORIENTED_EDGE('',*,*,#416,.F.);
#305=ORIENTED_EDGE('',*,*,#417,.F.);
#306=ORIENTED_EDGE('',*,*,#418,.F.);
#307=ORIENTED_EDGE('',*,*,#419,.F.);
#308=ORIENTED_EDGE('',*,*,#420,.F.);
#309=ORIENTED_EDGE('',*,*,#421,.F.);
#310=ORIENTED_EDGE('',*,*,#422,.F.);
#311=ORIENTED_EDGE('',*,*,#423,.F.);
#312=ORIENTED_EDGE('',*,*,#424,.F.);
#313=ORIENTED_EDGE('',*,*,#441,.T.);
#314=ORIENTED_EDGE('',*,*,#440,.T.);
#315=ORIENTED_EDGE('',*,*,#439,.T.);
#316=ORIENTED_EDGE('',*,*,#438,.T.);
#317=ORIENTED_EDGE('',*,*,#437,.T.);
#318=ORIENTED_EDGE('',*,*,#436,.T.);
#319=ORIENTED_EDGE('',*,*,#435,.T.);
#320=ORIENTED_EDGE('',*,*,#434,.T.);
#321=ORIENTED_EDGE('',*,*,#433,.T.);
#322=ORIENTED_EDGE('',*,*,#432,.T.);
#323=ORIENTED_EDGE('',*,*,#431,.T.);
#324=ORIENTED_EDGE('',*,*,#430,.T.);
#325=ORIENTED_EDGE('',*,*,#429,.T.);
#326=ORIENTED_EDGE('',*,*,#428,.T.);
#327=ORIENTED_EDGE('',*,*,#427,.T.);
#328=ORIENTED_EDGE('',*,*,#426,.T.);
#329=PLANE('',#641);
#330=PLANE('',#642);
#331=PLANE('',#643);
#332=PLANE('',#644);
#333=PLANE('',#645);
#334=PLANE('',#646);
#335=PLANE('',#647);
#336=PLANE('',#648);
#337=PLANE('',#649);
#338=PLANE('',#650);
#339=PLANE('',#651);
#340=PLANE('',#652);
#341=PLANE('',#653);
#342=PLANE('',#660);
#343=PLANE('',#661);
#344=PLANE('',#664);
#345=PLANE('',#666);
#346=PLANE('',#667);
#347=PLANE('',#668);
#348=PLANE('',#669);
#349=PLANE('',#670);
#350=PLANE('',#671);
#351=PLANE('',#672);
#352=PLANE('',#673);
#353=PLANE('',#674);
#354=PLANE('',#675);
#355=PLANE('',#676);
#356=PLANE('',#677);
#357=B_SPLINE_CURVE_WITH_KNOTS('',3,(#866,#867,#868,#869),.UNSPECIFIED.,.F.,
.F.,(4,4),(0.,1.),.UNSPECIFIED.);
#358=B_SPLINE_CURVE_WITH_KNOTS('',3,(#870,#871,#872,#873),.UNSPECIFIED.,.F.,
.F.,(4,4),(0.,1.),.UNSPECIFIED.);
#359=B_SPLINE_CURVE_WITH_KNOTS('',3,(#883,#884,#885,#886),.UNSPECIFIED.,.F.,
.F.,(4,4),(0.,1.),.UNSPECIFIED.);
#360=B_SPLINE_CURVE_WITH_KNOTS('',3,(#887,#888,#889,#890),.UNSPECIFIED.,.F.,
.F.,(4,4),(0.,1.),.UNSPECIFIED.);
#361=EDGE_CURVE('',#594,#605,#442,.T.);
#362=EDGE_CURVE('',#593,#604,#443,.T.);
#363=EDGE_CURVE('',#592,#603,#444,.T.);
#364=EDGE_CURVE('',#591,#602,#445,.T.);
#365=EDGE_CURVE('',#590,#601,#446,.T.);
#366=EDGE_CURVE('',#589,#600,#447,.T.);
#367=EDGE_CURVE('',#588,#599,#448,.T.);
#368=EDGE_CURVE('',#587,#598,#449,.T.);
#369=EDGE_CURVE('',#586,#597,#450,.T.);
#370=EDGE_CURVE('',#585,#596,#451,.T.);
#371=EDGE_CURVE('',#584,#595,#452,.T.);
#372=EDGE_CURVE('',#585,#584,#453,.T.);
#373=EDGE_CURVE('',#586,#585,#454,.T.);
#374=EDGE_CURVE('',#587,#586,#455,.T.);
#375=EDGE_CURVE('',#588,#587,#456,.T.);
#376=EDGE_CURVE('',#589,#588,#457,.T.);
#377=EDGE_CURVE('',#590,#589,#458,.T.);
#378=EDGE_CURVE('',#591,#590,#459,.T.);
#379=EDGE_CURVE('',#592,#591,#357,.T.);
#380=EDGE_CURVE('',#593,#592,#358,.T.);
#381=EDGE_CURVE('',#594,#593,#460,.T.);
#382=EDGE_CURVE('',#584,#594,#461,.T.);
#383=EDGE_CURVE('',#596,#595,#462,.T.);
#384=EDGE_CURVE('',#597,#596,#463,.T.);
#385=EDGE_CURVE('',#598,#597,#464,.T.);
#386=EDGE_CURVE('',#599,#598,#465,.T.);
#387=EDGE_CURVE('',#600,#599,#466,.T.);
#388=EDGE_CURVE('',#601,#600,#467,.T.);
#389=EDGE_CURVE('',#602,#601,#468,.T.);
#390=EDGE_CURVE('',#603,#602,#359,.T.);
#391=EDGE_CURVE('',#604,#603,#360,.T.);
#392=EDGE_CURVE('',#605,#604,#469,.T.);
#393=EDGE_CURVE('',#595,#605,#470,.T.);
#394=EDGE_CURVE('',#621,#637,#471,.T.);
#395=EDGE_CURVE('',#620,#636,#472,.T.);
#396=EDGE_CURVE('',#619,#635,#473,.T.);
#397=EDGE_CURVE('',#618,#634,#474,.T.);
#398=EDGE_CURVE('',#617,#633,#475,.T.);
#399=EDGE_CURVE('',#616,#632,#476,.T.);
#400=EDGE_CURVE('',#615,#631,#477,.T.);
#401=EDGE_CURVE('',#614,#630,#478,.T.);
#402=EDGE_CURVE('',#613,#629,#479,.T.);
#403=EDGE_CURVE('',#612,#628,#480,.T.);
#404=EDGE_CURVE('',#611,#627,#481,.T.);
#405=EDGE_CURVE('',#610,#626,#482,.T.);
#406=EDGE_CURVE('',#609,#625,#483,.T.);
#407=EDGE_CURVE('',#608,#624,#484,.T.);
#408=EDGE_CURVE('',#607,#623,#485,.T.);
#409=EDGE_CURVE('',#606,#622,#486,.T.);
#410=EDGE_CURVE('',#607,#606,#487,.T.);
#411=EDGE_CURVE('',#608,#607,#488,.T.);
#412=EDGE_CURVE('',#609,#608,#489,.T.);
#413=EDGE_CURVE('',#610,#609,#490,.T.);
#414=EDGE_CURVE('',#611,#610,#491,.T.);
#415=EDGE_CURVE('',#612,#611,#492,.T.);
#416=EDGE_CURVE('',#613,#612,#493,.T.);
#417=EDGE_CURVE('',#614,#613,#494,.T.);
#418=EDGE_CURVE('',#615,#614,#495,.T.);
#419=EDGE_CURVE('',#616,#615,#496,.T.);
#420=EDGE_CURVE('',#617,#616,#64,.T.);
#421=EDGE_CURVE('',#618,#617,#497,.T.);
#422=EDGE_CURVE('',#619,#618,#65,.T.);
#423=EDGE_CURVE('',#620,#619,#66,.T.);
#424=EDGE_CURVE('',#621,#620,#498,.T.);
#425=EDGE_CURVE('',#606,#621,#499,.T.);
#426=EDGE_CURVE('',#623,#622,#500,.T.);
#427=EDGE_CURVE('',#624,#623,#501,.T.);
#428=EDGE_CURVE('',#625,#624,#502,.T.);
#429=EDGE_CURVE('',#626,#625,#503,.T.);
#430=EDGE_CURVE('',#627,#626,#504,.T.);
#431=EDGE_CURVE('',#628,#627,#505,.T.);
#432=EDGE_CURVE('',#629,#628,#506,.T.);
#433=EDGE_CURVE('',#630,#629,#507,.T.);
#434=EDGE_CURVE('',#631,#630,#508,.T.);
#435=EDGE_CURVE('',#632,#631,#509,.T.);
#436=EDGE_CURVE('',#633,#632,#67,.T.);
#437=EDGE_CURVE('',#634,#633,#510,.T.);
#438=EDGE_CURVE('',#635,#634,#68,.T.);
#439=EDGE_CURVE('',#636,#635,#69,.T.);
#440=EDGE_CURVE('',#637,#636,#511,.T.);
#441=EDGE_CURVE('',#622,#637,#512,.T.);
#442=LINE('',#848,#513);
#443=LINE('',#849,#514);
#444=LINE('',#850,#515);
#445=LINE('',#851,#516);
#446=LINE('',#852,#517);
#447=LINE('',#853,#518);
#448=LINE('',#854,#519);
#449=LINE('',#855,#520);
#450=LINE('',#856,#521);
#451=LINE('',#857,#522);
#452=LINE('',#858,#523);
#453=LINE('',#859,#524);
#454=LINE('',#860,#525);
#455=LINE('',#861,#526);
#456=LINE('',#862,#527);
#457=LINE('',#863,#528);
#458=LINE('',#864,#529);
#459=LINE('',#865,#530);
#460=LINE('',#874,#531);
#461=LINE('',#875,#532);
#462=LINE('',#876,#533);
#463=LINE('',#877,#534);
#464=LINE('',#878,#535);
#465=LINE('',#879,#536);
#466=LINE('',#880,#537);
#467=LINE('',#881,#538);
#468=LINE('',#882,#539);
#469=LINE('',#891,#540);
#470=LINE('',#892,#541);
#471=LINE('',#938,#542);
#472=LINE('',#939,#543);
#473=LINE('',#940,#544);
#474=LINE('',#941,#545);
#475=LINE('',#942,#546);
#476=LINE('',#943,#547);
#477=LINE('',#944,#548);
#478=LINE('',#945,#549);
#479=LINE('',#946,#550);
#480=LINE('',#947,#551);
#481=LINE('',#948,#552);
#482=LINE('',#949,#553);
#483=LINE('',#950,#554);
#484=LINE('',#951,#555);
#485=LINE('',#952,#556);
#486=LINE('',#953,#557);
#487=LINE('',#954,#558);
#488=LINE('',#955,#559);
#489=LINE('',#956,#560);
#490=LINE('',#957,#561);
#491=LINE('',#958,#562);
#492=LINE('',#959,#563);
#493=LINE('',#960,#564);
#494=LINE('',#961,#565);
#495=LINE('',#962,#566);
#496=LINE('',#963,#567);
#497=LINE('',#965,#568);
#498=LINE('',#968,#569);
#499=LINE('',#969,#570);
#500=LINE('',#970,#571);
#501=LINE('',#971,#572);
#502=LINE('',#972,#573);
#503=LINE('',#973,#574);
#504=LINE('',#974,#575);
#505=LINE('',#975,#576);
#506=LINE('',#976,#577);
#507=LINE('',#977,#578);
#508=LINE('',#978,#579);
#509=LINE('',#979,#580);
#510=LINE('',#981,#581);
#511=LINE('',#984,#582);
#512=LINE('',#985,#583);
#513=VECTOR('',#680,1.);
#514=VECTOR('',#681,1.);
#515=VECTOR('',#682,1.);
#516=VECTOR('',#683,1.);
#517=VECTOR('',#684,1.);
#518=VECTOR('',#685,1.);
#519=VECTOR('',#686,1.);
#520=VECTOR('',#687,1.);
#521=VECTOR('',#688,1.);
#522=VECTOR('',#689,1.);
#523=VECTOR('',#690,1.);
#524=VECTOR('',#691,1.);
#525=VECTOR('',#692,1.);
#526=VECTOR('',#693,1.);
#527=VECTOR('',#694,1.);
#528=VECTOR('',#695,1.);
#529=VECTOR('',#696,1.);
#530=VECTOR('',#697,1.);
#531=VECTOR('',#698,1.);
#532=VECTOR('',#699,1.);
#533=VECTOR('',#700,1.);
#534=VECTOR('',#701,1.);
#535=VECTOR('',#702,1.);
#536=VECTOR('',#703,1.);
#537=VECTOR('',#704,1.);
#538=VECTOR('',#705,1.);
#539=VECTOR('',#706,1.);
#540=VECTOR('',#707,1.);
#541=VECTOR('',#708,1.);
#542=VECTOR('',#735,1.);
#543=VECTOR('',#736,1.);
#544=VECTOR('',#737,1.);
#545=VECTOR('',#738,1.);
#546=VECTOR('',#739,1.);
#547=VECTOR('',#740,1.);
#548=VECTOR('',#741,1.);
#549=VECTOR('',#742,1.);
#550=VECTOR('',#743,1.);
#551=VECTOR('',#744,1.);
#552=VECTOR('',#745,1.);
#553=VECTOR('',#746,1.);
#554=VECTOR('',#747,1.);
#555=VECTOR('',#748,1.);
#556=VECTOR('',#749,1.);
#557=VECTOR('',#750,1.);
#558=VECTOR('',#751,1.);
#559=VECTOR('',#752,1.);
#560=VECTOR('',#753,1.);
#561=VECTOR('',#754,1.);
#562=VECTOR('',#755,1.);
#563=VECTOR('',#756,1.);
#564=VECTOR('',#757,1.);
#565=VECTOR('',#758,1.);
#566=VECTOR('',#759,1.);
#567=VECTOR('',#760,1.);
#568=VECTOR('',#763,1.);
#569=VECTOR('',#768,1.);
#570=VECTOR('',#769,1.);
#571=VECTOR('',#770,1.);
#572=VECTOR('',#771,1.);
#573=VECTOR('',#772,1.);
#574=VECTOR('',#773,1.);
#575=VECTOR('',#774,1.);
#576=VECTOR('',#775,1.);
#577=VECTOR('',#776,1.);
#578=VECTOR('',#777,1.);
#579=VECTOR('',#778,1.);
#580=VECTOR('',#779,1.);
#581=VECTOR('',#782,1.);
#582=VECTOR('',#787,1.);
#583=VECTOR('',#788,1.);
#584=VERTEX_POINT('',#826);
#585=VERTEX_POINT('',#827);
#586=VERTEX_POINT('',#828);
#587=VERTEX_POINT('',#829);
#588=VERTEX_POINT('',#830);
#589=VERTEX_POINT('',#831);
#590=VERTEX_POINT('',#832);
#591=VERTEX_POINT('',#833);
#592=VERTEX_POINT('',#834);
#593=VERTEX_POINT('',#835);
#594=VERTEX_POINT('',#836);
#595=VERTEX_POINT('',#837);
#596=VERTEX_POINT('',#838);
#597=VERTEX_POINT('',#839);
#598=VERTEX_POINT('',#840);
#599=VERTEX_POINT('',#841);
#600=VERTEX_POINT('',#842);
#601=VERTEX_POINT('',#843);
#602=VERTEX_POINT('',#844);
#603=VERTEX_POINT('',#845);
#604=VERTEX_POINT('',#846);
#605=VERTEX_POINT('',#847);
#606=VERTEX_POINT('',#906);
#607=VERTEX_POINT('',#907);
#608=VERTEX_POINT('',#908);
#609=VERTEX_POINT('',#909);
#610=VERTEX_POINT('',#910);
#611=VERTEX_POINT('',#911);
#612=VERTEX_POINT('',#912);
#613=VERTEX_POINT('',#913);
#614=VERTEX_POINT('',#914);
#615=VERTEX_POINT('',#915);
#616=VERTEX_POINT('',#916);
#617=VERTEX_POINT('',#917);
#618=VERTEX_POINT('',#918);
#619=VERTEX_POINT('',#919);
#620=VERTEX_POINT('',#920);
#621=VERTEX_POINT('',#921);
#622=VERTEX_POINT('',#922);
#623=VERTEX_POINT('',#923);
#624=VERTEX_POINT('',#924);
#625=VERTEX_POINT('',#925);
#626=VERTEX_POINT('',#926);
#627=VERTEX_POINT('',#927);
#628=VERTEX_POINT('',#928);
#629=VERTEX_POINT('',#929);
#630=VERTEX_POINT('',#930);
#631=VERTEX_POINT('',#931);
#632=VERTEX_POINT('',#932);
#633=VERTEX_POINT('',#933);
#634=VERTEX_POINT('',#934);
#635=VERTEX_POINT('',#935);
#636=VERTEX_POINT('',#936);
#637=VERTEX_POINT('',#937);
#638=SHAPE_DEFINITION_REPRESENTATION(#1004,#639);
#639=SHAPE_REPRESENTATION('master',(#640),#1006);
#640=AXIS2_PLACEMENT_3D('',#825,#679,#678);
#641=AXIS2_PLACEMENT_3D('',#893,#710,#709);
#642=AXIS2_PLACEMENT_3D('',#894,#712,#711);
#643=AXIS2_PLACEMENT_3D('',#895,#714,#713);
#644=AXIS2_PLACEMENT_3D('',#896,#716,#715);
#645=AXIS2_PLACEMENT_3D('',#897,#718,#717);
#646=AXIS2_PLACEMENT_3D('',#898,#720,#719);
#647=AXIS2_PLACEMENT_3D('',#899,#722,#721);
#648=AXIS2_PLACEMENT_3D('',#900,#724,#723);
#649=AXIS2_PLACEMENT_3D('',#901,#726,#725);
#650=AXIS2_PLACEMENT_3D('',#902,#728,#727);
#651=AXIS2_PLACEMENT_3D('',#903,#730,#729);
#652=AXIS2_PLACEMENT_3D('',#904,#732,#731);
#653=AXIS2_PLACEMENT_3D('',#905,#734,#733);
#654=AXIS2_PLACEMENT_3D('',#964,#762,#761);
#655=AXIS2_PLACEMENT_3D('',#966,#765,#764);
#656=AXIS2_PLACEMENT_3D('',#967,#767,#766);
#657=AXIS2_PLACEMENT_3D('',#980,#781,#780);
#658=AXIS2_PLACEMENT_3D('',#982,#784,#783);
#659=AXIS2_PLACEMENT_3D('',#983,#786,#785);
#660=AXIS2_PLACEMENT_3D('',#986,#790,#789);
#661=AXIS2_PLACEMENT_3D('',#987,#792,#791);
#662=AXIS2_PLACEMENT_3D('',#988,#794,#793);
#663=AXIS2_PLACEMENT_3D('',#989,#796,#795);
#664=AXIS2_PLACEMENT_3D('',#990,#798,#797);
#665=AXIS2_PLACEMENT_3D('',#991,#800,#799);
#666=AXIS2_PLACEMENT_3D('',#992,#802,#801);
#667=AXIS2_PLACEMENT_3D('',#993,#804,#803);
#668=AXIS2_PLACEMENT_3D('',#994,#806,#805);
#669=AXIS2_PLACEMENT_3D('',#995,#808,#807);
#670=AXIS2_PLACEMENT_3D('',#996,#810,#809);
#671=AXIS2_PLACEMENT_3D('',#997,#812,#811);
#672=AXIS2_PLACEMENT_3D('',#998,#814,#813);
#673=AXIS2_PLACEMENT_3D('',#999,#816,#815);
#674=AXIS2_PLACEMENT_3D('',#1000,#818,#817);
#675=AXIS2_PLACEMENT_3D('',#1001,#820,#819);
#676=AXIS2_PLACEMENT_3D('',#1002,#822,#821);
#677=AXIS2_PLACEMENT_3D('',#1003,#824,#823);
#678=DIRECTION('',(1.,0.,0.));
#679=DIRECTION('',(0.,0.,1.));
#680=DIRECTION('',(-0.,1.,-6.12323399573677E-017));
#681=DIRECTION('',(-0.,1.,-6.12323399573677E-017));
#682=DIRECTION('',(-0.,1.,-6.12323399573677E-017));
#683=DIRECTION('',(-0.,1.,-6.12323399573677E-017));
#684=DIRECTION('',(-0.,1.,-6.12323399573677E-017));
#685=DIRECTION('',(-0.,1.,-6.12323399573677E-017));
#686=DIRECTION('',(-0.,1.,-6.12323399573677E-017));
#687=DIRECTION('',(-0.,1.,-6.12323399573677E-017));
#688=DIRECTION('',(-0.,1.,-6.12323399573677E-017));
#689=DIRECTION('',(-0.,1.,-6.12323399573677E-017));
#690=DIRECTION('',(-0.,1.,-6.12323399573677E-017));
#691=DIRECTION('',(1.,0.,0.));
#692=DIRECTION('',(-0.,-0.,-1.));
#693=DIRECTION('',(-1.,-0.,-0.));
#694=DIRECTION('',(-0.,-0.,1.));
#695=DIRECTION('',(1.,-0.,-0.));
#696=DIRECTION('',(0.695318466084757,-0.,-0.718701767579251));
#697=DIRECTION('',(-0.,-0.,-1.));
#698=DIRECTION('',(1.,0.,0.));
#699=DIRECTION('',(0.,0.,1.));
#700=DIRECTION('',(1.,0.,0.));
#701=DIRECTION('',(-0.,-0.,-1.));
#702=DIRECTION('',(-1.,-0.,-0.));
#703=DIRECTION('',(-0.,-0.,1.));
#704=DIRECTION('',(1.,-0.,-0.));
#705=DIRECTION('',(0.695318466084757,-0.,-0.718701767579251));
#706=DIRECTION('',(-0.,-0.,-1.));
#707=DIRECTION('',(1.,0.,0.));
#708=DIRECTION('',(0.,0.,1.));
#709=DIRECTION('',(0.,0.,1.));
#710=DIRECTION('',(-1.,0.,0.));
#711=DIRECTION('',(0.,-1.,6.12323399573677E-017));
#712=DIRECTION('',(-0.,6.12323399573677E-017,1.));
#713=DIRECTION('',(0.,0.,-1.));
#714=DIRECTION('',(1.,0.,0.));
#715=DIRECTION('',(0.,1.,-6.12323399573677E-017));
#716=DIRECTION('',(-0.,-6.12323399573677E-017,-1.));
#717=DIRECTION('',(-0.,0.,-1.));
#718=DIRECTION('',(1.,0.,-0.));
#719=DIRECTION('',(0.695318466084757,3.08148791101958E-033,-0.718701767579251)
);
#720=DIRECTION('',(0.718701767579251,4.25759766939373E-017,0.695318466084757)
);
#721=DIRECTION('',(0.,-1.,6.12323399573677E-017));
#722=DIRECTION('',(0.,6.12323399573677E-017,1.));
#723=DIRECTION('',(-0.,0.,1.));
#724=DIRECTION('',(-1.,-0.,-0.));
#725=DIRECTION('',(0.,1.,-6.12323399573677E-017));
#726=DIRECTION('',(0.,-6.12323399573677E-017,-1.));
#727=DIRECTION('',(-0.,0.,-1.));
#728=DIRECTION('',(1.,0.,-0.));
#729=DIRECTION('',(0.,-1.,6.12323399573677E-017));
#730=DIRECTION('',(-0.,6.12323399573677E-017,1.));
#731=DIRECTION('',(0.,0.,-1.));
#732=DIRECTION('',(0.,-1.,0.));
#733=DIRECTION('',(0.,0.,-1.));
#734=DIRECTION('',(0.,-1.,0.));
#735=DIRECTION('',(-0.,1.,-6.12323399573677E-017));
#736=DIRECTION('',(-0.,1.,-6.12323399573677E-017));
#737=DIRECTION('',(-0.,1.,-6.12323399573677E-017));
#738=DIRECTION('',(-0.,1.,-6.12323399573677E-017));
#739=DIRECTION('',(-0.,1.,-6.12323399573677E-017));
#740=DIRECTION('',(-0.,1.,-6.12323399573677E-017));
#741=DIRECTION('',(-0.,1.,-6.12323399573677E-017));
#742=DIRECTION('',(-0.,1.,-6.12323399573677E-017));
#743=DIRECTION('',(-0.,1.,-6.12323399573677E-017));
#744=DIRECTION('',(-0.,1.,-6.12323399573677E-017));
#745=DIRECTION('',(-0.,1.,-6.12323399573677E-017));
#746=DIRECTION('',(-0.,1.,-6.12323399573677E-017));
#747=DIRECTION('',(-0.,1.,-6.12323399573677E-017));
#748=DIRECTION('',(-0.,1.,-6.12323399573677E-017));
#749=DIRECTION('',(-0.,1.,-6.12323399573677E-017));
#750=DIRECTION('',(-0.,1.,-6.12323399573677E-017));
#751=DIRECTION('',(-0.0773525875965489,0.,-0.997003799988806));
#752=DIRECTION('',(-0.0773525875967737,-0.,-0.997003799988788));
#753=DIRECTION('',(-1.,0.,0.));
#754=DIRECTION('',(-1.,0.,0.));
#755=DIRECTION('',(-0.57417969933015,0.,-0.81872930378553));
#756=DIRECTION('',(0.,0.,-1.));
#757=DIRECTION('',(0.994834143522333,0.,-0.101513678300938));
#758=DIRECTION('',(0.485188305091605,0.,0.874409691507554));
#759=DIRECTION('',(0.754044536749202,0.,0.656823291760182));
#760=DIRECTION('',(0.999999999999994,-0.,1.09152776758411E-007));
#761=DIRECTION('',(-0.739462069795574,-0.,-0.673198222913315));
#762=DIRECTION('',(0.,-1.,0.));
#763=DIRECTION('',(1.,0.,0.));
#764=DIRECTION('',(-0.373258540941291,0.,-0.927727363838309));
#765=DIRECTION('',(0.,1.,0.));
#766=DIRECTION('',(-9.58656641152169E-015,0.,-1.));
#767=DIRECTION('',(0.,1.,0.));
#768=DIRECTION('',(-1.,0.,0.));
#769=DIRECTION('',(-0.638017926543408,-0.,-0.770021509705573));
#770=DIRECTION('',(-0.0773525875965489,0.,-0.997003799988806));
#771=DIRECTION('',(-0.0773525875967737,-0.,-0.997003799988788));
#772=DIRECTION('',(-1.,0.,0.));
#773=DIRECTION('',(-1.,0.,0.));
#774=DIRECTION('',(-0.57417969933015,0.,-0.81872930378553));
#775=DIRECTION('',(0.,0.,-1.));
#776=DIRECTION('',(0.994834143522333,0.,-0.101513678300938));
#777=DIRECTION('',(0.485188305091605,0.,0.874409691507554));
#778=DIRECTION('',(0.754044536749202,0.,0.656823291760182));
#779=DIRECTION('',(0.999999999999994,-0.,1.09152776758411E-007));
#780=DIRECTION('',(-0.739462069795574,-0.,-0.673198222913315));
#781=DIRECTION('',(0.,-1.,0.));
#782=DIRECTION('',(1.,0.,0.));
#783=DIRECTION('',(-0.373258540941291,0.,-0.927727363838309));
#784=DIRECTION('',(0.,1.,0.));
#785=DIRECTION('',(-9.58656641152169E-015,0.,-1.));
#786=DIRECTION('',(0.,1.,0.));
#787=DIRECTION('',(-1.,0.,0.));
#788=DIRECTION('',(-0.638017926543408,-0.,-0.770021509705573));
#789=DIRECTION('',(-0.638017926543408,0.,-0.770021509705573));
#790=DIRECTION('',(0.770021509705573,-3.90673305770008E-017,-0.638017926543408
));
#791=DIRECTION('',(0.,1.,-6.12323399573677E-017));
#792=DIRECTION('',(-0.,-6.12323399573677E-017,-1.));
#793=DIRECTION('',(0.,6.12323399573677E-017,1.));
#794=DIRECTION('',(-0.,1.,-6.12323399573677E-017));
#795=DIRECTION('',(0.,6.12323399573677E-017,1.));
#796=DIRECTION('',(-0.,1.,-6.12323399573677E-017));
#797=DIRECTION('',(0.,-1.,6.12323399573677E-017));
#798=DIRECTION('',(-0.,6.12323399573677E-017,1.));
#799=DIRECTION('',(0.,6.12323399573677E-017,1.));
#800=DIRECTION('',(-0.,1.,-6.12323399573677E-017));
#801=DIRECTION('',(0.999999999999994,0.,1.09152776758411E-007));
#802=DIRECTION('',(-1.09152776758411E-007,6.12323399573673E-017,
0.999999999999994));
#803=DIRECTION('',(0.754044536749202,3.08148791101958E-033,0.656823291760182)
);
#804=DIRECTION('',(-0.656823291760182,4.6171911417223E-017,0.754044536749202)
);
#805=DIRECTION('',(0.485188305091605,0.,0.874409691507554));
#806=DIRECTION('',(-0.874409691507554,2.97092152407082E-017,0.485188305091605)
);
#807=DIRECTION('',(0.994834143522333,0.,-0.101513678300938));
#808=DIRECTION('',(0.101513678300938,6.09160224773562E-017,0.994834143522333)
);
#809=DIRECTION('',(0.,0.,-1.));
#810=DIRECTION('',(1.,0.,0.));
#811=DIRECTION('',(-0.57417969933015,-3.08148791101958E-033,-0.81872930378553)
);
#812=DIRECTION('',(0.81872930378553,-3.51583665460029E-017,-0.57417969933015)
);
#813=DIRECTION('',(0.,1.,-6.12323399573677E-017));
#814=DIRECTION('',(-0.,-6.12323399573677E-017,-1.));
#815=DIRECTION('',(0.,1.,-6.12323399573677E-017));
#816=DIRECTION('',(-0.,-6.12323399573677E-017,-1.));
#817=DIRECTION('',(-0.0773525875967737,4.81482486096809E-035,
-0.997003799988788));
#818=DIRECTION('',(0.997003799988788,-4.73647994030771E-018,
-0.0773525875967737));
#819=DIRECTION('',(-0.0773525875965489,-4.81482486096809E-035,
-0.997003799988806));
#820=DIRECTION('',(0.997003799988806,-4.73647994029394E-018,
-0.0773525875965489));
#821=DIRECTION('',(0.,-0.,1.));
#822=DIRECTION('',(0.,1.,0.));
#823=DIRECTION('',(0.,-0.,1.));
#824=DIRECTION('',(0.,1.,0.));
#825=CARTESIAN_POINT('',(0.,0.,0.));
#826=CARTESIAN_POINT('',(4143.446442,-1238.46357789764,968.924639897637));
#827=CARTESIAN_POINT('',(4133.376003,-1238.46357789764,968.924639897638));
#828=CARTESIAN_POINT('',(4133.376003,-1238.46357789764,988.523373897638));
#829=CARTESIAN_POINT('',(4170.379385,-1238.46357789764,988.523373897638));
#830=CARTESIAN_POINT('',(4170.379385,-1238.46357789764,926.521904897638));
#831=CARTESIAN_POINT('',(4144.93993,-1238.46357789764,926.521904897638));
#832=CARTESIAN_POINT('',(4142.246442,-1238.46357789764,929.305973897638));
#833=CARTESIAN_POINT('',(4142.246442,-1238.46357789764,942.194599897637));
#834=CARTESIAN_POINT('',(4157.746442,-1238.46357789764,942.194599897637));
#835=CARTESIAN_POINT('',(4157.746442,-1238.46357789764,973.556146897638));
#836=CARTESIAN_POINT('',(4143.446442,-1238.46357789764,973.556146897638));
#837=CARTESIAN_POINT('',(4143.446442,761.536422102363,968.924639897637));
#838=CARTESIAN_POINT('',(4133.376003,761.536422102363,968.924639897637));
#839=CARTESIAN_POINT('',(4133.376003,761.536422102363,988.523373897638));
#840=CARTESIAN_POINT('',(4170.379385,761.536422102363,988.523373897638));
#841=CARTESIAN_POINT('',(4170.379385,761.536422102363,926.521904897638));
#842=CARTESIAN_POINT('',(4144.93993,761.536422102363,926.521904897637));
#843=CARTESIAN_POINT('',(4142.246442,761.536422102363,929.305973897637));
#844=CARTESIAN_POINT('',(4142.246442,761.536422102363,942.194599897637));
#845=CARTESIAN_POINT('',(4157.746442,761.536422102363,942.194599897637));
#846=CARTESIAN_POINT('',(4157.746442,761.536422102363,973.556146897638));
#847=CARTESIAN_POINT('',(4143.446442,761.536422102363,973.556146897638));
#848=CARTESIAN_POINT('',(4143.446442,-1238.46357789764,973.556146897638));
#849=CARTESIAN_POINT('',(4157.746442,-1238.46357789764,973.556146897638));
#850=CARTESIAN_POINT('',(4157.746442,-1238.46357789764,942.194599897637));
#851=CARTESIAN_POINT('',(4142.246442,-1238.46357789764,942.194599897637));
#852=CARTESIAN_POINT('',(4142.246442,-1238.46357789764,929.305973897638));
#853=CARTESIAN_POINT('',(4144.93993,-1238.46357789764,926.521904897638));
#854=CARTESIAN_POINT('',(4170.379385,-1238.46357789764,926.521904897638));
#855=CARTESIAN_POINT('',(4170.379385,-1238.46357789764,988.523373897638));
#856=CARTESIAN_POINT('',(4133.376003,-1238.46357789764,988.523373897638));
#857=CARTESIAN_POINT('',(4133.376003,-1238.46357789764,968.924639897638));
#858=CARTESIAN_POINT('',(4143.446442,-1238.46357789764,968.924639897637));
#859=CARTESIAN_POINT('',(4133.376003,-1238.46357789764,968.924639897637));
#860=CARTESIAN_POINT('',(4133.376003,-1238.46357789764,988.523373897638));
#861=CARTESIAN_POINT('',(4170.379385,-1238.46357789764,988.523373897638));
#862=CARTESIAN_POINT('',(4170.379385,-1238.46357789764,926.521904897638));
#863=CARTESIAN_POINT('',(4144.93993,-1238.46357789764,926.521904897638));
#864=CARTESIAN_POINT('',(4142.246442,-1238.46357789764,929.305973897638));
#865=CARTESIAN_POINT('',(4142.246442,-1238.46357789764,942.194599897637));
#866=CARTESIAN_POINT('',(4157.746442,-1238.46357789764,942.194599897637));
#867=CARTESIAN_POINT('',(4152.57977533333,-1238.46357789764,942.194599897637)
);
#868=CARTESIAN_POINT('',(4147.41310866666,-1238.46357789764,942.194599897637)
);
#869=CARTESIAN_POINT('',(4142.246442,-1238.46357789764,942.194599897637));
#870=CARTESIAN_POINT('',(4157.746442,-1238.46357789764,973.556146897638));
#871=CARTESIAN_POINT('',(4157.746442,-1238.46357789764,963.102297897637));
#872=CARTESIAN_POINT('',(4157.746442,-1238.46357789764,952.648448897637));
#873=CARTESIAN_POINT('',(4157.746442,-1238.46357789764,942.194599897637));
#874=CARTESIAN_POINT('',(4143.446442,-1238.46357789764,973.556146897638));
#875=CARTESIAN_POINT('',(4143.446442,-1238.46357789764,968.924639897637));
#876=CARTESIAN_POINT('',(4133.376003,761.536422102363,968.924639897637));
#877=CARTESIAN_POINT('',(4133.376003,761.536422102363,988.523373897638));
#878=CARTESIAN_POINT('',(4170.379385,761.536422102363,988.523373897638));
#879=CARTESIAN_POINT('',(4170.379385,761.536422102363,926.521904897638));
#880=CARTESIAN_POINT('',(4144.93993,761.536422102363,926.521904897638));
#881=CARTESIAN_POINT('',(4142.246442,761.536422102363,929.305973897637));
#882=CARTESIAN_POINT('',(4142.246442,761.536422102363,942.194599897637));
#883=CARTESIAN_POINT('',(4157.746442,761.536422102363,942.194599897637));
#884=CARTESIAN_POINT('',(4152.57977533333,761.536422102363,942.194599897637));
#885=CARTESIAN_POINT('',(4147.41310866666,761.536422102363,942.194599897637));
#886=CARTESIAN_POINT('',(4142.246442,761.536422102363,942.194599897637));
#887=CARTESIAN_POINT('',(4157.746442,761.536422102363,973.556146897637));
#888=CARTESIAN_POINT('',(4157.746442,761.536422102363,963.102297897637));
#889=CARTESIAN_POINT('',(4157.746442,761.536422102363,952.648448897637));
#890=CARTESIAN_POINT('',(4157.746442,761.536422102363,942.194599897637));
#891=CARTESIAN_POINT('',(4143.446442,761.536422102363,973.556146897638));
#892=CARTESIAN_POINT('',(4143.446442,761.536422102363,968.924639897637));
#893=CARTESIAN_POINT('',(4143.446442,-1238.46357789764,968.924639897637));
#894=CARTESIAN_POINT('',(4143.446442,-1238.46357789764,973.556146897638));
#895=CARTESIAN_POINT('',(4157.746442,-1238.46357789764,973.556146897638));
#896=CARTESIAN_POINT('',(4157.746442,-1238.46357789764,942.194599897637));
#897=CARTESIAN_POINT('',(4142.246442,-1238.46357789764,942.194599897637));
#898=CARTESIAN_POINT('',(4142.246442,-1238.46357789764,929.305973897638));
#899=CARTESIAN_POINT('',(4144.93993,-1238.46357789764,926.521904897638));
#900=CARTESIAN_POINT('',(4170.379385,-1238.46357789764,926.521904897638));
#901=CARTESIAN_POINT('',(4170.379385,-1238.46357789764,988.523373897638));
#902=CARTESIAN_POINT('',(4133.376003,-1238.46357789764,988.523373897638));
#903=CARTESIAN_POINT('',(4133.376003,-1238.46357789764,968.924639897637));
#904=CARTESIAN_POINT('',(4143.446442,-1238.46357789764,968.924639897637));
#905=CARTESIAN_POINT('',(4143.446442,761.536422102363,968.924639897637));
#906=CARTESIAN_POINT('',(4141.111288,-1238.46357789764,929.021584897638));
#907=CARTESIAN_POINT('',(4142.01068699626,-1238.46357789764,940.614011794293)
);
#908=CARTESIAN_POINT('',(4142.133317,-1238.46357789764,942.194599897637));
#909=CARTESIAN_POINT('',(4142.832231,-1238.46357789764,942.194599897637));
#910=CARTESIAN_POINT('',(4149.133317,-1238.46357789764,942.194599897637));
#911=CARTESIAN_POINT('',(4157.746442,-1238.46357789764,954.476151897638));
#912=CARTESIAN_POINT('',(4157.746442,-1238.46357789764,969.976151897637));
#913=CARTESIAN_POINT('',(4145.333408,-1238.46357789764,971.242787897638));
#914=CARTESIAN_POINT('',(4135.896377,-1238.46357789764,954.235305897638));
#915=CARTESIAN_POINT('',(4120.258895,-1238.46357789764,940.614011794293));
#916=CARTESIAN_POINT('',(4031.56801018036,-1238.46357789764,940.614002113436)
);
#917=CARTESIAN_POINT('',(3938.38175669129,-1238.46357789764,983.967442897638)
);
#918=CARTESIAN_POINT('',(3920.091449,-1238.46357789764,983.967442897637));
#919=CARTESIAN_POINT('',(3977.45534280891,-1238.46357789764,936.806856284386)
);
#920=CARTESIAN_POINT('',(4030.57290088,-1238.46357789764,926.521904897638));
#921=CARTESIAN_POINT('',(4139.04012423312,-1238.46357789764,926.521904897638)
);
#922=CARTESIAN_POINT('',(4141.111288,761.536422102363,929.021584897637));
#923=CARTESIAN_POINT('',(4142.01068699626,761.536422102363,940.614011794293));
#924=CARTESIAN_POINT('',(4142.133317,761.536422102363,942.194599897637));
#925=CARTESIAN_POINT('',(4142.832231,761.536422102363,942.194599897637));
#926=CARTESIAN_POINT('',(4149.133317,761.536422102363,942.194599897637));
#927=CARTESIAN_POINT('',(4157.746442,761.536422102363,954.476151897637));
#928=CARTESIAN_POINT('',(4157.746442,761.536422102363,969.976151897637));
#929=CARTESIAN_POINT('',(4145.333408,761.536422102363,971.242787897638));
#930=CARTESIAN_POINT('',(4135.896377,761.536422102363,954.235305897638));
#931=CARTESIAN_POINT('',(4120.258895,761.536422102363,940.614011794293));
#932=CARTESIAN_POINT('',(4031.56801018036,761.536422102363,940.614002113436));
#933=CARTESIAN_POINT('',(3938.38175669129,761.536422102363,983.967442897637));
#934=CARTESIAN_POINT('',(3920.091449,761.536422102363,983.967442897637));
#935=CARTESIAN_POINT('',(3977.45534280891,761.536422102363,936.806856284386));
#936=CARTESIAN_POINT('',(4030.57290088,761.536422102363,926.521904897638));
#937=CARTESIAN_POINT('',(4139.04012423312,761.536422102363,926.521904897638));
#938=CARTESIAN_POINT('',(4139.04012423312,-1238.46357789764,926.521904897638)
);
#939=CARTESIAN_POINT('',(4030.57290088,-1238.46357789764,926.521904897638));
#940=CARTESIAN_POINT('',(3977.45534280891,-1238.46357789764,936.806856284386)
);
#941=CARTESIAN_POINT('',(3920.091449,-1238.46357789764,983.967442897637));
#942=CARTESIAN_POINT('',(3938.38175669129,-1238.46357789764,983.967442897638)
);
#943=CARTESIAN_POINT('',(4031.56801018036,-1238.46357789764,940.614002113436)
);
#944=CARTESIAN_POINT('',(4120.258895,-1238.46357789764,940.614011794293));
#945=CARTESIAN_POINT('',(4135.896377,-1238.46357789764,954.235305897638));
#946=CARTESIAN_POINT('',(4145.333408,-1238.46357789764,971.242787897638));
#947=CARTESIAN_POINT('',(4157.746442,-1238.46357789764,969.976151897637));
#948=CARTESIAN_POINT('',(4157.746442,-1238.46357789764,954.476151897638));
#949=CARTESIAN_POINT('',(4149.133317,-1238.46357789764,942.194599897637));
#950=CARTESIAN_POINT('',(4142.832231,-1238.46357789764,942.194599897637));
#951=CARTESIAN_POINT('',(4142.133317,-1238.46357789764,942.194599897637));
#952=CARTESIAN_POINT('',(4142.01068699626,-1238.46357789764,940.614011794293)
);
#953=CARTESIAN_POINT('',(4141.111288,-1238.46357789764,929.021584897638));
#954=CARTESIAN_POINT('',(4142.01068699626,-1238.46357789764,940.614011794293)
);
#955=CARTESIAN_POINT('',(4142.133317,-1238.46357789764,942.194599897637));
#956=CARTESIAN_POINT('',(4142.832231,-1238.46357789764,942.194599897637));
#957=CARTESIAN_POINT('',(4149.133317,-1238.46357789764,942.194599897637));
#958=CARTESIAN_POINT('',(4157.746442,-1238.46357789764,954.476151897637));
#959=CARTESIAN_POINT('',(4157.746442,-1238.46357789764,969.976151897638));
#960=CARTESIAN_POINT('',(4145.333408,-1238.46357789764,971.242787897638));
#961=CARTESIAN_POINT('',(4135.896377,-1238.46357789764,954.235305897638));
#962=CARTESIAN_POINT('',(4120.258895,-1238.46357789764,940.614011794293));
#963=CARTESIAN_POINT('',(4031.56801018036,-1238.46357789764,940.614002113436)
);
#964=CARTESIAN_POINT('',(4036.70305773537,-1238.46357789764,1073.47808562161)
);
#965=CARTESIAN_POINT('',(3920.091449,-1238.46357789764,983.967442897638));
#966=CARTESIAN_POINT('',(4023.52443818936,-1238.46357789764,1051.31076101471)
);
#967=CARTESIAN_POINT('',(4030.57290088001,-1238.46357789764,1068.82958776309)
);
#968=CARTESIAN_POINT('',(4139.04012423312,-1238.46357789764,926.521904897638)
);
#969=CARTESIAN_POINT('',(4141.111288,-1238.46357789764,929.021584897638));
#970=CARTESIAN_POINT('',(4142.01068699626,761.536422102363,940.614011794293));
#971=CARTESIAN_POINT('',(4142.133317,761.536422102363,942.194599897637));
#972=CARTESIAN_POINT('',(4142.832231,761.536422102363,942.194599897637));
#973=CARTESIAN_POINT('',(4149.133317,761.536422102363,942.194599897637));
#974=CARTESIAN_POINT('',(4157.746442,761.536422102363,954.476151897637));
#975=CARTESIAN_POINT('',(4157.746442,761.536422102363,969.976151897637));
#976=CARTESIAN_POINT('',(4145.333408,761.536422102363,971.242787897637));
#977=CARTESIAN_POINT('',(4135.896377,761.536422102363,954.235305897638));
#978=CARTESIAN_POINT('',(4120.258895,761.536422102363,940.614011794293));
#979=CARTESIAN_POINT('',(4031.56801018036,761.536422102363,940.614002113436));
#980=CARTESIAN_POINT('',(4036.70305773537,761.536422102363,1073.47808562161));
#981=CARTESIAN_POINT('',(3920.091449,761.536422102363,983.967442897637));
#982=CARTESIAN_POINT('',(4023.52443818936,761.536422102363,1051.31076101471));
#983=CARTESIAN_POINT('',(4030.57290088001,761.536422102363,1068.82958776309));
#984=CARTESIAN_POINT('',(4139.04012423312,761.536422102363,926.521904897638));
#985=CARTESIAN_POINT('',(4141.111288,761.536422102363,929.021584897637));
#986=CARTESIAN_POINT('',(4141.111288,-1238.46357789764,929.021584897638));
#987=CARTESIAN_POINT('',(4139.04012423312,-1238.46357789764,926.521904897638)
);
#988=CARTESIAN_POINT('',(4030.57290088001,-1238.46357789764,1068.82958776309)
);
#989=CARTESIAN_POINT('',(4023.52443818936,-1238.46357789764,1051.31076101471)
);
#990=CARTESIAN_POINT('',(3920.091449,-1238.46357789764,983.967442897638));
#991=CARTESIAN_POINT('',(4036.70305773537,-1238.46357789764,1073.47808562161)
);
#992=CARTESIAN_POINT('',(4031.56801018036,-1238.46357789764,940.614002113436)
);
#993=CARTESIAN_POINT('',(4120.258895,-1238.46357789764,940.614011794293));
#994=CARTESIAN_POINT('',(4135.896377,-1238.46357789764,954.235305897638));
#995=CARTESIAN_POINT('',(4145.333408,-1238.46357789764,971.242787897638));
#996=CARTESIAN_POINT('',(4157.746442,-1238.46357789764,969.976151897638));
#997=CARTESIAN_POINT('',(4157.746442,-1238.46357789764,954.476151897637));
#998=CARTESIAN_POINT('',(4149.133317,-1238.46357789764,942.194599897637));
#999=CARTESIAN_POINT('',(4142.832231,-1238.46357789764,942.194599897637));
#1000=CARTESIAN_POINT('',(4142.133317,-1238.46357789764,942.194599897637));
#1001=CARTESIAN_POINT('',(4142.01068699626,-1238.46357789764,940.614011794293)
);
#1002=CARTESIAN_POINT('',(4030.57290088001,-1238.46357789764,1068.82958776309)
);
#1003=CARTESIAN_POINT('',(4030.57290088001,761.536422102363,1068.82958776309)
);
#1004=PRODUCT_DEFINITION_SHAPE('','',#1005);
#1005=PRODUCT_DEFINITION('','',#1017,#1022);
#1006=(
GEOMETRIC_REPRESENTATION_CONTEXT(3)
GLOBAL_UNCERTAINTY_ASSIGNED_CONTEXT((#1007))
GLOBAL_UNIT_ASSIGNED_CONTEXT((#1009,#1008,#1012))
REPRESENTATION_CONTEXT('','')
);
#1007=UNCERTAINTY_MEASURE_WITH_UNIT(LENGTH_MEASURE(0.001),#1009,'','tolerance'
);
#1008=(
CONVERSION_BASED_UNIT('',#1010)
NAMED_UNIT(#1016)
PLANE_ANGLE_UNIT()
);
#1009=(
CONVERSION_BASED_UNIT('',#1011)
LENGTH_UNIT()
NAMED_UNIT(#1015)
);
#1010=PLANE_ANGLE_MEASURE_WITH_UNIT(PLANE_ANGLE_MEASURE(0.0174532925199433),
#1013);
#1011=LENGTH_MEASURE_WITH_UNIT(LENGTH_MEASURE(1.),#1014);
#1012=(
NAMED_UNIT(*)
SI_UNIT($,.STERADIAN.)
SOLID_ANGLE_UNIT()
);
#1013=(
NAMED_UNIT(*)
PLANE_ANGLE_UNIT()
SI_UNIT($,.RADIAN.)
);
#1014=(
LENGTH_UNIT()
NAMED_UNIT(*)
SI_UNIT(.MILLI.,.METRE.)
);
#1015=DIMENSIONAL_EXPONENTS(1.,0.,0.,0.,0.,0.,0.);
#1016=DIMENSIONAL_EXPONENTS(0.,0.,0.,0.,0.,0.,0.);
#1017=PRODUCT_DEFINITION_FORMATION_WITH_SPECIFIED_SOURCE('','',#1020,
.NOT_KNOWN.);
#1018=PRODUCT_CATEGORY_RELATIONSHIP('','',#1023,#1019);
#1019=PRODUCT_RELATED_PRODUCT_CATEGORY('assembly','',(#1020));
#1020=PRODUCT('','master','',(#1021));
#1021=PRODUCT_CONTEXT('',#1025,'');
#1022=PRODUCT_DEFINITION_CONTEXT('',#1025,'part_definition');
#1023=PRODUCT_CATEGORY('part','');
#1024=APPLICATION_PROTOCOL_DEFINITION('international standard',
'automotive_design_cc2',1994,#1025);
#1025=APPLICATION_CONTEXT(
'configuration controlled 3D designs of mechanical parts and assemblies');
ENDSEC;
END-ISO-10303-21;
47521