ISO-10303-21;
HEADER;
/* Generated by software using Delcam plc STEP library */

FILE_DESCRIPTION(
/* description */ ('AP-214 File'),
/* implementation_level */ '2;1');

FILE_NAME(
/* name */ 'D801',
/* time_stamp */ 'Tue Nov 07 13:12:00 2017',
/* author */ (''),
/* organization */ (''),
/* preprocessor_version */ 'DELCAM STEP V1',
/* originating_system */ 'Exchange7.1.0006',
/* authorisation */ '');

FILE_SCHEMA (('AUTOMOTIVE_DESIGN'));
ENDSEC;
DATA;
#10=PRESENTATION_STYLE_ASSIGNMENT((#20));
#11=PRESENTATION_STYLE_ASSIGNMENT((#21));
#12=SURFACE_SIDE_STYLE('',(#14));
#13=SURFACE_SIDE_STYLE('',(#15));
#14=SURFACE_STYLE_FILL_AREA(#16);
#15=SURFACE_STYLE_FILL_AREA(#17);
#16=FILL_AREA_STYLE('',(#18));
#17=FILL_AREA_STYLE('',(#19));
#18=FILL_AREA_STYLE_COLOUR('',#47);
#19=FILL_AREA_STYLE_COLOUR('',#48);
#20=SURFACE_STYLE_USAGE(.BOTH.,#12);
#21=SURFACE_STYLE_USAGE(.BOTH.,#13);
#22=STYLED_ITEM('',(#10),#73);
#23=STYLED_ITEM('',(#10),#74);
#24=STYLED_ITEM('',(#10),#75);
#25=STYLED_ITEM('',(#10),#76);
#26=STYLED_ITEM('',(#10),#77);
#27=STYLED_ITEM('',(#10),#78);
#28=STYLED_ITEM('',(#10),#79);
#29=STYLED_ITEM('',(#10),#80);
#30=STYLED_ITEM('',(#10),#81);
#31=STYLED_ITEM('',(#10),#82);
#32=STYLED_ITEM('',(#10),#83);
#33=STYLED_ITEM('',(#10),#84);
#34=STYLED_ITEM('',(#10),#85);
#35=STYLED_ITEM('',(#10),#86);
#36=STYLED_ITEM('',(#10),#87);
#37=STYLED_ITEM('',(#10),#88);
#38=STYLED_ITEM('',(#10),#89);
#39=STYLED_ITEM('',(#10),#90);
#40=STYLED_ITEM('',(#10),#91);
#41=STYLED_ITEM('',(#10),#92);
#42=STYLED_ITEM('',(#10),#93);
#43=STYLED_ITEM('',(#10),#94);
#44=STYLED_ITEM('',(#10),#95);
#45=STYLED_ITEM('',(#10),#96);
#46=STYLED_ITEM('',(#11),#54);
#47=COLOUR_RGB('',0.,0.,0.);
#48=COLOUR_RGB('rgb_colour_1',0.4,0.4,0.4);
#49=MECHANICAL_DESIGN_GEOMETRIC_PRESENTATION_REPRESENTATION('',(#22,#23,#24,
#25,#26,#27,#28,#29,#30,#31,#32,#33,#34,#35,#36,#37,#38,#39,#40,#41,#42,#43,
#44,#45,#46),#1096);
#50=PRESENTATION_LAYER_ASSIGNMENT('144','D801',(#73,#74,#75,#76,#77,#78,#79,
#80,#81,#82,#83,#84,#85,#86,#87,#88,#89,#90,#91,#92,#93,#94,#95,#96,#54));
#51=SHAPE_REPRESENTATION_RELATIONSHIP('','',#526,#52);
#52=ADVANCED_BREP_SHAPE_REPRESENTATION('',(#53),#1096);
#53=MANIFOLD_SOLID_BREP('8119',#54);
#54=CLOSED_SHELL('',(#73,#74,#75,#76,#77,#78,#79,#80,#81,#82,#83,#84,#85,#86,
#87,#88,#89,#90,#91,#92,#93,#94,#95,#96));
#55=PLANE('',#528);
#56=PLANE('',#529);
#57=PLANE('',#530);
#58=PLANE('',#531);
#59=PLANE('',#532);
#60=PLANE('',#533);
#61=PLANE('',#534);
#62=PLANE('',#535);
#63=PLANE('',#536);
#64=PLANE('',#537);
#65=PLANE('',#538);
#66=PLANE('',#539);
#67=PLANE('',#540);
#68=PLANE('',#541);
#69=PLANE('',#542);
#70=PLANE('',#543);
#71=PLANE('',#544);
#72=PLANE('',#545);
#73=ADVANCED_FACE('',(#97),#277,.T.);
#74=ADVANCED_FACE('',(#98),#55,.T.);
#75=ADVANCED_FACE('',(#99),#278,.T.);
#76=ADVANCED_FACE('',(#100),#56,.T.);
#77=ADVANCED_FACE('',(#101),#57,.T.);
#78=ADVANCED_FACE('',(#102),#279,.T.);
#79=ADVANCED_FACE('',(#103),#58,.T.);
#80=ADVANCED_FACE('',(#104),#59,.T.);
#81=ADVANCED_FACE('',(#105),#280,.T.);
#82=ADVANCED_FACE('',(#106),#60,.T.);
#83=ADVANCED_FACE('',(#107),#61,.T.);
#84=ADVANCED_FACE('',(#108),#62,.T.);
#85=ADVANCED_FACE('',(#109),#63,.T.);
#86=ADVANCED_FACE('',(#110),#64,.T.);
#87=ADVANCED_FACE('',(#111),#65,.T.);
#88=ADVANCED_FACE('',(#112),#66,.T.);
#89=ADVANCED_FACE('',(#113),#281,.T.);
#90=ADVANCED_FACE('',(#114),#67,.T.);
#91=ADVANCED_FACE('',(#115),#282,.T.);
#92=ADVANCED_FACE('',(#116),#68,.T.);
#93=ADVANCED_FACE('',(#117),#69,.T.);
#94=ADVANCED_FACE('',(#118),#70,.T.);
#95=ADVANCED_FACE('',(#119),#71,.F.);
#96=ADVANCED_FACE('',(#120),#72,.T.);
#97=FACE_OUTER_BOUND('',#121,.T.);
#98=FACE_OUTER_BOUND('',#122,.T.);
#99=FACE_OUTER_BOUND('',#123,.T.);
#100=FACE_OUTER_BOUND('',#124,.T.);
#101=FACE_OUTER_BOUND('',#125,.T.);
#102=FACE_OUTER_BOUND('',#126,.T.);
#103=FACE_OUTER_BOUND('',#127,.T.);
#104=FACE_OUTER_BOUND('',#128,.T.);
#105=FACE_OUTER_BOUND('',#129,.T.);
#106=FACE_OUTER_BOUND('',#130,.T.);
#107=FACE_OUTER_BOUND('',#131,.T.);
#108=FACE_OUTER_BOUND('',#132,.T.);
#109=FACE_OUTER_BOUND('',#133,.T.);
#110=FACE_OUTER_BOUND('',#134,.T.);
#111=FACE_OUTER_BOUND('',#135,.T.);
#112=FACE_OUTER_BOUND('',#136,.T.);
#113=FACE_OUTER_BOUND('',#137,.T.);
#114=FACE_OUTER_BOUND('',#138,.T.);
#115=FACE_OUTER_BOUND('',#139,.T.);
#116=FACE_OUTER_BOUND('',#140,.T.);
#117=FACE_OUTER_BOUND('',#141,.T.);
#118=FACE_OUTER_BOUND('',#142,.T.);
#119=FACE_OUTER_BOUND('',#143,.T.);
#120=FACE_OUTER_BOUND('',#144,.T.);
#121=EDGE_LOOP('',(#145,#146,#147,#148));
#122=EDGE_LOOP('',(#149,#150,#151,#152));
#123=EDGE_LOOP('',(#153,#154,#155,#156));
#124=EDGE_LOOP('',(#157,#158,#159,#160));
#125=EDGE_LOOP('',(#161,#162,#163,#164));
#126=EDGE_LOOP('',(#165,#166,#167,#168));
#127=EDGE_LOOP('',(#169,#170,#171,#172));
#128=EDGE_LOOP('',(#173,#174,#175,#176));
#129=EDGE_LOOP('',(#177,#178,#179,#180));
#130=EDGE_LOOP('',(#181,#182,#183,#184));
#131=EDGE_LOOP('',(#185,#186,#187,#188));
#132=EDGE_LOOP('',(#189,#190,#191,#192));
#133=EDGE_LOOP('',(#193,#194,#195,#196));
#134=EDGE_LOOP('',(#197,#198,#199,#200));
#135=EDGE_LOOP('',(#201,#202,#203,#204));
#136=EDGE_LOOP('',(#205,#206,#207,#208));
#137=EDGE_LOOP('',(#209,#210,#211,#212));
#138=EDGE_LOOP('',(#213,#214,#215,#216));
#139=EDGE_LOOP('',(#217,#218,#219,#220));
#140=EDGE_LOOP('',(#221,#222,#223,#224));
#141=EDGE_LOOP('',(#225,#226,#227,#228));
#142=EDGE_LOOP('',(#229,#230,#231,#232));
#143=EDGE_LOOP('',(#233,#234,#235,#236,#237,#238,#239,#240,#241,#242,#243,#244
,#245,#246,#247,#248,#249,#250,#251,#252,#253,#254));
#144=EDGE_LOOP('',(#255,#256,#257,#258,#259,#260,#261,#262,#263,#264,#265,#266
,#267,#268,#269,#270,#271,#272,#273,#274,#275,#276));
#145=ORIENTED_EDGE('',*,*,#366,.F.);
#146=ORIENTED_EDGE('',*,*,#322,.F.);
#147=ORIENTED_EDGE('',*,*,#344,.T.);
#148=ORIENTED_EDGE('',*,*,#301,.T.);
#149=ORIENTED_EDGE('',*,*,#365,.F.);
#150=ORIENTED_EDGE('',*,*,#301,.F.);
#151=ORIENTED_EDGE('',*,*,#343,.T.);
#152=ORIENTED_EDGE('',*,*,#302,.T.);
#153=ORIENTED_EDGE('',*,*,#364,.F.);
#154=ORIENTED_EDGE('',*,*,#302,.F.);
#155=ORIENTED_EDGE('',*,*,#342,.T.);
#156=ORIENTED_EDGE('',*,*,#303,.T.);
#157=ORIENTED_EDGE('',*,*,#363,.F.);
#158=ORIENTED_EDGE('',*,*,#303,.F.);
#159=ORIENTED_EDGE('',*,*,#341,.T.);
#160=ORIENTED_EDGE('',*,*,#304,.T.);
#161=ORIENTED_EDGE('',*,*,#362,.F.);
#162=ORIENTED_EDGE('',*,*,#304,.F.);
#163=ORIENTED_EDGE('',*,*,#340,.T.);
#164=ORIENTED_EDGE('',*,*,#305,.T.);
#165=ORIENTED_EDGE('',*,*,#361,.F.);
#166=ORIENTED_EDGE('',*,*,#305,.F.);
#167=ORIENTED_EDGE('',*,*,#339,.T.);
#168=ORIENTED_EDGE('',*,*,#306,.T.);
#169=ORIENTED_EDGE('',*,*,#360,.F.);
#170=ORIENTED_EDGE('',*,*,#306,.F.);
#171=ORIENTED_EDGE('',*,*,#338,.T.);
#172=ORIENTED_EDGE('',*,*,#307,.T.);
#173=ORIENTED_EDGE('',*,*,#359,.F.);
#174=ORIENTED_EDGE('',*,*,#307,.F.);
#175=ORIENTED_EDGE('',*,*,#337,.T.);
#176=ORIENTED_EDGE('',*,*,#308,.T.);
#177=ORIENTED_EDGE('',*,*,#358,.F.);
#178=ORIENTED_EDGE('',*,*,#308,.F.);
#179=ORIENTED_EDGE('',*,*,#336,.T.);
#180=ORIENTED_EDGE('',*,*,#309,.T.);
#181=ORIENTED_EDGE('',*,*,#357,.F.);
#182=ORIENTED_EDGE('',*,*,#309,.F.);
#183=ORIENTED_EDGE('',*,*,#335,.T.);
#184=ORIENTED_EDGE('',*,*,#310,.T.);
#185=ORIENTED_EDGE('',*,*,#356,.F.);
#186=ORIENTED_EDGE('',*,*,#310,.F.);
#187=ORIENTED_EDGE('',*,*,#334,.T.);
#188=ORIENTED_EDGE('',*,*,#311,.T.);
#189=ORIENTED_EDGE('',*,*,#355,.F.);
#190=ORIENTED_EDGE('',*,*,#311,.F.);
#191=ORIENTED_EDGE('',*,*,#333,.T.);
#192=ORIENTED_EDGE('',*,*,#312,.T.);
#193=ORIENTED_EDGE('',*,*,#354,.F.);
#194=ORIENTED_EDGE('',*,*,#312,.F.);
#195=ORIENTED_EDGE('',*,*,#332,.T.);
#196=ORIENTED_EDGE('',*,*,#313,.T.);
#197=ORIENTED_EDGE('',*,*,#353,.F.);
#198=ORIENTED_EDGE('',*,*,#313,.F.);
#199=ORIENTED_EDGE('',*,*,#331,.T.);
#200=ORIENTED_EDGE('',*,*,#314,.T.);
#201=ORIENTED_EDGE('',*,*,#352,.F.);
#202=ORIENTED_EDGE('',*,*,#314,.F.);
#203=ORIENTED_EDGE('',*,*,#330,.T.);
#204=ORIENTED_EDGE('',*,*,#315,.T.);
#205=ORIENTED_EDGE('',*,*,#351,.F.);
#206=ORIENTED_EDGE('',*,*,#315,.F.);
#207=ORIENTED_EDGE('',*,*,#329,.T.);
#208=ORIENTED_EDGE('',*,*,#316,.T.);
#209=ORIENTED_EDGE('',*,*,#350,.F.);
#210=ORIENTED_EDGE('',*,*,#316,.F.);
#211=ORIENTED_EDGE('',*,*,#328,.T.);
#212=ORIENTED_EDGE('',*,*,#317,.T.);
#213=ORIENTED_EDGE('',*,*,#349,.F.);
#214=ORIENTED_EDGE('',*,*,#317,.F.);
#215=ORIENTED_EDGE('',*,*,#327,.T.);
#216=ORIENTED_EDGE('',*,*,#318,.T.);
#217=ORIENTED_EDGE('',*,*,#348,.F.);
#218=ORIENTED_EDGE('',*,*,#318,.F.);
#219=ORIENTED_EDGE('',*,*,#326,.T.);
#220=ORIENTED_EDGE('',*,*,#319,.T.);
#221=ORIENTED_EDGE('',*,*,#347,.F.);
#222=ORIENTED_EDGE('',*,*,#319,.F.);
#223=ORIENTED_EDGE('',*,*,#325,.T.);
#224=ORIENTED_EDGE('',*,*,#320,.T.);
#225=ORIENTED_EDGE('',*,*,#346,.F.);
#226=ORIENTED_EDGE('',*,*,#320,.F.);
#227=ORIENTED_EDGE('',*,*,#324,.T.);
#228=ORIENTED_EDGE('',*,*,#321,.T.);
#229=ORIENTED_EDGE('',*,*,#345,.F.);
#230=ORIENTED_EDGE('',*,*,#321,.F.);
#231=ORIENTED_EDGE('',*,*,#323,.T.);
#232=ORIENTED_EDGE('',*,*,#322,.T.);
#233=ORIENTED_EDGE('',*,*,#344,.F.);
#234=ORIENTED_EDGE('',*,*,#323,.F.);
#235=ORIENTED_EDGE('',*,*,#324,.F.);
#236=ORIENTED_EDGE('',*,*,#325,.F.);
#237=ORIENTED_EDGE('',*,*,#326,.F.);
#238=ORIENTED_EDGE('',*,*,#327,.F.);
#239=ORIENTED_EDGE('',*,*,#328,.F.);
#240=ORIENTED_EDGE('',*,*,#329,.F.);
#241=ORIENTED_EDGE('',*,*,#330,.F.);
#242=ORIENTED_EDGE('',*,*,#331,.F.);
#243=ORIENTED_EDGE('',*,*,#332,.F.);
#244=ORIENTED_EDGE('',*,*,#333,.F.);
#245=ORIENTED_EDGE('',*,*,#334,.F.);
#246=ORIENTED_EDGE('',*,*,#335,.F.);
#247=ORIENTED_EDGE('',*,*,#336,.F.);
#248=ORIENTED_EDGE('',*,*,#337,.F.);
#249=ORIENTED_EDGE('',*,*,#338,.F.);
#250=ORIENTED_EDGE('',*,*,#339,.F.);
#251=ORIENTED_EDGE('',*,*,#340,.F.);
#252=ORIENTED_EDGE('',*,*,#341,.F.);
#253=ORIENTED_EDGE('',*,*,#342,.F.);
#254=ORIENTED_EDGE('',*,*,#343,.F.);
#255=ORIENTED_EDGE('',*,*,#366,.T.);
#256=ORIENTED_EDGE('',*,*,#365,.T.);
#257=ORIENTED_EDGE('',*,*,#364,.T.);
#258=ORIENTED_EDGE('',*,*,#363,.T.);
#259=ORIENTED_EDGE('',*,*,#362,.T.);
#260=ORIENTED_EDGE('',*,*,#361,.T.);
#261=ORIENTED_EDGE('',*,*,#360,.T.);
#262=ORIENTED_EDGE('',*,*,#359,.T.);
#263=ORIENTED_EDGE('',*,*,#358,.T.);
#264=ORIENTED_EDGE('',*,*,#357,.T.);
#265=ORIENTED_EDGE('',*,*,#356,.T.);
#266=ORIENTED_EDGE('',*,*,#355,.T.);
#267=ORIENTED_EDGE('',*,*,#354,.T.);
#268=ORIENTED_EDGE('',*,*,#353,.T.);
#269=ORIENTED_EDGE('',*,*,#352,.T.);
#270=ORIENTED_EDGE('',*,*,#351,.T.);
#271=ORIENTED_EDGE('',*,*,#350,.T.);
#272=ORIENTED_EDGE('',*,*,#349,.T.);
#273=ORIENTED_EDGE('',*,*,#348,.T.);
#274=ORIENTED_EDGE('',*,*,#347,.T.);
#275=ORIENTED_EDGE('',*,*,#346,.T.);
#276=ORIENTED_EDGE('',*,*,#345,.T.);
#277=SURFACE_OF_LINEAR_EXTRUSION('',#295,#475);
#278=SURFACE_OF_LINEAR_EXTRUSION('',#296,#476);
#279=SURFACE_OF_LINEAR_EXTRUSION('',#297,#477);
#280=SURFACE_OF_LINEAR_EXTRUSION('',#298,#478);
#281=SURFACE_OF_LINEAR_EXTRUSION('',#299,#479);
#282=SURFACE_OF_LINEAR_EXTRUSION('',#300,#480);
#283=B_SPLINE_CURVE_WITH_KNOTS('',3,(#714,#715,#716,#717,#718,#719,#720,#721,
#722,#723,#724,#725,#726,#727,#728,#729,#730,#731,#732,#733,#734,#735),
.UNSPECIFIED.,.F.,.F.,(4,3,3,3,3,3,3,4),(0.,1.,2.,3.,4.,5.,6.,7.),
.UNSPECIFIED.);
#284=B_SPLINE_CURVE_WITH_KNOTS('',3,(#737,#738,#739,#740,#741,#742,#743,#744,
#745,#746,#747,#748,#749,#750,#751,#752),.UNSPECIFIED.,.F.,.F.,(4,3,3,3,3,4),(
0.,1.,2.,3.,4.,5.),.UNSPECIFIED.);
#285=B_SPLINE_CURVE_WITH_KNOTS('',3,(#760,#761,#762,#763,#764,#765,#766,#767,
#768,#769,#770,#771,#772,#773,#774,#775,#776,#777,#778,#779,#780,#781,#782,
#783,#784,#785,#786,#787),.UNSPECIFIED.,.F.,.F.,(4,3,3,3,3,3,3,3,3,4),(0.,1.,
2.,3.,4.,5.,6.,7.,8.,9.),.UNSPECIFIED.);
#286=B_SPLINE_CURVE_WITH_KNOTS('',3,(#790,#791,#792,#793,#794,#795,#796,#797,
#798,#799,#800,#801,#802,#803,#804,#805,#806,#807,#808,#809,#810,#811),
.UNSPECIFIED.,.F.,.F.,(4,3,3,3,3,3,3,4),(0.,1.,2.,3.,4.,5.,6.,7.),
.UNSPECIFIED.);
#287=B_SPLINE_CURVE_WITH_KNOTS('',3,(#814,#815,#816,#817,#818,#819,#820,#821,
#822,#823),.UNSPECIFIED.,.F.,.F.,(4,3,3,4),(0.,1.,2.,3.),.UNSPECIFIED.);
#288=B_SPLINE_CURVE_WITH_KNOTS('',3,(#825,#826,#827,#828,#829,#830,#831,#832,
#833,#834,#835,#836,#837),.UNSPECIFIED.,.F.,.F.,(4,3,3,3,4),(0.,1.,2.,3.,4.),
.UNSPECIFIED.);
#289=B_SPLINE_CURVE_WITH_KNOTS('',3,(#841,#842,#843,#844,#845,#846,#847,#848,
#849,#850,#851,#852,#853,#854,#855,#856,#857,#858,#859,#860,#861,#862),
.UNSPECIFIED.,.F.,.F.,(4,3,3,3,3,3,3,4),(0.,1.,2.,3.,4.,5.,6.,7.),
.UNSPECIFIED.);
#290=B_SPLINE_CURVE_WITH_KNOTS('',3,(#864,#865,#866,#867,#868,#869,#870,#871,
#872,#873,#874,#875,#876,#877,#878,#879),.UNSPECIFIED.,.F.,.F.,(4,3,3,3,3,4),(
0.,1.,2.,3.,4.,5.),.UNSPECIFIED.);
#291=B_SPLINE_CURVE_WITH_KNOTS('',3,(#887,#888,#889,#890,#891,#892,#893,#894,
#895,#896,#897,#898,#899,#900,#901,#902,#903,#904,#905,#906,#907,#908,#909,
#910,#911,#912,#913,#914),.UNSPECIFIED.,.F.,.F.,(4,3,3,3,3,3,3,3,3,4),(0.,1.,
2.,3.,4.,5.,6.,7.,8.,9.),.UNSPECIFIED.);
#292=B_SPLINE_CURVE_WITH_KNOTS('',3,(#917,#918,#919,#920,#921,#922,#923,#924,
#925,#926,#927,#928,#929,#930,#931,#932,#933,#934,#935,#936,#937,#938),
.UNSPECIFIED.,.F.,.F.,(4,3,3,3,3,3,3,4),(0.,1.,2.,3.,4.,5.,6.,7.),
.UNSPECIFIED.);
#293=B_SPLINE_CURVE_WITH_KNOTS('',3,(#941,#942,#943,#944,#945,#946,#947,#948,
#949,#950),.UNSPECIFIED.,.F.,.F.,(4,3,3,4),(0.,1.,2.,3.),.UNSPECIFIED.);
#294=B_SPLINE_CURVE_WITH_KNOTS('',3,(#952,#953,#954,#955,#956,#957,#958,#959,
#960,#961,#962,#963,#964),.UNSPECIFIED.,.F.,.F.,(4,3,3,3,4),(0.,1.,2.,3.,4.),
.UNSPECIFIED.);
#295=B_SPLINE_CURVE_WITH_KNOTS('',3,(#965,#966,#967,#968,#969,#970,#971,#972,
#973,#974,#975,#976,#977),.UNSPECIFIED.,.F.,.F.,(4,3,3,3,4),(0.,1.,2.,3.,4.),
.UNSPECIFIED.);
#296=B_SPLINE_CURVE_WITH_KNOTS('',3,(#979,#980,#981,#982,#983,#984,#985,#986,
#987,#988),.UNSPECIFIED.,.F.,.F.,(4,3,3,4),(0.,1.,2.,3.),.UNSPECIFIED.);
#297=B_SPLINE_CURVE_WITH_KNOTS('',3,(#991,#992,#993,#994,#995,#996,#997,#998,
#999,#1000,#1001,#1002,#1003,#1004,#1005,#1006,#1007,#1008,#1009,#1010,#1011,
#1012),.UNSPECIFIED.,.F.,.F.,(4,3,3,3,3,3,3,4),(0.,1.,2.,3.,4.,5.,6.,7.),
.UNSPECIFIED.);
#298=B_SPLINE_CURVE_WITH_KNOTS('',3,(#1015,#1016,#1017,#1018,#1019,#1020,#1021
,#1022,#1023,#1024,#1025,#1026,#1027,#1028,#1029,#1030,#1031,#1032,#1033,#1034
,#1035,#1036,#1037,#1038,#1039,#1040,#1041,#1042),.UNSPECIFIED.,.F.,.F.,(4,3,3
,3,3,3,3,3,3,4),(0.,1.,2.,3.,4.,5.,6.,7.,8.,9.),.UNSPECIFIED.);
#299=B_SPLINE_CURVE_WITH_KNOTS('',3,(#1050,#1051,#1052,#1053,#1054,#1055,#1056
,#1057,#1058,#1059,#1060,#1061,#1062,#1063,#1064,#1065),.UNSPECIFIED.,.F.,.F.,
(4,3,3,3,3,4),(0.,1.,2.,3.,4.,5.),.UNSPECIFIED.);
#300=B_SPLINE_CURVE_WITH_KNOTS('',3,(#1067,#1068,#1069,#1070,#1071,#1072,#1073
,#1074,#1075,#1076,#1077,#1078,#1079,#1080,#1081,#1082,#1083,#1084,#1085,#1086
,#1087,#1088),.UNSPECIFIED.,.F.,.F.,(4,3,3,3,3,3,3,4),(0.,1.,2.,3.,4.,5.,6.,7.
),.UNSPECIFIED.);
#301=EDGE_CURVE('',#502,#524,#367,.T.);
#302=EDGE_CURVE('',#501,#523,#368,.T.);
#303=EDGE_CURVE('',#500,#522,#369,.T.);
#304=EDGE_CURVE('',#499,#521,#370,.T.);
#305=EDGE_CURVE('',#498,#520,#371,.T.);
#306=EDGE_CURVE('',#497,#519,#372,.T.);
#307=EDGE_CURVE('',#496,#518,#373,.T.);
#308=EDGE_CURVE('',#495,#517,#374,.T.);
#309=EDGE_CURVE('',#494,#516,#375,.T.);
#310=EDGE_CURVE('',#493,#515,#376,.T.);
#311=EDGE_CURVE('',#492,#514,#377,.T.);
#312=EDGE_CURVE('',#491,#513,#378,.T.);
#313=EDGE_CURVE('',#490,#512,#379,.T.);
#314=EDGE_CURVE('',#489,#511,#380,.T.);
#315=EDGE_CURVE('',#488,#510,#381,.T.);
#316=EDGE_CURVE('',#487,#509,#382,.T.);
#317=EDGE_CURVE('',#486,#508,#383,.T.);
#318=EDGE_CURVE('',#485,#507,#384,.T.);
#319=EDGE_CURVE('',#484,#506,#385,.T.);
#320=EDGE_CURVE('',#483,#505,#386,.T.);
#321=EDGE_CURVE('',#482,#504,#387,.T.);
#322=EDGE_CURVE('',#481,#503,#388,.T.);
#323=EDGE_CURVE('',#482,#481,#389,.T.);
#324=EDGE_CURVE('',#483,#482,#390,.T.);
#325=EDGE_CURVE('',#484,#483,#391,.T.);
#326=EDGE_CURVE('',#485,#484,#283,.T.);
#327=EDGE_CURVE('',#486,#485,#392,.T.);
#328=EDGE_CURVE('',#487,#486,#284,.T.);
#329=EDGE_CURVE('',#488,#487,#393,.T.);
#330=EDGE_CURVE('',#489,#488,#394,.T.);
#331=EDGE_CURVE('',#490,#489,#395,.T.);
#332=EDGE_CURVE('',#491,#490,#396,.T.);
#333=EDGE_CURVE('',#492,#491,#397,.T.);
#334=EDGE_CURVE('',#493,#492,#398,.T.);
#335=EDGE_CURVE('',#494,#493,#399,.T.);
#336=EDGE_CURVE('',#495,#494,#285,.T.);
#337=EDGE_CURVE('',#496,#495,#400,.T.);
#338=EDGE_CURVE('',#497,#496,#401,.T.);
#339=EDGE_CURVE('',#498,#497,#286,.T.);
#340=EDGE_CURVE('',#499,#498,#402,.T.);
#341=EDGE_CURVE('',#500,#499,#403,.T.);
#342=EDGE_CURVE('',#501,#500,#287,.T.);
#343=EDGE_CURVE('',#502,#501,#404,.T.);
#344=EDGE_CURVE('',#481,#502,#288,.T.);
#345=EDGE_CURVE('',#504,#503,#405,.T.);
#346=EDGE_CURVE('',#505,#504,#406,.T.);
#347=EDGE_CURVE('',#506,#505,#407,.T.);
#348=EDGE_CURVE('',#507,#506,#289,.T.);
#349=EDGE_CURVE('',#508,#507,#408,.T.);
#350=EDGE_CURVE('',#509,#508,#290,.T.);
#351=EDGE_CURVE('',#510,#509,#409,.T.);
#352=EDGE_CURVE('',#511,#510,#410,.T.);
#353=EDGE_CURVE('',#512,#511,#411,.T.);
#354=EDGE_CURVE('',#513,#512,#412,.T.);
#355=EDGE_CURVE('',#514,#513,#413,.T.);
#356=EDGE_CURVE('',#515,#514,#414,.T.);
#357=EDGE_CURVE('',#516,#515,#415,.T.);
#358=EDGE_CURVE('',#517,#516,#291,.T.);
#359=EDGE_CURVE('',#518,#517,#416,.T.);
#360=EDGE_CURVE('',#519,#518,#417,.T.);
#361=EDGE_CURVE('',#520,#519,#292,.T.);
#362=EDGE_CURVE('',#521,#520,#418,.T.);
#363=EDGE_CURVE('',#522,#521,#419,.T.);
#364=EDGE_CURVE('',#523,#522,#293,.T.);
#365=EDGE_CURVE('',#524,#523,#420,.T.);
#366=EDGE_CURVE('',#503,#524,#294,.T.);
#367=LINE('',#689,#421);
#368=LINE('',#690,#422);
#369=LINE('',#691,#423);
#370=LINE('',#692,#424);
#371=LINE('',#693,#425);
#372=LINE('',#694,#426);
#373=LINE('',#695,#427);
#374=LINE('',#696,#428);
#375=LINE('',#697,#429);
#376=LINE('',#698,#430);
#377=LINE('',#699,#431);
#378=LINE('',#700,#432);
#379=LINE('',#701,#433);
#380=LINE('',#702,#434);
#381=LINE('',#703,#435);
#382=LINE('',#704,#436);
#383=LINE('',#705,#437);
#384=LINE('',#706,#438);
#385=LINE('',#707,#439);
#386=LINE('',#708,#440);
#387=LINE('',#709,#441);
#388=LINE('',#710,#442);
#389=LINE('',#711,#443);
#390=LINE('',#712,#444);
#391=LINE('',#713,#445);
#392=LINE('',#736,#446);
#393=LINE('',#753,#447);
#394=LINE('',#754,#448);
#395=LINE('',#755,#449);
#396=LINE('',#756,#450);
#397=LINE('',#757,#451);
#398=LINE('',#758,#452);
#399=LINE('',#759,#453);
#400=LINE('',#788,#454);
#401=LINE('',#789,#455);
#402=LINE('',#812,#456);
#403=LINE('',#813,#457);
#404=LINE('',#824,#458);
#405=LINE('',#838,#459);
#406=LINE('',#839,#460);
#407=LINE('',#840,#461);
#408=LINE('',#863,#462);
#409=LINE('',#880,#463);
#410=LINE('',#881,#464);
#411=LINE('',#882,#465);
#412=LINE('',#883,#466);
#413=LINE('',#884,#467);
#414=LINE('',#885,#468);
#415=LINE('',#886,#469);
#416=LINE('',#915,#470);
#417=LINE('',#916,#471);
#418=LINE('',#939,#472);
#419=LINE('',#940,#473);
#420=LINE('',#951,#474);
#421=VECTOR('',#548,1.);
#422=VECTOR('',#549,1.);
#423=VECTOR('',#550,1.);
#424=VECTOR('',#551,1.);
#425=VECTOR('',#552,1.);
#426=VECTOR('',#553,1.);
#427=VECTOR('',#554,1.);
#428=VECTOR('',#555,1.);
#429=VECTOR('',#556,1.);
#430=VECTOR('',#557,1.);
#431=VECTOR('',#558,1.);
#432=VECTOR('',#559,1.);
#433=VECTOR('',#560,1.);
#434=VECTOR('',#561,1.);
#435=VECTOR('',#562,1.);
#436=VECTOR('',#563,1.);
#437=VECTOR('',#564,1.);
#438=VECTOR('',#565,1.);
#439=VECTOR('',#566,1.);
#440=VECTOR('',#567,1.);
#441=VECTOR('',#568,1.);
#442=VECTOR('',#569,1.);
#443=VECTOR('',#570,1.);
#444=VECTOR('',#571,1.);
#445=VECTOR('',#572,1.);
#446=VECTOR('',#573,1.);
#447=VECTOR('',#574,1.);
#448=VECTOR('',#575,1.);
#449=VECTOR('',#576,1.);
#450=VECTOR('',#577,1.);
#451=VECTOR('',#578,1.);
#452=VECTOR('',#579,1.);
#453=VECTOR('',#580,1.);
#454=VECTOR('',#581,1.);
#455=VECTOR('',#582,1.);
#456=VECTOR('',#583,1.);
#457=VECTOR('',#584,1.);
#458=VECTOR('',#585,1.);
#459=VECTOR('',#586,1.);
#460=VECTOR('',#587,1.);
#461=VECTOR('',#588,1.);
#462=VECTOR('',#589,1.);
#463=VECTOR('',#590,1.);
#464=VECTOR('',#591,1.);
#465=VECTOR('',#592,1.);
#466=VECTOR('',#593,1.);
#467=VECTOR('',#594,1.);
#468=VECTOR('',#595,1.);
#469=VECTOR('',#596,1.);
#470=VECTOR('',#597,1.);
#471=VECTOR('',#598,1.);
#472=VECTOR('',#599,1.);
#473=VECTOR('',#600,1.);
#474=VECTOR('',#601,1.);
#475=VECTOR('',#602,1.);
#476=VECTOR('',#605,1.);
#477=VECTOR('',#610,1.);
#478=VECTOR('',#615,1.);
#479=VECTOR('',#630,1.);
#480=VECTOR('',#633,1.);
#481=VERTEX_POINT('',#645);
#482=VERTEX_POINT('',#646);
#483=VERTEX_POINT('',#647);
#484=VERTEX_POINT('',#648);
#485=VERTEX_POINT('',#649);
#486=VERTEX_POINT('',#650);
#487=VERTEX_POINT('',#651);
#488=VERTEX_POINT('',#652);
#489=VERTEX_POINT('',#653);
#490=VERTEX_POINT('',#654);
#491=VERTEX_POINT('',#655);
#492=VERTEX_POINT('',#656);
#493=VERTEX_POINT('',#657);
#494=VERTEX_POINT('',#658);
#495=VERTEX_POINT('',#659);
#496=VERTEX_POINT('',#660);
#497=VERTEX_POINT('',#661);
#498=VERTEX_POINT('',#662);
#499=VERTEX_POINT('',#663);
#500=VERTEX_POINT('',#664);
#501=VERTEX_POINT('',#665);
#502=VERTEX_POINT('',#666);
#503=VERTEX_POINT('',#667);
#504=VERTEX_POINT('',#668);
#505=VERTEX_POINT('',#669);
#506=VERTEX_POINT('',#670);
#507=VERTEX_POINT('',#671);
#508=VERTEX_POINT('',#672);
#509=VERTEX_POINT('',#673);
#510=VERTEX_POINT('',#674);
#511=VERTEX_POINT('',#675);
#512=VERTEX_POINT('',#676);
#513=VERTEX_POINT('',#677);
#514=VERTEX_POINT('',#678);
#515=VERTEX_POINT('',#679);
#516=VERTEX_POINT('',#680);
#517=VERTEX_POINT('',#681);
#518=VERTEX_POINT('',#682);
#519=VERTEX_POINT('',#683);
#520=VERTEX_POINT('',#684);
#521=VERTEX_POINT('',#685);
#522=VERTEX_POINT('',#686);
#523=VERTEX_POINT('',#687);
#524=VERTEX_POINT('',#688);
#525=SHAPE_DEFINITION_REPRESENTATION(#1094,#526);
#526=SHAPE_REPRESENTATION('master',(#527),#1096);
#527=AXIS2_PLACEMENT_3D('',#644,#547,#546);
#528=AXIS2_PLACEMENT_3D('',#978,#604,#603);
#529=AXIS2_PLACEMENT_3D('',#989,#607,#606);
#530=AXIS2_PLACEMENT_3D('',#990,#609,#608);
#531=AXIS2_PLACEMENT_3D('',#1013,#612,#611);
#532=AXIS2_PLACEMENT_3D('',#1014,#614,#613);
#533=AXIS2_PLACEMENT_3D('',#1043,#617,#616);
#534=AXIS2_PLACEMENT_3D('',#1044,#619,#618);
#535=AXIS2_PLACEMENT_3D('',#1045,#621,#620);
#536=AXIS2_PLACEMENT_3D('',#1046,#623,#622);
#537=AXIS2_PLACEMENT_3D('',#1047,#625,#624);
#538=AXIS2_PLACEMENT_3D('',#1048,#627,#626);
#539=AXIS2_PLACEMENT_3D('',#1049,#629,#628);
#540=AXIS2_PLACEMENT_3D('',#1066,#632,#631);
#541=AXIS2_PLACEMENT_3D('',#1089,#635,#634);
#542=AXIS2_PLACEMENT_3D('',#1090,#637,#636);
#543=AXIS2_PLACEMENT_3D('',#1091,#639,#638);
#544=AXIS2_PLACEMENT_3D('',#1092,#641,#640);
#545=AXIS2_PLACEMENT_3D('',#1093,#643,#642);
#546=DIRECTION('',(1.,0.,0.));
#547=DIRECTION('',(0.,0.,1.));
#548=DIRECTION('',(-2.50131800434312E-016,-1.,3.46405737915396E-016));
#549=DIRECTION('',(-2.50131800434312E-016,-1.,3.46405737915396E-016));
#550=DIRECTION('',(-2.50131800434312E-016,-1.,3.46405737915396E-016));
#551=DIRECTION('',(-2.50131800434312E-016,-1.,3.46405737915396E-016));
#552=DIRECTION('',(-2.50131800434312E-016,-1.,3.46405737915396E-016));
#553=DIRECTION('',(-2.50131800434312E-016,-1.,3.46405737915396E-016));
#554=DIRECTION('',(-2.50131800434312E-016,-1.,3.46405737915396E-016));
#555=DIRECTION('',(-2.50131800434312E-016,-1.,3.46405737915396E-016));
#556=DIRECTION('',(-2.50131800434312E-016,-1.,3.46405737915396E-016));
#557=DIRECTION('',(-2.50131800434312E-016,-1.,3.46405737915396E-016));
#558=DIRECTION('',(-2.50131800434312E-016,-1.,3.46405737915396E-016));
#559=DIRECTION('',(-2.50131800434312E-016,-1.,3.46405737915396E-016));
#560=DIRECTION('',(-2.50131800434312E-016,-1.,3.46405737915396E-016));
#561=DIRECTION('',(-2.50131800434312E-016,-1.,3.46405737915396E-016));
#562=DIRECTION('',(-2.50131800434312E-016,-1.,3.46405737915396E-016));
#563=DIRECTION('',(-2.50131800434312E-016,-1.,3.46405737915396E-016));
#564=DIRECTION('',(-2.50131800434312E-016,-1.,3.46405737915396E-016));
#565=DIRECTION('',(-2.50131800434312E-016,-1.,3.46405737915396E-016));
#566=DIRECTION('',(-2.50131800434312E-016,-1.,3.46405737915396E-016));
#567=DIRECTION('',(-2.50131800434312E-016,-1.,3.46405737915396E-016));
#568=DIRECTION('',(-2.50131800434312E-016,-1.,3.46405737915396E-016));
#569=DIRECTION('',(-2.50131800434312E-016,-1.,3.46405737915396E-016));
#570=DIRECTION('',(0.998462801298941,0.,0.0554259363680074));
#571=DIRECTION('',(0.0748465572739405,0.,0.997195062595197));
#572=DIRECTION('',(0.999218355165296,0.,0.0395307310931601));
#573=DIRECTION('',(0.0350926065198729,0.,0.999384064795733));
#574=DIRECTION('',(1.,0.,0.));
#575=DIRECTION('',(0.,0.,-1.));
#576=DIRECTION('',(-0.701745021952557,0.,-0.712428188777511));
#577=DIRECTION('',(-0.999748730844037,0.,-0.0224159580597452));
#578=DIRECTION('',(-0.780780351336503,0.,-0.624805604141678));
#579=DIRECTION('',(-1.,0.,0.));
#580=DIRECTION('',(0.183616371524793,0.,0.982997979707013));
#581=DIRECTION('',(0.0544916830739215,0.,0.998514224473428));
#582=DIRECTION('',(0.992288884721708,0.,0.123946638751314));
#583=DIRECTION('',(0.0371999744974441,0.,0.999307841406936));
#584=DIRECTION('',(1.,0.,2.64455254010033E-013));
#585=DIRECTION('',(0.999774197171145,0.,0.0212498157825455));
#586=DIRECTION('',(0.998462801298941,0.,0.0554259363680074));
#587=DIRECTION('',(0.0748465572739405,0.,0.997195062595197));
#588=DIRECTION('',(0.999218355165296,0.,0.0395307310931601));
#589=DIRECTION('',(0.0350926065198729,0.,0.999384064795733));
#590=DIRECTION('',(1.,0.,0.));
#591=DIRECTION('',(0.,0.,-1.));
#592=DIRECTION('',(-0.701745021952557,0.,-0.712428188777511));
#593=DIRECTION('',(-0.999748730844037,0.,-0.0224159580597452));
#594=DIRECTION('',(-0.780780351336503,0.,-0.624805604141678));
#595=DIRECTION('',(-1.,0.,0.));
#596=DIRECTION('',(0.183616371524793,0.,0.982997979707013));
#597=DIRECTION('',(0.0544916830739215,0.,0.998514224473428));
#598=DIRECTION('',(0.992288884721708,0.,0.123946638751314));
#599=DIRECTION('',(0.0371999744974441,0.,0.999307841406936));
#600=DIRECTION('',(1.,0.,2.64455254010033E-013));
#601=DIRECTION('',(0.999774197171145,0.,0.0212498157825455));
#602=DIRECTION('',(-2.50131800434312E-016,-1.,3.46405737915396E-016));
#603=DIRECTION('',(-0.999774197171145,0.,-0.0212498157825455));
#604=DIRECTION('',(0.0212498157825455,-3.51642773200429E-016,
-0.999774197171145));
#605=DIRECTION('',(-2.50131800434312E-016,-1.,3.46405737915396E-016));
#606=DIRECTION('',(-1.,0.,-2.64455254010033E-013));
#607=DIRECTION('',(2.64455254010033E-013,-3.46405737915462E-016,-1.));
#608=DIRECTION('',(-0.0371999744974442,0.,-0.999307841406936));
#609=DIRECTION('',(0.999307841406936,-2.62844954175463E-016,
-0.0371999744974441));
#610=DIRECTION('',(-2.50131800434312E-016,-1.,3.46405737915396E-016));
#611=DIRECTION('',(-0.992288884721708,-6.16297582203915E-033,
-0.123946638751314));
#612=DIRECTION('',(0.123946638751314,-3.74737559245916E-016,-0.992288884721708
));
#613=DIRECTION('',(-0.0544916830739215,3.08148791101958E-033,
-0.998514224473428));
#614=DIRECTION('',(0.998514224473428,-2.68636392412283E-016,
-0.0544916830739215));
#615=DIRECTION('',(-2.50131800434312E-016,-1.,3.46405737915396E-016));
#616=DIRECTION('',(-0.183616371524793,-1.23259516440783E-032,
-0.982997979707013));
#617=DIRECTION('',(0.982997979707013,-3.094848191588E-016,-0.183616371524793)
);
#618=DIRECTION('',(0.,-1.,3.46405737915396E-016));
#619=DIRECTION('',(0.,3.46405737915396E-016,1.));
#620=DIRECTION('',(0.780780351336503,-2.46519032881566E-032,0.624805604141678)
);
#621=DIRECTION('',(-0.624805604141678,4.26750544439969E-016,0.780780351336503)
);
#622=DIRECTION('',(0.999748730844038,0.,0.0224159580597452));
#623=DIRECTION('',(-0.0224159580597452,3.51925640785954E-016,0.999748730844037
));
#624=DIRECTION('',(0.701745021952557,2.46519032881566E-032,0.712428188777511)
);
#625=DIRECTION('',(-0.712428188777511,4.21289447697006E-016,0.701745021952557)
);
#626=DIRECTION('',(-2.50131800434312E-016,-1.,0.));
#627=DIRECTION('',(-1.,2.50131800434312E-016,0.));
#628=DIRECTION('',(0.,1.,-3.46405737915396E-016));
#629=DIRECTION('',(0.,-3.46405737915396E-016,-1.));
#630=DIRECTION('',(-2.50131800434312E-016,-1.,3.46405737915396E-016));
#631=DIRECTION('',(-0.0350926065198729,0.,-0.999384064795733));
#632=DIRECTION('',(0.999384064795733,-2.62134015709609E-016,
-0.0350926065198729));
#633=DIRECTION('',(-2.50131800434312E-016,-1.,3.46405737915396E-016));
#634=DIRECTION('',(-0.999218355165296,0.,-0.0395307310931601));
#635=DIRECTION('',(0.0395307310931601,-3.5602286460046E-016,-0.999218355165296
));
#636=DIRECTION('',(-0.0748465572739405,3.08148791101958E-033,
-0.997195062595197));
#637=DIRECTION('',(0.997195062595197,-2.75357473294049E-016,
-0.0748465572739405));
#638=DIRECTION('',(-0.998462801298941,0.,-0.0554259363680074));
#639=DIRECTION('',(0.0554259363680074,-3.59737032719521E-016,
-0.998462801298941));
#640=DIRECTION('',(0.,0.,-1.));
#641=DIRECTION('',(0.,-1.,0.));
#642=DIRECTION('',(0.,0.,-1.));
#643=DIRECTION('',(0.,-1.,0.));
#644=CARTESIAN_POINT('',(0.,0.,0.));
#645=CARTESIAN_POINT('',(155.695730940575,2168.281361,2194.87729975834));
#646=CARTESIAN_POINT('',(151.067395603755,2168.281361,2194.62037499406));
#647=CARTESIAN_POINT('',(150.681675595979,2168.281361,2189.48135322328));
#648=CARTESIAN_POINT('',(146.10484408953,2168.281361,2189.30028619763));
#649=CARTESIAN_POINT('',(127.480266658885,2168.281361,2172.67537615155));
#650=CARTESIAN_POINT('',(127.152958293058,2168.281361,2163.35413166385));
#651=CARTESIAN_POINT('',(116.679801684984,2168.281361,2144.49613475774));
#652=CARTESIAN_POINT('',(103.080454,2168.281361,2144.49613475774));
#653=CARTESIAN_POINT('',(103.080454,2168.281361,2172.15832383819));
#654=CARTESIAN_POINT('',(144.103102516432,2168.281361,2213.80548949973));
#655=CARTESIAN_POINT('',(216.018093883079,2168.281361,2215.41793808867));
#656=CARTESIAN_POINT('',(258.608307698397,2168.281361,2249.5));
#657=CARTESIAN_POINT('',(288.080451421197,2168.281361,2249.5));
#658=CARTESIAN_POINT('',(286.817067339439,2168.281361,2242.73642009888));
#659=CARTESIAN_POINT('',(257.054253266256,2168.281361,2230.01732805405));
#660=CARTESIAN_POINT('',(256.861444055108,2168.281361,2226.48426155508));
#661=CARTESIAN_POINT('',(252.233108718288,2168.281361,2225.90613696168));
#662=CARTESIAN_POINT('',(241.412123480613,2168.281361,2219.70629144166));
#663=CARTESIAN_POINT('',(240.576481451664,2168.281361,2197.25832895191));
#664=CARTESIAN_POINT('',(233.69823125257,2168.281361,2197.25832895191));
#665=CARTESIAN_POINT('',(229.648425134661,2168.281361,2200.4059644307));
#666=CARTESIAN_POINT('',(159.938346269633,2168.281361,2198.9243035334));
#667=CARTESIAN_POINT('',(155.695730940574,168.281361,2194.87729975834));
#668=CARTESIAN_POINT('',(151.067395603754,168.281361,2194.62037499406));
#669=CARTESIAN_POINT('',(150.681675595978,168.281361,2189.48135322328));
#670=CARTESIAN_POINT('',(146.104844089529,168.281361,2189.30028619763));
#671=CARTESIAN_POINT('',(127.480266658885,168.281361,2172.67537615156));
#672=CARTESIAN_POINT('',(127.152958293057,168.281361,2163.35413166385));
#673=CARTESIAN_POINT('',(116.679801684983,168.281361,2144.49613475774));
#674=CARTESIAN_POINT('',(103.080454,168.281361,2144.49613475774));
#675=CARTESIAN_POINT('',(103.080454,168.281361,2172.15832383819));
#676=CARTESIAN_POINT('',(144.103102516431,168.281361,2213.80548949973));
#677=CARTESIAN_POINT('',(216.018093883079,168.281361,2215.41793808867));
#678=CARTESIAN_POINT('',(258.608307698397,168.281361,2249.5));
#679=CARTESIAN_POINT('',(288.080451421197,168.281361,2249.5));
#680=CARTESIAN_POINT('',(286.817067339439,168.281361,2242.73642009888));
#681=CARTESIAN_POINT('',(257.054253266256,168.281361,2230.01732805405));
#682=CARTESIAN_POINT('',(256.861444055107,168.281361,2226.48426155508));
#683=CARTESIAN_POINT('',(252.233108718287,168.281361,2225.90613696168));
#684=CARTESIAN_POINT('',(241.412123480613,168.281361,2219.70629144166));
#685=CARTESIAN_POINT('',(240.576481451663,168.281361,2197.25832895191));
#686=CARTESIAN_POINT('',(233.69823125257,168.281361,2197.25832895191));
#687=CARTESIAN_POINT('',(229.64842513466,168.281361,2200.4059644307));
#688=CARTESIAN_POINT('',(159.938346269632,168.281361,2198.92430353341));
#689=CARTESIAN_POINT('',(159.938346269633,2168.281361,2198.9243035334));
#690=CARTESIAN_POINT('',(229.648425134661,2168.281361,2200.4059644307));
#691=CARTESIAN_POINT('',(233.69823125257,2168.281361,2197.25832895191));
#692=CARTESIAN_POINT('',(240.576481451664,2168.281361,2197.25832895191));
#693=CARTESIAN_POINT('',(241.412123480613,2168.281361,2219.70629144166));
#694=CARTESIAN_POINT('',(252.233108718288,2168.281361,2225.90613696168));
#695=CARTESIAN_POINT('',(256.861444055108,2168.281361,2226.48426155508));
#696=CARTESIAN_POINT('',(257.054253266256,2168.281361,2230.01732805405));
#697=CARTESIAN_POINT('',(286.817067339439,2168.281361,2242.73642009888));
#698=CARTESIAN_POINT('',(288.080451421197,2168.281361,2249.5));
#699=CARTESIAN_POINT('',(258.608307698397,2168.281361,2249.5));
#700=CARTESIAN_POINT('',(216.018093883079,2168.281361,2215.41793808867));
#701=CARTESIAN_POINT('',(144.103102516432,2168.281361,2213.80548949973));
#702=CARTESIAN_POINT('',(103.080454,2168.281361,2172.15832383819));
#703=CARTESIAN_POINT('',(103.080454,2168.281361,2144.49613475774));
#704=CARTESIAN_POINT('',(116.679801684984,2168.281361,2144.49613475774));
#705=CARTESIAN_POINT('',(127.152958293058,2168.281361,2163.35413166385));
#706=CARTESIAN_POINT('',(127.480266658885,2168.281361,2172.67537615155));
#707=CARTESIAN_POINT('',(146.10484408953,2168.281361,2189.30028619763));
#708=CARTESIAN_POINT('',(150.681675595979,2168.281361,2189.48135322328));
#709=CARTESIAN_POINT('',(151.067395603755,2168.281361,2194.62037499406));
#710=CARTESIAN_POINT('',(155.695730940575,2168.281361,2194.87729975834));
#711=CARTESIAN_POINT('',(151.067395603755,2168.281361,2194.62037499406));
#712=CARTESIAN_POINT('',(150.681675595979,2168.281361,2189.48135322328));
#713=CARTESIAN_POINT('',(146.10484408953,2168.281361,2189.30028619763));
#714=CARTESIAN_POINT('',(127.480266658885,2168.281361,2172.67537615155));
#715=CARTESIAN_POINT('',(128.622846687727,2168.281361,2172.66052133195));
#716=CARTESIAN_POINT('',(129.765426716568,2168.281361,2172.64566651234));
#717=CARTESIAN_POINT('',(130.916801329096,2168.281361,2172.67537615155));
#718=CARTESIAN_POINT('',(132.297318464249,2168.281361,2172.71099849859));
#719=CARTESIAN_POINT('',(133.690479049261,2168.281361,2172.81068851737));
#720=CARTESIAN_POINT('',(135.007952730948,2168.281361,2173.16597258499));
#721=CARTESIAN_POINT('',(136.575698093993,2168.281361,2173.58874759546));
#722=CARTESIAN_POINT('',(138.036269839556,2168.281361,2174.37344702903));
#723=CARTESIAN_POINT('',(139.426310913162,2168.281361,2175.29187583861));
#724=CARTESIAN_POINT('',(140.67421683082,2168.281361,2176.11639301885));
#725=CARTESIAN_POINT('',(141.865278511222,2168.281361,2177.0486894697));
#726=CARTESIAN_POINT('',(142.699191400452,2168.281361,2178.23541056545));
#727=CARTESIAN_POINT('',(143.447957197192,2168.281361,2179.30096091039));
#728=CARTESIAN_POINT('',(143.908784447982,2168.281361,2180.57163210166));
#729=CARTESIAN_POINT('',(144.335631644111,2168.281361,2181.83310311937));
#730=CARTESIAN_POINT('',(144.777176178008,2168.281361,2183.13800950646));
#731=CARTESIAN_POINT('',(145.182360347025,2168.281361,2184.43307124584));
#732=CARTESIAN_POINT('',(145.481109339021,2168.281361,2185.75783071307));
#733=CARTESIAN_POINT('',(145.743942140252,2168.281361,2186.92332499442));
#734=CARTESIAN_POINT('',(145.924393114891,2168.281361,2188.11180559603));
#735=CARTESIAN_POINT('',(146.10484408953,2168.281361,2189.30028619763));
#736=CARTESIAN_POINT('',(127.152958293058,2168.281361,2163.35413166385));
#737=CARTESIAN_POINT('',(116.679801684984,2168.281361,2144.49613475774));
#738=CARTESIAN_POINT('',(116.861645060105,2168.281361,2146.56679949719));
#739=CARTESIAN_POINT('',(117.043488435227,2168.281361,2148.63746423663));
#740=CARTESIAN_POINT('',(117.170662648253,2168.281361,2150.76222966199));
#741=CARTESIAN_POINT('',(117.274564244588,2168.281361,2152.49816743018));
#742=CARTESIAN_POINT('',(117.341974590941,2168.281361,2154.27021699482));
#743=CARTESIAN_POINT('',(117.988933562815,2168.281361,2155.83171151622));
#744=CARTESIAN_POINT('',(118.406195159097,2168.281361,2156.83881045898));
#745=CARTESIAN_POINT('',(119.06453234112,2168.281361,2157.75832455011));
#746=CARTESIAN_POINT('',(119.789027989381,2168.281361,2158.61172872317));
#747=CARTESIAN_POINT('',(120.573869741058,2168.281361,2159.5362162997));
#748=CARTESIAN_POINT('',(121.436350158394,2168.281361,2160.38312218308));
#749=CARTESIAN_POINT('',(122.40729174503,2168.281361,2161.06466701657));
#750=CARTESIAN_POINT('',(123.833226692956,2168.281361,2162.06559087236));
#751=CARTESIAN_POINT('',(125.493092493007,2168.281361,2162.70986126811));
#752=CARTESIAN_POINT('',(127.152958293058,2168.281361,2163.35413166385));
#753=CARTESIAN_POINT('',(103.080454,2168.281361,2144.49613475774));
#754=CARTESIAN_POINT('',(103.080454,2168.281361,2172.15832383819));
#755=CARTESIAN_POINT('',(144.103102516432,2168.281361,2213.80548949973));
#756=CARTESIAN_POINT('',(216.018093883079,2168.281361,2215.41793808867));
#757=CARTESIAN_POINT('',(258.608307698397,2168.281361,2249.5));
#758=CARTESIAN_POINT('',(288.080451421197,2168.281361,2249.5));
#759=CARTESIAN_POINT('',(286.817067339439,2168.281361,2242.73642009888));
#760=CARTESIAN_POINT('',(257.054253266256,2168.281361,2230.01732805405));
#761=CARTESIAN_POINT('',(257.995776469485,2168.281361,2229.93728786177));
#762=CARTESIAN_POINT('',(258.937299672714,2168.281361,2229.85724766948));
#763=CARTESIAN_POINT('',(259.882697347455,2168.281361,2229.82463448084));
#764=CARTESIAN_POINT('',(261.127676190898,2168.281361,2229.78168670239));
#765=CARTESIAN_POINT('',(262.379374076328,2168.281361,2229.82098601952));
#766=CARTESIAN_POINT('',(263.611087056449,2168.281361,2230.01732805405));
#767=CARTESIAN_POINT('',(264.965990432629,2168.281361,2230.23330733637));
#768=CARTESIAN_POINT('',(266.296711391663,2168.281361,2230.63931366375));
#769=CARTESIAN_POINT('',(267.532285976607,2168.281361,2231.23785230568));
#770=CARTESIAN_POINT('',(268.594214165426,2168.281361,2231.75227293532));
#771=CARTESIAN_POINT('',(269.585860273916,2168.281361,2232.40891203337));
#772=CARTESIAN_POINT('',(270.489337255543,2168.281361,2233.1650074066));
#773=CARTESIAN_POINT('',(271.373288090964,2168.281361,2233.90476187785));
#774=CARTESIAN_POINT('',(272.172839678466,2168.281361,2234.7397201367));
#775=CARTESIAN_POINT('',(272.93206132898,2168.281361,2235.6060120361));
#776=CARTESIAN_POINT('',(273.682932008116,2168.281361,2236.4627752572));
#777=CARTESIAN_POINT('',(274.39435507991,2168.281361,2237.35018660824));
#778=CARTESIAN_POINT('',(275.181976191239,2168.281361,2238.17552292149));
#779=CARTESIAN_POINT('',(275.939091656293,2168.281361,2238.96889282694));
#780=CARTESIAN_POINT('',(276.766616957789,2168.281361,2239.7049030774));
#781=CARTESIAN_POINT('',(277.688902278072,2168.281361,2240.29537159562));
#782=CARTESIAN_POINT('',(278.715602316105,2168.281361,2240.95268884526));
#783=CARTESIAN_POINT('',(279.85973306829,2168.281361,2241.42964448486));
#784=CARTESIAN_POINT('',(281.031673564784,2168.281361,2241.77286448529));
#785=CARTESIAN_POINT('',(282.912391606479,2168.281361,2242.32366040797));
#786=CARTESIAN_POINT('',(284.864729472959,2168.281361,2242.53004025342));
#787=CARTESIAN_POINT('',(286.817067339439,2168.281361,2242.73642009888));
#788=CARTESIAN_POINT('',(256.861444055108,2168.281361,2226.48426155508));
#789=CARTESIAN_POINT('',(252.233108718288,2168.281361,2225.90613696168));
#790=CARTESIAN_POINT('',(241.412123480613,2168.281361,2219.70629144166));
#791=CARTESIAN_POINT('',(241.89408420689,2168.281361,2219.26841348392));
#792=CARTESIAN_POINT('',(242.376044933167,2168.281361,2218.83053552619));
#793=CARTESIAN_POINT('',(242.912134445758,2168.281361,2218.45452906978));
#794=CARTESIAN_POINT('',(243.480077266766,2168.281361,2218.0561811026));
#795=CARTESIAN_POINT('',(244.108772411691,2168.281361,2217.72727562149));
#796=CARTESIAN_POINT('',(244.776329300269,2168.281361,2217.55520464727));
#797=CARTESIAN_POINT('',(245.668073998042,2168.281361,2217.32534651603));
#798=CARTESIAN_POINT('',(246.62916555413,2168.281361,2217.37535180073));
#799=CARTESIAN_POINT('',(247.540469782592,2168.281361,2217.61943583834));
#800=CARTESIAN_POINT('',(248.594134058958,2168.281361,2217.90164964009));
#801=CARTESIAN_POINT('',(249.581240903378,2168.281361,2218.44331467182));
#802=CARTESIAN_POINT('',(250.3046102649,2168.281361,2219.22539111015));
#803=CARTESIAN_POINT('',(250.845662205005,2168.281361,2219.81035364352));
#804=CARTESIAN_POINT('',(251.239167426975,2168.281361,2220.52981322924));
#805=CARTESIAN_POINT('',(251.525972301611,2168.281361,2221.28100859322));
#806=CARTESIAN_POINT('',(251.896232424311,2168.281361,2222.25078878957));
#807=CARTESIAN_POINT('',(252.088661879924,2168.281361,2223.27346098447));
#808=CARTESIAN_POINT('',(252.168805119412,2168.281361,2224.30018168987));
#809=CARTESIAN_POINT('',(252.210533616033,2168.281361,2224.83476840935));
#810=CARTESIAN_POINT('',(252.221821167161,2168.281361,2225.37045268551));
#811=CARTESIAN_POINT('',(252.233108718288,2168.281361,2225.90613696168));
#812=CARTESIAN_POINT('',(240.576481451664,2168.281361,2197.25832895191));
#813=CARTESIAN_POINT('',(233.69823125257,2168.281361,2197.25832895191));
#814=CARTESIAN_POINT('',(229.648425134661,2168.281361,2200.4059644307));
#815=CARTESIAN_POINT('',(230.31530829926,2168.281361,2200.24631425319));
#816=CARTESIAN_POINT('',(230.982191463858,2168.281361,2200.08666407569));
#817=CARTESIAN_POINT('',(231.576923588034,2168.281361,2199.76360864623));
#818=CARTESIAN_POINT('',(232.070480866643,2168.281361,2199.49551087225));
#819=CARTESIAN_POINT('',(232.514347466939,2168.281361,2199.11487531971));
#820=CARTESIAN_POINT('',(232.862589223621,2168.281361,2198.67154677674));
#821=CARTESIAN_POINT('',(233.201524752047,2168.281361,2198.24006551094));
#822=CARTESIAN_POINT('',(233.449878002309,2168.281361,2197.74919723142));
#823=CARTESIAN_POINT('',(233.69823125257,2168.281361,2197.25832895191));
#824=CARTESIAN_POINT('',(159.938346269633,2168.281361,2198.9243035334));
#825=CARTESIAN_POINT('',(155.695730940575,2168.281361,2194.87729975834));
#826=CARTESIAN_POINT('',(155.811966425861,2168.281361,2195.46382251263));
#827=CARTESIAN_POINT('',(155.928201911148,2168.281361,2196.05034526691));
#828=CARTESIAN_POINT('',(156.145652961748,2168.281361,2196.6117174123));
#829=CARTESIAN_POINT('',(156.370568242028,2168.281361,2197.19235923064));
#830=CARTESIAN_POINT('',(156.703767003044,2168.281361,2197.74609416499));
#831=CARTESIAN_POINT('',(157.17420578731,2168.281361,2198.15344149303));
#832=CARTESIAN_POINT('',(157.524492116522,2168.281361,2198.45675024441));
#833=CARTESIAN_POINT('',(157.950867278426,2168.281361,2198.67889854549));
#834=CARTESIAN_POINT('',(158.395567824021,2168.281361,2198.7957972775));
#835=CARTESIAN_POINT('',(158.89445192711,2168.281361,2198.92693927778));
#836=CARTESIAN_POINT('',(159.416399098371,2168.281361,2198.92562140559));
#837=CARTESIAN_POINT('',(159.938346269633,2168.281361,2198.9243035334));
#838=CARTESIAN_POINT('',(151.067395603754,168.281361,2194.62037499406));
#839=CARTESIAN_POINT('',(150.681675595978,168.281361,2189.48135322328));
#840=CARTESIAN_POINT('',(146.104844089529,168.281361,2189.30028619763));
#841=CARTESIAN_POINT('',(127.480266658885,168.281361,2172.67537615156));
#842=CARTESIAN_POINT('',(128.622846687726,168.281361,2172.66052133195));
#843=CARTESIAN_POINT('',(129.765426716568,168.281361,2172.64566651234));
#844=CARTESIAN_POINT('',(130.916801329095,168.281361,2172.67537615156));
#845=CARTESIAN_POINT('',(132.297318464248,168.281361,2172.71099849859));
#846=CARTESIAN_POINT('',(133.690479049261,168.281361,2172.81068851737));
#847=CARTESIAN_POINT('',(135.007952730947,168.281361,2173.16597258499));
#848=CARTESIAN_POINT('',(136.575698093993,168.281361,2173.58874759546));
#849=CARTESIAN_POINT('',(138.036269839555,168.281361,2174.37344702903));
#850=CARTESIAN_POINT('',(139.426310913162,168.281361,2175.29187583861));
#851=CARTESIAN_POINT('',(140.674216830819,168.281361,2176.11639301885));
#852=CARTESIAN_POINT('',(141.865278511222,168.281361,2177.0486894697));
#853=CARTESIAN_POINT('',(142.699191400451,168.281361,2178.23541056545));
#854=CARTESIAN_POINT('',(143.447957197192,168.281361,2179.30096091039));
#855=CARTESIAN_POINT('',(143.908784447981,168.281361,2180.57163210166));
#856=CARTESIAN_POINT('',(144.33563164411,168.281361,2181.83310311937));
#857=CARTESIAN_POINT('',(144.777176178007,168.281361,2183.13800950646));
#858=CARTESIAN_POINT('',(145.182360347025,168.281361,2184.43307124584));
#859=CARTESIAN_POINT('',(145.481109339021,168.281361,2185.75783071307));
#860=CARTESIAN_POINT('',(145.743942140252,168.281361,2186.92332499442));
#861=CARTESIAN_POINT('',(145.92439311489,168.281361,2188.11180559603));
#862=CARTESIAN_POINT('',(146.104844089529,168.281361,2189.30028619763));
#863=CARTESIAN_POINT('',(127.152958293057,168.281361,2163.35413166385));
#864=CARTESIAN_POINT('',(116.679801684983,168.281361,2144.49613475774));
#865=CARTESIAN_POINT('',(116.861645060105,168.281361,2146.56679949719));
#866=CARTESIAN_POINT('',(117.043488435226,168.281361,2148.63746423663));
#867=CARTESIAN_POINT('',(117.170662648253,168.281361,2150.76222966199));
#868=CARTESIAN_POINT('',(117.274564244587,168.281361,2152.49816743018));
#869=CARTESIAN_POINT('',(117.341974590941,168.281361,2154.27021699482));
#870=CARTESIAN_POINT('',(117.988933562815,168.281361,2155.83171151622));
#871=CARTESIAN_POINT('',(118.406195159096,168.281361,2156.83881045898));
#872=CARTESIAN_POINT('',(119.06453234112,168.281361,2157.75832455011));
#873=CARTESIAN_POINT('',(119.789027989381,168.281361,2158.61172872317));
#874=CARTESIAN_POINT('',(120.573869741057,168.281361,2159.5362162997));
#875=CARTESIAN_POINT('',(121.436350158394,168.281361,2160.38312218309));
#876=CARTESIAN_POINT('',(122.407291745029,168.281361,2161.06466701657));
#877=CARTESIAN_POINT('',(123.833226692956,168.281361,2162.06559087237));
#878=CARTESIAN_POINT('',(125.493092493006,168.281361,2162.70986126811));
#879=CARTESIAN_POINT('',(127.152958293057,168.281361,2163.35413166385));
#880=CARTESIAN_POINT('',(103.080454,168.281361,2144.49613475774));
#881=CARTESIAN_POINT('',(103.080454,168.281361,2172.15832383819));
#882=CARTESIAN_POINT('',(144.103102516431,168.281361,2213.80548949973));
#883=CARTESIAN_POINT('',(216.018093883079,168.281361,2215.41793808867));
#884=CARTESIAN_POINT('',(258.608307698397,168.281361,2249.5));
#885=CARTESIAN_POINT('',(288.080451421197,168.281361,2249.5));
#886=CARTESIAN_POINT('',(286.817067339439,168.281361,2242.73642009888));
#887=CARTESIAN_POINT('',(257.054253266256,168.281361,2230.01732805405));
#888=CARTESIAN_POINT('',(257.995776469485,168.281361,2229.93728786177));
#889=CARTESIAN_POINT('',(258.937299672714,168.281361,2229.85724766948));
#890=CARTESIAN_POINT('',(259.882697347454,168.281361,2229.82463448084));
#891=CARTESIAN_POINT('',(261.127676190898,168.281361,2229.78168670239));
#892=CARTESIAN_POINT('',(262.379374076328,168.281361,2229.82098601952));
#893=CARTESIAN_POINT('',(263.611087056449,168.281361,2230.01732805405));
#894=CARTESIAN_POINT('',(264.965990432629,168.281361,2230.23330733637));
#895=CARTESIAN_POINT('',(266.296711391663,168.281361,2230.63931366375));
#896=CARTESIAN_POINT('',(267.532285976606,168.281361,2231.23785230568));
#897=CARTESIAN_POINT('',(268.594214165425,168.281361,2231.75227293533));
#898=CARTESIAN_POINT('',(269.585860273916,168.281361,2232.40891203337));
#899=CARTESIAN_POINT('',(270.489337255542,168.281361,2233.1650074066));
#900=CARTESIAN_POINT('',(271.373288090963,168.281361,2233.90476187785));
#901=CARTESIAN_POINT('',(272.172839678465,168.281361,2234.7397201367));
#902=CARTESIAN_POINT('',(272.932061328979,168.281361,2235.6060120361));
#903=CARTESIAN_POINT('',(273.682932008115,168.281361,2236.46277525721));
#904=CARTESIAN_POINT('',(274.39435507991,168.281361,2237.35018660825));
#905=CARTESIAN_POINT('',(275.181976191238,168.281361,2238.17552292149));
#906=CARTESIAN_POINT('',(275.939091656293,168.281361,2238.96889282694));
#907=CARTESIAN_POINT('',(276.766616957789,168.281361,2239.7049030774));
#908=CARTESIAN_POINT('',(277.688902278071,168.281361,2240.29537159562));
#909=CARTESIAN_POINT('',(278.715602316105,168.281361,2240.95268884526));
#910=CARTESIAN_POINT('',(279.859733068289,168.281361,2241.42964448486));
#911=CARTESIAN_POINT('',(281.031673564784,168.281361,2241.77286448529));
#912=CARTESIAN_POINT('',(282.912391606479,168.281361,2242.32366040797));
#913=CARTESIAN_POINT('',(284.864729472959,168.281361,2242.53004025343));
#914=CARTESIAN_POINT('',(286.817067339439,168.281361,2242.73642009888));
#915=CARTESIAN_POINT('',(256.861444055107,168.281361,2226.48426155508));
#916=CARTESIAN_POINT('',(252.233108718287,168.281361,2225.90613696168));
#917=CARTESIAN_POINT('',(241.412123480612,168.281361,2219.70629144166));
#918=CARTESIAN_POINT('',(241.894084206889,168.281361,2219.26841348392));
#919=CARTESIAN_POINT('',(242.376044933166,168.281361,2218.83053552619));
#920=CARTESIAN_POINT('',(242.912134445757,168.281361,2218.45452906978));
#921=CARTESIAN_POINT('',(243.480077266766,168.281361,2218.0561811026));
#922=CARTESIAN_POINT('',(244.10877241169,168.281361,2217.72727562149));
#923=CARTESIAN_POINT('',(244.776329300269,168.281361,2217.55520464727));
#924=CARTESIAN_POINT('',(245.668073998042,168.281361,2217.32534651603));
#925=CARTESIAN_POINT('',(246.629165554129,168.281361,2217.37535180073));
#926=CARTESIAN_POINT('',(247.540469782592,168.281361,2217.61943583834));
#927=CARTESIAN_POINT('',(248.594134058958,168.281361,2217.90164964009));
#928=CARTESIAN_POINT('',(249.581240903378,168.281361,2218.44331467182));
#929=CARTESIAN_POINT('',(250.3046102649,168.281361,2219.22539111015));
#930=CARTESIAN_POINT('',(250.845662205005,168.281361,2219.81035364352));
#931=CARTESIAN_POINT('',(251.239167426975,168.281361,2220.52981322924));
#932=CARTESIAN_POINT('',(251.52597230161,168.281361,2221.28100859322));
#933=CARTESIAN_POINT('',(251.89623242431,168.281361,2222.25078878957));
#934=CARTESIAN_POINT('',(252.088661879923,168.281361,2223.27346098447));
#935=CARTESIAN_POINT('',(252.168805119411,168.281361,2224.30018168987));
#936=CARTESIAN_POINT('',(252.210533616033,168.281361,2224.83476840935));
#937=CARTESIAN_POINT('',(252.22182116716,168.281361,2225.37045268552));
#938=CARTESIAN_POINT('',(252.233108718287,168.281361,2225.90613696168));
#939=CARTESIAN_POINT('',(240.576481451663,168.281361,2197.25832895191));
#940=CARTESIAN_POINT('',(233.69823125257,168.281361,2197.25832895191));
#941=CARTESIAN_POINT('',(229.64842513466,168.281361,2200.4059644307));
#942=CARTESIAN_POINT('',(230.315308299259,168.281361,2200.24631425319));
#943=CARTESIAN_POINT('',(230.982191463858,168.281361,2200.08666407569));
#944=CARTESIAN_POINT('',(231.576923588033,168.281361,2199.76360864623));
#945=CARTESIAN_POINT('',(232.070480866643,168.281361,2199.49551087225));
#946=CARTESIAN_POINT('',(232.514347466938,168.281361,2199.11487531971));
#947=CARTESIAN_POINT('',(232.86258922362,168.281361,2198.67154677674));
#948=CARTESIAN_POINT('',(233.201524752046,168.281361,2198.24006551094));
#949=CARTESIAN_POINT('',(233.449878002308,168.281361,2197.74919723142));
#950=CARTESIAN_POINT('',(233.69823125257,168.281361,2197.25832895191));
#951=CARTESIAN_POINT('',(159.938346269632,168.281361,2198.92430353341));
#952=CARTESIAN_POINT('',(155.695730940574,168.281361,2194.87729975834));
#953=CARTESIAN_POINT('',(155.811966425861,168.281361,2195.46382251263));
#954=CARTESIAN_POINT('',(155.928201911148,168.281361,2196.05034526691));
#955=CARTESIAN_POINT('',(156.145652961747,168.281361,2196.6117174123));
#956=CARTESIAN_POINT('',(156.370568242028,168.281361,2197.19235923064));
#957=CARTESIAN_POINT('',(156.703767003043,168.281361,2197.74609416499));
#958=CARTESIAN_POINT('',(157.17420578731,168.281361,2198.15344149303));
#959=CARTESIAN_POINT('',(157.524492116521,168.281361,2198.45675024441));
#960=CARTESIAN_POINT('',(157.950867278426,168.281361,2198.67889854549));
#961=CARTESIAN_POINT('',(158.395567824021,168.281361,2198.7957972775));
#962=CARTESIAN_POINT('',(158.894451927109,168.281361,2198.92693927778));
#963=CARTESIAN_POINT('',(159.416399098371,168.281361,2198.92562140559));
#964=CARTESIAN_POINT('',(159.938346269632,168.281361,2198.92430353341));
#965=CARTESIAN_POINT('',(155.695730940575,2168.281361,2194.87729975834));
#966=CARTESIAN_POINT('',(155.811966425861,2168.281361,2195.46382251263));
#967=CARTESIAN_POINT('',(155.928201911148,2168.281361,2196.05034526691));
#968=CARTESIAN_POINT('',(156.145652961748,2168.281361,2196.6117174123));
#969=CARTESIAN_POINT('',(156.370568242028,2168.281361,2197.19235923064));
#970=CARTESIAN_POINT('',(156.703767003044,2168.281361,2197.74609416499));
#971=CARTESIAN_POINT('',(157.17420578731,2168.281361,2198.15344149303));
#972=CARTESIAN_POINT('',(157.524492116522,2168.281361,2198.45675024441));
#973=CARTESIAN_POINT('',(157.950867278426,2168.281361,2198.67889854549));
#974=CARTESIAN_POINT('',(158.395567824021,2168.281361,2198.7957972775));
#975=CARTESIAN_POINT('',(158.89445192711,2168.281361,2198.92693927778));
#976=CARTESIAN_POINT('',(159.416399098371,2168.281361,2198.92562140559));
#977=CARTESIAN_POINT('',(159.938346269633,2168.281361,2198.9243035334));
#978=CARTESIAN_POINT('',(159.938346269633,2168.281361,2198.9243035334));
#979=CARTESIAN_POINT('',(229.648425134661,2168.281361,2200.4059644307));
#980=CARTESIAN_POINT('',(230.31530829926,2168.281361,2200.24631425319));
#981=CARTESIAN_POINT('',(230.982191463858,2168.281361,2200.08666407569));
#982=CARTESIAN_POINT('',(231.576923588034,2168.281361,2199.76360864623));
#983=CARTESIAN_POINT('',(232.070480866643,2168.281361,2199.49551087225));
#984=CARTESIAN_POINT('',(232.514347466939,2168.281361,2199.11487531971));
#985=CARTESIAN_POINT('',(232.862589223621,2168.281361,2198.67154677674));
#986=CARTESIAN_POINT('',(233.201524752047,2168.281361,2198.24006551094));
#987=CARTESIAN_POINT('',(233.449878002309,2168.281361,2197.74919723142));
#988=CARTESIAN_POINT('',(233.69823125257,2168.281361,2197.25832895191));
#989=CARTESIAN_POINT('',(233.69823125257,2168.281361,2197.25832895191));
#990=CARTESIAN_POINT('',(240.576481451664,2168.281361,2197.25832895191));
#991=CARTESIAN_POINT('',(241.412123480613,2168.281361,2219.70629144166));
#992=CARTESIAN_POINT('',(241.89408420689,2168.281361,2219.26841348392));
#993=CARTESIAN_POINT('',(242.376044933167,2168.281361,2218.83053552619));
#994=CARTESIAN_POINT('',(242.912134445758,2168.281361,2218.45452906978));
#995=CARTESIAN_POINT('',(243.480077266766,2168.281361,2218.0561811026));
#996=CARTESIAN_POINT('',(244.108772411691,2168.281361,2217.72727562149));
#997=CARTESIAN_POINT('',(244.776329300269,2168.281361,2217.55520464727));
#998=CARTESIAN_POINT('',(245.668073998042,2168.281361,2217.32534651603));
#999=CARTESIAN_POINT('',(246.62916555413,2168.281361,2217.37535180073));
#1000=CARTESIAN_POINT('',(247.540469782592,2168.281361,2217.61943583834));
#1001=CARTESIAN_POINT('',(248.594134058958,2168.281361,2217.90164964009));
#1002=CARTESIAN_POINT('',(249.581240903378,2168.281361,2218.44331467182));
#1003=CARTESIAN_POINT('',(250.3046102649,2168.281361,2219.22539111015));
#1004=CARTESIAN_POINT('',(250.845662205005,2168.281361,2219.81035364352));
#1005=CARTESIAN_POINT('',(251.239167426975,2168.281361,2220.52981322924));
#1006=CARTESIAN_POINT('',(251.525972301611,2168.281361,2221.28100859322));
#1007=CARTESIAN_POINT('',(251.896232424311,2168.281361,2222.25078878957));
#1008=CARTESIAN_POINT('',(252.088661879924,2168.281361,2223.27346098447));
#1009=CARTESIAN_POINT('',(252.168805119412,2168.281361,2224.30018168987));
#1010=CARTESIAN_POINT('',(252.210533616033,2168.281361,2224.83476840935));
#1011=CARTESIAN_POINT('',(252.221821167161,2168.281361,2225.37045268551));
#1012=CARTESIAN_POINT('',(252.233108718288,2168.281361,2225.90613696168));
#1013=CARTESIAN_POINT('',(252.233108718288,2168.281361,2225.90613696168));
#1014=CARTESIAN_POINT('',(256.861444055108,2168.281361,2226.48426155508));
#1015=CARTESIAN_POINT('',(257.054253266256,2168.281361,2230.01732805405));
#1016=CARTESIAN_POINT('',(257.995776469485,2168.281361,2229.93728786177));
#1017=CARTESIAN_POINT('',(258.937299672714,2168.281361,2229.85724766948));
#1018=CARTESIAN_POINT('',(259.882697347455,2168.281361,2229.82463448084));
#1019=CARTESIAN_POINT('',(261.127676190898,2168.281361,2229.78168670239));
#1020=CARTESIAN_POINT('',(262.379374076328,2168.281361,2229.82098601952));
#1021=CARTESIAN_POINT('',(263.611087056449,2168.281361,2230.01732805405));
#1022=CARTESIAN_POINT('',(264.965990432629,2168.281361,2230.23330733637));
#1023=CARTESIAN_POINT('',(266.296711391663,2168.281361,2230.63931366375));
#1024=CARTESIAN_POINT('',(267.532285976607,2168.281361,2231.23785230568));
#1025=CARTESIAN_POINT('',(268.594214165426,2168.281361,2231.75227293532));
#1026=CARTESIAN_POINT('',(269.585860273916,2168.281361,2232.40891203337));
#1027=CARTESIAN_POINT('',(270.489337255543,2168.281361,2233.1650074066));
#1028=CARTESIAN_POINT('',(271.373288090964,2168.281361,2233.90476187785));
#1029=CARTESIAN_POINT('',(272.172839678466,2168.281361,2234.7397201367));
#1030=CARTESIAN_POINT('',(272.93206132898,2168.281361,2235.6060120361));
#1031=CARTESIAN_POINT('',(273.682932008116,2168.281361,2236.4627752572));
#1032=CARTESIAN_POINT('',(274.39435507991,2168.281361,2237.35018660824));
#1033=CARTESIAN_POINT('',(275.181976191239,2168.281361,2238.17552292149));
#1034=CARTESIAN_POINT('',(275.939091656293,2168.281361,2238.96889282694));
#1035=CARTESIAN_POINT('',(276.766616957789,2168.281361,2239.7049030774));
#1036=CARTESIAN_POINT('',(277.688902278072,2168.281361,2240.29537159562));
#1037=CARTESIAN_POINT('',(278.715602316105,2168.281361,2240.95268884526));
#1038=CARTESIAN_POINT('',(279.85973306829,2168.281361,2241.42964448486));
#1039=CARTESIAN_POINT('',(281.031673564784,2168.281361,2241.77286448529));
#1040=CARTESIAN_POINT('',(282.912391606479,2168.281361,2242.32366040797));
#1041=CARTESIAN_POINT('',(284.864729472959,2168.281361,2242.53004025342));
#1042=CARTESIAN_POINT('',(286.817067339439,2168.281361,2242.73642009888));
#1043=CARTESIAN_POINT('',(286.817067339439,2168.281361,2242.73642009888));
#1044=CARTESIAN_POINT('',(288.080451421197,2168.281361,2249.5));
#1045=CARTESIAN_POINT('',(258.608307698397,2168.281361,2249.5));
#1046=CARTESIAN_POINT('',(216.018093883079,2168.281361,2215.41793808867));
#1047=CARTESIAN_POINT('',(144.103102516432,2168.281361,2213.80548949973));
#1048=CARTESIAN_POINT('',(103.080454,2168.281361,2172.15832383819));
#1049=CARTESIAN_POINT('',(103.080454,2168.281361,2144.49613475774));
#1050=CARTESIAN_POINT('',(116.679801684984,2168.281361,2144.49613475774));
#1051=CARTESIAN_POINT('',(116.861645060105,2168.281361,2146.56679949719));
#1052=CARTESIAN_POINT('',(117.043488435227,2168.281361,2148.63746423663));
#1053=CARTESIAN_POINT('',(117.170662648253,2168.281361,2150.76222966199));
#1054=CARTESIAN_POINT('',(117.274564244588,2168.281361,2152.49816743018));
#1055=CARTESIAN_POINT('',(117.341974590941,2168.281361,2154.27021699482));
#1056=CARTESIAN_POINT('',(117.988933562815,2168.281361,2155.83171151622));
#1057=CARTESIAN_POINT('',(118.406195159097,2168.281361,2156.83881045898));
#1058=CARTESIAN_POINT('',(119.06453234112,2168.281361,2157.75832455011));
#1059=CARTESIAN_POINT('',(119.789027989381,2168.281361,2158.61172872317));
#1060=CARTESIAN_POINT('',(120.573869741058,2168.281361,2159.5362162997));
#1061=CARTESIAN_POINT('',(121.436350158394,2168.281361,2160.38312218308));
#1062=CARTESIAN_POINT('',(122.40729174503,2168.281361,2161.06466701657));
#1063=CARTESIAN_POINT('',(123.833226692956,2168.281361,2162.06559087236));
#1064=CARTESIAN_POINT('',(125.493092493007,2168.281361,2162.70986126811));
#1065=CARTESIAN_POINT('',(127.152958293058,2168.281361,2163.35413166385));
#1066=CARTESIAN_POINT('',(127.152958293058,2168.281361,2163.35413166385));
#1067=CARTESIAN_POINT('',(127.480266658885,2168.281361,2172.67537615155));
#1068=CARTESIAN_POINT('',(128.622846687727,2168.281361,2172.66052133195));
#1069=CARTESIAN_POINT('',(129.765426716568,2168.281361,2172.64566651234));
#1070=CARTESIAN_POINT('',(130.916801329096,2168.281361,2172.67537615155));
#1071=CARTESIAN_POINT('',(132.297318464249,2168.281361,2172.71099849859));
#1072=CARTESIAN_POINT('',(133.690479049261,2168.281361,2172.81068851737));
#1073=CARTESIAN_POINT('',(135.007952730948,2168.281361,2173.16597258499));
#1074=CARTESIAN_POINT('',(136.575698093993,2168.281361,2173.58874759546));
#1075=CARTESIAN_POINT('',(138.036269839556,2168.281361,2174.37344702903));
#1076=CARTESIAN_POINT('',(139.426310913162,2168.281361,2175.29187583861));
#1077=CARTESIAN_POINT('',(140.67421683082,2168.281361,2176.11639301885));
#1078=CARTESIAN_POINT('',(141.865278511222,2168.281361,2177.0486894697));
#1079=CARTESIAN_POINT('',(142.699191400452,2168.281361,2178.23541056545));
#1080=CARTESIAN_POINT('',(143.447957197192,2168.281361,2179.30096091039));
#1081=CARTESIAN_POINT('',(143.908784447982,2168.281361,2180.57163210166));
#1082=CARTESIAN_POINT('',(144.335631644111,2168.281361,2181.83310311937));
#1083=CARTESIAN_POINT('',(144.777176178008,2168.281361,2183.13800950646));
#1084=CARTESIAN_POINT('',(145.182360347025,2168.281361,2184.43307124584));
#1085=CARTESIAN_POINT('',(145.481109339021,2168.281361,2185.75783071307));
#1086=CARTESIAN_POINT('',(145.743942140252,2168.281361,2186.92332499442));
#1087=CARTESIAN_POINT('',(145.924393114891,2168.281361,2188.11180559603));
#1088=CARTESIAN_POINT('',(146.10484408953,2168.281361,2189.30028619763));
#1089=CARTESIAN_POINT('',(146.10484408953,2168.281361,2189.30028619763));
#1090=CARTESIAN_POINT('',(150.681675595979,2168.281361,2189.48135322328));
#1091=CARTESIAN_POINT('',(151.067395603755,2168.281361,2194.62037499406));
#1092=CARTESIAN_POINT('',(157.17420578731,2168.281361,2198.15344149303));
#1093=CARTESIAN_POINT('',(157.17420578731,168.281361,2198.15344149303));
#1094=PRODUCT_DEFINITION_SHAPE('','',#1095);
#1095=PRODUCT_DEFINITION('','',#1107,#1112);
#1096=(
GEOMETRIC_REPRESENTATION_CONTEXT(3)
GLOBAL_UNCERTAINTY_ASSIGNED_CONTEXT((#1097))
GLOBAL_UNIT_ASSIGNED_CONTEXT((#1099,#1098,#1102))
REPRESENTATION_CONTEXT('','')
);
#1097=UNCERTAINTY_MEASURE_WITH_UNIT(LENGTH_MEASURE(0.001),#1099,'','tolerance'
);
#1098=(
CONVERSION_BASED_UNIT('',#1100)
NAMED_UNIT(#1106)
PLANE_ANGLE_UNIT()
);
#1099=(
CONVERSION_BASED_UNIT('',#1101)
LENGTH_UNIT()
NAMED_UNIT(#1105)
);
#1100=PLANE_ANGLE_MEASURE_WITH_UNIT(PLANE_ANGLE_MEASURE(0.0174532925199433),
#1103);
#1101=LENGTH_MEASURE_WITH_UNIT(LENGTH_MEASURE(1.),#1104);
#1102=(
NAMED_UNIT(*)
SI_UNIT($,.STERADIAN.)
SOLID_ANGLE_UNIT()
);
#1103=(
NAMED_UNIT(*)
PLANE_ANGLE_UNIT()
SI_UNIT($,.RADIAN.)
);
#1104=(
LENGTH_UNIT()
NAMED_UNIT(*)
SI_UNIT(.MILLI.,.METRE.)
);
#1105=DIMENSIONAL_EXPONENTS(1.,0.,0.,0.,0.,0.,0.);
#1106=DIMENSIONAL_EXPONENTS(0.,0.,0.,0.,0.,0.,0.);
#1107=PRODUCT_DEFINITION_FORMATION_WITH_SPECIFIED_SOURCE('','',#1110,
.NOT_KNOWN.);
#1108=PRODUCT_CATEGORY_RELATIONSHIP('','',#1113,#1109);
#1109=PRODUCT_RELATED_PRODUCT_CATEGORY('assembly','',(#1110));
#1110=PRODUCT('','master','',(#1111));
#1111=PRODUCT_CONTEXT('',#1115,'');
#1112=PRODUCT_DEFINITION_CONTEXT('',#1115,'part_definition');
#1113=PRODUCT_CATEGORY('part','');
#1114=APPLICATION_PROTOCOL_DEFINITION('international standard',
'automotive_design_cc2',1994,#1115);
#1115=APPLICATION_CONTEXT(
'configuration controlled 3D designs of mechanical parts and assemblies');
ENDSEC;
END-ISO-10303-21;
64293