ISO-10303-21;
HEADER;
/* Generated by software using Delcam plc STEP library */

FILE_DESCRIPTION(
/* description */ ('AP-214 File'),
/* implementation_level */ '2;1');

FILE_NAME(
/* name */ 'D802',
/* time_stamp */ 'Thu Dec 22 14:23:27 2016',
/* author */ (''),
/* organization */ (''),
/* preprocessor_version */ 'DELCAM STEP V1',
/* originating_system */ 'Exchange7.1.0006',
/* authorisation */ '');

FILE_SCHEMA (('AUTOMOTIVE_DESIGN'));
ENDSEC;
DATA;
#10=PRESENTATION_STYLE_ASSIGNMENT((#20));
#11=PRESENTATION_STYLE_ASSIGNMENT((#21));
#12=SURFACE_SIDE_STYLE('',(#14));
#13=SURFACE_SIDE_STYLE('',(#15));
#14=SURFACE_STYLE_FILL_AREA(#16);
#15=SURFACE_STYLE_FILL_AREA(#17);
#16=FILL_AREA_STYLE('',(#18));
#17=FILL_AREA_STYLE('',(#19));
#18=FILL_AREA_STYLE_COLOUR('',#42);
#19=FILL_AREA_STYLE_COLOUR('',#43);
#20=SURFACE_STYLE_USAGE(.BOTH.,#12);
#21=SURFACE_STYLE_USAGE(.BOTH.,#13);
#22=STYLED_ITEM('',(#10),#59);
#23=STYLED_ITEM('',(#10),#60);
#24=STYLED_ITEM('',(#10),#61);
#25=STYLED_ITEM('',(#10),#62);
#26=STYLED_ITEM('',(#10),#63);
#27=STYLED_ITEM('',(#10),#64);
#28=STYLED_ITEM('',(#10),#65);
#29=STYLED_ITEM('',(#10),#66);
#30=STYLED_ITEM('',(#10),#67);
#31=STYLED_ITEM('',(#10),#68);
#32=STYLED_ITEM('',(#10),#69);
#33=STYLED_ITEM('',(#10),#70);
#34=STYLED_ITEM('',(#10),#71);
#35=STYLED_ITEM('',(#10),#72);
#36=STYLED_ITEM('',(#10),#73);
#37=STYLED_ITEM('',(#10),#74);
#38=STYLED_ITEM('',(#10),#75);
#39=STYLED_ITEM('',(#10),#76);
#40=STYLED_ITEM('',(#10),#77);
#41=STYLED_ITEM('',(#11),#49);
#42=COLOUR_RGB('',0.,0.,0.);
#43=COLOUR_RGB('rgb_colour_1',0.4,0.4,0.4);
#44=MECHANICAL_DESIGN_GEOMETRIC_PRESENTATION_REPRESENTATION('',(#22,#23,#24,
#25,#26,#27,#28,#29,#30,#31,#32,#33,#34,#35,#36,#37,#38,#39,#40,#41),#694);
#45=PRESENTATION_LAYER_ASSIGNMENT('31','D802',(#59,#60,#61,#62,#63,#64,#65,#66
,#67,#68,#69,#70,#71,#72,#73,#74,#75,#76,#77,#49));
#46=SHAPE_REPRESENTATION_RELATIONSHIP('','',#402,#47);
#47=ADVANCED_BREP_SHAPE_REPRESENTATION('',(#48),#694);
#48=MANIFOLD_SOLID_BREP('2782',#49);
#49=CLOSED_SHELL('',(#59,#60,#61,#62,#63,#64,#65,#66,#67,#68,#69,#70,#71,#72,
#73,#74,#75,#76,#77));
#50=SURFACE_OF_LINEAR_EXTRUSION('',#260,#358);
#51=SURFACE_OF_LINEAR_EXTRUSION('',#261,#359);
#52=SURFACE_OF_LINEAR_EXTRUSION('',#262,#360);
#53=SURFACE_OF_LINEAR_EXTRUSION('',#263,#361);
#54=SURFACE_OF_LINEAR_EXTRUSION('',#264,#362);
#55=SURFACE_OF_LINEAR_EXTRUSION('',#265,#363);
#56=SURFACE_OF_LINEAR_EXTRUSION('',#266,#364);
#57=SURFACE_OF_LINEAR_EXTRUSION('',#267,#365);
#58=SURFACE_OF_LINEAR_EXTRUSION('',#268,#366);
#59=ADVANCED_FACE('',(#78),#218,.T.);
#60=ADVANCED_FACE('',(#79),#219,.T.);
#61=ADVANCED_FACE('',(#80),#220,.T.);
#62=ADVANCED_FACE('',(#81),#221,.T.);
#63=ADVANCED_FACE('',(#82),#222,.T.);
#64=ADVANCED_FACE('',(#83),#223,.T.);
#65=ADVANCED_FACE('',(#84),#224,.T.);
#66=ADVANCED_FACE('',(#85),#50,.T.);
#67=ADVANCED_FACE('',(#86),#51,.T.);
#68=ADVANCED_FACE('',(#87),#52,.T.);
#69=ADVANCED_FACE('',(#88),#225,.T.);
#70=ADVANCED_FACE('',(#89),#53,.T.);
#71=ADVANCED_FACE('',(#90),#54,.T.);
#72=ADVANCED_FACE('',(#91),#55,.T.);
#73=ADVANCED_FACE('',(#92),#56,.T.);
#74=ADVANCED_FACE('',(#93),#57,.T.);
#75=ADVANCED_FACE('',(#94),#58,.T.);
#76=ADVANCED_FACE('',(#95),#226,.F.);
#77=ADVANCED_FACE('',(#96),#227,.T.);
#78=FACE_OUTER_BOUND('',#97,.T.);
#79=FACE_OUTER_BOUND('',#98,.T.);
#80=FACE_OUTER_BOUND('',#99,.T.);
#81=FACE_OUTER_BOUND('',#100,.T.);
#82=FACE_OUTER_BOUND('',#101,.T.);
#83=FACE_OUTER_BOUND('',#102,.T.);
#84=FACE_OUTER_BOUND('',#103,.T.);
#85=FACE_OUTER_BOUND('',#104,.T.);
#86=FACE_OUTER_BOUND('',#105,.T.);
#87=FACE_OUTER_BOUND('',#106,.T.);
#88=FACE_OUTER_BOUND('',#107,.T.);
#89=FACE_OUTER_BOUND('',#108,.T.);
#90=FACE_OUTER_BOUND('',#109,.T.);
#91=FACE_OUTER_BOUND('',#110,.T.);
#92=FACE_OUTER_BOUND('',#111,.T.);
#93=FACE_OUTER_BOUND('',#112,.T.);
#94=FACE_OUTER_BOUND('',#113,.T.);
#95=FACE_OUTER_BOUND('',#114,.T.);
#96=FACE_OUTER_BOUND('',#115,.T.);
#97=EDGE_LOOP('',(#116,#117,#118,#119));
#98=EDGE_LOOP('',(#120,#121,#122,#123));
#99=EDGE_LOOP('',(#124,#125,#126,#127));
#100=EDGE_LOOP('',(#128,#129,#130,#131));
#101=EDGE_LOOP('',(#132,#133,#134,#135));
#102=EDGE_LOOP('',(#136,#137,#138,#139));
#103=EDGE_LOOP('',(#140,#141,#142,#143));
#104=EDGE_LOOP('',(#144,#145,#146,#147));
#105=EDGE_LOOP('',(#148,#149,#150,#151));
#106=EDGE_LOOP('',(#152,#153,#154,#155));
#107=EDGE_LOOP('',(#156,#157,#158,#159));
#108=EDGE_LOOP('',(#160,#161,#162,#163));
#109=EDGE_LOOP('',(#164,#165,#166,#167));
#110=EDGE_LOOP('',(#168,#169,#170,#171));
#111=EDGE_LOOP('',(#172,#173,#174,#175));
#112=EDGE_LOOP('',(#176,#177,#178,#179));
#113=EDGE_LOOP('',(#180,#181,#182,#183));
#114=EDGE_LOOP('',(#184,#185,#186,#187,#188,#189,#190,#191,#192,#193,#194,#195
,#196,#197,#198,#199,#200));
#115=EDGE_LOOP('',(#201,#202,#203,#204,#205,#206,#207,#208,#209,#210,#211,#212
,#213,#214,#215,#216,#217));
#116=ORIENTED_EDGE('',*,*,#319,.F.);
#117=ORIENTED_EDGE('',*,*,#285,.F.);
#118=ORIENTED_EDGE('',*,*,#302,.T.);
#119=ORIENTED_EDGE('',*,*,#269,.T.);
#120=ORIENTED_EDGE('',*,*,#318,.F.);
#121=ORIENTED_EDGE('',*,*,#269,.F.);
#122=ORIENTED_EDGE('',*,*,#301,.T.);
#123=ORIENTED_EDGE('',*,*,#270,.T.);
#124=ORIENTED_EDGE('',*,*,#317,.F.);
#125=ORIENTED_EDGE('',*,*,#270,.F.);
#126=ORIENTED_EDGE('',*,*,#300,.T.);
#127=ORIENTED_EDGE('',*,*,#271,.T.);
#128=ORIENTED_EDGE('',*,*,#316,.F.);
#129=ORIENTED_EDGE('',*,*,#271,.F.);
#130=ORIENTED_EDGE('',*,*,#299,.T.);
#131=ORIENTED_EDGE('',*,*,#272,.T.);
#132=ORIENTED_EDGE('',*,*,#315,.F.);
#133=ORIENTED_EDGE('',*,*,#272,.F.);
#134=ORIENTED_EDGE('',*,*,#298,.T.);
#135=ORIENTED_EDGE('',*,*,#273,.T.);
#136=ORIENTED_EDGE('',*,*,#314,.F.);
#137=ORIENTED_EDGE('',*,*,#273,.F.);
#138=ORIENTED_EDGE('',*,*,#297,.T.);
#139=ORIENTED_EDGE('',*,*,#274,.T.);
#140=ORIENTED_EDGE('',*,*,#313,.F.);
#141=ORIENTED_EDGE('',*,*,#274,.F.);
#142=ORIENTED_EDGE('',*,*,#296,.T.);
#143=ORIENTED_EDGE('',*,*,#275,.T.);
#144=ORIENTED_EDGE('',*,*,#312,.F.);
#145=ORIENTED_EDGE('',*,*,#275,.F.);
#146=ORIENTED_EDGE('',*,*,#295,.T.);
#147=ORIENTED_EDGE('',*,*,#276,.T.);
#148=ORIENTED_EDGE('',*,*,#311,.F.);
#149=ORIENTED_EDGE('',*,*,#276,.F.);
#150=ORIENTED_EDGE('',*,*,#294,.T.);
#151=ORIENTED_EDGE('',*,*,#277,.T.);
#152=ORIENTED_EDGE('',*,*,#310,.F.);
#153=ORIENTED_EDGE('',*,*,#277,.F.);
#154=ORIENTED_EDGE('',*,*,#293,.T.);
#155=ORIENTED_EDGE('',*,*,#278,.T.);
#156=ORIENTED_EDGE('',*,*,#309,.F.);
#157=ORIENTED_EDGE('',*,*,#278,.F.);
#158=ORIENTED_EDGE('',*,*,#292,.T.);
#159=ORIENTED_EDGE('',*,*,#279,.T.);
#160=ORIENTED_EDGE('',*,*,#308,.F.);
#161=ORIENTED_EDGE('',*,*,#279,.F.);
#162=ORIENTED_EDGE('',*,*,#291,.T.);
#163=ORIENTED_EDGE('',*,*,#280,.T.);
#164=ORIENTED_EDGE('',*,*,#307,.F.);
#165=ORIENTED_EDGE('',*,*,#280,.F.);
#166=ORIENTED_EDGE('',*,*,#290,.T.);
#167=ORIENTED_EDGE('',*,*,#281,.T.);
#168=ORIENTED_EDGE('',*,*,#306,.F.);
#169=ORIENTED_EDGE('',*,*,#281,.F.);
#170=ORIENTED_EDGE('',*,*,#289,.T.);
#171=ORIENTED_EDGE('',*,*,#282,.T.);
#172=ORIENTED_EDGE('',*,*,#305,.F.);
#173=ORIENTED_EDGE('',*,*,#282,.F.);
#174=ORIENTED_EDGE('',*,*,#288,.T.);
#175=ORIENTED_EDGE('',*,*,#283,.T.);
#176=ORIENTED_EDGE('',*,*,#304,.F.);
#177=ORIENTED_EDGE('',*,*,#283,.F.);
#178=ORIENTED_EDGE('',*,*,#287,.T.);
#179=ORIENTED_EDGE('',*,*,#284,.T.);
#180=ORIENTED_EDGE('',*,*,#303,.F.);
#181=ORIENTED_EDGE('',*,*,#284,.F.);
#182=ORIENTED_EDGE('',*,*,#286,.T.);
#183=ORIENTED_EDGE('',*,*,#285,.T.);
#184=ORIENTED_EDGE('',*,*,#302,.F.);
#185=ORIENTED_EDGE('',*,*,#286,.F.);
#186=ORIENTED_EDGE('',*,*,#287,.F.);
#187=ORIENTED_EDGE('',*,*,#288,.F.);
#188=ORIENTED_EDGE('',*,*,#289,.F.);
#189=ORIENTED_EDGE('',*,*,#290,.F.);
#190=ORIENTED_EDGE('',*,*,#291,.F.);
#191=ORIENTED_EDGE('',*,*,#292,.F.);
#192=ORIENTED_EDGE('',*,*,#293,.F.);
#193=ORIENTED_EDGE('',*,*,#294,.F.);
#194=ORIENTED_EDGE('',*,*,#295,.F.);
#195=ORIENTED_EDGE('',*,*,#296,.F.);
#196=ORIENTED_EDGE('',*,*,#297,.F.);
#197=ORIENTED_EDGE('',*,*,#298,.F.);
#198=ORIENTED_EDGE('',*,*,#299,.F.);
#199=ORIENTED_EDGE('',*,*,#300,.F.);
#200=ORIENTED_EDGE('',*,*,#301,.F.);
#201=ORIENTED_EDGE('',*,*,#319,.T.);
#202=ORIENTED_EDGE('',*,*,#318,.T.);
#203=ORIENTED_EDGE('',*,*,#317,.T.);
#204=ORIENTED_EDGE('',*,*,#316,.T.);
#205=ORIENTED_EDGE('',*,*,#315,.T.);
#206=ORIENTED_EDGE('',*,*,#314,.T.);
#207=ORIENTED_EDGE('',*,*,#313,.T.);
#208=ORIENTED_EDGE('',*,*,#312,.T.);
#209=ORIENTED_EDGE('',*,*,#311,.T.);
#210=ORIENTED_EDGE('',*,*,#310,.T.);
#211=ORIENTED_EDGE('',*,*,#309,.T.);
#212=ORIENTED_EDGE('',*,*,#308,.T.);
#213=ORIENTED_EDGE('',*,*,#307,.T.);
#214=ORIENTED_EDGE('',*,*,#306,.T.);
#215=ORIENTED_EDGE('',*,*,#305,.T.);
#216=ORIENTED_EDGE('',*,*,#304,.T.);
#217=ORIENTED_EDGE('',*,*,#303,.T.);
#218=PLANE('',#404);
#219=PLANE('',#405);
#220=PLANE('',#406);
#221=PLANE('',#407);
#222=PLANE('',#408);
#223=PLANE('',#409);
#224=PLANE('',#410);
#225=PLANE('',#411);
#226=PLANE('',#412);
#227=PLANE('',#413);
#228=B_SPLINE_CURVE_WITH_KNOTS('',3,(#516,#517,#518,#519),.UNSPECIFIED.,.F.,
.F.,(4,4),(0.,1.),.UNSPECIFIED.);
#229=B_SPLINE_CURVE_WITH_KNOTS('',3,(#520,#521,#522,#523),.UNSPECIFIED.,.F.,
.F.,(4,4),(0.,1.),.UNSPECIFIED.);
#230=B_SPLINE_CURVE_WITH_KNOTS('',3,(#524,#525,#526,#527),.UNSPECIFIED.,.F.,
.F.,(4,4),(0.,1.),.UNSPECIFIED.);
#231=B_SPLINE_CURVE_WITH_KNOTS('',3,(#528,#529,#530,#531),.UNSPECIFIED.,.F.,
.F.,(4,4),(0.,1.),.UNSPECIFIED.);
#232=B_SPLINE_CURVE_WITH_KNOTS('',3,(#532,#533,#534,#535),.UNSPECIFIED.,.F.,
.F.,(4,4),(0.,1.),.UNSPECIFIED.);
#233=B_SPLINE_CURVE_WITH_KNOTS('',3,(#536,#537,#538,#539),.UNSPECIFIED.,.F.,
.F.,(4,4),(0.,1.),.UNSPECIFIED.);
#234=B_SPLINE_CURVE_WITH_KNOTS('',3,(#540,#541,#542,#543),.UNSPECIFIED.,.F.,
.F.,(4,4),(0.,1.),.UNSPECIFIED.);
#235=B_SPLINE_CURVE_WITH_KNOTS('',3,(#544,#545,#546,#547),.UNSPECIFIED.,.F.,
.F.,(4,4),(0.,1.),.UNSPECIFIED.);
#236=B_SPLINE_CURVE_WITH_KNOTS('',3,(#548,#549,#550,#551),.UNSPECIFIED.,.F.,
.F.,(4,4),(0.,1.),.UNSPECIFIED.);
#237=B_SPLINE_CURVE_WITH_KNOTS('',3,(#552,#553,#554,#555),.UNSPECIFIED.,.F.,
.F.,(4,4),(0.,1.),.UNSPECIFIED.);
#238=B_SPLINE_CURVE_WITH_KNOTS('',3,(#556,#557,#558,#559),.UNSPECIFIED.,.F.,
.F.,(4,4),(0.,1.),.UNSPECIFIED.);
#239=B_SPLINE_CURVE_WITH_KNOTS('',3,(#560,#561,#562,#563),.UNSPECIFIED.,.F.,
.F.,(4,4),(0.,1.),.UNSPECIFIED.);
#240=B_SPLINE_CURVE_WITH_KNOTS('',3,(#564,#565,#566,#567),.UNSPECIFIED.,.F.,
.F.,(4,4),(0.,1.),.UNSPECIFIED.);
#241=B_SPLINE_CURVE_WITH_KNOTS('',3,(#568,#569,#570,#571),.UNSPECIFIED.,.F.,
.F.,(4,4),(0.,1.),.UNSPECIFIED.);
#242=B_SPLINE_CURVE_WITH_KNOTS('',3,(#572,#573,#574,#575),.UNSPECIFIED.,.F.,
.F.,(4,4),(0.,1.),.UNSPECIFIED.);
#243=B_SPLINE_CURVE_WITH_KNOTS('',3,(#576,#577,#578,#579),.UNSPECIFIED.,.F.,
.F.,(4,4),(0.,1.),.UNSPECIFIED.);
#244=B_SPLINE_CURVE_WITH_KNOTS('',3,(#581,#582,#583,#584),.UNSPECIFIED.,.F.,
.F.,(4,4),(0.,1.),.UNSPECIFIED.);
#245=B_SPLINE_CURVE_WITH_KNOTS('',3,(#585,#586,#587,#588),.UNSPECIFIED.,.F.,
.F.,(4,4),(0.,1.),.UNSPECIFIED.);
#246=B_SPLINE_CURVE_WITH_KNOTS('',3,(#589,#590,#591,#592),.UNSPECIFIED.,.F.,
.F.,(4,4),(0.,1.),.UNSPECIFIED.);
#247=B_SPLINE_CURVE_WITH_KNOTS('',3,(#593,#594,#595,#596),.UNSPECIFIED.,.F.,
.F.,(4,4),(0.,1.),.UNSPECIFIED.);
#248=B_SPLINE_CURVE_WITH_KNOTS('',3,(#597,#598,#599,#600),.UNSPECIFIED.,.F.,
.F.,(4,4),(0.,1.),.UNSPECIFIED.);
#249=B_SPLINE_CURVE_WITH_KNOTS('',3,(#601,#602,#603,#604),.UNSPECIFIED.,.F.,
.F.,(4,4),(0.,1.),.UNSPECIFIED.);
#250=B_SPLINE_CURVE_WITH_KNOTS('',3,(#605,#606,#607,#608),.UNSPECIFIED.,.F.,
.F.,(4,4),(0.,1.),.UNSPECIFIED.);
#251=B_SPLINE_CURVE_WITH_KNOTS('',3,(#609,#610,#611,#612),.UNSPECIFIED.,.F.,
.F.,(4,4),(0.,1.),.UNSPECIFIED.);
#252=B_SPLINE_CURVE_WITH_KNOTS('',3,(#613,#614,#615,#616),.UNSPECIFIED.,.F.,
.F.,(4,4),(0.,1.),.UNSPECIFIED.);
#253=B_SPLINE_CURVE_WITH_KNOTS('',3,(#617,#618,#619,#620),.UNSPECIFIED.,.F.,
.F.,(4,4),(0.,1.),.UNSPECIFIED.);
#254=B_SPLINE_CURVE_WITH_KNOTS('',3,(#621,#622,#623,#624),.UNSPECIFIED.,.F.,
.F.,(4,4),(0.,1.),.UNSPECIFIED.);
#255=B_SPLINE_CURVE_WITH_KNOTS('',3,(#625,#626,#627,#628),.UNSPECIFIED.,.F.,
.F.,(4,4),(0.,1.),.UNSPECIFIED.);
#256=B_SPLINE_CURVE_WITH_KNOTS('',3,(#629,#630,#631,#632),.UNSPECIFIED.,.F.,
.F.,(4,4),(0.,1.),.UNSPECIFIED.);
#257=B_SPLINE_CURVE_WITH_KNOTS('',3,(#633,#634,#635,#636),.UNSPECIFIED.,.F.,
.F.,(4,4),(0.,1.),.UNSPECIFIED.);
#258=B_SPLINE_CURVE_WITH_KNOTS('',3,(#637,#638,#639,#640),.UNSPECIFIED.,.F.,
.F.,(4,4),(0.,1.),.UNSPECIFIED.);
#259=B_SPLINE_CURVE_WITH_KNOTS('',3,(#641,#642,#643,#644),.UNSPECIFIED.,.F.,
.F.,(4,4),(0.,1.),.UNSPECIFIED.);
#260=B_SPLINE_CURVE_WITH_KNOTS('',3,(#653,#654,#655,#656),.UNSPECIFIED.,.F.,
.F.,(4,4),(0.,1.),.UNSPECIFIED.);
#261=B_SPLINE_CURVE_WITH_KNOTS('',3,(#657,#658,#659,#660),.UNSPECIFIED.,.F.,
.F.,(4,4),(0.,1.),.UNSPECIFIED.);
#262=B_SPLINE_CURVE_WITH_KNOTS('',3,(#661,#662,#663,#664),.UNSPECIFIED.,.F.,
.F.,(4,4),(0.,1.),.UNSPECIFIED.);
#263=B_SPLINE_CURVE_WITH_KNOTS('',3,(#666,#667,#668,#669),.UNSPECIFIED.,.F.,
.F.,(4,4),(0.,1.),.UNSPECIFIED.);
#264=B_SPLINE_CURVE_WITH_KNOTS('',3,(#670,#671,#672,#673),.UNSPECIFIED.,.F.,
.F.,(4,4),(0.,1.),.UNSPECIFIED.);
#265=B_SPLINE_CURVE_WITH_KNOTS('',3,(#674,#675,#676,#677),.UNSPECIFIED.,.F.,
.F.,(4,4),(0.,1.),.UNSPECIFIED.);
#266=B_SPLINE_CURVE_WITH_KNOTS('',3,(#678,#679,#680,#681),.UNSPECIFIED.,.F.,
.F.,(4,4),(0.,1.),.UNSPECIFIED.);
#267=B_SPLINE_CURVE_WITH_KNOTS('',3,(#682,#683,#684,#685),.UNSPECIFIED.,.F.,
.F.,(4,4),(0.,1.),.UNSPECIFIED.);
#268=B_SPLINE_CURVE_WITH_KNOTS('',3,(#686,#687,#688,#689),.UNSPECIFIED.,.F.,
.F.,(4,4),(0.,1.),.UNSPECIFIED.);
#269=EDGE_CURVE('',#383,#400,#320,.T.);
#270=EDGE_CURVE('',#382,#399,#321,.T.);
#271=EDGE_CURVE('',#381,#398,#322,.T.);
#272=EDGE_CURVE('',#380,#397,#323,.T.);
#273=EDGE_CURVE('',#379,#396,#324,.T.);
#274=EDGE_CURVE('',#378,#395,#325,.T.);
#275=EDGE_CURVE('',#377,#394,#326,.T.);
#276=EDGE_CURVE('',#376,#393,#327,.T.);
#277=EDGE_CURVE('',#375,#392,#328,.T.);
#278=EDGE_CURVE('',#374,#391,#329,.T.);
#279=EDGE_CURVE('',#373,#390,#330,.T.);
#280=EDGE_CURVE('',#372,#389,#331,.T.);
#281=EDGE_CURVE('',#371,#388,#332,.T.);
#282=EDGE_CURVE('',#370,#387,#333,.T.);
#283=EDGE_CURVE('',#369,#386,#334,.T.);
#284=EDGE_CURVE('',#368,#385,#335,.T.);
#285=EDGE_CURVE('',#367,#384,#336,.T.);
#286=EDGE_CURVE('',#368,#367,#228,.T.);
#287=EDGE_CURVE('',#369,#368,#229,.T.);
#288=EDGE_CURVE('',#370,#369,#230,.T.);
#289=EDGE_CURVE('',#371,#370,#231,.T.);
#290=EDGE_CURVE('',#372,#371,#232,.T.);
#291=EDGE_CURVE('',#373,#372,#233,.T.);
#292=EDGE_CURVE('',#374,#373,#234,.T.);
#293=EDGE_CURVE('',#375,#374,#235,.T.);
#294=EDGE_CURVE('',#376,#375,#236,.T.);
#295=EDGE_CURVE('',#377,#376,#237,.T.);
#296=EDGE_CURVE('',#378,#377,#238,.T.);
#297=EDGE_CURVE('',#379,#378,#239,.T.);
#298=EDGE_CURVE('',#380,#379,#240,.T.);
#299=EDGE_CURVE('',#381,#380,#241,.T.);
#300=EDGE_CURVE('',#382,#381,#242,.T.);
#301=EDGE_CURVE('',#383,#382,#243,.T.);
#302=EDGE_CURVE('',#367,#383,#337,.T.);
#303=EDGE_CURVE('',#385,#384,#244,.T.);
#304=EDGE_CURVE('',#386,#385,#245,.T.);
#305=EDGE_CURVE('',#387,#386,#246,.T.);
#306=EDGE_CURVE('',#388,#387,#247,.T.);
#307=EDGE_CURVE('',#389,#388,#248,.T.);
#308=EDGE_CURVE('',#390,#389,#249,.T.);
#309=EDGE_CURVE('',#391,#390,#250,.T.);
#310=EDGE_CURVE('',#392,#391,#251,.T.);
#311=EDGE_CURVE('',#393,#392,#252,.T.);
#312=EDGE_CURVE('',#394,#393,#253,.T.);
#313=EDGE_CURVE('',#395,#394,#254,.T.);
#314=EDGE_CURVE('',#396,#395,#255,.T.);
#315=EDGE_CURVE('',#397,#396,#256,.T.);
#316=EDGE_CURVE('',#398,#397,#257,.T.);
#317=EDGE_CURVE('',#399,#398,#258,.T.);
#318=EDGE_CURVE('',#400,#399,#259,.T.);
#319=EDGE_CURVE('',#384,#400,#338,.T.);
#320=LINE('',#499,#339);
#321=LINE('',#500,#340);
#322=LINE('',#501,#341);
#323=LINE('',#502,#342);
#324=LINE('',#503,#343);
#325=LINE('',#504,#344);
#326=LINE('',#505,#345);
#327=LINE('',#506,#346);
#328=LINE('',#507,#347);
#329=LINE('',#508,#348);
#330=LINE('',#509,#349);
#331=LINE('',#510,#350);
#332=LINE('',#511,#351);
#333=LINE('',#512,#352);
#334=LINE('',#513,#353);
#335=LINE('',#514,#354);
#336=LINE('',#515,#355);
#337=LINE('',#580,#356);
#338=LINE('',#645,#357);
#339=VECTOR('',#416,1.);
#340=VECTOR('',#417,1.);
#341=VECTOR('',#418,1.);
#342=VECTOR('',#419,1.);
#343=VECTOR('',#420,1.);
#344=VECTOR('',#421,1.);
#345=VECTOR('',#422,1.);
#346=VECTOR('',#423,1.);
#347=VECTOR('',#424,1.);
#348=VECTOR('',#425,1.);
#349=VECTOR('',#426,1.);
#350=VECTOR('',#427,1.);
#351=VECTOR('',#428,1.);
#352=VECTOR('',#429,1.);
#353=VECTOR('',#430,1.);
#354=VECTOR('',#431,1.);
#355=VECTOR('',#432,1.);
#356=VECTOR('',#433,1.);
#357=VECTOR('',#434,1.);
#358=VECTOR('',#449,1.);
#359=VECTOR('',#450,1.);
#360=VECTOR('',#451,1.);
#361=VECTOR('',#454,1.);
#362=VECTOR('',#455,1.);
#363=VECTOR('',#456,1.);
#364=VECTOR('',#457,1.);
#365=VECTOR('',#458,1.);
#366=VECTOR('',#459,1.);
#367=VERTEX_POINT('',#465);
#368=VERTEX_POINT('',#466);
#369=VERTEX_POINT('',#467);
#370=VERTEX_POINT('',#468);
#371=VERTEX_POINT('',#469);
#372=VERTEX_POINT('',#470);
#373=VERTEX_POINT('',#471);
#374=VERTEX_POINT('',#472);
#375=VERTEX_POINT('',#473);
#376=VERTEX_POINT('',#474);
#377=VERTEX_POINT('',#475);
#378=VERTEX_POINT('',#476);
#379=VERTEX_POINT('',#477);
#380=VERTEX_POINT('',#478);
#381=VERTEX_POINT('',#479);
#382=VERTEX_POINT('',#480);
#383=VERTEX_POINT('',#481);
#384=VERTEX_POINT('',#482);
#385=VERTEX_POINT('',#483);
#386=VERTEX_POINT('',#484);
#387=VERTEX_POINT('',#485);
#388=VERTEX_POINT('',#486);
#389=VERTEX_POINT('',#487);
#390=VERTEX_POINT('',#488);
#391=VERTEX_POINT('',#489);
#392=VERTEX_POINT('',#490);
#393=VERTEX_POINT('',#491);
#394=VERTEX_POINT('',#492);
#395=VERTEX_POINT('',#493);
#396=VERTEX_POINT('',#494);
#397=VERTEX_POINT('',#495);
#398=VERTEX_POINT('',#496);
#399=VERTEX_POINT('',#497);
#400=VERTEX_POINT('',#498);
#401=SHAPE_DEFINITION_REPRESENTATION(#692,#402);
#402=SHAPE_REPRESENTATION('master',(#403),#694);
#403=AXIS2_PLACEMENT_3D('',#464,#415,#414);
#404=AXIS2_PLACEMENT_3D('',#646,#436,#435);
#405=AXIS2_PLACEMENT_3D('',#647,#438,#437);
#406=AXIS2_PLACEMENT_3D('',#648,#440,#439);
#407=AXIS2_PLACEMENT_3D('',#649,#442,#441);
#408=AXIS2_PLACEMENT_3D('',#650,#444,#443);
#409=AXIS2_PLACEMENT_3D('',#651,#446,#445);
#410=AXIS2_PLACEMENT_3D('',#652,#448,#447);
#411=AXIS2_PLACEMENT_3D('',#665,#453,#452);
#412=AXIS2_PLACEMENT_3D('',#690,#461,#460);
#413=AXIS2_PLACEMENT_3D('',#691,#463,#462);
#414=DIRECTION('',(1.,0.,0.));
#415=DIRECTION('',(0.,0.,1.));
#416=DIRECTION('',(-0.,-1.,0.));
#417=DIRECTION('',(-0.,-1.,0.));
#418=DIRECTION('',(-0.,-1.,0.));
#419=DIRECTION('',(-0.,-1.,0.));
#420=DIRECTION('',(-0.,-1.,0.));
#421=DIRECTION('',(-0.,-1.,0.));
#422=DIRECTION('',(-0.,-1.,0.));
#423=DIRECTION('',(-0.,-1.,0.));
#424=DIRECTION('',(-0.,-1.,0.));
#425=DIRECTION('',(-0.,-1.,0.));
#426=DIRECTION('',(-0.,-1.,0.));
#427=DIRECTION('',(-0.,-1.,0.));
#428=DIRECTION('',(-0.,-1.,0.));
#429=DIRECTION('',(-0.,-1.,0.));
#430=DIRECTION('',(-0.,-1.,0.));
#431=DIRECTION('',(-0.,-1.,0.));
#432=DIRECTION('',(-0.,-1.,0.));
#433=DIRECTION('',(-1.,-0.,-0.));
#434=DIRECTION('',(-1.,-0.,-0.));
#435=DIRECTION('',(1.,0.,0.));
#436=DIRECTION('',(-0.,0.,1.));
#437=DIRECTION('',(0.708723021196848,0.,0.7054868384496));
#438=DIRECTION('',(-0.7054868384496,0.,0.708723021196848));
#439=DIRECTION('',(0.891039502250474,0.,0.453925770836189));
#440=DIRECTION('',(-0.453925770836189,0.,0.891039502250474));
#441=DIRECTION('',(0.999999449177053,0.,-0.00104959305978117));
#442=DIRECTION('',(0.00104959305978117,0.,0.999999449177053));
#443=DIRECTION('',(0.,0.,1.));
#444=DIRECTION('',(-1.,0.,0.));
#445=DIRECTION('',(-1.,0.,-0.));
#446=DIRECTION('',(0.,-0.,-1.));
#447=DIRECTION('',(-2.52731657109185E-014,0.,-1.));
#448=DIRECTION('',(1.,-0.,-2.52731657109185E-014));
#449=DIRECTION('',(-0.,-1.,0.));
#450=DIRECTION('',(-0.,-1.,0.));
#451=DIRECTION('',(-0.,-1.,0.));
#452=DIRECTION('',(-0.270382343032476,0.,-0.962753025742463));
#453=DIRECTION('',(0.962753025742463,-0.,-0.270382343032476));
#454=DIRECTION('',(-0.,-1.,0.));
#455=DIRECTION('',(-0.,-1.,0.));
#456=DIRECTION('',(-0.,-1.,0.));
#457=DIRECTION('',(-0.,-1.,0.));
#458=DIRECTION('',(-0.,-1.,0.));
#459=DIRECTION('',(-0.,-1.,0.));
#460=DIRECTION('',(1.,-4.64278691829664E-014,0.));
#461=DIRECTION('',(-4.64278691829664E-014,-1.,1.54448640704658E-014));
#462=DIRECTION('',(1.,-4.64278691829664E-014,0.));
#463=DIRECTION('',(-4.64278691829664E-014,-1.,1.54448640704658E-014));
#464=CARTESIAN_POINT('',(0.,0.,0.));
#465=CARTESIAN_POINT('',(297.405099,2160.,2249.5));
#466=CARTESIAN_POINT('',(297.40512429719,2160.,2239.5787877896));
#467=CARTESIAN_POINT('',(284.798817647866,2160.,2235.02403372452));
#468=CARTESIAN_POINT('',(268.448575557742,2160.,2217.53669974613));
#469=CARTESIAN_POINT('',(263.491562760813,2160.,2207.60302185007));
#470=CARTESIAN_POINT('',(243.106414340979,2160.,2187.74384896479));
#471=CARTESIAN_POINT('',(234.453368012439,2160.,2183.61069242812));
#472=CARTESIAN_POINT('',(233.264441358717,2160.,2179.37726978514));
#473=CARTESIAN_POINT('',(226.823361432463,2160.,2177.93193609126));
#474=CARTESIAN_POINT('',(217.626093953526,2160.,2172.5185593139));
#475=CARTESIAN_POINT('',(211.736825253909,2160.,2159.85966544503));
#476=CARTESIAN_POINT('',(211.736825253909,2160.,2156.564996));
#477=CARTESIAN_POINT('',(103.080454,2160.,2156.564996));
#478=CARTESIAN_POINT('',(103.080454,2160.,2167.74603892142));
#479=CARTESIAN_POINT('',(192.101498,2160.,2167.652603));
#480=CARTESIAN_POINT('',(200.930676,2160.,2172.150486));
#481=CARTESIAN_POINT('',(278.635004787565,2160.,2249.5));
#482=CARTESIAN_POINT('',(297.405099,160.,2249.5));
#483=CARTESIAN_POINT('',(297.40512429719,160.,2239.5787877896));
#484=CARTESIAN_POINT('',(284.798817647866,160.,2235.02403372452));
#485=CARTESIAN_POINT('',(268.448575557742,160.,2217.53669974613));
#486=CARTESIAN_POINT('',(263.491562760813,160.,2207.60302185007));
#487=CARTESIAN_POINT('',(243.106414340979,160.,2187.74384896479));
#488=CARTESIAN_POINT('',(234.453368012439,160.,2183.61069242812));
#489=CARTESIAN_POINT('',(233.264441358717,160.,2179.37726978514));
#490=CARTESIAN_POINT('',(226.823361432463,160.,2177.93193609126));
#491=CARTESIAN_POINT('',(217.626093953526,160.,2172.5185593139));
#492=CARTESIAN_POINT('',(211.736825253909,160.,2159.85966544503));
#493=CARTESIAN_POINT('',(211.736825253909,160.,2156.564996));
#494=CARTESIAN_POINT('',(103.080454,160.,2156.564996));
#495=CARTESIAN_POINT('',(103.080454,160.,2167.74603892142));
#496=CARTESIAN_POINT('',(192.101498,160.,2167.652603));
#497=CARTESIAN_POINT('',(200.930676,160.,2172.150486));
#498=CARTESIAN_POINT('',(278.635004787565,160.,2249.5));
#499=CARTESIAN_POINT('',(278.635004787565,2160.,2249.5));
#500=CARTESIAN_POINT('',(200.930676,2160.,2172.150486));
#501=CARTESIAN_POINT('',(192.101498,2160.,2167.652603));
#502=CARTESIAN_POINT('',(103.080454,2160.,2167.74603892142));
#503=CARTESIAN_POINT('',(103.080454,2160.,2156.564996));
#504=CARTESIAN_POINT('',(211.736825253909,2160.,2156.564996));
#505=CARTESIAN_POINT('',(211.736825253909,2160.,2159.85966544503));
#506=CARTESIAN_POINT('',(217.626093953526,2160.,2172.5185593139));
#507=CARTESIAN_POINT('',(226.823361432463,2160.,2177.93193609126));
#508=CARTESIAN_POINT('',(233.264441358717,2160.,2179.37726978514));
#509=CARTESIAN_POINT('',(234.453368012439,2160.,2183.61069242812));
#510=CARTESIAN_POINT('',(243.106414340979,2160.,2187.74384896479));
#511=CARTESIAN_POINT('',(263.491562760813,2160.,2207.60302185007));
#512=CARTESIAN_POINT('',(268.448575557742,2160.,2217.53669974613));
#513=CARTESIAN_POINT('',(284.798817647866,2160.,2235.02403372452));
#514=CARTESIAN_POINT('',(297.40512429719,2160.,2239.5787877896));
#515=CARTESIAN_POINT('',(297.405099,2160.,2249.5));
#516=CARTESIAN_POINT('',(297.40512429719,2160.,2239.5787877896));
#517=CARTESIAN_POINT('',(297.40512429719,2160.,2242.88581742324));
#518=CARTESIAN_POINT('',(297.405099,2160.,2246.19297036637));
#519=CARTESIAN_POINT('',(297.405099,2160.,2249.5));
#520=CARTESIAN_POINT('',(284.798817647866,2160.,2235.02403372452));
#521=CARTESIAN_POINT('',(288.758332256597,2160.,2237.12781652179));
#522=CARTESIAN_POINT('',(293.012890147616,2160.,2238.67771222663));
#523=CARTESIAN_POINT('',(297.40512429719,2160.,2239.5787877896));
#524=CARTESIAN_POINT('',(268.448575557742,2160.,2217.53669974613));
#525=CARTESIAN_POINT('',(271.7698632031,2160.,2224.95984223326));
#526=CARTESIAN_POINT('',(277.61729080076,2160.,2231.20832040306));
#527=CARTESIAN_POINT('',(284.798817647866,2160.,2235.02403372452));
#528=CARTESIAN_POINT('',(263.491562760813,2160.,2207.60302185007));
#529=CARTESIAN_POINT('',(265.26818558641,2160.,2210.8504095691));
#530=CARTESIAN_POINT('',(266.936808935119,2160.,2214.15787194039));
#531=CARTESIAN_POINT('',(268.448575557742,2160.,2217.53669974613));
#532=CARTESIAN_POINT('',(243.106414340979,2160.,2187.74384896479));
#533=CARTESIAN_POINT('',(251.675467623992,2160.,2192.14203421388));
#534=CARTESIAN_POINT('',(258.868660531834,2160.,2199.15308204947));
#535=CARTESIAN_POINT('',(263.491562760813,2160.,2207.60302185007));
#536=CARTESIAN_POINT('',(234.453368012439,2160.,2183.61069242812));
#537=CARTESIAN_POINT('',(237.378635594328,2160.,2184.9004689883));
#538=CARTESIAN_POINT('',(240.262193297924,2160.,2186.28401313187));
#539=CARTESIAN_POINT('',(243.106414340979,2160.,2187.74384896479));
#540=CARTESIAN_POINT('',(233.264441358717,2160.,2179.37726978514));
#541=CARTESIAN_POINT('',(233.660750397241,2160.,2180.78840971093));
#542=CARTESIAN_POINT('',(234.057058973914,2160.,2182.19955250233));
#543=CARTESIAN_POINT('',(234.453368012439,2160.,2183.61069242812));
#544=CARTESIAN_POINT('',(226.823361432463,2160.,2177.93193609126));
#545=CARTESIAN_POINT('',(228.939035146621,2160.,2178.54168002958));
#546=CARTESIAN_POINT('',(231.090706497911,2160.,2179.02692753816));
#547=CARTESIAN_POINT('',(233.264441358717,2160.,2179.37726978514));
#548=CARTESIAN_POINT('',(217.626093953526,2160.,2172.5185593139));
#549=CARTESIAN_POINT('',(220.174268250847,2160.,2175.05541631735));
#550=CARTESIAN_POINT('',(223.368311526397,2160.,2176.93617964605));
#551=CARTESIAN_POINT('',(226.823361432463,2160.,2177.93193609126));
#552=CARTESIAN_POINT('',(211.736825253909,2160.,2159.85966544503));
#553=CARTESIAN_POINT('',(212.133122301472,2160.,2164.64509951398));
#554=CARTESIAN_POINT('',(214.223149365236,2160.,2169.13072834008));
#555=CARTESIAN_POINT('',(217.626093953526,2160.,2172.5185593139));
#556=CARTESIAN_POINT('',(211.736825253909,2160.,2156.564996));
#557=CARTESIAN_POINT('',(211.736825253909,2160.,2157.66321914834));
#558=CARTESIAN_POINT('',(211.736825253909,2160.,2158.76144229669));
#559=CARTESIAN_POINT('',(211.736825253909,2160.,2159.85966544503));
#560=CARTESIAN_POINT('',(103.080454,2160.,2156.564996));
#561=CARTESIAN_POINT('',(139.29924441797,2160.,2156.564996));
#562=CARTESIAN_POINT('',(175.51803483594,2160.,2156.564996));
#563=CARTESIAN_POINT('',(211.736825253909,2160.,2156.564996));
#564=CARTESIAN_POINT('',(103.080454,2160.,2167.74603892142));
#565=CARTESIAN_POINT('',(103.080454,2160.,2164.01902461428));
#566=CARTESIAN_POINT('',(103.080454,2160.,2160.29201030714));
#567=CARTESIAN_POINT('',(103.080454,2160.,2156.564996));
#568=CARTESIAN_POINT('',(192.101498,2160.,2167.652603));
#569=CARTESIAN_POINT('',(162.427816666666,2160.,2167.68374830714));
#570=CARTESIAN_POINT('',(132.754135333333,2160.,2167.71489361428));
#571=CARTESIAN_POINT('',(103.080454,2160.,2167.74603892142));
#572=CARTESIAN_POINT('',(200.930676,2160.,2172.150486));
#573=CARTESIAN_POINT('',(197.987616666667,2160.,2170.65119166667));
#574=CARTESIAN_POINT('',(195.044557333333,2160.,2169.15189733333));
#575=CARTESIAN_POINT('',(192.101498,2160.,2167.652603));
#576=CARTESIAN_POINT('',(278.635004787565,2160.,2249.5));
#577=CARTESIAN_POINT('',(252.733561858377,2160.,2223.71682866667));
#578=CARTESIAN_POINT('',(226.832118929189,2160.,2197.93365733333));
#579=CARTESIAN_POINT('',(200.930676,2160.,2172.150486));
#580=CARTESIAN_POINT('',(297.405099,2160.,2249.5));
#581=CARTESIAN_POINT('',(297.40512429719,160.,2239.5787877896));
#582=CARTESIAN_POINT('',(297.40512429719,160.,2242.88581742324));
#583=CARTESIAN_POINT('',(297.405099,160.,2246.19297036637));
#584=CARTESIAN_POINT('',(297.405099,160.,2249.5));
#585=CARTESIAN_POINT('',(284.798817647866,160.,2235.02403372452));
#586=CARTESIAN_POINT('',(288.758332256597,160.,2237.12781652179));
#587=CARTESIAN_POINT('',(293.012890147616,160.,2238.67771222663));
#588=CARTESIAN_POINT('',(297.40512429719,160.,2239.5787877896));
#589=CARTESIAN_POINT('',(268.448575557742,160.,2217.53669974613));
#590=CARTESIAN_POINT('',(271.7698632031,160.,2224.95984223326));
#591=CARTESIAN_POINT('',(277.61729080076,160.,2231.20832040306));
#592=CARTESIAN_POINT('',(284.798817647866,160.,2235.02403372452));
#593=CARTESIAN_POINT('',(263.491562760813,160.,2207.60302185007));
#594=CARTESIAN_POINT('',(265.26818558641,160.,2210.8504095691));
#595=CARTESIAN_POINT('',(266.936808935119,160.,2214.15787194039));
#596=CARTESIAN_POINT('',(268.448575557742,160.,2217.53669974613));
#597=CARTESIAN_POINT('',(243.106414340979,160.,2187.74384896479));
#598=CARTESIAN_POINT('',(251.675467623992,160.,2192.14203421388));
#599=CARTESIAN_POINT('',(258.868660531834,160.,2199.15308204947));
#600=CARTESIAN_POINT('',(263.491562760813,160.,2207.60302185007));
#601=CARTESIAN_POINT('',(234.453368012439,160.,2183.61069242812));
#602=CARTESIAN_POINT('',(237.378635594328,160.,2184.9004689883));
#603=CARTESIAN_POINT('',(240.262193297924,160.,2186.28401313187));
#604=CARTESIAN_POINT('',(243.106414340979,160.,2187.74384896479));
#605=CARTESIAN_POINT('',(233.264441358717,160.,2179.37726978514));
#606=CARTESIAN_POINT('',(233.660750397241,160.,2180.78840971093));
#607=CARTESIAN_POINT('',(234.057058973914,160.,2182.19955250233));
#608=CARTESIAN_POINT('',(234.453368012439,160.,2183.61069242812));
#609=CARTESIAN_POINT('',(226.823361432463,160.,2177.93193609126));
#610=CARTESIAN_POINT('',(228.939035146621,160.,2178.54168002958));
#611=CARTESIAN_POINT('',(231.090706497911,160.000000000002,2179.02692753816));
#612=CARTESIAN_POINT('',(233.264441358717,160.,2179.37726978514));
#613=CARTESIAN_POINT('',(217.626093953526,160.,2172.5185593139));
#614=CARTESIAN_POINT('',(220.174268250847,160.,2175.05541631735));
#615=CARTESIAN_POINT('',(223.368311526397,160.000000000001,2176.93617964605));
#616=CARTESIAN_POINT('',(226.823361432463,160.,2177.93193609126));
#617=CARTESIAN_POINT('',(211.736825253909,160.,2159.85966544503));
#618=CARTESIAN_POINT('',(212.133122301472,160.,2164.64509951398));
#619=CARTESIAN_POINT('',(214.223149365236,160.,2169.13072834008));
#620=CARTESIAN_POINT('',(217.626093953526,160.,2172.5185593139));
#621=CARTESIAN_POINT('',(211.736825253909,160.,2156.564996));
#622=CARTESIAN_POINT('',(211.736825253909,160.,2157.66321914834));
#623=CARTESIAN_POINT('',(211.736825253909,160.,2158.76144229669));
#624=CARTESIAN_POINT('',(211.736825253909,160.,2159.85966544503));
#625=CARTESIAN_POINT('',(103.080454,160.,2156.564996));
#626=CARTESIAN_POINT('',(139.29924441797,160.,2156.564996));
#627=CARTESIAN_POINT('',(175.51803483594,160.,2156.564996));
#628=CARTESIAN_POINT('',(211.736825253909,160.,2156.564996));
#629=CARTESIAN_POINT('',(103.080454,160.,2167.74603892142));
#630=CARTESIAN_POINT('',(103.080454,160.,2164.01902461428));
#631=CARTESIAN_POINT('',(103.080454,160.,2160.29201030714));
#632=CARTESIAN_POINT('',(103.080454,160.,2156.564996));
#633=CARTESIAN_POINT('',(192.101498,160.,2167.652603));
#634=CARTESIAN_POINT('',(162.427816666666,160.,2167.68374830714));
#635=CARTESIAN_POINT('',(132.754135333333,160.,2167.71489361428));
#636=CARTESIAN_POINT('',(103.080454,160.,2167.74603892142));
#637=CARTESIAN_POINT('',(200.930676,160.,2172.150486));
#638=CARTESIAN_POINT('',(197.987616666667,160.,2170.65119166667));
#639=CARTESIAN_POINT('',(195.044557333333,160.,2169.15189733333));
#640=CARTESIAN_POINT('',(192.101498,160.,2167.652603));
#641=CARTESIAN_POINT('',(278.635004787565,160.,2249.5));
#642=CARTESIAN_POINT('',(252.733561858377,160.,2223.71682866667));
#643=CARTESIAN_POINT('',(226.832118929189,160.,2197.93365733333));
#644=CARTESIAN_POINT('',(200.930676,160.,2172.150486));
#645=CARTESIAN_POINT('',(297.405099,160.,2249.5));
#646=CARTESIAN_POINT('',(297.405099,2160.,2249.5));
#647=CARTESIAN_POINT('',(278.635004787565,2160.,2249.5));
#648=CARTESIAN_POINT('',(200.930676,2160.,2172.150486));
#649=CARTESIAN_POINT('',(192.101498,2160.,2167.652603));
#650=CARTESIAN_POINT('',(103.080454,2160.,2167.74603892142));
#651=CARTESIAN_POINT('',(103.080454,2160.,2156.564996));
#652=CARTESIAN_POINT('',(211.736825253909,2160.,2156.564996));
#653=CARTESIAN_POINT('',(211.736825253909,2160.,2159.85966544503));
#654=CARTESIAN_POINT('',(212.133122301472,2160.,2164.64509951398));
#655=CARTESIAN_POINT('',(214.223149365236,2160.,2169.13072834008));
#656=CARTESIAN_POINT('',(217.626093953526,2160.,2172.5185593139));
#657=CARTESIAN_POINT('',(217.626093953526,2160.,2172.5185593139));
#658=CARTESIAN_POINT('',(220.174268250847,2160.,2175.05541631735));
#659=CARTESIAN_POINT('',(223.368311526397,2160.,2176.93617964605));
#660=CARTESIAN_POINT('',(226.823361432463,2160.,2177.93193609126));
#661=CARTESIAN_POINT('',(226.823361432463,2160.,2177.93193609126));
#662=CARTESIAN_POINT('',(228.939035146621,2160.,2178.54168002958));
#663=CARTESIAN_POINT('',(231.090706497911,2160.,2179.02692753816));
#664=CARTESIAN_POINT('',(233.264441358717,2160.,2179.37726978514));
#665=CARTESIAN_POINT('',(233.264441358717,2160.,2179.37726978514));
#666=CARTESIAN_POINT('',(234.453368012439,2160.,2183.61069242812));
#667=CARTESIAN_POINT('',(237.378635594328,2160.,2184.9004689883));
#668=CARTESIAN_POINT('',(240.262193297924,2160.,2186.28401313187));
#669=CARTESIAN_POINT('',(243.106414340979,2160.,2187.74384896479));
#670=CARTESIAN_POINT('',(243.106414340979,2160.,2187.74384896479));
#671=CARTESIAN_POINT('',(251.675467623992,2160.,2192.14203421388));
#672=CARTESIAN_POINT('',(258.868660531834,2160.,2199.15308204947));
#673=CARTESIAN_POINT('',(263.491562760813,2160.,2207.60302185007));
#674=CARTESIAN_POINT('',(263.491562760813,2160.,2207.60302185007));
#675=CARTESIAN_POINT('',(265.26818558641,2160.,2210.8504095691));
#676=CARTESIAN_POINT('',(266.936808935119,2160.,2214.15787194039));
#677=CARTESIAN_POINT('',(268.448575557742,2160.,2217.53669974613));
#678=CARTESIAN_POINT('',(268.448575557742,2160.,2217.53669974613));
#679=CARTESIAN_POINT('',(271.7698632031,2160.,2224.95984223326));
#680=CARTESIAN_POINT('',(277.61729080076,2160.,2231.20832040306));
#681=CARTESIAN_POINT('',(284.798817647866,2160.,2235.02403372452));
#682=CARTESIAN_POINT('',(284.798817647866,2160.,2235.02403372452));
#683=CARTESIAN_POINT('',(288.758332256597,2160.,2237.12781652179));
#684=CARTESIAN_POINT('',(293.012890147616,2160.,2238.67771222663));
#685=CARTESIAN_POINT('',(297.40512429719,2160.,2239.5787877896));
#686=CARTESIAN_POINT('',(297.40512429719,2160.,2239.5787877896));
#687=CARTESIAN_POINT('',(297.40512429719,2160.,2242.88581742324));
#688=CARTESIAN_POINT('',(297.405099,2160.,2246.19297036637));
#689=CARTESIAN_POINT('',(297.405099,2160.,2249.5));
#690=CARTESIAN_POINT('',(213.553966775945,2160.,2166.71321354014));
#691=CARTESIAN_POINT('',(213.553966775945,160.,2166.71321354014));
#692=PRODUCT_DEFINITION_SHAPE('','',#693);
#693=PRODUCT_DEFINITION('','',#705,#710);
#694=(
GEOMETRIC_REPRESENTATION_CONTEXT(3)
GLOBAL_UNCERTAINTY_ASSIGNED_CONTEXT((#695))
GLOBAL_UNIT_ASSIGNED_CONTEXT((#697,#696,#700))
REPRESENTATION_CONTEXT('','')
);
#695=UNCERTAINTY_MEASURE_WITH_UNIT(LENGTH_MEASURE(0.001),#697,'','tolerance');
#696=(
CONVERSION_BASED_UNIT('',#698)
NAMED_UNIT(#704)
PLANE_ANGLE_UNIT()
);
#697=(
CONVERSION_BASED_UNIT('',#699)
LENGTH_UNIT()
NAMED_UNIT(#703)
);
#698=PLANE_ANGLE_MEASURE_WITH_UNIT(PLANE_ANGLE_MEASURE(0.0174532925199433),
#701);
#699=LENGTH_MEASURE_WITH_UNIT(LENGTH_MEASURE(1.),#702);
#700=(
NAMED_UNIT(*)
SI_UNIT($,.STERADIAN.)
SOLID_ANGLE_UNIT()
);
#701=(
NAMED_UNIT(*)
PLANE_ANGLE_UNIT()
SI_UNIT($,.RADIAN.)
);
#702=(
LENGTH_UNIT()
NAMED_UNIT(*)
SI_UNIT(.MILLI.,.METRE.)
);
#703=DIMENSIONAL_EXPONENTS(1.,0.,0.,0.,0.,0.,0.);
#704=DIMENSIONAL_EXPONENTS(0.,0.,0.,0.,0.,0.,0.);
#705=PRODUCT_DEFINITION_FORMATION_WITH_SPECIFIED_SOURCE('','',#708,.NOT_KNOWN.
);
#706=PRODUCT_CATEGORY_RELATIONSHIP('','',#711,#707);
#707=PRODUCT_RELATED_PRODUCT_CATEGORY('assembly','',(#708));
#708=PRODUCT('','master','',(#709));
#709=PRODUCT_CONTEXT('',#713,'');
#710=PRODUCT_DEFINITION_CONTEXT('',#713,'part_definition');
#711=PRODUCT_CATEGORY('part','');
#712=APPLICATION_PROTOCOL_DEFINITION('international standard',
'automotive_design_cc2',1994,#713);
#713=APPLICATION_CONTEXT(
'configuration controlled 3D designs of mechanical parts and assemblies');
ENDSEC;
END-ISO-10303-21;
37184