ISO-10303-21;
HEADER;
/* Generated by software using Delcam plc STEP library */

FILE_DESCRIPTION(
/* description */ ('AP-214 File'),
/* implementation_level */ '2;1');

FILE_NAME(
/* name */ 'D830',
/* time_stamp */ 'Sat Dec 24 08:58:20 2016',
/* author */ (''),
/* organization */ (''),
/* preprocessor_version */ 'DELCAM STEP V1',
/* originating_system */ 'Exchange7.1.0006',
/* authorisation */ '');

FILE_SCHEMA (('AUTOMOTIVE_DESIGN'));
ENDSEC;
DATA;
#10=PRESENTATION_STYLE_ASSIGNMENT((#20));
#11=PRESENTATION_STYLE_ASSIGNMENT((#21));
#12=SURFACE_SIDE_STYLE('',(#14));
#13=SURFACE_SIDE_STYLE('',(#15));
#14=SURFACE_STYLE_FILL_AREA(#16);
#15=SURFACE_STYLE_FILL_AREA(#17);
#16=FILL_AREA_STYLE('',(#18));
#17=FILL_AREA_STYLE('',(#19));
#18=FILL_AREA_STYLE_COLOUR('',#40);
#19=FILL_AREA_STYLE_COLOUR('',#41);
#20=SURFACE_STYLE_USAGE(.BOTH.,#12);
#21=SURFACE_STYLE_USAGE(.BOTH.,#13);
#22=STYLED_ITEM('',(#10),#54);
#23=STYLED_ITEM('',(#10),#55);
#24=STYLED_ITEM('',(#10),#56);
#25=STYLED_ITEM('',(#10),#57);
#26=STYLED_ITEM('',(#10),#58);
#27=STYLED_ITEM('',(#10),#59);
#28=STYLED_ITEM('',(#10),#60);
#29=STYLED_ITEM('',(#10),#61);
#30=STYLED_ITEM('',(#10),#62);
#31=STYLED_ITEM('',(#10),#63);
#32=STYLED_ITEM('',(#10),#64);
#33=STYLED_ITEM('',(#10),#65);
#34=STYLED_ITEM('',(#10),#66);
#35=STYLED_ITEM('',(#10),#67);
#36=STYLED_ITEM('',(#10),#68);
#37=STYLED_ITEM('',(#10),#69);
#38=STYLED_ITEM('',(#10),#70);
#39=STYLED_ITEM('',(#11),#47);
#40=COLOUR_RGB('',0.,0.,0.);
#41=COLOUR_RGB('rgb_colour_1',0.4,0.4,0.4);
#42=MECHANICAL_DESIGN_GEOMETRIC_PRESENTATION_REPRESENTATION('',(#22,#23,#24,
#25,#26,#27,#28,#29,#30,#31,#32,#33,#34,#35,#36,#37,#38,#39),#579);
#43=PRESENTATION_LAYER_ASSIGNMENT('89','D830',(#54,#55,#56,#57,#58,#59,#60,#61
,#62,#63,#64,#65,#66,#67,#68,#69,#70,#47));
#44=SHAPE_REPRESENTATION_RELATIONSHIP('','',#360,#45);
#45=ADVANCED_BREP_SHAPE_REPRESENTATION('',(#46),#579);
#46=MANIFOLD_SOLID_BREP('7131',#47);
#47=CLOSED_SHELL('',(#54,#55,#56,#57,#58,#59,#60,#61,#62,#63,#64,#65,#66,#67,
#68,#69,#70));
#48=CYLINDRICAL_SURFACE('',#376,30.0007146879121);
#49=CYLINDRICAL_SURFACE('',#380,64.163431024151);
#50=CYLINDRICAL_SURFACE('',#381,55.3064965055401);
#51=CYLINDRICAL_SURFACE('',#382,163.234533411871);
#52=CYLINDRICAL_SURFACE('',#383,40.8386333025892);
#53=CYLINDRICAL_SURFACE('',#384,98.723394541153);
#54=ADVANCED_FACE('',(#71),#195,.F.);
#55=ADVANCED_FACE('',(#72),#196,.F.);
#56=ADVANCED_FACE('',(#73),#48,.F.);
#57=ADVANCED_FACE('',(#74),#197,.F.);
#58=ADVANCED_FACE('',(#75),#198,.F.);
#59=ADVANCED_FACE('',(#76),#199,.F.);
#60=ADVANCED_FACE('',(#77),#49,.F.);
#61=ADVANCED_FACE('',(#78),#50,.F.);
#62=ADVANCED_FACE('',(#79),#51,.T.);
#63=ADVANCED_FACE('',(#80),#52,.T.);
#64=ADVANCED_FACE('',(#81),#53,.T.);
#65=ADVANCED_FACE('',(#82),#200,.F.);
#66=ADVANCED_FACE('',(#83),#201,.F.);
#67=ADVANCED_FACE('',(#84),#202,.F.);
#68=ADVANCED_FACE('',(#85),#203,.F.);
#69=ADVANCED_FACE('',(#86),#204,.F.);
#70=ADVANCED_FACE('',(#87),#205,.T.);
#71=FACE_OUTER_BOUND('',#88,.T.);
#72=FACE_OUTER_BOUND('',#89,.T.);
#73=FACE_OUTER_BOUND('',#90,.T.);
#74=FACE_OUTER_BOUND('',#91,.T.);
#75=FACE_OUTER_BOUND('',#92,.T.);
#76=FACE_OUTER_BOUND('',#93,.T.);
#77=FACE_OUTER_BOUND('',#94,.T.);
#78=FACE_OUTER_BOUND('',#95,.T.);
#79=FACE_OUTER_BOUND('',#96,.T.);
#80=FACE_OUTER_BOUND('',#97,.T.);
#81=FACE_OUTER_BOUND('',#98,.T.);
#82=FACE_OUTER_BOUND('',#99,.T.);
#83=FACE_OUTER_BOUND('',#100,.T.);
#84=FACE_OUTER_BOUND('',#101,.T.);
#85=FACE_OUTER_BOUND('',#102,.T.);
#86=FACE_OUTER_BOUND('',#103,.T.);
#87=FACE_OUTER_BOUND('',#104,.T.);
#88=EDGE_LOOP('',(#105,#106,#107,#108));
#89=EDGE_LOOP('',(#109,#110,#111,#112));
#90=EDGE_LOOP('',(#113,#114,#115,#116));
#91=EDGE_LOOP('',(#117,#118,#119,#120));
#92=EDGE_LOOP('',(#121,#122,#123,#124));
#93=EDGE_LOOP('',(#125,#126,#127,#128));
#94=EDGE_LOOP('',(#129,#130,#131,#132));
#95=EDGE_LOOP('',(#133,#134,#135,#136));
#96=EDGE_LOOP('',(#137,#138,#139,#140));
#97=EDGE_LOOP('',(#141,#142,#143,#144));
#98=EDGE_LOOP('',(#145,#146,#147,#148));
#99=EDGE_LOOP('',(#149,#150,#151,#152));
#100=EDGE_LOOP('',(#153,#154,#155,#156));
#101=EDGE_LOOP('',(#157,#158,#159,#160));
#102=EDGE_LOOP('',(#161,#162,#163,#164));
#103=EDGE_LOOP('',(#165,#166,#167,#168,#169,#170,#171,#172,#173,#174,#175,#176
,#177,#178,#179));
#104=EDGE_LOOP('',(#180,#181,#182,#183,#184,#185,#186,#187,#188,#189,#190,#191
,#192,#193,#194));
#105=ORIENTED_EDGE('',*,*,#262,.T.);
#106=ORIENTED_EDGE('',*,*,#218,.F.);
#107=ORIENTED_EDGE('',*,*,#247,.F.);
#108=ORIENTED_EDGE('',*,*,#232,.T.);
#109=ORIENTED_EDGE('',*,*,#261,.T.);
#110=ORIENTED_EDGE('',*,*,#219,.F.);
#111=ORIENTED_EDGE('',*,*,#246,.F.);
#112=ORIENTED_EDGE('',*,*,#218,.T.);
#113=ORIENTED_EDGE('',*,*,#260,.T.);
#114=ORIENTED_EDGE('',*,*,#220,.F.);
#115=ORIENTED_EDGE('',*,*,#245,.F.);
#116=ORIENTED_EDGE('',*,*,#219,.T.);
#117=ORIENTED_EDGE('',*,*,#259,.T.);
#118=ORIENTED_EDGE('',*,*,#221,.F.);
#119=ORIENTED_EDGE('',*,*,#244,.F.);
#120=ORIENTED_EDGE('',*,*,#220,.T.);
#121=ORIENTED_EDGE('',*,*,#258,.T.);
#122=ORIENTED_EDGE('',*,*,#222,.F.);
#123=ORIENTED_EDGE('',*,*,#243,.F.);
#124=ORIENTED_EDGE('',*,*,#221,.T.);
#125=ORIENTED_EDGE('',*,*,#257,.T.);
#126=ORIENTED_EDGE('',*,*,#223,.F.);
#127=ORIENTED_EDGE('',*,*,#242,.F.);
#128=ORIENTED_EDGE('',*,*,#222,.T.);
#129=ORIENTED_EDGE('',*,*,#256,.T.);
#130=ORIENTED_EDGE('',*,*,#224,.F.);
#131=ORIENTED_EDGE('',*,*,#241,.F.);
#132=ORIENTED_EDGE('',*,*,#223,.T.);
#133=ORIENTED_EDGE('',*,*,#255,.T.);
#134=ORIENTED_EDGE('',*,*,#225,.F.);
#135=ORIENTED_EDGE('',*,*,#240,.F.);
#136=ORIENTED_EDGE('',*,*,#224,.T.);
#137=ORIENTED_EDGE('',*,*,#254,.T.);
#138=ORIENTED_EDGE('',*,*,#226,.F.);
#139=ORIENTED_EDGE('',*,*,#239,.F.);
#140=ORIENTED_EDGE('',*,*,#225,.T.);
#141=ORIENTED_EDGE('',*,*,#253,.T.);
#142=ORIENTED_EDGE('',*,*,#227,.F.);
#143=ORIENTED_EDGE('',*,*,#238,.F.);
#144=ORIENTED_EDGE('',*,*,#226,.T.);
#145=ORIENTED_EDGE('',*,*,#252,.T.);
#146=ORIENTED_EDGE('',*,*,#228,.F.);
#147=ORIENTED_EDGE('',*,*,#237,.F.);
#148=ORIENTED_EDGE('',*,*,#227,.T.);
#149=ORIENTED_EDGE('',*,*,#251,.T.);
#150=ORIENTED_EDGE('',*,*,#229,.F.);
#151=ORIENTED_EDGE('',*,*,#236,.F.);
#152=ORIENTED_EDGE('',*,*,#228,.T.);
#153=ORIENTED_EDGE('',*,*,#250,.T.);
#154=ORIENTED_EDGE('',*,*,#230,.F.);
#155=ORIENTED_EDGE('',*,*,#235,.F.);
#156=ORIENTED_EDGE('',*,*,#229,.T.);
#157=ORIENTED_EDGE('',*,*,#249,.T.);
#158=ORIENTED_EDGE('',*,*,#231,.F.);
#159=ORIENTED_EDGE('',*,*,#234,.F.);
#160=ORIENTED_EDGE('',*,*,#230,.T.);
#161=ORIENTED_EDGE('',*,*,#248,.T.);
#162=ORIENTED_EDGE('',*,*,#232,.F.);
#163=ORIENTED_EDGE('',*,*,#233,.F.);
#164=ORIENTED_EDGE('',*,*,#231,.T.);
#165=ORIENTED_EDGE('',*,*,#247,.T.);
#166=ORIENTED_EDGE('',*,*,#246,.T.);
#167=ORIENTED_EDGE('',*,*,#245,.T.);
#168=ORIENTED_EDGE('',*,*,#244,.T.);
#169=ORIENTED_EDGE('',*,*,#243,.T.);
#170=ORIENTED_EDGE('',*,*,#242,.T.);
#171=ORIENTED_EDGE('',*,*,#241,.T.);
#172=ORIENTED_EDGE('',*,*,#240,.T.);
#173=ORIENTED_EDGE('',*,*,#239,.T.);
#174=ORIENTED_EDGE('',*,*,#238,.T.);
#175=ORIENTED_EDGE('',*,*,#237,.T.);
#176=ORIENTED_EDGE('',*,*,#236,.T.);
#177=ORIENTED_EDGE('',*,*,#235,.T.);
#178=ORIENTED_EDGE('',*,*,#234,.T.);
#179=ORIENTED_EDGE('',*,*,#233,.T.);
#180=ORIENTED_EDGE('',*,*,#262,.F.);
#181=ORIENTED_EDGE('',*,*,#248,.F.);
#182=ORIENTED_EDGE('',*,*,#249,.F.);
#183=ORIENTED_EDGE('',*,*,#250,.F.);
#184=ORIENTED_EDGE('',*,*,#251,.F.);
#185=ORIENTED_EDGE('',*,*,#252,.F.);
#186=ORIENTED_EDGE('',*,*,#253,.F.);
#187=ORIENTED_EDGE('',*,*,#254,.F.);
#188=ORIENTED_EDGE('',*,*,#255,.F.);
#189=ORIENTED_EDGE('',*,*,#256,.F.);
#190=ORIENTED_EDGE('',*,*,#257,.F.);
#191=ORIENTED_EDGE('',*,*,#258,.F.);
#192=ORIENTED_EDGE('',*,*,#259,.F.);
#193=ORIENTED_EDGE('',*,*,#260,.F.);
#194=ORIENTED_EDGE('',*,*,#261,.F.);
#195=PLANE('',#374);
#196=PLANE('',#375);
#197=PLANE('',#377);
#198=PLANE('',#378);
#199=PLANE('',#379);
#200=PLANE('',#385);
#201=PLANE('',#386);
#202=PLANE('',#387);
#203=PLANE('',#388);
#204=PLANE('',#389);
#205=PLANE('',#390);
#206=CIRCLE('',#362,98.723394541153);
#207=CIRCLE('',#363,40.8386333025892);
#208=CIRCLE('',#364,163.234533411871);
#209=CIRCLE('',#365,55.3064965055401);
#210=CIRCLE('',#366,64.163431024151);
#211=CIRCLE('',#367,30.0007146879121);
#212=CIRCLE('',#368,98.723394541153);
#213=CIRCLE('',#369,40.8386333025892);
#214=CIRCLE('',#370,163.234533411871);
#215=CIRCLE('',#371,55.3064965055401);
#216=CIRCLE('',#372,64.163431024151);
#217=CIRCLE('',#373,30.0007146879121);
#218=EDGE_CURVE('',#343,#358,#263,.T.);
#219=EDGE_CURVE('',#342,#357,#264,.T.);
#220=EDGE_CURVE('',#341,#356,#265,.T.);
#221=EDGE_CURVE('',#340,#355,#266,.T.);
#222=EDGE_CURVE('',#339,#354,#267,.T.);
#223=EDGE_CURVE('',#338,#353,#268,.T.);
#224=EDGE_CURVE('',#337,#352,#269,.T.);
#225=EDGE_CURVE('',#336,#351,#270,.T.);
#226=EDGE_CURVE('',#335,#350,#271,.T.);
#227=EDGE_CURVE('',#334,#349,#272,.T.);
#228=EDGE_CURVE('',#333,#348,#273,.T.);
#229=EDGE_CURVE('',#332,#347,#274,.T.);
#230=EDGE_CURVE('',#331,#346,#275,.T.);
#231=EDGE_CURVE('',#330,#345,#276,.T.);
#232=EDGE_CURVE('',#329,#344,#277,.T.);
#233=EDGE_CURVE('',#330,#329,#278,.T.);
#234=EDGE_CURVE('',#331,#330,#279,.T.);
#235=EDGE_CURVE('',#332,#331,#280,.T.);
#236=EDGE_CURVE('',#333,#332,#281,.T.);
#237=EDGE_CURVE('',#334,#333,#206,.T.);
#238=EDGE_CURVE('',#335,#334,#207,.T.);
#239=EDGE_CURVE('',#336,#335,#208,.T.);
#240=EDGE_CURVE('',#337,#336,#209,.T.);
#241=EDGE_CURVE('',#338,#337,#210,.T.);
#242=EDGE_CURVE('',#339,#338,#282,.T.);
#243=EDGE_CURVE('',#340,#339,#283,.T.);
#244=EDGE_CURVE('',#341,#340,#284,.T.);
#245=EDGE_CURVE('',#342,#341,#211,.T.);
#246=EDGE_CURVE('',#343,#342,#285,.T.);
#247=EDGE_CURVE('',#329,#343,#286,.T.);
#248=EDGE_CURVE('',#345,#344,#287,.T.);
#249=EDGE_CURVE('',#346,#345,#288,.T.);
#250=EDGE_CURVE('',#347,#346,#289,.T.);
#251=EDGE_CURVE('',#348,#347,#290,.T.);
#252=EDGE_CURVE('',#349,#348,#212,.T.);
#253=EDGE_CURVE('',#350,#349,#213,.T.);
#254=EDGE_CURVE('',#351,#350,#214,.T.);
#255=EDGE_CURVE('',#352,#351,#215,.T.);
#256=EDGE_CURVE('',#353,#352,#216,.T.);
#257=EDGE_CURVE('',#354,#353,#291,.T.);
#258=EDGE_CURVE('',#355,#354,#292,.T.);
#259=EDGE_CURVE('',#356,#355,#293,.T.);
#260=EDGE_CURVE('',#357,#356,#217,.T.);
#261=EDGE_CURVE('',#358,#357,#294,.T.);
#262=EDGE_CURVE('',#344,#358,#295,.T.);
#263=LINE('',#515,#296);
#264=LINE('',#516,#297);
#265=LINE('',#517,#298);
#266=LINE('',#518,#299);
#267=LINE('',#519,#300);
#268=LINE('',#520,#301);
#269=LINE('',#521,#302);
#270=LINE('',#522,#303);
#271=LINE('',#523,#304);
#272=LINE('',#524,#305);
#273=LINE('',#525,#306);
#274=LINE('',#526,#307);
#275=LINE('',#527,#308);
#276=LINE('',#528,#309);
#277=LINE('',#529,#310);
#278=LINE('',#530,#311);
#279=LINE('',#531,#312);
#280=LINE('',#532,#313);
#281=LINE('',#533,#314);
#282=LINE('',#539,#315);
#283=LINE('',#540,#316);
#284=LINE('',#541,#317);
#285=LINE('',#543,#318);
#286=LINE('',#544,#319);
#287=LINE('',#545,#320);
#288=LINE('',#546,#321);
#289=LINE('',#547,#322);
#290=LINE('',#548,#323);
#291=LINE('',#554,#324);
#292=LINE('',#555,#325);
#293=LINE('',#556,#326);
#294=LINE('',#558,#327);
#295=LINE('',#559,#328);
#296=VECTOR('',#393,1.);
#297=VECTOR('',#394,1.);
#298=VECTOR('',#395,1.);
#299=VECTOR('',#396,1.);
#300=VECTOR('',#397,1.);
#301=VECTOR('',#398,1.);
#302=VECTOR('',#399,1.);
#303=VECTOR('',#400,1.);
#304=VECTOR('',#401,1.);
#305=VECTOR('',#402,1.);
#306=VECTOR('',#403,1.);
#307=VECTOR('',#404,1.);
#308=VECTOR('',#405,1.);
#309=VECTOR('',#406,1.);
#310=VECTOR('',#407,1.);
#311=VECTOR('',#408,1.);
#312=VECTOR('',#409,1.);
#313=VECTOR('',#410,1.);
#314=VECTOR('',#411,1.);
#315=VECTOR('',#422,1.);
#316=VECTOR('',#423,1.);
#317=VECTOR('',#424,1.);
#318=VECTOR('',#427,1.);
#319=VECTOR('',#428,1.);
#320=VECTOR('',#429,1.);
#321=VECTOR('',#430,1.);
#322=VECTOR('',#431,1.);
#323=VECTOR('',#432,1.);
#324=VECTOR('',#443,1.);
#325=VECTOR('',#444,1.);
#326=VECTOR('',#445,1.);
#327=VECTOR('',#448,1.);
#328=VECTOR('',#449,1.);
#329=VERTEX_POINT('',#485);
#330=VERTEX_POINT('',#486);
#331=VERTEX_POINT('',#487);
#332=VERTEX_POINT('',#488);
#333=VERTEX_POINT('',#489);
#334=VERTEX_POINT('',#490);
#335=VERTEX_POINT('',#491);
#336=VERTEX_POINT('',#492);
#337=VERTEX_POINT('',#493);
#338=VERTEX_POINT('',#494);
#339=VERTEX_POINT('',#495);
#340=VERTEX_POINT('',#496);
#341=VERTEX_POINT('',#497);
#342=VERTEX_POINT('',#498);
#343=VERTEX_POINT('',#499);
#344=VERTEX_POINT('',#500);
#345=VERTEX_POINT('',#501);
#346=VERTEX_POINT('',#502);
#347=VERTEX_POINT('',#503);
#348=VERTEX_POINT('',#504);
#349=VERTEX_POINT('',#505);
#350=VERTEX_POINT('',#506);
#351=VERTEX_POINT('',#507);
#352=VERTEX_POINT('',#508);
#353=VERTEX_POINT('',#509);
#354=VERTEX_POINT('',#510);
#355=VERTEX_POINT('',#511);
#356=VERTEX_POINT('',#512);
#357=VERTEX_POINT('',#513);
#358=VERTEX_POINT('',#514);
#359=SHAPE_DEFINITION_REPRESENTATION(#577,#360);
#360=SHAPE_REPRESENTATION('master',(#361),#579);
#361=AXIS2_PLACEMENT_3D('',#484,#392,#391);
#362=AXIS2_PLACEMENT_3D('',#534,#413,#412);
#363=AXIS2_PLACEMENT_3D('',#535,#415,#414);
#364=AXIS2_PLACEMENT_3D('',#536,#417,#416);
#365=AXIS2_PLACEMENT_3D('',#537,#419,#418);
#366=AXIS2_PLACEMENT_3D('',#538,#421,#420);
#367=AXIS2_PLACEMENT_3D('',#542,#426,#425);
#368=AXIS2_PLACEMENT_3D('',#549,#434,#433);
#369=AXIS2_PLACEMENT_3D('',#550,#436,#435);
#370=AXIS2_PLACEMENT_3D('',#551,#438,#437);
#371=AXIS2_PLACEMENT_3D('',#552,#440,#439);
#372=AXIS2_PLACEMENT_3D('',#553,#442,#441);
#373=AXIS2_PLACEMENT_3D('',#557,#447,#446);
#374=AXIS2_PLACEMENT_3D('',#560,#451,#450);
#375=AXIS2_PLACEMENT_3D('',#561,#453,#452);
#376=AXIS2_PLACEMENT_3D('',#562,#455,#454);
#377=AXIS2_PLACEMENT_3D('',#563,#457,#456);
#378=AXIS2_PLACEMENT_3D('',#564,#459,#458);
#379=AXIS2_PLACEMENT_3D('',#565,#461,#460);
#380=AXIS2_PLACEMENT_3D('',#566,#463,#462);
#381=AXIS2_PLACEMENT_3D('',#567,#465,#464);
#382=AXIS2_PLACEMENT_3D('',#568,#467,#466);
#383=AXIS2_PLACEMENT_3D('',#569,#469,#468);
#384=AXIS2_PLACEMENT_3D('',#570,#471,#470);
#385=AXIS2_PLACEMENT_3D('',#571,#473,#472);
#386=AXIS2_PLACEMENT_3D('',#572,#475,#474);
#387=AXIS2_PLACEMENT_3D('',#573,#477,#476);
#388=AXIS2_PLACEMENT_3D('',#574,#479,#478);
#389=AXIS2_PLACEMENT_3D('',#575,#481,#480);
#390=AXIS2_PLACEMENT_3D('',#576,#483,#482);
#391=DIRECTION('',(1.,0.,0.));
#392=DIRECTION('',(0.,0.,1.));
#393=DIRECTION('',(-0.,-1.,-0.));
#394=DIRECTION('',(-0.,-1.,-0.));
#395=DIRECTION('',(-0.,-1.,-0.));
#396=DIRECTION('',(-0.,-1.,-0.));
#397=DIRECTION('',(-0.,-1.,-0.));
#398=DIRECTION('',(-0.,-1.,-0.));
#399=DIRECTION('',(-0.,-1.,-0.));
#400=DIRECTION('',(-0.,-1.,-0.));
#401=DIRECTION('',(-0.,-1.,-0.));
#402=DIRECTION('',(-0.,-1.,-0.));
#403=DIRECTION('',(-0.,-1.,-0.));
#404=DIRECTION('',(-0.,-1.,-0.));
#405=DIRECTION('',(-0.,-1.,-0.));
#406=DIRECTION('',(-0.,-1.,-0.));
#407=DIRECTION('',(-0.,-1.,-0.));
#408=DIRECTION('',(-0.985049039723974,-0.,-0.172274169099365));
#409=DIRECTION('',(-0.111794740504468,-0.,-0.993731319822184));
#410=DIRECTION('',(-0.995158077455689,-0.,-0.0982873383233906));
#411=DIRECTION('',(-0.218029696348533,-0.,-0.975942135328815));
#412=DIRECTION('',(0.11851074551793,0.,-0.992952769872155));
#413=DIRECTION('',(0.,1.,0.));
#414=DIRECTION('',(0.90205230069884,0.,-0.431626744773688));
#415=DIRECTION('',(0.,1.,0.));
#416=DIRECTION('',(0.944055966615875,0.,-0.329785281504444));
#417=DIRECTION('',(0.,1.,0.));
#418=DIRECTION('',(-0.539085956436612,0.,0.842250753382165));
#419=DIRECTION('',(0.,-1.,0.));
#420=DIRECTION('',(-0.110075179367291,0.,0.993923264083933));
#421=DIRECTION('',(0.,-1.,0.));
#422=DIRECTION('',(-0.0958733798004111,0.,-0.995393537775711));
#423=DIRECTION('',(1.,-0.,-0.));
#424=DIRECTION('',(0.492057261125617,-0.,0.870562836200557));
#425=DIRECTION('',(0.194618822395159,0.,-0.980878949702521));
#426=DIRECTION('',(0.,-1.,0.));
#427=DIRECTION('',(0.980878949702522,0.,0.194618822395158));
#428=DIRECTION('',(-0.,-0.,1.));
#429=DIRECTION('',(-0.985049039723974,-0.,-0.172274169099365));
#430=DIRECTION('',(-0.111794740504468,-0.,-0.993731319822184));
#431=DIRECTION('',(-0.995158077455689,-0.,-0.0982873383233906));
#432=DIRECTION('',(-0.218029696348533,-0.,-0.975942135328815));
#433=DIRECTION('',(0.11851074551793,0.,-0.992952769872155));
#434=DIRECTION('',(0.,1.,0.));
#435=DIRECTION('',(0.90205230069884,0.,-0.431626744773688));
#436=DIRECTION('',(0.,1.,0.));
#437=DIRECTION('',(0.944055966615875,0.,-0.329785281504444));
#438=DIRECTION('',(0.,1.,0.));
#439=DIRECTION('',(-0.539085956436612,0.,0.842250753382165));
#440=DIRECTION('',(0.,-1.,0.));
#441=DIRECTION('',(-0.110075179367291,0.,0.993923264083933));
#442=DIRECTION('',(0.,-1.,0.));
#443=DIRECTION('',(-0.0958733798004111,0.,-0.995393537775711));
#444=DIRECTION('',(1.,-0.,-0.));
#445=DIRECTION('',(0.492057261125617,-0.,0.870562836200557));
#446=DIRECTION('',(0.194618822395159,0.,-0.980878949702521));
#447=DIRECTION('',(0.,-1.,0.));
#448=DIRECTION('',(0.980878949702522,0.,0.194618822395158));
#449=DIRECTION('',(-0.,-0.,1.));
#450=DIRECTION('',(0.,0.,-1.));
#451=DIRECTION('',(1.,-0.,0.));
#452=DIRECTION('',(-0.980878949702522,0.,-0.194618822395158));
#453=DIRECTION('',(0.194618822395158,0.,-0.980878949702522));
#454=DIRECTION('',(0.,0.,-1.));
#455=DIRECTION('',(-0.,-1.,-0.));
#456=DIRECTION('',(-0.492057261125617,0.,-0.870562836200557));
#457=DIRECTION('',(0.870562836200557,0.,-0.492057261125617));
#458=DIRECTION('',(-1.,0.,0.));
#459=DIRECTION('',(0.,0.,-1.));
#460=DIRECTION('',(0.0958733798004111,0.,0.995393537775711));
#461=DIRECTION('',(-0.995393537775711,0.,0.0958733798004111));
#462=DIRECTION('',(0.,0.,-1.));
#463=DIRECTION('',(-0.,-1.,-0.));
#464=DIRECTION('',(0.,0.,-1.));
#465=DIRECTION('',(-0.,-1.,-0.));
#466=DIRECTION('',(0.,0.,-1.));
#467=DIRECTION('',(-0.,-1.,-0.));
#468=DIRECTION('',(0.,0.,-1.));
#469=DIRECTION('',(-0.,-1.,-0.));
#470=DIRECTION('',(0.,0.,-1.));
#471=DIRECTION('',(-0.,-1.,-0.));
#472=DIRECTION('',(0.218029696348533,0.,0.975942135328815));
#473=DIRECTION('',(-0.975942135328815,0.,0.218029696348533));
#474=DIRECTION('',(0.995158077455689,0.,0.0982873383233906));
#475=DIRECTION('',(-0.0982873383233906,0.,0.995158077455689));
#476=DIRECTION('',(0.111794740504468,0.,0.993731319822184));
#477=DIRECTION('',(-0.993731319822184,0.,0.111794740504468));
#478=DIRECTION('',(0.985049039723974,0.,0.172274169099365));
#479=DIRECTION('',(-0.172274169099365,0.,0.985049039723974));
#480=DIRECTION('',(0.,0.,-1.));
#481=DIRECTION('',(0.,-1.,0.));
#482=DIRECTION('',(0.,0.,-1.));
#483=DIRECTION('',(0.,-1.,0.));
#484=CARTESIAN_POINT('',(0.,0.,0.));
#485=CARTESIAN_POINT('',(103.080454,2160.,2144.986966));
#486=CARTESIAN_POINT('',(112.234527,2160.,2146.587912));
#487=CARTESIAN_POINT('',(113.082086,2160.,2154.121772));
#488=CARTESIAN_POINT('',(120.71012,2160.,2154.875159));
#489=CARTESIAN_POINT('',(122.687759000001,2160.,2163.727445));
#490=CARTESIAN_POINT('',(138.137542087138,2160.,2164.35192405078));
#491=CARTESIAN_POINT('',(170.136308336512,2160.,2187.27571175297));
#492=CARTESIAN_POINT('',(176.992757144067,2160.,2203.89975549171));
#493=CARTESIAN_POINT('',(199.390229596895,2160.,2232.24242532133));
#494=CARTESIAN_POINT('',(226.917033,2160.,2241.974254));
#495=CARTESIAN_POINT('',(227.641890734311,2160.,2249.5));
#496=CARTESIAN_POINT('',(192.200839030707,2160.,2249.5));
#497=CARTESIAN_POINT('',(159.870049933768,2160.,2192.29937381994));
#498=CARTESIAN_POINT('',(139.591246430591,2160.,2177.63437380768));
#499=CARTESIAN_POINT('',(103.080454,2160.,2170.39016958685));
#500=CARTESIAN_POINT('',(103.080454,160.,2144.986966));
#501=CARTESIAN_POINT('',(112.234527,160.,2146.587912));
#502=CARTESIAN_POINT('',(113.082086,160.,2154.121772));
#503=CARTESIAN_POINT('',(120.71012,160.,2154.875159));
#504=CARTESIAN_POINT('',(122.687759000001,160.,2163.727445));
#505=CARTESIAN_POINT('',(138.137542087138,160.,2164.35192405078));
#506=CARTESIAN_POINT('',(170.136308336512,160.,2187.27571175297));
#507=CARTESIAN_POINT('',(176.992757144067,160.,2203.89975549171));
#508=CARTESIAN_POINT('',(199.390229596895,160.,2232.24242532133));
#509=CARTESIAN_POINT('',(226.917033,160.,2241.974254));
#510=CARTESIAN_POINT('',(227.641890734311,160.,2249.5));
#511=CARTESIAN_POINT('',(192.200839030707,160.,2249.5));
#512=CARTESIAN_POINT('',(159.870049933768,160.,2192.29937381994));
#513=CARTESIAN_POINT('',(139.591246430591,160.,2177.63437380768));
#514=CARTESIAN_POINT('',(103.080454,160.,2170.39016958685));
#515=CARTESIAN_POINT('',(103.080454,2160.,2170.39016958685));
#516=CARTESIAN_POINT('',(139.591246430591,2160.,2177.63437380768));
#517=CARTESIAN_POINT('',(159.870049933768,2160.,2192.29937381994));
#518=CARTESIAN_POINT('',(192.200839030707,2160.,2249.5));
#519=CARTESIAN_POINT('',(227.641890734311,2160.,2249.5));
#520=CARTESIAN_POINT('',(226.917033,2160.,2241.974254));
#521=CARTESIAN_POINT('',(199.390229596895,2160.,2232.24242532133));
#522=CARTESIAN_POINT('',(176.992757144067,2160.,2203.89975549171));
#523=CARTESIAN_POINT('',(170.136308336512,2160.,2187.27571175297));
#524=CARTESIAN_POINT('',(138.137542087138,2160.,2164.35192405078));
#525=CARTESIAN_POINT('',(122.687759000001,2160.,2163.727445));
#526=CARTESIAN_POINT('',(120.71012,2160.,2154.875159));
#527=CARTESIAN_POINT('',(113.082086,2160.,2154.121772));
#528=CARTESIAN_POINT('',(112.234527,2160.,2146.587912));
#529=CARTESIAN_POINT('',(103.080454,2160.,2144.986966));
#530=CARTESIAN_POINT('',(112.234527,2160.,2146.587912));
#531=CARTESIAN_POINT('',(113.082086,2160.,2154.121772));
#532=CARTESIAN_POINT('',(120.71012,2160.,2154.875159));
#533=CARTESIAN_POINT('',(122.687759000001,2160.,2163.727445));
#534=CARTESIAN_POINT('',(126.437759000005,2160.,2262.3795921116));
#535=CARTESIAN_POINT('',(133.297725208515,2160.,2204.90275810638));
#536=CARTESIAN_POINT('',(22.8902219188319,2160.,2257.73210204419));
#537=CARTESIAN_POINT('',(229.205185162743,2160.,2185.66048697261));
#538=CARTESIAN_POINT('',(233.979834178804,2160.,2178.20072720165));
#539=CARTESIAN_POINT('',(227.641890734311,2160.,2249.5));
#540=CARTESIAN_POINT('',(192.200839030707,2160.,2249.5));
#541=CARTESIAN_POINT('',(159.870049933768,2160.,2192.29937381994));
#542=CARTESIAN_POINT('',(133.752542667016,2160.,2207.06144332108));
#543=CARTESIAN_POINT('',(103.080454,2160.,2170.39016958685));
#544=CARTESIAN_POINT('',(103.080454,2160.,2144.986966));
#545=CARTESIAN_POINT('',(112.234527,160.,2146.587912));
#546=CARTESIAN_POINT('',(113.082086,160.,2154.121772));
#547=CARTESIAN_POINT('',(120.71012,160.,2154.875159));
#548=CARTESIAN_POINT('',(122.687759000001,160.,2163.727445));
#549=CARTESIAN_POINT('',(126.437759000005,160.,2262.3795921116));
#550=CARTESIAN_POINT('',(133.297725208515,160.,2204.90275810638));
#551=CARTESIAN_POINT('',(22.8902219188319,160.,2257.73210204419));
#552=CARTESIAN_POINT('',(229.205185162743,160.,2185.66048697261));
#553=CARTESIAN_POINT('',(233.979834178804,160.,2178.20072720165));
#554=CARTESIAN_POINT('',(227.641890734311,160.,2249.5));
#555=CARTESIAN_POINT('',(192.200839030707,160.,2249.5));
#556=CARTESIAN_POINT('',(159.870049933768,160.,2192.29937381994));
#557=CARTESIAN_POINT('',(133.752542667016,160.,2207.06144332108));
#558=CARTESIAN_POINT('',(103.080454,160.,2170.39016958685));
#559=CARTESIAN_POINT('',(103.080454,160.,2144.986966));
#560=CARTESIAN_POINT('',(103.080454,2160.,2144.986966));
#561=CARTESIAN_POINT('',(103.080454,2160.,2170.39016958685));
#562=CARTESIAN_POINT('',(133.752542667016,2160.,2207.06144332108));
#563=CARTESIAN_POINT('',(159.870049933768,2160.,2192.29937381994));
#564=CARTESIAN_POINT('',(192.200839030707,2160.,2249.5));
#565=CARTESIAN_POINT('',(227.641890734311,2160.,2249.5));
#566=CARTESIAN_POINT('',(233.979834178804,2160.,2178.20072720165));
#567=CARTESIAN_POINT('',(229.205185162743,2160.,2185.66048697261));
#568=CARTESIAN_POINT('',(22.8902219188319,2160.,2257.73210204419));
#569=CARTESIAN_POINT('',(133.297725208515,2160.,2204.90275810638));
#570=CARTESIAN_POINT('',(126.437759000005,2160.,2262.3795921116));
#571=CARTESIAN_POINT('',(122.687759000001,2160.,2163.727445));
#572=CARTESIAN_POINT('',(120.71012,2160.,2154.875159));
#573=CARTESIAN_POINT('',(113.082086,2160.,2154.121772));
#574=CARTESIAN_POINT('',(112.234527,2160.,2146.587912));
#575=CARTESIAN_POINT('',(133.752542667016,2160.,2207.06144332108));
#576=CARTESIAN_POINT('',(133.752542667016,160.,2207.06144332108));
#577=PRODUCT_DEFINITION_SHAPE('','',#578);
#578=PRODUCT_DEFINITION('','',#590,#595);
#579=(
GEOMETRIC_REPRESENTATION_CONTEXT(3)
GLOBAL_UNCERTAINTY_ASSIGNED_CONTEXT((#580))
GLOBAL_UNIT_ASSIGNED_CONTEXT((#582,#581,#585))
REPRESENTATION_CONTEXT('','')
);
#580=UNCERTAINTY_MEASURE_WITH_UNIT(LENGTH_MEASURE(0.001),#582,'','tolerance');
#581=(
CONVERSION_BASED_UNIT('',#583)
NAMED_UNIT(#589)
PLANE_ANGLE_UNIT()
);
#582=(
CONVERSION_BASED_UNIT('',#584)
LENGTH_UNIT()
NAMED_UNIT(#588)
);
#583=PLANE_ANGLE_MEASURE_WITH_UNIT(PLANE_ANGLE_MEASURE(0.0174532925199433),
#586);
#584=LENGTH_MEASURE_WITH_UNIT(LENGTH_MEASURE(1.),#587);
#585=(
NAMED_UNIT(*)
SI_UNIT($,.STERADIAN.)
SOLID_ANGLE_UNIT()
);
#586=(
NAMED_UNIT(*)
PLANE_ANGLE_UNIT()
SI_UNIT($,.RADIAN.)
);
#587=(
LENGTH_UNIT()
NAMED_UNIT(*)
SI_UNIT(.MILLI.,.METRE.)
);
#588=DIMENSIONAL_EXPONENTS(1.,0.,0.,0.,0.,0.,0.);
#589=DIMENSIONAL_EXPONENTS(0.,0.,0.,0.,0.,0.,0.);
#590=PRODUCT_DEFINITION_FORMATION_WITH_SPECIFIED_SOURCE('','',#593,.NOT_KNOWN.
);
#591=PRODUCT_CATEGORY_RELATIONSHIP('','',#596,#592);
#592=PRODUCT_RELATED_PRODUCT_CATEGORY('assembly','',(#593));
#593=PRODUCT('','master','',(#594));
#594=PRODUCT_CONTEXT('',#598,'');
#595=PRODUCT_DEFINITION_CONTEXT('',#598,'part_definition');
#596=PRODUCT_CATEGORY('part','');
#597=APPLICATION_PROTOCOL_DEFINITION('international standard',
'automotive_design_cc2',1994,#598);
#598=APPLICATION_CONTEXT(
'configuration controlled 3D designs of mechanical parts and assemblies');
ENDSEC;
END-ISO-10303-21;
26241