ISO-10303-21;
HEADER;
/* Generated by software using Delcam plc STEP library */

FILE_DESCRIPTION(
/* description */ ('AP-214 File'),
/* implementation_level */ '2;1');

FILE_NAME(
/* name */ 'D835',
/* time_stamp */ 'Tue Sep 13 14:29:12 2016',
/* author */ (''),
/* organization */ (''),
/* preprocessor_version */ 'DELCAM STEP V1',
/* originating_system */ 'Exchange7.1.0006',
/* authorisation */ '');

FILE_SCHEMA (('AUTOMOTIVE_DESIGN'));
ENDSEC;
DATA;
#10=PRESENTATION_STYLE_ASSIGNMENT((#20));
#11=PRESENTATION_STYLE_ASSIGNMENT((#21));
#12=SURFACE_SIDE_STYLE('',(#14));
#13=SURFACE_SIDE_STYLE('',(#15));
#14=SURFACE_STYLE_FILL_AREA(#16);
#15=SURFACE_STYLE_FILL_AREA(#17);
#16=FILL_AREA_STYLE('',(#18));
#17=FILL_AREA_STYLE('',(#19));
#18=FILL_AREA_STYLE_COLOUR('',#58);
#19=FILL_AREA_STYLE_COLOUR('',#59);
#20=SURFACE_STYLE_USAGE(.BOTH.,#12);
#21=SURFACE_STYLE_USAGE(.BOTH.,#13);
#22=STYLED_ITEM('',(#10),#75);
#23=STYLED_ITEM('',(#10),#76);
#24=STYLED_ITEM('',(#10),#77);
#25=STYLED_ITEM('',(#10),#78);
#26=STYLED_ITEM('',(#10),#79);
#27=STYLED_ITEM('',(#10),#80);
#28=STYLED_ITEM('',(#10),#81);
#29=STYLED_ITEM('',(#10),#82);
#30=STYLED_ITEM('',(#10),#83);
#31=STYLED_ITEM('',(#10),#84);
#32=STYLED_ITEM('',(#10),#85);
#33=STYLED_ITEM('',(#10),#86);
#34=STYLED_ITEM('',(#10),#87);
#35=STYLED_ITEM('',(#10),#88);
#36=STYLED_ITEM('',(#10),#89);
#37=STYLED_ITEM('',(#10),#90);
#38=STYLED_ITEM('',(#10),#91);
#39=STYLED_ITEM('',(#10),#92);
#40=STYLED_ITEM('',(#10),#93);
#41=STYLED_ITEM('',(#10),#94);
#42=STYLED_ITEM('',(#10),#95);
#43=STYLED_ITEM('',(#10),#96);
#44=STYLED_ITEM('',(#10),#97);
#45=STYLED_ITEM('',(#10),#98);
#46=STYLED_ITEM('',(#10),#99);
#47=STYLED_ITEM('',(#10),#100);
#48=STYLED_ITEM('',(#10),#101);
#49=STYLED_ITEM('',(#10),#102);
#50=STYLED_ITEM('',(#10),#103);
#51=STYLED_ITEM('',(#10),#104);
#52=STYLED_ITEM('',(#10),#105);
#53=STYLED_ITEM('',(#10),#106);
#54=STYLED_ITEM('',(#10),#107);
#55=STYLED_ITEM('',(#10),#108);
#56=STYLED_ITEM('',(#10),#109);
#57=STYLED_ITEM('',(#11),#65);
#58=COLOUR_RGB('',0.,0.,0.);
#59=COLOUR_RGB('rgb_colour_1',0.4,0.4,0.4);
#60=MECHANICAL_DESIGN_GEOMETRIC_PRESENTATION_REPRESENTATION('',(#22,#23,#24,
#25,#26,#27,#28,#29,#30,#31,#32,#33,#34,#35,#36,#37,#38,#39,#40,#41,#42,#43,
#44,#45,#46,#47,#48,#49,#50,#51,#52,#53,#54,#55,#56,#57),#1197);
#61=PRESENTATION_LAYER_ASSIGNMENT('7','D835',(#75,#76,#77,#78,#79,#80,#81,#82,
#83,#84,#85,#86,#87,#88,#89,#90,#91,#92,#93,#94,#95,#96,#97,#98,#99,#100,#101,
#102,#103,#104,#105,#106,#107,#108,#109,#65));
#62=SHAPE_REPRESENTATION_RELATIONSHIP('','',#750,#63);
#63=ADVANCED_BREP_SHAPE_REPRESENTATION('',(#64),#1197);
#64=MANIFOLD_SOLID_BREP('940',#65);
#65=CLOSED_SHELL('',(#75,#76,#77,#78,#79,#80,#81,#82,#83,#84,#85,#86,#87,#88,
#89,#90,#91,#92,#93,#94,#95,#96,#97,#98,#99,#100,#101,#102,#103,#104,#105,#106
,#107,#108,#109));
#66=CYLINDRICAL_SURFACE('',#771,17.1864516298789);
#67=CYLINDRICAL_SURFACE('',#776,3.2975582944682);
#68=CYLINDRICAL_SURFACE('',#780,7.7502797998592);
#69=CYLINDRICAL_SURFACE('',#782,4.68935048855804);
#70=CYLINDRICAL_SURFACE('',#783,0.999999999997531);
#71=CYLINDRICAL_SURFACE('',#785,82.8775315107883);
#72=CYLINDRICAL_SURFACE('',#786,14.9448302782325);
#73=CYLINDRICAL_SURFACE('',#791,7.42398087111982);
#74=CYLINDRICAL_SURFACE('',#793,11.6859719648477);
#75=ADVANCED_FACE('',(#110),#378,.F.);
#76=ADVANCED_FACE('',(#111),#66,.F.);
#77=ADVANCED_FACE('',(#112),#379,.F.);
#78=ADVANCED_FACE('',(#113),#380,.F.);
#79=ADVANCED_FACE('',(#114),#381,.F.);
#80=ADVANCED_FACE('',(#115),#382,.F.);
#81=ADVANCED_FACE('',(#116),#67,.F.);
#82=ADVANCED_FACE('',(#117),#383,.F.);
#83=ADVANCED_FACE('',(#118),#384,.F.);
#84=ADVANCED_FACE('',(#119),#385,.F.);
#85=ADVANCED_FACE('',(#120),#68,.F.);
#86=ADVANCED_FACE('',(#121),#386,.F.);
#87=ADVANCED_FACE('',(#122),#69,.F.);
#88=ADVANCED_FACE('',(#123),#70,.T.);
#89=ADVANCED_FACE('',(#124),#387,.F.);
#90=ADVANCED_FACE('',(#125),#71,.T.);
#91=ADVANCED_FACE('',(#126),#72,.T.);
#92=ADVANCED_FACE('',(#127),#388,.F.);
#93=ADVANCED_FACE('',(#128),#389,.F.);
#94=ADVANCED_FACE('',(#129),#390,.F.);
#95=ADVANCED_FACE('',(#130),#391,.F.);
#96=ADVANCED_FACE('',(#131),#73,.F.);
#97=ADVANCED_FACE('',(#132),#392,.F.);
#98=ADVANCED_FACE('',(#133),#74,.T.);
#99=ADVANCED_FACE('',(#134),#393,.F.);
#100=ADVANCED_FACE('',(#135),#394,.F.);
#101=ADVANCED_FACE('',(#136),#395,.F.);
#102=ADVANCED_FACE('',(#137),#396,.F.);
#103=ADVANCED_FACE('',(#138),#397,.F.);
#104=ADVANCED_FACE('',(#139),#398,.F.);
#105=ADVANCED_FACE('',(#140),#399,.F.);
#106=ADVANCED_FACE('',(#141),#400,.F.);
#107=ADVANCED_FACE('',(#142),#401,.F.);
#108=ADVANCED_FACE('',(#143),#402,.F.);
#109=ADVANCED_FACE('',(#144),#403,.T.);
#110=FACE_OUTER_BOUND('',#145,.T.);
#111=FACE_OUTER_BOUND('',#146,.T.);
#112=FACE_OUTER_BOUND('',#147,.T.);
#113=FACE_OUTER_BOUND('',#148,.T.);
#114=FACE_OUTER_BOUND('',#149,.T.);
#115=FACE_OUTER_BOUND('',#150,.T.);
#116=FACE_OUTER_BOUND('',#151,.T.);
#117=FACE_OUTER_BOUND('',#152,.T.);
#118=FACE_OUTER_BOUND('',#153,.T.);
#119=FACE_OUTER_BOUND('',#154,.T.);
#120=FACE_OUTER_BOUND('',#155,.T.);
#121=FACE_OUTER_BOUND('',#156,.T.);
#122=FACE_OUTER_BOUND('',#157,.T.);
#123=FACE_OUTER_BOUND('',#158,.T.);
#124=FACE_OUTER_BOUND('',#159,.T.);
#125=FACE_OUTER_BOUND('',#160,.T.);
#126=FACE_OUTER_BOUND('',#161,.T.);
#127=FACE_OUTER_BOUND('',#162,.T.);
#128=FACE_OUTER_BOUND('',#163,.T.);
#129=FACE_OUTER_BOUND('',#164,.T.);
#130=FACE_OUTER_BOUND('',#165,.T.);
#131=FACE_OUTER_BOUND('',#166,.T.);
#132=FACE_OUTER_BOUND('',#167,.T.);
#133=FACE_OUTER_BOUND('',#168,.T.);
#134=FACE_OUTER_BOUND('',#169,.T.);
#135=FACE_OUTER_BOUND('',#170,.T.);
#136=FACE_OUTER_BOUND('',#171,.T.);
#137=FACE_OUTER_BOUND('',#172,.T.);
#138=FACE_OUTER_BOUND('',#173,.T.);
#139=FACE_OUTER_BOUND('',#174,.T.);
#140=FACE_OUTER_BOUND('',#175,.T.);
#141=FACE_OUTER_BOUND('',#176,.T.);
#142=FACE_OUTER_BOUND('',#177,.T.);
#143=FACE_OUTER_BOUND('',#178,.T.);
#144=FACE_OUTER_BOUND('',#179,.T.);
#145=EDGE_LOOP('',(#180,#181,#182,#183));
#146=EDGE_LOOP('',(#184,#185,#186,#187));
#147=EDGE_LOOP('',(#188,#189,#190,#191));
#148=EDGE_LOOP('',(#192,#193,#194,#195));
#149=EDGE_LOOP('',(#196,#197,#198,#199));
#150=EDGE_LOOP('',(#200,#201,#202,#203));
#151=EDGE_LOOP('',(#204,#205,#206,#207));
#152=EDGE_LOOP('',(#208,#209,#210,#211));
#153=EDGE_LOOP('',(#212,#213,#214,#215));
#154=EDGE_LOOP('',(#216,#217,#218,#219));
#155=EDGE_LOOP('',(#220,#221,#222,#223));
#156=EDGE_LOOP('',(#224,#225,#226,#227));
#157=EDGE_LOOP('',(#228,#229,#230,#231));
#158=EDGE_LOOP('',(#232,#233,#234,#235));
#159=EDGE_LOOP('',(#236,#237,#238,#239));
#160=EDGE_LOOP('',(#240,#241,#242,#243));
#161=EDGE_LOOP('',(#244,#245,#246,#247));
#162=EDGE_LOOP('',(#248,#249,#250,#251));
#163=EDGE_LOOP('',(#252,#253,#254,#255));
#164=EDGE_LOOP('',(#256,#257,#258,#259));
#165=EDGE_LOOP('',(#260,#261,#262,#263));
#166=EDGE_LOOP('',(#264,#265,#266,#267));
#167=EDGE_LOOP('',(#268,#269,#270,#271));
#168=EDGE_LOOP('',(#272,#273,#274,#275));
#169=EDGE_LOOP('',(#276,#277,#278,#279));
#170=EDGE_LOOP('',(#280,#281,#282,#283));
#171=EDGE_LOOP('',(#284,#285,#286,#287));
#172=EDGE_LOOP('',(#288,#289,#290,#291));
#173=EDGE_LOOP('',(#292,#293,#294,#295));
#174=EDGE_LOOP('',(#296,#297,#298,#299));
#175=EDGE_LOOP('',(#300,#301,#302,#303));
#176=EDGE_LOOP('',(#304,#305,#306,#307));
#177=EDGE_LOOP('',(#308,#309,#310,#311));
#178=EDGE_LOOP('',(#312,#313,#314,#315,#316,#317,#318,#319,#320,#321,#322,#323
,#324,#325,#326,#327,#328,#329,#330,#331,#332,#333,#334,#335,#336,#337,#338,
#339,#340,#341,#342,#343,#344));
#179=EDGE_LOOP('',(#345,#346,#347,#348,#349,#350,#351,#352,#353,#354,#355,#356
,#357,#358,#359,#360,#361,#362,#363,#364,#365,#366,#367,#368,#369,#370,#371,
#372,#373,#374,#375,#376,#377));
#180=ORIENTED_EDGE('',*,*,#520,.T.);
#181=ORIENTED_EDGE('',*,*,#422,.F.);
#182=ORIENTED_EDGE('',*,*,#487,.F.);
#183=ORIENTED_EDGE('',*,*,#454,.T.);
#184=ORIENTED_EDGE('',*,*,#519,.T.);
#185=ORIENTED_EDGE('',*,*,#423,.F.);
#186=ORIENTED_EDGE('',*,*,#486,.F.);
#187=ORIENTED_EDGE('',*,*,#422,.T.);
#188=ORIENTED_EDGE('',*,*,#518,.T.);
#189=ORIENTED_EDGE('',*,*,#424,.F.);
#190=ORIENTED_EDGE('',*,*,#485,.F.);
#191=ORIENTED_EDGE('',*,*,#423,.T.);
#192=ORIENTED_EDGE('',*,*,#517,.T.);
#193=ORIENTED_EDGE('',*,*,#425,.F.);
#194=ORIENTED_EDGE('',*,*,#484,.F.);
#195=ORIENTED_EDGE('',*,*,#424,.T.);
#196=ORIENTED_EDGE('',*,*,#516,.T.);
#197=ORIENTED_EDGE('',*,*,#426,.F.);
#198=ORIENTED_EDGE('',*,*,#483,.F.);
#199=ORIENTED_EDGE('',*,*,#425,.T.);
#200=ORIENTED_EDGE('',*,*,#515,.T.);
#201=ORIENTED_EDGE('',*,*,#427,.F.);
#202=ORIENTED_EDGE('',*,*,#482,.F.);
#203=ORIENTED_EDGE('',*,*,#426,.T.);
#204=ORIENTED_EDGE('',*,*,#514,.T.);
#205=ORIENTED_EDGE('',*,*,#428,.F.);
#206=ORIENTED_EDGE('',*,*,#481,.F.);
#207=ORIENTED_EDGE('',*,*,#427,.T.);
#208=ORIENTED_EDGE('',*,*,#513,.T.);
#209=ORIENTED_EDGE('',*,*,#429,.F.);
#210=ORIENTED_EDGE('',*,*,#480,.F.);
#211=ORIENTED_EDGE('',*,*,#428,.T.);
#212=ORIENTED_EDGE('',*,*,#512,.T.);
#213=ORIENTED_EDGE('',*,*,#430,.F.);
#214=ORIENTED_EDGE('',*,*,#479,.F.);
#215=ORIENTED_EDGE('',*,*,#429,.T.);
#216=ORIENTED_EDGE('',*,*,#511,.T.);
#217=ORIENTED_EDGE('',*,*,#431,.F.);
#218=ORIENTED_EDGE('',*,*,#478,.F.);
#219=ORIENTED_EDGE('',*,*,#430,.T.);
#220=ORIENTED_EDGE('',*,*,#510,.T.);
#221=ORIENTED_EDGE('',*,*,#432,.F.);
#222=ORIENTED_EDGE('',*,*,#477,.F.);
#223=ORIENTED_EDGE('',*,*,#431,.T.);
#224=ORIENTED_EDGE('',*,*,#509,.T.);
#225=ORIENTED_EDGE('',*,*,#433,.F.);
#226=ORIENTED_EDGE('',*,*,#476,.F.);
#227=ORIENTED_EDGE('',*,*,#432,.T.);
#228=ORIENTED_EDGE('',*,*,#508,.T.);
#229=ORIENTED_EDGE('',*,*,#434,.F.);
#230=ORIENTED_EDGE('',*,*,#475,.F.);
#231=ORIENTED_EDGE('',*,*,#433,.T.);
#232=ORIENTED_EDGE('',*,*,#507,.T.);
#233=ORIENTED_EDGE('',*,*,#435,.F.);
#234=ORIENTED_EDGE('',*,*,#474,.F.);
#235=ORIENTED_EDGE('',*,*,#434,.T.);
#236=ORIENTED_EDGE('',*,*,#506,.T.);
#237=ORIENTED_EDGE('',*,*,#436,.F.);
#238=ORIENTED_EDGE('',*,*,#473,.F.);
#239=ORIENTED_EDGE('',*,*,#435,.T.);
#240=ORIENTED_EDGE('',*,*,#505,.T.);
#241=ORIENTED_EDGE('',*,*,#437,.F.);
#242=ORIENTED_EDGE('',*,*,#472,.F.);
#243=ORIENTED_EDGE('',*,*,#436,.T.);
#244=ORIENTED_EDGE('',*,*,#504,.T.);
#245=ORIENTED_EDGE('',*,*,#438,.F.);
#246=ORIENTED_EDGE('',*,*,#471,.F.);
#247=ORIENTED_EDGE('',*,*,#437,.T.);
#248=ORIENTED_EDGE('',*,*,#503,.T.);
#249=ORIENTED_EDGE('',*,*,#439,.F.);
#250=ORIENTED_EDGE('',*,*,#470,.F.);
#251=ORIENTED_EDGE('',*,*,#438,.T.);
#252=ORIENTED_EDGE('',*,*,#502,.T.);
#253=ORIENTED_EDGE('',*,*,#440,.F.);
#254=ORIENTED_EDGE('',*,*,#469,.F.);
#255=ORIENTED_EDGE('',*,*,#439,.T.);
#256=ORIENTED_EDGE('',*,*,#501,.T.);
#257=ORIENTED_EDGE('',*,*,#441,.F.);
#258=ORIENTED_EDGE('',*,*,#468,.F.);
#259=ORIENTED_EDGE('',*,*,#440,.T.);
#260=ORIENTED_EDGE('',*,*,#500,.T.);
#261=ORIENTED_EDGE('',*,*,#442,.F.);
#262=ORIENTED_EDGE('',*,*,#467,.F.);
#263=ORIENTED_EDGE('',*,*,#441,.T.);
#264=ORIENTED_EDGE('',*,*,#499,.T.);
#265=ORIENTED_EDGE('',*,*,#443,.F.);
#266=ORIENTED_EDGE('',*,*,#466,.F.);
#267=ORIENTED_EDGE('',*,*,#442,.T.);
#268=ORIENTED_EDGE('',*,*,#498,.T.);
#269=ORIENTED_EDGE('',*,*,#444,.F.);
#270=ORIENTED_EDGE('',*,*,#465,.F.);
#271=ORIENTED_EDGE('',*,*,#443,.T.);
#272=ORIENTED_EDGE('',*,*,#497,.T.);
#273=ORIENTED_EDGE('',*,*,#445,.F.);
#274=ORIENTED_EDGE('',*,*,#464,.F.);
#275=ORIENTED_EDGE('',*,*,#444,.T.);
#276=ORIENTED_EDGE('',*,*,#496,.T.);
#277=ORIENTED_EDGE('',*,*,#446,.F.);
#278=ORIENTED_EDGE('',*,*,#463,.F.);
#279=ORIENTED_EDGE('',*,*,#445,.T.);
#280=ORIENTED_EDGE('',*,*,#495,.T.);
#281=ORIENTED_EDGE('',*,*,#447,.F.);
#282=ORIENTED_EDGE('',*,*,#462,.F.);
#283=ORIENTED_EDGE('',*,*,#446,.T.);
#284=ORIENTED_EDGE('',*,*,#494,.T.);
#285=ORIENTED_EDGE('',*,*,#448,.F.);
#286=ORIENTED_EDGE('',*,*,#461,.F.);
#287=ORIENTED_EDGE('',*,*,#447,.T.);
#288=ORIENTED_EDGE('',*,*,#493,.T.);
#289=ORIENTED_EDGE('',*,*,#449,.F.);
#290=ORIENTED_EDGE('',*,*,#460,.F.);
#291=ORIENTED_EDGE('',*,*,#448,.T.);
#292=ORIENTED_EDGE('',*,*,#492,.T.);
#293=ORIENTED_EDGE('',*,*,#450,.F.);
#294=ORIENTED_EDGE('',*,*,#459,.F.);
#295=ORIENTED_EDGE('',*,*,#449,.T.);
#296=ORIENTED_EDGE('',*,*,#491,.T.);
#297=ORIENTED_EDGE('',*,*,#451,.F.);
#298=ORIENTED_EDGE('',*,*,#458,.F.);
#299=ORIENTED_EDGE('',*,*,#450,.T.);
#300=ORIENTED_EDGE('',*,*,#490,.T.);
#301=ORIENTED_EDGE('',*,*,#452,.F.);
#302=ORIENTED_EDGE('',*,*,#457,.F.);
#303=ORIENTED_EDGE('',*,*,#451,.T.);
#304=ORIENTED_EDGE('',*,*,#489,.T.);
#305=ORIENTED_EDGE('',*,*,#453,.F.);
#306=ORIENTED_EDGE('',*,*,#456,.F.);
#307=ORIENTED_EDGE('',*,*,#452,.T.);
#308=ORIENTED_EDGE('',*,*,#488,.T.);
#309=ORIENTED_EDGE('',*,*,#454,.F.);
#310=ORIENTED_EDGE('',*,*,#455,.F.);
#311=ORIENTED_EDGE('',*,*,#453,.T.);
#312=ORIENTED_EDGE('',*,*,#487,.T.);
#313=ORIENTED_EDGE('',*,*,#486,.T.);
#314=ORIENTED_EDGE('',*,*,#485,.T.);
#315=ORIENTED_EDGE('',*,*,#484,.T.);
#316=ORIENTED_EDGE('',*,*,#483,.T.);
#317=ORIENTED_EDGE('',*,*,#482,.T.);
#318=ORIENTED_EDGE('',*,*,#481,.T.);
#319=ORIENTED_EDGE('',*,*,#480,.T.);
#320=ORIENTED_EDGE('',*,*,#479,.T.);
#321=ORIENTED_EDGE('',*,*,#478,.T.);
#322=ORIENTED_EDGE('',*,*,#477,.T.);
#323=ORIENTED_EDGE('',*,*,#476,.T.);
#324=ORIENTED_EDGE('',*,*,#475,.T.);
#325=ORIENTED_EDGE('',*,*,#474,.T.);
#326=ORIENTED_EDGE('',*,*,#473,.T.);
#327=ORIENTED_EDGE('',*,*,#472,.T.);
#328=ORIENTED_EDGE('',*,*,#471,.T.);
#329=ORIENTED_EDGE('',*,*,#470,.T.);
#330=ORIENTED_EDGE('',*,*,#469,.T.);
#331=ORIENTED_EDGE('',*,*,#468,.T.);
#332=ORIENTED_EDGE('',*,*,#467,.T.);
#333=ORIENTED_EDGE('',*,*,#466,.T.);
#334=ORIENTED_EDGE('',*,*,#465,.T.);
#335=ORIENTED_EDGE('',*,*,#464,.T.);
#336=ORIENTED_EDGE('',*,*,#463,.T.);
#337=ORIENTED_EDGE('',*,*,#462,.T.);
#338=ORIENTED_EDGE('',*,*,#461,.T.);
#339=ORIENTED_EDGE('',*,*,#460,.T.);
#340=ORIENTED_EDGE('',*,*,#459,.T.);
#341=ORIENTED_EDGE('',*,*,#458,.T.);
#342=ORIENTED_EDGE('',*,*,#457,.T.);
#343=ORIENTED_EDGE('',*,*,#456,.T.);
#344=ORIENTED_EDGE('',*,*,#455,.T.);
#345=ORIENTED_EDGE('',*,*,#520,.F.);
#346=ORIENTED_EDGE('',*,*,#488,.F.);
#347=ORIENTED_EDGE('',*,*,#489,.F.);
#348=ORIENTED_EDGE('',*,*,#490,.F.);
#349=ORIENTED_EDGE('',*,*,#491,.F.);
#350=ORIENTED_EDGE('',*,*,#492,.F.);
#351=ORIENTED_EDGE('',*,*,#493,.F.);
#352=ORIENTED_EDGE('',*,*,#494,.F.);
#353=ORIENTED_EDGE('',*,*,#495,.F.);
#354=ORIENTED_EDGE('',*,*,#496,.F.);
#355=ORIENTED_EDGE('',*,*,#497,.F.);
#356=ORIENTED_EDGE('',*,*,#498,.F.);
#357=ORIENTED_EDGE('',*,*,#499,.F.);
#358=ORIENTED_EDGE('',*,*,#500,.F.);
#359=ORIENTED_EDGE('',*,*,#501,.F.);
#360=ORIENTED_EDGE('',*,*,#502,.F.);
#361=ORIENTED_EDGE('',*,*,#503,.F.);
#362=ORIENTED_EDGE('',*,*,#504,.F.);
#363=ORIENTED_EDGE('',*,*,#505,.F.);
#364=ORIENTED_EDGE('',*,*,#506,.F.);
#365=ORIENTED_EDGE('',*,*,#507,.F.);
#366=ORIENTED_EDGE('',*,*,#508,.F.);
#367=ORIENTED_EDGE('',*,*,#509,.F.);
#368=ORIENTED_EDGE('',*,*,#510,.F.);
#369=ORIENTED_EDGE('',*,*,#511,.F.);
#370=ORIENTED_EDGE('',*,*,#512,.F.);
#371=ORIENTED_EDGE('',*,*,#513,.F.);
#372=ORIENTED_EDGE('',*,*,#514,.F.);
#373=ORIENTED_EDGE('',*,*,#515,.F.);
#374=ORIENTED_EDGE('',*,*,#516,.F.);
#375=ORIENTED_EDGE('',*,*,#517,.F.);
#376=ORIENTED_EDGE('',*,*,#518,.F.);
#377=ORIENTED_EDGE('',*,*,#519,.F.);
#378=PLANE('',#770);
#379=PLANE('',#772);
#380=PLANE('',#773);
#381=PLANE('',#774);
#382=PLANE('',#775);
#383=PLANE('',#777);
#384=PLANE('',#778);
#385=PLANE('',#779);
#386=PLANE('',#781);
#387=PLANE('',#784);
#388=PLANE('',#787);
#389=PLANE('',#788);
#390=PLANE('',#789);
#391=PLANE('',#790);
#392=PLANE('',#792);
#393=PLANE('',#794);
#394=PLANE('',#795);
#395=PLANE('',#796);
#396=PLANE('',#797);
#397=PLANE('',#798);
#398=PLANE('',#799);
#399=PLANE('',#800);
#400=PLANE('',#801);
#401=PLANE('',#802);
#402=PLANE('',#803);
#403=PLANE('',#804);
#404=CIRCLE('',#752,11.6859719648477);
#405=CIRCLE('',#753,7.42398087111982);
#406=CIRCLE('',#754,14.9448302782325);
#407=CIRCLE('',#755,82.8775315107883);
#408=CIRCLE('',#756,0.999999999997531);
#409=CIRCLE('',#757,4.68935048855804);
#410=CIRCLE('',#758,7.7502797998592);
#411=CIRCLE('',#759,3.2975582944682);
#412=CIRCLE('',#760,17.1864516298789);
#413=CIRCLE('',#761,11.6859719648477);
#414=CIRCLE('',#762,7.42398087111982);
#415=CIRCLE('',#763,14.9448302782325);
#416=CIRCLE('',#764,82.8775315107883);
#417=CIRCLE('',#765,0.999999999997531);
#418=CIRCLE('',#766,4.68935048855804);
#419=CIRCLE('',#767,7.7502797998592);
#420=CIRCLE('',#768,3.2975582944682);
#421=CIRCLE('',#769,17.1864516298789);
#422=EDGE_CURVE('',#715,#748,#521,.T.);
#423=EDGE_CURVE('',#714,#747,#522,.T.);
#424=EDGE_CURVE('',#713,#746,#523,.T.);
#425=EDGE_CURVE('',#712,#745,#524,.T.);
#426=EDGE_CURVE('',#711,#744,#525,.T.);
#427=EDGE_CURVE('',#710,#743,#526,.T.);
#428=EDGE_CURVE('',#709,#742,#527,.T.);
#429=EDGE_CURVE('',#708,#741,#528,.T.);
#430=EDGE_CURVE('',#707,#740,#529,.T.);
#431=EDGE_CURVE('',#706,#739,#530,.T.);
#432=EDGE_CURVE('',#705,#738,#531,.T.);
#433=EDGE_CURVE('',#704,#737,#532,.T.);
#434=EDGE_CURVE('',#703,#736,#533,.T.);
#435=EDGE_CURVE('',#702,#735,#534,.T.);
#436=EDGE_CURVE('',#701,#734,#535,.T.);
#437=EDGE_CURVE('',#700,#733,#536,.T.);
#438=EDGE_CURVE('',#699,#732,#537,.T.);
#439=EDGE_CURVE('',#698,#731,#538,.T.);
#440=EDGE_CURVE('',#697,#730,#539,.T.);
#441=EDGE_CURVE('',#696,#729,#540,.T.);
#442=EDGE_CURVE('',#695,#728,#541,.T.);
#443=EDGE_CURVE('',#694,#727,#542,.T.);
#444=EDGE_CURVE('',#693,#726,#543,.T.);
#445=EDGE_CURVE('',#692,#725,#544,.T.);
#446=EDGE_CURVE('',#691,#724,#545,.T.);
#447=EDGE_CURVE('',#690,#723,#546,.T.);
#448=EDGE_CURVE('',#689,#722,#547,.T.);
#449=EDGE_CURVE('',#688,#721,#548,.T.);
#450=EDGE_CURVE('',#687,#720,#549,.T.);
#451=EDGE_CURVE('',#686,#719,#550,.T.);
#452=EDGE_CURVE('',#685,#718,#551,.T.);
#453=EDGE_CURVE('',#684,#717,#552,.T.);
#454=EDGE_CURVE('',#683,#716,#553,.T.);
#455=EDGE_CURVE('',#684,#683,#554,.T.);
#456=EDGE_CURVE('',#685,#684,#555,.T.);
#457=EDGE_CURVE('',#686,#685,#556,.T.);
#458=EDGE_CURVE('',#687,#686,#557,.T.);
#459=EDGE_CURVE('',#688,#687,#558,.T.);
#460=EDGE_CURVE('',#689,#688,#559,.T.);
#461=EDGE_CURVE('',#690,#689,#560,.T.);
#462=EDGE_CURVE('',#691,#690,#561,.T.);
#463=EDGE_CURVE('',#692,#691,#562,.T.);
#464=EDGE_CURVE('',#693,#692,#404,.T.);
#465=EDGE_CURVE('',#694,#693,#563,.T.);
#466=EDGE_CURVE('',#695,#694,#405,.T.);
#467=EDGE_CURVE('',#696,#695,#564,.T.);
#468=EDGE_CURVE('',#697,#696,#565,.T.);
#469=EDGE_CURVE('',#698,#697,#566,.T.);
#470=EDGE_CURVE('',#699,#698,#567,.T.);
#471=EDGE_CURVE('',#700,#699,#406,.T.);
#472=EDGE_CURVE('',#701,#700,#407,.T.);
#473=EDGE_CURVE('',#702,#701,#568,.T.);
#474=EDGE_CURVE('',#703,#702,#408,.T.);
#475=EDGE_CURVE('',#704,#703,#409,.T.);
#476=EDGE_CURVE('',#705,#704,#569,.T.);
#477=EDGE_CURVE('',#706,#705,#410,.T.);
#478=EDGE_CURVE('',#707,#706,#570,.T.);
#479=EDGE_CURVE('',#708,#707,#571,.T.);
#480=EDGE_CURVE('',#709,#708,#572,.T.);
#481=EDGE_CURVE('',#710,#709,#411,.T.);
#482=EDGE_CURVE('',#711,#710,#573,.T.);
#483=EDGE_CURVE('',#712,#711,#574,.T.);
#484=EDGE_CURVE('',#713,#712,#575,.T.);
#485=EDGE_CURVE('',#714,#713,#576,.T.);
#486=EDGE_CURVE('',#715,#714,#412,.T.);
#487=EDGE_CURVE('',#683,#715,#577,.T.);
#488=EDGE_CURVE('',#717,#716,#578,.T.);
#489=EDGE_CURVE('',#718,#717,#579,.T.);
#490=EDGE_CURVE('',#719,#718,#580,.T.);
#491=EDGE_CURVE('',#720,#719,#581,.T.);
#492=EDGE_CURVE('',#721,#720,#582,.T.);
#493=EDGE_CURVE('',#722,#721,#583,.T.);
#494=EDGE_CURVE('',#723,#722,#584,.T.);
#495=EDGE_CURVE('',#724,#723,#585,.T.);
#496=EDGE_CURVE('',#725,#724,#586,.T.);
#497=EDGE_CURVE('',#726,#725,#413,.T.);
#498=EDGE_CURVE('',#727,#726,#587,.T.);
#499=EDGE_CURVE('',#728,#727,#414,.T.);
#500=EDGE_CURVE('',#729,#728,#588,.T.);
#501=EDGE_CURVE('',#730,#729,#589,.T.);
#502=EDGE_CURVE('',#731,#730,#590,.T.);
#503=EDGE_CURVE('',#732,#731,#591,.T.);
#504=EDGE_CURVE('',#733,#732,#415,.T.);
#505=EDGE_CURVE('',#734,#733,#416,.T.);
#506=EDGE_CURVE('',#735,#734,#592,.T.);
#507=EDGE_CURVE('',#736,#735,#417,.T.);
#508=EDGE_CURVE('',#737,#736,#418,.T.);
#509=EDGE_CURVE('',#738,#737,#593,.T.);
#510=EDGE_CURVE('',#739,#738,#419,.T.);
#511=EDGE_CURVE('',#740,#739,#594,.T.);
#512=EDGE_CURVE('',#741,#740,#595,.T.);
#513=EDGE_CURVE('',#742,#741,#596,.T.);
#514=EDGE_CURVE('',#743,#742,#420,.T.);
#515=EDGE_CURVE('',#744,#743,#597,.T.);
#516=EDGE_CURVE('',#745,#744,#598,.T.);
#517=EDGE_CURVE('',#746,#745,#599,.T.);
#518=EDGE_CURVE('',#747,#746,#600,.T.);
#519=EDGE_CURVE('',#748,#747,#421,.T.);
#520=EDGE_CURVE('',#716,#748,#601,.T.);
#521=LINE('',#1061,#602);
#522=LINE('',#1062,#603);
#523=LINE('',#1063,#604);
#524=LINE('',#1064,#605);
#525=LINE('',#1065,#606);
#526=LINE('',#1066,#607);
#527=LINE('',#1067,#608);
#528=LINE('',#1068,#609);
#529=LINE('',#1069,#610);
#530=LINE('',#1070,#611);
#531=LINE('',#1071,#612);
#532=LINE('',#1072,#613);
#533=LINE('',#1073,#614);
#534=LINE('',#1074,#615);
#535=LINE('',#1075,#616);
#536=LINE('',#1076,#617);
#537=LINE('',#1077,#618);
#538=LINE('',#1078,#619);
#539=LINE('',#1079,#620);
#540=LINE('',#1080,#621);
#541=LINE('',#1081,#622);
#542=LINE('',#1082,#623);
#543=LINE('',#1083,#624);
#544=LINE('',#1084,#625);
#545=LINE('',#1085,#626);
#546=LINE('',#1086,#627);
#547=LINE('',#1087,#628);
#548=LINE('',#1088,#629);
#549=LINE('',#1089,#630);
#550=LINE('',#1090,#631);
#551=LINE('',#1091,#632);
#552=LINE('',#1092,#633);
#553=LINE('',#1093,#634);
#554=LINE('',#1094,#635);
#555=LINE('',#1095,#636);
#556=LINE('',#1096,#637);
#557=LINE('',#1097,#638);
#558=LINE('',#1098,#639);
#559=LINE('',#1099,#640);
#560=LINE('',#1100,#641);
#561=LINE('',#1101,#642);
#562=LINE('',#1102,#643);
#563=LINE('',#1104,#644);
#564=LINE('',#1106,#645);
#565=LINE('',#1107,#646);
#566=LINE('',#1108,#647);
#567=LINE('',#1109,#648);
#568=LINE('',#1112,#649);
#569=LINE('',#1115,#650);
#570=LINE('',#1117,#651);
#571=LINE('',#1118,#652);
#572=LINE('',#1119,#653);
#573=LINE('',#1121,#654);
#574=LINE('',#1122,#655);
#575=LINE('',#1123,#656);
#576=LINE('',#1124,#657);
#577=LINE('',#1126,#658);
#578=LINE('',#1127,#659);
#579=LINE('',#1128,#660);
#580=LINE('',#1129,#661);
#581=LINE('',#1130,#662);
#582=LINE('',#1131,#663);
#583=LINE('',#1132,#664);
#584=LINE('',#1133,#665);
#585=LINE('',#1134,#666);
#586=LINE('',#1135,#667);
#587=LINE('',#1137,#668);
#588=LINE('',#1139,#669);
#589=LINE('',#1140,#670);
#590=LINE('',#1141,#671);
#591=LINE('',#1142,#672);
#592=LINE('',#1145,#673);
#593=LINE('',#1148,#674);
#594=LINE('',#1150,#675);
#595=LINE('',#1151,#676);
#596=LINE('',#1152,#677);
#597=LINE('',#1154,#678);
#598=LINE('',#1155,#679);
#599=LINE('',#1156,#680);
#600=LINE('',#1157,#681);
#601=LINE('',#1159,#682);
#602=VECTOR('',#807,1.);
#603=VECTOR('',#808,1.);
#604=VECTOR('',#809,1.);
#605=VECTOR('',#810,1.);
#606=VECTOR('',#811,1.);
#607=VECTOR('',#812,1.);
#608=VECTOR('',#813,1.);
#609=VECTOR('',#814,1.);
#610=VECTOR('',#815,1.);
#611=VECTOR('',#816,1.);
#612=VECTOR('',#817,1.);
#613=VECTOR('',#818,1.);
#614=VECTOR('',#819,1.);
#615=VECTOR('',#820,1.);
#616=VECTOR('',#821,1.);
#617=VECTOR('',#822,1.);
#618=VECTOR('',#823,1.);
#619=VECTOR('',#824,1.);
#620=VECTOR('',#825,1.);
#621=VECTOR('',#826,1.);
#622=VECTOR('',#827,1.);
#623=VECTOR('',#828,1.);
#624=VECTOR('',#829,1.);
#625=VECTOR('',#830,1.);
#626=VECTOR('',#831,1.);
#627=VECTOR('',#832,1.);
#628=VECTOR('',#833,1.);
#629=VECTOR('',#834,1.);
#630=VECTOR('',#835,1.);
#631=VECTOR('',#836,1.);
#632=VECTOR('',#837,1.);
#633=VECTOR('',#838,1.);
#634=VECTOR('',#839,1.);
#635=VECTOR('',#840,1.);
#636=VECTOR('',#841,1.);
#637=VECTOR('',#842,1.);
#638=VECTOR('',#843,1.);
#639=VECTOR('',#844,1.);
#640=VECTOR('',#845,1.);
#641=VECTOR('',#846,1.);
#642=VECTOR('',#847,1.);
#643=VECTOR('',#848,1.);
#644=VECTOR('',#851,1.);
#645=VECTOR('',#854,1.);
#646=VECTOR('',#855,1.);
#647=VECTOR('',#856,1.);
#648=VECTOR('',#857,1.);
#649=VECTOR('',#862,1.);
#650=VECTOR('',#867,1.);
#651=VECTOR('',#870,1.);
#652=VECTOR('',#871,1.);
#653=VECTOR('',#872,1.);
#654=VECTOR('',#875,1.);
#655=VECTOR('',#876,1.);
#656=VECTOR('',#877,1.);
#657=VECTOR('',#878,1.);
#658=VECTOR('',#881,1.);
#659=VECTOR('',#882,1.);
#660=VECTOR('',#883,1.);
#661=VECTOR('',#884,1.);
#662=VECTOR('',#885,1.);
#663=VECTOR('',#886,1.);
#664=VECTOR('',#887,1.);
#665=VECTOR('',#888,1.);
#666=VECTOR('',#889,1.);
#667=VECTOR('',#890,1.);
#668=VECTOR('',#893,1.);
#669=VECTOR('',#896,1.);
#670=VECTOR('',#897,1.);
#671=VECTOR('',#898,1.);
#672=VECTOR('',#899,1.);
#673=VECTOR('',#904,1.);
#674=VECTOR('',#909,1.);
#675=VECTOR('',#912,1.);
#676=VECTOR('',#913,1.);
#677=VECTOR('',#914,1.);
#678=VECTOR('',#917,1.);
#679=VECTOR('',#918,1.);
#680=VECTOR('',#919,1.);
#681=VECTOR('',#920,1.);
#682=VECTOR('',#923,1.);
#683=VERTEX_POINT('',#995);
#684=VERTEX_POINT('',#996);
#685=VERTEX_POINT('',#997);
#686=VERTEX_POINT('',#998);
#687=VERTEX_POINT('',#999);
#688=VERTEX_POINT('',#1000);
#689=VERTEX_POINT('',#1001);
#690=VERTEX_POINT('',#1002);
#691=VERTEX_POINT('',#1003);
#692=VERTEX_POINT('',#1004);
#693=VERTEX_POINT('',#1005);
#694=VERTEX_POINT('',#1006);
#695=VERTEX_POINT('',#1007);
#696=VERTEX_POINT('',#1008);
#697=VERTEX_POINT('',#1009);
#698=VERTEX_POINT('',#1010);
#699=VERTEX_POINT('',#1011);
#700=VERTEX_POINT('',#1012);
#701=VERTEX_POINT('',#1013);
#702=VERTEX_POINT('',#1014);
#703=VERTEX_POINT('',#1015);
#704=VERTEX_POINT('',#1016);
#705=VERTEX_POINT('',#1017);
#706=VERTEX_POINT('',#1018);
#707=VERTEX_POINT('',#1019);
#708=VERTEX_POINT('',#1020);
#709=VERTEX_POINT('',#1021);
#710=VERTEX_POINT('',#1022);
#711=VERTEX_POINT('',#1023);
#712=VERTEX_POINT('',#1024);
#713=VERTEX_POINT('',#1025);
#714=VERTEX_POINT('',#1026);
#715=VERTEX_POINT('',#1027);
#716=VERTEX_POINT('',#1028);
#717=VERTEX_POINT('',#1029);
#718=VERTEX_POINT('',#1030);
#719=VERTEX_POINT('',#1031);
#720=VERTEX_POINT('',#1032);
#721=VERTEX_POINT('',#1033);
#722=VERTEX_POINT('',#1034);
#723=VERTEX_POINT('',#1035);
#724=VERTEX_POINT('',#1036);
#725=VERTEX_POINT('',#1037);
#726=VERTEX_POINT('',#1038);
#727=VERTEX_POINT('',#1039);
#728=VERTEX_POINT('',#1040);
#729=VERTEX_POINT('',#1041);
#730=VERTEX_POINT('',#1042);
#731=VERTEX_POINT('',#1043);
#732=VERTEX_POINT('',#1044);
#733=VERTEX_POINT('',#1045);
#734=VERTEX_POINT('',#1046);
#735=VERTEX_POINT('',#1047);
#736=VERTEX_POINT('',#1048);
#737=VERTEX_POINT('',#1049);
#738=VERTEX_POINT('',#1050);
#739=VERTEX_POINT('',#1051);
#740=VERTEX_POINT('',#1052);
#741=VERTEX_POINT('',#1053);
#742=VERTEX_POINT('',#1054);
#743=VERTEX_POINT('',#1055);
#744=VERTEX_POINT('',#1056);
#745=VERTEX_POINT('',#1057);
#746=VERTEX_POINT('',#1058);
#747=VERTEX_POINT('',#1059);
#748=VERTEX_POINT('',#1060);
#749=SHAPE_DEFINITION_REPRESENTATION(#1195,#750);
#750=SHAPE_REPRESENTATION('master',(#751),#1197);
#751=AXIS2_PLACEMENT_3D('',#994,#806,#805);
#752=AXIS2_PLACEMENT_3D('',#1103,#850,#849);
#753=AXIS2_PLACEMENT_3D('',#1105,#853,#852);
#754=AXIS2_PLACEMENT_3D('',#1110,#859,#858);
#755=AXIS2_PLACEMENT_3D('',#1111,#861,#860);
#756=AXIS2_PLACEMENT_3D('',#1113,#864,#863);
#757=AXIS2_PLACEMENT_3D('',#1114,#866,#865);
#758=AXIS2_PLACEMENT_3D('',#1116,#869,#868);
#759=AXIS2_PLACEMENT_3D('',#1120,#874,#873);
#760=AXIS2_PLACEMENT_3D('',#1125,#880,#879);
#761=AXIS2_PLACEMENT_3D('',#1136,#892,#891);
#762=AXIS2_PLACEMENT_3D('',#1138,#895,#894);
#763=AXIS2_PLACEMENT_3D('',#1143,#901,#900);
#764=AXIS2_PLACEMENT_3D('',#1144,#903,#902);
#765=AXIS2_PLACEMENT_3D('',#1146,#906,#905);
#766=AXIS2_PLACEMENT_3D('',#1147,#908,#907);
#767=AXIS2_PLACEMENT_3D('',#1149,#911,#910);
#768=AXIS2_PLACEMENT_3D('',#1153,#916,#915);
#769=AXIS2_PLACEMENT_3D('',#1158,#922,#921);
#770=AXIS2_PLACEMENT_3D('',#1160,#925,#924);
#771=AXIS2_PLACEMENT_3D('',#1161,#927,#926);
#772=AXIS2_PLACEMENT_3D('',#1162,#929,#928);
#773=AXIS2_PLACEMENT_3D('',#1163,#931,#930);
#774=AXIS2_PLACEMENT_3D('',#1164,#933,#932);
#775=AXIS2_PLACEMENT_3D('',#1165,#935,#934);
#776=AXIS2_PLACEMENT_3D('',#1166,#937,#936);
#777=AXIS2_PLACEMENT_3D('',#1167,#939,#938);
#778=AXIS2_PLACEMENT_3D('',#1168,#941,#940);
#779=AXIS2_PLACEMENT_3D('',#1169,#943,#942);
#780=AXIS2_PLACEMENT_3D('',#1170,#945,#944);
#781=AXIS2_PLACEMENT_3D('',#1171,#947,#946);
#782=AXIS2_PLACEMENT_3D('',#1172,#949,#948);
#783=AXIS2_PLACEMENT_3D('',#1173,#951,#950);
#784=AXIS2_PLACEMENT_3D('',#1174,#953,#952);
#785=AXIS2_PLACEMENT_3D('',#1175,#955,#954);
#786=AXIS2_PLACEMENT_3D('',#1176,#957,#956);
#787=AXIS2_PLACEMENT_3D('',#1177,#959,#958);
#788=AXIS2_PLACEMENT_3D('',#1178,#961,#960);
#789=AXIS2_PLACEMENT_3D('',#1179,#963,#962);
#790=AXIS2_PLACEMENT_3D('',#1180,#965,#964);
#791=AXIS2_PLACEMENT_3D('',#1181,#967,#966);
#792=AXIS2_PLACEMENT_3D('',#1182,#969,#968);
#793=AXIS2_PLACEMENT_3D('',#1183,#971,#970);
#794=AXIS2_PLACEMENT_3D('',#1184,#973,#972);
#795=AXIS2_PLACEMENT_3D('',#1185,#975,#974);
#796=AXIS2_PLACEMENT_3D('',#1186,#977,#976);
#797=AXIS2_PLACEMENT_3D('',#1187,#979,#978);
#798=AXIS2_PLACEMENT_3D('',#1188,#981,#980);
#799=AXIS2_PLACEMENT_3D('',#1189,#983,#982);
#800=AXIS2_PLACEMENT_3D('',#1190,#985,#984);
#801=AXIS2_PLACEMENT_3D('',#1191,#987,#986);
#802=AXIS2_PLACEMENT_3D('',#1192,#989,#988);
#803=AXIS2_PLACEMENT_3D('',#1193,#991,#990);
#804=AXIS2_PLACEMENT_3D('',#1194,#993,#992);
#805=DIRECTION('',(1.,0.,0.));
#806=DIRECTION('',(0.,0.,1.));
#807=DIRECTION('',(6.28993965217665E-016,-1.,4.27031611698318E-016));
#808=DIRECTION('',(6.28993965217665E-016,-1.,4.27031611698318E-016));
#809=DIRECTION('',(6.28993965217665E-016,-1.,4.27031611698318E-016));
#810=DIRECTION('',(6.28993965217665E-016,-1.,4.27031611698318E-016));
#811=DIRECTION('',(6.28993965217665E-016,-1.,4.27031611698318E-016));
#812=DIRECTION('',(6.28993965217665E-016,-1.,4.27031611698318E-016));
#813=DIRECTION('',(6.28993965217665E-016,-1.,4.27031611698318E-016));
#814=DIRECTION('',(6.28993965217665E-016,-1.,4.27031611698318E-016));
#815=DIRECTION('',(6.28993965217665E-016,-1.,4.27031611698318E-016));
#816=DIRECTION('',(6.28993965217665E-016,-1.,4.27031611698318E-016));
#817=DIRECTION('',(6.28993965217665E-016,-1.,4.27031611698318E-016));
#818=DIRECTION('',(6.28993965217665E-016,-1.,4.27031611698318E-016));
#819=DIRECTION('',(6.28993965217665E-016,-1.,4.27031611698318E-016));
#820=DIRECTION('',(6.28993965217665E-016,-1.,4.27031611698318E-016));
#821=DIRECTION('',(6.28993965217665E-016,-1.,4.27031611698318E-016));
#822=DIRECTION('',(6.28993965217665E-016,-1.,4.27031611698318E-016));
#823=DIRECTION('',(6.28993965217665E-016,-1.,4.27031611698318E-016));
#824=DIRECTION('',(6.28993965217665E-016,-1.,4.27031611698318E-016));
#825=DIRECTION('',(6.28993965217665E-016,-1.,4.27031611698318E-016));
#826=DIRECTION('',(6.28993965217665E-016,-1.,4.27031611698318E-016));
#827=DIRECTION('',(6.28993965217665E-016,-1.,4.27031611698318E-016));
#828=DIRECTION('',(6.28993965217665E-016,-1.,4.27031611698318E-016));
#829=DIRECTION('',(6.28993965217665E-016,-1.,4.27031611698318E-016));
#830=DIRECTION('',(6.28993965217665E-016,-1.,4.27031611698318E-016));
#831=DIRECTION('',(6.28993965217665E-016,-1.,4.27031611698318E-016));
#832=DIRECTION('',(6.28993965217665E-016,-1.,4.27031611698318E-016));
#833=DIRECTION('',(6.28993965217665E-016,-1.,4.27031611698318E-016));
#834=DIRECTION('',(6.28993965217665E-016,-1.,4.27031611698318E-016));
#835=DIRECTION('',(6.28993965217665E-016,-1.,4.27031611698318E-016));
#836=DIRECTION('',(6.28993965217665E-016,-1.,4.27031611698318E-016));
#837=DIRECTION('',(6.28993965217665E-016,-1.,4.27031611698318E-016));
#838=DIRECTION('',(6.28993965217665E-016,-1.,4.27031611698318E-016));
#839=DIRECTION('',(6.28993965217665E-016,-1.,4.27031611698318E-016));
#840=DIRECTION('',(-0.,-0.,-1.));
#841=DIRECTION('',(1.,-0.,-0.));
#842=DIRECTION('',(0.877755323131144,-0.,0.479109165759684));
#843=DIRECTION('',(1.,-0.,-1.59560473995251E-014));
#844=DIRECTION('',(0.503005655967631,-0.,0.864283119159789));
#845=DIRECTION('',(0.873154926176744,-0.,0.487442791405601));
#846=DIRECTION('',(-0.,-0.,1.));
#847=DIRECTION('',(-0.991662779891073,-0.,-0.12886012175498));
#848=DIRECTION('',(-0.0535584027247024,-0.,-0.998564718732631));
#849=DIRECTION('',(0.981786487780163,0.,-0.189987611207396));
#850=DIRECTION('',(0.,1.,0.));
#851=DIRECTION('',(-0.979579025828246,-0.,-0.201059523916138));
#852=DIRECTION('',(-0.381529344426798,0.,0.924356727319739));
#853=DIRECTION('',(0.,-1.,0.));
#854=DIRECTION('',(-0.0413848392724259,-0.,-0.999143280555094));
#855=DIRECTION('',(-0.999368628567355,-0.,-0.0355294840295142));
#856=DIRECTION('',(-0.,-0.,-1.));
#857=DIRECTION('',(-0.915067786488553,-0.,-0.403300069589555));
#858=DIRECTION('',(0.987747644055981,0.,-0.156059577283355));
#859=DIRECTION('',(0.,1.,0.));
#860=DIRECTION('',(0.998524830703599,-0.,0.0542969839710269));
#861=DIRECTION('',(0.,1.,0.));
#862=DIRECTION('',(-1.,0.,-9.65304913704219E-014));
#863=DIRECTION('',(0.971627211754868,0.,-0.236517570969812));
#864=DIRECTION('',(0.,1.,0.));
#865=DIRECTION('',(0.00970918039904478,0.,0.999952864797126));
#866=DIRECTION('',(0.,-1.,0.));
#867=DIRECTION('',(-0.999952864797126,0.,0.00970918039904939));
#868=DIRECTION('',(0.771102092152261,0.,0.636711522966568));
#869=DIRECTION('',(0.,-1.,0.));
#870=DIRECTION('',(-0.636711522966608,-0.,0.771102092152228));
#871=DIRECTION('',(-0.999236940632932,-0.,-0.0390581166281596));
#872=DIRECTION('',(-0.149688718703574,0.,-0.9887331730517));
#873=DIRECTION('',(0.489825850891725,0.,0.871820300175556));
#874=DIRECTION('',(0.,-1.,0.));
#875=DIRECTION('',(-1.,-0.,-0.));
#876=DIRECTION('',(-0.086921525526171,-0.,-0.996215161699622));
#877=DIRECTION('',(-1.,-0.,-0.));
#878=DIRECTION('',(-0.400897032669823,-0.,-0.916123119016506));
#879=DIRECTION('',(-0.278328267140207,0.,0.960486010158779));
#880=DIRECTION('',(0.,-1.,0.));
#881=DIRECTION('',(-0.9604860101588,-0.,-0.278328267140132));
#882=DIRECTION('',(-0.,-0.,-1.));
#883=DIRECTION('',(1.,-0.,-0.));
#884=DIRECTION('',(0.877755323131144,-0.,0.479109165759684));
#885=DIRECTION('',(1.,-0.,-1.59560473995251E-014));
#886=DIRECTION('',(0.503005655967631,-0.,0.864283119159789));
#887=DIRECTION('',(0.873154926176744,-0.,0.487442791405601));
#888=DIRECTION('',(-0.,-0.,1.));
#889=DIRECTION('',(-0.991662779891073,-0.,-0.12886012175498));
#890=DIRECTION('',(-0.0535584027247024,-0.,-0.998564718732631));
#891=DIRECTION('',(0.981786487780163,0.,-0.189987611207396));
#892=DIRECTION('',(0.,1.,0.));
#893=DIRECTION('',(-0.979579025828246,-0.,-0.201059523916138));
#894=DIRECTION('',(-0.381529344426798,0.,0.924356727319739));
#895=DIRECTION('',(0.,-1.,0.));
#896=DIRECTION('',(-0.0413848392724259,-0.,-0.999143280555094));
#897=DIRECTION('',(-0.999368628567355,-0.,-0.0355294840295142));
#898=DIRECTION('',(-0.,-0.,-1.));
#899=DIRECTION('',(-0.915067786488553,-0.,-0.403300069589555));
#900=DIRECTION('',(0.987747644055981,0.,-0.156059577283355));
#901=DIRECTION('',(0.,1.,0.));
#902=DIRECTION('',(0.998524830703599,-0.,0.0542969839710269));
#903=DIRECTION('',(0.,1.,0.));
#904=DIRECTION('',(-1.,0.,-9.65304913704219E-014));
#905=DIRECTION('',(0.971627211754868,0.,-0.236517570969812));
#906=DIRECTION('',(0.,1.,0.));
#907=DIRECTION('',(0.00970918039904478,0.,0.999952864797126));
#908=DIRECTION('',(0.,-1.,0.));
#909=DIRECTION('',(-0.999952864797126,0.,0.00970918039904939));
#910=DIRECTION('',(0.771102092152261,0.,0.636711522966568));
#911=DIRECTION('',(0.,-1.,0.));
#912=DIRECTION('',(-0.636711522966608,-0.,0.771102092152228));
#913=DIRECTION('',(-0.999236940632932,-0.,-0.0390581166281596));
#914=DIRECTION('',(-0.149688718703574,0.,-0.9887331730517));
#915=DIRECTION('',(0.489825850891725,0.,0.871820300175556));
#916=DIRECTION('',(0.,-1.,0.));
#917=DIRECTION('',(-1.,-0.,-0.));
#918=DIRECTION('',(-0.086921525526171,-0.,-0.996215161699622));
#919=DIRECTION('',(-1.,-0.,-0.));
#920=DIRECTION('',(-0.400897032669823,-0.,-0.916123119016506));
#921=DIRECTION('',(-0.278328267140207,0.,0.960486010158779));
#922=DIRECTION('',(0.,-1.,0.));
#923=DIRECTION('',(-0.9604860101588,-0.,-0.278328267140132));
#924=DIRECTION('',(0.9604860101588,0.,0.278328267140132));
#925=DIRECTION('',(-0.278328267140132,2.35091088551166E-016,0.9604860101588));
#926=DIRECTION('',(1.,6.28993965217665E-016,0.));
#927=DIRECTION('',(6.28993965217665E-016,-1.,4.27031611698318E-016));
#928=DIRECTION('',(0.400897032669823,-2.46519032881566E-032,0.916123119016506)
);
#929=DIRECTION('',(-0.916123119016506,-4.05040207271699E-016,0.400897032669823
));
#930=DIRECTION('',(0.,-1.,4.27031611698318E-016));
#931=DIRECTION('',(-0.,4.27031611698318E-016,1.));
#932=DIRECTION('',(0.086921525526171,-6.16297582203915E-033,0.996215161699622)
);
#933=DIRECTION('',(-0.996215161699622,-5.89495085630685E-016,0.086921525526171
));
#934=DIRECTION('',(0.,-1.,4.27031611698318E-016));
#935=DIRECTION('',(-0.,4.27031611698318E-016,1.));
#936=DIRECTION('',(1.,6.28993965217665E-016,0.));
#937=DIRECTION('',(6.28993965217665E-016,-1.,4.27031611698318E-016));
#938=DIRECTION('',(0.149688718703574,0.,0.9887331730517));
#939=DIRECTION('',(-0.9887331730517,-5.57985384258989E-016,0.149688718703574)
);
#940=DIRECTION('',(0.999236940632932,0.,0.0390581166281596));
#941=DIRECTION('',(-0.0390581166281596,4.02138441575097E-016,0.999236940632932
));
#942=DIRECTION('',(0.636711522966608,0.,-0.771102092152228));
#943=DIRECTION('',(0.771102092152228,7.56914510369788E-016,0.636711522966608)
);
#944=DIRECTION('',(1.,6.28993965217665E-016,0.));
#945=DIRECTION('',(6.28993965217665E-016,-1.,4.27031611698318E-016));
#946=DIRECTION('',(0.999952864797126,0.,-0.00970918039904939));
#947=DIRECTION('',(0.00970918039904939,4.33118499354879E-016,0.999952864797126
));
#948=DIRECTION('',(1.,6.28993965217665E-016,0.));
#949=DIRECTION('',(6.28993965217665E-016,-1.,4.27031611698318E-016));
#950=DIRECTION('',(1.,6.28993965217665E-016,0.));
#951=DIRECTION('',(6.28993965217665E-016,-1.,4.27031611698318E-016));
#952=DIRECTION('',(1.,0.,9.65304913704219E-014));
#953=DIRECTION('',(-9.65304913704219E-014,4.27031611698258E-016,1.));
#954=DIRECTION('',(1.,6.28993965217665E-016,0.));
#955=DIRECTION('',(6.28993965217665E-016,-1.,4.27031611698318E-016));
#956=DIRECTION('',(1.,6.28993965217665E-016,0.));
#957=DIRECTION('',(6.28993965217665E-016,-1.,4.27031611698318E-016));
#958=DIRECTION('',(0.915067786488553,0.,0.403300069589555));
#959=DIRECTION('',(-0.403300069589555,1.37089561733725E-016,0.915067786488553)
);
#960=DIRECTION('',(6.28993965217665E-016,-1.,0.));
#961=DIRECTION('',(-1.,-6.28993965217665E-016,0.));
#962=DIRECTION('',(0.999368628567355,0.,0.0355294840295142));
#963=DIRECTION('',(-0.0355294840295142,4.04414165095994E-016,0.999368628567355
));
#964=DIRECTION('',(0.0413848392724259,0.,0.999143280555094));
#965=DIRECTION('',(-0.999143280555094,-6.10782459242554E-016,
0.0413848392724259));
#966=DIRECTION('',(1.,6.28993965217665E-016,0.));
#967=DIRECTION('',(6.28993965217665E-016,-1.,4.27031611698318E-016));
#968=DIRECTION('',(0.979579025828246,-1.23259516440783E-032,0.201059523916138)
);
#969=DIRECTION('',(-0.201059523916138,2.91845982992517E-016,0.979579025828246)
);
#970=DIRECTION('',(1.,6.28993965217665E-016,0.));
#971=DIRECTION('',(6.28993965217665E-016,-1.,4.27031611698318E-016));
#972=DIRECTION('',(0.0535584027247024,-6.16297582203915E-033,0.998564718732631
));
#973=DIRECTION('',(-0.998564718732631,-6.05220050926583E-016,
0.0535584027247024));
#974=DIRECTION('',(0.991662779891074,0.,0.12886012175498));
#975=DIRECTION('',(-0.12886012175498,3.42419116217024E-016,0.991662779891074)
);
#976=DIRECTION('',(-6.28993965217665E-016,1.,0.));
#977=DIRECTION('',(1.,6.28993965217665E-016,0.));
#978=DIRECTION('',(-0.873154926176744,-6.16297582203915E-033,
-0.487442791405601));
#979=DIRECTION('',(0.487442791405601,-6.62661812046049E-017,-0.873154926176744
));
#980=DIRECTION('',(-0.503005655967631,0.,-0.864283119159789));
#981=DIRECTION('',(0.864283119159789,3.2882955022978E-016,-0.503005655967631)
);
#982=DIRECTION('',(-1.,0.,1.59560473995251E-014));
#983=DIRECTION('',(-1.59560473995251E-014,-4.27031611698328E-016,-1.));
#984=DIRECTION('',(-0.877755323131144,0.,-0.479109165759684));
#985=DIRECTION('',(0.479109165759684,-7.34724963701595E-017,-0.877755323131144
));
#986=DIRECTION('',(0.,1.,-4.27031611698318E-016));
#987=DIRECTION('',(-0.,-4.27031611698318E-016,-1.));
#988=DIRECTION('',(6.28993965217665E-016,-1.,0.));
#989=DIRECTION('',(-1.,-6.28993965217665E-016,0.));
#990=DIRECTION('',(0.,0.,-1.));
#991=DIRECTION('',(0.,-1.,0.));
#992=DIRECTION('',(0.,0.,-1.));
#993=DIRECTION('',(0.,-1.,0.));
#994=CARTESIAN_POINT('',(0.,0.,0.));
#995=CARTESIAN_POINT('',(167.999999999999,2000.,243.499999999999));
#996=CARTESIAN_POINT('',(167.999999999999,2000.,249.499999999999));
#997=CARTESIAN_POINT('',(141.071160999999,2000.,249.499999999999));
#998=CARTESIAN_POINT('',(99.1256249999988,2000.,226.604677999998));
#999=CARTESIAN_POINT('',(42.1256249999988,2000.,226.604677999999));
#1000=CARTESIAN_POINT('',(12.4536339999986,2000.,175.621153999999));
#1001=CARTESIAN_POINT('',(-1.36002320516582E-012,2000.,168.668854999999));
#1002=CARTESIAN_POINT('',(-1.36002320516582E-012,2000.,144.538387626719));
#1003=CARTESIAN_POINT('',(10.7419805915977,2000.,145.934238065994));
#1004=CARTESIAN_POINT('',(11.0011479999987,2000.,150.766260999999));
#1005=CARTESIAN_POINT('',(20.8451877077473,2000.,160.117933857174));
#1006=CARTESIAN_POINT('',(27.2379919999986,2000.,161.430062999999));
#1007=CARTESIAN_POINT('',(31.5247898828815,2000.,166.187341199797));
#1008=CARTESIAN_POINT('',(31.9980557549612,2000.,177.61327456858));
#1009=CARTESIAN_POINT('',(34.9788469999986,2000.,177.719247451767));
#1010=CARTESIAN_POINT('',(34.9788469999986,2000.,179.973786999999));
#1011=CARTESIAN_POINT('',(41.9377548320437,2000.,183.040803514372));
#1012=CARTESIAN_POINT('',(49.8841080556113,2000.,194.008847265128));
#1013=CARTESIAN_POINT('',(50.5121440805353,2000.,209.635488999999));
#1014=CARTESIAN_POINT('',(55.2230633396266,2000.,209.635488999999));
#1015=CARTESIAN_POINT('',(56.28204792223,2000.,210.395148466385));
#1016=CARTESIAN_POINT('',(60.8838782122167,2000.,213.975164134477));
#1017=CARTESIAN_POINT('',(119.076829053476,2000.,213.410131643885));
#1018=CARTESIAN_POINT('',(124.20850104302,2000.,210.640700969492));
#1019=CARTESIAN_POINT('',(125.414201771632,2000.,209.18051323799));
#1020=CARTESIAN_POINT('',(136.256390152427,2000.,209.604312079948));
#1021=CARTESIAN_POINT('',(137.890688426733,2000.,220.399280013818));
#1022=CARTESIAN_POINT('',(142.766322999999,2000.,222.780550999999));
#1023=CARTESIAN_POINT('',(144.608879890756,2000.,222.780550999999));
#1024=CARTESIAN_POINT('',(145.097539999999,2000.,228.381126999999));
#1025=CARTESIAN_POINT('',(150.297539999999,2000.,228.381126999999));
#1026=CARTESIAN_POINT('',(152.075684794297,2000.,232.444513411634));
#1027=CARTESIAN_POINT('',(163.037115165854,2000.,242.061862305859));
#1028=CARTESIAN_POINT('',(168.,0.,243.5));
#1029=CARTESIAN_POINT('',(168.,0.,249.5));
#1030=CARTESIAN_POINT('',(141.071161,0.,249.5));
#1031=CARTESIAN_POINT('',(99.125625,0.,226.604677999999));
#1032=CARTESIAN_POINT('',(42.125625,0.,226.604678));
#1033=CARTESIAN_POINT('',(12.4536339999999,0.,175.621154));
#1034=CARTESIAN_POINT('',(-9.71445146547012E-014,0.,168.668855));
#1035=CARTESIAN_POINT('',(-9.71445146547012E-014,0.,144.53838762672));
#1036=CARTESIAN_POINT('',(10.7419805915989,0.,145.934238065995));
#1037=CARTESIAN_POINT('',(11.001148,0.,150.766261));
#1038=CARTESIAN_POINT('',(20.8451877077485,0.,160.117933857175));
#1039=CARTESIAN_POINT('',(27.2379919999998,0.,161.430063));
#1040=CARTESIAN_POINT('',(31.5247898828827,0.,166.187341199798));
#1041=CARTESIAN_POINT('',(31.9980557549625,0.,177.613274568581));
#1042=CARTESIAN_POINT('',(34.9788469999999,0.,177.719247451768));
#1043=CARTESIAN_POINT('',(34.9788469999999,0.,179.973787));
#1044=CARTESIAN_POINT('',(41.937754832045,0.,183.040803514372));
#1045=CARTESIAN_POINT('',(49.8841080556125,0.,194.008847265129));
#1046=CARTESIAN_POINT('',(50.5121440805366,0.,209.635489));
#1047=CARTESIAN_POINT('',(55.2230633396278,0.,209.635489));
#1048=CARTESIAN_POINT('',(56.2820479222312,0.,210.395148466386));
#1049=CARTESIAN_POINT('',(60.883878212218,0.,213.975164134478));
#1050=CARTESIAN_POINT('',(119.076829053477,0.,213.410131643886));
#1051=CARTESIAN_POINT('',(124.208501043021,0.,210.640700969493));
#1052=CARTESIAN_POINT('',(125.414201771633,0.,209.180513237991));
#1053=CARTESIAN_POINT('',(136.256390152429,0.,209.604312079949));
#1054=CARTESIAN_POINT('',(137.890688426735,0.,220.399280013819));
#1055=CARTESIAN_POINT('',(142.766323,0.,222.780551));
#1056=CARTESIAN_POINT('',(144.608879890757,0.,222.780551));
#1057=CARTESIAN_POINT('',(145.09754,0.,228.381127));
#1058=CARTESIAN_POINT('',(150.29754,0.,228.381127));
#1059=CARTESIAN_POINT('',(152.075684794298,0.,232.444513411635));
#1060=CARTESIAN_POINT('',(163.037115165855,0.,242.06186230586));
#1061=CARTESIAN_POINT('',(163.037115165854,2000.,242.061862305859));
#1062=CARTESIAN_POINT('',(152.075684794297,2000.,232.444513411634));
#1063=CARTESIAN_POINT('',(150.297539999999,2000.,228.381126999999));
#1064=CARTESIAN_POINT('',(145.097539999999,2000.,228.381126999999));
#1065=CARTESIAN_POINT('',(144.608879890756,2000.,222.780550999999));
#1066=CARTESIAN_POINT('',(142.766322999999,2000.,222.780550999999));
#1067=CARTESIAN_POINT('',(137.890688426733,2000.,220.399280013818));
#1068=CARTESIAN_POINT('',(136.256390152427,2000.,209.604312079948));
#1069=CARTESIAN_POINT('',(125.414201771632,2000.,209.18051323799));
#1070=CARTESIAN_POINT('',(124.20850104302,2000.,210.640700969492));
#1071=CARTESIAN_POINT('',(119.076829053476,2000.,213.410131643885));
#1072=CARTESIAN_POINT('',(60.8838782122167,2000.,213.975164134477));
#1073=CARTESIAN_POINT('',(56.28204792223,2000.,210.395148466385));
#1074=CARTESIAN_POINT('',(55.2230633396266,2000.,209.635488999999));
#1075=CARTESIAN_POINT('',(50.5121440805353,2000.,209.635488999999));
#1076=CARTESIAN_POINT('',(49.8841080556113,2000.,194.008847265128));
#1077=CARTESIAN_POINT('',(41.9377548320437,2000.,183.040803514372));
#1078=CARTESIAN_POINT('',(34.9788469999986,2000.,179.973786999999));
#1079=CARTESIAN_POINT('',(34.9788469999986,2000.,177.719247451767));
#1080=CARTESIAN_POINT('',(31.9980557549612,2000.,177.61327456858));
#1081=CARTESIAN_POINT('',(31.5247898828815,2000.,166.187341199797));
#1082=CARTESIAN_POINT('',(27.2379919999986,2000.,161.430062999999));
#1083=CARTESIAN_POINT('',(20.8451877077473,2000.,160.117933857174));
#1084=CARTESIAN_POINT('',(11.0011479999987,2000.,150.766260999999));
#1085=CARTESIAN_POINT('',(10.7419805915977,2000.,145.934238065994));
#1086=CARTESIAN_POINT('',(-1.36002320516582E-012,2000.,144.538387626719));
#1087=CARTESIAN_POINT('',(-1.36002320516582E-012,2000.,168.668854999999));
#1088=CARTESIAN_POINT('',(12.4536339999986,2000.,175.621153999999));
#1089=CARTESIAN_POINT('',(42.1256249999988,2000.,226.604677999999));
#1090=CARTESIAN_POINT('',(99.1256249999988,2000.,226.604677999998));
#1091=CARTESIAN_POINT('',(141.071160999999,2000.,249.499999999999));
#1092=CARTESIAN_POINT('',(167.999999999999,2000.,249.499999999999));
#1093=CARTESIAN_POINT('',(167.999999999999,2000.,243.499999999999));
#1094=CARTESIAN_POINT('',(167.999999999999,2000.,249.499999999999));
#1095=CARTESIAN_POINT('',(141.071160999999,2000.,249.499999999999));
#1096=CARTESIAN_POINT('',(99.1256249999988,2000.,226.604677999998));
#1097=CARTESIAN_POINT('',(42.1256249999988,2000.,226.604677999999));
#1098=CARTESIAN_POINT('',(12.4536339999986,2000.,175.621153999999));
#1099=CARTESIAN_POINT('',(-1.36002320516582E-012,2000.,168.668854999999));
#1100=CARTESIAN_POINT('',(-1.36002320516582E-012,2000.,144.53838762672));
#1101=CARTESIAN_POINT('',(10.7419805915977,2000.,145.934238065994));
#1102=CARTESIAN_POINT('',(11.0011479999985,2000.,150.766260999999));
#1103=CARTESIAN_POINT('',(9.37205833608232,2000.,162.338123755412));
#1104=CARTESIAN_POINT('',(27.2379919999984,2000.,161.430062999999));
#1105=CARTESIAN_POINT('',(34.3572564376768,2000.,159.324934538084));
#1106=CARTESIAN_POINT('',(31.9980557549613,2000.,177.61327456858));
#1107=CARTESIAN_POINT('',(34.9788469999986,2000.,177.719247451767));
#1108=CARTESIAN_POINT('',(34.9788469999986,2000.,179.973786999999));
#1109=CARTESIAN_POINT('',(41.9377548320436,2000.,183.040803514372));
#1110=CARTESIAN_POINT('',(35.1223871574707,2000.,196.341131160921));
#1111=CARTESIAN_POINT('',(-32.2431290404067,2000.,205.135488999999));
#1112=CARTESIAN_POINT('',(55.2230633396266,2000.,209.635488999999));
#1113=CARTESIAN_POINT('',(55.3104207104775,2000.,210.631666037354));
#1114=CARTESIAN_POINT('',(60.838348462369,2000.,209.286034679405));
#1115=CARTESIAN_POINT('',(119.076829053476,2000.,213.410131643885));
#1116=CARTESIAN_POINT('',(118.232244074583,2000.,205.706008514707));
#1117=CARTESIAN_POINT('',(125.414201771632,2000.,209.18051323799));
#1118=CARTESIAN_POINT('',(136.256390152427,2000.,209.604312079948));
#1119=CARTESIAN_POINT('',(137.890688426733,2000.,220.399280013818));
#1120=CARTESIAN_POINT('',(141.151093702546,2000.,219.905672737869));
#1121=CARTESIAN_POINT('',(144.608879890756,2000.,222.780550999999));
#1122=CARTESIAN_POINT('',(145.097539999999,2000.,228.381126999999));
#1123=CARTESIAN_POINT('',(150.297539999999,2000.,228.381126999999));
#1124=CARTESIAN_POINT('',(152.075684794297,2000.,232.444513411634));
#1125=CARTESIAN_POINT('',(167.820590466287,2000.,225.55451595109));
#1126=CARTESIAN_POINT('',(167.999999999999,2000.,243.499999999999));
#1127=CARTESIAN_POINT('',(168.,0.,249.5));
#1128=CARTESIAN_POINT('',(141.071161,0.,249.5));
#1129=CARTESIAN_POINT('',(99.125625,0.,226.604677999999));
#1130=CARTESIAN_POINT('',(42.125625,0.,226.604678));
#1131=CARTESIAN_POINT('',(12.4536339999999,0.,175.621154));
#1132=CARTESIAN_POINT('',(-9.71445146547012E-014,0.,168.668855));
#1133=CARTESIAN_POINT('',(-9.71445146547012E-014,0.,144.538387626721));
#1134=CARTESIAN_POINT('',(10.7419805915989,0.,145.934238065995));
#1135=CARTESIAN_POINT('',(11.0011479999998,0.,150.766261));
#1136=CARTESIAN_POINT('',(9.37205833608358,0.,162.338123755413));
#1137=CARTESIAN_POINT('',(27.2379919999997,0.,161.430063));
#1138=CARTESIAN_POINT('',(34.3572564376781,0.,159.324934538085));
#1139=CARTESIAN_POINT('',(31.9980557549625,0.,177.613274568581));
#1140=CARTESIAN_POINT('',(34.9788469999999,0.,177.719247451768));
#1141=CARTESIAN_POINT('',(34.9788469999999,0.,179.973787));
#1142=CARTESIAN_POINT('',(41.9377548320448,0.,183.040803514373));
#1143=CARTESIAN_POINT('',(35.122387157472,0.,196.341131160922));
#1144=CARTESIAN_POINT('',(-32.2431290404054,0.,205.135488999999));
#1145=CARTESIAN_POINT('',(55.2230633396278,0.,209.635489));
#1146=CARTESIAN_POINT('',(55.3104207104788,0.,210.631666037355));
#1147=CARTESIAN_POINT('',(60.8383484623702,0.,209.286034679406));
#1148=CARTESIAN_POINT('',(119.076829053477,0.,213.410131643886));
#1149=CARTESIAN_POINT('',(118.232244074585,0.,205.706008514708));
#1150=CARTESIAN_POINT('',(125.414201771633,0.,209.180513237991));
#1151=CARTESIAN_POINT('',(136.256390152429,0.,209.604312079949));
#1152=CARTESIAN_POINT('',(137.890688426735,0.,220.399280013819));
#1153=CARTESIAN_POINT('',(141.151093702547,0.,219.90567273787));
#1154=CARTESIAN_POINT('',(144.608879890757,0.,222.780551));
#1155=CARTESIAN_POINT('',(145.09754,0.,228.381127));
#1156=CARTESIAN_POINT('',(150.29754,0.,228.381127));
#1157=CARTESIAN_POINT('',(152.075684794298,0.,232.444513411635));
#1158=CARTESIAN_POINT('',(167.820590466288,0.,225.554515951091));
#1159=CARTESIAN_POINT('',(168.,0.,243.5));
#1160=CARTESIAN_POINT('',(167.999999999999,2000.,243.499999999999));
#1161=CARTESIAN_POINT('',(167.820590466287,2000.,225.55451595109));
#1162=CARTESIAN_POINT('',(152.075684794297,2000.,232.444513411634));
#1163=CARTESIAN_POINT('',(150.297539999999,2000.,228.381126999999));
#1164=CARTESIAN_POINT('',(145.097539999999,2000.,228.381126999999));
#1165=CARTESIAN_POINT('',(144.608879890756,2000.,222.780550999999));
#1166=CARTESIAN_POINT('',(141.151093702546,2000.,219.905672737869));
#1167=CARTESIAN_POINT('',(137.890688426733,2000.,220.399280013818));
#1168=CARTESIAN_POINT('',(136.256390152427,2000.,209.604312079948));
#1169=CARTESIAN_POINT('',(125.414201771632,2000.,209.18051323799));
#1170=CARTESIAN_POINT('',(118.232244074583,2000.,205.706008514707));
#1171=CARTESIAN_POINT('',(119.076829053476,2000.,213.410131643885));
#1172=CARTESIAN_POINT('',(60.838348462369,2000.,209.286034679405));
#1173=CARTESIAN_POINT('',(55.3104207104775,2000.,210.631666037354));
#1174=CARTESIAN_POINT('',(55.2230633396266,2000.,209.635488999999));
#1175=CARTESIAN_POINT('',(-32.2431290404067,2000.,205.135488999999));
#1176=CARTESIAN_POINT('',(35.1223871574707,2000.,196.341131160921));
#1177=CARTESIAN_POINT('',(41.9377548320436,2000.,183.040803514372));
#1178=CARTESIAN_POINT('',(34.9788469999986,2000.,179.973786999999));
#1179=CARTESIAN_POINT('',(34.9788469999986,2000.,177.719247451767));
#1180=CARTESIAN_POINT('',(31.9980557549613,2000.,177.61327456858));
#1181=CARTESIAN_POINT('',(34.3572564376768,2000.,159.324934538084));
#1182=CARTESIAN_POINT('',(27.2379919999984,2000.,161.430062999999));
#1183=CARTESIAN_POINT('',(9.37205833608232,2000.,162.338123755412));
#1184=CARTESIAN_POINT('',(11.0011479999985,2000.,150.766260999999));
#1185=CARTESIAN_POINT('',(10.7419805915977,2000.,145.934238065994));
#1186=CARTESIAN_POINT('',(-1.36002320516582E-012,2000.,144.53838762672));
#1187=CARTESIAN_POINT('',(-1.36002320516582E-012,2000.,168.668854999999));
#1188=CARTESIAN_POINT('',(12.4536339999986,2000.,175.621153999999));
#1189=CARTESIAN_POINT('',(42.1256249999988,2000.,226.604677999999));
#1190=CARTESIAN_POINT('',(99.1256249999988,2000.,226.604677999998));
#1191=CARTESIAN_POINT('',(141.071160999999,2000.,249.499999999999));
#1192=CARTESIAN_POINT('',(167.999999999999,2000.,249.499999999999));
#1193=CARTESIAN_POINT('',(167.820590466287,2000.,225.55451595109));
#1194=CARTESIAN_POINT('',(167.820590466288,0.,225.554515951091));
#1195=PRODUCT_DEFINITION_SHAPE('','',#1196);
#1196=PRODUCT_DEFINITION('','',#1208,#1213);
#1197=(
GEOMETRIC_REPRESENTATION_CONTEXT(3)
GLOBAL_UNCERTAINTY_ASSIGNED_CONTEXT((#1198))
GLOBAL_UNIT_ASSIGNED_CONTEXT((#1200,#1199,#1203))
REPRESENTATION_CONTEXT('','')
);
#1198=UNCERTAINTY_MEASURE_WITH_UNIT(LENGTH_MEASURE(0.001),#1200,'','tolerance'
);
#1199=(
CONVERSION_BASED_UNIT('',#1201)
NAMED_UNIT(#1207)
PLANE_ANGLE_UNIT()
);
#1200=(
CONVERSION_BASED_UNIT('',#1202)
LENGTH_UNIT()
NAMED_UNIT(#1206)
);
#1201=PLANE_ANGLE_MEASURE_WITH_UNIT(PLANE_ANGLE_MEASURE(0.0174532925199433),
#1204);
#1202=LENGTH_MEASURE_WITH_UNIT(LENGTH_MEASURE(1.),#1205);
#1203=(
NAMED_UNIT(*)
SI_UNIT($,.STERADIAN.)
SOLID_ANGLE_UNIT()
);
#1204=(
NAMED_UNIT(*)
PLANE_ANGLE_UNIT()
SI_UNIT($,.RADIAN.)
);
#1205=(
LENGTH_UNIT()
NAMED_UNIT(*)
SI_UNIT(.MILLI.,.METRE.)
);
#1206=DIMENSIONAL_EXPONENTS(1.,0.,0.,0.,0.,0.,0.);
#1207=DIMENSIONAL_EXPONENTS(0.,0.,0.,0.,0.,0.,0.);
#1208=PRODUCT_DEFINITION_FORMATION_WITH_SPECIFIED_SOURCE('','',#1211,
.NOT_KNOWN.);
#1209=PRODUCT_CATEGORY_RELATIONSHIP('','',#1214,#1210);
#1210=PRODUCT_RELATED_PRODUCT_CATEGORY('assembly','',(#1211));
#1211=PRODUCT('','master','',(#1212));
#1212=PRODUCT_CONTEXT('',#1216,'');
#1213=PRODUCT_DEFINITION_CONTEXT('',#1216,'part_definition');
#1214=PRODUCT_CATEGORY('part','');
#1215=APPLICATION_PROTOCOL_DEFINITION('international standard',
'automotive_design_cc2',1994,#1216);
#1216=APPLICATION_CONTEXT(
'configuration controlled 3D designs of mechanical parts and assemblies');
ENDSEC;
END-ISO-10303-21;
56133