ISO-10303-21;
HEADER;
/* Generated by software using Delcam plc STEP library */

FILE_DESCRIPTION(
/* description */ ('AP-214 File'),
/* implementation_level */ '2;1');

FILE_NAME(
/* name */ 'D886',
/* time_stamp */ 'Thu Dec 22 14:52:56 2016',
/* author */ (''),
/* organization */ (''),
/* preprocessor_version */ 'DELCAM STEP V1',
/* originating_system */ 'Exchange7.1.0006',
/* authorisation */ '');

FILE_SCHEMA (('AUTOMOTIVE_DESIGN'));
ENDSEC;
DATA;
#10=PRESENTATION_STYLE_ASSIGNMENT((#20));
#11=PRESENTATION_STYLE_ASSIGNMENT((#21));
#12=SURFACE_SIDE_STYLE('',(#14));
#13=SURFACE_SIDE_STYLE('',(#15));
#14=SURFACE_STYLE_FILL_AREA(#16);
#15=SURFACE_STYLE_FILL_AREA(#17);
#16=FILL_AREA_STYLE('',(#18));
#17=FILL_AREA_STYLE('',(#19));
#18=FILL_AREA_STYLE_COLOUR('',#70);
#19=FILL_AREA_STYLE_COLOUR('',#71);
#20=SURFACE_STYLE_USAGE(.BOTH.,#12);
#21=SURFACE_STYLE_USAGE(.BOTH.,#13);
#22=STYLED_ITEM('',(#10),#110);
#23=STYLED_ITEM('',(#10),#111);
#24=STYLED_ITEM('',(#10),#112);
#25=STYLED_ITEM('',(#10),#113);
#26=STYLED_ITEM('',(#10),#114);
#27=STYLED_ITEM('',(#10),#115);
#28=STYLED_ITEM('',(#10),#116);
#29=STYLED_ITEM('',(#10),#117);
#30=STYLED_ITEM('',(#10),#118);
#31=STYLED_ITEM('',(#10),#119);
#32=STYLED_ITEM('',(#10),#120);
#33=STYLED_ITEM('',(#10),#121);
#34=STYLED_ITEM('',(#10),#122);
#35=STYLED_ITEM('',(#10),#123);
#36=STYLED_ITEM('',(#10),#124);
#37=STYLED_ITEM('',(#10),#125);
#38=STYLED_ITEM('',(#10),#126);
#39=STYLED_ITEM('',(#10),#127);
#40=STYLED_ITEM('',(#10),#128);
#41=STYLED_ITEM('',(#10),#129);
#42=STYLED_ITEM('',(#10),#130);
#43=STYLED_ITEM('',(#10),#131);
#44=STYLED_ITEM('',(#10),#132);
#45=STYLED_ITEM('',(#10),#133);
#46=STYLED_ITEM('',(#10),#134);
#47=STYLED_ITEM('',(#10),#135);
#48=STYLED_ITEM('',(#10),#136);
#49=STYLED_ITEM('',(#10),#137);
#50=STYLED_ITEM('',(#10),#138);
#51=STYLED_ITEM('',(#10),#139);
#52=STYLED_ITEM('',(#10),#140);
#53=STYLED_ITEM('',(#10),#141);
#54=STYLED_ITEM('',(#10),#142);
#55=STYLED_ITEM('',(#10),#143);
#56=STYLED_ITEM('',(#10),#144);
#57=STYLED_ITEM('',(#10),#145);
#58=STYLED_ITEM('',(#10),#146);
#59=STYLED_ITEM('',(#10),#147);
#60=STYLED_ITEM('',(#10),#148);
#61=STYLED_ITEM('',(#10),#149);
#62=STYLED_ITEM('',(#10),#150);
#63=STYLED_ITEM('',(#10),#151);
#64=STYLED_ITEM('',(#10),#152);
#65=STYLED_ITEM('',(#10),#153);
#66=STYLED_ITEM('',(#10),#154);
#67=STYLED_ITEM('',(#10),#155);
#68=STYLED_ITEM('',(#10),#156);
#69=STYLED_ITEM('',(#11),#77);
#70=COLOUR_RGB('',0.,0.,0.);
#71=COLOUR_RGB('rgb_colour_1',0.4,0.4,0.4);
#72=MECHANICAL_DESIGN_GEOMETRIC_PRESENTATION_REPRESENTATION('',(#22,#23,#24,
#25,#26,#27,#28,#29,#30,#31,#32,#33,#34,#35,#36,#37,#38,#39,#40,#41,#42,#43,
#44,#45,#46,#47,#48,#49,#50,#51,#52,#53,#54,#55,#56,#57,#58,#59,#60,#61,#62,
#63,#64,#65,#66,#67,#68,#69),#1617);
#73=PRESENTATION_LAYER_ASSIGNMENT('43','D886',(#110,#111,#112,#113,#114,#115,
#116,#117,#118,#119,#120,#121,#122,#123,#124,#125,#126,#127,#128,#129,#130,
#131,#132,#133,#134,#135,#136,#137,#138,#139,#140,#141,#142,#143,#144,#145,
#146,#147,#148,#149,#150,#151,#152,#153,#154,#155,#156,#77));
#74=SHAPE_REPRESENTATION_RELATIONSHIP('','',#1002,#75);
#75=ADVANCED_BREP_SHAPE_REPRESENTATION('',(#76),#1617);
#76=MANIFOLD_SOLID_BREP('2786',#77);
#77=CLOSED_SHELL('',(#110,#111,#112,#113,#114,#115,#116,#117,#118,#119,#120,
#121,#122,#123,#124,#125,#126,#127,#128,#129,#130,#131,#132,#133,#134,#135,
#136,#137,#138,#139,#140,#141,#142,#143,#144,#145,#146,#147,#148,#149,#150,
#151,#152,#153,#154,#155,#156));
#78=PLANE('',#1036);
#79=PLANE('',#1037);
#80=PLANE('',#1038);
#81=PLANE('',#1039);
#82=PLANE('',#1040);
#83=PLANE('',#1041);
#84=PLANE('',#1042);
#85=PLANE('',#1048);
#86=PLANE('',#1049);
#87=PLANE('',#1050);
#88=PLANE('',#1051);
#89=PLANE('',#1052);
#90=PLANE('',#1053);
#91=PLANE('',#1054);
#92=PLANE('',#1055);
#93=PLANE('',#1056);
#94=PLANE('',#1057);
#95=PLANE('',#1058);
#96=PLANE('',#1059);
#97=PLANE('',#1060);
#98=PLANE('',#1064);
#99=PLANE('',#1066);
#100=PLANE('',#1067);
#101=PLANE('',#1070);
#102=PLANE('',#1071);
#103=PLANE('',#1072);
#104=PLANE('',#1073);
#105=PLANE('',#1074);
#106=PLANE('',#1076);
#107=PLANE('',#1077);
#108=PLANE('',#1079);
#109=PLANE('',#1080);
#110=ADVANCED_FACE('',(#157),#521,.T.);
#111=ADVANCED_FACE('',(#158),#522,.T.);
#112=ADVANCED_FACE('',(#159),#78,.T.);
#113=ADVANCED_FACE('',(#160),#79,.T.);
#114=ADVANCED_FACE('',(#161),#80,.T.);
#115=ADVANCED_FACE('',(#162),#81,.T.);
#116=ADVANCED_FACE('',(#163),#82,.T.);
#117=ADVANCED_FACE('',(#164),#83,.T.);
#118=ADVANCED_FACE('',(#165),#84,.T.);
#119=ADVANCED_FACE('',(#166),#523,.T.);
#120=ADVANCED_FACE('',(#167),#524,.T.);
#121=ADVANCED_FACE('',(#168),#525,.F.);
#122=ADVANCED_FACE('',(#169),#526,.F.);
#123=ADVANCED_FACE('',(#170),#527,.T.);
#124=ADVANCED_FACE('',(#171),#85,.T.);
#125=ADVANCED_FACE('',(#172),#86,.T.);
#126=ADVANCED_FACE('',(#173),#87,.T.);
#127=ADVANCED_FACE('',(#174),#88,.T.);
#128=ADVANCED_FACE('',(#175),#89,.T.);
#129=ADVANCED_FACE('',(#176),#90,.T.);
#130=ADVANCED_FACE('',(#177),#91,.T.);
#131=ADVANCED_FACE('',(#178),#92,.T.);
#132=ADVANCED_FACE('',(#179),#93,.T.);
#133=ADVANCED_FACE('',(#180),#94,.T.);
#134=ADVANCED_FACE('',(#181),#95,.T.);
#135=ADVANCED_FACE('',(#182),#96,.T.);
#136=ADVANCED_FACE('',(#183),#97,.T.);
#137=ADVANCED_FACE('',(#184),#528,.F.);
#138=ADVANCED_FACE('',(#185),#529,.F.);
#139=ADVANCED_FACE('',(#186),#530,.F.);
#140=ADVANCED_FACE('',(#187),#98,.T.);
#141=ADVANCED_FACE('',(#188),#531,.T.);
#142=ADVANCED_FACE('',(#189),#99,.T.);
#143=ADVANCED_FACE('',(#190),#100,.T.);
#144=ADVANCED_FACE('',(#191),#532,.T.);
#145=ADVANCED_FACE('',(#192),#533,.T.);
#146=ADVANCED_FACE('',(#193),#101,.T.);
#147=ADVANCED_FACE('',(#194),#102,.T.);
#148=ADVANCED_FACE('',(#195),#103,.T.);
#149=ADVANCED_FACE('',(#196),#104,.T.);
#150=ADVANCED_FACE('',(#197),#105,.T.);
#151=ADVANCED_FACE('',(#198),#534,.F.);
#152=ADVANCED_FACE('',(#199),#106,.T.);
#153=ADVANCED_FACE('',(#200),#107,.T.);
#154=ADVANCED_FACE('',(#201),#535,.F.);
#155=ADVANCED_FACE('',(#202),#108,.F.);
#156=ADVANCED_FACE('',(#203),#109,.T.);
#157=FACE_OUTER_BOUND('',#204,.T.);
#158=FACE_OUTER_BOUND('',#205,.T.);
#159=FACE_OUTER_BOUND('',#206,.T.);
#160=FACE_OUTER_BOUND('',#207,.T.);
#161=FACE_OUTER_BOUND('',#208,.T.);
#162=FACE_OUTER_BOUND('',#209,.T.);
#163=FACE_OUTER_BOUND('',#210,.T.);
#164=FACE_OUTER_BOUND('',#211,.T.);
#165=FACE_OUTER_BOUND('',#212,.T.);
#166=FACE_OUTER_BOUND('',#213,.T.);
#167=FACE_OUTER_BOUND('',#214,.T.);
#168=FACE_OUTER_BOUND('',#215,.T.);
#169=FACE_OUTER_BOUND('',#216,.T.);
#170=FACE_OUTER_BOUND('',#217,.T.);
#171=FACE_OUTER_BOUND('',#218,.T.);
#172=FACE_OUTER_BOUND('',#219,.T.);
#173=FACE_OUTER_BOUND('',#220,.T.);
#174=FACE_OUTER_BOUND('',#221,.T.);
#175=FACE_OUTER_BOUND('',#222,.T.);
#176=FACE_OUTER_BOUND('',#223,.T.);
#177=FACE_OUTER_BOUND('',#224,.T.);
#178=FACE_OUTER_BOUND('',#225,.T.);
#179=FACE_OUTER_BOUND('',#226,.T.);
#180=FACE_OUTER_BOUND('',#227,.T.);
#181=FACE_OUTER_BOUND('',#228,.T.);
#182=FACE_OUTER_BOUND('',#229,.T.);
#183=FACE_OUTER_BOUND('',#230,.T.);
#184=FACE_OUTER_BOUND('',#231,.T.);
#185=FACE_OUTER_BOUND('',#232,.T.);
#186=FACE_OUTER_BOUND('',#233,.T.);
#187=FACE_OUTER_BOUND('',#234,.T.);
#188=FACE_OUTER_BOUND('',#235,.T.);
#189=FACE_OUTER_BOUND('',#236,.T.);
#190=FACE_OUTER_BOUND('',#237,.T.);
#191=FACE_OUTER_BOUND('',#238,.T.);
#192=FACE_OUTER_BOUND('',#239,.T.);
#193=FACE_OUTER_BOUND('',#240,.T.);
#194=FACE_OUTER_BOUND('',#241,.T.);
#195=FACE_OUTER_BOUND('',#242,.T.);
#196=FACE_OUTER_BOUND('',#243,.T.);
#197=FACE_OUTER_BOUND('',#244,.T.);
#198=FACE_OUTER_BOUND('',#245,.T.);
#199=FACE_OUTER_BOUND('',#246,.T.);
#200=FACE_OUTER_BOUND('',#247,.T.);
#201=FACE_OUTER_BOUND('',#248,.T.);
#202=FACE_OUTER_BOUND('',#249,.T.);
#203=FACE_OUTER_BOUND('',#250,.T.);
#204=EDGE_LOOP('',(#251,#252,#253,#254));
#205=EDGE_LOOP('',(#255,#256,#257,#258));
#206=EDGE_LOOP('',(#259,#260,#261,#262));
#207=EDGE_LOOP('',(#263,#264,#265,#266));
#208=EDGE_LOOP('',(#267,#268,#269,#270));
#209=EDGE_LOOP('',(#271,#272,#273,#274));
#210=EDGE_LOOP('',(#275,#276,#277,#278));
#211=EDGE_LOOP('',(#279,#280,#281,#282));
#212=EDGE_LOOP('',(#283,#284,#285,#286));
#213=EDGE_LOOP('',(#287,#288,#289,#290));
#214=EDGE_LOOP('',(#291,#292,#293,#294));
#215=EDGE_LOOP('',(#295,#296,#297,#298));
#216=EDGE_LOOP('',(#299,#300,#301,#302));
#217=EDGE_LOOP('',(#303,#304,#305,#306));
#218=EDGE_LOOP('',(#307,#308,#309,#310));
#219=EDGE_LOOP('',(#311,#312,#313,#314));
#220=EDGE_LOOP('',(#315,#316,#317,#318));
#221=EDGE_LOOP('',(#319,#320,#321,#322));
#222=EDGE_LOOP('',(#323,#324,#325,#326));
#223=EDGE_LOOP('',(#327,#328,#329,#330));
#224=EDGE_LOOP('',(#331,#332,#333,#334));
#225=EDGE_LOOP('',(#335,#336,#337,#338));
#226=EDGE_LOOP('',(#339,#340,#341,#342));
#227=EDGE_LOOP('',(#343,#344,#345,#346));
#228=EDGE_LOOP('',(#347,#348,#349,#350));
#229=EDGE_LOOP('',(#351,#352,#353,#354));
#230=EDGE_LOOP('',(#355,#356,#357,#358));
#231=EDGE_LOOP('',(#359,#360,#361,#362));
#232=EDGE_LOOP('',(#363,#364,#365,#366));
#233=EDGE_LOOP('',(#367,#368,#369,#370));
#234=EDGE_LOOP('',(#371,#372,#373,#374));
#235=EDGE_LOOP('',(#375,#376,#377,#378));
#236=EDGE_LOOP('',(#379,#380,#381,#382));
#237=EDGE_LOOP('',(#383,#384,#385,#386));
#238=EDGE_LOOP('',(#387,#388,#389,#390));
#239=EDGE_LOOP('',(#391,#392,#393,#394));
#240=EDGE_LOOP('',(#395,#396,#397,#398));
#241=EDGE_LOOP('',(#399,#400,#401,#402));
#242=EDGE_LOOP('',(#403,#404,#405,#406));
#243=EDGE_LOOP('',(#407,#408,#409,#410));
#244=EDGE_LOOP('',(#411,#412,#413,#414));
#245=EDGE_LOOP('',(#415,#416,#417,#418));
#246=EDGE_LOOP('',(#419,#420,#421,#422));
#247=EDGE_LOOP('',(#423,#424,#425,#426));
#248=EDGE_LOOP('',(#427,#428,#429,#430));
#249=EDGE_LOOP('',(#431,#432,#433,#434,#435,#436,#437,#438,#439,#440,#441,#442
,#443,#444,#445,#446,#447,#448,#449,#450,#451,#452,#453,#454,#455,#456,#457,
#458,#459,#460,#461,#462,#463,#464,#465,#466,#467,#468,#469,#470,#471,#472,
#473,#474,#475));
#250=EDGE_LOOP('',(#476,#477,#478,#479,#480,#481,#482,#483,#484,#485,#486,#487
,#488,#489,#490,#491,#492,#493,#494,#495,#496,#497,#498,#499,#500,#501,#502,
#503,#504,#505,#506,#507,#508,#509,#510,#511,#512,#513,#514,#515,#516,#517,
#518,#519,#520));
#251=ORIENTED_EDGE('',*,*,#700,.F.);
#252=ORIENTED_EDGE('',*,*,#610,.F.);
#253=ORIENTED_EDGE('',*,*,#655,.T.);
#254=ORIENTED_EDGE('',*,*,#566,.T.);
#255=ORIENTED_EDGE('',*,*,#699,.F.);
#256=ORIENTED_EDGE('',*,*,#566,.F.);
#257=ORIENTED_EDGE('',*,*,#654,.T.);
#258=ORIENTED_EDGE('',*,*,#567,.T.);
#259=ORIENTED_EDGE('',*,*,#698,.F.);
#260=ORIENTED_EDGE('',*,*,#567,.F.);
#261=ORIENTED_EDGE('',*,*,#653,.T.);
#262=ORIENTED_EDGE('',*,*,#568,.T.);
#263=ORIENTED_EDGE('',*,*,#697,.F.);
#264=ORIENTED_EDGE('',*,*,#568,.F.);
#265=ORIENTED_EDGE('',*,*,#652,.T.);
#266=ORIENTED_EDGE('',*,*,#569,.T.);
#267=ORIENTED_EDGE('',*,*,#696,.F.);
#268=ORIENTED_EDGE('',*,*,#569,.F.);
#269=ORIENTED_EDGE('',*,*,#651,.T.);
#270=ORIENTED_EDGE('',*,*,#570,.T.);
#271=ORIENTED_EDGE('',*,*,#695,.F.);
#272=ORIENTED_EDGE('',*,*,#570,.F.);
#273=ORIENTED_EDGE('',*,*,#650,.T.);
#274=ORIENTED_EDGE('',*,*,#571,.T.);
#275=ORIENTED_EDGE('',*,*,#694,.F.);
#276=ORIENTED_EDGE('',*,*,#571,.F.);
#277=ORIENTED_EDGE('',*,*,#649,.T.);
#278=ORIENTED_EDGE('',*,*,#572,.T.);
#279=ORIENTED_EDGE('',*,*,#693,.F.);
#280=ORIENTED_EDGE('',*,*,#572,.F.);
#281=ORIENTED_EDGE('',*,*,#648,.T.);
#282=ORIENTED_EDGE('',*,*,#573,.T.);
#283=ORIENTED_EDGE('',*,*,#692,.F.);
#284=ORIENTED_EDGE('',*,*,#573,.F.);
#285=ORIENTED_EDGE('',*,*,#647,.T.);
#286=ORIENTED_EDGE('',*,*,#574,.T.);
#287=ORIENTED_EDGE('',*,*,#691,.F.);
#288=ORIENTED_EDGE('',*,*,#574,.F.);
#289=ORIENTED_EDGE('',*,*,#646,.T.);
#290=ORIENTED_EDGE('',*,*,#575,.T.);
#291=ORIENTED_EDGE('',*,*,#690,.F.);
#292=ORIENTED_EDGE('',*,*,#575,.F.);
#293=ORIENTED_EDGE('',*,*,#645,.T.);
#294=ORIENTED_EDGE('',*,*,#576,.T.);
#295=ORIENTED_EDGE('',*,*,#689,.F.);
#296=ORIENTED_EDGE('',*,*,#576,.F.);
#297=ORIENTED_EDGE('',*,*,#644,.T.);
#298=ORIENTED_EDGE('',*,*,#577,.T.);
#299=ORIENTED_EDGE('',*,*,#688,.F.);
#300=ORIENTED_EDGE('',*,*,#577,.F.);
#301=ORIENTED_EDGE('',*,*,#643,.T.);
#302=ORIENTED_EDGE('',*,*,#578,.T.);
#303=ORIENTED_EDGE('',*,*,#687,.F.);
#304=ORIENTED_EDGE('',*,*,#578,.F.);
#305=ORIENTED_EDGE('',*,*,#642,.T.);
#306=ORIENTED_EDGE('',*,*,#579,.T.);
#307=ORIENTED_EDGE('',*,*,#686,.F.);
#308=ORIENTED_EDGE('',*,*,#579,.F.);
#309=ORIENTED_EDGE('',*,*,#641,.T.);
#310=ORIENTED_EDGE('',*,*,#580,.T.);
#311=ORIENTED_EDGE('',*,*,#685,.F.);
#312=ORIENTED_EDGE('',*,*,#580,.F.);
#313=ORIENTED_EDGE('',*,*,#640,.T.);
#314=ORIENTED_EDGE('',*,*,#581,.T.);
#315=ORIENTED_EDGE('',*,*,#684,.F.);
#316=ORIENTED_EDGE('',*,*,#581,.F.);
#317=ORIENTED_EDGE('',*,*,#639,.T.);
#318=ORIENTED_EDGE('',*,*,#582,.T.);
#319=ORIENTED_EDGE('',*,*,#683,.F.);
#320=ORIENTED_EDGE('',*,*,#582,.F.);
#321=ORIENTED_EDGE('',*,*,#638,.T.);
#322=ORIENTED_EDGE('',*,*,#583,.T.);
#323=ORIENTED_EDGE('',*,*,#682,.F.);
#324=ORIENTED_EDGE('',*,*,#583,.F.);
#325=ORIENTED_EDGE('',*,*,#637,.T.);
#326=ORIENTED_EDGE('',*,*,#584,.T.);
#327=ORIENTED_EDGE('',*,*,#681,.F.);
#328=ORIENTED_EDGE('',*,*,#584,.F.);
#329=ORIENTED_EDGE('',*,*,#636,.T.);
#330=ORIENTED_EDGE('',*,*,#585,.T.);
#331=ORIENTED_EDGE('',*,*,#680,.F.);
#332=ORIENTED_EDGE('',*,*,#585,.F.);
#333=ORIENTED_EDGE('',*,*,#635,.T.);
#334=ORIENTED_EDGE('',*,*,#586,.T.);
#335=ORIENTED_EDGE('',*,*,#679,.F.);
#336=ORIENTED_EDGE('',*,*,#586,.F.);
#337=ORIENTED_EDGE('',*,*,#634,.T.);
#338=ORIENTED_EDGE('',*,*,#587,.T.);
#339=ORIENTED_EDGE('',*,*,#678,.F.);
#340=ORIENTED_EDGE('',*,*,#587,.F.);
#341=ORIENTED_EDGE('',*,*,#633,.T.);
#342=ORIENTED_EDGE('',*,*,#588,.T.);
#343=ORIENTED_EDGE('',*,*,#677,.F.);
#344=ORIENTED_EDGE('',*,*,#588,.F.);
#345=ORIENTED_EDGE('',*,*,#632,.T.);
#346=ORIENTED_EDGE('',*,*,#589,.T.);
#347=ORIENTED_EDGE('',*,*,#676,.F.);
#348=ORIENTED_EDGE('',*,*,#589,.F.);
#349=ORIENTED_EDGE('',*,*,#631,.T.);
#350=ORIENTED_EDGE('',*,*,#590,.T.);
#351=ORIENTED_EDGE('',*,*,#675,.F.);
#352=ORIENTED_EDGE('',*,*,#590,.F.);
#353=ORIENTED_EDGE('',*,*,#630,.T.);
#354=ORIENTED_EDGE('',*,*,#591,.T.);
#355=ORIENTED_EDGE('',*,*,#674,.F.);
#356=ORIENTED_EDGE('',*,*,#591,.F.);
#357=ORIENTED_EDGE('',*,*,#629,.T.);
#358=ORIENTED_EDGE('',*,*,#592,.T.);
#359=ORIENTED_EDGE('',*,*,#673,.F.);
#360=ORIENTED_EDGE('',*,*,#592,.F.);
#361=ORIENTED_EDGE('',*,*,#628,.T.);
#362=ORIENTED_EDGE('',*,*,#593,.T.);
#363=ORIENTED_EDGE('',*,*,#672,.F.);
#364=ORIENTED_EDGE('',*,*,#593,.F.);
#365=ORIENTED_EDGE('',*,*,#627,.T.);
#366=ORIENTED_EDGE('',*,*,#594,.T.);
#367=ORIENTED_EDGE('',*,*,#671,.F.);
#368=ORIENTED_EDGE('',*,*,#594,.F.);
#369=ORIENTED_EDGE('',*,*,#626,.T.);
#370=ORIENTED_EDGE('',*,*,#595,.T.);
#371=ORIENTED_EDGE('',*,*,#670,.F.);
#372=ORIENTED_EDGE('',*,*,#595,.F.);
#373=ORIENTED_EDGE('',*,*,#625,.T.);
#374=ORIENTED_EDGE('',*,*,#596,.T.);
#375=ORIENTED_EDGE('',*,*,#669,.F.);
#376=ORIENTED_EDGE('',*,*,#596,.F.);
#377=ORIENTED_EDGE('',*,*,#624,.T.);
#378=ORIENTED_EDGE('',*,*,#597,.T.);
#379=ORIENTED_EDGE('',*,*,#668,.F.);
#380=ORIENTED_EDGE('',*,*,#597,.F.);
#381=ORIENTED_EDGE('',*,*,#623,.T.);
#382=ORIENTED_EDGE('',*,*,#598,.T.);
#383=ORIENTED_EDGE('',*,*,#667,.F.);
#384=ORIENTED_EDGE('',*,*,#598,.F.);
#385=ORIENTED_EDGE('',*,*,#622,.T.);
#386=ORIENTED_EDGE('',*,*,#599,.T.);
#387=ORIENTED_EDGE('',*,*,#666,.F.);
#388=ORIENTED_EDGE('',*,*,#599,.F.);
#389=ORIENTED_EDGE('',*,*,#621,.T.);
#390=ORIENTED_EDGE('',*,*,#600,.T.);
#391=ORIENTED_EDGE('',*,*,#665,.F.);
#392=ORIENTED_EDGE('',*,*,#600,.F.);
#393=ORIENTED_EDGE('',*,*,#620,.T.);
#394=ORIENTED_EDGE('',*,*,#601,.T.);
#395=ORIENTED_EDGE('',*,*,#664,.F.);
#396=ORIENTED_EDGE('',*,*,#601,.F.);
#397=ORIENTED_EDGE('',*,*,#619,.T.);
#398=ORIENTED_EDGE('',*,*,#602,.T.);
#399=ORIENTED_EDGE('',*,*,#663,.F.);
#400=ORIENTED_EDGE('',*,*,#602,.F.);
#401=ORIENTED_EDGE('',*,*,#618,.T.);
#402=ORIENTED_EDGE('',*,*,#603,.T.);
#403=ORIENTED_EDGE('',*,*,#662,.F.);
#404=ORIENTED_EDGE('',*,*,#603,.F.);
#405=ORIENTED_EDGE('',*,*,#617,.T.);
#406=ORIENTED_EDGE('',*,*,#604,.T.);
#407=ORIENTED_EDGE('',*,*,#661,.F.);
#408=ORIENTED_EDGE('',*,*,#604,.F.);
#409=ORIENTED_EDGE('',*,*,#616,.T.);
#410=ORIENTED_EDGE('',*,*,#605,.T.);
#411=ORIENTED_EDGE('',*,*,#660,.F.);
#412=ORIENTED_EDGE('',*,*,#605,.F.);
#413=ORIENTED_EDGE('',*,*,#615,.T.);
#414=ORIENTED_EDGE('',*,*,#606,.T.);
#415=ORIENTED_EDGE('',*,*,#659,.F.);
#416=ORIENTED_EDGE('',*,*,#606,.F.);
#417=ORIENTED_EDGE('',*,*,#614,.T.);
#418=ORIENTED_EDGE('',*,*,#607,.T.);
#419=ORIENTED_EDGE('',*,*,#658,.F.);
#420=ORIENTED_EDGE('',*,*,#607,.F.);
#421=ORIENTED_EDGE('',*,*,#613,.T.);
#422=ORIENTED_EDGE('',*,*,#608,.T.);
#423=ORIENTED_EDGE('',*,*,#657,.F.);
#424=ORIENTED_EDGE('',*,*,#608,.F.);
#425=ORIENTED_EDGE('',*,*,#612,.T.);
#426=ORIENTED_EDGE('',*,*,#609,.T.);
#427=ORIENTED_EDGE('',*,*,#656,.F.);
#428=ORIENTED_EDGE('',*,*,#609,.F.);
#429=ORIENTED_EDGE('',*,*,#611,.T.);
#430=ORIENTED_EDGE('',*,*,#610,.T.);
#431=ORIENTED_EDGE('',*,*,#655,.F.);
#432=ORIENTED_EDGE('',*,*,#611,.F.);
#433=ORIENTED_EDGE('',*,*,#612,.F.);
#434=ORIENTED_EDGE('',*,*,#613,.F.);
#435=ORIENTED_EDGE('',*,*,#614,.F.);
#436=ORIENTED_EDGE('',*,*,#615,.F.);
#437=ORIENTED_EDGE('',*,*,#616,.F.);
#438=ORIENTED_EDGE('',*,*,#617,.F.);
#439=ORIENTED_EDGE('',*,*,#618,.F.);
#440=ORIENTED_EDGE('',*,*,#619,.F.);
#441=ORIENTED_EDGE('',*,*,#620,.F.);
#442=ORIENTED_EDGE('',*,*,#621,.F.);
#443=ORIENTED_EDGE('',*,*,#622,.F.);
#444=ORIENTED_EDGE('',*,*,#623,.F.);
#445=ORIENTED_EDGE('',*,*,#624,.F.);
#446=ORIENTED_EDGE('',*,*,#625,.F.);
#447=ORIENTED_EDGE('',*,*,#626,.F.);
#448=ORIENTED_EDGE('',*,*,#627,.F.);
#449=ORIENTED_EDGE('',*,*,#628,.F.);
#450=ORIENTED_EDGE('',*,*,#629,.F.);
#451=ORIENTED_EDGE('',*,*,#630,.F.);
#452=ORIENTED_EDGE('',*,*,#631,.F.);
#453=ORIENTED_EDGE('',*,*,#632,.F.);
#454=ORIENTED_EDGE('',*,*,#633,.F.);
#455=ORIENTED_EDGE('',*,*,#634,.F.);
#456=ORIENTED_EDGE('',*,*,#635,.F.);
#457=ORIENTED_EDGE('',*,*,#636,.F.);
#458=ORIENTED_EDGE('',*,*,#637,.F.);
#459=ORIENTED_EDGE('',*,*,#638,.F.);
#460=ORIENTED_EDGE('',*,*,#639,.F.);
#461=ORIENTED_EDGE('',*,*,#640,.F.);
#462=ORIENTED_EDGE('',*,*,#641,.F.);
#463=ORIENTED_EDGE('',*,*,#642,.F.);
#464=ORIENTED_EDGE('',*,*,#643,.F.);
#465=ORIENTED_EDGE('',*,*,#644,.F.);
#466=ORIENTED_EDGE('',*,*,#645,.F.);
#467=ORIENTED_EDGE('',*,*,#646,.F.);
#468=ORIENTED_EDGE('',*,*,#647,.F.);
#469=ORIENTED_EDGE('',*,*,#648,.F.);
#470=ORIENTED_EDGE('',*,*,#649,.F.);
#471=ORIENTED_EDGE('',*,*,#650,.F.);
#472=ORIENTED_EDGE('',*,*,#651,.F.);
#473=ORIENTED_EDGE('',*,*,#652,.F.);
#474=ORIENTED_EDGE('',*,*,#653,.F.);
#475=ORIENTED_EDGE('',*,*,#654,.F.);
#476=ORIENTED_EDGE('',*,*,#700,.T.);
#477=ORIENTED_EDGE('',*,*,#699,.T.);
#478=ORIENTED_EDGE('',*,*,#698,.T.);
#479=ORIENTED_EDGE('',*,*,#697,.T.);
#480=ORIENTED_EDGE('',*,*,#696,.T.);
#481=ORIENTED_EDGE('',*,*,#695,.T.);
#482=ORIENTED_EDGE('',*,*,#694,.T.);
#483=ORIENTED_EDGE('',*,*,#693,.T.);
#484=ORIENTED_EDGE('',*,*,#692,.T.);
#485=ORIENTED_EDGE('',*,*,#691,.T.);
#486=ORIENTED_EDGE('',*,*,#690,.T.);
#487=ORIENTED_EDGE('',*,*,#689,.T.);
#488=ORIENTED_EDGE('',*,*,#688,.T.);
#489=ORIENTED_EDGE('',*,*,#687,.T.);
#490=ORIENTED_EDGE('',*,*,#686,.T.);
#491=ORIENTED_EDGE('',*,*,#685,.T.);
#492=ORIENTED_EDGE('',*,*,#684,.T.);
#493=ORIENTED_EDGE('',*,*,#683,.T.);
#494=ORIENTED_EDGE('',*,*,#682,.T.);
#495=ORIENTED_EDGE('',*,*,#681,.T.);
#496=ORIENTED_EDGE('',*,*,#680,.T.);
#497=ORIENTED_EDGE('',*,*,#679,.T.);
#498=ORIENTED_EDGE('',*,*,#678,.T.);
#499=ORIENTED_EDGE('',*,*,#677,.T.);
#500=ORIENTED_EDGE('',*,*,#676,.T.);
#501=ORIENTED_EDGE('',*,*,#675,.T.);
#502=ORIENTED_EDGE('',*,*,#674,.T.);
#503=ORIENTED_EDGE('',*,*,#673,.T.);
#504=ORIENTED_EDGE('',*,*,#672,.T.);
#505=ORIENTED_EDGE('',*,*,#671,.T.);
#506=ORIENTED_EDGE('',*,*,#670,.T.);
#507=ORIENTED_EDGE('',*,*,#669,.T.);
#508=ORIENTED_EDGE('',*,*,#668,.T.);
#509=ORIENTED_EDGE('',*,*,#667,.T.);
#510=ORIENTED_EDGE('',*,*,#666,.T.);
#511=ORIENTED_EDGE('',*,*,#665,.T.);
#512=ORIENTED_EDGE('',*,*,#664,.T.);
#513=ORIENTED_EDGE('',*,*,#663,.T.);
#514=ORIENTED_EDGE('',*,*,#662,.T.);
#515=ORIENTED_EDGE('',*,*,#661,.T.);
#516=ORIENTED_EDGE('',*,*,#660,.T.);
#517=ORIENTED_EDGE('',*,*,#659,.T.);
#518=ORIENTED_EDGE('',*,*,#658,.T.);
#519=ORIENTED_EDGE('',*,*,#657,.T.);
#520=ORIENTED_EDGE('',*,*,#656,.T.);
#521=CYLINDRICAL_SURFACE('',#1034,31.6280806928132);
#522=CYLINDRICAL_SURFACE('',#1035,7.80017506665327);
#523=CYLINDRICAL_SURFACE('',#1043,3.16188062045995);
#524=CYLINDRICAL_SURFACE('',#1044,1.25098191515907);
#525=CYLINDRICAL_SURFACE('',#1045,23.0917821243842);
#526=CYLINDRICAL_SURFACE('',#1046,145.08364531259);
#527=CYLINDRICAL_SURFACE('',#1047,11.843185708656);
#528=CYLINDRICAL_SURFACE('',#1061,45.8772737067972);
#529=CYLINDRICAL_SURFACE('',#1062,14.304463763468);
#530=CYLINDRICAL_SURFACE('',#1063,35.1118787197085);
#531=CYLINDRICAL_SURFACE('',#1065,12.3377991224655);
#532=CYLINDRICAL_SURFACE('',#1068,8.27274406387085);
#533=CYLINDRICAL_SURFACE('',#1069,11.4429647488949);
#534=CYLINDRICAL_SURFACE('',#1075,6.07945637794535);
#535=CYLINDRICAL_SURFACE('',#1078,8.59459989584971);
#536=CIRCLE('',#1004,8.59459989584971);
#537=CIRCLE('',#1005,6.07945637794535);
#538=CIRCLE('',#1006,11.4429647488949);
#539=CIRCLE('',#1007,8.27274406387085);
#540=CIRCLE('',#1008,12.3377991224655);
#541=CIRCLE('',#1009,35.1118787197085);
#542=CIRCLE('',#1010,14.304463763468);
#543=CIRCLE('',#1011,45.8772737067972);
#544=CIRCLE('',#1012,11.843185708656);
#545=CIRCLE('',#1013,145.08364531259);
#546=CIRCLE('',#1014,23.0917821243842);
#547=CIRCLE('',#1015,1.25098191515907);
#548=CIRCLE('',#1016,3.16188062045995);
#549=CIRCLE('',#1017,7.80017506665327);
#550=CIRCLE('',#1018,31.6280806928132);
#551=CIRCLE('',#1019,8.59459989584971);
#552=CIRCLE('',#1020,6.07945637794535);
#553=CIRCLE('',#1021,11.4429647488949);
#554=CIRCLE('',#1022,8.27274406387085);
#555=CIRCLE('',#1023,12.3377991224655);
#556=CIRCLE('',#1024,35.1118787197085);
#557=CIRCLE('',#1025,14.304463763468);
#558=CIRCLE('',#1026,45.8772737067972);
#559=CIRCLE('',#1027,11.843185708656);
#560=CIRCLE('',#1028,145.08364531259);
#561=CIRCLE('',#1029,23.0917821243842);
#562=CIRCLE('',#1030,1.25098191515907);
#563=CIRCLE('',#1031,3.16188062045995);
#564=CIRCLE('',#1032,7.80017506665327);
#565=CIRCLE('',#1033,31.6280806928132);
#566=EDGE_CURVE('',#955,#1000,#701,.T.);
#567=EDGE_CURVE('',#954,#999,#702,.T.);
#568=EDGE_CURVE('',#953,#998,#703,.T.);
#569=EDGE_CURVE('',#952,#997,#704,.T.);
#570=EDGE_CURVE('',#951,#996,#705,.T.);
#571=EDGE_CURVE('',#950,#995,#706,.T.);
#572=EDGE_CURVE('',#949,#994,#707,.T.);
#573=EDGE_CURVE('',#948,#993,#708,.T.);
#574=EDGE_CURVE('',#947,#992,#709,.T.);
#575=EDGE_CURVE('',#946,#991,#710,.T.);
#576=EDGE_CURVE('',#945,#990,#711,.T.);
#577=EDGE_CURVE('',#944,#989,#712,.T.);
#578=EDGE_CURVE('',#943,#988,#713,.T.);
#579=EDGE_CURVE('',#942,#987,#714,.T.);
#580=EDGE_CURVE('',#941,#986,#715,.T.);
#581=EDGE_CURVE('',#940,#985,#716,.T.);
#582=EDGE_CURVE('',#939,#984,#717,.T.);
#583=EDGE_CURVE('',#938,#983,#718,.T.);
#584=EDGE_CURVE('',#937,#982,#719,.T.);
#585=EDGE_CURVE('',#936,#981,#720,.T.);
#586=EDGE_CURVE('',#935,#980,#721,.T.);
#587=EDGE_CURVE('',#934,#979,#722,.T.);
#588=EDGE_CURVE('',#933,#978,#723,.T.);
#589=EDGE_CURVE('',#932,#977,#724,.T.);
#590=EDGE_CURVE('',#931,#976,#725,.T.);
#591=EDGE_CURVE('',#930,#975,#726,.T.);
#592=EDGE_CURVE('',#929,#974,#727,.T.);
#593=EDGE_CURVE('',#928,#973,#728,.T.);
#594=EDGE_CURVE('',#927,#972,#729,.T.);
#595=EDGE_CURVE('',#926,#971,#730,.T.);
#596=EDGE_CURVE('',#925,#970,#731,.T.);
#597=EDGE_CURVE('',#924,#969,#732,.T.);
#598=EDGE_CURVE('',#923,#968,#733,.T.);
#599=EDGE_CURVE('',#922,#967,#734,.T.);
#600=EDGE_CURVE('',#921,#966,#735,.T.);
#601=EDGE_CURVE('',#920,#965,#736,.T.);
#602=EDGE_CURVE('',#919,#964,#737,.T.);
#603=EDGE_CURVE('',#918,#963,#738,.T.);
#604=EDGE_CURVE('',#917,#962,#739,.T.);
#605=EDGE_CURVE('',#916,#961,#740,.T.);
#606=EDGE_CURVE('',#915,#960,#741,.T.);
#607=EDGE_CURVE('',#914,#959,#742,.T.);
#608=EDGE_CURVE('',#913,#958,#743,.T.);
#609=EDGE_CURVE('',#912,#957,#744,.T.);
#610=EDGE_CURVE('',#911,#956,#745,.T.);
#611=EDGE_CURVE('',#912,#911,#536,.T.);
#612=EDGE_CURVE('',#913,#912,#746,.T.);
#613=EDGE_CURVE('',#914,#913,#747,.T.);
#614=EDGE_CURVE('',#915,#914,#537,.T.);
#615=EDGE_CURVE('',#916,#915,#748,.T.);
#616=EDGE_CURVE('',#917,#916,#749,.T.);
#617=EDGE_CURVE('',#918,#917,#750,.T.);
#618=EDGE_CURVE('',#919,#918,#751,.T.);
#619=EDGE_CURVE('',#920,#919,#752,.T.);
#620=EDGE_CURVE('',#921,#920,#538,.T.);
#621=EDGE_CURVE('',#922,#921,#539,.T.);
#622=EDGE_CURVE('',#923,#922,#753,.T.);
#623=EDGE_CURVE('',#924,#923,#754,.T.);
#624=EDGE_CURVE('',#925,#924,#540,.T.);
#625=EDGE_CURVE('',#926,#925,#755,.T.);
#626=EDGE_CURVE('',#927,#926,#541,.T.);
#627=EDGE_CURVE('',#928,#927,#542,.T.);
#628=EDGE_CURVE('',#929,#928,#543,.T.);
#629=EDGE_CURVE('',#930,#929,#756,.T.);
#630=EDGE_CURVE('',#931,#930,#757,.T.);
#631=EDGE_CURVE('',#932,#931,#758,.T.);
#632=EDGE_CURVE('',#933,#932,#759,.T.);
#633=EDGE_CURVE('',#934,#933,#760,.T.);
#634=EDGE_CURVE('',#935,#934,#761,.T.);
#635=EDGE_CURVE('',#936,#935,#762,.T.);
#636=EDGE_CURVE('',#937,#936,#763,.T.);
#637=EDGE_CURVE('',#938,#937,#764,.T.);
#638=EDGE_CURVE('',#939,#938,#765,.T.);
#639=EDGE_CURVE('',#940,#939,#766,.T.);
#640=EDGE_CURVE('',#941,#940,#767,.T.);
#641=EDGE_CURVE('',#942,#941,#768,.T.);
#642=EDGE_CURVE('',#943,#942,#544,.T.);
#643=EDGE_CURVE('',#944,#943,#545,.T.);
#644=EDGE_CURVE('',#945,#944,#546,.T.);
#645=EDGE_CURVE('',#946,#945,#547,.T.);
#646=EDGE_CURVE('',#947,#946,#548,.T.);
#647=EDGE_CURVE('',#948,#947,#769,.T.);
#648=EDGE_CURVE('',#949,#948,#770,.T.);
#649=EDGE_CURVE('',#950,#949,#771,.T.);
#650=EDGE_CURVE('',#951,#950,#772,.T.);
#651=EDGE_CURVE('',#952,#951,#773,.T.);
#652=EDGE_CURVE('',#953,#952,#774,.T.);
#653=EDGE_CURVE('',#954,#953,#775,.T.);
#654=EDGE_CURVE('',#955,#954,#549,.T.);
#655=EDGE_CURVE('',#911,#955,#550,.T.);
#656=EDGE_CURVE('',#957,#956,#551,.T.);
#657=EDGE_CURVE('',#958,#957,#776,.T.);
#658=EDGE_CURVE('',#959,#958,#777,.T.);
#659=EDGE_CURVE('',#960,#959,#552,.T.);
#660=EDGE_CURVE('',#961,#960,#778,.T.);
#661=EDGE_CURVE('',#962,#961,#779,.T.);
#662=EDGE_CURVE('',#963,#962,#780,.T.);
#663=EDGE_CURVE('',#964,#963,#781,.T.);
#664=EDGE_CURVE('',#965,#964,#782,.T.);
#665=EDGE_CURVE('',#966,#965,#553,.T.);
#666=EDGE_CURVE('',#967,#966,#554,.T.);
#667=EDGE_CURVE('',#968,#967,#783,.T.);
#668=EDGE_CURVE('',#969,#968,#784,.T.);
#669=EDGE_CURVE('',#970,#969,#555,.T.);
#670=EDGE_CURVE('',#971,#970,#785,.T.);
#671=EDGE_CURVE('',#972,#971,#556,.T.);
#672=EDGE_CURVE('',#973,#972,#557,.T.);
#673=EDGE_CURVE('',#974,#973,#558,.T.);
#674=EDGE_CURVE('',#975,#974,#786,.T.);
#675=EDGE_CURVE('',#976,#975,#787,.T.);
#676=EDGE_CURVE('',#977,#976,#788,.T.);
#677=EDGE_CURVE('',#978,#977,#789,.T.);
#678=EDGE_CURVE('',#979,#978,#790,.T.);
#679=EDGE_CURVE('',#980,#979,#791,.T.);
#680=EDGE_CURVE('',#981,#980,#792,.T.);
#681=EDGE_CURVE('',#982,#981,#793,.T.);
#682=EDGE_CURVE('',#983,#982,#794,.T.);
#683=EDGE_CURVE('',#984,#983,#795,.T.);
#684=EDGE_CURVE('',#985,#984,#796,.T.);
#685=EDGE_CURVE('',#986,#985,#797,.T.);
#686=EDGE_CURVE('',#987,#986,#798,.T.);
#687=EDGE_CURVE('',#988,#987,#559,.T.);
#688=EDGE_CURVE('',#989,#988,#560,.T.);
#689=EDGE_CURVE('',#990,#989,#561,.T.);
#690=EDGE_CURVE('',#991,#990,#562,.T.);
#691=EDGE_CURVE('',#992,#991,#563,.T.);
#692=EDGE_CURVE('',#993,#992,#799,.T.);
#693=EDGE_CURVE('',#994,#993,#800,.T.);
#694=EDGE_CURVE('',#995,#994,#801,.T.);
#695=EDGE_CURVE('',#996,#995,#802,.T.);
#696=EDGE_CURVE('',#997,#996,#803,.T.);
#697=EDGE_CURVE('',#998,#997,#804,.T.);
#698=EDGE_CURVE('',#999,#998,#805,.T.);
#699=EDGE_CURVE('',#1000,#999,#564,.T.);
#700=EDGE_CURVE('',#956,#1000,#565,.T.);
#701=LINE('',#1433,#806);
#702=LINE('',#1434,#807);
#703=LINE('',#1435,#808);
#704=LINE('',#1436,#809);
#705=LINE('',#1437,#810);
#706=LINE('',#1438,#811);
#707=LINE('',#1439,#812);
#708=LINE('',#1440,#813);
#709=LINE('',#1441,#814);
#710=LINE('',#1442,#815);
#711=LINE('',#1443,#816);
#712=LINE('',#1444,#817);
#713=LINE('',#1445,#818);
#714=LINE('',#1446,#819);
#715=LINE('',#1447,#820);
#716=LINE('',#1448,#821);
#717=LINE('',#1449,#822);
#718=LINE('',#1450,#823);
#719=LINE('',#1451,#824);
#720=LINE('',#1452,#825);
#721=LINE('',#1453,#826);
#722=LINE('',#1454,#827);
#723=LINE('',#1455,#828);
#724=LINE('',#1456,#829);
#725=LINE('',#1457,#830);
#726=LINE('',#1458,#831);
#727=LINE('',#1459,#832);
#728=LINE('',#1460,#833);
#729=LINE('',#1461,#834);
#730=LINE('',#1462,#835);
#731=LINE('',#1463,#836);
#732=LINE('',#1464,#837);
#733=LINE('',#1465,#838);
#734=LINE('',#1466,#839);
#735=LINE('',#1467,#840);
#736=LINE('',#1468,#841);
#737=LINE('',#1469,#842);
#738=LINE('',#1470,#843);
#739=LINE('',#1471,#844);
#740=LINE('',#1472,#845);
#741=LINE('',#1473,#846);
#742=LINE('',#1474,#847);
#743=LINE('',#1475,#848);
#744=LINE('',#1476,#849);
#745=LINE('',#1477,#850);
#746=LINE('',#1479,#851);
#747=LINE('',#1480,#852);
#748=LINE('',#1482,#853);
#749=LINE('',#1483,#854);
#750=LINE('',#1484,#855);
#751=LINE('',#1485,#856);
#752=LINE('',#1486,#857);
#753=LINE('',#1489,#858);
#754=LINE('',#1490,#859);
#755=LINE('',#1492,#860);
#756=LINE('',#1496,#861);
#757=LINE('',#1497,#862);
#758=LINE('',#1498,#863);
#759=LINE('',#1499,#864);
#760=LINE('',#1500,#865);
#761=LINE('',#1501,#866);
#762=LINE('',#1502,#867);
#763=LINE('',#1503,#868);
#764=LINE('',#1504,#869);
#765=LINE('',#1505,#870);
#766=LINE('',#1506,#871);
#767=LINE('',#1507,#872);
#768=LINE('',#1508,#873);
#769=LINE('',#1514,#874);
#770=LINE('',#1515,#875);
#771=LINE('',#1516,#876);
#772=LINE('',#1517,#877);
#773=LINE('',#1518,#878);
#774=LINE('',#1519,#879);
#775=LINE('',#1520,#880);
#776=LINE('',#1524,#881);
#777=LINE('',#1525,#882);
#778=LINE('',#1527,#883);
#779=LINE('',#1528,#884);
#780=LINE('',#1529,#885);
#781=LINE('',#1530,#886);
#782=LINE('',#1531,#887);
#783=LINE('',#1534,#888);
#784=LINE('',#1535,#889);
#785=LINE('',#1537,#890);
#786=LINE('',#1541,#891);
#787=LINE('',#1542,#892);
#788=LINE('',#1543,#893);
#789=LINE('',#1544,#894);
#790=LINE('',#1545,#895);
#791=LINE('',#1546,#896);
#792=LINE('',#1547,#897);
#793=LINE('',#1548,#898);
#794=LINE('',#1549,#899);
#795=LINE('',#1550,#900);
#796=LINE('',#1551,#901);
#797=LINE('',#1552,#902);
#798=LINE('',#1553,#903);
#799=LINE('',#1559,#904);
#800=LINE('',#1560,#905);
#801=LINE('',#1561,#906);
#802=LINE('',#1562,#907);
#803=LINE('',#1563,#908);
#804=LINE('',#1564,#909);
#805=LINE('',#1565,#910);
#806=VECTOR('',#1083,1.);
#807=VECTOR('',#1084,1.);
#808=VECTOR('',#1085,1.);
#809=VECTOR('',#1086,1.);
#810=VECTOR('',#1087,1.);
#811=VECTOR('',#1088,1.);
#812=VECTOR('',#1089,1.);
#813=VECTOR('',#1090,1.);
#814=VECTOR('',#1091,1.);
#815=VECTOR('',#1092,1.);
#816=VECTOR('',#1093,1.);
#817=VECTOR('',#1094,1.);
#818=VECTOR('',#1095,1.);
#819=VECTOR('',#1096,1.);
#820=VECTOR('',#1097,1.);
#821=VECTOR('',#1098,1.);
#822=VECTOR('',#1099,1.);
#823=VECTOR('',#1100,1.);
#824=VECTOR('',#1101,1.);
#825=VECTOR('',#1102,1.);
#826=VECTOR('',#1103,1.);
#827=VECTOR('',#1104,1.);
#828=VECTOR('',#1105,1.);
#829=VECTOR('',#1106,1.);
#830=VECTOR('',#1107,1.);
#831=VECTOR('',#1108,1.);
#832=VECTOR('',#1109,1.);
#833=VECTOR('',#1110,1.);
#834=VECTOR('',#1111,1.);
#835=VECTOR('',#1112,1.);
#836=VECTOR('',#1113,1.);
#837=VECTOR('',#1114,1.);
#838=VECTOR('',#1115,1.);
#839=VECTOR('',#1116,1.);
#840=VECTOR('',#1117,1.);
#841=VECTOR('',#1118,1.);
#842=VECTOR('',#1119,1.);
#843=VECTOR('',#1120,1.);
#844=VECTOR('',#1121,1.);
#845=VECTOR('',#1122,1.);
#846=VECTOR('',#1123,1.);
#847=VECTOR('',#1124,1.);
#848=VECTOR('',#1125,1.);
#849=VECTOR('',#1126,1.);
#850=VECTOR('',#1127,1.);
#851=VECTOR('',#1130,1.);
#852=VECTOR('',#1131,1.);
#853=VECTOR('',#1134,1.);
#854=VECTOR('',#1135,1.);
#855=VECTOR('',#1136,1.);
#856=VECTOR('',#1137,1.);
#857=VECTOR('',#1138,1.);
#858=VECTOR('',#1143,1.);
#859=VECTOR('',#1144,1.);
#860=VECTOR('',#1147,1.);
#861=VECTOR('',#1154,1.);
#862=VECTOR('',#1155,1.);
#863=VECTOR('',#1156,1.);
#864=VECTOR('',#1157,1.);
#865=VECTOR('',#1158,1.);
#866=VECTOR('',#1159,1.);
#867=VECTOR('',#1160,1.);
#868=VECTOR('',#1161,1.);
#869=VECTOR('',#1162,1.);
#870=VECTOR('',#1163,1.);
#871=VECTOR('',#1164,1.);
#872=VECTOR('',#1165,1.);
#873=VECTOR('',#1166,1.);
#874=VECTOR('',#1177,1.);
#875=VECTOR('',#1178,1.);
#876=VECTOR('',#1179,1.);
#877=VECTOR('',#1180,1.);
#878=VECTOR('',#1181,1.);
#879=VECTOR('',#1182,1.);
#880=VECTOR('',#1183,1.);
#881=VECTOR('',#1190,1.);
#882=VECTOR('',#1191,1.);
#883=VECTOR('',#1194,1.);
#884=VECTOR('',#1195,1.);
#885=VECTOR('',#1196,1.);
#886=VECTOR('',#1197,1.);
#887=VECTOR('',#1198,1.);
#888=VECTOR('',#1203,1.);
#889=VECTOR('',#1204,1.);
#890=VECTOR('',#1207,1.);
#891=VECTOR('',#1214,1.);
#892=VECTOR('',#1215,1.);
#893=VECTOR('',#1216,1.);
#894=VECTOR('',#1217,1.);
#895=VECTOR('',#1218,1.);
#896=VECTOR('',#1219,1.);
#897=VECTOR('',#1220,1.);
#898=VECTOR('',#1221,1.);
#899=VECTOR('',#1222,1.);
#900=VECTOR('',#1223,1.);
#901=VECTOR('',#1224,1.);
#902=VECTOR('',#1225,1.);
#903=VECTOR('',#1226,1.);
#904=VECTOR('',#1237,1.);
#905=VECTOR('',#1238,1.);
#906=VECTOR('',#1239,1.);
#907=VECTOR('',#1240,1.);
#908=VECTOR('',#1241,1.);
#909=VECTOR('',#1242,1.);
#910=VECTOR('',#1243,1.);
#911=VERTEX_POINT('',#1343);
#912=VERTEX_POINT('',#1344);
#913=VERTEX_POINT('',#1345);
#914=VERTEX_POINT('',#1346);
#915=VERTEX_POINT('',#1347);
#916=VERTEX_POINT('',#1348);
#917=VERTEX_POINT('',#1349);
#918=VERTEX_POINT('',#1350);
#919=VERTEX_POINT('',#1351);
#920=VERTEX_POINT('',#1352);
#921=VERTEX_POINT('',#1353);
#922=VERTEX_POINT('',#1354);
#923=VERTEX_POINT('',#1355);
#924=VERTEX_POINT('',#1356);
#925=VERTEX_POINT('',#1357);
#926=VERTEX_POINT('',#1358);
#927=VERTEX_POINT('',#1359);
#928=VERTEX_POINT('',#1360);
#929=VERTEX_POINT('',#1361);
#930=VERTEX_POINT('',#1362);
#931=VERTEX_POINT('',#1363);
#932=VERTEX_POINT('',#1364);
#933=VERTEX_POINT('',#1365);
#934=VERTEX_POINT('',#1366);
#935=VERTEX_POINT('',#1367);
#936=VERTEX_POINT('',#1368);
#937=VERTEX_POINT('',#1369);
#938=VERTEX_POINT('',#1370);
#939=VERTEX_POINT('',#1371);
#940=VERTEX_POINT('',#1372);
#941=VERTEX_POINT('',#1373);
#942=VERTEX_POINT('',#1374);
#943=VERTEX_POINT('',#1375);
#944=VERTEX_POINT('',#1376);
#945=VERTEX_POINT('',#1377);
#946=VERTEX_POINT('',#1378);
#947=VERTEX_POINT('',#1379);
#948=VERTEX_POINT('',#1380);
#949=VERTEX_POINT('',#1381);
#950=VERTEX_POINT('',#1382);
#951=VERTEX_POINT('',#1383);
#952=VERTEX_POINT('',#1384);
#953=VERTEX_POINT('',#1385);
#954=VERTEX_POINT('',#1386);
#955=VERTEX_POINT('',#1387);
#956=VERTEX_POINT('',#1388);
#957=VERTEX_POINT('',#1389);
#958=VERTEX_POINT('',#1390);
#959=VERTEX_POINT('',#1391);
#960=VERTEX_POINT('',#1392);
#961=VERTEX_POINT('',#1393);
#962=VERTEX_POINT('',#1394);
#963=VERTEX_POINT('',#1395);
#964=VERTEX_POINT('',#1396);
#965=VERTEX_POINT('',#1397);
#966=VERTEX_POINT('',#1398);
#967=VERTEX_POINT('',#1399);
#968=VERTEX_POINT('',#1400);
#969=VERTEX_POINT('',#1401);
#970=VERTEX_POINT('',#1402);
#971=VERTEX_POINT('',#1403);
#972=VERTEX_POINT('',#1404);
#973=VERTEX_POINT('',#1405);
#974=VERTEX_POINT('',#1406);
#975=VERTEX_POINT('',#1407);
#976=VERTEX_POINT('',#1408);
#977=VERTEX_POINT('',#1409);
#978=VERTEX_POINT('',#1410);
#979=VERTEX_POINT('',#1411);
#980=VERTEX_POINT('',#1412);
#981=VERTEX_POINT('',#1413);
#982=VERTEX_POINT('',#1414);
#983=VERTEX_POINT('',#1415);
#984=VERTEX_POINT('',#1416);
#985=VERTEX_POINT('',#1417);
#986=VERTEX_POINT('',#1418);
#987=VERTEX_POINT('',#1419);
#988=VERTEX_POINT('',#1420);
#989=VERTEX_POINT('',#1421);
#990=VERTEX_POINT('',#1422);
#991=VERTEX_POINT('',#1423);
#992=VERTEX_POINT('',#1424);
#993=VERTEX_POINT('',#1425);
#994=VERTEX_POINT('',#1426);
#995=VERTEX_POINT('',#1427);
#996=VERTEX_POINT('',#1428);
#997=VERTEX_POINT('',#1429);
#998=VERTEX_POINT('',#1430);
#999=VERTEX_POINT('',#1431);
#1000=VERTEX_POINT('',#1432);
#1001=SHAPE_DEFINITION_REPRESENTATION(#1615,#1002);
#1002=SHAPE_REPRESENTATION('master',(#1003),#1617);
#1003=AXIS2_PLACEMENT_3D('',#1342,#1082,#1081);
#1004=AXIS2_PLACEMENT_3D('',#1478,#1129,#1128);
#1005=AXIS2_PLACEMENT_3D('',#1481,#1133,#1132);
#1006=AXIS2_PLACEMENT_3D('',#1487,#1140,#1139);
#1007=AXIS2_PLACEMENT_3D('',#1488,#1142,#1141);
#1008=AXIS2_PLACEMENT_3D('',#1491,#1146,#1145);
#1009=AXIS2_PLACEMENT_3D('',#1493,#1149,#1148);
#1010=AXIS2_PLACEMENT_3D('',#1494,#1151,#1150);
#1011=AXIS2_PLACEMENT_3D('',#1495,#1153,#1152);
#1012=AXIS2_PLACEMENT_3D('',#1509,#1168,#1167);
#1013=AXIS2_PLACEMENT_3D('',#1510,#1170,#1169);
#1014=AXIS2_PLACEMENT_3D('',#1511,#1172,#1171);
#1015=AXIS2_PLACEMENT_3D('',#1512,#1174,#1173);
#1016=AXIS2_PLACEMENT_3D('',#1513,#1176,#1175);
#1017=AXIS2_PLACEMENT_3D('',#1521,#1185,#1184);
#1018=AXIS2_PLACEMENT_3D('',#1522,#1187,#1186);
#1019=AXIS2_PLACEMENT_3D('',#1523,#1189,#1188);
#1020=AXIS2_PLACEMENT_3D('',#1526,#1193,#1192);
#1021=AXIS2_PLACEMENT_3D('',#1532,#1200,#1199);
#1022=AXIS2_PLACEMENT_3D('',#1533,#1202,#1201);
#1023=AXIS2_PLACEMENT_3D('',#1536,#1206,#1205);
#1024=AXIS2_PLACEMENT_3D('',#1538,#1209,#1208);
#1025=AXIS2_PLACEMENT_3D('',#1539,#1211,#1210);
#1026=AXIS2_PLACEMENT_3D('',#1540,#1213,#1212);
#1027=AXIS2_PLACEMENT_3D('',#1554,#1228,#1227);
#1028=AXIS2_PLACEMENT_3D('',#1555,#1230,#1229);
#1029=AXIS2_PLACEMENT_3D('',#1556,#1232,#1231);
#1030=AXIS2_PLACEMENT_3D('',#1557,#1234,#1233);
#1031=AXIS2_PLACEMENT_3D('',#1558,#1236,#1235);
#1032=AXIS2_PLACEMENT_3D('',#1566,#1245,#1244);
#1033=AXIS2_PLACEMENT_3D('',#1567,#1247,#1246);
#1034=AXIS2_PLACEMENT_3D('',#1568,#1249,#1248);
#1035=AXIS2_PLACEMENT_3D('',#1569,#1251,#1250);
#1036=AXIS2_PLACEMENT_3D('',#1570,#1253,#1252);
#1037=AXIS2_PLACEMENT_3D('',#1571,#1255,#1254);
#1038=AXIS2_PLACEMENT_3D('',#1572,#1257,#1256);
#1039=AXIS2_PLACEMENT_3D('',#1573,#1259,#1258);
#1040=AXIS2_PLACEMENT_3D('',#1574,#1261,#1260);
#1041=AXIS2_PLACEMENT_3D('',#1575,#1263,#1262);
#1042=AXIS2_PLACEMENT_3D('',#1576,#1265,#1264);
#1043=AXIS2_PLACEMENT_3D('',#1577,#1267,#1266);
#1044=AXIS2_PLACEMENT_3D('',#1578,#1269,#1268);
#1045=AXIS2_PLACEMENT_3D('',#1579,#1271,#1270);
#1046=AXIS2_PLACEMENT_3D('',#1580,#1273,#1272);
#1047=AXIS2_PLACEMENT_3D('',#1581,#1275,#1274);
#1048=AXIS2_PLACEMENT_3D('',#1582,#1277,#1276);
#1049=AXIS2_PLACEMENT_3D('',#1583,#1279,#1278);
#1050=AXIS2_PLACEMENT_3D('',#1584,#1281,#1280);
#1051=AXIS2_PLACEMENT_3D('',#1585,#1283,#1282);
#1052=AXIS2_PLACEMENT_3D('',#1586,#1285,#1284);
#1053=AXIS2_PLACEMENT_3D('',#1587,#1287,#1286);
#1054=AXIS2_PLACEMENT_3D('',#1588,#1289,#1288);
#1055=AXIS2_PLACEMENT_3D('',#1589,#1291,#1290);
#1056=AXIS2_PLACEMENT_3D('',#1590,#1293,#1292);
#1057=AXIS2_PLACEMENT_3D('',#1591,#1295,#1294);
#1058=AXIS2_PLACEMENT_3D('',#1592,#1297,#1296);
#1059=AXIS2_PLACEMENT_3D('',#1593,#1299,#1298);
#1060=AXIS2_PLACEMENT_3D('',#1594,#1301,#1300);
#1061=AXIS2_PLACEMENT_3D('',#1595,#1303,#1302);
#1062=AXIS2_PLACEMENT_3D('',#1596,#1305,#1304);
#1063=AXIS2_PLACEMENT_3D('',#1597,#1307,#1306);
#1064=AXIS2_PLACEMENT_3D('',#1598,#1309,#1308);
#1065=AXIS2_PLACEMENT_3D('',#1599,#1311,#1310);
#1066=AXIS2_PLACEMENT_3D('',#1600,#1313,#1312);
#1067=AXIS2_PLACEMENT_3D('',#1601,#1315,#1314);
#1068=AXIS2_PLACEMENT_3D('',#1602,#1317,#1316);
#1069=AXIS2_PLACEMENT_3D('',#1603,#1319,#1318);
#1070=AXIS2_PLACEMENT_3D('',#1604,#1321,#1320);
#1071=AXIS2_PLACEMENT_3D('',#1605,#1323,#1322);
#1072=AXIS2_PLACEMENT_3D('',#1606,#1325,#1324);
#1073=AXIS2_PLACEMENT_3D('',#1607,#1327,#1326);
#1074=AXIS2_PLACEMENT_3D('',#1608,#1329,#1328);
#1075=AXIS2_PLACEMENT_3D('',#1609,#1331,#1330);
#1076=AXIS2_PLACEMENT_3D('',#1610,#1333,#1332);
#1077=AXIS2_PLACEMENT_3D('',#1611,#1335,#1334);
#1078=AXIS2_PLACEMENT_3D('',#1612,#1337,#1336);
#1079=AXIS2_PLACEMENT_3D('',#1613,#1339,#1338);
#1080=AXIS2_PLACEMENT_3D('',#1614,#1341,#1340);
#1081=DIRECTION('',(1.,0.,0.));
#1082=DIRECTION('',(0.,0.,1.));
#1083=DIRECTION('',(5.6437336532346E-019,-1.,-4.00193291685987E-019));
#1084=DIRECTION('',(5.6437336532346E-019,-1.,-4.00193291685987E-019));
#1085=DIRECTION('',(5.6437336532346E-019,-1.,-4.00193291685987E-019));
#1086=DIRECTION('',(5.6437336532346E-019,-1.,-4.00193291685987E-019));
#1087=DIRECTION('',(5.6437336532346E-019,-1.,-4.00193291685987E-019));
#1088=DIRECTION('',(5.6437336532346E-019,-1.,-4.00193291685987E-019));
#1089=DIRECTION('',(5.6437336532346E-019,-1.,-4.00193291685987E-019));
#1090=DIRECTION('',(5.6437336532346E-019,-1.,-4.00193291685987E-019));
#1091=DIRECTION('',(5.6437336532346E-019,-1.,-4.00193291685987E-019));
#1092=DIRECTION('',(5.6437336532346E-019,-1.,-4.00193291685987E-019));
#1093=DIRECTION('',(5.6437336532346E-019,-1.,-4.00193291685987E-019));
#1094=DIRECTION('',(5.6437336532346E-019,-1.,-4.00193291685987E-019));
#1095=DIRECTION('',(5.6437336532346E-019,-1.,-4.00193291685987E-019));
#1096=DIRECTION('',(5.6437336532346E-019,-1.,-4.00193291685987E-019));
#1097=DIRECTION('',(5.6437336532346E-019,-1.,-4.00193291685987E-019));
#1098=DIRECTION('',(5.6437336532346E-019,-1.,-4.00193291685987E-019));
#1099=DIRECTION('',(5.6437336532346E-019,-1.,-4.00193291685987E-019));
#1100=DIRECTION('',(5.6437336532346E-019,-1.,-4.00193291685987E-019));
#1101=DIRECTION('',(5.6437336532346E-019,-1.,-4.00193291685987E-019));
#1102=DIRECTION('',(5.6437336532346E-019,-1.,-4.00193291685987E-019));
#1103=DIRECTION('',(5.6437336532346E-019,-1.,-4.00193291685987E-019));
#1104=DIRECTION('',(5.6437336532346E-019,-1.,-4.00193291685987E-019));
#1105=DIRECTION('',(5.6437336532346E-019,-1.,-4.00193291685987E-019));
#1106=DIRECTION('',(5.6437336532346E-019,-1.,-4.00193291685987E-019));
#1107=DIRECTION('',(5.6437336532346E-019,-1.,-4.00193291685987E-019));
#1108=DIRECTION('',(5.6437336532346E-019,-1.,-4.00193291685987E-019));
#1109=DIRECTION('',(5.6437336532346E-019,-1.,-4.00193291685987E-019));
#1110=DIRECTION('',(5.6437336532346E-019,-1.,-4.00193291685987E-019));
#1111=DIRECTION('',(5.6437336532346E-019,-1.,-4.00193291685987E-019));
#1112=DIRECTION('',(5.6437336532346E-019,-1.,-4.00193291685987E-019));
#1113=DIRECTION('',(5.6437336532346E-019,-1.,-4.00193291685987E-019));
#1114=DIRECTION('',(5.6437336532346E-019,-1.,-4.00193291685987E-019));
#1115=DIRECTION('',(5.6437336532346E-019,-1.,-4.00193291685987E-019));
#1116=DIRECTION('',(5.6437336532346E-019,-1.,-4.00193291685987E-019));
#1117=DIRECTION('',(5.6437336532346E-019,-1.,-4.00193291685987E-019));
#1118=DIRECTION('',(5.6437336532346E-019,-1.,-4.00193291685987E-019));
#1119=DIRECTION('',(5.6437336532346E-019,-1.,-4.00193291685987E-019));
#1120=DIRECTION('',(5.6437336532346E-019,-1.,-4.00193291685987E-019));
#1121=DIRECTION('',(5.6437336532346E-019,-1.,-4.00193291685987E-019));
#1122=DIRECTION('',(5.6437336532346E-019,-1.,-4.00193291685987E-019));
#1123=DIRECTION('',(5.6437336532346E-019,-1.,-4.00193291685987E-019));
#1124=DIRECTION('',(5.6437336532346E-019,-1.,-4.00193291685987E-019));
#1125=DIRECTION('',(5.6437336532346E-019,-1.,-4.00193291685987E-019));
#1126=DIRECTION('',(5.6437336532346E-019,-1.,-4.00193291685987E-019));
#1127=DIRECTION('',(5.6437336532346E-019,-1.,-4.00193291685987E-019));
#1128=DIRECTION('',(-0.998040237071388,-4.93389529217049E-031,
-0.062575435967222));
#1129=DIRECTION('',(-5.12898598968762E-031,1.,2.95705651991138E-031));
#1130=DIRECTION('',(0.935871960584023,-2.54088945619181E-031,0.352340280684193
));
#1131=DIRECTION('',(3.45055654821577E-013,-2.44828708438617E-024,1.));
#1132=DIRECTION('',(-0.621904315456227,1.51510298089046E-017,
-0.783093239925439));
#1133=DIRECTION('',(1.51510298089255E-017,1.,7.31527064091795E-018));
#1134=DIRECTION('',(-0.783093239925445,2.23296954717455E-023,0.621904315456219
));
#1135=DIRECTION('',(0.161762544411968,-0.,0.986829711361269));
#1136=DIRECTION('',(0.9998680680828,-0.,0.0162433502815646));
#1137=DIRECTION('',(0.111070835253732,-0.,0.993812492151331));
#1138=DIRECTION('',(0.936902580103762,-2.26314929776087E-031,0.349590553926895
));
#1139=DIRECTION('',(0.659118884721598,8.56884878843749E-019,-0.752038759508681
));
#1140=DIRECTION('',(-2.26628901746591E-018,-1.,-3.12568832227263E-018));
#1141=DIRECTION('',(-0.713481833127677,-8.60929611320845E-018,
-0.700673728490494));
#1142=DIRECTION('',(5.1231506290241E-018,-1.,7.07036814652077E-018));
#1143=DIRECTION('',(0.631494997106718,-0.,-0.77537995113956));
#1144=DIRECTION('',(0.352306408745593,-1.14197533531584E-017,0.935884712107631
));
#1145=DIRECTION('',(0.169201133104398,5.5206878076131E-017,-0.985581542317117)
);
#1146=DIRECTION('',(4.04419458993041E-017,-1.,-4.90715916729907E-017));
#1147=DIRECTION('',(0.999933402861573,1.57564311803775E-018,0.0115407903401696
));
#1148=DIRECTION('',(-0.373424577263864,-5.0621535938003E-017,0.927660544108299
));
#1149=DIRECTION('',(-1.09356872957695E-017,1.,5.01669299487394E-017));
#1150=DIRECTION('',(-0.957908284024972,-1.99560723260169E-018,
0.287074414388208));
#1151=DIRECTION('',(-1.63594310066182E-018,1.,1.49272719130147E-018));
#1152=DIRECTION('',(-0.99409919822159,5.60204302885643E-017,0.108474808574117)
);
#1153=DIRECTION('',(5.51337434354938E-017,1.,-1.11732867779798E-017));
#1154=DIRECTION('',(0.996134402385826,-0.,0.087842201608527));
#1155=DIRECTION('',(-0.,-0.,1.));
#1156=DIRECTION('',(1.,-0.,-0.));
#1157=DIRECTION('',(-6.54606119190269E-016,-0.,-1.));
#1158=DIRECTION('',(-1.,-0.,-0.));
#1159=DIRECTION('',(-0.892003375233691,-0.,-0.452028736444601));
#1160=DIRECTION('',(-0.997683692326186,-0.,-0.0680238933492378));
#1161=DIRECTION('',(-0.768902052674389,-0.,-0.639366587642106));
#1162=DIRECTION('',(-0.,-0.,-1.));
#1163=DIRECTION('',(-0.633109788942298,-0.,-0.774062009883859));
#1164=DIRECTION('',(-1.,-0.,-0.));
#1165=DIRECTION('',(0.0796239000737052,-0.,0.996824976882628));
#1166=DIRECTION('',(1.,-6.59356239947214E-030,-0.));
#1167=DIRECTION('',(0.658245209524605,-3.12156246368354E-017,
-0.752803589349778));
#1168=DIRECTION('',(-3.3956480985612E-017,-1.,1.17745635397397E-017));
#1169=DIRECTION('',(-0.684588658789434,-7.85971554648963E-016,
0.728929604459089));
#1170=DIRECTION('',(-5.27916174269628E-016,1.,5.82451482770443E-016));
#1171=DIRECTION('',(-0.991420911673176,-5.19117236353591E-017,
-0.130707979469994));
#1172=DIRECTION('',(-5.49467435769539E-017,1.,1.96133930428119E-017));
#1173=DIRECTION('',(0.196840199873849,3.18322394665247E-017,-0.980435584683473
));
#1174=DIRECTION('',(3.54510655815327E-017,-1.,-2.53500026110729E-017));
#1175=DIRECTION('',(-0.846210130654456,4.0159292657264E-017,-0.532849335908161
));
#1176=DIRECTION('',(-1.92317027728083E-017,-1.,-4.48254869276875E-017));
#1177=DIRECTION('',(0.606575423306817,-2.43387272755525E-030,
-0.795025946645866));
#1178=DIRECTION('',(0.990766593596815,-0.,0.135578600865193));
#1179=DIRECTION('',(0.0355647005796251,-0.,0.999367375929734));
#1180=DIRECTION('',(0.971767191258471,-0.,0.235941785179359));
#1181=DIRECTION('',(0.0890812079042061,-0.,0.996024366367775));
#1182=DIRECTION('',(0.999380658832694,0.,0.0351894693215373));
#1183=DIRECTION('',(0.0917655453282028,2.55872143447458E-030,0.995780640849488
));
#1184=DIRECTION('',(0.248485469994702,4.13680783393686E-017,-0.968635623545569
));
#1185=DIRECTION('',(3.74342933485021E-017,-1.,-3.31045024395988E-017));
#1186=DIRECTION('',(0.0312344382055788,8.20643691117106E-017,
-0.999512085904909));
#1187=DIRECTION('',(1.1618262116334E-017,-1.,-8.17413619842458E-017));
#1188=DIRECTION('',(-0.998040237071388,-4.93389529217049E-031,
-0.062575435967222));
#1189=DIRECTION('',(-5.12898598968762E-031,1.,2.95705651991138E-031));
#1190=DIRECTION('',(0.935871960584023,-2.54088945619181E-031,0.352340280684193
));
#1191=DIRECTION('',(3.45055654821577E-013,-2.44828708438617E-024,1.));
#1192=DIRECTION('',(-0.621904315456227,1.51510298089046E-017,
-0.783093239925439));
#1193=DIRECTION('',(1.51510298089255E-017,1.,7.31527064091795E-018));
#1194=DIRECTION('',(-0.783093239925445,2.23296954717455E-023,0.621904315456219
));
#1195=DIRECTION('',(0.161762544411968,-0.,0.986829711361269));
#1196=DIRECTION('',(0.9998680680828,-0.,0.0162433502815646));
#1197=DIRECTION('',(0.111070835253732,-0.,0.993812492151331));
#1198=DIRECTION('',(0.936902580103762,-2.26314929776087E-031,0.349590553926895
));
#1199=DIRECTION('',(0.659118884721598,8.56884878843749E-019,-0.752038759508681
));
#1200=DIRECTION('',(-2.26628901746591E-018,-1.,-3.12568832227263E-018));
#1201=DIRECTION('',(-0.713481833127677,-8.60929611320845E-018,
-0.700673728490494));
#1202=DIRECTION('',(5.1231506290241E-018,-1.,7.07036814652077E-018));
#1203=DIRECTION('',(0.631494997106718,-0.,-0.77537995113956));
#1204=DIRECTION('',(0.352306408745593,-1.14197533531584E-017,0.935884712107631
));
#1205=DIRECTION('',(0.169201133104398,5.5206878076131E-017,-0.985581542317117)
);
#1206=DIRECTION('',(4.04419458993041E-017,-1.,-4.90715916729907E-017));
#1207=DIRECTION('',(0.999933402861573,1.57564311803775E-018,0.0115407903401696
));
#1208=DIRECTION('',(-0.373424577263864,-5.0621535938003E-017,0.927660544108299
));
#1209=DIRECTION('',(-1.09356872957695E-017,1.,5.01669299487394E-017));
#1210=DIRECTION('',(-0.957908284024972,-1.99560723260169E-018,
0.287074414388208));
#1211=DIRECTION('',(-1.63594310066182E-018,1.,1.49272719130147E-018));
#1212=DIRECTION('',(-0.99409919822159,5.60204302885643E-017,0.108474808574117)
);
#1213=DIRECTION('',(5.51337434354938E-017,1.,-1.11732867779798E-017));
#1214=DIRECTION('',(0.996134402385826,-0.,0.087842201608527));
#1215=DIRECTION('',(-0.,-0.,1.));
#1216=DIRECTION('',(1.,-0.,-0.));
#1217=DIRECTION('',(-6.54606119190269E-016,-0.,-1.));
#1218=DIRECTION('',(-1.,-0.,-0.));
#1219=DIRECTION('',(-0.892003375233691,-0.,-0.452028736444601));
#1220=DIRECTION('',(-0.997683692326186,-0.,-0.0680238933492378));
#1221=DIRECTION('',(-0.768902052674389,-0.,-0.639366587642106));
#1222=DIRECTION('',(-0.,-0.,-1.));
#1223=DIRECTION('',(-0.633109788942298,-0.,-0.774062009883859));
#1224=DIRECTION('',(-1.,-0.,-0.));
#1225=DIRECTION('',(0.0796239000737052,-0.,0.996824976882628));
#1226=DIRECTION('',(1.,-6.59356239947214E-030,-0.));
#1227=DIRECTION('',(0.658245209524605,-3.12156246368354E-017,
-0.752803589349778));
#1228=DIRECTION('',(-3.3956480985612E-017,-1.,1.17745635397397E-017));
#1229=DIRECTION('',(-0.684588658789434,-7.85971554648963E-016,
0.728929604459089));
#1230=DIRECTION('',(-5.27916174269628E-016,1.,5.82451482770443E-016));
#1231=DIRECTION('',(-0.991420911673176,-5.19117236353591E-017,
-0.130707979469994));
#1232=DIRECTION('',(-5.49467435769539E-017,1.,1.96133930428119E-017));
#1233=DIRECTION('',(0.196840199873849,3.18322394665247E-017,-0.980435584683473
));
#1234=DIRECTION('',(3.54510655815327E-017,-1.,-2.53500026110729E-017));
#1235=DIRECTION('',(-0.846210130654456,4.0159292657264E-017,-0.532849335908161
));
#1236=DIRECTION('',(-1.92317027728083E-017,-1.,-4.48254869276875E-017));
#1237=DIRECTION('',(0.606575423306817,-2.43387272755525E-030,
-0.795025946645866));
#1238=DIRECTION('',(0.990766593596815,-0.,0.135578600865193));
#1239=DIRECTION('',(0.0355647005796251,-0.,0.999367375929734));
#1240=DIRECTION('',(0.971767191258471,-0.,0.235941785179359));
#1241=DIRECTION('',(0.0890812079042061,-0.,0.996024366367775));
#1242=DIRECTION('',(0.999380658832694,0.,0.0351894693215373));
#1243=DIRECTION('',(0.0917655453282028,2.55872143447458E-030,0.995780640849488
));
#1244=DIRECTION('',(0.248485469994702,4.13680783393686E-017,-0.968635623545569
));
#1245=DIRECTION('',(3.74342933485021E-017,-1.,-3.31045024395988E-017));
#1246=DIRECTION('',(0.0312344382055788,8.20643691117106E-017,
-0.999512085904909));
#1247=DIRECTION('',(1.1618262116334E-017,-1.,-8.17413619842458E-017));
#1248=DIRECTION('',(1.,5.6437336532346E-019,0.));
#1249=DIRECTION('',(5.6437336532346E-019,-1.,-4.00193291685987E-019));
#1250=DIRECTION('',(1.,5.6437336532346E-019,0.));
#1251=DIRECTION('',(5.6437336532346E-019,-1.,-4.00193291685987E-019));
#1252=DIRECTION('',(-0.0917655453282028,-1.20370621524202E-035,
-0.995780640849488));
#1253=DIRECTION('',(0.995780640849488,5.98716027048431E-019,
-0.0917655453282028));
#1254=DIRECTION('',(-0.999380658832694,0.,-0.0351894693215373));
#1255=DIRECTION('',(0.0351894693215373,4.19805434730509E-019,
-0.999380658832694));
#1256=DIRECTION('',(-0.0890812079042061,0.,-0.996024366367775));
#1257=DIRECTION('',(0.996024366367775,5.97779325409696E-019,
-0.0890812079042061));
#1258=DIRECTION('',(-0.971767191258471,0.,-0.235941785179359));
#1259=DIRECTION('',(0.235941785179359,5.22053970344274E-019,-0.971767191258471
));
#1260=DIRECTION('',(-0.0355647005796251,0.,-0.999367375929734));
#1261=DIRECTION('',(0.999367375929734,5.78249083740726E-019,
-0.0355647005796251));
#1262=DIRECTION('',(-0.990766593596815,1.20370621524202E-035,
-0.135578600865193));
#1263=DIRECTION('',(0.135578600865193,4.73015095620157E-019,-0.990766593596815
));
#1264=DIRECTION('',(-0.606575423306817,-1.20370621524202E-035,
0.795025946645866));
#1265=DIRECTION('',(-0.795025946645866,-2.05944053719021E-019,
-0.606575423306817));
#1266=DIRECTION('',(1.,5.6437336532346E-019,0.));
#1267=DIRECTION('',(5.6437336532346E-019,-1.,-4.00193291685987E-019));
#1268=DIRECTION('',(1.,5.6437336532346E-019,0.));
#1269=DIRECTION('',(5.6437336532346E-019,-1.,-4.00193291685987E-019));
#1270=DIRECTION('',(1.,5.6437336532346E-019,0.));
#1271=DIRECTION('',(5.6437336532346E-019,-1.,-4.00193291685987E-019));
#1272=DIRECTION('',(1.,5.6437336532346E-019,0.));
#1273=DIRECTION('',(5.6437336532346E-019,-1.,-4.00193291685987E-019));
#1274=DIRECTION('',(1.,5.6437336532346E-019,0.));
#1275=DIRECTION('',(5.6437336532346E-019,-1.,-4.00193291685987E-019));
#1276=DIRECTION('',(0.,1.,4.00193291685987E-019));
#1277=DIRECTION('',(2.63869944058171E-048,4.00193291685987E-019,-1.));
#1278=DIRECTION('',(-0.0796239000737052,6.01853107621011E-036,
-0.996824976882628));
#1279=DIRECTION('',(0.996824976882628,5.94446417509102E-019,
-0.0796239000737052));
#1280=DIRECTION('',(0.,-1.,-4.00193291685987E-019));
#1281=DIRECTION('',(0.,-4.00193291685987E-019,1.));
#1282=DIRECTION('',(0.633109788942298,-4.81482486096809E-035,0.774062009883859
));
#1283=DIRECTION('',(-0.774062009883859,-6.90226271922634E-019,
0.633109788942298));
#1284=DIRECTION('',(5.6437336532346E-019,-1.,0.));
#1285=DIRECTION('',(-1.,-5.6437336532346E-019,0.));
#1286=DIRECTION('',(0.768902052674389,0.,0.639366587642106));
#1287=DIRECTION('',(-0.639366587642106,-6.68550916186829E-019,
0.768902052674389));
#1288=DIRECTION('',(0.997683692326186,0.,0.0680238933492379));
#1289=DIRECTION('',(-0.0680238933492379,-4.3765719450536E-019,
0.997683692326186));
#1290=DIRECTION('',(0.892003375233691,4.81482486096809E-035,0.452028736444601)
);
#1291=DIRECTION('',(-0.452028736444601,-6.12086746139933E-019,
0.892003375233691));
#1292=DIRECTION('',(0.,-1.,-4.00193291685987E-019));
#1293=DIRECTION('',(0.,-4.00193291685987E-019,1.));
#1294=DIRECTION('',(6.54606119190269E-016,0.,1.));
#1295=DIRECTION('',(-1.,-5.6437336532346E-019,6.54606119190269E-016));
#1296=DIRECTION('',(0.,1.,4.00193291685987E-019));
#1297=DIRECTION('',(0.,4.00193291685987E-019,-1.));
#1298=DIRECTION('',(-5.6437336532346E-019,1.,0.));
#1299=DIRECTION('',(1.,5.6437336532346E-019,0.));
#1300=DIRECTION('',(-0.996134402385826,6.01853107621011E-036,
-0.087842201608527));
#1301=DIRECTION('',(0.087842201608527,4.48222104391664E-019,-0.996134402385826
));
#1302=DIRECTION('',(1.,5.6437336532346E-019,0.));
#1303=DIRECTION('',(5.6437336532346E-019,-1.,-4.00193291685987E-019));
#1304=DIRECTION('',(1.,5.6437336532346E-019,0.));
#1305=DIRECTION('',(5.6437336532346E-019,-1.,-4.00193291685987E-019));
#1306=DIRECTION('',(1.,5.6437336532346E-019,0.));
#1307=DIRECTION('',(5.6437336532346E-019,-1.,-4.00193291685987E-019));
#1308=DIRECTION('',(-0.999933402861573,-7.52316384526264E-037,
-0.0115407903401696));
#1309=DIRECTION('',(0.0115407903401696,4.06679954640717E-019,
-0.999933402861573));
#1310=DIRECTION('',(1.,5.6437336532346E-019,0.));
#1311=DIRECTION('',(5.6437336532346E-019,-1.,-4.00193291685987E-019));
#1312=DIRECTION('',(-0.352306408745593,0.,-0.935884712107631));
#1313=DIRECTION('',(0.935884712107631,6.69179065924929E-019,-0.352306408745593
));
#1314=DIRECTION('',(-0.631494997106718,0.,0.77537995113956));
#1315=DIRECTION('',(-0.77537995113956,-1.84883730853603E-019,
-0.631494997106718));
#1316=DIRECTION('',(1.,5.6437336532346E-019,0.));
#1317=DIRECTION('',(5.6437336532346E-019,-1.,-4.00193291685987E-019));
#1318=DIRECTION('',(1.,5.6437336532346E-019,0.));
#1319=DIRECTION('',(5.6437336532346E-019,-1.,-4.00193291685987E-019));
#1320=DIRECTION('',(-0.936902580103762,0.,-0.349590553926895));
#1321=DIRECTION('',(0.349590553926895,5.72241724925833E-019,-0.936902580103762
));
#1322=DIRECTION('',(-0.111070835253732,0.,-0.993812492151331));
#1323=DIRECTION('',(0.993812492151331,6.05331103866444E-019,-0.111070835253732
));
#1324=DIRECTION('',(-0.9998680680828,7.52316384526264E-037,-0.0162433502815646
));
#1325=DIRECTION('',(0.0162433502815646,4.09307807680299E-019,-0.9998680680828)
);
#1326=DIRECTION('',(-0.161762544411968,-1.20370621524202E-035,
-0.986829711361269));
#1327=DIRECTION('',(0.986829711361269,6.21676690321864E-019,-0.161762544411968
));
#1328=DIRECTION('',(0.783093239925445,3.00926553810506E-036,-0.621904315456219
));
#1329=DIRECTION('',(0.621904315456219,3.75975700404006E-020,0.783093239925445)
);
#1330=DIRECTION('',(1.,5.6437336532346E-019,0.));
#1331=DIRECTION('',(5.6437336532346E-019,-1.,-4.00193291685987E-019));
#1332=DIRECTION('',(-3.45055654821577E-013,0.,-1.));
#1333=DIRECTION('',(1.,5.64373365323598E-019,-3.45055654821577E-013));
#1334=DIRECTION('',(-0.935871960584023,0.,-0.352340280684193));
#1335=DIRECTION('',(0.352340280684193,5.7338115045149E-019,-0.935871960584023)
);
#1336=DIRECTION('',(1.,5.6437336532346E-019,0.));
#1337=DIRECTION('',(5.6437336532346E-019,-1.,-4.00193291685987E-019));
#1338=DIRECTION('',(0.,8.17413619842458E-017,-1.));
#1339=DIRECTION('',(1.1618262116334E-017,-1.,-8.17413619842458E-017));
#1340=DIRECTION('',(0.,8.17413619842458E-017,-1.));
#1341=DIRECTION('',(1.1618262116334E-017,-1.,-8.17413619842458E-017));
#1342=CARTESIAN_POINT('',(0.,0.,0.));
#1343=CARTESIAN_POINT('',(294.243429861481,2000.,2167.51953129997));
#1344=CARTESIAN_POINT('',(285.934121,2000.,2158.391314));
#1345=CARTESIAN_POINT('',(280.353453,2000.,2156.29028499995));
#1346=CARTESIAN_POINT('',(280.353452999987,2000.,2118.73025861242));
#1347=CARTESIAN_POINT('',(282.65206922086,2000.,2113.96947742042));
#1348=CARTESIAN_POINT('',(285.876985,2000.,2111.408366));
#1349=CARTESIAN_POINT('',(284.006765,2000.,2099.99912));
#1350=CARTESIAN_POINT('',(226.220031999981,2000.,2099.060346));
#1351=CARTESIAN_POINT('',(225.352215,2000.,2091.295505));
#1352=CARTESIAN_POINT('',(219.968846,2000.,2089.286785));
#1353=CARTESIAN_POINT('',(217.749213443548,2000.,2074.71075298918));
#1354=CARTESIAN_POINT('',(206.813343,2000.,2075.479546));
#1355=CARTESIAN_POINT('',(202.368312,2000.,2080.937369));
#1356=CARTESIAN_POINT('',(200.755997424297,2000.,2076.65433433174));
#1357=CARTESIAN_POINT('',(191.65056160072,2000.,2069.68460228553));
#1358=CARTESIAN_POINT('',(175.127428903974,2000.,2069.49389957506));
#1359=CARTESIAN_POINT('',(163.649973334485,2000.,2066.99197519604));
#1360=CARTESIAN_POINT('',(155.288718778729,2000.,2057.82852136263));
#1361=CARTESIAN_POINT('',(153.627854,2000.,2049.633109));
#1362=CARTESIAN_POINT('',(144.96524,2000.,2048.869213));
#1363=CARTESIAN_POINT('',(144.96524,2000.,2039.619213));
#1364=CARTESIAN_POINT('',(103.080454,2000.,2039.619213));
#1365=CARTESIAN_POINT('',(103.080454,2000.,2061.328229));
#1366=CARTESIAN_POINT('',(117.896885,2000.,2061.328229));
#1367=CARTESIAN_POINT('',(219.859948,2000.,2112.9987));
#1368=CARTESIAN_POINT('',(250.173290999981,2000.,2115.065519));
#1369=CARTESIAN_POINT('',(262.229733999981,2000.,2125.090836));
#1370=CARTESIAN_POINT('',(262.229733999981,2000.,2157.090836));
#1371=CARTESIAN_POINT('',(337.811723,2000.,2249.5));
#1372=CARTESIAN_POINT('',(366.315143,2000.,2249.5));
#1373=CARTESIAN_POINT('',(365.437949,2000.,2238.518261));
#1374=CARTESIAN_POINT('',(357.937949,2000.,2238.518261));
#1375=CARTESIAN_POINT('',(354.092027863853,2000.,2227.42706874553));
#1376=CARTESIAN_POINT('',(350.283272253079,2000.,2223.97492938243));
#1377=CARTESIAN_POINT('',(343.197351276471,2000.,2204.12378572471));
#1378=CARTESIAN_POINT('',(342.203351992111,2000.,2202.73371352793));
#1379=CARTESIAN_POINT('',(338.904944,2000.,2204.148846));
#1380=CARTESIAN_POINT('',(335.759316,2000.,2208.27175599998));
#1381=CARTESIAN_POINT('',(332.858009,2000.,2207.874735));
#1382=CARTESIAN_POINT('',(332.552608,2000.,2199.29297299998));
#1383=CARTESIAN_POINT('',(328.331606,2000.,2198.26812799998));
#1384=CARTESIAN_POINT('',(326.649238,2000.,2179.457432));
#1385=CARTESIAN_POINT('',(307.255986429252,2000.,2178.77457084478));
#1386=CARTESIAN_POINT('',(306.91295112129,2000.,2175.05217244815));
#1387=CARTESIAN_POINT('',(301.115323683935,2000.,2168.49626403021));
#1388=CARTESIAN_POINT('',(294.243429861481,4.74178025527862E-032,
2167.51953129997));
#1389=CARTESIAN_POINT('',(285.934121,-1.51514962269608E-030,2158.391314));
#1390=CARTESIAN_POINT('',(280.353453,0.,2156.29028499995));
#1391=CARTESIAN_POINT('',(280.353452999987,9.1957726177608E-023,
2118.73025861242));
#1392=CARTESIAN_POINT('',(282.65206922086,9.19576157713629E-023,
2113.96947742042));
#1393=CARTESIAN_POINT('',(285.876985,0.,2111.408366));
#1394=CARTESIAN_POINT('',(284.006765,0.,2099.99912));
#1395=CARTESIAN_POINT('',(226.220031999981,0.,2099.060346));
#1396=CARTESIAN_POINT('',(225.352215,-1.71056941445901E-046,2091.295505));
#1397=CARTESIAN_POINT('',(219.968846,1.39028067860454E-030,2089.286785));
#1398=CARTESIAN_POINT('',(217.749213443548,5.05904619268055E-017,
2074.71075298918));
#1399=CARTESIAN_POINT('',(206.813343,0.,2075.479546));
#1400=CARTESIAN_POINT('',(202.368312,0.,2080.937369));
#1401=CARTESIAN_POINT('',(200.755997424297,5.22619921896543E-017,
2076.65433433174));
#1402=CARTESIAN_POINT('',(191.65056160072,2.60362942647325E-017,
2069.68460228553));
#1403=CARTESIAN_POINT('',(175.127428903974,-1.42518815884655E-029,
2069.49389957506));
#1404=CARTESIAN_POINT('',(163.649973334485,1.89583728900619E-030,
2066.99197519604));
#1405=CARTESIAN_POINT('',(155.288718778729,3.08148791101958E-030,
2057.82852136263));
#1406=CARTESIAN_POINT('',(153.627854,0.,2049.633109));
#1407=CARTESIAN_POINT('',(144.96524,0.,2048.869213));
#1408=CARTESIAN_POINT('',(144.96524,0.,2039.619213));
#1409=CARTESIAN_POINT('',(103.080454,0.,2039.619213));
#1410=CARTESIAN_POINT('',(103.080454,0.,2061.328229));
#1411=CARTESIAN_POINT('',(117.896885,0.,2061.328229));
#1412=CARTESIAN_POINT('',(219.859948,0.,2112.9987));
#1413=CARTESIAN_POINT('',(250.173290999981,0.,2115.065519));
#1414=CARTESIAN_POINT('',(262.229733999981,0.,2125.090836));
#1415=CARTESIAN_POINT('',(262.229733999981,0.,2157.090836));
#1416=CARTESIAN_POINT('',(337.811723,0.,2249.5));
#1417=CARTESIAN_POINT('',(366.315143,0.,2249.5));
#1418=CARTESIAN_POINT('',(365.437949,0.,2238.518261));
#1419=CARTESIAN_POINT('',(357.937949,5.17112190067973E-029,2238.518261));
#1420=CARTESIAN_POINT('',(354.092027863853,2.71170936169723E-028,
2227.42706874553));
#1421=CARTESIAN_POINT('',(350.283272253079,-8.28149876086511E-030,
2223.97492938243));
#1422=CARTESIAN_POINT('',(343.197351276471,-5.10973288370239E-030,
2204.12378572471));
#1423=CARTESIAN_POINT('',(342.203351992111,-1.48778088203914E-029,
2202.73371352793));
#1424=CARTESIAN_POINT('',(338.904944,-1.26217744835362E-029,2204.148846));
#1425=CARTESIAN_POINT('',(335.759316,0.,2208.27175599998));
#1426=CARTESIAN_POINT('',(332.858009,0.,2207.874735));
#1427=CARTESIAN_POINT('',(332.552608,0.,2199.29297299998));
#1428=CARTESIAN_POINT('',(328.331606,0.,2198.26812799998));
#1429=CARTESIAN_POINT('',(326.649238,0.,2179.457432));
#1430=CARTESIAN_POINT('',(307.255986429252,0.,2178.77457084478));
#1431=CARTESIAN_POINT('',(306.91295112129,-9.5815014733265E-030,
2175.05217244815));
#1432=CARTESIAN_POINT('',(301.115323683935,-3.37037740267766E-030,
2168.49626403021));
#1433=CARTESIAN_POINT('',(301.115323683935,2000.,2168.49626403021));
#1434=CARTESIAN_POINT('',(306.91295112129,2000.,2175.05217244815));
#1435=CARTESIAN_POINT('',(307.255986429252,2000.,2178.77457084478));
#1436=CARTESIAN_POINT('',(326.649238,2000.,2179.457432));
#1437=CARTESIAN_POINT('',(328.331606,2000.,2198.26812799998));
#1438=CARTESIAN_POINT('',(332.552608,2000.,2199.29297299998));
#1439=CARTESIAN_POINT('',(332.858009,2000.,2207.874735));
#1440=CARTESIAN_POINT('',(335.759316,2000.,2208.27175599998));
#1441=CARTESIAN_POINT('',(338.904944,2000.,2204.148846));
#1442=CARTESIAN_POINT('',(342.203351992111,2000.,2202.73371352793));
#1443=CARTESIAN_POINT('',(343.197351276471,2000.,2204.12378572471));
#1444=CARTESIAN_POINT('',(350.283272253079,2000.,2223.97492938243));
#1445=CARTESIAN_POINT('',(354.092027863853,2000.,2227.42706874553));
#1446=CARTESIAN_POINT('',(357.937949,2000.,2238.518261));
#1447=CARTESIAN_POINT('',(365.437949,2000.,2238.518261));
#1448=CARTESIAN_POINT('',(366.315143,2000.,2249.5));
#1449=CARTESIAN_POINT('',(337.811723,2000.,2249.5));
#1450=CARTESIAN_POINT('',(262.229733999981,2000.,2157.090836));
#1451=CARTESIAN_POINT('',(262.229733999981,2000.,2125.090836));
#1452=CARTESIAN_POINT('',(250.173290999981,2000.,2115.065519));
#1453=CARTESIAN_POINT('',(219.859948,2000.,2112.9987));
#1454=CARTESIAN_POINT('',(117.896885,2000.,2061.328229));
#1455=CARTESIAN_POINT('',(103.080454,2000.,2061.328229));
#1456=CARTESIAN_POINT('',(103.080454,2000.,2039.619213));
#1457=CARTESIAN_POINT('',(144.96524,2000.,2039.619213));
#1458=CARTESIAN_POINT('',(144.96524,2000.,2048.869213));
#1459=CARTESIAN_POINT('',(153.627854,2000.,2049.633109));
#1460=CARTESIAN_POINT('',(155.288718778729,2000.,2057.82852136263));
#1461=CARTESIAN_POINT('',(163.649973334485,2000.,2066.99197519604));
#1462=CARTESIAN_POINT('',(175.127428903974,2000.,2069.49389957506));
#1463=CARTESIAN_POINT('',(191.65056160072,2000.,2069.68460228553));
#1464=CARTESIAN_POINT('',(200.755997424297,2000.,2076.65433433174));
#1465=CARTESIAN_POINT('',(202.368312,2000.,2080.937369));
#1466=CARTESIAN_POINT('',(206.813343,2000.,2075.479546));
#1467=CARTESIAN_POINT('',(217.749213443548,2000.,2074.71075298918));
#1468=CARTESIAN_POINT('',(219.968846,2000.,2089.286785));
#1469=CARTESIAN_POINT('',(225.352215,2000.,2091.295505));
#1470=CARTESIAN_POINT('',(226.220031999981,2000.,2099.060346));
#1471=CARTESIAN_POINT('',(284.006765,2000.,2099.99912));
#1472=CARTESIAN_POINT('',(285.876985,2000.,2111.408366));
#1473=CARTESIAN_POINT('',(282.65206922086,2000.,2113.96947742042));
#1474=CARTESIAN_POINT('',(280.353452999987,2000.,2118.73025861242));
#1475=CARTESIAN_POINT('',(280.353453,2000.,2156.29028499995));
#1476=CARTESIAN_POINT('',(285.934121,2000.,2158.391314));
#1477=CARTESIAN_POINT('',(294.243429861481,2000.,2167.51953129997));
#1478=CARTESIAN_POINT('',(294.511877517588,2000.,2158.92912483545));
#1479=CARTESIAN_POINT('',(280.353453,2000.,2156.29028499995));
#1480=CARTESIAN_POINT('',(280.353452999987,2000.,2118.73025861242));
#1481=CARTESIAN_POINT('',(286.432909377932,2000.,2118.73025861241));
#1482=CARTESIAN_POINT('',(285.876985,2000.,2111.408366));
#1483=CARTESIAN_POINT('',(284.006765,2000.,2099.99912));
#1484=CARTESIAN_POINT('',(226.220031999981,2000.,2099.060346));
#1485=CARTESIAN_POINT('',(225.352215,2000.,2091.295505));
#1486=CARTESIAN_POINT('',(219.968846,2000.,2089.286785));
#1487=CARTESIAN_POINT('',(210.206939280348,2000.,2083.31630600404));
#1488=CARTESIAN_POINT('',(212.715795599686,2000.,2081.27604042808));
#1489=CARTESIAN_POINT('',(202.368312,2000.,2080.937369));
#1490=CARTESIAN_POINT('',(200.755997424297,2000.,2076.65433433174));
#1491=CARTESIAN_POINT('',(189.562992009185,2000.,2081.84450937345));
#1492=CARTESIAN_POINT('',(175.127428903974,2000.,2069.49389957506));
#1493=CARTESIAN_POINT('',(176.761611802332,2000.,2034.42007067825));
#1494=CARTESIAN_POINT('',(168.99108311629,2000.,2053.7220758046));
#1495=CARTESIAN_POINT('',(199.23441500852,2000.,2044.65658051675));
#1496=CARTESIAN_POINT('',(144.96524,2000.,2048.869213));
#1497=CARTESIAN_POINT('',(144.96524,2000.,2039.619213));
#1498=CARTESIAN_POINT('',(103.080454,2000.,2039.619213));
#1499=CARTESIAN_POINT('',(103.080454,2000.,2061.328229));
#1500=CARTESIAN_POINT('',(117.896885,2000.,2061.328229));
#1501=CARTESIAN_POINT('',(219.859948,2000.,2112.9987));
#1502=CARTESIAN_POINT('',(250.173290999981,2000.,2115.065519));
#1503=CARTESIAN_POINT('',(262.229733999981,2000.,2125.090836));
#1504=CARTESIAN_POINT('',(262.229733999981,2000.,2157.090836));
#1505=CARTESIAN_POINT('',(337.811723,2000.,2249.5));
#1506=CARTESIAN_POINT('',(366.315143,2000.,2249.5));
#1507=CARTESIAN_POINT('',(365.437949,2000.,2238.518261));
#1508=CARTESIAN_POINT('',(357.937949,2000.,2238.518261));
#1509=CARTESIAN_POINT('',(346.29630760562,2000.,2236.34266145634));
#1510=CARTESIAN_POINT('',(449.605890409907,2000.,2118.21916519124));
#1511=CARTESIAN_POINT('',(366.091026962386,2000.,2207.14206590855));
#1512=CARTESIAN_POINT('',(341.957108461892,2000.,2203.96022071335));
#1513=CARTESIAN_POINT('',(341.580559412953,2000.,2205.83365198883));
#1514=CARTESIAN_POINT('',(335.759316,2000.,2208.27175599998));
#1515=CARTESIAN_POINT('',(332.858009,2000.,2207.874735));
#1516=CARTESIAN_POINT('',(332.552608,2000.,2199.29297299998));
#1517=CARTESIAN_POINT('',(328.331606,2000.,2198.26812799998));
#1518=CARTESIAN_POINT('',(326.649238,2000.,2179.457432));
#1519=CARTESIAN_POINT('',(307.255986429252,2000.,2178.77457084478));
#1520=CARTESIAN_POINT('',(306.91295112129,2000.,2175.05217244815));
#1521=CARTESIAN_POINT('',(299.177093516457,2000.,2176.05179146967));
#1522=CARTESIAN_POINT('',(293.25554452952,2000.,2199.13218020641));
#1523=CARTESIAN_POINT('',(294.511877517588,2.7253359737261E-030,
2158.92912483545));
#1524=CARTESIAN_POINT('',(280.353453,0.,2156.29028499995));
#1525=CARTESIAN_POINT('',(280.353452999987,9.19577274937885E-023,
2118.73025861242));
#1526=CARTESIAN_POINT('',(286.432909377932,-9.21099328465697E-017,
2118.73025861241));
#1527=CARTESIAN_POINT('',(285.876985,0.,2111.408366));
#1528=CARTESIAN_POINT('',(284.006765,0.,2099.99912));
#1529=CARTESIAN_POINT('',(226.220031999981,0.,2099.060346));
#1530=CARTESIAN_POINT('',(225.352215,0.,2091.295505));
#1531=CARTESIAN_POINT('',(219.968846,1.30038789845026E-030,2089.286785));
#1532=CARTESIAN_POINT('',(210.206939280348,4.0785158464338E-017,
2083.31630600404));
#1533=CARTESIAN_POINT('',(212.715795599686,7.12225033146523E-017,
2081.27604042808));
#1534=CARTESIAN_POINT('',(202.368312,0.,2080.937369));
#1535=CARTESIAN_POINT('',(200.755997424297,5.22619921896543E-017,
2076.65433433174));
#1536=CARTESIAN_POINT('',(189.562992009185,-6.55095077617016E-016,
2081.84450937345));
#1537=CARTESIAN_POINT('',(175.127428903974,-1.38050658413677E-029,
2069.49389957506));
#1538=CARTESIAN_POINT('',(176.761611802332,1.77741723046053E-015,
2034.42007067825));
#1539=CARTESIAN_POINT('',(168.99108311629,2.85460913448682E-017,
2053.7220758046));
#1540=CARTESIAN_POINT('',(199.23441500852,-2.57006461352102E-015,
2044.65658051675));
#1541=CARTESIAN_POINT('',(144.96524,0.,2048.869213));
#1542=CARTESIAN_POINT('',(144.96524,0.,2039.619213));
#1543=CARTESIAN_POINT('',(103.080454,0.,2039.619213));
#1544=CARTESIAN_POINT('',(103.080454,0.,2061.328229));
#1545=CARTESIAN_POINT('',(117.896885,0.,2061.328229));
#1546=CARTESIAN_POINT('',(219.859948,0.,2112.9987));
#1547=CARTESIAN_POINT('',(250.173290999981,0.,2115.065519));
#1548=CARTESIAN_POINT('',(262.229733999981,0.,2125.090836));
#1549=CARTESIAN_POINT('',(262.229733999981,0.,2157.090836));
#1550=CARTESIAN_POINT('',(337.811723,0.,2249.5));
#1551=CARTESIAN_POINT('',(366.315143,0.,2249.5));
#1552=CARTESIAN_POINT('',(365.437949,0.,2238.518261));
#1553=CARTESIAN_POINT('',(357.937949,4.94517179960422E-029,2238.518261));
#1554=CARTESIAN_POINT('',(346.29630760562,3.69692439585799E-016,
2236.34266145634));
#1555=CARTESIAN_POINT('',(449.605890409907,1.14031618260475E-013,
2118.21916519124));
#1556=CARTESIAN_POINT('',(366.091026962386,1.19873421188897E-015,
2207.14206590855));
#1557=CARTESIAN_POINT('',(341.957108461892,-3.98215558916594E-017,
2203.96022071335));
#1558=CARTESIAN_POINT('',(341.580559412953,-1.26978889184395E-016,
2205.83365198883));
#1559=CARTESIAN_POINT('',(335.759316,-1.40129846432482E-045,2208.27175599998)
);
#1560=CARTESIAN_POINT('',(332.858009,0.,2207.874735));
#1561=CARTESIAN_POINT('',(332.552608,0.,2199.29297299998));
#1562=CARTESIAN_POINT('',(328.331606,0.,2198.26812799998));
#1563=CARTESIAN_POINT('',(326.649238,0.,2179.457432));
#1564=CARTESIAN_POINT('',(307.255986429252,0.,2178.77457084478));
#1565=CARTESIAN_POINT('',(306.91295112129,-9.56493847580477E-030,
2175.05217244815));
#1566=CARTESIAN_POINT('',(299.177093516457,-3.22678253218105E-016,
2176.05179146967));
#1567=CARTESIAN_POINT('',(293.25554452952,-2.59553848827001E-015,
2199.13218020641));
#1568=CARTESIAN_POINT('',(293.25554452952,2000.,2199.13218020641));
#1569=CARTESIAN_POINT('',(299.177093516457,2000.,2176.05179146967));
#1570=CARTESIAN_POINT('',(306.91295112129,2000.,2175.05217244815));
#1571=CARTESIAN_POINT('',(307.255986429252,2000.,2178.77457084478));
#1572=CARTESIAN_POINT('',(326.649238,2000.,2179.457432));
#1573=CARTESIAN_POINT('',(328.331606,2000.,2198.26812799998));
#1574=CARTESIAN_POINT('',(332.552608,2000.,2199.29297299998));
#1575=CARTESIAN_POINT('',(332.858009,2000.,2207.874735));
#1576=CARTESIAN_POINT('',(335.759316,2000.,2208.27175599998));
#1577=CARTESIAN_POINT('',(341.580559412953,2000.,2205.83365198883));
#1578=CARTESIAN_POINT('',(341.957108461892,2000.,2203.96022071335));
#1579=CARTESIAN_POINT('',(366.091026962386,2000.,2207.14206590855));
#1580=CARTESIAN_POINT('',(449.605890409907,2000.,2118.21916519124));
#1581=CARTESIAN_POINT('',(346.29630760562,2000.,2236.34266145634));
#1582=CARTESIAN_POINT('',(357.937949,2000.,2238.518261));
#1583=CARTESIAN_POINT('',(365.437949,2000.,2238.518261));
#1584=CARTESIAN_POINT('',(366.315143,2000.,2249.5));
#1585=CARTESIAN_POINT('',(337.811723,2000.,2249.5));
#1586=CARTESIAN_POINT('',(262.229733999981,2000.,2157.090836));
#1587=CARTESIAN_POINT('',(262.229733999981,2000.,2125.090836));
#1588=CARTESIAN_POINT('',(250.173290999981,2000.,2115.065519));
#1589=CARTESIAN_POINT('',(219.859948,2000.,2112.9987));
#1590=CARTESIAN_POINT('',(117.896885,2000.,2061.328229));
#1591=CARTESIAN_POINT('',(103.080454,2000.,2061.328229));
#1592=CARTESIAN_POINT('',(103.080454,2000.,2039.619213));
#1593=CARTESIAN_POINT('',(144.96524,2000.,2039.619213));
#1594=CARTESIAN_POINT('',(144.96524,2000.,2048.869213));
#1595=CARTESIAN_POINT('',(199.23441500852,2000.,2044.65658051675));
#1596=CARTESIAN_POINT('',(168.99108311629,2000.,2053.7220758046));
#1597=CARTESIAN_POINT('',(176.761611802332,2000.,2034.42007067825));
#1598=CARTESIAN_POINT('',(175.127428903974,2000.,2069.49389957506));
#1599=CARTESIAN_POINT('',(189.562992009185,2000.,2081.84450937345));
#1600=CARTESIAN_POINT('',(200.755997424297,2000.,2076.65433433174));
#1601=CARTESIAN_POINT('',(202.368312,2000.,2080.937369));
#1602=CARTESIAN_POINT('',(212.715795599686,2000.,2081.27604042808));
#1603=CARTESIAN_POINT('',(210.206939280348,2000.,2083.31630600404));
#1604=CARTESIAN_POINT('',(219.968846,2000.,2089.286785));
#1605=CARTESIAN_POINT('',(225.352215,2000.,2091.295505));
#1606=CARTESIAN_POINT('',(226.220031999981,2000.,2099.060346));
#1607=CARTESIAN_POINT('',(284.006765,2000.,2099.99912));
#1608=CARTESIAN_POINT('',(285.876985,2000.,2111.408366));
#1609=CARTESIAN_POINT('',(286.432909377932,2000.,2118.73025861241));
#1610=CARTESIAN_POINT('',(280.353452999987,2000.,2118.73025861242));
#1611=CARTESIAN_POINT('',(280.353453,2000.,2156.29028499995));
#1612=CARTESIAN_POINT('',(294.511877517588,2000.,2158.92912483545));
#1613=CARTESIAN_POINT('',(293.25554452952,2000.,2199.13218020641));
#1614=CARTESIAN_POINT('',(293.25554452952,-2.59553848827001E-015,
2199.13218020641));
#1615=PRODUCT_DEFINITION_SHAPE('','',#1616);
#1616=PRODUCT_DEFINITION('','',#1628,#1633);
#1617=(
GEOMETRIC_REPRESENTATION_CONTEXT(3)
GLOBAL_UNCERTAINTY_ASSIGNED_CONTEXT((#1618))
GLOBAL_UNIT_ASSIGNED_CONTEXT((#1620,#1619,#1623))
REPRESENTATION_CONTEXT('','')
);
#1618=UNCERTAINTY_MEASURE_WITH_UNIT(LENGTH_MEASURE(0.001),#1620,'','tolerance'
);
#1619=(
CONVERSION_BASED_UNIT('',#1621)
NAMED_UNIT(#1627)
PLANE_ANGLE_UNIT()
);
#1620=(
CONVERSION_BASED_UNIT('',#1622)
LENGTH_UNIT()
NAMED_UNIT(#1626)
);
#1621=PLANE_ANGLE_MEASURE_WITH_UNIT(PLANE_ANGLE_MEASURE(0.0174532925199433),
#1624);
#1622=LENGTH_MEASURE_WITH_UNIT(LENGTH_MEASURE(1.),#1625);
#1623=(
NAMED_UNIT(*)
SI_UNIT($,.STERADIAN.)
SOLID_ANGLE_UNIT()
);
#1624=(
NAMED_UNIT(*)
PLANE_ANGLE_UNIT()
SI_UNIT($,.RADIAN.)
);
#1625=(
LENGTH_UNIT()
NAMED_UNIT(*)
SI_UNIT(.MILLI.,.METRE.)
);
#1626=DIMENSIONAL_EXPONENTS(1.,0.,0.,0.,0.,0.,0.);
#1627=DIMENSIONAL_EXPONENTS(0.,0.,0.,0.,0.,0.,0.);
#1628=PRODUCT_DEFINITION_FORMATION_WITH_SPECIFIED_SOURCE('','',#1631,
.NOT_KNOWN.);
#1629=PRODUCT_CATEGORY_RELATIONSHIP('','',#1634,#1630);
#1630=PRODUCT_RELATED_PRODUCT_CATEGORY('assembly','',(#1631));
#1631=PRODUCT('','master','',(#1632));
#1632=PRODUCT_CONTEXT('',#1636,'');
#1633=PRODUCT_DEFINITION_CONTEXT('',#1636,'part_definition');
#1634=PRODUCT_CATEGORY('part','');
#1635=APPLICATION_PROTOCOL_DEFINITION('international standard',
'automotive_design_cc2',1994,#1636);
#1636=APPLICATION_CONTEXT(
'configuration controlled 3D designs of mechanical parts and assemblies');
ENDSEC;
END-ISO-10303-21;
78592