ISO-10303-21;
HEADER;
/* Generated by software using Delcam plc STEP library */

FILE_DESCRIPTION(
/* description */ ('AP-214 File'),
/* implementation_level */ '2;1');

FILE_NAME(
/* name */ 'D888',
/* time_stamp */ 'Tue Dec 20 10:12:44 2016',
/* author */ (''),
/* organization */ (''),
/* preprocessor_version */ 'DELCAM STEP V1',
/* originating_system */ 'Exchange7.1.0006',
/* authorisation */ '');

FILE_SCHEMA (('AUTOMOTIVE_DESIGN'));
ENDSEC;
DATA;
#10=PRESENTATION_STYLE_ASSIGNMENT((#20));
#11=PRESENTATION_STYLE_ASSIGNMENT((#21));
#12=SURFACE_SIDE_STYLE('',(#14));
#13=SURFACE_SIDE_STYLE('',(#15));
#14=SURFACE_STYLE_FILL_AREA(#16);
#15=SURFACE_STYLE_FILL_AREA(#17);
#16=FILL_AREA_STYLE('',(#18));
#17=FILL_AREA_STYLE('',(#19));
#18=FILL_AREA_STYLE_COLOUR('',#55);
#19=FILL_AREA_STYLE_COLOUR('',#56);
#20=SURFACE_STYLE_USAGE(.BOTH.,#12);
#21=SURFACE_STYLE_USAGE(.BOTH.,#13);
#22=STYLED_ITEM('',(#10),#72);
#23=STYLED_ITEM('',(#10),#73);
#24=STYLED_ITEM('',(#10),#74);
#25=STYLED_ITEM('',(#10),#75);
#26=STYLED_ITEM('',(#10),#76);
#27=STYLED_ITEM('',(#10),#77);
#28=STYLED_ITEM('',(#10),#78);
#29=STYLED_ITEM('',(#10),#79);
#30=STYLED_ITEM('',(#10),#80);
#31=STYLED_ITEM('',(#10),#81);
#32=STYLED_ITEM('',(#10),#82);
#33=STYLED_ITEM('',(#10),#83);
#34=STYLED_ITEM('',(#10),#84);
#35=STYLED_ITEM('',(#10),#85);
#36=STYLED_ITEM('',(#10),#86);
#37=STYLED_ITEM('',(#10),#87);
#38=STYLED_ITEM('',(#10),#88);
#39=STYLED_ITEM('',(#10),#89);
#40=STYLED_ITEM('',(#10),#90);
#41=STYLED_ITEM('',(#10),#91);
#42=STYLED_ITEM('',(#10),#92);
#43=STYLED_ITEM('',(#10),#93);
#44=STYLED_ITEM('',(#10),#94);
#45=STYLED_ITEM('',(#10),#95);
#46=STYLED_ITEM('',(#10),#96);
#47=STYLED_ITEM('',(#10),#97);
#48=STYLED_ITEM('',(#10),#98);
#49=STYLED_ITEM('',(#10),#99);
#50=STYLED_ITEM('',(#10),#100);
#51=STYLED_ITEM('',(#10),#101);
#52=STYLED_ITEM('',(#10),#102);
#53=STYLED_ITEM('',(#10),#103);
#54=STYLED_ITEM('',(#11),#62);
#55=COLOUR_RGB('',0.,0.,0.);
#56=COLOUR_RGB('rgb_colour_1',0.4,0.4,0.4);
#57=MECHANICAL_DESIGN_GEOMETRIC_PRESENTATION_REPRESENTATION('',(#22,#23,#24,
#25,#26,#27,#28,#29,#30,#31,#32,#33,#34,#35,#36,#37,#38,#39,#40,#41,#42,#43,
#44,#45,#46,#47,#48,#49,#50,#51,#52,#53,#54),#1095);
#58=PRESENTATION_LAYER_ASSIGNMENT('59','D114',(#72,#73,#74,#75,#76,#77,#78,#79
,#80,#81,#82,#83,#84,#85,#86,#87,#88,#89,#90,#91,#92,#93,#94,#95,#96,#97,#98,
#99,#100,#101,#102,#103,#62));
#59=SHAPE_REPRESENTATION_RELATIONSHIP('','',#684,#60);
#60=ADVANCED_BREP_SHAPE_REPRESENTATION('',(#61),#1095);
#61=MANIFOLD_SOLID_BREP('957',#62);
#62=CLOSED_SHELL('',(#72,#73,#74,#75,#76,#77,#78,#79,#80,#81,#82,#83,#84,#85,
#86,#87,#88,#89,#90,#91,#92,#93,#94,#95,#96,#97,#98,#99,#100,#101,#102,#103));
#63=CYLINDRICAL_SURFACE('',#705,35.4757180624071);
#64=CYLINDRICAL_SURFACE('',#709,94.1431873090868);
#65=CYLINDRICAL_SURFACE('',#712,16.0240977338831);
#66=CYLINDRICAL_SURFACE('',#713,27.0871651472126);
#67=CYLINDRICAL_SURFACE('',#714,5.97521117612449);
#68=CYLINDRICAL_SURFACE('',#719,20.2503442881852);
#69=CYLINDRICAL_SURFACE('',#720,44.9468777496604);
#70=CYLINDRICAL_SURFACE('',#728,16.1411451470894);
#71=CYLINDRICAL_SURFACE('',#732,10.1394954493445);
#72=ADVANCED_FACE('',(#104),#348,.T.);
#73=ADVANCED_FACE('',(#105),#63,.T.);
#74=ADVANCED_FACE('',(#106),#349,.T.);
#75=ADVANCED_FACE('',(#107),#350,.T.);
#76=ADVANCED_FACE('',(#108),#351,.T.);
#77=ADVANCED_FACE('',(#109),#64,.F.);
#78=ADVANCED_FACE('',(#110),#352,.T.);
#79=ADVANCED_FACE('',(#111),#353,.T.);
#80=ADVANCED_FACE('',(#112),#65,.T.);
#81=ADVANCED_FACE('',(#113),#66,.T.);
#82=ADVANCED_FACE('',(#114),#67,.F.);
#83=ADVANCED_FACE('',(#115),#354,.T.);
#84=ADVANCED_FACE('',(#116),#355,.T.);
#85=ADVANCED_FACE('',(#117),#356,.T.);
#86=ADVANCED_FACE('',(#118),#357,.T.);
#87=ADVANCED_FACE('',(#119),#68,.T.);
#88=ADVANCED_FACE('',(#120),#69,.T.);
#89=ADVANCED_FACE('',(#121),#358,.T.);
#90=ADVANCED_FACE('',(#122),#359,.T.);
#91=ADVANCED_FACE('',(#123),#360,.T.);
#92=ADVANCED_FACE('',(#124),#361,.T.);
#93=ADVANCED_FACE('',(#125),#362,.T.);
#94=ADVANCED_FACE('',(#126),#363,.T.);
#95=ADVANCED_FACE('',(#127),#364,.T.);
#96=ADVANCED_FACE('',(#128),#70,.F.);
#97=ADVANCED_FACE('',(#129),#365,.T.);
#98=ADVANCED_FACE('',(#130),#366,.T.);
#99=ADVANCED_FACE('',(#131),#367,.T.);
#100=ADVANCED_FACE('',(#132),#71,.T.);
#101=ADVANCED_FACE('',(#133),#368,.T.);
#102=ADVANCED_FACE('',(#134),#369,.F.);
#103=ADVANCED_FACE('',(#135),#370,.T.);
#104=FACE_OUTER_BOUND('',#136,.T.);
#105=FACE_OUTER_BOUND('',#137,.T.);
#106=FACE_OUTER_BOUND('',#138,.T.);
#107=FACE_OUTER_BOUND('',#139,.T.);
#108=FACE_OUTER_BOUND('',#140,.T.);
#109=FACE_OUTER_BOUND('',#141,.T.);
#110=FACE_OUTER_BOUND('',#142,.T.);
#111=FACE_OUTER_BOUND('',#143,.T.);
#112=FACE_OUTER_BOUND('',#144,.T.);
#113=FACE_OUTER_BOUND('',#145,.T.);
#114=FACE_OUTER_BOUND('',#146,.T.);
#115=FACE_OUTER_BOUND('',#147,.T.);
#116=FACE_OUTER_BOUND('',#148,.T.);
#117=FACE_OUTER_BOUND('',#149,.T.);
#118=FACE_OUTER_BOUND('',#150,.T.);
#119=FACE_OUTER_BOUND('',#151,.T.);
#120=FACE_OUTER_BOUND('',#152,.T.);
#121=FACE_OUTER_BOUND('',#153,.T.);
#122=FACE_OUTER_BOUND('',#154,.T.);
#123=FACE_OUTER_BOUND('',#155,.T.);
#124=FACE_OUTER_BOUND('',#156,.T.);
#125=FACE_OUTER_BOUND('',#157,.T.);
#126=FACE_OUTER_BOUND('',#158,.T.);
#127=FACE_OUTER_BOUND('',#159,.T.);
#128=FACE_OUTER_BOUND('',#160,.T.);
#129=FACE_OUTER_BOUND('',#161,.T.);
#130=FACE_OUTER_BOUND('',#162,.T.);
#131=FACE_OUTER_BOUND('',#163,.T.);
#132=FACE_OUTER_BOUND('',#164,.T.);
#133=FACE_OUTER_BOUND('',#165,.T.);
#134=FACE_OUTER_BOUND('',#166,.T.);
#135=FACE_OUTER_BOUND('',#167,.T.);
#136=EDGE_LOOP('',(#168,#169,#170,#171));
#137=EDGE_LOOP('',(#172,#173,#174,#175));
#138=EDGE_LOOP('',(#176,#177,#178,#179));
#139=EDGE_LOOP('',(#180,#181,#182,#183));
#140=EDGE_LOOP('',(#184,#185,#186,#187));
#141=EDGE_LOOP('',(#188,#189,#190,#191));
#142=EDGE_LOOP('',(#192,#193,#194,#195));
#143=EDGE_LOOP('',(#196,#197,#198,#199));
#144=EDGE_LOOP('',(#200,#201,#202,#203));
#145=EDGE_LOOP('',(#204,#205,#206,#207));
#146=EDGE_LOOP('',(#208,#209,#210,#211));
#147=EDGE_LOOP('',(#212,#213,#214,#215));
#148=EDGE_LOOP('',(#216,#217,#218,#219));
#149=EDGE_LOOP('',(#220,#221,#222,#223));
#150=EDGE_LOOP('',(#224,#225,#226,#227));
#151=EDGE_LOOP('',(#228,#229,#230,#231));
#152=EDGE_LOOP('',(#232,#233,#234,#235));
#153=EDGE_LOOP('',(#236,#237,#238,#239));
#154=EDGE_LOOP('',(#240,#241,#242,#243));
#155=EDGE_LOOP('',(#244,#245,#246,#247));
#156=EDGE_LOOP('',(#248,#249,#250,#251));
#157=EDGE_LOOP('',(#252,#253,#254,#255));
#158=EDGE_LOOP('',(#256,#257,#258,#259));
#159=EDGE_LOOP('',(#260,#261,#262,#263));
#160=EDGE_LOOP('',(#264,#265,#266,#267));
#161=EDGE_LOOP('',(#268,#269,#270,#271));
#162=EDGE_LOOP('',(#272,#273,#274,#275));
#163=EDGE_LOOP('',(#276,#277,#278,#279));
#164=EDGE_LOOP('',(#280,#281,#282,#283));
#165=EDGE_LOOP('',(#284,#285,#286,#287));
#166=EDGE_LOOP('',(#288,#289,#290,#291,#292,#293,#294,#295,#296,#297,#298,#299
,#300,#301,#302,#303,#304,#305,#306,#307,#308,#309,#310,#311,#312,#313,#314,
#315,#316,#317));
#167=EDGE_LOOP('',(#318,#319,#320,#321,#322,#323,#324,#325,#326,#327,#328,#329
,#330,#331,#332,#333,#334,#335,#336,#337,#338,#339,#340,#341,#342,#343,#344,
#345,#346,#347));
#168=ORIENTED_EDGE('',*,*,#478,.F.);
#169=ORIENTED_EDGE('',*,*,#418,.F.);
#170=ORIENTED_EDGE('',*,*,#448,.T.);
#171=ORIENTED_EDGE('',*,*,#389,.T.);
#172=ORIENTED_EDGE('',*,*,#477,.F.);
#173=ORIENTED_EDGE('',*,*,#389,.F.);
#174=ORIENTED_EDGE('',*,*,#447,.T.);
#175=ORIENTED_EDGE('',*,*,#390,.T.);
#176=ORIENTED_EDGE('',*,*,#476,.F.);
#177=ORIENTED_EDGE('',*,*,#390,.F.);
#178=ORIENTED_EDGE('',*,*,#446,.T.);
#179=ORIENTED_EDGE('',*,*,#391,.T.);
#180=ORIENTED_EDGE('',*,*,#475,.F.);
#181=ORIENTED_EDGE('',*,*,#391,.F.);
#182=ORIENTED_EDGE('',*,*,#445,.T.);
#183=ORIENTED_EDGE('',*,*,#392,.T.);
#184=ORIENTED_EDGE('',*,*,#474,.F.);
#185=ORIENTED_EDGE('',*,*,#392,.F.);
#186=ORIENTED_EDGE('',*,*,#444,.T.);
#187=ORIENTED_EDGE('',*,*,#393,.T.);
#188=ORIENTED_EDGE('',*,*,#473,.F.);
#189=ORIENTED_EDGE('',*,*,#393,.F.);
#190=ORIENTED_EDGE('',*,*,#443,.T.);
#191=ORIENTED_EDGE('',*,*,#394,.T.);
#192=ORIENTED_EDGE('',*,*,#472,.F.);
#193=ORIENTED_EDGE('',*,*,#394,.F.);
#194=ORIENTED_EDGE('',*,*,#442,.T.);
#195=ORIENTED_EDGE('',*,*,#395,.T.);
#196=ORIENTED_EDGE('',*,*,#471,.F.);
#197=ORIENTED_EDGE('',*,*,#395,.F.);
#198=ORIENTED_EDGE('',*,*,#441,.T.);
#199=ORIENTED_EDGE('',*,*,#396,.T.);
#200=ORIENTED_EDGE('',*,*,#470,.F.);
#201=ORIENTED_EDGE('',*,*,#396,.F.);
#202=ORIENTED_EDGE('',*,*,#440,.T.);
#203=ORIENTED_EDGE('',*,*,#397,.T.);
#204=ORIENTED_EDGE('',*,*,#469,.F.);
#205=ORIENTED_EDGE('',*,*,#397,.F.);
#206=ORIENTED_EDGE('',*,*,#439,.T.);
#207=ORIENTED_EDGE('',*,*,#398,.T.);
#208=ORIENTED_EDGE('',*,*,#468,.F.);
#209=ORIENTED_EDGE('',*,*,#398,.F.);
#210=ORIENTED_EDGE('',*,*,#438,.T.);
#211=ORIENTED_EDGE('',*,*,#399,.T.);
#212=ORIENTED_EDGE('',*,*,#467,.F.);
#213=ORIENTED_EDGE('',*,*,#399,.F.);
#214=ORIENTED_EDGE('',*,*,#437,.T.);
#215=ORIENTED_EDGE('',*,*,#400,.T.);
#216=ORIENTED_EDGE('',*,*,#466,.F.);
#217=ORIENTED_EDGE('',*,*,#400,.F.);
#218=ORIENTED_EDGE('',*,*,#436,.T.);
#219=ORIENTED_EDGE('',*,*,#401,.T.);
#220=ORIENTED_EDGE('',*,*,#465,.F.);
#221=ORIENTED_EDGE('',*,*,#401,.F.);
#222=ORIENTED_EDGE('',*,*,#435,.T.);
#223=ORIENTED_EDGE('',*,*,#402,.T.);
#224=ORIENTED_EDGE('',*,*,#464,.F.);
#225=ORIENTED_EDGE('',*,*,#402,.F.);
#226=ORIENTED_EDGE('',*,*,#434,.T.);
#227=ORIENTED_EDGE('',*,*,#403,.T.);
#228=ORIENTED_EDGE('',*,*,#463,.F.);
#229=ORIENTED_EDGE('',*,*,#403,.F.);
#230=ORIENTED_EDGE('',*,*,#433,.T.);
#231=ORIENTED_EDGE('',*,*,#404,.T.);
#232=ORIENTED_EDGE('',*,*,#462,.F.);
#233=ORIENTED_EDGE('',*,*,#404,.F.);
#234=ORIENTED_EDGE('',*,*,#432,.T.);
#235=ORIENTED_EDGE('',*,*,#405,.T.);
#236=ORIENTED_EDGE('',*,*,#461,.F.);
#237=ORIENTED_EDGE('',*,*,#405,.F.);
#238=ORIENTED_EDGE('',*,*,#431,.T.);
#239=ORIENTED_EDGE('',*,*,#406,.T.);
#240=ORIENTED_EDGE('',*,*,#460,.F.);
#241=ORIENTED_EDGE('',*,*,#406,.F.);
#242=ORIENTED_EDGE('',*,*,#430,.T.);
#243=ORIENTED_EDGE('',*,*,#407,.T.);
#244=ORIENTED_EDGE('',*,*,#459,.F.);
#245=ORIENTED_EDGE('',*,*,#407,.F.);
#246=ORIENTED_EDGE('',*,*,#429,.T.);
#247=ORIENTED_EDGE('',*,*,#408,.T.);
#248=ORIENTED_EDGE('',*,*,#458,.F.);
#249=ORIENTED_EDGE('',*,*,#408,.F.);
#250=ORIENTED_EDGE('',*,*,#428,.T.);
#251=ORIENTED_EDGE('',*,*,#409,.T.);
#252=ORIENTED_EDGE('',*,*,#457,.F.);
#253=ORIENTED_EDGE('',*,*,#409,.F.);
#254=ORIENTED_EDGE('',*,*,#427,.T.);
#255=ORIENTED_EDGE('',*,*,#410,.T.);
#256=ORIENTED_EDGE('',*,*,#456,.F.);
#257=ORIENTED_EDGE('',*,*,#410,.F.);
#258=ORIENTED_EDGE('',*,*,#426,.T.);
#259=ORIENTED_EDGE('',*,*,#411,.T.);
#260=ORIENTED_EDGE('',*,*,#455,.F.);
#261=ORIENTED_EDGE('',*,*,#411,.F.);
#262=ORIENTED_EDGE('',*,*,#425,.T.);
#263=ORIENTED_EDGE('',*,*,#412,.T.);
#264=ORIENTED_EDGE('',*,*,#454,.F.);
#265=ORIENTED_EDGE('',*,*,#412,.F.);
#266=ORIENTED_EDGE('',*,*,#424,.T.);
#267=ORIENTED_EDGE('',*,*,#413,.T.);
#268=ORIENTED_EDGE('',*,*,#453,.F.);
#269=ORIENTED_EDGE('',*,*,#413,.F.);
#270=ORIENTED_EDGE('',*,*,#423,.T.);
#271=ORIENTED_EDGE('',*,*,#414,.T.);
#272=ORIENTED_EDGE('',*,*,#452,.F.);
#273=ORIENTED_EDGE('',*,*,#414,.F.);
#274=ORIENTED_EDGE('',*,*,#422,.T.);
#275=ORIENTED_EDGE('',*,*,#415,.T.);
#276=ORIENTED_EDGE('',*,*,#451,.F.);
#277=ORIENTED_EDGE('',*,*,#415,.F.);
#278=ORIENTED_EDGE('',*,*,#421,.T.);
#279=ORIENTED_EDGE('',*,*,#416,.T.);
#280=ORIENTED_EDGE('',*,*,#450,.F.);
#281=ORIENTED_EDGE('',*,*,#416,.F.);
#282=ORIENTED_EDGE('',*,*,#420,.T.);
#283=ORIENTED_EDGE('',*,*,#417,.T.);
#284=ORIENTED_EDGE('',*,*,#449,.F.);
#285=ORIENTED_EDGE('',*,*,#417,.F.);
#286=ORIENTED_EDGE('',*,*,#419,.T.);
#287=ORIENTED_EDGE('',*,*,#418,.T.);
#288=ORIENTED_EDGE('',*,*,#448,.F.);
#289=ORIENTED_EDGE('',*,*,#419,.F.);
#290=ORIENTED_EDGE('',*,*,#420,.F.);
#291=ORIENTED_EDGE('',*,*,#421,.F.);
#292=ORIENTED_EDGE('',*,*,#422,.F.);
#293=ORIENTED_EDGE('',*,*,#423,.F.);
#294=ORIENTED_EDGE('',*,*,#424,.F.);
#295=ORIENTED_EDGE('',*,*,#425,.F.);
#296=ORIENTED_EDGE('',*,*,#426,.F.);
#297=ORIENTED_EDGE('',*,*,#427,.F.);
#298=ORIENTED_EDGE('',*,*,#428,.F.);
#299=ORIENTED_EDGE('',*,*,#429,.F.);
#300=ORIENTED_EDGE('',*,*,#430,.F.);
#301=ORIENTED_EDGE('',*,*,#431,.F.);
#302=ORIENTED_EDGE('',*,*,#432,.F.);
#303=ORIENTED_EDGE('',*,*,#433,.F.);
#304=ORIENTED_EDGE('',*,*,#434,.F.);
#305=ORIENTED_EDGE('',*,*,#435,.F.);
#306=ORIENTED_EDGE('',*,*,#436,.F.);
#307=ORIENTED_EDGE('',*,*,#437,.F.);
#308=ORIENTED_EDGE('',*,*,#438,.F.);
#309=ORIENTED_EDGE('',*,*,#439,.F.);
#310=ORIENTED_EDGE('',*,*,#440,.F.);
#311=ORIENTED_EDGE('',*,*,#441,.F.);
#312=ORIENTED_EDGE('',*,*,#442,.F.);
#313=ORIENTED_EDGE('',*,*,#443,.F.);
#314=ORIENTED_EDGE('',*,*,#444,.F.);
#315=ORIENTED_EDGE('',*,*,#445,.F.);
#316=ORIENTED_EDGE('',*,*,#446,.F.);
#317=ORIENTED_EDGE('',*,*,#447,.F.);
#318=ORIENTED_EDGE('',*,*,#478,.T.);
#319=ORIENTED_EDGE('',*,*,#477,.T.);
#320=ORIENTED_EDGE('',*,*,#476,.T.);
#321=ORIENTED_EDGE('',*,*,#475,.T.);
#322=ORIENTED_EDGE('',*,*,#474,.T.);
#323=ORIENTED_EDGE('',*,*,#473,.T.);
#324=ORIENTED_EDGE('',*,*,#472,.T.);
#325=ORIENTED_EDGE('',*,*,#471,.T.);
#326=ORIENTED_EDGE('',*,*,#470,.T.);
#327=ORIENTED_EDGE('',*,*,#469,.T.);
#328=ORIENTED_EDGE('',*,*,#468,.T.);
#329=ORIENTED_EDGE('',*,*,#467,.T.);
#330=ORIENTED_EDGE('',*,*,#466,.T.);
#331=ORIENTED_EDGE('',*,*,#465,.T.);
#332=ORIENTED_EDGE('',*,*,#464,.T.);
#333=ORIENTED_EDGE('',*,*,#463,.T.);
#334=ORIENTED_EDGE('',*,*,#462,.T.);
#335=ORIENTED_EDGE('',*,*,#461,.T.);
#336=ORIENTED_EDGE('',*,*,#460,.T.);
#337=ORIENTED_EDGE('',*,*,#459,.T.);
#338=ORIENTED_EDGE('',*,*,#458,.T.);
#339=ORIENTED_EDGE('',*,*,#457,.T.);
#340=ORIENTED_EDGE('',*,*,#456,.T.);
#341=ORIENTED_EDGE('',*,*,#455,.T.);
#342=ORIENTED_EDGE('',*,*,#454,.T.);
#343=ORIENTED_EDGE('',*,*,#453,.T.);
#344=ORIENTED_EDGE('',*,*,#452,.T.);
#345=ORIENTED_EDGE('',*,*,#451,.T.);
#346=ORIENTED_EDGE('',*,*,#450,.T.);
#347=ORIENTED_EDGE('',*,*,#449,.T.);
#348=PLANE('',#704);
#349=PLANE('',#706);
#350=PLANE('',#707);
#351=PLANE('',#708);
#352=PLANE('',#710);
#353=PLANE('',#711);
#354=PLANE('',#715);
#355=PLANE('',#716);
#356=PLANE('',#717);
#357=PLANE('',#718);
#358=PLANE('',#721);
#359=PLANE('',#722);
#360=PLANE('',#723);
#361=PLANE('',#724);
#362=PLANE('',#725);
#363=PLANE('',#726);
#364=PLANE('',#727);
#365=PLANE('',#729);
#366=PLANE('',#730);
#367=PLANE('',#731);
#368=PLANE('',#733);
#369=PLANE('',#734);
#370=PLANE('',#735);
#371=CIRCLE('',#686,10.1394954493445);
#372=CIRCLE('',#687,16.1411451470894);
#373=CIRCLE('',#688,44.9468777496604);
#374=CIRCLE('',#689,20.2503442881852);
#375=CIRCLE('',#690,5.97521117612449);
#376=CIRCLE('',#691,27.0871651472126);
#377=CIRCLE('',#692,16.0240977338831);
#378=CIRCLE('',#693,94.1431873090868);
#379=CIRCLE('',#694,35.4757180624071);
#380=CIRCLE('',#695,10.1394954493445);
#381=CIRCLE('',#696,16.1411451470894);
#382=CIRCLE('',#697,44.9468777496604);
#383=CIRCLE('',#698,20.2503442881852);
#384=CIRCLE('',#699,5.97521117612449);
#385=CIRCLE('',#700,27.0871651472126);
#386=CIRCLE('',#701,16.0240977338831);
#387=CIRCLE('',#702,94.1431873090868);
#388=CIRCLE('',#703,35.4757180624071);
#389=EDGE_CURVE('',#652,#682,#479,.T.);
#390=EDGE_CURVE('',#651,#681,#480,.T.);
#391=EDGE_CURVE('',#650,#680,#481,.T.);
#392=EDGE_CURVE('',#649,#679,#482,.T.);
#393=EDGE_CURVE('',#648,#678,#483,.T.);
#394=EDGE_CURVE('',#647,#677,#484,.T.);
#395=EDGE_CURVE('',#646,#676,#485,.T.);
#396=EDGE_CURVE('',#645,#675,#486,.T.);
#397=EDGE_CURVE('',#644,#674,#487,.T.);
#398=EDGE_CURVE('',#643,#673,#488,.T.);
#399=EDGE_CURVE('',#642,#672,#489,.T.);
#400=EDGE_CURVE('',#641,#671,#490,.T.);
#401=EDGE_CURVE('',#640,#670,#491,.T.);
#402=EDGE_CURVE('',#639,#669,#492,.T.);
#403=EDGE_CURVE('',#638,#668,#493,.T.);
#404=EDGE_CURVE('',#637,#667,#494,.T.);
#405=EDGE_CURVE('',#636,#666,#495,.T.);
#406=EDGE_CURVE('',#635,#665,#496,.T.);
#407=EDGE_CURVE('',#634,#664,#497,.T.);
#408=EDGE_CURVE('',#633,#663,#498,.T.);
#409=EDGE_CURVE('',#632,#662,#499,.T.);
#410=EDGE_CURVE('',#631,#661,#500,.T.);
#411=EDGE_CURVE('',#630,#660,#501,.T.);
#412=EDGE_CURVE('',#629,#659,#502,.T.);
#413=EDGE_CURVE('',#628,#658,#503,.T.);
#414=EDGE_CURVE('',#627,#657,#504,.T.);
#415=EDGE_CURVE('',#626,#656,#505,.T.);
#416=EDGE_CURVE('',#625,#655,#506,.T.);
#417=EDGE_CURVE('',#624,#654,#507,.T.);
#418=EDGE_CURVE('',#623,#653,#508,.T.);
#419=EDGE_CURVE('',#624,#623,#509,.T.);
#420=EDGE_CURVE('',#625,#624,#371,.T.);
#421=EDGE_CURVE('',#626,#625,#510,.T.);
#422=EDGE_CURVE('',#627,#626,#511,.T.);
#423=EDGE_CURVE('',#628,#627,#512,.T.);
#424=EDGE_CURVE('',#629,#628,#372,.T.);
#425=EDGE_CURVE('',#630,#629,#513,.T.);
#426=EDGE_CURVE('',#631,#630,#514,.T.);
#427=EDGE_CURVE('',#632,#631,#515,.T.);
#428=EDGE_CURVE('',#633,#632,#516,.T.);
#429=EDGE_CURVE('',#634,#633,#517,.T.);
#430=EDGE_CURVE('',#635,#634,#518,.T.);
#431=EDGE_CURVE('',#636,#635,#519,.T.);
#432=EDGE_CURVE('',#637,#636,#373,.T.);
#433=EDGE_CURVE('',#638,#637,#374,.T.);
#434=EDGE_CURVE('',#639,#638,#520,.T.);
#435=EDGE_CURVE('',#640,#639,#521,.T.);
#436=EDGE_CURVE('',#641,#640,#522,.T.);
#437=EDGE_CURVE('',#642,#641,#523,.T.);
#438=EDGE_CURVE('',#643,#642,#375,.T.);
#439=EDGE_CURVE('',#644,#643,#376,.T.);
#440=EDGE_CURVE('',#645,#644,#377,.T.);
#441=EDGE_CURVE('',#646,#645,#524,.T.);
#442=EDGE_CURVE('',#647,#646,#525,.T.);
#443=EDGE_CURVE('',#648,#647,#378,.T.);
#444=EDGE_CURVE('',#649,#648,#526,.T.);
#445=EDGE_CURVE('',#650,#649,#527,.T.);
#446=EDGE_CURVE('',#651,#650,#528,.T.);
#447=EDGE_CURVE('',#652,#651,#379,.T.);
#448=EDGE_CURVE('',#623,#652,#529,.T.);
#449=EDGE_CURVE('',#654,#653,#530,.T.);
#450=EDGE_CURVE('',#655,#654,#380,.T.);
#451=EDGE_CURVE('',#656,#655,#531,.T.);
#452=EDGE_CURVE('',#657,#656,#532,.T.);
#453=EDGE_CURVE('',#658,#657,#533,.T.);
#454=EDGE_CURVE('',#659,#658,#381,.T.);
#455=EDGE_CURVE('',#660,#659,#534,.T.);
#456=EDGE_CURVE('',#661,#660,#535,.T.);
#457=EDGE_CURVE('',#662,#661,#536,.T.);
#458=EDGE_CURVE('',#663,#662,#537,.T.);
#459=EDGE_CURVE('',#664,#663,#538,.T.);
#460=EDGE_CURVE('',#665,#664,#539,.T.);
#461=EDGE_CURVE('',#666,#665,#540,.T.);
#462=EDGE_CURVE('',#667,#666,#382,.T.);
#463=EDGE_CURVE('',#668,#667,#383,.T.);
#464=EDGE_CURVE('',#669,#668,#541,.T.);
#465=EDGE_CURVE('',#670,#669,#542,.T.);
#466=EDGE_CURVE('',#671,#670,#543,.T.);
#467=EDGE_CURVE('',#672,#671,#544,.T.);
#468=EDGE_CURVE('',#673,#672,#384,.T.);
#469=EDGE_CURVE('',#674,#673,#385,.T.);
#470=EDGE_CURVE('',#675,#674,#386,.T.);
#471=EDGE_CURVE('',#676,#675,#545,.T.);
#472=EDGE_CURVE('',#677,#676,#546,.T.);
#473=EDGE_CURVE('',#678,#677,#387,.T.);
#474=EDGE_CURVE('',#679,#678,#547,.T.);
#475=EDGE_CURVE('',#680,#679,#548,.T.);
#476=EDGE_CURVE('',#681,#680,#549,.T.);
#477=EDGE_CURVE('',#682,#681,#388,.T.);
#478=EDGE_CURVE('',#653,#682,#550,.T.);
#479=LINE('',#971,#551);
#480=LINE('',#972,#552);
#481=LINE('',#973,#553);
#482=LINE('',#974,#554);
#483=LINE('',#975,#555);
#484=LINE('',#976,#556);
#485=LINE('',#977,#557);
#486=LINE('',#978,#558);
#487=LINE('',#979,#559);
#488=LINE('',#980,#560);
#489=LINE('',#981,#561);
#490=LINE('',#982,#562);
#491=LINE('',#983,#563);
#492=LINE('',#984,#564);
#493=LINE('',#985,#565);
#494=LINE('',#986,#566);
#495=LINE('',#987,#567);
#496=LINE('',#988,#568);
#497=LINE('',#989,#569);
#498=LINE('',#990,#570);
#499=LINE('',#991,#571);
#500=LINE('',#992,#572);
#501=LINE('',#993,#573);
#502=LINE('',#994,#574);
#503=LINE('',#995,#575);
#504=LINE('',#996,#576);
#505=LINE('',#997,#577);
#506=LINE('',#998,#578);
#507=LINE('',#999,#579);
#508=LINE('',#1000,#580);
#509=LINE('',#1001,#581);
#510=LINE('',#1003,#582);
#511=LINE('',#1004,#583);
#512=LINE('',#1005,#584);
#513=LINE('',#1007,#585);
#514=LINE('',#1008,#586);
#515=LINE('',#1009,#587);
#516=LINE('',#1010,#588);
#517=LINE('',#1011,#589);
#518=LINE('',#1012,#590);
#519=LINE('',#1013,#591);
#520=LINE('',#1016,#592);
#521=LINE('',#1017,#593);
#522=LINE('',#1018,#594);
#523=LINE('',#1019,#595);
#524=LINE('',#1023,#596);
#525=LINE('',#1024,#597);
#526=LINE('',#1026,#598);
#527=LINE('',#1027,#599);
#528=LINE('',#1028,#600);
#529=LINE('',#1030,#601);
#530=LINE('',#1031,#602);
#531=LINE('',#1033,#603);
#532=LINE('',#1034,#604);
#533=LINE('',#1035,#605);
#534=LINE('',#1037,#606);
#535=LINE('',#1038,#607);
#536=LINE('',#1039,#608);
#537=LINE('',#1040,#609);
#538=LINE('',#1041,#610);
#539=LINE('',#1042,#611);
#540=LINE('',#1043,#612);
#541=LINE('',#1046,#613);
#542=LINE('',#1047,#614);
#543=LINE('',#1048,#615);
#544=LINE('',#1049,#616);
#545=LINE('',#1053,#617);
#546=LINE('',#1054,#618);
#547=LINE('',#1056,#619);
#548=LINE('',#1057,#620);
#549=LINE('',#1058,#621);
#550=LINE('',#1060,#622);
#551=VECTOR('',#738,1.);
#552=VECTOR('',#739,1.);
#553=VECTOR('',#740,1.);
#554=VECTOR('',#741,1.);
#555=VECTOR('',#742,1.);
#556=VECTOR('',#743,1.);
#557=VECTOR('',#744,1.);
#558=VECTOR('',#745,1.);
#559=VECTOR('',#746,1.);
#560=VECTOR('',#747,1.);
#561=VECTOR('',#748,1.);
#562=VECTOR('',#749,1.);
#563=VECTOR('',#750,1.);
#564=VECTOR('',#751,1.);
#565=VECTOR('',#752,1.);
#566=VECTOR('',#753,1.);
#567=VECTOR('',#754,1.);
#568=VECTOR('',#755,1.);
#569=VECTOR('',#756,1.);
#570=VECTOR('',#757,1.);
#571=VECTOR('',#758,1.);
#572=VECTOR('',#759,1.);
#573=VECTOR('',#760,1.);
#574=VECTOR('',#761,1.);
#575=VECTOR('',#762,1.);
#576=VECTOR('',#763,1.);
#577=VECTOR('',#764,1.);
#578=VECTOR('',#765,1.);
#579=VECTOR('',#766,1.);
#580=VECTOR('',#767,1.);
#581=VECTOR('',#768,1.);
#582=VECTOR('',#771,1.);
#583=VECTOR('',#772,1.);
#584=VECTOR('',#773,1.);
#585=VECTOR('',#776,1.);
#586=VECTOR('',#777,1.);
#587=VECTOR('',#778,1.);
#588=VECTOR('',#779,1.);
#589=VECTOR('',#780,1.);
#590=VECTOR('',#781,1.);
#591=VECTOR('',#782,1.);
#592=VECTOR('',#787,1.);
#593=VECTOR('',#788,1.);
#594=VECTOR('',#789,1.);
#595=VECTOR('',#790,1.);
#596=VECTOR('',#797,1.);
#597=VECTOR('',#798,1.);
#598=VECTOR('',#801,1.);
#599=VECTOR('',#802,1.);
#600=VECTOR('',#803,1.);
#601=VECTOR('',#806,1.);
#602=VECTOR('',#807,1.);
#603=VECTOR('',#810,1.);
#604=VECTOR('',#811,1.);
#605=VECTOR('',#812,1.);
#606=VECTOR('',#815,1.);
#607=VECTOR('',#816,1.);
#608=VECTOR('',#817,1.);
#609=VECTOR('',#818,1.);
#610=VECTOR('',#819,1.);
#611=VECTOR('',#820,1.);
#612=VECTOR('',#821,1.);
#613=VECTOR('',#826,1.);
#614=VECTOR('',#827,1.);
#615=VECTOR('',#828,1.);
#616=VECTOR('',#829,1.);
#617=VECTOR('',#836,1.);
#618=VECTOR('',#837,1.);
#619=VECTOR('',#840,1.);
#620=VECTOR('',#841,1.);
#621=VECTOR('',#842,1.);
#622=VECTOR('',#845,1.);
#623=VERTEX_POINT('',#911);
#624=VERTEX_POINT('',#912);
#625=VERTEX_POINT('',#913);
#626=VERTEX_POINT('',#914);
#627=VERTEX_POINT('',#915);
#628=VERTEX_POINT('',#916);
#629=VERTEX_POINT('',#917);
#630=VERTEX_POINT('',#918);
#631=VERTEX_POINT('',#919);
#632=VERTEX_POINT('',#920);
#633=VERTEX_POINT('',#921);
#634=VERTEX_POINT('',#922);
#635=VERTEX_POINT('',#923);
#636=VERTEX_POINT('',#924);
#637=VERTEX_POINT('',#925);
#638=VERTEX_POINT('',#926);
#639=VERTEX_POINT('',#927);
#640=VERTEX_POINT('',#928);
#641=VERTEX_POINT('',#929);
#642=VERTEX_POINT('',#930);
#643=VERTEX_POINT('',#931);
#644=VERTEX_POINT('',#932);
#645=VERTEX_POINT('',#933);
#646=VERTEX_POINT('',#934);
#647=VERTEX_POINT('',#935);
#648=VERTEX_POINT('',#936);
#649=VERTEX_POINT('',#937);
#650=VERTEX_POINT('',#938);
#651=VERTEX_POINT('',#939);
#652=VERTEX_POINT('',#940);
#653=VERTEX_POINT('',#941);
#654=VERTEX_POINT('',#942);
#655=VERTEX_POINT('',#943);
#656=VERTEX_POINT('',#944);
#657=VERTEX_POINT('',#945);
#658=VERTEX_POINT('',#946);
#659=VERTEX_POINT('',#947);
#660=VERTEX_POINT('',#948);
#661=VERTEX_POINT('',#949);
#662=VERTEX_POINT('',#950);
#663=VERTEX_POINT('',#951);
#664=VERTEX_POINT('',#952);
#665=VERTEX_POINT('',#953);
#666=VERTEX_POINT('',#954);
#667=VERTEX_POINT('',#955);
#668=VERTEX_POINT('',#956);
#669=VERTEX_POINT('',#957);
#670=VERTEX_POINT('',#958);
#671=VERTEX_POINT('',#959);
#672=VERTEX_POINT('',#960);
#673=VERTEX_POINT('',#961);
#674=VERTEX_POINT('',#962);
#675=VERTEX_POINT('',#963);
#676=VERTEX_POINT('',#964);
#677=VERTEX_POINT('',#965);
#678=VERTEX_POINT('',#966);
#679=VERTEX_POINT('',#967);
#680=VERTEX_POINT('',#968);
#681=VERTEX_POINT('',#969);
#682=VERTEX_POINT('',#970);
#683=SHAPE_DEFINITION_REPRESENTATION(#1093,#684);
#684=SHAPE_REPRESENTATION('master',(#685),#1095);
#685=AXIS2_PLACEMENT_3D('',#910,#737,#736);
#686=AXIS2_PLACEMENT_3D('',#1002,#770,#769);
#687=AXIS2_PLACEMENT_3D('',#1006,#775,#774);
#688=AXIS2_PLACEMENT_3D('',#1014,#784,#783);
#689=AXIS2_PLACEMENT_3D('',#1015,#786,#785);
#690=AXIS2_PLACEMENT_3D('',#1020,#792,#791);
#691=AXIS2_PLACEMENT_3D('',#1021,#794,#793);
#692=AXIS2_PLACEMENT_3D('',#1022,#796,#795);
#693=AXIS2_PLACEMENT_3D('',#1025,#800,#799);
#694=AXIS2_PLACEMENT_3D('',#1029,#805,#804);
#695=AXIS2_PLACEMENT_3D('',#1032,#809,#808);
#696=AXIS2_PLACEMENT_3D('',#1036,#814,#813);
#697=AXIS2_PLACEMENT_3D('',#1044,#823,#822);
#698=AXIS2_PLACEMENT_3D('',#1045,#825,#824);
#699=AXIS2_PLACEMENT_3D('',#1050,#831,#830);
#700=AXIS2_PLACEMENT_3D('',#1051,#833,#832);
#701=AXIS2_PLACEMENT_3D('',#1052,#835,#834);
#702=AXIS2_PLACEMENT_3D('',#1055,#839,#838);
#703=AXIS2_PLACEMENT_3D('',#1059,#844,#843);
#704=AXIS2_PLACEMENT_3D('',#1061,#847,#846);
#705=AXIS2_PLACEMENT_3D('',#1062,#849,#848);
#706=AXIS2_PLACEMENT_3D('',#1063,#851,#850);
#707=AXIS2_PLACEMENT_3D('',#1064,#853,#852);
#708=AXIS2_PLACEMENT_3D('',#1065,#855,#854);
#709=AXIS2_PLACEMENT_3D('',#1066,#857,#856);
#710=AXIS2_PLACEMENT_3D('',#1067,#859,#858);
#711=AXIS2_PLACEMENT_3D('',#1068,#861,#860);
#712=AXIS2_PLACEMENT_3D('',#1069,#863,#862);
#713=AXIS2_PLACEMENT_3D('',#1070,#865,#864);
#714=AXIS2_PLACEMENT_3D('',#1071,#867,#866);
#715=AXIS2_PLACEMENT_3D('',#1072,#869,#868);
#716=AXIS2_PLACEMENT_3D('',#1073,#871,#870);
#717=AXIS2_PLACEMENT_3D('',#1074,#873,#872);
#718=AXIS2_PLACEMENT_3D('',#1075,#875,#874);
#719=AXIS2_PLACEMENT_3D('',#1076,#877,#876);
#720=AXIS2_PLACEMENT_3D('',#1077,#879,#878);
#721=AXIS2_PLACEMENT_3D('',#1078,#881,#880);
#722=AXIS2_PLACEMENT_3D('',#1079,#883,#882);
#723=AXIS2_PLACEMENT_3D('',#1080,#885,#884);
#724=AXIS2_PLACEMENT_3D('',#1081,#887,#886);
#725=AXIS2_PLACEMENT_3D('',#1082,#889,#888);
#726=AXIS2_PLACEMENT_3D('',#1083,#891,#890);
#727=AXIS2_PLACEMENT_3D('',#1084,#893,#892);
#728=AXIS2_PLACEMENT_3D('',#1085,#895,#894);
#729=AXIS2_PLACEMENT_3D('',#1086,#897,#896);
#730=AXIS2_PLACEMENT_3D('',#1087,#899,#898);
#731=AXIS2_PLACEMENT_3D('',#1088,#901,#900);
#732=AXIS2_PLACEMENT_3D('',#1089,#903,#902);
#733=AXIS2_PLACEMENT_3D('',#1090,#905,#904);
#734=AXIS2_PLACEMENT_3D('',#1091,#907,#906);
#735=AXIS2_PLACEMENT_3D('',#1092,#909,#908);
#736=DIRECTION('',(1.,0.,0.));
#737=DIRECTION('',(0.,0.,1.));
#738=DIRECTION('',(-4.1698874496732E-014,-1.,4.01008661796578E-014));
#739=DIRECTION('',(-4.1698874496732E-014,-1.,4.01008661796578E-014));
#740=DIRECTION('',(-4.1698874496732E-014,-1.,4.01008661796578E-014));
#741=DIRECTION('',(-4.1698874496732E-014,-1.,4.01008661796578E-014));
#742=DIRECTION('',(-4.1698874496732E-014,-1.,4.01008661796578E-014));
#743=DIRECTION('',(-4.1698874496732E-014,-1.,4.01008661796578E-014));
#744=DIRECTION('',(-4.1698874496732E-014,-1.,4.01008661796578E-014));
#745=DIRECTION('',(-4.1698874496732E-014,-1.,4.01008661796578E-014));
#746=DIRECTION('',(-4.1698874496732E-014,-1.,4.01008661796578E-014));
#747=DIRECTION('',(-4.1698874496732E-014,-1.,4.01008661796578E-014));
#748=DIRECTION('',(-4.1698874496732E-014,-1.,4.01008661796578E-014));
#749=DIRECTION('',(-4.1698874496732E-014,-1.,4.01008661796578E-014));
#750=DIRECTION('',(-4.1698874496732E-014,-1.,4.01008661796578E-014));
#751=DIRECTION('',(-4.1698874496732E-014,-1.,4.01008661796578E-014));
#752=DIRECTION('',(-4.1698874496732E-014,-1.,4.01008661796578E-014));
#753=DIRECTION('',(-4.1698874496732E-014,-1.,4.01008661796578E-014));
#754=DIRECTION('',(-4.1698874496732E-014,-1.,4.01008661796578E-014));
#755=DIRECTION('',(-4.1698874496732E-014,-1.,4.01008661796578E-014));
#756=DIRECTION('',(-4.1698874496732E-014,-1.,4.01008661796578E-014));
#757=DIRECTION('',(-4.1698874496732E-014,-1.,4.01008661796578E-014));
#758=DIRECTION('',(-4.1698874496732E-014,-1.,4.01008661796578E-014));
#759=DIRECTION('',(-4.1698874496732E-014,-1.,4.01008661796578E-014));
#760=DIRECTION('',(-4.1698874496732E-014,-1.,4.01008661796578E-014));
#761=DIRECTION('',(-4.1698874496732E-014,-1.,4.01008661796578E-014));
#762=DIRECTION('',(-4.1698874496732E-014,-1.,4.01008661796578E-014));
#763=DIRECTION('',(-4.1698874496732E-014,-1.,4.01008661796578E-014));
#764=DIRECTION('',(-4.1698874496732E-014,-1.,4.01008661796578E-014));
#765=DIRECTION('',(-4.1698874496732E-014,-1.,4.01008661796578E-014));
#766=DIRECTION('',(-4.1698874496732E-014,-1.,4.01008661796578E-014));
#767=DIRECTION('',(-4.1698874496732E-014,-1.,4.01008661796578E-014));
#768=DIRECTION('',(0.998561733476689,0.,0.0536140320814389));
#769=DIRECTION('',(-0.56737813756959,-0.,-0.823457375343778));
#770=DIRECTION('',(0.,-1.,0.));
#771=DIRECTION('',(1.,0.,0.));
#772=DIRECTION('',(0.,0.,1.));
#773=DIRECTION('',(0.937347884802595,0.,0.348394808882253));
#774=DIRECTION('',(-0.978274010749272,0.,0.20731608691207));
#775=DIRECTION('',(0.,1.,0.));
#776=DIRECTION('',(0.207316086912048,0.,0.978274010749277));
#777=DIRECTION('',(1.,0.,0.));
#778=DIRECTION('',(-0.00573849484006013,0.,0.999983534702932));
#779=DIRECTION('',(0.998250961537336,0.,0.059118675473869));
#780=DIRECTION('',(0.,0.,-1.));
#781=DIRECTION('',(-0.680910285006545,-0.,-0.732366836887298));
#782=DIRECTION('',(-0.999999999966549,-0.,8.17938221827224E-006));
#783=DIRECTION('',(0.931414688427707,0.,-0.363959720547643));
#784=DIRECTION('',(0.,-1.,0.));
#785=DIRECTION('',(0.0470351960032513,0.,-0.998893232701541));
#786=DIRECTION('',(0.,-1.,0.));
#787=DIRECTION('',(-0.,-0.,1.));
#788=DIRECTION('',(0.999256215479385,-0.,0.0385618441703322));
#789=DIRECTION('',(0.0385618441705452,-0.,-0.999256215479377));
#790=DIRECTION('',(0.978614025918245,-0.,0.205705100267556));
#791=DIRECTION('',(-0.972697211576059,0.,0.232077863210088));
#792=DIRECTION('',(0.,1.,0.));
#793=DIRECTION('',(0.876842244628699,0.,-0.480778200456827));
#794=DIRECTION('',(0.,-1.,0.));
#795=DIRECTION('',(0.0513769266854401,0.,-0.998679333622339));
#796=DIRECTION('',(0.,-1.,0.));
#797=DIRECTION('',(0.122662880383456,0.,0.992448395522928));
#798=DIRECTION('',(0.994079781656899,0.,0.108652600985762));
#799=DIRECTION('',(-0.996473673238396,0.,0.0839060101707778));
#800=DIRECTION('',(0.,1.,0.));
#801=DIRECTION('',(1.,-0.,-0.));
#802=DIRECTION('',(0.,0.,1.));
#803=DIRECTION('',(1.,0.,0.));
#804=DIRECTION('',(-0.0040213090024724,0.,-0.999991914504266));
#805=DIRECTION('',(0.,-1.,-0.));
#806=DIRECTION('',(0.,0.,1.));
#807=DIRECTION('',(0.998561733476689,0.,0.0536140320814389));
#808=DIRECTION('',(-0.56737813756959,-0.,-0.823457375343778));
#809=DIRECTION('',(0.,-1.,0.));
#810=DIRECTION('',(1.,0.,0.));
#811=DIRECTION('',(0.,0.,1.));
#812=DIRECTION('',(0.937347884802595,0.,0.348394808882253));
#813=DIRECTION('',(-0.978274010749272,0.,0.20731608691207));
#814=DIRECTION('',(0.,1.,0.));
#815=DIRECTION('',(0.207316086912048,0.,0.978274010749277));
#816=DIRECTION('',(1.,0.,0.));
#817=DIRECTION('',(-0.00573849484006013,0.,0.999983534702932));
#818=DIRECTION('',(0.998250961537336,0.,0.059118675473869));
#819=DIRECTION('',(0.,0.,-1.));
#820=DIRECTION('',(-0.680910285006545,-0.,-0.732366836887298));
#821=DIRECTION('',(-0.999999999966549,-0.,8.17938221827224E-006));
#822=DIRECTION('',(0.931414688427707,0.,-0.363959720547643));
#823=DIRECTION('',(0.,-1.,0.));
#824=DIRECTION('',(0.0470351960032513,0.,-0.998893232701541));
#825=DIRECTION('',(0.,-1.,0.));
#826=DIRECTION('',(-0.,-0.,1.));
#827=DIRECTION('',(0.999256215479385,-0.,0.0385618441703322));
#828=DIRECTION('',(0.0385618441705452,-0.,-0.999256215479377));
#829=DIRECTION('',(0.978614025918245,-0.,0.205705100267556));
#830=DIRECTION('',(-0.972697211576059,0.,0.232077863210088));
#831=DIRECTION('',(0.,1.,0.));
#832=DIRECTION('',(0.876842244628699,0.,-0.480778200456827));
#833=DIRECTION('',(0.,-1.,0.));
#834=DIRECTION('',(0.0513769266854401,0.,-0.998679333622339));
#835=DIRECTION('',(0.,-1.,0.));
#836=DIRECTION('',(0.122662880383456,0.,0.992448395522928));
#837=DIRECTION('',(0.994079781656899,0.,0.108652600985762));
#838=DIRECTION('',(-0.996473673238396,0.,0.0839060101707778));
#839=DIRECTION('',(0.,1.,0.));
#840=DIRECTION('',(1.,-0.,-0.));
#841=DIRECTION('',(0.,0.,1.));
#842=DIRECTION('',(1.,0.,0.));
#843=DIRECTION('',(-0.0040213090024724,0.,-0.999991914504266));
#844=DIRECTION('',(0.,-1.,-0.));
#845=DIRECTION('',(0.,0.,1.));
#846=DIRECTION('',(4.1698874496732E-014,1.,0.));
#847=DIRECTION('',(1.,-4.1698874496732E-014,0.));
#848=DIRECTION('',(1.,-4.1698874496732E-014,0.));
#849=DIRECTION('',(-4.1698874496732E-014,-1.,4.01008661796578E-014));
#850=DIRECTION('',(0.,1.,-4.01008661796578E-014));
#851=DIRECTION('',(0.,-4.01008661796578E-014,-1.));
#852=DIRECTION('',(4.1698874496732E-014,1.,0.));
#853=DIRECTION('',(1.,-4.1698874496732E-014,0.));
#854=DIRECTION('',(0.,1.,-4.01008661796578E-014));
#855=DIRECTION('',(-0.,-4.01008661796578E-014,-1.));
#856=DIRECTION('',(1.,-4.1698874496732E-014,0.));
#857=DIRECTION('',(-4.1698874496732E-014,-1.,4.01008661796578E-014));
#858=DIRECTION('',(-0.994079781656899,0.,-0.108652600985762));
#859=DIRECTION('',(0.108652600985762,-4.43941514683755E-014,-0.994079781656899
));
#860=DIRECTION('',(-0.122662880383456,0.,-0.992448395522928));
#861=DIRECTION('',(0.992448395522928,-4.63028688408619E-014,-0.122662880383456
));
#862=DIRECTION('',(1.,-4.1698874496732E-014,0.));
#863=DIRECTION('',(-4.1698874496732E-014,-1.,4.01008661796578E-014));
#864=DIRECTION('',(1.,-4.1698874496732E-014,0.));
#865=DIRECTION('',(-4.1698874496732E-014,-1.,4.01008661796578E-014));
#866=DIRECTION('',(1.,-4.1698874496732E-014,0.));
#867=DIRECTION('',(-4.1698874496732E-014,-1.,4.01008661796578E-014));
#868=DIRECTION('',(-0.978614025918245,0.,-0.205705100267556));
#869=DIRECTION('',(0.205705100267556,-4.78209412542782E-014,-0.978614025918245
));
#870=DIRECTION('',(-0.0385618441705452,0.,0.999256215479377));
#871=DIRECTION('',(-0.999256215479377,4.012149616663E-014,-0.0385618441705452)
);
#872=DIRECTION('',(-0.999256215479385,-1.97215226305253E-031,
-0.0385618441703322));
#873=DIRECTION('',(0.0385618441703322,-4.16790252765513E-014,
-0.999256215479385));
#874=DIRECTION('',(4.1698874496732E-014,1.,0.));
#875=DIRECTION('',(1.,-4.1698874496732E-014,0.));
#876=DIRECTION('',(1.,-4.1698874496732E-014,0.));
#877=DIRECTION('',(-4.1698874496732E-014,-1.,4.01008661796578E-014));
#878=DIRECTION('',(1.,-4.1698874496732E-014,0.));
#879=DIRECTION('',(-4.1698874496732E-014,-1.,4.01008661796578E-014));
#880=DIRECTION('',(0.999999999966549,-4.81482486096809E-035,
-8.17938221827224E-006));
#881=DIRECTION('',(8.17938221827224E-006,4.01005251072838E-014,
0.999999999966549));
#882=DIRECTION('',(0.680910285006545,0.,0.732366836887298));
#883=DIRECTION('',(-0.732366836887298,5.78439650363321E-014,0.680910285006545)
);
#884=DIRECTION('',(-4.1698874496732E-014,-1.,0.));
#885=DIRECTION('',(-1.,4.1698874496732E-014,0.));
#886=DIRECTION('',(-0.998250961537336,-3.94430452610506E-031,
-0.059118675473869));
#887=DIRECTION('',(0.059118675473869,-4.24959104513213E-014,-0.998250961537336
));
#888=DIRECTION('',(0.00573849484006013,0.,-0.999983534702932));
#889=DIRECTION('',(0.999983534702932,-4.14680692987221E-014,
0.00573849484006013));
#890=DIRECTION('',(0.,1.,-4.01008661796578E-014));
#891=DIRECTION('',(0.,-4.01008661796578E-014,-1.));
#892=DIRECTION('',(-0.207316086912048,0.,-0.978274010749277));
#893=DIRECTION('',(0.978274010749277,-4.91064798557991E-014,-0.207316086912048
));
#894=DIRECTION('',(1.,-4.1698874496732E-014,0.));
#895=DIRECTION('',(-4.1698874496732E-014,-1.,4.01008661796578E-014));
#896=DIRECTION('',(-0.937347884802595,0.,-0.348394808882253));
#897=DIRECTION('',(0.348394808882253,-5.21161335031481E-014,-0.937347884802595
));
#898=DIRECTION('',(4.1698874496732E-014,1.,0.));
#899=DIRECTION('',(1.,-4.1698874496732E-014,0.));
#900=DIRECTION('',(0.,1.,-4.01008661796578E-014));
#901=DIRECTION('',(0.,-4.01008661796578E-014,-1.));
#902=DIRECTION('',(1.,-4.1698874496732E-014,0.));
#903=DIRECTION('',(-4.1698874496732E-014,-1.,4.01008661796578E-014));
#904=DIRECTION('',(-0.998561733476689,0.,-0.0536140320814389));
#905=DIRECTION('',(0.0536140320814389,-4.22788352413035E-014,
-0.998561733476689));
#906=DIRECTION('',(0.,0.,-1.));
#907=DIRECTION('',(0.,-1.,-0.));
#908=DIRECTION('',(0.,0.,-1.));
#909=DIRECTION('',(0.,-1.,-0.));
#910=CARTESIAN_POINT('',(0.,0.,0.));
#911=CARTESIAN_POINT('',(155.450319000083,1622.253894,2074.07513583298));
#912=CARTESIAN_POINT('',(144.697509278332,1622.253894,2073.49780399053));
#913=CARTESIAN_POINT('',(138.400962000083,1622.253894,2075.27327383298));
#914=CARTESIAN_POINT('',(137.150962000083,1622.253894,2075.27327383298));
#915=CARTESIAN_POINT('',(137.150962000083,1622.253894,2014.77327383298));
#916=CARTESIAN_POINT('',(133.094691117783,1622.253894,2013.26563324219));
#917=CARTESIAN_POINT('',(122.927719495315,1622.253894,2001.48208403045));
#918=CARTESIAN_POINT('',(122.168979000083,1622.253894,1997.90177283298));
#919=CARTESIAN_POINT('',(119.668979000083,1622.253894,1997.90177283298));
#920=CARTESIAN_POINT('',(119.688264000083,1622.253894,1994.54119083298));
#921=CARTESIAN_POINT('',(103.080454000083,1622.253894,1993.55763883298));
#922=CARTESIAN_POINT('',(103.080454000083,1622.253894,2051.96413067972));
#923=CARTESIAN_POINT('',(286.737853847998,1622.253894,2249.50056383298));
#924=CARTESIAN_POINT('',(355.671306814758,1622.253894,2249.49999999992));
#925=CARTESIAN_POINT('',(353.031234203089,1622.253894,2239.4334540542));
#926=CARTESIAN_POINT('',(335.122245000083,1622.253894,2226.57583183298));
#927=CARTESIAN_POINT('',(335.122245000083,1622.253894,2224.07583183298));
#928=CARTESIAN_POINT('',(324.784247000084,1622.253894,2223.67688283298));
#929=CARTESIAN_POINT('',(324.726404233828,1622.253894,2225.1757671562));
#930=CARTESIAN_POINT('',(320.261520086112,1622.253894,2224.23724653728));
#931=CARTESIAN_POINT('',(315.678580250621,1622.253894,2219.77653531448));
#932=CARTESIAN_POINT('',(313.082140930737,1622.253894,2213.03994820731));
#933=CARTESIAN_POINT('',(299.854804000084,1622.253894,2204.74104983298));
#934=CARTESIAN_POINT('',(299.627496218306,1622.253894,2202.90193401726));
#935=CARTESIAN_POINT('',(288.994067624473,1622.253894,2201.73970368581));
#936=CARTESIAN_POINT('',(205.41176212244,1622.253894,2116.05304383298));
#937=CARTESIAN_POINT('',(202.315207000083,1622.253894,2116.05304383298));
#938=CARTESIAN_POINT('',(202.315207000083,1622.253894,2112.30304383298));
#939=CARTESIAN_POINT('',(191.065207000083,1622.253894,2112.30304383298));
#940=CARTESIAN_POINT('',(155.450319000083,1622.253894,2077.32513583298));
#941=CARTESIAN_POINT('',(155.450319,-377.746106,2074.07513583306));
#942=CARTESIAN_POINT('',(144.697509278248,-377.746106,2073.49780399061));
#943=CARTESIAN_POINT('',(138.400962,-377.746106,2075.27327383306));
#944=CARTESIAN_POINT('',(137.150962,-377.746106,2075.27327383306));
#945=CARTESIAN_POINT('',(137.150962,-377.746106,2014.77327383306));
#946=CARTESIAN_POINT('',(133.094691117699,-377.746106,2013.26563324227));
#947=CARTESIAN_POINT('',(122.927719495231,-377.746106,2001.48208403053));
#948=CARTESIAN_POINT('',(122.168979,-377.746106,1997.90177283306));
#949=CARTESIAN_POINT('',(119.668979,-377.746106,1997.90177283306));
#950=CARTESIAN_POINT('',(119.688264,-377.746106,1994.54119083306));
#951=CARTESIAN_POINT('',(103.080454,-377.746106,1993.55763883306));
#952=CARTESIAN_POINT('',(103.080454,-377.746106,2051.9641306798));
#953=CARTESIAN_POINT('',(286.737853847915,-377.746106,2249.50056383306));
#954=CARTESIAN_POINT('',(355.671306814675,-377.746106,2249.5));
#955=CARTESIAN_POINT('',(353.031234203005,-377.746106,2239.43345405428));
#956=CARTESIAN_POINT('',(335.122245,-377.746106,2226.57583183306));
#957=CARTESIAN_POINT('',(335.122245,-377.746106,2224.07583183306));
#958=CARTESIAN_POINT('',(324.784247,-377.746106,2223.67688283306));
#959=CARTESIAN_POINT('',(324.726404233744,-377.746106,2225.17576715628));
#960=CARTESIAN_POINT('',(320.261520086028,-377.746106,2224.23724653736));
#961=CARTESIAN_POINT('',(315.678580250538,-377.746106,2219.77653531456));
#962=CARTESIAN_POINT('',(313.082140930654,-377.746106,2213.03994820739));
#963=CARTESIAN_POINT('',(299.854804,-377.746106,2204.74104983306));
#964=CARTESIAN_POINT('',(299.627496218223,-377.746106,2202.90193401734));
#965=CARTESIAN_POINT('',(288.99406762439,-377.746106,2201.73970368589));
#966=CARTESIAN_POINT('',(205.411762122357,-377.746106,2116.05304383306));
#967=CARTESIAN_POINT('',(202.315207,-377.746106,2116.05304383306));
#968=CARTESIAN_POINT('',(202.315207,-377.746106,2112.30304383306));
#969=CARTESIAN_POINT('',(191.065207,-377.746106,2112.30304383306));
#970=CARTESIAN_POINT('',(155.450319,-377.746106,2077.32513583306));
#971=CARTESIAN_POINT('',(155.450319000083,1622.253894,2077.32513583298));
#972=CARTESIAN_POINT('',(191.065207000083,1622.253894,2112.30304383298));
#973=CARTESIAN_POINT('',(202.315207000083,1622.253894,2112.30304383298));
#974=CARTESIAN_POINT('',(202.315207000083,1622.253894,2116.05304383298));
#975=CARTESIAN_POINT('',(205.41176212244,1622.253894,2116.05304383298));
#976=CARTESIAN_POINT('',(288.994067624473,1622.253894,2201.73970368581));
#977=CARTESIAN_POINT('',(299.627496218306,1622.253894,2202.90193401726));
#978=CARTESIAN_POINT('',(299.854804000084,1622.253894,2204.74104983298));
#979=CARTESIAN_POINT('',(313.082140930737,1622.253894,2213.03994820731));
#980=CARTESIAN_POINT('',(315.678580250621,1622.253894,2219.77653531448));
#981=CARTESIAN_POINT('',(320.261520086112,1622.253894,2224.23724653728));
#982=CARTESIAN_POINT('',(324.726404233828,1622.253894,2225.1757671562));
#983=CARTESIAN_POINT('',(324.784247000084,1622.253894,2223.67688283298));
#984=CARTESIAN_POINT('',(335.122245000083,1622.253894,2224.07583183298));
#985=CARTESIAN_POINT('',(335.122245000083,1622.253894,2226.57583183298));
#986=CARTESIAN_POINT('',(353.031234203089,1622.253894,2239.4334540542));
#987=CARTESIAN_POINT('',(355.671306814758,1622.253894,2249.49999999992));
#988=CARTESIAN_POINT('',(286.737853847998,1622.253894,2249.50056383298));
#989=CARTESIAN_POINT('',(103.080454000083,1622.253894,2051.96413067972));
#990=CARTESIAN_POINT('',(103.080454000083,1622.253894,1993.55763883298));
#991=CARTESIAN_POINT('',(119.688264000083,1622.253894,1994.54119083298));
#992=CARTESIAN_POINT('',(119.668979000083,1622.253894,1997.90177283298));
#993=CARTESIAN_POINT('',(122.168979000083,1622.253894,1997.90177283298));
#994=CARTESIAN_POINT('',(122.927719495315,1622.253894,2001.48208403045));
#995=CARTESIAN_POINT('',(133.094691117783,1622.253894,2013.26563324219));
#996=CARTESIAN_POINT('',(137.150962000083,1622.253894,2014.77327383298));
#997=CARTESIAN_POINT('',(137.150962000083,1622.253894,2075.27327383298));
#998=CARTESIAN_POINT('',(138.400962000083,1622.253894,2075.27327383298));
#999=CARTESIAN_POINT('',(144.697509278332,1622.253894,2073.49780399053));
#1000=CARTESIAN_POINT('',(155.450319000083,1622.253894,2074.07513583298));
#1001=CARTESIAN_POINT('',(144.697509278332,1622.253894,2073.49780399053));
#1002=CARTESIAN_POINT('',(144.153890044028,1622.253894,2083.62271614301));
#1003=CARTESIAN_POINT('',(137.150962000083,1622.253894,2075.27327383298));
#1004=CARTESIAN_POINT('',(137.150962000083,1622.253894,2014.77327383298));
#1005=CARTESIAN_POINT('',(133.094691117783,1622.253894,2013.26563324219));
#1006=CARTESIAN_POINT('',(138.718182296444,1622.253894,1998.13576498028));
#1007=CARTESIAN_POINT('',(122.168979000083,1622.253894,1997.90177283298));
#1008=CARTESIAN_POINT('',(119.668979000083,1622.253894,1997.90177283298));
#1009=CARTESIAN_POINT('',(119.688264000083,1622.253894,1994.54119083298));
#1010=CARTESIAN_POINT('',(103.080454000083,1622.253894,1993.55763883298));
#1011=CARTESIAN_POINT('',(103.080454000083,1622.253894,2051.96413067972));
#1012=CARTESIAN_POINT('',(286.737853847998,1622.253894,2249.50056383298));
#1013=CARTESIAN_POINT('',(355.671306814759,1622.253894,2249.49999999992));
#1014=CARTESIAN_POINT('',(311.16705206809,1622.253894,2255.79230711946));
#1015=CARTESIAN_POINT('',(334.169766087355,1622.253894,2246.80376370232));
#1016=CARTESIAN_POINT('',(335.122245000083,1622.253894,2224.07583183298));
#1017=CARTESIAN_POINT('',(324.784247000084,1622.253894,2223.67688283298));
#1018=CARTESIAN_POINT('',(324.726404233828,1622.253894,2225.1757671562));
#1019=CARTESIAN_POINT('',(320.261520086112,1622.253894,2224.23724653728));
#1020=CARTESIAN_POINT('',(321.490651500216,1622.253894,2218.3898210725));
#1021=CARTESIAN_POINT('',(289.330970242427,1622.253894,2226.06286672227));
#1022=CARTESIAN_POINT('',(299.03153510561,1622.253894,2220.74398507975));
#1023=CARTESIAN_POINT('',(299.627496218306,1622.253894,2202.90193401726));
#1024=CARTESIAN_POINT('',(288.994067624473,1622.253894,2201.73970368581));
#1025=CARTESIAN_POINT('',(299.222969790696,1622.253894,2108.15386460111));
#1026=CARTESIAN_POINT('',(202.315207000083,1622.253894,2116.05304383298));
#1027=CARTESIAN_POINT('',(202.315207000083,1622.253894,2112.30304383298));
#1028=CARTESIAN_POINT('',(191.065207000083,1622.253894,2112.30304383298));
#1029=CARTESIAN_POINT('',(155.592977824497,1622.253894,2112.80056705662));
#1030=CARTESIAN_POINT('',(155.450319000083,1622.253894,2074.07513583298));
#1031=CARTESIAN_POINT('',(144.697509278248,-377.746106,2073.49780399061));
#1032=CARTESIAN_POINT('',(144.153890043944,-377.746106,2083.62271614309));
#1033=CARTESIAN_POINT('',(137.150962,-377.746106,2075.27327383306));
#1034=CARTESIAN_POINT('',(137.150962,-377.746106,2014.77327383306));
#1035=CARTESIAN_POINT('',(133.094691117699,-377.746106,2013.26563324227));
#1036=CARTESIAN_POINT('',(138.71818229636,-377.746106,1998.13576498036));
#1037=CARTESIAN_POINT('',(122.168979,-377.746106,1997.90177283306));
#1038=CARTESIAN_POINT('',(119.668979,-377.746106,1997.90177283306));
#1039=CARTESIAN_POINT('',(119.688264,-377.746106,1994.54119083306));
#1040=CARTESIAN_POINT('',(103.080454,-377.746106,1993.55763883306));
#1041=CARTESIAN_POINT('',(103.080454,-377.746106,2051.9641306798));
#1042=CARTESIAN_POINT('',(286.737853847915,-377.746106,2249.50056383306));
#1043=CARTESIAN_POINT('',(355.671306814675,-377.746106,2249.5));
#1044=CARTESIAN_POINT('',(311.167052068007,-377.746106,2255.79230711954));
#1045=CARTESIAN_POINT('',(334.169766087272,-377.746106,2246.8037637024));
#1046=CARTESIAN_POINT('',(335.122245,-377.746106,2224.07583183306));
#1047=CARTESIAN_POINT('',(324.784247,-377.746106,2223.67688283306));
#1048=CARTESIAN_POINT('',(324.726404233745,-377.746106,2225.17576715628));
#1049=CARTESIAN_POINT('',(320.261520086028,-377.746106,2224.23724653736));
#1050=CARTESIAN_POINT('',(321.490651500132,-377.746106,2218.38982107258));
#1051=CARTESIAN_POINT('',(289.330970242344,-377.746106,2226.06286672235));
#1052=CARTESIAN_POINT('',(299.031535105526,-377.746106,2220.74398507983));
#1053=CARTESIAN_POINT('',(299.627496218223,-377.746106,2202.90193401734));
#1054=CARTESIAN_POINT('',(288.99406762439,-377.746106,2201.73970368589));
#1055=CARTESIAN_POINT('',(299.222969790613,-377.746106,2108.15386460119));
#1056=CARTESIAN_POINT('',(202.315207,-377.746106,2116.05304383306));
#1057=CARTESIAN_POINT('',(202.315207,-377.746106,2112.30304383306));
#1058=CARTESIAN_POINT('',(191.065207,-377.746106,2112.30304383306));
#1059=CARTESIAN_POINT('',(155.592977824413,-377.746106,2112.8005670567));
#1060=CARTESIAN_POINT('',(155.450319,-377.746106,2074.07513583306));
#1061=CARTESIAN_POINT('',(155.450319000083,1622.253894,2074.07513583298));
#1062=CARTESIAN_POINT('',(155.592977824497,1622.253894,2112.80056705662));
#1063=CARTESIAN_POINT('',(191.065207000083,1622.253894,2112.30304383298));
#1064=CARTESIAN_POINT('',(202.315207000083,1622.253894,2112.30304383298));
#1065=CARTESIAN_POINT('',(202.315207000083,1622.253894,2116.05304383298));
#1066=CARTESIAN_POINT('',(299.222969790696,1622.253894,2108.15386460111));
#1067=CARTESIAN_POINT('',(288.994067624473,1622.253894,2201.73970368581));
#1068=CARTESIAN_POINT('',(299.627496218306,1622.253894,2202.90193401726));
#1069=CARTESIAN_POINT('',(299.03153510561,1622.253894,2220.74398507975));
#1070=CARTESIAN_POINT('',(289.330970242427,1622.253894,2226.06286672227));
#1071=CARTESIAN_POINT('',(321.490651500216,1622.253894,2218.3898210725));
#1072=CARTESIAN_POINT('',(320.261520086112,1622.253894,2224.23724653728));
#1073=CARTESIAN_POINT('',(324.726404233828,1622.253894,2225.1757671562));
#1074=CARTESIAN_POINT('',(324.784247000084,1622.253894,2223.67688283298));
#1075=CARTESIAN_POINT('',(335.122245000083,1622.253894,2224.07583183298));
#1076=CARTESIAN_POINT('',(334.169766087355,1622.253894,2246.80376370232));
#1077=CARTESIAN_POINT('',(311.16705206809,1622.253894,2255.79230711946));
#1078=CARTESIAN_POINT('',(355.671306814759,1622.253894,2249.49999999992));
#1079=CARTESIAN_POINT('',(286.737853847998,1622.253894,2249.50056383298));
#1080=CARTESIAN_POINT('',(103.080454000083,1622.253894,2051.96413067972));
#1081=CARTESIAN_POINT('',(103.080454000083,1622.253894,1993.55763883298));
#1082=CARTESIAN_POINT('',(119.688264000083,1622.253894,1994.54119083298));
#1083=CARTESIAN_POINT('',(119.668979000083,1622.253894,1997.90177283298));
#1084=CARTESIAN_POINT('',(122.168979000083,1622.253894,1997.90177283298));
#1085=CARTESIAN_POINT('',(138.718182296444,1622.253894,1998.13576498028));
#1086=CARTESIAN_POINT('',(133.094691117783,1622.253894,2013.26563324219));
#1087=CARTESIAN_POINT('',(137.150962000083,1622.253894,2014.77327383298));
#1088=CARTESIAN_POINT('',(137.150962000083,1622.253894,2075.27327383298));
#1089=CARTESIAN_POINT('',(144.153890044028,1622.253894,2083.62271614301));
#1090=CARTESIAN_POINT('',(144.697509278332,1622.253894,2073.49780399053));
#1091=CARTESIAN_POINT('',(155.592977824497,1622.253894,2112.80056705662));
#1092=CARTESIAN_POINT('',(155.592977824413,-377.746106,2112.8005670567));
#1093=PRODUCT_DEFINITION_SHAPE('','',#1094);
#1094=PRODUCT_DEFINITION('','',#1106,#1111);
#1095=(
GEOMETRIC_REPRESENTATION_CONTEXT(3)
GLOBAL_UNCERTAINTY_ASSIGNED_CONTEXT((#1096))
GLOBAL_UNIT_ASSIGNED_CONTEXT((#1098,#1097,#1101))
REPRESENTATION_CONTEXT('','')
);
#1096=UNCERTAINTY_MEASURE_WITH_UNIT(LENGTH_MEASURE(0.001),#1098,'','tolerance'
);
#1097=(
CONVERSION_BASED_UNIT('',#1099)
NAMED_UNIT(#1105)
PLANE_ANGLE_UNIT()
);
#1098=(
CONVERSION_BASED_UNIT('',#1100)
LENGTH_UNIT()
NAMED_UNIT(#1104)
);
#1099=PLANE_ANGLE_MEASURE_WITH_UNIT(PLANE_ANGLE_MEASURE(0.0174532925199433),
#1102);
#1100=LENGTH_MEASURE_WITH_UNIT(LENGTH_MEASURE(1.),#1103);
#1101=(
NAMED_UNIT(*)
SI_UNIT($,.STERADIAN.)
SOLID_ANGLE_UNIT()
);
#1102=(
NAMED_UNIT(*)
PLANE_ANGLE_UNIT()
SI_UNIT($,.RADIAN.)
);
#1103=(
LENGTH_UNIT()
NAMED_UNIT(*)
SI_UNIT(.MILLI.,.METRE.)
);
#1104=DIMENSIONAL_EXPONENTS(1.,0.,0.,0.,0.,0.,0.);
#1105=DIMENSIONAL_EXPONENTS(0.,0.,0.,0.,0.,0.,0.);
#1106=PRODUCT_DEFINITION_FORMATION_WITH_SPECIFIED_SOURCE('','',#1109,
.NOT_KNOWN.);
#1107=PRODUCT_CATEGORY_RELATIONSHIP('','',#1112,#1108);
#1108=PRODUCT_RELATED_PRODUCT_CATEGORY('assembly','',(#1109));
#1109=PRODUCT('','master','',(#1110));
#1110=PRODUCT_CONTEXT('',#1114,'');
#1111=PRODUCT_DEFINITION_CONTEXT('',#1114,'part_definition');
#1112=PRODUCT_CATEGORY('part','');
#1113=APPLICATION_PROTOCOL_DEFINITION('international standard',
'automotive_design_cc2',1994,#1114);
#1114=APPLICATION_CONTEXT(
'configuration controlled 3D designs of mechanical parts and assemblies');
ENDSEC;
END-ISO-10303-21;
52279