ISO-10303-21;
HEADER;
/* Generated by software using Delcam plc STEP library */

FILE_DESCRIPTION(
/* description */ ('AP-214 File'),
/* implementation_level */ '2;1');

FILE_NAME(
/* name */ 'D891',
/* time_stamp */ 'Thu Dec 22 09:58:15 2016',
/* author */ (''),
/* organization */ (''),
/* preprocessor_version */ 'DELCAM STEP V1',
/* originating_system */ 'Exchange7.1.0006',
/* authorisation */ '');

FILE_SCHEMA (('AUTOMOTIVE_DESIGN'));
ENDSEC;
DATA;
#10=PRESENTATION_STYLE_ASSIGNMENT((#20));
#11=PRESENTATION_STYLE_ASSIGNMENT((#21));
#12=SURFACE_SIDE_STYLE('',(#14));
#13=SURFACE_SIDE_STYLE('',(#15));
#14=SURFACE_STYLE_FILL_AREA(#16);
#15=SURFACE_STYLE_FILL_AREA(#17);
#16=FILL_AREA_STYLE('',(#18));
#17=FILL_AREA_STYLE('',(#19));
#18=FILL_AREA_STYLE_COLOUR('',#39);
#19=FILL_AREA_STYLE_COLOUR('',#40);
#20=SURFACE_STYLE_USAGE(.BOTH.,#12);
#21=SURFACE_STYLE_USAGE(.BOTH.,#13);
#22=STYLED_ITEM('',(#10),#47);
#23=STYLED_ITEM('',(#10),#48);
#24=STYLED_ITEM('',(#10),#49);
#25=STYLED_ITEM('',(#10),#50);
#26=STYLED_ITEM('',(#10),#51);
#27=STYLED_ITEM('',(#10),#52);
#28=STYLED_ITEM('',(#10),#53);
#29=STYLED_ITEM('',(#10),#54);
#30=STYLED_ITEM('',(#10),#55);
#31=STYLED_ITEM('',(#10),#56);
#32=STYLED_ITEM('',(#10),#57);
#33=STYLED_ITEM('',(#10),#58);
#34=STYLED_ITEM('',(#10),#59);
#35=STYLED_ITEM('',(#10),#60);
#36=STYLED_ITEM('',(#10),#61);
#37=STYLED_ITEM('',(#10),#62);
#38=STYLED_ITEM('',(#11),#46);
#39=COLOUR_RGB('',0.,0.,0.);
#40=COLOUR_RGB('rgb_colour_1',0.4,0.4,0.4);
#41=MECHANICAL_DESIGN_GEOMETRIC_PRESENTATION_REPRESENTATION('',(#22,#23,#24,
#25,#26,#27,#28,#29,#30,#31,#32,#33,#34,#35,#36,#37,#38),#533);
#42=PRESENTATION_LAYER_ASSIGNMENT('84','d891',(#47,#48,#49,#50,#51,#52,#53,#54
,#55,#56,#57,#58,#59,#60,#61,#62,#46));
#43=SHAPE_REPRESENTATION_RELATIONSHIP('','',#350,#44);
#44=ADVANCED_BREP_SHAPE_REPRESENTATION('',(#45),#533);
#45=MANIFOLD_SOLID_BREP('1290',#46);
#46=CLOSED_SHELL('',(#47,#48,#49,#50,#51,#52,#53,#54,#55,#56,#57,#58,#59,#60,
#61,#62));
#47=ADVANCED_FACE('',(#63),#179,.T.);
#48=ADVANCED_FACE('',(#64),#180,.T.);
#49=ADVANCED_FACE('',(#65),#181,.T.);
#50=ADVANCED_FACE('',(#66),#182,.T.);
#51=ADVANCED_FACE('',(#67),#183,.T.);
#52=ADVANCED_FACE('',(#68),#184,.T.);
#53=ADVANCED_FACE('',(#69),#185,.T.);
#54=ADVANCED_FACE('',(#70),#186,.T.);
#55=ADVANCED_FACE('',(#71),#187,.T.);
#56=ADVANCED_FACE('',(#72),#188,.T.);
#57=ADVANCED_FACE('',(#73),#189,.T.);
#58=ADVANCED_FACE('',(#74),#190,.T.);
#59=ADVANCED_FACE('',(#75),#191,.T.);
#60=ADVANCED_FACE('',(#76),#192,.T.);
#61=ADVANCED_FACE('',(#77),#193,.T.);
#62=ADVANCED_FACE('',(#78),#194,.F.);
#63=FACE_OUTER_BOUND('',#79,.T.);
#64=FACE_OUTER_BOUND('',#80,.T.);
#65=FACE_OUTER_BOUND('',#81,.T.);
#66=FACE_OUTER_BOUND('',#82,.T.);
#67=FACE_OUTER_BOUND('',#83,.T.);
#68=FACE_OUTER_BOUND('',#84,.T.);
#69=FACE_OUTER_BOUND('',#85,.T.);
#70=FACE_OUTER_BOUND('',#86,.T.);
#71=FACE_OUTER_BOUND('',#87,.T.);
#72=FACE_OUTER_BOUND('',#88,.T.);
#73=FACE_OUTER_BOUND('',#89,.T.);
#74=FACE_OUTER_BOUND('',#90,.T.);
#75=FACE_OUTER_BOUND('',#91,.T.);
#76=FACE_OUTER_BOUND('',#92,.T.);
#77=FACE_OUTER_BOUND('',#93,.T.);
#78=FACE_OUTER_BOUND('',#94,.T.);
#79=EDGE_LOOP('',(#95,#96,#97,#98));
#80=EDGE_LOOP('',(#99,#100,#101,#102));
#81=EDGE_LOOP('',(#103,#104,#105,#106));
#82=EDGE_LOOP('',(#107,#108,#109,#110));
#83=EDGE_LOOP('',(#111,#112,#113,#114));
#84=EDGE_LOOP('',(#115,#116,#117,#118));
#85=EDGE_LOOP('',(#119,#120,#121,#122));
#86=EDGE_LOOP('',(#123,#124,#125,#126));
#87=EDGE_LOOP('',(#127,#128,#129,#130));
#88=EDGE_LOOP('',(#131,#132,#133,#134));
#89=EDGE_LOOP('',(#135,#136,#137,#138));
#90=EDGE_LOOP('',(#139,#140,#141,#142));
#91=EDGE_LOOP('',(#143,#144,#145,#146));
#92=EDGE_LOOP('',(#147,#148,#149,#150));
#93=EDGE_LOOP('',(#151,#152,#153,#154,#155,#156,#157,#158,#159,#160,#161,#162,
#163,#164));
#94=EDGE_LOOP('',(#165,#166,#167,#168,#169,#170,#171,#172,#173,#174,#175,#176,
#177,#178));
#95=ORIENTED_EDGE('',*,*,#236,.F.);
#96=ORIENTED_EDGE('',*,*,#208,.F.);
#97=ORIENTED_EDGE('',*,*,#222,.T.);
#98=ORIENTED_EDGE('',*,*,#195,.T.);
#99=ORIENTED_EDGE('',*,*,#235,.F.);
#100=ORIENTED_EDGE('',*,*,#195,.F.);
#101=ORIENTED_EDGE('',*,*,#221,.T.);
#102=ORIENTED_EDGE('',*,*,#196,.T.);
#103=ORIENTED_EDGE('',*,*,#234,.F.);
#104=ORIENTED_EDGE('',*,*,#196,.F.);
#105=ORIENTED_EDGE('',*,*,#220,.T.);
#106=ORIENTED_EDGE('',*,*,#197,.T.);
#107=ORIENTED_EDGE('',*,*,#233,.F.);
#108=ORIENTED_EDGE('',*,*,#197,.F.);
#109=ORIENTED_EDGE('',*,*,#219,.T.);
#110=ORIENTED_EDGE('',*,*,#198,.T.);
#111=ORIENTED_EDGE('',*,*,#232,.F.);
#112=ORIENTED_EDGE('',*,*,#198,.F.);
#113=ORIENTED_EDGE('',*,*,#218,.T.);
#114=ORIENTED_EDGE('',*,*,#199,.T.);
#115=ORIENTED_EDGE('',*,*,#231,.F.);
#116=ORIENTED_EDGE('',*,*,#199,.F.);
#117=ORIENTED_EDGE('',*,*,#217,.T.);
#118=ORIENTED_EDGE('',*,*,#200,.T.);
#119=ORIENTED_EDGE('',*,*,#230,.F.);
#120=ORIENTED_EDGE('',*,*,#200,.F.);
#121=ORIENTED_EDGE('',*,*,#216,.T.);
#122=ORIENTED_EDGE('',*,*,#201,.T.);
#123=ORIENTED_EDGE('',*,*,#229,.F.);
#124=ORIENTED_EDGE('',*,*,#201,.F.);
#125=ORIENTED_EDGE('',*,*,#215,.T.);
#126=ORIENTED_EDGE('',*,*,#202,.T.);
#127=ORIENTED_EDGE('',*,*,#228,.F.);
#128=ORIENTED_EDGE('',*,*,#202,.F.);
#129=ORIENTED_EDGE('',*,*,#214,.T.);
#130=ORIENTED_EDGE('',*,*,#203,.T.);
#131=ORIENTED_EDGE('',*,*,#227,.F.);
#132=ORIENTED_EDGE('',*,*,#203,.F.);
#133=ORIENTED_EDGE('',*,*,#213,.T.);
#134=ORIENTED_EDGE('',*,*,#204,.T.);
#135=ORIENTED_EDGE('',*,*,#226,.F.);
#136=ORIENTED_EDGE('',*,*,#204,.F.);
#137=ORIENTED_EDGE('',*,*,#212,.T.);
#138=ORIENTED_EDGE('',*,*,#205,.T.);
#139=ORIENTED_EDGE('',*,*,#225,.F.);
#140=ORIENTED_EDGE('',*,*,#205,.F.);
#141=ORIENTED_EDGE('',*,*,#211,.T.);
#142=ORIENTED_EDGE('',*,*,#206,.T.);
#143=ORIENTED_EDGE('',*,*,#224,.F.);
#144=ORIENTED_EDGE('',*,*,#206,.F.);
#145=ORIENTED_EDGE('',*,*,#210,.T.);
#146=ORIENTED_EDGE('',*,*,#207,.T.);
#147=ORIENTED_EDGE('',*,*,#223,.F.);
#148=ORIENTED_EDGE('',*,*,#207,.F.);
#149=ORIENTED_EDGE('',*,*,#209,.T.);
#150=ORIENTED_EDGE('',*,*,#208,.T.);
#151=ORIENTED_EDGE('',*,*,#222,.F.);
#152=ORIENTED_EDGE('',*,*,#209,.F.);
#153=ORIENTED_EDGE('',*,*,#210,.F.);
#154=ORIENTED_EDGE('',*,*,#211,.F.);
#155=ORIENTED_EDGE('',*,*,#212,.F.);
#156=ORIENTED_EDGE('',*,*,#213,.F.);
#157=ORIENTED_EDGE('',*,*,#214,.F.);
#158=ORIENTED_EDGE('',*,*,#215,.F.);
#159=ORIENTED_EDGE('',*,*,#216,.F.);
#160=ORIENTED_EDGE('',*,*,#217,.F.);
#161=ORIENTED_EDGE('',*,*,#218,.F.);
#162=ORIENTED_EDGE('',*,*,#219,.F.);
#163=ORIENTED_EDGE('',*,*,#220,.F.);
#164=ORIENTED_EDGE('',*,*,#221,.F.);
#165=ORIENTED_EDGE('',*,*,#236,.T.);
#166=ORIENTED_EDGE('',*,*,#235,.T.);
#167=ORIENTED_EDGE('',*,*,#234,.T.);
#168=ORIENTED_EDGE('',*,*,#233,.T.);
#169=ORIENTED_EDGE('',*,*,#232,.T.);
#170=ORIENTED_EDGE('',*,*,#231,.T.);
#171=ORIENTED_EDGE('',*,*,#230,.T.);
#172=ORIENTED_EDGE('',*,*,#229,.T.);
#173=ORIENTED_EDGE('',*,*,#228,.T.);
#174=ORIENTED_EDGE('',*,*,#227,.T.);
#175=ORIENTED_EDGE('',*,*,#226,.T.);
#176=ORIENTED_EDGE('',*,*,#225,.T.);
#177=ORIENTED_EDGE('',*,*,#224,.T.);
#178=ORIENTED_EDGE('',*,*,#223,.T.);
#179=PLANE('',#352);
#180=PLANE('',#353);
#181=PLANE('',#354);
#182=PLANE('',#355);
#183=PLANE('',#356);
#184=PLANE('',#357);
#185=PLANE('',#358);
#186=PLANE('',#359);
#187=PLANE('',#360);
#188=PLANE('',#361);
#189=PLANE('',#362);
#190=PLANE('',#363);
#191=PLANE('',#364);
#192=PLANE('',#365);
#193=PLANE('',#366);
#194=PLANE('',#367);
#195=EDGE_CURVE('',#334,#348,#237,.T.);
#196=EDGE_CURVE('',#333,#347,#238,.T.);
#197=EDGE_CURVE('',#332,#346,#239,.T.);
#198=EDGE_CURVE('',#331,#345,#240,.T.);
#199=EDGE_CURVE('',#330,#344,#241,.T.);
#200=EDGE_CURVE('',#329,#343,#242,.T.);
#201=EDGE_CURVE('',#328,#342,#243,.T.);
#202=EDGE_CURVE('',#327,#341,#244,.T.);
#203=EDGE_CURVE('',#326,#340,#245,.T.);
#204=EDGE_CURVE('',#325,#339,#246,.T.);
#205=EDGE_CURVE('',#324,#338,#247,.T.);
#206=EDGE_CURVE('',#323,#337,#248,.T.);
#207=EDGE_CURVE('',#322,#336,#249,.T.);
#208=EDGE_CURVE('',#321,#335,#250,.T.);
#209=EDGE_CURVE('',#322,#321,#251,.T.);
#210=EDGE_CURVE('',#323,#322,#252,.T.);
#211=EDGE_CURVE('',#324,#323,#253,.T.);
#212=EDGE_CURVE('',#325,#324,#254,.T.);
#213=EDGE_CURVE('',#326,#325,#255,.T.);
#214=EDGE_CURVE('',#327,#326,#256,.T.);
#215=EDGE_CURVE('',#328,#327,#257,.T.);
#216=EDGE_CURVE('',#329,#328,#258,.T.);
#217=EDGE_CURVE('',#330,#329,#259,.T.);
#218=EDGE_CURVE('',#331,#330,#260,.T.);
#219=EDGE_CURVE('',#332,#331,#261,.T.);
#220=EDGE_CURVE('',#333,#332,#262,.T.);
#221=EDGE_CURVE('',#334,#333,#263,.T.);
#222=EDGE_CURVE('',#321,#334,#264,.T.);
#223=EDGE_CURVE('',#336,#335,#265,.T.);
#224=EDGE_CURVE('',#337,#336,#266,.T.);
#225=EDGE_CURVE('',#338,#337,#267,.T.);
#226=EDGE_CURVE('',#339,#338,#268,.T.);
#227=EDGE_CURVE('',#340,#339,#269,.T.);
#228=EDGE_CURVE('',#341,#340,#270,.T.);
#229=EDGE_CURVE('',#342,#341,#271,.T.);
#230=EDGE_CURVE('',#343,#342,#272,.T.);
#231=EDGE_CURVE('',#344,#343,#273,.T.);
#232=EDGE_CURVE('',#345,#344,#274,.T.);
#233=EDGE_CURVE('',#346,#345,#275,.T.);
#234=EDGE_CURVE('',#347,#346,#276,.T.);
#235=EDGE_CURVE('',#348,#347,#277,.T.);
#236=EDGE_CURVE('',#335,#348,#278,.T.);
#237=LINE('',#473,#279);
#238=LINE('',#474,#280);
#239=LINE('',#475,#281);
#240=LINE('',#476,#282);
#241=LINE('',#477,#283);
#242=LINE('',#478,#284);
#243=LINE('',#479,#285);
#244=LINE('',#480,#286);
#245=LINE('',#481,#287);
#246=LINE('',#482,#288);
#247=LINE('',#483,#289);
#248=LINE('',#484,#290);
#249=LINE('',#485,#291);
#250=LINE('',#486,#292);
#251=LINE('',#487,#293);
#252=LINE('',#488,#294);
#253=LINE('',#489,#295);
#254=LINE('',#490,#296);
#255=LINE('',#491,#297);
#256=LINE('',#492,#298);
#257=LINE('',#493,#299);
#258=LINE('',#494,#300);
#259=LINE('',#495,#301);
#260=LINE('',#496,#302);
#261=LINE('',#497,#303);
#262=LINE('',#498,#304);
#263=LINE('',#499,#305);
#264=LINE('',#500,#306);
#265=LINE('',#501,#307);
#266=LINE('',#502,#308);
#267=LINE('',#503,#309);
#268=LINE('',#504,#310);
#269=LINE('',#505,#311);
#270=LINE('',#506,#312);
#271=LINE('',#507,#313);
#272=LINE('',#508,#314);
#273=LINE('',#509,#315);
#274=LINE('',#510,#316);
#275=LINE('',#511,#317);
#276=LINE('',#512,#318);
#277=LINE('',#513,#319);
#278=LINE('',#514,#320);
#279=VECTOR('',#370,1.);
#280=VECTOR('',#371,1.);
#281=VECTOR('',#372,1.);
#282=VECTOR('',#373,1.);
#283=VECTOR('',#374,1.);
#284=VECTOR('',#375,1.);
#285=VECTOR('',#376,1.);
#286=VECTOR('',#377,1.);
#287=VECTOR('',#378,1.);
#288=VECTOR('',#379,1.);
#289=VECTOR('',#380,1.);
#290=VECTOR('',#381,1.);
#291=VECTOR('',#382,1.);
#292=VECTOR('',#383,1.);
#293=VECTOR('',#384,1.);
#294=VECTOR('',#385,1.);
#295=VECTOR('',#386,1.);
#296=VECTOR('',#387,1.);
#297=VECTOR('',#388,1.);
#298=VECTOR('',#389,1.);
#299=VECTOR('',#390,1.);
#300=VECTOR('',#391,1.);
#301=VECTOR('',#392,1.);
#302=VECTOR('',#393,1.);
#303=VECTOR('',#394,1.);
#304=VECTOR('',#395,1.);
#305=VECTOR('',#396,1.);
#306=VECTOR('',#397,1.);
#307=VECTOR('',#398,1.);
#308=VECTOR('',#399,1.);
#309=VECTOR('',#400,1.);
#310=VECTOR('',#401,1.);
#311=VECTOR('',#402,1.);
#312=VECTOR('',#403,1.);
#313=VECTOR('',#404,1.);
#314=VECTOR('',#405,1.);
#315=VECTOR('',#406,1.);
#316=VECTOR('',#407,1.);
#317=VECTOR('',#408,1.);
#318=VECTOR('',#409,1.);
#319=VECTOR('',#410,1.);
#320=VECTOR('',#411,1.);
#321=VERTEX_POINT('',#445);
#322=VERTEX_POINT('',#446);
#323=VERTEX_POINT('',#447);
#324=VERTEX_POINT('',#448);
#325=VERTEX_POINT('',#449);
#326=VERTEX_POINT('',#450);
#327=VERTEX_POINT('',#451);
#328=VERTEX_POINT('',#452);
#329=VERTEX_POINT('',#453);
#330=VERTEX_POINT('',#454);
#331=VERTEX_POINT('',#455);
#332=VERTEX_POINT('',#456);
#333=VERTEX_POINT('',#457);
#334=VERTEX_POINT('',#458);
#335=VERTEX_POINT('',#459);
#336=VERTEX_POINT('',#460);
#337=VERTEX_POINT('',#461);
#338=VERTEX_POINT('',#462);
#339=VERTEX_POINT('',#463);
#340=VERTEX_POINT('',#464);
#341=VERTEX_POINT('',#465);
#342=VERTEX_POINT('',#466);
#343=VERTEX_POINT('',#467);
#344=VERTEX_POINT('',#468);
#345=VERTEX_POINT('',#469);
#346=VERTEX_POINT('',#470);
#347=VERTEX_POINT('',#471);
#348=VERTEX_POINT('',#472);
#349=SHAPE_DEFINITION_REPRESENTATION(#531,#350);
#350=SHAPE_REPRESENTATION('master',(#351),#533);
#351=AXIS2_PLACEMENT_3D('',#444,#369,#368);
#352=AXIS2_PLACEMENT_3D('',#515,#413,#412);
#353=AXIS2_PLACEMENT_3D('',#516,#415,#414);
#354=AXIS2_PLACEMENT_3D('',#517,#417,#416);
#355=AXIS2_PLACEMENT_3D('',#518,#419,#418);
#356=AXIS2_PLACEMENT_3D('',#519,#421,#420);
#357=AXIS2_PLACEMENT_3D('',#520,#423,#422);
#358=AXIS2_PLACEMENT_3D('',#521,#425,#424);
#359=AXIS2_PLACEMENT_3D('',#522,#427,#426);
#360=AXIS2_PLACEMENT_3D('',#523,#429,#428);
#361=AXIS2_PLACEMENT_3D('',#524,#431,#430);
#362=AXIS2_PLACEMENT_3D('',#525,#433,#432);
#363=AXIS2_PLACEMENT_3D('',#526,#435,#434);
#364=AXIS2_PLACEMENT_3D('',#527,#437,#436);
#365=AXIS2_PLACEMENT_3D('',#528,#439,#438);
#366=AXIS2_PLACEMENT_3D('',#529,#441,#440);
#367=AXIS2_PLACEMENT_3D('',#530,#443,#442);
#368=DIRECTION('',(1.,0.,0.));
#369=DIRECTION('',(0.,0.,1.));
#370=DIRECTION('',(-0.,-1.,0.));
#371=DIRECTION('',(-0.,-1.,0.));
#372=DIRECTION('',(-0.,-1.,0.));
#373=DIRECTION('',(-0.,-1.,0.));
#374=DIRECTION('',(-0.,-1.,0.));
#375=DIRECTION('',(-0.,-1.,0.));
#376=DIRECTION('',(-0.,-1.,0.));
#377=DIRECTION('',(-0.,-1.,0.));
#378=DIRECTION('',(-0.,-1.,0.));
#379=DIRECTION('',(-0.,-1.,0.));
#380=DIRECTION('',(-0.,-1.,0.));
#381=DIRECTION('',(-0.,-1.,0.));
#382=DIRECTION('',(-0.,-1.,0.));
#383=DIRECTION('',(-0.,-1.,0.));
#384=DIRECTION('',(1.,-0.,-0.));
#385=DIRECTION('',(-0.,-0.,-1.));
#386=DIRECTION('',(-1.,-0.,-0.));
#387=DIRECTION('',(-0.,-0.,-1.));
#388=DIRECTION('',(-0.994709981953667,-0.,-0.102723180449862));
#389=DIRECTION('',(-0.0416305631541545,-0.,-0.999133072323936));
#390=DIRECTION('',(-1.,-0.,-0.));
#391=DIRECTION('',(-0.,-0.,-1.));
#392=DIRECTION('',(-1.,-0.,-0.));
#393=DIRECTION('',(-0.,-0.,1.));
#394=DIRECTION('',(1.,-0.,-0.));
#395=DIRECTION('',(0.,0.,1.));
#396=DIRECTION('',(1.,-0.,-0.));
#397=DIRECTION('',(-0.,-0.,1.));
#398=DIRECTION('',(1.,-0.,-0.));
#399=DIRECTION('',(-0.,-0.,-1.));
#400=DIRECTION('',(-1.,-0.,-0.));
#401=DIRECTION('',(-0.,-0.,-1.));
#402=DIRECTION('',(-0.994709981953667,-0.,-0.102723180449862));
#403=DIRECTION('',(-0.0416305631541545,-0.,-0.999133072323936));
#404=DIRECTION('',(-1.,-0.,-0.));
#405=DIRECTION('',(-0.,-0.,-1.));
#406=DIRECTION('',(-1.,-0.,-0.));
#407=DIRECTION('',(-0.,-0.,1.));
#408=DIRECTION('',(1.,-0.,-0.));
#409=DIRECTION('',(0.,0.,1.));
#410=DIRECTION('',(1.,-0.,-0.));
#411=DIRECTION('',(-0.,-0.,1.));
#412=DIRECTION('',(0.,0.,-1.));
#413=DIRECTION('',(1.,0.,0.));
#414=DIRECTION('',(-1.,0.,0.));
#415=DIRECTION('',(-0.,0.,-1.));
#416=DIRECTION('',(0.,0.,-1.));
#417=DIRECTION('',(1.,-0.,0.));
#418=DIRECTION('',(-1.,0.,0.));
#419=DIRECTION('',(-0.,0.,-1.));
#420=DIRECTION('',(0.,0.,-1.));
#421=DIRECTION('',(1.,0.,0.));
#422=DIRECTION('',(1.,0.,0.));
#423=DIRECTION('',(-0.,0.,1.));
#424=DIRECTION('',(0.,0.,1.));
#425=DIRECTION('',(-1.,0.,0.));
#426=DIRECTION('',(1.,0.,0.));
#427=DIRECTION('',(-0.,0.,1.));
#428=DIRECTION('',(0.0416305631541545,0.,0.999133072323936));
#429=DIRECTION('',(-0.999133072323936,0.,0.0416305631541545));
#430=DIRECTION('',(0.994709981953667,0.,0.102723180449862));
#431=DIRECTION('',(-0.102723180449862,0.,0.994709981953667));
#432=DIRECTION('',(0.,0.,1.));
#433=DIRECTION('',(-1.,0.,0.));
#434=DIRECTION('',(1.,0.,0.));
#435=DIRECTION('',(-0.,0.,1.));
#436=DIRECTION('',(0.,0.,1.));
#437=DIRECTION('',(-1.,0.,0.));
#438=DIRECTION('',(-1.,0.,0.));
#439=DIRECTION('',(-0.,0.,-1.));
#440=DIRECTION('',(0.,-0.,1.));
#441=DIRECTION('',(0.,1.,0.));
#442=DIRECTION('',(0.,-0.,1.));
#443=DIRECTION('',(0.,1.,0.));
#444=CARTESIAN_POINT('',(0.,0.,0.));
#445=CARTESIAN_POINT('',(182.080454,1622.253894,2053.400666));
#446=CARTESIAN_POINT('',(103.080454,1622.253894,2053.400666));
#447=CARTESIAN_POINT('',(103.080454,1622.253894,2075.400666));
#448=CARTESIAN_POINT('',(164.080454,1622.253894,2075.400666));
#449=CARTESIAN_POINT('',(164.080454,1622.253894,2114.400666));
#450=CARTESIAN_POINT('',(336.351907,1622.253894,2132.191049));
#451=CARTESIAN_POINT('',(337.948114,1622.253894,2170.5));
#452=CARTESIAN_POINT('',(385.948114,1622.253894,2170.5));
#453=CARTESIAN_POINT('',(385.948114,1622.253894,2249.5));
#454=CARTESIAN_POINT('',(401.948114,1622.253894,2249.5));
#455=CARTESIAN_POINT('',(401.948114,1622.253894,2153.5));
#456=CARTESIAN_POINT('',(351.948114,1622.253894,2153.5));
#457=CARTESIAN_POINT('',(351.948114,1622.253894,2103.400666));
#458=CARTESIAN_POINT('',(182.080454,1622.253894,2103.400666));
#459=CARTESIAN_POINT('',(182.080454,-377.746106000001,2053.400666));
#460=CARTESIAN_POINT('',(103.080454,-377.746106000001,2053.400666));
#461=CARTESIAN_POINT('',(103.080454,-377.746106000001,2075.400666));
#462=CARTESIAN_POINT('',(164.080454,-377.746106000001,2075.400666));
#463=CARTESIAN_POINT('',(164.080454,-377.746106000001,2114.400666));
#464=CARTESIAN_POINT('',(336.351907,-377.746106000001,2132.191049));
#465=CARTESIAN_POINT('',(337.948114,-377.746106000001,2170.5));
#466=CARTESIAN_POINT('',(385.948114,-377.746106000001,2170.5));
#467=CARTESIAN_POINT('',(385.948114,-377.746106000001,2249.5));
#468=CARTESIAN_POINT('',(401.948114,-377.746106000001,2249.5));
#469=CARTESIAN_POINT('',(401.948114,-377.746106000001,2153.5));
#470=CARTESIAN_POINT('',(351.948114,-377.746106000001,2153.5));
#471=CARTESIAN_POINT('',(351.948114,-377.746106000001,2103.400666));
#472=CARTESIAN_POINT('',(182.080454,-377.746106000001,2103.400666));
#473=CARTESIAN_POINT('',(182.080454,1622.253894,2103.400666));
#474=CARTESIAN_POINT('',(351.948114,1622.253894,2103.400666));
#475=CARTESIAN_POINT('',(351.948114,1622.253894,2153.5));
#476=CARTESIAN_POINT('',(401.948114,1622.253894,2153.5));
#477=CARTESIAN_POINT('',(401.948114,1622.253894,2249.5));
#478=CARTESIAN_POINT('',(385.948114,1622.253894,2249.5));
#479=CARTESIAN_POINT('',(385.948114,1622.253894,2170.5));
#480=CARTESIAN_POINT('',(337.948114,1622.253894,2170.5));
#481=CARTESIAN_POINT('',(336.351907,1622.253894,2132.191049));
#482=CARTESIAN_POINT('',(164.080454,1622.253894,2114.400666));
#483=CARTESIAN_POINT('',(164.080454,1622.253894,2075.400666));
#484=CARTESIAN_POINT('',(103.080454,1622.253894,2075.400666));
#485=CARTESIAN_POINT('',(103.080454,1622.253894,2053.400666));
#486=CARTESIAN_POINT('',(182.080454,1622.253894,2053.400666));
#487=CARTESIAN_POINT('',(103.080454,1622.253894,2053.400666));
#488=CARTESIAN_POINT('',(103.080454,1622.253894,2075.400666));
#489=CARTESIAN_POINT('',(164.080454,1622.253894,2075.400666));
#490=CARTESIAN_POINT('',(164.080454,1622.253894,2114.400666));
#491=CARTESIAN_POINT('',(336.351907,1622.253894,2132.191049));
#492=CARTESIAN_POINT('',(337.948114,1622.253894,2170.5));
#493=CARTESIAN_POINT('',(385.948114,1622.253894,2170.5));
#494=CARTESIAN_POINT('',(385.948114,1622.253894,2249.5));
#495=CARTESIAN_POINT('',(401.948114,1622.253894,2249.5));
#496=CARTESIAN_POINT('',(401.948114,1622.253894,2153.5));
#497=CARTESIAN_POINT('',(351.948114,1622.253894,2153.5));
#498=CARTESIAN_POINT('',(351.948114,1622.253894,2103.400666));
#499=CARTESIAN_POINT('',(182.080454,1622.253894,2103.400666));
#500=CARTESIAN_POINT('',(182.080454,1622.253894,2053.400666));
#501=CARTESIAN_POINT('',(103.080454,-377.746106000001,2053.400666));
#502=CARTESIAN_POINT('',(103.080454,-377.746106000001,2075.400666));
#503=CARTESIAN_POINT('',(164.080454,-377.746106000001,2075.400666));
#504=CARTESIAN_POINT('',(164.080454,-377.746106000001,2114.400666));
#505=CARTESIAN_POINT('',(336.351907,-377.746106000001,2132.191049));
#506=CARTESIAN_POINT('',(337.948114,-377.746106000001,2170.5));
#507=CARTESIAN_POINT('',(385.948114,-377.746106000001,2170.5));
#508=CARTESIAN_POINT('',(385.948114,-377.746106000001,2249.5));
#509=CARTESIAN_POINT('',(401.948114,-377.746106000001,2249.5));
#510=CARTESIAN_POINT('',(401.948114,-377.746106000001,2153.5));
#511=CARTESIAN_POINT('',(351.948114,-377.746106000001,2153.5));
#512=CARTESIAN_POINT('',(351.948114,-377.746106000001,2103.400666));
#513=CARTESIAN_POINT('',(182.080454,-377.746106000001,2103.400666));
#514=CARTESIAN_POINT('',(182.080454,-377.746106000001,2053.400666));
#515=CARTESIAN_POINT('',(182.080454,1622.253894,2053.400666));
#516=CARTESIAN_POINT('',(182.080454,1622.253894,2103.400666));
#517=CARTESIAN_POINT('',(351.948114,1622.253894,2103.400666));
#518=CARTESIAN_POINT('',(351.948114,1622.253894,2153.5));
#519=CARTESIAN_POINT('',(401.948114,1622.253894,2153.5));
#520=CARTESIAN_POINT('',(401.948114,1622.253894,2249.5));
#521=CARTESIAN_POINT('',(385.948114,1622.253894,2249.5));
#522=CARTESIAN_POINT('',(385.948114,1622.253894,2170.5));
#523=CARTESIAN_POINT('',(337.948114,1622.253894,2170.5));
#524=CARTESIAN_POINT('',(336.351907,1622.253894,2132.191049));
#525=CARTESIAN_POINT('',(164.080454,1622.253894,2114.400666));
#526=CARTESIAN_POINT('',(164.080454,1622.253894,2075.400666));
#527=CARTESIAN_POINT('',(103.080454,1622.253894,2075.400666));
#528=CARTESIAN_POINT('',(103.080454,1622.253894,2053.400666));
#529=CARTESIAN_POINT('',(0.,1622.253894,-0.));
#530=CARTESIAN_POINT('',(-0.,-377.746106000001,-0.));
#531=PRODUCT_DEFINITION_SHAPE('','',#532);
#532=PRODUCT_DEFINITION('','',#544,#549);
#533=(
GEOMETRIC_REPRESENTATION_CONTEXT(3)
GLOBAL_UNCERTAINTY_ASSIGNED_CONTEXT((#534))
GLOBAL_UNIT_ASSIGNED_CONTEXT((#536,#535,#539))
REPRESENTATION_CONTEXT('','')
);
#534=UNCERTAINTY_MEASURE_WITH_UNIT(LENGTH_MEASURE(0.001),#536,'','tolerance');
#535=(
CONVERSION_BASED_UNIT('',#537)
NAMED_UNIT(#543)
PLANE_ANGLE_UNIT()
);
#536=(
CONVERSION_BASED_UNIT('',#538)
LENGTH_UNIT()
NAMED_UNIT(#542)
);
#537=PLANE_ANGLE_MEASURE_WITH_UNIT(PLANE_ANGLE_MEASURE(0.0174532925199433),
#540);
#538=LENGTH_MEASURE_WITH_UNIT(LENGTH_MEASURE(1.),#541);
#539=(
NAMED_UNIT(*)
SI_UNIT($,.STERADIAN.)
SOLID_ANGLE_UNIT()
);
#540=(
NAMED_UNIT(*)
PLANE_ANGLE_UNIT()
SI_UNIT($,.RADIAN.)
);
#541=(
LENGTH_UNIT()
NAMED_UNIT(*)
SI_UNIT(.MILLI.,.METRE.)
);
#542=DIMENSIONAL_EXPONENTS(1.,0.,0.,0.,0.,0.,0.);
#543=DIMENSIONAL_EXPONENTS(0.,0.,0.,0.,0.,0.,0.);
#544=PRODUCT_DEFINITION_FORMATION_WITH_SPECIFIED_SOURCE('','',#547,.NOT_KNOWN.
);
#545=PRODUCT_CATEGORY_RELATIONSHIP('','',#550,#546);
#546=PRODUCT_RELATED_PRODUCT_CATEGORY('assembly','',(#547));
#547=PRODUCT('','master','',(#548));
#548=PRODUCT_CONTEXT('',#552,'');
#549=PRODUCT_DEFINITION_CONTEXT('',#552,'part_definition');
#550=PRODUCT_CATEGORY('part','');
#551=APPLICATION_PROTOCOL_DEFINITION('international standard',
'automotive_design_cc2',1994,#552);
#552=APPLICATION_CONTEXT(
'configuration controlled 3D designs of mechanical parts and assemblies');
ENDSEC;
END-ISO-10303-21;
22968