ISO-10303-21;
HEADER;
/* Generated by software using Delcam plc STEP library */

FILE_DESCRIPTION(
/* description */ ('AP-214 File'),
/* implementation_level */ '2;1');

FILE_NAME(
/* name */ 'D896',
/* time_stamp */ 'Wed Feb 01 09:53:50 2017',
/* author */ (''),
/* organization */ (''),
/* preprocessor_version */ 'DELCAM STEP V1',
/* originating_system */ 'Exchange7.1.0006',
/* authorisation */ '');

FILE_SCHEMA (('AUTOMOTIVE_DESIGN'));
ENDSEC;
DATA;
#10=PRESENTATION_STYLE_ASSIGNMENT((#20));
#11=PRESENTATION_STYLE_ASSIGNMENT((#21));
#12=SURFACE_SIDE_STYLE('',(#14));
#13=SURFACE_SIDE_STYLE('',(#15));
#14=SURFACE_STYLE_FILL_AREA(#16);
#15=SURFACE_STYLE_FILL_AREA(#17);
#16=FILL_AREA_STYLE('',(#18));
#17=FILL_AREA_STYLE('',(#19));
#18=FILL_AREA_STYLE_COLOUR('',#60);
#19=FILL_AREA_STYLE_COLOUR('',#61);
#20=SURFACE_STYLE_USAGE(.BOTH.,#12);
#21=SURFACE_STYLE_USAGE(.BOTH.,#13);
#22=STYLED_ITEM('',(#10),#81);
#23=STYLED_ITEM('',(#10),#82);
#24=STYLED_ITEM('',(#10),#83);
#25=STYLED_ITEM('',(#10),#84);
#26=STYLED_ITEM('',(#10),#85);
#27=STYLED_ITEM('',(#10),#86);
#28=STYLED_ITEM('',(#10),#87);
#29=STYLED_ITEM('',(#10),#88);
#30=STYLED_ITEM('',(#10),#89);
#31=STYLED_ITEM('',(#10),#90);
#32=STYLED_ITEM('',(#10),#91);
#33=STYLED_ITEM('',(#10),#92);
#34=STYLED_ITEM('',(#10),#93);
#35=STYLED_ITEM('',(#10),#94);
#36=STYLED_ITEM('',(#10),#95);
#37=STYLED_ITEM('',(#10),#96);
#38=STYLED_ITEM('',(#10),#97);
#39=STYLED_ITEM('',(#10),#98);
#40=STYLED_ITEM('',(#10),#99);
#41=STYLED_ITEM('',(#10),#100);
#42=STYLED_ITEM('',(#10),#101);
#43=STYLED_ITEM('',(#10),#102);
#44=STYLED_ITEM('',(#10),#103);
#45=STYLED_ITEM('',(#10),#104);
#46=STYLED_ITEM('',(#10),#105);
#47=STYLED_ITEM('',(#10),#106);
#48=STYLED_ITEM('',(#10),#107);
#49=STYLED_ITEM('',(#10),#108);
#50=STYLED_ITEM('',(#10),#109);
#51=STYLED_ITEM('',(#10),#110);
#52=STYLED_ITEM('',(#10),#111);
#53=STYLED_ITEM('',(#10),#112);
#54=STYLED_ITEM('',(#10),#113);
#55=STYLED_ITEM('',(#10),#114);
#56=STYLED_ITEM('',(#10),#115);
#57=STYLED_ITEM('',(#10),#116);
#58=STYLED_ITEM('',(#10),#117);
#59=STYLED_ITEM('',(#11),#67);
#60=COLOUR_RGB('',0.,0.,0.);
#61=COLOUR_RGB('rgb_colour_1',0.4,0.4,0.4);
#62=MECHANICAL_DESIGN_GEOMETRIC_PRESENTATION_REPRESENTATION('',(#22,#23,#24,
#25,#26,#27,#28,#29,#30,#31,#32,#33,#34,#35,#36,#37,#38,#39,#40,#41,#42,#43,
#44,#45,#46,#47,#48,#49,#50,#51,#52,#53,#54,#55,#56,#57,#58,#59),#1273);
#63=PRESENTATION_LAYER_ASSIGNMENT('129','D896',(#81,#82,#83,#84,#85,#86,#87,
#88,#89,#90,#91,#92,#93,#94,#95,#96,#97,#98,#99,#100,#101,#102,#103,#104,#105,
#106,#107,#108,#109,#110,#111,#112,#113,#114,#115,#116,#117,#67));
#64=SHAPE_REPRESENTATION_RELATIONSHIP('','',#786,#65);
#65=ADVANCED_BREP_SHAPE_REPRESENTATION('',(#66),#1273);
#66=MANIFOLD_SOLID_BREP('8045',#67);
#67=CLOSED_SHELL('',(#81,#82,#83,#84,#85,#86,#87,#88,#89,#90,#91,#92,#93,#94,
#95,#96,#97,#98,#99,#100,#101,#102,#103,#104,#105,#106,#107,#108,#109,#110,
#111,#112,#113,#114,#115,#116,#117));
#68=CYLINDRICAL_SURFACE('',#818,31.1942264552592);
#69=CYLINDRICAL_SURFACE('',#819,16.3152131616873);
#70=CYLINDRICAL_SURFACE('',#820,25.2943770322643);
#71=CYLINDRICAL_SURFACE('',#821,16.0111231835422);
#72=CYLINDRICAL_SURFACE('',#826,8.31753123058455);
#73=CYLINDRICAL_SURFACE('',#827,7.52445086716527);
#74=CYLINDRICAL_SURFACE('',#831,8.29234110554535);
#75=CYLINDRICAL_SURFACE('',#833,9.95787193409034);
#76=CYLINDRICAL_SURFACE('',#839,18.2896769030741);
#77=CYLINDRICAL_SURFACE('',#840,25.7190609889367);
#78=CYLINDRICAL_SURFACE('',#843,23.0849453068047);
#79=CYLINDRICAL_SURFACE('',#844,14.0767913748355);
#80=CYLINDRICAL_SURFACE('',#845,166.874186576357);
#81=ADVANCED_FACE('',(#118),#402,.F.);
#82=ADVANCED_FACE('',(#119),#403,.F.);
#83=ADVANCED_FACE('',(#120),#404,.F.);
#84=ADVANCED_FACE('',(#121),#405,.F.);
#85=ADVANCED_FACE('',(#122),#68,.F.);
#86=ADVANCED_FACE('',(#123),#69,.F.);
#87=ADVANCED_FACE('',(#124),#70,.T.);
#88=ADVANCED_FACE('',(#125),#71,.T.);
#89=ADVANCED_FACE('',(#126),#406,.F.);
#90=ADVANCED_FACE('',(#127),#407,.F.);
#91=ADVANCED_FACE('',(#128),#408,.F.);
#92=ADVANCED_FACE('',(#129),#409,.F.);
#93=ADVANCED_FACE('',(#130),#72,.T.);
#94=ADVANCED_FACE('',(#131),#73,.T.);
#95=ADVANCED_FACE('',(#132),#410,.F.);
#96=ADVANCED_FACE('',(#133),#411,.F.);
#97=ADVANCED_FACE('',(#134),#412,.F.);
#98=ADVANCED_FACE('',(#135),#74,.F.);
#99=ADVANCED_FACE('',(#136),#413,.F.);
#100=ADVANCED_FACE('',(#137),#75,.F.);
#101=ADVANCED_FACE('',(#138),#414,.F.);
#102=ADVANCED_FACE('',(#139),#415,.F.);
#103=ADVANCED_FACE('',(#140),#416,.F.);
#104=ADVANCED_FACE('',(#141),#417,.F.);
#105=ADVANCED_FACE('',(#142),#418,.F.);
#106=ADVANCED_FACE('',(#143),#76,.T.);
#107=ADVANCED_FACE('',(#144),#77,.T.);
#108=ADVANCED_FACE('',(#145),#419,.F.);
#109=ADVANCED_FACE('',(#146),#420,.F.);
#110=ADVANCED_FACE('',(#147),#78,.F.);
#111=ADVANCED_FACE('',(#148),#79,.F.);
#112=ADVANCED_FACE('',(#149),#80,.F.);
#113=ADVANCED_FACE('',(#150),#421,.F.);
#114=ADVANCED_FACE('',(#151),#422,.F.);
#115=ADVANCED_FACE('',(#152),#423,.F.);
#116=ADVANCED_FACE('',(#153),#424,.F.);
#117=ADVANCED_FACE('',(#154),#425,.T.);
#118=FACE_OUTER_BOUND('',#155,.T.);
#119=FACE_OUTER_BOUND('',#156,.T.);
#120=FACE_OUTER_BOUND('',#157,.T.);
#121=FACE_OUTER_BOUND('',#158,.T.);
#122=FACE_OUTER_BOUND('',#159,.T.);
#123=FACE_OUTER_BOUND('',#160,.T.);
#124=FACE_OUTER_BOUND('',#161,.T.);
#125=FACE_OUTER_BOUND('',#162,.T.);
#126=FACE_OUTER_BOUND('',#163,.T.);
#127=FACE_OUTER_BOUND('',#164,.T.);
#128=FACE_OUTER_BOUND('',#165,.T.);
#129=FACE_OUTER_BOUND('',#166,.T.);
#130=FACE_OUTER_BOUND('',#167,.T.);
#131=FACE_OUTER_BOUND('',#168,.T.);
#132=FACE_OUTER_BOUND('',#169,.T.);
#133=FACE_OUTER_BOUND('',#170,.T.);
#134=FACE_OUTER_BOUND('',#171,.T.);
#135=FACE_OUTER_BOUND('',#172,.T.);
#136=FACE_OUTER_BOUND('',#173,.T.);
#137=FACE_OUTER_BOUND('',#174,.T.);
#138=FACE_OUTER_BOUND('',#175,.T.);
#139=FACE_OUTER_BOUND('',#176,.T.);
#140=FACE_OUTER_BOUND('',#177,.T.);
#141=FACE_OUTER_BOUND('',#178,.T.);
#142=FACE_OUTER_BOUND('',#179,.T.);
#143=FACE_OUTER_BOUND('',#180,.T.);
#144=FACE_OUTER_BOUND('',#181,.T.);
#145=FACE_OUTER_BOUND('',#182,.T.);
#146=FACE_OUTER_BOUND('',#183,.T.);
#147=FACE_OUTER_BOUND('',#184,.T.);
#148=FACE_OUTER_BOUND('',#185,.T.);
#149=FACE_OUTER_BOUND('',#186,.T.);
#150=FACE_OUTER_BOUND('',#187,.T.);
#151=FACE_OUTER_BOUND('',#188,.T.);
#152=FACE_OUTER_BOUND('',#189,.T.);
#153=FACE_OUTER_BOUND('',#190,.T.);
#154=FACE_OUTER_BOUND('',#191,.T.);
#155=EDGE_LOOP('',(#192,#193,#194,#195));
#156=EDGE_LOOP('',(#196,#197,#198,#199));
#157=EDGE_LOOP('',(#200,#201,#202,#203));
#158=EDGE_LOOP('',(#204,#205,#206,#207));
#159=EDGE_LOOP('',(#208,#209,#210,#211));
#160=EDGE_LOOP('',(#212,#213,#214,#215));
#161=EDGE_LOOP('',(#216,#217,#218,#219));
#162=EDGE_LOOP('',(#220,#221,#222,#223));
#163=EDGE_LOOP('',(#224,#225,#226,#227));
#164=EDGE_LOOP('',(#228,#229,#230,#231));
#165=EDGE_LOOP('',(#232,#233,#234,#235));
#166=EDGE_LOOP('',(#236,#237,#238,#239));
#167=EDGE_LOOP('',(#240,#241,#242,#243));
#168=EDGE_LOOP('',(#244,#245,#246,#247));
#169=EDGE_LOOP('',(#248,#249,#250,#251));
#170=EDGE_LOOP('',(#252,#253,#254,#255));
#171=EDGE_LOOP('',(#256,#257,#258,#259));
#172=EDGE_LOOP('',(#260,#261,#262,#263));
#173=EDGE_LOOP('',(#264,#265,#266,#267));
#174=EDGE_LOOP('',(#268,#269,#270,#271));
#175=EDGE_LOOP('',(#272,#273,#274,#275));
#176=EDGE_LOOP('',(#276,#277,#278,#279));
#177=EDGE_LOOP('',(#280,#281,#282,#283));
#178=EDGE_LOOP('',(#284,#285,#286,#287));
#179=EDGE_LOOP('',(#288,#289,#290,#291));
#180=EDGE_LOOP('',(#292,#293,#294,#295));
#181=EDGE_LOOP('',(#296,#297,#298,#299));
#182=EDGE_LOOP('',(#300,#301,#302,#303));
#183=EDGE_LOOP('',(#304,#305,#306,#307));
#184=EDGE_LOOP('',(#308,#309,#310,#311));
#185=EDGE_LOOP('',(#312,#313,#314,#315));
#186=EDGE_LOOP('',(#316,#317,#318,#319));
#187=EDGE_LOOP('',(#320,#321,#322,#323));
#188=EDGE_LOOP('',(#324,#325,#326,#327));
#189=EDGE_LOOP('',(#328,#329,#330,#331));
#190=EDGE_LOOP('',(#332,#333,#334,#335,#336,#337,#338,#339,#340,#341,#342,#343
,#344,#345,#346,#347,#348,#349,#350,#351,#352,#353,#354,#355,#356,#357,#358,
#359,#360,#361,#362,#363,#364,#365,#366));
#191=EDGE_LOOP('',(#367,#368,#369,#370,#371,#372,#373,#374,#375,#376,#377,#378
,#379,#380,#381,#382,#383,#384,#385,#386,#387,#388,#389,#390,#391,#392,#393,
#394,#395,#396,#397,#398,#399,#400,#401));
#192=ORIENTED_EDGE('',*,*,#556,.T.);
#193=ORIENTED_EDGE('',*,*,#452,.F.);
#194=ORIENTED_EDGE('',*,*,#521,.F.);
#195=ORIENTED_EDGE('',*,*,#486,.T.);
#196=ORIENTED_EDGE('',*,*,#555,.T.);
#197=ORIENTED_EDGE('',*,*,#453,.F.);
#198=ORIENTED_EDGE('',*,*,#520,.F.);
#199=ORIENTED_EDGE('',*,*,#452,.T.);
#200=ORIENTED_EDGE('',*,*,#554,.T.);
#201=ORIENTED_EDGE('',*,*,#454,.F.);
#202=ORIENTED_EDGE('',*,*,#519,.F.);
#203=ORIENTED_EDGE('',*,*,#453,.T.);
#204=ORIENTED_EDGE('',*,*,#553,.T.);
#205=ORIENTED_EDGE('',*,*,#455,.F.);
#206=ORIENTED_EDGE('',*,*,#518,.F.);
#207=ORIENTED_EDGE('',*,*,#454,.T.);
#208=ORIENTED_EDGE('',*,*,#552,.T.);
#209=ORIENTED_EDGE('',*,*,#456,.F.);
#210=ORIENTED_EDGE('',*,*,#517,.F.);
#211=ORIENTED_EDGE('',*,*,#455,.T.);
#212=ORIENTED_EDGE('',*,*,#551,.T.);
#213=ORIENTED_EDGE('',*,*,#457,.F.);
#214=ORIENTED_EDGE('',*,*,#516,.F.);
#215=ORIENTED_EDGE('',*,*,#456,.T.);
#216=ORIENTED_EDGE('',*,*,#550,.T.);
#217=ORIENTED_EDGE('',*,*,#458,.F.);
#218=ORIENTED_EDGE('',*,*,#515,.F.);
#219=ORIENTED_EDGE('',*,*,#457,.T.);
#220=ORIENTED_EDGE('',*,*,#549,.T.);
#221=ORIENTED_EDGE('',*,*,#459,.F.);
#222=ORIENTED_EDGE('',*,*,#514,.F.);
#223=ORIENTED_EDGE('',*,*,#458,.T.);
#224=ORIENTED_EDGE('',*,*,#548,.T.);
#225=ORIENTED_EDGE('',*,*,#460,.F.);
#226=ORIENTED_EDGE('',*,*,#513,.F.);
#227=ORIENTED_EDGE('',*,*,#459,.T.);
#228=ORIENTED_EDGE('',*,*,#547,.T.);
#229=ORIENTED_EDGE('',*,*,#461,.F.);
#230=ORIENTED_EDGE('',*,*,#512,.F.);
#231=ORIENTED_EDGE('',*,*,#460,.T.);
#232=ORIENTED_EDGE('',*,*,#546,.T.);
#233=ORIENTED_EDGE('',*,*,#462,.F.);
#234=ORIENTED_EDGE('',*,*,#511,.F.);
#235=ORIENTED_EDGE('',*,*,#461,.T.);
#236=ORIENTED_EDGE('',*,*,#545,.T.);
#237=ORIENTED_EDGE('',*,*,#463,.F.);
#238=ORIENTED_EDGE('',*,*,#510,.F.);
#239=ORIENTED_EDGE('',*,*,#462,.T.);
#240=ORIENTED_EDGE('',*,*,#544,.T.);
#241=ORIENTED_EDGE('',*,*,#464,.F.);
#242=ORIENTED_EDGE('',*,*,#509,.F.);
#243=ORIENTED_EDGE('',*,*,#463,.T.);
#244=ORIENTED_EDGE('',*,*,#543,.T.);
#245=ORIENTED_EDGE('',*,*,#465,.F.);
#246=ORIENTED_EDGE('',*,*,#508,.F.);
#247=ORIENTED_EDGE('',*,*,#464,.T.);
#248=ORIENTED_EDGE('',*,*,#542,.T.);
#249=ORIENTED_EDGE('',*,*,#466,.F.);
#250=ORIENTED_EDGE('',*,*,#507,.F.);
#251=ORIENTED_EDGE('',*,*,#465,.T.);
#252=ORIENTED_EDGE('',*,*,#541,.T.);
#253=ORIENTED_EDGE('',*,*,#467,.F.);
#254=ORIENTED_EDGE('',*,*,#506,.F.);
#255=ORIENTED_EDGE('',*,*,#466,.T.);
#256=ORIENTED_EDGE('',*,*,#540,.T.);
#257=ORIENTED_EDGE('',*,*,#468,.F.);
#258=ORIENTED_EDGE('',*,*,#505,.F.);
#259=ORIENTED_EDGE('',*,*,#467,.T.);
#260=ORIENTED_EDGE('',*,*,#539,.T.);
#261=ORIENTED_EDGE('',*,*,#469,.F.);
#262=ORIENTED_EDGE('',*,*,#504,.F.);
#263=ORIENTED_EDGE('',*,*,#468,.T.);
#264=ORIENTED_EDGE('',*,*,#538,.T.);
#265=ORIENTED_EDGE('',*,*,#470,.F.);
#266=ORIENTED_EDGE('',*,*,#503,.F.);
#267=ORIENTED_EDGE('',*,*,#469,.T.);
#268=ORIENTED_EDGE('',*,*,#537,.T.);
#269=ORIENTED_EDGE('',*,*,#471,.F.);
#270=ORIENTED_EDGE('',*,*,#502,.F.);
#271=ORIENTED_EDGE('',*,*,#470,.T.);
#272=ORIENTED_EDGE('',*,*,#536,.T.);
#273=ORIENTED_EDGE('',*,*,#472,.F.);
#274=ORIENTED_EDGE('',*,*,#501,.F.);
#275=ORIENTED_EDGE('',*,*,#471,.T.);
#276=ORIENTED_EDGE('',*,*,#535,.T.);
#277=ORIENTED_EDGE('',*,*,#473,.F.);
#278=ORIENTED_EDGE('',*,*,#500,.F.);
#279=ORIENTED_EDGE('',*,*,#472,.T.);
#280=ORIENTED_EDGE('',*,*,#534,.T.);
#281=ORIENTED_EDGE('',*,*,#474,.F.);
#282=ORIENTED_EDGE('',*,*,#499,.F.);
#283=ORIENTED_EDGE('',*,*,#473,.T.);
#284=ORIENTED_EDGE('',*,*,#533,.T.);
#285=ORIENTED_EDGE('',*,*,#475,.F.);
#286=ORIENTED_EDGE('',*,*,#498,.F.);
#287=ORIENTED_EDGE('',*,*,#474,.T.);
#288=ORIENTED_EDGE('',*,*,#532,.T.);
#289=ORIENTED_EDGE('',*,*,#476,.F.);
#290=ORIENTED_EDGE('',*,*,#497,.F.);
#291=ORIENTED_EDGE('',*,*,#475,.T.);
#292=ORIENTED_EDGE('',*,*,#531,.T.);
#293=ORIENTED_EDGE('',*,*,#477,.F.);
#294=ORIENTED_EDGE('',*,*,#496,.F.);
#295=ORIENTED_EDGE('',*,*,#476,.T.);
#296=ORIENTED_EDGE('',*,*,#530,.T.);
#297=ORIENTED_EDGE('',*,*,#478,.F.);
#298=ORIENTED_EDGE('',*,*,#495,.F.);
#299=ORIENTED_EDGE('',*,*,#477,.T.);
#300=ORIENTED_EDGE('',*,*,#529,.T.);
#301=ORIENTED_EDGE('',*,*,#479,.F.);
#302=ORIENTED_EDGE('',*,*,#494,.F.);
#303=ORIENTED_EDGE('',*,*,#478,.T.);
#304=ORIENTED_EDGE('',*,*,#528,.T.);
#305=ORIENTED_EDGE('',*,*,#480,.F.);
#306=ORIENTED_EDGE('',*,*,#493,.F.);
#307=ORIENTED_EDGE('',*,*,#479,.T.);
#308=ORIENTED_EDGE('',*,*,#527,.T.);
#309=ORIENTED_EDGE('',*,*,#481,.F.);
#310=ORIENTED_EDGE('',*,*,#492,.F.);
#311=ORIENTED_EDGE('',*,*,#480,.T.);
#312=ORIENTED_EDGE('',*,*,#526,.T.);
#313=ORIENTED_EDGE('',*,*,#482,.F.);
#314=ORIENTED_EDGE('',*,*,#491,.F.);
#315=ORIENTED_EDGE('',*,*,#481,.T.);
#316=ORIENTED_EDGE('',*,*,#525,.T.);
#317=ORIENTED_EDGE('',*,*,#483,.F.);
#318=ORIENTED_EDGE('',*,*,#490,.F.);
#319=ORIENTED_EDGE('',*,*,#482,.T.);
#320=ORIENTED_EDGE('',*,*,#524,.T.);
#321=ORIENTED_EDGE('',*,*,#484,.F.);
#322=ORIENTED_EDGE('',*,*,#489,.F.);
#323=ORIENTED_EDGE('',*,*,#483,.T.);
#324=ORIENTED_EDGE('',*,*,#523,.T.);
#325=ORIENTED_EDGE('',*,*,#485,.F.);
#326=ORIENTED_EDGE('',*,*,#488,.F.);
#327=ORIENTED_EDGE('',*,*,#484,.T.);
#328=ORIENTED_EDGE('',*,*,#522,.T.);
#329=ORIENTED_EDGE('',*,*,#486,.F.);
#330=ORIENTED_EDGE('',*,*,#487,.F.);
#331=ORIENTED_EDGE('',*,*,#485,.T.);
#332=ORIENTED_EDGE('',*,*,#521,.T.);
#333=ORIENTED_EDGE('',*,*,#520,.T.);
#334=ORIENTED_EDGE('',*,*,#519,.T.);
#335=ORIENTED_EDGE('',*,*,#518,.T.);
#336=ORIENTED_EDGE('',*,*,#517,.T.);
#337=ORIENTED_EDGE('',*,*,#516,.T.);
#338=ORIENTED_EDGE('',*,*,#515,.T.);
#339=ORIENTED_EDGE('',*,*,#514,.T.);
#340=ORIENTED_EDGE('',*,*,#513,.T.);
#341=ORIENTED_EDGE('',*,*,#512,.T.);
#342=ORIENTED_EDGE('',*,*,#511,.T.);
#343=ORIENTED_EDGE('',*,*,#510,.T.);
#344=ORIENTED_EDGE('',*,*,#509,.T.);
#345=ORIENTED_EDGE('',*,*,#508,.T.);
#346=ORIENTED_EDGE('',*,*,#507,.T.);
#347=ORIENTED_EDGE('',*,*,#506,.T.);
#348=ORIENTED_EDGE('',*,*,#505,.T.);
#349=ORIENTED_EDGE('',*,*,#504,.T.);
#350=ORIENTED_EDGE('',*,*,#503,.T.);
#351=ORIENTED_EDGE('',*,*,#502,.T.);
#352=ORIENTED_EDGE('',*,*,#501,.T.);
#353=ORIENTED_EDGE('',*,*,#500,.T.);
#354=ORIENTED_EDGE('',*,*,#499,.T.);
#355=ORIENTED_EDGE('',*,*,#498,.T.);
#356=ORIENTED_EDGE('',*,*,#497,.T.);
#357=ORIENTED_EDGE('',*,*,#496,.T.);
#358=ORIENTED_EDGE('',*,*,#495,.T.);
#359=ORIENTED_EDGE('',*,*,#494,.T.);
#360=ORIENTED_EDGE('',*,*,#493,.T.);
#361=ORIENTED_EDGE('',*,*,#492,.T.);
#362=ORIENTED_EDGE('',*,*,#491,.T.);
#363=ORIENTED_EDGE('',*,*,#490,.T.);
#364=ORIENTED_EDGE('',*,*,#489,.T.);
#365=ORIENTED_EDGE('',*,*,#488,.T.);
#366=ORIENTED_EDGE('',*,*,#487,.T.);
#367=ORIENTED_EDGE('',*,*,#556,.F.);
#368=ORIENTED_EDGE('',*,*,#522,.F.);
#369=ORIENTED_EDGE('',*,*,#523,.F.);
#370=ORIENTED_EDGE('',*,*,#524,.F.);
#371=ORIENTED_EDGE('',*,*,#525,.F.);
#372=ORIENTED_EDGE('',*,*,#526,.F.);
#373=ORIENTED_EDGE('',*,*,#527,.F.);
#374=ORIENTED_EDGE('',*,*,#528,.F.);
#375=ORIENTED_EDGE('',*,*,#529,.F.);
#376=ORIENTED_EDGE('',*,*,#530,.F.);
#377=ORIENTED_EDGE('',*,*,#531,.F.);
#378=ORIENTED_EDGE('',*,*,#532,.F.);
#379=ORIENTED_EDGE('',*,*,#533,.F.);
#380=ORIENTED_EDGE('',*,*,#534,.F.);
#381=ORIENTED_EDGE('',*,*,#535,.F.);
#382=ORIENTED_EDGE('',*,*,#536,.F.);
#383=ORIENTED_EDGE('',*,*,#537,.F.);
#384=ORIENTED_EDGE('',*,*,#538,.F.);
#385=ORIENTED_EDGE('',*,*,#539,.F.);
#386=ORIENTED_EDGE('',*,*,#540,.F.);
#387=ORIENTED_EDGE('',*,*,#541,.F.);
#388=ORIENTED_EDGE('',*,*,#542,.F.);
#389=ORIENTED_EDGE('',*,*,#543,.F.);
#390=ORIENTED_EDGE('',*,*,#544,.F.);
#391=ORIENTED_EDGE('',*,*,#545,.F.);
#392=ORIENTED_EDGE('',*,*,#546,.F.);
#393=ORIENTED_EDGE('',*,*,#547,.F.);
#394=ORIENTED_EDGE('',*,*,#548,.F.);
#395=ORIENTED_EDGE('',*,*,#549,.F.);
#396=ORIENTED_EDGE('',*,*,#550,.F.);
#397=ORIENTED_EDGE('',*,*,#551,.F.);
#398=ORIENTED_EDGE('',*,*,#552,.F.);
#399=ORIENTED_EDGE('',*,*,#553,.F.);
#400=ORIENTED_EDGE('',*,*,#554,.F.);
#401=ORIENTED_EDGE('',*,*,#555,.F.);
#402=PLANE('',#814);
#403=PLANE('',#815);
#404=PLANE('',#816);
#405=PLANE('',#817);
#406=PLANE('',#822);
#407=PLANE('',#823);
#408=PLANE('',#824);
#409=PLANE('',#825);
#410=PLANE('',#828);
#411=PLANE('',#829);
#412=PLANE('',#830);
#413=PLANE('',#832);
#414=PLANE('',#834);
#415=PLANE('',#835);
#416=PLANE('',#836);
#417=PLANE('',#837);
#418=PLANE('',#838);
#419=PLANE('',#841);
#420=PLANE('',#842);
#421=PLANE('',#846);
#422=PLANE('',#847);
#423=PLANE('',#848);
#424=PLANE('',#849);
#425=PLANE('',#850);
#426=CIRCLE('',#788,166.874186576357);
#427=CIRCLE('',#789,14.0767913748355);
#428=CIRCLE('',#790,23.0849453068047);
#429=CIRCLE('',#791,25.7190609889367);
#430=CIRCLE('',#792,18.2896769030741);
#431=CIRCLE('',#793,9.95787193409034);
#432=CIRCLE('',#794,8.29234110554535);
#433=CIRCLE('',#795,7.52445086716527);
#434=CIRCLE('',#796,8.31753123058455);
#435=CIRCLE('',#797,16.0111231835422);
#436=CIRCLE('',#798,25.2943770322643);
#437=CIRCLE('',#799,16.3152131616873);
#438=CIRCLE('',#800,31.1942264552592);
#439=CIRCLE('',#801,166.874186576357);
#440=CIRCLE('',#802,14.0767913748355);
#441=CIRCLE('',#803,23.0849453068047);
#442=CIRCLE('',#804,25.7190609889367);
#443=CIRCLE('',#805,18.2896769030741);
#444=CIRCLE('',#806,9.95787193409034);
#445=CIRCLE('',#807,8.29234110554535);
#446=CIRCLE('',#808,7.52445086716527);
#447=CIRCLE('',#809,8.31753123058455);
#448=CIRCLE('',#810,16.0111231835422);
#449=CIRCLE('',#811,25.2943770322643);
#450=CIRCLE('',#812,16.3152131616873);
#451=CIRCLE('',#813,31.1942264552592);
#452=EDGE_CURVE('',#749,#784,#557,.T.);
#453=EDGE_CURVE('',#748,#783,#558,.T.);
#454=EDGE_CURVE('',#747,#782,#559,.T.);
#455=EDGE_CURVE('',#746,#781,#560,.T.);
#456=EDGE_CURVE('',#745,#780,#561,.T.);
#457=EDGE_CURVE('',#744,#779,#562,.T.);
#458=EDGE_CURVE('',#743,#778,#563,.T.);
#459=EDGE_CURVE('',#742,#777,#564,.T.);
#460=EDGE_CURVE('',#741,#776,#565,.T.);
#461=EDGE_CURVE('',#740,#775,#566,.T.);
#462=EDGE_CURVE('',#739,#774,#567,.T.);
#463=EDGE_CURVE('',#738,#773,#568,.T.);
#464=EDGE_CURVE('',#737,#772,#569,.T.);
#465=EDGE_CURVE('',#736,#771,#570,.T.);
#466=EDGE_CURVE('',#735,#770,#571,.T.);
#467=EDGE_CURVE('',#734,#769,#572,.T.);
#468=EDGE_CURVE('',#733,#768,#573,.T.);
#469=EDGE_CURVE('',#732,#767,#574,.T.);
#470=EDGE_CURVE('',#731,#766,#575,.T.);
#471=EDGE_CURVE('',#730,#765,#576,.T.);
#472=EDGE_CURVE('',#729,#764,#577,.T.);
#473=EDGE_CURVE('',#728,#763,#578,.T.);
#474=EDGE_CURVE('',#727,#762,#579,.T.);
#475=EDGE_CURVE('',#726,#761,#580,.T.);
#476=EDGE_CURVE('',#725,#760,#581,.T.);
#477=EDGE_CURVE('',#724,#759,#582,.T.);
#478=EDGE_CURVE('',#723,#758,#583,.T.);
#479=EDGE_CURVE('',#722,#757,#584,.T.);
#480=EDGE_CURVE('',#721,#756,#585,.T.);
#481=EDGE_CURVE('',#720,#755,#586,.T.);
#482=EDGE_CURVE('',#719,#754,#587,.T.);
#483=EDGE_CURVE('',#718,#753,#588,.T.);
#484=EDGE_CURVE('',#717,#752,#589,.T.);
#485=EDGE_CURVE('',#716,#751,#590,.T.);
#486=EDGE_CURVE('',#715,#750,#591,.T.);
#487=EDGE_CURVE('',#716,#715,#592,.T.);
#488=EDGE_CURVE('',#717,#716,#593,.T.);
#489=EDGE_CURVE('',#718,#717,#594,.T.);
#490=EDGE_CURVE('',#719,#718,#426,.T.);
#491=EDGE_CURVE('',#720,#719,#427,.T.);
#492=EDGE_CURVE('',#721,#720,#428,.T.);
#493=EDGE_CURVE('',#722,#721,#595,.T.);
#494=EDGE_CURVE('',#723,#722,#596,.T.);
#495=EDGE_CURVE('',#724,#723,#429,.T.);
#496=EDGE_CURVE('',#725,#724,#430,.T.);
#497=EDGE_CURVE('',#726,#725,#597,.T.);
#498=EDGE_CURVE('',#727,#726,#598,.T.);
#499=EDGE_CURVE('',#728,#727,#599,.T.);
#500=EDGE_CURVE('',#729,#728,#600,.T.);
#501=EDGE_CURVE('',#730,#729,#601,.T.);
#502=EDGE_CURVE('',#731,#730,#431,.T.);
#503=EDGE_CURVE('',#732,#731,#602,.T.);
#504=EDGE_CURVE('',#733,#732,#432,.T.);
#505=EDGE_CURVE('',#734,#733,#603,.T.);
#506=EDGE_CURVE('',#735,#734,#604,.T.);
#507=EDGE_CURVE('',#736,#735,#605,.T.);
#508=EDGE_CURVE('',#737,#736,#433,.T.);
#509=EDGE_CURVE('',#738,#737,#434,.T.);
#510=EDGE_CURVE('',#739,#738,#606,.T.);
#511=EDGE_CURVE('',#740,#739,#607,.T.);
#512=EDGE_CURVE('',#741,#740,#608,.T.);
#513=EDGE_CURVE('',#742,#741,#609,.T.);
#514=EDGE_CURVE('',#743,#742,#435,.T.);
#515=EDGE_CURVE('',#744,#743,#436,.T.);
#516=EDGE_CURVE('',#745,#744,#437,.T.);
#517=EDGE_CURVE('',#746,#745,#438,.T.);
#518=EDGE_CURVE('',#747,#746,#610,.T.);
#519=EDGE_CURVE('',#748,#747,#611,.T.);
#520=EDGE_CURVE('',#749,#748,#612,.T.);
#521=EDGE_CURVE('',#715,#749,#613,.T.);
#522=EDGE_CURVE('',#751,#750,#614,.T.);
#523=EDGE_CURVE('',#752,#751,#615,.T.);
#524=EDGE_CURVE('',#753,#752,#616,.T.);
#525=EDGE_CURVE('',#754,#753,#439,.T.);
#526=EDGE_CURVE('',#755,#754,#440,.T.);
#527=EDGE_CURVE('',#756,#755,#441,.T.);
#528=EDGE_CURVE('',#757,#756,#617,.T.);
#529=EDGE_CURVE('',#758,#757,#618,.T.);
#530=EDGE_CURVE('',#759,#758,#442,.T.);
#531=EDGE_CURVE('',#760,#759,#443,.T.);
#532=EDGE_CURVE('',#761,#760,#619,.T.);
#533=EDGE_CURVE('',#762,#761,#620,.T.);
#534=EDGE_CURVE('',#763,#762,#621,.T.);
#535=EDGE_CURVE('',#764,#763,#622,.T.);
#536=EDGE_CURVE('',#765,#764,#623,.T.);
#537=EDGE_CURVE('',#766,#765,#444,.T.);
#538=EDGE_CURVE('',#767,#766,#624,.T.);
#539=EDGE_CURVE('',#768,#767,#445,.T.);
#540=EDGE_CURVE('',#769,#768,#625,.T.);
#541=EDGE_CURVE('',#770,#769,#626,.T.);
#542=EDGE_CURVE('',#771,#770,#627,.T.);
#543=EDGE_CURVE('',#772,#771,#446,.T.);
#544=EDGE_CURVE('',#773,#772,#447,.T.);
#545=EDGE_CURVE('',#774,#773,#628,.T.);
#546=EDGE_CURVE('',#775,#774,#629,.T.);
#547=EDGE_CURVE('',#776,#775,#630,.T.);
#548=EDGE_CURVE('',#777,#776,#631,.T.);
#549=EDGE_CURVE('',#778,#777,#448,.T.);
#550=EDGE_CURVE('',#779,#778,#449,.T.);
#551=EDGE_CURVE('',#780,#779,#450,.T.);
#552=EDGE_CURVE('',#781,#780,#451,.T.);
#553=EDGE_CURVE('',#782,#781,#632,.T.);
#554=EDGE_CURVE('',#783,#782,#633,.T.);
#555=EDGE_CURVE('',#784,#783,#634,.T.);
#556=EDGE_CURVE('',#750,#784,#635,.T.);
#557=LINE('',#1129,#636);
#558=LINE('',#1130,#637);
#559=LINE('',#1131,#638);
#560=LINE('',#1132,#639);
#561=LINE('',#1133,#640);
#562=LINE('',#1134,#641);
#563=LINE('',#1135,#642);
#564=LINE('',#1136,#643);
#565=LINE('',#1137,#644);
#566=LINE('',#1138,#645);
#567=LINE('',#1139,#646);
#568=LINE('',#1140,#647);
#569=LINE('',#1141,#648);
#570=LINE('',#1142,#649);
#571=LINE('',#1143,#650);
#572=LINE('',#1144,#651);
#573=LINE('',#1145,#652);
#574=LINE('',#1146,#653);
#575=LINE('',#1147,#654);
#576=LINE('',#1148,#655);
#577=LINE('',#1149,#656);
#578=LINE('',#1150,#657);
#579=LINE('',#1151,#658);
#580=LINE('',#1152,#659);
#581=LINE('',#1153,#660);
#582=LINE('',#1154,#661);
#583=LINE('',#1155,#662);
#584=LINE('',#1156,#663);
#585=LINE('',#1157,#664);
#586=LINE('',#1158,#665);
#587=LINE('',#1159,#666);
#588=LINE('',#1160,#667);
#589=LINE('',#1161,#668);
#590=LINE('',#1162,#669);
#591=LINE('',#1163,#670);
#592=LINE('',#1164,#671);
#593=LINE('',#1165,#672);
#594=LINE('',#1166,#673);
#595=LINE('',#1170,#674);
#596=LINE('',#1171,#675);
#597=LINE('',#1174,#676);
#598=LINE('',#1175,#677);
#599=LINE('',#1176,#678);
#600=LINE('',#1177,#679);
#601=LINE('',#1178,#680);
#602=LINE('',#1180,#681);
#603=LINE('',#1182,#682);
#604=LINE('',#1183,#683);
#605=LINE('',#1184,#684);
#606=LINE('',#1187,#685);
#607=LINE('',#1188,#686);
#608=LINE('',#1189,#687);
#609=LINE('',#1190,#688);
#610=LINE('',#1195,#689);
#611=LINE('',#1196,#690);
#612=LINE('',#1197,#691);
#613=LINE('',#1198,#692);
#614=LINE('',#1199,#693);
#615=LINE('',#1200,#694);
#616=LINE('',#1201,#695);
#617=LINE('',#1205,#696);
#618=LINE('',#1206,#697);
#619=LINE('',#1209,#698);
#620=LINE('',#1210,#699);
#621=LINE('',#1211,#700);
#622=LINE('',#1212,#701);
#623=LINE('',#1213,#702);
#624=LINE('',#1215,#703);
#625=LINE('',#1217,#704);
#626=LINE('',#1218,#705);
#627=LINE('',#1219,#706);
#628=LINE('',#1222,#707);
#629=LINE('',#1223,#708);
#630=LINE('',#1224,#709);
#631=LINE('',#1225,#710);
#632=LINE('',#1230,#711);
#633=LINE('',#1231,#712);
#634=LINE('',#1232,#713);
#635=LINE('',#1233,#714);
#636=VECTOR('',#853,1.);
#637=VECTOR('',#854,1.);
#638=VECTOR('',#855,1.);
#639=VECTOR('',#856,1.);
#640=VECTOR('',#857,1.);
#641=VECTOR('',#858,1.);
#642=VECTOR('',#859,1.);
#643=VECTOR('',#860,1.);
#644=VECTOR('',#861,1.);
#645=VECTOR('',#862,1.);
#646=VECTOR('',#863,1.);
#647=VECTOR('',#864,1.);
#648=VECTOR('',#865,1.);
#649=VECTOR('',#866,1.);
#650=VECTOR('',#867,1.);
#651=VECTOR('',#868,1.);
#652=VECTOR('',#869,1.);
#653=VECTOR('',#870,1.);
#654=VECTOR('',#871,1.);
#655=VECTOR('',#872,1.);
#656=VECTOR('',#873,1.);
#657=VECTOR('',#874,1.);
#658=VECTOR('',#875,1.);
#659=VECTOR('',#876,1.);
#660=VECTOR('',#877,1.);
#661=VECTOR('',#878,1.);
#662=VECTOR('',#879,1.);
#663=VECTOR('',#880,1.);
#664=VECTOR('',#881,1.);
#665=VECTOR('',#882,1.);
#666=VECTOR('',#883,1.);
#667=VECTOR('',#884,1.);
#668=VECTOR('',#885,1.);
#669=VECTOR('',#886,1.);
#670=VECTOR('',#887,1.);
#671=VECTOR('',#888,1.);
#672=VECTOR('',#889,1.);
#673=VECTOR('',#890,1.);
#674=VECTOR('',#897,1.);
#675=VECTOR('',#898,1.);
#676=VECTOR('',#903,1.);
#677=VECTOR('',#904,1.);
#678=VECTOR('',#905,1.);
#679=VECTOR('',#906,1.);
#680=VECTOR('',#907,1.);
#681=VECTOR('',#910,1.);
#682=VECTOR('',#913,1.);
#683=VECTOR('',#914,1.);
#684=VECTOR('',#915,1.);
#685=VECTOR('',#920,1.);
#686=VECTOR('',#921,1.);
#687=VECTOR('',#922,1.);
#688=VECTOR('',#923,1.);
#689=VECTOR('',#932,1.);
#690=VECTOR('',#933,1.);
#691=VECTOR('',#934,1.);
#692=VECTOR('',#935,1.);
#693=VECTOR('',#936,1.);
#694=VECTOR('',#937,1.);
#695=VECTOR('',#938,1.);
#696=VECTOR('',#945,1.);
#697=VECTOR('',#946,1.);
#698=VECTOR('',#951,1.);
#699=VECTOR('',#952,1.);
#700=VECTOR('',#953,1.);
#701=VECTOR('',#954,1.);
#702=VECTOR('',#955,1.);
#703=VECTOR('',#958,1.);
#704=VECTOR('',#961,1.);
#705=VECTOR('',#962,1.);
#706=VECTOR('',#963,1.);
#707=VECTOR('',#968,1.);
#708=VECTOR('',#969,1.);
#709=VECTOR('',#970,1.);
#710=VECTOR('',#971,1.);
#711=VECTOR('',#980,1.);
#712=VECTOR('',#981,1.);
#713=VECTOR('',#982,1.);
#714=VECTOR('',#983,1.);
#715=VERTEX_POINT('',#1059);
#716=VERTEX_POINT('',#1060);
#717=VERTEX_POINT('',#1061);
#718=VERTEX_POINT('',#1062);
#719=VERTEX_POINT('',#1063);
#720=VERTEX_POINT('',#1064);
#721=VERTEX_POINT('',#1065);
#722=VERTEX_POINT('',#1066);
#723=VERTEX_POINT('',#1067);
#724=VERTEX_POINT('',#1068);
#725=VERTEX_POINT('',#1069);
#726=VERTEX_POINT('',#1070);
#727=VERTEX_POINT('',#1071);
#728=VERTEX_POINT('',#1072);
#729=VERTEX_POINT('',#1073);
#730=VERTEX_POINT('',#1074);
#731=VERTEX_POINT('',#1075);
#732=VERTEX_POINT('',#1076);
#733=VERTEX_POINT('',#1077);
#734=VERTEX_POINT('',#1078);
#735=VERTEX_POINT('',#1079);
#736=VERTEX_POINT('',#1080);
#737=VERTEX_POINT('',#1081);
#738=VERTEX_POINT('',#1082);
#739=VERTEX_POINT('',#1083);
#740=VERTEX_POINT('',#1084);
#741=VERTEX_POINT('',#1085);
#742=VERTEX_POINT('',#1086);
#743=VERTEX_POINT('',#1087);
#744=VERTEX_POINT('',#1088);
#745=VERTEX_POINT('',#1089);
#746=VERTEX_POINT('',#1090);
#747=VERTEX_POINT('',#1091);
#748=VERTEX_POINT('',#1092);
#749=VERTEX_POINT('',#1093);
#750=VERTEX_POINT('',#1094);
#751=VERTEX_POINT('',#1095);
#752=VERTEX_POINT('',#1096);
#753=VERTEX_POINT('',#1097);
#754=VERTEX_POINT('',#1098);
#755=VERTEX_POINT('',#1099);
#756=VERTEX_POINT('',#1100);
#757=VERTEX_POINT('',#1101);
#758=VERTEX_POINT('',#1102);
#759=VERTEX_POINT('',#1103);
#760=VERTEX_POINT('',#1104);
#761=VERTEX_POINT('',#1105);
#762=VERTEX_POINT('',#1106);
#763=VERTEX_POINT('',#1107);
#764=VERTEX_POINT('',#1108);
#765=VERTEX_POINT('',#1109);
#766=VERTEX_POINT('',#1110);
#767=VERTEX_POINT('',#1111);
#768=VERTEX_POINT('',#1112);
#769=VERTEX_POINT('',#1113);
#770=VERTEX_POINT('',#1114);
#771=VERTEX_POINT('',#1115);
#772=VERTEX_POINT('',#1116);
#773=VERTEX_POINT('',#1117);
#774=VERTEX_POINT('',#1118);
#775=VERTEX_POINT('',#1119);
#776=VERTEX_POINT('',#1120);
#777=VERTEX_POINT('',#1121);
#778=VERTEX_POINT('',#1122);
#779=VERTEX_POINT('',#1123);
#780=VERTEX_POINT('',#1124);
#781=VERTEX_POINT('',#1125);
#782=VERTEX_POINT('',#1126);
#783=VERTEX_POINT('',#1127);
#784=VERTEX_POINT('',#1128);
#785=SHAPE_DEFINITION_REPRESENTATION(#1271,#786);
#786=SHAPE_REPRESENTATION('master',(#787),#1273);
#787=AXIS2_PLACEMENT_3D('',#1058,#852,#851);
#788=AXIS2_PLACEMENT_3D('',#1167,#892,#891);
#789=AXIS2_PLACEMENT_3D('',#1168,#894,#893);
#790=AXIS2_PLACEMENT_3D('',#1169,#896,#895);
#791=AXIS2_PLACEMENT_3D('',#1172,#900,#899);
#792=AXIS2_PLACEMENT_3D('',#1173,#902,#901);
#793=AXIS2_PLACEMENT_3D('',#1179,#909,#908);
#794=AXIS2_PLACEMENT_3D('',#1181,#912,#911);
#795=AXIS2_PLACEMENT_3D('',#1185,#917,#916);
#796=AXIS2_PLACEMENT_3D('',#1186,#919,#918);
#797=AXIS2_PLACEMENT_3D('',#1191,#925,#924);
#798=AXIS2_PLACEMENT_3D('',#1192,#927,#926);
#799=AXIS2_PLACEMENT_3D('',#1193,#929,#928);
#800=AXIS2_PLACEMENT_3D('',#1194,#931,#930);
#801=AXIS2_PLACEMENT_3D('',#1202,#940,#939);
#802=AXIS2_PLACEMENT_3D('',#1203,#942,#941);
#803=AXIS2_PLACEMENT_3D('',#1204,#944,#943);
#804=AXIS2_PLACEMENT_3D('',#1207,#948,#947);
#805=AXIS2_PLACEMENT_3D('',#1208,#950,#949);
#806=AXIS2_PLACEMENT_3D('',#1214,#957,#956);
#807=AXIS2_PLACEMENT_3D('',#1216,#960,#959);
#808=AXIS2_PLACEMENT_3D('',#1220,#965,#964);
#809=AXIS2_PLACEMENT_3D('',#1221,#967,#966);
#810=AXIS2_PLACEMENT_3D('',#1226,#973,#972);
#811=AXIS2_PLACEMENT_3D('',#1227,#975,#974);
#812=AXIS2_PLACEMENT_3D('',#1228,#977,#976);
#813=AXIS2_PLACEMENT_3D('',#1229,#979,#978);
#814=AXIS2_PLACEMENT_3D('',#1234,#985,#984);
#815=AXIS2_PLACEMENT_3D('',#1235,#987,#986);
#816=AXIS2_PLACEMENT_3D('',#1236,#989,#988);
#817=AXIS2_PLACEMENT_3D('',#1237,#991,#990);
#818=AXIS2_PLACEMENT_3D('',#1238,#993,#992);
#819=AXIS2_PLACEMENT_3D('',#1239,#995,#994);
#820=AXIS2_PLACEMENT_3D('',#1240,#997,#996);
#821=AXIS2_PLACEMENT_3D('',#1241,#999,#998);
#822=AXIS2_PLACEMENT_3D('',#1242,#1001,#1000);
#823=AXIS2_PLACEMENT_3D('',#1243,#1003,#1002);
#824=AXIS2_PLACEMENT_3D('',#1244,#1005,#1004);
#825=AXIS2_PLACEMENT_3D('',#1245,#1007,#1006);
#826=AXIS2_PLACEMENT_3D('',#1246,#1009,#1008);
#827=AXIS2_PLACEMENT_3D('',#1247,#1011,#1010);
#828=AXIS2_PLACEMENT_3D('',#1248,#1013,#1012);
#829=AXIS2_PLACEMENT_3D('',#1249,#1015,#1014);
#830=AXIS2_PLACEMENT_3D('',#1250,#1017,#1016);
#831=AXIS2_PLACEMENT_3D('',#1251,#1019,#1018);
#832=AXIS2_PLACEMENT_3D('',#1252,#1021,#1020);
#833=AXIS2_PLACEMENT_3D('',#1253,#1023,#1022);
#834=AXIS2_PLACEMENT_3D('',#1254,#1025,#1024);
#835=AXIS2_PLACEMENT_3D('',#1255,#1027,#1026);
#836=AXIS2_PLACEMENT_3D('',#1256,#1029,#1028);
#837=AXIS2_PLACEMENT_3D('',#1257,#1031,#1030);
#838=AXIS2_PLACEMENT_3D('',#1258,#1033,#1032);
#839=AXIS2_PLACEMENT_3D('',#1259,#1035,#1034);
#840=AXIS2_PLACEMENT_3D('',#1260,#1037,#1036);
#841=AXIS2_PLACEMENT_3D('',#1261,#1039,#1038);
#842=AXIS2_PLACEMENT_3D('',#1262,#1041,#1040);
#843=AXIS2_PLACEMENT_3D('',#1263,#1043,#1042);
#844=AXIS2_PLACEMENT_3D('',#1264,#1045,#1044);
#845=AXIS2_PLACEMENT_3D('',#1265,#1047,#1046);
#846=AXIS2_PLACEMENT_3D('',#1266,#1049,#1048);
#847=AXIS2_PLACEMENT_3D('',#1267,#1051,#1050);
#848=AXIS2_PLACEMENT_3D('',#1268,#1053,#1052);
#849=AXIS2_PLACEMENT_3D('',#1269,#1055,#1054);
#850=AXIS2_PLACEMENT_3D('',#1270,#1057,#1056);
#851=DIRECTION('',(1.,0.,0.));
#852=DIRECTION('',(0.,0.,1.));
#853=DIRECTION('',(-7.23466575119356E-016,-1.,7.1212664071222E-015));
#854=DIRECTION('',(-7.23466575119356E-016,-1.,7.1212664071222E-015));
#855=DIRECTION('',(-7.23466575119356E-016,-1.,7.1212664071222E-015));
#856=DIRECTION('',(-7.23466575119356E-016,-1.,7.1212664071222E-015));
#857=DIRECTION('',(-7.23466575119356E-016,-1.,7.1212664071222E-015));
#858=DIRECTION('',(-7.23466575119356E-016,-1.,7.1212664071222E-015));
#859=DIRECTION('',(-7.23466575119356E-016,-1.,7.1212664071222E-015));
#860=DIRECTION('',(-7.23466575119356E-016,-1.,7.1212664071222E-015));
#861=DIRECTION('',(-7.23466575119356E-016,-1.,7.1212664071222E-015));
#862=DIRECTION('',(-7.23466575119356E-016,-1.,7.1212664071222E-015));
#863=DIRECTION('',(-7.23466575119356E-016,-1.,7.1212664071222E-015));
#864=DIRECTION('',(-7.23466575119356E-016,-1.,7.1212664071222E-015));
#865=DIRECTION('',(-7.23466575119356E-016,-1.,7.1212664071222E-015));
#866=DIRECTION('',(-7.23466575119356E-016,-1.,7.1212664071222E-015));
#867=DIRECTION('',(-7.23466575119356E-016,-1.,7.1212664071222E-015));
#868=DIRECTION('',(-7.23466575119356E-016,-1.,7.1212664071222E-015));
#869=DIRECTION('',(-7.23466575119356E-016,-1.,7.1212664071222E-015));
#870=DIRECTION('',(-7.23466575119356E-016,-1.,7.1212664071222E-015));
#871=DIRECTION('',(-7.23466575119356E-016,-1.,7.1212664071222E-015));
#872=DIRECTION('',(-7.23466575119356E-016,-1.,7.1212664071222E-015));
#873=DIRECTION('',(-7.23466575119356E-016,-1.,7.1212664071222E-015));
#874=DIRECTION('',(-7.23466575119356E-016,-1.,7.1212664071222E-015));
#875=DIRECTION('',(-7.23466575119356E-016,-1.,7.1212664071222E-015));
#876=DIRECTION('',(-7.23466575119356E-016,-1.,7.1212664071222E-015));
#877=DIRECTION('',(-7.23466575119356E-016,-1.,7.1212664071222E-015));
#878=DIRECTION('',(-7.23466575119356E-016,-1.,7.1212664071222E-015));
#879=DIRECTION('',(-7.23466575119356E-016,-1.,7.1212664071222E-015));
#880=DIRECTION('',(-7.23466575119356E-016,-1.,7.1212664071222E-015));
#881=DIRECTION('',(-7.23466575119356E-016,-1.,7.1212664071222E-015));
#882=DIRECTION('',(-7.23466575119356E-016,-1.,7.1212664071222E-015));
#883=DIRECTION('',(-7.23466575119356E-016,-1.,7.1212664071222E-015));
#884=DIRECTION('',(-7.23466575119356E-016,-1.,7.1212664071222E-015));
#885=DIRECTION('',(-7.23466575119356E-016,-1.,7.1212664071222E-015));
#886=DIRECTION('',(-7.23466575119356E-016,-1.,7.1212664071222E-015));
#887=DIRECTION('',(-7.23466575119356E-016,-1.,7.1212664071222E-015));
#888=DIRECTION('',(0.748410894854876,-0.,0.663235352241211));
#889=DIRECTION('',(-0.,-0.,1.));
#890=DIRECTION('',(-0.998687662728011,-0.,-0.0512147665704117));
#891=DIRECTION('',(-0.981395134708281,0.,0.191998931171281));
#892=DIRECTION('',(0.,-1.,0.));
#893=DIRECTION('',(-0.53285032718004,0.,0.846209506460501));
#894=DIRECTION('',(0.,-1.,0.));
#895=DIRECTION('',(-0.207500574898837,0.,0.978234895828529));
#896=DIRECTION('',(0.,-1.,0.));
#897=DIRECTION('',(-0.0403243421521524,-0.,-0.999186642940145));
#898=DIRECTION('',(-1.,-0.,-1.01054966863659E-013));
#899=DIRECTION('',(0.395401376467539,0.,-0.918508438441137));
#900=DIRECTION('',(0.,1.,0.));
#901=DIRECTION('',(1.,-0.,0.));
#902=DIRECTION('',(0.,1.,0.));
#903=DIRECTION('',(5.68463143183659E-014,-0.,-1.));
#904=DIRECTION('',(-1.,-0.,-0.));
#905=DIRECTION('',(-0.0827615962153836,-0.,-0.996569374500281));
#906=DIRECTION('',(-1.,-0.,-0.));
#907=DIRECTION('',(-0.497867482578305,-0.,-0.867253117487128));
#908=DIRECTION('',(1.71251706901969E-014,0.,1.));
#909=DIRECTION('',(0.,-1.,0.));
#910=DIRECTION('',(-1.,-0.,-4.72393816112838E-015));
#911=DIRECTION('',(0.911920950378323,0.,0.410365910208313));
#912=DIRECTION('',(0.,-1.,0.));
#913=DIRECTION('',(-1.,-0.,-1.25055521493776E-012));
#914=DIRECTION('',(-0.0455044909146448,-0.,-0.998964134144264));
#915=DIRECTION('',(-0.872727246385623,-0.,-0.488208104619503));
#916=DIRECTION('',(0.406285859598147,0.,-0.913746026142163));
#917=DIRECTION('',(0.,1.,0.));
#918=DIRECTION('',(0.996200103491321,0.,-0.0870939366654247));
#919=DIRECTION('',(0.,1.,0.));
#920=DIRECTION('',(-0.087093936668027,-0.,-0.996200103491094));
#921=DIRECTION('',(-1.,-0.,-0.));
#922=DIRECTION('',(-0.0871669502809143,-0.,-0.996193717496113));
#923=DIRECTION('',(-0.849629952478343,-0.,-0.527379316859931));
#924=DIRECTION('',(0.642837470618937,0.,-0.766002602063627));
#925=DIRECTION('',(0.,1.,0.));
#926=DIRECTION('',(0.864724364507136,0.,-0.502246725651576));
#927=DIRECTION('',(0.,1.,0.));
#928=DIRECTION('',(-0.332041132955981,0.,0.943264907661315));
#929=DIRECTION('',(0.,-1.,0.));
#930=DIRECTION('',(-0.0494560255150311,0.,0.998776302051794));
#931=DIRECTION('',(0.,-1.,0.));
#932=DIRECTION('',(-0.0599070812100742,-0.,-0.998203957926881));
#933=DIRECTION('',(1.,-0.,-0.));
#934=DIRECTION('',(0.753010069410754,-0.,0.658008993377758));
#935=DIRECTION('',(1.,-0.,-0.));
#936=DIRECTION('',(0.748410894854876,-0.,0.663235352241211));
#937=DIRECTION('',(-0.,-0.,1.));
#938=DIRECTION('',(-0.998687662728011,-0.,-0.0512147665704117));
#939=DIRECTION('',(-0.981395134708281,0.,0.191998931171281));
#940=DIRECTION('',(0.,-1.,0.));
#941=DIRECTION('',(-0.53285032718004,0.,0.846209506460501));
#942=DIRECTION('',(0.,-1.,0.));
#943=DIRECTION('',(-0.207500574898837,0.,0.978234895828529));
#944=DIRECTION('',(0.,-1.,0.));
#945=DIRECTION('',(-0.0403243421521524,-0.,-0.999186642940145));
#946=DIRECTION('',(-1.,-0.,-1.01054966863659E-013));
#947=DIRECTION('',(0.395401376467539,0.,-0.918508438441137));
#948=DIRECTION('',(0.,1.,0.));
#949=DIRECTION('',(1.,-0.,0.));
#950=DIRECTION('',(0.,1.,0.));
#951=DIRECTION('',(5.68463143183659E-014,-0.,-1.));
#952=DIRECTION('',(-1.,-0.,-0.));
#953=DIRECTION('',(-0.0827615962153836,-0.,-0.996569374500281));
#954=DIRECTION('',(-1.,-0.,-0.));
#955=DIRECTION('',(-0.497867482578305,-0.,-0.867253117487128));
#956=DIRECTION('',(1.71251706901969E-014,0.,1.));
#957=DIRECTION('',(0.,-1.,0.));
#958=DIRECTION('',(-1.,-0.,-4.72393816112838E-015));
#959=DIRECTION('',(0.911920950378323,0.,0.410365910208313));
#960=DIRECTION('',(0.,-1.,0.));
#961=DIRECTION('',(-1.,-0.,-1.25055521493776E-012));
#962=DIRECTION('',(-0.0455044909146448,-0.,-0.998964134144264));
#963=DIRECTION('',(-0.872727246385623,-0.,-0.488208104619503));
#964=DIRECTION('',(0.406285859598147,0.,-0.913746026142163));
#965=DIRECTION('',(0.,1.,0.));
#966=DIRECTION('',(0.996200103491321,0.,-0.0870939366654247));
#967=DIRECTION('',(0.,1.,0.));
#968=DIRECTION('',(-0.087093936668027,-0.,-0.996200103491094));
#969=DIRECTION('',(-1.,-0.,-0.));
#970=DIRECTION('',(-0.0871669502809143,-0.,-0.996193717496113));
#971=DIRECTION('',(-0.849629952478343,-0.,-0.527379316859931));
#972=DIRECTION('',(0.642837470618937,0.,-0.766002602063627));
#973=DIRECTION('',(0.,1.,0.));
#974=DIRECTION('',(0.864724364507136,0.,-0.502246725651576));
#975=DIRECTION('',(0.,1.,0.));
#976=DIRECTION('',(-0.332041132955981,0.,0.943264907661315));
#977=DIRECTION('',(0.,-1.,0.));
#978=DIRECTION('',(-0.0494560255150311,0.,0.998776302051794));
#979=DIRECTION('',(0.,-1.,0.));
#980=DIRECTION('',(-0.0599070812100742,-0.,-0.998203957926881));
#981=DIRECTION('',(1.,-0.,-0.));
#982=DIRECTION('',(0.753010069410754,-0.,0.658008993377758));
#983=DIRECTION('',(1.,-0.,-0.));
#984=DIRECTION('',(0.,1.,-7.1212664071222E-015));
#985=DIRECTION('',(-0.,-7.1212664071222E-015,-1.));
#986=DIRECTION('',(-0.753010069410754,0.,-0.658008993377758));
#987=DIRECTION('',(0.658008993377758,-5.83843282435631E-015,-0.753010069410754
));
#988=DIRECTION('',(0.,1.,-7.1212664071222E-015));
#989=DIRECTION('',(-0.,-7.1212664071222E-015,-1.));
#990=DIRECTION('',(0.0599070812100743,1.23259516440783E-032,0.998203957926881)
);
#991=DIRECTION('',(-0.998203957926881,1.14878148368199E-015,0.0599070812100742
));
#992=DIRECTION('',(0.,-7.1212664071222E-015,-1.));
#993=DIRECTION('',(-7.23466575119356E-016,-1.,7.1212664071222E-015));
#994=DIRECTION('',(0.,-7.1212664071222E-015,-1.));
#995=DIRECTION('',(-7.23466575119356E-016,-1.,7.1212664071222E-015));
#996=DIRECTION('',(0.,-7.1212664071222E-015,-1.));
#997=DIRECTION('',(-7.23466575119356E-016,-1.,7.1212664071222E-015));
#998=DIRECTION('',(0.,-7.1212664071222E-015,-1.));
#999=DIRECTION('',(-7.23466575119356E-016,-1.,7.1212664071222E-015));
#1000=DIRECTION('',(0.849629952478344,-3.94430452610506E-031,0.527379316859931
));
#1001=DIRECTION('',(-0.527379316859931,6.4319825472263E-015,0.849629952478344)
);
#1002=DIRECTION('',(0.0871669502809143,-2.46519032881566E-032,
0.996193717496113));
#1003=DIRECTION('',(-0.996193717496113,1.3414519317991E-015,0.0871669502809143
));
#1004=DIRECTION('',(0.,-1.,7.1212664071222E-015));
#1005=DIRECTION('',(-0.,7.1212664071222E-015,1.));
#1006=DIRECTION('',(0.0870939366680271,0.,0.996200103491094));
#1007=DIRECTION('',(-0.996200103491094,1.3409366024643E-015,0.0870939366680271
));
#1008=DIRECTION('',(0.,-7.1212664071222E-015,-1.));
#1009=DIRECTION('',(-7.23466575119356E-016,-1.,7.1212664071222E-015));
#1010=DIRECTION('',(0.,-7.1212664071222E-015,-1.));
#1011=DIRECTION('',(-7.23466575119356E-016,-1.,7.1212664071222E-015));
#1012=DIRECTION('',(0.872727246385623,0.,0.488208104619503));
#1013=DIRECTION('',(-0.488208104619503,6.56812546766079E-015,0.872727246385623
));
#1014=DIRECTION('',(0.0455044909146448,0.,0.998964134144264));
#1015=DIRECTION('',(-0.998964134144264,1.04676676332008E-015,
0.0455044909146448));
#1016=DIRECTION('',(1.,0.,1.25055521493776E-012));
#1017=DIRECTION('',(-1.25055521493776E-012,7.12126640712311E-015,1.));
#1018=DIRECTION('',(0.,-7.1212664071222E-015,-1.));
#1019=DIRECTION('',(-7.23466575119356E-016,-1.,7.1212664071222E-015));
#1020=DIRECTION('',(0.,-1.,7.12126640712221E-015));
#1021=DIRECTION('',(-4.72393816112838E-015,7.12126640712221E-015,1.));
#1022=DIRECTION('',(0.,-7.1212664071222E-015,-1.));
#1023=DIRECTION('',(-7.23466575119356E-016,-1.,7.1212664071222E-015));
#1024=DIRECTION('',(0.497867482578305,0.,0.867253117487128));
#1025=DIRECTION('',(-0.867253117487128,4.17287562155338E-015,0.497867482578305
));
#1026=DIRECTION('',(0.,-1.,7.1212664071222E-015));
#1027=DIRECTION('',(-0.,7.1212664071222E-015,1.));
#1028=DIRECTION('',(0.0827615962153836,-1.23259516440783E-032,
0.996569374500281));
#1029=DIRECTION('',(-0.996569374500281,1.31035200716698E-015,
0.0827615962153836));
#1030=DIRECTION('',(0.,-1.,7.1212664071222E-015));
#1031=DIRECTION('',(-0.,7.1212664071222E-015,1.));
#1032=DIRECTION('',(-5.68463143183659E-014,0.,1.));
#1033=DIRECTION('',(-1.,7.23466575118951E-016,-5.68463143183659E-014));
#1034=DIRECTION('',(0.,-7.1212664071222E-015,-1.));
#1035=DIRECTION('',(-7.23466575119356E-016,-1.,7.1212664071222E-015));
#1036=DIRECTION('',(0.,-7.1212664071222E-015,-1.));
#1037=DIRECTION('',(-7.23466575119356E-016,-1.,7.1212664071222E-015));
#1038=DIRECTION('',(1.,0.,1.01054966863659E-013));
#1039=DIRECTION('',(-1.01054966863659E-013,7.12126640712228E-015,1.));
#1040=DIRECTION('',(0.0403243421521524,0.,0.999186642940145));
#1041=DIRECTION('',(-0.999186642940145,1.01003852163034E-015,
0.0403243421521524));
#1042=DIRECTION('',(0.,-7.1212664071222E-015,-1.));
#1043=DIRECTION('',(-7.23466575119356E-016,-1.,7.1212664071222E-015));
#1044=DIRECTION('',(0.,-7.1212664071222E-015,-1.));
#1045=DIRECTION('',(-7.23466575119356E-016,-1.,7.1212664071222E-015));
#1046=DIRECTION('',(0.,-7.1212664071222E-015,-1.));
#1047=DIRECTION('',(-7.23466575119356E-016,-1.,7.1212664071222E-015));
#1048=DIRECTION('',(0.998687662728011,0.,0.0512147665704117));
#1049=DIRECTION('',(-0.0512147665704117,7.14897307555861E-015,
0.998687662728011));
#1050=DIRECTION('',(7.23466575119356E-016,1.,0.));
#1051=DIRECTION('',(1.,-7.23466575119356E-016,0.));
#1052=DIRECTION('',(-0.748410894854876,0.,-0.663235352241211));
#1053=DIRECTION('',(0.663235352241211,-5.80946197303832E-015,
-0.748410894854876));
#1054=DIRECTION('',(0.,0.,-1.));
#1055=DIRECTION('',(0.,-1.,0.));
#1056=DIRECTION('',(0.,0.,-1.));
#1057=DIRECTION('',(0.,-1.,0.));
#1058=CARTESIAN_POINT('',(0.,0.,0.));
#1059=CARTESIAN_POINT('',(168.702566000001,2168.281361,2199.85513599999));
#1060=CARTESIAN_POINT('',(103.080454000001,2168.281361,2141.70137999999));
#1061=CARTESIAN_POINT('',(103.080454000001,2168.281361,2100.70137999999));
#1062=CARTESIAN_POINT('',(115.328069000001,2168.281361,2101.32946299999));
#1063=CARTESIAN_POINT('',(117.338168085168,2168.281361,2114.28736332376));
#1064=CARTESIAN_POINT('',(123.652239763008,2168.281361,2123.49654910732));
#1065=CARTESIAN_POINT('',(131.162921000001,2168.281361,2126.54434799999));
#1066=CARTESIAN_POINT('',(131.769817000001,2168.281361,2141.58246999999));
#1067=CARTESIAN_POINT('',(136.269817000001,2168.281361,2141.58246999999));
#1068=CARTESIAN_POINT('',(147.156850519549,2168.281361,2143.66834116748));
#1069=CARTESIAN_POINT('',(158.214764000002,2168.281361,2160.46756373932));
#1070=CARTESIAN_POINT('',(158.214764000002,2168.281361,2164.46735999999));
#1071=CARTESIAN_POINT('',(164.964764000002,2168.281361,2164.46735999999));
#1072=CARTESIAN_POINT('',(165.796139000001,2168.281361,2174.47831799999));
#1073=CARTESIAN_POINT('',(169.796139000001,2168.281361,2174.47831799999));
#1074=CARTESIAN_POINT('',(171.079367054956,2168.281361,2176.71361869756));
#1075=CARTESIAN_POINT('',(179.715362533333,2168.281361,2181.71378999999));
#1076=CARTESIAN_POINT('',(275.979821418172,2168.281361,2181.71378999999));
#1077=CARTESIAN_POINT('',(283.541781000001,2168.281361,2176.82434299998));
#1078=CARTESIAN_POINT('',(291.541781000002,2168.281361,2176.82434299999));
#1079=CARTESIAN_POINT('',(292.788991000001,2168.281361,2204.20445499999));
#1080=CARTESIAN_POINT('',(293.417169000001,2168.281361,2204.55586099999));
#1081=CARTESIAN_POINT('',(302.748382714292,2168.281361,2201.83404664693));
#1082=CARTESIAN_POINT('',(307.655012861241,2168.281361,2208.70975121798));
#1083=CARTESIAN_POINT('',(308.139823000001,2168.281361,2214.25511899999));
#1084=CARTESIAN_POINT('',(314.389823000001,2168.281361,2214.25511899999));
#1085=CARTESIAN_POINT('',(315.056202000001,2168.281361,2221.87087899999));
#1086=CARTESIAN_POINT('',(315.607589000002,2168.281361,2222.21313399999));
#1087=CARTESIAN_POINT('',(333.632012942665,2168.281361,2223.96906376241));
#1088=CARTESIAN_POINT('',(339.244503695191,2168.281361,2230.64060434485));
#1089=CARTESIAN_POINT('',(347.935344165605,2168.281361,2237.83590999252));
#1090=CARTESIAN_POINT('',(356.750368000001,2168.281361,2239.56754499999));
#1091=CARTESIAN_POINT('',(357.346463000001,2168.281361,2249.49999999999));
#1092=CARTESIAN_POINT('',(322.220920368735,2168.281361,2249.49999999999));
#1093=CARTESIAN_POINT('',(265.408501598243,2168.281361,2199.85513599999));
#1094=CARTESIAN_POINT('',(168.702566,168.281361,2199.855136));
#1095=CARTESIAN_POINT('',(103.080454,168.281361,2141.70138));
#1096=CARTESIAN_POINT('',(103.080454,168.281361,2100.70138));
#1097=CARTESIAN_POINT('',(115.328069,168.281361,2101.329463));
#1098=CARTESIAN_POINT('',(117.338168085166,168.281361,2114.28736332377));
#1099=CARTESIAN_POINT('',(123.652239763007,168.281361,2123.49654910733));
#1100=CARTESIAN_POINT('',(131.162921,168.281361,2126.544348));
#1101=CARTESIAN_POINT('',(131.769817,168.281361,2141.58247));
#1102=CARTESIAN_POINT('',(136.269817,168.281361,2141.58247));
#1103=CARTESIAN_POINT('',(147.156850519548,168.281361,2143.6683411675));
#1104=CARTESIAN_POINT('',(158.214764,168.281361,2160.46756373933));
#1105=CARTESIAN_POINT('',(158.214764,168.281361,2164.46736));
#1106=CARTESIAN_POINT('',(164.964764,168.281361,2164.46736));
#1107=CARTESIAN_POINT('',(165.796139,168.281361,2174.478318));
#1108=CARTESIAN_POINT('',(169.796139,168.281361,2174.478318));
#1109=CARTESIAN_POINT('',(171.079367054955,168.281361,2176.71361869757));
#1110=CARTESIAN_POINT('',(179.715362533331,168.281361,2181.71379));
#1111=CARTESIAN_POINT('',(275.979821418171,168.281361,2181.71379));
#1112=CARTESIAN_POINT('',(283.541781,168.281361,2176.82434299999));
#1113=CARTESIAN_POINT('',(291.541781,168.281361,2176.824343));
#1114=CARTESIAN_POINT('',(292.788991,168.281361,2204.204455));
#1115=CARTESIAN_POINT('',(293.417169,168.281361,2204.555861));
#1116=CARTESIAN_POINT('',(302.748382714291,168.281361,2201.83404664695));
#1117=CARTESIAN_POINT('',(307.655012861239,168.281361,2208.709751218));
#1118=CARTESIAN_POINT('',(308.139823,168.281361,2214.255119));
#1119=CARTESIAN_POINT('',(314.389823,168.281361,2214.255119));
#1120=CARTESIAN_POINT('',(315.056202,168.281361,2221.870879));
#1121=CARTESIAN_POINT('',(315.607589,168.281361,2222.213134));
#1122=CARTESIAN_POINT('',(333.632012942663,168.281361,2223.96906376242));
#1123=CARTESIAN_POINT('',(339.244503695189,168.281361,2230.64060434487));
#1124=CARTESIAN_POINT('',(347.935344165603,168.281361,2237.83590999254));
#1125=CARTESIAN_POINT('',(356.750368,168.281361,2239.567545));
#1126=CARTESIAN_POINT('',(357.346463,168.281361,2249.5));
#1127=CARTESIAN_POINT('',(322.220920368734,168.281361,2249.5));
#1128=CARTESIAN_POINT('',(265.408501598241,168.281361,2199.855136));
#1129=CARTESIAN_POINT('',(265.408501598243,2168.281361,2199.85513599999));
#1130=CARTESIAN_POINT('',(322.220920368735,2168.281361,2249.49999999999));
#1131=CARTESIAN_POINT('',(357.346463000001,2168.281361,2249.49999999999));
#1132=CARTESIAN_POINT('',(356.750368000001,2168.281361,2239.56754499999));
#1133=CARTESIAN_POINT('',(347.935344165605,2168.281361,2237.83590999252));
#1134=CARTESIAN_POINT('',(339.244503695191,2168.281361,2230.64060434485));
#1135=CARTESIAN_POINT('',(333.632012942665,2168.281361,2223.96906376241));
#1136=CARTESIAN_POINT('',(315.607589000002,2168.281361,2222.21313399999));
#1137=CARTESIAN_POINT('',(315.056202000001,2168.281361,2221.87087899999));
#1138=CARTESIAN_POINT('',(314.389823000001,2168.281361,2214.25511899999));
#1139=CARTESIAN_POINT('',(308.139823000001,2168.281361,2214.25511899999));
#1140=CARTESIAN_POINT('',(307.655012861241,2168.281361,2208.70975121798));
#1141=CARTESIAN_POINT('',(302.748382714292,2168.281361,2201.83404664693));
#1142=CARTESIAN_POINT('',(293.417169000001,2168.281361,2204.55586099999));
#1143=CARTESIAN_POINT('',(292.788991000001,2168.281361,2204.20445499999));
#1144=CARTESIAN_POINT('',(291.541781000002,2168.281361,2176.82434299999));
#1145=CARTESIAN_POINT('',(283.541781000001,2168.281361,2176.82434299998));
#1146=CARTESIAN_POINT('',(275.979821418172,2168.281361,2181.71378999999));
#1147=CARTESIAN_POINT('',(179.715362533333,2168.281361,2181.71378999999));
#1148=CARTESIAN_POINT('',(171.079367054956,2168.281361,2176.71361869756));
#1149=CARTESIAN_POINT('',(169.796139000001,2168.281361,2174.47831799999));
#1150=CARTESIAN_POINT('',(165.796139000001,2168.281361,2174.47831799999));
#1151=CARTESIAN_POINT('',(164.964764000002,2168.281361,2164.46735999999));
#1152=CARTESIAN_POINT('',(158.214764000002,2168.281361,2164.46735999999));
#1153=CARTESIAN_POINT('',(158.214764000002,2168.281361,2160.46756373932));
#1154=CARTESIAN_POINT('',(147.156850519549,2168.281361,2143.66834116748));
#1155=CARTESIAN_POINT('',(136.269817000001,2168.281361,2141.58246999999));
#1156=CARTESIAN_POINT('',(131.769817000001,2168.281361,2141.58246999999));
#1157=CARTESIAN_POINT('',(131.162921000001,2168.281361,2126.54434799999));
#1158=CARTESIAN_POINT('',(123.652239763008,2168.281361,2123.49654910732));
#1159=CARTESIAN_POINT('',(117.338168085168,2168.281361,2114.28736332376));
#1160=CARTESIAN_POINT('',(115.328069000001,2168.281361,2101.32946299999));
#1161=CARTESIAN_POINT('',(103.080454000001,2168.281361,2100.70137999999));
#1162=CARTESIAN_POINT('',(103.080454000001,2168.281361,2141.70137999999));
#1163=CARTESIAN_POINT('',(168.702566000001,2168.281361,2199.85513599999));
#1164=CARTESIAN_POINT('',(103.080454000001,2168.281361,2141.70137999999));
#1165=CARTESIAN_POINT('',(103.080454000001,2168.281361,2100.70137999999));
#1166=CARTESIAN_POINT('',(115.328069000001,2168.281361,2101.32946299999));
#1167=CARTESIAN_POINT('',(281.107682899607,2168.281361,2082.24769786102));
#1168=CARTESIAN_POINT('',(131.153062652735,2168.281361,2111.58463442547));
#1169=CARTESIAN_POINT('',(135.953060422671,2168.281361,2103.96184893258));
#1170=CARTESIAN_POINT('',(131.769817000001,2168.281361,2141.58246999999));
#1171=CARTESIAN_POINT('',(136.269817000001,2168.281361,2141.58246999999));
#1172=CARTESIAN_POINT('',(136.987498403072,2168.281361,2167.2915157146));
#1173=CARTESIAN_POINT('',(139.925087096927,2168.281361,2160.46756373932));
#1174=CARTESIAN_POINT('',(158.214764000002,2168.281361,2164.46735999999));
#1175=CARTESIAN_POINT('',(164.964764000002,2168.281361,2164.46735999999));
#1176=CARTESIAN_POINT('',(165.796139000001,2168.281361,2174.47831799999));
#1177=CARTESIAN_POINT('',(169.796139000001,2168.281361,2174.47831799999));
#1178=CARTESIAN_POINT('',(171.079367054956,2168.281361,2176.71361869756));
#1179=CARTESIAN_POINT('',(179.715362533333,2168.281361,2171.7559180659));
#1180=CARTESIAN_POINT('',(275.979821418172,2168.281361,2181.71378999999));
#1181=CARTESIAN_POINT('',(275.979821418172,2168.281361,2173.42144889444));
#1182=CARTESIAN_POINT('',(291.541781000002,2168.281361,2176.82434299999));
#1183=CARTESIAN_POINT('',(292.788991000001,2168.281361,2204.20445499999));
#1184=CARTESIAN_POINT('',(293.417169000001,2168.281361,2204.55586099999));
#1185=CARTESIAN_POINT('',(299.691304725722,2168.281361,2208.70948372571));
#1186=CARTESIAN_POINT('',(299.36908738854,2168.281361,2209.43415775619));
#1187=CARTESIAN_POINT('',(308.139823000001,2168.281361,2214.25511899999));
#1188=CARTESIAN_POINT('',(314.389823000001,2168.281361,2214.25511899999));
#1189=CARTESIAN_POINT('',(315.056202000001,2168.281361,2221.87087899999));
#1190=CARTESIAN_POINT('',(315.607589000002,2168.281361,2222.21313399999));
#1191=CARTESIAN_POINT('',(323.339463013588,2168.281361,2236.23362578296));
#1192=CARTESIAN_POINT('',(317.371839590362,2168.281361,2243.3446223867));
#1193=CARTESIAN_POINT('',(353.35266602823,2168.281361,2222.44634195609));
#1194=CARTESIAN_POINT('',(358.293110459494,2168.281361,2208.41149085564));
#1195=CARTESIAN_POINT('',(357.346463000001,2168.281361,2249.49999999999));
#1196=CARTESIAN_POINT('',(322.220920368735,2168.281361,2249.49999999999));
#1197=CARTESIAN_POINT('',(265.408501598243,2168.281361,2199.85513599999));
#1198=CARTESIAN_POINT('',(168.702566000001,2168.281361,2199.85513599999));
#1199=CARTESIAN_POINT('',(103.080454,168.281361,2141.70138));
#1200=CARTESIAN_POINT('',(103.080454,168.281361,2100.70138));
#1201=CARTESIAN_POINT('',(115.328069,168.281361,2101.329463));
#1202=CARTESIAN_POINT('',(281.107682899605,168.281361,2082.24769786104));
#1203=CARTESIAN_POINT('',(131.153062652733,168.281361,2111.58463442548));
#1204=CARTESIAN_POINT('',(135.95306042267,168.281361,2103.96184893259));
#1205=CARTESIAN_POINT('',(131.769817,168.281361,2141.58247));
#1206=CARTESIAN_POINT('',(136.269817,168.281361,2141.58247));
#1207=CARTESIAN_POINT('',(136.98749840307,168.281361,2167.29151571462));
#1208=CARTESIAN_POINT('',(139.925087096926,168.281361,2160.46756373933));
#1209=CARTESIAN_POINT('',(158.214764,168.281361,2164.46736));
#1210=CARTESIAN_POINT('',(164.964764,168.281361,2164.46736));
#1211=CARTESIAN_POINT('',(165.796139,168.281361,2174.478318));
#1212=CARTESIAN_POINT('',(169.796139,168.281361,2174.478318));
#1213=CARTESIAN_POINT('',(171.079367054954,168.281361,2176.71361869757));
#1214=CARTESIAN_POINT('',(179.715362533332,168.281361,2171.75591806591));
#1215=CARTESIAN_POINT('',(275.97982141817,168.281361,2181.71379));
#1216=CARTESIAN_POINT('',(275.97982141817,168.281361,2173.42144889445));
#1217=CARTESIAN_POINT('',(291.541781,168.281361,2176.824343));
#1218=CARTESIAN_POINT('',(292.788991,168.281361,2204.204455));
#1219=CARTESIAN_POINT('',(293.417169,168.281361,2204.555861));
#1220=CARTESIAN_POINT('',(299.691304725721,168.281361,2208.70948372572));
#1221=CARTESIAN_POINT('',(299.369087388539,168.281361,2209.43415775621));
#1222=CARTESIAN_POINT('',(308.139823,168.281361,2214.255119));
#1223=CARTESIAN_POINT('',(314.389823,168.281361,2214.255119));
#1224=CARTESIAN_POINT('',(315.056202,168.281361,2221.870879));
#1225=CARTESIAN_POINT('',(315.607589,168.281361,2222.213134));
#1226=CARTESIAN_POINT('',(323.339463013587,168.281361,2236.23362578298));
#1227=CARTESIAN_POINT('',(317.371839590361,168.281361,2243.34462238672));
#1228=CARTESIAN_POINT('',(353.352666028228,168.281361,2222.4463419561));
#1229=CARTESIAN_POINT('',(358.293110459493,168.281361,2208.41149085565));
#1230=CARTESIAN_POINT('',(357.346463,168.281361,2249.5));
#1231=CARTESIAN_POINT('',(322.220920368734,168.281361,2249.5));
#1232=CARTESIAN_POINT('',(265.408501598241,168.281361,2199.855136));
#1233=CARTESIAN_POINT('',(168.702566,168.281361,2199.855136));
#1234=CARTESIAN_POINT('',(168.702566000001,2168.281361,2199.85513599999));
#1235=CARTESIAN_POINT('',(265.408501598243,2168.281361,2199.85513599999));
#1236=CARTESIAN_POINT('',(322.220920368735,2168.281361,2249.49999999999));
#1237=CARTESIAN_POINT('',(357.346463000001,2168.281361,2249.49999999999));
#1238=CARTESIAN_POINT('',(358.293110459494,2168.281361,2208.41149085564));
#1239=CARTESIAN_POINT('',(353.35266602823,2168.281361,2222.44634195609));
#1240=CARTESIAN_POINT('',(317.371839590362,2168.281361,2243.3446223867));
#1241=CARTESIAN_POINT('',(323.339463013588,2168.281361,2236.23362578296));
#1242=CARTESIAN_POINT('',(315.607589000002,2168.281361,2222.21313399999));
#1243=CARTESIAN_POINT('',(315.056202000001,2168.281361,2221.87087899999));
#1244=CARTESIAN_POINT('',(314.389823000001,2168.281361,2214.25511899999));
#1245=CARTESIAN_POINT('',(308.139823000001,2168.281361,2214.25511899999));
#1246=CARTESIAN_POINT('',(299.36908738854,2168.281361,2209.43415775619));
#1247=CARTESIAN_POINT('',(299.691304725722,2168.281361,2208.70948372571));
#1248=CARTESIAN_POINT('',(293.417169000001,2168.281361,2204.55586099999));
#1249=CARTESIAN_POINT('',(292.788991000001,2168.281361,2204.20445499999));
#1250=CARTESIAN_POINT('',(291.541781000002,2168.281361,2176.82434299999));
#1251=CARTESIAN_POINT('',(275.979821418172,2168.281361,2173.42144889444));
#1252=CARTESIAN_POINT('',(275.979821418172,2168.281361,2181.71378999999));
#1253=CARTESIAN_POINT('',(179.715362533333,2168.281361,2171.7559180659));
#1254=CARTESIAN_POINT('',(171.079367054956,2168.281361,2176.71361869756));
#1255=CARTESIAN_POINT('',(169.796139000001,2168.281361,2174.47831799999));
#1256=CARTESIAN_POINT('',(165.796139000001,2168.281361,2174.47831799999));
#1257=CARTESIAN_POINT('',(164.964764000002,2168.281361,2164.46735999999));
#1258=CARTESIAN_POINT('',(158.214764000002,2168.281361,2164.46735999999));
#1259=CARTESIAN_POINT('',(139.925087096927,2168.281361,2160.46756373932));
#1260=CARTESIAN_POINT('',(136.987498403072,2168.281361,2167.2915157146));
#1261=CARTESIAN_POINT('',(136.269817000001,2168.281361,2141.58246999999));
#1262=CARTESIAN_POINT('',(131.769817000001,2168.281361,2141.58246999999));
#1263=CARTESIAN_POINT('',(135.953060422671,2168.281361,2103.96184893258));
#1264=CARTESIAN_POINT('',(131.153062652735,2168.281361,2111.58463442547));
#1265=CARTESIAN_POINT('',(281.107682899607,2168.281361,2082.24769786102));
#1266=CARTESIAN_POINT('',(115.328069000001,2168.281361,2101.32946299999));
#1267=CARTESIAN_POINT('',(103.080454000001,2168.281361,2100.70137999999));
#1268=CARTESIAN_POINT('',(103.080454000001,2168.281361,2141.70137999999));
#1269=CARTESIAN_POINT('',(358.293110459494,2168.281361,2208.41149085564));
#1270=CARTESIAN_POINT('',(358.293110459493,168.281361,2208.41149085565));
#1271=PRODUCT_DEFINITION_SHAPE('','',#1272);
#1272=PRODUCT_DEFINITION('','',#1284,#1289);
#1273=(
GEOMETRIC_REPRESENTATION_CONTEXT(3)
GLOBAL_UNCERTAINTY_ASSIGNED_CONTEXT((#1274))
GLOBAL_UNIT_ASSIGNED_CONTEXT((#1276,#1275,#1279))
REPRESENTATION_CONTEXT('','')
);
#1274=UNCERTAINTY_MEASURE_WITH_UNIT(LENGTH_MEASURE(0.001),#1276,'','tolerance'
);
#1275=(
CONVERSION_BASED_UNIT('',#1277)
NAMED_UNIT(#1283)
PLANE_ANGLE_UNIT()
);
#1276=(
CONVERSION_BASED_UNIT('',#1278)
LENGTH_UNIT()
NAMED_UNIT(#1282)
);
#1277=PLANE_ANGLE_MEASURE_WITH_UNIT(PLANE_ANGLE_MEASURE(0.0174532925199433),
#1280);
#1278=LENGTH_MEASURE_WITH_UNIT(LENGTH_MEASURE(1.),#1281);
#1279=(
NAMED_UNIT(*)
SI_UNIT($,.STERADIAN.)
SOLID_ANGLE_UNIT()
);
#1280=(
NAMED_UNIT(*)
PLANE_ANGLE_UNIT()
SI_UNIT($,.RADIAN.)
);
#1281=(
LENGTH_UNIT()
NAMED_UNIT(*)
SI_UNIT(.MILLI.,.METRE.)
);
#1282=DIMENSIONAL_EXPONENTS(1.,0.,0.,0.,0.,0.,0.);
#1283=DIMENSIONAL_EXPONENTS(0.,0.,0.,0.,0.,0.,0.);
#1284=PRODUCT_DEFINITION_FORMATION_WITH_SPECIFIED_SOURCE('','',#1287,
.NOT_KNOWN.);
#1285=PRODUCT_CATEGORY_RELATIONSHIP('','',#1290,#1286);
#1286=PRODUCT_RELATED_PRODUCT_CATEGORY('assembly','',(#1287));
#1287=PRODUCT('','master','',(#1288));
#1288=PRODUCT_CONTEXT('',#1292,'');
#1289=PRODUCT_DEFINITION_CONTEXT('',#1292,'part_definition');
#1290=PRODUCT_CATEGORY('part','');
#1291=APPLICATION_PROTOCOL_DEFINITION('international standard',
'automotive_design_cc2',1994,#1292);
#1292=APPLICATION_CONTEXT(
'configuration controlled 3D designs of mechanical parts and assemblies');
ENDSEC;
END-ISO-10303-21;
60979