ISO-10303-21;
HEADER;
/* Generated by software using Delcam plc STEP library */

FILE_DESCRIPTION(
/* description */ ('AP-214 File'),
/* implementation_level */ '2;1');

FILE_NAME(
/* name */ 'D901',
/* time_stamp */ 'Thu Dec 22 15:01:12 2016',
/* author */ (''),
/* organization */ (''),
/* preprocessor_version */ 'DELCAM STEP V1',
/* originating_system */ 'Exchange7.1.0006',
/* authorisation */ '');

FILE_SCHEMA (('AUTOMOTIVE_DESIGN'));
ENDSEC;
DATA;
#10=PRESENTATION_STYLE_ASSIGNMENT((#20));
#11=PRESENTATION_STYLE_ASSIGNMENT((#21));
#12=SURFACE_SIDE_STYLE('',(#14));
#13=SURFACE_SIDE_STYLE('',(#15));
#14=SURFACE_STYLE_FILL_AREA(#16);
#15=SURFACE_STYLE_FILL_AREA(#17);
#16=FILL_AREA_STYLE('',(#18));
#17=FILL_AREA_STYLE('',(#19));
#18=FILL_AREA_STYLE_COLOUR('',#39);
#19=FILL_AREA_STYLE_COLOUR('',#40);
#20=SURFACE_STYLE_USAGE(.BOTH.,#12);
#21=SURFACE_STYLE_USAGE(.BOTH.,#13);
#22=STYLED_ITEM('',(#10),#48);
#23=STYLED_ITEM('',(#10),#49);
#24=STYLED_ITEM('',(#10),#50);
#25=STYLED_ITEM('',(#10),#51);
#26=STYLED_ITEM('',(#10),#52);
#27=STYLED_ITEM('',(#10),#53);
#28=STYLED_ITEM('',(#10),#54);
#29=STYLED_ITEM('',(#10),#55);
#30=STYLED_ITEM('',(#10),#56);
#31=STYLED_ITEM('',(#10),#57);
#32=STYLED_ITEM('',(#10),#58);
#33=STYLED_ITEM('',(#10),#59);
#34=STYLED_ITEM('',(#10),#60);
#35=STYLED_ITEM('',(#10),#61);
#36=STYLED_ITEM('',(#10),#62);
#37=STYLED_ITEM('',(#10),#63);
#38=STYLED_ITEM('',(#11),#46);
#39=COLOUR_RGB('',0.,0.,0.);
#40=COLOUR_RGB('rgb_colour_1',0.4,0.4,0.4);
#41=MECHANICAL_DESIGN_GEOMETRIC_PRESENTATION_REPRESENTATION('',(#22,#23,#24,
#25,#26,#27,#28,#29,#30,#31,#32,#33,#34,#35,#36,#37,#38),#535);
#42=PRESENTATION_LAYER_ASSIGNMENT('43','D886',(#48,#49,#50,#51,#52,#53,#54,#55
,#56,#57,#58,#59,#60,#61,#62,#63,#46));
#43=SHAPE_REPRESENTATION_RELATIONSHIP('','',#348,#44);
#44=ADVANCED_BREP_SHAPE_REPRESENTATION('',(#45),#535);
#45=MANIFOLD_SOLID_BREP('2000',#46);
#46=CLOSED_SHELL('',(#48,#49,#50,#51,#52,#53,#54,#55,#56,#57,#58,#59,#60,#61,
#62,#63));
#47=CYLINDRICAL_SURFACE('',#362,142.650209276247);
#48=ADVANCED_FACE('',(#64),#180,.T.);
#49=ADVANCED_FACE('',(#65),#181,.T.);
#50=ADVANCED_FACE('',(#66),#182,.T.);
#51=ADVANCED_FACE('',(#67),#183,.T.);
#52=ADVANCED_FACE('',(#68),#184,.T.);
#53=ADVANCED_FACE('',(#69),#185,.T.);
#54=ADVANCED_FACE('',(#70),#186,.T.);
#55=ADVANCED_FACE('',(#71),#187,.T.);
#56=ADVANCED_FACE('',(#72),#188,.T.);
#57=ADVANCED_FACE('',(#73),#189,.T.);
#58=ADVANCED_FACE('',(#74),#47,.F.);
#59=ADVANCED_FACE('',(#75),#190,.T.);
#60=ADVANCED_FACE('',(#76),#191,.T.);
#61=ADVANCED_FACE('',(#77),#192,.T.);
#62=ADVANCED_FACE('',(#78),#193,.T.);
#63=ADVANCED_FACE('',(#79),#194,.F.);
#64=FACE_OUTER_BOUND('',#80,.T.);
#65=FACE_OUTER_BOUND('',#81,.T.);
#66=FACE_OUTER_BOUND('',#82,.T.);
#67=FACE_OUTER_BOUND('',#83,.T.);
#68=FACE_OUTER_BOUND('',#84,.T.);
#69=FACE_OUTER_BOUND('',#85,.T.);
#70=FACE_OUTER_BOUND('',#86,.T.);
#71=FACE_OUTER_BOUND('',#87,.T.);
#72=FACE_OUTER_BOUND('',#88,.T.);
#73=FACE_OUTER_BOUND('',#89,.T.);
#74=FACE_OUTER_BOUND('',#90,.T.);
#75=FACE_OUTER_BOUND('',#91,.T.);
#76=FACE_OUTER_BOUND('',#92,.T.);
#77=FACE_OUTER_BOUND('',#93,.T.);
#78=FACE_OUTER_BOUND('',#94,.T.);
#79=FACE_OUTER_BOUND('',#95,.T.);
#80=EDGE_LOOP('',(#96,#97,#98,#99));
#81=EDGE_LOOP('',(#100,#101,#102,#103));
#82=EDGE_LOOP('',(#104,#105,#106,#107));
#83=EDGE_LOOP('',(#108,#109,#110,#111));
#84=EDGE_LOOP('',(#112,#113,#114,#115));
#85=EDGE_LOOP('',(#116,#117,#118,#119));
#86=EDGE_LOOP('',(#120,#121,#122,#123));
#87=EDGE_LOOP('',(#124,#125,#126,#127));
#88=EDGE_LOOP('',(#128,#129,#130,#131));
#89=EDGE_LOOP('',(#132,#133,#134,#135));
#90=EDGE_LOOP('',(#136,#137,#138,#139));
#91=EDGE_LOOP('',(#140,#141,#142,#143));
#92=EDGE_LOOP('',(#144,#145,#146,#147));
#93=EDGE_LOOP('',(#148,#149,#150,#151));
#94=EDGE_LOOP('',(#152,#153,#154,#155,#156,#157,#158,#159,#160,#161,#162,#163,
#164,#165));
#95=EDGE_LOOP('',(#166,#167,#168,#169,#170,#171,#172,#173,#174,#175,#176,#177,
#178,#179));
#96=ORIENTED_EDGE('',*,*,#238,.F.);
#97=ORIENTED_EDGE('',*,*,#210,.F.);
#98=ORIENTED_EDGE('',*,*,#224,.T.);
#99=ORIENTED_EDGE('',*,*,#197,.T.);
#100=ORIENTED_EDGE('',*,*,#237,.F.);
#101=ORIENTED_EDGE('',*,*,#197,.F.);
#102=ORIENTED_EDGE('',*,*,#223,.T.);
#103=ORIENTED_EDGE('',*,*,#198,.T.);
#104=ORIENTED_EDGE('',*,*,#236,.F.);
#105=ORIENTED_EDGE('',*,*,#198,.F.);
#106=ORIENTED_EDGE('',*,*,#222,.T.);
#107=ORIENTED_EDGE('',*,*,#199,.T.);
#108=ORIENTED_EDGE('',*,*,#235,.F.);
#109=ORIENTED_EDGE('',*,*,#199,.F.);
#110=ORIENTED_EDGE('',*,*,#221,.T.);
#111=ORIENTED_EDGE('',*,*,#200,.T.);
#112=ORIENTED_EDGE('',*,*,#234,.F.);
#113=ORIENTED_EDGE('',*,*,#200,.F.);
#114=ORIENTED_EDGE('',*,*,#220,.T.);
#115=ORIENTED_EDGE('',*,*,#201,.T.);
#116=ORIENTED_EDGE('',*,*,#233,.F.);
#117=ORIENTED_EDGE('',*,*,#201,.F.);
#118=ORIENTED_EDGE('',*,*,#219,.T.);
#119=ORIENTED_EDGE('',*,*,#202,.T.);
#120=ORIENTED_EDGE('',*,*,#232,.F.);
#121=ORIENTED_EDGE('',*,*,#202,.F.);
#122=ORIENTED_EDGE('',*,*,#218,.T.);
#123=ORIENTED_EDGE('',*,*,#203,.T.);
#124=ORIENTED_EDGE('',*,*,#231,.F.);
#125=ORIENTED_EDGE('',*,*,#203,.F.);
#126=ORIENTED_EDGE('',*,*,#217,.T.);
#127=ORIENTED_EDGE('',*,*,#204,.T.);
#128=ORIENTED_EDGE('',*,*,#230,.F.);
#129=ORIENTED_EDGE('',*,*,#204,.F.);
#130=ORIENTED_EDGE('',*,*,#216,.T.);
#131=ORIENTED_EDGE('',*,*,#205,.T.);
#132=ORIENTED_EDGE('',*,*,#229,.F.);
#133=ORIENTED_EDGE('',*,*,#205,.F.);
#134=ORIENTED_EDGE('',*,*,#215,.T.);
#135=ORIENTED_EDGE('',*,*,#206,.T.);
#136=ORIENTED_EDGE('',*,*,#228,.F.);
#137=ORIENTED_EDGE('',*,*,#206,.F.);
#138=ORIENTED_EDGE('',*,*,#214,.T.);
#139=ORIENTED_EDGE('',*,*,#207,.T.);
#140=ORIENTED_EDGE('',*,*,#227,.F.);
#141=ORIENTED_EDGE('',*,*,#207,.F.);
#142=ORIENTED_EDGE('',*,*,#213,.T.);
#143=ORIENTED_EDGE('',*,*,#208,.T.);
#144=ORIENTED_EDGE('',*,*,#226,.F.);
#145=ORIENTED_EDGE('',*,*,#208,.F.);
#146=ORIENTED_EDGE('',*,*,#212,.T.);
#147=ORIENTED_EDGE('',*,*,#209,.T.);
#148=ORIENTED_EDGE('',*,*,#225,.F.);
#149=ORIENTED_EDGE('',*,*,#209,.F.);
#150=ORIENTED_EDGE('',*,*,#211,.T.);
#151=ORIENTED_EDGE('',*,*,#210,.T.);
#152=ORIENTED_EDGE('',*,*,#224,.F.);
#153=ORIENTED_EDGE('',*,*,#211,.F.);
#154=ORIENTED_EDGE('',*,*,#212,.F.);
#155=ORIENTED_EDGE('',*,*,#213,.F.);
#156=ORIENTED_EDGE('',*,*,#214,.F.);
#157=ORIENTED_EDGE('',*,*,#215,.F.);
#158=ORIENTED_EDGE('',*,*,#216,.F.);
#159=ORIENTED_EDGE('',*,*,#217,.F.);
#160=ORIENTED_EDGE('',*,*,#218,.F.);
#161=ORIENTED_EDGE('',*,*,#219,.F.);
#162=ORIENTED_EDGE('',*,*,#220,.F.);
#163=ORIENTED_EDGE('',*,*,#221,.F.);
#164=ORIENTED_EDGE('',*,*,#222,.F.);
#165=ORIENTED_EDGE('',*,*,#223,.F.);
#166=ORIENTED_EDGE('',*,*,#238,.T.);
#167=ORIENTED_EDGE('',*,*,#237,.T.);
#168=ORIENTED_EDGE('',*,*,#236,.T.);
#169=ORIENTED_EDGE('',*,*,#235,.T.);
#170=ORIENTED_EDGE('',*,*,#234,.T.);
#171=ORIENTED_EDGE('',*,*,#233,.T.);
#172=ORIENTED_EDGE('',*,*,#232,.T.);
#173=ORIENTED_EDGE('',*,*,#231,.T.);
#174=ORIENTED_EDGE('',*,*,#230,.T.);
#175=ORIENTED_EDGE('',*,*,#229,.T.);
#176=ORIENTED_EDGE('',*,*,#228,.T.);
#177=ORIENTED_EDGE('',*,*,#227,.T.);
#178=ORIENTED_EDGE('',*,*,#226,.T.);
#179=ORIENTED_EDGE('',*,*,#225,.T.);
#180=PLANE('',#352);
#181=PLANE('',#353);
#182=PLANE('',#354);
#183=PLANE('',#355);
#184=PLANE('',#356);
#185=PLANE('',#357);
#186=PLANE('',#358);
#187=PLANE('',#359);
#188=PLANE('',#360);
#189=PLANE('',#361);
#190=PLANE('',#363);
#191=PLANE('',#364);
#192=PLANE('',#365);
#193=PLANE('',#366);
#194=PLANE('',#367);
#195=CIRCLE('',#350,142.650209276247);
#196=CIRCLE('',#351,142.650209276247);
#197=EDGE_CURVE('',#332,#346,#239,.T.);
#198=EDGE_CURVE('',#331,#345,#240,.T.);
#199=EDGE_CURVE('',#330,#344,#241,.T.);
#200=EDGE_CURVE('',#329,#343,#242,.T.);
#201=EDGE_CURVE('',#328,#342,#243,.T.);
#202=EDGE_CURVE('',#327,#341,#244,.T.);
#203=EDGE_CURVE('',#326,#340,#245,.T.);
#204=EDGE_CURVE('',#325,#339,#246,.T.);
#205=EDGE_CURVE('',#324,#338,#247,.T.);
#206=EDGE_CURVE('',#323,#337,#248,.T.);
#207=EDGE_CURVE('',#322,#336,#249,.T.);
#208=EDGE_CURVE('',#321,#335,#250,.T.);
#209=EDGE_CURVE('',#320,#334,#251,.T.);
#210=EDGE_CURVE('',#319,#333,#252,.T.);
#211=EDGE_CURVE('',#320,#319,#253,.T.);
#212=EDGE_CURVE('',#321,#320,#254,.T.);
#213=EDGE_CURVE('',#322,#321,#255,.T.);
#214=EDGE_CURVE('',#323,#322,#195,.T.);
#215=EDGE_CURVE('',#324,#323,#256,.T.);
#216=EDGE_CURVE('',#325,#324,#257,.T.);
#217=EDGE_CURVE('',#326,#325,#258,.T.);
#218=EDGE_CURVE('',#327,#326,#259,.T.);
#219=EDGE_CURVE('',#328,#327,#260,.T.);
#220=EDGE_CURVE('',#329,#328,#261,.T.);
#221=EDGE_CURVE('',#330,#329,#262,.T.);
#222=EDGE_CURVE('',#331,#330,#263,.T.);
#223=EDGE_CURVE('',#332,#331,#264,.T.);
#224=EDGE_CURVE('',#319,#332,#265,.T.);
#225=EDGE_CURVE('',#334,#333,#266,.T.);
#226=EDGE_CURVE('',#335,#334,#267,.T.);
#227=EDGE_CURVE('',#336,#335,#268,.T.);
#228=EDGE_CURVE('',#337,#336,#196,.T.);
#229=EDGE_CURVE('',#338,#337,#269,.T.);
#230=EDGE_CURVE('',#339,#338,#270,.T.);
#231=EDGE_CURVE('',#340,#339,#271,.T.);
#232=EDGE_CURVE('',#341,#340,#272,.T.);
#233=EDGE_CURVE('',#342,#341,#273,.T.);
#234=EDGE_CURVE('',#343,#342,#274,.T.);
#235=EDGE_CURVE('',#344,#343,#275,.T.);
#236=EDGE_CURVE('',#345,#344,#276,.T.);
#237=EDGE_CURVE('',#346,#345,#277,.T.);
#238=EDGE_CURVE('',#333,#346,#278,.T.);
#239=LINE('',#475,#279);
#240=LINE('',#476,#280);
#241=LINE('',#477,#281);
#242=LINE('',#478,#282);
#243=LINE('',#479,#283);
#244=LINE('',#480,#284);
#245=LINE('',#481,#285);
#246=LINE('',#482,#286);
#247=LINE('',#483,#287);
#248=LINE('',#484,#288);
#249=LINE('',#485,#289);
#250=LINE('',#486,#290);
#251=LINE('',#487,#291);
#252=LINE('',#488,#292);
#253=LINE('',#489,#293);
#254=LINE('',#490,#294);
#255=LINE('',#491,#295);
#256=LINE('',#493,#296);
#257=LINE('',#494,#297);
#258=LINE('',#495,#298);
#259=LINE('',#496,#299);
#260=LINE('',#497,#300);
#261=LINE('',#498,#301);
#262=LINE('',#499,#302);
#263=LINE('',#500,#303);
#264=LINE('',#501,#304);
#265=LINE('',#502,#305);
#266=LINE('',#503,#306);
#267=LINE('',#504,#307);
#268=LINE('',#505,#308);
#269=LINE('',#507,#309);
#270=LINE('',#508,#310);
#271=LINE('',#509,#311);
#272=LINE('',#510,#312);
#273=LINE('',#511,#313);
#274=LINE('',#512,#314);
#275=LINE('',#513,#315);
#276=LINE('',#514,#316);
#277=LINE('',#515,#317);
#278=LINE('',#516,#318);
#279=VECTOR('',#370,1.);
#280=VECTOR('',#371,1.);
#281=VECTOR('',#372,1.);
#282=VECTOR('',#373,1.);
#283=VECTOR('',#374,1.);
#284=VECTOR('',#375,1.);
#285=VECTOR('',#376,1.);
#286=VECTOR('',#377,1.);
#287=VECTOR('',#378,1.);
#288=VECTOR('',#379,1.);
#289=VECTOR('',#380,1.);
#290=VECTOR('',#381,1.);
#291=VECTOR('',#382,1.);
#292=VECTOR('',#383,1.);
#293=VECTOR('',#384,1.);
#294=VECTOR('',#385,1.);
#295=VECTOR('',#386,1.);
#296=VECTOR('',#389,1.);
#297=VECTOR('',#390,1.);
#298=VECTOR('',#391,1.);
#299=VECTOR('',#392,1.);
#300=VECTOR('',#393,1.);
#301=VECTOR('',#394,1.);
#302=VECTOR('',#395,1.);
#303=VECTOR('',#396,1.);
#304=VECTOR('',#397,1.);
#305=VECTOR('',#398,1.);
#306=VECTOR('',#399,1.);
#307=VECTOR('',#400,1.);
#308=VECTOR('',#401,1.);
#309=VECTOR('',#404,1.);
#310=VECTOR('',#405,1.);
#311=VECTOR('',#406,1.);
#312=VECTOR('',#407,1.);
#313=VECTOR('',#408,1.);
#314=VECTOR('',#409,1.);
#315=VECTOR('',#410,1.);
#316=VECTOR('',#411,1.);
#317=VECTOR('',#412,1.);
#318=VECTOR('',#413,1.);
#319=VERTEX_POINT('',#447);
#320=VERTEX_POINT('',#448);
#321=VERTEX_POINT('',#449);
#322=VERTEX_POINT('',#450);
#323=VERTEX_POINT('',#451);
#324=VERTEX_POINT('',#452);
#325=VERTEX_POINT('',#453);
#326=VERTEX_POINT('',#454);
#327=VERTEX_POINT('',#455);
#328=VERTEX_POINT('',#456);
#329=VERTEX_POINT('',#457);
#330=VERTEX_POINT('',#458);
#331=VERTEX_POINT('',#459);
#332=VERTEX_POINT('',#460);
#333=VERTEX_POINT('',#461);
#334=VERTEX_POINT('',#462);
#335=VERTEX_POINT('',#463);
#336=VERTEX_POINT('',#464);
#337=VERTEX_POINT('',#465);
#338=VERTEX_POINT('',#466);
#339=VERTEX_POINT('',#467);
#340=VERTEX_POINT('',#468);
#341=VERTEX_POINT('',#469);
#342=VERTEX_POINT('',#470);
#343=VERTEX_POINT('',#471);
#344=VERTEX_POINT('',#472);
#345=VERTEX_POINT('',#473);
#346=VERTEX_POINT('',#474);
#347=SHAPE_DEFINITION_REPRESENTATION(#533,#348);
#348=SHAPE_REPRESENTATION('master',(#349),#535);
#349=AXIS2_PLACEMENT_3D('',#446,#369,#368);
#350=AXIS2_PLACEMENT_3D('',#492,#388,#387);
#351=AXIS2_PLACEMENT_3D('',#506,#403,#402);
#352=AXIS2_PLACEMENT_3D('',#517,#415,#414);
#353=AXIS2_PLACEMENT_3D('',#518,#417,#416);
#354=AXIS2_PLACEMENT_3D('',#519,#419,#418);
#355=AXIS2_PLACEMENT_3D('',#520,#421,#420);
#356=AXIS2_PLACEMENT_3D('',#521,#423,#422);
#357=AXIS2_PLACEMENT_3D('',#522,#425,#424);
#358=AXIS2_PLACEMENT_3D('',#523,#427,#426);
#359=AXIS2_PLACEMENT_3D('',#524,#429,#428);
#360=AXIS2_PLACEMENT_3D('',#525,#431,#430);
#361=AXIS2_PLACEMENT_3D('',#526,#433,#432);
#362=AXIS2_PLACEMENT_3D('',#527,#435,#434);
#363=AXIS2_PLACEMENT_3D('',#528,#437,#436);
#364=AXIS2_PLACEMENT_3D('',#529,#439,#438);
#365=AXIS2_PLACEMENT_3D('',#530,#441,#440);
#366=AXIS2_PLACEMENT_3D('',#531,#443,#442);
#367=AXIS2_PLACEMENT_3D('',#532,#445,#444);
#368=DIRECTION('',(1.,0.,0.));
#369=DIRECTION('',(0.,0.,1.));
#370=DIRECTION('',(7.37986470617251E-019,-1.,-8.99469438772683E-019));
#371=DIRECTION('',(7.37986470617251E-019,-1.,-8.99469438772683E-019));
#372=DIRECTION('',(7.37986470617251E-019,-1.,-8.99469438772683E-019));
#373=DIRECTION('',(7.37986470617251E-019,-1.,-8.99469438772683E-019));
#374=DIRECTION('',(7.37986470617251E-019,-1.,-8.99469438772683E-019));
#375=DIRECTION('',(7.37986470617251E-019,-1.,-8.99469438772683E-019));
#376=DIRECTION('',(7.37986470617251E-019,-1.,-8.99469438772683E-019));
#377=DIRECTION('',(7.37986470617251E-019,-1.,-8.99469438772683E-019));
#378=DIRECTION('',(7.37986470617251E-019,-1.,-8.99469438772683E-019));
#379=DIRECTION('',(7.37986470617251E-019,-1.,-8.99469438772683E-019));
#380=DIRECTION('',(7.37986470617251E-019,-1.,-8.99469438772683E-019));
#381=DIRECTION('',(7.37986470617251E-019,-1.,-8.99469438772683E-019));
#382=DIRECTION('',(7.37986470617251E-019,-1.,-8.99469438772683E-019));
#383=DIRECTION('',(7.37986470617251E-019,-1.,-8.99469438772683E-019));
#384=DIRECTION('',(1.,0.,1.18181633435588E-014));
#385=DIRECTION('',(0.140696713658391,0.,0.990052743426192));
#386=DIRECTION('',(0.99984277862706,0.,0.0177318365467099));
#387=DIRECTION('',(-0.992624695799031,0.,0.121227939394685));
#388=DIRECTION('',(0.,1.,0.));
#389=DIRECTION('',(0.999147838703324,0.,0.0412746461459826));
#390=DIRECTION('',(0.0116917803841837,0.,0.999931648799781));
#391=DIRECTION('',(0.98789364549505,0.,0.155132669642798));
#392=DIRECTION('',(0.0118117649671099,0.,0.999930238670859));
#393=DIRECTION('',(1.,0.,0.));
#394=DIRECTION('',(0.,0.,-1.));
#395=DIRECTION('',(-0.507001710371178,0.,-0.8619450479472));
#396=DIRECTION('',(-0.777288320984506,0.,-0.629144551006434));
#397=DIRECTION('',(-1.,0.,0.));
#398=DIRECTION('',(0.,0.,1.));
#399=DIRECTION('',(1.,0.,1.18181633435588E-014));
#400=DIRECTION('',(0.140696713658391,0.,0.990052743426192));
#401=DIRECTION('',(0.99984277862706,0.,0.0177318365467099));
#402=DIRECTION('',(-0.992624695799031,0.,0.121227939394685));
#403=DIRECTION('',(0.,1.,0.));
#404=DIRECTION('',(0.999147838703324,0.,0.0412746461459826));
#405=DIRECTION('',(0.0116917803841837,0.,0.999931648799781));
#406=DIRECTION('',(0.98789364549505,0.,0.155132669642798));
#407=DIRECTION('',(0.0118117649671099,0.,0.999930238670859));
#408=DIRECTION('',(1.,0.,0.));
#409=DIRECTION('',(0.,0.,-1.));
#410=DIRECTION('',(-0.507001710371178,0.,-0.8619450479472));
#411=DIRECTION('',(-0.777288320984506,0.,-0.629144551006434));
#412=DIRECTION('',(-1.,0.,0.));
#413=DIRECTION('',(0.,0.,1.));
#414=DIRECTION('',(-7.37986470617251E-019,1.,0.));
#415=DIRECTION('',(1.,7.37986470617251E-019,-0.));
#416=DIRECTION('',(0.,-1.,-8.99469438772683E-019));
#417=DIRECTION('',(0.,-8.99469438772683E-019,1.));
#418=DIRECTION('',(0.777288320984506,0.,0.629144551006434));
#419=DIRECTION('',(-0.629144551006434,-1.16344725654581E-018,0.777288320984506
));
#420=DIRECTION('',(0.507001710371178,-9.62964972193618E-035,0.8619450479472));
#421=DIRECTION('',(-0.8619450479472,-1.09213632768493E-018,0.507001710371178)
);
#422=DIRECTION('',(7.37986470617251E-019,-1.,0.));
#423=DIRECTION('',(-1.,-7.37986470617251E-019,-0.));
#424=DIRECTION('',(0.,1.,8.99469438772683E-019));
#425=DIRECTION('',(0.,8.99469438772683E-019,-1.));
#426=DIRECTION('',(-0.0118117649671099,1.50463276905253E-036,
-0.999930238670859));
#427=DIRECTION('',(0.999930238670859,7.48559309306054E-019,-0.0118117649671099
));
#428=DIRECTION('',(-0.98789364549505,0.,-0.155132669642798));
#429=DIRECTION('',(0.155132669642798,1.00306595422765E-018,-0.98789364549505)
);
#430=DIRECTION('',(-0.0116917803841837,1.50463276905253E-036,
-0.999931648799781));
#431=DIRECTION('',(0.999931648799781,7.48452427496654E-019,-0.0116917803841837
));
#432=DIRECTION('',(-0.999147838703324,0.,-0.0412746461459826));
#433=DIRECTION('',(0.0412746461459826,9.29163076164668E-019,-0.999147838703324
));
#434=DIRECTION('',(0.,8.99469438772683E-019,-1.));
#435=DIRECTION('',(7.37986470617251E-019,-1.,-8.99469438772683E-019));
#436=DIRECTION('',(-0.99984277862706,-3.00926553810506E-036,
-0.0177318365467099));
#437=DIRECTION('',(0.0177318365467099,9.12413878423271E-019,-0.99984277862706)
);
#438=DIRECTION('',(-0.140696713658391,0.,-0.990052743426192));
#439=DIRECTION('',(0.990052743426192,8.57197923917496E-019,-0.140696713658391)
);
#440=DIRECTION('',(-1.,0.,-1.18181633435588E-014));
#441=DIRECTION('',(1.18181633435588E-014,8.99469438772692E-019,-1.));
#442=DIRECTION('',(0.,-0.,1.));
#443=DIRECTION('',(0.,1.,0.));
#444=DIRECTION('',(0.,-0.,1.));
#445=DIRECTION('',(0.,1.,0.));
#446=CARTESIAN_POINT('',(0.,0.,0.));
#447=CARTESIAN_POINT('',(373.080453950403,2160.,2237.72772562906));
#448=CARTESIAN_POINT('',(334.601771801005,2160.,2237.72772562906));
#449=CARTESIAN_POINT('',(333.225575678917,2160.,2228.04372725597));
#450=CARTESIAN_POINT('',(275.085290633972,2160.,2227.01263111443));
#451=CARTESIAN_POINT('',(141.43291450627,2160.,2101.87707721738));
#452=CARTESIAN_POINT('',(129.112724072286,2160.,2101.36813201336));
#453=CARTESIAN_POINT('',(128.782920250277,2160.,2073.16188209371));
#454=CARTESIAN_POINT('',(119.541905586867,2160.,2071.71073066514));
#455=CARTESIAN_POINT('',(118.530231117373,2160.,1986.06697661524));
#456=CARTESIAN_POINT('',(103.080454,2160.,1986.06697661524));
#457=CARTESIAN_POINT('',(103.080454,2160.,2095.9879117757));
#458=CARTESIAN_POINT('',(151.891201697811,2160.,2178.97023985094));
#459=CARTESIAN_POINT('',(239.02850386153,2160.,2249.5));
#460=CARTESIAN_POINT('',(373.080453950403,2160.,2249.5));
#461=CARTESIAN_POINT('',(373.080453950403,160.,2237.72772562906));
#462=CARTESIAN_POINT('',(334.601771801005,160.,2237.72772562906));
#463=CARTESIAN_POINT('',(333.225575678917,160.,2228.04372725597));
#464=CARTESIAN_POINT('',(275.085290633972,160.,2227.01263111443));
#465=CARTESIAN_POINT('',(141.43291450627,160.,2101.87707721738));
#466=CARTESIAN_POINT('',(129.112724072286,160.,2101.36813201336));
#467=CARTESIAN_POINT('',(128.782920250277,160.,2073.16188209371));
#468=CARTESIAN_POINT('',(119.541905586867,160.,2071.71073066514));
#469=CARTESIAN_POINT('',(118.530231117373,160.,1986.06697661524));
#470=CARTESIAN_POINT('',(103.080454,160.,1986.06697661524));
#471=CARTESIAN_POINT('',(103.080454,160.,2095.9879117757));
#472=CARTESIAN_POINT('',(151.891201697811,160.,2178.97023985094));
#473=CARTESIAN_POINT('',(239.02850386153,160.,2249.5));
#474=CARTESIAN_POINT('',(373.080453950403,160.,2249.5));
#475=CARTESIAN_POINT('',(373.080453950403,2160.,2249.5));
#476=CARTESIAN_POINT('',(239.02850386153,2160.,2249.5));
#477=CARTESIAN_POINT('',(151.891201697811,2160.,2178.97023985094));
#478=CARTESIAN_POINT('',(103.080454,2160.,2095.9879117757));
#479=CARTESIAN_POINT('',(103.080454,2160.,1986.06697661524));
#480=CARTESIAN_POINT('',(118.530231117373,2160.,1986.06697661524));
#481=CARTESIAN_POINT('',(119.541905586867,2160.,2071.71073066514));
#482=CARTESIAN_POINT('',(128.782920250277,2160.,2073.16188209371));
#483=CARTESIAN_POINT('',(129.112724072286,2160.,2101.36813201336));
#484=CARTESIAN_POINT('',(141.43291450627,2160.,2101.87707721738));
#485=CARTESIAN_POINT('',(275.085290633972,2160.,2227.01263111443));
#486=CARTESIAN_POINT('',(333.225575678917,2160.,2228.04372725597));
#487=CARTESIAN_POINT('',(334.601771801005,2160.,2237.72772562906));
#488=CARTESIAN_POINT('',(373.080453950403,2160.,2237.72772562906));
#489=CARTESIAN_POINT('',(334.601771801005,2160.,2237.72772562906));
#490=CARTESIAN_POINT('',(333.225575678917,2160.,2228.04372725597));
#491=CARTESIAN_POINT('',(275.085290633972,2160.,2227.01263111443));
#492=CARTESIAN_POINT('',(283.031035094773,2160.,2084.5838862926));
#493=CARTESIAN_POINT('',(129.112724072286,2160.,2101.36813201336));
#494=CARTESIAN_POINT('',(128.782920250277,2160.,2073.16188209371));
#495=CARTESIAN_POINT('',(119.541905586867,2160.,2071.71073066514));
#496=CARTESIAN_POINT('',(118.530231117373,2160.,1986.06697661524));
#497=CARTESIAN_POINT('',(103.080454,2160.,1986.06697661524));
#498=CARTESIAN_POINT('',(103.080454,2160.,2095.9879117757));
#499=CARTESIAN_POINT('',(151.891201697811,2160.,2178.97023985094));
#500=CARTESIAN_POINT('',(239.02850386153,2160.,2249.5));
#501=CARTESIAN_POINT('',(373.080453950403,2160.,2249.5));
#502=CARTESIAN_POINT('',(373.080453950403,2160.,2237.72772562906));
#503=CARTESIAN_POINT('',(334.601771801005,160.,2237.72772562906));
#504=CARTESIAN_POINT('',(333.225575678917,160.,2228.04372725597));
#505=CARTESIAN_POINT('',(275.085290633972,160.,2227.01263111443));
#506=CARTESIAN_POINT('',(283.031035094773,160.,2084.5838862926));
#507=CARTESIAN_POINT('',(129.112724072286,160.,2101.36813201336));
#508=CARTESIAN_POINT('',(128.782920250277,160.,2073.16188209371));
#509=CARTESIAN_POINT('',(119.541905586867,160.,2071.71073066514));
#510=CARTESIAN_POINT('',(118.530231117373,160.,1986.06697661524));
#511=CARTESIAN_POINT('',(103.080454,160.,1986.06697661524));
#512=CARTESIAN_POINT('',(103.080454,160.,2095.9879117757));
#513=CARTESIAN_POINT('',(151.891201697811,160.,2178.97023985094));
#514=CARTESIAN_POINT('',(239.02850386153,160.,2249.5));
#515=CARTESIAN_POINT('',(373.080453950403,160.,2249.5));
#516=CARTESIAN_POINT('',(373.080453950403,160.,2237.72772562906));
#517=CARTESIAN_POINT('',(373.080453950403,2160.,2237.72772562906));
#518=CARTESIAN_POINT('',(373.080453950403,2160.,2249.5));
#519=CARTESIAN_POINT('',(239.02850386153,2160.,2249.5));
#520=CARTESIAN_POINT('',(151.891201697811,2160.,2178.97023985094));
#521=CARTESIAN_POINT('',(103.080454,2160.,2095.9879117757));
#522=CARTESIAN_POINT('',(103.080454,2160.,1986.06697661524));
#523=CARTESIAN_POINT('',(118.530231117373,2160.,1986.06697661524));
#524=CARTESIAN_POINT('',(119.541905586867,2160.,2071.71073066514));
#525=CARTESIAN_POINT('',(128.782920250277,2160.,2073.16188209371));
#526=CARTESIAN_POINT('',(129.112724072286,2160.,2101.36813201336));
#527=CARTESIAN_POINT('',(283.031035094773,2160.,2084.5838862926));
#528=CARTESIAN_POINT('',(275.085290633972,2160.,2227.01263111443));
#529=CARTESIAN_POINT('',(333.225575678917,2160.,2228.04372725597));
#530=CARTESIAN_POINT('',(334.601771801005,2160.,2237.72772562906));
#531=CARTESIAN_POINT('',(283.031035094773,2160.,2084.5838862926));
#532=CARTESIAN_POINT('',(283.031035094773,160.,2084.5838862926));
#533=PRODUCT_DEFINITION_SHAPE('','',#534);
#534=PRODUCT_DEFINITION('','',#546,#551);
#535=(
GEOMETRIC_REPRESENTATION_CONTEXT(3)
GLOBAL_UNCERTAINTY_ASSIGNED_CONTEXT((#536))
GLOBAL_UNIT_ASSIGNED_CONTEXT((#538,#537,#541))
REPRESENTATION_CONTEXT('','')
);
#536=UNCERTAINTY_MEASURE_WITH_UNIT(LENGTH_MEASURE(0.001),#538,'','tolerance');
#537=(
CONVERSION_BASED_UNIT('',#539)
NAMED_UNIT(#545)
PLANE_ANGLE_UNIT()
);
#538=(
CONVERSION_BASED_UNIT('',#540)
LENGTH_UNIT()
NAMED_UNIT(#544)
);
#539=PLANE_ANGLE_MEASURE_WITH_UNIT(PLANE_ANGLE_MEASURE(0.0174532925199433),
#542);
#540=LENGTH_MEASURE_WITH_UNIT(LENGTH_MEASURE(1.),#543);
#541=(
NAMED_UNIT(*)
SI_UNIT($,.STERADIAN.)
SOLID_ANGLE_UNIT()
);
#542=(
NAMED_UNIT(*)
PLANE_ANGLE_UNIT()
SI_UNIT($,.RADIAN.)
);
#543=(
LENGTH_UNIT()
NAMED_UNIT(*)
SI_UNIT(.MILLI.,.METRE.)
);
#544=DIMENSIONAL_EXPONENTS(1.,0.,0.,0.,0.,0.,0.);
#545=DIMENSIONAL_EXPONENTS(0.,0.,0.,0.,0.,0.,0.);
#546=PRODUCT_DEFINITION_FORMATION_WITH_SPECIFIED_SOURCE('','',#549,.NOT_KNOWN.
);
#547=PRODUCT_CATEGORY_RELATIONSHIP('','',#552,#548);
#548=PRODUCT_RELATED_PRODUCT_CATEGORY('assembly','',(#549));
#549=PRODUCT('','master','',(#550));
#550=PRODUCT_CONTEXT('',#554,'');
#551=PRODUCT_DEFINITION_CONTEXT('',#554,'part_definition');
#552=PRODUCT_CATEGORY('part','');
#553=APPLICATION_PROTOCOL_DEFINITION('international standard',
'automotive_design_cc2',1994,#554);
#554=APPLICATION_CONTEXT(
'configuration controlled 3D designs of mechanical parts and assemblies');
ENDSEC;
END-ISO-10303-21;
25182