ISO-10303-21;
HEADER;
/* Generated by software using Delcam plc STEP library */

FILE_DESCRIPTION(
/* description */ ('AP-214 File'),
/* implementation_level */ '2;1');

FILE_NAME(
/* name */ 'PLIN10M',
/* time_stamp */ 'Tue Sep 26 15:28:58 2017',
/* author */ (''),
/* organization */ (''),
/* preprocessor_version */ 'DELCAM STEP V1',
/* originating_system */ 'Exchange7.1.0006',
/* authorisation */ '');

FILE_SCHEMA (('AUTOMOTIVE_DESIGN'));
ENDSEC;
DATA;
#10=PRESENTATION_STYLE_ASSIGNMENT((#20));
#11=PRESENTATION_STYLE_ASSIGNMENT((#21));
#12=SURFACE_SIDE_STYLE('',(#14));
#13=SURFACE_SIDE_STYLE('',(#15));
#14=SURFACE_STYLE_FILL_AREA(#16);
#15=SURFACE_STYLE_FILL_AREA(#17);
#16=FILL_AREA_STYLE('',(#18));
#17=FILL_AREA_STYLE('',(#19));
#18=FILL_AREA_STYLE_COLOUR('',#31);
#19=FILL_AREA_STYLE_COLOUR('',#32);
#20=SURFACE_STYLE_USAGE(.BOTH.,#12);
#21=SURFACE_STYLE_USAGE(.BOTH.,#13);
#22=STYLED_ITEM('',(#10),#39);
#23=STYLED_ITEM('',(#10),#40);
#24=STYLED_ITEM('',(#10),#41);
#25=STYLED_ITEM('',(#10),#42);
#26=STYLED_ITEM('',(#10),#43);
#27=STYLED_ITEM('',(#10),#44);
#28=STYLED_ITEM('',(#10),#45);
#29=STYLED_ITEM('',(#10),#46);
#30=STYLED_ITEM('',(#11),#38);
#31=COLOUR_RGB('solid_blue',0.,0.,0.);
#32=COLOUR_RGB('rgb_colour_1',0.6,0.6,0.6);
#33=MECHANICAL_DESIGN_GEOMETRIC_PRESENTATION_REPRESENTATION('',(#22,#23,#24,
#25,#26,#27,#28,#29,#30),#363);
#34=PRESENTATION_LAYER_ASSIGNMENT('2','Wireframes',(#39,#40,#41,#42,#43,#44,
#45,#46,#38));
#35=SHAPE_REPRESENTATION_RELATIONSHIP('','',#216,#36);
#36=MANIFOLD_SURFACE_SHAPE_REPRESENTATION('',(#37),#363);
#37=SHELL_BASED_SURFACE_MODEL('',(#38));
#38=OPEN_SHELL('556',(#39,#40,#41,#42,#43,#44,#45,#46));
#39=ADVANCED_FACE('',(#47),#99,.T.);
#40=ADVANCED_FACE('',(#48),#100,.T.);
#41=ADVANCED_FACE('',(#49),#101,.T.);
#42=ADVANCED_FACE('',(#50),#102,.T.);
#43=ADVANCED_FACE('',(#51),#103,.T.);
#44=ADVANCED_FACE('',(#52),#104,.T.);
#45=ADVANCED_FACE('',(#53),#105,.T.);
#46=ADVANCED_FACE('',(#54),#106,.T.);
#47=FACE_OUTER_BOUND('',#55,.T.);
#48=FACE_OUTER_BOUND('',#56,.T.);
#49=FACE_OUTER_BOUND('',#57,.T.);
#50=FACE_OUTER_BOUND('',#58,.T.);
#51=FACE_OUTER_BOUND('',#59,.T.);
#52=FACE_OUTER_BOUND('',#60,.T.);
#53=FACE_OUTER_BOUND('',#61,.T.);
#54=FACE_OUTER_BOUND('',#62,.T.);
#55=EDGE_LOOP('',(#63,#64,#65,#66));
#56=EDGE_LOOP('',(#67,#68,#69,#70));
#57=EDGE_LOOP('',(#71,#72,#73,#74));
#58=EDGE_LOOP('',(#75,#76,#77,#78));
#59=EDGE_LOOP('',(#79,#80,#81,#82));
#60=EDGE_LOOP('',(#83,#84,#85,#86));
#61=EDGE_LOOP('',(#87,#88,#89,#90,#91,#92));
#62=EDGE_LOOP('',(#93,#94,#95,#96,#97,#98));
#63=ORIENTED_EDGE('',*,*,#107,.T.);
#64=ORIENTED_EDGE('',*,*,#108,.T.);
#65=ORIENTED_EDGE('',*,*,#109,.T.);
#66=ORIENTED_EDGE('',*,*,#110,.T.);
#67=ORIENTED_EDGE('',*,*,#111,.T.);
#68=ORIENTED_EDGE('',*,*,#112,.T.);
#69=ORIENTED_EDGE('',*,*,#113,.T.);
#70=ORIENTED_EDGE('',*,*,#114,.T.);
#71=ORIENTED_EDGE('',*,*,#115,.T.);
#72=ORIENTED_EDGE('',*,*,#116,.T.);
#73=ORIENTED_EDGE('',*,*,#117,.T.);
#74=ORIENTED_EDGE('',*,*,#118,.T.);
#75=ORIENTED_EDGE('',*,*,#119,.T.);
#76=ORIENTED_EDGE('',*,*,#120,.T.);
#77=ORIENTED_EDGE('',*,*,#121,.T.);
#78=ORIENTED_EDGE('',*,*,#122,.T.);
#79=ORIENTED_EDGE('',*,*,#123,.T.);
#80=ORIENTED_EDGE('',*,*,#124,.T.);
#81=ORIENTED_EDGE('',*,*,#125,.T.);
#82=ORIENTED_EDGE('',*,*,#126,.T.);
#83=ORIENTED_EDGE('',*,*,#127,.T.);
#84=ORIENTED_EDGE('',*,*,#128,.T.);
#85=ORIENTED_EDGE('',*,*,#129,.T.);
#86=ORIENTED_EDGE('',*,*,#130,.T.);
#87=ORIENTED_EDGE('',*,*,#131,.T.);
#88=ORIENTED_EDGE('',*,*,#132,.T.);
#89=ORIENTED_EDGE('',*,*,#133,.T.);
#90=ORIENTED_EDGE('',*,*,#134,.T.);
#91=ORIENTED_EDGE('',*,*,#135,.T.);
#92=ORIENTED_EDGE('',*,*,#136,.T.);
#93=ORIENTED_EDGE('',*,*,#137,.T.);
#94=ORIENTED_EDGE('',*,*,#138,.T.);
#95=ORIENTED_EDGE('',*,*,#139,.T.);
#96=ORIENTED_EDGE('',*,*,#140,.T.);
#97=ORIENTED_EDGE('',*,*,#141,.T.);
#98=ORIENTED_EDGE('',*,*,#142,.T.);
#99=PLANE('',#218);
#100=PLANE('',#219);
#101=PLANE('',#220);
#102=PLANE('',#221);
#103=PLANE('',#222);
#104=PLANE('',#223);
#105=PLANE('',#224);
#106=PLANE('',#225);
#107=EDGE_CURVE('',#182,#179,#143,.T.);
#108=EDGE_CURVE('',#179,#180,#144,.T.);
#109=EDGE_CURVE('',#180,#181,#145,.T.);
#110=EDGE_CURVE('',#181,#182,#146,.T.);
#111=EDGE_CURVE('',#186,#183,#147,.T.);
#112=EDGE_CURVE('',#183,#184,#148,.T.);
#113=EDGE_CURVE('',#184,#185,#149,.T.);
#114=EDGE_CURVE('',#185,#186,#150,.T.);
#115=EDGE_CURVE('',#190,#187,#151,.T.);
#116=EDGE_CURVE('',#187,#188,#152,.T.);
#117=EDGE_CURVE('',#188,#189,#153,.T.);
#118=EDGE_CURVE('',#189,#190,#154,.T.);
#119=EDGE_CURVE('',#194,#191,#155,.T.);
#120=EDGE_CURVE('',#191,#192,#156,.T.);
#121=EDGE_CURVE('',#192,#193,#157,.T.);
#122=EDGE_CURVE('',#193,#194,#158,.T.);
#123=EDGE_CURVE('',#198,#195,#159,.T.);
#124=EDGE_CURVE('',#195,#196,#160,.T.);
#125=EDGE_CURVE('',#196,#197,#161,.T.);
#126=EDGE_CURVE('',#197,#198,#162,.T.);
#127=EDGE_CURVE('',#202,#199,#163,.T.);
#128=EDGE_CURVE('',#199,#200,#164,.T.);
#129=EDGE_CURVE('',#200,#201,#165,.T.);
#130=EDGE_CURVE('',#201,#202,#166,.T.);
#131=EDGE_CURVE('',#208,#203,#167,.T.);
#132=EDGE_CURVE('',#203,#204,#168,.T.);
#133=EDGE_CURVE('',#204,#205,#169,.T.);
#134=EDGE_CURVE('',#205,#206,#170,.T.);
#135=EDGE_CURVE('',#206,#207,#171,.T.);
#136=EDGE_CURVE('',#207,#208,#172,.T.);
#137=EDGE_CURVE('',#214,#209,#173,.T.);
#138=EDGE_CURVE('',#209,#210,#174,.T.);
#139=EDGE_CURVE('',#210,#211,#175,.T.);
#140=EDGE_CURVE('',#211,#212,#176,.T.);
#141=EDGE_CURVE('',#212,#213,#177,.T.);
#142=EDGE_CURVE('',#213,#214,#178,.T.);
#143=B_SPLINE_CURVE_WITH_KNOTS('',1,(#281,#282),.UNSPECIFIED.,.F.,.F.,(2,2),(
0.,1.),.UNSPECIFIED.);
#144=B_SPLINE_CURVE_WITH_KNOTS('',1,(#283,#284),.UNSPECIFIED.,.F.,.F.,(2,2),(
0.,1.),.UNSPECIFIED.);
#145=B_SPLINE_CURVE_WITH_KNOTS('',1,(#285,#286),.UNSPECIFIED.,.F.,.F.,(2,2),(
0.,1.),.UNSPECIFIED.);
#146=B_SPLINE_CURVE_WITH_KNOTS('',1,(#287,#288),.UNSPECIFIED.,.F.,.F.,(2,2),(
0.,1.),.UNSPECIFIED.);
#147=B_SPLINE_CURVE_WITH_KNOTS('',1,(#289,#290),.UNSPECIFIED.,.F.,.F.,(2,2),(
0.,1.),.UNSPECIFIED.);
#148=B_SPLINE_CURVE_WITH_KNOTS('',1,(#291,#292),.UNSPECIFIED.,.F.,.F.,(2,2),(
0.,1.),.UNSPECIFIED.);
#149=B_SPLINE_CURVE_WITH_KNOTS('',1,(#293,#294),.UNSPECIFIED.,.F.,.F.,(2,2),(
0.,1.),.UNSPECIFIED.);
#150=B_SPLINE_CURVE_WITH_KNOTS('',1,(#295,#296),.UNSPECIFIED.,.F.,.F.,(2,2),(
0.,1.),.UNSPECIFIED.);
#151=B_SPLINE_CURVE_WITH_KNOTS('',1,(#297,#298),.UNSPECIFIED.,.F.,.F.,(2,2),(
0.,1.),.UNSPECIFIED.);
#152=B_SPLINE_CURVE_WITH_KNOTS('',1,(#299,#300),.UNSPECIFIED.,.F.,.F.,(2,2),(
0.,1.),.UNSPECIFIED.);
#153=B_SPLINE_CURVE_WITH_KNOTS('',1,(#301,#302),.UNSPECIFIED.,.F.,.F.,(2,2),(
0.,1.),.UNSPECIFIED.);
#154=B_SPLINE_CURVE_WITH_KNOTS('',1,(#303,#304),.UNSPECIFIED.,.F.,.F.,(2,2),(
0.,1.),.UNSPECIFIED.);
#155=B_SPLINE_CURVE_WITH_KNOTS('',1,(#305,#306),.UNSPECIFIED.,.F.,.F.,(2,2),(
0.,1.),.UNSPECIFIED.);
#156=B_SPLINE_CURVE_WITH_KNOTS('',1,(#307,#308),.UNSPECIFIED.,.F.,.F.,(2,2),(
0.,1.),.UNSPECIFIED.);
#157=B_SPLINE_CURVE_WITH_KNOTS('',1,(#309,#310),.UNSPECIFIED.,.F.,.F.,(2,2),(
0.,1.),.UNSPECIFIED.);
#158=B_SPLINE_CURVE_WITH_KNOTS('',1,(#311,#312),.UNSPECIFIED.,.F.,.F.,(2,2),(
0.,1.),.UNSPECIFIED.);
#159=B_SPLINE_CURVE_WITH_KNOTS('',1,(#313,#314),.UNSPECIFIED.,.F.,.F.,(2,2),(
0.,1.),.UNSPECIFIED.);
#160=B_SPLINE_CURVE_WITH_KNOTS('',1,(#315,#316),.UNSPECIFIED.,.F.,.F.,(2,2),(
0.,1.),.UNSPECIFIED.);
#161=B_SPLINE_CURVE_WITH_KNOTS('',1,(#317,#318),.UNSPECIFIED.,.F.,.F.,(2,2),(
0.,1.),.UNSPECIFIED.);
#162=B_SPLINE_CURVE_WITH_KNOTS('',1,(#319,#320),.UNSPECIFIED.,.F.,.F.,(2,2),(
0.,1.),.UNSPECIFIED.);
#163=B_SPLINE_CURVE_WITH_KNOTS('',1,(#321,#322),.UNSPECIFIED.,.F.,.F.,(2,2),(
0.,1.),.UNSPECIFIED.);
#164=B_SPLINE_CURVE_WITH_KNOTS('',1,(#323,#324),.UNSPECIFIED.,.F.,.F.,(2,2),(
0.,1.),.UNSPECIFIED.);
#165=B_SPLINE_CURVE_WITH_KNOTS('',1,(#325,#326),.UNSPECIFIED.,.F.,.F.,(2,2),(
0.,1.),.UNSPECIFIED.);
#166=B_SPLINE_CURVE_WITH_KNOTS('',1,(#327,#328),.UNSPECIFIED.,.F.,.F.,(2,2),(
0.,1.),.UNSPECIFIED.);
#167=B_SPLINE_CURVE_WITH_KNOTS('',1,(#329,#330),.UNSPECIFIED.,.F.,.F.,(2,2),(
0.,1.),.UNSPECIFIED.);
#168=B_SPLINE_CURVE_WITH_KNOTS('',1,(#331,#332),.UNSPECIFIED.,.F.,.F.,(2,2),(
0.,1.),.UNSPECIFIED.);
#169=B_SPLINE_CURVE_WITH_KNOTS('',1,(#333,#334),.UNSPECIFIED.,.F.,.F.,(2,2),(
0.,1.),.UNSPECIFIED.);
#170=B_SPLINE_CURVE_WITH_KNOTS('',1,(#335,#336),.UNSPECIFIED.,.F.,.F.,(2,2),(
0.,1.),.UNSPECIFIED.);
#171=B_SPLINE_CURVE_WITH_KNOTS('',1,(#337,#338),.UNSPECIFIED.,.F.,.F.,(2,2),(
0.,1.),.UNSPECIFIED.);
#172=B_SPLINE_CURVE_WITH_KNOTS('',1,(#339,#340),.UNSPECIFIED.,.F.,.F.,(2,2),(
0.,1.),.UNSPECIFIED.);
#173=B_SPLINE_CURVE_WITH_KNOTS('',1,(#341,#342),.UNSPECIFIED.,.F.,.F.,(2,2),(
0.,1.),.UNSPECIFIED.);
#174=B_SPLINE_CURVE_WITH_KNOTS('',1,(#343,#344),.UNSPECIFIED.,.F.,.F.,(2,2),(
0.,1.),.UNSPECIFIED.);
#175=B_SPLINE_CURVE_WITH_KNOTS('',1,(#345,#346),.UNSPECIFIED.,.F.,.F.,(2,2),(
0.,1.),.UNSPECIFIED.);
#176=B_SPLINE_CURVE_WITH_KNOTS('',1,(#347,#348),.UNSPECIFIED.,.F.,.F.,(2,2),(
0.,1.),.UNSPECIFIED.);
#177=B_SPLINE_CURVE_WITH_KNOTS('',1,(#349,#350),.UNSPECIFIED.,.F.,.F.,(2,2),(
0.,1.),.UNSPECIFIED.);
#178=B_SPLINE_CURVE_WITH_KNOTS('',1,(#351,#352),.UNSPECIFIED.,.F.,.F.,(2,2),(
0.,1.),.UNSPECIFIED.);
#179=VERTEX_POINT('',#245);
#180=VERTEX_POINT('',#246);
#181=VERTEX_POINT('',#247);
#182=VERTEX_POINT('',#248);
#183=VERTEX_POINT('',#249);
#184=VERTEX_POINT('',#250);
#185=VERTEX_POINT('',#251);
#186=VERTEX_POINT('',#252);
#187=VERTEX_POINT('',#253);
#188=VERTEX_POINT('',#254);
#189=VERTEX_POINT('',#255);
#190=VERTEX_POINT('',#256);
#191=VERTEX_POINT('',#257);
#192=VERTEX_POINT('',#258);
#193=VERTEX_POINT('',#259);
#194=VERTEX_POINT('',#260);
#195=VERTEX_POINT('',#261);
#196=VERTEX_POINT('',#262);
#197=VERTEX_POINT('',#263);
#198=VERTEX_POINT('',#264);
#199=VERTEX_POINT('',#265);
#200=VERTEX_POINT('',#266);
#201=VERTEX_POINT('',#267);
#202=VERTEX_POINT('',#268);
#203=VERTEX_POINT('',#269);
#204=VERTEX_POINT('',#270);
#205=VERTEX_POINT('',#271);
#206=VERTEX_POINT('',#272);
#207=VERTEX_POINT('',#273);
#208=VERTEX_POINT('',#274);
#209=VERTEX_POINT('',#275);
#210=VERTEX_POINT('',#276);
#211=VERTEX_POINT('',#277);
#212=VERTEX_POINT('',#278);
#213=VERTEX_POINT('',#279);
#214=VERTEX_POINT('',#280);
#215=SHAPE_DEFINITION_REPRESENTATION(#361,#216);
#216=SHAPE_REPRESENTATION('master',(#217),#363);
#217=AXIS2_PLACEMENT_3D('',#244,#227,#226);
#218=AXIS2_PLACEMENT_3D('',#353,#229,#228);
#219=AXIS2_PLACEMENT_3D('',#354,#231,#230);
#220=AXIS2_PLACEMENT_3D('',#355,#233,#232);
#221=AXIS2_PLACEMENT_3D('',#356,#235,#234);
#222=AXIS2_PLACEMENT_3D('',#357,#237,#236);
#223=AXIS2_PLACEMENT_3D('',#358,#239,#238);
#224=AXIS2_PLACEMENT_3D('',#359,#241,#240);
#225=AXIS2_PLACEMENT_3D('',#360,#243,#242);
#226=DIRECTION('',(1.,0.,0.));
#227=DIRECTION('',(0.,0.,1.));
#228=DIRECTION('',(-0.390486779228979,0.,0.920608535289229));
#229=DIRECTION('',(0.920608535289229,0.,0.390486779228979));
#230=DIRECTION('',(0.,1.,0.));
#231=DIRECTION('',(1.,0.,0.));
#232=DIRECTION('',(-0.,1.,0.));
#233=DIRECTION('',(0.,0.,-1.));
#234=DIRECTION('',(0.,-1.,0.));
#235=DIRECTION('',(-1.,0.,0.));
#236=DIRECTION('',(0.,-1.,0.));
#237=DIRECTION('',(-1.,0.,0.));
#238=DIRECTION('',(-0.984807753012202,0.,0.173648177666965));
#239=DIRECTION('',(0.173648177666965,0.,0.984807753012202));
#240=DIRECTION('',(1.,0.,-0.));
#241=DIRECTION('',(0.,-1.,0.));
#242=DIRECTION('',(-1.,0.,0.));
#243=DIRECTION('',(0.,1.,0.));
#244=CARTESIAN_POINT('',(0.,0.,0.));
#245=CARTESIAN_POINT('',(-6506.791703,-3488.43973230736,104.539832307358));
#246=CARTESIAN_POINT('',(-6506.791703,-4988.43973230736,104.539832307358));
#247=CARTESIAN_POINT('',(-6499.962659,-4988.43973230736,88.4397323073573));
#248=CARTESIAN_POINT('',(-6499.962659,-3488.43973230736,88.4397323073573));
#249=CARTESIAN_POINT('',(-6499.962659,-3488.43973230736,5.93973230735719));
#250=CARTESIAN_POINT('',(-6499.962659,-3488.43973230736,88.4397323073572));
#251=CARTESIAN_POINT('',(-6499.962659,-4988.43973230736,88.4397323073572));
#252=CARTESIAN_POINT('',(-6499.962659,-4988.43973230736,5.93973230735719));
#253=CARTESIAN_POINT('',(-6512.962659,-3488.43973230736,5.93973230735719));
#254=CARTESIAN_POINT('',(-6499.962659,-3488.43973230736,5.93973230735719));
#255=CARTESIAN_POINT('',(-6499.962659,-4988.43973230736,5.93973230735719));
#256=CARTESIAN_POINT('',(-6512.962659,-4988.43973230736,5.93973230735719));
#257=CARTESIAN_POINT('',(-6512.962659,-4988.43973230736,5.93973230735719));
#258=CARTESIAN_POINT('',(-6512.962659,-4988.43973230736,25.9397323073572));
#259=CARTESIAN_POINT('',(-6512.962659,-3488.43973230736,25.9397323073572));
#260=CARTESIAN_POINT('',(-6512.962659,-3488.43973230736,5.93973230735719));
#261=CARTESIAN_POINT('',(-6512.962659,-4988.43973230736,25.9397323073572));
#262=CARTESIAN_POINT('',(-6512.962659,-4988.43973230736,105.627938346923));
#263=CARTESIAN_POINT('',(-6512.962659,-3488.43973230736,105.627938346923));
#264=CARTESIAN_POINT('',(-6512.962659,-3488.43973230736,25.9397323073572));
#265=CARTESIAN_POINT('',(-6512.962659,-3488.43973230736,105.627938346923));
#266=CARTESIAN_POINT('',(-6512.962659,-4988.43973230736,105.627938346923));
#267=CARTESIAN_POINT('',(-6506.791703,-4988.43973230736,104.539832307358));
#268=CARTESIAN_POINT('',(-6506.791703,-3488.43973230736,104.539832307358));
#269=CARTESIAN_POINT('',(-6499.962659,-4988.43973230736,88.4397323073571));
#270=CARTESIAN_POINT('',(-6506.791703,-4988.43973230736,104.539832307358));
#271=CARTESIAN_POINT('',(-6512.962659,-4988.43973230736,105.627938346923));
#272=CARTESIAN_POINT('',(-6512.962659,-4988.43973230736,25.9397323073572));
#273=CARTESIAN_POINT('',(-6512.962659,-4988.43973230736,5.93973230735719));
#274=CARTESIAN_POINT('',(-6499.962659,-4988.43973230736,5.93973230735719));
#275=CARTESIAN_POINT('',(-6512.962659,-3488.43973230736,25.9397323073572));
#276=CARTESIAN_POINT('',(-6512.962659,-3488.43973230736,105.627938346923));
#277=CARTESIAN_POINT('',(-6506.791703,-3488.43973230736,104.539832307358));
#278=CARTESIAN_POINT('',(-6499.962659,-3488.43973230736,88.4397323073571));
#279=CARTESIAN_POINT('',(-6499.962659,-3488.43973230736,5.93973230735719));
#280=CARTESIAN_POINT('',(-6512.962659,-3488.43973230736,5.93973230735719));
#281=CARTESIAN_POINT('',(-6499.962659,-3488.43973230736,88.4397323073573));
#282=CARTESIAN_POINT('',(-6506.791703,-3488.43973230736,104.539832307358));
#283=CARTESIAN_POINT('',(-6506.791703,-3488.43973230736,104.539832307358));
#284=CARTESIAN_POINT('',(-6506.791703,-4988.43973230736,104.539832307358));
#285=CARTESIAN_POINT('',(-6506.791703,-4988.43973230736,104.539832307358));
#286=CARTESIAN_POINT('',(-6499.962659,-4988.43973230736,88.4397323073573));
#287=CARTESIAN_POINT('',(-6499.962659,-4988.43973230736,88.4397323073573));
#288=CARTESIAN_POINT('',(-6499.962659,-3488.43973230736,88.4397323073573));
#289=CARTESIAN_POINT('',(-6499.962659,-4988.43973230736,5.93973230735719));
#290=CARTESIAN_POINT('',(-6499.962659,-3488.43973230736,5.93973230735719));
#291=CARTESIAN_POINT('',(-6499.962659,-3488.43973230736,5.93973230735719));
#292=CARTESIAN_POINT('',(-6499.962659,-3488.43973230736,88.4397323073572));
#293=CARTESIAN_POINT('',(-6499.962659,-3488.43973230736,88.4397323073572));
#294=CARTESIAN_POINT('',(-6499.962659,-4988.43973230736,88.4397323073572));
#295=CARTESIAN_POINT('',(-6499.962659,-4988.43973230736,88.4397323073572));
#296=CARTESIAN_POINT('',(-6499.962659,-4988.43973230736,5.93973230735719));
#297=CARTESIAN_POINT('',(-6512.962659,-4988.43973230736,5.93973230735719));
#298=CARTESIAN_POINT('',(-6512.962659,-3488.43973230736,5.93973230735719));
#299=CARTESIAN_POINT('',(-6512.962659,-3488.43973230736,5.93973230735719));
#300=CARTESIAN_POINT('',(-6499.962659,-3488.43973230736,5.93973230735719));
#301=CARTESIAN_POINT('',(-6499.962659,-3488.43973230736,5.93973230735719));
#302=CARTESIAN_POINT('',(-6499.962659,-4988.43973230736,5.93973230735719));
#303=CARTESIAN_POINT('',(-6499.962659,-4988.43973230736,5.93973230735719));
#304=CARTESIAN_POINT('',(-6512.962659,-4988.43973230736,5.93973230735719));
#305=CARTESIAN_POINT('',(-6512.962659,-3488.43973230736,5.93973230735719));
#306=CARTESIAN_POINT('',(-6512.962659,-4988.43973230736,5.93973230735719));
#307=CARTESIAN_POINT('',(-6512.962659,-4988.43973230736,5.93973230735719));
#308=CARTESIAN_POINT('',(-6512.962659,-4988.43973230736,25.9397323073572));
#309=CARTESIAN_POINT('',(-6512.962659,-4988.43973230736,25.9397323073572));
#310=CARTESIAN_POINT('',(-6512.962659,-3488.43973230736,25.9397323073572));
#311=CARTESIAN_POINT('',(-6512.962659,-3488.43973230736,25.9397323073572));
#312=CARTESIAN_POINT('',(-6512.962659,-3488.43973230736,5.93973230735719));
#313=CARTESIAN_POINT('',(-6512.962659,-3488.43973230736,25.9397323073572));
#314=CARTESIAN_POINT('',(-6512.962659,-4988.43973230736,25.9397323073572));
#315=CARTESIAN_POINT('',(-6512.962659,-4988.43973230736,25.9397323073572));
#316=CARTESIAN_POINT('',(-6512.962659,-4988.43973230736,105.627938346923));
#317=CARTESIAN_POINT('',(-6512.962659,-4988.43973230736,105.627938346923));
#318=CARTESIAN_POINT('',(-6512.962659,-3488.43973230736,105.627938346923));
#319=CARTESIAN_POINT('',(-6512.962659,-3488.43973230736,105.627938346923));
#320=CARTESIAN_POINT('',(-6512.962659,-3488.43973230736,25.9397323073572));
#321=CARTESIAN_POINT('',(-6506.791703,-3488.43973230736,104.539832307358));
#322=CARTESIAN_POINT('',(-6512.962659,-3488.43973230736,105.627938346923));
#323=CARTESIAN_POINT('',(-6512.962659,-3488.43973230736,105.627938346923));
#324=CARTESIAN_POINT('',(-6512.962659,-4988.43973230736,105.627938346923));
#325=CARTESIAN_POINT('',(-6512.962659,-4988.43973230736,105.627938346923));
#326=CARTESIAN_POINT('',(-6506.791703,-4988.43973230736,104.539832307358));
#327=CARTESIAN_POINT('',(-6506.791703,-4988.43973230736,104.539832307358));
#328=CARTESIAN_POINT('',(-6506.791703,-3488.43973230736,104.539832307358));
#329=CARTESIAN_POINT('',(-6499.962659,-4988.43973230736,5.93973230735719));
#330=CARTESIAN_POINT('',(-6499.962659,-4988.43973230736,88.4397323073571));
#331=CARTESIAN_POINT('',(-6499.962659,-4988.43973230736,88.4397323073571));
#332=CARTESIAN_POINT('',(-6506.791703,-4988.43973230736,104.539832307358));
#333=CARTESIAN_POINT('',(-6506.791703,-4988.43973230736,104.539832307358));
#334=CARTESIAN_POINT('',(-6512.962659,-4988.43973230736,105.627938346923));
#335=CARTESIAN_POINT('',(-6512.962659,-4988.43973230736,105.627938346923));
#336=CARTESIAN_POINT('',(-6512.962659,-4988.43973230736,25.9397323073572));
#337=CARTESIAN_POINT('',(-6512.962659,-4988.43973230736,25.9397323073572));
#338=CARTESIAN_POINT('',(-6512.962659,-4988.43973230736,5.93973230735719));
#339=CARTESIAN_POINT('',(-6512.962659,-4988.43973230736,5.93973230735719));
#340=CARTESIAN_POINT('',(-6499.962659,-4988.43973230736,5.93973230735719));
#341=CARTESIAN_POINT('',(-6512.962659,-3488.43973230736,5.93973230735719));
#342=CARTESIAN_POINT('',(-6512.962659,-3488.43973230736,25.9397323073572));
#343=CARTESIAN_POINT('',(-6512.962659,-3488.43973230736,25.9397323073572));
#344=CARTESIAN_POINT('',(-6512.962659,-3488.43973230736,105.627938346923));
#345=CARTESIAN_POINT('',(-6512.962659,-3488.43973230736,105.627938346923));
#346=CARTESIAN_POINT('',(-6506.791703,-3488.43973230736,104.539832307358));
#347=CARTESIAN_POINT('',(-6506.791703,-3488.43973230736,104.539832307358));
#348=CARTESIAN_POINT('',(-6499.962659,-3488.43973230736,88.4397323073571));
#349=CARTESIAN_POINT('',(-6499.962659,-3488.43973230736,88.4397323073571));
#350=CARTESIAN_POINT('',(-6499.962659,-3488.43973230736,5.93973230735719));
#351=CARTESIAN_POINT('',(-6499.962659,-3488.43973230736,5.93973230735719));
#352=CARTESIAN_POINT('',(-6512.962659,-3488.43973230736,5.93973230735719));
#353=CARTESIAN_POINT('',(-6503.377181,-4238.43973230736,96.4897823073575));
#354=CARTESIAN_POINT('',(-6499.962659,-4238.43973230736,47.1897323073572));
#355=CARTESIAN_POINT('',(-6506.462659,-4238.43973230736,5.93973230735719));
#356=CARTESIAN_POINT('',(-6512.962659,-4238.43973230736,15.9397323073572));
#357=CARTESIAN_POINT('',(-6512.962659,-4238.43973230736,65.78383532714));
#358=CARTESIAN_POINT('',(-6509.877181,-4238.43973230736,105.08388532714));
#359=CARTESIAN_POINT('',(-6506.462659,-4988.43973230736,55.9333676361992));
#360=CARTESIAN_POINT('',(-6506.462659,-3488.43973230736,55.7863424855217));
#361=PRODUCT_DEFINITION_SHAPE('','',#362);
#362=PRODUCT_DEFINITION('','',#374,#379);
#363=(
GEOMETRIC_REPRESENTATION_CONTEXT(3)
GLOBAL_UNCERTAINTY_ASSIGNED_CONTEXT((#364))
GLOBAL_UNIT_ASSIGNED_CONTEXT((#366,#365,#369))
REPRESENTATION_CONTEXT('','')
);
#364=UNCERTAINTY_MEASURE_WITH_UNIT(LENGTH_MEASURE(0.001),#366,'','tolerance');
#365=(
CONVERSION_BASED_UNIT('',#367)
NAMED_UNIT(#373)
PLANE_ANGLE_UNIT()
);
#366=(
CONVERSION_BASED_UNIT('',#368)
LENGTH_UNIT()
NAMED_UNIT(#372)
);
#367=PLANE_ANGLE_MEASURE_WITH_UNIT(PLANE_ANGLE_MEASURE(0.0174532925199433),
#370);
#368=LENGTH_MEASURE_WITH_UNIT(LENGTH_MEASURE(1.),#371);
#369=(
NAMED_UNIT(*)
SI_UNIT($,.STERADIAN.)
SOLID_ANGLE_UNIT()
);
#370=(
NAMED_UNIT(*)
PLANE_ANGLE_UNIT()
SI_UNIT($,.RADIAN.)
);
#371=(
LENGTH_UNIT()
NAMED_UNIT(*)
SI_UNIT(.MILLI.,.METRE.)
);
#372=DIMENSIONAL_EXPONENTS(1.,0.,0.,0.,0.,0.,0.);
#373=DIMENSIONAL_EXPONENTS(0.,0.,0.,0.,0.,0.,0.);
#374=PRODUCT_DEFINITION_FORMATION_WITH_SPECIFIED_SOURCE('','',#377,.NOT_KNOWN.
);
#375=PRODUCT_CATEGORY_RELATIONSHIP('','',#380,#376);
#376=PRODUCT_RELATED_PRODUCT_CATEGORY('assembly','',(#377));
#377=PRODUCT('','master','',(#378));
#378=PRODUCT_CONTEXT('',#382,'');
#379=PRODUCT_DEFINITION_CONTEXT('',#382,'part_definition');
#380=PRODUCT_CATEGORY('part','');
#381=APPLICATION_PROTOCOL_DEFINITION('international standard',
'automotive_design_cc2',1994,#382);
#382=APPLICATION_CONTEXT(
'configuration controlled 3D designs of mechanical parts and assemblies');
ENDSEC;
END-ISO-10303-21;
22088