ISO-10303-21;
HEADER;
/* Generated by software using Delcam plc STEP library */

FILE_DESCRIPTION(
/* description */ ('AP-214 File'),
/* implementation_level */ '2;1');

FILE_NAME(
/* name */ 'PLIN15',
/* time_stamp */ 'Thu Nov 16 08:36:14 2017',
/* author */ (''),
/* organization */ (''),
/* preprocessor_version */ 'DELCAM STEP V1',
/* originating_system */ 'Exchange7.1.0006',
/* authorisation */ '');

FILE_SCHEMA (('AUTOMOTIVE_DESIGN'));
ENDSEC;
DATA;
#10=PRESENTATION_STYLE_ASSIGNMENT((#20));
#11=PRESENTATION_STYLE_ASSIGNMENT((#21));
#12=SURFACE_SIDE_STYLE('',(#14));
#13=SURFACE_SIDE_STYLE('',(#15));
#14=SURFACE_STYLE_FILL_AREA(#16);
#15=SURFACE_STYLE_FILL_AREA(#17);
#16=FILL_AREA_STYLE('',(#18));
#17=FILL_AREA_STYLE('',(#19));
#18=FILL_AREA_STYLE_COLOUR('',#41);
#19=FILL_AREA_STYLE_COLOUR('',#42);
#20=SURFACE_STYLE_USAGE(.BOTH.,#12);
#21=SURFACE_STYLE_USAGE(.BOTH.,#13);
#22=STYLED_ITEM('',(#10),#62);
#23=STYLED_ITEM('',(#10),#63);
#24=STYLED_ITEM('',(#10),#64);
#25=STYLED_ITEM('',(#10),#65);
#26=STYLED_ITEM('',(#10),#66);
#27=STYLED_ITEM('',(#10),#67);
#28=STYLED_ITEM('',(#10),#68);
#29=STYLED_ITEM('',(#10),#69);
#30=STYLED_ITEM('',(#10),#70);
#31=STYLED_ITEM('',(#10),#71);
#32=STYLED_ITEM('',(#10),#72);
#33=STYLED_ITEM('',(#10),#73);
#34=STYLED_ITEM('',(#10),#74);
#35=STYLED_ITEM('',(#10),#75);
#36=STYLED_ITEM('',(#10),#76);
#37=STYLED_ITEM('',(#10),#77);
#38=STYLED_ITEM('',(#10),#78);
#39=STYLED_ITEM('',(#10),#79);
#40=STYLED_ITEM('',(#11),#48);
#41=COLOUR_RGB('',0.,0.,0.);
#42=COLOUR_RGB('rgb_colour_1',0.4,0.4,0.4);
#43=MECHANICAL_DESIGN_GEOMETRIC_PRESENTATION_REPRESENTATION('',(#22,#23,#24,
#25,#26,#27,#28,#29,#30,#31,#32,#33,#34,#35,#36,#37,#38,#39,#40),#672);
#44=PRESENTATION_LAYER_ASSIGNMENT('0','General',(#62,#63,#64,#65,#66,#67,#68,
#69,#70,#71,#72,#73,#74,#75,#76,#77,#78,#79,#48));
#45=SHAPE_REPRESENTATION_RELATIONSHIP('','',#388,#46);
#46=ADVANCED_BREP_SHAPE_REPRESENTATION('',(#47),#672);
#47=MANIFOLD_SOLID_BREP('1',#48);
#48=CLOSED_SHELL('',(#62,#63,#64,#65,#66,#67,#68,#69,#70,#71,#72,#73,#74,#75,
#76,#77,#78,#79));
#49=SURFACE_OF_LINEAR_EXTRUSION('',#249,#342);
#50=SURFACE_OF_LINEAR_EXTRUSION('',#250,#343);
#51=SURFACE_OF_LINEAR_EXTRUSION('',#251,#344);
#52=SURFACE_OF_LINEAR_EXTRUSION('',#252,#345);
#53=SURFACE_OF_LINEAR_EXTRUSION('',#253,#346);
#54=SURFACE_OF_LINEAR_EXTRUSION('',#254,#347);
#55=SURFACE_OF_LINEAR_EXTRUSION('',#255,#348);
#56=SURFACE_OF_LINEAR_EXTRUSION('',#256,#349);
#57=SURFACE_OF_LINEAR_EXTRUSION('',#257,#350);
#58=SURFACE_OF_LINEAR_EXTRUSION('',#258,#351);
#59=SURFACE_OF_LINEAR_EXTRUSION('',#259,#352);
#60=SURFACE_OF_LINEAR_EXTRUSION('',#260,#353);
#61=SURFACE_OF_LINEAR_EXTRUSION('',#261,#354);
#62=ADVANCED_FACE('',(#80),#212,.F.);
#63=ADVANCED_FACE('',(#81),#213,.F.);
#64=ADVANCED_FACE('',(#82),#49,.F.);
#65=ADVANCED_FACE('',(#83),#50,.F.);
#66=ADVANCED_FACE('',(#84),#51,.F.);
#67=ADVANCED_FACE('',(#85),#52,.F.);
#68=ADVANCED_FACE('',(#86),#53,.F.);
#69=ADVANCED_FACE('',(#87),#54,.F.);
#70=ADVANCED_FACE('',(#88),#214,.F.);
#71=ADVANCED_FACE('',(#89),#55,.F.);
#72=ADVANCED_FACE('',(#90),#56,.F.);
#73=ADVANCED_FACE('',(#91),#57,.F.);
#74=ADVANCED_FACE('',(#92),#58,.F.);
#75=ADVANCED_FACE('',(#93),#59,.F.);
#76=ADVANCED_FACE('',(#94),#60,.F.);
#77=ADVANCED_FACE('',(#95),#61,.F.);
#78=ADVANCED_FACE('',(#96),#215,.F.);
#79=ADVANCED_FACE('',(#97),#216,.T.);
#80=FACE_OUTER_BOUND('',#98,.T.);
#81=FACE_OUTER_BOUND('',#99,.T.);
#82=FACE_OUTER_BOUND('',#100,.T.);
#83=FACE_OUTER_BOUND('',#101,.T.);
#84=FACE_OUTER_BOUND('',#102,.T.);
#85=FACE_OUTER_BOUND('',#103,.T.);
#86=FACE_OUTER_BOUND('',#104,.T.);
#87=FACE_OUTER_BOUND('',#105,.T.);
#88=FACE_OUTER_BOUND('',#106,.T.);
#89=FACE_OUTER_BOUND('',#107,.T.);
#90=FACE_OUTER_BOUND('',#108,.T.);
#91=FACE_OUTER_BOUND('',#109,.T.);
#92=FACE_OUTER_BOUND('',#110,.T.);
#93=FACE_OUTER_BOUND('',#111,.T.);
#94=FACE_OUTER_BOUND('',#112,.T.);
#95=FACE_OUTER_BOUND('',#113,.T.);
#96=FACE_OUTER_BOUND('',#114,.T.);
#97=FACE_OUTER_BOUND('',#115,.T.);
#98=EDGE_LOOP('',(#116,#117,#118,#119));
#99=EDGE_LOOP('',(#120,#121,#122,#123));
#100=EDGE_LOOP('',(#124,#125,#126,#127));
#101=EDGE_LOOP('',(#128,#129,#130,#131));
#102=EDGE_LOOP('',(#132,#133,#134,#135));
#103=EDGE_LOOP('',(#136,#137,#138,#139));
#104=EDGE_LOOP('',(#140,#141,#142,#143));
#105=EDGE_LOOP('',(#144,#145,#146,#147));
#106=EDGE_LOOP('',(#148,#149,#150,#151));
#107=EDGE_LOOP('',(#152,#153,#154,#155));
#108=EDGE_LOOP('',(#156,#157,#158,#159));
#109=EDGE_LOOP('',(#160,#161,#162,#163));
#110=EDGE_LOOP('',(#164,#165,#166,#167));
#111=EDGE_LOOP('',(#168,#169,#170,#171));
#112=EDGE_LOOP('',(#172,#173,#174,#175));
#113=EDGE_LOOP('',(#176,#177,#178,#179));
#114=EDGE_LOOP('',(#180,#181,#182,#183,#184,#185,#186,#187,#188,#189,#190,#191
,#192,#193,#194,#195));
#115=EDGE_LOOP('',(#196,#197,#198,#199,#200,#201,#202,#203,#204,#205,#206,#207
,#208,#209,#210,#211));
#116=ORIENTED_EDGE('',*,*,#309,.T.);
#117=ORIENTED_EDGE('',*,*,#262,.F.);
#118=ORIENTED_EDGE('',*,*,#293,.F.);
#119=ORIENTED_EDGE('',*,*,#277,.T.);
#120=ORIENTED_EDGE('',*,*,#308,.T.);
#121=ORIENTED_EDGE('',*,*,#263,.F.);
#122=ORIENTED_EDGE('',*,*,#292,.F.);
#123=ORIENTED_EDGE('',*,*,#262,.T.);
#124=ORIENTED_EDGE('',*,*,#307,.T.);
#125=ORIENTED_EDGE('',*,*,#264,.F.);
#126=ORIENTED_EDGE('',*,*,#291,.F.);
#127=ORIENTED_EDGE('',*,*,#263,.T.);
#128=ORIENTED_EDGE('',*,*,#306,.T.);
#129=ORIENTED_EDGE('',*,*,#265,.F.);
#130=ORIENTED_EDGE('',*,*,#290,.F.);
#131=ORIENTED_EDGE('',*,*,#264,.T.);
#132=ORIENTED_EDGE('',*,*,#305,.T.);
#133=ORIENTED_EDGE('',*,*,#266,.F.);
#134=ORIENTED_EDGE('',*,*,#289,.F.);
#135=ORIENTED_EDGE('',*,*,#265,.T.);
#136=ORIENTED_EDGE('',*,*,#304,.T.);
#137=ORIENTED_EDGE('',*,*,#267,.F.);
#138=ORIENTED_EDGE('',*,*,#288,.F.);
#139=ORIENTED_EDGE('',*,*,#266,.T.);
#140=ORIENTED_EDGE('',*,*,#303,.T.);
#141=ORIENTED_EDGE('',*,*,#268,.F.);
#142=ORIENTED_EDGE('',*,*,#287,.F.);
#143=ORIENTED_EDGE('',*,*,#267,.T.);
#144=ORIENTED_EDGE('',*,*,#302,.T.);
#145=ORIENTED_EDGE('',*,*,#269,.F.);
#146=ORIENTED_EDGE('',*,*,#286,.F.);
#147=ORIENTED_EDGE('',*,*,#268,.T.);
#148=ORIENTED_EDGE('',*,*,#301,.T.);
#149=ORIENTED_EDGE('',*,*,#270,.F.);
#150=ORIENTED_EDGE('',*,*,#285,.F.);
#151=ORIENTED_EDGE('',*,*,#269,.T.);
#152=ORIENTED_EDGE('',*,*,#300,.T.);
#153=ORIENTED_EDGE('',*,*,#271,.F.);
#154=ORIENTED_EDGE('',*,*,#284,.F.);
#155=ORIENTED_EDGE('',*,*,#270,.T.);
#156=ORIENTED_EDGE('',*,*,#299,.T.);
#157=ORIENTED_EDGE('',*,*,#272,.F.);
#158=ORIENTED_EDGE('',*,*,#283,.F.);
#159=ORIENTED_EDGE('',*,*,#271,.T.);
#160=ORIENTED_EDGE('',*,*,#298,.T.);
#161=ORIENTED_EDGE('',*,*,#273,.F.);
#162=ORIENTED_EDGE('',*,*,#282,.F.);
#163=ORIENTED_EDGE('',*,*,#272,.T.);
#164=ORIENTED_EDGE('',*,*,#297,.T.);
#165=ORIENTED_EDGE('',*,*,#274,.F.);
#166=ORIENTED_EDGE('',*,*,#281,.F.);
#167=ORIENTED_EDGE('',*,*,#273,.T.);
#168=ORIENTED_EDGE('',*,*,#296,.T.);
#169=ORIENTED_EDGE('',*,*,#275,.F.);
#170=ORIENTED_EDGE('',*,*,#280,.F.);
#171=ORIENTED_EDGE('',*,*,#274,.T.);
#172=ORIENTED_EDGE('',*,*,#295,.T.);
#173=ORIENTED_EDGE('',*,*,#276,.F.);
#174=ORIENTED_EDGE('',*,*,#279,.F.);
#175=ORIENTED_EDGE('',*,*,#275,.T.);
#176=ORIENTED_EDGE('',*,*,#294,.T.);
#177=ORIENTED_EDGE('',*,*,#277,.F.);
#178=ORIENTED_EDGE('',*,*,#278,.F.);
#179=ORIENTED_EDGE('',*,*,#276,.T.);
#180=ORIENTED_EDGE('',*,*,#293,.T.);
#181=ORIENTED_EDGE('',*,*,#292,.T.);
#182=ORIENTED_EDGE('',*,*,#291,.T.);
#183=ORIENTED_EDGE('',*,*,#290,.T.);
#184=ORIENTED_EDGE('',*,*,#289,.T.);
#185=ORIENTED_EDGE('',*,*,#288,.T.);
#186=ORIENTED_EDGE('',*,*,#287,.T.);
#187=ORIENTED_EDGE('',*,*,#286,.T.);
#188=ORIENTED_EDGE('',*,*,#285,.T.);
#189=ORIENTED_EDGE('',*,*,#284,.T.);
#190=ORIENTED_EDGE('',*,*,#283,.T.);
#191=ORIENTED_EDGE('',*,*,#282,.T.);
#192=ORIENTED_EDGE('',*,*,#281,.T.);
#193=ORIENTED_EDGE('',*,*,#280,.T.);
#194=ORIENTED_EDGE('',*,*,#279,.T.);
#195=ORIENTED_EDGE('',*,*,#278,.T.);
#196=ORIENTED_EDGE('',*,*,#309,.F.);
#197=ORIENTED_EDGE('',*,*,#294,.F.);
#198=ORIENTED_EDGE('',*,*,#295,.F.);
#199=ORIENTED_EDGE('',*,*,#296,.F.);
#200=ORIENTED_EDGE('',*,*,#297,.F.);
#201=ORIENTED_EDGE('',*,*,#298,.F.);
#202=ORIENTED_EDGE('',*,*,#299,.F.);
#203=ORIENTED_EDGE('',*,*,#300,.F.);
#204=ORIENTED_EDGE('',*,*,#301,.F.);
#205=ORIENTED_EDGE('',*,*,#302,.F.);
#206=ORIENTED_EDGE('',*,*,#303,.F.);
#207=ORIENTED_EDGE('',*,*,#304,.F.);
#208=ORIENTED_EDGE('',*,*,#305,.F.);
#209=ORIENTED_EDGE('',*,*,#306,.F.);
#210=ORIENTED_EDGE('',*,*,#307,.F.);
#211=ORIENTED_EDGE('',*,*,#308,.F.);
#212=PLANE('',#390);
#213=PLANE('',#391);
#214=PLANE('',#392);
#215=PLANE('',#393);
#216=PLANE('',#394);
#217=B_SPLINE_CURVE_WITH_KNOTS('',3,(#485,#486,#487,#488),.UNSPECIFIED.,.F.,
.F.,(4,4),(0.,1.),.UNSPECIFIED.);
#218=B_SPLINE_CURVE_WITH_KNOTS('',3,(#489,#490,#491,#492),.UNSPECIFIED.,.F.,
.F.,(4,4),(0.,1.),.UNSPECIFIED.);
#219=B_SPLINE_CURVE_WITH_KNOTS('',3,(#493,#494,#495,#496),.UNSPECIFIED.,.F.,
.F.,(4,4),(0.,1.),.UNSPECIFIED.);
#220=B_SPLINE_CURVE_WITH_KNOTS('',3,(#497,#498,#499,#500),.UNSPECIFIED.,.F.,
.F.,(4,4),(0.,1.),.UNSPECIFIED.);
#221=B_SPLINE_CURVE_WITH_KNOTS('',3,(#501,#502,#503,#504),.UNSPECIFIED.,.F.,
.F.,(4,4),(0.,1.),.UNSPECIFIED.);
#222=B_SPLINE_CURVE_WITH_KNOTS('',3,(#505,#506,#507,#508),.UNSPECIFIED.,.F.,
.F.,(4,4),(0.,1.),.UNSPECIFIED.);
#223=B_SPLINE_CURVE_WITH_KNOTS('',3,(#509,#510,#511,#512),.UNSPECIFIED.,.F.,
.F.,(4,4),(0.,1.),.UNSPECIFIED.);
#224=B_SPLINE_CURVE_WITH_KNOTS('',3,(#513,#514,#515,#516),.UNSPECIFIED.,.F.,
.F.,(4,4),(0.,1.),.UNSPECIFIED.);
#225=B_SPLINE_CURVE_WITH_KNOTS('',3,(#517,#518,#519,#520),.UNSPECIFIED.,.F.,
.F.,(4,4),(0.,1.),.UNSPECIFIED.);
#226=B_SPLINE_CURVE_WITH_KNOTS('',3,(#521,#522,#523,#524),.UNSPECIFIED.,.F.,
.F.,(4,4),(0.,1.),.UNSPECIFIED.);
#227=B_SPLINE_CURVE_WITH_KNOTS('',3,(#525,#526,#527,#528),.UNSPECIFIED.,.F.,
.F.,(4,4),(0.,1.),.UNSPECIFIED.);
#228=B_SPLINE_CURVE_WITH_KNOTS('',3,(#529,#530,#531,#532),.UNSPECIFIED.,.F.,
.F.,(4,4),(0.,1.),.UNSPECIFIED.);
#229=B_SPLINE_CURVE_WITH_KNOTS('',3,(#533,#534,#535,#536),.UNSPECIFIED.,.F.,
.F.,(4,4),(0.,1.),.UNSPECIFIED.);
#230=B_SPLINE_CURVE_WITH_KNOTS('',3,(#537,#538,#539,#540),.UNSPECIFIED.,.F.,
.F.,(4,4),(0.,1.),.UNSPECIFIED.);
#231=B_SPLINE_CURVE_WITH_KNOTS('',3,(#541,#542,#543,#544),.UNSPECIFIED.,.F.,
.F.,(4,4),(0.,1.),.UNSPECIFIED.);
#232=B_SPLINE_CURVE_WITH_KNOTS('',3,(#545,#546,#547,#548),.UNSPECIFIED.,.F.,
.F.,(4,4),(0.,1.),.UNSPECIFIED.);
#233=B_SPLINE_CURVE_WITH_KNOTS('',3,(#549,#550,#551,#552),.UNSPECIFIED.,.F.,
.F.,(4,4),(0.,1.),.UNSPECIFIED.);
#234=B_SPLINE_CURVE_WITH_KNOTS('',3,(#553,#554,#555,#556),.UNSPECIFIED.,.F.,
.F.,(4,4),(0.,1.),.UNSPECIFIED.);
#235=B_SPLINE_CURVE_WITH_KNOTS('',3,(#557,#558,#559,#560),.UNSPECIFIED.,.F.,
.F.,(4,4),(0.,1.),.UNSPECIFIED.);
#236=B_SPLINE_CURVE_WITH_KNOTS('',3,(#561,#562,#563,#564),.UNSPECIFIED.,.F.,
.F.,(4,4),(0.,1.),.UNSPECIFIED.);
#237=B_SPLINE_CURVE_WITH_KNOTS('',3,(#565,#566,#567,#568),.UNSPECIFIED.,.F.,
.F.,(4,4),(0.,1.),.UNSPECIFIED.);
#238=B_SPLINE_CURVE_WITH_KNOTS('',3,(#569,#570,#571,#572),.UNSPECIFIED.,.F.,
.F.,(4,4),(0.,1.),.UNSPECIFIED.);
#239=B_SPLINE_CURVE_WITH_KNOTS('',3,(#573,#574,#575,#576),.UNSPECIFIED.,.F.,
.F.,(4,4),(0.,1.),.UNSPECIFIED.);
#240=B_SPLINE_CURVE_WITH_KNOTS('',3,(#577,#578,#579,#580),.UNSPECIFIED.,.F.,
.F.,(4,4),(0.,1.),.UNSPECIFIED.);
#241=B_SPLINE_CURVE_WITH_KNOTS('',3,(#581,#582,#583,#584),.UNSPECIFIED.,.F.,
.F.,(4,4),(0.,1.),.UNSPECIFIED.);
#242=B_SPLINE_CURVE_WITH_KNOTS('',3,(#585,#586,#587,#588),.UNSPECIFIED.,.F.,
.F.,(4,4),(0.,1.),.UNSPECIFIED.);
#243=B_SPLINE_CURVE_WITH_KNOTS('',3,(#589,#590,#591,#592),.UNSPECIFIED.,.F.,
.F.,(4,4),(0.,1.),.UNSPECIFIED.);
#244=B_SPLINE_CURVE_WITH_KNOTS('',3,(#593,#594,#595,#596),.UNSPECIFIED.,.F.,
.F.,(4,4),(0.,1.),.UNSPECIFIED.);
#245=B_SPLINE_CURVE_WITH_KNOTS('',3,(#597,#598,#599,#600),.UNSPECIFIED.,.F.,
.F.,(4,4),(0.,1.),.UNSPECIFIED.);
#246=B_SPLINE_CURVE_WITH_KNOTS('',3,(#601,#602,#603,#604),.UNSPECIFIED.,.F.,
.F.,(4,4),(0.,1.),.UNSPECIFIED.);
#247=B_SPLINE_CURVE_WITH_KNOTS('',3,(#605,#606,#607,#608),.UNSPECIFIED.,.F.,
.F.,(4,4),(0.,1.),.UNSPECIFIED.);
#248=B_SPLINE_CURVE_WITH_KNOTS('',3,(#609,#610,#611,#612),.UNSPECIFIED.,.F.,
.F.,(4,4),(0.,1.),.UNSPECIFIED.);
#249=B_SPLINE_CURVE_WITH_KNOTS('',3,(#615,#616,#617,#618),.UNSPECIFIED.,.F.,
.F.,(4,4),(0.,1.),.UNSPECIFIED.);
#250=B_SPLINE_CURVE_WITH_KNOTS('',3,(#619,#620,#621,#622),.UNSPECIFIED.,.F.,
.F.,(4,4),(0.,1.),.UNSPECIFIED.);
#251=B_SPLINE_CURVE_WITH_KNOTS('',3,(#623,#624,#625,#626),.UNSPECIFIED.,.F.,
.F.,(4,4),(0.,1.),.UNSPECIFIED.);
#252=B_SPLINE_CURVE_WITH_KNOTS('',3,(#627,#628,#629,#630),.UNSPECIFIED.,.F.,
.F.,(4,4),(0.,1.),.UNSPECIFIED.);
#253=B_SPLINE_CURVE_WITH_KNOTS('',3,(#631,#632,#633,#634),.UNSPECIFIED.,.F.,
.F.,(4,4),(0.,1.),.UNSPECIFIED.);
#254=B_SPLINE_CURVE_WITH_KNOTS('',3,(#635,#636,#637,#638),.UNSPECIFIED.,.F.,
.F.,(4,4),(0.,1.),.UNSPECIFIED.);
#255=B_SPLINE_CURVE_WITH_KNOTS('',3,(#640,#641,#642,#643),.UNSPECIFIED.,.F.,
.F.,(4,4),(0.,1.),.UNSPECIFIED.);
#256=B_SPLINE_CURVE_WITH_KNOTS('',3,(#644,#645,#646,#647),.UNSPECIFIED.,.F.,
.F.,(4,4),(0.,1.),.UNSPECIFIED.);
#257=B_SPLINE_CURVE_WITH_KNOTS('',3,(#648,#649,#650,#651),.UNSPECIFIED.,.F.,
.F.,(4,4),(0.,1.),.UNSPECIFIED.);
#258=B_SPLINE_CURVE_WITH_KNOTS('',3,(#652,#653,#654,#655),.UNSPECIFIED.,.F.,
.F.,(4,4),(0.,1.),.UNSPECIFIED.);
#259=B_SPLINE_CURVE_WITH_KNOTS('',3,(#656,#657,#658,#659),.UNSPECIFIED.,.F.,
.F.,(4,4),(0.,1.),.UNSPECIFIED.);
#260=B_SPLINE_CURVE_WITH_KNOTS('',3,(#660,#661,#662,#663),.UNSPECIFIED.,.F.,
.F.,(4,4),(0.,1.),.UNSPECIFIED.);
#261=B_SPLINE_CURVE_WITH_KNOTS('',3,(#664,#665,#666,#667),.UNSPECIFIED.,.F.,
.F.,(4,4),(0.,1.),.UNSPECIFIED.);
#262=EDGE_CURVE('',#370,#386,#310,.T.);
#263=EDGE_CURVE('',#369,#385,#311,.T.);
#264=EDGE_CURVE('',#368,#384,#312,.T.);
#265=EDGE_CURVE('',#367,#383,#313,.T.);
#266=EDGE_CURVE('',#366,#382,#314,.T.);
#267=EDGE_CURVE('',#365,#381,#315,.T.);
#268=EDGE_CURVE('',#364,#380,#316,.T.);
#269=EDGE_CURVE('',#363,#379,#317,.T.);
#270=EDGE_CURVE('',#362,#378,#318,.T.);
#271=EDGE_CURVE('',#361,#377,#319,.T.);
#272=EDGE_CURVE('',#360,#376,#320,.T.);
#273=EDGE_CURVE('',#359,#375,#321,.T.);
#274=EDGE_CURVE('',#358,#374,#322,.T.);
#275=EDGE_CURVE('',#357,#373,#323,.T.);
#276=EDGE_CURVE('',#356,#372,#324,.T.);
#277=EDGE_CURVE('',#355,#371,#325,.T.);
#278=EDGE_CURVE('',#356,#355,#217,.T.);
#279=EDGE_CURVE('',#357,#356,#218,.T.);
#280=EDGE_CURVE('',#358,#357,#219,.T.);
#281=EDGE_CURVE('',#359,#358,#220,.T.);
#282=EDGE_CURVE('',#360,#359,#221,.T.);
#283=EDGE_CURVE('',#361,#360,#222,.T.);
#284=EDGE_CURVE('',#362,#361,#223,.T.);
#285=EDGE_CURVE('',#363,#362,#224,.T.);
#286=EDGE_CURVE('',#364,#363,#225,.T.);
#287=EDGE_CURVE('',#365,#364,#226,.T.);
#288=EDGE_CURVE('',#366,#365,#227,.T.);
#289=EDGE_CURVE('',#367,#366,#228,.T.);
#290=EDGE_CURVE('',#368,#367,#229,.T.);
#291=EDGE_CURVE('',#369,#368,#230,.T.);
#292=EDGE_CURVE('',#370,#369,#231,.T.);
#293=EDGE_CURVE('',#355,#370,#232,.T.);
#294=EDGE_CURVE('',#372,#371,#233,.T.);
#295=EDGE_CURVE('',#373,#372,#234,.T.);
#296=EDGE_CURVE('',#374,#373,#235,.T.);
#297=EDGE_CURVE('',#375,#374,#236,.T.);
#298=EDGE_CURVE('',#376,#375,#237,.T.);
#299=EDGE_CURVE('',#377,#376,#238,.T.);
#300=EDGE_CURVE('',#378,#377,#239,.T.);
#301=EDGE_CURVE('',#379,#378,#240,.T.);
#302=EDGE_CURVE('',#380,#379,#241,.T.);
#303=EDGE_CURVE('',#381,#380,#242,.T.);
#304=EDGE_CURVE('',#382,#381,#243,.T.);
#305=EDGE_CURVE('',#383,#382,#244,.T.);
#306=EDGE_CURVE('',#384,#383,#245,.T.);
#307=EDGE_CURVE('',#385,#384,#246,.T.);
#308=EDGE_CURVE('',#386,#385,#247,.T.);
#309=EDGE_CURVE('',#371,#386,#248,.T.);
#310=LINE('',#469,#326);
#311=LINE('',#470,#327);
#312=LINE('',#471,#328);
#313=LINE('',#472,#329);
#314=LINE('',#473,#330);
#315=LINE('',#474,#331);
#316=LINE('',#475,#332);
#317=LINE('',#476,#333);
#318=LINE('',#477,#334);
#319=LINE('',#478,#335);
#320=LINE('',#479,#336);
#321=LINE('',#480,#337);
#322=LINE('',#481,#338);
#323=LINE('',#482,#339);
#324=LINE('',#483,#340);
#325=LINE('',#484,#341);
#326=VECTOR('',#397,1.);
#327=VECTOR('',#398,1.);
#328=VECTOR('',#399,1.);
#329=VECTOR('',#400,1.);
#330=VECTOR('',#401,1.);
#331=VECTOR('',#402,1.);
#332=VECTOR('',#403,1.);
#333=VECTOR('',#404,1.);
#334=VECTOR('',#405,1.);
#335=VECTOR('',#406,1.);
#336=VECTOR('',#407,1.);
#337=VECTOR('',#408,1.);
#338=VECTOR('',#409,1.);
#339=VECTOR('',#410,1.);
#340=VECTOR('',#411,1.);
#341=VECTOR('',#412,1.);
#342=VECTOR('',#417,1.);
#343=VECTOR('',#418,1.);
#344=VECTOR('',#419,1.);
#345=VECTOR('',#420,1.);
#346=VECTOR('',#421,1.);
#347=VECTOR('',#422,1.);
#348=VECTOR('',#425,1.);
#349=VECTOR('',#426,1.);
#350=VECTOR('',#427,1.);
#351=VECTOR('',#428,1.);
#352=VECTOR('',#429,1.);
#353=VECTOR('',#430,1.);
#354=VECTOR('',#431,1.);
#355=VERTEX_POINT('',#437);
#356=VERTEX_POINT('',#438);
#357=VERTEX_POINT('',#439);
#358=VERTEX_POINT('',#440);
#359=VERTEX_POINT('',#441);
#360=VERTEX_POINT('',#442);
#361=VERTEX_POINT('',#443);
#362=VERTEX_POINT('',#444);
#363=VERTEX_POINT('',#445);
#364=VERTEX_POINT('',#446);
#365=VERTEX_POINT('',#447);
#366=VERTEX_POINT('',#448);
#367=VERTEX_POINT('',#449);
#368=VERTEX_POINT('',#450);
#369=VERTEX_POINT('',#451);
#370=VERTEX_POINT('',#452);
#371=VERTEX_POINT('',#453);
#372=VERTEX_POINT('',#454);
#373=VERTEX_POINT('',#455);
#374=VERTEX_POINT('',#456);
#375=VERTEX_POINT('',#457);
#376=VERTEX_POINT('',#458);
#377=VERTEX_POINT('',#459);
#378=VERTEX_POINT('',#460);
#379=VERTEX_POINT('',#461);
#380=VERTEX_POINT('',#462);
#381=VERTEX_POINT('',#463);
#382=VERTEX_POINT('',#464);
#383=VERTEX_POINT('',#465);
#384=VERTEX_POINT('',#466);
#385=VERTEX_POINT('',#467);
#386=VERTEX_POINT('',#468);
#387=SHAPE_DEFINITION_REPRESENTATION(#670,#388);
#388=SHAPE_REPRESENTATION('master',(#389),#672);
#389=AXIS2_PLACEMENT_3D('',#436,#396,#395);
#390=AXIS2_PLACEMENT_3D('',#613,#414,#413);
#391=AXIS2_PLACEMENT_3D('',#614,#416,#415);
#392=AXIS2_PLACEMENT_3D('',#639,#424,#423);
#393=AXIS2_PLACEMENT_3D('',#668,#433,#432);
#394=AXIS2_PLACEMENT_3D('',#669,#435,#434);
#395=DIRECTION('',(1.,0.,0.));
#396=DIRECTION('',(0.,0.,1.));
#397=DIRECTION('',(-5.52769753173467E-012,-1.,-1.36694946848158E-013));
#398=DIRECTION('',(-5.52769753173467E-012,-1.,-1.36694946848158E-013));
#399=DIRECTION('',(-5.52769753173467E-012,-1.,-1.36694946848158E-013));
#400=DIRECTION('',(-5.52769753173467E-012,-1.,-1.36694946848158E-013));
#401=DIRECTION('',(-5.52769753173467E-012,-1.,-1.36694946848158E-013));
#402=DIRECTION('',(-5.52769753173467E-012,-1.,-1.36694946848158E-013));
#403=DIRECTION('',(-5.52769753173467E-012,-1.,-1.36694946848158E-013));
#404=DIRECTION('',(-5.52769753173467E-012,-1.,-1.36694946848158E-013));
#405=DIRECTION('',(-5.52769753173467E-012,-1.,-1.36694946848158E-013));
#406=DIRECTION('',(-5.52769753173467E-012,-1.,-1.36694946848158E-013));
#407=DIRECTION('',(-5.52769753173467E-012,-1.,-1.36694946848158E-013));
#408=DIRECTION('',(-5.52769753173467E-012,-1.,-1.36694946848158E-013));
#409=DIRECTION('',(-5.52769753173467E-012,-1.,-1.36694946848158E-013));
#410=DIRECTION('',(-5.52769753173467E-012,-1.,-1.36694946848158E-013));
#411=DIRECTION('',(-5.52769753173467E-012,-1.,-1.36694946848158E-013));
#412=DIRECTION('',(-5.52769753173467E-012,-1.,-1.36694946848158E-013));
#413=DIRECTION('',(0.99818447667745,1.57772181044202E-030,0.0602308103894128)
);
#414=DIRECTION('',(-0.0602308103894128,1.96490927939855E-013,0.99818447667745)
);
#415=DIRECTION('',(5.52769753173467E-012,1.,0.));
#416=DIRECTION('',(1.,-5.52769753173467E-012,0.));
#417=DIRECTION('',(-5.52769753173467E-012,-1.,-1.36694946848158E-013));
#418=DIRECTION('',(-5.52769753173467E-012,-1.,-1.36694946848158E-013));
#419=DIRECTION('',(-5.52769753173467E-012,-1.,-1.36694946848158E-013));
#420=DIRECTION('',(-5.52769753173467E-012,-1.,-1.36694946848158E-013));
#421=DIRECTION('',(-5.52769753173467E-012,-1.,-1.36694946848158E-013));
#422=DIRECTION('',(-5.52769753173467E-012,-1.,-1.36694946848158E-013));
#423=DIRECTION('',(-5.52769753173467E-012,-1.,0.));
#424=DIRECTION('',(-1.,5.52769753173467E-012,0.));
#425=DIRECTION('',(-5.52769753173467E-012,-1.,-1.36694946848158E-013));
#426=DIRECTION('',(-5.52769753173467E-012,-1.,-1.36694946848158E-013));
#427=DIRECTION('',(-5.52769753173467E-012,-1.,-1.36694946848158E-013));
#428=DIRECTION('',(-5.52769753173467E-012,-1.,-1.36694946848158E-013));
#429=DIRECTION('',(-5.52769753173467E-012,-1.,-1.36694946848158E-013));
#430=DIRECTION('',(-5.52769753173467E-012,-1.,-1.36694946848158E-013));
#431=DIRECTION('',(-5.52769753173467E-012,-1.,-1.36694946848158E-013));
#432=DIRECTION('',(0.,0.,-1.));
#433=DIRECTION('',(0.,-1.,0.));
#434=DIRECTION('',(0.,0.,-1.));
#435=DIRECTION('',(0.,-1.,0.));
#436=CARTESIAN_POINT('',(0.,0.,0.));
#437=CARTESIAN_POINT('',(-6635.42867402395,-3488.43973230736,
2.05030901466167E-010));
#438=CARTESIAN_POINT('',(-6636.86227902669,-3488.43973230736,113.158034847307)
);
#439=CARTESIAN_POINT('',(-6637.40884239027,-3488.43973230736,114.71458747038)
);
#440=CARTESIAN_POINT('',(-6639.00701160758,-3488.43973230736,116.445019512927)
);
#441=CARTESIAN_POINT('',(-6639.5450464499,-3488.43973230736,118.735431473922)
);
#442=CARTESIAN_POINT('',(-6638.24850173984,-3488.43973230736,122.354529304032)
);
#443=CARTESIAN_POINT('',(-6640.21213664972,-3488.43973230736,129.01222979919)
);
#444=CARTESIAN_POINT('',(-6642.64625399171,-3488.43973230736,134.070417945222)
);
#445=CARTESIAN_POINT('',(-6642.64625399171,-3488.43973230736,136.678964349508)
);
#446=CARTESIAN_POINT('',(-6642.94683630872,-3488.43973230736,137.371564119194)
);
#447=CARTESIAN_POINT('',(-6643.94173318924,-3488.43973230736,138.301893170937)
);
#448=CARTESIAN_POINT('',(-6643.95322077054,-3488.43973230736,140.58731827273)
);
#449=CARTESIAN_POINT('',(-6642.48899649335,-3488.43973230736,144.665222573826)
);
#450=CARTESIAN_POINT('',(-6645.30495874193,-3488.43973230736,147.962046044886)
);
#451=CARTESIAN_POINT('',(-6651.99999999171,-3488.43973230736,148.693419298083)
);
#452=CARTESIAN_POINT('',(-6651.99999999171,-3488.43973230736,
-0.999919769723013));
#453=CARTESIAN_POINT('',(-6635.42867403224,-4988.43973230736,
-1.15188060701333E-014));
#454=CARTESIAN_POINT('',(-6636.86227903498,-4988.43973230736,113.158034847102)
);
#455=CARTESIAN_POINT('',(-6637.40884239856,-4988.43973230736,114.714587470175)
);
#456=CARTESIAN_POINT('',(-6639.00701161588,-4988.43973230736,116.445019512722)
);
#457=CARTESIAN_POINT('',(-6639.54504645819,-4988.43973230736,118.735431473717)
);
#458=CARTESIAN_POINT('',(-6638.24850174813,-4988.43973230736,122.354529303827)
);
#459=CARTESIAN_POINT('',(-6640.21213665801,-4988.43973230736,129.012229798985)
);
#460=CARTESIAN_POINT('',(-6642.646254,-4988.43973230736,134.070417945017));
#461=CARTESIAN_POINT('',(-6642.646254,-4988.43973230736,136.678964349303));
#462=CARTESIAN_POINT('',(-6642.94683631701,-4988.43973230736,137.371564118989)
);
#463=CARTESIAN_POINT('',(-6643.94173319753,-4988.43973230736,138.301893170732)
);
#464=CARTESIAN_POINT('',(-6643.95322077883,-4988.43973230736,140.587318272525)
);
#465=CARTESIAN_POINT('',(-6642.48899650164,-4988.43973230736,144.665222573621)
);
#466=CARTESIAN_POINT('',(-6645.30495875022,-4988.43973230736,147.96204604468)
);
#467=CARTESIAN_POINT('',(-6652.,-4988.43973230736,148.693419297878));
#468=CARTESIAN_POINT('',(-6652.,-4988.43973230736,-0.999919769928056));
#469=CARTESIAN_POINT('',(-6651.99999999171,-3488.43973230736,
-0.999919769723013));
#470=CARTESIAN_POINT('',(-6651.99999999171,-3488.43973230736,148.693419298083)
);
#471=CARTESIAN_POINT('',(-6645.30495874193,-3488.43973230736,147.962046044886)
);
#472=CARTESIAN_POINT('',(-6642.48899649335,-3488.43973230736,144.665222573826)
);
#473=CARTESIAN_POINT('',(-6643.95322077054,-3488.43973230736,140.58731827273)
);
#474=CARTESIAN_POINT('',(-6643.94173318924,-3488.43973230736,138.301893170937)
);
#475=CARTESIAN_POINT('',(-6642.94683630872,-3488.43973230736,137.371564119194)
);
#476=CARTESIAN_POINT('',(-6642.64625399171,-3488.43973230736,136.678964349508)
);
#477=CARTESIAN_POINT('',(-6642.64625399171,-3488.43973230736,134.070417945222)
);
#478=CARTESIAN_POINT('',(-6640.21213664972,-3488.43973230736,129.01222979919)
);
#479=CARTESIAN_POINT('',(-6638.24850173984,-3488.43973230736,122.354529304032)
);
#480=CARTESIAN_POINT('',(-6639.5450464499,-3488.43973230736,118.735431473922)
);
#481=CARTESIAN_POINT('',(-6639.00701160758,-3488.43973230736,116.445019512927)
);
#482=CARTESIAN_POINT('',(-6637.40884239027,-3488.43973230736,114.71458747038)
);
#483=CARTESIAN_POINT('',(-6636.86227902669,-3488.43973230736,113.158034847307)
);
#484=CARTESIAN_POINT('',(-6635.42867402395,-3488.43973230736,
2.05030901466167E-010));
#485=CARTESIAN_POINT('',(-6636.86227902669,-3488.43973230736,113.158034847307)
);
#486=CARTESIAN_POINT('',(-6636.38616653733,-3488.43973230736,75.4386678120816)
);
#487=CARTESIAN_POINT('',(-6635.90650452329,-3488.43973230736,37.719345310728)
);
#488=CARTESIAN_POINT('',(-6635.42867402395,-3488.43973230736,
2.05030901466167E-010));
#489=CARTESIAN_POINT('',(-6637.40884239027,-3488.43973230736,114.71458747038)
);
#490=CARTESIAN_POINT('',(-6637.06363913135,-3488.43973230736,114.273548661004)
);
#491=CARTESIAN_POINT('',(-6636.86934796772,-3488.43973230736,113.718062124696)
);
#492=CARTESIAN_POINT('',(-6636.86227902669,-3488.43973230736,113.158034847307)
);
#493=CARTESIAN_POINT('',(-6639.00701160758,-3488.43973230736,116.445019512927)
);
#494=CARTESIAN_POINT('',(-6638.42700657313,-3488.43973230735,115.914497332174)
);
#495=CARTESIAN_POINT('',(-6637.89332257546,-3488.43973230736,115.333569355757)
);
#496=CARTESIAN_POINT('',(-6637.40884239027,-3488.43973230736,114.71458747038)
);
#497=CARTESIAN_POINT('',(-6639.5450464499,-3488.43973230736,118.735431473922)
);
#498=CARTESIAN_POINT('',(-6639.86148913399,-3488.43973230736,117.9569189051));
#499=CARTESIAN_POINT('',(-6639.63636933914,-3488.43973230736,117.001909661724)
);
#500=CARTESIAN_POINT('',(-6639.00701160758,-3488.43973230736,116.445019512927)
);
#501=CARTESIAN_POINT('',(-6638.24850173984,-3488.43973230736,122.354529304032)
);
#502=CARTESIAN_POINT('',(-6638.65322698792,-3488.43973230736,121.138534645027)
);
#503=CARTESIAN_POINT('',(-6639.08215291993,-3488.43973230736,119.930494282764)
);
#504=CARTESIAN_POINT('',(-6639.5450464499,-3488.43973230736,118.735431473922)
);
#505=CARTESIAN_POINT('',(-6640.21213664972,-3488.43973230736,129.01222979919)
);
#506=CARTESIAN_POINT('',(-6638.2437271034,-3488.43973230736,127.49508507221));
#507=CARTESIAN_POINT('',(-6637.42242112919,-3488.43973230736,124.698405577399)
);
#508=CARTESIAN_POINT('',(-6638.24850173984,-3488.43973230736,122.354529304032)
);
#509=CARTESIAN_POINT('',(-6642.64625399171,-3488.43973230736,134.070417945222)
);
#510=CARTESIAN_POINT('',(-6642.66021799821,-3488.43973230737,132.130012620793)
);
#511=CARTESIAN_POINT('',(-6641.73665203714,-3488.43973230735,130.212738295679)
);
#512=CARTESIAN_POINT('',(-6640.21213664972,-3488.43973230736,129.01222979919)
);
#513=CARTESIAN_POINT('',(-6642.64625399171,-3488.43973230736,136.678964349508)
);
#514=CARTESIAN_POINT('',(-6642.64625399171,-3488.43973230736,135.809448881413)
);
#515=CARTESIAN_POINT('',(-6642.64625399171,-3488.43973230736,134.939933413318)
);
#516=CARTESIAN_POINT('',(-6642.64625399171,-3488.43973230736,134.070417945222)
);
#517=CARTESIAN_POINT('',(-6642.94683630872,-3488.43973230736,137.371564119194)
);
#518=CARTESIAN_POINT('',(-6642.75508771251,-3488.43973230736,137.192259818238)
);
#519=CARTESIAN_POINT('',(-6642.64625399171,-3488.43973230736,136.941485884796)
);
#520=CARTESIAN_POINT('',(-6642.64625399171,-3488.43973230736,136.678964349508)
);
#521=CARTESIAN_POINT('',(-6643.94173318924,-3488.43973230736,138.301893170937)
);
#522=CARTESIAN_POINT('',(-6643.61028113713,-3488.43973230736,137.991590848503)
);
#523=CARTESIAN_POINT('',(-6643.27846860223,-3488.43973230736,137.681673803108)
);
#524=CARTESIAN_POINT('',(-6642.94683630872,-3488.43973230736,137.371564119194)
);
#525=CARTESIAN_POINT('',(-6643.95322077054,-3488.43973230736,140.58731827273)
);
#526=CARTESIAN_POINT('',(-6644.60672213684,-3488.43973230736,139.96380376258)
);
#527=CARTESIAN_POINT('',(-6644.6011077034,-3488.43973230736,138.919193446487)
);
#528=CARTESIAN_POINT('',(-6643.94173318924,-3488.43973230736,138.301893170937)
);
#529=CARTESIAN_POINT('',(-6642.48899649335,-3488.43973230736,144.665222573826)
);
#530=CARTESIAN_POINT('',(-6642.29674202624,-3488.43973230736,143.174774470535)
);
#531=CARTESIAN_POINT('',(-6642.85671400559,-3488.43973230736,141.614699344727)
);
#532=CARTESIAN_POINT('',(-6643.95322077054,-3488.43973230736,140.58731827273)
);
#533=CARTESIAN_POINT('',(-6645.30495874193,-3488.43973230736,147.962046044886)
);
#534=CARTESIAN_POINT('',(-6643.81354754762,-3488.43973230738,147.563941467827)
);
#535=CARTESIAN_POINT('',(-6642.65040175786,-3488.43973230734,146.200391276414)
);
#536=CARTESIAN_POINT('',(-6642.48899649335,-3488.43973230736,144.665222573826)
);
#537=CARTESIAN_POINT('',(-6651.99999999171,-3488.43973230736,148.693419298083)
);
#538=CARTESIAN_POINT('',(-6649.74834547108,-3488.43973230736,148.825993171182)
);
#539=CARTESIAN_POINT('',(-6647.47488548946,-3488.43973230736,148.577591360093)
);
#540=CARTESIAN_POINT('',(-6645.30495874193,-3488.43973230736,147.962046044886)
);
#541=CARTESIAN_POINT('',(-6651.99999999171,-3488.43973230736,
-0.999919769723013));
#542=CARTESIAN_POINT('',(-6651.99999999171,-3488.43973230736,48.8978599195458)
);
#543=CARTESIAN_POINT('',(-6651.99999999171,-3488.43973230736,98.7956396088145)
);
#544=CARTESIAN_POINT('',(-6651.99999999171,-3488.43973230736,148.693419298083)
);
#545=CARTESIAN_POINT('',(-6635.42867402395,-3488.43973230736,
2.05030901466167E-010));
#546=CARTESIAN_POINT('',(-6640.95244934653,-3488.43973230736,
-0.333306589771099));
#547=CARTESIAN_POINT('',(-6646.47622466912,-3488.43973230736,
-0.666613179747303));
#548=CARTESIAN_POINT('',(-6651.99999999171,-3488.43973230736,
-0.999919769723433));
#549=CARTESIAN_POINT('',(-6636.86227903498,-4988.43973230736,113.158034847102)
);
#550=CARTESIAN_POINT('',(-6636.38616654562,-4988.43973230736,75.4386678118765)
);
#551=CARTESIAN_POINT('',(-6635.90650453158,-4988.43973230736,37.719345310523)
);
#552=CARTESIAN_POINT('',(-6635.42867403224,-4988.43973230736,
-1.15188060701333E-014));
#553=CARTESIAN_POINT('',(-6637.40884239856,-4988.43973230736,114.714587470175)
);
#554=CARTESIAN_POINT('',(-6637.06363913964,-4988.43973230736,114.273548660799)
);
#555=CARTESIAN_POINT('',(-6636.86934797601,-4988.43973230736,113.718062124491)
);
#556=CARTESIAN_POINT('',(-6636.86227903498,-4988.43973230736,113.158034847102)
);
#557=CARTESIAN_POINT('',(-6639.00701161588,-4988.43973230736,116.445019512722)
);
#558=CARTESIAN_POINT('',(-6638.42700658142,-4988.43973230735,115.914497331969)
);
#559=CARTESIAN_POINT('',(-6637.89332258375,-4988.43973230736,115.333569355552)
);
#560=CARTESIAN_POINT('',(-6637.40884239856,-4988.43973230736,114.714587470175)
);
#561=CARTESIAN_POINT('',(-6639.54504645819,-4988.43973230736,118.735431473717)
);
#562=CARTESIAN_POINT('',(-6639.86148914228,-4988.43973230736,117.956918904895)
);
#563=CARTESIAN_POINT('',(-6639.63636934744,-4988.43973230736,117.001909661519)
);
#564=CARTESIAN_POINT('',(-6639.00701161588,-4988.43973230736,116.445019512722)
);
#565=CARTESIAN_POINT('',(-6638.24850174813,-4988.43973230736,122.354529303827)
);
#566=CARTESIAN_POINT('',(-6638.65322699621,-4988.43973230736,121.138534644822)
);
#567=CARTESIAN_POINT('',(-6639.08215292823,-4988.43973230736,119.930494282559)
);
#568=CARTESIAN_POINT('',(-6639.54504645819,-4988.43973230736,118.735431473717)
);
#569=CARTESIAN_POINT('',(-6640.21213665801,-4988.43973230736,129.012229798985)
);
#570=CARTESIAN_POINT('',(-6638.2437271117,-4988.43973230736,127.495085072005)
);
#571=CARTESIAN_POINT('',(-6637.42242113748,-4988.43973230736,124.698405577194)
);
#572=CARTESIAN_POINT('',(-6638.24850174813,-4988.43973230736,122.354529303827)
);
#573=CARTESIAN_POINT('',(-6642.646254,-4988.43973230736,134.070417945017));
#574=CARTESIAN_POINT('',(-6642.6602180065,-4988.43973230737,132.130012620588)
);
#575=CARTESIAN_POINT('',(-6641.73665204543,-4988.43973230735,130.212738295474)
);
#576=CARTESIAN_POINT('',(-6640.21213665801,-4988.43973230736,129.012229798985)
);
#577=CARTESIAN_POINT('',(-6642.646254,-4988.43973230736,136.678964349303));
#578=CARTESIAN_POINT('',(-6642.646254,-4988.43973230736,135.809448881208));
#579=CARTESIAN_POINT('',(-6642.646254,-4988.43973230736,134.939933413113));
#580=CARTESIAN_POINT('',(-6642.646254,-4988.43973230736,134.070417945017));
#581=CARTESIAN_POINT('',(-6642.94683631701,-4988.43973230736,137.371564118989)
);
#582=CARTESIAN_POINT('',(-6642.7550877208,-4988.43973230736,137.192259818033)
);
#583=CARTESIAN_POINT('',(-6642.646254,-4988.43973230736,136.941485884591));
#584=CARTESIAN_POINT('',(-6642.646254,-4988.43973230736,136.678964349303));
#585=CARTESIAN_POINT('',(-6643.94173319753,-4988.43973230736,138.301893170732)
);
#586=CARTESIAN_POINT('',(-6643.61028114542,-4988.43973230736,137.991590848298)
);
#587=CARTESIAN_POINT('',(-6643.27846861052,-4988.43973230736,137.681673802903)
);
#588=CARTESIAN_POINT('',(-6642.94683631701,-4988.43973230736,137.371564118989)
);
#589=CARTESIAN_POINT('',(-6643.95322077883,-4988.43973230736,140.587318272525)
);
#590=CARTESIAN_POINT('',(-6644.60672214513,-4988.43973230736,139.963803762375)
);
#591=CARTESIAN_POINT('',(-6644.60110771169,-4988.43973230736,138.919193446282)
);
#592=CARTESIAN_POINT('',(-6643.94173319753,-4988.43973230736,138.301893170732)
);
#593=CARTESIAN_POINT('',(-6642.48899650164,-4988.43973230736,144.665222573621)
);
#594=CARTESIAN_POINT('',(-6642.29674203453,-4988.43973230736,143.17477447033)
);
#595=CARTESIAN_POINT('',(-6642.85671401388,-4988.43973230736,141.614699344522)
);
#596=CARTESIAN_POINT('',(-6643.95322077883,-4988.43973230736,140.587318272525)
);
#597=CARTESIAN_POINT('',(-6645.30495875022,-4988.43973230736,147.96204604468)
);
#598=CARTESIAN_POINT('',(-6643.81354755591,-4988.43973230738,147.563941467622)
);
#599=CARTESIAN_POINT('',(-6642.65040176616,-4988.43973230734,146.200391276209)
);
#600=CARTESIAN_POINT('',(-6642.48899650164,-4988.43973230736,144.665222573621)
);
#601=CARTESIAN_POINT('',(-6652.,-4988.43973230736,148.693419297878));
#602=CARTESIAN_POINT('',(-6649.74834547937,-4988.43973230736,148.825993170977)
);
#603=CARTESIAN_POINT('',(-6647.47488549775,-4988.43973230736,148.577591359888)
);
#604=CARTESIAN_POINT('',(-6645.30495875022,-4988.43973230736,147.96204604468)
);
#605=CARTESIAN_POINT('',(-6652.,-4988.43973230736,-0.999919769928056));
#606=CARTESIAN_POINT('',(-6652.,-4988.43973230736,48.8978599193408));
#607=CARTESIAN_POINT('',(-6652.,-4988.43973230736,98.7956396086094));
#608=CARTESIAN_POINT('',(-6652.,-4988.43973230736,148.693419297878));
#609=CARTESIAN_POINT('',(-6635.42867403224,-4988.43973230736,
-1.15188060701333E-014));
#610=CARTESIAN_POINT('',(-6640.95244935483,-4988.43973230736,
-0.333306589976141));
#611=CARTESIAN_POINT('',(-6646.47622467741,-4988.43973230736,
-0.666613179952345));
#612=CARTESIAN_POINT('',(-6652.,-4988.43973230736,-0.999919769928475));
#613=CARTESIAN_POINT('',(-6635.42867402395,-3488.43973230736,
2.05030901466167E-010));
#614=CARTESIAN_POINT('',(-6651.99999999171,-3488.43973230736,
-0.999919769723013));
#615=CARTESIAN_POINT('',(-6651.99999999171,-3488.43973230736,148.693419298083)
);
#616=CARTESIAN_POINT('',(-6649.74834547108,-3488.43973230736,148.825993171182)
);
#617=CARTESIAN_POINT('',(-6647.47488548946,-3488.43973230736,148.577591360093)
);
#618=CARTESIAN_POINT('',(-6645.30495874193,-3488.43973230736,147.962046044886)
);
#619=CARTESIAN_POINT('',(-6645.30495874193,-3488.43973230736,147.962046044886)
);
#620=CARTESIAN_POINT('',(-6643.81354754762,-3488.43973230738,147.563941467827)
);
#621=CARTESIAN_POINT('',(-6642.65040175786,-3488.43973230734,146.200391276414)
);
#622=CARTESIAN_POINT('',(-6642.48899649335,-3488.43973230736,144.665222573826)
);
#623=CARTESIAN_POINT('',(-6642.48899649335,-3488.43973230736,144.665222573826)
);
#624=CARTESIAN_POINT('',(-6642.29674202624,-3488.43973230736,143.174774470535)
);
#625=CARTESIAN_POINT('',(-6642.85671400559,-3488.43973230736,141.614699344727)
);
#626=CARTESIAN_POINT('',(-6643.95322077054,-3488.43973230736,140.58731827273)
);
#627=CARTESIAN_POINT('',(-6643.95322077054,-3488.43973230736,140.58731827273)
);
#628=CARTESIAN_POINT('',(-6644.60672213684,-3488.43973230736,139.96380376258)
);
#629=CARTESIAN_POINT('',(-6644.6011077034,-3488.43973230736,138.919193446487)
);
#630=CARTESIAN_POINT('',(-6643.94173318924,-3488.43973230736,138.301893170937)
);
#631=CARTESIAN_POINT('',(-6643.94173318924,-3488.43973230736,138.301893170937)
);
#632=CARTESIAN_POINT('',(-6643.61028113713,-3488.43973230736,137.991590848503)
);
#633=CARTESIAN_POINT('',(-6643.27846860223,-3488.43973230736,137.681673803108)
);
#634=CARTESIAN_POINT('',(-6642.94683630872,-3488.43973230736,137.371564119194)
);
#635=CARTESIAN_POINT('',(-6642.94683630872,-3488.43973230736,137.371564119194)
);
#636=CARTESIAN_POINT('',(-6642.75508771251,-3488.43973230736,137.192259818238)
);
#637=CARTESIAN_POINT('',(-6642.64625399171,-3488.43973230736,136.941485884796)
);
#638=CARTESIAN_POINT('',(-6642.64625399171,-3488.43973230736,136.678964349508)
);
#639=CARTESIAN_POINT('',(-6642.64625399171,-3488.43973230736,136.678964349508)
);
#640=CARTESIAN_POINT('',(-6642.64625399171,-3488.43973230736,134.070417945222)
);
#641=CARTESIAN_POINT('',(-6642.66021799821,-3488.43973230737,132.130012620793)
);
#642=CARTESIAN_POINT('',(-6641.73665203714,-3488.43973230735,130.212738295679)
);
#643=CARTESIAN_POINT('',(-6640.21213664972,-3488.43973230736,129.01222979919)
);
#644=CARTESIAN_POINT('',(-6640.21213664972,-3488.43973230736,129.01222979919)
);
#645=CARTESIAN_POINT('',(-6638.2437271034,-3488.43973230736,127.49508507221));
#646=CARTESIAN_POINT('',(-6637.42242112919,-3488.43973230736,124.698405577399)
);
#647=CARTESIAN_POINT('',(-6638.24850173984,-3488.43973230736,122.354529304032)
);
#648=CARTESIAN_POINT('',(-6638.24850173984,-3488.43973230736,122.354529304032)
);
#649=CARTESIAN_POINT('',(-6638.65322698792,-3488.43973230736,121.138534645027)
);
#650=CARTESIAN_POINT('',(-6639.08215291993,-3488.43973230736,119.930494282764)
);
#651=CARTESIAN_POINT('',(-6639.5450464499,-3488.43973230736,118.735431473922)
);
#652=CARTESIAN_POINT('',(-6639.5450464499,-3488.43973230736,118.735431473922)
);
#653=CARTESIAN_POINT('',(-6639.86148913399,-3488.43973230736,117.9569189051));
#654=CARTESIAN_POINT('',(-6639.63636933914,-3488.43973230736,117.001909661724)
);
#655=CARTESIAN_POINT('',(-6639.00701160758,-3488.43973230736,116.445019512927)
);
#656=CARTESIAN_POINT('',(-6639.00701160758,-3488.43973230736,116.445019512927)
);
#657=CARTESIAN_POINT('',(-6638.42700657313,-3488.43973230735,115.914497332174)
);
#658=CARTESIAN_POINT('',(-6637.89332257546,-3488.43973230736,115.333569355757)
);
#659=CARTESIAN_POINT('',(-6637.40884239027,-3488.43973230736,114.71458747038)
);
#660=CARTESIAN_POINT('',(-6637.40884239027,-3488.43973230736,114.71458747038)
);
#661=CARTESIAN_POINT('',(-6637.06363913135,-3488.43973230736,114.273548661004)
);
#662=CARTESIAN_POINT('',(-6636.86934796772,-3488.43973230736,113.718062124696)
);
#663=CARTESIAN_POINT('',(-6636.86227902669,-3488.43973230736,113.158034847307)
);
#664=CARTESIAN_POINT('',(-6636.86227902669,-3488.43973230736,113.158034847307)
);
#665=CARTESIAN_POINT('',(-6636.38616653733,-3488.43973230736,75.4386678120816)
);
#666=CARTESIAN_POINT('',(-6635.90650452329,-3488.43973230736,37.719345310728)
);
#667=CARTESIAN_POINT('',(-6635.42867402395,-3488.43973230736,
2.05030901466167E-010));
#668=CARTESIAN_POINT('',(-6648.62183145191,-3488.43973230736,148.608277367099)
);
#669=CARTESIAN_POINT('',(-6648.6218314602,-4988.43973230736,148.608277366894)
);
#670=PRODUCT_DEFINITION_SHAPE('','',#671);
#671=PRODUCT_DEFINITION('','',#683,#688);
#672=(
GEOMETRIC_REPRESENTATION_CONTEXT(3)
GLOBAL_UNCERTAINTY_ASSIGNED_CONTEXT((#673))
GLOBAL_UNIT_ASSIGNED_CONTEXT((#675,#674,#678))
REPRESENTATION_CONTEXT('','')
);
#673=UNCERTAINTY_MEASURE_WITH_UNIT(LENGTH_MEASURE(0.001),#675,'','tolerance');
#674=(
CONVERSION_BASED_UNIT('',#676)
NAMED_UNIT(#682)
PLANE_ANGLE_UNIT()
);
#675=(
CONVERSION_BASED_UNIT('',#677)
LENGTH_UNIT()
NAMED_UNIT(#681)
);
#676=PLANE_ANGLE_MEASURE_WITH_UNIT(PLANE_ANGLE_MEASURE(0.0174532925199433),
#679);
#677=LENGTH_MEASURE_WITH_UNIT(LENGTH_MEASURE(1.),#680);
#678=(
NAMED_UNIT(*)
SI_UNIT($,.STERADIAN.)
SOLID_ANGLE_UNIT()
);
#679=(
NAMED_UNIT(*)
PLANE_ANGLE_UNIT()
SI_UNIT($,.RADIAN.)
);
#680=(
LENGTH_UNIT()
NAMED_UNIT(*)
SI_UNIT(.MILLI.,.METRE.)
);
#681=DIMENSIONAL_EXPONENTS(1.,0.,0.,0.,0.,0.,0.);
#682=DIMENSIONAL_EXPONENTS(0.,0.,0.,0.,0.,0.,0.);
#683=PRODUCT_DEFINITION_FORMATION_WITH_SPECIFIED_SOURCE('','',#686,.NOT_KNOWN.
);
#684=PRODUCT_CATEGORY_RELATIONSHIP('','',#689,#685);
#685=PRODUCT_RELATED_PRODUCT_CATEGORY('assembly','',(#686));
#686=PRODUCT('','master','',(#687));
#687=PRODUCT_CONTEXT('',#691,'');
#688=PRODUCT_DEFINITION_CONTEXT('',#691,'part_definition');
#689=PRODUCT_CATEGORY('part','');
#690=APPLICATION_PROTOCOL_DEFINITION('international standard',
'automotive_design_cc2',1994,#691);
#691=APPLICATION_CONTEXT(
'configuration controlled 3D designs of mechanical parts and assemblies');
ENDSEC;
END-ISO-10303-21;
41962