ISO-10303-21;
HEADER;
/* Generated by software using Delcam plc STEP library */

FILE_DESCRIPTION(
/* description */ ('AP-214 File'),
/* implementation_level */ '2;1');

FILE_NAME(
/* name */ 'PLIN10',
/* time_stamp */ 'Thu Nov 16 08:31:11 2017',
/* author */ (''),
/* organization */ (''),
/* preprocessor_version */ 'DELCAM STEP V1',
/* originating_system */ 'Exchange7.1.0006',
/* authorisation */ '');

FILE_SCHEMA (('AUTOMOTIVE_DESIGN'));
ENDSEC;
DATA;
#10=PRESENTATION_STYLE_ASSIGNMENT((#20));
#11=PRESENTATION_STYLE_ASSIGNMENT((#21));
#12=SURFACE_SIDE_STYLE('',(#14));
#13=SURFACE_SIDE_STYLE('',(#15));
#14=SURFACE_STYLE_FILL_AREA(#16);
#15=SURFACE_STYLE_FILL_AREA(#17);
#16=FILL_AREA_STYLE('',(#18));
#17=FILL_AREA_STYLE('',(#19));
#18=FILL_AREA_STYLE_COLOUR('',#39);
#19=FILL_AREA_STYLE_COLOUR('',#40);
#20=SURFACE_STYLE_USAGE(.BOTH.,#12);
#21=SURFACE_STYLE_USAGE(.BOTH.,#13);
#22=STYLED_ITEM('',(#10),#56);
#23=STYLED_ITEM('',(#10),#57);
#24=STYLED_ITEM('',(#10),#58);
#25=STYLED_ITEM('',(#10),#59);
#26=STYLED_ITEM('',(#10),#60);
#27=STYLED_ITEM('',(#10),#61);
#28=STYLED_ITEM('',(#10),#62);
#29=STYLED_ITEM('',(#10),#63);
#30=STYLED_ITEM('',(#10),#64);
#31=STYLED_ITEM('',(#10),#65);
#32=STYLED_ITEM('',(#10),#66);
#33=STYLED_ITEM('',(#10),#67);
#34=STYLED_ITEM('',(#10),#68);
#35=STYLED_ITEM('',(#10),#69);
#36=STYLED_ITEM('',(#10),#70);
#37=STYLED_ITEM('',(#10),#71);
#38=STYLED_ITEM('',(#11),#46);
#39=COLOUR_RGB('',0.,0.,0.);
#40=COLOUR_RGB('rgb_colour_1',0.4,0.4,0.4);
#41=MECHANICAL_DESIGN_GEOMETRIC_PRESENTATION_REPRESENTATION('',(#22,#23,#24,
#25,#26,#27,#28,#29,#30,#31,#32,#33,#34,#35,#36,#37,#38),#588);
#42=PRESENTATION_LAYER_ASSIGNMENT('0','General',(#56,#57,#58,#59,#60,#61,#62,
#63,#64,#65,#66,#67,#68,#69,#70,#71,#46));
#43=SHAPE_REPRESENTATION_RELATIONSHIP('','',#340,#44);
#44=ADVANCED_BREP_SHAPE_REPRESENTATION('',(#45),#588);
#45=MANIFOLD_SOLID_BREP('1',#46);
#46=CLOSED_SHELL('',(#56,#57,#58,#59,#60,#61,#62,#63,#64,#65,#66,#67,#68,#69,
#70,#71));
#47=SURFACE_OF_LINEAR_EXTRUSION('',#223,#302);
#48=SURFACE_OF_LINEAR_EXTRUSION('',#224,#303);
#49=SURFACE_OF_LINEAR_EXTRUSION('',#225,#304);
#50=SURFACE_OF_LINEAR_EXTRUSION('',#226,#305);
#51=SURFACE_OF_LINEAR_EXTRUSION('',#227,#306);
#52=SURFACE_OF_LINEAR_EXTRUSION('',#228,#307);
#53=SURFACE_OF_LINEAR_EXTRUSION('',#229,#308);
#54=SURFACE_OF_LINEAR_EXTRUSION('',#230,#309);
#55=SURFACE_OF_LINEAR_EXTRUSION('',#231,#310);
#56=ADVANCED_FACE('',(#72),#188,.F.);
#57=ADVANCED_FACE('',(#73),#189,.F.);
#58=ADVANCED_FACE('',(#74),#47,.F.);
#59=ADVANCED_FACE('',(#75),#48,.F.);
#60=ADVANCED_FACE('',(#76),#49,.F.);
#61=ADVANCED_FACE('',(#77),#50,.F.);
#62=ADVANCED_FACE('',(#78),#51,.F.);
#63=ADVANCED_FACE('',(#79),#52,.F.);
#64=ADVANCED_FACE('',(#80),#53,.F.);
#65=ADVANCED_FACE('',(#81),#54,.F.);
#66=ADVANCED_FACE('',(#82),#55,.F.);
#67=ADVANCED_FACE('',(#83),#190,.F.);
#68=ADVANCED_FACE('',(#84),#191,.F.);
#69=ADVANCED_FACE('',(#85),#192,.F.);
#70=ADVANCED_FACE('',(#86),#193,.F.);
#71=ADVANCED_FACE('',(#87),#194,.T.);
#72=FACE_OUTER_BOUND('',#88,.T.);
#73=FACE_OUTER_BOUND('',#89,.T.);
#74=FACE_OUTER_BOUND('',#90,.T.);
#75=FACE_OUTER_BOUND('',#91,.T.);
#76=FACE_OUTER_BOUND('',#92,.T.);
#77=FACE_OUTER_BOUND('',#93,.T.);
#78=FACE_OUTER_BOUND('',#94,.T.);
#79=FACE_OUTER_BOUND('',#95,.T.);
#80=FACE_OUTER_BOUND('',#96,.T.);
#81=FACE_OUTER_BOUND('',#97,.T.);
#82=FACE_OUTER_BOUND('',#98,.T.);
#83=FACE_OUTER_BOUND('',#99,.T.);
#84=FACE_OUTER_BOUND('',#100,.T.);
#85=FACE_OUTER_BOUND('',#101,.T.);
#86=FACE_OUTER_BOUND('',#102,.T.);
#87=FACE_OUTER_BOUND('',#103,.T.);
#88=EDGE_LOOP('',(#104,#105,#106,#107));
#89=EDGE_LOOP('',(#108,#109,#110,#111));
#90=EDGE_LOOP('',(#112,#113,#114,#115));
#91=EDGE_LOOP('',(#116,#117,#118,#119));
#92=EDGE_LOOP('',(#120,#121,#122,#123));
#93=EDGE_LOOP('',(#124,#125,#126,#127));
#94=EDGE_LOOP('',(#128,#129,#130,#131));
#95=EDGE_LOOP('',(#132,#133,#134,#135));
#96=EDGE_LOOP('',(#136,#137,#138,#139));
#97=EDGE_LOOP('',(#140,#141,#142,#143));
#98=EDGE_LOOP('',(#144,#145,#146,#147));
#99=EDGE_LOOP('',(#148,#149,#150,#151));
#100=EDGE_LOOP('',(#152,#153,#154,#155));
#101=EDGE_LOOP('',(#156,#157,#158,#159));
#102=EDGE_LOOP('',(#160,#161,#162,#163,#164,#165,#166,#167,#168,#169,#170,#171
,#172,#173));
#103=EDGE_LOOP('',(#174,#175,#176,#177,#178,#179,#180,#181,#182,#183,#184,#185
,#186,#187));
#104=ORIENTED_EDGE('',*,*,#273,.T.);
#105=ORIENTED_EDGE('',*,*,#232,.F.);
#106=ORIENTED_EDGE('',*,*,#259,.F.);
#107=ORIENTED_EDGE('',*,*,#245,.T.);
#108=ORIENTED_EDGE('',*,*,#272,.T.);
#109=ORIENTED_EDGE('',*,*,#233,.F.);
#110=ORIENTED_EDGE('',*,*,#258,.F.);
#111=ORIENTED_EDGE('',*,*,#232,.T.);
#112=ORIENTED_EDGE('',*,*,#271,.T.);
#113=ORIENTED_EDGE('',*,*,#234,.F.);
#114=ORIENTED_EDGE('',*,*,#257,.F.);
#115=ORIENTED_EDGE('',*,*,#233,.T.);
#116=ORIENTED_EDGE('',*,*,#270,.T.);
#117=ORIENTED_EDGE('',*,*,#235,.F.);
#118=ORIENTED_EDGE('',*,*,#256,.F.);
#119=ORIENTED_EDGE('',*,*,#234,.T.);
#120=ORIENTED_EDGE('',*,*,#269,.T.);
#121=ORIENTED_EDGE('',*,*,#236,.F.);
#122=ORIENTED_EDGE('',*,*,#255,.F.);
#123=ORIENTED_EDGE('',*,*,#235,.T.);
#124=ORIENTED_EDGE('',*,*,#268,.T.);
#125=ORIENTED_EDGE('',*,*,#237,.F.);
#126=ORIENTED_EDGE('',*,*,#254,.F.);
#127=ORIENTED_EDGE('',*,*,#236,.T.);
#128=ORIENTED_EDGE('',*,*,#267,.T.);
#129=ORIENTED_EDGE('',*,*,#238,.F.);
#130=ORIENTED_EDGE('',*,*,#253,.F.);
#131=ORIENTED_EDGE('',*,*,#237,.T.);
#132=ORIENTED_EDGE('',*,*,#266,.T.);
#133=ORIENTED_EDGE('',*,*,#239,.F.);
#134=ORIENTED_EDGE('',*,*,#252,.F.);
#135=ORIENTED_EDGE('',*,*,#238,.T.);
#136=ORIENTED_EDGE('',*,*,#265,.T.);
#137=ORIENTED_EDGE('',*,*,#240,.F.);
#138=ORIENTED_EDGE('',*,*,#251,.F.);
#139=ORIENTED_EDGE('',*,*,#239,.T.);
#140=ORIENTED_EDGE('',*,*,#264,.T.);
#141=ORIENTED_EDGE('',*,*,#241,.F.);
#142=ORIENTED_EDGE('',*,*,#250,.F.);
#143=ORIENTED_EDGE('',*,*,#240,.T.);
#144=ORIENTED_EDGE('',*,*,#263,.T.);
#145=ORIENTED_EDGE('',*,*,#242,.F.);
#146=ORIENTED_EDGE('',*,*,#249,.F.);
#147=ORIENTED_EDGE('',*,*,#241,.T.);
#148=ORIENTED_EDGE('',*,*,#262,.T.);
#149=ORIENTED_EDGE('',*,*,#243,.F.);
#150=ORIENTED_EDGE('',*,*,#248,.F.);
#151=ORIENTED_EDGE('',*,*,#242,.T.);
#152=ORIENTED_EDGE('',*,*,#261,.T.);
#153=ORIENTED_EDGE('',*,*,#244,.F.);
#154=ORIENTED_EDGE('',*,*,#247,.F.);
#155=ORIENTED_EDGE('',*,*,#243,.T.);
#156=ORIENTED_EDGE('',*,*,#260,.T.);
#157=ORIENTED_EDGE('',*,*,#245,.F.);
#158=ORIENTED_EDGE('',*,*,#246,.F.);
#159=ORIENTED_EDGE('',*,*,#244,.T.);
#160=ORIENTED_EDGE('',*,*,#259,.T.);
#161=ORIENTED_EDGE('',*,*,#258,.T.);
#162=ORIENTED_EDGE('',*,*,#257,.T.);
#163=ORIENTED_EDGE('',*,*,#256,.T.);
#164=ORIENTED_EDGE('',*,*,#255,.T.);
#165=ORIENTED_EDGE('',*,*,#254,.T.);
#166=ORIENTED_EDGE('',*,*,#253,.T.);
#167=ORIENTED_EDGE('',*,*,#252,.T.);
#168=ORIENTED_EDGE('',*,*,#251,.T.);
#169=ORIENTED_EDGE('',*,*,#250,.T.);
#170=ORIENTED_EDGE('',*,*,#249,.T.);
#171=ORIENTED_EDGE('',*,*,#248,.T.);
#172=ORIENTED_EDGE('',*,*,#247,.T.);
#173=ORIENTED_EDGE('',*,*,#246,.T.);
#174=ORIENTED_EDGE('',*,*,#273,.F.);
#175=ORIENTED_EDGE('',*,*,#260,.F.);
#176=ORIENTED_EDGE('',*,*,#261,.F.);
#177=ORIENTED_EDGE('',*,*,#262,.F.);
#178=ORIENTED_EDGE('',*,*,#263,.F.);
#179=ORIENTED_EDGE('',*,*,#264,.F.);
#180=ORIENTED_EDGE('',*,*,#265,.F.);
#181=ORIENTED_EDGE('',*,*,#266,.F.);
#182=ORIENTED_EDGE('',*,*,#267,.F.);
#183=ORIENTED_EDGE('',*,*,#268,.F.);
#184=ORIENTED_EDGE('',*,*,#269,.F.);
#185=ORIENTED_EDGE('',*,*,#270,.F.);
#186=ORIENTED_EDGE('',*,*,#271,.F.);
#187=ORIENTED_EDGE('',*,*,#272,.F.);
#188=PLANE('',#342);
#189=PLANE('',#343);
#190=PLANE('',#344);
#191=PLANE('',#345);
#192=PLANE('',#346);
#193=PLANE('',#347);
#194=PLANE('',#348);
#195=B_SPLINE_CURVE_WITH_KNOTS('',3,(#431,#432,#433,#434),.UNSPECIFIED.,.F.,
.F.,(4,4),(0.,1.),.UNSPECIFIED.);
#196=B_SPLINE_CURVE_WITH_KNOTS('',3,(#435,#436,#437,#438),.UNSPECIFIED.,.F.,
.F.,(4,4),(0.,1.),.UNSPECIFIED.);
#197=B_SPLINE_CURVE_WITH_KNOTS('',3,(#439,#440,#441,#442),.UNSPECIFIED.,.F.,
.F.,(4,4),(0.,1.),.UNSPECIFIED.);
#198=B_SPLINE_CURVE_WITH_KNOTS('',3,(#443,#444,#445,#446),.UNSPECIFIED.,.F.,
.F.,(4,4),(0.,1.),.UNSPECIFIED.);
#199=B_SPLINE_CURVE_WITH_KNOTS('',3,(#447,#448,#449,#450),.UNSPECIFIED.,.F.,
.F.,(4,4),(0.,1.),.UNSPECIFIED.);
#200=B_SPLINE_CURVE_WITH_KNOTS('',3,(#451,#452,#453,#454),.UNSPECIFIED.,.F.,
.F.,(4,4),(0.,1.),.UNSPECIFIED.);
#201=B_SPLINE_CURVE_WITH_KNOTS('',3,(#455,#456,#457,#458),.UNSPECIFIED.,.F.,
.F.,(4,4),(0.,1.),.UNSPECIFIED.);
#202=B_SPLINE_CURVE_WITH_KNOTS('',3,(#459,#460,#461,#462),.UNSPECIFIED.,.F.,
.F.,(4,4),(0.,1.),.UNSPECIFIED.);
#203=B_SPLINE_CURVE_WITH_KNOTS('',3,(#463,#464,#465,#466),.UNSPECIFIED.,.F.,
.F.,(4,4),(0.,1.),.UNSPECIFIED.);
#204=B_SPLINE_CURVE_WITH_KNOTS('',3,(#467,#468,#469,#470),.UNSPECIFIED.,.F.,
.F.,(4,4),(0.,1.),.UNSPECIFIED.);
#205=B_SPLINE_CURVE_WITH_KNOTS('',3,(#471,#472,#473,#474),.UNSPECIFIED.,.F.,
.F.,(4,4),(0.,1.),.UNSPECIFIED.);
#206=B_SPLINE_CURVE_WITH_KNOTS('',3,(#475,#476,#477,#478),.UNSPECIFIED.,.F.,
.F.,(4,4),(0.,1.),.UNSPECIFIED.);
#207=B_SPLINE_CURVE_WITH_KNOTS('',3,(#479,#480,#481,#482),.UNSPECIFIED.,.F.,
.F.,(4,4),(0.,1.),.UNSPECIFIED.);
#208=B_SPLINE_CURVE_WITH_KNOTS('',3,(#483,#484,#485,#486),.UNSPECIFIED.,.F.,
.F.,(4,4),(0.,1.),.UNSPECIFIED.);
#209=B_SPLINE_CURVE_WITH_KNOTS('',3,(#487,#488,#489,#490),.UNSPECIFIED.,.F.,
.F.,(4,4),(0.,1.),.UNSPECIFIED.);
#210=B_SPLINE_CURVE_WITH_KNOTS('',3,(#491,#492,#493,#494),.UNSPECIFIED.,.F.,
.F.,(4,4),(0.,1.),.UNSPECIFIED.);
#211=B_SPLINE_CURVE_WITH_KNOTS('',3,(#495,#496,#497,#498),.UNSPECIFIED.,.F.,
.F.,(4,4),(0.,1.),.UNSPECIFIED.);
#212=B_SPLINE_CURVE_WITH_KNOTS('',3,(#499,#500,#501,#502),.UNSPECIFIED.,.F.,
.F.,(4,4),(0.,1.),.UNSPECIFIED.);
#213=B_SPLINE_CURVE_WITH_KNOTS('',3,(#503,#504,#505,#506),.UNSPECIFIED.,.F.,
.F.,(4,4),(0.,1.),.UNSPECIFIED.);
#214=B_SPLINE_CURVE_WITH_KNOTS('',3,(#507,#508,#509,#510),.UNSPECIFIED.,.F.,
.F.,(4,4),(0.,1.),.UNSPECIFIED.);
#215=B_SPLINE_CURVE_WITH_KNOTS('',3,(#511,#512,#513,#514),.UNSPECIFIED.,.F.,
.F.,(4,4),(0.,1.),.UNSPECIFIED.);
#216=B_SPLINE_CURVE_WITH_KNOTS('',3,(#515,#516,#517,#518),.UNSPECIFIED.,.F.,
.F.,(4,4),(0.,1.),.UNSPECIFIED.);
#217=B_SPLINE_CURVE_WITH_KNOTS('',3,(#519,#520,#521,#522),.UNSPECIFIED.,.F.,
.F.,(4,4),(0.,1.),.UNSPECIFIED.);
#218=B_SPLINE_CURVE_WITH_KNOTS('',3,(#523,#524,#525,#526),.UNSPECIFIED.,.F.,
.F.,(4,4),(0.,1.),.UNSPECIFIED.);
#219=B_SPLINE_CURVE_WITH_KNOTS('',3,(#527,#528,#529,#530),.UNSPECIFIED.,.F.,
.F.,(4,4),(0.,1.),.UNSPECIFIED.);
#220=B_SPLINE_CURVE_WITH_KNOTS('',3,(#531,#532,#533,#534),.UNSPECIFIED.,.F.,
.F.,(4,4),(0.,1.),.UNSPECIFIED.);
#221=B_SPLINE_CURVE_WITH_KNOTS('',3,(#535,#536,#537,#538),.UNSPECIFIED.,.F.,
.F.,(4,4),(0.,1.),.UNSPECIFIED.);
#222=B_SPLINE_CURVE_WITH_KNOTS('',3,(#539,#540,#541,#542),.UNSPECIFIED.,.F.,
.F.,(4,4),(0.,1.),.UNSPECIFIED.);
#223=B_SPLINE_CURVE_WITH_KNOTS('',3,(#545,#546,#547,#548),.UNSPECIFIED.,.F.,
.F.,(4,4),(0.,1.),.UNSPECIFIED.);
#224=B_SPLINE_CURVE_WITH_KNOTS('',3,(#549,#550,#551,#552),.UNSPECIFIED.,.F.,
.F.,(4,4),(0.,1.),.UNSPECIFIED.);
#225=B_SPLINE_CURVE_WITH_KNOTS('',3,(#553,#554,#555,#556),.UNSPECIFIED.,.F.,
.F.,(4,4),(0.,1.),.UNSPECIFIED.);
#226=B_SPLINE_CURVE_WITH_KNOTS('',3,(#557,#558,#559,#560),.UNSPECIFIED.,.F.,
.F.,(4,4),(0.,1.),.UNSPECIFIED.);
#227=B_SPLINE_CURVE_WITH_KNOTS('',3,(#561,#562,#563,#564),.UNSPECIFIED.,.F.,
.F.,(4,4),(0.,1.),.UNSPECIFIED.);
#228=B_SPLINE_CURVE_WITH_KNOTS('',3,(#565,#566,#567,#568),.UNSPECIFIED.,.F.,
.F.,(4,4),(0.,1.),.UNSPECIFIED.);
#229=B_SPLINE_CURVE_WITH_KNOTS('',3,(#569,#570,#571,#572),.UNSPECIFIED.,.F.,
.F.,(4,4),(0.,1.),.UNSPECIFIED.);
#230=B_SPLINE_CURVE_WITH_KNOTS('',3,(#573,#574,#575,#576),.UNSPECIFIED.,.F.,
.F.,(4,4),(0.,1.),.UNSPECIFIED.);
#231=B_SPLINE_CURVE_WITH_KNOTS('',3,(#577,#578,#579,#580),.UNSPECIFIED.,.F.,
.F.,(4,4),(0.,1.),.UNSPECIFIED.);
#232=EDGE_CURVE('',#324,#338,#274,.T.);
#233=EDGE_CURVE('',#323,#337,#275,.T.);
#234=EDGE_CURVE('',#322,#336,#276,.T.);
#235=EDGE_CURVE('',#321,#335,#277,.T.);
#236=EDGE_CURVE('',#320,#334,#278,.T.);
#237=EDGE_CURVE('',#319,#333,#279,.T.);
#238=EDGE_CURVE('',#318,#332,#280,.T.);
#239=EDGE_CURVE('',#317,#331,#281,.T.);
#240=EDGE_CURVE('',#316,#330,#282,.T.);
#241=EDGE_CURVE('',#315,#329,#283,.T.);
#242=EDGE_CURVE('',#314,#328,#284,.T.);
#243=EDGE_CURVE('',#313,#327,#285,.T.);
#244=EDGE_CURVE('',#312,#326,#286,.T.);
#245=EDGE_CURVE('',#311,#325,#287,.T.);
#246=EDGE_CURVE('',#312,#311,#195,.T.);
#247=EDGE_CURVE('',#313,#312,#196,.T.);
#248=EDGE_CURVE('',#314,#313,#197,.T.);
#249=EDGE_CURVE('',#315,#314,#198,.T.);
#250=EDGE_CURVE('',#316,#315,#199,.T.);
#251=EDGE_CURVE('',#317,#316,#200,.T.);
#252=EDGE_CURVE('',#318,#317,#201,.T.);
#253=EDGE_CURVE('',#319,#318,#202,.T.);
#254=EDGE_CURVE('',#320,#319,#203,.T.);
#255=EDGE_CURVE('',#321,#320,#204,.T.);
#256=EDGE_CURVE('',#322,#321,#205,.T.);
#257=EDGE_CURVE('',#323,#322,#206,.T.);
#258=EDGE_CURVE('',#324,#323,#207,.T.);
#259=EDGE_CURVE('',#311,#324,#208,.T.);
#260=EDGE_CURVE('',#326,#325,#209,.T.);
#261=EDGE_CURVE('',#327,#326,#210,.T.);
#262=EDGE_CURVE('',#328,#327,#211,.T.);
#263=EDGE_CURVE('',#329,#328,#212,.T.);
#264=EDGE_CURVE('',#330,#329,#213,.T.);
#265=EDGE_CURVE('',#331,#330,#214,.T.);
#266=EDGE_CURVE('',#332,#331,#215,.T.);
#267=EDGE_CURVE('',#333,#332,#216,.T.);
#268=EDGE_CURVE('',#334,#333,#217,.T.);
#269=EDGE_CURVE('',#335,#334,#218,.T.);
#270=EDGE_CURVE('',#336,#335,#219,.T.);
#271=EDGE_CURVE('',#337,#336,#220,.T.);
#272=EDGE_CURVE('',#338,#337,#221,.T.);
#273=EDGE_CURVE('',#325,#338,#222,.T.);
#274=LINE('',#417,#288);
#275=LINE('',#418,#289);
#276=LINE('',#419,#290);
#277=LINE('',#420,#291);
#278=LINE('',#421,#292);
#279=LINE('',#422,#293);
#280=LINE('',#423,#294);
#281=LINE('',#424,#295);
#282=LINE('',#425,#296);
#283=LINE('',#426,#297);
#284=LINE('',#427,#298);
#285=LINE('',#428,#299);
#286=LINE('',#429,#300);
#287=LINE('',#430,#301);
#288=VECTOR('',#351,1.);
#289=VECTOR('',#352,1.);
#290=VECTOR('',#353,1.);
#291=VECTOR('',#354,1.);
#292=VECTOR('',#355,1.);
#293=VECTOR('',#356,1.);
#294=VECTOR('',#357,1.);
#295=VECTOR('',#358,1.);
#296=VECTOR('',#359,1.);
#297=VECTOR('',#360,1.);
#298=VECTOR('',#361,1.);
#299=VECTOR('',#362,1.);
#300=VECTOR('',#363,1.);
#301=VECTOR('',#364,1.);
#302=VECTOR('',#369,1.);
#303=VECTOR('',#370,1.);
#304=VECTOR('',#371,1.);
#305=VECTOR('',#372,1.);
#306=VECTOR('',#373,1.);
#307=VECTOR('',#374,1.);
#308=VECTOR('',#375,1.);
#309=VECTOR('',#376,1.);
#310=VECTOR('',#377,1.);
#311=VERTEX_POINT('',#389);
#312=VERTEX_POINT('',#390);
#313=VERTEX_POINT('',#391);
#314=VERTEX_POINT('',#392);
#315=VERTEX_POINT('',#393);
#316=VERTEX_POINT('',#394);
#317=VERTEX_POINT('',#395);
#318=VERTEX_POINT('',#396);
#319=VERTEX_POINT('',#397);
#320=VERTEX_POINT('',#398);
#321=VERTEX_POINT('',#399);
#322=VERTEX_POINT('',#400);
#323=VERTEX_POINT('',#401);
#324=VERTEX_POINT('',#402);
#325=VERTEX_POINT('',#403);
#326=VERTEX_POINT('',#404);
#327=VERTEX_POINT('',#405);
#328=VERTEX_POINT('',#406);
#329=VERTEX_POINT('',#407);
#330=VERTEX_POINT('',#408);
#331=VERTEX_POINT('',#409);
#332=VERTEX_POINT('',#410);
#333=VERTEX_POINT('',#411);
#334=VERTEX_POINT('',#412);
#335=VERTEX_POINT('',#413);
#336=VERTEX_POINT('',#414);
#337=VERTEX_POINT('',#415);
#338=VERTEX_POINT('',#416);
#339=SHAPE_DEFINITION_REPRESENTATION(#586,#340);
#340=SHAPE_REPRESENTATION('master',(#341),#588);
#341=AXIS2_PLACEMENT_3D('',#388,#350,#349);
#342=AXIS2_PLACEMENT_3D('',#543,#366,#365);
#343=AXIS2_PLACEMENT_3D('',#544,#368,#367);
#344=AXIS2_PLACEMENT_3D('',#581,#379,#378);
#345=AXIS2_PLACEMENT_3D('',#582,#381,#380);
#346=AXIS2_PLACEMENT_3D('',#583,#383,#382);
#347=AXIS2_PLACEMENT_3D('',#584,#385,#384);
#348=AXIS2_PLACEMENT_3D('',#585,#387,#386);
#349=DIRECTION('',(1.,0.,0.));
#350=DIRECTION('',(0.,0.,1.));
#351=DIRECTION('',(1.20975072769303E-012,-1.,-3.10086115728982E-014));
#352=DIRECTION('',(1.20975072769303E-012,-1.,-3.10086115728982E-014));
#353=DIRECTION('',(1.20975072769303E-012,-1.,-3.10086115728982E-014));
#354=DIRECTION('',(1.20975072769303E-012,-1.,-3.10086115728982E-014));
#355=DIRECTION('',(1.20975072769303E-012,-1.,-3.10086115728982E-014));
#356=DIRECTION('',(1.20975072769303E-012,-1.,-3.10086115728982E-014));
#357=DIRECTION('',(1.20975072769303E-012,-1.,-3.10086115728982E-014));
#358=DIRECTION('',(1.20975072769303E-012,-1.,-3.10086115728982E-014));
#359=DIRECTION('',(1.20975072769303E-012,-1.,-3.10086115728982E-014));
#360=DIRECTION('',(1.20975072769303E-012,-1.,-3.10086115728982E-014));
#361=DIRECTION('',(1.20975072769303E-012,-1.,-3.10086115728982E-014));
#362=DIRECTION('',(1.20975072769303E-012,-1.,-3.10086115728982E-014));
#363=DIRECTION('',(1.20975072769303E-012,-1.,-3.10086115728982E-014));
#364=DIRECTION('',(1.20975072769303E-012,-1.,-3.10086115728982E-014));
#365=DIRECTION('',(0.996794732067409,-1.57772181044202E-030,0.080001638249867)
);
#366=DIRECTION('',(-0.080001638249867,-1.27691260754001E-013,0.996794732067409
));
#367=DIRECTION('',(-1.20975072769303E-012,1.,0.));
#368=DIRECTION('',(1.,1.20975072769303E-012,-0.));
#369=DIRECTION('',(1.20975072769303E-012,-1.,-3.10086115728982E-014));
#370=DIRECTION('',(1.20975072769303E-012,-1.,-3.10086115728982E-014));
#371=DIRECTION('',(1.20975072769303E-012,-1.,-3.10086115728982E-014));
#372=DIRECTION('',(1.20975072769303E-012,-1.,-3.10086115728982E-014));
#373=DIRECTION('',(1.20975072769303E-012,-1.,-3.10086115728982E-014));
#374=DIRECTION('',(1.20975072769303E-012,-1.,-3.10086115728982E-014));
#375=DIRECTION('',(1.20975072769303E-012,-1.,-3.10086115728982E-014));
#376=DIRECTION('',(1.20975072769303E-012,-1.,-3.10086115728982E-014));
#377=DIRECTION('',(1.20975072769303E-012,-1.,-3.10086115728982E-014));
#378=DIRECTION('',(1.20975072769303E-012,-1.,0.));
#379=DIRECTION('',(-1.,-1.20975072769303E-012,-0.));
#380=DIRECTION('',(-0.691561630312887,0.,0.722317458932693));
#381=DIRECTION('',(-0.722317458932693,-8.52379705596112E-013,
-0.691561630312887));
#382=DIRECTION('',(1.20975072769303E-012,-1.,0.));
#383=DIRECTION('',(-1.,-1.20975072769303E-012,2.44576324130958E-014));
#384=DIRECTION('',(0.,0.,-1.));
#385=DIRECTION('',(0.,-1.,0.));
#386=DIRECTION('',(0.,0.,-1.));
#387=DIRECTION('',(0.,-1.,0.));
#388=CARTESIAN_POINT('',(0.,0.,0.));
#389=CARTESIAN_POINT('',(-6578.62310709455,-3488.43973230736,1.43806338390887)
);
#390=CARTESIAN_POINT('',(-6578.62310709454,-3488.43973230736,74.06802238391));
#391=CARTESIAN_POINT('',(-6580.88908809455,-3488.43973230736,76.4347783839083)
);
#392=CARTESIAN_POINT('',(-6580.88908809455,-3488.43973230736,77.668841399836)
);
#393=CARTESIAN_POINT('',(-6580.79234644491,-3488.43973230736,85.8773179263269)
);
#394=CARTESIAN_POINT('',(-6582.39923520401,-3488.43973230736,88.3906597972192)
);
#395=CARTESIAN_POINT('',(-6582.87223308723,-3488.43973230736,90.0679953489988)
);
#396=CARTESIAN_POINT('',(-6582.87017893269,-3488.43973230736,93.3754975439547)
);
#397=CARTESIAN_POINT('',(-6583.66516589769,-3488.43973230736,94.5247370128741)
);
#398=CARTESIAN_POINT('',(-6583.87726451577,-3488.43973230736,95.4200624246038)
);
#399=CARTESIAN_POINT('',(-6584.26722846797,-3488.43973230736,100.218530979851)
);
#400=CARTESIAN_POINT('',(-6587.71845842189,-3488.43973230736,101.822155157247)
);
#401=CARTESIAN_POINT('',(-6591.08278609455,-3488.43973230736,102.415376897879)
);
#402=CARTESIAN_POINT('',(-6591.08278609455,-3488.43973230736,0.438063383908974
));
#403=CARTESIAN_POINT('',(-6578.62310709273,-4988.43973230736,1.43806338386236)
);
#404=CARTESIAN_POINT('',(-6578.62310709273,-4988.43973230736,74.0680223838635)
);
#405=CARTESIAN_POINT('',(-6580.88908809273,-4988.43973230736,76.4347783838618)
);
#406=CARTESIAN_POINT('',(-6580.88908809273,-4988.43973230736,77.6688413997895)
);
#407=CARTESIAN_POINT('',(-6580.7923464431,-4988.43973230736,85.8773179262804)
);
#408=CARTESIAN_POINT('',(-6582.39923520219,-4988.43973230736,88.3906597971727)
);
#409=CARTESIAN_POINT('',(-6582.87223308541,-4988.43973230736,90.0679953489523)
);
#410=CARTESIAN_POINT('',(-6582.87017893087,-4988.43973230736,93.3754975439082)
);
#411=CARTESIAN_POINT('',(-6583.66516589587,-4988.43973230736,94.5247370128275)
);
#412=CARTESIAN_POINT('',(-6583.87726451395,-4988.43973230736,95.4200624245573)
);
#413=CARTESIAN_POINT('',(-6584.26722846616,-4988.43973230736,100.218530979805)
);
#414=CARTESIAN_POINT('',(-6587.71845842008,-4988.43973230736,101.822155157201)
);
#415=CARTESIAN_POINT('',(-6591.08278609273,-4988.43973230736,102.415376897832)
);
#416=CARTESIAN_POINT('',(-6591.08278609273,-4988.43973230736,0.438063383862461
));
#417=CARTESIAN_POINT('',(-6591.08278609455,-3488.43973230736,0.438063383908974
));
#418=CARTESIAN_POINT('',(-6591.08278609455,-3488.43973230736,102.415376897879)
);
#419=CARTESIAN_POINT('',(-6587.71845842189,-3488.43973230736,101.822155157247)
);
#420=CARTESIAN_POINT('',(-6584.26722846797,-3488.43973230736,100.218530979851)
);
#421=CARTESIAN_POINT('',(-6583.87726451577,-3488.43973230736,95.4200624246038)
);
#422=CARTESIAN_POINT('',(-6583.66516589769,-3488.43973230736,94.5247370128741)
);
#423=CARTESIAN_POINT('',(-6582.87017893269,-3488.43973230736,93.3754975439547)
);
#424=CARTESIAN_POINT('',(-6582.87223308723,-3488.43973230736,90.0679953489988)
);
#425=CARTESIAN_POINT('',(-6582.39923520401,-3488.43973230736,88.3906597972192)
);
#426=CARTESIAN_POINT('',(-6580.79234644491,-3488.43973230736,85.8773179263269)
);
#427=CARTESIAN_POINT('',(-6580.88908809455,-3488.43973230736,77.668841399836)
);
#428=CARTESIAN_POINT('',(-6580.88908809455,-3488.43973230736,76.4347783839083)
);
#429=CARTESIAN_POINT('',(-6578.62310709454,-3488.43973230736,74.06802238391));
#430=CARTESIAN_POINT('',(-6578.62310709455,-3488.43973230736,1.43806338390887)
);
#431=CARTESIAN_POINT('',(-6578.62310709454,-3488.43973230736,74.06802238391));
#432=CARTESIAN_POINT('',(-6578.62310709454,-3488.43973230736,49.8580360505768)
);
#433=CARTESIAN_POINT('',(-6578.62310709455,-3488.43973230736,25.6480497172421)
);
#434=CARTESIAN_POINT('',(-6578.62310709455,-3488.43973230736,1.43806338390887)
);
#435=CARTESIAN_POINT('',(-6580.88908809455,-3488.43973230736,76.4347783839083)
);
#436=CARTESIAN_POINT('',(-6580.13376109454,-3488.43973230736,75.6458597172422)
);
#437=CARTESIAN_POINT('',(-6579.37843409455,-3488.43973230736,74.8569410505752)
);
#438=CARTESIAN_POINT('',(-6578.62310709454,-3488.43973230736,74.06802238391));
#439=CARTESIAN_POINT('',(-6580.88908809455,-3488.43973230736,77.668841399836)
);
#440=CARTESIAN_POINT('',(-6580.88908809455,-3488.43973230736,77.2574870611932)
);
#441=CARTESIAN_POINT('',(-6580.88908809455,-3488.43973230736,76.8461327225511)
);
#442=CARTESIAN_POINT('',(-6580.88908809455,-3488.43973230736,76.4347783839083)
);
#443=CARTESIAN_POINT('',(-6580.79234644491,-3488.43973230736,85.8773179263269)
);
#444=CARTESIAN_POINT('',(-6579.13133409568,-3488.43973230736,83.3822552815555)
);
#445=CARTESIAN_POINT('',(-6579.16973497068,-3488.43973230736,80.1240653124503)
);
#446=CARTESIAN_POINT('',(-6580.88908809455,-3488.43973230736,77.668841399836)
);
#447=CARTESIAN_POINT('',(-6582.39923520401,-3488.43973230736,88.3906597972192)
);
#448=CARTESIAN_POINT('',(-6581.87860785338,-3488.43973230737,87.5434078121035)
);
#449=CARTESIAN_POINT('',(-6581.34341352668,-3488.43973230736,86.7050943670748)
);
#450=CARTESIAN_POINT('',(-6580.79234644491,-3488.43973230736,85.8773179263269)
);
#451=CARTESIAN_POINT('',(-6582.87223308723,-3488.43973230736,90.0679953489988)
);
#452=CARTESIAN_POINT('',(-6582.87301689163,-3488.43973230736,89.4794437893818)
);
#453=CARTESIAN_POINT('',(-6582.70736816572,-3488.43973230736,88.8921053382161)
);
#454=CARTESIAN_POINT('',(-6582.39923520401,-3488.43973230736,88.3906597972192)
);
#455=CARTESIAN_POINT('',(-6582.87017893269,-3488.43973230736,93.3754975439547)
);
#456=CARTESIAN_POINT('',(-6582.87101611486,-3488.43973230736,92.2729932242588)
);
#457=CARTESIAN_POINT('',(-6582.87076482637,-3488.43973230735,91.1704990088713)
);
#458=CARTESIAN_POINT('',(-6582.87223308723,-3488.43973230736,90.0679953489988)
);
#459=CARTESIAN_POINT('',(-6583.66516589769,-3488.43973230736,94.5247370128741)
);
#460=CARTESIAN_POINT('',(-6583.20587736978,-3488.43973230734,94.3405659298262)
);
#461=CARTESIAN_POINT('',(-6582.88182109084,-3488.43973230737,93.8701988678286)
);
#462=CARTESIAN_POINT('',(-6582.87017893269,-3488.43973230736,93.3754975439547)
);
#463=CARTESIAN_POINT('',(-6583.87726451577,-3488.43973230736,95.4200624246038)
);
#464=CARTESIAN_POINT('',(-6584.13557082299,-3488.43973230736,95.1489214159598)
);
#465=CARTESIAN_POINT('',(-6584.0173898797,-3488.43973230736,94.6519292352596)
);
#466=CARTESIAN_POINT('',(-6583.66516589769,-3488.43973230736,94.5247370128741)
);
#467=CARTESIAN_POINT('',(-6584.26722846797,-3488.43973230736,100.218530979851)
);
#468=CARTESIAN_POINT('',(-6582.81772324059,-3488.43973230736,99.004349549369)
);
#469=CARTESIAN_POINT('',(-6582.64306248895,-3488.43973230736,96.8525593032478)
);
#470=CARTESIAN_POINT('',(-6583.87726451577,-3488.43973230736,95.4200624246038)
);
#471=CARTESIAN_POINT('',(-6587.71845842189,-3488.43973230736,101.822155157247)
);
#472=CARTESIAN_POINT('',(-6586.45443159579,-3488.43973230736,101.600405680595)
);
#473=CARTESIAN_POINT('',(-6585.25100661546,-3488.43973230736,101.042595036896)
);
#474=CARTESIAN_POINT('',(-6584.26722846797,-3488.43973230736,100.218530979851)
);
#475=CARTESIAN_POINT('',(-6591.08278609455,-3488.43973230736,102.415376897879)
);
#476=CARTESIAN_POINT('',(-6589.961343537,-3488.43973230736,102.217636317668));
#477=CARTESIAN_POINT('',(-6588.84007241358,-3488.43973230736,102.018921009463)
);
#478=CARTESIAN_POINT('',(-6587.71845842189,-3488.43973230736,101.822155157247)
);
#479=CARTESIAN_POINT('',(-6591.08278609455,-3488.43973230736,0.438063383908974
));
#480=CARTESIAN_POINT('',(-6591.08278609455,-3488.43973230736,34.4305012218989)
);
#481=CARTESIAN_POINT('',(-6591.08278609455,-3488.43973230736,68.4229390598886)
);
#482=CARTESIAN_POINT('',(-6591.08278609455,-3488.43973230736,102.415376897879)
);
#483=CARTESIAN_POINT('',(-6578.62310709455,-3488.43973230736,1.43806338390887)
);
#484=CARTESIAN_POINT('',(-6582.77633342787,-3488.43973230736,1.10473005057541)
);
#485=CARTESIAN_POINT('',(-6586.92955976123,-3488.43973230736,0.771396717242203
));
#486=CARTESIAN_POINT('',(-6591.08278609455,-3488.43973230736,0.438063383908742
));
#487=CARTESIAN_POINT('',(-6578.62310709273,-4988.43973230736,74.0680223838635)
);
#488=CARTESIAN_POINT('',(-6578.62310709273,-4988.43973230736,49.8580360505303)
);
#489=CARTESIAN_POINT('',(-6578.62310709273,-4988.43973230736,25.6480497171955)
);
#490=CARTESIAN_POINT('',(-6578.62310709273,-4988.43973230736,1.43806338386236)
);
#491=CARTESIAN_POINT('',(-6580.88908809273,-4988.43973230736,76.4347783838618)
);
#492=CARTESIAN_POINT('',(-6580.13376109272,-4988.43973230736,75.6458597171956)
);
#493=CARTESIAN_POINT('',(-6579.37843409274,-4988.43973230736,74.8569410505287)
);
#494=CARTESIAN_POINT('',(-6578.62310709273,-4988.43973230736,74.0680223838635)
);
#495=CARTESIAN_POINT('',(-6580.88908809273,-4988.43973230736,77.6688413997895)
);
#496=CARTESIAN_POINT('',(-6580.88908809273,-4988.43973230736,77.2574870611467)
);
#497=CARTESIAN_POINT('',(-6580.88908809273,-4988.43973230736,76.8461327225046)
);
#498=CARTESIAN_POINT('',(-6580.88908809273,-4988.43973230736,76.4347783838618)
);
#499=CARTESIAN_POINT('',(-6580.7923464431,-4988.43973230736,85.8773179262804)
);
#500=CARTESIAN_POINT('',(-6579.13133409387,-4988.43973230736,83.382255281509)
);
#501=CARTESIAN_POINT('',(-6579.16973496887,-4988.43973230736,80.1240653124037)
);
#502=CARTESIAN_POINT('',(-6580.88908809273,-4988.43973230736,77.6688413997895)
);
#503=CARTESIAN_POINT('',(-6582.39923520219,-4988.43973230736,88.3906597971727)
);
#504=CARTESIAN_POINT('',(-6581.87860785157,-4988.43973230737,87.543407812057)
);
#505=CARTESIAN_POINT('',(-6581.34341352486,-4988.43973230736,86.7050943670283)
);
#506=CARTESIAN_POINT('',(-6580.7923464431,-4988.43973230736,85.8773179262804)
);
#507=CARTESIAN_POINT('',(-6582.87223308541,-4988.43973230736,90.0679953489523)
);
#508=CARTESIAN_POINT('',(-6582.87301688981,-4988.43973230736,89.4794437893353)
);
#509=CARTESIAN_POINT('',(-6582.7073681639,-4988.43973230736,88.8921053381695)
);
#510=CARTESIAN_POINT('',(-6582.39923520219,-4988.43973230736,88.3906597971727)
);
#511=CARTESIAN_POINT('',(-6582.87017893087,-4988.43973230736,93.3754975439082)
);
#512=CARTESIAN_POINT('',(-6582.87101611305,-4988.43973230736,92.2729932242123)
);
#513=CARTESIAN_POINT('',(-6582.87076482455,-4988.43973230735,91.1704990088248)
);
#514=CARTESIAN_POINT('',(-6582.87223308541,-4988.43973230736,90.0679953489523)
);
#515=CARTESIAN_POINT('',(-6583.66516589587,-4988.43973230736,94.5247370128275)
);
#516=CARTESIAN_POINT('',(-6583.20587736796,-4988.43973230734,94.3405659297797)
);
#517=CARTESIAN_POINT('',(-6582.88182108903,-4988.43973230737,93.8701988677821)
);
#518=CARTESIAN_POINT('',(-6582.87017893087,-4988.43973230736,93.3754975439082)
);
#519=CARTESIAN_POINT('',(-6583.87726451395,-4988.43973230736,95.4200624245573)
);
#520=CARTESIAN_POINT('',(-6584.13557082118,-4988.43973230736,95.1489214159133)
);
#521=CARTESIAN_POINT('',(-6584.01738987789,-4988.43973230736,94.651929235213)
);
#522=CARTESIAN_POINT('',(-6583.66516589587,-4988.43973230736,94.5247370128275)
);
#523=CARTESIAN_POINT('',(-6584.26722846616,-4988.43973230736,100.218530979805)
);
#524=CARTESIAN_POINT('',(-6582.81772323877,-4988.43973230736,99.0043495493225)
);
#525=CARTESIAN_POINT('',(-6582.64306248713,-4988.43973230736,96.8525593032013)
);
#526=CARTESIAN_POINT('',(-6583.87726451395,-4988.43973230736,95.4200624245573)
);
#527=CARTESIAN_POINT('',(-6587.71845842008,-4988.43973230736,101.822155157201)
);
#528=CARTESIAN_POINT('',(-6586.45443159397,-4988.43973230736,101.600405680548)
);
#529=CARTESIAN_POINT('',(-6585.25100661364,-4988.43973230736,101.04259503685)
);
#530=CARTESIAN_POINT('',(-6584.26722846616,-4988.43973230736,100.218530979805)
);
#531=CARTESIAN_POINT('',(-6591.08278609273,-4988.43973230736,102.415376897832)
);
#532=CARTESIAN_POINT('',(-6589.96134353518,-4988.43973230736,102.217636317622)
);
#533=CARTESIAN_POINT('',(-6588.84007241177,-4988.43973230736,102.018921009416)
);
#534=CARTESIAN_POINT('',(-6587.71845842008,-4988.43973230736,101.822155157201)
);
#535=CARTESIAN_POINT('',(-6591.08278609273,-4988.43973230736,0.438063383862461
));
#536=CARTESIAN_POINT('',(-6591.08278609273,-4988.43973230736,34.4305012218523)
);
#537=CARTESIAN_POINT('',(-6591.08278609273,-4988.43973230736,68.4229390598421)
);
#538=CARTESIAN_POINT('',(-6591.08278609273,-4988.43973230736,102.415376897832)
);
#539=CARTESIAN_POINT('',(-6578.62310709273,-4988.43973230736,1.43806338386236)
);
#540=CARTESIAN_POINT('',(-6582.77633342605,-4988.43973230736,1.1047300505289)
);
#541=CARTESIAN_POINT('',(-6586.92955975941,-4988.43973230736,0.77139671719569)
);
#542=CARTESIAN_POINT('',(-6591.08278609273,-4988.43973230736,0.43806338386223)
);
#543=CARTESIAN_POINT('',(-6578.62310709455,-3488.43973230736,1.43806338390887)
);
#544=CARTESIAN_POINT('',(-6591.08278609455,-3488.43973230736,0.438063383908974
));
#545=CARTESIAN_POINT('',(-6591.08278609455,-3488.43973230736,102.415376897879)
);
#546=CARTESIAN_POINT('',(-6589.961343537,-3488.43973230736,102.217636317668));
#547=CARTESIAN_POINT('',(-6588.84007241358,-3488.43973230736,102.018921009463)
);
#548=CARTESIAN_POINT('',(-6587.71845842189,-3488.43973230736,101.822155157247)
);
#549=CARTESIAN_POINT('',(-6587.71845842189,-3488.43973230736,101.822155157247)
);
#550=CARTESIAN_POINT('',(-6586.45443159579,-3488.43973230736,101.600405680595)
);
#551=CARTESIAN_POINT('',(-6585.25100661546,-3488.43973230736,101.042595036896)
);
#552=CARTESIAN_POINT('',(-6584.26722846797,-3488.43973230736,100.218530979851)
);
#553=CARTESIAN_POINT('',(-6584.26722846797,-3488.43973230736,100.218530979851)
);
#554=CARTESIAN_POINT('',(-6582.81772324059,-3488.43973230736,99.004349549369)
);
#555=CARTESIAN_POINT('',(-6582.64306248895,-3488.43973230736,96.8525593032478)
);
#556=CARTESIAN_POINT('',(-6583.87726451577,-3488.43973230736,95.4200624246038)
);
#557=CARTESIAN_POINT('',(-6583.87726451577,-3488.43973230736,95.4200624246038)
);
#558=CARTESIAN_POINT('',(-6584.13557082299,-3488.43973230736,95.1489214159598)
);
#559=CARTESIAN_POINT('',(-6584.0173898797,-3488.43973230736,94.6519292352596)
);
#560=CARTESIAN_POINT('',(-6583.66516589769,-3488.43973230736,94.5247370128741)
);
#561=CARTESIAN_POINT('',(-6583.66516589769,-3488.43973230736,94.5247370128741)
);
#562=CARTESIAN_POINT('',(-6583.20587736978,-3488.43973230734,94.3405659298262)
);
#563=CARTESIAN_POINT('',(-6582.88182109084,-3488.43973230737,93.8701988678286)
);
#564=CARTESIAN_POINT('',(-6582.87017893269,-3488.43973230736,93.3754975439547)
);
#565=CARTESIAN_POINT('',(-6582.87017893269,-3488.43973230736,93.3754975439547)
);
#566=CARTESIAN_POINT('',(-6582.87101611486,-3488.43973230736,92.2729932242588)
);
#567=CARTESIAN_POINT('',(-6582.87076482637,-3488.43973230735,91.1704990088713)
);
#568=CARTESIAN_POINT('',(-6582.87223308723,-3488.43973230736,90.0679953489988)
);
#569=CARTESIAN_POINT('',(-6582.87223308723,-3488.43973230736,90.0679953489988)
);
#570=CARTESIAN_POINT('',(-6582.87301689163,-3488.43973230736,89.4794437893818)
);
#571=CARTESIAN_POINT('',(-6582.70736816572,-3488.43973230736,88.8921053382161)
);
#572=CARTESIAN_POINT('',(-6582.39923520401,-3488.43973230736,88.3906597972192)
);
#573=CARTESIAN_POINT('',(-6582.39923520401,-3488.43973230736,88.3906597972192)
);
#574=CARTESIAN_POINT('',(-6581.87860785338,-3488.43973230737,87.5434078121035)
);
#575=CARTESIAN_POINT('',(-6581.34341352668,-3488.43973230736,86.7050943670748)
);
#576=CARTESIAN_POINT('',(-6580.79234644491,-3488.43973230736,85.8773179263269)
);
#577=CARTESIAN_POINT('',(-6580.79234644491,-3488.43973230736,85.8773179263269)
);
#578=CARTESIAN_POINT('',(-6579.13133409568,-3488.43973230736,83.3822552815555)
);
#579=CARTESIAN_POINT('',(-6579.16973497068,-3488.43973230736,80.1240653124503)
);
#580=CARTESIAN_POINT('',(-6580.88908809455,-3488.43973230736,77.668841399836)
);
#581=CARTESIAN_POINT('',(-6580.88908809455,-3488.43973230736,77.668841399836)
);
#582=CARTESIAN_POINT('',(-6580.88908809455,-3488.43973230736,76.4347783839083)
);
#583=CARTESIAN_POINT('',(-6578.62310709454,-3488.43973230736,74.06802238391));
#584=CARTESIAN_POINT('',(-6589.40068654602,-3488.43973230736,102.118400504565)
);
#585=CARTESIAN_POINT('',(-6589.40068654421,-4988.43973230736,102.118400504518)
);
#586=PRODUCT_DEFINITION_SHAPE('','',#587);
#587=PRODUCT_DEFINITION('','',#599,#604);
#588=(
GEOMETRIC_REPRESENTATION_CONTEXT(3)
GLOBAL_UNCERTAINTY_ASSIGNED_CONTEXT((#589))
GLOBAL_UNIT_ASSIGNED_CONTEXT((#591,#590,#594))
REPRESENTATION_CONTEXT('','')
);
#589=UNCERTAINTY_MEASURE_WITH_UNIT(LENGTH_MEASURE(0.001),#591,'','tolerance');
#590=(
CONVERSION_BASED_UNIT('',#592)
NAMED_UNIT(#598)
PLANE_ANGLE_UNIT()
);
#591=(
CONVERSION_BASED_UNIT('',#593)
LENGTH_UNIT()
NAMED_UNIT(#597)
);
#592=PLANE_ANGLE_MEASURE_WITH_UNIT(PLANE_ANGLE_MEASURE(0.0174532925199433),
#595);
#593=LENGTH_MEASURE_WITH_UNIT(LENGTH_MEASURE(1.),#596);
#594=(
NAMED_UNIT(*)
SI_UNIT($,.STERADIAN.)
SOLID_ANGLE_UNIT()
);
#595=(
NAMED_UNIT(*)
PLANE_ANGLE_UNIT()
SI_UNIT($,.RADIAN.)
);
#596=(
LENGTH_UNIT()
NAMED_UNIT(*)
SI_UNIT(.MILLI.,.METRE.)
);
#597=DIMENSIONAL_EXPONENTS(1.,0.,0.,0.,0.,0.,0.);
#598=DIMENSIONAL_EXPONENTS(0.,0.,0.,0.,0.,0.,0.);
#599=PRODUCT_DEFINITION_FORMATION_WITH_SPECIFIED_SOURCE('','',#602,.NOT_KNOWN.
);
#600=PRODUCT_CATEGORY_RELATIONSHIP('','',#605,#601);
#601=PRODUCT_RELATED_PRODUCT_CATEGORY('assembly','',(#602));
#602=PRODUCT('','master','',(#603));
#603=PRODUCT_CONTEXT('',#607,'');
#604=PRODUCT_DEFINITION_CONTEXT('',#607,'part_definition');
#605=PRODUCT_CATEGORY('part','');
#606=APPLICATION_PROTOCOL_DEFINITION('international standard',
'automotive_design_cc2',1994,#607);
#607=APPLICATION_CONTEXT(
'configuration controlled 3D designs of mechanical parts and assemblies');
ENDSEC;
END-ISO-10303-21;
36517