ISO-10303-21;
HEADER;
/* Generated by software using Delcam plc STEP library */

FILE_DESCRIPTION(
/* description */ ('AP-214 File'),
/* implementation_level */ '2;1');

FILE_NAME(
/* name */ 'PLIN08M',
/* time_stamp */ 'Tue Sep 26 15:30:24 2017',
/* author */ (''),
/* organization */ (''),
/* preprocessor_version */ 'DELCAM STEP V1',
/* originating_system */ 'Exchange7.1.0006',
/* authorisation */ '');

FILE_SCHEMA (('AUTOMOTIVE_DESIGN'));
ENDSEC;
DATA;
#10=PRESENTATION_STYLE_ASSIGNMENT((#20));
#11=PRESENTATION_STYLE_ASSIGNMENT((#21));
#12=SURFACE_SIDE_STYLE('',(#14));
#13=SURFACE_SIDE_STYLE('',(#15));
#14=SURFACE_STYLE_FILL_AREA(#16);
#15=SURFACE_STYLE_FILL_AREA(#17);
#16=FILL_AREA_STYLE('',(#18));
#17=FILL_AREA_STYLE('',(#19));
#18=FILL_AREA_STYLE_COLOUR('',#30);
#19=FILL_AREA_STYLE_COLOUR('',#31);
#20=SURFACE_STYLE_USAGE(.BOTH.,#12);
#21=SURFACE_STYLE_USAGE(.BOTH.,#13);
#22=STYLED_ITEM('',(#10),#38);
#23=STYLED_ITEM('',(#10),#39);
#24=STYLED_ITEM('',(#10),#40);
#25=STYLED_ITEM('',(#10),#41);
#26=STYLED_ITEM('',(#10),#42);
#27=STYLED_ITEM('',(#10),#43);
#28=STYLED_ITEM('',(#10),#44);
#29=STYLED_ITEM('',(#11),#37);
#30=COLOUR_RGB('solid_blue',0.,0.,0.);
#31=COLOUR_RGB('rgb_colour_1',0.6,0.6,0.6);
#32=MECHANICAL_DESIGN_GEOMETRIC_PRESENTATION_REPRESENTATION('',(#22,#23,#24,
#25,#26,#27,#28,#29),#312);
#33=PRESENTATION_LAYER_ASSIGNMENT('2','Wireframes',(#38,#39,#40,#41,#42,#43,
#44,#37));
#34=SHAPE_REPRESENTATION_RELATIONSHIP('','',#187,#35);
#35=MANIFOLD_SURFACE_SHAPE_REPRESENTATION('',(#36),#312);
#36=SHELL_BASED_SURFACE_MODEL('',(#37));
#37=OPEN_SHELL('554',(#38,#39,#40,#41,#42,#43,#44));
#38=ADVANCED_FACE('',(#45),#89,.T.);
#39=ADVANCED_FACE('',(#46),#90,.T.);
#40=ADVANCED_FACE('',(#47),#91,.T.);
#41=ADVANCED_FACE('',(#48),#92,.T.);
#42=ADVANCED_FACE('',(#49),#93,.T.);
#43=ADVANCED_FACE('',(#50),#94,.T.);
#44=ADVANCED_FACE('',(#51),#95,.T.);
#45=FACE_OUTER_BOUND('',#52,.T.);
#46=FACE_OUTER_BOUND('',#53,.T.);
#47=FACE_OUTER_BOUND('',#54,.T.);
#48=FACE_OUTER_BOUND('',#55,.T.);
#49=FACE_OUTER_BOUND('',#56,.T.);
#50=FACE_OUTER_BOUND('',#57,.T.);
#51=FACE_OUTER_BOUND('',#58,.T.);
#52=EDGE_LOOP('',(#59,#60,#61,#62));
#53=EDGE_LOOP('',(#63,#64,#65,#66));
#54=EDGE_LOOP('',(#67,#68,#69,#70));
#55=EDGE_LOOP('',(#71,#72,#73,#74));
#56=EDGE_LOOP('',(#75,#76,#77,#78));
#57=EDGE_LOOP('',(#79,#80,#81,#82,#83));
#58=EDGE_LOOP('',(#84,#85,#86,#87,#88));
#59=ORIENTED_EDGE('',*,*,#96,.T.);
#60=ORIENTED_EDGE('',*,*,#97,.T.);
#61=ORIENTED_EDGE('',*,*,#98,.T.);
#62=ORIENTED_EDGE('',*,*,#99,.T.);
#63=ORIENTED_EDGE('',*,*,#100,.T.);
#64=ORIENTED_EDGE('',*,*,#101,.T.);
#65=ORIENTED_EDGE('',*,*,#102,.T.);
#66=ORIENTED_EDGE('',*,*,#103,.T.);
#67=ORIENTED_EDGE('',*,*,#104,.T.);
#68=ORIENTED_EDGE('',*,*,#105,.T.);
#69=ORIENTED_EDGE('',*,*,#106,.T.);
#70=ORIENTED_EDGE('',*,*,#107,.T.);
#71=ORIENTED_EDGE('',*,*,#108,.T.);
#72=ORIENTED_EDGE('',*,*,#109,.T.);
#73=ORIENTED_EDGE('',*,*,#110,.T.);
#74=ORIENTED_EDGE('',*,*,#111,.T.);
#75=ORIENTED_EDGE('',*,*,#112,.T.);
#76=ORIENTED_EDGE('',*,*,#113,.T.);
#77=ORIENTED_EDGE('',*,*,#114,.T.);
#78=ORIENTED_EDGE('',*,*,#115,.T.);
#79=ORIENTED_EDGE('',*,*,#116,.T.);
#80=ORIENTED_EDGE('',*,*,#117,.T.);
#81=ORIENTED_EDGE('',*,*,#118,.T.);
#82=ORIENTED_EDGE('',*,*,#119,.T.);
#83=ORIENTED_EDGE('',*,*,#120,.T.);
#84=ORIENTED_EDGE('',*,*,#121,.T.);
#85=ORIENTED_EDGE('',*,*,#122,.T.);
#86=ORIENTED_EDGE('',*,*,#123,.T.);
#87=ORIENTED_EDGE('',*,*,#124,.T.);
#88=ORIENTED_EDGE('',*,*,#125,.T.);
#89=PLANE('',#189);
#90=PLANE('',#190);
#91=PLANE('',#191);
#92=PLANE('',#192);
#93=PLANE('',#193);
#94=PLANE('',#194);
#95=PLANE('',#195);
#96=EDGE_CURVE('',#159,#156,#126,.T.);
#97=EDGE_CURVE('',#156,#157,#127,.T.);
#98=EDGE_CURVE('',#157,#158,#128,.T.);
#99=EDGE_CURVE('',#158,#159,#129,.T.);
#100=EDGE_CURVE('',#163,#160,#130,.T.);
#101=EDGE_CURVE('',#160,#161,#131,.T.);
#102=EDGE_CURVE('',#161,#162,#132,.T.);
#103=EDGE_CURVE('',#162,#163,#133,.T.);
#104=EDGE_CURVE('',#167,#164,#134,.T.);
#105=EDGE_CURVE('',#164,#165,#135,.T.);
#106=EDGE_CURVE('',#165,#166,#136,.T.);
#107=EDGE_CURVE('',#166,#167,#137,.T.);
#108=EDGE_CURVE('',#171,#168,#138,.T.);
#109=EDGE_CURVE('',#168,#169,#139,.T.);
#110=EDGE_CURVE('',#169,#170,#140,.T.);
#111=EDGE_CURVE('',#170,#171,#141,.T.);
#112=EDGE_CURVE('',#175,#172,#142,.T.);
#113=EDGE_CURVE('',#172,#173,#143,.T.);
#114=EDGE_CURVE('',#173,#174,#144,.T.);
#115=EDGE_CURVE('',#174,#175,#145,.T.);
#116=EDGE_CURVE('',#180,#176,#146,.T.);
#117=EDGE_CURVE('',#176,#177,#147,.T.);
#118=EDGE_CURVE('',#177,#178,#148,.T.);
#119=EDGE_CURVE('',#178,#179,#149,.T.);
#120=EDGE_CURVE('',#179,#180,#150,.T.);
#121=EDGE_CURVE('',#185,#181,#151,.T.);
#122=EDGE_CURVE('',#181,#182,#152,.T.);
#123=EDGE_CURVE('',#182,#183,#153,.T.);
#124=EDGE_CURVE('',#183,#184,#154,.T.);
#125=EDGE_CURVE('',#184,#185,#155,.T.);
#126=B_SPLINE_CURVE_WITH_KNOTS('',1,(#243,#244),.UNSPECIFIED.,.F.,.F.,(2,2),(
0.,1.),.UNSPECIFIED.);
#127=B_SPLINE_CURVE_WITH_KNOTS('',1,(#245,#246),.UNSPECIFIED.,.F.,.F.,(2,2),(
0.,1.),.UNSPECIFIED.);
#128=B_SPLINE_CURVE_WITH_KNOTS('',1,(#247,#248),.UNSPECIFIED.,.F.,.F.,(2,2),(
0.,1.),.UNSPECIFIED.);
#129=B_SPLINE_CURVE_WITH_KNOTS('',1,(#249,#250),.UNSPECIFIED.,.F.,.F.,(2,2),(
0.,1.),.UNSPECIFIED.);
#130=B_SPLINE_CURVE_WITH_KNOTS('',1,(#251,#252),.UNSPECIFIED.,.F.,.F.,(2,2),(
0.,1.),.UNSPECIFIED.);
#131=B_SPLINE_CURVE_WITH_KNOTS('',1,(#253,#254),.UNSPECIFIED.,.F.,.F.,(2,2),(
0.,1.),.UNSPECIFIED.);
#132=B_SPLINE_CURVE_WITH_KNOTS('',1,(#255,#256),.UNSPECIFIED.,.F.,.F.,(2,2),(
0.,1.),.UNSPECIFIED.);
#133=B_SPLINE_CURVE_WITH_KNOTS('',1,(#257,#258),.UNSPECIFIED.,.F.,.F.,(2,2),(
0.,1.),.UNSPECIFIED.);
#134=B_SPLINE_CURVE_WITH_KNOTS('',1,(#259,#260),.UNSPECIFIED.,.F.,.F.,(2,2),(
0.,1.),.UNSPECIFIED.);
#135=B_SPLINE_CURVE_WITH_KNOTS('',1,(#261,#262),.UNSPECIFIED.,.F.,.F.,(2,2),(
0.,1.),.UNSPECIFIED.);
#136=B_SPLINE_CURVE_WITH_KNOTS('',1,(#263,#264),.UNSPECIFIED.,.F.,.F.,(2,2),(
0.,1.),.UNSPECIFIED.);
#137=B_SPLINE_CURVE_WITH_KNOTS('',1,(#265,#266),.UNSPECIFIED.,.F.,.F.,(2,2),(
0.,1.),.UNSPECIFIED.);
#138=B_SPLINE_CURVE_WITH_KNOTS('',1,(#267,#268),.UNSPECIFIED.,.F.,.F.,(2,2),(
0.,1.),.UNSPECIFIED.);
#139=B_SPLINE_CURVE_WITH_KNOTS('',1,(#269,#270),.UNSPECIFIED.,.F.,.F.,(2,2),(
0.,1.),.UNSPECIFIED.);
#140=B_SPLINE_CURVE_WITH_KNOTS('',1,(#271,#272),.UNSPECIFIED.,.F.,.F.,(2,2),(
0.,1.),.UNSPECIFIED.);
#141=B_SPLINE_CURVE_WITH_KNOTS('',1,(#273,#274),.UNSPECIFIED.,.F.,.F.,(2,2),(
0.,1.),.UNSPECIFIED.);
#142=B_SPLINE_CURVE_WITH_KNOTS('',1,(#275,#276),.UNSPECIFIED.,.F.,.F.,(2,2),(
0.,1.),.UNSPECIFIED.);
#143=B_SPLINE_CURVE_WITH_KNOTS('',1,(#277,#278),.UNSPECIFIED.,.F.,.F.,(2,2),(
0.,1.),.UNSPECIFIED.);
#144=B_SPLINE_CURVE_WITH_KNOTS('',1,(#279,#280),.UNSPECIFIED.,.F.,.F.,(2,2),(
0.,1.),.UNSPECIFIED.);
#145=B_SPLINE_CURVE_WITH_KNOTS('',1,(#281,#282),.UNSPECIFIED.,.F.,.F.,(2,2),(
0.,1.),.UNSPECIFIED.);
#146=B_SPLINE_CURVE_WITH_KNOTS('',1,(#283,#284),.UNSPECIFIED.,.F.,.F.,(2,2),(
0.,1.),.UNSPECIFIED.);
#147=B_SPLINE_CURVE_WITH_KNOTS('',1,(#285,#286),.UNSPECIFIED.,.F.,.F.,(2,2),(
0.,1.),.UNSPECIFIED.);
#148=B_SPLINE_CURVE_WITH_KNOTS('',1,(#287,#288),.UNSPECIFIED.,.F.,.F.,(2,2),(
0.,1.),.UNSPECIFIED.);
#149=B_SPLINE_CURVE_WITH_KNOTS('',1,(#289,#290),.UNSPECIFIED.,.F.,.F.,(2,2),(
0.,1.),.UNSPECIFIED.);
#150=B_SPLINE_CURVE_WITH_KNOTS('',1,(#291,#292),.UNSPECIFIED.,.F.,.F.,(2,2),(
0.,1.),.UNSPECIFIED.);
#151=B_SPLINE_CURVE_WITH_KNOTS('',1,(#293,#294),.UNSPECIFIED.,.F.,.F.,(2,2),(
0.,1.),.UNSPECIFIED.);
#152=B_SPLINE_CURVE_WITH_KNOTS('',1,(#295,#296),.UNSPECIFIED.,.F.,.F.,(2,2),(
0.,1.),.UNSPECIFIED.);
#153=B_SPLINE_CURVE_WITH_KNOTS('',1,(#297,#298),.UNSPECIFIED.,.F.,.F.,(2,2),(
0.,1.),.UNSPECIFIED.);
#154=B_SPLINE_CURVE_WITH_KNOTS('',1,(#299,#300),.UNSPECIFIED.,.F.,.F.,(2,2),(
0.,1.),.UNSPECIFIED.);
#155=B_SPLINE_CURVE_WITH_KNOTS('',1,(#301,#302),.UNSPECIFIED.,.F.,.F.,(2,2),(
0.,1.),.UNSPECIFIED.);
#156=VERTEX_POINT('',#213);
#157=VERTEX_POINT('',#214);
#158=VERTEX_POINT('',#215);
#159=VERTEX_POINT('',#216);
#160=VERTEX_POINT('',#217);
#161=VERTEX_POINT('',#218);
#162=VERTEX_POINT('',#219);
#163=VERTEX_POINT('',#220);
#164=VERTEX_POINT('',#221);
#165=VERTEX_POINT('',#222);
#166=VERTEX_POINT('',#223);
#167=VERTEX_POINT('',#224);
#168=VERTEX_POINT('',#225);
#169=VERTEX_POINT('',#226);
#170=VERTEX_POINT('',#227);
#171=VERTEX_POINT('',#228);
#172=VERTEX_POINT('',#229);
#173=VERTEX_POINT('',#230);
#174=VERTEX_POINT('',#231);
#175=VERTEX_POINT('',#232);
#176=VERTEX_POINT('',#233);
#177=VERTEX_POINT('',#234);
#178=VERTEX_POINT('',#235);
#179=VERTEX_POINT('',#236);
#180=VERTEX_POINT('',#237);
#181=VERTEX_POINT('',#238);
#182=VERTEX_POINT('',#239);
#183=VERTEX_POINT('',#240);
#184=VERTEX_POINT('',#241);
#185=VERTEX_POINT('',#242);
#186=SHAPE_DEFINITION_REPRESENTATION(#310,#187);
#187=SHAPE_REPRESENTATION('master',(#188),#312);
#188=AXIS2_PLACEMENT_3D('',#212,#197,#196);
#189=AXIS2_PLACEMENT_3D('',#303,#199,#198);
#190=AXIS2_PLACEMENT_3D('',#304,#201,#200);
#191=AXIS2_PLACEMENT_3D('',#305,#203,#202);
#192=AXIS2_PLACEMENT_3D('',#306,#205,#204);
#193=AXIS2_PLACEMENT_3D('',#307,#207,#206);
#194=AXIS2_PLACEMENT_3D('',#308,#209,#208);
#195=AXIS2_PLACEMENT_3D('',#309,#211,#210);
#196=DIRECTION('',(1.,0.,0.));
#197=DIRECTION('',(0.,0.,1.));
#198=DIRECTION('',(-0.,1.,0.));
#199=DIRECTION('',(0.,0.,-1.));
#200=DIRECTION('',(0.,-1.,0.));
#201=DIRECTION('',(-1.,0.,0.));
#202=DIRECTION('',(-0.984807753012202,0.,0.173648177666964));
#203=DIRECTION('',(0.173648177666964,0.,0.984807753012202));
#204=DIRECTION('',(-0.390486779228979,0.,0.920608535289229));
#205=DIRECTION('',(0.920608535289229,0.,0.390486779228979));
#206=DIRECTION('',(0.,1.,0.));
#207=DIRECTION('',(1.,0.,0.));
#208=DIRECTION('',(1.,0.,-0.));
#209=DIRECTION('',(0.,-1.,0.));
#210=DIRECTION('',(-1.,0.,0.));
#211=DIRECTION('',(0.,1.,0.));
#212=CARTESIAN_POINT('',(0.,0.,0.));
#213=CARTESIAN_POINT('',(-6491.962659,-3488.43973230736,5.93973230735628));
#214=CARTESIAN_POINT('',(-6478.962659,-3488.43973230736,5.93973230735628));
#215=CARTESIAN_POINT('',(-6478.962659,-4988.43973230736,5.93973230735628));
#216=CARTESIAN_POINT('',(-6491.962659,-4988.43973230736,5.93973230735628));
#217=CARTESIAN_POINT('',(-6491.962659,-4988.43973230736,5.93973230735719));
#218=CARTESIAN_POINT('',(-6491.962659,-4988.43973230736,85.6279383469218));
#219=CARTESIAN_POINT('',(-6491.962659,-3488.43973230736,85.6279383469218));
#220=CARTESIAN_POINT('',(-6491.962659,-3488.43973230736,5.93973230735719));
#221=CARTESIAN_POINT('',(-6491.962659,-3488.43973230736,85.627938346922));
#222=CARTESIAN_POINT('',(-6491.962659,-4988.43973230736,85.627938346922));
#223=CARTESIAN_POINT('',(-6485.791703,-4988.43973230736,84.539832307357));
#224=CARTESIAN_POINT('',(-6485.791703,-3488.43973230736,84.539832307357));
#225=CARTESIAN_POINT('',(-6485.791703,-3488.43973230736,84.5398323073571));
#226=CARTESIAN_POINT('',(-6485.791703,-4988.43973230736,84.5398323073571));
#227=CARTESIAN_POINT('',(-6478.962659,-4988.43973230736,68.4397323073564));
#228=CARTESIAN_POINT('',(-6478.962659,-3488.43973230736,68.4397323073564));
#229=CARTESIAN_POINT('',(-6478.962659,-3488.43973230736,5.93973230735628));
#230=CARTESIAN_POINT('',(-6478.962659,-3488.43973230736,68.4397323073563));
#231=CARTESIAN_POINT('',(-6478.962659,-4988.43973230736,68.4397323073563));
#232=CARTESIAN_POINT('',(-6478.962659,-4988.43973230736,5.93973230735628));
#233=CARTESIAN_POINT('',(-6478.962659,-4988.43973230736,68.4397323073562));
#234=CARTESIAN_POINT('',(-6485.791703,-4988.43973230736,84.5398323073567));
#235=CARTESIAN_POINT('',(-6491.962659,-4988.43973230736,85.6279383469216));
#236=CARTESIAN_POINT('',(-6491.962659,-4988.43973230736,5.93973230735628));
#237=CARTESIAN_POINT('',(-6478.962659,-4988.43973230736,5.93973230735628));
#238=CARTESIAN_POINT('',(-6491.962659,-3488.43973230736,85.6279383469217));
#239=CARTESIAN_POINT('',(-6485.791703,-3488.43973230736,84.5398323073568));
#240=CARTESIAN_POINT('',(-6478.962659,-3488.43973230736,68.4397323073563));
#241=CARTESIAN_POINT('',(-6478.962659,-3488.43973230736,5.93973230735628));
#242=CARTESIAN_POINT('',(-6491.962659,-3488.43973230736,5.93973230735628));
#243=CARTESIAN_POINT('',(-6491.962659,-4988.43973230736,5.93973230735628));
#244=CARTESIAN_POINT('',(-6491.962659,-3488.43973230736,5.93973230735628));
#245=CARTESIAN_POINT('',(-6491.962659,-3488.43973230736,5.93973230735628));
#246=CARTESIAN_POINT('',(-6478.962659,-3488.43973230736,5.93973230735628));
#247=CARTESIAN_POINT('',(-6478.962659,-3488.43973230736,5.93973230735628));
#248=CARTESIAN_POINT('',(-6478.962659,-4988.43973230736,5.93973230735628));
#249=CARTESIAN_POINT('',(-6478.962659,-4988.43973230736,5.93973230735628));
#250=CARTESIAN_POINT('',(-6491.962659,-4988.43973230736,5.93973230735628));
#251=CARTESIAN_POINT('',(-6491.962659,-3488.43973230736,5.93973230735719));
#252=CARTESIAN_POINT('',(-6491.962659,-4988.43973230736,5.93973230735719));
#253=CARTESIAN_POINT('',(-6491.962659,-4988.43973230736,5.93973230735719));
#254=CARTESIAN_POINT('',(-6491.962659,-4988.43973230736,85.6279383469218));
#255=CARTESIAN_POINT('',(-6491.962659,-4988.43973230736,85.6279383469218));
#256=CARTESIAN_POINT('',(-6491.962659,-3488.43973230736,85.6279383469218));
#257=CARTESIAN_POINT('',(-6491.962659,-3488.43973230736,85.6279383469218));
#258=CARTESIAN_POINT('',(-6491.962659,-3488.43973230736,5.93973230735719));
#259=CARTESIAN_POINT('',(-6485.791703,-3488.43973230736,84.539832307357));
#260=CARTESIAN_POINT('',(-6491.962659,-3488.43973230736,85.627938346922));
#261=CARTESIAN_POINT('',(-6491.962659,-3488.43973230736,85.627938346922));
#262=CARTESIAN_POINT('',(-6491.962659,-4988.43973230736,85.627938346922));
#263=CARTESIAN_POINT('',(-6491.962659,-4988.43973230736,85.627938346922));
#264=CARTESIAN_POINT('',(-6485.791703,-4988.43973230736,84.539832307357));
#265=CARTESIAN_POINT('',(-6485.791703,-4988.43973230736,84.539832307357));
#266=CARTESIAN_POINT('',(-6485.791703,-3488.43973230736,84.539832307357));
#267=CARTESIAN_POINT('',(-6478.962659,-3488.43973230736,68.4397323073564));
#268=CARTESIAN_POINT('',(-6485.791703,-3488.43973230736,84.5398323073571));
#269=CARTESIAN_POINT('',(-6485.791703,-3488.43973230736,84.5398323073571));
#270=CARTESIAN_POINT('',(-6485.791703,-4988.43973230736,84.5398323073571));
#271=CARTESIAN_POINT('',(-6485.791703,-4988.43973230736,84.5398323073571));
#272=CARTESIAN_POINT('',(-6478.962659,-4988.43973230736,68.4397323073564));
#273=CARTESIAN_POINT('',(-6478.962659,-4988.43973230736,68.4397323073564));
#274=CARTESIAN_POINT('',(-6478.962659,-3488.43973230736,68.4397323073564));
#275=CARTESIAN_POINT('',(-6478.962659,-4988.43973230736,5.93973230735628));
#276=CARTESIAN_POINT('',(-6478.962659,-3488.43973230736,5.93973230735628));
#277=CARTESIAN_POINT('',(-6478.962659,-3488.43973230736,5.93973230735628));
#278=CARTESIAN_POINT('',(-6478.962659,-3488.43973230736,68.4397323073563));
#279=CARTESIAN_POINT('',(-6478.962659,-3488.43973230736,68.4397323073563));
#280=CARTESIAN_POINT('',(-6478.962659,-4988.43973230736,68.4397323073563));
#281=CARTESIAN_POINT('',(-6478.962659,-4988.43973230736,68.4397323073563));
#282=CARTESIAN_POINT('',(-6478.962659,-4988.43973230736,5.93973230735628));
#283=CARTESIAN_POINT('',(-6478.962659,-4988.43973230736,5.93973230735628));
#284=CARTESIAN_POINT('',(-6478.962659,-4988.43973230736,68.4397323073562));
#285=CARTESIAN_POINT('',(-6478.962659,-4988.43973230736,68.4397323073562));
#286=CARTESIAN_POINT('',(-6485.791703,-4988.43973230736,84.5398323073567));
#287=CARTESIAN_POINT('',(-6485.791703,-4988.43973230736,84.5398323073567));
#288=CARTESIAN_POINT('',(-6491.962659,-4988.43973230736,85.6279383469216));
#289=CARTESIAN_POINT('',(-6491.962659,-4988.43973230736,85.6279383469216));
#290=CARTESIAN_POINT('',(-6491.962659,-4988.43973230736,5.93973230735628));
#291=CARTESIAN_POINT('',(-6491.962659,-4988.43973230736,5.93973230735628));
#292=CARTESIAN_POINT('',(-6478.962659,-4988.43973230736,5.93973230735628));
#293=CARTESIAN_POINT('',(-6491.962659,-3488.43973230736,5.93973230735628));
#294=CARTESIAN_POINT('',(-6491.962659,-3488.43973230736,85.6279383469217));
#295=CARTESIAN_POINT('',(-6491.962659,-3488.43973230736,85.6279383469217));
#296=CARTESIAN_POINT('',(-6485.791703,-3488.43973230736,84.5398323073568));
#297=CARTESIAN_POINT('',(-6485.791703,-3488.43973230736,84.5398323073568));
#298=CARTESIAN_POINT('',(-6478.962659,-3488.43973230736,68.4397323073563));
#299=CARTESIAN_POINT('',(-6478.962659,-3488.43973230736,68.4397323073563));
#300=CARTESIAN_POINT('',(-6478.962659,-3488.43973230736,5.93973230735628));
#301=CARTESIAN_POINT('',(-6478.962659,-3488.43973230736,5.93973230735628));
#302=CARTESIAN_POINT('',(-6491.962659,-3488.43973230736,5.93973230735628));
#303=CARTESIAN_POINT('',(-6485.462659,-4238.43973230736,5.93973230735628));
#304=CARTESIAN_POINT('',(-6491.962659,-4238.43973230736,45.7838353271395));
#305=CARTESIAN_POINT('',(-6488.877181,-4238.43973230736,85.0838853271393));
#306=CARTESIAN_POINT('',(-6482.377181,-4238.43973230736,76.4897823073566));
#307=CARTESIAN_POINT('',(-6478.962659,-4238.43973230736,37.1897323073563));
#308=CARTESIAN_POINT('',(-6485.462659,-4988.43973230736,45.9033676361983));
#309=CARTESIAN_POINT('',(-6485.462659,-3488.43973230736,45.7858394855209));
#310=PRODUCT_DEFINITION_SHAPE('','',#311);
#311=PRODUCT_DEFINITION('','',#323,#328);
#312=(
GEOMETRIC_REPRESENTATION_CONTEXT(3)
GLOBAL_UNCERTAINTY_ASSIGNED_CONTEXT((#313))
GLOBAL_UNIT_ASSIGNED_CONTEXT((#315,#314,#318))
REPRESENTATION_CONTEXT('','')
);
#313=UNCERTAINTY_MEASURE_WITH_UNIT(LENGTH_MEASURE(0.001),#315,'','tolerance');
#314=(
CONVERSION_BASED_UNIT('',#316)
NAMED_UNIT(#322)
PLANE_ANGLE_UNIT()
);
#315=(
CONVERSION_BASED_UNIT('',#317)
LENGTH_UNIT()
NAMED_UNIT(#321)
);
#316=PLANE_ANGLE_MEASURE_WITH_UNIT(PLANE_ANGLE_MEASURE(0.0174532925199433),
#319);
#317=LENGTH_MEASURE_WITH_UNIT(LENGTH_MEASURE(1.),#320);
#318=(
NAMED_UNIT(*)
SI_UNIT($,.STERADIAN.)
SOLID_ANGLE_UNIT()
);
#319=(
NAMED_UNIT(*)
PLANE_ANGLE_UNIT()
SI_UNIT($,.RADIAN.)
);
#320=(
LENGTH_UNIT()
NAMED_UNIT(*)
SI_UNIT(.MILLI.,.METRE.)
);
#321=DIMENSIONAL_EXPONENTS(1.,0.,0.,0.,0.,0.,0.);
#322=DIMENSIONAL_EXPONENTS(0.,0.,0.,0.,0.,0.,0.);
#323=PRODUCT_DEFINITION_FORMATION_WITH_SPECIFIED_SOURCE('','',#326,.NOT_KNOWN.
);
#324=PRODUCT_CATEGORY_RELATIONSHIP('','',#329,#325);
#325=PRODUCT_RELATED_PRODUCT_CATEGORY('assembly','',(#326));
#326=PRODUCT('','master','',(#327));
#327=PRODUCT_CONTEXT('',#331,'');
#328=PRODUCT_DEFINITION_CONTEXT('',#331,'part_definition');
#329=PRODUCT_CATEGORY('part','');
#330=APPLICATION_PROTOCOL_DEFINITION('international standard',
'automotive_design_cc2',1994,#331);
#331=APPLICATION_CONTEXT(
'configuration controlled 3D designs of mechanical parts and assemblies');
ENDSEC;
END-ISO-10303-21;
19039