ISO-10303-21;
HEADER;
/* Generated by software using Delcam plc STEP library */

FILE_DESCRIPTION(
/* description */ ('AP-214 File'),
/* implementation_level */ '2;1');

FILE_NAME(
/* name */ 'PLIN20',
/* time_stamp */ 'Fri Jan 05 10:35:27 2018',
/* author */ (''),
/* organization */ (''),
/* preprocessor_version */ 'DELCAM STEP V1',
/* originating_system */ 'Exchange7.1.0006',
/* authorisation */ '');

FILE_SCHEMA (('AUTOMOTIVE_DESIGN'));
ENDSEC;
DATA;
#10=PRESENTATION_STYLE_ASSIGNMENT((#20));
#11=PRESENTATION_STYLE_ASSIGNMENT((#21));
#12=SURFACE_SIDE_STYLE('',(#14));
#13=SURFACE_SIDE_STYLE('',(#15));
#14=SURFACE_STYLE_FILL_AREA(#16);
#15=SURFACE_STYLE_FILL_AREA(#17);
#16=FILL_AREA_STYLE('',(#18));
#17=FILL_AREA_STYLE('',(#19));
#18=FILL_AREA_STYLE_COLOUR('',#41);
#19=FILL_AREA_STYLE_COLOUR('',#42);
#20=SURFACE_STYLE_USAGE(.BOTH.,#12);
#21=SURFACE_STYLE_USAGE(.BOTH.,#13);
#22=STYLED_ITEM('',(#10),#59);
#23=STYLED_ITEM('',(#10),#60);
#24=STYLED_ITEM('',(#10),#61);
#25=STYLED_ITEM('',(#10),#62);
#26=STYLED_ITEM('',(#10),#63);
#27=STYLED_ITEM('',(#10),#64);
#28=STYLED_ITEM('',(#10),#65);
#29=STYLED_ITEM('',(#10),#66);
#30=STYLED_ITEM('',(#10),#67);
#31=STYLED_ITEM('',(#10),#68);
#32=STYLED_ITEM('',(#10),#69);
#33=STYLED_ITEM('',(#10),#70);
#34=STYLED_ITEM('',(#10),#71);
#35=STYLED_ITEM('',(#10),#72);
#36=STYLED_ITEM('',(#10),#73);
#37=STYLED_ITEM('',(#10),#74);
#38=STYLED_ITEM('',(#10),#75);
#39=STYLED_ITEM('',(#10),#76);
#40=STYLED_ITEM('',(#11),#48);
#41=COLOUR_RGB('',0.,0.,0.);
#42=COLOUR_RGB('rgb_colour_1',0.4,0.4,0.4);
#43=MECHANICAL_DESIGN_GEOMETRIC_PRESENTATION_REPRESENTATION('',(#22,#23,#24,
#25,#26,#27,#28,#29,#30,#31,#32,#33,#34,#35,#36,#37,#38,#39,#40),#621);
#44=PRESENTATION_LAYER_ASSIGNMENT('18',' _18',(#59,#60,#61,#62,#63,#64,#65,#66
,#67,#68,#69,#70,#71,#72,#73,#74,#75,#76,#48));
#45=SHAPE_REPRESENTATION_RELATIONSHIP('','',#374,#46);
#46=ADVANCED_BREP_SHAPE_REPRESENTATION('',(#47),#621);
#47=MANIFOLD_SOLID_BREP('945',#48);
#48=CLOSED_SHELL('',(#59,#60,#61,#62,#63,#64,#65,#66,#67,#68,#69,#70,#71,#72,
#73,#74,#75,#76));
#49=CYLINDRICAL_SURFACE('',#400,3.56574763393416);
#50=CYLINDRICAL_SURFACE('',#402,4.22973763844806);
#51=CYLINDRICAL_SURFACE('',#403,40.9873154128832);
#52=CYLINDRICAL_SURFACE('',#404,12.2081513570888);
#53=CYLINDRICAL_SURFACE('',#405,12.589310001099);
#54=CYLINDRICAL_SURFACE('',#406,7.50003132758209);
#55=CYLINDRICAL_SURFACE('',#407,11.0371979429406);
#56=CYLINDRICAL_SURFACE('',#409,2.43207511340941);
#57=CYLINDRICAL_SURFACE('',#410,6.43246126978765);
#58=CYLINDRICAL_SURFACE('',#411,7.00018203090296);
#59=ADVANCED_FACE('',(#77),#209,.F.);
#60=ADVANCED_FACE('',(#78),#210,.F.);
#61=ADVANCED_FACE('',(#79),#211,.F.);
#62=ADVANCED_FACE('',(#80),#212,.F.);
#63=ADVANCED_FACE('',(#81),#49,.T.);
#64=ADVANCED_FACE('',(#82),#213,.F.);
#65=ADVANCED_FACE('',(#83),#50,.F.);
#66=ADVANCED_FACE('',(#84),#51,.T.);
#67=ADVANCED_FACE('',(#85),#52,.T.);
#68=ADVANCED_FACE('',(#86),#53,.F.);
#69=ADVANCED_FACE('',(#87),#54,.F.);
#70=ADVANCED_FACE('',(#88),#55,.F.);
#71=ADVANCED_FACE('',(#89),#214,.F.);
#72=ADVANCED_FACE('',(#90),#56,.F.);
#73=ADVANCED_FACE('',(#91),#57,.T.);
#74=ADVANCED_FACE('',(#92),#58,.T.);
#75=ADVANCED_FACE('',(#93),#215,.T.);
#76=ADVANCED_FACE('',(#94),#216,.F.);
#77=FACE_OUTER_BOUND('',#95,.T.);
#78=FACE_OUTER_BOUND('',#96,.T.);
#79=FACE_OUTER_BOUND('',#97,.T.);
#80=FACE_OUTER_BOUND('',#98,.T.);
#81=FACE_OUTER_BOUND('',#99,.T.);
#82=FACE_OUTER_BOUND('',#100,.T.);
#83=FACE_OUTER_BOUND('',#101,.T.);
#84=FACE_OUTER_BOUND('',#102,.T.);
#85=FACE_OUTER_BOUND('',#103,.T.);
#86=FACE_OUTER_BOUND('',#104,.T.);
#87=FACE_OUTER_BOUND('',#105,.T.);
#88=FACE_OUTER_BOUND('',#106,.T.);
#89=FACE_OUTER_BOUND('',#107,.T.);
#90=FACE_OUTER_BOUND('',#108,.T.);
#91=FACE_OUTER_BOUND('',#109,.T.);
#92=FACE_OUTER_BOUND('',#110,.T.);
#93=FACE_OUTER_BOUND('',#111,.T.);
#94=FACE_OUTER_BOUND('',#112,.T.);
#95=EDGE_LOOP('',(#113,#114,#115,#116));
#96=EDGE_LOOP('',(#117,#118,#119,#120));
#97=EDGE_LOOP('',(#121,#122,#123,#124));
#98=EDGE_LOOP('',(#125,#126,#127,#128));
#99=EDGE_LOOP('',(#129,#130,#131,#132));
#100=EDGE_LOOP('',(#133,#134,#135,#136));
#101=EDGE_LOOP('',(#137,#138,#139,#140));
#102=EDGE_LOOP('',(#141,#142,#143,#144));
#103=EDGE_LOOP('',(#145,#146,#147,#148));
#104=EDGE_LOOP('',(#149,#150,#151,#152));
#105=EDGE_LOOP('',(#153,#154,#155,#156));
#106=EDGE_LOOP('',(#157,#158,#159,#160));
#107=EDGE_LOOP('',(#161,#162,#163,#164));
#108=EDGE_LOOP('',(#165,#166,#167,#168));
#109=EDGE_LOOP('',(#169,#170,#171,#172));
#110=EDGE_LOOP('',(#173,#174,#175,#176));
#111=EDGE_LOOP('',(#177,#178,#179,#180,#181,#182,#183,#184,#185,#186,#187,#188
,#189,#190,#191,#192));
#112=EDGE_LOOP('',(#193,#194,#195,#196,#197,#198,#199,#200,#201,#202,#203,#204
,#205,#206,#207,#208));
#113=ORIENTED_EDGE('',*,*,#284,.T.);
#114=ORIENTED_EDGE('',*,*,#237,.F.);
#115=ORIENTED_EDGE('',*,*,#268,.F.);
#116=ORIENTED_EDGE('',*,*,#252,.T.);
#117=ORIENTED_EDGE('',*,*,#283,.T.);
#118=ORIENTED_EDGE('',*,*,#238,.F.);
#119=ORIENTED_EDGE('',*,*,#267,.F.);
#120=ORIENTED_EDGE('',*,*,#237,.T.);
#121=ORIENTED_EDGE('',*,*,#282,.T.);
#122=ORIENTED_EDGE('',*,*,#239,.F.);
#123=ORIENTED_EDGE('',*,*,#266,.F.);
#124=ORIENTED_EDGE('',*,*,#238,.T.);
#125=ORIENTED_EDGE('',*,*,#281,.T.);
#126=ORIENTED_EDGE('',*,*,#240,.F.);
#127=ORIENTED_EDGE('',*,*,#265,.F.);
#128=ORIENTED_EDGE('',*,*,#239,.T.);
#129=ORIENTED_EDGE('',*,*,#280,.T.);
#130=ORIENTED_EDGE('',*,*,#241,.F.);
#131=ORIENTED_EDGE('',*,*,#264,.F.);
#132=ORIENTED_EDGE('',*,*,#240,.T.);
#133=ORIENTED_EDGE('',*,*,#279,.T.);
#134=ORIENTED_EDGE('',*,*,#242,.F.);
#135=ORIENTED_EDGE('',*,*,#263,.F.);
#136=ORIENTED_EDGE('',*,*,#241,.T.);
#137=ORIENTED_EDGE('',*,*,#278,.T.);
#138=ORIENTED_EDGE('',*,*,#243,.F.);
#139=ORIENTED_EDGE('',*,*,#262,.F.);
#140=ORIENTED_EDGE('',*,*,#242,.T.);
#141=ORIENTED_EDGE('',*,*,#277,.T.);
#142=ORIENTED_EDGE('',*,*,#244,.F.);
#143=ORIENTED_EDGE('',*,*,#261,.F.);
#144=ORIENTED_EDGE('',*,*,#243,.T.);
#145=ORIENTED_EDGE('',*,*,#276,.T.);
#146=ORIENTED_EDGE('',*,*,#245,.F.);
#147=ORIENTED_EDGE('',*,*,#260,.F.);
#148=ORIENTED_EDGE('',*,*,#244,.T.);
#149=ORIENTED_EDGE('',*,*,#275,.T.);
#150=ORIENTED_EDGE('',*,*,#246,.F.);
#151=ORIENTED_EDGE('',*,*,#259,.F.);
#152=ORIENTED_EDGE('',*,*,#245,.T.);
#153=ORIENTED_EDGE('',*,*,#274,.T.);
#154=ORIENTED_EDGE('',*,*,#247,.F.);
#155=ORIENTED_EDGE('',*,*,#258,.F.);
#156=ORIENTED_EDGE('',*,*,#246,.T.);
#157=ORIENTED_EDGE('',*,*,#273,.T.);
#158=ORIENTED_EDGE('',*,*,#248,.F.);
#159=ORIENTED_EDGE('',*,*,#257,.F.);
#160=ORIENTED_EDGE('',*,*,#247,.T.);
#161=ORIENTED_EDGE('',*,*,#272,.T.);
#162=ORIENTED_EDGE('',*,*,#249,.F.);
#163=ORIENTED_EDGE('',*,*,#256,.F.);
#164=ORIENTED_EDGE('',*,*,#248,.T.);
#165=ORIENTED_EDGE('',*,*,#271,.T.);
#166=ORIENTED_EDGE('',*,*,#250,.F.);
#167=ORIENTED_EDGE('',*,*,#255,.F.);
#168=ORIENTED_EDGE('',*,*,#249,.T.);
#169=ORIENTED_EDGE('',*,*,#270,.T.);
#170=ORIENTED_EDGE('',*,*,#251,.F.);
#171=ORIENTED_EDGE('',*,*,#254,.F.);
#172=ORIENTED_EDGE('',*,*,#250,.T.);
#173=ORIENTED_EDGE('',*,*,#269,.T.);
#174=ORIENTED_EDGE('',*,*,#252,.F.);
#175=ORIENTED_EDGE('',*,*,#253,.F.);
#176=ORIENTED_EDGE('',*,*,#251,.T.);
#177=ORIENTED_EDGE('',*,*,#268,.T.);
#178=ORIENTED_EDGE('',*,*,#267,.T.);
#179=ORIENTED_EDGE('',*,*,#266,.T.);
#180=ORIENTED_EDGE('',*,*,#265,.T.);
#181=ORIENTED_EDGE('',*,*,#264,.T.);
#182=ORIENTED_EDGE('',*,*,#263,.T.);
#183=ORIENTED_EDGE('',*,*,#262,.T.);
#184=ORIENTED_EDGE('',*,*,#261,.T.);
#185=ORIENTED_EDGE('',*,*,#260,.T.);
#186=ORIENTED_EDGE('',*,*,#259,.T.);
#187=ORIENTED_EDGE('',*,*,#258,.T.);
#188=ORIENTED_EDGE('',*,*,#257,.T.);
#189=ORIENTED_EDGE('',*,*,#256,.T.);
#190=ORIENTED_EDGE('',*,*,#255,.T.);
#191=ORIENTED_EDGE('',*,*,#254,.T.);
#192=ORIENTED_EDGE('',*,*,#253,.T.);
#193=ORIENTED_EDGE('',*,*,#284,.F.);
#194=ORIENTED_EDGE('',*,*,#269,.F.);
#195=ORIENTED_EDGE('',*,*,#270,.F.);
#196=ORIENTED_EDGE('',*,*,#271,.F.);
#197=ORIENTED_EDGE('',*,*,#272,.F.);
#198=ORIENTED_EDGE('',*,*,#273,.F.);
#199=ORIENTED_EDGE('',*,*,#274,.F.);
#200=ORIENTED_EDGE('',*,*,#275,.F.);
#201=ORIENTED_EDGE('',*,*,#276,.F.);
#202=ORIENTED_EDGE('',*,*,#277,.F.);
#203=ORIENTED_EDGE('',*,*,#278,.F.);
#204=ORIENTED_EDGE('',*,*,#279,.F.);
#205=ORIENTED_EDGE('',*,*,#280,.F.);
#206=ORIENTED_EDGE('',*,*,#281,.F.);
#207=ORIENTED_EDGE('',*,*,#282,.F.);
#208=ORIENTED_EDGE('',*,*,#283,.F.);
#209=PLANE('',#396);
#210=PLANE('',#397);
#211=PLANE('',#398);
#212=PLANE('',#399);
#213=PLANE('',#401);
#214=PLANE('',#408);
#215=PLANE('',#412);
#216=PLANE('',#413);
#217=CIRCLE('',#376,7.00018203090296);
#218=CIRCLE('',#377,6.43246126978765);
#219=CIRCLE('',#378,2.43207511340941);
#220=CIRCLE('',#379,11.0371979429406);
#221=CIRCLE('',#380,7.50003132758209);
#222=CIRCLE('',#381,12.589310001099);
#223=CIRCLE('',#382,12.2081513570888);
#224=CIRCLE('',#383,40.9873154128832);
#225=CIRCLE('',#384,4.22973763844806);
#226=CIRCLE('',#385,3.56574763393416);
#227=CIRCLE('',#386,7.00018203090296);
#228=CIRCLE('',#387,6.43246126978765);
#229=CIRCLE('',#388,2.43207511340941);
#230=CIRCLE('',#389,11.0371979429406);
#231=CIRCLE('',#390,7.50003132758209);
#232=CIRCLE('',#391,12.589310001099);
#233=CIRCLE('',#392,12.2081513570888);
#234=CIRCLE('',#393,40.9873154128832);
#235=CIRCLE('',#394,4.22973763844806);
#236=CIRCLE('',#395,3.56574763393416);
#237=EDGE_CURVE('',#356,#372,#285,.T.);
#238=EDGE_CURVE('',#355,#371,#286,.T.);
#239=EDGE_CURVE('',#354,#370,#287,.T.);
#240=EDGE_CURVE('',#353,#369,#288,.T.);
#241=EDGE_CURVE('',#352,#368,#289,.T.);
#242=EDGE_CURVE('',#351,#367,#290,.T.);
#243=EDGE_CURVE('',#350,#366,#291,.T.);
#244=EDGE_CURVE('',#349,#365,#292,.T.);
#245=EDGE_CURVE('',#348,#364,#293,.T.);
#246=EDGE_CURVE('',#347,#363,#294,.T.);
#247=EDGE_CURVE('',#346,#362,#295,.T.);
#248=EDGE_CURVE('',#345,#361,#296,.T.);
#249=EDGE_CURVE('',#344,#360,#297,.T.);
#250=EDGE_CURVE('',#343,#359,#298,.T.);
#251=EDGE_CURVE('',#342,#358,#299,.T.);
#252=EDGE_CURVE('',#341,#357,#300,.T.);
#253=EDGE_CURVE('',#342,#341,#217,.T.);
#254=EDGE_CURVE('',#343,#342,#218,.T.);
#255=EDGE_CURVE('',#344,#343,#219,.T.);
#256=EDGE_CURVE('',#345,#344,#301,.T.);
#257=EDGE_CURVE('',#346,#345,#220,.T.);
#258=EDGE_CURVE('',#347,#346,#221,.T.);
#259=EDGE_CURVE('',#348,#347,#222,.T.);
#260=EDGE_CURVE('',#349,#348,#223,.T.);
#261=EDGE_CURVE('',#350,#349,#224,.T.);
#262=EDGE_CURVE('',#351,#350,#225,.T.);
#263=EDGE_CURVE('',#352,#351,#302,.T.);
#264=EDGE_CURVE('',#353,#352,#226,.T.);
#265=EDGE_CURVE('',#354,#353,#303,.T.);
#266=EDGE_CURVE('',#355,#354,#304,.T.);
#267=EDGE_CURVE('',#356,#355,#305,.T.);
#268=EDGE_CURVE('',#341,#356,#306,.T.);
#269=EDGE_CURVE('',#358,#357,#227,.T.);
#270=EDGE_CURVE('',#359,#358,#228,.T.);
#271=EDGE_CURVE('',#360,#359,#229,.T.);
#272=EDGE_CURVE('',#361,#360,#307,.T.);
#273=EDGE_CURVE('',#362,#361,#230,.T.);
#274=EDGE_CURVE('',#363,#362,#231,.T.);
#275=EDGE_CURVE('',#364,#363,#232,.T.);
#276=EDGE_CURVE('',#365,#364,#233,.T.);
#277=EDGE_CURVE('',#366,#365,#234,.T.);
#278=EDGE_CURVE('',#367,#366,#235,.T.);
#279=EDGE_CURVE('',#368,#367,#308,.T.);
#280=EDGE_CURVE('',#369,#368,#236,.T.);
#281=EDGE_CURVE('',#370,#369,#309,.T.);
#282=EDGE_CURVE('',#371,#370,#310,.T.);
#283=EDGE_CURVE('',#372,#371,#311,.T.);
#284=EDGE_CURVE('',#357,#372,#312,.T.);
#285=LINE('',#553,#313);
#286=LINE('',#554,#314);
#287=LINE('',#555,#315);
#288=LINE('',#556,#316);
#289=LINE('',#557,#317);
#290=LINE('',#558,#318);
#291=LINE('',#559,#319);
#292=LINE('',#560,#320);
#293=LINE('',#561,#321);
#294=LINE('',#562,#322);
#295=LINE('',#563,#323);
#296=LINE('',#564,#324);
#297=LINE('',#565,#325);
#298=LINE('',#566,#326);
#299=LINE('',#567,#327);
#300=LINE('',#568,#328);
#301=LINE('',#572,#329);
#302=LINE('',#579,#330);
#303=LINE('',#581,#331);
#304=LINE('',#582,#332);
#305=LINE('',#583,#333);
#306=LINE('',#584,#334);
#307=LINE('',#588,#335);
#308=LINE('',#595,#336);
#309=LINE('',#597,#337);
#310=LINE('',#598,#338);
#311=LINE('',#599,#339);
#312=LINE('',#600,#340);
#313=VECTOR('',#416,1.);
#314=VECTOR('',#417,1.);
#315=VECTOR('',#418,1.);
#316=VECTOR('',#419,1.);
#317=VECTOR('',#420,1.);
#318=VECTOR('',#421,1.);
#319=VECTOR('',#422,1.);
#320=VECTOR('',#423,1.);
#321=VECTOR('',#424,1.);
#322=VECTOR('',#425,1.);
#323=VECTOR('',#426,1.);
#324=VECTOR('',#427,1.);
#325=VECTOR('',#428,1.);
#326=VECTOR('',#429,1.);
#327=VECTOR('',#430,1.);
#328=VECTOR('',#431,1.);
#329=VECTOR('',#438,1.);
#330=VECTOR('',#451,1.);
#331=VECTOR('',#454,1.);
#332=VECTOR('',#455,1.);
#333=VECTOR('',#456,1.);
#334=VECTOR('',#457,1.);
#335=VECTOR('',#464,1.);
#336=VECTOR('',#477,1.);
#337=VECTOR('',#480,1.);
#338=VECTOR('',#481,1.);
#339=VECTOR('',#482,1.);
#340=VECTOR('',#483,1.);
#341=VERTEX_POINT('',#521);
#342=VERTEX_POINT('',#522);
#343=VERTEX_POINT('',#523);
#344=VERTEX_POINT('',#524);
#345=VERTEX_POINT('',#525);
#346=VERTEX_POINT('',#526);
#347=VERTEX_POINT('',#527);
#348=VERTEX_POINT('',#528);
#349=VERTEX_POINT('',#529);
#350=VERTEX_POINT('',#530);
#351=VERTEX_POINT('',#531);
#352=VERTEX_POINT('',#532);
#353=VERTEX_POINT('',#533);
#354=VERTEX_POINT('',#534);
#355=VERTEX_POINT('',#535);
#356=VERTEX_POINT('',#536);
#357=VERTEX_POINT('',#537);
#358=VERTEX_POINT('',#538);
#359=VERTEX_POINT('',#539);
#360=VERTEX_POINT('',#540);
#361=VERTEX_POINT('',#541);
#362=VERTEX_POINT('',#542);
#363=VERTEX_POINT('',#543);
#364=VERTEX_POINT('',#544);
#365=VERTEX_POINT('',#545);
#366=VERTEX_POINT('',#546);
#367=VERTEX_POINT('',#547);
#368=VERTEX_POINT('',#548);
#369=VERTEX_POINT('',#549);
#370=VERTEX_POINT('',#550);
#371=VERTEX_POINT('',#551);
#372=VERTEX_POINT('',#552);
#373=SHAPE_DEFINITION_REPRESENTATION(#619,#374);
#374=SHAPE_REPRESENTATION('master',(#375),#621);
#375=AXIS2_PLACEMENT_3D('',#520,#415,#414);
#376=AXIS2_PLACEMENT_3D('',#569,#433,#432);
#377=AXIS2_PLACEMENT_3D('',#570,#435,#434);
#378=AXIS2_PLACEMENT_3D('',#571,#437,#436);
#379=AXIS2_PLACEMENT_3D('',#573,#440,#439);
#380=AXIS2_PLACEMENT_3D('',#574,#442,#441);
#381=AXIS2_PLACEMENT_3D('',#575,#444,#443);
#382=AXIS2_PLACEMENT_3D('',#576,#446,#445);
#383=AXIS2_PLACEMENT_3D('',#577,#448,#447);
#384=AXIS2_PLACEMENT_3D('',#578,#450,#449);
#385=AXIS2_PLACEMENT_3D('',#580,#453,#452);
#386=AXIS2_PLACEMENT_3D('',#585,#459,#458);
#387=AXIS2_PLACEMENT_3D('',#586,#461,#460);
#388=AXIS2_PLACEMENT_3D('',#587,#463,#462);
#389=AXIS2_PLACEMENT_3D('',#589,#466,#465);
#390=AXIS2_PLACEMENT_3D('',#590,#468,#467);
#391=AXIS2_PLACEMENT_3D('',#591,#470,#469);
#392=AXIS2_PLACEMENT_3D('',#592,#472,#471);
#393=AXIS2_PLACEMENT_3D('',#593,#474,#473);
#394=AXIS2_PLACEMENT_3D('',#594,#476,#475);
#395=AXIS2_PLACEMENT_3D('',#596,#479,#478);
#396=AXIS2_PLACEMENT_3D('',#601,#485,#484);
#397=AXIS2_PLACEMENT_3D('',#602,#487,#486);
#398=AXIS2_PLACEMENT_3D('',#603,#489,#488);
#399=AXIS2_PLACEMENT_3D('',#604,#491,#490);
#400=AXIS2_PLACEMENT_3D('',#605,#493,#492);
#401=AXIS2_PLACEMENT_3D('',#606,#495,#494);
#402=AXIS2_PLACEMENT_3D('',#607,#497,#496);
#403=AXIS2_PLACEMENT_3D('',#608,#499,#498);
#404=AXIS2_PLACEMENT_3D('',#609,#501,#500);
#405=AXIS2_PLACEMENT_3D('',#610,#503,#502);
#406=AXIS2_PLACEMENT_3D('',#611,#505,#504);
#407=AXIS2_PLACEMENT_3D('',#612,#507,#506);
#408=AXIS2_PLACEMENT_3D('',#613,#509,#508);
#409=AXIS2_PLACEMENT_3D('',#614,#511,#510);
#410=AXIS2_PLACEMENT_3D('',#615,#513,#512);
#411=AXIS2_PLACEMENT_3D('',#616,#515,#514);
#412=AXIS2_PLACEMENT_3D('',#617,#517,#516);
#413=AXIS2_PLACEMENT_3D('',#618,#519,#518);
#414=DIRECTION('',(1.,0.,0.));
#415=DIRECTION('',(0.,0.,1.));
#416=DIRECTION('',(-0.,1.,-6.12323399573676E-017));
#417=DIRECTION('',(-0.,1.,-6.12323399573676E-017));
#418=DIRECTION('',(-0.,1.,-6.12323399573676E-017));
#419=DIRECTION('',(-0.,1.,-6.12323399573676E-017));
#420=DIRECTION('',(-0.,1.,-6.12323399573676E-017));
#421=DIRECTION('',(-0.,1.,-6.12323399573676E-017));
#422=DIRECTION('',(-0.,1.,-6.12323399573676E-017));
#423=DIRECTION('',(-0.,1.,-6.12323399573676E-017));
#424=DIRECTION('',(-0.,1.,-6.12323399573676E-017));
#425=DIRECTION('',(-0.,1.,-6.12323399573676E-017));
#426=DIRECTION('',(-0.,1.,-6.12323399573676E-017));
#427=DIRECTION('',(-0.,1.,-6.12323399573676E-017));
#428=DIRECTION('',(-0.,1.,-6.12323399573676E-017));
#429=DIRECTION('',(-0.,1.,-6.12323399573676E-017));
#430=DIRECTION('',(-0.,1.,-6.12323399573676E-017));
#431=DIRECTION('',(-0.,1.,-6.12323399573676E-017));
#432=DIRECTION('',(0.911204699090935,0.,0.411953876489345));
#433=DIRECTION('',(0.,-1.,0.));
#434=DIRECTION('',(0.737219114336282,0.,-0.675653740800144));
#435=DIRECTION('',(0.,-1.,0.));
#436=DIRECTION('',(-0.851658281470533,0.,-0.524097482919598));
#437=DIRECTION('',(0.,1.,0.));
#438=DIRECTION('',(-0.524097482919667,0.,0.851658281470491));
#439=DIRECTION('',(-0.969035027405591,0.,-0.246923299145798));
#440=DIRECTION('',(0.,1.,0.));
#441=DIRECTION('',(-0.9045908309399,0.,-0.426280926830489));
#442=DIRECTION('',(0.,1.,0.));
#443=DIRECTION('',(-0.767448204466842,0.,-0.641110952535223));
#444=DIRECTION('',(0.,1.,0.));
#445=DIRECTION('',(0.986526116886108,0.,-0.163603852954681));
#446=DIRECTION('',(0.,-1.,0.));
#447=DIRECTION('',(0.957451592331507,0.,-0.288593915982062));
#448=DIRECTION('',(0.,-1.,0.));
#449=DIRECTION('',(-0.859984405383638,0.,-0.510320313623661));
#450=DIRECTION('',(0.,1.,0.));
#451=DIRECTION('',(-0.510320313623366,-0.,0.859984405383812));
#452=DIRECTION('',(0.99999532620165,0.,-0.00305738039098598));
#453=DIRECTION('',(0.,-1.,0.));
#454=DIRECTION('',(0.00305738039097687,0.,0.99999532620165));
#455=DIRECTION('',(0.998200311414691,0.,0.059967810462073));
#456=DIRECTION('',(0.,0.,-1.));
#457=DIRECTION('',(-0.944677912699403,-0.,0.327999453136585));
#458=DIRECTION('',(0.911204699090935,0.,0.411953876489345));
#459=DIRECTION('',(0.,-1.,0.));
#460=DIRECTION('',(0.737219114336282,0.,-0.675653740800144));
#461=DIRECTION('',(0.,-1.,0.));
#462=DIRECTION('',(-0.851658281470533,0.,-0.524097482919598));
#463=DIRECTION('',(0.,1.,0.));
#464=DIRECTION('',(-0.524097482919667,0.,0.851658281470491));
#465=DIRECTION('',(-0.969035027405591,0.,-0.246923299145798));
#466=DIRECTION('',(0.,1.,0.));
#467=DIRECTION('',(-0.9045908309399,0.,-0.426280926830489));
#468=DIRECTION('',(0.,1.,0.));
#469=DIRECTION('',(-0.767448204466842,0.,-0.641110952535223));
#470=DIRECTION('',(0.,1.,0.));
#471=DIRECTION('',(0.986526116886108,0.,-0.163603852954681));
#472=DIRECTION('',(0.,-1.,0.));
#473=DIRECTION('',(0.957451592331507,0.,-0.288593915982062));
#474=DIRECTION('',(0.,-1.,0.));
#475=DIRECTION('',(-0.859984405383638,0.,-0.510320313623661));
#476=DIRECTION('',(0.,1.,0.));
#477=DIRECTION('',(-0.510320313623366,-0.,0.859984405383812));
#478=DIRECTION('',(0.99999532620165,0.,-0.00305738039098598));
#479=DIRECTION('',(0.,-1.,0.));
#480=DIRECTION('',(0.00305738039097687,0.,0.99999532620165));
#481=DIRECTION('',(0.998200311414691,0.,0.059967810462073));
#482=DIRECTION('',(0.,0.,-1.));
#483=DIRECTION('',(-0.944677912699403,-0.,0.327999453136585));
#484=DIRECTION('',(-0.944677912699403,0.,0.327999453136585));
#485=DIRECTION('',(-0.327999453136585,-5.78448391006263E-017,
-0.944677912699403));
#486=DIRECTION('',(0.,0.,-1.));
#487=DIRECTION('',(1.,0.,0.));
#488=DIRECTION('',(0.99820031141469,0.,0.059967810462073));
#489=DIRECTION('',(-0.059967810462073,6.11221408140946E-017,0.99820031141469)
);
#490=DIRECTION('',(0.00305738039097687,0.,0.99999532620165));
#491=DIRECTION('',(-0.99999532620165,1.87210555479285E-019,0.00305738039097687
));
#492=DIRECTION('',(0.,6.12323399573676E-017,1.));
#493=DIRECTION('',(-0.,1.,-6.12323399573676E-017));
#494=DIRECTION('',(-0.510320313623366,-1.54074395550979E-033,0.859984405383812
));
#495=DIRECTION('',(-0.859984405383812,-3.12481069309365E-017,
-0.510320313623366));
#496=DIRECTION('',(0.,6.12323399573676E-017,1.));
#497=DIRECTION('',(-0.,1.,-6.12323399573676E-017));
#498=DIRECTION('',(0.,6.12323399573676E-017,1.));
#499=DIRECTION('',(-0.,1.,-6.12323399573676E-017));
#500=DIRECTION('',(0.,6.12323399573676E-017,1.));
#501=DIRECTION('',(-0.,1.,-6.12323399573676E-017));
#502=DIRECTION('',(0.,6.12323399573676E-017,1.));
#503=DIRECTION('',(-0.,1.,-6.12323399573676E-017));
#504=DIRECTION('',(0.,6.12323399573676E-017,1.));
#505=DIRECTION('',(-0.,1.,-6.12323399573676E-017));
#506=DIRECTION('',(0.,6.12323399573676E-017,1.));
#507=DIRECTION('',(-0.,1.,-6.12323399573676E-017));
#508=DIRECTION('',(-0.524097482919667,-3.08148791101958E-033,0.851658281470491
));
#509=DIRECTION('',(-0.851658281470491,-3.20917152449377E-017,
-0.524097482919667));
#510=DIRECTION('',(0.,6.12323399573676E-017,1.));
#511=DIRECTION('',(-0.,1.,-6.12323399573676E-017));
#512=DIRECTION('',(0.,6.12323399573676E-017,1.));
#513=DIRECTION('',(-0.,1.,-6.12323399573676E-017));
#514=DIRECTION('',(0.,6.12323399573676E-017,1.));
#515=DIRECTION('',(-0.,1.,-6.12323399573676E-017));
#516=DIRECTION('',(0.,0.,-1.));
#517=DIRECTION('',(0.,-1.,0.));
#518=DIRECTION('',(0.,0.,-1.));
#519=DIRECTION('',(0.,-1.,0.));
#520=CARTESIAN_POINT('',(0.,0.,0.));
#521=CARTESIAN_POINT('',(-1301.44042713145,1613.080826,1704.28359258083));
#522=CARTESIAN_POINT('',(-1297.35788424839,1613.080826,1700.55442735512));
#523=CARTESIAN_POINT('',(-1298.47703978383,1613.080826,1693.55843348018));
#524=CARTESIAN_POINT('',(-1298.75536443422,1613.080826,1690.64054838669));
#525=CARTESIAN_POINT('',(-1296.95300700125,1613.080826,1687.71171799926));
#526=CARTESIAN_POINT('',(-1296.97627878718,1613.080826,1682.17128388878));
#527=CARTESIAN_POINT('',(-1296.49294529481,1613.080826,1680.8260960623));
#528=CARTESIAN_POINT('',(-1294.76641425578,1613.080826,1678.12153427117));
#529=CARTESIAN_POINT('',(-1292.09187794197,1613.080826,1668.29745412646));
#530=CARTESIAN_POINT('',(-1293.28356465037,1613.080826,1663.17444698969));
#531=CARTESIAN_POINT('',(-1292.87130402122,1613.080826,1659.79524940284));
#532=CARTESIAN_POINT('',(-1290.76644188174,1613.080826,1656.24816619428));
#533=CARTESIAN_POINT('',(-1290.26719827211,1613.080826,1654.41759089654));
#534=CARTESIAN_POINT('',(-1290.736102,1613.080826,1501.0505));
#535=CARTESIAN_POINT('',(-1308.222307,1613.080826,1500.));
#536=CARTESIAN_POINT('',(-1308.222307,1613.080826,1706.63831354786));
#537=CARTESIAN_POINT('',(-1301.44042713145,3113.080826,1704.28359258083));
#538=CARTESIAN_POINT('',(-1297.35788424839,3113.080826,1700.55442735512));
#539=CARTESIAN_POINT('',(-1298.47703978383,3113.080826,1693.55843348018));
#540=CARTESIAN_POINT('',(-1298.75536443422,3113.080826,1690.64054838669));
#541=CARTESIAN_POINT('',(-1296.95300700125,3113.080826,1687.71171799926));
#542=CARTESIAN_POINT('',(-1296.97627878718,3113.080826,1682.17128388878));
#543=CARTESIAN_POINT('',(-1296.49294529481,3113.080826,1680.8260960623));
#544=CARTESIAN_POINT('',(-1294.76641425578,3113.080826,1678.12153427117));
#545=CARTESIAN_POINT('',(-1292.09187794197,3113.080826,1668.29745412646));
#546=CARTESIAN_POINT('',(-1293.28356465037,3113.080826,1663.17444698969));
#547=CARTESIAN_POINT('',(-1292.87130402122,3113.080826,1659.79524940284));
#548=CARTESIAN_POINT('',(-1290.76644188174,3113.080826,1656.24816619428));
#549=CARTESIAN_POINT('',(-1290.26719827211,3113.080826,1654.41759089654));
#550=CARTESIAN_POINT('',(-1290.736102,3113.080826,1501.0505));
#551=CARTESIAN_POINT('',(-1308.222307,3113.080826,1500.));
#552=CARTESIAN_POINT('',(-1308.222307,3113.080826,1706.63831354786));
#553=CARTESIAN_POINT('',(-1308.222307,1613.080826,1706.63831354786));
#554=CARTESIAN_POINT('',(-1308.222307,1613.080826,1500.));
#555=CARTESIAN_POINT('',(-1290.736102,1613.080826,1501.0505));
#556=CARTESIAN_POINT('',(-1290.26719827211,1613.080826,1654.41759089654));
#557=CARTESIAN_POINT('',(-1290.76644188174,1613.080826,1656.24816619428));
#558=CARTESIAN_POINT('',(-1292.87130402122,1613.080826,1659.79524940284));
#559=CARTESIAN_POINT('',(-1293.28356465037,1613.080826,1663.17444698969));
#560=CARTESIAN_POINT('',(-1292.09187794197,1613.080826,1668.29745412646));
#561=CARTESIAN_POINT('',(-1294.76641425578,1613.080826,1678.12153427117));
#562=CARTESIAN_POINT('',(-1296.49294529481,1613.080826,1680.8260960623));
#563=CARTESIAN_POINT('',(-1296.97627878718,1613.080826,1682.17128388878));
#564=CARTESIAN_POINT('',(-1296.95300700125,1613.080826,1687.71171799926));
#565=CARTESIAN_POINT('',(-1298.75536443422,1613.080826,1690.64054838669));
#566=CARTESIAN_POINT('',(-1298.47703978383,1613.080826,1693.55843348018));
#567=CARTESIAN_POINT('',(-1297.35788424839,1613.080826,1700.55442735512));
#568=CARTESIAN_POINT('',(-1301.44042713145,1613.080826,1704.28359258083));
#569=CARTESIAN_POINT('',(-1303.73648300945,1613.080826,1697.67067523136));
#570=CARTESIAN_POINT('',(-1303.21917318415,1613.080826,1697.90454999967));
#571=CARTESIAN_POINT('',(-1296.68406752272,1613.080826,1691.9151928319));
#572=CARTESIAN_POINT('',(-1296.95300700125,1613.080826,1687.71171799926));
#573=CARTESIAN_POINT('',(-1286.28084737606,1613.080826,1684.89662521817));
#574=CARTESIAN_POINT('',(-1289.70848572412,1613.080826,1684.02321636788));
#575=CARTESIAN_POINT('',(-1285.10477089996,1613.080826,1686.19267879774));
#576=CARTESIAN_POINT('',(-1304.13553809464,1613.080826,1670.29475472594));
#577=CARTESIAN_POINT('',(-1332.52693505783,1613.080826,1675.00313685029));
#578=CARTESIAN_POINT('',(-1289.23379561329,1613.080826,1661.95377044104));
#579=CARTESIAN_POINT('',(-1290.76644188174,1613.080826,1656.24816619428));
#580=CARTESIAN_POINT('',(-1293.83292924046,1613.080826,1654.42849274343));
#581=CARTESIAN_POINT('',(-1290.736102,1613.080826,1501.0505));
#582=CARTESIAN_POINT('',(-1308.222307,1613.080826,1500.));
#583=CARTESIAN_POINT('',(-1308.222307,1613.080826,1706.63831354786));
#584=CARTESIAN_POINT('',(-1301.44042713145,1613.080826,1704.28359258083));
#585=CARTESIAN_POINT('',(-1303.73648300945,3113.080826,1697.67067523136));
#586=CARTESIAN_POINT('',(-1303.21917318415,3113.080826,1697.90454999967));
#587=CARTESIAN_POINT('',(-1296.68406752272,3113.080826,1691.9151928319));
#588=CARTESIAN_POINT('',(-1296.95300700125,3113.080826,1687.71171799926));
#589=CARTESIAN_POINT('',(-1286.28084737606,3113.080826,1684.89662521817));
#590=CARTESIAN_POINT('',(-1289.70848572412,3113.080826,1684.02321636788));
#591=CARTESIAN_POINT('',(-1285.10477089996,3113.080826,1686.19267879774));
#592=CARTESIAN_POINT('',(-1304.13553809464,3113.080826,1670.29475472594));
#593=CARTESIAN_POINT('',(-1332.52693505783,3113.080826,1675.00313685029));
#594=CARTESIAN_POINT('',(-1289.23379561329,3113.080826,1661.95377044104));
#595=CARTESIAN_POINT('',(-1290.76644188174,3113.080826,1656.24816619428));
#596=CARTESIAN_POINT('',(-1293.83292924046,3113.080826,1654.42849274343));
#597=CARTESIAN_POINT('',(-1290.736102,3113.080826,1501.0505));
#598=CARTESIAN_POINT('',(-1308.222307,3113.080826,1500.));
#599=CARTESIAN_POINT('',(-1308.222307,3113.080826,1706.63831354786));
#600=CARTESIAN_POINT('',(-1301.44042713145,3113.080826,1704.28359258083));
#601=CARTESIAN_POINT('',(-1301.44042713145,1613.080826,1704.28359258083));
#602=CARTESIAN_POINT('',(-1308.222307,1613.080826,1706.63831354786));
#603=CARTESIAN_POINT('',(-1308.222307,1613.080826,1500.));
#604=CARTESIAN_POINT('',(-1290.736102,1613.080826,1501.0505));
#605=CARTESIAN_POINT('',(-1293.83292924046,1613.080826,1654.42849274343));
#606=CARTESIAN_POINT('',(-1290.76644188174,1613.080826,1656.24816619428));
#607=CARTESIAN_POINT('',(-1289.23379561329,1613.080826,1661.95377044104));
#608=CARTESIAN_POINT('',(-1332.52693505783,1613.080826,1675.00313685029));
#609=CARTESIAN_POINT('',(-1304.13553809464,1613.080826,1670.29475472594));
#610=CARTESIAN_POINT('',(-1285.10477089996,1613.080826,1686.19267879774));
#611=CARTESIAN_POINT('',(-1289.70848572412,1613.080826,1684.02321636788));
#612=CARTESIAN_POINT('',(-1286.28084737606,1613.080826,1684.89662521817));
#613=CARTESIAN_POINT('',(-1296.95300700125,1613.080826,1687.71171799926));
#614=CARTESIAN_POINT('',(-1296.68406752272,1613.080826,1691.9151928319));
#615=CARTESIAN_POINT('',(-1303.21917318415,1613.080826,1697.90454999967));
#616=CARTESIAN_POINT('',(-1303.73648300945,1613.080826,1697.67067523136));
#617=CARTESIAN_POINT('',(-1293.83292924046,1613.080826,1654.42849274343));
#618=CARTESIAN_POINT('',(-1293.83292924046,3113.080826,1654.42849274343));
#619=PRODUCT_DEFINITION_SHAPE('','',#620);
#620=PRODUCT_DEFINITION('','',#632,#637);
#621=(
GEOMETRIC_REPRESENTATION_CONTEXT(3)
GLOBAL_UNCERTAINTY_ASSIGNED_CONTEXT((#622))
GLOBAL_UNIT_ASSIGNED_CONTEXT((#624,#623,#627))
REPRESENTATION_CONTEXT('','')
);
#622=UNCERTAINTY_MEASURE_WITH_UNIT(LENGTH_MEASURE(0.001),#624,'','tolerance');
#623=(
CONVERSION_BASED_UNIT('',#625)
NAMED_UNIT(#631)
PLANE_ANGLE_UNIT()
);
#624=(
CONVERSION_BASED_UNIT('',#626)
LENGTH_UNIT()
NAMED_UNIT(#630)
);
#625=PLANE_ANGLE_MEASURE_WITH_UNIT(PLANE_ANGLE_MEASURE(0.0174532925199433),
#628);
#626=LENGTH_MEASURE_WITH_UNIT(LENGTH_MEASURE(1.),#629);
#627=(
NAMED_UNIT(*)
SI_UNIT($,.STERADIAN.)
SOLID_ANGLE_UNIT()
);
#628=(
NAMED_UNIT(*)
PLANE_ANGLE_UNIT()
SI_UNIT($,.RADIAN.)
);
#629=(
LENGTH_UNIT()
NAMED_UNIT(*)
SI_UNIT(.MILLI.,.METRE.)
);
#630=DIMENSIONAL_EXPONENTS(1.,0.,0.,0.,0.,0.,0.);
#631=DIMENSIONAL_EXPONENTS(0.,0.,0.,0.,0.,0.,0.);
#632=PRODUCT_DEFINITION_FORMATION_WITH_SPECIFIED_SOURCE('','',#635,.NOT_KNOWN.
);
#633=PRODUCT_CATEGORY_RELATIONSHIP('','',#638,#634);
#634=PRODUCT_RELATED_PRODUCT_CATEGORY('assembly','',(#635));
#635=PRODUCT('','master','',(#636));
#636=PRODUCT_CONTEXT('',#640,'');
#637=PRODUCT_DEFINITION_CONTEXT('',#640,'part_definition');
#638=PRODUCT_CATEGORY('part','');
#639=APPLICATION_PROTOCOL_DEFINITION('international standard',
'automotive_design_cc2',1994,#640);
#640=APPLICATION_CONTEXT(
'configuration controlled 3D designs of mechanical parts and assemblies');
ENDSEC;
END-ISO-10303-21;
30084