ISO-10303-21;
HEADER;
/* Generated by software using Delcam plc STEP library */

FILE_DESCRIPTION(
/* description */ ('AP-214 File'),
/* implementation_level */ '2;1');

FILE_NAME(
/* name */ 'PLIN12',
/* time_stamp */ 'Thu Nov 16 08:33:31 2017',
/* author */ (''),
/* organization */ (''),
/* preprocessor_version */ 'DELCAM STEP V1',
/* originating_system */ 'Exchange7.1.0006',
/* authorisation */ '');

FILE_SCHEMA (('AUTOMOTIVE_DESIGN'));
ENDSEC;
DATA;
#10=PRESENTATION_STYLE_ASSIGNMENT((#20));
#11=PRESENTATION_STYLE_ASSIGNMENT((#21));
#12=SURFACE_SIDE_STYLE('',(#14));
#13=SURFACE_SIDE_STYLE('',(#15));
#14=SURFACE_STYLE_FILL_AREA(#16);
#15=SURFACE_STYLE_FILL_AREA(#17);
#16=FILL_AREA_STYLE('',(#18));
#17=FILL_AREA_STYLE('',(#19));
#18=FILL_AREA_STYLE_COLOUR('',#37);
#19=FILL_AREA_STYLE_COLOUR('',#38);
#20=SURFACE_STYLE_USAGE(.BOTH.,#12);
#21=SURFACE_STYLE_USAGE(.BOTH.,#13);
#22=STYLED_ITEM('',(#10),#54);
#23=STYLED_ITEM('',(#10),#55);
#24=STYLED_ITEM('',(#10),#56);
#25=STYLED_ITEM('',(#10),#57);
#26=STYLED_ITEM('',(#10),#58);
#27=STYLED_ITEM('',(#10),#59);
#28=STYLED_ITEM('',(#10),#60);
#29=STYLED_ITEM('',(#10),#61);
#30=STYLED_ITEM('',(#10),#62);
#31=STYLED_ITEM('',(#10),#63);
#32=STYLED_ITEM('',(#10),#64);
#33=STYLED_ITEM('',(#10),#65);
#34=STYLED_ITEM('',(#10),#66);
#35=STYLED_ITEM('',(#10),#67);
#36=STYLED_ITEM('',(#11),#44);
#37=COLOUR_RGB('',0.,0.,0.);
#38=COLOUR_RGB('rgb_colour_1',0.4,0.4,0.4);
#39=MECHANICAL_DESIGN_GEOMETRIC_PRESENTATION_REPRESENTATION('',(#22,#23,#24,
#25,#26,#27,#28,#29,#30,#31,#32,#33,#34,#35,#36),#525);
#40=PRESENTATION_LAYER_ASSIGNMENT('0','General',(#54,#55,#56,#57,#58,#59,#60,
#61,#62,#63,#64,#65,#66,#67,#44));
#41=SHAPE_REPRESENTATION_RELATIONSHIP('','',#300,#42);
#42=ADVANCED_BREP_SHAPE_REPRESENTATION('',(#43),#525);
#43=MANIFOLD_SOLID_BREP('1',#44);
#44=CLOSED_SHELL('',(#54,#55,#56,#57,#58,#59,#60,#61,#62,#63,#64,#65,#66,#67)
);
#45=SURFACE_OF_LINEAR_EXTRUSION('',#197,#266);
#46=SURFACE_OF_LINEAR_EXTRUSION('',#198,#267);
#47=SURFACE_OF_LINEAR_EXTRUSION('',#199,#268);
#48=SURFACE_OF_LINEAR_EXTRUSION('',#200,#269);
#49=SURFACE_OF_LINEAR_EXTRUSION('',#201,#270);
#50=SURFACE_OF_LINEAR_EXTRUSION('',#202,#271);
#51=SURFACE_OF_LINEAR_EXTRUSION('',#203,#272);
#52=SURFACE_OF_LINEAR_EXTRUSION('',#204,#273);
#53=SURFACE_OF_LINEAR_EXTRUSION('',#205,#274);
#54=ADVANCED_FACE('',(#68),#168,.T.);
#55=ADVANCED_FACE('',(#69),#169,.T.);
#56=ADVANCED_FACE('',(#70),#45,.T.);
#57=ADVANCED_FACE('',(#71),#46,.T.);
#58=ADVANCED_FACE('',(#72),#47,.T.);
#59=ADVANCED_FACE('',(#73),#48,.T.);
#60=ADVANCED_FACE('',(#74),#49,.T.);
#61=ADVANCED_FACE('',(#75),#50,.T.);
#62=ADVANCED_FACE('',(#76),#51,.T.);
#63=ADVANCED_FACE('',(#77),#52,.T.);
#64=ADVANCED_FACE('',(#78),#53,.T.);
#65=ADVANCED_FACE('',(#79),#170,.T.);
#66=ADVANCED_FACE('',(#80),#171,.T.);
#67=ADVANCED_FACE('',(#81),#172,.F.);
#68=FACE_OUTER_BOUND('',#82,.T.);
#69=FACE_OUTER_BOUND('',#83,.T.);
#70=FACE_OUTER_BOUND('',#84,.T.);
#71=FACE_OUTER_BOUND('',#85,.T.);
#72=FACE_OUTER_BOUND('',#86,.T.);
#73=FACE_OUTER_BOUND('',#87,.T.);
#74=FACE_OUTER_BOUND('',#88,.T.);
#75=FACE_OUTER_BOUND('',#89,.T.);
#76=FACE_OUTER_BOUND('',#90,.T.);
#77=FACE_OUTER_BOUND('',#91,.T.);
#78=FACE_OUTER_BOUND('',#92,.T.);
#79=FACE_OUTER_BOUND('',#93,.T.);
#80=FACE_OUTER_BOUND('',#94,.T.);
#81=FACE_OUTER_BOUND('',#95,.T.);
#82=EDGE_LOOP('',(#96,#97,#98,#99));
#83=EDGE_LOOP('',(#100,#101,#102,#103));
#84=EDGE_LOOP('',(#104,#105,#106,#107));
#85=EDGE_LOOP('',(#108,#109,#110,#111));
#86=EDGE_LOOP('',(#112,#113,#114,#115));
#87=EDGE_LOOP('',(#116,#117,#118,#119));
#88=EDGE_LOOP('',(#120,#121,#122,#123));
#89=EDGE_LOOP('',(#124,#125,#126,#127));
#90=EDGE_LOOP('',(#128,#129,#130,#131));
#91=EDGE_LOOP('',(#132,#133,#134,#135));
#92=EDGE_LOOP('',(#136,#137,#138,#139));
#93=EDGE_LOOP('',(#140,#141,#142,#143));
#94=EDGE_LOOP('',(#144,#145,#146,#147,#148,#149,#150,#151,#152,#153,#154,#155)
);
#95=EDGE_LOOP('',(#156,#157,#158,#159,#160,#161,#162,#163,#164,#165,#166,#167)
);
#96=ORIENTED_EDGE('',*,*,#241,.F.);
#97=ORIENTED_EDGE('',*,*,#217,.F.);
#98=ORIENTED_EDGE('',*,*,#229,.T.);
#99=ORIENTED_EDGE('',*,*,#206,.T.);
#100=ORIENTED_EDGE('',*,*,#240,.F.);
#101=ORIENTED_EDGE('',*,*,#206,.F.);
#102=ORIENTED_EDGE('',*,*,#228,.T.);
#103=ORIENTED_EDGE('',*,*,#207,.T.);
#104=ORIENTED_EDGE('',*,*,#239,.F.);
#105=ORIENTED_EDGE('',*,*,#207,.F.);
#106=ORIENTED_EDGE('',*,*,#227,.T.);
#107=ORIENTED_EDGE('',*,*,#208,.T.);
#108=ORIENTED_EDGE('',*,*,#238,.F.);
#109=ORIENTED_EDGE('',*,*,#208,.F.);
#110=ORIENTED_EDGE('',*,*,#226,.T.);
#111=ORIENTED_EDGE('',*,*,#209,.T.);
#112=ORIENTED_EDGE('',*,*,#237,.F.);
#113=ORIENTED_EDGE('',*,*,#209,.F.);
#114=ORIENTED_EDGE('',*,*,#225,.T.);
#115=ORIENTED_EDGE('',*,*,#210,.T.);
#116=ORIENTED_EDGE('',*,*,#236,.F.);
#117=ORIENTED_EDGE('',*,*,#210,.F.);
#118=ORIENTED_EDGE('',*,*,#224,.T.);
#119=ORIENTED_EDGE('',*,*,#211,.T.);
#120=ORIENTED_EDGE('',*,*,#235,.F.);
#121=ORIENTED_EDGE('',*,*,#211,.F.);
#122=ORIENTED_EDGE('',*,*,#223,.T.);
#123=ORIENTED_EDGE('',*,*,#212,.T.);
#124=ORIENTED_EDGE('',*,*,#234,.F.);
#125=ORIENTED_EDGE('',*,*,#212,.F.);
#126=ORIENTED_EDGE('',*,*,#222,.T.);
#127=ORIENTED_EDGE('',*,*,#213,.T.);
#128=ORIENTED_EDGE('',*,*,#233,.F.);
#129=ORIENTED_EDGE('',*,*,#213,.F.);
#130=ORIENTED_EDGE('',*,*,#221,.T.);
#131=ORIENTED_EDGE('',*,*,#214,.T.);
#132=ORIENTED_EDGE('',*,*,#232,.F.);
#133=ORIENTED_EDGE('',*,*,#214,.F.);
#134=ORIENTED_EDGE('',*,*,#220,.T.);
#135=ORIENTED_EDGE('',*,*,#215,.T.);
#136=ORIENTED_EDGE('',*,*,#231,.F.);
#137=ORIENTED_EDGE('',*,*,#215,.F.);
#138=ORIENTED_EDGE('',*,*,#219,.T.);
#139=ORIENTED_EDGE('',*,*,#216,.T.);
#140=ORIENTED_EDGE('',*,*,#230,.F.);
#141=ORIENTED_EDGE('',*,*,#216,.F.);
#142=ORIENTED_EDGE('',*,*,#218,.T.);
#143=ORIENTED_EDGE('',*,*,#217,.T.);
#144=ORIENTED_EDGE('',*,*,#229,.F.);
#145=ORIENTED_EDGE('',*,*,#218,.F.);
#146=ORIENTED_EDGE('',*,*,#219,.F.);
#147=ORIENTED_EDGE('',*,*,#220,.F.);
#148=ORIENTED_EDGE('',*,*,#221,.F.);
#149=ORIENTED_EDGE('',*,*,#222,.F.);
#150=ORIENTED_EDGE('',*,*,#223,.F.);
#151=ORIENTED_EDGE('',*,*,#224,.F.);
#152=ORIENTED_EDGE('',*,*,#225,.F.);
#153=ORIENTED_EDGE('',*,*,#226,.F.);
#154=ORIENTED_EDGE('',*,*,#227,.F.);
#155=ORIENTED_EDGE('',*,*,#228,.F.);
#156=ORIENTED_EDGE('',*,*,#241,.T.);
#157=ORIENTED_EDGE('',*,*,#240,.T.);
#158=ORIENTED_EDGE('',*,*,#239,.T.);
#159=ORIENTED_EDGE('',*,*,#238,.T.);
#160=ORIENTED_EDGE('',*,*,#237,.T.);
#161=ORIENTED_EDGE('',*,*,#236,.T.);
#162=ORIENTED_EDGE('',*,*,#235,.T.);
#163=ORIENTED_EDGE('',*,*,#234,.T.);
#164=ORIENTED_EDGE('',*,*,#233,.T.);
#165=ORIENTED_EDGE('',*,*,#232,.T.);
#166=ORIENTED_EDGE('',*,*,#231,.T.);
#167=ORIENTED_EDGE('',*,*,#230,.T.);
#168=PLANE('',#302);
#169=PLANE('',#303);
#170=PLANE('',#304);
#171=PLANE('',#305);
#172=PLANE('',#306);
#173=B_SPLINE_CURVE_WITH_KNOTS('',3,(#377,#378,#379,#380),.UNSPECIFIED.,.F.,
.F.,(4,4),(0.,1.),.UNSPECIFIED.);
#174=B_SPLINE_CURVE_WITH_KNOTS('',3,(#381,#382,#383,#384),.UNSPECIFIED.,.F.,
.F.,(4,4),(0.,1.),.UNSPECIFIED.);
#175=B_SPLINE_CURVE_WITH_KNOTS('',3,(#385,#386,#387,#388,#389,#390,#391),
.UNSPECIFIED.,.F.,.F.,(4,3,4),(0.,1.,2.),.UNSPECIFIED.);
#176=B_SPLINE_CURVE_WITH_KNOTS('',3,(#392,#393,#394,#395),.UNSPECIFIED.,.F.,
.F.,(4,4),(0.,1.),.UNSPECIFIED.);
#177=B_SPLINE_CURVE_WITH_KNOTS('',3,(#396,#397,#398,#399),.UNSPECIFIED.,.F.,
.F.,(4,4),(0.,1.),.UNSPECIFIED.);
#178=B_SPLINE_CURVE_WITH_KNOTS('',3,(#400,#401,#402,#403),.UNSPECIFIED.,.F.,
.F.,(4,4),(0.,1.),.UNSPECIFIED.);
#179=B_SPLINE_CURVE_WITH_KNOTS('',3,(#404,#405,#406,#407),.UNSPECIFIED.,.F.,
.F.,(4,4),(0.,1.),.UNSPECIFIED.);
#180=B_SPLINE_CURVE_WITH_KNOTS('',3,(#408,#409,#410,#411),.UNSPECIFIED.,.F.,
.F.,(4,4),(0.,1.),.UNSPECIFIED.);
#181=B_SPLINE_CURVE_WITH_KNOTS('',3,(#412,#413,#414,#415),.UNSPECIFIED.,.F.,
.F.,(4,4),(0.,1.),.UNSPECIFIED.);
#182=B_SPLINE_CURVE_WITH_KNOTS('',3,(#416,#417,#418,#419),.UNSPECIFIED.,.F.,
.F.,(4,4),(0.,1.),.UNSPECIFIED.);
#183=B_SPLINE_CURVE_WITH_KNOTS('',3,(#420,#421,#422,#423),.UNSPECIFIED.,.F.,
.F.,(4,4),(0.,1.),.UNSPECIFIED.);
#184=B_SPLINE_CURVE_WITH_KNOTS('',3,(#424,#425,#426,#427),.UNSPECIFIED.,.F.,
.F.,(4,4),(0.,1.),.UNSPECIFIED.);
#185=B_SPLINE_CURVE_WITH_KNOTS('',3,(#428,#429,#430,#431),.UNSPECIFIED.,.F.,
.F.,(4,4),(0.,1.),.UNSPECIFIED.);
#186=B_SPLINE_CURVE_WITH_KNOTS('',3,(#432,#433,#434,#435),.UNSPECIFIED.,.F.,
.F.,(4,4),(0.,1.),.UNSPECIFIED.);
#187=B_SPLINE_CURVE_WITH_KNOTS('',3,(#436,#437,#438,#439,#440,#441,#442),
.UNSPECIFIED.,.F.,.F.,(4,3,4),(0.,1.,2.),.UNSPECIFIED.);
#188=B_SPLINE_CURVE_WITH_KNOTS('',3,(#443,#444,#445,#446),.UNSPECIFIED.,.F.,
.F.,(4,4),(0.,1.),.UNSPECIFIED.);
#189=B_SPLINE_CURVE_WITH_KNOTS('',3,(#447,#448,#449,#450),.UNSPECIFIED.,.F.,
.F.,(4,4),(0.,1.),.UNSPECIFIED.);
#190=B_SPLINE_CURVE_WITH_KNOTS('',3,(#451,#452,#453,#454),.UNSPECIFIED.,.F.,
.F.,(4,4),(0.,1.),.UNSPECIFIED.);
#191=B_SPLINE_CURVE_WITH_KNOTS('',3,(#455,#456,#457,#458),.UNSPECIFIED.,.F.,
.F.,(4,4),(0.,1.),.UNSPECIFIED.);
#192=B_SPLINE_CURVE_WITH_KNOTS('',3,(#459,#460,#461,#462),.UNSPECIFIED.,.F.,
.F.,(4,4),(0.,1.),.UNSPECIFIED.);
#193=B_SPLINE_CURVE_WITH_KNOTS('',3,(#463,#464,#465,#466),.UNSPECIFIED.,.F.,
.F.,(4,4),(0.,1.),.UNSPECIFIED.);
#194=B_SPLINE_CURVE_WITH_KNOTS('',3,(#467,#468,#469,#470),.UNSPECIFIED.,.F.,
.F.,(4,4),(0.,1.),.UNSPECIFIED.);
#195=B_SPLINE_CURVE_WITH_KNOTS('',3,(#471,#472,#473,#474),.UNSPECIFIED.,.F.,
.F.,(4,4),(0.,1.),.UNSPECIFIED.);
#196=B_SPLINE_CURVE_WITH_KNOTS('',3,(#475,#476,#477,#478),.UNSPECIFIED.,.F.,
.F.,(4,4),(0.,1.),.UNSPECIFIED.);
#197=B_SPLINE_CURVE_WITH_KNOTS('',3,(#481,#482,#483,#484),.UNSPECIFIED.,.F.,
.F.,(4,4),(0.,1.),.UNSPECIFIED.);
#198=B_SPLINE_CURVE_WITH_KNOTS('',3,(#485,#486,#487,#488),.UNSPECIFIED.,.F.,
.F.,(4,4),(0.,1.),.UNSPECIFIED.);
#199=B_SPLINE_CURVE_WITH_KNOTS('',3,(#489,#490,#491,#492),.UNSPECIFIED.,.F.,
.F.,(4,4),(0.,1.),.UNSPECIFIED.);
#200=B_SPLINE_CURVE_WITH_KNOTS('',3,(#493,#494,#495,#496),.UNSPECIFIED.,.F.,
.F.,(4,4),(0.,1.),.UNSPECIFIED.);
#201=B_SPLINE_CURVE_WITH_KNOTS('',3,(#497,#498,#499,#500),.UNSPECIFIED.,.F.,
.F.,(4,4),(0.,1.),.UNSPECIFIED.);
#202=B_SPLINE_CURVE_WITH_KNOTS('',3,(#501,#502,#503,#504),.UNSPECIFIED.,.F.,
.F.,(4,4),(0.,1.),.UNSPECIFIED.);
#203=B_SPLINE_CURVE_WITH_KNOTS('',3,(#505,#506,#507,#508),.UNSPECIFIED.,.F.,
.F.,(4,4),(0.,1.),.UNSPECIFIED.);
#204=B_SPLINE_CURVE_WITH_KNOTS('',3,(#509,#510,#511,#512,#513,#514,#515),
.UNSPECIFIED.,.F.,.F.,(4,3,4),(0.,1.,2.),.UNSPECIFIED.);
#205=B_SPLINE_CURVE_WITH_KNOTS('',3,(#516,#517,#518,#519),.UNSPECIFIED.,.F.,
.F.,(4,4),(0.,1.),.UNSPECIFIED.);
#206=EDGE_CURVE('',#286,#298,#242,.T.);
#207=EDGE_CURVE('',#285,#297,#243,.T.);
#208=EDGE_CURVE('',#284,#296,#244,.T.);
#209=EDGE_CURVE('',#283,#295,#245,.T.);
#210=EDGE_CURVE('',#282,#294,#246,.T.);
#211=EDGE_CURVE('',#281,#293,#247,.T.);
#212=EDGE_CURVE('',#280,#292,#248,.T.);
#213=EDGE_CURVE('',#279,#291,#249,.T.);
#214=EDGE_CURVE('',#278,#290,#250,.T.);
#215=EDGE_CURVE('',#277,#289,#251,.T.);
#216=EDGE_CURVE('',#276,#288,#252,.T.);
#217=EDGE_CURVE('',#275,#287,#253,.T.);
#218=EDGE_CURVE('',#276,#275,#173,.T.);
#219=EDGE_CURVE('',#277,#276,#174,.T.);
#220=EDGE_CURVE('',#278,#277,#175,.T.);
#221=EDGE_CURVE('',#279,#278,#176,.T.);
#222=EDGE_CURVE('',#280,#279,#177,.T.);
#223=EDGE_CURVE('',#281,#280,#178,.T.);
#224=EDGE_CURVE('',#282,#281,#179,.T.);
#225=EDGE_CURVE('',#283,#282,#180,.T.);
#226=EDGE_CURVE('',#284,#283,#181,.T.);
#227=EDGE_CURVE('',#285,#284,#182,.T.);
#228=EDGE_CURVE('',#286,#285,#183,.T.);
#229=EDGE_CURVE('',#275,#286,#184,.T.);
#230=EDGE_CURVE('',#288,#287,#185,.T.);
#231=EDGE_CURVE('',#289,#288,#186,.T.);
#232=EDGE_CURVE('',#290,#289,#187,.T.);
#233=EDGE_CURVE('',#291,#290,#188,.T.);
#234=EDGE_CURVE('',#292,#291,#189,.T.);
#235=EDGE_CURVE('',#293,#292,#190,.T.);
#236=EDGE_CURVE('',#294,#293,#191,.T.);
#237=EDGE_CURVE('',#295,#294,#192,.T.);
#238=EDGE_CURVE('',#296,#295,#193,.T.);
#239=EDGE_CURVE('',#297,#296,#194,.T.);
#240=EDGE_CURVE('',#298,#297,#195,.T.);
#241=EDGE_CURVE('',#287,#298,#196,.T.);
#242=LINE('',#365,#254);
#243=LINE('',#366,#255);
#244=LINE('',#367,#256);
#245=LINE('',#368,#257);
#246=LINE('',#369,#258);
#247=LINE('',#370,#259);
#248=LINE('',#371,#260);
#249=LINE('',#372,#261);
#250=LINE('',#373,#262);
#251=LINE('',#374,#263);
#252=LINE('',#375,#264);
#253=LINE('',#376,#265);
#254=VECTOR('',#309,1.);
#255=VECTOR('',#310,1.);
#256=VECTOR('',#311,1.);
#257=VECTOR('',#312,1.);
#258=VECTOR('',#313,1.);
#259=VECTOR('',#314,1.);
#260=VECTOR('',#315,1.);
#261=VECTOR('',#316,1.);
#262=VECTOR('',#317,1.);
#263=VECTOR('',#318,1.);
#264=VECTOR('',#319,1.);
#265=VECTOR('',#320,1.);
#266=VECTOR('',#325,1.);
#267=VECTOR('',#326,1.);
#268=VECTOR('',#327,1.);
#269=VECTOR('',#328,1.);
#270=VECTOR('',#329,1.);
#271=VECTOR('',#330,1.);
#272=VECTOR('',#331,1.);
#273=VECTOR('',#332,1.);
#274=VECTOR('',#333,1.);
#275=VERTEX_POINT('',#341);
#276=VERTEX_POINT('',#342);
#277=VERTEX_POINT('',#343);
#278=VERTEX_POINT('',#344);
#279=VERTEX_POINT('',#345);
#280=VERTEX_POINT('',#346);
#281=VERTEX_POINT('',#347);
#282=VERTEX_POINT('',#348);
#283=VERTEX_POINT('',#349);
#284=VERTEX_POINT('',#350);
#285=VERTEX_POINT('',#351);
#286=VERTEX_POINT('',#352);
#287=VERTEX_POINT('',#353);
#288=VERTEX_POINT('',#354);
#289=VERTEX_POINT('',#355);
#290=VERTEX_POINT('',#356);
#291=VERTEX_POINT('',#357);
#292=VERTEX_POINT('',#358);
#293=VERTEX_POINT('',#359);
#294=VERTEX_POINT('',#360);
#295=VERTEX_POINT('',#361);
#296=VERTEX_POINT('',#362);
#297=VERTEX_POINT('',#363);
#298=VERTEX_POINT('',#364);
#299=SHAPE_DEFINITION_REPRESENTATION(#523,#300);
#300=SHAPE_REPRESENTATION('master',(#301),#525);
#301=AXIS2_PLACEMENT_3D('',#340,#308,#307);
#302=AXIS2_PLACEMENT_3D('',#479,#322,#321);
#303=AXIS2_PLACEMENT_3D('',#480,#324,#323);
#304=AXIS2_PLACEMENT_3D('',#520,#335,#334);
#305=AXIS2_PLACEMENT_3D('',#521,#337,#336);
#306=AXIS2_PLACEMENT_3D('',#522,#339,#338);
#307=DIRECTION('',(1.,0.,0.));
#308=DIRECTION('',(0.,0.,1.));
#309=DIRECTION('',(-2.31138500143757E-012,-1.,-9.52594206939913E-013));
#310=DIRECTION('',(-2.31138500143757E-012,-1.,-9.52594206939913E-013));
#311=DIRECTION('',(-2.31138500143757E-012,-1.,-9.52594206939913E-013));
#312=DIRECTION('',(-2.31138500143757E-012,-1.,-9.52594206939913E-013));
#313=DIRECTION('',(-2.31138500143757E-012,-1.,-9.52594206939913E-013));
#314=DIRECTION('',(-2.31138500143757E-012,-1.,-9.52594206939913E-013));
#315=DIRECTION('',(-2.31138500143757E-012,-1.,-9.52594206939913E-013));
#316=DIRECTION('',(-2.31138500143757E-012,-1.,-9.52594206939913E-013));
#317=DIRECTION('',(-2.31138500143757E-012,-1.,-9.52594206939913E-013));
#318=DIRECTION('',(-2.31138500143757E-012,-1.,-9.52594206939913E-013));
#319=DIRECTION('',(-2.31138500143757E-012,-1.,-9.52594206939913E-013));
#320=DIRECTION('',(-2.31138500143757E-012,-1.,-9.52594206939913E-013));
#321=DIRECTION('',(-0.995697647336103,1.26217744835362E-029,-0.092661723971382
));
#322=DIRECTION('',(0.092661723971382,7.34318891721272E-013,-0.995697647336103)
);
#323=DIRECTION('',(0.00460199775010948,-1.57772181044202E-030,
-0.999989410752288));
#324=DIRECTION('',(0.999989410752288,-2.31574436200633E-012,
0.00460199775010948));
#325=DIRECTION('',(-2.31138500143757E-012,-1.,-9.52594206939913E-013));
#326=DIRECTION('',(-2.31138500143757E-012,-1.,-9.52594206939913E-013));
#327=DIRECTION('',(-2.31138500143757E-012,-1.,-9.52594206939913E-013));
#328=DIRECTION('',(-2.31138500143757E-012,-1.,-9.52594206939913E-013));
#329=DIRECTION('',(-2.31138500143757E-012,-1.,-9.52594206939913E-013));
#330=DIRECTION('',(-2.31138500143757E-012,-1.,-9.52594206939913E-013));
#331=DIRECTION('',(-2.31138500143757E-012,-1.,-9.52594206939913E-013));
#332=DIRECTION('',(-2.31138500143757E-012,-1.,-9.52594206939913E-013));
#333=DIRECTION('',(-2.31138500143757E-012,-1.,-9.52594206939913E-013));
#334=DIRECTION('',(0.000725930553695331,0.,0.999999736512381));
#335=DIRECTION('',(-0.999999736512381,2.31069287517615E-012,
0.000725930553695331));
#336=DIRECTION('',(-1.,2.63743186513507E-011,0.));
#337=DIRECTION('',(2.63743186513507E-011,1.,7.8475287683525E-012));
#338=DIRECTION('',(-1.,2.63743186513507E-011,0.));
#339=DIRECTION('',(2.63743186513507E-011,1.,7.8475287683525E-012));
#340=CARTESIAN_POINT('',(0.,0.,0.));
#341=CARTESIAN_POINT('',(-6620.0562150534,-3488.43973230736,-0.221939891208801
));
#342=CARTESIAN_POINT('',(-6619.96549612145,-3488.43973230736,124.747187786513)
);
#343=CARTESIAN_POINT('',(-6616.78889307762,-3488.43973230736,124.21609776636)
);
#344=CARTESIAN_POINT('',(-6613.39301997242,-3488.43973230736,118.445179521127)
);
#345=CARTESIAN_POINT('',(-6613.34431649598,-3488.43973230736,116.074238322426)
);
#346=CARTESIAN_POINT('',(-6612.49204588484,-3488.43973230736,110.819170522913)
);
#347=CARTESIAN_POINT('',(-6612.07471705286,-3488.43973230736,109.199156136382)
);
#348=CARTESIAN_POINT('',(-6610.21559247718,-3488.43973230736,103.626951831542)
);
#349=CARTESIAN_POINT('',(-6611.63954470607,-3488.43973230736,99.1952609830661)
);
#350=CARTESIAN_POINT('',(-6611.63974012417,-3488.43973230736,97.4784416444806)
);
#351=CARTESIAN_POINT('',(-6609.74595905704,-3488.43973230736,95.3320718587784)
);
#352=CARTESIAN_POINT('',(-6609.31081705115,-3488.43973230736,0.778049519543614
));
#353=CARTESIAN_POINT('',(-6620.05621505687,-4988.43973230736,
-0.221939892637692));
#354=CARTESIAN_POINT('',(-6619.96549612491,-4988.43973230736,124.747187785084)
);
#355=CARTESIAN_POINT('',(-6616.78889308108,-4988.43973230736,124.216097764931)
);
#356=CARTESIAN_POINT('',(-6613.39301997589,-4988.43973230736,118.445179519698)
);
#357=CARTESIAN_POINT('',(-6613.34431649945,-4988.43973230736,116.074238320997)
);
#358=CARTESIAN_POINT('',(-6612.49204588831,-4988.43973230736,110.819170521484)
);
#359=CARTESIAN_POINT('',(-6612.07471705633,-4988.43973230736,109.199156134953)
);
#360=CARTESIAN_POINT('',(-6610.21559248065,-4988.43973230736,103.626951830113)
);
#361=CARTESIAN_POINT('',(-6611.63954470954,-4988.43973230736,99.1952609816372)
);
#362=CARTESIAN_POINT('',(-6611.63974012764,-4988.43973230736,97.4784416430517)
);
#363=CARTESIAN_POINT('',(-6609.74595906051,-4988.43973230736,95.3320718573495)
);
#364=CARTESIAN_POINT('',(-6609.31081705462,-4988.43973230736,0.778049518114723
));
#365=CARTESIAN_POINT('',(-6609.31081705115,-3488.43973230736,0.778049519543614
));
#366=CARTESIAN_POINT('',(-6609.74595905704,-3488.43973230736,95.3320718587784)
);
#367=CARTESIAN_POINT('',(-6611.63974012417,-3488.43973230736,97.4784416444806)
);
#368=CARTESIAN_POINT('',(-6611.63954470607,-3488.43973230736,99.1952609830661)
);
#369=CARTESIAN_POINT('',(-6610.21559247718,-3488.43973230736,103.626951831542)
);
#370=CARTESIAN_POINT('',(-6612.07471705286,-3488.43973230736,109.199156136382)
);
#371=CARTESIAN_POINT('',(-6612.49204588484,-3488.43973230736,110.819170522913)
);
#372=CARTESIAN_POINT('',(-6613.34431649598,-3488.43973230736,116.074238322426)
);
#373=CARTESIAN_POINT('',(-6613.39301997242,-3488.43973230736,118.445179521127)
);
#374=CARTESIAN_POINT('',(-6616.78889307762,-3488.43973230736,124.21609776636)
);
#375=CARTESIAN_POINT('',(-6619.96549612145,-3488.43973230736,124.747187786513)
);
#376=CARTESIAN_POINT('',(-6620.0562150534,-3488.43973230736,-0.221939891208801
));
#377=CARTESIAN_POINT('',(-6619.96549612145,-3488.43973230736,124.747187786513)
);
#378=CARTESIAN_POINT('',(-6619.99573576544,-3488.43973230736,83.0908118939388)
);
#379=CARTESIAN_POINT('',(-6620.0259754094,-3488.43973230736,41.4344360013655)
);
#380=CARTESIAN_POINT('',(-6620.0562150534,-3488.43973230736,-0.221939891208801
));
#381=CARTESIAN_POINT('',(-6616.78889307762,-3488.43973230736,124.21609776636)
);
#382=CARTESIAN_POINT('',(-6617.84784518774,-3488.43973230736,124.392589633172)
);
#383=CARTESIAN_POINT('',(-6618.90654401132,-3488.43973230736,124.570695919701)
);
#384=CARTESIAN_POINT('',(-6619.96549612145,-3488.43973230736,124.747187786513)
);
#385=CARTESIAN_POINT('',(-6613.39301997242,-3488.43973230736,118.445179521127)
);
#386=CARTESIAN_POINT('',(-6612.93500733178,-3488.43973230736,119.687926141296)
);
#387=CARTESIAN_POINT('',(-6613.10727816849,-3488.43973230736,121.126159219407)
);
#388=CARTESIAN_POINT('',(-6613.81262622922,-3488.43973230736,122.241928689547)
);
#389=CARTESIAN_POINT('',(-6614.46913263716,-3488.43973230736,123.280436977448)
);
#390=CARTESIAN_POINT('',(-6615.57128509726,-3488.43973230736,124.025067108161)
);
#391=CARTESIAN_POINT('',(-6616.78889307762,-3488.43973230736,124.21609776636)
);
#392=CARTESIAN_POINT('',(-6613.34431649598,-3488.43973230736,116.074238322426)
);
#393=CARTESIAN_POINT('',(-6613.64847210741,-3488.43973230735,116.823856587862)
);
#394=CARTESIAN_POINT('',(-6613.66730075614,-3488.43973230737,117.684122209546)
);
#395=CARTESIAN_POINT('',(-6613.39301997242,-3488.43973230736,118.445179521127)
);
#396=CARTESIAN_POINT('',(-6612.49204588484,-3488.43973230736,110.819170522913)
);
#397=CARTESIAN_POINT('',(-6612.3785043685,-3488.43973230737,112.605170468067)
);
#398=CARTESIAN_POINT('',(-6612.6714710086,-3488.43973230737,114.415951418596)
);
#399=CARTESIAN_POINT('',(-6613.34431649598,-3488.43973230736,116.074238322426)
);
#400=CARTESIAN_POINT('',(-6612.07471705286,-3488.43973230736,109.199156136382)
);
#401=CARTESIAN_POINT('',(-6612.38003981291,-3488.43973230736,109.677237481511)
);
#402=CARTESIAN_POINT('',(-6612.5280356879,-3488.43973230736,110.25305349046));
#403=CARTESIAN_POINT('',(-6612.49204588484,-3488.43973230736,110.819170522913)
);
#404=CARTESIAN_POINT('',(-6610.21559247718,-3488.43973230736,103.626951831542)
);
#405=CARTESIAN_POINT('',(-6610.36607527346,-3488.43973230736,105.599417363053)
);
#406=CARTESIAN_POINT('',(-6611.00997504477,-3488.43973230735,107.531958802728)
);
#407=CARTESIAN_POINT('',(-6612.07471705286,-3488.43973230736,109.199156136382)
);
#408=CARTESIAN_POINT('',(-6611.63954470607,-3488.43973230736,99.1952609830661)
);
#409=CARTESIAN_POINT('',(-6610.60742271023,-3488.43973230736,100.409686978676)
);
#410=CARTESIAN_POINT('',(-6610.08454831268,-3488.43973230735,102.038577272401)
);
#411=CARTESIAN_POINT('',(-6610.21559247718,-3488.43973230736,103.626951831542)
);
#412=CARTESIAN_POINT('',(-6611.63974012417,-3488.43973230736,97.4784416444806)
);
#413=CARTESIAN_POINT('',(-6611.63977234173,-3488.43973230736,98.0497966025722)
);
#414=CARTESIAN_POINT('',(-6611.63951248851,-3488.43973230736,98.6239060249746)
);
#415=CARTESIAN_POINT('',(-6611.63954470607,-3488.43973230736,99.1952609830661)
);
#416=CARTESIAN_POINT('',(-6609.74595905704,-3488.43973230736,95.3320718587784)
);
#417=CARTESIAN_POINT('',(-6609.72408999088,-3488.43973230737,96.3903671161145)
);
#418=CARTESIAN_POINT('',(-6610.5871199633,-3488.43973230735,97.3668266602031)
);
#419=CARTESIAN_POINT('',(-6611.63974012417,-3488.43973230736,97.4784416444806)
);
#420=CARTESIAN_POINT('',(-6609.31081705115,-3488.43973230736,0.778049519543614
));
#421=CARTESIAN_POINT('',(-6609.45586438645,-3488.43973230736,32.2960569659552)
);
#422=CARTESIAN_POINT('',(-6609.60091172174,-3488.43973230736,63.8140644123668)
);
#423=CARTESIAN_POINT('',(-6609.74595905704,-3488.43973230736,95.3320718587784)
);
#424=CARTESIAN_POINT('',(-6620.0562150534,-3488.43973230736,-0.221939891208801
));
#425=CARTESIAN_POINT('',(-6616.47441571932,-3488.43973230736,0.11138991237526)
);
#426=CARTESIAN_POINT('',(-6612.89261638523,-3488.43973230736,0.444719715959554
));
#427=CARTESIAN_POINT('',(-6609.31081705115,-3488.43973230736,0.778049519543614
));
#428=CARTESIAN_POINT('',(-6619.96549612491,-4988.43973230736,124.747187785084)
);
#429=CARTESIAN_POINT('',(-6619.99573576891,-4988.43973230736,83.0908118925099)
);
#430=CARTESIAN_POINT('',(-6620.02597541287,-4988.43973230736,41.4344359999366)
);
#431=CARTESIAN_POINT('',(-6620.05621505687,-4988.43973230736,
-0.221939892637692));
#432=CARTESIAN_POINT('',(-6616.78889308108,-4988.43973230736,124.216097764931)
);
#433=CARTESIAN_POINT('',(-6617.8478451912,-4988.43973230736,124.392589631743)
);
#434=CARTESIAN_POINT('',(-6618.90654401479,-4988.43973230736,124.570695918272)
);
#435=CARTESIAN_POINT('',(-6619.96549612491,-4988.43973230736,124.747187785084)
);
#436=CARTESIAN_POINT('',(-6613.39301997589,-4988.43973230736,118.445179519698)
);
#437=CARTESIAN_POINT('',(-6612.93500733525,-4988.43973230736,119.687926139867)
);
#438=CARTESIAN_POINT('',(-6613.10727817195,-4988.43973230736,121.126159217978)
);
#439=CARTESIAN_POINT('',(-6613.81262623269,-4988.43973230736,122.241928688118)
);
#440=CARTESIAN_POINT('',(-6614.46913264063,-4988.43973230736,123.280436976019)
);
#441=CARTESIAN_POINT('',(-6615.57128510072,-4988.43973230736,124.025067106732)
);
#442=CARTESIAN_POINT('',(-6616.78889308108,-4988.43973230736,124.216097764931)
);
#443=CARTESIAN_POINT('',(-6613.34431649945,-4988.43973230736,116.074238320997)
);
#444=CARTESIAN_POINT('',(-6613.64847211087,-4988.43973230735,116.823856586433)
);
#445=CARTESIAN_POINT('',(-6613.66730075961,-4988.43973230737,117.684122208118)
);
#446=CARTESIAN_POINT('',(-6613.39301997589,-4988.43973230736,118.445179519698)
);
#447=CARTESIAN_POINT('',(-6612.49204588831,-4988.43973230736,110.819170521484)
);
#448=CARTESIAN_POINT('',(-6612.37850437197,-4988.43973230737,112.605170466638)
);
#449=CARTESIAN_POINT('',(-6612.67147101206,-4988.43973230737,114.415951417167)
);
#450=CARTESIAN_POINT('',(-6613.34431649945,-4988.43973230736,116.074238320997)
);
#451=CARTESIAN_POINT('',(-6612.07471705633,-4988.43973230736,109.199156134953)
);
#452=CARTESIAN_POINT('',(-6612.38003981637,-4988.43973230736,109.677237480082)
);
#453=CARTESIAN_POINT('',(-6612.52803569137,-4988.43973230736,110.253053489031)
);
#454=CARTESIAN_POINT('',(-6612.49204588831,-4988.43973230736,110.819170521484)
);
#455=CARTESIAN_POINT('',(-6610.21559248065,-4988.43973230736,103.626951830113)
);
#456=CARTESIAN_POINT('',(-6610.36607527693,-4988.43973230736,105.599417361625)
);
#457=CARTESIAN_POINT('',(-6611.00997504823,-4988.43973230735,107.531958801299)
);
#458=CARTESIAN_POINT('',(-6612.07471705633,-4988.43973230736,109.199156134953)
);
#459=CARTESIAN_POINT('',(-6611.63954470954,-4988.43973230736,99.1952609816372)
);
#460=CARTESIAN_POINT('',(-6610.6074227137,-4988.43973230736,100.409686977247)
);
#461=CARTESIAN_POINT('',(-6610.08454831615,-4988.43973230735,102.038577270972)
);
#462=CARTESIAN_POINT('',(-6610.21559248065,-4988.43973230736,103.626951830113)
);
#463=CARTESIAN_POINT('',(-6611.63974012764,-4988.43973230736,97.4784416430517)
);
#464=CARTESIAN_POINT('',(-6611.6397723452,-4988.43973230736,98.0497966011433)
);
#465=CARTESIAN_POINT('',(-6611.63951249198,-4988.43973230736,98.6239060235457)
);
#466=CARTESIAN_POINT('',(-6611.63954470954,-4988.43973230736,99.1952609816372)
);
#467=CARTESIAN_POINT('',(-6609.74595906051,-4988.43973230736,95.3320718573495)
);
#468=CARTESIAN_POINT('',(-6609.72408999435,-4988.43973230737,96.3903671146856)
);
#469=CARTESIAN_POINT('',(-6610.58711996677,-4988.43973230735,97.3668266587742)
);
#470=CARTESIAN_POINT('',(-6611.63974012764,-4988.43973230736,97.4784416430517)
);
#471=CARTESIAN_POINT('',(-6609.31081705462,-4988.43973230736,0.778049518114723
));
#472=CARTESIAN_POINT('',(-6609.45586438991,-4988.43973230736,32.2960569645263)
);
#473=CARTESIAN_POINT('',(-6609.60091172521,-4988.43973230736,63.8140644109379)
);
#474=CARTESIAN_POINT('',(-6609.74595906051,-4988.43973230736,95.3320718573495)
);
#475=CARTESIAN_POINT('',(-6620.05621505687,-4988.43973230736,
-0.221939892637692));
#476=CARTESIAN_POINT('',(-6616.47441572278,-4988.43973230736,0.111389910946369
));
#477=CARTESIAN_POINT('',(-6612.8926163887,-4988.43973230736,0.444719714530663)
);
#478=CARTESIAN_POINT('',(-6609.31081705462,-4988.43973230736,0.778049518114723
));
#479=CARTESIAN_POINT('',(-6620.0562150534,-3488.43973230736,-0.221939891208801
));
#480=CARTESIAN_POINT('',(-6609.31081705115,-3488.43973230736,0.778049519543614
));
#481=CARTESIAN_POINT('',(-6609.74595905704,-3488.43973230736,95.3320718587784)
);
#482=CARTESIAN_POINT('',(-6609.72408999088,-3488.43973230737,96.3903671161145)
);
#483=CARTESIAN_POINT('',(-6610.5871199633,-3488.43973230735,97.3668266602031)
);
#484=CARTESIAN_POINT('',(-6611.63974012417,-3488.43973230736,97.4784416444806)
);
#485=CARTESIAN_POINT('',(-6611.63974012417,-3488.43973230736,97.4784416444806)
);
#486=CARTESIAN_POINT('',(-6611.63977234173,-3488.43973230736,98.0497966025722)
);
#487=CARTESIAN_POINT('',(-6611.63951248851,-3488.43973230736,98.6239060249746)
);
#488=CARTESIAN_POINT('',(-6611.63954470607,-3488.43973230736,99.1952609830661)
);
#489=CARTESIAN_POINT('',(-6611.63954470607,-3488.43973230736,99.1952609830661)
);
#490=CARTESIAN_POINT('',(-6610.60742271023,-3488.43973230736,100.409686978676)
);
#491=CARTESIAN_POINT('',(-6610.08454831268,-3488.43973230735,102.038577272401)
);
#492=CARTESIAN_POINT('',(-6610.21559247718,-3488.43973230736,103.626951831542)
);
#493=CARTESIAN_POINT('',(-6610.21559247718,-3488.43973230736,103.626951831542)
);
#494=CARTESIAN_POINT('',(-6610.36607527346,-3488.43973230736,105.599417363053)
);
#495=CARTESIAN_POINT('',(-6611.00997504477,-3488.43973230735,107.531958802728)
);
#496=CARTESIAN_POINT('',(-6612.07471705286,-3488.43973230736,109.199156136382)
);
#497=CARTESIAN_POINT('',(-6612.07471705286,-3488.43973230736,109.199156136382)
);
#498=CARTESIAN_POINT('',(-6612.38003981291,-3488.43973230736,109.677237481511)
);
#499=CARTESIAN_POINT('',(-6612.5280356879,-3488.43973230736,110.25305349046));
#500=CARTESIAN_POINT('',(-6612.49204588484,-3488.43973230736,110.819170522913)
);
#501=CARTESIAN_POINT('',(-6612.49204588484,-3488.43973230736,110.819170522913)
);
#502=CARTESIAN_POINT('',(-6612.3785043685,-3488.43973230737,112.605170468067)
);
#503=CARTESIAN_POINT('',(-6612.6714710086,-3488.43973230737,114.415951418596)
);
#504=CARTESIAN_POINT('',(-6613.34431649598,-3488.43973230736,116.074238322426)
);
#505=CARTESIAN_POINT('',(-6613.34431649598,-3488.43973230736,116.074238322426)
);
#506=CARTESIAN_POINT('',(-6613.64847210741,-3488.43973230735,116.823856587862)
);
#507=CARTESIAN_POINT('',(-6613.66730075614,-3488.43973230737,117.684122209546)
);
#508=CARTESIAN_POINT('',(-6613.39301997242,-3488.43973230736,118.445179521127)
);
#509=CARTESIAN_POINT('',(-6613.39301997242,-3488.43973230736,118.445179521127)
);
#510=CARTESIAN_POINT('',(-6612.93500733178,-3488.43973230736,119.687926141296)
);
#511=CARTESIAN_POINT('',(-6613.10727816849,-3488.43973230736,121.126159219407)
);
#512=CARTESIAN_POINT('',(-6613.81262622922,-3488.43973230736,122.241928689547)
);
#513=CARTESIAN_POINT('',(-6614.46913263716,-3488.43973230736,123.280436977448)
);
#514=CARTESIAN_POINT('',(-6615.57128509726,-3488.43973230736,124.025067108161)
);
#515=CARTESIAN_POINT('',(-6616.78889307762,-3488.43973230736,124.21609776636)
);
#516=CARTESIAN_POINT('',(-6616.78889307762,-3488.43973230736,124.21609776636)
);
#517=CARTESIAN_POINT('',(-6617.84784518774,-3488.43973230736,124.392589633172)
);
#518=CARTESIAN_POINT('',(-6618.90654401132,-3488.43973230736,124.570695919701)
);
#519=CARTESIAN_POINT('',(-6619.96549612145,-3488.43973230736,124.747187786513)
);
#520=CARTESIAN_POINT('',(-6619.96549612145,-3488.43973230736,124.747187786513)
);
#521=CARTESIAN_POINT('',(-6610.28991613047,-3488.43973230736,96.7602618540265)
);
#522=CARTESIAN_POINT('',(-6610.28991613394,-4988.43973230736,96.7602618525976)
);
#523=PRODUCT_DEFINITION_SHAPE('','',#524);
#524=PRODUCT_DEFINITION('','',#536,#541);
#525=(
GEOMETRIC_REPRESENTATION_CONTEXT(3)
GLOBAL_UNCERTAINTY_ASSIGNED_CONTEXT((#526))
GLOBAL_UNIT_ASSIGNED_CONTEXT((#528,#527,#531))
REPRESENTATION_CONTEXT('','')
);
#526=UNCERTAINTY_MEASURE_WITH_UNIT(LENGTH_MEASURE(0.001),#528,'','tolerance');
#527=(
CONVERSION_BASED_UNIT('',#529)
NAMED_UNIT(#535)
PLANE_ANGLE_UNIT()
);
#528=(
CONVERSION_BASED_UNIT('',#530)
LENGTH_UNIT()
NAMED_UNIT(#534)
);
#529=PLANE_ANGLE_MEASURE_WITH_UNIT(PLANE_ANGLE_MEASURE(0.0174532925199433),
#532);
#530=LENGTH_MEASURE_WITH_UNIT(LENGTH_MEASURE(1.),#533);
#531=(
NAMED_UNIT(*)
SI_UNIT($,.STERADIAN.)
SOLID_ANGLE_UNIT()
);
#532=(
NAMED_UNIT(*)
PLANE_ANGLE_UNIT()
SI_UNIT($,.RADIAN.)
);
#533=(
LENGTH_UNIT()
NAMED_UNIT(*)
SI_UNIT(.MILLI.,.METRE.)
);
#534=DIMENSIONAL_EXPONENTS(1.,0.,0.,0.,0.,0.,0.);
#535=DIMENSIONAL_EXPONENTS(0.,0.,0.,0.,0.,0.,0.);
#536=PRODUCT_DEFINITION_FORMATION_WITH_SPECIFIED_SOURCE('','',#539,.NOT_KNOWN.
);
#537=PRODUCT_CATEGORY_RELATIONSHIP('','',#542,#538);
#538=PRODUCT_RELATED_PRODUCT_CATEGORY('assembly','',(#539));
#539=PRODUCT('','master','',(#540));
#540=PRODUCT_CONTEXT('',#544,'');
#541=PRODUCT_DEFINITION_CONTEXT('',#544,'part_definition');
#542=PRODUCT_CATEGORY('part','');
#543=APPLICATION_PROTOCOL_DEFINITION('international standard',
'automotive_design_cc2',1994,#544);
#544=APPLICATION_CONTEXT(
'configuration controlled 3D designs of mechanical parts and assemblies');
ENDSEC;
END-ISO-10303-21;
33318