ISO-10303-21;
HEADER;
/* Generated by software using Delcam plc STEP library */

FILE_DESCRIPTION(
/* description */ ('AP-214 File'),
/* implementation_level */ '2;1');

FILE_NAME(
/* name */ 'PLIN08',
/* time_stamp */ 'Thu Nov 16 08:11:37 2017',
/* author */ (''),
/* organization */ (''),
/* preprocessor_version */ 'DELCAM STEP V1',
/* originating_system */ 'Exchange7.1.0006',
/* authorisation */ '');

FILE_SCHEMA (('AUTOMOTIVE_DESIGN'));
ENDSEC;
DATA;
#10=PRESENTATION_STYLE_ASSIGNMENT((#20));
#11=PRESENTATION_STYLE_ASSIGNMENT((#21));
#12=SURFACE_SIDE_STYLE('',(#14));
#13=SURFACE_SIDE_STYLE('',(#15));
#14=SURFACE_STYLE_FILL_AREA(#16);
#15=SURFACE_STYLE_FILL_AREA(#17);
#16=FILL_AREA_STYLE('',(#18));
#17=FILL_AREA_STYLE('',(#19));
#18=FILL_AREA_STYLE_COLOUR('',#39);
#19=FILL_AREA_STYLE_COLOUR('',#40);
#20=SURFACE_STYLE_USAGE(.BOTH.,#12);
#21=SURFACE_STYLE_USAGE(.BOTH.,#13);
#22=STYLED_ITEM('',(#10),#51);
#23=STYLED_ITEM('',(#10),#52);
#24=STYLED_ITEM('',(#10),#53);
#25=STYLED_ITEM('',(#10),#54);
#26=STYLED_ITEM('',(#10),#55);
#27=STYLED_ITEM('',(#10),#56);
#28=STYLED_ITEM('',(#10),#57);
#29=STYLED_ITEM('',(#10),#58);
#30=STYLED_ITEM('',(#10),#59);
#31=STYLED_ITEM('',(#10),#60);
#32=STYLED_ITEM('',(#10),#61);
#33=STYLED_ITEM('',(#10),#62);
#34=STYLED_ITEM('',(#10),#63);
#35=STYLED_ITEM('',(#10),#64);
#36=STYLED_ITEM('',(#10),#65);
#37=STYLED_ITEM('',(#10),#66);
#38=STYLED_ITEM('',(#11),#46);
#39=COLOUR_RGB('',0.,0.,0.);
#40=COLOUR_RGB('rgb_colour_1',0.4,0.4,0.4);
#41=MECHANICAL_DESIGN_GEOMETRIC_PRESENTATION_REPRESENTATION('',(#22,#23,#24,
#25,#26,#27,#28,#29,#30,#31,#32,#33,#34,#35,#36,#37,#38),#598);
#42=PRESENTATION_LAYER_ASSIGNMENT('0','General',(#51,#52,#53,#54,#55,#56,#57,
#58,#59,#60,#61,#62,#63,#64,#65,#66,#46));
#43=SHAPE_REPRESENTATION_RELATIONSHIP('','',#345,#44);
#44=ADVANCED_BREP_SHAPE_REPRESENTATION('',(#45),#598);
#45=MANIFOLD_SOLID_BREP('1',#46);
#46=CLOSED_SHELL('',(#51,#52,#53,#54,#55,#56,#57,#58,#59,#60,#61,#62,#63,#64,
#65,#66));
#47=PLANE('',#347);
#48=PLANE('',#348);
#49=PLANE('',#349);
#50=PLANE('',#350);
#51=ADVANCED_FACE('',(#67),#183,.T.);
#52=ADVANCED_FACE('',(#68),#184,.T.);
#53=ADVANCED_FACE('',(#69),#47,.T.);
#54=ADVANCED_FACE('',(#70),#48,.T.);
#55=ADVANCED_FACE('',(#71),#185,.T.);
#56=ADVANCED_FACE('',(#72),#186,.T.);
#57=ADVANCED_FACE('',(#73),#187,.T.);
#58=ADVANCED_FACE('',(#74),#188,.T.);
#59=ADVANCED_FACE('',(#75),#189,.T.);
#60=ADVANCED_FACE('',(#76),#190,.T.);
#61=ADVANCED_FACE('',(#77),#191,.T.);
#62=ADVANCED_FACE('',(#78),#192,.T.);
#63=ADVANCED_FACE('',(#79),#193,.T.);
#64=ADVANCED_FACE('',(#80),#194,.T.);
#65=ADVANCED_FACE('',(#81),#49,.T.);
#66=ADVANCED_FACE('',(#82),#50,.F.);
#67=FACE_OUTER_BOUND('',#83,.T.);
#68=FACE_OUTER_BOUND('',#84,.T.);
#69=FACE_OUTER_BOUND('',#85,.T.);
#70=FACE_OUTER_BOUND('',#86,.T.);
#71=FACE_OUTER_BOUND('',#87,.T.);
#72=FACE_OUTER_BOUND('',#88,.T.);
#73=FACE_OUTER_BOUND('',#89,.T.);
#74=FACE_OUTER_BOUND('',#90,.T.);
#75=FACE_OUTER_BOUND('',#91,.T.);
#76=FACE_OUTER_BOUND('',#92,.T.);
#77=FACE_OUTER_BOUND('',#93,.T.);
#78=FACE_OUTER_BOUND('',#94,.T.);
#79=FACE_OUTER_BOUND('',#95,.T.);
#80=FACE_OUTER_BOUND('',#96,.T.);
#81=FACE_OUTER_BOUND('',#97,.T.);
#82=FACE_OUTER_BOUND('',#98,.T.);
#83=EDGE_LOOP('',(#99,#100,#101,#102));
#84=EDGE_LOOP('',(#103,#104,#105,#106));
#85=EDGE_LOOP('',(#107,#108,#109,#110));
#86=EDGE_LOOP('',(#111,#112,#113,#114));
#87=EDGE_LOOP('',(#115,#116,#117,#118));
#88=EDGE_LOOP('',(#119,#120,#121,#122));
#89=EDGE_LOOP('',(#123,#124,#125,#126));
#90=EDGE_LOOP('',(#127,#128,#129,#130));
#91=EDGE_LOOP('',(#131,#132,#133,#134));
#92=EDGE_LOOP('',(#135,#136,#137,#138));
#93=EDGE_LOOP('',(#139,#140,#141,#142));
#94=EDGE_LOOP('',(#143,#144,#145,#146));
#95=EDGE_LOOP('',(#147,#148,#149,#150));
#96=EDGE_LOOP('',(#151,#152,#153,#154));
#97=EDGE_LOOP('',(#155,#156,#157,#158,#159,#160,#161,#162,#163,#164,#165,#166,
#167,#168));
#98=EDGE_LOOP('',(#169,#170,#171,#172,#173,#174,#175,#176,#177,#178,#179,#180,
#181,#182));
#99=ORIENTED_EDGE('',*,*,#274,.F.);
#100=ORIENTED_EDGE('',*,*,#246,.F.);
#101=ORIENTED_EDGE('',*,*,#260,.T.);
#102=ORIENTED_EDGE('',*,*,#233,.T.);
#103=ORIENTED_EDGE('',*,*,#273,.F.);
#104=ORIENTED_EDGE('',*,*,#233,.F.);
#105=ORIENTED_EDGE('',*,*,#259,.T.);
#106=ORIENTED_EDGE('',*,*,#234,.T.);
#107=ORIENTED_EDGE('',*,*,#272,.F.);
#108=ORIENTED_EDGE('',*,*,#234,.F.);
#109=ORIENTED_EDGE('',*,*,#258,.T.);
#110=ORIENTED_EDGE('',*,*,#235,.T.);
#111=ORIENTED_EDGE('',*,*,#271,.F.);
#112=ORIENTED_EDGE('',*,*,#235,.F.);
#113=ORIENTED_EDGE('',*,*,#257,.T.);
#114=ORIENTED_EDGE('',*,*,#236,.T.);
#115=ORIENTED_EDGE('',*,*,#270,.F.);
#116=ORIENTED_EDGE('',*,*,#236,.F.);
#117=ORIENTED_EDGE('',*,*,#256,.T.);
#118=ORIENTED_EDGE('',*,*,#237,.T.);
#119=ORIENTED_EDGE('',*,*,#269,.F.);
#120=ORIENTED_EDGE('',*,*,#237,.F.);
#121=ORIENTED_EDGE('',*,*,#255,.T.);
#122=ORIENTED_EDGE('',*,*,#238,.T.);
#123=ORIENTED_EDGE('',*,*,#268,.F.);
#124=ORIENTED_EDGE('',*,*,#238,.F.);
#125=ORIENTED_EDGE('',*,*,#254,.T.);
#126=ORIENTED_EDGE('',*,*,#239,.T.);
#127=ORIENTED_EDGE('',*,*,#267,.F.);
#128=ORIENTED_EDGE('',*,*,#239,.F.);
#129=ORIENTED_EDGE('',*,*,#253,.T.);
#130=ORIENTED_EDGE('',*,*,#240,.T.);
#131=ORIENTED_EDGE('',*,*,#266,.F.);
#132=ORIENTED_EDGE('',*,*,#240,.F.);
#133=ORIENTED_EDGE('',*,*,#252,.T.);
#134=ORIENTED_EDGE('',*,*,#241,.T.);
#135=ORIENTED_EDGE('',*,*,#265,.F.);
#136=ORIENTED_EDGE('',*,*,#241,.F.);
#137=ORIENTED_EDGE('',*,*,#251,.T.);
#138=ORIENTED_EDGE('',*,*,#242,.T.);
#139=ORIENTED_EDGE('',*,*,#264,.F.);
#140=ORIENTED_EDGE('',*,*,#242,.F.);
#141=ORIENTED_EDGE('',*,*,#250,.T.);
#142=ORIENTED_EDGE('',*,*,#243,.T.);
#143=ORIENTED_EDGE('',*,*,#263,.F.);
#144=ORIENTED_EDGE('',*,*,#243,.F.);
#145=ORIENTED_EDGE('',*,*,#249,.T.);
#146=ORIENTED_EDGE('',*,*,#244,.T.);
#147=ORIENTED_EDGE('',*,*,#262,.F.);
#148=ORIENTED_EDGE('',*,*,#244,.F.);
#149=ORIENTED_EDGE('',*,*,#248,.T.);
#150=ORIENTED_EDGE('',*,*,#245,.T.);
#151=ORIENTED_EDGE('',*,*,#261,.F.);
#152=ORIENTED_EDGE('',*,*,#245,.F.);
#153=ORIENTED_EDGE('',*,*,#247,.T.);
#154=ORIENTED_EDGE('',*,*,#246,.T.);
#155=ORIENTED_EDGE('',*,*,#260,.F.);
#156=ORIENTED_EDGE('',*,*,#247,.F.);
#157=ORIENTED_EDGE('',*,*,#248,.F.);
#158=ORIENTED_EDGE('',*,*,#249,.F.);
#159=ORIENTED_EDGE('',*,*,#250,.F.);
#160=ORIENTED_EDGE('',*,*,#251,.F.);
#161=ORIENTED_EDGE('',*,*,#252,.F.);
#162=ORIENTED_EDGE('',*,*,#253,.F.);
#163=ORIENTED_EDGE('',*,*,#254,.F.);
#164=ORIENTED_EDGE('',*,*,#255,.F.);
#165=ORIENTED_EDGE('',*,*,#256,.F.);
#166=ORIENTED_EDGE('',*,*,#257,.F.);
#167=ORIENTED_EDGE('',*,*,#258,.F.);
#168=ORIENTED_EDGE('',*,*,#259,.F.);
#169=ORIENTED_EDGE('',*,*,#274,.T.);
#170=ORIENTED_EDGE('',*,*,#273,.T.);
#171=ORIENTED_EDGE('',*,*,#272,.T.);
#172=ORIENTED_EDGE('',*,*,#271,.T.);
#173=ORIENTED_EDGE('',*,*,#270,.T.);
#174=ORIENTED_EDGE('',*,*,#269,.T.);
#175=ORIENTED_EDGE('',*,*,#268,.T.);
#176=ORIENTED_EDGE('',*,*,#267,.T.);
#177=ORIENTED_EDGE('',*,*,#266,.T.);
#178=ORIENTED_EDGE('',*,*,#265,.T.);
#179=ORIENTED_EDGE('',*,*,#264,.T.);
#180=ORIENTED_EDGE('',*,*,#263,.T.);
#181=ORIENTED_EDGE('',*,*,#262,.T.);
#182=ORIENTED_EDGE('',*,*,#261,.T.);
#183=SURFACE_OF_LINEAR_EXTRUSION('',#304,#221);
#184=SURFACE_OF_LINEAR_EXTRUSION('',#305,#222);
#185=SURFACE_OF_LINEAR_EXTRUSION('',#306,#223);
#186=SURFACE_OF_LINEAR_EXTRUSION('',#307,#224);
#187=SURFACE_OF_LINEAR_EXTRUSION('',#308,#225);
#188=SURFACE_OF_LINEAR_EXTRUSION('',#309,#226);
#189=SURFACE_OF_LINEAR_EXTRUSION('',#310,#227);
#190=SURFACE_OF_LINEAR_EXTRUSION('',#311,#228);
#191=SURFACE_OF_LINEAR_EXTRUSION('',#312,#229);
#192=SURFACE_OF_LINEAR_EXTRUSION('',#313,#230);
#193=SURFACE_OF_LINEAR_EXTRUSION('',#314,#231);
#194=SURFACE_OF_LINEAR_EXTRUSION('',#315,#232);
#195=LINE('',#419,#208);
#196=LINE('',#420,#209);
#197=LINE('',#421,#210);
#198=LINE('',#422,#211);
#199=LINE('',#423,#212);
#200=LINE('',#424,#213);
#201=LINE('',#425,#214);
#202=LINE('',#426,#215);
#203=LINE('',#427,#216);
#204=LINE('',#428,#217);
#205=LINE('',#429,#218);
#206=LINE('',#430,#219);
#207=LINE('',#431,#220);
#208=VECTOR('',#353,1.);
#209=VECTOR('',#354,1.);
#210=VECTOR('',#355,1.);
#211=VECTOR('',#356,1.);
#212=VECTOR('',#357,1.);
#213=VECTOR('',#358,1.);
#214=VECTOR('',#359,1.);
#215=VECTOR('',#360,1.);
#216=VECTOR('',#361,1.);
#217=VECTOR('',#362,1.);
#218=VECTOR('',#363,1.);
#219=VECTOR('',#364,1.);
#220=VECTOR('',#365,1.);
#221=VECTOR('',#366,1.);
#222=VECTOR('',#367,1.);
#223=VECTOR('',#372,1.);
#224=VECTOR('',#373,1.);
#225=VECTOR('',#374,1.);
#226=VECTOR('',#375,1.);
#227=VECTOR('',#376,1.);
#228=VECTOR('',#377,1.);
#229=VECTOR('',#378,1.);
#230=VECTOR('',#379,1.);
#231=VECTOR('',#380,1.);
#232=VECTOR('',#381,1.);
#233=EDGE_CURVE('',#329,#343,#275,.F.);
#234=EDGE_CURVE('',#328,#342,#195,.T.);
#235=EDGE_CURVE('',#327,#341,#196,.T.);
#236=EDGE_CURVE('',#326,#340,#197,.T.);
#237=EDGE_CURVE('',#325,#339,#198,.T.);
#238=EDGE_CURVE('',#324,#338,#199,.T.);
#239=EDGE_CURVE('',#323,#337,#200,.T.);
#240=EDGE_CURVE('',#322,#336,#201,.T.);
#241=EDGE_CURVE('',#321,#335,#202,.T.);
#242=EDGE_CURVE('',#320,#334,#203,.T.);
#243=EDGE_CURVE('',#319,#333,#204,.T.);
#244=EDGE_CURVE('',#318,#332,#205,.T.);
#245=EDGE_CURVE('',#317,#331,#206,.T.);
#246=EDGE_CURVE('',#316,#330,#207,.T.);
#247=EDGE_CURVE('',#317,#316,#276,.T.);
#248=EDGE_CURVE('',#318,#317,#277,.T.);
#249=EDGE_CURVE('',#319,#318,#278,.T.);
#250=EDGE_CURVE('',#320,#319,#279,.T.);
#251=EDGE_CURVE('',#321,#320,#280,.T.);
#252=EDGE_CURVE('',#322,#321,#281,.T.);
#253=EDGE_CURVE('',#323,#322,#282,.T.);
#254=EDGE_CURVE('',#324,#323,#283,.T.);
#255=EDGE_CURVE('',#325,#324,#284,.T.);
#256=EDGE_CURVE('',#326,#325,#285,.T.);
#257=EDGE_CURVE('',#327,#326,#286,.T.);
#258=EDGE_CURVE('',#328,#327,#287,.T.);
#259=EDGE_CURVE('',#329,#328,#288,.T.);
#260=EDGE_CURVE('',#316,#329,#289,.T.);
#261=EDGE_CURVE('',#331,#330,#290,.T.);
#262=EDGE_CURVE('',#332,#331,#291,.T.);
#263=EDGE_CURVE('',#333,#332,#292,.T.);
#264=EDGE_CURVE('',#334,#333,#293,.T.);
#265=EDGE_CURVE('',#335,#334,#294,.T.);
#266=EDGE_CURVE('',#336,#335,#295,.T.);
#267=EDGE_CURVE('',#337,#336,#296,.T.);
#268=EDGE_CURVE('',#338,#337,#297,.T.);
#269=EDGE_CURVE('',#339,#338,#298,.T.);
#270=EDGE_CURVE('',#340,#339,#299,.T.);
#271=EDGE_CURVE('',#341,#340,#300,.T.);
#272=EDGE_CURVE('',#342,#341,#301,.T.);
#273=EDGE_CURVE('',#343,#342,#302,.T.);
#274=EDGE_CURVE('',#330,#343,#303,.T.);
#275=B_SPLINE_CURVE_WITH_KNOTS('',3,(#415,#416,#417,#418),.UNSPECIFIED.,.F.,
.F.,(4,4),(0.,1.),.UNSPECIFIED.);
#276=B_SPLINE_CURVE_WITH_KNOTS('',3,(#432,#433,#434,#435),.UNSPECIFIED.,.F.,
.F.,(4,4),(0.,1.),.UNSPECIFIED.);
#277=B_SPLINE_CURVE_WITH_KNOTS('',3,(#436,#437,#438,#439),.UNSPECIFIED.,.F.,
.F.,(4,4),(0.,1.),.UNSPECIFIED.);
#278=B_SPLINE_CURVE_WITH_KNOTS('',3,(#440,#441,#442,#443),.UNSPECIFIED.,.F.,
.F.,(4,4),(0.,1.),.UNSPECIFIED.);
#279=B_SPLINE_CURVE_WITH_KNOTS('',3,(#444,#445,#446,#447),.UNSPECIFIED.,.F.,
.F.,(4,4),(0.,1.),.UNSPECIFIED.);
#280=B_SPLINE_CURVE_WITH_KNOTS('',3,(#448,#449,#450,#451),.UNSPECIFIED.,.F.,
.F.,(4,4),(0.,1.),.UNSPECIFIED.);
#281=B_SPLINE_CURVE_WITH_KNOTS('',3,(#452,#453,#454,#455),.UNSPECIFIED.,.F.,
.F.,(4,4),(0.,1.),.UNSPECIFIED.);
#282=B_SPLINE_CURVE_WITH_KNOTS('',3,(#456,#457,#458,#459),.UNSPECIFIED.,.F.,
.F.,(4,4),(0.,1.),.UNSPECIFIED.);
#283=B_SPLINE_CURVE_WITH_KNOTS('',3,(#460,#461,#462,#463),.UNSPECIFIED.,.F.,
.F.,(4,4),(0.,1.),.UNSPECIFIED.);
#284=B_SPLINE_CURVE_WITH_KNOTS('',3,(#464,#465,#466,#467),.UNSPECIFIED.,.F.,
.F.,(4,4),(0.,1.),.UNSPECIFIED.);
#285=B_SPLINE_CURVE_WITH_KNOTS('',3,(#468,#469,#470,#471),.UNSPECIFIED.,.F.,
.F.,(4,4),(0.,1.),.UNSPECIFIED.);
#286=B_SPLINE_CURVE_WITH_KNOTS('',3,(#472,#473,#474,#475),.UNSPECIFIED.,.F.,
.F.,(4,4),(0.,1.),.UNSPECIFIED.);
#287=B_SPLINE_CURVE_WITH_KNOTS('',3,(#476,#477,#478,#479),.UNSPECIFIED.,.F.,
.F.,(4,4),(0.,1.),.UNSPECIFIED.);
#288=B_SPLINE_CURVE_WITH_KNOTS('',3,(#480,#481,#482,#483),.UNSPECIFIED.,.F.,
.F.,(4,4),(0.,1.),.UNSPECIFIED.);
#289=B_SPLINE_CURVE_WITH_KNOTS('',3,(#484,#485,#486,#487),.UNSPECIFIED.,.F.,
.F.,(4,4),(0.,1.),.UNSPECIFIED.);
#290=B_SPLINE_CURVE_WITH_KNOTS('',3,(#488,#489,#490,#491),.UNSPECIFIED.,.F.,
.F.,(4,4),(0.,1.),.UNSPECIFIED.);
#291=B_SPLINE_CURVE_WITH_KNOTS('',3,(#492,#493,#494,#495),.UNSPECIFIED.,.F.,
.F.,(4,4),(0.,1.),.UNSPECIFIED.);
#292=B_SPLINE_CURVE_WITH_KNOTS('',3,(#496,#497,#498,#499),.UNSPECIFIED.,.F.,
.F.,(4,4),(0.,1.),.UNSPECIFIED.);
#293=B_SPLINE_CURVE_WITH_KNOTS('',3,(#500,#501,#502,#503),.UNSPECIFIED.,.F.,
.F.,(4,4),(0.,1.),.UNSPECIFIED.);
#294=B_SPLINE_CURVE_WITH_KNOTS('',3,(#504,#505,#506,#507),.UNSPECIFIED.,.F.,
.F.,(4,4),(0.,1.),.UNSPECIFIED.);
#295=B_SPLINE_CURVE_WITH_KNOTS('',3,(#508,#509,#510,#511),.UNSPECIFIED.,.F.,
.F.,(4,4),(0.,1.),.UNSPECIFIED.);
#296=B_SPLINE_CURVE_WITH_KNOTS('',3,(#512,#513,#514,#515),.UNSPECIFIED.,.F.,
.F.,(4,4),(0.,1.),.UNSPECIFIED.);
#297=B_SPLINE_CURVE_WITH_KNOTS('',3,(#516,#517,#518,#519),.UNSPECIFIED.,.F.,
.F.,(4,4),(0.,1.),.UNSPECIFIED.);
#298=B_SPLINE_CURVE_WITH_KNOTS('',3,(#520,#521,#522,#523),.UNSPECIFIED.,.F.,
.F.,(4,4),(0.,1.),.UNSPECIFIED.);
#299=B_SPLINE_CURVE_WITH_KNOTS('',3,(#524,#525,#526,#527),.UNSPECIFIED.,.F.,
.F.,(4,4),(0.,1.),.UNSPECIFIED.);
#300=B_SPLINE_CURVE_WITH_KNOTS('',3,(#528,#529,#530,#531),.UNSPECIFIED.,.F.,
.F.,(4,4),(0.,1.),.UNSPECIFIED.);
#301=B_SPLINE_CURVE_WITH_KNOTS('',3,(#532,#533,#534,#535),.UNSPECIFIED.,.F.,
.F.,(4,4),(0.,1.),.UNSPECIFIED.);
#302=B_SPLINE_CURVE_WITH_KNOTS('',3,(#536,#537,#538,#539),.UNSPECIFIED.,.F.,
.F.,(4,4),(0.,1.),.UNSPECIFIED.);
#303=B_SPLINE_CURVE_WITH_KNOTS('',3,(#540,#541,#542,#543),.UNSPECIFIED.,.F.,
.F.,(4,4),(0.,1.),.UNSPECIFIED.);
#304=B_SPLINE_CURVE_WITH_KNOTS('',3,(#544,#545,#546,#547),.UNSPECIFIED.,.F.,
.F.,(4,4),(0.,1.),.UNSPECIFIED.);
#305=B_SPLINE_CURVE_WITH_KNOTS('',3,(#548,#549,#550,#551),.UNSPECIFIED.,.F.,
.F.,(4,4),(0.,1.),.UNSPECIFIED.);
#306=B_SPLINE_CURVE_WITH_KNOTS('',3,(#554,#555,#556,#557),.UNSPECIFIED.,.F.,
.F.,(4,4),(0.,1.),.UNSPECIFIED.);
#307=B_SPLINE_CURVE_WITH_KNOTS('',3,(#558,#559,#560,#561),.UNSPECIFIED.,.F.,
.F.,(4,4),(0.,1.),.UNSPECIFIED.);
#308=B_SPLINE_CURVE_WITH_KNOTS('',3,(#562,#563,#564,#565),.UNSPECIFIED.,.F.,
.F.,(4,4),(0.,1.),.UNSPECIFIED.);
#309=B_SPLINE_CURVE_WITH_KNOTS('',3,(#566,#567,#568,#569),.UNSPECIFIED.,.F.,
.F.,(4,4),(0.,1.),.UNSPECIFIED.);
#310=B_SPLINE_CURVE_WITH_KNOTS('',3,(#570,#571,#572,#573),.UNSPECIFIED.,.F.,
.F.,(4,4),(0.,1.),.UNSPECIFIED.);
#311=B_SPLINE_CURVE_WITH_KNOTS('',3,(#574,#575,#576,#577),.UNSPECIFIED.,.F.,
.F.,(4,4),(0.,1.),.UNSPECIFIED.);
#312=B_SPLINE_CURVE_WITH_KNOTS('',3,(#578,#579,#580,#581),.UNSPECIFIED.,.F.,
.F.,(4,4),(0.,1.),.UNSPECIFIED.);
#313=B_SPLINE_CURVE_WITH_KNOTS('',3,(#582,#583,#584,#585),.UNSPECIFIED.,.F.,
.F.,(4,4),(0.,1.),.UNSPECIFIED.);
#314=B_SPLINE_CURVE_WITH_KNOTS('',3,(#586,#587,#588,#589),.UNSPECIFIED.,.F.,
.F.,(4,4),(0.,1.),.UNSPECIFIED.);
#315=B_SPLINE_CURVE_WITH_KNOTS('',3,(#590,#591,#592,#593),.UNSPECIFIED.,.F.,
.F.,(4,4),(0.,1.),.UNSPECIFIED.);
#316=VERTEX_POINT('',#387);
#317=VERTEX_POINT('',#388);
#318=VERTEX_POINT('',#389);
#319=VERTEX_POINT('',#390);
#320=VERTEX_POINT('',#391);
#321=VERTEX_POINT('',#392);
#322=VERTEX_POINT('',#393);
#323=VERTEX_POINT('',#394);
#324=VERTEX_POINT('',#395);
#325=VERTEX_POINT('',#396);
#326=VERTEX_POINT('',#397);
#327=VERTEX_POINT('',#398);
#328=VERTEX_POINT('',#399);
#329=VERTEX_POINT('',#400);
#330=VERTEX_POINT('',#401);
#331=VERTEX_POINT('',#402);
#332=VERTEX_POINT('',#403);
#333=VERTEX_POINT('',#404);
#334=VERTEX_POINT('',#405);
#335=VERTEX_POINT('',#406);
#336=VERTEX_POINT('',#407);
#337=VERTEX_POINT('',#408);
#338=VERTEX_POINT('',#409);
#339=VERTEX_POINT('',#410);
#340=VERTEX_POINT('',#411);
#341=VERTEX_POINT('',#412);
#342=VERTEX_POINT('',#413);
#343=VERTEX_POINT('',#414);
#344=SHAPE_DEFINITION_REPRESENTATION(#596,#345);
#345=SHAPE_REPRESENTATION('master',(#346),#598);
#346=AXIS2_PLACEMENT_3D('',#386,#352,#351);
#347=AXIS2_PLACEMENT_3D('',#552,#369,#368);
#348=AXIS2_PLACEMENT_3D('',#553,#371,#370);
#349=AXIS2_PLACEMENT_3D('',#594,#383,#382);
#350=AXIS2_PLACEMENT_3D('',#595,#385,#384);
#351=DIRECTION('',(1.,0.,0.));
#352=DIRECTION('',(0.,0.,1.));
#353=DIRECTION('',(2.88091657387043E-013,-1.,-3.01479173094369E-014));
#354=DIRECTION('',(2.88091657387043E-013,-1.,-3.01479173094369E-014));
#355=DIRECTION('',(2.88091657387043E-013,-1.,-3.01479173094369E-014));
#356=DIRECTION('',(2.88091657387043E-013,-1.,-3.01479173094369E-014));
#357=DIRECTION('',(2.88091657387043E-013,-1.,-3.01479173094369E-014));
#358=DIRECTION('',(2.88091657387043E-013,-1.,-3.01479173094369E-014));
#359=DIRECTION('',(2.88091657387043E-013,-1.,-3.01479173094369E-014));
#360=DIRECTION('',(2.88091657387043E-013,-1.,-3.01479173094369E-014));
#361=DIRECTION('',(2.88091657387043E-013,-1.,-3.01479173094369E-014));
#362=DIRECTION('',(2.88091657387043E-013,-1.,-3.01479173094369E-014));
#363=DIRECTION('',(2.88091657387043E-013,-1.,-3.01479173094369E-014));
#364=DIRECTION('',(2.88091657387043E-013,-1.,-3.01479173094369E-014));
#365=DIRECTION('',(2.88091657387043E-013,-1.,-3.01479173094369E-014));
#366=DIRECTION('',(2.88091657387043E-013,-1.,-3.01479173094369E-014));
#367=DIRECTION('',(2.88091657387043E-013,-1.,-3.01479173094369E-014));
#368=DIRECTION('',(-0.994832862314506,7.88860905221012E-031,-0.101526233354378
));
#369=DIRECTION('',(0.101526233354378,5.92409997050946E-014,-0.994832862314506)
);
#370=DIRECTION('',(0.0052401027188078,0.,-0.9999862705675));
#371=DIRECTION('',(0.9999862705675,2.87929723868619E-013,0.0052401027188078));
#372=DIRECTION('',(2.88091657387043E-013,-1.,-3.01479173094369E-014));
#373=DIRECTION('',(2.88091657387043E-013,-1.,-3.01479173094369E-014));
#374=DIRECTION('',(2.88091657387043E-013,-1.,-3.01479173094369E-014));
#375=DIRECTION('',(2.88091657387043E-013,-1.,-3.01479173094369E-014));
#376=DIRECTION('',(2.88091657387043E-013,-1.,-3.01479173094369E-014));
#377=DIRECTION('',(2.88091657387043E-013,-1.,-3.01479173094369E-014));
#378=DIRECTION('',(2.88091657387043E-013,-1.,-3.01479173094369E-014));
#379=DIRECTION('',(2.88091657387043E-013,-1.,-3.01479173094369E-014));
#380=DIRECTION('',(2.88091657387043E-013,-1.,-3.01479173094369E-014));
#381=DIRECTION('',(2.88091657387043E-013,-1.,-3.01479173094369E-014));
#382=DIRECTION('',(0.,-0.,1.));
#383=DIRECTION('',(0.,1.,0.));
#384=DIRECTION('',(0.,-0.,1.));
#385=DIRECTION('',(0.,1.,0.));
#386=CARTESIAN_POINT('',(0.,0.,0.));
#387=CARTESIAN_POINT('',(-6558.65100112422,-3488.43973230736,81.2826036357238)
);
#388=CARTESIAN_POINT('',(-6555.90140967703,-3488.43973230736,78.0499566399786)
);
#389=CARTESIAN_POINT('',(-6556.16879239971,-3488.43973230736,75.951697813852)
);
#390=CARTESIAN_POINT('',(-6556.29921760792,-3488.43973230736,75.6998056100262)
);
#391=CARTESIAN_POINT('',(-6556.13564867913,-3488.43973230736,75.5107401468782)
);
#392=CARTESIAN_POINT('',(-6555.20771889097,-3488.43973230736,73.0929996579173)
);
#393=CARTESIAN_POINT('',(-6554.69116576367,-3488.43973230736,70.7148157160292)
);
#394=CARTESIAN_POINT('',(-6552.93038883412,-3488.43973230736,66.5845765441889)
);
#395=CARTESIAN_POINT('',(-6553.69493269035,-3488.43973230736,62.2641156956123)
);
#396=CARTESIAN_POINT('',(-6553.66217980468,-3488.43973230736,61.5093679915343)
);
#397=CARTESIAN_POINT('',(-6552.31033104412,-3488.43973230736,58.500669206325)
);
#398=CARTESIAN_POINT('',(-6552.01548902325,-3488.43973230736,2.23498345833315)
);
#399=CARTESIAN_POINT('',(-6561.81413092058,-3488.43973230736,1.2349971877654)
);
#400=CARTESIAN_POINT('',(-6561.81353702693,-3488.43973230736,82.1307512517455)
);
#401=CARTESIAN_POINT('',(-6558.65100112378,-4988.43973230736,81.2826036356786)
);
#402=CARTESIAN_POINT('',(-6555.9014096766,-4988.43973230736,78.0499566399334)
);
#403=CARTESIAN_POINT('',(-6556.16879239928,-4988.43973230736,75.9516978138067)
);
#404=CARTESIAN_POINT('',(-6556.29921760749,-4988.43973230736,75.699805609981)
);
#405=CARTESIAN_POINT('',(-6556.1356486787,-4988.43973230736,75.510740146833));
#406=CARTESIAN_POINT('',(-6555.20771889054,-4988.43973230736,73.092999657872)
);
#407=CARTESIAN_POINT('',(-6554.69116576323,-4988.43973230736,70.7148157159839)
);
#408=CARTESIAN_POINT('',(-6552.93038883369,-4988.43973230736,66.5845765441437)
);
#409=CARTESIAN_POINT('',(-6553.69493268992,-4988.43973230736,62.2641156955671)
);
#410=CARTESIAN_POINT('',(-6553.66217980425,-4988.43973230736,61.5093679914891)
);
#411=CARTESIAN_POINT('',(-6552.31033104369,-4988.43973230736,58.5006692062798)
);
#412=CARTESIAN_POINT('',(-6552.01548902282,-4988.43973230736,2.23498345828793)
);
#413=CARTESIAN_POINT('',(-6561.81413092014,-4988.43973230736,1.23499718772018)
);
#414=CARTESIAN_POINT('',(-6561.8135370265,-4988.43973230736,82.1307512517003)
);
#415=CARTESIAN_POINT('',(-6561.81353786291,-4988.43973230736,82.130745186536)
);
#416=CARTESIAN_POINT('',(-6561.81353786305,-4488.43973230736,82.130745186551)
);
#417=CARTESIAN_POINT('',(-6561.8135378632,-3988.43973230736,82.1307451865661)
);
#418=CARTESIAN_POINT('',(-6561.81353786334,-3488.43973230736,82.1307451865812)
);
#419=CARTESIAN_POINT('',(-6561.81413092058,-3488.43973230736,1.2349971877654)
);
#420=CARTESIAN_POINT('',(-6552.01548902325,-3488.43973230736,2.23498345833315)
);
#421=CARTESIAN_POINT('',(-6552.31033104412,-3488.43973230736,58.500669206325)
);
#422=CARTESIAN_POINT('',(-6553.66217980468,-3488.43973230736,61.5093679915343)
);
#423=CARTESIAN_POINT('',(-6553.69493269035,-3488.43973230736,62.2641156956123)
);
#424=CARTESIAN_POINT('',(-6552.93038883412,-3488.43973230736,66.5845765441889)
);
#425=CARTESIAN_POINT('',(-6554.69116576367,-3488.43973230736,70.7148157160292)
);
#426=CARTESIAN_POINT('',(-6555.20771889097,-3488.43973230736,73.0929996579173)
);
#427=CARTESIAN_POINT('',(-6556.13564867913,-3488.43973230736,75.5107401468782)
);
#428=CARTESIAN_POINT('',(-6556.29921760792,-3488.43973230736,75.6998056100262)
);
#429=CARTESIAN_POINT('',(-6556.16879239971,-3488.43973230736,75.951697813852)
);
#430=CARTESIAN_POINT('',(-6555.90140967703,-3488.43973230736,78.0499566399786)
);
#431=CARTESIAN_POINT('',(-6558.65100112422,-3488.43973230736,81.2826036357238)
);
#432=CARTESIAN_POINT('',(-6555.90140967703,-3488.43973230736,78.0499566399786)
);
#433=CARTESIAN_POINT('',(-6556.21630118524,-3488.43973230736,79.4917821092137)
);
#434=CARTESIAN_POINT('',(-6557.27870679506,-3488.43973230736,80.7396251649214)
);
#435=CARTESIAN_POINT('',(-6558.65100112422,-3488.43973230736,81.2826036357238)
);
#436=CARTESIAN_POINT('',(-6556.16879239971,-3488.43973230736,75.951697813852)
);
#437=CARTESIAN_POINT('',(-6555.83564633561,-3488.43973230736,76.5904972198371)
);
#438=CARTESIAN_POINT('',(-6555.73895065785,-3488.43973230735,77.3480606019516)
);
#439=CARTESIAN_POINT('',(-6555.90140967703,-3488.43973230736,78.0499566399786)
);
#440=CARTESIAN_POINT('',(-6556.29921760792,-3488.43973230736,75.6998056100262)
);
#441=CARTESIAN_POINT('',(-6556.25574253852,-3488.43973230736,75.7837696779681)
);
#442=CARTESIAN_POINT('',(-6556.21251435383,-3488.43973230736,75.8678620393107)
);
#443=CARTESIAN_POINT('',(-6556.16879239971,-3488.43973230736,75.951697813852)
);
#444=CARTESIAN_POINT('',(-6556.13564867913,-3488.43973230736,75.5107401468782)
);
#445=CARTESIAN_POINT('',(-6556.19045617803,-3488.43973230736,75.573514206089)
);
#446=CARTESIAN_POINT('',(-6556.24463204544,-3488.43973230736,75.6368384692738)
);
#447=CARTESIAN_POINT('',(-6556.29921760792,-3488.43973230736,75.6998056100262)
);
#448=CARTESIAN_POINT('',(-6555.20771889097,-3488.43973230736,73.0929996579173)
);
#449=CARTESIAN_POINT('',(-6555.22201009533,-3488.43973230736,73.974510114224)
);
#450=CARTESIAN_POINT('',(-6555.5558118932,-3488.43973230736,74.8466210123975)
);
#451=CARTESIAN_POINT('',(-6556.13564867913,-3488.43973230736,75.5107401468782)
);
#452=CARTESIAN_POINT('',(-6554.69116576367,-3488.43973230736,70.7148157160292)
);
#453=CARTESIAN_POINT('',(-6555.01624581072,-3488.43973230736,71.4637828734649)
);
#454=CARTESIAN_POINT('',(-6555.19448381788,-3488.43973230736,72.2766335190157)
);
#455=CARTESIAN_POINT('',(-6555.20771889097,-3488.43973230736,73.0929996579173)
);
#456=CARTESIAN_POINT('',(-6552.93038883412,-3488.43973230736,66.5845765441889)
);
#457=CARTESIAN_POINT('',(-6553.51005880578,-3488.43973230736,67.9643953150917)
);
#458=CARTESIAN_POINT('',(-6554.09527831341,-3488.43973230736,69.3419226891673)
);
#459=CARTESIAN_POINT('',(-6554.69116576367,-3488.43973230736,70.7148157160292)
);
#460=CARTESIAN_POINT('',(-6553.69493269035,-3488.43973230736,62.2641156956123)
);
#461=CARTESIAN_POINT('',(-6552.61877650411,-3488.43973230736,63.3886543968236)
);
#462=CARTESIAN_POINT('',(-6552.30724731909,-3488.43973230736,65.1582546731348)
);
#463=CARTESIAN_POINT('',(-6552.93038883412,-3488.43973230736,66.5845765441889)
);
#464=CARTESIAN_POINT('',(-6553.66217980468,-3488.43973230736,61.5093679915343)
);
#465=CARTESIAN_POINT('',(-6553.88182509534,-3488.43973230736,61.6941583864362)
);
#466=CARTESIAN_POINT('',(-6553.89714336418,-3488.43973230736,62.0603943487398)
);
#467=CARTESIAN_POINT('',(-6553.69493269035,-3488.43973230736,62.2641156956123)
);
#468=CARTESIAN_POINT('',(-6552.31033104412,-3488.43973230736,58.500669206325)
);
#469=CARTESIAN_POINT('',(-6552.30962926183,-3488.43973230736,59.634914933314)
);
#470=CARTESIAN_POINT('',(-6552.81395601846,-3488.43973230736,60.756353868037)
);
#471=CARTESIAN_POINT('',(-6553.66217980468,-3488.43973230736,61.5093679915343)
);
#472=CARTESIAN_POINT('',(-6552.01548902325,-3488.43973230736,2.23498345833315)
);
#473=CARTESIAN_POINT('',(-6552.11376969687,-3488.43973230736,20.9902120409972)
);
#474=CARTESIAN_POINT('',(-6552.2120503705,-3488.43973230736,39.745440623661));
#475=CARTESIAN_POINT('',(-6552.31033104412,-3488.43973230736,58.500669206325)
);
#476=CARTESIAN_POINT('',(-6561.81413092058,-3488.43973230736,1.2349971877654)
);
#477=CARTESIAN_POINT('',(-6558.54791695482,-3488.43973230736,1.56832594462128)
);
#478=CARTESIAN_POINT('',(-6555.281702989,-3488.43973230736,1.90165470147728));
#479=CARTESIAN_POINT('',(-6552.01548902325,-3488.43973230736,2.23498345833315)
);
#480=CARTESIAN_POINT('',(-6561.81353619052,-3488.43973230736,82.1307573169099)
);
#481=CARTESIAN_POINT('',(-6561.8135362018,-3488.43973230736,55.1655039391302)
);
#482=CARTESIAN_POINT('',(-6561.81413090929,-3488.43973230736,28.2002505655451)
);
#483=CARTESIAN_POINT('',(-6561.81413092058,-3488.43973230736,1.2349971877654)
);
#484=CARTESIAN_POINT('',(-6558.65100112422,-3488.43973230736,81.2826036357238)
);
#485=CARTESIAN_POINT('',(-6559.66479906365,-3488.43973230736,81.694628920445)
);
#486=CARTESIAN_POINT('',(-6560.72946999152,-3488.43973230736,81.9812528906696)
);
#487=CARTESIAN_POINT('',(-6561.81353786334,-3488.43973230736,82.1307451865812)
);
#488=CARTESIAN_POINT('',(-6555.9014096766,-4988.43973230736,78.0499566399334)
);
#489=CARTESIAN_POINT('',(-6556.2163011848,-4988.43973230736,79.4917821091684)
);
#490=CARTESIAN_POINT('',(-6557.27870679463,-4988.43973230736,80.7396251648762)
);
#491=CARTESIAN_POINT('',(-6558.65100112378,-4988.43973230736,81.2826036356786)
);
#492=CARTESIAN_POINT('',(-6556.16879239928,-4988.43973230736,75.9516978138067)
);
#493=CARTESIAN_POINT('',(-6555.83564633518,-4988.43973230736,76.5904972197919)
);
#494=CARTESIAN_POINT('',(-6555.73895065742,-4988.43973230735,77.3480606019064)
);
#495=CARTESIAN_POINT('',(-6555.9014096766,-4988.43973230736,78.0499566399334)
);
#496=CARTESIAN_POINT('',(-6556.29921760749,-4988.43973230736,75.699805609981)
);
#497=CARTESIAN_POINT('',(-6556.25574253808,-4988.43973230736,75.7837696779228)
);
#498=CARTESIAN_POINT('',(-6556.2125143534,-4988.43973230736,75.8678620392654)
);
#499=CARTESIAN_POINT('',(-6556.16879239928,-4988.43973230736,75.9516978138067)
);
#500=CARTESIAN_POINT('',(-6556.1356486787,-4988.43973230736,75.510740146833));
#501=CARTESIAN_POINT('',(-6556.19045617759,-4988.43973230736,75.5735142060437)
);
#502=CARTESIAN_POINT('',(-6556.24463204501,-4988.43973230736,75.6368384692286)
);
#503=CARTESIAN_POINT('',(-6556.29921760749,-4988.43973230736,75.699805609981)
);
#504=CARTESIAN_POINT('',(-6555.20771889054,-4988.43973230736,73.092999657872)
);
#505=CARTESIAN_POINT('',(-6555.2220100949,-4988.43973230736,73.9745101141788)
);
#506=CARTESIAN_POINT('',(-6555.55581189277,-4988.43973230736,74.8466210123523)
);
#507=CARTESIAN_POINT('',(-6556.1356486787,-4988.43973230736,75.510740146833));
#508=CARTESIAN_POINT('',(-6554.69116576323,-4988.43973230736,70.7148157159839)
);
#509=CARTESIAN_POINT('',(-6555.01624581029,-4988.43973230736,71.4637828734197)
);
#510=CARTESIAN_POINT('',(-6555.19448381745,-4988.43973230736,72.2766335189705)
);
#511=CARTESIAN_POINT('',(-6555.20771889054,-4988.43973230736,73.092999657872)
);
#512=CARTESIAN_POINT('',(-6552.93038883369,-4988.43973230736,66.5845765441437)
);
#513=CARTESIAN_POINT('',(-6553.51005880535,-4988.43973230736,67.9643953150465)
);
#514=CARTESIAN_POINT('',(-6554.09527831298,-4988.43973230736,69.3419226891221)
);
#515=CARTESIAN_POINT('',(-6554.69116576323,-4988.43973230736,70.7148157159839)
);
#516=CARTESIAN_POINT('',(-6553.69493268992,-4988.43973230736,62.2641156955671)
);
#517=CARTESIAN_POINT('',(-6552.61877650368,-4988.43973230736,63.3886543967783)
);
#518=CARTESIAN_POINT('',(-6552.30724731865,-4988.43973230736,65.1582546730896)
);
#519=CARTESIAN_POINT('',(-6552.93038883369,-4988.43973230736,66.5845765441437)
);
#520=CARTESIAN_POINT('',(-6553.66217980425,-4988.43973230736,61.5093679914891)
);
#521=CARTESIAN_POINT('',(-6553.88182509491,-4988.43973230736,61.694158386391)
);
#522=CARTESIAN_POINT('',(-6553.89714336375,-4988.43973230736,62.0603943486946)
);
#523=CARTESIAN_POINT('',(-6553.69493268992,-4988.43973230736,62.2641156955671)
);
#524=CARTESIAN_POINT('',(-6552.31033104369,-4988.43973230736,58.5006692062798)
);
#525=CARTESIAN_POINT('',(-6552.3096292614,-4988.43973230736,59.6349149332688)
);
#526=CARTESIAN_POINT('',(-6552.81395601803,-4988.43973230736,60.7563538679917)
);
#527=CARTESIAN_POINT('',(-6553.66217980425,-4988.43973230736,61.5093679914891)
);
#528=CARTESIAN_POINT('',(-6552.01548902282,-4988.43973230736,2.23498345828793)
);
#529=CARTESIAN_POINT('',(-6552.11376969644,-4988.43973230736,20.9902120409519)
);
#530=CARTESIAN_POINT('',(-6552.21205037007,-4988.43973230736,39.7454406236158)
);
#531=CARTESIAN_POINT('',(-6552.31033104369,-4988.43973230736,58.5006692062798)
);
#532=CARTESIAN_POINT('',(-6561.81413092014,-4988.43973230736,1.23499718772018)
);
#533=CARTESIAN_POINT('',(-6558.54791695439,-4988.43973230736,1.56832594457606)
);
#534=CARTESIAN_POINT('',(-6555.28170298857,-4988.43973230736,1.90165470143206)
);
#535=CARTESIAN_POINT('',(-6552.01548902282,-4988.43973230736,2.23498345828793)
);
#536=CARTESIAN_POINT('',(-6561.81353619008,-4988.43973230736,82.1307573168647)
);
#537=CARTESIAN_POINT('',(-6561.81353620137,-4988.43973230736,55.165503939085)
);
#538=CARTESIAN_POINT('',(-6561.81413090886,-4988.43973230736,28.2002505654999)
);
#539=CARTESIAN_POINT('',(-6561.81413092014,-4988.43973230736,1.23499718772018)
);
#540=CARTESIAN_POINT('',(-6558.65100112378,-4988.43973230736,81.2826036356786)
);
#541=CARTESIAN_POINT('',(-6559.66479906322,-4988.43973230736,81.6946289203998)
);
#542=CARTESIAN_POINT('',(-6560.72946999109,-4988.43973230736,81.9812528906244)
);
#543=CARTESIAN_POINT('',(-6561.8135378629,-4988.43973230736,82.130745186536));
#544=CARTESIAN_POINT('',(-6558.65100112422,-3488.43973230736,81.2826036357238)
);
#545=CARTESIAN_POINT('',(-6559.66479906365,-3488.43973230736,81.694628920445)
);
#546=CARTESIAN_POINT('',(-6560.72946999152,-3488.43973230736,81.9812528906696)
);
#547=CARTESIAN_POINT('',(-6561.81353786334,-3488.43973230736,82.1307451865812)
);
#548=CARTESIAN_POINT('',(-6561.81353619052,-3488.43973230736,82.1307573169099)
);
#549=CARTESIAN_POINT('',(-6561.8135362018,-3488.43973230736,55.1655039391302)
);
#550=CARTESIAN_POINT('',(-6561.81413090929,-3488.43973230736,28.2002505655451)
);
#551=CARTESIAN_POINT('',(-6561.81413092058,-3488.43973230736,1.2349971877654)
);
#552=CARTESIAN_POINT('',(-6561.81413092058,-3488.43973230736,1.2349971877654)
);
#553=CARTESIAN_POINT('',(-6552.01548902325,-3488.43973230736,2.23498345833315)
);
#554=CARTESIAN_POINT('',(-6552.31033104412,-3488.43973230736,58.500669206325)
);
#555=CARTESIAN_POINT('',(-6552.30962926183,-3488.43973230736,59.634914933314)
);
#556=CARTESIAN_POINT('',(-6552.81395601846,-3488.43973230736,60.756353868037)
);
#557=CARTESIAN_POINT('',(-6553.66217980468,-3488.43973230736,61.5093679915343)
);
#558=CARTESIAN_POINT('',(-6553.66217980468,-3488.43973230736,61.5093679915343)
);
#559=CARTESIAN_POINT('',(-6553.88182509534,-3488.43973230736,61.6941583864362)
);
#560=CARTESIAN_POINT('',(-6553.89714336418,-3488.43973230736,62.0603943487398)
);
#561=CARTESIAN_POINT('',(-6553.69493269035,-3488.43973230736,62.2641156956123)
);
#562=CARTESIAN_POINT('',(-6553.69493269035,-3488.43973230736,62.2641156956123)
);
#563=CARTESIAN_POINT('',(-6552.61877650411,-3488.43973230736,63.3886543968236)
);
#564=CARTESIAN_POINT('',(-6552.30724731909,-3488.43973230736,65.1582546731348)
);
#565=CARTESIAN_POINT('',(-6552.93038883412,-3488.43973230736,66.5845765441889)
);
#566=CARTESIAN_POINT('',(-6552.93038883412,-3488.43973230736,66.5845765441889)
);
#567=CARTESIAN_POINT('',(-6553.51005880578,-3488.43973230736,67.9643953150917)
);
#568=CARTESIAN_POINT('',(-6554.09527831341,-3488.43973230736,69.3419226891673)
);
#569=CARTESIAN_POINT('',(-6554.69116576367,-3488.43973230736,70.7148157160292)
);
#570=CARTESIAN_POINT('',(-6554.69116576367,-3488.43973230736,70.7148157160292)
);
#571=CARTESIAN_POINT('',(-6555.01624581072,-3488.43973230736,71.4637828734649)
);
#572=CARTESIAN_POINT('',(-6555.19448381788,-3488.43973230736,72.2766335190157)
);
#573=CARTESIAN_POINT('',(-6555.20771889097,-3488.43973230736,73.0929996579173)
);
#574=CARTESIAN_POINT('',(-6555.20771889097,-3488.43973230736,73.0929996579173)
);
#575=CARTESIAN_POINT('',(-6555.22201009533,-3488.43973230736,73.974510114224)
);
#576=CARTESIAN_POINT('',(-6555.5558118932,-3488.43973230736,74.8466210123975)
);
#577=CARTESIAN_POINT('',(-6556.13564867913,-3488.43973230736,75.5107401468782)
);
#578=CARTESIAN_POINT('',(-6556.13564867913,-3488.43973230736,75.5107401468782)
);
#579=CARTESIAN_POINT('',(-6556.19045617803,-3488.43973230736,75.573514206089)
);
#580=CARTESIAN_POINT('',(-6556.24463204544,-3488.43973230736,75.6368384692738)
);
#581=CARTESIAN_POINT('',(-6556.29921760792,-3488.43973230736,75.6998056100262)
);
#582=CARTESIAN_POINT('',(-6556.29921760792,-3488.43973230736,75.6998056100262)
);
#583=CARTESIAN_POINT('',(-6556.25574253852,-3488.43973230736,75.7837696779681)
);
#584=CARTESIAN_POINT('',(-6556.21251435383,-3488.43973230736,75.8678620393107)
);
#585=CARTESIAN_POINT('',(-6556.16879239971,-3488.43973230736,75.951697813852)
);
#586=CARTESIAN_POINT('',(-6556.16879239971,-3488.43973230736,75.951697813852)
);
#587=CARTESIAN_POINT('',(-6555.83564633561,-3488.43973230736,76.5904972198371)
);
#588=CARTESIAN_POINT('',(-6555.73895065785,-3488.43973230735,77.3480606019516)
);
#589=CARTESIAN_POINT('',(-6555.90140967703,-3488.43973230736,78.0499566399786)
);
#590=CARTESIAN_POINT('',(-6555.90140967703,-3488.43973230736,78.0499566399786)
);
#591=CARTESIAN_POINT('',(-6556.21630118524,-3488.43973230736,79.4917821092137)
);
#592=CARTESIAN_POINT('',(-6557.27870679506,-3488.43973230736,80.7396251649214)
);
#593=CARTESIAN_POINT('',(-6558.65100112422,-3488.43973230736,81.2826036357238)
);
#594=CARTESIAN_POINT('',(-6560.20591826913,-3488.43973230736,81.8051242819561)
);
#595=CARTESIAN_POINT('',(-6560.2059182687,-4988.43973230736,81.8051242819109)
);
#596=PRODUCT_DEFINITION_SHAPE('','',#597);
#597=PRODUCT_DEFINITION('','',#609,#614);
#598=(
GEOMETRIC_REPRESENTATION_CONTEXT(3)
GLOBAL_UNCERTAINTY_ASSIGNED_CONTEXT((#599))
GLOBAL_UNIT_ASSIGNED_CONTEXT((#601,#600,#604))
REPRESENTATION_CONTEXT('','')
);
#599=UNCERTAINTY_MEASURE_WITH_UNIT(LENGTH_MEASURE(0.001),#601,'','tolerance');
#600=(
CONVERSION_BASED_UNIT('',#602)
NAMED_UNIT(#608)
PLANE_ANGLE_UNIT()
);
#601=(
CONVERSION_BASED_UNIT('',#603)
LENGTH_UNIT()
NAMED_UNIT(#607)
);
#602=PLANE_ANGLE_MEASURE_WITH_UNIT(PLANE_ANGLE_MEASURE(0.0174532925199433),
#605);
#603=LENGTH_MEASURE_WITH_UNIT(LENGTH_MEASURE(1.),#606);
#604=(
NAMED_UNIT(*)
SI_UNIT($,.STERADIAN.)
SOLID_ANGLE_UNIT()
);
#605=(
NAMED_UNIT(*)
PLANE_ANGLE_UNIT()
SI_UNIT($,.RADIAN.)
);
#606=(
LENGTH_UNIT()
NAMED_UNIT(*)
SI_UNIT(.MILLI.,.METRE.)
);
#607=DIMENSIONAL_EXPONENTS(1.,0.,0.,0.,0.,0.,0.);
#608=DIMENSIONAL_EXPONENTS(0.,0.,0.,0.,0.,0.,0.);
#609=PRODUCT_DEFINITION_FORMATION_WITH_SPECIFIED_SOURCE('','',#612,.NOT_KNOWN.
);
#610=PRODUCT_CATEGORY_RELATIONSHIP('','',#615,#611);
#611=PRODUCT_RELATED_PRODUCT_CATEGORY('assembly','',(#612));
#612=PRODUCT('','master','',(#613));
#613=PRODUCT_CONTEXT('',#617,'');
#614=PRODUCT_DEFINITION_CONTEXT('',#617,'part_definition');
#615=PRODUCT_CATEGORY('part','');
#616=APPLICATION_PROTOCOL_DEFINITION('international standard',
'automotive_design_cc2',1994,#617);
#617=APPLICATION_CONTEXT(
'configuration controlled 3D designs of mechanical parts and assemblies');
ENDSEC;
END-ISO-10303-21;
37714