ISO-10303-21;
HEADER;
/* Generated by software containing ST-Developer
 * from STEP Tools, Inc. (www.steptools.com) 
 */

FILE_DESCRIPTION(
/* description */ (''),
/* implementation_level */ '2;1');

FILE_NAME(
/* name */ 'TAL26 plan.step',
/* time_stamp */ '2024-03-21T14:58:40+01:00',
/* author */ ('Alice'),
/* organization */ ('Unknown'),
/* preprocessor_version */ 'ST-DEVELOPER v19.2',
/* originating_system */ 
'Autodesk Manufacturing Data Exchange Utility2023.0.4.918402',
/* authorisation */ '');

FILE_SCHEMA (('AUTOMOTIVE_DESIGN { 1 0 10303 214 3 1 1 }'));
ENDSEC;

DATA;
#10=MECHANICAL_DESIGN_GEOMETRIC_PRESENTATION_REPRESENTATION('',(),#177);
#11=PRESENTATION_LAYER_ASSIGNMENT('0','General',(#14));
#12=SHAPE_REPRESENTATION_RELATIONSHIP('SRR','None',#183,#13);
#13=ADVANCED_BREP_SHAPE_REPRESENTATION('',(#14),#176);
#14=MANIFOLD_SOLID_BREP('13',#101);
#15=CIRCLE('',#106,48.4999999999937);
#16=CIRCLE('',#107,48.4999999999937);
#17=CYLINDRICAL_SURFACE('',#105,48.4999999999937);
#18=B_SPLINE_CURVE_WITH_KNOTS('',3,(#147,#148,#149,#150),.UNSPECIFIED.,
 .F.,.F.,(4,4),(0.,1.),.UNSPECIFIED.);
#19=B_SPLINE_CURVE_WITH_KNOTS('',3,(#153,#154,#155,#156),.UNSPECIFIED.,
 .F.,.F.,(4,4),(0.,1.),.UNSPECIFIED.);
#20=B_SPLINE_CURVE_WITH_KNOTS('',3,(#164,#165,#166,#167),.UNSPECIFIED.,
 .F.,.F.,(4,4),(0.,1.),.UNSPECIFIED.);
#21=B_SPLINE_CURVE_WITH_KNOTS('',3,(#168,#169,#170,#171),.UNSPECIFIED.,
 .F.,.F.,(4,4),(0.,1.),.UNSPECIFIED.);
#22=FACE_OUTER_BOUND('',#28,.T.);
#23=FACE_OUTER_BOUND('',#29,.T.);
#24=FACE_OUTER_BOUND('',#30,.T.);
#25=FACE_OUTER_BOUND('',#31,.T.);
#26=FACE_OUTER_BOUND('',#32,.T.);
#27=FACE_OUTER_BOUND('',#33,.T.);
#28=EDGE_LOOP('',(#66,#67,#68,#69));
#29=EDGE_LOOP('',(#70,#71,#72,#73));
#30=EDGE_LOOP('',(#74,#75,#76,#77));
#31=EDGE_LOOP('',(#78,#79,#80,#81));
#32=EDGE_LOOP('',(#82,#83,#84,#85));
#33=EDGE_LOOP('',(#86,#87,#88,#89));
#34=LINE('',#139,#40);
#35=LINE('',#141,#41);
#36=LINE('',#143,#42);
#37=LINE('',#144,#43);
#38=LINE('',#152,#44);
#39=LINE('',#161,#45);
#40=VECTOR('',#115,49.9999999999998);
#41=VECTOR('',#116,265.);
#42=VECTOR('',#117,49.9999999999998);
#43=VECTOR('',#118,265.);
#44=VECTOR('',#121,265.);
#45=VECTOR('',#126,265.);
#46=VERTEX_POINT('',#137);
#47=VERTEX_POINT('',#138);
#48=VERTEX_POINT('',#140);
#49=VERTEX_POINT('',#142);
#50=VERTEX_POINT('',#146);
#51=VERTEX_POINT('',#151);
#52=VERTEX_POINT('',#158);
#53=VERTEX_POINT('',#160);
#54=EDGE_CURVE('',#46,#47,#34,.T.);
#55=EDGE_CURVE('',#48,#47,#35,.T.);
#56=EDGE_CURVE('',#49,#48,#36,.T.);
#57=EDGE_CURVE('',#49,#46,#37,.T.);
#58=EDGE_CURVE('',#47,#50,#18,.T.);
#59=EDGE_CURVE('',#51,#50,#38,.T.);
#60=EDGE_CURVE('',#48,#51,#19,.T.);
#61=EDGE_CURVE('',#50,#52,#15,.T.);
#62=EDGE_CURVE('',#53,#52,#39,.T.);
#63=EDGE_CURVE('',#51,#53,#16,.T.);
#64=EDGE_CURVE('',#52,#46,#20,.T.);
#65=EDGE_CURVE('',#53,#49,#21,.T.);
#66=ORIENTED_EDGE('',*,*,#54,.T.);
#67=ORIENTED_EDGE('',*,*,#55,.F.);
#68=ORIENTED_EDGE('',*,*,#56,.F.);
#69=ORIENTED_EDGE('',*,*,#57,.T.);
#70=ORIENTED_EDGE('',*,*,#58,.T.);
#71=ORIENTED_EDGE('',*,*,#59,.F.);
#72=ORIENTED_EDGE('',*,*,#60,.F.);
#73=ORIENTED_EDGE('',*,*,#55,.T.);
#74=ORIENTED_EDGE('',*,*,#61,.T.);
#75=ORIENTED_EDGE('',*,*,#62,.F.);
#76=ORIENTED_EDGE('',*,*,#63,.F.);
#77=ORIENTED_EDGE('',*,*,#59,.T.);
#78=ORIENTED_EDGE('',*,*,#64,.T.);
#79=ORIENTED_EDGE('',*,*,#57,.F.);
#80=ORIENTED_EDGE('',*,*,#65,.F.);
#81=ORIENTED_EDGE('',*,*,#62,.T.);
#82=ORIENTED_EDGE('',*,*,#56,.T.);
#83=ORIENTED_EDGE('',*,*,#60,.T.);
#84=ORIENTED_EDGE('',*,*,#63,.T.);
#85=ORIENTED_EDGE('',*,*,#65,.T.);
#86=ORIENTED_EDGE('',*,*,#54,.F.);
#87=ORIENTED_EDGE('',*,*,#64,.F.);
#88=ORIENTED_EDGE('',*,*,#61,.F.);
#89=ORIENTED_EDGE('',*,*,#58,.F.);
#90=PLANE('',#103);
#91=PLANE('',#104);
#92=PLANE('',#108);
#93=PLANE('',#109);
#94=PLANE('',#110);
#95=ADVANCED_FACE('',(#22),#90,.F.);
#96=ADVANCED_FACE('',(#23),#91,.F.);
#97=ADVANCED_FACE('',(#24),#17,.T.);
#98=ADVANCED_FACE('',(#25),#92,.F.);
#99=ADVANCED_FACE('',(#26),#93,.T.);
#100=ADVANCED_FACE('',(#27),#94,.F.);
#101=CLOSED_SHELL('',(#95,#96,#97,#98,#99,#100));
#102=AXIS2_PLACEMENT_3D('',#135,#111,#112);
#103=AXIS2_PLACEMENT_3D('',#136,#113,#114);
#104=AXIS2_PLACEMENT_3D('',#145,#119,#120);
#105=AXIS2_PLACEMENT_3D('',#157,#122,#123);
#106=AXIS2_PLACEMENT_3D('',#159,#124,#125);
#107=AXIS2_PLACEMENT_3D('',#162,#127,#128);
#108=AXIS2_PLACEMENT_3D('',#163,#129,#130);
#109=AXIS2_PLACEMENT_3D('',#172,#131,#132);
#110=AXIS2_PLACEMENT_3D('',#173,#133,#134);
#111=DIRECTION('axis',(0.,0.,1.));
#112=DIRECTION('refdir',(1.,0.,0.));
#113=DIRECTION('center_axis',(-8.35746835630206E-27,-1.,1.64960860981023E-12));
#114=DIRECTION('ref_axis',(0.,-1.64960860981023E-12,-1.));
#115=DIRECTION('',(-1.,0.,-5.68434188608082E-15));
#116=DIRECTION('',(-4.46757096725841E-12,-1.64961545471738E-12,-1.));
#117=DIRECTION('',(-1.,0.,-4.26325641456062E-15));
#118=DIRECTION('',(-4.46758457518843E-12,-1.64961545471738E-12,-1.));
#119=DIRECTION('center_axis',(1.,2.15480209592751E-15,-4.46758457518844E-12));
#120=DIRECTION('ref_axis',(-4.46758457518844E-12,0.,-1.));
#121=DIRECTION('',(-4.46760448342519E-12,-1.64961545471738E-12,-1.));
#122=DIRECTION('center_axis',(-4.46758457518843E-12,-1.64960860981023E-12,
-1.));
#123=DIRECTION('ref_axis',(1.,8.31799457397494E-44,-4.46758457518843E-12));
#124=DIRECTION('center_axis',(-1.0926480377199E-14,4.15954753857615E-14,
1.));
#125=DIRECTION('ref_axis',(-1.,3.75049361555895E-14,-1.09264803772006E-14));
#126=DIRECTION('',(-4.46758457518843E-12,-1.64963221280077E-12,-1.));
#127=DIRECTION('center_axis',(-1.0926480377199E-14,4.15954753857615E-14,
1.));
#128=DIRECTION('ref_axis',(-1.,3.75049361555895E-14,-1.09264803772006E-14));
#129=DIRECTION('center_axis',(-1.,1.11022302467677E-14,4.46758457518842E-12));
#130=DIRECTION('ref_axis',(4.46758457518842E-12,0.,1.));
#131=DIRECTION('center_axis',(-1.0926480377199E-14,4.15954753857615E-14,
1.));
#132=DIRECTION('ref_axis',(1.,0.,1.0926480377199E-14));
#133=DIRECTION('center_axis',(-1.0926480377199E-14,4.15954753857615E-14,
1.));
#134=DIRECTION('ref_axis',(1.,0.,1.0926480377199E-14));
#135=CARTESIAN_POINT('',(0.,0.,0.));
#136=CARTESIAN_POINT('Origin',(1.18816068095384E-9,30.0000000004363,524.999999999848));
#137=CARTESIAN_POINT('',(4.21884749357559E-12,29.9999999999994,259.999999999848));
#138=CARTESIAN_POINT('',(-49.9999999999956,29.9999999999994,259.999999999848));
#139=CARTESIAN_POINT('',(4.21884749357559E-12,29.9999999999994,259.999999999848));
#140=CARTESIAN_POINT('',(-49.9999999988117,30.0000000004363,524.999999999848));
#141=CARTESIAN_POINT('',(-49.9999999988117,30.0000000004363,524.999999999848));
#142=CARTESIAN_POINT('',(1.18816068095384E-9,30.0000000004363,524.999999999848));
#143=CARTESIAN_POINT('',(1.18816068095384E-9,30.0000000004363,524.999999999848));
#144=CARTESIAN_POINT('',(1.18816068095384E-9,30.0000000004363,524.999999999848));
#145=CARTESIAN_POINT('Origin',(-49.9999999988117,30.0000000004363,524.999999999848));
#146=CARTESIAN_POINT('',(-49.9999999999955,-21.5232014258433,259.999999999857));
#147=CARTESIAN_POINT('Ctrl Pts',(-49.9999999999956,29.9999999999994,259.999999999848));
#148=CARTESIAN_POINT('Ctrl Pts',(-49.9999999999956,12.8255995247182,259.999999999848));
#149=CARTESIAN_POINT('Ctrl Pts',(-49.9999999999957,-4.34880095056212,259.999999999852));
#150=CARTESIAN_POINT('Ctrl Pts',(-49.9999999999955,-21.5232014258433,259.999999999857));
#151=CARTESIAN_POINT('',(-49.9999999988115,-21.5232014254063,524.999999999857));
#152=CARTESIAN_POINT('',(-49.9999999988115,-21.5232014254063,524.999999999857));
#153=CARTESIAN_POINT('Ctrl Pts',(-49.9999999988117,30.0000000004363,524.999999999848));
#154=CARTESIAN_POINT('Ctrl Pts',(-49.9999999988117,12.8255995251552,524.999999999848));
#155=CARTESIAN_POINT('Ctrl Pts',(-49.9999999988118,-4.34880095012513,524.999999999852));
#156=CARTESIAN_POINT('Ctrl Pts',(-49.9999999988115,-21.5232014254063,524.999999999857));
#157=CARTESIAN_POINT('Origin',(-1.49999999881789,-21.5232014254081,524.999999999858));
#158=CARTESIAN_POINT('',(3.10862446895044E-12,-70.0000000000021,259.999999999859));
#159=CARTESIAN_POINT('Origin',(-1.50000000000183,-21.5232014258451,259.999999999857));
#160=CARTESIAN_POINT('',(1.18705045792922E-9,-69.9999999995651,524.99999999986));
#161=CARTESIAN_POINT('',(1.18705045792922E-9,-69.9999999995651,524.99999999986));
#162=CARTESIAN_POINT('Origin',(-1.49999999881789,-21.5232014254081,524.999999999858));
#163=CARTESIAN_POINT('Origin',(1.18705045792922E-9,-69.999999999566,524.99999999986));
#164=CARTESIAN_POINT('Ctrl Pts',(3.10862446895044E-12,-70.000000000003,
259.999999999859));
#165=CARTESIAN_POINT('Ctrl Pts',(2.99760216648792E-12,-36.6666666666697,
259.999999999859));
#166=CARTESIAN_POINT('Ctrl Pts',(4.21884749357559E-12,-3.33333333333385,
259.999999999848));
#167=CARTESIAN_POINT('Ctrl Pts',(4.21884749357559E-12,29.9999999999994,
259.999999999848));
#168=CARTESIAN_POINT('Ctrl Pts',(1.18705045792922E-9,-69.999999999566,524.99999999986));
#169=CARTESIAN_POINT('Ctrl Pts',(1.18693943562675E-9,-36.6666666662328,
524.99999999986));
#170=CARTESIAN_POINT('Ctrl Pts',(1.18816068095384E-9,-3.33333333289687,
524.999999999848));
#171=CARTESIAN_POINT('Ctrl Pts',(1.18816068095384E-9,30.0000000004363,524.999999999848));
#172=CARTESIAN_POINT('Origin',(-1.49999999881789,-21.5232014254081,524.999999999858));
#173=CARTESIAN_POINT('Origin',(-1.50000000000183,-21.5232014258451,259.999999999857));
#174=UNCERTAINTY_MEASURE_WITH_UNIT(LENGTH_MEASURE(0.01),#178,
'DISTANCE_ACCURACY_VALUE',
'Maximum model space distance between geometric entities at asserted c
onnectivities');
#175=UNCERTAINTY_MEASURE_WITH_UNIT(LENGTH_MEASURE(0.01),#178,
'DISTANCE_ACCURACY_VALUE',
'Maximum model space distance between geometric entities at asserted c
onnectivities');
#176=(
GEOMETRIC_REPRESENTATION_CONTEXT(3)
GLOBAL_UNCERTAINTY_ASSIGNED_CONTEXT((#174))
GLOBAL_UNIT_ASSIGNED_CONTEXT((#178,#179,#180))
REPRESENTATION_CONTEXT('','3D')
);
#177=(
GEOMETRIC_REPRESENTATION_CONTEXT(3)
GLOBAL_UNCERTAINTY_ASSIGNED_CONTEXT((#175))
GLOBAL_UNIT_ASSIGNED_CONTEXT((#178,#179,#180))
REPRESENTATION_CONTEXT('','3D')
);
#178=(
LENGTH_UNIT()
NAMED_UNIT(*)
SI_UNIT(.MILLI.,.METRE.)
);
#179=(
NAMED_UNIT(*)
PLANE_ANGLE_UNIT()
SI_UNIT($,.RADIAN.)
);
#180=(
NAMED_UNIT(*)
SI_UNIT($,.STERADIAN.)
SOLID_ANGLE_UNIT()
);
#181=SHAPE_DEFINITION_REPRESENTATION(#182,#183);
#182=PRODUCT_DEFINITION_SHAPE('',$,#185);
#183=SHAPE_REPRESENTATION('',(#102),#176);
#184=PRODUCT_DEFINITION_CONTEXT('part definition',#189,'design');
#185=PRODUCT_DEFINITION('partANN::DOCUMENT','partANN::DOCUMENT',#186,#184);
#186=PRODUCT_DEFINITION_FORMATION('',$,#191);
#187=PRODUCT_RELATED_PRODUCT_CATEGORY('partANN::DOCUMENT',
'partANN::DOCUMENT',(#191));
#188=APPLICATION_PROTOCOL_DEFINITION('international standard',
'automotive_design',2009,#189);
#189=APPLICATION_CONTEXT(
'Core Data for Automotive Mechanical Design Process');
#190=PRODUCT_CONTEXT('part definition',#189,'mechanical');
#191=PRODUCT('partANN::DOCUMENT','partANN::DOCUMENT',$,(#190));
#192=PRESENTATION_STYLE_ASSIGNMENT((#193));
#193=SURFACE_STYLE_USAGE(.BOTH.,#194);
#194=SURFACE_SIDE_STYLE('',(#195));
#195=SURFACE_STYLE_FILL_AREA(#196);
#196=FILL_AREA_STYLE('rgb_colour_1',(#197));
#197=FILL_AREA_STYLE_COLOUR('rgb_colour_1',#198);
#198=COLOUR_RGB('rgb_colour_1',1.,1.,1.);
ENDSEC;
END-ISO-10303-21;
11532